<svg width="58" height="46" viewBox="0 0 58 46" fill="none" xmlns="http://www.w3.org/2000/svg">
<path fill-rule="evenodd" clip-rule="evenodd" d="M38.861 43.7541C37.8772 43.0904 35.5406 42.2054 34.4338 41.8735L33.6959 34.7937H32.2202L33.081 42.8691L33.45 43.0904C34.1878 43.4223 35.9095 43.9754 37.0163 44.5285H20.7831C21.8899 43.9754 23.6116 43.3116 24.3495 43.0904L24.7185 42.8691L25.8253 34.7937H24.3495L23.3657 41.8735C22.3819 42.316 19.9223 43.201 18.9385 43.7541C18.5695 44.086 18.3236 44.5285 18.4465 45.0816C18.5695 45.5241 19.0614 45.856 19.5533 45.856H38.1231C38.6151 45.856 39.107 45.5241 39.23 45.0816C39.4759 44.5285 39.23 44.086 38.861 43.7541Z" fill="#1D428A"/>
<path fill-rule="evenodd" clip-rule="evenodd" d="M54.7256 0.501221H2.82851C1.22979 0.501221 0 1.60743 0 2.93488V31.1432C0 32.5813 1.22979 33.6875 2.95149 33.6875H54.8486C56.4473 33.6875 57.8 32.5813 57.8 31.0326V3.15612C57.8 1.71805 56.4473 0.501221 54.7256 0.501221ZM54.7256 1.82867C55.5864 1.82867 56.3243 2.38178 56.3243 3.15612V31.0326C56.3243 31.6963 55.7094 32.36 54.8486 32.36H2.95149C2.21362 32.36 1.59872 31.9176 1.59872 31.2538V2.93488C1.59872 2.27116 2.21362 1.82867 2.95149 1.82867H54.7256Z" fill="#1D428A"/>
<path d="M52.8809 28.1566H6.14893V30.3684H52.8809V28.1566Z" fill="#0091DA"/>
<path fill-rule="evenodd" clip-rule="evenodd" d="M35.6638 15.4351L24.5957 22.6255V8.24463L35.6638 15.4351Z" fill="#0091DA"/>
</svg>
