<svg width="59" height="53" viewBox="0 0 59 53" fill="none" xmlns="http://www.w3.org/2000/svg">
<path fill-rule="evenodd" clip-rule="evenodd" d="M55.6622 13.5941L50.8703 16.3164V18.9253L36.6209 31.7428L35.3599 30.6085C34.6033 29.928 33.0901 29.928 32.2074 30.6085L30.9463 31.7428C30.568 32.0831 30.3158 32.5368 30.3158 32.9906L27.7938 34.1249L15.9403 44.7872L15.3098 46.7155L21.3627 52.1602L23.3803 51.8199L35.7382 40.8172C35.9904 40.5903 35.9904 40.1366 35.7382 39.7963C35.486 39.5695 34.9816 39.5695 34.6033 39.7963L22.6237 50.5721L21.8671 50.6856L17.0752 46.3753L17.2013 45.5812L28.6765 35.3726L30.4419 34.4652L31.3246 35.2592L20.8583 44.7872C20.7322 44.9007 20.7322 45.1275 20.8583 45.241C20.8583 45.241 20.9844 45.3544 21.1105 45.3544C21.1105 45.3544 21.2366 45.3544 21.3627 45.241L31.9552 35.7129L33.4684 37.074L25.524 44.3335C25.3979 44.4469 25.3979 44.6738 25.524 44.7872C25.524 44.7872 25.6501 44.9007 25.7762 44.9007C25.7762 44.9007 25.9023 44.9007 26.0284 44.7872L34.0989 37.6412L35.486 38.8889C35.7382 39.1158 36.2426 39.1158 36.6209 38.8889C36.8731 38.662 36.8731 38.2083 36.6209 37.868L31.8291 33.5577L31.9552 33.4443C31.703 33.2174 31.703 32.8771 31.9552 32.6503L33.2162 31.516C33.4684 31.2891 33.8467 31.2891 34.0989 31.516L38.3863 35.3726C38.6385 35.5994 38.6385 35.9397 38.3863 36.1666L39.5212 37.1875C39.8995 36.8472 40.1517 36.3935 40.1517 35.8263C40.1517 35.3726 39.8995 34.8054 39.5212 34.4652L37.6297 32.7637L52.3835 19.6059V17.1104L55.4099 15.409L56.1666 16.0896L54.4011 18.8119C54.275 19.1522 54.4011 19.6059 54.6533 19.7193C55.0316 19.8327 55.536 19.7193 55.6622 19.4925L58.0581 15.8627L55.6622 13.5941Z" fill="#1D428A"/>
<path fill-rule="evenodd" clip-rule="evenodd" d="M6.60872 38.2084C8.50023 38.4353 10.3917 37.9815 11.7789 36.7338C13.5443 35.2592 14.0487 33.1041 13.0399 31.1758L12.7877 30.7221L35.3597 11.0988L35.8642 11.2122C38.134 12.0062 40.656 11.5525 42.2953 10.0779C43.6824 8.83019 44.3129 7.24218 43.9346 5.54074L41.2865 7.80932L37.5035 6.90189L36.4947 3.61244L39.1428 1.34385C37.2513 1.11699 35.3597 1.57071 33.9726 2.81843C32.2072 4.29301 31.7028 6.44817 32.7116 8.37647L32.9638 8.83019L10.3917 28.5669L9.88734 28.4535C7.61752 27.6595 5.0955 28.1132 3.45619 29.5878C2.06908 30.8355 1.43857 32.4235 1.81688 34.1249L4.465 31.8564L8.24803 32.7638L9.25684 36.0532L6.60872 38.2084ZM7.61752 39.683C6.60872 39.683 5.72601 39.5695 4.8433 39.2293L3.70839 38.889L7.61752 35.4861L6.98702 33.6712L4.9694 33.2175L1.06027 36.6204L0.555866 35.5995C-0.579043 33.2175 0.051462 30.3818 2.19518 28.5669C4.2128 26.752 7.11312 26.1849 9.88734 26.9789L31.0723 8.60333C30.1896 6.33474 30.8201 3.72587 32.8377 1.911C34.9814 0.0961252 38.134 -0.471022 40.9082 0.436413L42.0431 0.776701L38.134 4.17958L38.7645 5.99445L40.7821 6.44817L44.6912 3.04529L45.1956 4.06615C46.3305 6.44817 45.7 9.28391 43.5563 11.0988C41.5387 12.9136 38.6384 13.4808 35.8642 12.6868L14.8053 31.0623C15.688 33.3309 15.0575 35.9398 13.0399 37.7547C11.5267 39.0024 9.50904 39.683 7.61752 39.683Z" fill="#0091DA"/>
</svg>
