<svg width="51" height="46" viewBox="0 0 51 46" fill="none" xmlns="http://www.w3.org/2000/svg">
<path fill-rule="evenodd" clip-rule="evenodd" d="M17.1063 44.2219H49.6188V1.59634H16.575L1.38125 16.4102V29.5992L17.1063 44.2219ZM51 45.3688H16.575L0 30.0771V15.9323L15.9375 0.449463H51V45.3688Z" fill="#1D428A"/>
<path fill-rule="evenodd" clip-rule="evenodd" d="M28.6876 9.52887C28.6876 11.3448 26.775 12.874 24.4375 12.874C22.1 12.874 20.1875 11.3448 20.1875 9.52887C20.1875 7.71293 22.1 6.18372 24.4375 6.18372C26.775 6.18372 28.6876 7.71293 28.6876 9.52887Z" fill="#0091DA"/>
<path fill-rule="evenodd" clip-rule="evenodd" d="M28.6876 23.3869C28.6876 25.4895 26.775 27.2098 24.4375 27.2098C22.1 27.2098 20.1875 25.4895 20.1875 23.3869C20.1875 21.2843 22.1 19.564 24.4375 19.564C26.775 19.564 28.6876 21.2843 28.6876 23.3869Z" fill="#0091DA"/>
<path fill-rule="evenodd" clip-rule="evenodd" d="M12.75 23.3869C12.75 25.4895 11.05 27.2098 9.03125 27.2098C7.0125 27.2098 5.3125 25.4895 5.3125 23.3869C5.3125 21.2843 7.0125 19.564 9.03125 19.564C11.05 19.564 12.75 21.2843 12.75 23.3869Z" fill="#0091DA"/>
<path fill-rule="evenodd" clip-rule="evenodd" d="M28.6876 37.2451C28.6876 39.061 26.775 40.5901 24.4375 40.5901C22.1 40.5901 20.1875 39.061 20.1875 37.2451C20.1875 35.4293 22.1 33.9001 24.4375 33.9001C26.775 33.9001 28.6876 35.4293 28.6876 37.2451Z" fill="#0091DA"/>
<path d="M19.7545 13.5152L13.6697 18.9885L14.5711 19.7994L20.656 14.3261L19.7545 13.5152Z" fill="#1D428A"/>
<path d="M14.5045 27.655L13.603 28.4659L19.6878 33.9395L20.5893 33.1286L14.5045 27.655Z" fill="#1D428A"/>
<path d="M19.125 22.4312H14.875V24.3435H19.125V22.4312Z" fill="#1D428A"/>
<path fill-rule="evenodd" clip-rule="evenodd" d="M39.95 12.874L45.6875 9.52887L39.95 6.18372V8.28638H30.8125V10.7714H39.95V12.874Z" fill="#1D428A"/>
<path fill-rule="evenodd" clip-rule="evenodd" d="M39.95 22.3357H30.8125V24.4383H39.95V26.2543L45.6875 23.387L39.95 20.5198V22.3357Z" fill="#1D428A"/>
<path fill-rule="evenodd" clip-rule="evenodd" d="M39.95 36.0027H30.8125V38.4875H39.95V40.5901L45.6875 37.2451L39.95 33.9001V36.0027Z" fill="#1D428A"/>
</svg>
