<svg width="68" height="55" viewBox="0 0 68 55" fill="none" xmlns="http://www.w3.org/2000/svg">
<path fill-rule="evenodd" clip-rule="evenodd" d="M20.9787 10.9741C18.3744 10.9741 16.2042 13.0644 16.2042 15.808C16.2042 18.4208 18.3744 20.6418 20.9787 20.6418C23.5829 20.6418 25.7531 18.5515 25.7531 15.808C25.7531 13.0644 23.5829 10.9741 20.9787 10.9741ZM20.9787 22.2095C17.3616 22.2095 14.468 19.2047 14.468 15.6773C14.468 12.1499 17.3616 9.14514 20.9787 9.14514C24.5957 9.14514 27.4893 12.1499 27.4893 15.6773C27.4893 19.3353 24.5957 22.2095 20.9787 22.2095Z" fill="#0091DA"/>
<path fill-rule="evenodd" clip-rule="evenodd" d="M33.2767 30.0481H31.5405V27.5659C28.6469 25.2143 24.8852 23.9078 20.9788 23.9078C17.0724 23.9078 13.3107 25.2143 10.4171 27.5659V30.0481H8.68091V26.9126L8.97027 26.6514C12.2979 23.7772 16.4937 22.2095 20.9788 22.2095C25.4639 22.2095 29.6596 23.7772 32.9873 26.6514L33.2767 26.9126V30.0481Z" fill="#0091DA"/>
<path fill-rule="evenodd" clip-rule="evenodd" d="M31.685 20.1192H35.4467V22.0789C35.4467 22.7321 36.0254 23.2547 36.7488 23.2547H56.2807C57.0041 23.2547 57.5829 22.7321 57.5829 22.0789V9.27575C57.5829 8.62253 57.0041 8.09995 56.2807 8.09995H36.7488C36.0254 8.09995 35.4467 8.62253 35.4467 9.27575V16.5918L31.685 20.1192ZM56.2807 24.8224H36.7488C35.0127 24.8224 33.7105 23.6466 33.7105 22.0789V21.8176H27.4893L33.7105 16.0692V9.27575C33.7105 7.70802 35.0127 6.53223 36.7488 6.53223H56.2807C58.0169 6.53223 59.319 7.70802 59.319 9.27575V21.9482C59.319 23.6466 58.0169 24.8224 56.2807 24.8224Z" fill="#0091DA"/>
<path fill-rule="evenodd" clip-rule="evenodd" d="M45.7192 52.3881C44.5617 51.6043 41.8128 50.5591 40.5107 50.1672L39.6426 41.9367H37.9064L38.7745 51.343L39.2086 51.6043C40.0766 51.9962 42.1022 52.6494 43.4043 53.3026H24.4511C25.7532 52.6494 27.7788 51.8656 28.6469 51.6043L29.0809 51.343L30.383 41.806H28.6469L27.4894 50.1672C26.332 50.6898 23.4384 51.7349 22.2809 52.3881C21.8469 52.7801 21.5575 53.3026 21.7022 53.9559C21.8469 54.4784 22.4256 54.8704 23.0043 54.8704H44.8511C45.4298 54.8704 46.0086 54.4784 46.1532 53.9559C46.4426 53.3026 46.1532 52.7801 45.7192 52.3881Z" fill="#1D428A"/>
<path fill-rule="evenodd" clip-rule="evenodd" d="M64.383 0H3.32766C1.44681 0 0 1.30644 0 3.00481V36.319C0 37.8867 1.44681 39.1931 3.47234 39.1931H64.5277C66.4085 39.1931 68 37.756 68 36.0577V3.26609C68 1.43708 66.4085 0 64.383 0ZM64.383 1.69837C65.3957 1.69837 66.2638 2.48223 66.2638 3.26609V36.1883C66.2638 36.9722 65.5404 37.6254 64.5277 37.6254H3.47234C2.60426 37.6254 1.88085 37.1028 1.88085 36.319V3.00481C1.88085 2.35159 2.60426 1.69837 3.47234 1.69837H64.383Z" fill="#1D428A"/>
<path d="M60.7661 33.9675H7.23413V35.2745H60.7661V33.9675Z" fill="#1D428A"/>
</svg>
