<?xml version="1.0" encoding="utf-8"?>
<!-- Generator: Adobe Illustrator 23.0.2, SVG Export Plug-In . SVG Version: 6.00 Build 0)  -->
<svg version="1.1" id="Layer_1" xmlns="http://www.w3.org/2000/svg" xmlns:xlink="http://www.w3.org/1999/xlink" x="0px" y="0px"
	 viewBox="0 0 526.7 313" style="enable-background:new 0 0 526.7 313;" xml:space="preserve">
<style type="text/css">
	.st0{fill:#EF5024;}
	.st1{fill:#EF4E23;}
	.st2{fill:#FFFFFF;}
	.st3{opacity:0.3;}
	.st4{opacity:0.15;}
	.st5{fill:#495465;}
	.st6{opacity:0.35;}
	.st7{fill:none;stroke:#CCCBCB;stroke-width:0.82;stroke-linecap:round;stroke-linejoin:round;}
	.st8{fill:none;stroke:#EF4E23;stroke-miterlimit:10;stroke-dasharray:1,3;}
	.st9{fill:#F48536;}
	.st10{fill:#CCCBCB;}
	.st11{clip-path:url(#SVGID_2_);}
	.st12{clip-path:url(#SVGID_4_);fill:#F79629;}
	.st13{clip-path:url(#SVGID_6_);fill:#F79629;}
	.st14{clip-path:url(#SVGID_8_);fill:#F9B261;}
	.st15{clip-path:url(#SVGID_10_);fill:#565D6F;}
	.st16{clip-path:url(#SVGID_12_);fill:#41495E;}
	.st17{clip-path:url(#SVGID_14_);fill:#FCDBB6;}
	.st18{clip-path:url(#SVGID_16_);fill:#FDE4C8;}
	.st19{clip-path:url(#SVGID_18_);fill:#BFC2C9;}
	.st20{clip-path:url(#SVGID_20_);fill:#C4C7CD;}
	.st21{clip-path:url(#SVGID_22_);fill:#7A808E;}
	.st22{clip-path:url(#SVGID_24_);fill:#797E8D;}
	.st23{clip-path:url(#SVGID_26_);fill:#C2C5CB;}
	.st24{clip-path:url(#SVGID_28_);fill:#C2C5CB;}
	.st25{clip-path:url(#SVGID_30_);fill:#1B253E;}
	.st26{clip-path:url(#SVGID_32_);fill:#1B253E;}
	.st27{clip-path:url(#SVGID_34_);fill:#1B253E;}
	.st28{fill:url(#Orange_Gradient_1_);}
	.st29{fill:url(#Purple_Gradient_2_);}
	.st30{fill:url(#Purple_Gradient_3_);}
</style>
<title>Avi-vantage-application-delivery-in-aws-diagram-Figure-1</title>
<path class="st0" d="M312.5,142.3v13.3c0,1.6,0.9,3.1,2.3,3.9l11.5,6.6c1.4,0.8,3.1,0.8,4.5,0l11.5-6.6c1.4-0.8,2.2-2.3,2.3-3.9
	v-13.3c0-1.6-0.9-3.1-2.3-3.9l-11.5-6.6c-1.4-0.8-3.1-0.8-4.5,0l-11.5,6.6C313.3,139.2,312.5,140.7,312.5,142.3z"/>
<path class="st1" d="M328.5,167.4c-0.5,0-0.9-0.1-1.3-0.3l-13.7-7.9c-0.8-0.5-1.3-1.3-1.3-2.3V141c0-0.9,0.5-1.8,1.3-2.2l13.7-7.9
	c0.8-0.5,1.8-0.5,2.6,0l13.7,7.9c0.8,0.5,1.3,1.3,1.3,2.2v15.8c0,0.9-0.5,1.8-1.3,2.3l-13.7,7.9
	C329.3,167.2,328.9,167.4,328.5,167.4z M328.5,131.1c-0.4,0-0.7,0.1-1,0.3l-13.7,7.9c-0.6,0.3-1,1-1,1.7v15.8c0,0.7,0.4,1.3,1,1.7
	l13.7,7.9c0.6,0.4,1.3,0.4,2,0l13.7-7.9c0.6-0.4,1-1,1-1.7V141c0-0.7-0.4-1.4-1-1.7l-13.7-7.9C329.1,131.2,328.8,131.1,328.5,131.1z
	"/>
<path class="st2" d="M328.5,161.5L328.5,161.5c-0.7,0-1.3-0.3-1.7-0.9l-1.4-2.1c-0.3-0.5-0.9-0.7-1.4-0.6l-2.5,0.5
	c-1.1,0.2-2.1-0.4-2.4-1.5c-0.1-0.3-0.1-0.6,0-0.9l0.5-2.5c0.1-0.6-0.1-1.1-0.6-1.4l-2.1-1.4c-0.6-0.4-0.9-1-0.9-1.7
	s0.3-1.3,0.9-1.7l2.1-1.4c0.5-0.3,0.7-0.9,0.6-1.4l-0.5-2.5c-0.1-0.7,0.1-1.4,0.5-1.8c0.5-0.5,1.2-0.7,1.8-0.6l2.5,0.5
	c0.6,0.1,1.1-0.1,1.4-0.6l1.4-2.1c0.4-0.6,1-0.9,1.7-0.9l0,0c0.7,0,1.3,0.3,1.7,0.9l1.4,2.1c0.3,0.5,0.9,0.7,1.4,0.6l2.5-0.5
	c0.7-0.1,1.4,0.1,1.8,0.6c0.5,0.5,0.7,1.2,0.5,1.8l-0.5,2.5c-0.1,0.6,0.1,1.1,0.6,1.4l2.1,1.4c0.6,0.4,0.9,1,0.9,1.7
	s-0.3,1.3-0.9,1.7L338,152c-0.5,0.3-0.7,0.9-0.6,1.4l0.5,2.5c0.2,1.1-0.4,2.1-1.5,2.4c-0.3,0.1-0.6,0.1-0.9,0l-2.5-0.5
	c-0.6-0.1-1.1,0.1-1.4,0.6l-1.4,2.1C329.8,161.2,329.1,161.5,328.5,161.5z M324.2,157.2c0.7,0,1.3,0.3,1.7,0.9l1.4,2.1
	c0.3,0.4,0.7,0.6,1.2,0.6l0,0c0.5,0,0.9-0.2,1.1-0.6l1.4-2.1c0.5-0.7,1.3-1,2.1-0.9l2.5,0.5c0.5,0.1,0.9-0.1,1.3-0.4
	c0.3-0.3,0.5-0.8,0.4-1.3l-0.5-2.5c-0.2-0.8,0.2-1.6,0.9-2.1l2.1-1.4c0.6-0.4,0.8-1.3,0.4-1.9c-0.1-0.1-0.2-0.3-0.4-0.4l-2.1-1.4
	c-0.7-0.4-1-1.3-0.9-2.1l0.5-2.5c0.1-0.5,0-0.9-0.4-1.3c-0.3-0.3-0.8-0.5-1.3-0.4l-2.5,0.5c-0.8,0.2-1.6-0.2-2.1-0.9l-1.4-2.1
	c-0.3-0.4-0.7-0.6-1.1-0.6l0,0c-0.5,0-0.9,0.2-1.2,0.6l-1.4,2.1c-0.5,0.7-1.3,1-2.1,0.9l-2.5-0.5c-0.5-0.1-0.9,0.1-1.3,0.4
	c-0.3,0.3-0.5,0.8-0.4,1.3l0.5,2.5c0.2,0.8-0.2,1.6-0.9,2.1l-2.1,1.4c-0.6,0.4-0.8,1.3-0.4,1.9c0.1,0.1,0.2,0.3,0.4,0.4l2.1,1.4
	c0.7,0.5,1,1.3,0.9,2.1l-0.5,2.5c-0.1,0.5,0,0.9,0.4,1.3c0.3,0.3,0.8,0.5,1.3,0.4l2.5-0.5C323.9,157.2,324,157.2,324.2,157.2
	L324.2,157.2z"/>
<path class="st2" d="M328.5,152.7c-2.1,0-3.7-1.7-3.7-3.7s1.7-3.7,3.7-3.7c2.1,0,3.7,1.7,3.7,3.7l0,0
	C332.2,151,330.5,152.7,328.5,152.7z M328.5,145.8c-1.7,0-3.1,1.4-3.1,3.1c0,1.7,1.4,3.1,3.1,3.1s3.1-1.4,3.1-3.1l0,0
	C331.5,147.2,330.2,145.8,328.5,145.8z"/>
<g class="st3">
	<path class="st2" d="M328.5,153.2c-2.4,0.1-4.4-1.7-4.5-4.1c-0.1-2.4,1.7-4.4,4.1-4.5c0.1,0,0.3,0,0.4,0c0.2,0,0.3,0.2,0.3,0.4
		c0,0.1-0.1,0.2-0.3,0.3c-2,0-3.7,1.6-3.7,3.7s1.6,3.7,3.7,3.7l0,0c0.2,0,0.3,0.1,0.3,0.3C328.8,153.1,328.6,153.2,328.5,153.2
		L328.5,153.2z"/>
</g>
<path class="st2" d="M328.5,156.1c-3.9,0-7.1-3.2-7.1-7.1c0-3.9,3.2-7.1,7.1-7.1s7.1,3.2,7.1,7.1l0,0
	C335.6,152.9,332.4,156.1,328.5,156.1z M328.5,142.4c-3.6,0-6.5,2.9-6.5,6.5s2.9,6.5,6.5,6.5s6.5-2.9,6.5-6.5l0,0
	C334.9,145.3,332,142.4,328.5,142.4L328.5,142.4z"/>
<g class="st3">
	<path class="st2" d="M328.5,155.5c-0.2,0-0.3-0.1-0.4-0.3c0-0.2,0.1-0.3,0.3-0.4h0.1c3.3-0.1,5.8-2.9,5.7-6.2
		c-0.1-3.1-2.6-5.6-5.7-5.7c-0.2,0-0.3-0.1-0.3-0.3s0.1-0.3,0.3-0.3c3.6,0,6.6,2.9,6.6,6.6C335,152.6,332.1,155.5,328.5,155.5z"/>
</g>
<g class="st4">
	<polygon class="st5" points="352.5,60.3 303.9,60.3 301.2,57.7 355.1,57.7 	"/>
</g>
<g class="st4">
	<path class="st5" d="M355.7,25.1l-2.1-2.1h-50.2l-2.1,2.1v2.1h54.5L355.7,25.1L355.7,25.1z"/>
</g>
<g class="st6">
	<rect x="301.2" y="26.4" class="st5" width="53.9" height="2.7"/>
</g>
<path class="st0" d="M321,40.5v5c0,1.1,0.6,2.1,1.5,2.7l4.3,2.5c1,0.5,2.1,0.5,3.1,0l4.3-2.5c1-0.5,1.6-1.6,1.5-2.7v-5
	c0-1.1-0.6-2.1-1.5-2.7l-4.3-2.5c-1-0.6-2.1-0.6-3.1,0l-4.3,2.5C321.6,38.3,321,39.4,321,40.5z"/>
<path class="st1" d="M328.4,51.7c-0.5,0-0.9-0.1-1.3-0.4l-5.3-3c-0.8-0.5-1.3-1.4-1.3-2.3v-6.1c0-1,0.5-1.8,1.3-2.3l5.3-3
	c0.8-0.5,1.8-0.5,2.7,0l5.3,3c0.8,0.5,1.3,1.4,1.3,2.3V46c0,1-0.5,1.8-1.3,2.3l-5.3,3C329.3,51.6,328.9,51.7,328.4,51.7z
	 M328.4,35.3c-0.3,0-0.6,0.1-0.8,0.2l-5.3,3c-0.5,0.3-0.8,0.8-0.8,1.4V46c0,0.6,0.3,1.1,0.8,1.4l5.3,3c0.5,0.3,1.1,0.3,1.6,0l5.3-3
	c0.5-0.3,0.8-0.8,0.8-1.4v-6.1c0-0.6-0.3-1.1-0.8-1.4l-5.3-3C329,35.4,328.7,35.3,328.4,35.3z"/>
<path class="st5" d="M342.9,71.6H314c-0.3,0-0.5-0.3-0.5-0.6c0-0.2,0.2-0.4,0.5-0.5h28.9c0.3,0,0.5,0.3,0.5,0.6
	C343.3,71.3,343.1,71.5,342.9,71.6L342.9,71.6z"/>
<rect x="302.3" y="26.2" class="st5" width="52.3" height="1.1"/>
<rect x="327.4" y="24.6" class="st5" width="2.1" height="1.1"/>
<rect x="302.3" y="57.1" class="st5" width="52.3" height="1.1"/>
<g class="st4">
	<path class="st5" d="M334.9,61.3h-3.6v-1.1h3.6V61.3z M325.8,61.3h-3.6v-1.1h3.6V61.3z"/>
</g>
<path class="st5" d="M315.3,71.6v-1.1c6.1,0,6.1-10.2,6.1-10.3h1.1C322.5,60.7,322.4,71.6,315.3,71.6z"/>
<path class="st5" d="M341.6,71.6c-7.1,0-7.2-10.9-7.2-11.3h1.1c0,0.1,0.1,10.3,6.1,10.3V71.6z"/>
<path class="st5" d="M328.5,63.5c-1.8,0-3.2-1.4-3.2-3.1c0,0,0,0,0-0.1h1.1c-0.1,1.2,0.8,2.2,2,2.3s2.2-0.8,2.3-2c0-0.1,0-0.2,0-0.3
	h1.1C331.7,62,330.3,63.4,328.5,63.5L328.5,63.5z"/>
<path class="st2" d="M331.1,45.7c-0.2,0-0.4-0.1-0.5-0.3l-2.2-4.4l-2.2,4.4c-0.1,0.3-0.4,0.4-0.7,0.2c-0.3-0.1-0.4-0.5-0.2-0.7
	l2.7-5.4c0.2-0.3,0.5-0.4,0.8-0.2c0.1,0,0.1,0.1,0.2,0.2l2.7,5.3c0.1,0.3,0,0.6-0.2,0.7l0,0C331.3,45.6,331.2,45.7,331.1,45.7z"/>
<path class="st5" d="M352.9,60.3h-49.1l-2.6-2.7V25.1l2.1-2.1h50.2l2.1,2.1v32.5L352.9,60.3z M304.3,59.3h48.2l2.1-2.1V25.5
	l-1.5-1.5h-49.4l-1.5,1.5v31.7L304.3,59.3z"/>
<polygon class="st5" points="341.8,72.1 315.1,72.1 314,71 342.9,71 "/>
<path class="st1" d="M303.9,27.5c-0.3,0-0.5,0.2-0.5,0.5s0.2,0.5,0.5,0.5s0.5-0.2,0.5-0.5l0,0C304.4,27.7,304.2,27.5,303.9,27.5z"/>
<path class="st1" d="M305.5,27.5c-0.3,0-0.5,0.2-0.6,0.5s0.2,0.5,0.5,0.6c0.3,0,0.5-0.2,0.6-0.5c0,0,0,0,0-0.1
	C306,27.7,305.8,27.5,305.5,27.5L305.5,27.5z"/>
<path class="st1" d="M307.1,27.5c-0.3,0-0.5,0.2-0.5,0.5s0.2,0.5,0.5,0.5s0.5-0.2,0.5-0.5S307.4,27.5,307.1,27.5L307.1,27.5z"/>
<g class="st4">
	<rect x="302.4" y="29" class="st5" width="52.9" height="1.1"/>
</g>
<g class="st4">
	<path class="st5" d="M353.5,40c-0.3,0-0.5-0.2-0.5-0.5l0,0V29.3h-34.7c-0.3,0-0.5-0.3-0.5-0.6c0-0.2,0.2-0.4,0.5-0.5h35.3
		c0.3,0,0.5,0.2,0.5,0.5v10.7C354,39.7,353.8,40,353.5,40L353.5,40z"/>
</g>
<g class="st4">
	<path class="st5" d="M316.1,29.3h-1.6c-0.3,0-0.6-0.2-0.6-0.5s0.2-0.6,0.5-0.6h0.1h1.6c0.3,0,0.5,0.3,0.5,0.6
		C316.5,29.1,316.3,29.3,316.1,29.3z"/>
</g>
<g class="st4">
	<path class="st5" d="M353.5,41.6c-0.1,0-0.3-0.1-0.4-0.2c-0.1,0-0.1-0.1-0.1-0.2c0-0.1,0-0.1,0-0.2c0-0.1,0-0.1,0-0.2
		c0-0.1,0.1-0.1,0.1-0.2c0.2-0.2,0.4-0.2,0.6-0.1c0.1,0,0.1,0.1,0.2,0.1c0,0,0.1,0.1,0.1,0.2c0,0.1,0,0.1,0,0.2c0,0.1,0,0.1,0,0.2
		c0,0.1-0.1,0.1-0.1,0.2c0,0.1-0.1,0.1-0.2,0.1C353.6,41.6,353.5,41.6,353.5,41.6z"/>
</g>
<g class="st4">
	<path class="st5" d="M328.4,52.8c-0.5,0-0.9-0.1-1.3-0.3l-5.3-3c-0.2-0.2-0.3-0.5-0.1-0.8c0.2-0.2,0.4-0.3,0.7-0.2l5.3,3
		c0.5,0.3,1.1,0.3,1.6,0l5.3-3c0.3-0.1,0.6-0.1,0.7,0.2s0.1,0.6-0.2,0.7l0,0l-5.3,3C329.3,52.7,328.9,52.8,328.4,52.8z"/>
</g>
<path class="st5" d="M290.3,15.4l-0.4-1.4h-2.1l-0.4,1.4h-1.3l2-5.7h1.5l2,5.7H290.3z M289.6,13c-0.4-1.2-0.6-1.9-0.6-2.1
	s-0.1-0.3-0.1-0.4c-0.1,0.3-0.3,1.2-0.7,2.5H289.6z"/>
<path class="st5" d="M295.6,9.7h1.2l-1.9,5.7h-1.3l-1.9-5.7h1.2l1.1,3.4c0.1,0.2,0.1,0.4,0.2,0.7s0.1,0.4,0.1,0.6
	c0.1-0.4,0.2-0.8,0.3-1.3L295.6,9.7z"/>
<path class="st5" d="M297.7,15.4V9.7h1.2v5.7H297.7z"/>
<path class="st5" d="M306,15.4l-0.4-1.4h-2.1l-0.4,1.4h-1.3l2-5.7h1.5l2,5.7H306z M305.3,13l-0.6-2c0-0.2-0.1-0.3-0.1-0.4
	c-0.1,0.3-0.3,1.2-0.7,2.5L305.3,13z"/>
<path class="st5" d="M312.9,12.5c0.1,0.8-0.2,1.6-0.8,2.2c-0.6,0.5-1.5,0.8-2.3,0.8h-1.6V9.7h1.8c0.8-0.1,1.6,0.2,2.2,0.7
	C312.7,11,312.9,11.7,312.9,12.5z M311.6,12.5c0-1.2-0.5-1.8-1.6-1.8h-0.6v3.7h0.5C311,14.4,311.6,13.8,311.6,12.5L311.6,12.5z"/>
<path class="st5" d="M316.6,15.4l-1.4-4.5l0,0c0,0.9,0.1,1.5,0.1,1.8v2.7h-1.1V9.7h1.6l1.4,4.4l0,0l1.4-4.4h1.6v5.7h-1.1v-3.1
	c0-0.2,0-0.6,0.1-1.3l0,0l-1.5,4.5h-1.1V15.4z"/>
<path class="st5" d="M321.8,15.4V9.7h1.2v5.7H321.8z"/>
<path class="st5" d="M329.6,15.4H328l-2.5-4.3l0,0c0,0.8,0.1,1.3,0.1,1.6v2.7h-1.1V9.7h1.5l2.5,4.3l0,0c0-0.7-0.1-1.3-0.1-1.6V9.7
	h1.1L329.6,15.4z"/>
<path class="st5" d="M335.7,10.6c-0.4,0-0.8,0.2-1.1,0.5c-0.3,0.4-0.4,0.9-0.4,1.4c0,1.3,0.5,1.9,1.4,1.9c0.5,0,1-0.1,1.5-0.3v1
	c-0.5,0.2-1,0.3-1.6,0.3c-0.7,0-1.4-0.2-1.9-0.8s-0.7-1.4-0.7-2.2c0-0.5,0.1-1.1,0.3-1.6c0.2-0.4,0.5-0.8,0.9-1s0.9-0.4,1.4-0.4
	c0.6,0,1.2,0.1,1.7,0.4L337,11c-0.2-0.1-0.4-0.2-0.6-0.3C336.1,10.7,335.9,10.6,335.7,10.6z"/>
<path class="st5" d="M343.6,12.6c0.1,0.8-0.2,1.6-0.7,2.2c-1.1,1-2.9,1-4,0c-0.5-0.6-0.8-1.4-0.7-2.2c-0.1-0.8,0.2-1.6,0.7-2.2
	c1.2-1,2.8-1,4,0C343.4,11,343.7,11.8,343.6,12.6z M339.4,12.6c0,0.5,0.1,1,0.4,1.4c0.3,0.3,0.7,0.5,1.1,0.5c1,0,1.5-0.6,1.5-1.9
	s-0.5-1.9-1.5-1.9c-0.4,0-0.8,0.2-1.1,0.5C339.5,11.5,339.4,12,339.4,12.6L339.4,12.6z"/>
<path class="st5" d="M349.9,15.4h-1.5l-2.5-4.3l0,0c0,0.8,0.1,1.3,0.1,1.6v2.7h-1.1V9.7h1.5l2.4,4.3l0,0c0-0.7,0-1.3,0-1.6V9.7h1.1
	V15.4z"/>
<path class="st5" d="M354.8,13.8c0,0.5-0.2,0.9-0.5,1.2c-0.4,0.3-1,0.5-1.5,0.4c-0.6,0-1.1-0.1-1.6-0.4v-1c0.3,0.1,0.7,0.3,1,0.4
	c0.2,0.1,0.5,0.1,0.7,0.1s0.4,0,0.6-0.2c0.1-0.1,0.2-0.3,0.2-0.4c0-0.1,0-0.2-0.1-0.3s-0.2-0.2-0.3-0.3c-0.2-0.1-0.5-0.3-0.7-0.4
	c-0.3-0.1-0.5-0.3-0.8-0.5c-0.2-0.2-0.3-0.3-0.4-0.5s-0.2-0.5-0.1-0.7c0-0.5,0.2-0.9,0.5-1.2c0.4-0.3,0.9-0.5,1.4-0.4
	c0.3,0,0.6,0,0.9,0.1s0.6,0.2,0.9,0.3l-0.4,0.9c-0.2-0.1-0.5-0.2-0.8-0.3c-0.2-0.1-0.4-0.1-0.6-0.1s-0.4,0-0.5,0.2
	c-0.1,0.1-0.2,0.3-0.2,0.4c0,0.1,0,0.2,0.1,0.3s0.1,0.2,0.2,0.2c0.2,0.1,0.5,0.3,0.8,0.4c0.4,0.2,0.8,0.4,1.1,0.8
	C354.7,13.1,354.8,13.5,354.8,13.8z"/>
<path class="st5" d="M361.1,12.6c0.1,0.8-0.2,1.6-0.7,2.2c-1.1,1-2.9,1-4,0c-0.5-0.6-0.8-1.4-0.7-2.2c-0.1-0.8,0.2-1.6,0.7-2.2
	c1.2-1,2.8-1,4,0C360.9,11,361.2,11.8,361.1,12.6z M356.9,12.6c0,0.5,0.1,1,0.4,1.4c0.3,0.3,0.7,0.5,1.1,0.5c1,0,1.5-0.6,1.5-1.9
	s-0.5-1.9-1.4-1.9c-0.4,0-0.8,0.2-1.1,0.5C357.1,11.5,357,12,356.9,12.6L356.9,12.6z"/>
<path class="st5" d="M362.4,15.4V9.7h1.2v4.7h2.3v1H362.4z"/>
<path class="st5" d="M370.3,15.4H367V9.7h3.3v1h-2.1V12h1.9v1h-1.9v1.5h2.1V15.4z"/>
<path class="st5" d="M144,134.2c0,0.5-0.2,0.9-0.6,1.2c-0.4,0.3-1,0.5-1.6,0.4c-0.6,0-1.1-0.1-1.6-0.4v-1.1c0.3,0.1,0.7,0.3,1,0.4
	c0.2,0.1,0.5,0.1,0.7,0.1s0.4,0,0.6-0.2c0.1-0.1,0.2-0.3,0.2-0.4c0-0.1,0-0.2-0.1-0.3s-0.2-0.2-0.3-0.3c-0.2-0.1-0.5-0.3-0.7-0.4
	c-0.3-0.1-0.5-0.3-0.8-0.5c-0.2-0.1-0.3-0.3-0.4-0.5c-0.1-0.2-0.2-0.5-0.2-0.7c0-0.5,0.2-0.9,0.5-1.2c0.4-0.3,0.9-0.5,1.4-0.4
	c0.3,0,0.6,0,0.9,0.1c0.3,0.1,0.6,0.2,0.9,0.3l-0.4,0.9c-0.2-0.1-0.5-0.2-0.8-0.3c-0.2-0.1-0.4-0.1-0.6-0.1c-0.2,0-0.4,0-0.5,0.2
	c-0.1,0.1-0.2,0.3-0.2,0.4c0,0.1,0,0.2,0.1,0.3s0.1,0.2,0.2,0.2c0.2,0.2,0.5,0.3,0.8,0.4c0.4,0.2,0.8,0.4,1.1,0.8
	C143.9,133.5,144,133.9,144,134.2z"/>
<path class="st5" d="M148.4,135.8h-3.3v-5.7h3.3v1h-2.1v1.3h1.9v1h-1.9v1.5h2.1V135.8z"/>
<path class="st5" d="M150.9,133.6v2.2h-1.2v-5.7h1.7c0.6,0,1.2,0.1,1.7,0.4c0.4,0.3,0.6,0.8,0.6,1.3c0,0.3-0.1,0.6-0.3,0.9
	c-0.2,0.3-0.5,0.5-0.8,0.6l1.7,2.5H153l-1.4-2.2H150.9z M150.9,132.6h0.4c0.3,0,0.6,0,0.9-0.2c0.2-0.1,0.3-0.4,0.3-0.6
	c0-0.2-0.1-0.4-0.3-0.6c-0.3-0.1-0.6-0.2-0.9-0.2h-0.4V132.6z"/>
<path class="st5" d="M158.3,130.1h1.2l-1.9,5.7h-1.3l-1.9-5.7h1.2l1.1,3.4c0.1,0.2,0.1,0.4,0.2,0.7s0.1,0.4,0.1,0.6
	c0.1-0.4,0.2-0.8,0.3-1.3L158.3,130.1z"/>
<path class="st5" d="M163.6,135.8h-3.3v-5.7h3.3v1h-2.1v1.3h1.9v1h-1.9v1.5h2.1V135.8z"/>
<path class="st5" d="M166.1,133.6v2.2h-1.2v-5.7h1.7c0.6,0,1.2,0.1,1.7,0.4c0.4,0.3,0.6,0.8,0.6,1.3c0,0.3-0.1,0.6-0.3,0.9
	c-0.2,0.3-0.5,0.5-0.8,0.6c0.9,1.3,1.4,2.1,1.7,2.5h-1.4l-1.4-2.2H166.1z M166.1,132.6h0.4c0.3,0,0.6,0,0.9-0.2
	c0.2-0.1,0.3-0.4,0.3-0.6c0-0.2-0.1-0.4-0.3-0.6c-0.3-0.1-0.6-0.2-0.9-0.2h-0.4V132.6z"/>
<path class="st5" d="M171.3,135c-0.2,0.6-0.4,1.3-0.7,1.9h-0.9c0.2-0.7,0.3-1.4,0.4-2h1.1L171.3,135z"/>
<path class="st5" d="M179.9,135.8h-1.5l-2.5-4.3l0,0c0.1,0.8,0.1,1.3,0.1,1.6v2.7h-1.1v-5.7h1.5l2.5,4.3l0,0c0-0.7-0.1-1.3-0.1-1.6
	v-2.7h1.1V135.8z"/>
<path class="st5" d="M184.7,135.8h-3.3v-5.7h3.3v1h-2.1v1.3h1.9v1h-1.9v1.5h2.1V135.8z"/>
<path class="st5" d="M188.2,135.8H187v-4.7h-1.6v-1h4.3v1h-1.6L188.2,135.8z"/>
<path class="st5" d="M196.2,135.8h-1.4l-0.8-3c0-0.1-0.1-0.3-0.1-0.7c-0.1-0.3-0.1-0.6-0.1-0.7c0,0.2-0.1,0.5-0.1,0.7
	c-0.1,0.3-0.1,0.5-0.1,0.7l-0.8,3h-1.4l-1.4-5.7h1.2l0.7,3.1c0.1,0.6,0.2,1.1,0.3,1.5c0-0.1,0-0.4,0.1-0.7c0-0.2,0.1-0.5,0.2-0.7
	l0.8-3.2h1.1l0.8,3.2c0.1,0.2,0.1,0.4,0.1,0.6c0.1,0.3,0.1,0.6,0.1,0.8c0-0.2,0.1-0.5,0.1-0.8s0.1-0.6,0.2-0.7l0.7-3.1h1.2
	L196.2,135.8z"/>
<path class="st5" d="M203.7,132.9c0.1,0.8-0.2,1.6-0.7,2.2c-1.1,1-2.9,1-4,0c-0.9-1.3-0.9-3.1,0-4.4c0.5-0.5,1.3-0.8,2-0.8
	s1.5,0.2,2,0.8C203.5,131.4,203.7,132.1,203.7,132.9z M199.5,132.9c0,0.5,0.1,1,0.4,1.4c0.3,0.3,0.7,0.5,1.1,0.5
	c1,0,1.4-0.6,1.4-1.9s-0.5-1.9-1.4-1.9c-0.4,0-0.8,0.2-1.1,0.5C199.6,131.9,199.5,132.4,199.5,132.9z"/>
<path class="st5" d="M206.1,133.6v2.2h-1.2v-5.7h1.7c0.6,0,1.2,0.1,1.7,0.4c0.4,0.3,0.6,0.8,0.6,1.3c0,0.3-0.1,0.6-0.3,0.9
	c-0.2,0.3-0.5,0.5-0.8,0.6l1.7,2.5h-1.3l-1.4-2.2H206.1z M206.1,132.6h0.4c0.3,0,0.6,0,0.9-0.2c0.2-0.1,0.3-0.4,0.3-0.6
	c0-0.2-0.1-0.5-0.3-0.6c-0.3-0.1-0.6-0.2-0.9-0.2h-0.4V132.6z"/>
<path class="st5" d="M214.9,135.8h-1.4l-1.5-2.4l-0.5,0.4v2h-1.2V130h1.2v2.6l0.5-0.6l1.6-1.9h1.3l-2,2.5L214.9,135.8z"/>
<path class="st5" d="M220.3,131c-0.4,0-0.8,0.2-1.1,0.5c-0.3,0.4-0.4,0.9-0.4,1.4c0,1.3,0.5,1.9,1.4,1.9c0.5,0,1-0.1,1.5-0.3v1
	c-0.5,0.2-1,0.3-1.6,0.3c-0.7,0-1.4-0.2-1.9-0.8s-0.7-1.4-0.7-2.2c0-0.5,0.1-1.1,0.3-1.6c0.2-0.4,0.5-0.8,0.9-1s0.9-0.4,1.4-0.4
	c0.6,0,1.2,0.1,1.7,0.4l-0.4,1c-0.2-0.1-0.4-0.2-0.6-0.3C220.7,131.1,220.5,131,220.3,131z"/>
<path class="st5" d="M228.2,132.9c0.1,0.8-0.2,1.6-0.7,2.2c-1.1,1-2.9,1-4,0c-0.9-1.3-0.9-3.1,0-4.4c0.5-0.5,1.3-0.8,2-0.8
	s1.5,0.2,2,0.8C228,131.4,228.2,132.1,228.2,132.9z M224,132.9c0,0.5,0.1,1,0.4,1.4c0.3,0.3,0.7,0.5,1.1,0.5c1,0,1.4-0.6,1.4-1.9
	s-0.5-1.9-1.4-1.9c-0.4,0-0.8,0.2-1.1,0.5C224.1,131.9,224,132.4,224,132.9L224,132.9z"/>
<path class="st5" d="M234.5,135.8H233l-2.5-4.3l0,0c0.1,0.8,0.1,1.3,0.1,1.6v2.7h-1.1v-5.7h1.5l2.5,4.3l0,0c0-0.7-0.1-1.3-0.1-1.6
	v-2.7h1.1V135.8z"/>
<path class="st5" d="M237.2,135.8H236v-5.7h3.3v1h-2.1v1.5h1.9v1h-1.9V135.8z"/>
<path class="st5" d="M240.5,135.8v-5.7h1.2v5.7H240.5z"/>
<path class="st5" d="M245.4,132.6h2.3v3c-0.3,0.1-0.7,0.2-1,0.3s-0.7,0.1-1,0.1c-0.7,0.1-1.5-0.2-2-0.8s-0.7-1.4-0.7-2.2
	s0.2-1.6,0.8-2.1c0.6-0.6,1.4-0.8,2.2-0.8c0.6,0,1.2,0.1,1.7,0.4l-0.4,1c-0.4-0.2-0.8-0.3-1.3-0.4c-0.5,0-0.9,0.2-1.3,0.5
	c-0.3,0.4-0.5,0.9-0.5,1.4s0.1,1,0.4,1.4c0.3,0.3,0.7,0.5,1.1,0.5c0.3,0,0.5,0,0.8-0.1v-1.2h-1.1V132.6z"/>
<path class="st5" d="M253.8,130.1v3.7c0,0.4-0.1,0.8-0.3,1.1s-0.5,0.6-0.8,0.7c-0.4,0.2-0.8,0.3-1.3,0.3c-0.6,0-1.2-0.2-1.7-0.6
	c-0.4-0.4-0.6-1-0.6-1.5v-3.7h1.2v3.5c0,0.4,0.1,0.7,0.3,1c0.2,0.2,0.6,0.3,0.9,0.3c0.3,0,0.6-0.1,0.9-0.3c0.2-0.3,0.3-0.6,0.3-1
	v-3.5H253.8z"/>
<path class="st5" d="M256.5,133.6v2.2h-1.2v-5.7h1.7c0.6,0,1.2,0.1,1.7,0.4c0.4,0.3,0.6,0.8,0.6,1.3c0,0.3-0.1,0.6-0.3,0.9
	c-0.2,0.3-0.5,0.5-0.8,0.6l1.7,2.5h-1.3l-1.4-2.2H256.5z M256.5,132.6h0.4c0.3,0,0.6,0,0.9-0.2c0.2-0.1,0.3-0.4,0.3-0.6
	c0-0.2-0.1-0.5-0.3-0.6c-0.3-0.1-0.6-0.2-0.9-0.2h-0.4V132.6z"/>
<path class="st5" d="M264.1,135.8l-0.4-1.4h-2.1l-0.4,1.4h-1.3l2-5.7h1.5l2,5.7H264.1z M263.4,133.4c-0.4-1.2-0.6-1.9-0.6-2.1
	s-0.1-0.3-0.1-0.4c-0.1,0.3-0.3,1.2-0.7,2.5H263.4z"/>
<path class="st5" d="M268.4,135.8h-1.2v-4.7h-1.5v-1h4.3v1h-1.6L268.4,135.8z"/>
<path class="st5" d="M270.9,135.8v-5.7h1.2v5.7H270.9z"/>
<path class="st5" d="M278.8,132.9c0.1,0.8-0.2,1.6-0.7,2.2c-1.1,1-2.9,1-4,0c-0.9-1.3-0.9-3.1,0-4.4c0.5-0.5,1.3-0.8,2-0.8
	s1.5,0.2,2,0.8C278.6,131.4,278.9,132.1,278.8,132.9z M274.7,132.9c0,0.5,0.1,1,0.4,1.4c0.3,0.3,0.7,0.5,1.1,0.5
	c1,0,1.5-0.6,1.5-1.9s-0.5-1.9-1.4-1.9c-0.4,0-0.8,0.1-1.1,0.5C274.8,131.9,274.6,132.4,274.7,132.9L274.7,132.9z"/>
<path class="st5" d="M285.2,135.8h-1.5l-2.5-4.3l0,0c0,0.8,0.1,1.3,0.1,1.6v2.7h-1.1v-5.7h1.5l2.5,4.3l0,0c0-0.7-0.1-1.3-0.1-1.6
	v-2.7h1.1V135.8z"/>
<path class="st5" d="M163.4,168.6v-5.7h1.2v5.7H163.4z"/>
<path class="st5" d="M170.1,164.7c0,0.5-0.2,1.1-0.6,1.4c-0.5,0.4-1.1,0.5-1.6,0.5h-0.5v2h-1.2v-5.7h1.8c0.6,0,1.1,0.1,1.6,0.4
	C170,163.7,170.2,164.2,170.1,164.7z M167.4,165.6h0.4c0.3,0,0.6-0.1,0.8-0.2c0.2-0.2,0.3-0.4,0.3-0.6c0-0.2-0.1-0.5-0.2-0.6
	c-0.2-0.2-0.5-0.2-0.7-0.2h-0.6V165.6z"/>
<path class="st5" d="M174.8,168.6l-0.4-1.4h-2.1l-0.4,1.4h-1.3l2-5.7h1.5l2,5.7H174.8z M174.1,166.3c-0.4-1.2-0.6-1.9-0.6-2.1
	s-0.1-0.3-0.1-0.4c-0.1,0.3-0.3,1.2-0.7,2.5H174.1z"/>
<path class="st5" d="M179.3,168.6l-1.4-4.5l0,0c0,0.9,0.1,1.5,0.1,1.8v2.7h-1.1v-5.7h1.6l1.4,4.4l0,0l1.4-4.4h1.7v5.7h-1.1v-2.7
	c0-0.1,0-0.3,0-0.4s0-0.6,0-1.3l0,0l-1.5,4.5L179.3,168.6z"/>
<path class="st5" d="M186.7,168.6v-5.7h1.2v5.7H186.7z"/>
<path class="st5" d="M194.4,168.6h-1.5l-2.5-4.3l0,0c0,0.8,0.1,1.3,0.1,1.6v2.7h-1.1v-5.7h1.5l2.5,4.3l0,0c0-0.7-0.1-1.3-0.1-1.6
	v-2.7h1.1V168.6z"/>
<path class="st5" d="M198.2,168.6H197v-4.7h-1.6v-1h4.3v1h-1.6L198.2,168.6z"/>
<path class="st5" d="M204,168.6h-3.3v-5.7h3.3v1h-2.1v1.3h1.9v1h-1.9v1.5h2.1V168.6z"/>
<path class="st5" d="M207.4,165.4h2.3v3c-0.3,0.1-0.7,0.2-1,0.3c-0.3,0-0.7,0.1-1,0.1c-0.7,0.1-1.5-0.2-2-0.8s-0.7-1.4-0.7-2.2
	s0.2-1.6,0.8-2.2c0.6-0.5,1.4-0.8,2.2-0.8c0.6,0,1.2,0.1,1.7,0.4l-0.4,1c-0.4-0.2-0.8-0.3-1.3-0.3s-0.9,0.2-1.3,0.5
	c-0.3,0.4-0.5,0.9-0.5,1.4s0.1,1,0.4,1.4c0.3,0.3,0.7,0.5,1.1,0.5c0.3,0,0.5,0,0.8-0.1v-1.2h-1.1V165.4z"/>
<path class="st5" d="M212.3,166.4v2.2h-1.2v-5.7h1.7c0.6,0,1.2,0.1,1.7,0.4c0.4,0.3,0.6,0.8,0.6,1.3c0,0.3-0.1,0.6-0.3,0.9
	c-0.2,0.3-0.5,0.5-0.8,0.6c0.9,1.3,1.4,2.1,1.7,2.5h-1.3l-1.3-2.2H212.3z M212.3,165.4h0.4c0.3,0,0.6-0.1,0.9-0.2
	c0.2-0.1,0.3-0.4,0.3-0.6c0-0.2-0.1-0.5-0.3-0.6c-0.3-0.1-0.6-0.2-0.9-0.2h-0.4V165.4z"/>
<path class="st5" d="M220,168.6l-0.4-1.4h-2.1l-0.4,1.4h-1.3l2-5.7h1.5l2,5.7H220z M219.3,166.3c-0.4-1.2-0.6-1.9-0.6-2.1
	s-0.1-0.3-0.1-0.4c-0.1,0.3-0.3,1.2-0.7,2.5H219.3z"/>
<path class="st5" d="M224.3,168.6h-1.2v-4.7h-1.6v-1h4.3v1h-1.6L224.3,168.6z"/>
<path class="st5" d="M226.8,168.6v-5.7h1.2v5.7H226.8z"/>
<path class="st5" d="M234.7,165.8c0.1,0.8-0.2,1.6-0.7,2.2c-1.1,1-2.9,1-4,0c-0.5-0.6-0.8-1.4-0.7-2.2c-0.1-0.8,0.2-1.6,0.7-2.2
	c0.5-0.5,1.3-0.8,2-0.8s1.5,0.2,2,0.8C234.5,164.2,234.8,165,234.7,165.8z M230.5,165.8c0,0.5,0.1,1,0.4,1.4
	c0.3,0.3,0.7,0.5,1.1,0.5c1,0,1.4-0.6,1.4-1.9s-0.5-1.9-1.4-1.9c-0.4,0-0.8,0.2-1.1,0.5C230.6,164.7,230.5,165.2,230.5,165.8z"/>
<path class="st5" d="M241,168.6h-1.5l-2.5-4.3l0,0c0.1,0.8,0.1,1.3,0.1,1.6v2.7H236v-5.7h1.5l2.5,4.3l0,0c0-0.7-0.1-1.3-0.1-1.6
	v-2.7h1.1V168.6z"/>
<path class="st5" d="M49.8,124.4H51l-1.9,5.7h-1.3l-1.9-5.7h1.2l1.1,3.4c0.1,0.2,0.1,0.4,0.2,0.7c0.1,0.2,0.1,0.4,0.1,0.6
	c0.1-0.4,0.2-0.8,0.3-1.3L49.8,124.4z"/>
<path class="st5" d="M55.8,126.2c0,0.5-0.2,1.1-0.6,1.4c-0.5,0.4-1.1,0.5-1.6,0.5H53v2h-1.2v-5.7h1.8c0.6,0,1.1,0.1,1.6,0.4
	C55.6,125.2,55.8,125.7,55.8,126.2z M53,127.1h0.4c0.3,0,0.6-0.1,0.8-0.2c0.2-0.2,0.3-0.4,0.3-0.7c0-0.2-0.1-0.5-0.2-0.6
	c-0.2-0.2-0.5-0.2-0.7-0.2h-0.5L53,127.1z"/>
<path class="st5" d="M59.4,125.3c-0.4,0-0.8,0.2-1.1,0.5c-0.3,0.4-0.4,0.9-0.4,1.4c0,1.3,0.5,1.9,1.4,1.9c0.5,0,1-0.1,1.5-0.3v1
	c-0.5,0.2-1,0.3-1.6,0.3c-0.7,0-1.4-0.2-1.9-0.8s-0.7-1.4-0.7-2.2c0-0.5,0.1-1.1,0.3-1.6c0.2-0.4,0.5-0.8,0.9-1s0.9-0.4,1.4-0.4
	c0.6,0,1.2,0.1,1.7,0.4l-0.4,1c-0.2-0.1-0.4-0.2-0.6-0.3C59.8,125.4,59.6,125.3,59.4,125.3z"/>
<path class="st5" d="M50.4,193.7h-3.3V188h3.3v1h-2.1v1.3h1.9v1h-1.9v1.5h2.1V193.7z"/>
<path class="st5" d="M54.1,188.9c-0.4,0-0.8,0.2-1.1,0.5c-0.3,0.4-0.4,0.9-0.4,1.4c0,1.3,0.5,1.9,1.4,1.9c0.5,0,1-0.1,1.5-0.3v1
	c-0.5,0.2-1,0.3-1.6,0.3c-0.7,0-1.4-0.2-1.9-0.8s-0.7-1.4-0.7-2.2c0-0.5,0.1-1.1,0.3-1.6c0.2-0.4,0.5-0.8,0.9-1s0.9-0.4,1.4-0.4
	c0.6,0,1.2,0.1,1.7,0.4l-0.4,1c-0.2-0.1-0.4-0.2-0.7-0.3C54.6,189,54.4,188.9,54.1,188.9z"/>
<path class="st5" d="M60.5,193.7h-4v-0.8l1.4-1.4c0.3-0.3,0.6-0.6,0.8-0.9c0.1-0.2,0.2-0.3,0.3-0.5c0.1-0.1,0.1-0.3,0.1-0.4
	c0-0.2-0.1-0.4-0.2-0.5c-0.1-0.1-0.3-0.2-0.5-0.2s-0.4,0.1-0.7,0.1c-0.2,0.1-0.4,0.3-0.7,0.4l-0.7-0.8c0.2-0.2,0.5-0.4,0.7-0.5
	s0.4-0.2,0.6-0.2c0.2-0.1,0.5-0.1,0.7-0.1c0.3,0,0.7,0.1,1,0.2c0.3,0.1,0.5,0.3,0.6,0.5c0.2,0.2,0.2,0.5,0.2,0.8s0,0.5-0.1,0.7
	c-0.1,0.3-0.2,0.5-0.4,0.7c-0.3,0.4-0.6,0.7-1,1l-0.7,0.7v0.1h2.5L60.5,193.7z"/>
<path class="st5" d="M36.2,255.9v2.1H35v-5.7h1.7c0.6,0,1.2,0.1,1.7,0.4c0.4,0.3,0.6,0.8,0.6,1.3c0,0.3-0.1,0.6-0.3,0.9
	c-0.2,0.3-0.5,0.5-0.8,0.6c0.8,1.3,1.4,2.1,1.7,2.5h-1.4l-1.4-2.2L36.2,255.9z M36.2,254.9h0.4c0.3,0,0.6,0,0.8-0.2
	c0.2-0.1,0.3-0.4,0.3-0.6c0-0.2-0.1-0.4-0.3-0.6c-0.3-0.1-0.6-0.2-0.9-0.2h-0.4v1.6H36.2z"/>
<path class="st5" d="M45.6,255.2c0.1,0.8-0.2,1.6-0.7,2.2c-1.1,1-2.9,1-4,0c-0.5-0.6-0.8-1.4-0.7-2.2c-0.1-0.8,0.2-1.6,0.7-2.2
	c0.5-0.5,1.3-0.8,2-0.8s1.5,0.2,2,0.8C45.4,253.6,45.6,254.4,45.6,255.2z M41.4,255.2c0,0.5,0.1,1,0.4,1.4c0.3,0.3,0.7,0.5,1.1,0.5
	c1,0,1.5-0.6,1.5-1.9s-0.5-1.9-1.4-1.9c-0.4,0-0.8,0.1-1.1,0.5C41.5,254.2,41.4,254.7,41.4,255.2z"/>
<path class="st5" d="M51.5,252.3v3.7c0,0.4-0.1,0.8-0.3,1.1c-0.2,0.3-0.5,0.6-0.8,0.7c-0.4,0.2-0.8,0.3-1.3,0.3
	c-0.6,0-1.2-0.2-1.7-0.6c-0.4-0.4-0.6-1-0.6-1.5v-3.7H48v3.5c0,0.4,0.1,0.7,0.3,1c0.2,0.2,0.6,0.3,0.9,0.3c0.3,0,0.6-0.1,0.9-0.3
	c0.2-0.3,0.3-0.6,0.3-1v-3.5L51.5,252.3z"/>
<path class="st5" d="M55.2,258H54v-4.7h-1.5v-1h4.3v1h-1.5L55.2,258L55.2,258z"/>
<path class="st5" d="M61,258h-3.3v-5.7H61v1h-2.1v1.3h1.9v1h-1.9v1.5H61V258z"/>
<path class="st5" d="M66.1,254.4c0.5,0,1,0.1,1.3,0.5c0.3,0.3,0.5,0.8,0.5,1.3c0,0.6-0.2,1.1-0.6,1.5c-0.5,0.4-1.1,0.6-1.7,0.5
	c-0.5,0-1.1-0.1-1.5-0.3v-1c0.2,0.1,0.5,0.2,0.7,0.3c0.3,0.1,0.5,0.1,0.8,0.1c0.7,0,1.1-0.3,1.1-0.9s-0.4-0.9-1.1-0.9
	c-0.2,0-0.3,0-0.5,0c-0.1,0-0.3,0-0.4,0.1l-0.5-0.3l0.2-2.9h3.1v1h-2l-0.1,1.1h0.1C65.7,254.4,65.9,254.4,66.1,254.4z"/>
<path class="st5" d="M72.4,253.6c0,0.3-0.1,0.7-0.3,0.9c-0.2,0.3-0.6,0.5-0.9,0.5l0,0c0.4,0,0.7,0.2,1,0.4c0.2,0.2,0.4,0.6,0.4,0.9
	c0,0.5-0.2,1-0.6,1.3c-0.5,0.3-1.1,0.5-1.7,0.5s-1.1-0.1-1.7-0.3v-1c0.2,0.1,0.5,0.2,0.7,0.3c0.3,0.1,0.5,0.1,0.8,0.1s0.6,0,0.9-0.2
	c0.2-0.2,0.3-0.4,0.3-0.7c0-0.2-0.1-0.5-0.3-0.6c-0.3-0.1-0.7-0.2-1-0.2h-0.4v-0.9H70c0.3,0,0.7,0,1-0.2c0.2-0.1,0.3-0.4,0.3-0.6
	c0-0.4-0.3-0.6-0.8-0.6c-0.2,0-0.4,0-0.6,0.1s-0.4,0.2-0.6,0.3l-0.6-0.8c0.5-0.4,1.2-0.6,1.9-0.6c0.5,0,1,0.1,1.4,0.4
	C72.2,252.9,72.4,253.2,72.4,253.6z"/>
<path class="st5" d="M308.4,100.9v2.2h-1.2v-5.7h1.7c0.6,0,1.2,0.1,1.7,0.4c0.4,0.3,0.6,0.8,0.6,1.3c0,0.3-0.1,0.6-0.3,0.9
	c-0.2,0.3-0.5,0.5-0.8,0.6c0.9,1.3,1.4,2.1,1.7,2.5h-1.3l-1.4-2.2C309.1,100.9,308.4,100.9,308.4,100.9z M308.4,99.9h0.4
	c0.3,0,0.6-0.1,0.9-0.2c0.2-0.1,0.3-0.4,0.3-0.6s-0.1-0.5-0.3-0.6c-0.3-0.1-0.6-0.2-0.9-0.2h-0.4V99.9z"/>
<path class="st5" d="M315.8,103.1h-3.3v-5.7h3.3v1h-2.1v1.3h1.9v1h-1.9v1.5h2.1V103.1z"/>
<path class="st5" d="M320.4,101.5c0,0.5-0.2,0.9-0.6,1.2c-0.4,0.3-1,0.5-1.5,0.4c-0.6,0-1.1-0.1-1.6-0.3v-1.1c0.3,0.1,0.7,0.3,1,0.4
	c0.2,0.1,0.5,0.1,0.7,0.1s0.4,0,0.6-0.2c0.1-0.1,0.2-0.3,0.2-0.5c0-0.1,0-0.2-0.1-0.3c-0.1-0.1-0.2-0.2-0.3-0.3
	c-0.2-0.1-0.5-0.3-0.7-0.4c-0.3-0.1-0.5-0.3-0.8-0.5c-0.2-0.1-0.3-0.3-0.4-0.5s-0.2-0.5-0.2-0.7c0-0.5,0.2-0.9,0.5-1.2
	c0.4-0.3,0.9-0.5,1.4-0.4c0.3,0,0.6,0,0.9,0.1s0.6,0.2,0.8,0.3l-0.4,0.9c-0.2-0.1-0.5-0.2-0.8-0.3c-0.2,0-0.4-0.1-0.6-0.1
	s-0.4,0-0.5,0.2c-0.2,0.2-0.2,0.5-0.1,0.7c0.1,0.1,0.1,0.2,0.2,0.2c0.2,0.2,0.5,0.3,0.8,0.4c0.4,0.2,0.8,0.4,1.1,0.8
	C320.3,100.9,320.4,101.2,320.4,101.5z"/>
<path class="st5" d="M323.8,103.1h-1.2v-4.7H321v-1h4.3v1h-1.5V103.1z"/>
<path class="st5" d="M336.2,103.1l-0.4-1.4h-2.1l-0.4,1.4H332l2-5.7h1.5l2,5.7H336.2z M335.5,100.8c-0.4-1.2-0.6-1.9-0.6-2.1
	c0-0.1-0.1-0.3-0.1-0.4c-0.1,0.3-0.3,1.2-0.7,2.5H335.5z"/>
<path class="st5" d="M342.3,99.2c0,0.5-0.2,1.1-0.6,1.4c-0.5,0.4-1.1,0.5-1.6,0.5h-0.5v2h-1.2v-5.7h1.8c0.6,0,1.1,0.1,1.6,0.4
	C342.1,98.2,342.3,98.7,342.3,99.2z M339.5,100.1h0.4c0.3,0,0.6-0.1,0.8-0.2c0.2-0.2,0.3-0.4,0.3-0.7c0-0.2-0.1-0.5-0.2-0.6
	c-0.2-0.2-0.5-0.2-0.7-0.2h-0.5L339.5,100.1L339.5,100.1z"/>
<path class="st5" d="M343.4,103.1v-5.7h1.2v5.7H343.4z"/>
<path class="st5" d="M297.9,180l-0.4-1.4h-2.1L295,180h-1.3l2-5.7h1.5l2,5.7H297.9z M297.1,177.6l-0.6-2.1c0-0.2-0.1-0.3-0.1-0.4
	c-0.1,0.3-0.3,1.1-0.7,2.5H297.1z"/>
<path class="st5" d="M303.2,174.2h1.2l-2,5.8h-1.3l-1.9-5.7h1.2l1.1,3.4c0.1,0.2,0.1,0.4,0.2,0.7s0.1,0.4,0.1,0.6
	c0.1-0.4,0.2-0.8,0.3-1.3L303.2,174.2z"/>
<path class="st5" d="M305.2,180v-5.7h1.2v5.7H305.2z"/>
<path class="st5" d="M312.5,175.2c-0.4,0-0.8,0.2-1.1,0.5c-0.3,0.4-0.4,0.9-0.4,1.4c0,1.3,0.5,1.9,1.4,1.9c0.5,0,1-0.1,1.5-0.3v1
	c-0.5,0.2-1,0.3-1.6,0.3c-0.7,0-1.4-0.2-1.9-0.8s-0.7-1.4-0.7-2.2c0-0.5,0.1-1.1,0.3-1.6c0.2-0.4,0.5-0.8,0.9-1s0.9-0.4,1.4-0.4
	c0.6,0,1.2,0.1,1.7,0.4l-0.4,1c-0.2-0.1-0.4-0.2-0.6-0.3C313,175.2,312.8,175.2,312.5,175.2z"/>
<path class="st5" d="M320.5,177.1c0.1,0.8-0.2,1.6-0.7,2.2c-1.1,1-2.9,1-4,0c-0.5-0.6-0.8-1.4-0.7-2.2c-0.1-0.8,0.2-1.6,0.7-2.2
	c0.5-0.5,1.3-0.8,2-0.8s1.5,0.2,2,0.8C320.3,175.5,320.5,176.3,320.5,177.1z M316.3,177.1c0,0.5,0.1,1,0.4,1.4
	c0.3,0.3,0.7,0.5,1.1,0.5c1,0,1.5-0.6,1.5-1.9s-0.5-1.9-1.4-1.9c-0.4,0-0.8,0.2-1.1,0.5C316.4,176.1,316.3,176.6,316.3,177.1z"/>
<path class="st5" d="M326.8,180h-1.5l-2.5-4.3l0,0c0,0.8,0.1,1.3,0.1,1.6v2.7h-1.1v-5.7h1.5l2.5,4.3l0,0c0-0.7-0.1-1.3-0.1-1.6v-2.7
	h1.1V180z"/>
<path class="st5" d="M330.5,180h-1.2v-4.7h-1.5v-1h4.3v1h-1.5L330.5,180z"/>
<path class="st5" d="M334.3,177.8v2.2H333v-5.7h1.7c0.6,0,1.2,0.1,1.7,0.4c0.4,0.3,0.6,0.8,0.6,1.3c0,0.3-0.1,0.6-0.3,0.9
	c-0.2,0.3-0.5,0.5-0.8,0.6c0.9,1.3,1.4,2.1,1.7,2.5h-1.4l-1.4-2.2H334.3z M334.3,176.8h0.4c0.3,0,0.6,0,0.8-0.2
	c0.2-0.1,0.3-0.4,0.3-0.6c0-0.2-0.1-0.5-0.3-0.6c-0.3-0.1-0.6-0.2-0.9-0.2h-0.4v1.6H334.3z"/>
<path class="st5" d="M343.6,177.1c0,0.8-0.2,1.6-0.7,2.2c-1.1,1-2.9,1-4,0c-0.5-0.6-0.7-1.4-0.7-2.2c-0.1-0.8,0.2-1.6,0.7-2.2
	c1.1-1,2.9-1,4,0C343.4,175.5,343.6,176.3,343.6,177.1z M339.4,177.1c0,0.5,0.1,1,0.4,1.4c0.3,0.3,0.7,0.5,1.1,0.5
	c1,0,1.5-0.6,1.5-1.9s-0.5-1.9-1.4-1.9c-0.4,0-0.8,0.2-1.1,0.5C339.5,176.1,339.4,176.6,339.4,177.1L339.4,177.1z"/>
<path class="st5" d="M344.9,180v-5.7h1.2v4.7h2.3v1H344.9z"/>
<path class="st5" d="M349.5,180v-5.7h1.2v4.7h2.3v1H349.5z"/>
<path class="st5" d="M357.3,180H354v-5.7h3.3v1h-2.1v1.3h1.9v1h-1.9v1.5h2.1V180z"/>
<path class="st5" d="M359.8,177.8v2.2h-1.2v-5.7h1.7c0.6,0,1.2,0.1,1.7,0.4c0.4,0.3,0.6,0.8,0.6,1.3c0,0.3-0.1,0.6-0.3,0.9
	c-0.2,0.3-0.5,0.5-0.8,0.6c0.9,1.3,1.4,2.1,1.7,2.5h-1.3l-1.4-2.2H359.8z M359.8,176.8h0.4c0.3,0,0.6,0,0.9-0.2
	c0.2-0.1,0.3-0.4,0.3-0.6c0-0.2-0.1-0.5-0.3-0.6c-0.3-0.1-0.6-0.2-0.9-0.2h-0.4V176.8z"/>
<path class="st5" d="M272.9,238c-1.5,0-2.7-1.2-2.7-2.6c0-1.5,1.2-2.7,2.6-2.7c1.5,0,2.7,1.2,2.7,2.6l0,0
	C275.6,236.8,274.4,238,272.9,238L272.9,238z M272.9,233.5c-1,0-1.9,0.8-1.9,1.9c0,1,0.8,1.9,1.9,1.9c1,0,1.9-0.8,1.9-1.9l0,0
	C274.8,234.3,274,233.5,272.9,233.5L272.9,233.5z"/>
<path class="st5" d="M238.9,239.7c-2.4,0-4.3-1.9-4.3-4.3s1.9-4.3,4.3-4.3c2.4,0,4.3,1.9,4.3,4.3
	C243.3,237.8,241.3,239.7,238.9,239.7z M238.9,231.8c-2,0-3.6,1.6-3.6,3.6s1.6,3.6,3.6,3.6s3.6-1.6,3.6-3.6l0,0
	C242.5,233.4,240.9,231.8,238.9,231.8z"/>
<path class="st5" d="M248.3,235.8h-5.4c-0.2,0-0.4-0.1-0.4-0.3s0.1-0.4,0.3-0.4h0.1h5.4c0.2,0,0.4,0.1,0.4,0.3s-0.1,0.4-0.3,0.4
	C248.4,235.8,248.3,235.8,248.3,235.8z"/>
<path class="st5" d="M270.5,235.8H265c-0.2,0-0.4-0.1-0.4-0.3s0.1-0.4,0.3-0.4h0.1h5.4c0.2,0,0.4,0.1,0.4,0.3
	S270.8,235.7,270.5,235.8L270.5,235.8L270.5,235.8z"/>
<path class="st5" d="M267.7,226.8c-0.7,0-1.4-0.3-1.9-0.8c-1-1-1-2.7,0-3.7s2.7-1,3.7,0s1,2.7,0,3.7l0,0
	C269.1,226.5,268.4,226.8,267.7,226.8z M267.7,222.3c-0.5,0-1,0.2-1.3,0.6c-0.7,0.7-0.7,1.9,0,2.6c0.7,0.7,1.9,0.7,2.6,0l0,0
	c0.7-0.7,0.7-1.9,0-2.6l0,0C268.7,222.4,268.2,222.2,267.7,222.3z"/>
<path class="st5" d="M262.5,229.7c-0.1,0-0.2,0-0.3-0.1c-0.2-0.2-0.2-0.4,0-0.6l3.5-3.5c0.1-0.2,0.4-0.2,0.5,0l0,0
	c0.2,0.2,0.2,0.4,0,0.6l-3.5,3.5C262.7,229.7,262.6,229.7,262.5,229.7z"/>
<path class="st5" d="M267.7,249.3c-0.7,0-1.4-0.3-1.9-0.8l0,0c-1-1-1-2.7,0-3.7s2.7-1,3.7,0s1,2.7,0,3.7
	C269.1,249,268.4,249.3,267.7,249.3z M267.7,244.8c-1,0-1.9,0.8-1.9,1.9c0,0.5,0.2,1,0.5,1.3l0,0c0.7,0.7,1.9,0.7,2.6,0
	s0.7-1.9,0-2.6C268.7,245,268.2,244.8,267.7,244.8z"/>
<path class="st5" d="M266,245.3c-0.1,0-0.2,0-0.3-0.1l-3.5-3.5c-0.1-0.2-0.1-0.4,0-0.6c0.1-0.1,0.4-0.1,0.5,0l3.5,3.5
	c0.2,0.2,0.2,0.4,0,0.6C266.2,245.2,266.1,245.3,266,245.3z"/>
<path class="st0" d="M248.6,232.4v6c0,1,0.5,2,1.4,2.5l5.2,3c0.9,0.5,2,0.5,2.9,0l5.2-3c0.9-0.5,1.5-1.5,1.5-2.5v-6
	c0-1-0.6-2-1.5-2.5l-5.2-3c-0.9-0.5-2-0.5-2.9,0l-5.2,3C249.1,230.4,248.6,231.3,248.6,232.4z"/>
<path class="st1" d="M256.7,244.8c-0.5,0-0.9-0.1-1.3-0.4l-5.9-3.4c-0.8-0.5-1.3-1.3-1.3-2.3V232c0-0.9,0.5-1.8,1.3-2.3l5.9-3.4
	c0.8-0.5,1.8-0.5,2.6,0l5.9,3.4c0.8,0.5,1.3,1.3,1.3,2.3v6.8c0,0.9-0.5,1.8-1.3,2.3l-5.9,3.4C257.6,244.7,257.1,244.8,256.7,244.8z
	 M256.7,226.8c-0.3,0-0.6,0.1-0.9,0.3l-5.9,3.4c-0.6,0.3-0.9,1-0.9,1.6v6.8c0,0.7,0.4,1.3,0.9,1.6l5.9,3.4c0.6,0.3,1.3,0.3,1.9,0
	l5.9-3.4c0.6-0.3,0.9-1,0.9-1.6V232c0-0.7-0.4-1.3-0.9-1.6l-5.9-3.4C257.3,226.8,257,226.7,256.7,226.8L256.7,226.8z"/>
<path class="st2" d="M259.5,238.8c-0.2,0-0.4-0.1-0.5-0.3l-2.3-4.6l-2.3,4.6c-0.1,0.3-0.5,0.4-0.8,0.3c-0.3-0.1-0.4-0.5-0.3-0.7l0,0
	l2.8-5.6c0.1-0.2,0.3-0.3,0.5-0.3l0,0c0.2,0,0.4,0.1,0.5,0.3l2.8,5.6c0.1,0.3,0,0.6-0.2,0.8l0,0
	C259.7,238.7,259.6,238.8,259.5,238.8z"/>
<path class="st5" d="M321.8,238c-1.5,0-2.7-1.2-2.7-2.6c0-1.5,1.2-2.7,2.6-2.7c1.5,0,2.7,1.2,2.7,2.6l0,0
	C324.5,236.8,323.3,238,321.8,238L321.8,238z M321.8,233.5c-1,0-1.9,0.8-1.9,1.9c0,1,0.8,1.9,1.9,1.9c1,0,1.9-0.8,1.9-1.9l0,0
	C323.7,234.3,322.9,233.5,321.8,233.5L321.8,233.5z"/>
<path class="st5" d="M287.8,239.7c-2.4,0-4.3-1.9-4.3-4.3c0-2.4,1.9-4.3,4.3-4.3s4.3,1.9,4.3,4.3
	C292.2,237.8,290.2,239.7,287.8,239.7z M287.8,231.8c-2,0-3.6,1.6-3.6,3.6s1.6,3.6,3.6,3.6s3.6-1.6,3.6-3.6l0,0
	C291.4,233.4,289.8,231.8,287.8,231.8z"/>
<path class="st5" d="M297.2,235.8h-5.4c-0.2,0-0.4-0.1-0.4-0.3s0.1-0.4,0.3-0.4h0.1h5.4c0.2,0,0.4,0.1,0.4,0.3s-0.1,0.4-0.3,0.4
	C297.3,235.8,297.3,235.8,297.2,235.8z"/>
<path class="st5" d="M319.4,235.8H314c-0.2,0-0.4-0.1-0.4-0.3s0.1-0.4,0.3-0.4h0.1h5.4c0.2,0,0.4,0.1,0.4,0.3s-0.1,0.4-0.3,0.4
	C319.5,235.8,319.5,235.8,319.4,235.8L319.4,235.8z"/>
<path class="st5" d="M316.6,226.8c-1.5,0-2.6-1.2-2.6-2.6c0-0.7,0.3-1.4,0.8-1.9c1-1,2.7-1,3.7,0s1,2.7,0,3.7l0,0
	C318,226.5,317.3,226.8,316.6,226.8z M316.6,222.3c-0.5,0-1,0.2-1.3,0.6c-0.7,0.7-0.7,1.9,0,2.6l0,0c0.7,0.7,1.9,0.7,2.6,0l0,0
	c0.7-0.7,0.7-1.9,0-2.6l0,0C317.6,222.4,317.1,222.2,316.6,222.3z"/>
<path class="st5" d="M311.4,229.7c-0.1,0-0.2,0-0.3-0.1c-0.2-0.2-0.2-0.4,0-0.6l3.5-3.5c0.1-0.2,0.4-0.2,0.5,0l0,0
	c0.2,0.2,0.2,0.4,0,0.6l-3.5,3.5C311.6,229.7,311.5,229.7,311.4,229.7z"/>
<path class="st5" d="M316.6,249.3c-0.7,0-1.4-0.3-1.9-0.8l0,0c-1-1-1-2.7,0-3.7s2.7-1,3.7,0s1,2.7,0,3.7
	C318,249,317.3,249.3,316.6,249.3z M316.6,244.8c-1,0-1.9,0.8-1.9,1.9c0,0.5,0.2,1,0.5,1.3l0,0c0.7,0.7,1.9,0.7,2.6,0s0.7-1.9,0-2.6
	C317.6,245,317.1,244.8,316.6,244.8z"/>
<path class="st5" d="M314.9,245.3c-0.1,0-0.2,0-0.3-0.1l-3.5-3.5c-0.2-0.1-0.2-0.4,0-0.5c0.1-0.2,0.4-0.2,0.5,0l0,0l3.5,3.5
	c0.2,0.2,0.2,0.4,0,0.6C315.1,245.2,315,245.3,314.9,245.3z"/>
<path class="st0" d="M297.5,232.4v6c0,1,0.6,2,1.5,2.5l5.2,3c0.9,0.5,2,0.5,2.9,0l5.2-3c0.9-0.5,1.5-1.5,1.5-2.5v-6
	c0-1-0.6-2-1.5-2.5l-5.2-3c-0.9-0.5-2-0.5-2.9,0l-5.2,3C298,230.4,297.5,231.3,297.5,232.4z"/>
<path class="st1" d="M305.6,244.8c-0.5,0-0.9-0.1-1.3-0.4l-5.9-3.4c-0.8-0.5-1.3-1.3-1.3-2.3V232c0-0.9,0.5-1.8,1.3-2.3l5.9-3.4
	c0.8-0.5,1.8-0.5,2.6,0l5.9,3.4c0.8,0.5,1.3,1.3,1.3,2.3v6.8c0,0.9-0.5,1.8-1.3,2.3l-5.9,3.4C306.5,244.7,306,244.8,305.6,244.8z
	 M305.6,226.8c-0.3,0-0.6,0.1-0.9,0.3l-5.9,3.4c-0.6,0.3-0.9,1-0.9,1.6v6.8c0,0.7,0.4,1.3,0.9,1.6l5.9,3.4c0.6,0.3,1.3,0.3,1.9,0
	l5.9-3.4c0.6-0.3,0.9-1,0.9-1.6V232c0-0.7-0.4-1.3-0.9-1.6l-5.9-3.4C306.2,226.8,305.9,226.7,305.6,226.8L305.6,226.8z"/>
<path class="st2" d="M308.4,238.8c-0.2,0-0.4-0.1-0.5-0.3l-2.3-4.6l-2.3,4.6c-0.1,0.3-0.5,0.4-0.8,0.3c-0.3-0.1-0.4-0.5-0.3-0.7l0,0
	l2.8-5.6c0.1-0.2,0.3-0.3,0.5-0.3l0,0c0.2,0,0.4,0.1,0.5,0.3l2.8,5.6c0.1,0.3,0,0.6-0.2,0.8l0,0
	C308.6,238.7,308.5,238.8,308.4,238.8z"/>
<path class="st5" d="M370.8,238c-1.5,0-2.7-1.2-2.7-2.6c0-1.5,1.2-2.7,2.6-2.7c1.5,0,2.7,1.2,2.7,2.6l0,0
	C373.4,236.8,372.2,238,370.8,238L370.8,238z M370.8,233.5c-1,0-1.9,0.8-1.9,1.9c0,1,0.8,1.9,1.9,1.9c1,0,1.9-0.8,1.9-1.9l0,0
	C372.6,234.3,371.8,233.5,370.8,233.5L370.8,233.5z"/>
<path class="st5" d="M336.7,239.7c-2.4,0-4.3-1.9-4.3-4.3c0-2.4,1.9-4.3,4.3-4.3s4.3,1.9,4.3,4.3
	C341.1,237.8,339.1,239.7,336.7,239.7L336.7,239.7z M336.7,231.8c-2,0-3.6,1.6-3.6,3.6s1.6,3.6,3.6,3.6s3.6-1.6,3.6-3.6l0,0
	C340.3,233.4,338.7,231.8,336.7,231.8z"/>
<path class="st5" d="M346.1,235.8h-5.4c-0.2,0-0.4-0.1-0.4-0.3s0.1-0.4,0.3-0.4h0.1h5.4c0.2,0,0.4,0.1,0.4,0.3s-0.1,0.4-0.3,0.4
	C346.2,235.8,346.2,235.8,346.1,235.8z"/>
<path class="st5" d="M368.3,235.8h-5.4c-0.2,0-0.4-0.1-0.4-0.3s0.1-0.4,0.3-0.4h0.1h5.4c0.2,0,0.4,0.1,0.4,0.3s-0.1,0.4-0.3,0.4
	H368.3z"/>
<path class="st5" d="M365.5,226.8c-1.5,0-2.6-1.2-2.6-2.6c0-0.7,0.3-1.4,0.8-1.9c1-1,2.7-1,3.7,0s1,2.7,0,3.7l0,0
	C366.9,226.5,366.2,226.8,365.5,226.8z M365.5,222.3c-0.5,0-1,0.2-1.3,0.6c-0.7,0.7-0.7,1.9,0,2.6l0,0c0.7,0.7,1.9,0.7,2.6,0l0,0
	c0.7-0.7,0.7-1.9,0-2.6l0,0C366.5,222.4,366,222.2,365.5,222.3z"/>
<path class="st5" d="M360.3,229.7c-0.1,0-0.2,0-0.3-0.1c-0.2-0.2-0.2-0.4,0-0.6l3.5-3.5c0.1-0.2,0.4-0.2,0.5,0l0,0
	c0.2,0.2,0.2,0.4,0,0.6l-3.5,3.5C360.5,229.7,360.4,229.7,360.3,229.7z"/>
<path class="st5" d="M365.5,249.3c-0.7,0-1.4-0.3-1.9-0.8l0,0c-1-1-1-2.7,0-3.7s2.7-1,3.7,0s1,2.7,0,3.7
	C366.9,249,366.2,249.3,365.5,249.3z M365.5,244.8c-1,0-1.9,0.8-1.9,1.8c0,0.5,0.2,1,0.6,1.4l0,0c0.7,0.7,1.9,0.7,2.6,0
	s0.7-1.9,0-2.6C366.5,245,366,244.8,365.5,244.8L365.5,244.8z"/>
<path class="st5" d="M363.8,245.3c-0.1,0-0.2,0-0.3-0.1l-3.5-3.5c-0.2-0.1-0.2-0.4,0-0.5c0.1-0.2,0.4-0.2,0.5,0l0,0l3.5,3.5
	c0.2,0.2,0.2,0.4,0,0.6C364,245.2,363.9,245.3,363.8,245.3z"/>
<path class="st0" d="M346.4,232.4v6c0,1,0.6,2,1.5,2.5l5.2,3c0.9,0.5,2,0.5,2.9,0l5.2-3c0.9-0.5,1.5-1.5,1.5-2.5v-6
	c0-1-0.6-2-1.5-2.5l-5.2-3c-0.9-0.5-2-0.5-2.9,0l-5.2,3C346.9,230.4,346.4,231.3,346.4,232.4z"/>
<path class="st1" d="M354.5,244.8c-0.5,0-0.9-0.1-1.3-0.4l-5.9-3.4c-0.8-0.5-1.3-1.3-1.3-2.3V232c0-0.9,0.5-1.8,1.3-2.3l5.9-3.4
	c0.8-0.5,1.8-0.5,2.6,0l5.9,3.4c0.8,0.5,1.3,1.3,1.3,2.3v6.8c0,0.9-0.5,1.8-1.3,2.3l-5.9,3.4C355.4,244.7,355,244.8,354.5,244.8z
	 M354.5,226.8c-0.3,0-0.6,0.1-0.9,0.3l-5.9,3.4c-0.6,0.3-0.9,1-0.9,1.6v6.8c0,0.7,0.4,1.3,0.9,1.6l5.9,3.4c0.6,0.3,1.3,0.3,1.9,0
	l5.9-3.4c0.6-0.3,0.9-1,0.9-1.6V232c0-0.7-0.4-1.3-0.9-1.6l-5.9-3.4C355.1,226.8,354.8,226.7,354.5,226.8L354.5,226.8z"/>
<path class="st2" d="M357.3,238.8c-0.2,0-0.4-0.1-0.5-0.3l-2.3-4.6l-2.3,4.6c-0.1,0.3-0.5,0.4-0.8,0.3c-0.3-0.1-0.4-0.5-0.3-0.7l0,0
	l2.8-5.6c0.1-0.2,0.3-0.3,0.5-0.3l0,0c0.2,0,0.4,0.1,0.5,0.3l2.8,5.6c0.1,0.3,0,0.6-0.2,0.8l0,0
	C357.5,238.7,357.4,238.8,357.3,238.8z"/>
<path class="st5" d="M419.7,238c-1.5,0-2.7-1.2-2.7-2.6c0-1.5,1.2-2.7,2.6-2.7c1.5,0,2.7,1.2,2.7,2.6l0,0
	C422.3,236.8,421.1,238,419.7,238L419.7,238z M419.7,233.5c-1,0-1.9,0.8-1.9,1.9c0,1,0.8,1.9,1.9,1.9c1,0,1.9-0.8,1.9-1.9l0,0
	C421.5,234.3,420.7,233.5,419.7,233.5L419.7,233.5z"/>
<path class="st5" d="M385.6,239.7c-2.4,0-4.3-1.9-4.3-4.3c0-2.4,1.9-4.3,4.3-4.3s4.3,1.9,4.3,4.3C390,237.8,388.1,239.7,385.6,239.7
	C385.7,239.7,385.7,239.7,385.6,239.7z M385.6,231.8c-2,0-3.6,1.6-3.6,3.6s1.6,3.6,3.6,3.6s3.6-1.6,3.6-3.6l0,0
	C389.2,233.4,387.6,231.8,385.6,231.8z"/>
<path class="st5" d="M395,235.8h-5.4c-0.2,0-0.4-0.1-0.4-0.3s0.1-0.4,0.3-0.4h0.1h5.4c0.2,0,0.4,0.1,0.4,0.3s-0.1,0.4-0.3,0.4H395z"
	/>
<path class="st5" d="M417.2,235.8h-5.4c-0.2,0-0.4-0.1-0.4-0.3s0.1-0.4,0.3-0.4h0.1h5.4c0.2,0,0.4,0.1,0.4,0.3s-0.1,0.4-0.3,0.4
	C417.3,235.8,417.2,235.8,417.2,235.8z"/>
<path class="st5" d="M414.4,226.8c-1.5,0-2.6-1.2-2.6-2.6c0-0.7,0.3-1.4,0.8-1.9c1-1,2.7-1,3.7,0s1,2.7,0,3.7l0,0
	C415.8,226.5,415.1,226.8,414.4,226.8z M414.4,222.3c-0.5,0-1,0.2-1.3,0.6c-0.7,0.7-0.7,1.9,0,2.6l0,0c0.7,0.7,1.9,0.7,2.6,0l0,0
	c0.7-0.7,0.7-1.9,0-2.6C415.4,222.4,414.9,222.2,414.4,222.3z"/>
<path class="st5" d="M409.2,229.7c-0.1,0-0.2,0-0.3-0.1c-0.2-0.2-0.2-0.4,0-0.6l3.5-3.5c0.1-0.2,0.4-0.2,0.5,0l0,0
	c0.2,0.2,0.2,0.4,0,0.6l-3.5,3.5C409.4,229.7,409.3,229.7,409.2,229.7z"/>
<path class="st5" d="M414.4,249.3c-0.7,0-1.4-0.3-1.9-0.8l0,0c-1-1-1-2.7,0-3.7s2.7-1,3.7,0s1,2.7,0,3.7
	C415.8,249,415.1,249.3,414.4,249.3z M414.4,244.8c-1,0-1.9,0.8-1.9,1.9c0,0.5,0.2,1,0.5,1.3l0,0c0.7,0.7,1.9,0.7,2.6,0
	s0.7-1.9,0-2.6C415.4,245,414.9,244.8,414.4,244.8z"/>
<path class="st5" d="M412.7,245.3c-0.1,0-0.2,0-0.3-0.1l-3.5-3.5c-0.1-0.2-0.1-0.4,0-0.6c0.1-0.1,0.4-0.1,0.5,0l3.5,3.5
	c0.2,0.2,0.2,0.4,0,0.6C412.9,245.2,412.8,245.3,412.7,245.3z"/>
<path class="st0" d="M395.3,232.4v6c0,1,0.6,2,1.5,2.5l5.2,3c0.9,0.5,2,0.5,2.9,0l5.2-3c0.9-0.5,1.5-1.5,1.5-2.5v-6
	c0-1-0.6-2-1.5-2.5l-5.2-3c-0.9-0.5-2-0.5-2.9,0l-5.2,3C395.8,230.4,395.3,231.3,395.3,232.4z"/>
<path class="st1" d="M403.4,244.8c-0.5,0-0.9-0.1-1.3-0.4l-5.9-3.4c-0.8-0.5-1.3-1.3-1.3-2.3V232c0-0.9,0.5-1.8,1.3-2.3l5.9-3.4
	c0.8-0.5,1.8-0.5,2.6,0l5.9,3.4c0.8,0.5,1.3,1.3,1.3,2.3v6.8c0,0.9-0.5,1.8-1.3,2.3l-5.9,3.4C404.3,244.7,403.9,244.8,403.4,244.8z
	 M403.4,226.8c-0.3,0-0.6,0.1-0.9,0.3l-5.9,3.4c-0.6,0.3-0.9,1-0.9,1.6v6.8c0,0.7,0.4,1.3,0.9,1.6l5.9,3.4c0.6,0.3,1.3,0.3,1.9,0
	l5.9-3.4c0.6-0.3,0.9-1,0.9-1.6V232c0-0.7-0.4-1.3-0.9-1.6l-5.9-3.4C404,226.8,403.7,226.7,403.4,226.8L403.4,226.8z"/>
<path class="st2" d="M406.2,238.8c-0.2,0-0.4-0.1-0.5-0.3l-2.3-4.6l-2.3,4.6c-0.1,0.3-0.5,0.4-0.8,0.3c-0.3-0.1-0.4-0.5-0.3-0.7l0,0
	l2.8-5.6c0.1-0.2,0.3-0.3,0.5-0.3l0,0c0.2,0,0.4,0.1,0.5,0.3l2.8,5.6c0.1,0.3,0,0.6-0.2,0.8l0,0
	C406.4,238.7,406.3,238.8,406.2,238.8z"/>
<line class="st7" x1="328.4" y1="187.5" x2="306.4" y2="219.8"/>
<line class="st7" x1="328.4" y1="187.5" x2="350.4" y2="219.8"/>
<line class="st7" x1="328.4" y1="187.5" x2="256.4" y2="219.8"/>
<line class="st7" x1="328.4" y1="187.5" x2="400.4" y2="219.8"/>
<polyline class="st8" points="82.6,174.5 129.1,174.5 129.1,140.3 298.3,140.3 "/>
<polygon class="st1" points="84.4,177.1 74.7,174.5 84.4,171.9 "/>
<polygon class="st1" points="296.6,142.9 306.3,140.3 296.6,137.7 "/>
<polyline class="st8" points="82.6,229.3 149.1,229.3 149.1,156.7 306.3,156.7 "/>
<polygon class="st1" points="84.4,231.9 74.7,229.3 84.4,226.7 "/>
<polyline class="st8" points="129.2,138.7 129.2,104.8 83.5,104.8 "/>
<polygon class="st1" points="85.5,101.9 74.7,104.8 85.5,107.7 "/>
<path class="st9" d="M53.6,246.4L53.6,246.4z"/>
<line class="st7" x1="329.7" y1="82.3" x2="329.7" y2="121.1"/>
<polygon class="st10" points="327.3,83.9 329.7,75 332,83.9 "/>
<polygon class="st10" points="327.3,119.4 329.7,128.3 332,119.4 "/>
<g id="Artwork_4_1_">
	<g>
		<g>
			<defs>
				<rect id="SVGID_1_" x="33" y="47.8" width="43.8" height="26.3"/>
			</defs>
			<clipPath id="SVGID_2_">
				<use xlink:href="#SVGID_1_"  style="overflow:visible;"/>
			</clipPath>
			<g class="st11">
				<g>
					<defs>
						<rect id="SVGID_3_" x="33" y="47.8" width="43.8" height="26.3"/>
					</defs>
					<clipPath id="SVGID_4_">
						<use xlink:href="#SVGID_3_"  style="overflow:visible;"/>
					</clipPath>
					<path class="st12" d="M33,65.4C33.1,65.4,33.1,65.3,33,65.4c0.1-0.2,0.3-0.3,0.5-0.3c0.1,0,0.2,0,0.2,0.1
						c2.6,1.5,5.3,2.7,8.2,3.6c1.6,0.5,3.2,0.9,4.9,1.3c0.8,0.2,1.7,0.3,2.5,0.4c0.7,0.1,1.3,0.2,2,0.2c0.7,0.1,1.4,0.1,2.1,0.1
						c0.9,0,1.7,0.1,2.6,0c0.7,0,1.4,0,2.1-0.1c0.6,0,1.2-0.1,1.8-0.2c0.7-0.1,1.5-0.2,2.2-0.3c0.9-0.2,1.8-0.3,2.7-0.5
						c2.4-0.6,4.7-1.3,7-2.2c0.1-0.1,0.3-0.1,0.4-0.1s0.2,0,0.3,0c0.4,0.1,0.6,0.6,0.3,1c-0.1,0.1-0.2,0.2-0.3,0.2
						c-1.3,0.9-2.6,1.7-4,2.4c-2,0.9-4,1.6-6.2,2.1c-0.9,0.2-1.9,0.4-2.8,0.5c-0.7,0.1-1.4,0.2-2.1,0.2c-0.4,0-0.7,0.1-1.1,0.1
						c-0.1,0-0.2,0-0.3,0c-0.2,0-0.3,0-0.5,0c-0.5,0-0.9,0-1.4,0c-0.1,0-0.3,0-0.4,0c-0.1,0-0.2,0-0.3,0c-0.9,0-1.7-0.1-2.5-0.2
						c-0.6-0.1-1.2-0.2-1.9-0.3c-1.1-0.2-2.1-0.4-3.2-0.7c-2.6-0.8-5.1-1.8-7.4-3.2c-1.6-1-3.2-2.1-4.6-3.3
						C33.5,66,33.2,65.8,33,65.4L33,65.4L33,65.4z"/>
				</g>
				<g>
					<defs>
						<rect id="SVGID_5_" x="33" y="47.8" width="43.8" height="26.3"/>
					</defs>
					<clipPath id="SVGID_6_">
						<use xlink:href="#SVGID_5_"  style="overflow:visible;"/>
					</clipPath>
					<path class="st13" d="M76.8,66.2C76.8,66.2,76.7,66.2,76.8,66.2c0,0.5-0.1,1-0.3,1.5c-0.3,1.1-0.7,2.2-1.4,3.1
						c-0.3,0.5-0.7,1-1.2,1.3c-0.1,0.1-0.2,0.1-0.3,0.2c-0.1,0-0.1,0-0.2,0s-0.2-0.1-0.2-0.2s0-0.2,0.1-0.3c0.3-0.7,0.6-1.4,0.8-2.1
						c0.2-0.6,0.4-1.2,0.5-1.8c0.1-0.3,0.1-0.7,0.1-1v-0.1c0-0.3-0.2-0.6-0.5-0.7s-0.6-0.2-1-0.2c-0.6,0-1.1,0-1.7,0
						s-1.2,0.1-1.8,0.2c-0.3,0-0.5,0.1-0.8,0.1c-0.1,0-0.1,0-0.2,0c-0.2,0-0.3-0.2-0.2-0.4c0.1-0.1,0.1-0.2,0.2-0.3
						c0.2-0.2,0.5-0.3,0.7-0.4c0.7-0.3,1.4-0.6,2.1-0.7c0.9-0.2,1.7-0.2,2.6-0.2c0.6,0,1.2,0.1,1.7,0.3c0.1,0,0.3,0.1,0.4,0.2
						c0.2,0.1,0.3,0.3,0.3,0.5v0.1v0.9H76.8z"/>
				</g>
				<g>
					<defs>
						<rect id="SVGID_7_" x="33" y="47.8" width="43.8" height="26.3"/>
					</defs>
					<clipPath id="SVGID_8_">
						<use xlink:href="#SVGID_7_"  style="overflow:visible;"/>
					</clipPath>
					<path class="st14" d="M54.1,74.1c0.5,0,0.9,0,1.4,0l0,0H54.1L54.1,74.1"/>
				</g>
				<g>
					<defs>
						<rect id="SVGID_9_" x="33" y="47.8" width="43.8" height="26.3"/>
					</defs>
					<clipPath id="SVGID_10_">
						<use xlink:href="#SVGID_9_"  style="overflow:visible;"/>
					</clipPath>
					<path class="st15" d="M69.9,47.8h0.8l0,0C70.4,47.9,70.2,47.9,69.9,47.8C69.9,47.9,69.9,47.9,69.9,47.8"/>
				</g>
				<g>
					<defs>
						<rect id="SVGID_11_" x="33" y="47.8" width="43.8" height="26.3"/>
					</defs>
					<clipPath id="SVGID_12_">
						<use xlink:href="#SVGID_11_"  style="overflow:visible;"/>
					</clipPath>
					<path class="st16" d="M40.1,47.8h0.6l0,0C40.5,47.9,40.3,47.9,40.1,47.8C40.1,47.9,40.1,47.9,40.1,47.8"/>
				</g>
				<g>
					<defs>
						<rect id="SVGID_13_" x="33" y="47.8" width="43.8" height="26.3"/>
					</defs>
					<clipPath id="SVGID_14_">
						<use xlink:href="#SVGID_13_"  style="overflow:visible;"/>
					</clipPath>
					<path class="st17" d="M55.5,74.1L55.5,74.1c0.2,0,0.3,0,0.5,0l0,0H55.5z"/>
				</g>
				<g>
					<defs>
						<rect id="SVGID_15_" x="33" y="47.8" width="43.8" height="26.3"/>
					</defs>
					<clipPath id="SVGID_16_">
						<use xlink:href="#SVGID_15_"  style="overflow:visible;"/>
					</clipPath>
					<path class="st18" d="M54.1,74.1L54.1,74.1h-0.4l0,0C53.8,74.1,54,74.1,54.1,74.1"/>
				</g>
				<g>
					<defs>
						<rect id="SVGID_17_" x="33" y="47.8" width="43.8" height="26.3"/>
					</defs>
					<clipPath id="SVGID_18_">
						<use xlink:href="#SVGID_17_"  style="overflow:visible;"/>
					</clipPath>
					<path class="st19" d="M70.7,47.9L70.7,47.9h0.2l0,0C70.9,47.9,70.8,47.9,70.7,47.9"/>
				</g>
				<g>
					<defs>
						<rect id="SVGID_19_" x="33" y="47.8" width="43.8" height="26.3"/>
					</defs>
					<clipPath id="SVGID_20_">
						<use xlink:href="#SVGID_19_"  style="overflow:visible;"/>
					</clipPath>
					<path class="st20" d="M39.7,47.9L39.7,47.9h0.2l0,0C39.8,47.9,39.8,47.9,39.7,47.9"/>
				</g>
				<g>
					<defs>
						<rect id="SVGID_21_" x="33" y="47.8" width="43.8" height="26.3"/>
					</defs>
					<clipPath id="SVGID_22_">
						<use xlink:href="#SVGID_21_"  style="overflow:visible;"/>
					</clipPath>
					<path class="st21" d="M39.9,47.9L39.9,47.9h0.2l0,0C40,47.9,40,47.9,39.9,47.9"/>
				</g>
				<g>
					<defs>
						<rect id="SVGID_23_" x="33" y="47.8" width="43.8" height="26.3"/>
					</defs>
					<clipPath id="SVGID_24_">
						<use xlink:href="#SVGID_23_"  style="overflow:visible;"/>
					</clipPath>
					<path class="st22" d="M40.6,47.9L40.6,47.9h0.2l0,0C40.8,47.9,40.7,47.9,40.6,47.9"/>
				</g>
				<g>
					<defs>
						<rect id="SVGID_25_" x="33" y="47.8" width="43.8" height="26.3"/>
					</defs>
					<clipPath id="SVGID_26_">
						<use xlink:href="#SVGID_25_"  style="overflow:visible;"/>
					</clipPath>
					<path class="st23" d="M40.9,47.9C40.8,47.9,40.8,47.9,40.9,47.9h0.2l0,0C41,47.9,40.9,47.9,40.9,47.9"/>
				</g>
				<g>
					<defs>
						<rect id="SVGID_27_" x="33" y="47.8" width="43.8" height="26.3"/>
					</defs>
					<clipPath id="SVGID_28_">
						<use xlink:href="#SVGID_27_"  style="overflow:visible;"/>
					</clipPath>
					<path class="st24" d="M69.9,47.8C69.9,47.9,69.9,47.9,69.9,47.8c-0.1,0-0.1,0-0.2,0l0,0H69.9z"/>
				</g>
				<g>
					<defs>
						<rect id="SVGID_29_" x="33" y="47.8" width="43.8" height="26.3"/>
					</defs>
					<clipPath id="SVGID_30_">
						<use xlink:href="#SVGID_29_"  style="overflow:visible;"/>
					</clipPath>
					<path class="st25" d="M55.5,51.1c-0.1,0.5-0.2,1-0.4,1.5l-1.6,6.6c-0.1,0.4-0.2,0.8-0.3,1.2c0,0.1-0.1,0.3-0.1,0.4
						c-0.1,0.2-0.2,0.3-0.4,0.3c-0.1,0-0.2,0-0.2,0c-0.5,0-0.9,0-1.4,0c-0.1,0-0.2,0-0.2,0c-0.2,0-0.3-0.1-0.4-0.3
						c-0.1-0.1-0.1-0.2-0.1-0.4c-0.7-2.2-1.3-4.4-2-6.6c-0.5-1.6-1-3.2-1.4-4.7c0-0.1-0.1-0.2-0.1-0.4v-0.1c0-0.3,0.1-0.4,0.4-0.4
						c0.5,0,0.9,0,1.4,0c0.1,0,0.2,0,0.3,0c0.2,0,0.3,0.1,0.4,0.3c0.1,0.1,0.1,0.3,0.2,0.4c0.3,1.2,0.6,2.4,0.9,3.7
						c0.4,1.7,0.9,3.5,1.3,5.2c0.1,0.2,0.1,0.4,0.2,0.7c0.1,0,0-0.1,0-0.1c0.5-2,0.9-3.9,1.4-5.9c0.3-1.2,0.6-2.4,0.8-3.6
						c0-0.1,0.1-0.2,0.1-0.3c0.1-0.2,0.2-0.3,0.4-0.3c0.1,0,0.2,0,0.3,0c0.4,0,0.8,0,1.2,0c0.1,0,0.2,0,0.4,0s0.3,0.1,0.3,0.3
						C57,48.7,57,48.9,57,49c0.7,3.1,1.4,6.1,2.2,9.2c0,0.2,0.1,0.3,0.1,0.5c0.1-0.4,0.2-0.7,0.3-1.1c0.7-2.9,1.5-5.7,2.2-8.6
						c0-0.2,0.1-0.3,0.2-0.4c0.1-0.2,0.2-0.3,0.4-0.3c0.1,0,0.2,0,0.3,0c0.4,0,0.9,0,1.3,0h0.1c0.2,0,0.3,0.1,0.3,0.3s0,0.3-0.1,0.5
						c-0.6,2-1.3,4-1.9,6c-0.6,1.8-1.1,3.6-1.7,5.3c0,0.1-0.1,0.3-0.2,0.4c-0.1,0.2-0.2,0.3-0.4,0.3c-0.1,0-0.2,0-0.3,0
						c-0.4,0-0.8,0-1.2,0c-0.1,0-0.3,0-0.4,0c-0.2,0-0.3-0.1-0.4-0.3c-0.1-0.2-0.1-0.3-0.2-0.5C57,57.3,56.3,54.2,55.5,51.1
						C55.5,51.2,55.5,51.1,55.5,51.1"/>
				</g>
				<g>
					<defs>
						<rect id="SVGID_31_" x="33" y="47.8" width="43.8" height="26.3"/>
					</defs>
					<clipPath id="SVGID_32_">
						<use xlink:href="#SVGID_31_"  style="overflow:visible;"/>
					</clipPath>
					<path class="st26" d="M40.9,47.9c0.1,0,0.1,0,0.2,0c0.6,0,1.2,0.1,1.7,0.3c1.2,0.4,2,1.2,2.3,2.5c0.2,0.6,0.3,1.3,0.3,1.9
						c0,1.6,0,3.2,0,4.8c0,0.3,0,0.6,0.1,0.9c0.1,0.4,0.2,0.7,0.4,1c0.1,0.1,0.1,0.2,0.2,0.4c0.1,0.3,0.1,0.5-0.2,0.7
						s-0.7,0.5-1,0.7s-0.5,0.1-0.8-0.1c-0.2-0.2-0.4-0.4-0.5-0.7c-0.1-0.1-0.2-0.3-0.2-0.4c-0.1-0.1-0.1-0.3-0.2-0.4
						c-0.1,0-0.1,0.1-0.1,0.1c-0.6,0.7-1.3,1.2-2.1,1.5c-0.6,0.2-1.3,0.4-1.9,0.4c-0.6,0-1.2,0-1.8-0.3c-1.2-0.5-2-1.4-2.2-2.6
						c-0.2-0.8-0.1-1.5,0.1-2.2c0.3-0.9,0.9-1.6,1.8-2.1c0.6-0.3,1.2-0.5,1.8-0.6c0.9-0.1,1.8-0.1,2.7,0c0.5,0.1,1,0.2,1.5,0.3
						c0,0,0,0,0.1,0c0,0,0,0,0-0.1c0-0.5,0-1,0-1.4c0-0.3-0.1-0.7-0.2-1c-0.2-0.7-0.7-1.2-1.4-1.4c-0.5-0.1-0.9-0.2-1.4-0.2
						c-0.9,0-1.7,0.2-2.5,0.4c-0.3,0.1-0.6,0.2-0.9,0.3c-0.2,0.1-0.3,0.1-0.5,0.1s-0.3,0-0.4-0.3c0-0.1,0-0.1,0-0.2
						c0-0.3,0-0.5,0-0.8s0.1-0.6,0.4-0.7c0.5-0.3,1.1-0.5,1.6-0.6c0.6-0.2,1.2-0.3,1.8-0.3c0.1,0,0.1,0,0.2,0c0.1,0,0.1,0,0.2,0
						c0.2,0,0.4,0,0.6,0C40.7,47.9,40.8,47.9,40.9,47.9 M43,56.2c0-0.2,0-0.3,0-0.5c0-0.1,0-0.1-0.1-0.2c-0.9-0.2-1.8-0.3-2.7-0.3
						c-0.5,0-0.9,0.1-1.4,0.2c-0.6,0.2-1.1,0.6-1.2,1.3c-0.2,0.5-0.1,1.1,0,1.6c0.2,0.5,0.5,0.8,0.9,1c0.2,0.1,0.4,0.1,0.7,0.2
						c0.5,0.1,0.9,0,1.4-0.1c0.6-0.1,1.2-0.4,1.6-0.9c0.4-0.4,0.6-0.8,0.7-1.3C43,56.9,43,56.5,43,56.2"/>
				</g>
				<g>
					<defs>
						<rect id="SVGID_33_" x="33" y="47.8" width="43.8" height="26.3"/>
					</defs>
					<clipPath id="SVGID_34_">
						<use xlink:href="#SVGID_33_"  style="overflow:visible;"/>
					</clipPath>
					<path class="st27" d="M69.8,47.9c0.1,0,0.1,0,0.2,0c0.3,0,0.5,0,0.8,0c0.1,0,0.2,0,0.2,0c0.8,0.1,1.7,0.2,2.5,0.6
						c0.2,0.1,0.4,0.2,0.6,0.3s0.3,0.3,0.3,0.6s0,0.6,0,0.8c0,0,0,0,0,0.1c0,0.3-0.2,0.4-0.5,0.3c-0.1,0-0.3-0.1-0.4-0.1
						c-0.7-0.3-1.4-0.5-2.1-0.5c-0.5,0-1,0-1.4,0s-0.7,0.1-1.1,0.3c-0.7,0.3-0.9,0.9-0.8,1.6c0,0.4,0.3,0.7,0.6,1
						c0.3,0.2,0.7,0.4,1.1,0.5c0.7,0.3,1.5,0.5,2.2,0.7c0.5,0.2,1,0.4,1.5,0.6c0.8,0.5,1.4,1.2,1.5,2.2c0.2,1.3-0.1,2.5-1.1,3.4
						c-0.6,0.5-1.3,0.9-2,1.1c-0.9,0.2-1.7,0.3-2.6,0.2c-0.8-0.1-1.6-0.2-2.4-0.4c-0.3-0.1-0.6-0.2-0.9-0.4
						c-0.4-0.2-0.5-0.5-0.5-0.9c0-0.2,0-0.4,0-0.6c0-0.1,0-0.2,0-0.2c0-0.2,0.1-0.2,0.3-0.2c0.1,0,0.2,0,0.3,0.1
						c0.2,0.1,0.4,0.2,0.6,0.3c0.7,0.3,1.4,0.4,2.2,0.5c0.5,0,0.9,0.1,1.4,0c0.5,0,1-0.1,1.4-0.4c0.4-0.2,0.7-0.5,0.8-0.9
						c0.1-0.3,0.1-0.6,0-0.9c-0.1-0.3-0.2-0.6-0.5-0.8c-0.2-0.2-0.5-0.3-0.7-0.4c-0.5-0.2-1-0.3-1.5-0.5c-0.6-0.2-1.1-0.3-1.7-0.6
						c-0.5-0.2-1-0.4-1.4-0.8c-0.8-0.7-1.2-1.6-1.2-2.7c0-1.1,0.5-1.9,1.3-2.6c0.6-0.5,1.2-0.8,1.9-0.9
						C69.1,47.9,69.4,47.9,69.8,47.9"/>
				</g>
			</g>
		</g>
	</g>
</g>
<g>
	
		<linearGradient id="Orange_Gradient_1_" gradientUnits="userSpaceOnUse" x1="402.9778" y1="-30.7564" x2="402.9778" y2="33.2436" gradientTransform="matrix(-0.7071 -0.7071 0.7071 -0.7071 337.4523 452.7777)">
		<stop  offset="0" style="stop-color:#C8511B"/>
		<stop  offset="1" style="stop-color:#FF9900"/>
	</linearGradient>
	<rect id="Orange_Gradient" x="37.4" y="150.9" class="st28" width="32" height="32"/>
	<g id="Icon_Test">
		<path class="st2" d="M63.2,168.2h-2.1v-0.9h2.1l0-10.2l-10.2,0l0,2.1h-0.9v-2.1c0-0.5,0.4-0.9,0.9-0.9h10.2c0.5,0,0.9,0.4,0.9,0.9
			v10.2C64,167.8,63.7,168.2,63.2,168.2z"/>
		<path class="st2" d="M53.8,177.6H43.6c-0.5,0-0.9-0.4-0.9-0.9v-10.2c0-0.5,0.4-0.9,0.9-0.9h2.1v0.9h-2.1l0,10.2l10.2,0l0-2.1h0.9
			v2.1C54.7,177.2,54.3,177.6,53.8,177.6z"/>
		<path class="st2" d="M60.2,163.1v-0.9h-1.3c0-0.5-0.4-0.8-0.8-0.8v-1.3h-0.9v1.3h-1.3v-1.3h-0.9v1.3h-1.3v-1.3H53v1.3h-1.3v-1.3
			h-0.9v1.3h-1.3v-1.3h-0.9l0,1.3c-0.5,0-0.8,0.4-0.8,0.8h-1.3v0.9h1.3v1.3h-1.3v0.9h1.3v1.3h-1.3v0.9h1.3v1.3h-1.3v0.9h1.3v1.3
			h-1.3v0.9h1.3c0,0.5,0.4,0.8,0.8,0.8v1.3h0.9v-1.3h1.3v1.3h0.9v-1.3H53v1.3h0.9v-1.3h1.3v1.3h0.9v-1.3h1.3v1.3h0.9v-1.3
			c0.5,0,0.8-0.4,0.8-0.8h1.3v-0.9h-1.3v-1.3h1.3l0-0.9h-1.3v-1.3h1.3v-0.9h-1.3v-1.3h1.3v-0.9h-1.3l0-1.3H60.2z M58.1,171.6
			C58.1,171.6,58,171.6,58.1,171.6l-9.3,0.1c0,0-0.1,0-0.1-0.1v-9.2c0,0,0-0.1,0.1-0.1l9.2,0c0,0,0.1,0,0.1,0.1V171.6z"/>
	</g>
</g>
<g>
	
		<linearGradient id="Purple_Gradient_2_" gradientUnits="userSpaceOnUse" x1="291.3719" y1="-75.2434" x2="336.6267" y2="-29.9885" gradientTransform="matrix(4.371139e-08 -1 1 4.371139e-08 105.9993 418.9993)">
		<stop  offset="0" style="stop-color:#4D27A8"/>
		<stop  offset="1" style="stop-color:#A166FF"/>
	</linearGradient>
	<rect id="Purple_Gradient" x="37.4" y="89" class="st29" width="32" height="32"/>
	<g id="Icon_Test_1_">
		<path class="st2" d="M52.9,108.8h-6c-2.3,0-4.1-1.6-4.2-3.7c0-0.1,0-0.2,0-0.3c0-2.6,1.8-3.6,2.9-4c0-0.1,0-0.2,0-0.3
			c0-2.2,1.5-4.4,3.5-5.2c2.3-0.9,4.7-0.5,6.5,1.3c0.5,0.5,1,1.2,1.3,1.9c0.5-0.4,1-0.6,1.6-0.6c1.2,0,2.5,0.9,2.8,2.8
			c1.2,0.3,2.1,0.8,2.7,1.6l-0.7,0.5c-0.5-0.7-1.3-1.1-2.5-1.3c-0.2,0-0.3-0.2-0.4-0.4c-0.1-1.6-1.1-2.4-2-2.4
			c-0.6,0-1.1,0.3-1.5,0.7c-0.1,0.1-0.2,0.2-0.4,0.2c-0.2,0-0.3-0.1-0.3-0.3c-0.3-0.9-0.8-1.6-1.4-2.2c-0.7-0.7-2.8-2.3-5.6-1.1
			c-1.6,0.7-2.9,2.6-2.9,4.4c0,0.2,0,0.4,0,0.6c0,0.2-0.1,0.4-0.3,0.5c-1,0.2-2.6,1-2.6,3.2c0,0.1,0,0.2,0,0.2
			c0.1,1.7,1.5,2.9,3.4,2.9h6V108.8z"/>
		<path class="st2" d="M58.9,115.1c-5.1,0-5.1-5.7-5.1-5.7v-5.2c0-0.2,0.1-0.3,0.3-0.4l4.7-1.7c0.1,0,0.2,0,0.3,0l4.7,1.7
			c0.2,0.1,0.3,0.2,0.3,0.4v5.5C64,109.8,64,115.1,58.9,115.1z M54.6,104.5v4.9c0,0.2,0.1,4.9,4.3,4.9c4.2,0,4.3-4.4,4.3-4.6v-5.2
			l-4.3-1.6L54.6,104.5z"/>
		<path class="st2" d="M58.9,113.5c-2.7,0-3.4-3.4-3.4-3.6c0,0,0-0.1,0-0.1v-4.4c0-0.2,0.1-0.3,0.3-0.4l3-1.2c0.1,0,0.2,0,0.3,0
			l3,1.2c0.2,0.1,0.3,0.2,0.3,0.4v4.4c0,0,0,0.1,0,0.1C62.3,110.1,61.6,113.5,58.9,113.5z M56.3,109.8c0.1,0.3,0.7,2.9,2.6,2.9
			c1.9,0,2.5-2.5,2.6-2.9v-4.1l-2.6-1l-2.6,1V109.8z"/>
	</g>
</g>
<g>
	
		<linearGradient id="Purple_Gradient_3_" gradientUnits="userSpaceOnUse" x1="29.8813" y1="61.3831" x2="93.8813" y2="61.3831" gradientTransform="matrix(0.7071 -0.7071 0.7071 0.7071 -33.7777 231.4523)">
		<stop  offset="0" style="stop-color:#4D27A8"/>
		<stop  offset="1" style="stop-color:#A166FF"/>
	</linearGradient>
	<rect id="Purple_Gradient_1_" x="37.4" y="215.1" class="st30" width="32" height="32"/>
	<g id="Icon_Test_2_">
		<g>
			<path class="st2" d="M49,233.4c0.7,0.2,1.2,0.3,1.7,0.3c0.4,0,0.8-0.1,1-0.3c0.2-0.2,0.4-0.5,0.4-0.9c0-0.4-0.1-0.7-0.3-0.9
				c-0.2-0.2-0.6-0.3-1.1-0.3c-0.4,0-0.8,0-1.4,0.1v-0.6l0.2-2.6h3.2v0.7h-2.5l-0.1,1.8c0.3-0.1,0.6-0.1,0.9-0.1
				c0.6,0,1.1,0.2,1.5,0.5c0.4,0.3,0.5,0.8,0.5,1.4c0,0.6-0.2,1-0.6,1.4c-0.4,0.4-1,0.5-1.6,0.5c-0.6,0-1.2-0.1-1.7-0.4V233.4z"/>
			<path class="st2" d="M56,230.9C56,230.9,56.1,230.9,56,230.9c0.1,0,0.1,0,0.2,0c0.6,0,1,0.2,1.4,0.5c0.3,0.3,0.5,0.7,0.5,1.3
				c0,0.6-0.2,1-0.6,1.4c-0.4,0.3-1,0.5-1.7,0.5c-0.6,0-1.1-0.1-1.6-0.4v-0.7c0.6,0.2,1.2,0.3,1.6,0.3c0.4,0,0.8-0.1,1-0.3
				c0.2-0.2,0.4-0.5,0.4-0.9c0-0.7-0.4-1.1-1.3-1.1c-0.3,0-0.6,0-0.8,0V231l1.8-2h-2.6v-0.7h3.6v0.7L56,230.9z"/>
		</g>
		<path class="st2" d="M53.4,239.2c-0.1,0-0.1,0-0.2-0.1c-1-0.6-2.7-1.4-4.5-1.7c-0.9-0.2-3.8-0.9-3.8-3c0-1,0.4-1.6,0.8-2.4
			c0.5-0.9,1.2-2,1.2-3.5c0-1.2-0.3-2.3-1-3.4c-0.1-0.2-0.1-0.4,0-0.5c0.2-0.3,0.5-0.6,0.7-0.8c0.1-0.2,0.4-0.2,0.5-0.1
			c0.9,0.5,1.9,0.8,2.9,0.8c1.2,0,2.2-0.3,3.2-1c0.1-0.1,0.3-0.1,0.5,0c0.9,0.7,2,1,3.2,1c1,0,2-0.3,2.9-0.8
			c0.2-0.1,0.4-0.1,0.5,0.1c0.2,0.3,0.5,0.6,0.7,0.8c0.1,0.1,0.1,0.3,0,0.5c-0.7,1.1-1,2.2-1,3.4c0,1.5,0.6,2.6,1.2,3.5
			c0.5,0.8,0.8,1.5,0.8,2.4c0,2.1-2.9,2.8-3.8,3c-1.8,0.3-3.4,1.1-4.5,1.7C53.5,239.2,53.5,239.2,53.4,239.2z M46.7,224.9
			c0.7,1.1,1,2.3,1,3.6c0,1.7-0.7,3-1.3,3.9c-0.4,0.8-0.7,1.3-0.7,2c0,1.5,2.6,2.1,3.1,2.2c1.8,0.3,3.4,1.1,4.5,1.7
			c1.1-0.6,2.7-1.4,4.5-1.7c0.5-0.1,3.1-0.6,3.1-2.2c0-0.7-0.3-1.2-0.7-2c-0.6-1-1.3-2.2-1.3-3.9c0-1.3,0.3-2.5,1-3.6
			c-0.1-0.1-0.2-0.2-0.3-0.3c-1,0.5-2,0.7-3,0.7c-1.2,0-2.4-0.3-3.4-1c-1,0.6-2.2,1-3.4,1c-1,0-2-0.2-3-0.7
			C46.9,224.7,46.8,224.8,46.7,224.9z"/>
		<path class="st2" d="M53.4,241.8c-0.1,0-0.2,0-0.3-0.1c0,0-2.2-1.7-4.8-2.1c-3.5-0.6-5.6-2.5-5.6-5.1c0-1.5,0.6-2.6,1.1-3.5
			c0.5-0.8,0.9-1.5,0.9-2.4c0-2-1.5-3.2-1.6-3.3c-0.1-0.1-0.2-0.2-0.2-0.3c0-0.1,0-0.2,0.1-0.3c0,0,2.5-3,3.1-3.8
			c0.1-0.1,0.2-0.2,0.3-0.2c0.1,0,0.3,0,0.4,0.1c0.9,1,2.1,1.6,3.1,1.6c1.2,0,2.1-0.5,3-1.7c0.2-0.2,0.5-0.2,0.7,0
			c0.9,1.2,1.9,1.7,3,1.7c1.1,0,2.2-0.6,3.1-1.6c0.1-0.1,0.2-0.1,0.4-0.1c0.1,0,0.3,0.1,0.3,0.2c0.6,0.8,3,3.8,3.1,3.8
			c0.1,0.1,0.1,0.2,0.1,0.3c0,0.1-0.1,0.2-0.2,0.3c0,0-1.5,1.3-1.5,3.3c0,0.9,0.4,1.6,0.9,2.4c0.5,0.9,1.1,2,1.1,3.5
			c0,2.6-2.1,4.5-5.6,5.1c-2.6,0.5-4.8,2.1-4.8,2.1C53.6,241.7,53.5,241.8,53.4,241.8z M44,224.9c0.5,0.6,1.6,1.8,1.6,3.6
			c0,1.2-0.5,2-1,2.9c-0.5,0.9-1,1.7-1,3c0,3.1,3.7,4,4.9,4.2c2.3,0.4,4.2,1.6,4.9,2.1c0.7-0.5,2.6-1.7,4.9-2.1
			c1.1-0.2,4.9-1.1,4.9-4.2c0-1.3-0.5-2.2-1-3c-0.5-0.8-1-1.7-1-2.9c0-1.8,1-3.1,1.6-3.6c-0.6-0.7-1.8-2.3-2.5-3.1
			c-1,1-2.2,1.5-3.4,1.5c-1.3,0-2.4-0.5-3.4-1.6c-1,1.1-2.1,1.6-3.4,1.6c-1.2,0-2.4-0.5-3.4-1.5C45.9,222.6,44.6,224.2,44,224.9z"/>
	</g>
</g>
</svg>
