<svg xmlns="http://www.w3.org/2000/svg" viewBox="0 0 856.51 179.51"><defs><style>.cls-1{fill:#f04e23;}.cls-2,.cls-3{fill:#fff;}.cls-3{stroke:#4a5666;stroke-miterlimit:10;stroke-width:5.84px;}.cls-4{opacity:0.1;}.cls-5{fill:#4a5666;}.cls-6{fill:#007dab;}</style></defs><title>steps</title><g id="Layer_2" data-name="Layer 2"><g id="Layer_1-2" data-name="Layer 1"><polygon class="cls-1" points="627.19 130.6 627.19 42.8 779.76 42.8 812.15 86.7 779.76 130.6 627.19 130.6"/><path class="cls-2" d="M779.06,44.2l31.35,42.5-31.35,42.5H628.59v-85H779.06m1.41-2.8H625.79V132H780.47l.84-1.14,31.35-42.5,1.23-1.66L812.66,85l-31.35-42.5-.84-1.14Z"/><polygon class="cls-1" points="404.19 130.6 404.19 42.8 636.81 42.8 669.2 86.7 636.81 130.6 404.19 130.6"/><path class="cls-2" d="M636.1,44.2l31.36,42.5L636.1,129.2H405.59v-85H636.1m1.42-2.8H402.79V132H637.52l.84-1.14,31.35-42.5,1.23-1.66L669.71,85l-31.35-42.5-.84-1.14Z"/><polygon class="cls-1" points="178.14 130.6 178.14 42.8 410.76 42.8 443.14 86.7 410.76 130.6 178.14 130.6"/><path class="cls-2" d="M410.05,44.2l31.36,42.5-31.36,42.5H179.54v-85H410.05m1.42-2.8H176.74V132H411.47l.83-1.14,31.36-42.5,1.22-1.66L443.66,85,412.3,42.54l-.83-1.14Z"/><polygon class="cls-1" points="82.55 130.6 82.55 42.8 192.51 42.8 224.9 86.7 192.51 130.6 82.55 130.6"/><path class="cls-2" d="M191.81,44.2l31.35,42.5-31.35,42.5H84v-85H191.81m1.41-2.8H81.15V132H193.22l.84-1.14,31.35-42.5,1.23-1.66L225.41,85l-31.35-42.5-.84-1.14Z"/><circle class="cls-3" cx="89.76" cy="89.76" r="86.84"/><circle class="cls-3" cx="318.76" cy="89.76" r="86.84"/><circle class="cls-3" cx="547.76" cy="89.76" r="86.84"/><circle class="cls-3" cx="766.76" cy="89.76" r="86.84"/><g class="cls-4"><path class="cls-5" d="M101.82,136.2H80.7V78.37l.2-9.5.35-10.39q-5.27,5.27-7.32,6.9L62.45,74.61,52.26,61.89l32.2-25.63h17.36Z"/></g><g class="cls-4"><path class="cls-5" d="M354.27,136.2H284.4V121.5l25.09-25.36q11.14-11.42,14.56-15.82A35.22,35.22,0,0,0,329,72.15a20.88,20.88,0,0,0,1.5-7.79q0-6-3.32-9a12.85,12.85,0,0,0-8.85-2.94A25.45,25.45,0,0,0,307,55.13a57.87,57.87,0,0,0-11.41,7.58l-11.49-13.6a75.38,75.38,0,0,1,12.24-8.89,44.79,44.79,0,0,1,10.59-4,54,54,0,0,1,12.86-1.41,38,38,0,0,1,16.54,3.42,26.42,26.42,0,0,1,11.14,9.57,25.46,25.46,0,0,1,4,14.08,34.46,34.46,0,0,1-2.43,13,50.06,50.06,0,0,1-7.52,12.41q-5.1,6.34-17.95,18.11l-12.85,12.1v1h43.55Z"/></g><g class="cls-4"><path class="cls-5" d="M579.37,58.61a23.51,23.51,0,0,1-5.67,15.93q-5.69,6.57-15.93,9V84q12.11,1.52,18.32,7.35t6.22,15.76q0,14.43-10.46,22.46t-29.87,8q-16.28,0-28.85-5.4v-18A65.22,65.22,0,0,0,525.91,119a53.82,53.82,0,0,0,13.81,1.85q10.47,0,15.45-3.55t5-11.42q0-7-5.74-10T536.1,92.93h-7.59V76.73h7.73q11.61,0,17-3t5.37-10.43q0-11.34-14.22-11.35a32.6,32.6,0,0,0-10,1.64A49.17,49.17,0,0,0,523,59.23l-9.77-14.56q13.66-9.84,32.6-9.85,15.52,0,24.51,6.29A20.19,20.19,0,0,1,579.37,58.61Z"/></g><g class="cls-4"><path class="cls-5" d="M804.52,115.49h-12V136.2H771.85V115.49H729.19v-14.7L773,36.26h19.48V99.08h12ZM771.85,99.08v-17q0-4.25.34-12.31c.23-5.37.41-8.5.55-9.36h-.55a76.7,76.7,0,0,1-6.08,10.94L747.79,99.08Z"/></g><path class="cls-6" d="M46.11,89.93v6H42.78V80.25h4.57a7.8,7.8,0,0,1,4.74,1.17,4.62,4.62,0,0,1,.77,6,5,5,0,0,1-2.16,1.7q3.55,5.3,4.62,6.84H51.63l-3.75-6Zm0-2.7h1.07a4.11,4.11,0,0,0,2.33-.53A1.88,1.88,0,0,0,50.26,85a1.7,1.7,0,0,0-.76-1.58A4.63,4.63,0,0,0,47.12,83h-1Z"/><path class="cls-6" d="M65.8,96h-9V80.25h9V83H60.08v3.45H65.4v2.73H60.08v4H65.8Z"/><path class="cls-6" d="M74.48,87.14h6.23v8.14a17.25,17.25,0,0,1-2.85.69,17.55,17.55,0,0,1-2.73.2,6.89,6.89,0,0,1-5.43-2.09,8.68,8.68,0,0,1-1.88-6A7.89,7.89,0,0,1,70,82.16,8.25,8.25,0,0,1,76,80a11.55,11.55,0,0,1,4.66,1l-1.1,2.66A8,8,0,0,0,76,82.8a4.41,4.41,0,0,0-3.46,1.45,5.62,5.62,0,0,0-1.3,3.9,6.23,6.23,0,0,0,1,3.9,3.62,3.62,0,0,0,3,1.35,11,11,0,0,0,2.12-.21V89.91h-3Z"/><path class="cls-6" d="M83.9,96V80.25h3.33V96Z"/><path class="cls-6" d="M99.91,91.6A4.06,4.06,0,0,1,98.38,95a6.65,6.65,0,0,1-4.26,1.22,10,10,0,0,1-4.45-.94v-3.1a17.33,17.33,0,0,0,2.69,1,7.67,7.67,0,0,0,2,.29A2.91,2.91,0,0,0,96.06,93a1.41,1.41,0,0,0,.58-1.24,1.38,1.38,0,0,0-.26-.82,3,3,0,0,0-.75-.7,22.5,22.5,0,0,0-2-1.06,9.44,9.44,0,0,1-2.16-1.3,4.88,4.88,0,0,1-1.15-1.45,4.53,4.53,0,0,1,1-5.21A5.93,5.93,0,0,1,95.17,80a9.3,9.3,0,0,1,2.33.29,15.44,15.44,0,0,1,2.33.81l-1.07,2.59A16.94,16.94,0,0,0,96.68,83a7,7,0,0,0-1.62-.2,2.17,2.17,0,0,0-1.45.44,1.44,1.44,0,0,0-.5,1.15,1.41,1.41,0,0,0,.2.77,2.18,2.18,0,0,0,.65.63,19.28,19.28,0,0,0,2.11,1.1,8.39,8.39,0,0,1,3,2.11A4.16,4.16,0,0,1,99.91,91.6Z"/><path class="cls-6" d="M108.26,96h-3.33V83h-4.26V80.25h11.86V83h-4.27Z"/><path class="cls-6" d="M123.44,96h-9V80.25h9V83h-5.72v3.45H123v2.73h-5.32v4h5.72Z"/><path class="cls-6" d="M129.49,89.93v6h-3.33V80.25h4.58a7.84,7.84,0,0,1,4.74,1.17,4.65,4.65,0,0,1,.77,6,5.09,5.09,0,0,1-2.16,1.7q3.56,5.3,4.62,6.84H135l-3.75-6Zm0-2.7h1.08a4.11,4.11,0,0,0,2.33-.53,1.88,1.88,0,0,0,.75-1.66,1.69,1.69,0,0,0-.77-1.58A4.58,4.58,0,0,0,130.5,83h-1Z"/><path class="cls-6" d="M250.44,96l-1.14-3.74h-5.73L242.43,96h-3.58l5.54-15.77h4.07L254,96Zm-1.94-6.53-1.78-5.75c-.13-.44-.22-.79-.28-1.05-.24.91-.91,3.18-2,6.8Z"/><path class="cls-6" d="M268.23,80.25V90.42a5.86,5.86,0,0,1-.78,3,5,5,0,0,1-2.25,2,8.12,8.12,0,0,1-3.48.69,6.63,6.63,0,0,1-4.7-1.55,5.49,5.49,0,0,1-1.68-4.25V80.25h3.32v9.62a4,4,0,0,0,.73,2.66,3,3,0,0,0,2.42.85,3,3,0,0,0,2.37-.85,4.07,4.07,0,0,0,.73-2.68v-9.6Z"/><path class="cls-6" d="M277.59,96h-3.33V83H270V80.25h11.86V83h-4.26Z"/><path class="cls-6" d="M296.59,96h-3.32V89.18h-6.22V96h-3.33V80.25h3.33v6.16h6.22V80.25h3.32Z"/><path class="cls-6" d="M309.05,96H300V80.25h9.05V83h-5.72v3.45h5.32v2.73h-5.32v4h5.72Z"/><path class="cls-6" d="M325.71,96h-4.24l-6.83-11.88h-.09c.13,2.1.2,3.59.2,4.49V96h-3V80.25H316L322.8,92h.07c-.11-2-.16-3.49-.16-4.33V80.25h3Z"/><path class="cls-6" d="M335.17,96h-3.33V83h-4.27V80.25h11.86V83h-4.26Z"/><path class="cls-6" d="M341.3,96V80.25h3.33V96Z"/><path class="cls-6" d="M354.7,82.8a3.4,3.4,0,0,0-2.91,1.41,6.64,6.64,0,0,0-1,3.94c0,3.5,1.32,5.25,3.94,5.25a12.45,12.45,0,0,0,4-.82v2.79a11.08,11.08,0,0,1-4.32.8,6.6,6.6,0,0,1-5.24-2.07,8.82,8.82,0,0,1-1.82-6,9.64,9.64,0,0,1,.9-4.29A6.4,6.4,0,0,1,350.79,81a7.62,7.62,0,0,1,3.91-1,10.66,10.66,0,0,1,4.6,1.1l-1.07,2.71a18,18,0,0,0-1.78-.73A5.17,5.17,0,0,0,354.7,82.8Z"/><path class="cls-6" d="M371.12,96,370,92.22h-5.73L363.11,96h-3.58l5.54-15.77h4.07L374.7,96Zm-1.94-6.53-1.78-5.75c-.13-.44-.22-.79-.28-1.05-.24.91-.91,3.18-2,6.8Z"/><path class="cls-6" d="M382.19,96h-3.33V83h-4.27V80.25h11.86V83h-4.26Z"/><path class="cls-6" d="M397.37,96h-9.05V80.25h9.05V83h-5.72v3.45H397v2.73h-5.32v4h5.72Z"/><path class="cls-6" d="M515.31,96V80.25h3.33v13H525V96Z"/><path class="cls-6" d="M541.45,88.08a8.54,8.54,0,0,1-1.94,6,8.39,8.39,0,0,1-11.08,0,8.56,8.56,0,0,1-1.94-6,8.46,8.46,0,0,1,1.94-6A7.3,7.3,0,0,1,534,80a7.16,7.16,0,0,1,5.54,2.08A8.54,8.54,0,0,1,541.45,88.08Zm-11.46,0a6.62,6.62,0,0,0,1,4,3.51,3.51,0,0,0,3,1.33c2.66,0,4-1.76,4-5.3s-1.33-5.3-4-5.3a3.52,3.52,0,0,0-3,1.34A6.53,6.53,0,0,0,530,88.08Z"/><path class="cls-6" d="M550.11,87.14h6.23v8.14a17.25,17.25,0,0,1-2.85.69,17.55,17.55,0,0,1-2.73.2,6.89,6.89,0,0,1-5.43-2.09,8.68,8.68,0,0,1-1.88-6,7.89,7.89,0,0,1,2.18-5.92,8.25,8.25,0,0,1,6-2.13,11.55,11.55,0,0,1,4.66,1l-1.1,2.66a8,8,0,0,0-3.58-.86,4.41,4.41,0,0,0-3.46,1.45,5.62,5.62,0,0,0-1.3,3.9,6.23,6.23,0,0,0,1,3.9,3.62,3.62,0,0,0,3,1.35,11,11,0,0,0,2.12-.21V89.91h-3Z"/><path class="cls-6" d="M559.53,96V80.25h3.33V96Z"/><path class="cls-6" d="M580.2,96H576l-6.84-11.88H569c.13,2.1.2,3.59.2,4.49V96h-3V80.25h4.2L577.29,92h.07c-.11-2-.16-3.49-.16-4.33V80.25h3Z"/><path class="cls-6" d="M720.67,85.15A4.81,4.81,0,0,1,719.09,89a6.76,6.76,0,0,1-4.51,1.34h-1.43V96h-3.33V80.25h5a6.66,6.66,0,0,1,4.34,1.23A4.5,4.5,0,0,1,720.67,85.15Zm-7.52,2.49h1.1a3.64,3.64,0,0,0,2.29-.6,2.14,2.14,0,0,0,.77-1.77,2.2,2.2,0,0,0-.64-1.73,3,3,0,0,0-2-.56h-1.51Z"/><path class="cls-6" d="M726.41,89.93v6h-3.33V80.25h4.58a7.84,7.84,0,0,1,4.74,1.17,4.65,4.65,0,0,1,.77,6,5.09,5.09,0,0,1-2.16,1.7q3.56,5.3,4.62,6.84h-3.69l-3.75-6Zm0-2.7h1.08a4.11,4.11,0,0,0,2.33-.53,1.88,1.88,0,0,0,.75-1.66,1.69,1.69,0,0,0-.77-1.58,4.58,4.58,0,0,0-2.38-.48h-1Z"/><path class="cls-6" d="M751.31,88.08a8.54,8.54,0,0,1-1.93,6,8.4,8.4,0,0,1-11.09,0,8.56,8.56,0,0,1-1.93-6,8.46,8.46,0,0,1,1.94-6A7.28,7.28,0,0,1,743.86,80a7.16,7.16,0,0,1,5.54,2.08A8.58,8.58,0,0,1,751.31,88.08Zm-11.46,0a6.55,6.55,0,0,0,1,4,3.49,3.49,0,0,0,3,1.33c2.65,0,4-1.76,4-5.3s-1.32-5.3-4-5.3a3.49,3.49,0,0,0-3,1.34A6.53,6.53,0,0,0,739.85,88.08Z"/><path class="cls-6" d="M763,80.25h3.36L761,96h-3.63L752,80.25h3.36l3,9.35c.16.55.33,1.19.51,1.93s.28,1.24.33,1.53a25.49,25.49,0,0,1,.8-3.46Z"/><path class="cls-6" d="M767.77,96V80.25h3.33V96Z"/><path class="cls-6" d="M783.77,91.6A4.06,4.06,0,0,1,782.24,95,6.63,6.63,0,0,1,778,96.17a10,10,0,0,1-4.45-.94v-3.1a17.33,17.33,0,0,0,2.69,1,7.74,7.74,0,0,0,2,.29,2.85,2.85,0,0,0,1.68-.42,1.41,1.41,0,0,0,.58-1.24,1.37,1.37,0,0,0-.25-.82,3.27,3.27,0,0,0-.76-.7,21.15,21.15,0,0,0-2-1.06,9.44,9.44,0,0,1-2.16-1.3,4.88,4.88,0,0,1-1.15-1.45,4.22,4.22,0,0,1-.43-1.93,4.08,4.08,0,0,1,1.42-3.28A5.88,5.88,0,0,1,779,80a9.38,9.38,0,0,1,2.34.29,15.73,15.73,0,0,1,2.32.81l-1.07,2.59a16.94,16.94,0,0,0-2.08-.72,7,7,0,0,0-1.62-.2,2.17,2.17,0,0,0-1.45.44,1.47,1.47,0,0,0-.5,1.15,1.5,1.5,0,0,0,.2.77,2.31,2.31,0,0,0,.65.63,19.28,19.28,0,0,0,2.11,1.1A8.39,8.39,0,0,1,783,89,4.1,4.1,0,0,1,783.77,91.6Z"/><path class="cls-6" d="M786.07,96V80.25h3.33V96Z"/><path class="cls-6" d="M807.05,88.08a8.54,8.54,0,0,1-1.93,6,8.4,8.4,0,0,1-11.09,0,8.6,8.6,0,0,1-1.93-6,8.46,8.46,0,0,1,1.94-6A7.28,7.28,0,0,1,799.6,80a7.16,7.16,0,0,1,5.54,2.08A8.58,8.58,0,0,1,807.05,88.08Zm-11.46,0a6.62,6.62,0,0,0,1,4,3.49,3.49,0,0,0,3,1.33c2.66,0,4-1.76,4-5.3s-1.32-5.3-4-5.3a3.51,3.51,0,0,0-3,1.34A6.53,6.53,0,0,0,795.59,88.08Z"/><path class="cls-6" d="M823.69,96h-4.23l-6.83-11.88h-.1c.14,2.1.2,3.59.2,4.49V96h-3V80.25H814L820.78,92h.08c-.11-2-.17-3.49-.17-4.33V80.25h3Z"/></g></g></svg>