<svg xmlns="http://www.w3.org/2000/svg" viewBox="0 0 1122 515.04"><defs><style>.cls-1,.cls-15,.cls-16,.cls-18,.cls-19,.cls-2,.cls-20,.cls-22,.cls-23,.cls-27,.cls-28,.cls-29,.cls-30,.cls-4,.cls-5,.cls-6,.cls-7,.cls-8,.cls-9{fill:none;}.cls-1{stroke:#f04e23;stroke-width:5.84px;}.cls-1,.cls-14,.cls-15,.cls-16,.cls-19,.cls-2,.cls-20,.cls-27,.cls-28,.cls-29,.cls-30,.cls-4,.cls-5,.cls-6,.cls-7,.cls-8,.cls-9{stroke-miterlimit:10;}.cls-15,.cls-16,.cls-19,.cls-2,.cls-20,.cls-27,.cls-28,.cls-29,.cls-4,.cls-5,.cls-6,.cls-7,.cls-8,.cls-9{stroke:#4a5666;}.cls-2{stroke-width:5.84px;}.cls-13,.cls-3{fill:#fff;}.cls-16,.cls-17,.cls-18,.cls-20,.cls-21,.cls-22,.cls-27,.cls-28,.cls-29,.cls-30,.cls-4,.cls-6,.cls-8{stroke-linecap:round;}.cls-4,.cls-5{stroke-width:3.84px;}.cls-27,.cls-29,.cls-4,.cls-6,.cls-8{opacity:0.15;isolation:isolate;}.cls-6,.cls-7{stroke-width:8.42px;}.cls-8,.cls-9{stroke-width:4.12px;}.cls-10{fill:#f05024;}.cls-11{fill:#f04f23;}.cls-12{opacity:0.3;}.cls-13{opacity:0.9;}.cls-14,.cls-25{fill:#4a5666;}.cls-14,.cls-18,.cls-22{stroke:#fff;}.cls-14,.cls-23{stroke-width:4px;}.cls-15,.cls-16{stroke-width:2.5px;}.cls-17,.cls-21{fill:#f05226;stroke:#f05125;}.cls-17,.cls-18,.cls-21,.cls-22,.cls-23{stroke-linejoin:round;}.cls-17{stroke-width:1.27px;}.cls-18{stroke-width:1.84px;}.cls-19,.cls-20{stroke-width:2.62px;}.cls-21{stroke-width:1.33px;}.cls-22{stroke-width:1.93px;}.cls-23{stroke:#798899;stroke-dasharray:3 4.11;}.cls-24{fill:#798899;}.cls-26{fill:#f04e23;}.cls-27,.cls-28,.cls-30{stroke-width:5.1px;}.cls-29{stroke-width:2.54px;}.cls-30{stroke:#989898;}</style></defs><title>avi-managed </title><g id="Layer_2" data-name="Layer 2"><g id="Layer_1-2" data-name="Layer 1"><rect class="cls-1" x="2.92" y="2.92" width="550" height="509.2"/><rect class="cls-2" x="569.09" y="2.92" width="550" height="509.2"/><rect class="cls-3" x="542.51" y="125.23" width="33.99" height="12.47"/><rect class="cls-3" x="542.51" y="198.75" width="33.99" height="12.47"/><rect class="cls-3" x="542.51" y="341.7" width="33.99" height="12.47"/><g id="Layer_2-2" data-name="Layer 2"><g id="Layer_1-2-2" data-name="Layer 1-2"><path class="cls-3" d="M791.58,170.72a17.67,17.67,0,0,1-17.88-16.13,17.27,17.27,0,0,1,16.09-18.39c.4,0,.79,0,1.19,0v1.92A51.85,51.85,0,0,1,891,119c.57,0,1.15-.09,1.72-.09a34.56,34.56,0,0,1,34.56,34.56,33.61,33.61,0,0,1-1.15,8.81A11.51,11.51,0,0,1,915,170.72Z"/><path class="cls-4" d="M798.7,142.79a13.44,13.44,0,1,0-8.2,24.09H920.85a30.72,30.72,0,0,0-44.31-39.23"/><path class="cls-5" d="M791.58,170.72a17.67,17.67,0,0,1-17.88-16.13,17.27,17.27,0,0,1,16.09-18.39c.4,0,.79,0,1.19,0v1.92A51.85,51.85,0,0,1,891,119c.57,0,1.15-.09,1.72-.09a34.56,34.56,0,0,1,34.56,34.56,33.61,33.61,0,0,1-1.15,8.81A11.51,11.51,0,0,1,915,170.72Z"/><line class="cls-4" x1="945.76" y1="188" x2="805.02" y2="188"/><line class="cls-4" x1="809.43" y1="195.68" x2="781.98" y2="195.68"/></g></g><g id="Layer_2-3" data-name="Layer 2"><g id="Layer_1-2-3" data-name="Layer 1-2"><path class="cls-3" d="M133.6,360.54a38.71,38.71,0,0,1-39.18-35.35,37.86,37.86,0,0,1,35.26-40.31q1.31-.09,2.61-.09V289a113.62,113.62,0,0,1,219.25-41.87c1.26,0,2.53-.21,3.79-.21a75.75,75.75,0,0,1,75.75,75.75A74.93,74.93,0,0,1,428.55,342a25.24,25.24,0,0,1-24.36,18.56Z"/><path class="cls-6" d="M149.2,299.32a29.46,29.46,0,1,0-18,52.8h285.7a67.34,67.34,0,0,0-97.12-86"/><path class="cls-7" d="M133.6,360.54a38.71,38.71,0,0,1-39.18-35.35,37.86,37.86,0,0,1,35.26-40.31q1.31-.09,2.61-.09V289a113.62,113.62,0,0,1,219.25-41.87c1.26,0,2.53-.21,3.79-.21a75.75,75.75,0,0,1,75.75,75.75A74.93,74.93,0,0,1,428.55,342a25.24,25.24,0,0,1-24.36,18.56Z"/><line class="cls-6" x1="471.52" y1="398.42" x2="163.05" y2="398.42"/><line class="cls-6" x1="172.73" y1="415.25" x2="112.55" y2="415.25"/></g></g><g id="Layer_2-4" data-name="Layer 2"><g id="Layer_1-2-4" data-name="Layer 1-2"><path class="cls-3" d="M688,240.13a18.93,18.93,0,0,1-19.15-17.29,18.5,18.5,0,0,1,17.24-19.71c.42,0,.85,0,1.28,0v2.06a55.56,55.56,0,0,1,107.21-20.47c.62,0,1.24-.11,1.85-.11a37.05,37.05,0,0,1,37.05,37.05,36.68,36.68,0,0,1-1.24,9.44,12.34,12.34,0,0,1-11.91,9.08Z"/><path class="cls-8" d="M695.6,210.19A14.4,14.4,0,1,0,686.81,236H826.52A32.93,32.93,0,0,0,779,194"/><path class="cls-9" d="M688,240.13a18.93,18.93,0,0,1-19.15-17.29,18.5,18.5,0,0,1,17.24-19.71c.42,0,.85,0,1.28,0v2.06a55.56,55.56,0,0,1,107.21-20.47c.62,0,1.24-.11,1.85-.11a37.05,37.05,0,0,1,37.05,37.05,36.68,36.68,0,0,1-1.24,9.44,12.34,12.34,0,0,1-11.91,9.08Z"/><line class="cls-8" x1="853.21" y1="258.65" x2="702.37" y2="258.65"/><line class="cls-8" x1="707.1" y1="266.88" x2="677.67" y2="266.88"/></g></g><path class="cls-10" d="M195.37,261.83v41.93a6.72,6.72,0,0,0,3.36,5.81l36.31,21a6.7,6.7,0,0,0,6.71,0l36.31-21a6.71,6.71,0,0,0,3.35-5.81V261.83a6.69,6.69,0,0,0-3.35-5.81l-36.31-21a6.7,6.7,0,0,0-6.71,0l-36.31,21A6.7,6.7,0,0,0,195.37,261.83Z"/><path class="cls-11" d="M238.39,332.37a7,7,0,0,1-3.48-.93L198,310.13a7,7,0,0,1-3.49-6V261.48a7,7,0,0,1,3.49-6l36.9-21.31a7,7,0,0,1,7,0l36.9,21.31a7,7,0,0,1,3.49,6V304.1a7,7,0,0,1-3.49,6l-36.9,21.31A7,7,0,0,1,238.39,332.37Zm0-97.46a5.25,5.25,0,0,0-2.63.71l-36.9,21.31a5.25,5.25,0,0,0-2.64,4.55V304.1a5.28,5.28,0,0,0,2.64,4.56l36.9,21.3a5.28,5.28,0,0,0,5.27,0l36.9-21.3a5.27,5.27,0,0,0,2.63-4.56V261.48a5.27,5.27,0,0,0-2.63-4.56L241,235.62A5.28,5.28,0,0,0,238.39,234.91Z"/><path class="cls-3" d="M238.39,316.63a5.45,5.45,0,0,1-4.53-2.43L230,308.43a3.73,3.73,0,0,0-3.85-1.6l-6.79,1.37a5.44,5.44,0,0,1-6.41-6.4l1.37-6.79a3.72,3.72,0,0,0-1.59-3.85L207,287.32a5.45,5.45,0,0,1,0-9.06l5.78-3.83a3.73,3.73,0,0,0,1.59-3.85l-1.37-6.8a5.44,5.44,0,0,1,6.41-6.4l6.79,1.37a3.73,3.73,0,0,0,3.85-1.6l3.83-5.77a5.44,5.44,0,0,1,9.06,0l3.84,5.77a3.73,3.73,0,0,0,3.85,1.6l6.79-1.37a5.44,5.44,0,0,1,6.41,6.4l-1.37,6.8a3.73,3.73,0,0,0,1.59,3.85l5.77,3.83a5.44,5.44,0,0,1,0,9.06L264,291.16a3.72,3.72,0,0,0-1.59,3.85l1.37,6.79a5.44,5.44,0,0,1-6.41,6.4l-6.79-1.37a3.73,3.73,0,0,0-3.85,1.6l-3.84,5.77A5.42,5.42,0,0,1,238.39,316.63Zm-11.46-11.57a5.42,5.42,0,0,1,4.52,2.43l3.83,5.77a3.74,3.74,0,0,0,6.23,0l3.83-5.77a5.42,5.42,0,0,1,5.61-2.32l6.79,1.37a3.73,3.73,0,0,0,4.4-4.4l-1.37-6.8a5.41,5.41,0,0,1,2.32-5.6l5.77-3.84a3.73,3.73,0,0,0,0-6.22l-5.77-3.84a5.4,5.4,0,0,1-2.32-5.6l1.37-6.79a3.73,3.73,0,0,0-4.4-4.4L251,260.42a5.45,5.45,0,0,1-5.61-2.32l-3.83-5.78a3.74,3.74,0,0,0-6.23,0l-3.83,5.78a5.42,5.42,0,0,1-5.61,2.32l-6.79-1.37a3.73,3.73,0,0,0-4.4,4.4l1.37,6.79a5.4,5.4,0,0,1-2.32,5.6l-5.77,3.84a3.73,3.73,0,0,0,0,6.22l5.77,3.84a5.41,5.41,0,0,1,2.32,5.6l-1.37,6.8a3.73,3.73,0,0,0,4.4,4.4l6.79-1.37A5.1,5.1,0,0,1,226.93,305.06Z"/><path class="cls-3" d="M238.39,292.82a10,10,0,1,1,10-10A10,10,0,0,1,238.39,292.82Zm0-18.35a8.32,8.32,0,1,0,8.33,8.32A8.33,8.33,0,0,0,238.39,274.47Z"/><g class="cls-12"><path class="cls-3" d="M238.39,294.34a11.55,11.55,0,0,1,0-23.1.85.85,0,1,1,0,1.7,9.85,9.85,0,0,0,0,19.7.85.85,0,1,1,0,1.7Z"/></g><path class="cls-3" d="M238.39,302a19.2,19.2,0,1,1,19.2-19.2A19.22,19.22,0,0,1,238.39,302Zm0-36.69a17.5,17.5,0,1,0,17.5,17.49A17.51,17.51,0,0,0,238.39,265.3Z"/><g class="cls-12"><path class="cls-3" d="M238.39,300.46a.85.85,0,0,1,0-1.7,16,16,0,1,0,0-31.93.86.86,0,0,1-.85-.86.86.86,0,0,1,.85-.85,17.67,17.67,0,1,1,0,35.34Z"/></g><rect class="cls-13" x="867.43" y="342.06" width="109" height="45.75"/><g id="Layer_2-5" data-name="Layer 2"><g id="Layer_1-2-5" data-name="Layer 1-2"><path class="cls-14" d="M949.67,369a4.93,4.93,0,1,1,4.92-4.93A4.93,4.93,0,0,1,949.67,369Zm0-7.36a2.43,2.43,0,1,0,2.42,2.43A2.43,2.43,0,0,0,949.67,361.68Z"/><path class="cls-14" d="M894.18,371.79a7.68,7.68,0,1,1,7.68-7.68A7.69,7.69,0,0,1,894.18,371.79Zm0-12.86a5.18,5.18,0,1,0,5.18,5.18A5.19,5.19,0,0,0,894.18,358.93Z"/><path class="cls-14" d="M909.48,365.36h-8.86a1.25,1.25,0,0,1,0-2.5h8.86a1.25,1.25,0,0,1,0,2.5Z"/><path class="cls-14" d="M945.66,365.36h-8.87a1.25,1.25,0,0,1,0-2.5h8.87a1.25,1.25,0,0,1,0,2.5Z"/><path class="cls-14" d="M941.13,350.67a4.93,4.93,0,1,1,4.93-4.93A4.93,4.93,0,0,1,941.13,350.67Zm0-7.36a2.43,2.43,0,1,0,2.43,2.43A2.43,2.43,0,0,0,941.13,343.31Z"/><path class="cls-14" d="M932.61,355.51a1.25,1.25,0,0,1-.88-2.13l5.69-5.7a1.27,1.27,0,0,1,1.77,0,1.25,1.25,0,0,1,0,1.77l-5.69,5.7A1.28,1.28,0,0,1,932.61,355.51Z"/><path class="cls-14" d="M941.13,387.42a4.93,4.93,0,1,1,4.93-4.93A4.93,4.93,0,0,1,941.13,387.42Zm0-7.36a2.43,2.43,0,1,0,2.43,2.43A2.43,2.43,0,0,0,941.13,380.06Z"/><path class="cls-14" d="M938.31,380.9a1.25,1.25,0,0,1-.89-.37l-5.69-5.69a1.25,1.25,0,0,1,1.77-1.77l5.69,5.7a1.24,1.24,0,0,1,0,1.76A1.21,1.21,0,0,1,938.31,380.9Z"/><circle class="cls-15" cx="949.67" cy="364.11" r="3.68"/><circle class="cls-15" cx="894.18" cy="364.11" r="6.43"/><line class="cls-16" x1="909.48" y1="364.11" x2="900.62" y2="364.11"/><line class="cls-16" x1="945.66" y1="364.11" x2="936.79" y2="364.11"/><circle class="cls-15" cx="941.13" cy="345.74" r="3.68"/><line class="cls-16" x1="938.31" y1="348.57" x2="932.61" y2="354.26"/><circle class="cls-15" cx="941.13" cy="382.49" r="3.68"/><line class="cls-16" x1="938.31" y1="379.65" x2="932.61" y2="373.96"/><path class="cls-17" d="M909.89,358.58v11.05a3.77,3.77,0,0,0,1.87,3.2l9.57,5.52a3.7,3.7,0,0,0,3.67,0l9.58-5.52a3.77,3.77,0,0,0,1.87-3.2V358.58a3.68,3.68,0,0,0-1.87-3.18l-9.6-5.53a3.67,3.67,0,0,0-3.68,0l-9.57,5.56A3.67,3.67,0,0,0,909.89,358.58Z"/><polyline class="cls-18" points="918.54 368.71 923.14 359.52 927.74 368.71"/></g></g><g id="Layer_2-6" data-name="Layer 2"><g id="Layer_1-2-6" data-name="Layer 1-2"><circle class="cls-15" cx="867.95" cy="130.81" r="3.68"/><circle class="cls-15" cx="812.47" cy="130.81" r="6.43"/><line class="cls-16" x1="827.77" y1="130.81" x2="818.91" y2="130.81"/><line class="cls-16" x1="863.95" y1="130.81" x2="855.08" y2="130.81"/><circle class="cls-15" cx="859.42" cy="112.44" r="3.68"/><line class="cls-16" x1="856.59" y1="115.26" x2="850.9" y2="120.96"/><circle class="cls-15" cx="859.42" cy="149.19" r="3.68"/><line class="cls-16" x1="856.59" y1="146.35" x2="850.9" y2="140.65"/><path class="cls-17" d="M828.18,125.28v11.05a3.71,3.71,0,0,0,1.87,3.19l9.56,5.53a3.72,3.72,0,0,0,3.68,0l9.58-5.53a3.72,3.72,0,0,0,1.86-3.19V125.28a3.65,3.65,0,0,0-1.86-3.18l-9.61-5.53a3.67,3.67,0,0,0-3.68,0L830,122.13A3.67,3.67,0,0,0,828.18,125.28Z"/><polyline class="cls-18" points="836.83 135.41 841.42 126.21 846.02 135.41"/></g></g><g id="Layer_2-7" data-name="Layer 2"><g id="Layer_1-2-7" data-name="Layer 1-2"><circle class="cls-19" cx="771.82" cy="204.98" r="3.86"/><circle class="cls-19" cx="713.64" cy="204.98" r="6.74"/><line class="cls-20" x1="729.68" y1="204.98" x2="720.39" y2="204.98"/><line class="cls-20" x1="767.62" y1="204.98" x2="758.32" y2="204.98"/><circle class="cls-19" cx="762.87" cy="185.72" r="3.86"/><line class="cls-20" x1="759.9" y1="188.68" x2="753.93" y2="194.65"/><circle class="cls-19" cx="762.87" cy="224.25" r="3.86"/><line class="cls-20" x1="759.9" y1="221.27" x2="753.93" y2="215.3"/><path class="cls-21" d="M730.11,199.18v11.59a3.93,3.93,0,0,0,2,3.35l10,5.79a3.91,3.91,0,0,0,3.86,0l10-5.79a3.93,3.93,0,0,0,2-3.35V199.18a3.86,3.86,0,0,0-2-3.33l-10.07-5.8a3.86,3.86,0,0,0-3.86,0l-10,5.83A3.85,3.85,0,0,0,730.11,199.18Z"/><polyline class="cls-22" points="739.18 209.8 744 200.16 748.83 209.8"/></g></g><polyline class="cls-23" points="297.1 281.53 515.06 281.53 515.06 347.9 856.66 347.9"/><polygon class="cls-24" points="300.27 286.18 282.93 281.53 300.27 276.88 300.27 286.18"/><polygon class="cls-24" points="853.49 352.55 870.84 347.9 853.49 343.25 853.49 352.55"/><polyline class="cls-23" points="515.06 279.88 515.06 131.46 789.81 131.46"/><polygon class="cls-24" points="786.64 136.11 803.98 131.46 786.64 126.81 786.64 136.11"/><line class="cls-23" x1="515.06" y1="205.67" x2="688.19" y2="205.67"/><polygon class="cls-24" points="685.02 210.32 702.37 205.67 685.02 201.03 685.02 210.32"/><path class="cls-25" d="M795.92,231.1l-.67-2.21h-3.38l-.68,2.21h-2.12l3.28-9.31h2.41L798,231.1Zm-1.14-3.86-1-3.39c-.08-.26-.13-.47-.17-.62-.14.54-.54,1.88-1.2,4Z"/><path class="cls-25" d="M808.9,231.1h-2.24l-1.26-4.87c0-.17-.12-.53-.23-1.08s-.18-.91-.2-1.09c0,.23-.09.59-.19,1.1s-.18.87-.23,1.08l-1.25,4.86h-2.24l-2.37-9.28h1.94l1.19,5.07q.3,1.4.45,2.43c0-.24.08-.61.17-1.12a12,12,0,0,1,.26-1.18l1.35-5.2h1.86l1.35,5.2c.06.24.14.59.23,1.07s.15.89.2,1.23c0-.33.11-.74.2-1.23s.18-.9.26-1.2l1.18-5.07h1.93Z"/><path class="cls-25" d="M818.56,228.53a2.4,2.4,0,0,1-.91,2,3.93,3.93,0,0,1-2.51.72,6,6,0,0,1-2.63-.56v-1.83a10.18,10.18,0,0,0,1.59.59,4.47,4.47,0,0,0,1.19.18,1.72,1.72,0,0,0,1-.25.86.86,0,0,0,.35-.74.81.81,0,0,0-.15-.48,1.65,1.65,0,0,0-.45-.41,13.06,13.06,0,0,0-1.2-.63,5.55,5.55,0,0,1-1.28-.77,3,3,0,0,1-.68-.86,2.7,2.7,0,0,1,.58-3.08,3.54,3.54,0,0,1,2.31-.7,5.67,5.67,0,0,1,1.38.17,10.71,10.71,0,0,1,1.37.48l-.63,1.53a10,10,0,0,0-1.23-.42,3.93,3.93,0,0,0-.95-.12,1.23,1.23,0,0,0-.86.26.85.85,0,0,0-.3.68.84.84,0,0,0,.12.45,1.29,1.29,0,0,0,.39.38,13.2,13.2,0,0,0,1.24.65,5.08,5.08,0,0,1,1.79,1.24A2.46,2.46,0,0,1,818.56,228.53Z"/><path class="cls-26" d="M184.7,62.68l-1.86-6.12h-9.37l-1.86,6.12h-5.88l9.07-25.81h6.67l9.1,25.81ZM181.54,52q-2.59-8.31-2.91-9.41c-.22-.72-.37-1.3-.47-1.72q-.57,2.25-3.32,11.13Z"/><path class="cls-26" d="M197.16,62.68,189.67,43h5.61l3.8,11.2a20.44,20.44,0,0,1,.79,4h.1a18.05,18.05,0,0,1,.79-4L204.54,43h5.61l-7.49,19.66Z"/><path class="cls-26" d="M211.84,37.94q0-2.61,2.91-2.61c1.95,0,2.92.87,2.92,2.61a2.56,2.56,0,0,1-.73,2,3.06,3.06,0,0,1-2.19.69Q211.84,40.58,211.84,37.94Zm5.59,24.74h-5.37V43h5.37Z"/><path class="cls-26" d="M220.41,55.22V50.83h9.44v4.39Z"/><path class="cls-26" d="M244.14,62.68,238,42.51h-.16c.22,4.11.33,6.84.33,8.21v12h-4.86V37h7.41l6.09,19.65h.1L253.31,37h7.42v25.7h-5.08V50.51q0-.85,0-2c0-.75.09-2.75.23-6h-.15l-6.63,20.13Z"/><path class="cls-26" d="M278.36,62.68l-1-2.68h-.14a7.86,7.86,0,0,1-2.79,2.37,9,9,0,0,1-3.73.66,6,6,0,0,1-4.46-1.62,6.22,6.22,0,0,1-1.62-4.6,5.21,5.21,0,0,1,2.18-4.62q2.19-1.48,6.61-1.64l3.41-.11v-.86q0-3-3.06-3A14,14,0,0,0,268.18,48L266.4,44.4a15.94,15.94,0,0,1,7.53-1.78A9.35,9.35,0,0,1,280,44.34a6.37,6.37,0,0,1,2.11,5.24v13.1Zm-1.58-9.11-2.08.07a6.62,6.62,0,0,0-3.48.85,2.64,2.64,0,0,0-1.14,2.35c0,1.51.87,2.27,2.6,2.27a4.14,4.14,0,0,0,3-1.07,3.8,3.8,0,0,0,1.12-2.85Z"/><path class="cls-26" d="M304.86,62.68H299.5V51.2a5.46,5.46,0,0,0-.76-3.19,2.73,2.73,0,0,0-2.4-1.07,3.65,3.65,0,0,0-3.26,1.51,9.38,9.38,0,0,0-1,5v9.25h-5.36V43h4.1l.72,2.52h.3a5.65,5.65,0,0,1,2.47-2.16,8.49,8.49,0,0,1,3.57-.72,6.88,6.88,0,0,1,5.21,1.85,7.46,7.46,0,0,1,1.77,5.35Z"/><path class="cls-26" d="M322,62.68l-1-2.68h-.15A7.92,7.92,0,0,1,318,62.37a9,9,0,0,1-3.74.66,6,6,0,0,1-4.45-1.62,6.18,6.18,0,0,1-1.63-4.6,5.19,5.19,0,0,1,2.19-4.62q2.19-1.48,6.6-1.64l3.41-.11v-.86q0-3-3.06-3A14,14,0,0,0,311.78,48L310,44.4a15.9,15.9,0,0,1,7.52-1.78,9.38,9.38,0,0,1,6.07,1.72,6.4,6.4,0,0,1,2.11,5.24v13.1Zm-1.58-9.11-2.07.07a6.62,6.62,0,0,0-3.48.85,2.63,2.63,0,0,0-1.15,2.35c0,1.51.87,2.27,2.6,2.27a4.12,4.12,0,0,0,3-1.07,3.77,3.77,0,0,0,1.12-2.85Z"/><path class="cls-26" d="M347.43,43v2.73l-3.08.79a5.3,5.3,0,0,1,.85,3A6,6,0,0,1,343,54.42a9.54,9.54,0,0,1-6.13,1.77l-1,0-.79-.09a1.79,1.79,0,0,0-.83,1.41c0,.77,1,1.16,3,1.16h3.34A7.64,7.64,0,0,1,345.5,60a5,5,0,0,1,1.7,4.08,6.07,6.07,0,0,1-2.87,5.35c-1.92,1.26-4.67,1.9-8.26,1.9a11.37,11.37,0,0,1-6.28-1.44,4.53,4.53,0,0,1-2.17-4,4.18,4.18,0,0,1,1.11-3A6.23,6.23,0,0,1,332,61.2a3.57,3.57,0,0,1-1.44-1.15,2.82,2.82,0,0,1,0-3.57A7.58,7.58,0,0,1,332.45,55,5.24,5.24,0,0,1,330,52.87a6.59,6.59,0,0,1-.91-3.48,6.13,6.13,0,0,1,2.1-5,9,9,0,0,1,6-1.75,15,15,0,0,1,2,.14c.76.1,1.24.18,1.45.22ZM332.26,65.45a1.93,1.93,0,0,0,1.06,1.74,5.76,5.76,0,0,0,3,.64,10.69,10.69,0,0,0,4.52-.79,2.41,2.41,0,0,0,1.63-2.17,1.55,1.55,0,0,0-1-1.53,8,8,0,0,0-3-.42h-2.78a4.16,4.16,0,0,0-2.47.7A2.13,2.13,0,0,0,332.26,65.45Zm1.95-16a4,4,0,0,0,.73,2.53,2.66,2.66,0,0,0,2.22.93,2.61,2.61,0,0,0,2.22-.93,4.11,4.11,0,0,0,.7-2.53q0-3.55-2.92-3.55T334.21,49.46Z"/><path class="cls-26" d="M358.66,63a10.12,10.12,0,0,1-7.42-2.62q-2.67-2.62-2.67-7.42T351,45.35a8.77,8.77,0,0,1,6.83-2.69A8.65,8.65,0,0,1,364.35,45a9,9,0,0,1,2.32,6.55v2.61H354a5.16,5.16,0,0,0,1.35,3.56A4.76,4.76,0,0,0,358.9,59a15,15,0,0,0,3.36-.37,17,17,0,0,0,3.31-1.18v4.15a12.62,12.62,0,0,1-3,1A19.62,19.62,0,0,1,358.66,63Zm-.76-16.56a3.4,3.4,0,0,0-2.67,1.08,5.06,5.06,0,0,0-1.11,3.07h7.53a4.49,4.49,0,0,0-1-3.07A3.52,3.52,0,0,0,357.9,46.47Z"/><path class="cls-26" d="M376.36,63a6.38,6.38,0,0,1-5.44-2.69,12.35,12.35,0,0,1-2-7.45q0-4.85,2-7.54a6.53,6.53,0,0,1,5.55-2.69,6.41,6.41,0,0,1,5.66,2.88h.17a21.87,21.87,0,0,1-.4-3.92V35.33h5.38V62.68h-4.12l-1-2.55h-.23A6.15,6.15,0,0,1,376.36,63Zm1.88-4.27a3.62,3.62,0,0,0,3-1.2,7,7,0,0,0,1.05-4.06v-.58a8,8,0,0,0-1-4.53A3.61,3.61,0,0,0,378.15,47a3.14,3.14,0,0,0-2.79,1.53,8.11,8.11,0,0,0-1,4.42,7.69,7.69,0,0,0,1,4.35A3.29,3.29,0,0,0,378.24,58.76Z"/><path class="cls-25" d="M649.69,30.74a5.53,5.53,0,0,0-4.76,2.32,10.7,10.7,0,0,0-1.69,6.44q0,8.59,6.45,8.59a20.45,20.45,0,0,0,6.56-1.35v4.57a18.21,18.21,0,0,1-7.07,1.32c-3.74,0-6.6-1.14-8.58-3.4s-3-5.53-3-9.77a16,16,0,0,1,1.46-7,10.52,10.52,0,0,1,4.19-4.62,12.36,12.36,0,0,1,6.41-1.61A17.27,17.27,0,0,1,657.22,28l-1.76,4.43a28.64,28.64,0,0,0-2.9-1.2A8.7,8.7,0,0,0,649.69,30.74Z"/><path class="cls-25" d="M674.31,52.28l-.72-2.52h-.28a5.63,5.63,0,0,1-2.44,2.12,8.34,8.34,0,0,1-3.6.75,6.84,6.84,0,0,1-5.22-1.86,7.4,7.4,0,0,1-1.76-5.33V32.62h5.36V44.1a5.54,5.54,0,0,0,.75,3.19,2.76,2.76,0,0,0,2.41,1.07,3.59,3.59,0,0,0,3.25-1.51,9.27,9.27,0,0,0,1-5V32.62h5.36V52.28Z"/><path class="cls-25" d="M696.86,46.44a5.42,5.42,0,0,1-2.1,4.61q-2.1,1.58-6.28,1.58a20.09,20.09,0,0,1-3.66-.29,14.78,14.78,0,0,1-2.83-.85V47.06a19,19,0,0,0,3.37,1.17,13.53,13.53,0,0,0,3.3.48c1.94,0,2.91-.56,2.91-1.69a1.45,1.45,0,0,0-.38-1,5.77,5.77,0,0,0-1.34-.89c-.63-.34-1.48-.73-2.53-1.17A16.25,16.25,0,0,1,684,42.17a4.93,4.93,0,0,1-1.55-1.86,6.11,6.11,0,0,1-.48-2.57,4.64,4.64,0,0,1,2-4.05,9.84,9.84,0,0,1,5.76-1.43,16.31,16.31,0,0,1,6.9,1.54L695,37.67c-1-.42-1.91-.77-2.76-1a8.68,8.68,0,0,0-2.62-.4c-1.58,0-2.38.43-2.38,1.28a1.52,1.52,0,0,0,.77,1.25,21.09,21.09,0,0,0,3.35,1.56,15.41,15.41,0,0,1,3.37,1.74,5.06,5.06,0,0,1,1.58,1.87A5.71,5.71,0,0,1,696.86,46.44Z"/><path class="cls-25" d="M708.43,48.36a11.65,11.65,0,0,0,3.37-.62v4a12,12,0,0,1-4.92.9c-2.14,0-3.71-.54-4.68-1.63a7.07,7.07,0,0,1-1.47-4.88V36.65h-2.57V34.38l3-1.79,1.55-4.15h3.43v4.18h5.5v4h-5.5v9.47a2.07,2.07,0,0,0,.64,1.69A2.5,2.5,0,0,0,708.43,48.36Z"/><path class="cls-25" d="M732.73,42.42c0,3.19-.84,5.7-2.53,7.5a9.15,9.15,0,0,1-7.05,2.71,9.83,9.83,0,0,1-5-1.24,8.23,8.23,0,0,1-3.32-3.56,12,12,0,0,1-1.16-5.41c0-3.22.84-5.71,2.51-7.49a9.24,9.24,0,0,1,7.07-2.67,9.9,9.9,0,0,1,5,1.23A8.16,8.16,0,0,1,731.57,37,11.74,11.74,0,0,1,732.73,42.42Zm-13.58,0a8.35,8.35,0,0,0,1,4.41,3.44,3.44,0,0,0,3.12,1.49,3.38,3.38,0,0,0,3.09-1.48,8.35,8.35,0,0,0,.94-4.42,8.14,8.14,0,0,0-1-4.38,4,4,0,0,0-6.21,0A8.16,8.16,0,0,0,719.15,42.42Z"/><path class="cls-25" d="M753.86,52.28H748.5V40.8a5.82,5.82,0,0,0-.71-3.19,2.52,2.52,0,0,0-2.24-1.07,3.24,3.24,0,0,0-3,1.52,9.89,9.89,0,0,0-.93,5v9.25h-5.37V32.62h4.1l.72,2.52h.3A5.51,5.51,0,0,1,743.66,33a7.43,7.43,0,0,1,3.43-.76c2.94,0,4.94,1,6,2.88h.47A5.36,5.36,0,0,1,755.87,33a7.82,7.82,0,0,1,3.47-.75A6.87,6.87,0,0,1,764.4,34q1.71,1.71,1.71,5.49V52.28h-5.38V40.8a5.73,5.73,0,0,0-.71-3.19,2.5,2.5,0,0,0-2.24-1.07A3.34,3.34,0,0,0,754.84,38a7.92,7.92,0,0,0-1,4.47Z"/><path class="cls-25" d="M779.61,52.63A10.12,10.12,0,0,1,772.19,50q-2.67-2.62-2.67-7.42T772,35a8.77,8.77,0,0,1,6.83-2.69,8.65,8.65,0,0,1,6.48,2.37,9,9,0,0,1,2.32,6.55v2.61H775a5.16,5.16,0,0,0,1.35,3.56,4.76,4.76,0,0,0,3.55,1.29,14.48,14.48,0,0,0,3.36-.37,17,17,0,0,0,3.31-1.18v4.15a12.62,12.62,0,0,1-3,1A19.62,19.62,0,0,1,779.61,52.63Zm-.76-16.56a3.4,3.4,0,0,0-2.67,1.08,5.06,5.06,0,0,0-1.11,3.07h7.53a4.49,4.49,0,0,0-1-3.07A3.52,3.52,0,0,0,778.85,36.07Z"/><path class="cls-25" d="M802.05,32.26a9.07,9.07,0,0,1,1.81.15l-.4,5a6.06,6.06,0,0,0-1.58-.17,5.67,5.67,0,0,0-4,1.31,4.75,4.75,0,0,0-1.44,3.69v10h-5.36V32.62h4.06l.79,3.31h.27a7.34,7.34,0,0,1,2.47-2.66A6,6,0,0,1,802.05,32.26Z"/><path class="cls-25" d="M830.2,52.28H815.4V26.58h14.8V31h-9.35v5.64h8.7v4.47h-8.7v6.63h9.35Z"/><path class="cls-25" d="M852.38,52.28H847V40.8a5.54,5.54,0,0,0-.75-3.19,2.76,2.76,0,0,0-2.41-1.07,3.63,3.63,0,0,0-3.25,1.51c-.67,1-1,2.66-1,5v9.25h-5.37V32.62h4.1l.72,2.52h.3A5.71,5.71,0,0,1,841.83,33a8.51,8.51,0,0,1,3.58-.72,6.85,6.85,0,0,1,5.2,1.85,7.46,7.46,0,0,1,1.77,5.35Z"/><path class="cls-25" d="M861.68,52.28l-7.49-19.66h5.61l3.8,11.2a20.44,20.44,0,0,1,.79,4h.1a17.5,17.5,0,0,1,.79-4l3.78-11.2h5.61l-7.49,19.66Z"/><path class="cls-25" d="M876.35,27.54c0-1.74,1-2.61,2.92-2.61s2.92.87,2.92,2.61a2.56,2.56,0,0,1-.73,1.95,3.08,3.08,0,0,1-2.19.69C877.33,30.18,876.35,29.3,876.35,27.54Zm5.59,24.74h-5.36V32.62h5.36Z"/><path class="cls-25" d="M897.64,32.26a9.14,9.14,0,0,1,1.81.15l-.41,5a6,6,0,0,0-1.58-.17,5.69,5.69,0,0,0-4,1.31A4.78,4.78,0,0,0,892,42.27v10h-5.36V32.62h4.06l.79,3.31h.26a7.43,7.43,0,0,1,2.47-2.66A6.06,6.06,0,0,1,897.64,32.26Z"/><path class="cls-25" d="M920,42.42a10.55,10.55,0,0,1-2.54,7.5,9.13,9.13,0,0,1-7,2.71,9.84,9.84,0,0,1-5-1.24,8.23,8.23,0,0,1-3.32-3.56,12,12,0,0,1-1.16-5.41c0-3.22.84-5.71,2.51-7.49a9.26,9.26,0,0,1,7.07-2.67,9.9,9.9,0,0,1,5,1.23A8.24,8.24,0,0,1,918.82,37,11.87,11.87,0,0,1,920,42.42Zm-13.59,0a8.25,8.25,0,0,0,1,4.41,3.42,3.42,0,0,0,3.12,1.49,3.36,3.36,0,0,0,3.08-1.48,8.35,8.35,0,0,0,.94-4.42,8,8,0,0,0-1-4.38,4,4,0,0,0-6.2,0A8.06,8.06,0,0,0,906.39,42.42Z"/><path class="cls-25" d="M941.65,52.28h-5.36V40.8a5.54,5.54,0,0,0-.76-3.19,2.75,2.75,0,0,0-2.41-1.07,3.63,3.63,0,0,0-3.25,1.51c-.67,1-1,2.66-1,5v9.25h-5.36V32.62h4.09l.72,2.52h.3A5.71,5.71,0,0,1,931.09,33a8.51,8.51,0,0,1,3.58-.72,6.85,6.85,0,0,1,5.2,1.85,7.46,7.46,0,0,1,1.78,5.35Z"/><path class="cls-25" d="M963.86,52.28H958.5V40.8a5.82,5.82,0,0,0-.71-3.19,2.51,2.51,0,0,0-2.24-1.07,3.25,3.25,0,0,0-3,1.52,9.89,9.89,0,0,0-.93,5v9.25h-5.36V32.62h4.09l.72,2.52h.3A5.47,5.47,0,0,1,953.67,33a7.36,7.36,0,0,1,3.42-.76q4.42,0,6,2.88h.48A5.28,5.28,0,0,1,965.87,33a7.87,7.87,0,0,1,3.48-.75,6.86,6.86,0,0,1,5,1.71q1.71,1.71,1.71,5.49V52.28h-5.38V40.8a5.73,5.73,0,0,0-.71-3.19,2.5,2.5,0,0,0-2.24-1.07A3.34,3.34,0,0,0,964.84,38a8,8,0,0,0-1,4.47Z"/><path class="cls-25" d="M989.61,52.63A10.14,10.14,0,0,1,982.19,50q-2.67-2.62-2.67-7.42T982,35a8.79,8.79,0,0,1,6.83-2.69,8.67,8.67,0,0,1,6.49,2.37,9,9,0,0,1,2.32,6.55v2.61H985a5.12,5.12,0,0,0,1.36,3.56,4.73,4.73,0,0,0,3.55,1.29,14.45,14.45,0,0,0,3.35-.37,17,17,0,0,0,3.31-1.18v4.15a12.62,12.62,0,0,1-3,1A19.48,19.48,0,0,1,989.61,52.63Zm-.76-16.56a3.42,3.42,0,0,0-2.67,1.08,5,5,0,0,0-1.1,3.07h7.52a4.44,4.44,0,0,0-1-3.07A3.52,3.52,0,0,0,988.85,36.07Z"/><path class="cls-25" d="M1019.23,52.28h-5.37V40.8a5.54,5.54,0,0,0-.75-3.19,2.76,2.76,0,0,0-2.41-1.07,3.63,3.63,0,0,0-3.25,1.51c-.67,1-1,2.66-1,5v9.25h-5.36V32.62h4.09l.72,2.52h.3a5.71,5.71,0,0,1,2.47-2.16,8.51,8.51,0,0,1,3.58-.72,6.85,6.85,0,0,1,5.2,1.85,7.46,7.46,0,0,1,1.78,5.35Z"/><path class="cls-25" d="M1032.12,48.36a11.65,11.65,0,0,0,3.38-.62v4a12,12,0,0,1-4.92.9q-3.22,0-4.69-1.63a7.06,7.06,0,0,1-1.46-4.88V36.65h-2.57V34.38l2.95-1.79,1.55-4.15h3.43v4.18h5.5v4h-5.5v9.47a2.07,2.07,0,0,0,.64,1.69A2.49,2.49,0,0,0,1032.12,48.36Z"/><path class="cls-25" d="M1052.28,46.44a5.42,5.42,0,0,1-2.1,4.61q-2.1,1.58-6.28,1.58a20.09,20.09,0,0,1-3.66-.29,14.57,14.57,0,0,1-2.83-.85V47.06a19,19,0,0,0,3.37,1.17,13.52,13.52,0,0,0,3.29.48c2,0,2.92-.56,2.92-1.69a1.45,1.45,0,0,0-.38-1,5.77,5.77,0,0,0-1.34-.89c-.63-.34-1.48-.73-2.53-1.17a16.25,16.25,0,0,1-3.33-1.76,4.93,4.93,0,0,1-1.55-1.86,6.11,6.11,0,0,1-.48-2.57,4.64,4.64,0,0,1,2-4.05,9.83,9.83,0,0,1,5.75-1.43,16.36,16.36,0,0,1,6.91,1.54l-1.61,3.87c-1-.42-1.91-.77-2.76-1a8.68,8.68,0,0,0-2.62-.4c-1.59,0-2.38.43-2.38,1.28a1.52,1.52,0,0,0,.77,1.25,20.64,20.64,0,0,0,3.35,1.56,15.41,15.41,0,0,1,3.37,1.74,5.06,5.06,0,0,1,1.58,1.87A5.71,5.71,0,0,1,1052.28,46.44Z"/><path class="cls-25" d="M880,162.09l-.67-2.21H876l-.68,2.21h-2.12l3.28-9.32h2.4l3.29,9.32Zm-1.14-3.86-1-3.39c-.08-.26-.13-.47-.17-.62-.14.54-.54,1.88-1.2,4Z"/><path class="cls-25" d="M890,162.09H883.1v-1.27l4.45-6.38h-4.33v-1.63h6.67v1.27l-4.44,6.39H890Z"/><path class="cls-25" d="M899.69,152.81v6a3.44,3.44,0,0,1-.46,1.8,3,3,0,0,1-1.33,1.19,4.81,4.81,0,0,1-2,.41,3.93,3.93,0,0,1-2.78-.92,3.25,3.25,0,0,1-1-2.51v-6h2v5.68a2.39,2.39,0,0,0,.43,1.58,1.81,1.81,0,0,0,1.43.5,1.75,1.75,0,0,0,1.4-.51,2.37,2.37,0,0,0,.43-1.58v-5.67Z"/><path class="cls-25" d="M904.58,158.53v3.56h-2v-9.28h2.7a4.64,4.64,0,0,1,2.8.69,2.75,2.75,0,0,1,.46,3.55,3,3,0,0,1-1.28,1c1.4,2.09,2.31,3.43,2.73,4h-2.18l-2.22-3.56Zm0-1.6h.64a2.43,2.43,0,0,0,1.38-.31,1.12,1.12,0,0,0,.44-1,1,1,0,0,0-.45-.94,2.87,2.87,0,0,0-1.41-.28h-.6Z"/><path class="cls-25" d="M917.19,162.09h-5.34v-9.28h5.34v1.61h-3.37v2H917v1.61h-3.14v2.4h3.37Z"/><path class="cls-25" d="M894.59,256.13a5,5,0,0,1-1.14,3.54,4.94,4.94,0,0,1-6.55,0,5,5,0,0,1-1.14-3.55,5,5,0,0,1,1.14-3.54,4.28,4.28,0,0,1,3.29-1.22,4.21,4.21,0,0,1,3.27,1.23A5,5,0,0,1,894.59,256.13Zm-6.77,0a3.88,3.88,0,0,0,.59,2.34,2.06,2.06,0,0,0,1.77.79c1.57,0,2.35-1,2.35-3.13s-.78-3.14-2.34-3.14a2.1,2.1,0,0,0-1.77.79A3.86,3.86,0,0,0,887.82,256.13Z"/><path class="cls-25" d="M905.08,260.78h-2.5l-4-7h-.06c.08,1.24.12,2.13.12,2.65v4.37h-1.76V251.5h2.49l4,6.95h0c-.06-1.2-.1-2.06-.1-2.56V251.5h1.78Z"/><path class="cls-25" d="M907,258.09V256.5h3.4v1.59Z"/><path class="cls-25" d="M918.66,254.4a2.86,2.86,0,0,1-.94,2.29,4,4,0,0,1-2.66.79h-.85v3.3h-2V251.5h3a3.92,3.92,0,0,1,2.57.73A2.67,2.67,0,0,1,918.66,254.4Zm-4.45,1.47h.65a2.15,2.15,0,0,0,1.36-.36,1.26,1.26,0,0,0,.45-1,1.3,1.3,0,0,0-.38-1,1.75,1.75,0,0,0-1.18-.33h-.9Z"/><path class="cls-25" d="M922.7,257.22v3.56h-2V251.5h2.71a4.64,4.64,0,0,1,2.8.69,2.76,2.76,0,0,1,.45,3.55,3,3,0,0,1-1.27,1q2.08,3.12,2.73,4H926l-2.21-3.56Zm0-1.6h.64a2.37,2.37,0,0,0,1.37-.31,1.11,1.11,0,0,0,.45-1,1,1,0,0,0-.46-.94,2.8,2.8,0,0,0-1.4-.28h-.6Z"/><path class="cls-25" d="M935,260.78h-5.34V251.5H935v1.61h-3.37v2h3.14v1.61h-3.14v2.4H935Z"/><path class="cls-25" d="M941.18,260.78l-2.24-7.28h-.06q.12,2.22.12,3v4.31h-1.75V251.5h2.68l2.19,7.1h0l2.33-7.1h2.68v9.28h-1.84v-4.39c0-.21,0-.45,0-.72s0-1,.09-2.16h-.06L943,260.78Z"/><path class="cls-25" d="M949.83,260.78V251.5h2v9.28Z"/><path class="cls-25" d="M959.93,258.2a2.4,2.4,0,0,1-.9,2,3.88,3.88,0,0,1-2.52.73,5.9,5.9,0,0,1-2.62-.56v-1.83a9.83,9.83,0,0,0,1.59.59,4.43,4.43,0,0,0,1.19.17,1.72,1.72,0,0,0,1-.24.86.86,0,0,0,.35-.74.87.87,0,0,0-.16-.49,2,2,0,0,0-.44-.41,10.88,10.88,0,0,0-1.21-.62,6.07,6.07,0,0,1-1.27-.77,2.81,2.81,0,0,1-.68-.86A2.43,2.43,0,0,1,954,254a2.4,2.4,0,0,1,.84-1.94,3.45,3.45,0,0,1,2.31-.7,5.67,5.67,0,0,1,1.38.17,9,9,0,0,1,1.37.48l-.63,1.53a10,10,0,0,0-1.23-.42,4.07,4.07,0,0,0-1-.12,1.2,1.2,0,0,0-.85.26.85.85,0,0,0-.3.68.84.84,0,0,0,.12.45,1.34,1.34,0,0,0,.38.37,11.59,11.59,0,0,0,1.25.65,4.93,4.93,0,0,1,1.78,1.25A2.45,2.45,0,0,1,959.93,258.2Z"/><path class="cls-25" d="M967.29,260.78h-5.35V251.5h5.35v1.61h-3.38v2h3.14v1.61h-3.14v2.4h3.38Z"/><path class="cls-25" d="M975,258.2a2.4,2.4,0,0,1-.91,2,3.88,3.88,0,0,1-2.52.73,5.9,5.9,0,0,1-2.62-.56v-1.83a9.83,9.83,0,0,0,1.59.59,4.43,4.43,0,0,0,1.19.17,1.72,1.72,0,0,0,1-.24.86.86,0,0,0,.35-.74.8.8,0,0,0-.16-.49,2,2,0,0,0-.44-.41,10.88,10.88,0,0,0-1.21-.62A6.07,6.07,0,0,1,970,256a2.81,2.81,0,0,1-.68-.86,2.43,2.43,0,0,1-.26-1.14,2.4,2.4,0,0,1,.84-1.94,3.46,3.46,0,0,1,2.31-.7,5.67,5.67,0,0,1,1.38.17A8.66,8.66,0,0,1,975,252l-.63,1.53a10,10,0,0,0-1.23-.42,4,4,0,0,0-1-.12,1.22,1.22,0,0,0-.85.26.85.85,0,0,0-.3.68.84.84,0,0,0,.12.45,1.34,1.34,0,0,0,.38.37,11.59,11.59,0,0,0,1.25.65,4.93,4.93,0,0,1,1.78,1.25A2.4,2.4,0,0,1,975,258.2Z"/><g id="Layer_2-8" data-name="Layer 2"><g id="Layer_1-2-8" data-name="Layer 1-2"><polyline class="cls-3" points="878.42 473.58 837.12 473.58 837.12 299.71 844.24 292.56 878.42 292.56"/><polygon class="cls-3" points="979.88 284.42 979.88 481.25 883 481.25 883 284.42 890.14 277.28 972.76 277.28 979.88 284.42"/><path class="cls-25" d="M972.76,277.41l7,7V481.25H883V284.42l7.19-7h82.62m2.1-5.24H888l-1.5,1.5-7.11,7.14-1.52,1.49V486.43H985V282.3l-1.49-1.49-7.17-7.14Z"/><polyline class="cls-27" points="883 478.55 883 284.37 889.96 277.41 971.67 277.41 978.63 284.37"/><polyline class="cls-28" points="970.2 292.56 890.14 292.56 890.14 469.42"/><polyline class="cls-27" points="967.66 295.13 892.71 295.13 892.71 466.86"/><line class="cls-29" x1="890.14" y1="310.41" x2="972.76" y2="310.41"/><line class="cls-29" x1="890.14" y1="325.72" x2="972.76" y2="325.72"/><polyline class="cls-29" points="865.15 473.58 837.12 473.58 837.12 299.71 844.24 292.56 878.42 292.56"/><path class="cls-27" d="M869.86,459.21h0"/><path class="cls-27" d="M859.58,459.21h0"/><path class="cls-27" d="M849.37,459.21h0"/><path class="cls-27" d="M874.86,454.11h0"/><path class="cls-27" d="M864.63,454.11h0"/><path class="cls-27" d="M854.47,454.11h0"/><path class="cls-27" d="M869.86,449h0"/><path class="cls-27" d="M859.58,449h0"/><path class="cls-27" d="M849.37,449h0"/><path class="cls-27" d="M874.86,443.9h0"/><path class="cls-27" d="M864.63,443.9h0"/><path class="cls-27" d="M854.47,443.9h0"/><path class="cls-27" d="M869.86,438.83h0"/><path class="cls-27" d="M859.58,438.83h0"/><path class="cls-27" d="M849.37,438.83h0"/><path class="cls-27" d="M874.86,433.72h0"/><path class="cls-27" d="M864.63,433.72h0"/><path class="cls-27" d="M854.47,433.72h0"/><path class="cls-27" d="M869.86,428.62h0"/><path class="cls-27" d="M859.58,428.62h0"/><path class="cls-27" d="M849.37,428.62h0"/><path class="cls-27" d="M874.86,423.52h0"/><path class="cls-27" d="M864.63,423.52h0"/><path class="cls-27" d="M854.47,423.52h0"/><path class="cls-27" d="M869.86,418.41h0"/><path class="cls-27" d="M859.58,418.41h0"/><path class="cls-27" d="M849.37,418.41h0"/><path class="cls-27" d="M874.86,413.31h0"/><path class="cls-27" d="M864.63,413.31h0"/><path class="cls-27" d="M854.47,413.31h0"/><path class="cls-27" d="M869.86,408.26h0"/><path class="cls-27" d="M859.58,408.26h0"/><path class="cls-27" d="M849.37,408.26h0"/><path class="cls-27" d="M874.86,403h0"/><path class="cls-27" d="M864.63,403h0"/><path class="cls-27" d="M854.47,403h0"/><path class="cls-27" d="M869.86,398h0"/><path class="cls-27" d="M859.58,398h0"/><path class="cls-27" d="M849.37,398h0"/><path class="cls-27" d="M874.86,392.92h0"/><path class="cls-27" d="M864.63,392.92h0"/><path class="cls-27" d="M854.47,392.92h0"/><path class="cls-27" d="M869.86,387.82h0"/><path class="cls-27" d="M859.58,387.82h0"/><path class="cls-27" d="M849.37,387.82h0"/><path class="cls-27" d="M874.86,382.72h0"/><path class="cls-27" d="M864.63,382.72h0"/><path class="cls-27" d="M854.47,382.72h0"/><path class="cls-27" d="M869.86,377.61h0"/><path class="cls-27" d="M859.58,377.61h0"/><path class="cls-27" d="M849.37,377.61h0"/><path class="cls-27" d="M874.86,372.54h0"/><path class="cls-27" d="M864.63,372.54h0"/><path class="cls-27" d="M854.47,372.54h0"/><path class="cls-27" d="M869.86,367.43h0"/><path class="cls-27" d="M859.58,367.43h0"/><path class="cls-27" d="M849.37,367.43h0"/><path class="cls-27" d="M874.86,362.33h0"/><path class="cls-27" d="M864.63,362.33h0"/><path class="cls-27" d="M854.47,362.33h0"/><path class="cls-27" d="M869.86,357.23h0"/><path class="cls-27" d="M859.58,357.23h0"/><path class="cls-27" d="M849.37,357.23h0"/><path class="cls-27" d="M874.86,352.12h0"/><path class="cls-27" d="M864.63,352.12h0"/><path class="cls-27" d="M854.47,352.12h0"/><path class="cls-27" d="M869.86,347h0"/><path class="cls-27" d="M859.58,347h0"/><path class="cls-27" d="M849.37,347h0"/><path class="cls-27" d="M874.86,341.92h0"/><path class="cls-27" d="M864.63,341.92h0"/><path class="cls-27" d="M854.47,341.92h0"/><path class="cls-27" d="M869.86,336.84h0"/><path class="cls-27" d="M859.58,336.84h0"/><path class="cls-27" d="M849.37,336.84h0"/><path class="cls-27" d="M874.86,331.74h0"/><path class="cls-27" d="M864.63,331.74h0"/><path class="cls-27" d="M854.47,331.74h0"/><path class="cls-27" d="M869.86,326.63h0"/><path class="cls-27" d="M859.58,326.63h0"/><path class="cls-27" d="M849.37,326.63h0"/><path class="cls-27" d="M874.86,321.53h0"/><path class="cls-27" d="M864.63,321.53h0"/><path class="cls-27" d="M854.47,321.53h0"/><path class="cls-27" d="M869.86,316.43h0"/><path class="cls-27" d="M859.58,316.43h0"/><path class="cls-27" d="M849.37,316.43h0"/><path class="cls-27" d="M874.86,311.43h0"/><path class="cls-27" d="M864.63,311.43h0"/><path class="cls-27" d="M854.47,311.43h0"/><path class="cls-27" d="M869.86,306.2h0"/><path class="cls-27" d="M859.58,306.2h0"/><path class="cls-27" d="M849.37,306.2h0"/><polyline class="cls-3" points="982.45 473.58 1023.75 473.58 1023.75 299.71 1016.6 292.56 982.45 292.56"/><polyline class="cls-29" points="995.69 473.58 1023.75 473.58 1023.75 299.71 1016.6 292.56 982.45 292.56"/><path class="cls-27" d="M991.08,459.21h0"/><path class="cls-27" d="M1001.29,459.21h0"/><path class="cls-27" d="M1011.5,459.21h0"/><path class="cls-27" d="M986,454.11h0"/><path class="cls-27" d="M996.19,454.11h0"/><path class="cls-27" d="M1006.39,454.11h0"/><path class="cls-27" d="M991.08,449h0"/><path class="cls-27" d="M1001.29,449h0"/><path class="cls-27" d="M1011.5,449h0"/><path class="cls-27" d="M986,443.9h0"/><path class="cls-27" d="M996.19,443.9h0"/><path class="cls-27" d="M1006.39,443.9h0"/><path class="cls-27" d="M991.08,438.83h0"/><path class="cls-27" d="M1001.29,438.83h0"/><path class="cls-27" d="M1011.5,438.83h0"/><path class="cls-27" d="M986,433.72h0"/><path class="cls-27" d="M996.19,433.72h0"/><path class="cls-27" d="M1006.39,433.72h0"/><path class="cls-27" d="M991.08,428.62h0"/><path class="cls-27" d="M1001.29,428.62h0"/><path class="cls-27" d="M1011.5,428.62h0"/><path class="cls-27" d="M986,423.52h0"/><path class="cls-27" d="M996.19,423.52h0"/><path class="cls-27" d="M1006.39,423.52h0"/><path class="cls-27" d="M991.08,418.41h0"/><path class="cls-27" d="M1001.29,418.41h0"/><path class="cls-27" d="M1011.5,418.41h0"/><path class="cls-27" d="M986,413.31h0"/><path class="cls-27" d="M996.19,413.31h0"/><path class="cls-27" d="M1006.39,413.31h0"/><path class="cls-27" d="M991.08,408.26h0"/><path class="cls-27" d="M1001.29,408.26h0"/><path class="cls-27" d="M1011.5,408.26h0"/><path class="cls-27" d="M986,403h0"/><path class="cls-27" d="M996.19,403h0"/><path class="cls-27" d="M1006.39,403h0"/><path class="cls-27" d="M991.08,398h0"/><path class="cls-27" d="M1001.29,398h0"/><path class="cls-27" d="M1011.5,398h0"/><path class="cls-27" d="M986,392.92h0"/><path class="cls-27" d="M996.19,392.92h0"/><path class="cls-27" d="M1006.39,392.92h0"/><path class="cls-27" d="M991.08,387.82h0"/><path class="cls-27" d="M1001.29,387.82h0"/><path class="cls-27" d="M1011.5,387.82h0"/><path class="cls-27" d="M986,382.72h0"/><path class="cls-27" d="M996.19,382.72h0"/><path class="cls-27" d="M1006.39,382.72h0"/><path class="cls-27" d="M991.08,377.61h0"/><path class="cls-27" d="M1001.29,377.61h0"/><path class="cls-27" d="M1011.5,377.61h0"/><path class="cls-27" d="M986,372.54h0"/><path class="cls-27" d="M996.19,372.54h0"/><path class="cls-27" d="M1006.39,372.54h0"/><path class="cls-27" d="M991.08,367.43h0"/><path class="cls-27" d="M1001.29,367.43h0"/><path class="cls-27" d="M1011.5,367.43h0"/><path class="cls-27" d="M986,362.33h0"/><path class="cls-27" d="M996.19,362.33h0"/><path class="cls-27" d="M1006.39,362.33h0"/><path class="cls-27" d="M991.08,357.23h0"/><path class="cls-27" d="M1001.29,357.23h0"/><path class="cls-27" d="M1011.5,357.23h0"/><path class="cls-27" d="M986,352.12h0"/><path class="cls-27" d="M996.19,352.12h0"/><path class="cls-27" d="M1006.39,352.12h0"/><path class="cls-27" d="M991.08,347h0"/><path class="cls-27" d="M1001.29,347h0"/><path class="cls-27" d="M1011.5,347h0"/><path class="cls-27" d="M986,341.92h0"/><path class="cls-27" d="M996.19,341.92h0"/><path class="cls-27" d="M1006.39,341.92h0"/><path class="cls-27" d="M991.08,336.84h0"/><path class="cls-27" d="M1001.29,336.84h0"/><path class="cls-27" d="M1011.5,336.84h0"/><path class="cls-27" d="M986,331.74h0"/><path class="cls-27" d="M996.19,331.74h0"/><path class="cls-27" d="M1006.39,331.74h0"/><path class="cls-27" d="M991.08,326.63h0"/><path class="cls-27" d="M1001.29,326.63h0"/><path class="cls-27" d="M1011.5,326.63h0"/><path class="cls-27" d="M986,321.53h0"/><path class="cls-27" d="M996.19,321.53h0"/><path class="cls-27" d="M1006.39,321.53h0"/><path class="cls-27" d="M991.08,316.43h0"/><path class="cls-27" d="M1001.29,316.43h0"/><path class="cls-27" d="M1011.5,316.43h0"/><path class="cls-27" d="M986,311.43h0"/><path class="cls-27" d="M996.19,311.43h0"/><path class="cls-27" d="M1006.39,311.43h0"/><path class="cls-27" d="M991.08,306.2h0"/><path class="cls-27" d="M1001.29,306.2h0"/><path class="cls-27" d="M1011.5,306.2h0"/><polygon class="cls-25" points="977.35 491.43 885.57 491.43 883 486.33 979.88 486.33 977.35 491.43"/><path class="cls-27" d="M969.31,301.14h0"/><path class="cls-27" d="M961.46,301.14h0"/><path class="cls-30" d="M953.9,301.14h0"/><path class="cls-30" d="M969.31,319h0"/><path class="cls-27" d="M961.46,319h0"/><path class="cls-27" d="M953.9,319h0"/><line class="cls-29" x1="890.14" y1="341" x2="972.76" y2="341"/><path class="cls-27" d="M969.31,334.28h0"/><path class="cls-30" d="M961.46,334.28h0"/><path class="cls-27" d="M953.9,334.28h0"/><line class="cls-29" x1="890.14" y1="356.31" x2="972.76" y2="356.31"/><path class="cls-30" d="M969.31,349.59h0"/><path class="cls-27" d="M961.46,349.59h0"/><path class="cls-27" d="M953.9,349.59h0"/><line class="cls-29" x1="890.14" y1="371.6" x2="972.76" y2="371.6"/><path class="cls-27" d="M969.31,364.87h0"/><path class="cls-27" d="M961.46,364.87h0"/><path class="cls-30" d="M953.9,364.87h0"/><line class="cls-29" x1="890.14" y1="386.91" x2="972.76" y2="386.91"/><path class="cls-27" d="M969.31,380.18h0"/><path class="cls-27" d="M961.46,380.18h0"/><path class="cls-27" d="M953.9,380.18h0"/><line class="cls-29" x1="890.14" y1="402.21" x2="972.76" y2="402.21"/><path class="cls-27" d="M969.31,395.46h0"/><path class="cls-30" d="M961.46,395.46h0"/><path class="cls-27" d="M953.9,395.46h0"/><line class="cls-29" x1="890.14" y1="417.5" x2="972.76" y2="417.5"/><path class="cls-27" d="M969.31,410.88h0"/><path class="cls-27" d="M961.46,410.88h0"/><path class="cls-27" d="M953.9,410.88h0"/><line class="cls-29" x1="890.14" y1="432.81" x2="972.76" y2="432.81"/><path class="cls-30" d="M969.31,426.06h0"/><path class="cls-27" d="M961.46,426.06h0"/><path class="cls-27" d="M953.9,426.06h0"/><line class="cls-29" x1="890.14" y1="448.09" x2="972.76" y2="448.09"/><path class="cls-27" d="M969.31,441.37h0"/><path class="cls-27" d="M961.46,441.37h0"/><path class="cls-27" d="M953.9,441.37h0"/><line class="cls-29" x1="890.14" y1="463.4" x2="972.76" y2="463.4"/><path class="cls-27" d="M969.31,456.65h0"/><path class="cls-27" d="M961.46,456.65h0"/><path class="cls-27" d="M953.9,456.65h0"/></g></g></g></g></svg>