<?xml version="1.0" encoding="utf-8"?>
<!-- Generator: Adobe Illustrator 24.0.3, SVG Export Plug-In . SVG Version: 6.00 Build 0)  -->
<svg version="1.1" id="Layer_1" xmlns="http://www.w3.org/2000/svg" xmlns:xlink="http://www.w3.org/1999/xlink" x="0px" y="0px"
	 viewBox="0 0 40 31.1" style="enable-background:new 0 0 40 31.1;" xml:space="preserve">
<style type="text/css">
	.st0{fill:#FFFFFF;}
	.st1{opacity:0.15;fill:#FFFFFF;}
</style>
<g>
	<path class="st0" d="M22.8,6V3.1h-1V0h-3.1v3.1h-1V6l-0.3,0.6H5V27h12.5L16,31.1h8.6L23,27h12.5V6.6H23.1L22.8,6z M18.9,8.8
		l-6.5,12.9c-0.6-0.5-0.7-1.4-0.4-2.1L18,7.7C18.2,8.2,18.5,8.5,18.9,8.8z M19.8,9.1c0.3,0.1,0.6,0.1,0.9,0l1.8,3.6H18L19.8,9.1z
		 M21.6,8.8c0.4-0.3,0.7-0.6,0.9-1l5.9,11.9c0.3,0.7,0.2,1.5-0.4,2.1L21.6,8.8z M19.7,1h1v2h-1V1z M18.7,4.1h3.1v2.5
		c0,0.8-0.7,1.5-1.5,1.5c-0.8,0-1.5-0.7-1.5-1.5V4.1z M23.1,30.1h-5.7l1.1-3.1h3.4L23.1,30.1z M34.5,26H6v-1h28.5V26z M34.5,7.6V24
		H6V7.6h10.9l-5.7,11.5c-0.7,1.4-0.1,3.1,1.2,3.7c0,0,0,0,0,0l0.5,0.2l4.7-9.3H23l4.7,9.3l0.5-0.2c1.4-0.7,1.9-2.4,1.3-3.7L23.6,7.6
		H34.5z"/>
	<path class="st0" d="M20.3,6.6c0.3,0,0.5-0.2,0.5-0.5c0-0.3-0.2-0.5-0.5-0.5s-0.5,0.2-0.5,0.5c0,0.1,0.1,0.3,0.1,0.4
		C20,6.6,20.1,6.6,20.3,6.6z"/>
</g>
<path class="st1" d="M34.5,7.6V24H6V7.6h10.9l-5.7,11.5c-0.7,1.4-0.1,3.1,1.2,3.7c0,0,0,0,0,0l0.5,0.2l4.7-9.3H23l4.7,9.3l0.5-0.2
	c1.4-0.7,1.9-2.4,1.3-3.7L23.6,7.6H34.5z"/>
</svg>
