<svg xmlns="http://www.w3.org/2000/svg" width="29.873" height="43.66" viewBox="0 0 29.873 43.66">
  <g id="Group_1547" data-name="Group 1547" transform="translate(-86.598 -139.145)">
    <g id="Path_4633" data-name="Path 4633" transform="translate(0 -0.003)" fill="#fff" stroke-miterlimit="10" opacity="0.15">
      <path d="M101.534,139.148A14.937,14.937,0,0,0,86.6,154.084c0,8.249,13.623,21.8,15.03,28.722,1.754-7.085,14.844-20.472,14.844-28.722A14.936,14.936,0,0,0,101.534,139.148Zm0,23.56a8.527,8.527,0,1,1,8.526-8.527A8.527,8.527,0,0,1,101.534,162.708Z" stroke="none"/>
      <path d="M 101.5341949462891 139.1479644775391 C 109.7836074829102 139.1479644775391 116.4704895019531 145.8348999023438 116.4704895019531 154.0842437744141 C 116.4704895019531 162.3336639404297 103.3805465698242 175.7211303710938 101.6267776489258 182.8058319091797 C 100.2199554443359 175.8851318359375 86.59701538085938 162.3336639404297 86.59701538085938 154.0842437744141 C 86.59701538085938 145.8348999023438 93.28478240966797 139.1479644775391 101.5341949462891 139.1479644775391 Z M 101.5341949462891 162.7077178955078 C 106.2437210083008 162.7077178955078 110.060661315918 158.8898468017578 110.060661315918 154.1803131103516 C 110.060661315918 149.4715423583984 106.2437210083008 145.6537780761719 101.5341949462891 145.6537780761719 C 96.82460784912109 145.6537780761719 93.00678253173828 149.4715423583984 93.00678253173828 154.1803131103516 C 93.00678253173828 158.8898468017578 96.82460784912109 162.7077178955078 101.5341949462891 162.7077178955078 Z" stroke="none" fill="#fff"/>
    </g>
    <path id="Path_4634" data-name="Path 4634" d="M101.536,140.479a13.6,13.6,0,0,1,13.6,13.6c0,4.344-4.32,10.766-8.131,16.433a87.5,87.5,0,0,0-5.345,8.593,81.227,81.227,0,0,0-5.565-8.853c-3.827-5.587-8.165-11.92-8.165-16.173a13.6,13.6,0,0,1,13.6-13.6m0-1.334A14.937,14.937,0,0,0,86.6,154.082c0,8.249,13.622,21.8,15.029,28.721,1.754-7.084,14.844-20.472,14.844-28.721a14.937,14.937,0,0,0-14.937-14.937Z" transform="translate(-0.002 0)" fill="#fff"/>
    <path id="Path_4635" data-name="Path 4635" d="M152.773,198.994a7.193,7.193,0,1,1-7.193,7.192,7.2,7.2,0,0,1,7.193-7.192m0-1.334a8.527,8.527,0,1,0,8.527,8.527,8.527,8.527,0,0,0-8.527-8.527Z" transform="translate(-51.239 -52.009)" fill="#fff"/>
  </g>
</svg>
