<svg xmlns="http://www.w3.org/2000/svg" xmlns:xlink="http://www.w3.org/1999/xlink" viewBox="0 0 1920 1080"><defs><style>.cls-1{fill:none;}.cls-2{clip-path:url(#clip-path);}.cls-3{fill:url(#linear-gradient);}.cls-4{clip-path:url(#clip-path-2);}.cls-5{fill:url(#linear-gradient-2);}.cls-6{fill:url(#linear-gradient-3);}.cls-7,.cls-8{fill:#fff;}.cls-7{opacity:0.3;}</style><clipPath id="clip-path"><rect class="cls-1" x="-2150.56" y="0.8" width="1920" height="1078.4"/></clipPath><linearGradient id="linear-gradient" x1="-1887.79" y1="871.65" x2="-727.74" y2="-288.4" gradientUnits="userSpaceOnUse"><stop offset="0" stop-color="#1d428a"/><stop offset="0.09" stop-color="#185098"/><stop offset="0.32" stop-color="#0e6cb5"/><stop offset="0.55" stop-color="#0681c9"/><stop offset="0.78" stop-color="#028dd6"/><stop offset="1" stop-color="#0091da"/></linearGradient><clipPath id="clip-path-2"><rect class="cls-1" width="1922.47" height="1080.35"/></clipPath><linearGradient id="linear-gradient-2" x1="265.25" y1="870.85" x2="1425.29" y2="-289.2" gradientUnits="userSpaceOnUse"><stop offset="0" stop-color="#78be20"/><stop offset="0.1" stop-color="#63bf40"/><stop offset="0.25" stop-color="#45bf6d"/><stop offset="0.4" stop-color="#2cc093"/><stop offset="0.56" stop-color="#19c0b0"/><stop offset="0.71" stop-color="#0bc1c4"/><stop offset="0.86" stop-color="#03c1d1"/><stop offset="1" stop-color="#00c1d5"/></linearGradient><linearGradient id="linear-gradient-3" x1="3411.66" y1="7075.96" x2="4046.94" y2="6440.69" gradientTransform="translate(5288.85 7465.48) rotate(180)" gradientUnits="userSpaceOnUse"><stop offset="0" stop-color="#1d428a"/><stop offset="0.2" stop-color="#1d428a" stop-opacity="0.97"/><stop offset="0.4" stop-color="#1d428a" stop-opacity="0.88"/><stop offset="0.61" stop-color="#1d428a" stop-opacity="0.73"/><stop offset="0.82" stop-color="#1d428a" stop-opacity="0.52"/><stop offset="1" stop-color="#1d428a" stop-opacity="0.3"/></linearGradient></defs><g id="Intro"><g class="cls-2"><polygon class="cls-3" points="-2150.56 1080.8 -963.32 1080.8 116.68 0.8 -2150.56 0.8 -2150.56 1080.8"/></g><g class="cls-4"><polygon class="cls-5" points="2.47 1080 1189.71 1080 2269.71 0 2.47 0 2.47 1080"/><polygon class="cls-6" points="2101.49 328.68 1774.57 328.68 1017.56 1085.69 1344.48 1085.69 2101.49 328.68"/><rect class="cls-1" x="2" y="1.95" width="1922.47" height="1078.4"/></g><circle class="cls-7" cx="749.1" cy="659.1" r="243.1"/><g id="Automation_White" data-name="Automation White"><path class="cls-8" d="M749.1,751.23a4.07,4.07,0,0,1-4-4,4.32,4.32,0,0,1,4-4,83.6,83.6,0,1,0-83.6-83.6,4.07,4.07,0,0,1-4,4,4.31,4.31,0,0,1-4-4,92,92,0,1,1,183.92,0C841.4,710.43,799.6,751.23,749.1,751.23Z"/><path class="cls-8" d="M774.85,818.11H721.68l-1-2.34a88.94,88.94,0,0,1-5-16.39c-1.34-6-2.67-10.7-3.68-13.71-17.38-7.69-24.07-10.7-26.75-12a82.79,82.79,0,0,0-12.37,6q-10,6-14.05,8l-2,1-2-1c-4.34-3-16-13.71-35.11-33.44L618,752.57l.67-2.34c.67-2.35,2.67-7.36,14.38-27.43-.67-2-2.68-6-6-13.37a79.22,79.22,0,0,1-5-15c-4-.67-8.36-1.67-13.37-3q-11-3-15-4l-3.35-.67V630.51l3.35-.67c2.34-.67,7-2,14.38-4a99.05,99.05,0,0,1,13.71-3.34c1.33-2.68,3.34-7.36,6-13.71a114.39,114.39,0,0,1,6.68-14C626,579.35,621.7,573,619.69,570.65l-2.34-2.34,2-2.67c3-4.35,14.38-16.39,35.11-36.12l2-2,2.68,1.33c11.37,5.69,20.4,10.71,27.09,15.39,16-7,23.4-9.7,27.42-10.7.66-2.34,1.67-6.36,3.67-14,1.68-6.69,3.35-12,4.69-16.38l1-3h53.5l1,2.67c1.67,4.35,4.68,14.05,8.69,29.76,2,1,6,2.34,13.38,5,5.68,2.34,10.36,4.35,13.71,6.69a64.2,64.2,0,0,0,11.37-6c7-4.35,11.7-7,14.37-8l2-.67,1.67,1c5.69,3.34,11.71,8.69,19.06,16.72,8,8,13.71,13.71,17.06,16.38l2.67,2.34-1,3c-6.69,12-11.7,21.07-15.38,26.75,6,17.39,8.69,25.08,10,28.09a97.06,97.06,0,0,1,14.38,3.35q11,3,15.05,4l3.34.67v55.84l-3.34.67c-1.68.34-5.69,1.34-14.38,4-5,1.34-9.7,2.68-13.71,3.35-1,2.34-3,6.35-5.69,13.71-2.34,6-4.34,10.7-6.69,14,1.34,2.34,3.68,6.36,6.69,11.37a108.88,108.88,0,0,0,8,12.71l2,2.34-1.67,2.68c-3,4.34-14.38,16.38-34.77,36.11l-2,2-2.68-1.34A197.12,197.12,0,0,1,813,774a99.12,99.12,0,0,1-27.08,10.7c-1.34,2.34-2.68,6.35-4.35,13.37-2,8.7-3.68,14.38-5.35,17.39Zm-47.48-8.36H769.5c1-2.34,2-6.69,3.68-13.38,2-8,4-13.71,6-17.39l1-1.67,1.67-.33c9-1.68,18.39-5.35,28.43-11.37l2.34-1.34,2.34,1.34a175,175,0,0,0,25.08,14.71c18.39-18.06,26.42-26.42,29.76-30.76-2-3-4.35-6.69-6.69-11-5.35-9.36-7.36-12.71-8-13.71l-1.68-2.67,2.34-2.35c1.68-1.67,4-5.35,7-13.71s5.68-14,7.35-16.72l1-1.67,2-.33A138.88,138.88,0,0,0,887.88,684c5-1.33,9-2.67,11.7-3.34v-41.8c-3-.67-7-2-12.37-3.34a66.45,66.45,0,0,0-14.05-3c-4,1-4,1-16.72-35.45l-.67-2,1.34-1.68c3.35-5,8.36-13.37,14.72-24.74-3.68-3.35-8.7-8-15.39-15-6-6.35-11-11-15.38-14-2.67,1.33-6.35,3.67-11.37,6.68A60.82,60.82,0,0,1,814,553.93l-2,.67-1.67-1.33c-3-2.35-7.36-4.35-13.38-6.69-8.69-3.35-13.71-5.35-15.72-6l-1.67-.67-.67-3q-5.52-20.57-8-28.09H729c-1,3.68-2.34,8-3.68,13-1.67,6.36-3.68,14.38-4.68,16.72l-.67,2.68h-3c-1,0-5.68,1-29.76,11.37l-2.34,1-1.67-1c-5.69-4.35-14.38-9.37-25.08-14.72-18.06,17.73-26.42,26.42-30.1,30.43,3.68,5,8.36,13,14.71,25.08l1.34,2.34-1.34,2a92.13,92.13,0,0,0-7.35,14.38c-3.35,8-5.69,13.38-7.36,16l-1,1.67-2.34.67A138.88,138.88,0,0,0,610,633.86c-5,1.33-9,2.67-11.7,3.34v42.47c3,.67,7,2,12.37,3.34A148.84,148.84,0,0,0,626,686.36l3,.33.34,3a62.26,62.26,0,0,0,5,16c5.35,11.7,6.36,14.71,6.69,15.72l.67,1.67-1,1.67c-8.7,15.05-12.38,22.07-13.71,25.08C644.77,768,653.13,775.64,657.14,779a115.16,115.16,0,0,0,11-6.35,83.41,83.41,0,0,1,15.71-7.69l2-.67,1.67,1c.67.34,5.35,2.68,29.1,13l1.67.67.67,1.68c1.33,3.34,2.67,8.69,4.34,16.38C725,802.73,726,806.74,727.37,809.75Z"/></g><path class="cls-8" d="M424.58,253.5l-9.8,29.68h-12.6l32.06-94.36h14.7l32.2,94.36h-13L458,253.5ZM455.52,244l-9.24-27.16c-2.1-6.16-3.5-11.76-4.9-17.22h-.28c-1.4,5.6-2.94,11.34-4.76,17.08L427.1,244Z"/><path class="cls-8" d="M549.61,264.7c0,7,.14,13.16.56,18.48H539.25l-.7-11.06h-.28a25.49,25.49,0,0,1-22.4,12.6c-10.64,0-23.38-5.88-23.38-29.68V215.42h12.32v37.52c0,12.88,3.92,21.56,15.12,21.56,8.26,0,14-5.74,16.24-11.2a18,18,0,0,0,1.12-6.3V215.42h12.32Z"/><path class="cls-8" d="M584.89,196v19.46h17.63v9.38H584.89v36.54c0,8.4,2.37,13.16,9.23,13.16a27.41,27.41,0,0,0,7.14-.84l.56,9.24a30.14,30.14,0,0,1-10.91,1.68c-5.75,0-10.37-1.82-13.31-5.18-3.5-3.64-4.76-9.66-4.76-17.64v-37h-10.5v-9.38h10.5V199.18Z"/><path class="cls-8" d="M676.86,248.74c0,25.06-17.36,36-33.74,36-18.34,0-32.48-13.44-32.48-34.86,0-22.68,14.84-36,33.6-36C663.7,213.88,676.86,228,676.86,248.74Zm-53.76.7c0,14.84,8.54,26,20.58,26,11.76,0,20.58-11.06,20.58-26.32,0-11.48-5.74-26-20.3-26S623.1,236.56,623.1,249.44Z"/><path class="cls-8" d="M692.4,233.76c0-7-.14-12.74-.56-18.34h10.78l.56,10.92h.42c3.78-6.44,10.08-12.46,21.28-12.46,9.24,0,16.24,5.6,19.18,13.58h.28a27.91,27.91,0,0,1,7.56-8.82c4.06-3.08,8.54-4.76,15-4.76,9,0,22.26,5.88,22.26,29.4v39.9h-12V244.82c0-13-4.76-20.86-14.7-20.86-7,0-12.46,5.18-14.56,11.2a20.29,20.29,0,0,0-1,6.16v41.86h-12v-40.6c0-10.78-4.76-18.62-14.14-18.62-7.7,0-13.3,6.16-15.26,12.32a17,17,0,0,0-1,6v40.88h-12Z"/><path class="cls-8" d="M846.68,283.18l-1-8.54h-.42a25.24,25.24,0,0,1-20.72,10.08c-13.72,0-20.72-9.66-20.72-19.46,0-16.38,14.56-25.34,40.74-25.2v-1.4c0-5.6-1.54-15.68-15.4-15.68a33.76,33.76,0,0,0-17.64,5l-2.8-8.12c5.6-3.64,13.72-6,22.26-6,20.72,0,25.76,14.14,25.76,27.72v25.34a95.41,95.41,0,0,0,1.12,16.24Zm-1.82-34.58c-13.44-.28-28.7,2.1-28.7,15.26,0,8,5.32,11.76,11.62,11.76a16.86,16.86,0,0,0,16.38-11.34,12.86,12.86,0,0,0,.7-3.92Z"/><path class="cls-8" d="M890.92,196v19.46h17.64v9.38H890.92v36.54c0,8.4,2.38,13.16,9.24,13.16a27.41,27.41,0,0,0,7.14-.84l.56,9.24a30.16,30.16,0,0,1-10.92,1.68c-5.74,0-10.36-1.82-13.3-5.18-3.5-3.64-4.76-9.66-4.76-17.64v-37h-10.5v-9.38h10.5V199.18Z"/><path class="cls-8" d="M936.14,196.38c.14,4.2-2.94,7.56-7.84,7.56a7.33,7.33,0,0,1-7.42-7.56,7.51,7.51,0,0,1,7.7-7.7C933.2,188.68,936.14,192,936.14,196.38Zm-13.72,86.8V215.42h12.32v67.76Z"/><path class="cls-8" d="M1016.5,248.74c0,25.06-17.36,36-33.74,36-18.34,0-32.48-13.44-32.48-34.86,0-22.68,14.84-36,33.6-36C1003.34,213.88,1016.5,228,1016.5,248.74Zm-53.76.7c0,14.84,8.54,26,20.58,26,11.76,0,20.58-11.06,20.58-26.32,0-11.48-5.74-26-20.3-26S962.74,236.56,962.74,249.44Z"/><path class="cls-8" d="M1032,233.76c0-7-.14-12.74-.56-18.34h10.92l.7,11.2h.28c3.36-6.44,11.2-12.74,22.4-12.74,9.38,0,23.94,5.6,23.94,28.84v40.46H1077.4V244.12c0-10.92-4.06-20-15.68-20a17.5,17.5,0,0,0-16.52,12.6,17.71,17.71,0,0,0-.84,5.74v40.74H1032Z"/></g></svg>