<svg xmlns="http://www.w3.org/2000/svg" xmlns:xlink="http://www.w3.org/1999/xlink" viewBox="0 0 1920 1080"><defs><style>.cls-1{fill:none;}.cls-2{clip-path:url(#clip-path);}.cls-3{fill:url(#linear-gradient);}.cls-4{fill:url(#linear-gradient-2);}.cls-5,.cls-6,.cls-7{fill:#fff;}.cls-5{opacity:0.3;}.cls-7{fill-rule:evenodd;}.cls-8{clip-path:url(#clip-path-2);}.cls-9{fill:url(#linear-gradient-3);}</style><clipPath id="clip-path"><rect class="cls-1" x="0.29" width="1920" height="1080"/></clipPath><linearGradient id="linear-gradient" x1="263.91" y1="871.16" x2="1424.55" y2="-289.49" gradientUnits="userSpaceOnUse"><stop offset="0" stop-color="#00c1d5"/><stop offset="0.28" stop-color="#00bdd5"/><stop offset="0.58" stop-color="#00b0d7"/><stop offset="0.88" stop-color="#009cd9"/><stop offset="1" stop-color="#0091da"/></linearGradient><linearGradient id="linear-gradient-2" x1="-5184.3" y1="7075.96" x2="-4549.03" y2="6440.69" gradientTransform="translate(-3313.38 7465.48) rotate(180)" gradientUnits="userSpaceOnUse"><stop offset="0" stop-color="#7f35b2"/><stop offset="0.17" stop-color="#7f35b2" stop-opacity="0.98"/><stop offset="0.35" stop-color="#7f35b2" stop-opacity="0.91"/><stop offset="0.54" stop-color="#7f35b2" stop-opacity="0.79"/><stop offset="0.72" stop-color="#7f35b2" stop-opacity="0.63"/><stop offset="0.91" stop-color="#7f35b2" stop-opacity="0.42"/><stop offset="1" stop-color="#7f35b2" stop-opacity="0.3"/></linearGradient><clipPath id="clip-path-2"><rect class="cls-1" x="-2150.27" width="1920" height="1080"/></clipPath><linearGradient id="linear-gradient-3" x1="-1886.65" y1="871.16" x2="-726.01" y2="-289.49" gradientUnits="userSpaceOnUse"><stop offset="0" stop-color="#1d428a"/><stop offset="0.18" stop-color="#3d3e97"/><stop offset="0.39" stop-color="#5a3aa3"/><stop offset="0.6" stop-color="#6e37ab"/><stop offset="0.8" stop-color="#7b36b0"/><stop offset="1" stop-color="#7f35b2"/></linearGradient></defs><g id="Intro"><g class="cls-2"><polygon class="cls-3" points="0.58 1080 1189.55 1080 2269.54 0 0.58 0 0.58 1080"/><polygon class="cls-4" points="2095.22 328.68 1768.3 328.68 1011.29 1085.69 1338.21 1085.69 2095.22 328.68"/><rect class="cls-1" x="0.58" width="1920" height="1078.4"/></g><circle class="cls-5" cx="749.1" cy="659.1" r="243.1"/><rect class="cls-6" x="665.05" y="676.65" width="168.8" height="7.1"/><path class="cls-7" d="M733.85,745l4.4-33.3H731l-3.6,28.1c-4.1,1.6-12.8,5.1-16.3,7.5a5.36,5.36,0,0,0-2.1,6,5.25,5.25,0,0,0,5,3.7h69.8a5.25,5.25,0,0,0,5-3.7,5.41,5.41,0,0,0-2-6c-3.4-2.4-12.2-6-16.3-7.6l-2.8-28h-7.2l3.3,33.1,2.1.8c2.1.8,6.5,2.5,10.3,4.2h-54.6c3.8-1.7,8.2-3.4,10.3-4.2Z"/><path class="cls-7" d="M844.85,704.75H653a10.73,10.73,0,0,1-10.7-10.8V572a10.71,10.71,0,0,1,10.7-10.7h191.5a11.63,11.63,0,0,1,11.6,11.7v120.6A11.31,11.31,0,0,1,844.85,704.75ZM653,697.55h191.9a4,4,0,0,0,4-4.1V572.85a4.48,4.48,0,0,0-4.5-4.5H652.85a3.5,3.5,0,0,0-3.5,3.6V694A3.52,3.52,0,0,0,653,697.55Z"/><rect class="cls-6" x="877.35" y="555.35" width="7.1" height="32.8"/><rect class="cls-6" x="877.35" y="599.05" width="7.1" height="32.8"/><rect class="cls-6" x="877.35" y="642.75" width="7.1" height="32.8"/><rect class="cls-6" x="877.35" y="730.15" width="7.1" height="32.8"/><rect class="cls-6" x="877.35" y="686.45" width="7.1" height="32.8"/><polygon class="cls-7" points="863.85 523.65 863.85 530.75 877.45 530.75 877.45 544.35 884.55 544.35 884.55 523.65 863.85 523.65"/><rect class="cls-6" x="645.25" y="523.65" width="32.8" height="7.1"/><rect class="cls-6" x="820.15" y="523.65" width="32.8" height="7.1"/><rect class="cls-6" x="688.95" y="523.65" width="32.8" height="7.1"/><rect class="cls-6" x="776.35" y="523.65" width="32.8" height="7.1"/><rect class="cls-6" x="732.65" y="523.65" width="32.8" height="7.1"/><polygon class="cls-7" points="620.75 530.85 634.35 530.85 634.35 523.75 613.65 523.75 613.65 544.45 620.75 544.45 620.75 530.85 620.75 530.85"/><rect class="cls-6" x="613.65" y="642.75" width="7.1" height="32.8"/><rect class="cls-6" x="613.65" y="686.45" width="7.1" height="32.8"/><rect class="cls-6" x="613.65" y="555.35" width="7.1" height="32.8"/><rect class="cls-6" x="613.65" y="599.05" width="7.1" height="32.8"/><rect class="cls-6" x="613.65" y="730.15" width="7.1" height="32.8"/><polygon class="cls-7" points="620.75 773.85 613.65 773.85 613.65 794.55 634.35 794.55 634.35 787.45 620.75 787.45 620.75 773.85 620.75 773.85"/><rect class="cls-6" x="688.95" y="787.45" width="32.8" height="7.1"/><rect class="cls-6" x="645.25" y="787.45" width="32.8" height="7.1"/><rect class="cls-6" x="776.35" y="787.45" width="32.8" height="7.1"/><rect class="cls-6" x="732.65" y="787.45" width="32.8" height="7.1"/><rect class="cls-6" x="820.15" y="787.45" width="32.8" height="7.1"/><polygon class="cls-7" points="877.35 773.85 884.45 773.85 884.45 794.55 863.75 794.55 863.75 787.45 877.35 787.45 877.35 773.85 877.35 773.85"/><path class="cls-6" d="M303.56,283.18l-30.8-94.36h13.16l14.7,46.48c4.06,12.74,7.56,24.22,10.08,35.28H311c2.66-10.92,6.58-22.82,10.78-35.14l16-46.62h13L317,283.18Z"/><path class="cls-6" d="M372,196.38c.14,4.2-2.94,7.56-7.84,7.56a7.33,7.33,0,0,1-7.42-7.56,7.51,7.51,0,0,1,7.7-7.7C369.08,188.68,372,192,372,196.38Zm-13.72,86.8V215.42h12.32v67.76Z"/><path class="cls-6" d="M391.06,236.56c0-8-.14-14.84-.56-21.14h10.78l.42,13.3h.56c3.08-9.1,10.5-14.84,18.76-14.84a13.33,13.33,0,0,1,3.5.42v11.62a18.51,18.51,0,0,0-4.2-.42c-8.68,0-14.84,6.58-16.52,15.82a34.68,34.68,0,0,0-.56,5.74v36.12H391.06Z"/><path class="cls-6" d="M455,196v19.46h17.64v9.38H455v36.54c0,8.4,2.38,13.16,9.24,13.16a27.41,27.41,0,0,0,7.14-.84l.56,9.24a30.16,30.16,0,0,1-10.92,1.68c-5.74,0-10.36-1.82-13.3-5.18-3.5-3.64-4.76-9.66-4.76-17.64v-37H432.5v-9.38H443V199.18Z"/><path class="cls-6" d="M543.24,264.7c0,7,.13,13.16.55,18.48H532.87l-.69-11.06h-.29a25.48,25.48,0,0,1-22.4,12.6c-10.63,0-23.37-5.88-23.37-29.68V215.42h12.32v37.52c0,12.88,3.92,21.56,15.11,21.56,8.27,0,14-5.74,16.24-11.2a18,18,0,0,0,1.12-6.3V215.42h12.33Z"/><path class="cls-6" d="M601.2,283.18l-1-8.54h-.42a25.24,25.24,0,0,1-20.72,10.08c-13.71,0-20.71-9.66-20.71-19.46,0-16.38,14.55-25.34,40.73-25.2v-1.4c0-5.6-1.54-15.68-15.39-15.68a33.77,33.77,0,0,0-17.65,5l-2.8-8.12c5.61-3.64,13.72-6,22.27-6,20.71,0,25.76,14.14,25.76,27.72v25.34a95.47,95.47,0,0,0,1.11,16.24Zm-1.83-34.58c-13.43-.28-28.7,2.1-28.7,15.26,0,8,5.32,11.76,11.62,11.76a16.85,16.85,0,0,0,16.38-11.34,12.86,12.86,0,0,0,.7-3.92Z"/><path class="cls-6" d="M631.15,183.78h12.32v99.4H631.15Z"/><path class="cls-6" d="M694.29,190.08a174.46,174.46,0,0,1,25.9-2c17.5,0,30,4.06,38.22,11.76s13.3,18.62,13.3,33.88-4.76,28-13.58,36.68S734.75,284,716.41,284a196.59,196.59,0,0,1-22.12-1.12Zm12.18,83.44a76.91,76.91,0,0,0,12.32.7c26,0,40.18-14.56,40.18-40,.14-22.26-12.46-36.4-38.22-36.4A69.21,69.21,0,0,0,706.47,199Z"/><path class="cls-6" d="M794.53,251.54c.28,16.66,10.92,23.52,23.24,23.52,8.82,0,14.14-1.54,18.76-3.5l2.1,8.82c-4.34,2-11.76,4.2-22.54,4.2-20.86,0-33.32-13.72-33.32-34.16s12-36.54,31.78-36.54c22.12,0,28,19.46,28,31.92a46.47,46.47,0,0,1-.42,5.74Zm36.12-8.82c.14-7.84-3.22-20-17.08-20-12.46,0-17.92,11.48-18.9,20Z"/><path class="cls-6" d="M856.13,270.58a32.29,32.29,0,0,0,16.24,4.9c9,0,13.16-4.48,13.16-10.08,0-5.88-3.5-9.1-12.6-12.46C860.75,248.6,855,241.88,855,233.76c0-10.92,8.82-19.88,23.38-19.88a33.82,33.82,0,0,1,16.66,4.2L892,227a26.37,26.37,0,0,0-13.86-3.92c-7.28,0-11.34,4.2-11.34,9.24,0,5.6,4.06,8.12,12.88,11.48,11.76,4.48,17.78,10.36,17.78,20.44,0,11.9-9.24,20.3-25.34,20.3-7.42,0-14.28-1.82-19-4.62Z"/><path class="cls-6" d="M925.43,246.5h.28c1.68-2.38,4.06-5.32,6-7.7l19.88-23.38h14.84l-26.18,27.86,29.82,39.9h-15L931.73,250.7l-6.3,7v25.48H913.25v-99.4h12.18Z"/><path class="cls-6" d="M993.75,196v19.46h17.64v9.38H993.75v36.54c0,8.4,2.38,13.16,9.24,13.16a27.41,27.41,0,0,0,7.14-.84l.56,9.24a30.16,30.16,0,0,1-10.92,1.68c-5.74,0-10.36-1.82-13.3-5.18-3.5-3.64-4.76-9.66-4.76-17.64v-37h-10.5v-9.38h10.5V199.18Z"/><path class="cls-6" d="M1085.73,248.74c0,25.06-17.36,36-33.74,36-18.34,0-32.48-13.44-32.48-34.86,0-22.68,14.84-36,33.6-36C1072.57,213.88,1085.73,228,1085.73,248.74Zm-53.76.7c0,14.84,8.54,26,20.58,26,11.76,0,20.58-11.06,20.58-26.32,0-11.48-5.74-26-20.3-26S1032,236.56,1032,249.44Z"/><path class="cls-6" d="M1101.27,237.54c0-8.68-.28-15.68-.56-22.12h11.06l.56,11.62h.28c5-8.26,13-13.16,24.08-13.16,16.38,0,28.7,13.86,28.7,34.44,0,24.36-14.85,36.4-30.8,36.4-9,0-16.81-3.92-20.86-10.64h-.28V310.9h-12.18Zm12.18,18.06a27.74,27.74,0,0,0,.56,5,19,19,0,0,0,18.48,14.42c13,0,20.58-10.64,20.58-26.18,0-13.58-7.14-25.2-20.16-25.2-8.4,0-16.24,6-18.63,15.26a20.43,20.43,0,0,0-.83,5Z"/><path class="cls-6" d="M1179.24,270.58a32.29,32.29,0,0,0,16.24,4.9c9,0,13.16-4.48,13.16-10.08,0-5.88-3.5-9.1-12.6-12.46-12.18-4.34-17.92-11.06-17.92-19.18,0-10.92,8.82-19.88,23.38-19.88a33.82,33.82,0,0,1,16.66,4.2l-3.08,9a26.37,26.37,0,0,0-13.86-3.92c-7.28,0-11.34,4.2-11.34,9.24,0,5.6,4.06,8.12,12.88,11.48,11.76,4.48,17.78,10.36,17.78,20.44,0,11.9-9.24,20.3-25.34,20.3-7.42,0-14.28-1.82-19-4.62Z"/><g class="cls-8"><polygon class="cls-9" points="-2149.98 1080 -961.01 1080 118.98 0 -2149.98 0 -2149.98 1080"/></g></g></svg>