<?xml version="1.0" encoding="utf-8"?>
<!-- Generator: Adobe Illustrator 24.0.0, SVG Export Plug-In . SVG Version: 6.00 Build 0)  -->
<svg version="1.1" id="Layer_1" xmlns="http://www.w3.org/2000/svg" xmlns:xlink="http://www.w3.org/1999/xlink" x="0px" y="0px"
	 viewBox="0 0 818.5 367.1" style="enable-background:new 0 0 818.5 367.1;" xml:space="preserve">
<style type="text/css">
	.st0{fill:#547DBF;}
	.st1{fill:#4D76BB;}
	.st2{fill-rule:evenodd;clip-rule:evenodd;fill:#FFFFFF;}
	.st3{fill:#008774;}
	.st4{fill:#00AF9F;}
	.st5{fill:#0067AD;}
	.st6{fill:#149ED9;}
	.st7{fill:#4F61AC;}
	.st8{fill:#477DC0;}
	.st9{fill:#4B5EAB;}
	.st10{fill-rule:evenodd;clip-rule:evenodd;fill:#814B99;}
	.st11{opacity:0.2;fill-rule:evenodd;clip-rule:evenodd;fill:#FFFFFF;enable-background:new    ;}
	.st12{fill:#C22334;}
	.st13{fill:#DB222F;}
	.st14{fill:#E92629;}
	.st15{fill:#AD233C;}
	.st16{fill:#BB2234;}
	.st17{fill:#F05024;}
	.st18{fill:#F05024;stroke:#F04F23;stroke-width:1.3601;stroke-linecap:round;stroke-linejoin:round;stroke-miterlimit:10;}
	.st19{fill:none;stroke:#FFFFFF;stroke-width:1.3601;stroke-miterlimit:10;}
	
		.st20{opacity:0.3;fill:none;stroke:#FFFFFF;stroke-width:1.3601;stroke-linecap:round;stroke-miterlimit:10;enable-background:new    ;}
	.st21{fill:none;stroke:#CCCBCA;stroke-width:1.5;stroke-linecap:round;stroke-linejoin:round;}
	.st22{fill:#CCCBCA;}
	.st23{fill:#4A5565;}
	.st24{display:none;}
	.st25{fill:#238FCF;}
	.st26{fill:#1BBFD3;}
	.st27{fill:#79BF43;}
	.st28{fill:#1D4489;}
</style>
<g id="Google_Kubenetes_Engine__x28_GKE_x29_">
	<g>
		<path class="st0" d="M104.8,263.5H82.7c-0.8,0-1.6,0.5-2.1,1.2l-11.1,19.2c-0.4,0.7-0.4,1.6,0,2.4l11.1,19.2
			c0.4,0.7,1.2,1.2,2.1,1.2h22.1c0.8,0,1.6-0.5,2.1-1.2l11.1-19.2c0.4-0.7,0.4-1.6,0-2.4l-11.1-19.2
			C106.4,264,105.6,263.5,104.8,263.5z"/>
		<path class="st1" d="M103.7,279.3l-9.9-5.1l-9.3,5.1l-0.7,11.8l14.7,15.5h6.2c0.8,0,1.6-0.5,2.1-1.2l7.9-13.7L103.7,279.3z"/>
	</g>
	<g id="Page-1">
		<g id="container-engine-logo-copy-2" transform="translate(2.000000, 0.000000)">
			<path id="Fill-4" class="st2" d="M101.4,278.8l-9.1-5.3c-0.3-0.2-0.7-0.2-1,0l-9.1,5.3c-0.3,0.2-0.5,0.5-0.5,0.9v10.6
				c0,0.4,0.2,0.7,0.5,0.9l9.1,5.3c0.3,0.2,0.7,0.2,1,0l9.1-5.3c0.3-0.2,0.5-0.5,0.5-0.9v-10.6C101.9,279.4,101.7,279,101.4,278.8
				L101.4,278.8z M100.1,289.3l-3.2-1.8v-4.9l-4.7,2.7v5.5l4.2-2.4l3.2,1.8l-7.9,4.6l-7.9-4.6l3.2-1.8l4.2,2.4v-5.5l-4.7-2.7v4.9
				l-3.2,1.8v-9.2l7.9-4.6v3.7l-4.2,2.4l4.7,2.7l4.7-2.7l-4.2-2.4v-3.7l7.9,4.6V289.3L100.1,289.3z"/>
		</g>
	</g>
</g>
<g id="VMware_Pivotal_Container_Services">
	<path class="st3" d="M226.7,281.8c-0.3-0.2-0.5-0.5-0.6-0.9v-19.1c0-0.4-0.2-0.5-0.5-0.3l-4.2,2.7c-0.3,0.2-0.5,0.6-0.5,1v19.1
		c0,0.4,0.2,0.7,0.6,0.9l16,8.3c0.3,0.2,0.7,0.1,1.1,0l4.2-2.7c0.2-0.1,0.3-0.3,0.2-0.4c0-0.1-0.1-0.2-0.2-0.2L226.7,281.8z"/>
	<path class="st3" d="M242.7,269.8l-16-8.3c-0.3-0.2-0.7-0.1-1.1,0l-4.2,2.7c-0.3,0.2-0.5,0.6-0.5,1v0.2l0,0c0-0.3,0.2-0.5,0.5-0.5
		c0.1,0,0.2,0,0.3,0.1l15.8,8.2c0.3,0.2,0.5,0.5,0.6,0.9V293c0,0.3-0.2,0.5-0.5,0.5l0,0c-0.1,0-0.2,0-0.2-0.1l0,0l0.2,0.1
		c0.3,0.2,0.7,0.1,1.1,0l4.2-2.7c0.3-0.2,0.5-0.6,0.5-1v-19.1C243.3,270.3,243.1,270,242.7,269.8z"/>
	<path class="st3" d="M214.8,289.4c-0.3-0.2-0.5-0.5-0.6-0.9v-19.1c0-0.4-0.2-0.5-0.5-0.3l-4.2,2.7c-0.3,0.2-0.5,0.6-0.5,1v19.1
		c0,0.4,0.2,0.7,0.6,0.9l16,8.3c0.3,0.2,0.7,0.1,1.1,0l4.2-2.7c0.2-0.1,0.3-0.3,0.2-0.4c0-0.1-0.1-0.2-0.2-0.2L214.8,289.4z"/>
	<path class="st4" d="M230.8,277.3l-16-8.3c-0.3-0.2-0.7-0.1-1.1,0l-4.2,2.7c-0.3,0.2-0.5,0.6-0.5,1v0.2l0,0c0-0.3,0.2-0.5,0.5-0.5
		c0.1,0,0.2,0,0.3,0.1l15.8,8.2c0.3,0.2,0.5,0.5,0.6,0.9v18.9c0,0.3-0.2,0.5-0.5,0.5l0,0c-0.1,0-0.2,0-0.2-0.1l0,0l0.2,0.1
		c0.3,0.2,0.7,0.1,1.1,0l4.2-2.7c0.3-0.2,0.5-0.6,0.5-1v-19.1C231.4,277.9,231.2,277.5,230.8,277.3z"/>
	<path class="st5" d="M202.9,297c-0.3-0.2-0.5-0.5-0.6-0.9V277c0-0.4-0.2-0.5-0.5-0.3l-4.2,2.7c-0.3,0.2-0.5,0.6-0.5,1v19.1
		c0,0.4,0.2,0.7,0.6,0.9l16,8.3c0.3,0.2,0.7,0.1,1.1,0l4.2-2.7c0.2-0.1,0.3-0.3,0.2-0.4c0-0.1-0.1-0.2-0.2-0.2L202.9,297z"/>
	<path class="st6" d="M218.9,284.9l-16-8.3c-0.3-0.2-0.7-0.1-1.1,0l-4.2,2.7c-0.3,0.2-0.5,0.6-0.5,1v0.2l0,0c0-0.3,0.2-0.5,0.5-0.5
		l0,0c0.1,0,0.2,0,0.3,0.1l15.8,8.2c0.3,0.2,0.5,0.5,0.6,0.9v18.9c0,0.3-0.2,0.5-0.5,0.5l0,0c-0.1,0-0.2,0-0.2-0.1l0,0l0.2,0.1
		c0.3,0.2,0.7,0.1,1.1,0l4.2-2.7c0.3-0.2,0.5-0.6,0.5-1v-19.1C219.5,285.4,219.3,285.1,218.9,284.9z"/>
</g>
<g id="Amazon_Elastic_Kubernetes_Service__x28_EKS_x29_">
	<g>
		<path class="st7" d="M359.1,289.7l8.8,5.6c0.4,0.3,1,0,1-0.5v-22.5c0-0.4-0.2-0.7-0.5-0.9l-19.1-11.1c-0.4-0.2-1,0.1-1,0.6V271
			c0,0.4,0.2,0.8,0.6,1l9.1,5.3c0.4,0.2,0.6,0.6,0.6,1v10.4C358.5,289.1,358.7,289.5,359.1,289.7z"/>
		<path class="st8" d="M356.8,292.4l-9.6,5.5c-0.4,0.2-0.8,0.2-1.1,0l-10.8-6.2c-0.4-0.2-0.6-0.6-0.6-1v-12.4c0-0.4,0.2-0.8,0.6-1
			l9.5-5.5c0.4-0.2,0.6-0.6,0.6-1v-10.1c0-0.5-0.5-0.8-1-0.6l-19.5,11.2c-0.3,0.2-0.5,0.5-0.5,0.9v24.5c0,0.4,0.2,0.7,0.5,0.9
			l21.2,12.2c0.3,0.2,0.7,0.2,1.1,0l19.2-11.1c0.4-0.2,0.4-0.8,0-1.1l-8.3-5.3C357.6,292.2,357.2,292.2,356.8,292.4z"/>
	</g>
	<g>
		<path class="st9" d="M341.5,277.6h1.9v6.1h0.2l6.3-6.1h2.7l-6.8,6.5l7.3,7.6h-2.8l-6.6-7.1h-0.2v7.1h-1.9v-14.1H341.5z"/>
	</g>
</g>
<g id="Azure_Kubernetes_Service" transform="translate(0 0)">
	<g id="j4rmrkptef_2_" transform="translate(33.4399 0)">
		<path class="st10" d="M436.7,295.5l-9-3.5v14.3l9-3.1V295.5z"/>
	</g>
	<g id="j4rmrkqfeg_2_" transform="translate(18.260199999999998 0.2164)">
		<path class="st10" d="M434.7,303.7v-9.3l6.7-2.5V306L434.7,303.7z M435.4,295.1l-0.4,0.1v7.7l0.4,0.1l0.4,0.1l0.4,0.1v-8.4
			l-0.4,0.1L435.4,295.1z M437.2,294.6l-0.5,0.1v8.7l0.5,0.1l0.5,0.1l0.5,0.1v-9.5l-0.5,0.1L437.2,294.6z M439.3,293.9l-0.6,0.2v9.8
			l0.6,0.1l0.6,0.2l0.7,0.2v-11l-0.7,0.2L439.3,293.9z"/>
	</g>
	<g id="j4rmrkr6eh_2_" transform="translate(72.8202 0)">
		<path class="st10" d="M418.3,295.5l-9-3.5v14.3l9-3.1V295.5z"/>
	</g>
	<g id="j4rmrkrnei_2_" transform="translate(57.6399 0.2164)">
		<path class="st10" d="M416.4,303.7v-9.3l6.7-2.5V306L416.4,303.7z M417.1,295.1l-0.4,0.1v7.7l0.4,0.1l0.4,0.1l0.4,0.1v-8.4
			l-0.4,0.1L417.1,295.1z M418.8,294.6l-0.5,0.1v8.7l0.5,0.1l0.5,0.1l0.5,0.1v-9.5l-0.5,0.1L418.8,294.6z M420.9,293.9l-0.6,0.2v9.8
			l0.6,0.1l0.6,0.2l0.7,0.2v-11l-0.7,0.2L420.9,293.9z"/>
	</g>
	<g id="j4rmrkrvej_2_" transform="translate(33.4399 53.1894)">
		<path class="st10" d="M436.7,214l-9-3.5v14.3l9-3.1V214z"/>
	</g>
	<g id="j4rmrks6ek_2_" transform="translate(18.2602 53.4053)">
		<path class="st10" d="M434.7,222.2v-9.3l6.7-2.5v14.2L434.7,222.2z M435.4,213.5l-0.4,0.1v7.7l0.4,0.1l0.4,0.1l0.4,0.1v-8.4
			l-0.4,0.1L435.4,213.5z M437.2,213.1l-0.5,0.1v8.7l0.5,0.1l0.5,0.1l0.5,0.1v-9.5l-0.5,0.1L437.2,213.1z M439.3,212.4l-0.6,0.2v9.8
			l0.6,0.1l0.6,0.2l0.7,0.2v-11l-0.7,0.2L439.3,212.4z"/>
	</g>
	<g id="j4rmrkseel_2_" transform="translate(72.8202 53.1894)">
		<path class="st10" d="M418.3,214l-9-3.5v14.3l9-3.1V214z"/>
	</g>
	<g id="j4rmrkspem_2_" transform="translate(57.6399 53.4053)">
		<path class="st10" d="M416.4,222.2v-9.3l6.7-2.5v14.2L416.4,222.2z M417.1,213.5l-0.4,0.1v7.7l0.4,0.1l0.4,0.1l0.4,0.1v-8.4
			l-0.4,0.1L417.1,213.5z M418.8,213.1l-0.5,0.1v8.7l0.5,0.1l0.5,0.1l0.5,0.1v-9.5l-0.5,0.1L418.8,213.1z M420.9,212.4l-0.6,0.2v9.8
			l0.6,0.1l0.6,0.2l0.7,0.2v-11l-0.7,0.2L420.9,212.4z"/>
	</g>
	<g id="j4rmrkt5en_2_" transform="translate(54.5601 26.5947)">
		<path class="st10" d="M426.7,254.7l-8.9-3.3v14.2l8.9-3.1V254.7z"/>
	</g>
	<g id="j4rmrktheo_2_" transform="translate(39.1601 26.5947)">
		<path class="st10" d="M425,263.3V254l6.7-2.5v14.2L425,263.3z M425.7,254.6l-0.4,0.1v7.7l0.4,0.1l0.4,0.1l0.4,0.1v-8.4l-0.4,0.1
			L425.7,254.6z M427.4,254.1l-0.5,0.1v8.7l0.5,0.1l0.5,0.1l0.5,0.1v-9.5l-0.5,0.1L427.4,254.1z M429.6,253.4l-0.6,0.2v9.8l0.6,0.1
			l0.6,0.2l0.7,0.2v-11l-0.7,0.2L429.6,253.4z"/>
	</g>
	<g id="j4rmrktrep_2_" transform="translate(15.4 26.5947)">
		<path class="st10" d="M445,254.7l-8.9-3.3v14.2l8.9-3.1V254.7z"/>
	</g>
	<g id="j4rmrku6eq_2_" transform="translate(0 26.5947)">
		<path class="st10" d="M443.2,263.3V254l6.7-2.5v14.2L443.2,263.3z M444,254.6l-0.4,0.1v7.7l0.4,0.1l0.4,0.1l0.4,0.1v-8.4l-0.4,0.1
			L444,254.6z M445.7,254.1l-0.5,0.1v8.7l0.5,0.1l0.5,0.1l0.5,0.1v-9.5l-0.5,0.1L445.7,254.1z M447.8,253.4l-0.6,0.2v9.8l0.6,0.1
			l0.6,0.2l0.7,0.2v-11l-0.7,0.2L447.8,253.4z"/>
	</g>
	<g id="j4rmrkuder_2_" transform="translate(93.2798 26.5947)">
		<path class="st10" d="M408.7,254.7l-8.9-3.3v14.2l8.9-3.1V254.7z"/>
	</g>
	<g id="j4rmrkukes_2_" transform="translate(33.4399 0)">
		<path class="st11" d="M436.7,295.5l-9-3.5v14.3l9-3.1V295.5z"/>
	</g>
	<g id="j4rmrkutet_2_" transform="translate(72.8202 0)">
		<path class="st11" d="M418.3,295.5l-9-3.5v14.3l9-3.1V295.5z"/>
	</g>
	<g id="j4rmrkv0eu_2_" transform="translate(33.4399 53.1894)">
		<path class="st11" d="M436.7,214l-9-3.5v14.3l9-3.1V214z"/>
	</g>
	<g id="j4rmrkv6ev_2_" transform="translate(72.8202 53.1894)">
		<path class="st11" d="M418.3,214l-9-3.5v14.3l9-3.1V214z"/>
	</g>
	<g id="j4rmrkvfew_2_" transform="translate(54.5601 26.5947)">
		<path class="st11" d="M426.7,254.7l-8.9-3.3v14.2l8.9-3.1V254.7z"/>
	</g>
	<g id="j4rmrkvmex_2_" transform="translate(15.4 26.5947)">
		<path class="st11" d="M445,254.7l-8.9-3.3v14.2l8.9-3.1V254.7z"/>
	</g>
	<g id="j4rmrkvsey_2_" transform="translate(93.2798 26.5947)">
		<path class="st11" d="M408.7,254.7l-8.9-3.3v14.2l8.9-3.1V254.7z"/>
	</g>
	<g id="j4rmrkw4ez_2_" transform="translate(77.8798 26.5947)">
		<path class="st10" d="M406.9,263.3V254l6.7-2.5v14.2L406.9,263.3z M407.6,254.6l-0.4,0.1v7.7l0.4,0.1l0.4,0.1l0.4,0.1v-8.4
			l-0.4,0.1L407.6,254.6z M409.4,254.1l-0.5,0.1v8.7l0.5,0.1l0.5,0.1l0.5,0.1v-9.5l-0.5,0.1L409.4,254.1z M411.5,253.4l-0.6,0.2v9.8
			l0.6,0.1l0.6,0.2l0.7,0.2v-11l-0.7,0.2L411.5,253.4z"/>
	</g>
</g>
<g>
	<path d="M46.8,323.5H50v3c-0.4,0.4-0.8,0.6-1.4,0.9c-0.5,0.2-1.1,0.3-1.6,0.3c-0.7,0-1.3-0.2-1.9-0.5c-0.6-0.4-1.1-0.8-1.4-1.4
		c-0.4-0.6-0.5-1.2-0.5-1.9c0-0.7,0.2-1.3,0.5-1.9c0.4-0.6,0.8-1.1,1.4-1.4c0.6-0.4,1.2-0.5,1.9-0.5c0.5,0,1.1,0.1,1.6,0.3
		c0.5,0.2,1,0.5,1.4,0.9l-0.8,0.7c-0.3-0.3-0.6-0.5-1-0.7s-0.8-0.2-1.2-0.2c-0.5,0-1,0.1-1.4,0.4s-0.8,0.6-1,1.1
		c-0.3,0.4-0.4,0.9-0.4,1.4s0.1,1,0.4,1.4s0.6,0.8,1,1.1c0.4,0.3,0.9,0.4,1.4,0.4c0.3,0,0.7-0.1,1-0.2s0.6-0.3,0.9-0.5v-1.6h-2v-1.1
		H46.8z"/>
	<path d="M52.7,327.3c-0.5-0.3-0.8-0.6-1.1-1.1s-0.4-1-0.4-1.5s0.1-1,0.4-1.5c0.3-0.5,0.6-0.8,1.1-1.1c0.5-0.3,1-0.4,1.5-0.4
		s1,0.1,1.5,0.4s0.8,0.6,1.1,1.1s0.4,0.9,0.4,1.5c0,0.5-0.1,1-0.4,1.5c-0.3,0.5-0.6,0.8-1.1,1.1c-0.5,0.3-1,0.4-1.5,0.4
		C53.6,327.7,53.1,327.6,52.7,327.3z M55.1,326.5c0.3-0.2,0.5-0.4,0.7-0.7c0.2-0.3,0.3-0.7,0.3-1s-0.1-0.7-0.3-1s-0.4-0.6-0.7-0.7
		c-0.3-0.2-0.6-0.3-1-0.3c-0.3,0-0.7,0.1-1,0.3c-0.3,0.2-0.5,0.4-0.7,0.7c-0.2,0.3-0.3,0.7-0.3,1s0.1,0.7,0.3,1s0.4,0.6,0.7,0.7
		c0.3,0.2,0.6,0.3,1,0.3S54.8,326.7,55.1,326.5z"/>
	<path d="M59.5,327.3c-0.5-0.3-0.8-0.6-1.1-1.1s-0.4-1-0.4-1.5s0.1-1,0.4-1.5c0.3-0.5,0.6-0.8,1.1-1.1c0.5-0.3,1-0.4,1.5-0.4
		s1,0.1,1.5,0.4s0.8,0.6,1.1,1.1s0.4,0.9,0.4,1.5c0,0.5-0.1,1-0.4,1.5c-0.3,0.5-0.6,0.8-1.1,1.1c-0.5,0.3-1,0.4-1.5,0.4
		C60.5,327.7,60,327.6,59.5,327.3z M61.9,326.5c0.3-0.2,0.5-0.4,0.7-0.7c0.2-0.3,0.3-0.7,0.3-1s-0.1-0.7-0.3-1s-0.4-0.6-0.7-0.7
		c-0.3-0.2-0.6-0.3-1-0.3c-0.3,0-0.7,0.1-1,0.3c-0.3,0.2-0.5,0.4-0.7,0.7c-0.2,0.3-0.3,0.7-0.3,1s0.1,0.7,0.3,1s0.4,0.6,0.7,0.7
		c0.3,0.2,0.6,0.3,1,0.3C61.3,326.8,61.7,326.7,61.9,326.5z"/>
	<path d="M70.5,321.9v5.1c0,0.5-0.1,0.9-0.4,1.3c-0.2,0.4-0.6,0.7-1,0.9c-0.4,0.2-0.9,0.3-1.5,0.3c-0.5,0-0.9-0.1-1.3-0.2
		s-0.8-0.3-1-0.5l0.4-0.8c0.2,0.2,0.5,0.4,0.8,0.5s0.7,0.2,1,0.2c0.6,0,1.1-0.1,1.4-0.4s0.5-0.7,0.5-1.2v-0.8
		c-0.2,0.3-0.5,0.6-0.9,0.8c-0.3,0.2-0.7,0.3-1.1,0.3c-0.5,0-0.9-0.1-1.3-0.3s-0.7-0.6-0.9-1c-0.2-0.4-0.3-0.9-0.3-1.4
		s0.1-1,0.3-1.4c0.2-0.4,0.5-0.7,0.9-1c0.4-0.2,0.8-0.3,1.3-0.3c0.4,0,0.8,0.1,1.1,0.3c0.3,0.2,0.6,0.4,0.9,0.8v-0.9h1.1V321.9z
		 M68.9,325.8c0.3-0.3,0.5-0.7,0.5-1.3c0-0.5-0.2-0.9-0.5-1.3c-0.3-0.3-0.7-0.5-1.3-0.5c-0.5,0-0.9,0.2-1.2,0.5S66,324,66,324.5
		s0.2,0.9,0.5,1.3s0.7,0.5,1.2,0.5C68.2,326.2,68.6,326.1,68.9,325.8z"/>
	<path d="M72.3,319.9h1.1v7.7h-1.1V319.9z"/>
	<path d="M78.6,326.6c0.3-0.1,0.6-0.3,0.7-0.5l0.6,0.7c-0.2,0.3-0.6,0.5-1,0.6c-0.4,0.2-0.9,0.2-1.3,0.2c-0.5,0-1-0.1-1.5-0.4
		s-0.8-0.6-1.1-1.1c-0.3-0.5-0.4-1-0.4-1.5c0-0.6,0.1-1.1,0.4-1.5c0.3-0.5,0.6-0.8,1-1.1c0.4-0.3,0.9-0.4,1.4-0.4
		c0.6,0,1.1,0.1,1.5,0.4s0.7,0.7,0.9,1.2c0.2,0.5,0.3,1.1,0.3,1.8h-4.5c0.1,0.5,0.3,0.9,0.6,1.2c0.3,0.3,0.7,0.5,1.2,0.5
		C78,326.8,78.3,326.8,78.6,326.6z M76.4,323.1c-0.3,0.3-0.5,0.7-0.6,1.2h3.5c-0.1-0.5-0.2-0.9-0.5-1.2c-0.3-0.3-0.7-0.5-1.1-0.5
		C77.2,322.7,76.8,322.8,76.4,323.1z"/>
	<path d="M84.9,320.1H86v3.9l3.6-3.9H91l-3.1,3.4l3.3,4.2h-1.4l-2.7-3.4l-1.1,1.2v2.2h-1.1C84.9,327.7,84.9,320.1,84.9,320.1z"/>
	<path d="M97.2,321.9v5.7h-1.1v-0.8c-0.2,0.3-0.4,0.5-0.7,0.7c-0.3,0.2-0.7,0.3-1.1,0.3s-0.8-0.1-1.1-0.3c-0.3-0.2-0.6-0.4-0.8-0.8
		c-0.2-0.3-0.3-0.7-0.3-1.1V322h1.1v3.4c0,0.4,0.1,0.8,0.4,1s0.6,0.4,0.9,0.4s0.5-0.1,0.8-0.2c0.2-0.1,0.4-0.3,0.6-0.5
		c0.1-0.2,0.2-0.4,0.2-0.7v-3.5H97.2z"/>
	<path d="M103.4,322.2c0.4,0.3,0.7,0.6,0.9,1.1c0.2,0.5,0.3,1,0.3,1.5s-0.1,1.1-0.3,1.5c-0.2,0.5-0.5,0.8-0.9,1.1
		c-0.4,0.3-0.8,0.4-1.3,0.4c-0.4,0-0.8-0.1-1.2-0.3c-0.4-0.2-0.6-0.5-0.9-0.8v1h-1V320h1.1v3c0.2-0.4,0.5-0.6,0.9-0.8
		c0.4-0.2,0.7-0.3,1.2-0.3C102.6,321.8,103,321.9,103.4,322.2z M102.8,326.5c0.3-0.2,0.5-0.4,0.6-0.7s0.2-0.7,0.2-1
		c0-0.4-0.1-0.7-0.2-1s-0.4-0.5-0.6-0.7c-0.3-0.2-0.6-0.3-0.9-0.3s-0.6,0.1-0.9,0.3s-0.5,0.4-0.6,0.7c-0.1,0.3-0.2,0.7-0.2,1
		c0,0.4,0.1,0.7,0.2,1c0.2,0.3,0.4,0.6,0.6,0.7s0.6,0.3,0.9,0.3C102.2,326.8,102.5,326.7,102.8,326.5z"/>
	<path d="M109.5,326.6c0.3-0.1,0.6-0.3,0.7-0.5l0.6,0.7c-0.2,0.3-0.6,0.5-1,0.6c-0.4,0.2-0.9,0.2-1.3,0.2c-0.5,0-1-0.1-1.5-0.4
		s-0.8-0.6-1.1-1.1c-0.3-0.5-0.4-1-0.4-1.5c0-0.6,0.1-1.1,0.4-1.5c0.3-0.5,0.6-0.8,1-1.1c0.4-0.3,0.9-0.4,1.4-0.4
		c0.6,0,1.1,0.1,1.5,0.4s0.7,0.7,0.9,1.2c0.2,0.5,0.3,1.1,0.3,1.8h-4.5c0.1,0.5,0.3,0.9,0.6,1.2c0.3,0.3,0.7,0.5,1.2,0.5
		C108.9,326.8,109.2,326.8,109.5,326.6z M107.3,323.1c-0.3,0.3-0.5,0.7-0.6,1.2h3.5c-0.1-0.5-0.2-0.9-0.5-1.2
		c-0.3-0.3-0.7-0.5-1.1-0.5C108.1,322.7,107.7,322.8,107.3,323.1z"/>
	<path d="M114.4,322.1c0.4-0.2,0.8-0.3,1.3-0.3v0.9c-0.4,0-0.8,0.1-1.1,0.2c-0.3,0.2-0.6,0.4-0.7,0.7c-0.2,0.3-0.3,0.6-0.3,1v3h-1.1
		v-5.7h1.1v1.1C113.8,322.6,114.1,322.3,114.4,322.1z"/>
	<path d="M121,322.1c0.3,0.2,0.6,0.4,0.8,0.8c0.2,0.3,0.3,0.7,0.3,1.1v3.6H121v-3.4c0-0.4-0.1-0.8-0.4-1c-0.2-0.3-0.6-0.4-0.9-0.4
		s-0.5,0.1-0.8,0.2s-0.4,0.3-0.6,0.5c-0.1,0.2-0.2,0.4-0.2,0.7v3.5H117V322h1.1v0.8c0.2-0.3,0.4-0.5,0.7-0.7s0.7-0.3,1.1-0.3
		C120.3,321.8,120.7,321.9,121,322.1z"/>
	<path d="M127.1,326.6c0.3-0.1,0.6-0.3,0.7-0.5l0.6,0.7c-0.2,0.3-0.6,0.5-1,0.6c-0.4,0.2-0.9,0.2-1.3,0.2c-0.5,0-1-0.1-1.5-0.4
		s-0.8-0.6-1.1-1.1c-0.3-0.5-0.4-1-0.4-1.5c0-0.6,0.1-1.1,0.4-1.5c0.3-0.5,0.6-0.8,1-1.1c0.4-0.3,0.9-0.4,1.4-0.4
		c0.6,0,1.1,0.1,1.5,0.4s0.7,0.7,0.9,1.2s0.3,1.1,0.3,1.8h-4.5c0.1,0.5,0.3,0.9,0.6,1.2c0.3,0.3,0.7,0.5,1.2,0.5
		C126.5,326.8,126.8,326.8,127.1,326.6z M124.9,323.1c-0.3,0.3-0.5,0.7-0.6,1.2h3.5c-0.1-0.5-0.2-0.9-0.5-1.2
		c-0.3-0.3-0.7-0.5-1.1-0.5C125.7,322.7,125.3,322.8,124.9,323.1z"/>
	<path d="M133,327.3c-0.2,0.1-0.3,0.2-0.5,0.3s-0.4,0.1-0.6,0.1c-0.4,0-0.8-0.1-1.1-0.4s-0.4-0.7-0.4-1.1v-3.3h-0.8V322h0.8v-1.6
		h1.1v1.6h1.3v0.9h-1.3v3.3c0,0.2,0.1,0.4,0.2,0.5c0.1,0.1,0.3,0.2,0.4,0.2c0.1,0,0.2,0,0.3-0.1c0.1,0,0.2-0.1,0.2-0.1L133,327.3z"
		/>
	<path d="M137.5,326.6c0.3-0.1,0.6-0.3,0.7-0.5l0.6,0.7c-0.2,0.3-0.6,0.5-1,0.6c-0.4,0.2-0.9,0.2-1.3,0.2c-0.5,0-1-0.1-1.5-0.4
		s-0.8-0.6-1.1-1.1s-0.4-1-0.4-1.5c0-0.6,0.1-1.1,0.4-1.5c0.3-0.5,0.6-0.8,1-1.1c0.4-0.3,0.9-0.4,1.4-0.4c0.6,0,1.1,0.1,1.5,0.4
		s0.7,0.7,0.9,1.2s0.3,1.1,0.3,1.8h-4.5c0.1,0.5,0.3,0.9,0.6,1.2c0.3,0.3,0.7,0.5,1.2,0.5C136.9,326.8,137.2,326.8,137.5,326.6z
		 M135.4,323.1c-0.3,0.3-0.5,0.7-0.6,1.2h3.5c-0.1-0.5-0.2-0.9-0.5-1.2c-0.3-0.3-0.7-0.5-1.1-0.5
		C136.1,322.7,135.7,322.8,135.4,323.1z"/>
	<path d="M141.1,327.5c-0.4-0.1-0.8-0.4-1.1-0.6l0.5-0.7c0.3,0.2,0.6,0.4,1,0.5c0.3,0.1,0.7,0.2,1,0.2s0.6-0.1,0.8-0.2
		s0.3-0.3,0.3-0.6c0-0.2-0.1-0.4-0.3-0.5s-0.5-0.2-1-0.4c-0.7-0.2-1.2-0.4-1.5-0.6s-0.5-0.6-0.5-1c0-0.5,0.2-0.9,0.6-1.3
		c0.4-0.3,0.9-0.5,1.5-0.5c0.4,0,0.7,0.1,1.1,0.2c0.4,0.1,0.7,0.3,1,0.5l-0.5,0.8c-0.6-0.4-1.1-0.5-1.6-0.5c-0.3,0-0.5,0.1-0.7,0.2
		s-0.3,0.3-0.3,0.5c0,0.1,0,0.3,0.1,0.4s0.2,0.2,0.4,0.2c0.2,0.1,0.5,0.2,0.8,0.3c0.4,0.1,0.7,0.2,1,0.4c0.3,0.1,0.5,0.3,0.7,0.5
		s0.3,0.5,0.3,0.9c0,0.5-0.2,1-0.6,1.3c-0.4,0.3-0.9,0.5-1.6,0.5C142,327.7,141.6,327.7,141.1,327.5z"/>
	<path d="M60.6,333v2.2h4v1h-4v2.3H65v1h-5.6V332H65v1H60.6z"/>
	<path d="M70.6,334c0.3,0.2,0.6,0.4,0.8,0.8c0.2,0.3,0.3,0.7,0.3,1.1v3.6h-1.1v-3.4c0-0.4-0.1-0.8-0.4-1c-0.2-0.3-0.6-0.4-0.9-0.4
		s-0.5,0.1-0.8,0.2s-0.4,0.3-0.6,0.5c-0.1,0.2-0.2,0.4-0.2,0.7v3.5h-1.1v-5.7h1.1v0.8c0.2-0.3,0.4-0.5,0.7-0.7s0.7-0.3,1.1-0.3
		S70.2,333.8,70.6,334z"/>
	<path d="M78.5,333.8v5.1c0,0.5-0.1,0.9-0.4,1.3c-0.2,0.4-0.6,0.7-1,0.9c-0.4,0.2-0.9,0.3-1.5,0.3c-0.5,0-0.9-0.1-1.3-0.2
		s-0.8-0.3-1-0.5l0.4-0.8c0.2,0.2,0.5,0.4,0.8,0.5s0.7,0.2,1,0.2c0.6,0,1.1-0.1,1.4-0.4s0.5-0.7,0.5-1.2v-0.8
		c-0.2,0.3-0.5,0.6-0.9,0.8c-0.3,0.2-0.7,0.3-1.1,0.3c-0.5,0-0.9-0.1-1.3-0.3s-0.7-0.6-0.9-1c-0.2-0.4-0.3-0.9-0.3-1.4
		s0.1-1,0.3-1.4c0.2-0.4,0.5-0.7,0.9-1c0.4-0.2,0.8-0.3,1.3-0.3c0.4,0,0.8,0.1,1.1,0.3c0.3,0.2,0.6,0.4,0.9,0.8v-0.9h1.1V333.8z
		 M76.9,337.7c0.3-0.3,0.5-0.7,0.5-1.3c0-0.5-0.2-0.9-0.5-1.3c-0.3-0.3-0.7-0.5-1.3-0.5c-0.5,0-0.9,0.2-1.2,0.5s-0.5,0.7-0.5,1.3
		s0.2,0.9,0.5,1.3s0.7,0.5,1.2,0.5C76.2,338.1,76.6,338,76.9,337.7z"/>
	<path d="M80.3,332.7c-0.1-0.1-0.2-0.3-0.2-0.5s0.1-0.3,0.2-0.5s0.3-0.2,0.5-0.2s0.3,0.1,0.5,0.2c0.1,0.1,0.2,0.3,0.2,0.5
		s-0.1,0.3-0.2,0.5c-0.1,0.1-0.3,0.2-0.5,0.2C80.6,332.9,80.5,332.8,80.3,332.7z M80.3,333.8h1.1v5.7h-1.1V333.8z"/>
	<path d="M87.1,334c0.3,0.2,0.6,0.4,0.8,0.8c0.2,0.3,0.3,0.7,0.3,1.1v3.6h-1.1v-3.4c0-0.4-0.1-0.8-0.4-1c-0.2-0.3-0.6-0.4-0.9-0.4
		s-0.5,0.1-0.8,0.2s-0.4,0.3-0.6,0.5c-0.1,0.2-0.2,0.4-0.2,0.7v3.5h-1.1v-5.7h1.1v0.8c0.2-0.3,0.4-0.5,0.7-0.7s0.7-0.3,1.1-0.3
		S86.8,333.8,87.1,334z"/>
	<path d="M93.2,338.6c0.3-0.1,0.6-0.3,0.7-0.5l0.6,0.7c-0.2,0.3-0.6,0.5-1,0.6c-0.4,0.2-0.9,0.2-1.3,0.2c-0.5,0-1-0.1-1.5-0.4
		s-0.8-0.6-1.1-1.1c-0.3-0.5-0.4-1-0.4-1.5c0-0.6,0.1-1.1,0.4-1.5c0.3-0.5,0.6-0.8,1-1.1c0.4-0.3,0.9-0.4,1.4-0.4
		c0.6,0,1.1,0.1,1.5,0.4s0.7,0.7,0.9,1.2c0.2,0.5,0.3,1.1,0.3,1.8h-4.5c0.1,0.5,0.3,0.9,0.6,1.2c0.3,0.3,0.7,0.5,1.2,0.5
		C92.6,338.7,92.9,338.7,93.2,338.6z M91.1,335c-0.3,0.3-0.5,0.7-0.6,1.2H94c-0.1-0.5-0.2-0.9-0.5-1.2c-0.3-0.3-0.7-0.5-1.1-0.5
		C91.8,334.6,91.4,334.7,91.1,335z"/>
	<path d="M99.5,339.3c-0.4-0.8-0.6-1.7-0.6-2.7s0.2-1.8,0.6-2.7c0.4-0.8,1-1.5,1.7-2.1l0.6,0.6c-0.6,0.6-1.1,1.3-1.4,1.9
		s-0.4,1.4-0.4,2.3s0.1,1.6,0.4,2.3s0.7,1.3,1.4,1.9l-0.6,0.6C100.5,340.8,99.9,340.1,99.5,339.3z"/>
	<path d="M106.5,335.4h3.1v3c-0.4,0.4-0.8,0.6-1.4,0.9c-0.5,0.2-1.1,0.3-1.6,0.3c-0.7,0-1.3-0.2-1.9-0.5c-0.6-0.4-1.1-0.8-1.4-1.4
		c-0.4-0.6-0.5-1.2-0.5-1.9c0-0.7,0.2-1.3,0.5-1.9c0.4-0.6,0.8-1.1,1.4-1.4c0.6-0.4,1.2-0.5,1.9-0.5c0.5,0,1.1,0.1,1.6,0.3
		c0.5,0.2,1,0.5,1.4,0.9l-0.8,0.7c-0.3-0.3-0.6-0.5-1-0.7s-0.8-0.2-1.2-0.2c-0.5,0-1,0.1-1.4,0.4s-0.8,0.6-1,1.1
		c-0.3,0.4-0.4,0.9-0.4,1.4s0.1,1,0.4,1.4s0.6,0.8,1,1.1c0.4,0.3,0.9,0.4,1.4,0.4c0.3,0,0.7-0.1,1-0.2s0.6-0.3,0.9-0.5v-1.6h-2
		V335.4z"/>
	<path d="M111.5,332h1.1v3.9l3.6-3.9h1.4l-3.1,3.4l3.3,4.2h-1.4l-2.7-3.4l-1.1,1.2v2.2h-1.1C111.5,339.6,111.5,332,111.5,332z"/>
	<path d="M120.3,333v2.2h4v1h-4v2.3h4.4v1h-5.6V332h5.6v1H120.3z"/>
	<path d="M125.6,340.8c0.6-0.6,1.1-1.3,1.4-1.9s0.4-1.4,0.4-2.2c0-0.8-0.1-1.6-0.4-2.3c-0.3-0.7-0.7-1.3-1.4-1.9l0.6-0.6
		c0.8,0.6,1.3,1.3,1.7,2.1c0.4,0.8,0.6,1.7,0.6,2.7s-0.2,1.8-0.6,2.7c-0.4,0.8-1,1.5-1.7,2.1L125.6,340.8z"/>
</g>
<g>
	<path d="M185.3,320.1l-3.3,7.6h-1.2l-3.3-7.6h1.2l2.6,6.1l2.6-6.1H185.3z"/>
	<path d="M186.7,320.1h1.1l2.6,4.9l2.6-4.9h1.1v7.6H193v-5.4l-2.6,4.9l-2.6-4.9v5.4h-1.1V320.1z"/>
	<path d="M195.5,321.9h1.1l1.3,4.2l1.4-4.2h0.9l1.4,4.2l1.3-4.2h1.1l-1.9,5.7h-1l-1.4-4.2l-1.4,4.2h-1L195.5,321.9z"/>
	<path d="M209,322.4c0.4,0.4,0.6,1,0.6,1.7v3.4h-1.1v-0.8c-0.2,0.3-0.5,0.5-0.8,0.7s-0.7,0.2-1.1,0.2c-0.6,0-1.1-0.2-1.5-0.5
		s-0.6-0.8-0.6-1.3c0-0.4,0.1-0.7,0.3-1s0.5-0.5,0.8-0.7s0.7-0.2,1.1-0.2c0.5,0,1.1,0.1,1.7,0.3V324c0-0.4-0.1-0.8-0.3-1
		c-0.2-0.3-0.6-0.4-1.1-0.4c-0.4,0-1,0.2-1.6,0.5l-0.4-0.8c0.8-0.4,1.5-0.6,2.2-0.6C208,321.8,208.6,322,209,322.4z M208,326.6
		c0.3-0.2,0.5-0.4,0.6-0.8V325c-0.5-0.1-1-0.2-1.5-0.2c-0.4,0-0.7,0.1-1,0.3c-0.3,0.2-0.4,0.4-0.4,0.7c0,0.3,0.1,0.5,0.4,0.7
		c0.2,0.2,0.5,0.3,0.9,0.3C207.3,326.9,207.6,326.8,208,326.6z"/>
	<path d="M213.2,322.1c0.4-0.2,0.8-0.3,1.3-0.3v0.9c-0.4,0-0.8,0.1-1.1,0.2c-0.3,0.2-0.6,0.4-0.7,0.7c-0.2,0.3-0.3,0.6-0.3,1v3h-1.1
		v-5.7h1.1v1.1C212.6,322.6,212.8,322.3,213.2,322.1z"/>
	<path d="M219.2,326.6c0.3-0.1,0.6-0.3,0.7-0.5l0.6,0.7c-0.2,0.3-0.6,0.5-1,0.6c-0.4,0.2-0.9,0.2-1.3,0.2c-0.5,0-1-0.1-1.5-0.4
		s-0.8-0.6-1.1-1.1s-0.4-1-0.4-1.5c0-0.6,0.1-1.1,0.4-1.5c0.3-0.5,0.6-0.8,1-1.1c0.4-0.3,0.9-0.4,1.4-0.4c0.6,0,1.1,0.1,1.5,0.4
		s0.7,0.7,0.9,1.2s0.3,1.1,0.3,1.8h-4.5c0.1,0.5,0.3,0.9,0.6,1.2c0.3,0.3,0.7,0.5,1.2,0.5C218.6,326.8,218.9,326.8,219.2,326.6z
		 M217,323.1c-0.3,0.3-0.5,0.7-0.6,1.2h3.5c-0.1-0.5-0.2-0.9-0.5-1.2c-0.3-0.3-0.7-0.5-1.1-0.5C217.8,322.7,217.4,322.8,217,323.1z"
		/>
	<path d="M225.5,320.1h3.2c0.5,0,1,0.1,1.4,0.3c0.4,0.2,0.8,0.5,1,0.9s0.4,0.8,0.4,1.3s-0.1,0.9-0.4,1.3c-0.2,0.4-0.6,0.7-1,0.9
		c-0.4,0.2-0.9,0.3-1.4,0.3h-2.1v2.6h-1.1L225.5,320.1L225.5,320.1z M228.5,323.9c0.5,0,1-0.1,1.3-0.4s0.5-0.6,0.5-1s-0.2-0.8-0.5-1
		c-0.3-0.3-0.8-0.4-1.3-0.4h-1.9v2.9h1.9V323.9z"/>
	<path d="M232.9,320.8c-0.1-0.1-0.2-0.3-0.2-0.5s0.1-0.3,0.2-0.5s0.3-0.2,0.5-0.2s0.3,0.1,0.5,0.2c0.1,0.1,0.2,0.3,0.2,0.5
		s-0.1,0.3-0.2,0.5c-0.1,0.1-0.3,0.2-0.5,0.2S233,320.9,232.9,320.8z M232.8,321.9h1.1v5.7h-1.1V321.9z"/>
	<path d="M234.9,321.9h1.2l1.8,4.4l1.7-4.4h1.2l-2.4,5.7h-1L234.9,321.9z"/>
	<path d="M242.8,327.3c-0.5-0.3-0.8-0.6-1.1-1.1s-0.4-1-0.4-1.5s0.1-1,0.4-1.5c0.3-0.5,0.6-0.8,1.1-1.1c0.5-0.3,1-0.4,1.5-0.4
		s1,0.1,1.5,0.4s0.8,0.6,1.1,1.1s0.4,0.9,0.4,1.5c0,0.5-0.1,1-0.4,1.5c-0.3,0.5-0.6,0.8-1.1,1.1c-0.5,0.3-1,0.4-1.5,0.4
		C243.7,327.7,243.2,327.6,242.8,327.3z M245.2,326.5c0.3-0.2,0.5-0.4,0.7-0.7c0.2-0.3,0.3-0.7,0.3-1s-0.1-0.7-0.3-1
		s-0.4-0.6-0.7-0.7c-0.3-0.2-0.6-0.3-1-0.3c-0.3,0-0.7,0.1-1,0.3c-0.3,0.2-0.5,0.4-0.7,0.7c-0.2,0.3-0.3,0.7-0.3,1s0.1,0.7,0.3,1
		s0.4,0.6,0.7,0.7c0.3,0.2,0.6,0.3,1,0.3C244.6,326.8,244.9,326.7,245.2,326.5z"/>
	<path d="M251.4,327.3c-0.2,0.1-0.3,0.2-0.5,0.3s-0.4,0.1-0.6,0.1c-0.4,0-0.8-0.1-1.1-0.4s-0.4-0.7-0.4-1.1v-3.3H248V322h0.8v-1.6
		h1.1v1.6h1.3v0.9h-1.3v3.3c0,0.2,0.1,0.4,0.2,0.5c0.1,0.1,0.3,0.2,0.4,0.2c0.1,0,0.2,0,0.3-0.1c0.1,0,0.2-0.1,0.2-0.1L251.4,327.3z
		"/>
	<path d="M256.4,322.4c0.4,0.4,0.6,1,0.6,1.7v3.4h-1v-0.8c-0.2,0.3-0.5,0.5-0.8,0.7s-0.7,0.2-1.1,0.2c-0.6,0-1.1-0.2-1.5-0.5
		s-0.6-0.8-0.6-1.3c0-0.4,0.1-0.7,0.3-1s0.5-0.5,0.8-0.7s0.7-0.2,1.1-0.2c0.5,0,1.1,0.1,1.7,0.3V324c0-0.4-0.1-0.8-0.3-1
		c-0.2-0.3-0.6-0.4-1.1-0.4c-0.4,0-1,0.2-1.6,0.5l-0.4-0.8c0.8-0.4,1.5-0.6,2.2-0.6C255.4,321.8,256,322,256.4,322.4z M255.4,326.6
		c0.3-0.2,0.5-0.4,0.6-0.8V325c-0.5-0.1-1-0.2-1.5-0.2c-0.4,0-0.7,0.1-1,0.3c-0.3,0.2-0.4,0.4-0.4,0.7c0,0.3,0.1,0.5,0.4,0.7
		c0.2,0.2,0.5,0.3,0.9,0.3C254.7,326.9,255.1,326.8,255.4,326.6z"/>
	<path d="M258.7,319.9h1.1v7.7h-1.1V319.9z"/>
	<path d="M172,339.1c-0.6-0.4-1.1-0.8-1.4-1.4c-0.4-0.6-0.5-1.2-0.5-1.9c0-0.7,0.2-1.3,0.5-1.9c0.4-0.6,0.8-1.1,1.4-1.4
		c0.6-0.4,1.2-0.5,1.9-0.5c0.5,0,1,0.1,1.5,0.3c0.5,0.2,0.9,0.5,1.3,0.9l-0.8,0.7c-0.3-0.3-0.6-0.5-0.9-0.7s-0.7-0.2-1.1-0.2
		c-0.5,0-1,0.1-1.4,0.4s-0.8,0.6-1,1.1c-0.3,0.4-0.4,0.9-0.4,1.4s0.1,1,0.4,1.4s0.6,0.8,1,1.1c0.4,0.3,0.9,0.4,1.4,0.4
		c0.4,0,0.7-0.1,1.1-0.2s0.7-0.4,0.9-0.7l0.8,0.7c-0.4,0.4-0.8,0.7-1.3,0.9c-0.5,0.2-1,0.3-1.5,0.3
		C173.2,339.6,172.6,339.5,172,339.1z"/>
	<path d="M179,339.2c-0.5-0.3-0.8-0.6-1.1-1.1s-0.4-1-0.4-1.5s0.1-1,0.4-1.5c0.3-0.5,0.6-0.8,1.1-1.1c0.5-0.3,1-0.4,1.5-0.4
		s1,0.1,1.5,0.4s0.8,0.6,1.1,1.1s0.4,0.9,0.4,1.5c0,0.5-0.1,1-0.4,1.5c-0.3,0.5-0.6,0.8-1.1,1.1c-0.5,0.3-1,0.4-1.5,0.4
		S179.5,339.5,179,339.2z M181.5,338.4c0.3-0.2,0.5-0.4,0.7-0.7c0.2-0.3,0.3-0.7,0.3-1s-0.1-0.7-0.3-1s-0.4-0.6-0.7-0.7
		c-0.3-0.2-0.6-0.3-1-0.3c-0.3,0-0.7,0.1-1,0.3c-0.3,0.2-0.5,0.4-0.7,0.7c-0.2,0.3-0.3,0.7-0.3,1s0.1,0.7,0.3,1s0.4,0.6,0.7,0.7
		c0.3,0.2,0.6,0.3,1,0.3C180.9,338.7,181.2,338.6,181.5,338.4z"/>
	<path d="M188.8,334c0.3,0.2,0.6,0.4,0.8,0.8c0.2,0.3,0.3,0.7,0.3,1.1v3.6h-1.1v-3.4c0-0.4-0.1-0.8-0.4-1c-0.2-0.3-0.6-0.4-0.9-0.4
		c-0.3,0-0.5,0.1-0.8,0.2s-0.4,0.3-0.6,0.5c-0.1,0.2-0.2,0.4-0.2,0.7v3.5h-1.1v-5.7h1.1v0.8c0.2-0.3,0.4-0.5,0.7-0.7
		s0.7-0.3,1.1-0.3C188.1,333.7,188.5,333.8,188.8,334z"/>
	<path d="M194.3,339.2c-0.2,0.1-0.3,0.2-0.5,0.3s-0.4,0.1-0.6,0.1c-0.4,0-0.8-0.1-1.1-0.4s-0.4-0.7-0.4-1.1v-3.3h-0.8v-0.9h0.8v-1.6
		h1.1v1.6h1.3v0.9h-1.3v3.3c0,0.2,0.1,0.4,0.2,0.5c0.1,0.1,0.3,0.2,0.4,0.2c0.1,0,0.2,0,0.3-0.1c0.1,0,0.2-0.1,0.2-0.1L194.3,339.2z
		"/>
	<path d="M199.4,334.3c0.4,0.4,0.6,1,0.6,1.7v3.4h-1.1v-0.8c-0.2,0.3-0.5,0.5-0.8,0.7s-0.7,0.2-1.1,0.2c-0.6,0-1.1-0.2-1.5-0.5
		s-0.6-0.8-0.6-1.3c0-0.4,0.1-0.7,0.3-1s0.5-0.5,0.8-0.7s0.7-0.2,1.1-0.2c0.5,0,1.1,0.1,1.7,0.3v-0.2c0-0.4-0.1-0.8-0.3-1
		c-0.2-0.3-0.6-0.4-1.1-0.4c-0.4,0-1,0.2-1.6,0.5l-0.4-0.8c0.8-0.4,1.5-0.6,2.2-0.6C198.4,333.7,199,333.9,199.4,334.3z
		 M198.3,338.5c0.3-0.2,0.5-0.4,0.6-0.8V337c-0.5-0.1-1-0.2-1.5-0.2c-0.4,0-0.7,0.1-1,0.3c-0.3,0.2-0.4,0.4-0.4,0.7
		c0,0.3,0.1,0.5,0.4,0.7c0.2,0.2,0.5,0.3,0.9,0.3C197.6,338.8,198,338.7,198.3,338.5z"/>
	<path d="M201.7,332.7c-0.1-0.1-0.2-0.3-0.2-0.5s0.1-0.3,0.2-0.5s0.3-0.2,0.5-0.2s0.3,0.1,0.5,0.2c0.1,0.1,0.2,0.3,0.2,0.5
		s-0.1,0.3-0.2,0.5c-0.1,0.1-0.3,0.2-0.5,0.2C202,332.9,201.9,332.8,201.7,332.7z M201.7,333.8h1.1v5.7h-1.1V333.8z"/>
	<path d="M208.5,334c0.3,0.2,0.6,0.4,0.8,0.8c0.2,0.3,0.3,0.7,0.3,1.1v3.6h-1.1v-3.4c0-0.4-0.1-0.8-0.4-1c-0.2-0.3-0.6-0.4-0.9-0.4
		c-0.3,0-0.5,0.1-0.8,0.2s-0.4,0.3-0.6,0.5c-0.1,0.2-0.2,0.4-0.2,0.7v3.5h-1.1v-5.7h1.1v0.8c0.2-0.3,0.4-0.5,0.7-0.7
		s0.7-0.3,1.1-0.3C207.8,333.7,208.2,333.8,208.5,334z"/>
	<path d="M214.6,338.6c0.3-0.1,0.6-0.3,0.7-0.5l0.6,0.7c-0.2,0.3-0.6,0.5-1,0.6c-0.4,0.2-0.9,0.2-1.3,0.2c-0.5,0-1-0.1-1.5-0.4
		s-0.8-0.6-1.1-1.1s-0.4-1-0.4-1.5c0-0.6,0.1-1.1,0.4-1.5c0.3-0.5,0.6-0.8,1-1.1c0.4-0.3,0.9-0.4,1.4-0.4c0.6,0,1.1,0.1,1.5,0.4
		s0.7,0.7,0.9,1.2s0.3,1.1,0.3,1.8h-4.5c0.1,0.5,0.3,0.9,0.6,1.2c0.3,0.3,0.7,0.5,1.2,0.5C214,338.7,214.3,338.7,214.6,338.6z
		 M212.5,335c-0.3,0.3-0.5,0.7-0.6,1.2h3.5c-0.1-0.5-0.2-0.9-0.5-1.2c-0.3-0.3-0.7-0.5-1.1-0.5C213.2,334.6,212.8,334.7,212.5,335z"
		/>
	<path d="M219.6,334c0.4-0.2,0.8-0.3,1.3-0.3v0.9c-0.4,0-0.8,0.1-1.1,0.2c-0.3,0.2-0.6,0.4-0.7,0.7c-0.2,0.3-0.3,0.6-0.3,1v3h-1.1
		v-5.7h1.1v1.1C218.9,334.6,219.2,334.3,219.6,334z"/>
	<path d="M224.7,338.4l0.7-0.8c0.7,0.7,1.6,1.1,2.5,1.1c0.5,0,0.9-0.1,1.2-0.3c0.3-0.2,0.4-0.5,0.4-0.8s-0.1-0.6-0.4-0.8
		s-0.8-0.3-1.5-0.5c-0.6-0.1-1-0.3-1.4-0.5s-0.6-0.4-0.9-0.7s-0.3-0.6-0.3-1.1c0-0.4,0.1-0.8,0.3-1.1c0.2-0.3,0.5-0.6,0.9-0.8
		s0.8-0.3,1.3-0.3s1,0.1,1.5,0.3c0.5,0.2,0.9,0.4,1.2,0.8l-0.6,0.8c-0.3-0.3-0.7-0.5-1-0.7s-0.7-0.2-1.1-0.2c-0.3,0-0.5,0.1-0.7,0.2
		s-0.4,0.2-0.5,0.4s-0.2,0.4-0.2,0.6s0.1,0.4,0.2,0.6s0.3,0.3,0.6,0.4s0.6,0.2,1.1,0.3c0.8,0.2,1.5,0.5,1.9,0.8s0.6,0.8,0.6,1.4
		c0,0.4-0.1,0.8-0.3,1.2c-0.2,0.3-0.5,0.6-0.9,0.8s-0.9,0.3-1.5,0.3C226.6,339.6,225.6,339.2,224.7,338.4z"/>
	<path d="M235.4,338.6c0.3-0.1,0.6-0.3,0.7-0.5l0.6,0.7c-0.2,0.3-0.6,0.5-1,0.6c-0.4,0.2-0.9,0.2-1.3,0.2c-0.5,0-1-0.1-1.5-0.4
		s-0.8-0.6-1.1-1.1s-0.4-1-0.4-1.5c0-0.6,0.1-1.1,0.4-1.5c0.3-0.5,0.6-0.8,1-1.1c0.4-0.3,0.9-0.4,1.4-0.4c0.6,0,1.1,0.1,1.5,0.4
		s0.7,0.7,0.9,1.2s0.3,1.1,0.3,1.8h-4.5c0.1,0.5,0.3,0.9,0.6,1.2c0.3,0.3,0.7,0.5,1.2,0.5C234.8,338.7,235.1,338.7,235.4,338.6z
		 M233.3,335c-0.3,0.3-0.5,0.7-0.6,1.2h3.5c-0.1-0.5-0.2-0.9-0.5-1.2c-0.3-0.3-0.7-0.5-1.1-0.5C234,334.6,233.6,334.7,233.3,335z"/>
	<path d="M240.4,334c0.4-0.2,0.8-0.3,1.3-0.3v0.9c-0.4,0-0.8,0.1-1.1,0.2c-0.3,0.2-0.6,0.4-0.7,0.7c-0.2,0.3-0.3,0.6-0.3,1v3h-1.1
		v-5.7h1.1v1.1C239.7,334.6,240,334.3,240.4,334z"/>
	<path d="M242.2,333.8h1.2l1.8,4.4l1.7-4.4h1.2l-2.4,5.7h-1L242.2,333.8z"/>
	<path d="M249.1,332.7c-0.1-0.1-0.2-0.3-0.2-0.5s0.1-0.3,0.2-0.5s0.3-0.2,0.5-0.2s0.3,0.1,0.5,0.2c0.1,0.1,0.2,0.3,0.2,0.5
		s-0.1,0.3-0.2,0.5c-0.1,0.1-0.3,0.2-0.5,0.2C249.4,332.9,249.2,332.8,249.1,332.7z M249,333.8h1.1v5.7H249V333.8z"/>
	<path d="M252.9,339.2c-0.5-0.3-0.8-0.6-1.1-1.1s-0.4-1-0.4-1.5s0.1-1,0.4-1.5c0.3-0.5,0.6-0.8,1.1-1.1c0.5-0.3,1-0.4,1.5-0.4
		c0.4,0,0.8,0.1,1.1,0.2c0.4,0.2,0.7,0.4,1,0.6l-0.7,0.7c-0.2-0.2-0.4-0.3-0.6-0.5c-0.2-0.1-0.5-0.2-0.7-0.2c-0.3,0-0.7,0.1-0.9,0.3
		c-0.3,0.2-0.5,0.4-0.7,0.7c-0.2,0.3-0.3,0.6-0.3,1s0.1,0.7,0.3,1s0.4,0.6,0.7,0.7c0.3,0.2,0.6,0.3,0.9,0.3c0.3,0,0.5-0.1,0.8-0.2
		s0.5-0.3,0.6-0.5l0.7,0.7c-0.3,0.3-0.6,0.5-1,0.7s-0.7,0.2-1.2,0.2C253.9,339.6,253.4,339.5,252.9,339.2z"/>
	<path d="M261.1,338.6c0.3-0.1,0.6-0.3,0.7-0.5l0.6,0.7c-0.2,0.3-0.6,0.5-1,0.6c-0.4,0.2-0.9,0.2-1.3,0.2c-0.5,0-1-0.1-1.5-0.4
		s-0.8-0.6-1.1-1.1c-0.3-0.5-0.4-1-0.4-1.5c0-0.6,0.1-1.1,0.4-1.5c0.3-0.5,0.6-0.8,1-1.1c0.4-0.3,0.9-0.4,1.4-0.4
		c0.6,0,1.1,0.1,1.5,0.4s0.7,0.7,0.9,1.2c0.2,0.5,0.3,1.1,0.3,1.8h-4.5c0.1,0.5,0.3,0.9,0.6,1.2c0.3,0.3,0.7,0.5,1.2,0.5
		C260.5,338.7,260.8,338.7,261.1,338.6z M258.9,335c-0.3,0.3-0.5,0.7-0.6,1.2h3.5c-0.1-0.5-0.2-0.9-0.5-1.2
		c-0.3-0.3-0.7-0.5-1.1-0.5C259.7,334.6,259.3,334.7,258.9,335z"/>
	<path d="M264.7,339.4c-0.4-0.1-0.8-0.4-1.1-0.6l0.5-0.7c0.3,0.2,0.6,0.4,1,0.5c0.3,0.1,0.7,0.2,1,0.2s0.6-0.1,0.8-0.2
		c0.2-0.1,0.3-0.3,0.3-0.6c0-0.2-0.1-0.4-0.3-0.5s-0.5-0.2-1-0.4c-0.7-0.2-1.2-0.4-1.5-0.6s-0.5-0.6-0.5-1c0-0.5,0.2-0.9,0.6-1.3
		c0.4-0.3,0.9-0.5,1.5-0.5c0.4,0,0.7,0.1,1.1,0.2s0.7,0.3,1,0.5l-0.5,0.8c-0.6-0.4-1.1-0.5-1.6-0.5c-0.3,0-0.5,0.1-0.7,0.2
		s-0.3,0.3-0.3,0.5c0,0.1,0,0.3,0.1,0.4s0.2,0.2,0.4,0.2c0.2,0.1,0.5,0.2,0.8,0.3c0.4,0.1,0.7,0.2,1,0.4c0.3,0.1,0.5,0.3,0.7,0.5
		s0.3,0.5,0.3,0.9c0,0.5-0.2,1-0.6,1.3s-0.9,0.5-1.6,0.5C265.6,339.6,265.1,339.6,264.7,339.4z"/>
	<path d="M206.9,351.2c-0.4-0.8-0.6-1.7-0.6-2.7s0.2-1.8,0.6-2.7c0.4-0.8,1-1.5,1.7-2.1l0.6,0.6c-0.6,0.6-1.1,1.3-1.4,1.9
		s-0.4,1.4-0.4,2.3s0.1,1.6,0.4,2.3s0.7,1.3,1.4,1.9l-0.6,0.6C207.9,352.7,207.3,352,206.9,351.2z"/>
	<path d="M210.6,343.9h3.2c0.5,0,1,0.1,1.4,0.3c0.4,0.2,0.8,0.5,1,0.9s0.4,0.8,0.4,1.3s-0.1,0.9-0.4,1.3c-0.2,0.4-0.6,0.7-1,0.9
		c-0.4,0.2-0.9,0.3-1.4,0.3h-2.1v2.6h-1.1L210.6,343.9L210.6,343.9z M213.6,347.8c0.5,0,1-0.1,1.3-0.4s0.5-0.6,0.5-1s-0.2-0.8-0.5-1
		c-0.3-0.3-0.8-0.4-1.3-0.4h-1.9v2.9h1.9V347.8z"/>
	<path d="M218.1,343.9h1.1v3.9l3.6-3.9h1.4l-3.1,3.4l3.3,4.2H223l-2.7-3.4l-1.1,1.2v2.2h-1.1L218.1,343.9L218.1,343.9z"/>
	<path d="M225.2,350.3l0.7-0.8c0.7,0.7,1.6,1.1,2.5,1.1c0.5,0,0.9-0.1,1.2-0.3c0.3-0.2,0.4-0.5,0.4-0.8s-0.1-0.6-0.4-0.8
		s-0.8-0.3-1.5-0.5c-0.6-0.1-1-0.3-1.4-0.5s-0.6-0.4-0.9-0.7s-0.3-0.6-0.3-1.1c0-0.4,0.1-0.8,0.3-1.1c0.2-0.3,0.5-0.6,0.9-0.8
		s0.8-0.3,1.3-0.3s1,0.1,1.5,0.3c0.5,0.2,0.9,0.4,1.2,0.8l-0.6,0.8c-0.3-0.3-0.7-0.5-1-0.7s-0.7-0.2-1.1-0.2c-0.3,0-0.5,0.1-0.7,0.2
		s-0.4,0.2-0.5,0.4s-0.2,0.4-0.2,0.6s0.1,0.4,0.2,0.6s0.3,0.3,0.6,0.4s0.6,0.2,1.1,0.3c0.8,0.2,1.5,0.5,1.9,0.8s0.6,0.8,0.6,1.4
		c0,0.4-0.1,0.8-0.3,1.2c-0.2,0.3-0.5,0.6-0.9,0.8s-0.9,0.3-1.5,0.3C227,351.5,226,351.1,225.2,350.3z"/>
	<path d="M231.8,352.7c0.6-0.6,1.1-1.3,1.4-1.9s0.4-1.4,0.4-2.2c0-0.8-0.1-1.6-0.4-2.3c-0.3-0.7-0.7-1.3-1.4-1.9l0.6-0.6
		c0.8,0.6,1.3,1.3,1.7,2.1c0.4,0.8,0.6,1.7,0.6,2.7s-0.2,1.8-0.6,2.7c-0.4,0.8-1,1.5-1.7,2.1L231.8,352.7z"/>
</g>
<g>
	<path d="M311.5,325.7h-3.9l-0.7,1.6h-1.2l3.2-7.6h1.2l3.2,7.6h-1.2L311.5,325.7z M311.1,324.8l-1.5-3.6l-1.5,3.6H311.1z"/>
	<path d="M322,321.8c0.3,0.2,0.6,0.4,0.7,0.8c0.2,0.3,0.3,0.7,0.3,1.1v3.6h-1.1v-3.5c0-0.4-0.1-0.8-0.3-1c-0.2-0.3-0.5-0.4-0.9-0.4
		s-0.7,0.1-1,0.4c-0.3,0.2-0.4,0.6-0.4,1v3.5h-1.1v-3.5c0-0.4-0.1-0.8-0.3-1c-0.2-0.3-0.5-0.4-0.9-0.4s-0.7,0.1-1,0.4
		c-0.3,0.2-0.4,0.6-0.4,1v3.5h-1.1v-5.7h1.1v0.8c0.1-0.3,0.4-0.5,0.6-0.7c0.3-0.2,0.6-0.3,1-0.3s0.8,0.1,1.2,0.4
		c0.3,0.2,0.6,0.6,0.7,1c0.1-0.4,0.3-0.7,0.6-1c0.3-0.2,0.7-0.4,1.1-0.4C321.3,321.5,321.6,321.6,322,321.8z"/>
	<path d="M328.5,322.1c0.4,0.4,0.6,1,0.6,1.7v3.4H328v-0.8c-0.2,0.3-0.5,0.5-0.8,0.7s-0.7,0.2-1.1,0.2c-0.6,0-1.1-0.2-1.5-0.5
		s-0.6-0.8-0.6-1.3c0-0.4,0.1-0.7,0.3-1c0.2-0.3,0.5-0.5,0.8-0.7s0.7-0.2,1.1-0.2c0.5,0,1.1,0.1,1.7,0.3v-0.2c0-0.4-0.1-0.8-0.3-1
		c-0.2-0.3-0.6-0.4-1.1-0.4c-0.4,0-1,0.2-1.6,0.5l-0.4-0.8c0.8-0.4,1.5-0.6,2.2-0.6C327.5,321.5,328.1,321.7,328.5,322.1z
		 M327.5,326.3c0.3-0.2,0.5-0.4,0.6-0.8v-0.8c-0.5-0.1-1-0.2-1.5-0.2c-0.4,0-0.7,0.1-1,0.3c-0.3,0.2-0.4,0.4-0.4,0.7
		c0,0.3,0.1,0.5,0.4,0.7c0.2,0.2,0.5,0.3,0.9,0.3C326.8,326.6,327.1,326.5,327.5,326.3z"/>
	<path d="M330.3,326.5l3.2-3.9h-3.1v-1h4.6v0.8l-3.2,3.9h3.2v1h-4.6v-0.8H330.3z"/>
	<path d="M337.2,327c-0.5-0.3-0.8-0.6-1.1-1.1c-0.3-0.5-0.4-1-0.4-1.5s0.1-1,0.4-1.5s0.6-0.8,1.1-1.1c0.5-0.3,1-0.4,1.5-0.4
		s1,0.1,1.5,0.4s0.8,0.6,1.1,1.1c0.3,0.5,0.4,0.9,0.4,1.5c0,0.5-0.1,1-0.4,1.5s-0.6,0.8-1.1,1.1c-0.5,0.3-1,0.4-1.5,0.4
		S337.7,327.3,337.2,327z M339.7,326.2c0.3-0.2,0.5-0.4,0.7-0.7c0.2-0.3,0.3-0.7,0.3-1s-0.1-0.7-0.3-1c-0.2-0.3-0.4-0.6-0.7-0.7
		c-0.3-0.2-0.6-0.3-1-0.3c-0.3,0-0.7,0.1-1,0.3c-0.3,0.2-0.5,0.4-0.7,0.7c-0.2,0.3-0.3,0.7-0.3,1s0.1,0.7,0.3,1
		c0.2,0.3,0.4,0.6,0.7,0.7c0.3,0.2,0.6,0.3,1,0.3S339.4,326.4,339.7,326.2z"/>
	<path d="M347,321.8c0.3,0.2,0.6,0.4,0.8,0.8c0.2,0.3,0.3,0.7,0.3,1.1v3.6H347v-3.4c0-0.4-0.1-0.8-0.4-1c-0.2-0.3-0.6-0.4-0.9-0.4
		s-0.5,0.1-0.8,0.2s-0.4,0.3-0.6,0.5c-0.1,0.2-0.2,0.4-0.2,0.7v3.5H343v-5.7h1.1v0.8c0.2-0.3,0.4-0.5,0.7-0.7s0.7-0.3,1.1-0.3
		C346.3,321.5,346.7,321.6,347,321.8z"/>
	<path d="M354.1,320.8v2.2h4v1h-4v2.3h4.4v1H353v-7.6h5.6v1h-4.5V320.8z"/>
	<path d="M360,319.6h1.1v7.7H360V319.6z"/>
	<path d="M366.8,322.1c0.4,0.4,0.6,1,0.6,1.7v3.4h-1.1v-0.8c-0.2,0.3-0.5,0.5-0.8,0.7s-0.7,0.2-1.1,0.2c-0.6,0-1.1-0.2-1.5-0.5
		s-0.6-0.8-0.6-1.3c0-0.4,0.1-0.7,0.3-1c0.2-0.3,0.5-0.5,0.8-0.7s0.7-0.2,1.1-0.2c0.5,0,1.1,0.1,1.7,0.3v-0.2c0-0.4-0.1-0.8-0.3-1
		c-0.2-0.3-0.6-0.4-1.1-0.4c-0.4,0-1,0.2-1.6,0.5l-0.4-0.8c0.8-0.4,1.5-0.6,2.2-0.6C365.8,321.5,366.4,321.7,366.8,322.1z
		 M365.7,326.3c0.3-0.2,0.5-0.4,0.6-0.8v-0.8c-0.5-0.1-1-0.2-1.5-0.2c-0.4,0-0.7,0.1-1,0.3c-0.3,0.2-0.4,0.4-0.4,0.7
		c0,0.3,0.1,0.5,0.4,0.7c0.2,0.2,0.5,0.3,0.9,0.3C365.1,326.6,365.4,326.5,365.7,326.3z"/>
	<path d="M369.7,327.2c-0.4-0.1-0.8-0.4-1.1-0.6l0.5-0.7c0.3,0.2,0.6,0.4,1,0.5c0.3,0.1,0.7,0.2,1,0.2s0.6-0.1,0.8-0.2
		c0.2-0.1,0.3-0.3,0.3-0.6c0-0.2-0.1-0.4-0.3-0.5s-0.5-0.2-1-0.4c-0.7-0.2-1.2-0.4-1.5-0.6s-0.5-0.6-0.5-1c0-0.5,0.2-0.9,0.6-1.3
		c0.4-0.3,0.9-0.5,1.5-0.5c0.4,0,0.7,0.1,1.1,0.2s0.7,0.3,1,0.5l-0.5,0.8c-0.6-0.4-1.1-0.5-1.6-0.5c-0.3,0-0.5,0.1-0.7,0.2
		s-0.3,0.3-0.3,0.5c0,0.1,0,0.3,0.1,0.4s0.2,0.2,0.4,0.2c0.2,0.1,0.5,0.2,0.8,0.3c0.4,0.1,0.7,0.2,1,0.4c0.3,0.1,0.5,0.3,0.7,0.5
		s0.3,0.5,0.3,0.9c0,0.5-0.2,1-0.6,1.3s-0.9,0.5-1.6,0.5C370.5,327.4,370.1,327.4,369.7,327.2z"/>
	<path d="M377.3,327c-0.2,0.1-0.3,0.2-0.5,0.3s-0.4,0.1-0.6,0.1c-0.4,0-0.8-0.1-1.1-0.4c-0.3-0.3-0.4-0.7-0.4-1.1v-3.3h-0.8v-0.9
		h0.8v-1.6h1.1v1.6h1.3v0.9h-1.3v3.3c0,0.2,0.1,0.4,0.2,0.5s0.3,0.2,0.4,0.2s0.2,0,0.3-0.1c0.1,0,0.2-0.1,0.2-0.1L377.3,327z"/>
	<path d="M378.5,320.5c-0.1-0.1-0.2-0.3-0.2-0.5s0.1-0.3,0.2-0.5s0.3-0.2,0.5-0.2s0.3,0.1,0.5,0.2c0.1,0.1,0.2,0.3,0.2,0.5
		s-0.1,0.3-0.2,0.5c-0.1,0.1-0.3,0.2-0.5,0.2S378.6,320.6,378.5,320.5z M378.4,321.6h1.1v5.7h-1.1V321.6z"/>
	<path d="M382.3,327c-0.5-0.3-0.8-0.6-1.1-1.1c-0.3-0.5-0.4-1-0.4-1.5s0.1-1,0.4-1.5s0.6-0.8,1.1-1.1c0.5-0.3,1-0.4,1.5-0.4
		c0.4,0,0.8,0.1,1.1,0.2c0.4,0.2,0.7,0.4,1,0.6l-0.7,0.7c-0.2-0.2-0.4-0.3-0.6-0.5c-0.2-0.1-0.5-0.2-0.7-0.2c-0.3,0-0.7,0.1-0.9,0.3
		c-0.3,0.2-0.5,0.4-0.7,0.7c-0.2,0.3-0.3,0.6-0.3,1s0.1,0.7,0.3,1c0.2,0.3,0.4,0.6,0.7,0.7c0.3,0.2,0.6,0.3,0.9,0.3s0.5-0.1,0.8-0.2
		s0.5-0.3,0.6-0.5l0.7,0.7c-0.3,0.3-0.6,0.5-1,0.7s-0.7,0.2-1.2,0.2C383.2,327.4,382.7,327.3,382.3,327z"/>
	<path d="M295.3,331.7h1.1v3.9l3.6-3.9h1.4l-3.1,3.4l3.3,4.2h-1.4l-2.7-3.4l-1.1,1.2v2.2h-1.1L295.3,331.7L295.3,331.7z"/>
	<path d="M307.6,333.5v5.7h-1.1v-0.8c-0.2,0.3-0.4,0.5-0.7,0.7c-0.3,0.2-0.7,0.3-1.1,0.3s-0.8-0.1-1.1-0.3c-0.3-0.2-0.6-0.4-0.8-0.8
		c-0.2-0.3-0.3-0.7-0.3-1.1v-3.6h1.1v3.4c0,0.4,0.1,0.8,0.4,1s0.6,0.4,0.9,0.4s0.5-0.1,0.8-0.2c0.2-0.1,0.4-0.3,0.6-0.5
		c0.1-0.2,0.2-0.4,0.2-0.7v-3.5H307.6z"/>
	<path d="M313.9,333.8c0.4,0.3,0.7,0.6,0.9,1.1c0.2,0.5,0.3,1,0.3,1.5s-0.1,1.1-0.3,1.5c-0.2,0.5-0.5,0.8-0.9,1.1
		c-0.4,0.3-0.8,0.4-1.3,0.4c-0.4,0-0.8-0.1-1.2-0.3c-0.4-0.2-0.6-0.5-0.9-0.8v1h-1.1v-7.7h1.1v3c0.2-0.4,0.5-0.6,0.9-0.8
		c0.4-0.2,0.7-0.3,1.2-0.3C313,333.4,313.5,333.5,313.9,333.8z M313.2,338.1c0.3-0.2,0.5-0.4,0.6-0.7s0.2-0.7,0.2-1
		c0-0.4-0.1-0.7-0.2-1s-0.4-0.5-0.6-0.7c-0.3-0.2-0.6-0.3-0.9-0.3s-0.6,0.1-0.9,0.3s-0.5,0.4-0.6,0.7c-0.1,0.3-0.2,0.7-0.2,1
		c0,0.4,0.1,0.7,0.2,1c0.2,0.3,0.4,0.6,0.6,0.7s0.6,0.3,0.9,0.3S312.9,338.3,313.2,338.1z"/>
	<path d="M319.9,338.3c0.3-0.1,0.6-0.3,0.7-0.5l0.6,0.7c-0.2,0.3-0.6,0.5-1,0.6c-0.4,0.2-0.9,0.2-1.3,0.2c-0.5,0-1-0.1-1.5-0.4
		s-0.8-0.6-1.1-1.1c-0.3-0.5-0.4-1-0.4-1.5c0-0.6,0.1-1.1,0.4-1.5c0.3-0.5,0.6-0.8,1-1.1c0.4-0.3,0.9-0.4,1.4-0.4
		c0.6,0,1.1,0.1,1.5,0.4s0.7,0.7,0.9,1.2c0.2,0.5,0.3,1.1,0.3,1.8h-4.5c0.1,0.5,0.3,0.9,0.6,1.2c0.3,0.3,0.7,0.5,1.2,0.5
		C319.3,338.4,319.6,338.4,319.9,338.3z M317.8,334.7c-0.3,0.3-0.5,0.7-0.6,1.2h3.5c-0.1-0.5-0.2-0.9-0.5-1.2
		c-0.3-0.3-0.7-0.5-1.1-0.5C318.5,334.3,318.1,334.4,317.8,334.7z"/>
	<path d="M324.9,333.7c0.4-0.2,0.8-0.3,1.3-0.3v0.9c-0.4,0-0.8,0.1-1.1,0.2c-0.3,0.2-0.6,0.4-0.7,0.7c-0.2,0.3-0.3,0.6-0.3,1v3H323
		v-5.7h1.1v1.1C324.2,334.3,324.5,334,324.9,333.7z"/>
	<path d="M331.4,333.7c0.3,0.2,0.6,0.4,0.8,0.8c0.2,0.3,0.3,0.7,0.3,1.1v3.6h-1.1v-3.4c0-0.4-0.1-0.8-0.4-1
		c-0.2-0.3-0.6-0.4-0.9-0.4s-0.5,0.1-0.8,0.2s-0.4,0.3-0.6,0.5c-0.1,0.2-0.2,0.4-0.2,0.7v3.5h-1.1v-5.7h1.1v0.8
		c0.2-0.3,0.4-0.5,0.7-0.7s0.7-0.3,1.1-0.3C330.7,333.4,331.1,333.5,331.4,333.7z"/>
	<path d="M337.5,338.3c0.3-0.1,0.6-0.3,0.7-0.5l0.6,0.7c-0.2,0.3-0.6,0.5-1,0.6c-0.4,0.2-0.9,0.2-1.3,0.2c-0.5,0-1-0.1-1.5-0.4
		s-0.8-0.6-1.1-1.1c-0.3-0.5-0.4-1-0.4-1.5c0-0.6,0.1-1.1,0.4-1.5c0.3-0.5,0.6-0.8,1-1.1c0.4-0.3,0.9-0.4,1.4-0.4
		c0.6,0,1.1,0.1,1.5,0.4s0.7,0.7,0.9,1.2c0.2,0.5,0.3,1.1,0.3,1.8h-4.5c0.1,0.5,0.3,0.9,0.6,1.2c0.3,0.3,0.7,0.5,1.2,0.5
		C336.9,338.4,337.2,338.4,337.5,338.3z M335.4,334.7c-0.3,0.3-0.5,0.7-0.6,1.2h3.5c-0.1-0.5-0.2-0.9-0.5-1.2
		c-0.3-0.3-0.7-0.5-1.1-0.5C336.1,334.3,335.7,334.4,335.4,334.7z"/>
	<path d="M343.4,338.9c-0.2,0.1-0.3,0.2-0.5,0.3s-0.4,0.1-0.6,0.1c-0.4,0-0.8-0.1-1.1-0.4c-0.3-0.3-0.4-0.7-0.4-1.1v-3.3H340v-0.9
		h0.8V332h1.1v1.6h1.3v0.9h-1.3v3.3c0,0.2,0.1,0.4,0.2,0.5s0.3,0.2,0.4,0.2s0.2,0,0.3-0.1c0.1,0,0.2-0.1,0.2-0.1L343.4,338.9z"/>
	<path d="M347.9,338.3c0.3-0.1,0.6-0.3,0.7-0.5l0.6,0.7c-0.2,0.3-0.6,0.5-1,0.6c-0.4,0.2-0.9,0.2-1.3,0.2c-0.5,0-1-0.1-1.5-0.4
		s-0.8-0.6-1.1-1.1c-0.3-0.5-0.4-1-0.4-1.5c0-0.6,0.1-1.1,0.4-1.5c0.3-0.5,0.6-0.8,1-1.1c0.4-0.3,0.9-0.4,1.4-0.4
		c0.6,0,1.1,0.1,1.5,0.4s0.7,0.7,0.9,1.2c0.2,0.5,0.3,1.1,0.3,1.8h-4.5c0.1,0.5,0.3,0.9,0.6,1.2c0.3,0.3,0.7,0.5,1.2,0.5
		C347.3,338.4,347.6,338.4,347.9,338.3z M345.8,334.7c-0.3,0.3-0.5,0.7-0.6,1.2h3.5c-0.1-0.5-0.2-0.9-0.5-1.2
		c-0.3-0.3-0.7-0.5-1.1-0.5C346.5,334.3,346.1,334.4,345.8,334.7z"/>
	<path d="M351.5,339.1c-0.4-0.1-0.8-0.4-1.1-0.6l0.5-0.7c0.3,0.2,0.6,0.4,1,0.5c0.3,0.1,0.7,0.2,1,0.2s0.6-0.1,0.8-0.2
		c0.2-0.1,0.3-0.3,0.3-0.6c0-0.2-0.1-0.4-0.3-0.5s-0.5-0.2-1-0.4c-0.7-0.2-1.2-0.4-1.5-0.6s-0.5-0.6-0.5-1c0-0.5,0.2-0.9,0.6-1.3
		c0.4-0.3,0.9-0.5,1.5-0.5c0.4,0,0.7,0.1,1.1,0.2s0.7,0.3,1,0.5l-0.5,0.8c-0.6-0.4-1.1-0.5-1.6-0.5c-0.3,0-0.5,0.1-0.7,0.2
		s-0.3,0.3-0.3,0.5c0,0.1,0,0.3,0.1,0.4s0.2,0.2,0.4,0.2c0.2,0.1,0.5,0.2,0.8,0.3c0.4,0.1,0.7,0.2,1,0.4c0.3,0.1,0.5,0.3,0.7,0.5
		s0.3,0.5,0.3,0.9c0,0.5-0.2,1-0.6,1.3s-0.9,0.5-1.6,0.5C352.4,339.3,352,339.3,351.5,339.1z"/>
	<path d="M358.9,338.1l0.7-0.8c0.7,0.7,1.6,1.1,2.5,1.1c0.5,0,0.9-0.1,1.2-0.3c0.3-0.2,0.4-0.5,0.4-0.8s-0.1-0.6-0.4-0.8
		s-0.8-0.3-1.5-0.5c-0.6-0.1-1-0.3-1.4-0.5s-0.6-0.4-0.9-0.7s-0.3-0.6-0.3-1.1c0-0.4,0.1-0.8,0.3-1.1c0.2-0.3,0.5-0.6,0.9-0.8
		s0.8-0.3,1.3-0.3s1,0.1,1.5,0.3c0.5,0.2,0.9,0.4,1.2,0.8l-0.6,0.8c-0.3-0.3-0.7-0.5-1-0.7s-0.7-0.2-1.1-0.2c-0.3,0-0.5,0.1-0.7,0.2
		s-0.4,0.2-0.5,0.4s-0.2,0.4-0.2,0.6s0.1,0.4,0.2,0.6s0.3,0.3,0.6,0.4c0.3,0.1,0.6,0.2,1.1,0.3c0.8,0.2,1.5,0.5,1.9,0.8
		s0.6,0.8,0.6,1.4c0,0.4-0.1,0.8-0.3,1.2c-0.2,0.3-0.5,0.6-0.9,0.8s-0.9,0.3-1.5,0.3C360.7,339.3,359.7,338.9,358.9,338.1z"/>
	<path d="M369.6,338.3c0.3-0.1,0.6-0.3,0.7-0.5l0.6,0.7c-0.2,0.3-0.6,0.5-1,0.6c-0.4,0.2-0.9,0.2-1.3,0.2c-0.5,0-1-0.1-1.5-0.4
		s-0.8-0.6-1.1-1.1c-0.3-0.5-0.4-1-0.4-1.5c0-0.6,0.1-1.1,0.4-1.5c0.3-0.5,0.6-0.8,1-1.1c0.4-0.3,0.9-0.4,1.4-0.4
		c0.6,0,1.1,0.1,1.5,0.4s0.7,0.7,0.9,1.2c0.2,0.5,0.3,1.1,0.3,1.8h-4.5c0.1,0.5,0.3,0.9,0.6,1.2c0.3,0.3,0.7,0.5,1.2,0.5
		C369,338.4,369.3,338.4,369.6,338.3z M367.4,334.7c-0.3,0.3-0.5,0.7-0.6,1.2h3.5c-0.1-0.5-0.2-0.9-0.5-1.2
		c-0.3-0.3-0.7-0.5-1.1-0.5C368.2,334.3,367.8,334.4,367.4,334.7z"/>
	<path d="M374.5,333.7c0.4-0.2,0.8-0.3,1.3-0.3v0.9c-0.4,0-0.8,0.1-1.1,0.2c-0.3,0.2-0.6,0.4-0.7,0.7c-0.2,0.3-0.3,0.6-0.3,1v3h-1.1
		v-5.7h1.1v1.1C373.9,334.3,374.2,334,374.5,333.7z"/>
	<path d="M376.3,333.5h1.2l1.8,4.4l1.7-4.4h1.2l-2.4,5.7h-1L376.3,333.5z"/>
	<path d="M383.3,332.4c-0.1-0.1-0.2-0.3-0.2-0.5s0.1-0.3,0.2-0.5s0.3-0.2,0.5-0.2s0.3,0.1,0.5,0.2c0.1,0.1,0.2,0.3,0.2,0.5
		s-0.1,0.3-0.2,0.5c-0.1,0.1-0.3,0.2-0.5,0.2C383.5,332.6,383.4,332.5,383.3,332.4z M383.2,333.5h1.1v5.7h-1.1V333.5z"/>
	<path d="M387.1,338.9c-0.5-0.3-0.8-0.6-1.1-1.1c-0.3-0.5-0.4-1-0.4-1.5s0.1-1,0.4-1.5s0.6-0.8,1.1-1.1c0.5-0.3,1-0.4,1.5-0.4
		c0.4,0,0.8,0.1,1.1,0.2c0.4,0.2,0.7,0.4,1,0.6l-0.7,0.7c-0.2-0.2-0.4-0.3-0.6-0.5c-0.2-0.1-0.5-0.2-0.7-0.2c-0.3,0-0.7,0.1-0.9,0.3
		c-0.3,0.2-0.5,0.4-0.7,0.7c-0.2,0.3-0.3,0.6-0.3,1s0.1,0.7,0.3,1c0.2,0.3,0.4,0.6,0.7,0.7c0.3,0.2,0.6,0.3,0.9,0.3s0.5-0.1,0.8-0.2
		s0.5-0.3,0.6-0.5l0.7,0.7c-0.3,0.3-0.6,0.5-1,0.7s-0.7,0.2-1.2,0.2C388,339.3,387.5,339.2,387.1,338.9z"/>
	<path d="M395.3,338.3c0.3-0.1,0.6-0.3,0.7-0.5l0.6,0.7c-0.2,0.3-0.6,0.5-1,0.6c-0.4,0.2-0.9,0.2-1.3,0.2c-0.5,0-1-0.1-1.5-0.4
		s-0.8-0.6-1.1-1.1c-0.3-0.5-0.4-1-0.4-1.5c0-0.6,0.1-1.1,0.4-1.5c0.3-0.5,0.6-0.8,1-1.1c0.4-0.3,0.9-0.4,1.4-0.4
		c0.6,0,1.1,0.1,1.5,0.4s0.7,0.7,0.9,1.2c0.2,0.5,0.3,1.1,0.3,1.8h-4.5c0.1,0.5,0.3,0.9,0.6,1.2c0.3,0.3,0.7,0.5,1.2,0.5
		C394.6,338.4,394.9,338.4,395.3,338.3z M393.1,334.7c-0.3,0.3-0.5,0.7-0.6,1.2h3.5c-0.1-0.5-0.2-0.9-0.5-1.2
		c-0.3-0.3-0.7-0.5-1.1-0.5C393.8,334.3,393.4,334.4,393.1,334.7z"/>
	<path d="M333.8,350.9c-0.4-0.8-0.6-1.7-0.6-2.7s0.2-1.8,0.6-2.7c0.4-0.8,1-1.5,1.7-2.1l0.6,0.6c-0.6,0.6-1.1,1.3-1.4,1.9
		s-0.4,1.4-0.4,2.3s0.1,1.6,0.4,2.3s0.7,1.3,1.4,1.9l-0.6,0.6C334.8,352.4,334.2,351.7,333.8,350.9z"/>
	<path d="M338.6,344.6v2.2h4v1h-4v2.3h4.4v1h-5.6v-7.6h5.6v1h-4.4V344.6z"/>
	<path d="M344.8,343.6h1.1v3.9l3.6-3.9h1.4l-3.1,3.4l3.3,4.2h-1.4l-2.7-3.4l-1.1,1.2v2.2h-1.1L344.8,343.6L344.8,343.6z"/>
	<path d="M351.8,350l0.7-0.8c0.7,0.7,1.6,1.1,2.5,1.1c0.5,0,0.9-0.1,1.2-0.3c0.3-0.2,0.4-0.5,0.4-0.8s-0.1-0.6-0.4-0.8
		s-0.8-0.3-1.5-0.5c-0.6-0.1-1-0.3-1.4-0.5s-0.6-0.4-0.9-0.7s-0.3-0.6-0.3-1.1c0-0.4,0.1-0.8,0.3-1.1c0.2-0.3,0.5-0.6,0.9-0.8
		s0.8-0.3,1.3-0.3s1,0.1,1.5,0.3c0.5,0.2,0.9,0.4,1.2,0.8l-0.6,0.8c-0.3-0.3-0.7-0.5-1-0.7s-0.7-0.2-1.1-0.2c-0.3,0-0.5,0.1-0.7,0.2
		s-0.4,0.2-0.5,0.4s-0.2,0.4-0.2,0.6s0.1,0.4,0.2,0.6s0.3,0.3,0.6,0.4c0.3,0.1,0.6,0.2,1.1,0.3c0.8,0.2,1.5,0.5,1.9,0.8
		s0.6,0.8,0.6,1.4c0,0.4-0.1,0.8-0.3,1.2c-0.2,0.3-0.5,0.6-0.9,0.8s-0.9,0.3-1.5,0.3C353.7,351.2,352.6,350.8,351.8,350z"/>
	<path d="M358.5,352.4c0.6-0.6,1.1-1.3,1.4-1.9s0.4-1.4,0.4-2.2c0-0.8-0.1-1.6-0.4-2.3c-0.3-0.7-0.7-1.3-1.4-1.9l0.6-0.6
		c0.8,0.6,1.3,1.3,1.7,2.1c0.4,0.8,0.6,1.7,0.6,2.7s-0.2,1.8-0.6,2.7c-0.4,0.8-1,1.5-1.7,2.1L358.5,352.4z"/>
</g>
<g>
	<path d="M430.5,325.7h-3.9l-0.7,1.6h-1.2l3.2-7.6h1.2l3.2,7.6h-1.2L430.5,325.7z M430,324.8l-1.5-3.6l-1.5,3.6H430z"/>
	<path d="M433,326.5l3.2-3.9h-3.1v-1h4.6v0.8l-3.2,3.9h3.2v1H433V326.5z"/>
	<path d="M443.8,321.6v5.7h-1.1v-0.8c-0.2,0.3-0.4,0.5-0.7,0.7c-0.3,0.2-0.7,0.3-1.1,0.3s-0.8-0.1-1.1-0.3c-0.3-0.2-0.6-0.4-0.8-0.8
		s-0.3-0.7-0.3-1.1v-3.6h1.1v3.4c0,0.4,0.1,0.8,0.4,1s0.6,0.4,0.9,0.4s0.5-0.1,0.8-0.2c0.2-0.1,0.4-0.3,0.6-0.5
		c0.1-0.2,0.2-0.4,0.2-0.7v-3.5H443.8z"/>
	<path d="M447.5,321.8c0.4-0.2,0.8-0.3,1.3-0.3v0.9c-0.4,0-0.8,0.1-1.1,0.2c-0.3,0.2-0.6,0.4-0.7,0.7s-0.3,0.6-0.3,1v3h-1.1v-5.7
		h1.1v1.1C446.9,322.4,447.2,322,447.5,321.8z"/>
	<path d="M453.5,326.3c0.3-0.1,0.6-0.3,0.7-0.5l0.6,0.7c-0.2,0.3-0.6,0.5-1,0.6c-0.4,0.2-0.9,0.2-1.3,0.2c-0.5,0-1-0.1-1.5-0.4
		s-0.8-0.6-1.1-1.1c-0.3-0.5-0.4-1-0.4-1.5c0-0.6,0.1-1.1,0.4-1.5c0.3-0.5,0.6-0.8,1-1.1c0.4-0.3,0.9-0.4,1.4-0.4
		c0.6,0,1.1,0.1,1.5,0.4s0.7,0.7,0.9,1.2s0.3,1.1,0.3,1.8h-4.5c0.1,0.5,0.3,0.9,0.6,1.2c0.3,0.3,0.7,0.5,1.2,0.5
		C452.9,326.5,453.2,326.5,453.5,326.3z M451.3,322.8c-0.3,0.3-0.5,0.7-0.6,1.2h3.5c-0.1-0.5-0.2-0.9-0.5-1.2
		c-0.3-0.3-0.7-0.5-1.1-0.5C452.1,322.4,451.7,322.5,451.3,322.8z"/>
	<path d="M459.8,319.8h1.1v3.9l3.6-3.9h1.4l-3.1,3.4l3.3,4.2h-1.4L462,324l-1.1,1.2v2.2h-1.1L459.8,319.8L459.8,319.8z"/>
	<path d="M472.1,321.6v5.7H471v-0.8c-0.2,0.3-0.4,0.5-0.7,0.7c-0.3,0.2-0.7,0.3-1.1,0.3s-0.8-0.1-1.1-0.3c-0.3-0.2-0.6-0.4-0.8-0.8
		s-0.3-0.7-0.3-1.1v-3.6h1.1v3.4c0,0.4,0.1,0.8,0.4,1s0.6,0.4,0.9,0.4s0.5-0.1,0.8-0.2c0.2-0.1,0.4-0.3,0.6-0.5
		c0.1-0.2,0.2-0.4,0.2-0.7v-3.5H472.1z"/>
	<path d="M478.4,321.9c0.4,0.3,0.7,0.6,0.9,1.1c0.2,0.5,0.3,1,0.3,1.5c0,0.6-0.1,1.1-0.3,1.5c-0.2,0.5-0.5,0.8-0.9,1.1
		c-0.4,0.3-0.8,0.4-1.3,0.4c-0.4,0-0.8-0.1-1.2-0.3c-0.4-0.2-0.6-0.5-0.9-0.8v1h-1.1v-7.7h1.1v3c0.2-0.4,0.5-0.6,0.9-0.8
		c0.4-0.2,0.7-0.3,1.2-0.3C477.5,321.5,478,321.6,478.4,321.9z M477.7,326.2c0.3-0.2,0.5-0.4,0.6-0.7s0.2-0.7,0.2-1
		c0-0.4-0.1-0.7-0.2-1c-0.2-0.3-0.4-0.5-0.6-0.7c-0.3-0.2-0.6-0.3-0.9-0.3s-0.6,0.1-0.9,0.3c-0.3,0.2-0.5,0.4-0.6,0.7
		c-0.1,0.3-0.2,0.7-0.2,1c0,0.4,0.1,0.7,0.2,1c0.2,0.3,0.4,0.6,0.6,0.7c0.3,0.2,0.6,0.3,0.9,0.3S477.4,326.4,477.7,326.2z"/>
	<path d="M484.4,326.3c0.3-0.1,0.6-0.3,0.7-0.5l0.6,0.7c-0.2,0.3-0.6,0.5-1,0.6s-0.9,0.2-1.3,0.2c-0.5,0-1-0.1-1.5-0.4
		s-0.8-0.6-1.1-1.1c-0.3-0.5-0.4-1-0.4-1.5c0-0.6,0.1-1.1,0.4-1.5c0.3-0.5,0.6-0.8,1-1.1c0.4-0.3,0.9-0.4,1.4-0.4
		c0.6,0,1.1,0.1,1.5,0.4s0.7,0.7,0.9,1.2c0.2,0.5,0.3,1.1,0.3,1.8h-4.5c0.1,0.5,0.3,0.9,0.6,1.2c0.3,0.3,0.7,0.5,1.2,0.5
		C483.8,326.5,484.1,326.5,484.4,326.3z M482.3,322.8c-0.3,0.3-0.5,0.7-0.6,1.2h3.5c-0.1-0.5-0.2-0.9-0.5-1.2
		c-0.3-0.3-0.7-0.5-1.1-0.5C483,322.4,482.6,322.5,482.3,322.8z"/>
	<path d="M489.4,321.8c0.4-0.2,0.8-0.3,1.3-0.3v0.9c-0.4,0-0.8,0.1-1.1,0.2c-0.3,0.2-0.6,0.4-0.7,0.7s-0.3,0.6-0.3,1v3h-1.1v-5.7
		h1.1v1.1C488.7,322.4,489,322,489.4,321.8z"/>
	<path d="M495.9,321.8c0.3,0.2,0.6,0.4,0.8,0.8c0.2,0.3,0.3,0.7,0.3,1.1v3.6h-1.1v-3.4c0-0.4-0.1-0.8-0.4-1
		c-0.2-0.3-0.6-0.4-0.9-0.4s-0.5,0.1-0.8,0.2c-0.2,0.1-0.4,0.3-0.6,0.5c-0.1,0.2-0.2,0.4-0.2,0.7v3.5h-1.1v-5.7h1.1v0.8
		c0.2-0.3,0.4-0.5,0.7-0.7s0.7-0.3,1.1-0.3C495.2,321.5,495.6,321.6,495.9,321.8z"/>
	<path d="M502,326.3c0.3-0.1,0.6-0.3,0.7-0.5l0.6,0.7c-0.2,0.3-0.6,0.5-1,0.6s-0.9,0.2-1.3,0.2c-0.5,0-1-0.1-1.5-0.4
		s-0.8-0.6-1.1-1.1c-0.3-0.5-0.4-1-0.4-1.5c0-0.6,0.1-1.1,0.4-1.5c0.3-0.5,0.6-0.8,1-1.1c0.4-0.3,0.9-0.4,1.4-0.4
		c0.6,0,1.1,0.1,1.5,0.4s0.7,0.7,0.9,1.2c0.2,0.5,0.3,1.1,0.3,1.8H499c0.1,0.5,0.3,0.9,0.6,1.2c0.3,0.3,0.7,0.5,1.2,0.5
		C501.4,326.5,501.7,326.5,502,326.3z M499.9,322.8c-0.3,0.3-0.5,0.7-0.6,1.2h3.5c-0.1-0.5-0.2-0.9-0.5-1.2
		c-0.3-0.3-0.7-0.5-1.1-0.5C500.6,322.4,500.2,322.5,499.9,322.8z"/>
	<path d="M507.9,327c-0.2,0.1-0.3,0.2-0.5,0.3c-0.2,0.1-0.4,0.1-0.6,0.1c-0.4,0-0.8-0.1-1.1-0.4c-0.3-0.3-0.4-0.7-0.4-1.1v-3.3h-0.8
		v-0.9h0.8v-1.6h1.1v1.6h1.3v0.9h-1.3v3.3c0,0.2,0.1,0.4,0.2,0.5s0.3,0.2,0.4,0.2s0.2,0,0.3-0.1s0.2-0.1,0.2-0.1L507.9,327z"/>
	<path d="M512.4,326.3c0.3-0.1,0.6-0.3,0.7-0.5l0.6,0.7c-0.2,0.3-0.6,0.5-1,0.6c-0.4,0.2-0.9,0.2-1.3,0.2c-0.5,0-1-0.1-1.5-0.4
		s-0.8-0.6-1.1-1.1s-0.4-1-0.4-1.5c0-0.6,0.1-1.1,0.4-1.5c0.3-0.5,0.6-0.8,1-1.1c0.4-0.3,0.9-0.4,1.4-0.4c0.6,0,1.1,0.1,1.5,0.4
		s0.7,0.7,0.9,1.2s0.3,1.1,0.3,1.8h-4.5c0.1,0.5,0.3,0.9,0.6,1.2c0.3,0.3,0.7,0.5,1.2,0.5C511.8,326.5,512.1,326.5,512.4,326.3z
		 M510.3,322.8c-0.3,0.3-0.5,0.7-0.6,1.2h3.5c-0.1-0.5-0.2-0.9-0.5-1.2c-0.3-0.3-0.7-0.5-1.1-0.5C511,322.4,510.6,322.5,510.3,322.8
		z"/>
	<path d="M516,327.2c-0.4-0.1-0.8-0.4-1.1-0.6l0.5-0.7c0.3,0.2,0.6,0.4,1,0.5s0.7,0.2,1,0.2s0.6-0.1,0.8-0.2s0.3-0.3,0.3-0.6
		c0-0.2-0.1-0.4-0.3-0.5s-0.5-0.2-1-0.4c-0.7-0.2-1.2-0.4-1.5-0.6s-0.5-0.6-0.5-1c0-0.5,0.2-0.9,0.6-1.3c0.4-0.3,0.9-0.5,1.5-0.5
		c0.4,0,0.7,0.1,1.1,0.2c0.4,0.1,0.7,0.3,1,0.5l-0.5,0.8c-0.6-0.4-1.1-0.5-1.6-0.5c-0.3,0-0.5,0.1-0.7,0.2s-0.3,0.3-0.3,0.5
		c0,0.1,0,0.3,0.1,0.4s0.2,0.2,0.4,0.2c0.2,0.1,0.5,0.2,0.8,0.3c0.4,0.1,0.7,0.2,1,0.4c0.3,0.1,0.5,0.3,0.7,0.5s0.3,0.5,0.3,0.9
		c0,0.5-0.2,1-0.6,1.3c-0.4,0.3-0.9,0.5-1.6,0.5C516.9,327.4,516.5,327.4,516,327.2z"/>
	<path d="M438,338.1l0.7-0.8c0.7,0.7,1.6,1.1,2.5,1.1c0.5,0,0.9-0.1,1.2-0.3c0.3-0.2,0.4-0.5,0.4-0.8s-0.1-0.6-0.4-0.8
		s-0.8-0.3-1.5-0.5c-0.6-0.1-1-0.3-1.4-0.5s-0.6-0.4-0.9-0.7c-0.2-0.3-0.3-0.6-0.3-1.1c0-0.4,0.1-0.8,0.3-1.1
		c0.2-0.3,0.5-0.6,0.9-0.8s0.8-0.3,1.3-0.3s1,0.1,1.5,0.3c0.5,0.2,0.9,0.4,1.2,0.8l-0.6,0.8c-0.3-0.3-0.7-0.5-1-0.7
		s-0.7-0.2-1.1-0.2c-0.3,0-0.5,0.1-0.7,0.2s-0.4,0.2-0.5,0.4c-0.1,0.2-0.2,0.4-0.2,0.6s0.1,0.4,0.2,0.6c0.1,0.1,0.3,0.3,0.6,0.4
		c0.3,0.1,0.6,0.2,1.1,0.3c0.8,0.2,1.5,0.5,1.9,0.8s0.6,0.8,0.6,1.4c0,0.4-0.1,0.8-0.3,1.2c-0.2,0.3-0.5,0.6-0.9,0.8
		c-0.4,0.2-0.9,0.3-1.5,0.3C439.8,339.3,438.8,338.9,438,338.1z"/>
	<path d="M448.7,338.3c0.3-0.1,0.6-0.3,0.7-0.5l0.6,0.7c-0.2,0.3-0.6,0.5-1,0.6c-0.4,0.2-0.9,0.2-1.3,0.2c-0.5,0-1-0.1-1.5-0.4
		s-0.8-0.6-1.1-1.1c-0.3-0.5-0.4-1-0.4-1.5c0-0.6,0.1-1.1,0.4-1.5c0.3-0.5,0.6-0.8,1-1.1c0.4-0.3,0.9-0.4,1.4-0.4
		c0.6,0,1.1,0.1,1.5,0.4s0.7,0.7,0.9,1.2s0.3,1.1,0.3,1.8h-4.5c0.1,0.5,0.3,0.9,0.6,1.2c0.3,0.3,0.7,0.5,1.2,0.5
		C448,338.4,448.4,338.4,448.7,338.3z M446.5,334.7c-0.3,0.3-0.5,0.7-0.6,1.2h3.5c-0.1-0.5-0.2-0.9-0.5-1.2
		c-0.3-0.3-0.7-0.5-1.1-0.5C447.2,334.3,446.8,334.4,446.5,334.7z"/>
	<path d="M453.6,333.7c0.4-0.2,0.8-0.3,1.3-0.3v0.9c-0.4,0-0.8,0.1-1.1,0.2c-0.3,0.2-0.6,0.4-0.7,0.7s-0.3,0.6-0.3,1v3h-1.1v-5.7
		h1.1v1.1C453,334.3,453.2,334,453.6,333.7z"/>
	<path d="M455.4,333.5h1.2l1.8,4.4l1.7-4.4h1.2l-2.4,5.7h-1L455.4,333.5z"/>
	<path d="M462.3,332.4c-0.1-0.1-0.2-0.3-0.2-0.5s0.1-0.3,0.2-0.5c0.1-0.1,0.3-0.2,0.5-0.2s0.3,0.1,0.5,0.2c0.1,0.1,0.2,0.3,0.2,0.5
		s-0.1,0.3-0.2,0.5c-0.1,0.1-0.3,0.2-0.5,0.2C462.6,332.6,462.5,332.5,462.3,332.4z M462.3,333.5h1.1v5.7h-1.1V333.5z"/>
	<path d="M466.2,338.9c-0.5-0.3-0.8-0.6-1.1-1.1c-0.3-0.5-0.4-1-0.4-1.5s0.1-1,0.4-1.5s0.6-0.8,1.1-1.1c0.5-0.3,1-0.4,1.5-0.4
		c0.4,0,0.8,0.1,1.1,0.2c0.4,0.2,0.7,0.4,1,0.6L469,335c-0.2-0.2-0.4-0.3-0.6-0.5c-0.2-0.1-0.5-0.2-0.7-0.2c-0.3,0-0.7,0.1-0.9,0.3
		c-0.3,0.2-0.5,0.4-0.7,0.7c-0.2,0.3-0.3,0.6-0.3,1s0.1,0.7,0.3,1c0.2,0.3,0.4,0.6,0.7,0.7c0.3,0.2,0.6,0.3,0.9,0.3s0.5-0.1,0.8-0.2
		c0.2-0.1,0.5-0.3,0.6-0.5l0.7,0.7c-0.3,0.3-0.6,0.5-1,0.7s-0.7,0.2-1.2,0.2C467.1,339.3,466.6,339.2,466.2,338.9z"/>
	<path d="M474.3,338.3c0.3-0.1,0.6-0.3,0.7-0.5l0.6,0.7c-0.2,0.3-0.6,0.5-1,0.6c-0.4,0.2-0.9,0.2-1.3,0.2c-0.5,0-1-0.1-1.5-0.4
		s-0.8-0.6-1.1-1.1c-0.3-0.5-0.4-1-0.4-1.5c0-0.6,0.1-1.1,0.4-1.5c0.3-0.5,0.6-0.8,1-1.1c0.4-0.3,0.9-0.4,1.4-0.4
		c0.6,0,1.1,0.1,1.5,0.4s0.7,0.7,0.9,1.2s0.3,1.1,0.3,1.8h-4.5c0.1,0.5,0.3,0.9,0.6,1.2c0.3,0.3,0.7,0.5,1.2,0.5
		C473.7,338.4,474,338.4,474.3,338.3z M472.2,334.7c-0.3,0.3-0.5,0.7-0.6,1.2h3.5c-0.1-0.5-0.2-0.9-0.5-1.2
		c-0.3-0.3-0.7-0.5-1.1-0.5C472.9,334.3,472.5,334.4,472.2,334.7z"/>
	<path d="M480.6,339c-0.4-0.8-0.6-1.7-0.6-2.7s0.2-1.8,0.6-2.7c0.4-0.8,1-1.5,1.7-2.1l0.6,0.6c-0.6,0.6-1.1,1.3-1.4,1.9
		s-0.4,1.4-0.4,2.3s0.1,1.6,0.4,2.3s0.7,1.3,1.4,1.9l-0.6,0.6C481.6,340.5,481,339.8,480.6,339z"/>
	<path d="M489.3,337.6h-3.9l-0.7,1.6h-1.2l3.2-7.6h1.2l3.2,7.6H490L489.3,337.6z M488.9,336.7l-1.5-3.6l-1.5,3.6H488.9z"/>
	<path d="M492.6,331.7h1.1v3.9l3.6-3.9h1.4l-3.1,3.4l3.3,4.2h-1.4l-2.7-3.4l-1.1,1.2v2.2h-1.1L492.6,331.7L492.6,331.7z"/>
	<path d="M499.6,338.1l0.7-0.8c0.7,0.7,1.6,1.1,2.5,1.1c0.5,0,0.9-0.1,1.2-0.3c0.3-0.2,0.4-0.5,0.4-0.8s-0.1-0.6-0.4-0.8
		c-0.3-0.2-0.8-0.3-1.5-0.5c-0.6-0.1-1-0.3-1.4-0.5s-0.6-0.4-0.9-0.7c-0.2-0.3-0.3-0.6-0.3-1.1c0-0.4,0.1-0.8,0.3-1.1
		c0.2-0.3,0.5-0.6,0.9-0.8s0.8-0.3,1.3-0.3s1,0.1,1.5,0.3c0.5,0.2,0.9,0.4,1.2,0.8l-0.6,0.8c-0.3-0.3-0.7-0.5-1-0.7
		s-0.7-0.2-1.1-0.2c-0.3,0-0.5,0.1-0.7,0.2s-0.4,0.2-0.5,0.4c-0.1,0.2-0.2,0.4-0.2,0.6s0.1,0.4,0.2,0.6c0.1,0.1,0.3,0.3,0.6,0.4
		c0.3,0.1,0.6,0.2,1.1,0.3c0.8,0.2,1.5,0.5,1.9,0.8s0.6,0.8,0.6,1.4c0,0.4-0.1,0.8-0.3,1.2c-0.2,0.3-0.5,0.6-0.9,0.8
		c-0.4,0.2-0.9,0.3-1.5,0.3C501.5,339.3,500.5,338.9,499.6,338.1z"/>
	<path d="M506.3,340.5c0.6-0.6,1.1-1.3,1.4-1.9s0.4-1.4,0.4-2.2c0-0.8-0.1-1.6-0.4-2.3s-0.7-1.3-1.4-1.9l0.6-0.6
		c0.8,0.6,1.3,1.3,1.7,2.1c0.4,0.8,0.6,1.7,0.6,2.7s-0.2,1.8-0.6,2.7c-0.4,0.8-1,1.5-1.7,2.1L506.3,340.5z"/>
</g>
<g>
	<path id="path44560" class="st12" d="M751.1,273.7c-0.6-1.2-1.2-2.3-2-3.4l-8.2,3c1,1,1.8,2.1,2.4,3.2L751.1,273.7z M714.8,282.8
		l-8.2,3c0.1,1.3,0.3,2.6,0.7,3.9l7.8-2.8C714.8,285.5,714.7,284.1,714.8,282.8"/>
	<path id="path44564" class="st13" d="M733,271.4c1.7,0.8,3.2,1.9,4.4,3.2l8.2-3c-2.3-3.2-5.4-5.9-9.2-7.6
		c-11.7-5.5-25.7-0.4-31.2,11.3c-1.8,3.8-2.4,7.8-2.1,11.7l8.2-3c0.1-1.8,0.6-3.6,1.4-5.3C716.3,271.1,725.4,267.8,733,271.4"/>
	<path id="path44572" class="st13" d="M741.8,286.4c-0.1,1.8-0.6,3.6-1.4,5.3c-3.6,7.6-12.6,10.9-20.3,7.4c-1.7-0.8-3.2-1.9-4.4-3.2
		l-8.2,3c2.3,3.2,5.4,5.9,9.2,7.6c11.7,5.5,25.7,0.4,31.2-11.4c1.8-3.8,2.4-7.8,2.1-11.7L741.8,286.4L741.8,286.4z"/>
	<path id="path44576" class="st14" d="M743.8,276.4l-7.8,2.8c1.4,2.6,2.1,5.6,1.9,8.6l8.2-3C745.9,281.9,745.1,279,743.8,276.4
		 M707.8,289.5l-7.8,2.8c0.7,2.8,2,5.5,3.7,7.9l8.2-3C709.7,295.1,708.3,292.4,707.8,289.5"/>
	<path id="path44584" class="st15" d="M749.9,271.6c-0.3-0.4-0.5-0.8-0.8-1.2l-8.2,3c0.4,0.4,0.7,0.8,1,1.2L749.9,271.6z
		 M714.8,284.4c0-0.5,0-1.1,0-1.6l-8.2,3c0,0.5,0.1,1,0.2,1.6L714.8,284.4L714.8,284.4z"/>
	<path id="path44588" class="st16" d="M750,283.4l-8.2,3c-0.1,1.2-0.3,2.4-0.7,3.5l8.9-3.2C750.1,285.6,750.1,284.5,750,283.4
		 M707.5,298.9c0.6,0.9,1.3,1.7,2.1,2.5l8.9-3.2c-1-0.7-2-1.4-2.8-2.3L707.5,298.9z"/>
</g>
<g>
	<path d="M682.8,324.1c-0.4,0.4-0.9,0.7-1.6,0.8l1.9,2.7h-1.3L680,325h-1.4v2.6h-1.1V320h3.2c0.5,0,1,0.1,1.4,0.3
		c0.4,0.2,0.8,0.5,1,0.9s0.4,0.8,0.4,1.3C683.4,323.1,683.2,323.7,682.8,324.1z M678.6,323.9h1.9c0.5,0,1-0.1,1.3-0.4s0.5-0.6,0.5-1
		s-0.2-0.8-0.5-1c-0.3-0.3-0.8-0.4-1.3-0.4h-1.9V323.9z"/>
	<path d="M688.3,326.6c0.3-0.1,0.6-0.3,0.7-0.5l0.6,0.7c-0.2,0.3-0.6,0.5-1,0.6c-0.4,0.2-0.9,0.2-1.3,0.2c-0.5,0-1-0.1-1.5-0.4
		s-0.8-0.6-1.1-1.1s-0.4-1-0.4-1.5c0-0.6,0.1-1.1,0.4-1.5c0.3-0.5,0.6-0.8,1-1.1c0.4-0.3,0.9-0.4,1.4-0.4c0.6,0,1.1,0.1,1.5,0.4
		s0.7,0.7,0.9,1.2s0.3,1.1,0.3,1.8h-4.5c0.1,0.5,0.3,0.9,0.6,1.2c0.3,0.3,0.7,0.5,1.2,0.5C687.7,326.8,688,326.8,688.3,326.6z
		 M686.1,323.1c-0.3,0.3-0.5,0.7-0.6,1.2h3.5c-0.1-0.5-0.2-0.9-0.5-1.2c-0.3-0.3-0.7-0.5-1.1-0.5
		C686.9,322.7,686.5,322.8,686.1,323.1z"/>
	<path d="M696.6,319.9v7.7h-1.1v-1c-0.2,0.3-0.5,0.6-0.9,0.8s-0.7,0.3-1.2,0.3s-0.9-0.1-1.3-0.4s-0.7-0.6-0.9-1.1s-0.3-1-0.3-1.5
		s0.1-1.1,0.3-1.5c0.2-0.5,0.5-0.8,0.9-1.1c0.4-0.3,0.8-0.4,1.3-0.4c0.4,0,0.8,0.1,1.2,0.3c0.3,0.2,0.6,0.5,0.9,0.8v-3h1.1V319.9z
		 M694.7,326.5c0.3-0.2,0.5-0.4,0.6-0.7s0.2-0.7,0.2-1s-0.1-0.7-0.2-1s-0.4-0.5-0.6-0.7c-0.3-0.2-0.6-0.3-0.9-0.3s-0.6,0.1-0.9,0.3
		c-0.3,0.2-0.5,0.4-0.6,0.7c-0.2,0.3-0.2,0.7-0.2,1s0.1,0.7,0.2,1c0.1,0.3,0.4,0.6,0.6,0.7c0.3,0.2,0.6,0.3,0.9,0.3
		S694.4,326.7,694.7,326.5z"/>
	<path d="M708,320.1v7.6h-1.1v-3.3h-4.1v3.3h-1.1v-7.6h1.1v3.2h4.1v-3.2H708z"/>
	<path d="M713.9,322.4c0.4,0.4,0.6,1,0.6,1.7v3.4h-1.1v-0.8c-0.2,0.3-0.5,0.5-0.8,0.7s-0.7,0.2-1.1,0.2c-0.6,0-1.1-0.2-1.5-0.5
		s-0.6-0.8-0.6-1.3c0-0.4,0.1-0.7,0.3-1s0.5-0.5,0.8-0.7s0.7-0.2,1.1-0.2c0.5,0,1.1,0.1,1.7,0.3V324c0-0.4-0.1-0.8-0.3-1
		c-0.2-0.3-0.6-0.4-1.1-0.4c-0.4,0-1,0.2-1.6,0.5l-0.4-0.8c0.8-0.4,1.5-0.6,2.2-0.6C712.9,321.8,713.5,322,713.9,322.4z
		 M712.8,326.6c0.3-0.2,0.5-0.4,0.6-0.8V325c-0.5-0.1-1-0.2-1.5-0.2c-0.4,0-0.7,0.1-1,0.3c-0.3,0.2-0.4,0.4-0.4,0.7
		c0,0.3,0.1,0.5,0.4,0.7c0.2,0.2,0.5,0.3,0.9,0.3C712.2,326.9,712.5,326.8,712.8,326.6z"/>
	<path d="M719,327.3c-0.2,0.1-0.3,0.2-0.5,0.3c-0.2,0.1-0.4,0.1-0.6,0.1c-0.4,0-0.8-0.1-1.1-0.4s-0.4-0.7-0.4-1.1v-3.3h-0.8V322h0.8
		v-1.6h1.1v1.6h1.3v0.9h-1.3v3.3c0,0.2,0.1,0.4,0.2,0.5c0.1,0.1,0.3,0.2,0.4,0.2c0.1,0,0.2,0,0.3-0.1c0.1,0,0.2-0.1,0.2-0.1
		L719,327.3z"/>
	<path d="M724.8,327.2c-0.6-0.4-1.1-0.8-1.4-1.4c-0.4-0.6-0.5-1.2-0.5-1.9s0.2-1.3,0.5-1.9c0.4-0.6,0.8-1.1,1.4-1.4s1.2-0.5,1.9-0.5
		s1.3,0.2,1.9,0.5s1.1,0.8,1.4,1.4c0.4,0.6,0.5,1.2,0.5,1.9s-0.2,1.3-0.5,1.9c-0.4,0.6-0.8,1.1-1.4,1.4s-1.2,0.5-1.9,0.5
		C726.1,327.7,725.4,327.6,724.8,327.2z M728.1,326.3c0.4-0.3,0.8-0.6,1-1.1s0.4-0.9,0.4-1.4s-0.1-1-0.4-1.4s-0.6-0.8-1-1.1
		c-0.4-0.3-0.9-0.4-1.4-0.4s-1,0.1-1.4,0.4s-0.8,0.6-1,1.1s-0.4,0.9-0.4,1.4s0.1,1,0.4,1.4s0.6,0.8,1,1.1s0.9,0.4,1.4,0.4
		S727.7,326.6,728.1,326.3z"/>
	<path d="M736.6,322.2c0.4,0.3,0.7,0.6,0.9,1.1s0.3,1,0.3,1.5s-0.1,1.1-0.3,1.5c-0.2,0.5-0.5,0.8-0.9,1.1s-0.8,0.4-1.3,0.4
		c-0.4,0-0.8-0.1-1.2-0.3c-0.3-0.2-0.6-0.5-0.9-0.8v2.9h-1.1V322h1.1v1c0.2-0.3,0.5-0.6,0.9-0.8c0.3-0.2,0.7-0.3,1.2-0.3
		C735.7,321.8,736.2,321.9,736.6,322.2z M735.9,326.5c0.3-0.2,0.5-0.4,0.6-0.7s0.2-0.7,0.2-1s-0.1-0.7-0.2-1s-0.4-0.5-0.6-0.7
		c-0.3-0.2-0.6-0.3-0.9-0.3s-0.6,0.1-0.9,0.3c-0.3,0.2-0.5,0.4-0.6,0.7s-0.2,0.7-0.2,1s0.1,0.7,0.2,1s0.4,0.6,0.6,0.7
		c0.3,0.2,0.6,0.3,0.9,0.3S735.6,326.7,735.9,326.5z"/>
	<path d="M742.6,326.6c0.3-0.1,0.6-0.3,0.7-0.5l0.6,0.7c-0.2,0.3-0.6,0.5-1,0.6c-0.4,0.2-0.9,0.2-1.3,0.2c-0.5,0-1-0.1-1.5-0.4
		s-0.8-0.6-1.1-1.1s-0.4-1-0.4-1.5c0-0.6,0.1-1.1,0.4-1.5c0.3-0.5,0.6-0.8,1-1.1c0.4-0.3,0.9-0.4,1.4-0.4c0.6,0,1.1,0.1,1.5,0.4
		s0.7,0.7,0.9,1.2s0.3,1.1,0.3,1.8h-4.5c0.1,0.5,0.3,0.9,0.6,1.2c0.3,0.3,0.7,0.5,1.2,0.5C742,326.8,742.3,326.8,742.6,326.6z
		 M740.5,323.1c-0.3,0.3-0.5,0.7-0.6,1.2h3.5c-0.1-0.5-0.2-0.9-0.5-1.2c-0.3-0.3-0.7-0.5-1.1-0.5
		C741.2,322.7,740.8,322.8,740.5,323.1z"/>
	<path d="M749.7,322.1c0.3,0.2,0.6,0.4,0.8,0.8s0.3,0.7,0.3,1.1v3.6h-1.1v-3.4c0-0.4-0.1-0.8-0.4-1c-0.2-0.3-0.6-0.4-0.9-0.4
		c-0.3,0-0.5,0.1-0.8,0.2c-0.2,0.1-0.4,0.3-0.6,0.5c-0.1,0.2-0.2,0.4-0.2,0.7v3.5h-1.1V322h1.1v0.8c0.2-0.3,0.4-0.5,0.7-0.7
		s0.7-0.3,1.1-0.3C749,321.8,749.4,321.9,749.7,322.1z"/>
	<path d="M751.9,326.5l0.7-0.8c0.7,0.7,1.6,1.1,2.5,1.1c0.5,0,0.9-0.1,1.2-0.3c0.3-0.2,0.4-0.5,0.4-0.8s-0.1-0.6-0.4-0.8
		c-0.3-0.2-0.8-0.3-1.5-0.5c-0.6-0.1-1-0.3-1.4-0.5s-0.6-0.4-0.9-0.7s-0.3-0.6-0.3-1.1c0-0.4,0.1-0.8,0.3-1.1
		c0.2-0.3,0.5-0.6,0.9-0.8c0.4-0.2,0.8-0.3,1.3-0.3s1,0.1,1.5,0.3c0.5,0.2,0.9,0.4,1.2,0.8l-0.6,0.8c-0.3-0.3-0.7-0.5-1-0.7
		s-0.7-0.2-1.1-0.2c-0.3,0-0.5,0.1-0.7,0.2s-0.4,0.2-0.5,0.4c-0.1,0.2-0.2,0.4-0.2,0.6s0.1,0.4,0.2,0.6c0.1,0.1,0.3,0.3,0.6,0.4
		s0.6,0.2,1.1,0.3c0.8,0.2,1.5,0.5,1.9,0.8s0.6,0.8,0.6,1.4c0,0.4-0.1,0.8-0.3,1.2s-0.5,0.6-0.9,0.8c-0.4,0.2-0.9,0.3-1.5,0.3
		C753.8,327.7,752.8,327.3,751.9,326.5z"/>
	<path d="M763.2,322.1c0.3,0.2,0.6,0.4,0.8,0.8s0.3,0.7,0.3,1.1v3.6h-1.1v-3.4c0-0.4-0.1-0.8-0.4-1c-0.2-0.3-0.6-0.4-0.9-0.4
		c-0.3,0-0.5,0.1-0.8,0.2c-0.2,0.1-0.4,0.3-0.6,0.5c-0.1,0.2-0.2,0.4-0.2,0.7v3.5h-1.1V320h1.1v2.8c0.2-0.3,0.4-0.5,0.7-0.7
		s0.7-0.3,1.1-0.3C762.5,321.8,762.9,321.9,763.2,322.1z"/>
	<path d="M766,320.8c-0.1-0.1-0.2-0.3-0.2-0.5s0.1-0.3,0.2-0.5c0.1-0.1,0.3-0.2,0.5-0.2s0.3,0.1,0.5,0.2c0.1,0.1,0.2,0.3,0.2,0.5
		s-0.1,0.3-0.2,0.5c-0.1,0.1-0.3,0.2-0.5,0.2S766.1,320.9,766,320.8z M765.9,321.9h1.1v5.7h-1.1V321.9z"/>
	<path d="M770.1,321.9h1.3v0.9h-1.3v4.8H769v-4.8h-0.9v-0.9h0.9v-0.7c0-0.5,0.1-0.8,0.4-1.1c0.3-0.3,0.6-0.4,1.1-0.4
		c0.2,0,0.4,0,0.6,0.1c0.2,0.1,0.4,0.2,0.5,0.3l-0.4,0.7c-0.1-0.1-0.1-0.1-0.2-0.1s-0.2-0.1-0.3-0.1c-0.2,0-0.3,0.1-0.4,0.2
		s-0.2,0.3-0.2,0.5L770.1,321.9L770.1,321.9z"/>
	<path d="M775.3,327.3c-0.2,0.1-0.3,0.2-0.5,0.3c-0.2,0.1-0.4,0.1-0.6,0.1c-0.4,0-0.8-0.1-1.1-0.4s-0.4-0.7-0.4-1.1v-3.3h-0.8V322
		h0.8v-1.6h1.1v1.6h1.3v0.9h-1.3v3.3c0,0.2,0.1,0.4,0.2,0.5c0.1,0.1,0.3,0.2,0.4,0.2c0.1,0,0.2,0,0.3-0.1c0.1,0,0.2-0.1,0.2-0.1
		L775.3,327.3z"/>
</g>
<g id="Avi_Controller">
	<g>
		<g>
			<path class="st17" d="M356.8,107.3h-4.3l-0.7,1.7H350l3.7-8.9h1.8l3.7,8.9h-1.8L356.8,107.3z M356.3,105.9l-1.6-3.8l-1.6,3.8
				H356.3z"/>
			<path class="st17" d="M369.4,100l-3.7,8.9h-1.8l-3.7-8.9h1.8l2.8,6.8l2.8-6.8H369.4z"/>
			<path class="st17" d="M371.1,100h1.6v8.9h-1.6V100z"/>
			<path class="st17" d="M380.7,108.5c-0.7-0.4-1.3-1-1.7-1.7c-0.4-0.7-0.6-1.5-0.6-2.3s0.2-1.6,0.6-2.3c0.4-0.7,1-1.3,1.7-1.7
				c0.7-0.4,1.5-0.6,2.3-0.6c0.6,0,1.3,0.1,1.8,0.4c0.6,0.3,1.1,0.6,1.5,1.1l-1.2,1.1c-0.3-0.3-0.6-0.6-1-0.8s-0.8-0.3-1.2-0.3
				c-0.5,0-1,0.1-1.5,0.4s-0.8,0.7-1.1,1.2c-0.3,0.5-0.4,1-0.4,1.6s0.1,1.1,0.4,1.6s0.6,0.9,1.1,1.2c0.5,0.3,1,0.4,1.5,0.4
				c0.4,0,0.8-0.1,1.2-0.3c0.4-0.2,0.7-0.4,1-0.8l1.1,1.1c-0.4,0.5-0.9,0.8-1.5,1.1s-1.2,0.4-1.9,0.4
				C382.2,109.1,381.5,108.9,380.7,108.5z"/>
			<path class="st17" d="M390,108.5c-0.7-0.4-1.3-1-1.7-1.7c-0.4-0.7-0.6-1.5-0.6-2.3s0.2-1.6,0.6-2.3c0.4-0.7,1-1.3,1.7-1.7
				c0.7-0.4,1.5-0.6,2.3-0.6s1.6,0.2,2.3,0.6c0.7,0.4,1.3,1,1.7,1.7c0.4,0.7,0.6,1.5,0.6,2.3s-0.2,1.6-0.6,2.3
				c-0.4,0.7-1,1.3-1.7,1.7c-0.7,0.4-1.5,0.6-2.3,0.6S390.7,108.9,390,108.5z M393.9,107.2c0.5-0.3,0.8-0.7,1.1-1.2
				c0.3-0.5,0.4-1,0.4-1.6s-0.1-1.1-0.4-1.6s-0.6-0.9-1.1-1.2c-0.5-0.3-1-0.4-1.5-0.4s-1,0.1-1.5,0.4s-0.8,0.7-1.1,1.2
				c-0.3,0.5-0.4,1-0.4,1.6s0.1,1.1,0.4,1.6s0.6,0.9,1.1,1.2c0.5,0.3,1,0.4,1.5,0.4S393.4,107.5,393.9,107.2z"/>
			<path class="st17" d="M399.1,100h1.6l4.7,6.3V100h1.6v8.9h-1.6l-4.7-6.3v6.3h-1.6V100z"/>
			<path class="st17" d="M411.6,101.5h-2.9V100h7.3v1.5h-2.8v7.4h-1.6V101.5z"/>
			<path class="st17" d="M424.4,104.8c-0.4,0.5-1,0.9-1.8,1l2.2,3.1H423l-2.1-3h-1.4v3h-1.6V100h3.9c0.6,0,1.2,0.1,1.7,0.4
				s0.9,0.6,1.2,1.1c0.3,0.5,0.4,1,0.4,1.5C425.1,103.7,424.8,104.3,424.4,104.8z M419.4,104.5h2.1c0.6,0,1-0.1,1.4-0.4
				c0.3-0.3,0.5-0.6,0.5-1.1s-0.2-0.8-0.5-1.1c-0.3-0.3-0.8-0.4-1.4-0.4h-2.1V104.5z"/>
			<path class="st17" d="M428.8,108.5c-0.7-0.4-1.3-1-1.7-1.7c-0.4-0.7-0.6-1.5-0.6-2.3s0.2-1.6,0.6-2.3c0.4-0.7,1-1.3,1.7-1.7
				c0.7-0.4,1.5-0.6,2.3-0.6s1.6,0.2,2.3,0.6c0.7,0.4,1.3,1,1.7,1.7c0.4,0.7,0.6,1.5,0.6,2.3s-0.2,1.6-0.6,2.3
				c-0.4,0.7-1,1.3-1.7,1.7c-0.7,0.4-1.5,0.6-2.3,0.6S429.6,108.9,428.8,108.5z M432.7,107.2c0.5-0.3,0.8-0.7,1.1-1.2
				c0.3-0.5,0.4-1,0.4-1.6s-0.1-1.1-0.4-1.6s-0.6-0.9-1.1-1.2c-0.5-0.3-1-0.4-1.5-0.4s-1,0.1-1.5,0.4s-0.8,0.7-1.1,1.2
				c-0.3,0.5-0.4,1-0.4,1.6s0.1,1.1,0.4,1.6s0.6,0.9,1.1,1.2c0.5,0.3,1,0.4,1.5,0.4S432.2,107.5,432.7,107.2z"/>
			<path class="st17" d="M444.1,107.5v1.5h-6.2v-9h1.6v7.4L444.1,107.5L444.1,107.5z"/>
			<path class="st17" d="M452,107.5v1.5h-6.2v-9h1.6v7.4L452,107.5L452,107.5z"/>
			<path class="st17" d="M455.4,101.5v2.2h4.6v1.5h-4.6v2.3h5.1v1.5h-6.7v-9h6.7v1.5H455.4z"/>
			<path class="st17" d="M469.1,104.8c-0.4,0.5-1,0.9-1.8,1l2.2,3.1h-1.8l-2.1-3h-1.4v3h-1.6V100h3.9c0.6,0,1.2,0.1,1.7,0.4
				s0.9,0.6,1.2,1.1c0.3,0.5,0.4,1,0.4,1.5C469.8,103.7,469.6,104.3,469.1,104.8z M464.2,104.5h2.1c0.6,0,1-0.1,1.4-0.4
				c0.3-0.3,0.5-0.6,0.5-1.1s-0.2-0.8-0.5-1.1c-0.3-0.3-0.8-0.4-1.4-0.4h-2.1V104.5z"/>
		</g>
	</g>
	<g>
		<path class="st18" d="M375.8,37.1v34.1c0,1.7,0.9,3.4,2.4,4.2l29.5,17c1.5,0.9,3.4,0.9,4.9,0l29.5-17c1.5-0.9,2.4-2.5,2.4-4.2
			V37.1c0-1.7-0.9-3.4-2.4-4.2l-29.5-17c-1.5-0.9-3.4-0.9-4.9,0l-29.5,17C376.7,33.7,375.8,35.3,375.8,37.1z"/>
		<g>
			<path class="st19" d="M413.2,29.4l3.1,4.6c0.8,1.2,2.3,1.9,3.8,1.6l5.4-1.1c2.6-0.5,4.8,1.7,4.3,4.3l-1.1,5.4
				c-0.3,1.5,0.3,3,1.6,3.8l4.6,3.1c2.2,1.5,2.2,4.7,0,6.1l-4.6,3.1c-1.2,0.8-1.9,2.3-1.6,3.8l1.1,5.4c0.5,2.6-1.7,4.8-4.3,4.3
				l-5.4-1.1c-1.5-0.3-3,0.3-3.8,1.6l-3.1,4.6c-1.5,2.2-4.7,2.2-6.1,0l-3.1-4.6c-0.8-1.2-2.3-1.9-3.8-1.6l-5.4,1.1
				c-2.6,0.5-4.8-1.7-4.3-4.3l1.1-5.4c0.3-1.5-0.3-3-1.6-3.8l-4.6-3.1c-2.2-1.5-2.2-4.7,0-6.1L390,48c1.2-0.8,1.9-2.3,1.6-3.8
				l-1.1-5.4c-0.5-2.6,1.7-4.8,4.3-4.3l5.4,1.1c1.5,0.3,3-0.3,3.8-1.6l3.1-4.6C408.5,27.2,411.8,27.2,413.2,29.4z"/>
			<circle class="st19" cx="410.1" cy="54.1" r="7.3"/>
			<path class="st20" d="M410.1,62.7c-4.7,0-8.6-3.8-8.6-8.6s3.8-8.6,8.6-8.6"/>
			<circle class="st19" cx="410.1" cy="54.1" r="14.7"/>
			<path class="st20" d="M410.1,40.7c7.4,0,13.4,6,13.4,13.4s-6,13.4-13.4,13.4"/>
		</g>
	</g>
</g>
<g>
	<g>
		<line class="st21" x1="410.1" y1="197.5" x2="410.1" y2="127.9"/>
		<g>
			<polygon class="st22" points="413.2,130 410.1,118.6 407.1,130 			"/>
		</g>
	</g>
</g>
<g>
	<g>
		<line class="st21" x1="220.5" y1="237.1" x2="220.5" y2="198.1"/>
		<g>
			<polygon class="st22" points="223.5,235 220.5,246.4 217.4,235 			"/>
		</g>
	</g>
</g>
<g>
	<g>
		<line class="st21" x1="347.9" y1="237.1" x2="347.9" y2="198.1"/>
		<g>
			<polygon class="st22" points="350.9,235 347.9,246.4 344.8,235 			"/>
		</g>
	</g>
</g>
<g>
	<g>
		<line class="st21" x1="474.3" y1="237.1" x2="474.3" y2="198.1"/>
		<g>
			<polygon class="st22" points="477.3,235 474.3,246.4 471.2,235 			"/>
		</g>
	</g>
</g>
<g>
	<g>
		<line class="st21" x1="599.7" y1="237.1" x2="599.7" y2="198.1"/>
		<g>
			<polygon class="st22" points="602.8,235 599.7,246.4 596.7,235 			"/>
		</g>
	</g>
</g>
<g>
	<g>
		<polyline class="st21" points="93.7,237.6 93.7,197.7 725.9,197.7 725.9,238.1 		"/>
		<g>
			<polygon class="st22" points="96.8,235.5 93.7,246.9 90.7,235.5 			"/>
		</g>
		<g>
			<polygon class="st22" points="722.9,236.1 725.9,247.4 729,236.1 			"/>
		</g>
	</g>
</g>
<g>
	<g>
		<path class="st23" d="M372.9,164.5c-0.5,0.6-1.2,1-2,1.2l2.5,3.6h-2.1l-2.4-3.5h-1.6v3.5h-1.9V159h4.5c0.7,0,1.4,0.1,2,0.4
			s1.1,0.7,1.4,1.2s0.5,1.1,0.5,1.8C373.7,163.2,373.4,163.9,372.9,164.5z M367.2,164.1h2.4c0.7,0,1.2-0.2,1.6-0.5s0.6-0.7,0.6-1.2
			s-0.2-0.9-0.6-1.2s-0.9-0.5-1.6-0.5h-2.4V164.1z"/>
		<path class="st23" d="M377.9,160.7v2.5h5.3v1.7h-5.3v2.7h5.9v1.7H376V159h7.8v1.7H377.9z"/>
		<path class="st23" d="M387.3,169c-0.7-0.3-1.4-0.7-2-1.2l1.1-1.3c1,0.9,2.2,1.4,3.4,1.4c0.6,0,1.1-0.1,1.4-0.4
			c0.3-0.3,0.5-0.6,0.5-1c0-0.3-0.1-0.5-0.2-0.7s-0.4-0.3-0.7-0.5c-0.3-0.1-0.8-0.3-1.4-0.4c-0.8-0.2-1.5-0.4-2-0.6
			c-0.5-0.2-0.9-0.5-1.2-0.9c-0.3-0.4-0.4-0.9-0.4-1.5s0.2-1.1,0.5-1.6s0.8-0.8,1.3-1.1c0.6-0.3,1.2-0.4,1.9-0.4
			c1.5,0,2.8,0.5,3.9,1.4l-1,1.4c-0.5-0.4-0.9-0.7-1.4-0.9s-1-0.3-1.5-0.3s-0.9,0.1-1.3,0.4c-0.3,0.3-0.5,0.6-0.5,0.9
			c0,0.3,0.1,0.5,0.2,0.7c0.2,0.2,0.4,0.3,0.8,0.5s0.8,0.2,1.4,0.4c1.2,0.3,2.1,0.6,2.7,1.1c0.6,0.4,0.9,1.1,0.9,2
			c0,0.6-0.2,1.2-0.5,1.6c-0.3,0.5-0.7,0.8-1.3,1.1c-0.6,0.3-1.3,0.4-2.1,0.4C388.9,169.4,388.1,169.3,387.3,169z"/>
		<path class="st23" d="M398.2,160.7h-3.3V159h8.5v1.7h-3.3v8.6h-1.9L398.2,160.7L398.2,160.7z"/>
		<path class="st23" d="M424.9,167.3H420l-0.8,2h-2.1l4.3-10.3h2.1l4.3,10.3h-2.1L424.9,167.3z M424.3,165.8l-1.8-4.3l-1.8,4.3
			H424.3z"/>
		<path class="st23" d="M429.7,159h4.5c0.7,0,1.4,0.1,2,0.4s1.1,0.7,1.4,1.2s0.5,1.1,0.5,1.8s-0.2,1.2-0.5,1.8
			c-0.3,0.5-0.8,0.9-1.4,1.2s-1.2,0.4-2,0.4h-2.6v3.5h-1.9V159z M434,164.1c0.7,0,1.2-0.2,1.6-0.5s0.6-0.7,0.6-1.2s-0.2-0.9-0.6-1.2
			s-0.9-0.5-1.6-0.5h-2.4v3.4H434z"/>
		<path class="st23" d="M440.3,159h1.9v10.3h-1.9V159z"/>
	</g>
</g>
<g id="Layer_6">
</g>
<g id="Guide_2" class="st24">
</g>
<g id="Guide_1">
</g>
<g>
	<g>
		<path class="st25" d="M607.2,303.9h-14.9c-0.6,0-1.2-0.3-1.5-0.7l-9.5-11.9c-0.4-0.5-0.5-1.1-0.4-1.7l3.6-14.5
			c0.1-0.6,0.5-1,1-1.3l13.4-6.7c0.5-0.3,1.2-0.3,1.7,0l13.5,6.7c0.5,0.3,0.9,0.7,1,1.3l3.4,14.5c0.1,0.6,0,1.2-0.4,1.6l-9.6,11.9
			C608.3,303.6,607.8,303.9,607.2,303.9z M592.2,301.9h14.9l9.5-11.8l-3.4-14.5l-13.5-6.7l-13.3,6.7l-3.6,14.5L592.2,301.9z"/>
		<g>
			<polygon class="st26" points="616.9,271.1 618.6,269.7 600.7,260.9 600.7,263.1 			"/>
			<polygon class="st27" points="577.7,291.9 575.5,292.4 588,308.1 589,306.1 			"/>
			<polygon class="st26" points="598.7,263.1 598.7,260.9 581.1,269.7 582.8,271.2 			"/>
			<polygon class="st28" points="581.6,272.8 579.9,271.3 575.1,290.5 577.3,290 			"/>
			<polygon class="st28" points="622.2,290 624.4,290.5 619.9,271.3 618.1,272.7 			"/>
			<polygon class="st27" points="621.8,291.9 610.4,306.1 611.3,308.1 623.9,292.4 			"/>
			<polygon class="st26" points="590.8,306.9 589.8,308.9 609.5,308.9 608.6,306.9 			"/>
		</g>
	</g>
</g>
<g>
	<path d="M568.4,319.7l-3.3,7.6h-1.2l-3.3-7.6h1.2l2.6,6.1l2.6-6.1H568.4z"/>
	<path d="M569.8,319.7h1.1l2.7,4.9l2.7-4.9h1.1v7.6h-1.1v-5.4l-2.7,4.9l-2.7-4.9v5.4h-1.1V319.7z"/>
	<path d="M578.6,321.6h1.1l1.3,4.2l1.4-4.2h0.9l1.4,4.2l1.3-4.2h1.1l-1.9,5.7h-1l-1.4-4.2l-1.4,4.2h-1L578.6,321.6z"/>
	<path d="M592.1,322.1c0.4,0.4,0.6,1,0.6,1.7v3.4h-1.1v-0.8c-0.2,0.3-0.5,0.5-0.8,0.7s-0.7,0.2-1.1,0.2c-0.6,0-1.1-0.2-1.5-0.5
		c-0.4-0.3-0.6-0.8-0.6-1.3c0-0.4,0.1-0.7,0.3-1c0.2-0.3,0.5-0.5,0.8-0.7c0.3-0.2,0.7-0.2,1.1-0.2c0.5,0,1.1,0.1,1.7,0.3v-0.2
		c0-0.4-0.1-0.8-0.3-1c-0.2-0.3-0.6-0.4-1.1-0.4c-0.4,0-1,0.2-1.6,0.5l-0.4-0.8c0.8-0.4,1.5-0.6,2.2-0.6
		C591.1,321.4,591.7,321.7,592.1,322.1z M591.1,326.2c0.3-0.2,0.5-0.4,0.6-0.8v-0.8c-0.5-0.1-1-0.2-1.6-0.2c-0.4,0-0.7,0.1-1,0.3
		c-0.3,0.2-0.4,0.4-0.4,0.7s0.1,0.5,0.4,0.7s0.5,0.3,0.9,0.3C590.4,326.5,590.8,326.4,591.1,326.2z"/>
	<path d="M596.3,321.8c0.4-0.2,0.8-0.3,1.3-0.3v0.9c-0.4,0-0.8,0.1-1.1,0.2c-0.3,0.2-0.6,0.4-0.7,0.7s-0.3,0.6-0.3,1v3h-1.1v-5.7
		h1.1v1.1C595.7,322.3,596,322,596.3,321.8z"/>
	<path d="M602.3,326.3c0.3-0.1,0.6-0.3,0.7-0.5l0.6,0.7c-0.2,0.3-0.6,0.5-1,0.6c-0.4,0.2-0.9,0.2-1.3,0.2c-0.5,0-1-0.1-1.5-0.4
		s-0.8-0.6-1.1-1.1c-0.3-0.5-0.4-1-0.4-1.5c0-0.6,0.1-1.1,0.4-1.5c0.3-0.5,0.6-0.8,1-1.1c0.4-0.3,0.9-0.4,1.4-0.4
		c0.6,0,1.1,0.1,1.5,0.4c0.4,0.3,0.7,0.7,0.9,1.2c0.2,0.5,0.3,1.1,0.3,1.8h-4.5c0.1,0.5,0.3,0.9,0.6,1.2c0.3,0.3,0.8,0.5,1.2,0.5
		C601.7,326.5,602,326.4,602.3,326.3z M600.2,322.8c-0.3,0.3-0.5,0.7-0.6,1.2h3.5c-0.1-0.5-0.2-0.9-0.5-1.2s-0.7-0.5-1.1-0.5
		C600.9,322.3,600.5,322.5,600.2,322.8z"/>
	<path d="M610.3,320.7h-2.5v-1h6.1v1h-2.5v6.5h-1.1V320.7z"/>
	<path d="M618.9,322.1c0.4,0.4,0.6,1,0.6,1.7v3.4h-1.1v-0.8c-0.2,0.3-0.5,0.5-0.8,0.7s-0.7,0.2-1.1,0.2c-0.6,0-1.1-0.2-1.5-0.5
		c-0.4-0.3-0.6-0.8-0.6-1.3c0-0.4,0.1-0.7,0.3-1c0.2-0.3,0.5-0.5,0.8-0.7c0.3-0.2,0.7-0.2,1.1-0.2c0.5,0,1.1,0.1,1.7,0.3v-0.2
		c0-0.4-0.1-0.8-0.3-1c-0.2-0.3-0.6-0.4-1.1-0.4c-0.4,0-1,0.2-1.6,0.5L615,322c0.8-0.4,1.5-0.6,2.2-0.6
		C617.9,321.4,618.5,321.7,618.9,322.1z M617.9,326.2c0.3-0.2,0.5-0.4,0.6-0.8v-0.8c-0.5-0.1-1-0.2-1.6-0.2c-0.4,0-0.7,0.1-1,0.3
		c-0.3,0.2-0.4,0.4-0.4,0.7s0.1,0.5,0.4,0.7s0.5,0.3,0.9,0.3C617.2,326.5,617.6,326.4,617.9,326.2z"/>
	<path d="M625.2,321.7c0.3,0.2,0.6,0.4,0.8,0.8s0.3,0.7,0.3,1.1v3.6h-1.1v-3.4c0-0.4-0.1-0.8-0.4-1s-0.6-0.4-0.9-0.4
		c-0.3,0-0.5,0.1-0.8,0.2s-0.4,0.3-0.6,0.5c-0.1,0.2-0.2,0.4-0.2,0.7v3.5h-1.1v-5.7h1.1v0.8c0.2-0.3,0.4-0.5,0.7-0.7
		s0.7-0.3,1.1-0.3C624.5,321.4,624.9,321.5,625.2,321.7z"/>
	<path d="M627.4,326.4l3.2-3.9h-3.1v-1h4.6l0,0.8l-3.2,3.9h3.2v1h-4.7V326.4z"/>
	<path d="M638.2,321.6v5.7h-1.1v-0.8c-0.2,0.3-0.4,0.5-0.7,0.7c-0.3,0.2-0.7,0.3-1.1,0.3c-0.4,0-0.8-0.1-1.1-0.3
		c-0.3-0.2-0.6-0.4-0.8-0.8c-0.2-0.3-0.3-0.7-0.3-1.1v-3.6h1.1v3.4c0,0.4,0.1,0.8,0.4,1c0.2,0.3,0.6,0.4,0.9,0.4
		c0.3,0,0.5-0.1,0.8-0.2s0.4-0.3,0.6-0.5c0.1-0.2,0.2-0.4,0.2-0.7v-3.5H638.2z"/>
	<path d="M540.8,330.9h1.1v3.9l3.6-3.9h1.4l-3.1,3.4l3.3,4.2h-1.4l-2.7-3.4l-1.1,1.2v2.2h-1.1V330.9z"/>
	<path d="M553.2,332.8v5.7h-1.1v-0.8c-0.2,0.3-0.4,0.5-0.7,0.7c-0.3,0.2-0.7,0.3-1.1,0.3c-0.4,0-0.8-0.1-1.1-0.3
		c-0.3-0.2-0.6-0.4-0.8-0.8c-0.2-0.3-0.3-0.7-0.3-1.1v-3.6h1.1v3.4c0,0.4,0.1,0.8,0.4,1c0.2,0.3,0.6,0.4,0.9,0.4
		c0.3,0,0.5-0.1,0.8-0.2s0.4-0.3,0.6-0.5c0.1-0.2,0.2-0.4,0.2-0.7v-3.5H553.2z"/>
	<path d="M559.4,333c0.4,0.3,0.7,0.6,0.9,1.1s0.3,1,0.3,1.5c0,0.6-0.1,1.1-0.3,1.5c-0.2,0.5-0.5,0.8-0.9,1.1
		c-0.4,0.3-0.8,0.4-1.3,0.4c-0.4,0-0.8-0.1-1.2-0.3c-0.4-0.2-0.6-0.5-0.9-0.8v1h-1.1v-7.7h1.1v3c0.2-0.4,0.5-0.6,0.9-0.8
		c0.4-0.2,0.7-0.3,1.2-0.3C558.6,332.6,559,332.8,559.4,333z M558.7,337.4c0.3-0.2,0.5-0.4,0.6-0.7c0.2-0.3,0.2-0.7,0.2-1
		s-0.1-0.7-0.2-1c-0.2-0.3-0.4-0.5-0.6-0.7c-0.3-0.2-0.6-0.3-0.9-0.3c-0.3,0-0.6,0.1-0.9,0.3c-0.3,0.2-0.5,0.4-0.6,0.7
		c-0.2,0.3-0.2,0.7-0.2,1s0.1,0.7,0.2,1c0.2,0.3,0.4,0.6,0.6,0.7c0.3,0.2,0.6,0.3,0.9,0.3C558.1,337.6,558.4,337.6,558.7,337.4z"/>
	<path d="M565.5,337.5c0.3-0.1,0.6-0.3,0.7-0.5l0.6,0.7c-0.2,0.3-0.6,0.5-1,0.6c-0.4,0.2-0.9,0.2-1.3,0.2c-0.5,0-1-0.1-1.5-0.4
		s-0.8-0.6-1.1-1.1c-0.3-0.5-0.4-1-0.4-1.5c0-0.6,0.1-1.1,0.4-1.5c0.3-0.5,0.6-0.8,1-1.1c0.4-0.3,0.9-0.4,1.4-0.4
		c0.6,0,1.1,0.1,1.5,0.4c0.4,0.3,0.7,0.7,0.9,1.2c0.2,0.5,0.3,1.1,0.3,1.8h-4.5c0.1,0.5,0.3,0.9,0.6,1.2c0.3,0.3,0.8,0.5,1.2,0.5
		C564.8,337.7,565.1,337.6,565.5,337.5z M563.3,334c-0.3,0.3-0.5,0.7-0.6,1.2h3.5c-0.1-0.5-0.2-0.9-0.5-1.2s-0.7-0.5-1.1-0.5
		C564,333.5,563.6,333.7,563.3,334z"/>
	<path d="M570.4,333c0.4-0.2,0.8-0.3,1.3-0.3v0.9c-0.4,0-0.8,0.1-1.1,0.2c-0.3,0.2-0.6,0.4-0.7,0.7s-0.3,0.6-0.3,1v3h-1.1v-5.7h1.1
		v1.1C569.8,333.5,570,333.2,570.4,333z"/>
	<path d="M577,332.9c0.3,0.2,0.6,0.4,0.8,0.8s0.3,0.7,0.3,1.1v3.6h-1.1V335c0-0.4-0.1-0.8-0.4-1s-0.6-0.4-0.9-0.4
		c-0.3,0-0.5,0.1-0.8,0.2s-0.4,0.3-0.6,0.5c-0.1,0.2-0.2,0.4-0.2,0.7v3.5H573v-5.7h1.1v0.8c0.2-0.3,0.4-0.5,0.7-0.7s0.7-0.3,1.1-0.3
		C576.3,332.6,576.7,332.7,577,332.9z"/>
	<path d="M583.1,337.5c0.3-0.1,0.6-0.3,0.7-0.5l0.6,0.7c-0.2,0.3-0.6,0.5-1,0.6c-0.4,0.2-0.9,0.2-1.3,0.2c-0.5,0-1-0.1-1.5-0.4
		s-0.8-0.6-1.1-1.1c-0.3-0.5-0.4-1-0.4-1.5c0-0.6,0.1-1.1,0.4-1.5c0.3-0.5,0.6-0.8,1-1.1c0.4-0.3,0.9-0.4,1.4-0.4
		c0.6,0,1.1,0.1,1.5,0.4c0.4,0.3,0.7,0.7,0.9,1.2c0.2,0.5,0.3,1.1,0.3,1.8h-4.5c0.1,0.5,0.3,0.9,0.6,1.2c0.3,0.3,0.8,0.5,1.2,0.5
		C582.4,337.7,582.8,337.6,583.1,337.5z M580.9,334c-0.3,0.3-0.5,0.7-0.6,1.2h3.5c-0.1-0.5-0.2-0.9-0.5-1.2s-0.7-0.5-1.1-0.5
		C581.7,333.5,581.3,333.7,580.9,334z"/>
	<path d="M588.9,338.2c-0.2,0.1-0.3,0.2-0.5,0.3c-0.2,0.1-0.4,0.1-0.6,0.1c-0.4,0-0.8-0.1-1.1-0.4c-0.3-0.3-0.4-0.7-0.4-1.1v-3.3
		h-0.8v-0.9h0.8v-1.6h1.1v1.6h1.3v0.9h-1.3v3.3c0,0.2,0.1,0.4,0.2,0.5c0.1,0.1,0.3,0.2,0.4,0.2c0.1,0,0.2,0,0.3-0.1
		c0.1,0,0.2-0.1,0.2-0.1L588.9,338.2z"/>
	<path d="M593.5,337.5c0.3-0.1,0.6-0.3,0.7-0.5l0.6,0.7c-0.2,0.3-0.6,0.5-1,0.6c-0.4,0.2-0.9,0.2-1.3,0.2c-0.5,0-1-0.1-1.5-0.4
		s-0.8-0.6-1.1-1.1c-0.3-0.5-0.4-1-0.4-1.5c0-0.6,0.1-1.1,0.4-1.5c0.3-0.5,0.6-0.8,1-1.1c0.4-0.3,0.9-0.4,1.4-0.4
		c0.6,0,1.1,0.1,1.5,0.4c0.4,0.3,0.7,0.7,0.9,1.2c0.2,0.5,0.3,1.1,0.3,1.8h-4.5c0.1,0.5,0.3,0.9,0.6,1.2c0.3,0.3,0.8,0.5,1.2,0.5
		C592.9,337.7,593.2,337.6,593.5,337.5z M591.3,334c-0.3,0.3-0.5,0.7-0.6,1.2h3.5c-0.1-0.5-0.2-0.9-0.5-1.2s-0.7-0.5-1.1-0.5
		C592.1,333.5,591.7,333.7,591.3,334z"/>
	<path d="M597.1,338.4c-0.4-0.1-0.8-0.4-1.1-0.6l0.5-0.7c0.3,0.2,0.6,0.4,1,0.5s0.7,0.2,1,0.2c0.3,0,0.6-0.1,0.8-0.2
		c0.2-0.1,0.3-0.3,0.3-0.6c0-0.2-0.1-0.4-0.3-0.5c-0.2-0.1-0.5-0.2-1-0.4c-0.7-0.2-1.2-0.4-1.5-0.6c-0.3-0.2-0.5-0.6-0.5-1
		c0-0.5,0.2-0.9,0.6-1.3s0.9-0.5,1.5-0.5c0.4,0,0.7,0.1,1.1,0.2c0.4,0.1,0.7,0.3,1,0.5l-0.5,0.8c-0.6-0.4-1.1-0.6-1.7-0.6
		c-0.3,0-0.5,0.1-0.7,0.2c-0.2,0.1-0.3,0.3-0.3,0.5c0,0.1,0,0.3,0.1,0.4c0.1,0.1,0.2,0.2,0.4,0.2c0.2,0.1,0.5,0.2,0.8,0.3
		c0.4,0.1,0.7,0.2,1,0.4c0.3,0.1,0.5,0.3,0.7,0.5c0.2,0.2,0.3,0.5,0.3,0.9c0,0.5-0.2,1-0.6,1.3c-0.4,0.3-0.9,0.5-1.6,0.5
		C598,338.6,597.5,338.5,597.1,338.4z"/>
	<path d="M608.4,334.4h3.1v3c-0.4,0.4-0.8,0.6-1.4,0.9c-0.5,0.2-1.1,0.3-1.6,0.3c-0.7,0-1.3-0.2-1.9-0.5c-0.6-0.4-1.1-0.8-1.4-1.4
		s-0.5-1.2-0.5-1.9c0-0.7,0.2-1.3,0.5-1.9s0.8-1.1,1.4-1.4c0.6-0.4,1.2-0.5,1.9-0.5c0.5,0,1.1,0.1,1.6,0.3c0.5,0.2,1,0.5,1.4,0.9
		l-0.8,0.7c-0.3-0.3-0.6-0.5-1-0.7c-0.4-0.2-0.8-0.2-1.2-0.2c-0.5,0-1,0.1-1.4,0.4c-0.4,0.3-0.8,0.6-1,1.1c-0.3,0.4-0.4,0.9-0.4,1.4
		c0,0.5,0.1,1,0.4,1.4c0.3,0.4,0.6,0.8,1,1.1c0.4,0.3,0.9,0.4,1.4,0.4c0.3,0,0.7-0.1,1-0.2c0.3-0.1,0.6-0.3,0.9-0.5v-1.6h-2V334.4z"
		/>
	<path d="M615.1,333c0.4-0.2,0.8-0.3,1.3-0.3v0.9c-0.4,0-0.8,0.1-1.1,0.2c-0.3,0.2-0.6,0.4-0.7,0.7s-0.3,0.6-0.3,1v3h-1.1v-5.7h1.1
		v1.1C614.4,333.5,614.7,333.2,615.1,333z"/>
	<path d="M617.7,331.6c-0.1-0.1-0.2-0.3-0.2-0.5s0.1-0.3,0.2-0.5c0.1-0.1,0.3-0.2,0.5-0.2c0.2,0,0.3,0.1,0.5,0.2
		c0.1,0.1,0.2,0.3,0.2,0.5s-0.1,0.3-0.2,0.5s-0.3,0.2-0.5,0.2C618,331.8,617.8,331.8,617.7,331.6z M617.6,332.8h1.1v5.7h-1.1V332.8z
		"/>
	<path d="M625.8,330.8v7.7h-1.1v-1c-0.2,0.3-0.5,0.6-0.9,0.8s-0.7,0.3-1.2,0.3c-0.5,0-0.9-0.1-1.3-0.4c-0.4-0.3-0.7-0.6-0.9-1.1
		c-0.2-0.5-0.3-1-0.3-1.5c0-0.6,0.1-1.1,0.3-1.5c0.2-0.5,0.5-0.8,0.9-1.1c0.4-0.3,0.8-0.4,1.3-0.4c0.4,0,0.8,0.1,1.2,0.3
		s0.6,0.5,0.9,0.8v-3H625.8z M623.9,337.4c0.3-0.2,0.5-0.4,0.6-0.7c0.2-0.3,0.2-0.7,0.2-1s-0.1-0.7-0.2-1c-0.2-0.3-0.4-0.5-0.6-0.7
		c-0.3-0.2-0.6-0.3-0.9-0.3c-0.3,0-0.6,0.1-0.9,0.3c-0.3,0.2-0.5,0.4-0.6,0.7c-0.2,0.3-0.2,0.7-0.2,1s0.1,0.7,0.2,1
		c0.2,0.3,0.4,0.6,0.6,0.7c0.3,0.2,0.6,0.3,0.9,0.3C623.3,337.6,623.6,337.6,623.9,337.4z"/>
	<path d="M630.9,338.2c-0.4-0.8-0.6-1.7-0.6-2.7s0.2-1.8,0.6-2.7s1-1.5,1.7-2.1l0.6,0.6c-0.6,0.6-1.1,1.3-1.4,1.9
		c-0.3,0.7-0.4,1.4-0.4,2.3c0,0.8,0.1,1.6,0.4,2.3c0.3,0.7,0.7,1.3,1.4,1.9l-0.6,0.6C631.9,339.7,631.3,339,630.9,338.2z"/>
	<path d="M636.2,331.9h-2.5v-1h6.1v1h-2.5v6.5h-1.1V331.9z"/>
	<path d="M641.3,330.9h1.1v3.9l3.6-3.9h1.4l-3.1,3.4l3.3,4.2h-1.4l-2.7-3.4l-1.1,1.2v2.2h-1.1V330.9z"/>
	<path d="M652.2,334.4h3.1v3c-0.4,0.4-0.8,0.6-1.4,0.9c-0.5,0.2-1.1,0.3-1.6,0.3c-0.7,0-1.3-0.2-1.9-0.5c-0.6-0.4-1.1-0.8-1.4-1.4
		s-0.5-1.2-0.5-1.9c0-0.7,0.2-1.3,0.5-1.9s0.8-1.1,1.4-1.4c0.6-0.4,1.2-0.5,1.9-0.5c0.5,0,1.1,0.1,1.6,0.3c0.5,0.2,1,0.5,1.4,0.9
		l-0.8,0.7c-0.3-0.3-0.6-0.5-1-0.7c-0.4-0.2-0.8-0.2-1.2-0.2c-0.5,0-1,0.1-1.4,0.4c-0.4,0.3-0.8,0.6-1,1.1c-0.3,0.4-0.4,0.9-0.4,1.4
		c0,0.5,0.1,1,0.4,1.4c0.3,0.4,0.6,0.8,1,1.1c0.4,0.3,0.9,0.4,1.4,0.4c0.3,0,0.7-0.1,1-0.2c0.3-0.1,0.6-0.3,0.9-0.5v-1.6h-2V334.4z"
		/>
	<path d="M656.4,339.7c0.6-0.6,1.1-1.3,1.4-1.9c0.3-0.7,0.4-1.4,0.4-2.2c0-0.8-0.1-1.6-0.4-2.3s-0.8-1.3-1.4-1.9l0.6-0.6
		c0.8,0.6,1.3,1.3,1.7,2.1s0.6,1.7,0.6,2.7s-0.2,1.8-0.6,2.7c-0.4,0.8-1,1.5-1.7,2.1L656.4,339.7z"/>
</g>
</svg>
