<?xml version="1.0" encoding="utf-8"?>
<!-- Generator: Adobe Illustrator 24.0.0, SVG Export Plug-In . SVG Version: 6.00 Build 0)  -->
<svg version="1.1" id="Layer_1" xmlns="http://www.w3.org/2000/svg" xmlns:xlink="http://www.w3.org/1999/xlink" x="0px" y="0px"
	 viewBox="0 0 748 570" style="enable-background:new 0 0 748 570;" xml:space="preserve">
<style type="text/css">
	.st0{fill:#208FCE;}
	.st1{fill:#FFFFFF;}
	.st2{fill:#1E4388;}
	.st3{fill:#1D428A;}
	.st4{fill:#0091DA;}
	.st5{fill:#78BE20;}
	.st6{fill:#7F35B2;}
	.st7{fill:#00C1D5;}
	.st8{fill:url(#SVGID_1_);}
	.st9{fill:url(#SVGID_2_);}
	.st10{fill:#FFFFFF;stroke:#1E4388;stroke-width:2.9199;stroke-miterlimit:10;}
	.st11{fill:#78BD43;}
	.st12{fill:none;stroke:#495665;stroke-width:2.5475;stroke-miterlimit:10;}
	.st13{opacity:0.15;fill:#495665;enable-background:new    ;}
	.st14{fill:#EF5125;stroke:#EF5024;stroke-width:1.8849;stroke-linecap:round;stroke-linejoin:round;}
	.st15{fill:none;stroke:#FFFFFF;stroke-width:2.7242;stroke-linecap:round;stroke-linejoin:round;}
</style>
<g>
	<rect x="225" y="11.1" class="st0" width="297.2" height="33"/>
	<g>
		<path class="st1" d="M288.9,22.7h1.6l2.4,7.3l2.4-7.3h1.6l2.4,7.3l2.4-7.3h1.6l-3.2,9.6h-1.4l-2.5-7.7l-2.5,7.7h-1.4L288.9,22.7z"
			/>
		<path class="st1" d="M309,31.1c0.4-0.2,0.7-0.4,0.9-0.6l0.8,0.9c-0.3,0.3-0.7,0.6-1.3,0.8c-0.6,0.2-1.1,0.3-1.6,0.3
			c-0.7,0-1.3-0.2-1.9-0.5c-0.6-0.3-1-0.8-1.4-1.4c-0.3-0.6-0.5-1.2-0.5-2c0-0.7,0.2-1.4,0.5-1.9c0.3-0.6,0.8-1,1.3-1.4
			c0.6-0.3,1.2-0.5,1.8-0.5c0.7,0,1.4,0.2,1.9,0.5c0.5,0.3,0.9,0.8,1.2,1.5s0.4,1.4,0.4,2.2h-5.8c0.1,0.7,0.3,1.2,0.8,1.6
			c0.4,0.4,1,0.6,1.6,0.6C308.2,31.3,308.6,31.2,309,31.1z M306.3,26.6c-0.4,0.4-0.7,0.9-0.8,1.5h4.4c-0.1-0.6-0.3-1.1-0.7-1.5
			c-0.4-0.4-0.9-0.6-1.5-0.6C307.2,26,306.7,26.2,306.3,26.6z"/>
		<path class="st1" d="M318.6,25.3c0.5,0.3,0.9,0.8,1.2,1.3c0.3,0.6,0.4,1.2,0.4,2s-0.1,1.4-0.4,2c-0.3,0.6-0.7,1-1.2,1.4
			c-0.5,0.3-1.1,0.5-1.7,0.5c-0.6,0-1.1-0.1-1.5-0.4c-0.4-0.3-0.8-0.6-1.1-1.1v1.3h-1.4v-9.8h1.4v3.8c0.3-0.5,0.6-0.8,1.1-1.1
			c0.4-0.3,1-0.4,1.5-0.4C317.5,24.9,318.1,25,318.6,25.3z M317.7,30.9c0.3-0.2,0.6-0.5,0.8-0.9c0.2-0.4,0.3-0.8,0.3-1.3
			s-0.1-0.9-0.3-1.3s-0.5-0.7-0.8-0.9c-0.3-0.2-0.7-0.3-1.2-0.3c-0.4,0-0.8,0.1-1.2,0.3s-0.6,0.5-0.8,0.9s-0.3,0.8-0.3,1.3
			s0.1,0.9,0.3,1.3c0.2,0.4,0.5,0.7,0.8,0.9c0.3,0.2,0.7,0.3,1.2,0.3C317,31.2,317.4,31.1,317.7,30.9z"/>
		<path class="st1" d="M332.4,30.3h-5l-0.9,2H325l4.1-9.6h1.6l4.1,9.6h-1.6L332.4,30.3z M331.9,29l-2-4.6l-2,4.6H331.9z"/>
		<path class="st1" d="M342,25.3c0.5,0.3,0.9,0.8,1.2,1.3c0.3,0.6,0.4,1.2,0.4,2s-0.1,1.4-0.4,2c-0.3,0.6-0.7,1-1.2,1.4
			c-0.5,0.3-1.1,0.5-1.7,0.5c-0.5,0-1-0.1-1.5-0.4s-0.8-0.6-1.1-1v3.7h-1.4V25h1.4v1.2c0.3-0.4,0.7-0.8,1.1-1
			c0.4-0.2,0.9-0.4,1.5-0.4C340.9,24.9,341.5,25,342,25.3z M341.1,30.9c0.3-0.2,0.6-0.5,0.8-0.9c0.2-0.4,0.3-0.8,0.3-1.3
			s-0.1-0.9-0.3-1.3c-0.2-0.4-0.5-0.7-0.8-0.9s-0.7-0.3-1.2-0.3s-0.8,0.1-1.2,0.3s-0.6,0.5-0.8,0.9c-0.2,0.4-0.3,0.8-0.3,1.3
			s0.1,0.9,0.3,1.3c0.2,0.4,0.5,0.7,0.8,0.9c0.3,0.2,0.7,0.3,1.2,0.3S340.8,31.1,341.1,30.9z"/>
		<path class="st1" d="M351,25.3c0.5,0.3,0.9,0.8,1.2,1.3c0.3,0.6,0.4,1.2,0.4,2s-0.1,1.4-0.4,2c-0.3,0.6-0.7,1-1.2,1.4
			c-0.5,0.3-1.1,0.5-1.7,0.5c-0.5,0-1-0.1-1.5-0.4s-0.8-0.6-1.1-1v3.7h-1.4V25h1.4v1.2c0.3-0.4,0.7-0.8,1.1-1
			c0.4-0.2,0.9-0.4,1.5-0.4C349.9,24.9,350.5,25,351,25.3z M350.1,30.9c0.3-0.2,0.6-0.5,0.8-0.9c0.2-0.4,0.3-0.8,0.3-1.3
			s-0.1-0.9-0.3-1.3c-0.2-0.4-0.5-0.7-0.8-0.9s-0.7-0.3-1.2-0.3s-0.8,0.1-1.2,0.3s-0.6,0.5-0.8,0.9c-0.2,0.4-0.3,0.8-0.3,1.3
			s0.1,0.9,0.3,1.3c0.2,0.4,0.5,0.7,0.8,0.9c0.3,0.2,0.7,0.3,1.2,0.3S349.8,31.1,350.1,30.9z"/>
		<path class="st1" d="M354.4,22.5h1.4v9.8h-1.4V22.5z"/>
		<path class="st1" d="M358.1,23.6c-0.2-0.2-0.2-0.4-0.2-0.6c0-0.2,0.1-0.4,0.2-0.6c0.2-0.2,0.4-0.2,0.6-0.2c0.2,0,0.4,0.1,0.6,0.2
			c0.2,0.2,0.2,0.4,0.2,0.6c0,0.2-0.1,0.4-0.2,0.6c-0.2,0.2-0.4,0.3-0.6,0.3C358.5,23.8,358.3,23.7,358.1,23.6z M358,25h1.4v7.2H358
			V25z"/>
		<path class="st1" d="M363,31.9c-0.6-0.3-1-0.8-1.4-1.4c-0.4-0.6-0.5-1.2-0.5-1.9s0.2-1.3,0.5-1.9s0.8-1,1.4-1.4
			c0.6-0.3,1.2-0.5,1.9-0.5c0.5,0,1,0.1,1.4,0.3c0.5,0.2,0.9,0.5,1.2,0.8l-0.9,0.9c-0.2-0.2-0.5-0.4-0.8-0.6
			c-0.3-0.1-0.6-0.2-0.9-0.2c-0.4,0-0.8,0.1-1.2,0.4c-0.4,0.2-0.7,0.5-0.9,0.9c-0.2,0.4-0.3,0.8-0.3,1.3c0,0.5,0.1,0.9,0.3,1.3
			c0.2,0.4,0.5,0.7,0.9,0.9c0.4,0.2,0.8,0.4,1.2,0.4c0.3,0,0.7-0.1,1-0.2c0.3-0.1,0.6-0.3,0.8-0.6l0.9,0.9c-0.4,0.4-0.8,0.6-1.2,0.9
			c-0.5,0.2-1,0.3-1.5,0.3C364.2,32.4,363.6,32.3,363,31.9z"/>
		<path class="st1" d="M374,25.7c0.5,0.6,0.8,1.3,0.8,2.2v4.4h-1.4v-1c-0.3,0.4-0.6,0.6-1,0.8c-0.4,0.2-0.9,0.3-1.4,0.3
			c-0.8,0-1.4-0.2-1.9-0.6c-0.5-0.4-0.8-1-0.8-1.7c0-0.5,0.1-0.9,0.4-1.3c0.3-0.4,0.6-0.7,1-0.9s0.9-0.3,1.5-0.3
			c0.7,0,1.4,0.1,2.2,0.4v-0.2c0-0.5-0.1-1-0.4-1.3c-0.3-0.4-0.8-0.5-1.4-0.5c-0.6,0-1.2,0.2-2,0.6l-0.5-1c1-0.5,1.9-0.7,2.7-0.7
			C372.8,24.9,373.5,25.1,374,25.7z M372.7,31c0.4-0.2,0.7-0.6,0.8-1v-1c-0.6-0.2-1.3-0.3-2-0.3c-0.5,0-0.9,0.1-1.3,0.4
			c-0.3,0.3-0.5,0.6-0.5,1c0,0.4,0.2,0.7,0.5,0.9c0.3,0.2,0.7,0.3,1.2,0.3C371.8,31.3,372.3,31.2,372.7,31z"/>
		<path class="st1" d="M380.6,31.9c-0.2,0.2-0.4,0.3-0.7,0.4s-0.5,0.1-0.8,0.1c-0.6,0-1-0.2-1.4-0.6c-0.4-0.4-0.5-0.8-0.5-1.4v-4.3
			h-1.1V25h1.1v-2h1.4v2h1.7v1.2h-1.7v4.2c0,0.3,0.1,0.5,0.2,0.6c0.1,0.2,0.3,0.2,0.5,0.2c0.1,0,0.3,0,0.4-0.1S380,31,380,31
			L380.6,31.9z"/>
		<path class="st1" d="M382.1,23.6c-0.2-0.2-0.2-0.4-0.2-0.6c0-0.2,0.1-0.4,0.2-0.6c0.2-0.2,0.4-0.2,0.6-0.2c0.2,0,0.4,0.1,0.6,0.2
			c0.2,0.2,0.2,0.4,0.2,0.6c0,0.2-0.1,0.4-0.2,0.6c-0.2,0.2-0.4,0.3-0.6,0.3C382.5,23.8,382.3,23.7,382.1,23.6z M382,25h1.4v7.2H382
			V25z"/>
		<path class="st1" d="M387,31.9c-0.6-0.3-1-0.8-1.4-1.4c-0.3-0.6-0.5-1.2-0.5-1.9s0.2-1.3,0.5-1.9c0.3-0.6,0.8-1,1.4-1.4
			c0.6-0.3,1.2-0.5,1.9-0.5c0.7,0,1.3,0.2,1.9,0.5c0.6,0.3,1,0.8,1.4,1.4c0.3,0.6,0.5,1.2,0.5,1.9s-0.2,1.3-0.5,1.9
			c-0.3,0.6-0.8,1-1.4,1.4c-0.6,0.3-1.2,0.5-1.9,0.5C388.2,32.4,387.6,32.3,387,31.9z M390.1,30.9c0.4-0.2,0.7-0.5,0.9-0.9
			c0.2-0.4,0.3-0.8,0.3-1.3s-0.1-0.9-0.3-1.3s-0.5-0.7-0.9-0.9s-0.8-0.3-1.2-0.3c-0.4,0-0.8,0.1-1.2,0.3s-0.7,0.5-0.9,0.9
			c-0.2,0.4-0.3,0.8-0.3,1.3s0.1,0.9,0.3,1.3c0.2,0.4,0.5,0.7,0.9,0.9c0.4,0.2,0.8,0.4,1.2,0.4C389.3,31.2,389.7,31.1,390.1,30.9z"
			/>
		<path class="st1" d="M399.5,25.2c0.4,0.2,0.7,0.6,1,1c0.2,0.4,0.3,0.9,0.3,1.5v4.6h-1.3v-4.4c0-0.5-0.2-1-0.5-1.3
			s-0.7-0.5-1.2-0.5c-0.4,0-0.7,0.1-1,0.2c-0.3,0.2-0.6,0.4-0.7,0.6c-0.2,0.3-0.3,0.5-0.3,0.9v4.5h-1.4V25h1.4v1.1
			c0.2-0.4,0.5-0.7,0.9-0.9c0.4-0.2,0.9-0.3,1.4-0.3C398.6,24.9,399.1,25,399.5,25.2z"/>
		<path class="st1" d="M408.4,24v2.8h5.1v1.3h-5.1v4.2H407v-9.6h7.1V24H408.4z"/>
		<path class="st1" d="M415.8,23.6c-0.2-0.2-0.2-0.4-0.2-0.6c0-0.2,0.1-0.4,0.2-0.6c0.2-0.2,0.4-0.2,0.6-0.2c0.2,0,0.4,0.1,0.6,0.2
			c0.2,0.2,0.2,0.4,0.2,0.6c0,0.2-0.1,0.4-0.2,0.6c-0.2,0.2-0.4,0.3-0.6,0.3C416.2,23.8,416,23.7,415.8,23.6z M415.7,25h1.4v7.2
			h-1.4V25z"/>
		<path class="st1" d="M421.8,25.3c0.5-0.3,1-0.4,1.6-0.4v1.2c-0.5,0-1,0.1-1.4,0.3c-0.4,0.2-0.7,0.5-1,0.8
			c-0.2,0.4-0.3,0.8-0.3,1.2v3.9h-1.4V25h1.4v1.4C421,26,421.4,25.6,421.8,25.3z"/>
		<path class="st1" d="M429.4,31.1c0.4-0.2,0.7-0.4,0.9-0.6l0.8,0.9c-0.3,0.3-0.7,0.6-1.3,0.8c-0.6,0.2-1.1,0.3-1.6,0.3
			c-0.7,0-1.3-0.2-1.9-0.5c-0.6-0.3-1-0.8-1.4-1.4c-0.3-0.6-0.5-1.2-0.5-2c0-0.7,0.2-1.4,0.5-1.9c0.3-0.6,0.8-1,1.3-1.4
			c0.6-0.3,1.2-0.5,1.8-0.5c0.7,0,1.4,0.2,1.9,0.5c0.5,0.3,0.9,0.8,1.2,1.5s0.4,1.4,0.4,2.2h-5.8c0.1,0.7,0.3,1.2,0.8,1.6
			c0.4,0.4,1,0.6,1.6,0.6C428.6,31.3,429,31.2,429.4,31.1z M426.7,26.6c-0.4,0.4-0.7,0.9-0.8,1.5h4.4c-0.1-0.6-0.3-1.1-0.7-1.5
			c-0.4-0.4-0.9-0.6-1.5-0.6C427.6,26,427.1,26.2,426.7,26.6z"/>
		<path class="st1" d="M432.4,25h1.4l1.7,5.4l1.8-5.4h1.2l1.8,5.4l1.7-5.4h1.4l-2.4,7.2h-1.3l-1.7-5.4l-1.8,5.4h-1.3L432.4,25z"/>
		<path class="st1" d="M449.6,25.7c0.5,0.6,0.8,1.3,0.8,2.2v4.4h-1.4v-1c-0.3,0.4-0.6,0.6-1,0.8c-0.4,0.2-0.9,0.3-1.4,0.3
			c-0.8,0-1.4-0.2-1.9-0.6s-0.8-1-0.8-1.7c0-0.5,0.1-0.9,0.4-1.3c0.3-0.4,0.6-0.7,1.1-0.9c0.4-0.2,0.9-0.3,1.5-0.3
			c0.7,0,1.4,0.1,2.2,0.4v-0.2c0-0.5-0.1-1-0.4-1.3c-0.3-0.4-0.8-0.5-1.4-0.5c-0.6,0-1.2,0.2-2,0.6l-0.5-1c1-0.5,1.9-0.7,2.7-0.7
			C448.3,24.9,449.1,25.1,449.6,25.7z M448.3,31c0.4-0.2,0.7-0.6,0.8-1v-1c-0.6-0.2-1.3-0.3-2-0.3c-0.5,0-0.9,0.1-1.3,0.4
			c-0.3,0.3-0.5,0.6-0.5,1c0,0.4,0.2,0.7,0.5,0.9c0.3,0.2,0.7,0.3,1.2,0.3C447.4,31.3,447.9,31.2,448.3,31z"/>
		<path class="st1" d="M452.5,22.5h1.4v9.8h-1.4V22.5z"/>
		<path class="st1" d="M456.2,22.5h1.4v9.8h-1.4V22.5z"/>
	</g>
	<rect x="225" y="50.8" class="st2" width="297.2" height="33"/>
	<g>
		<path class="st1" d="M296.2,69.3h-5l-0.9,2h-1.6l4.1-9.6h1.6l4.1,9.6h-1.6L296.2,69.3z M295.7,68.1l-2-4.6l-2,4.6H295.7z"/>
		<path class="st1" d="M305.8,64.4c0.5,0.3,0.9,0.8,1.2,1.3c0.3,0.6,0.4,1.2,0.4,2s-0.1,1.4-0.4,2c-0.3,0.6-0.7,1-1.2,1.4
			c-0.5,0.3-1.1,0.5-1.7,0.5c-0.5,0-1-0.1-1.5-0.4s-0.8-0.6-1.1-1v3.7h-1.4v-9.6h1.4v1.2c0.3-0.4,0.7-0.8,1.1-1
			c0.4-0.2,0.9-0.4,1.5-0.4C304.7,63.9,305.3,64.1,305.8,64.4z M304.9,70c0.3-0.2,0.6-0.5,0.8-0.9c0.2-0.4,0.3-0.8,0.3-1.3
			s-0.1-0.9-0.3-1.3c-0.2-0.4-0.5-0.7-0.8-0.9s-0.7-0.3-1.2-0.3s-0.8,0.1-1.2,0.3s-0.6,0.5-0.8,0.9c-0.2,0.4-0.3,0.8-0.3,1.3
			s0.1,0.9,0.3,1.3c0.2,0.4,0.5,0.7,0.8,0.9c0.3,0.2,0.7,0.3,1.2,0.3S304.6,70.2,304.9,70z"/>
		<path class="st1" d="M314.8,64.4c0.5,0.3,0.9,0.8,1.2,1.3c0.3,0.6,0.4,1.2,0.4,2s-0.1,1.4-0.4,2c-0.3,0.6-0.7,1-1.2,1.4
			c-0.5,0.3-1.1,0.5-1.7,0.5c-0.5,0-1-0.1-1.5-0.4s-0.8-0.6-1.1-1v3.7h-1.4v-9.6h1.4v1.2c0.3-0.4,0.7-0.8,1.1-1
			c0.4-0.2,0.9-0.4,1.5-0.4C313.8,63.9,314.3,64.1,314.8,64.4z M314,70c0.3-0.2,0.6-0.5,0.8-0.9c0.2-0.4,0.3-0.8,0.3-1.3
			s-0.1-0.9-0.3-1.3c-0.2-0.4-0.5-0.7-0.8-0.9s-0.7-0.3-1.2-0.3s-0.8,0.1-1.2,0.3s-0.6,0.5-0.8,0.9c-0.2,0.4-0.3,0.8-0.3,1.3
			s0.1,0.9,0.3,1.3c0.2,0.4,0.5,0.7,0.8,0.9c0.3,0.2,0.7,0.3,1.2,0.3S313.6,70.2,314,70z"/>
		<path class="st1" d="M318.2,61.5h1.4v9.8h-1.4V61.5z"/>
		<path class="st1" d="M322,62.6c-0.2-0.2-0.2-0.4-0.2-0.6c0-0.2,0.1-0.4,0.2-0.6c0.2-0.2,0.4-0.2,0.6-0.2c0.2,0,0.4,0.1,0.6,0.2
			c0.2,0.2,0.2,0.4,0.2,0.6c0,0.2-0.1,0.4-0.2,0.6c-0.2,0.2-0.4,0.3-0.6,0.3C322.3,62.9,322.1,62.8,322,62.6z M321.9,64.1h1.4v7.2
			h-1.4V64.1z"/>
		<path class="st1" d="M326.8,71c-0.6-0.3-1-0.8-1.4-1.4c-0.4-0.6-0.5-1.2-0.5-1.9s0.2-1.3,0.5-1.9s0.8-1,1.4-1.4
			c0.6-0.3,1.2-0.5,1.9-0.5c0.5,0,1,0.1,1.4,0.3c0.5,0.2,0.9,0.5,1.2,0.8l-0.9,0.9c-0.2-0.2-0.5-0.4-0.8-0.6
			c-0.3-0.1-0.6-0.2-0.9-0.2c-0.4,0-0.8,0.1-1.2,0.4c-0.4,0.2-0.7,0.5-0.9,0.9c-0.2,0.4-0.3,0.8-0.3,1.3c0,0.5,0.1,0.9,0.3,1.3
			c0.2,0.4,0.5,0.7,0.9,0.9c0.4,0.2,0.8,0.4,1.2,0.4c0.3,0,0.7-0.1,1-0.2c0.3-0.1,0.6-0.3,0.8-0.6l0.9,0.9c-0.4,0.4-0.8,0.6-1.2,0.9
			c-0.5,0.2-1,0.3-1.5,0.3C328.1,71.5,327.4,71.3,326.8,71z"/>
		<path class="st1" d="M337.9,64.7c0.5,0.6,0.8,1.3,0.8,2.2v4.4h-1.4v-1c-0.3,0.4-0.6,0.6-1,0.8c-0.4,0.2-0.9,0.3-1.4,0.3
			c-0.8,0-1.4-0.2-1.9-0.6c-0.5-0.4-0.8-1-0.8-1.7c0-0.5,0.1-0.9,0.4-1.3c0.3-0.4,0.6-0.7,1-0.9s0.9-0.3,1.5-0.3
			c0.7,0,1.4,0.1,2.2,0.4v-0.2c0-0.5-0.1-1-0.4-1.3c-0.3-0.4-0.8-0.5-1.4-0.5c-0.6,0-1.2,0.2-2,0.6l-0.5-1c1-0.5,1.9-0.7,2.7-0.7
			C336.6,63.9,337.3,64.2,337.9,64.7z M336.5,70c0.4-0.2,0.7-0.6,0.8-1v-1c-0.6-0.2-1.3-0.3-2-0.3c-0.5,0-0.9,0.1-1.3,0.4
			c-0.3,0.3-0.5,0.6-0.5,1c0,0.4,0.2,0.7,0.5,0.9c0.3,0.2,0.7,0.3,1.2,0.3C335.7,70.4,336.1,70.3,336.5,70z"/>
		<path class="st1" d="M344.4,71c-0.2,0.2-0.4,0.3-0.7,0.4s-0.5,0.1-0.8,0.1c-0.6,0-1-0.2-1.4-0.6c-0.4-0.4-0.5-0.8-0.5-1.4v-4.3
			H340v-1.2h1.1v-2h1.4v2h1.7v1.2h-1.7v4.2c0,0.3,0.1,0.5,0.2,0.6c0.1,0.2,0.3,0.2,0.5,0.2c0.1,0,0.3,0,0.4-0.1s0.2-0.1,0.3-0.2
			L344.4,71z"/>
		<path class="st1" d="M345.9,62.6c-0.2-0.2-0.2-0.4-0.2-0.6c0-0.2,0.1-0.4,0.2-0.6c0.2-0.2,0.4-0.2,0.6-0.2c0.2,0,0.4,0.1,0.6,0.2
			c0.2,0.2,0.2,0.4,0.2,0.6c0,0.2-0.1,0.4-0.2,0.6c-0.2,0.2-0.4,0.3-0.6,0.3C346.3,62.9,346.1,62.8,345.9,62.6z M345.8,64.1h1.4v7.2
			h-1.4V64.1z"/>
		<path class="st1" d="M350.8,71c-0.6-0.3-1-0.8-1.4-1.4c-0.3-0.6-0.5-1.2-0.5-1.9s0.2-1.3,0.5-1.9c0.3-0.6,0.8-1,1.4-1.4
			c0.6-0.3,1.2-0.5,1.9-0.5c0.7,0,1.3,0.2,1.9,0.5c0.6,0.3,1,0.8,1.4,1.4c0.3,0.6,0.5,1.2,0.5,1.9s-0.2,1.3-0.5,1.9
			c-0.3,0.6-0.8,1-1.4,1.4c-0.6,0.3-1.2,0.5-1.9,0.5C352,71.5,351.4,71.3,350.8,71z M353.9,69.9c0.4-0.2,0.7-0.5,0.9-0.9
			c0.2-0.4,0.3-0.8,0.3-1.3s-0.1-0.9-0.3-1.3s-0.5-0.7-0.9-0.9s-0.8-0.3-1.2-0.3c-0.4,0-0.8,0.1-1.2,0.3s-0.7,0.5-0.9,0.9
			c-0.2,0.4-0.3,0.8-0.3,1.3s0.1,0.9,0.3,1.3c0.2,0.4,0.5,0.7,0.9,0.9c0.4,0.2,0.8,0.4,1.2,0.4C353.1,70.3,353.5,70.2,353.9,69.9z"
			/>
		<path class="st1" d="M363.3,64.3c0.4,0.2,0.7,0.6,1,1c0.2,0.4,0.3,0.9,0.3,1.5v4.6h-1.3V67c0-0.5-0.2-1-0.5-1.3s-0.7-0.5-1.2-0.5
			c-0.4,0-0.7,0.1-1,0.2c-0.3,0.2-0.6,0.4-0.7,0.6c-0.2,0.3-0.3,0.5-0.3,0.9v4.5h-1.4v-7.2h1.4v1.1c0.2-0.4,0.5-0.7,0.9-0.9
			c0.4-0.2,0.9-0.3,1.4-0.3C362.4,63.9,362.9,64,363.3,64.3z"/>
		<path class="st1" d="M377.7,66.9c-0.5,0.6-1.2,0.9-2,1l2.4,3.4h-1.6l-2.4-3.3h-1.8v3.3h-1.4v-9.6h4c0.7,0,1.3,0.1,1.8,0.4
			c0.5,0.3,1,0.6,1.3,1.1c0.3,0.5,0.5,1,0.5,1.6C378.5,65.6,378.2,66.3,377.7,66.9z M372.2,66.7h2.4c0.7,0,1.3-0.2,1.7-0.5
			s0.6-0.8,0.6-1.3s-0.2-1-0.6-1.3s-1-0.5-1.7-0.5h-2.4V66.7z"/>
		<path class="st1" d="M385.2,64.7c0.5,0.6,0.8,1.3,0.8,2.2v4.4h-1.4v-1c-0.3,0.4-0.6,0.6-1,0.8c-0.4,0.2-0.9,0.3-1.4,0.3
			c-0.8,0-1.4-0.2-1.9-0.6c-0.5-0.4-0.8-1-0.8-1.7c0-0.5,0.1-0.9,0.4-1.3c0.3-0.4,0.6-0.7,1-0.9s0.9-0.3,1.5-0.3
			c0.7,0,1.4,0.1,2.2,0.4v-0.2c0-0.5-0.1-1-0.4-1.3c-0.3-0.4-0.8-0.5-1.4-0.5c-0.6,0-1.2,0.2-2,0.6l-0.5-1c1-0.5,1.9-0.7,2.7-0.7
			C384,63.9,384.7,64.2,385.2,64.7z M383.9,70c0.4-0.2,0.7-0.6,0.8-1v-1c-0.6-0.2-1.3-0.3-2-0.3c-0.5,0-0.9,0.1-1.3,0.4
			c-0.3,0.3-0.5,0.6-0.5,1c0,0.4,0.2,0.7,0.5,0.9c0.3,0.2,0.7,0.3,1.2,0.3C383,70.4,383.5,70.3,383.9,70z"/>
		<path class="st1" d="M391.8,71c-0.2,0.2-0.4,0.3-0.7,0.4s-0.5,0.1-0.8,0.1c-0.6,0-1-0.2-1.4-0.6c-0.4-0.4-0.5-0.8-0.5-1.4v-4.3
			h-1.1v-1.2h1.1v-2h1.4v2h1.7v1.2h-1.7v4.2c0,0.3,0.1,0.5,0.2,0.6c0.1,0.2,0.3,0.2,0.5,0.2c0.1,0,0.3,0,0.4-0.1s0.2-0.1,0.3-0.2
			L391.8,71z"/>
		<path class="st1" d="M397.6,70.1c0.4-0.2,0.7-0.4,0.9-0.6l0.8,0.9c-0.3,0.3-0.7,0.6-1.3,0.8c-0.6,0.2-1.1,0.3-1.6,0.3
			c-0.7,0-1.3-0.2-1.9-0.5c-0.6-0.3-1-0.8-1.4-1.4c-0.3-0.6-0.5-1.2-0.5-2c0-0.7,0.2-1.4,0.5-1.9c0.3-0.6,0.8-1,1.3-1.4
			c0.6-0.3,1.2-0.5,1.8-0.5c0.7,0,1.4,0.2,1.9,0.5c0.5,0.3,0.9,0.8,1.2,1.5s0.4,1.4,0.4,2.2H394c0.1,0.7,0.3,1.2,0.8,1.6
			c0.4,0.4,1,0.6,1.6,0.6C396.7,70.3,397.1,70.3,397.6,70.1z M394.8,65.6c-0.4,0.4-0.7,0.9-0.8,1.5h4.4c-0.1-0.6-0.3-1.1-0.7-1.5
			c-0.4-0.4-0.9-0.6-1.5-0.6C395.7,65.1,395.2,65.3,394.8,65.6z"/>
		<path class="st1" d="M412,70v1.3h-6.5v-9.6h1.4V70H412z"/>
		<path class="st1" d="M413.7,62.6c-0.2-0.2-0.2-0.4-0.2-0.6c0-0.2,0.1-0.4,0.2-0.6c0.2-0.2,0.4-0.2,0.6-0.2c0.2,0,0.4,0.1,0.6,0.2
			c0.2,0.2,0.2,0.4,0.2,0.6c0,0.2-0.1,0.4-0.2,0.6c-0.2,0.2-0.4,0.3-0.6,0.3C414,62.9,413.8,62.8,413.7,62.6z M413.6,64.1h1.4v7.2
			h-1.4V64.1z"/>
		<path class="st1" d="M426.7,64.3c0.4,0.2,0.7,0.6,0.9,1c0.2,0.4,0.3,0.9,0.3,1.4v4.6h-1.3v-4.4c0-0.5-0.1-1-0.4-1.3
			c-0.3-0.3-0.7-0.5-1.1-0.5c-0.5,0-0.9,0.2-1.3,0.5c-0.3,0.3-0.5,0.7-0.5,1.2v4.5h-1.4v-4.4c0-0.5-0.1-1-0.4-1.3
			c-0.3-0.3-0.7-0.5-1.1-0.5c-0.5,0-0.9,0.2-1.3,0.5c-0.3,0.3-0.5,0.7-0.5,1.2v4.5h-1.4v-7.2h1.4v1c0.2-0.4,0.5-0.7,0.8-0.9
			s0.8-0.3,1.2-0.3c0.6,0,1.1,0.2,1.5,0.5c0.4,0.3,0.7,0.7,0.9,1.3c0.1-0.5,0.4-0.9,0.8-1.2c0.4-0.3,0.9-0.5,1.5-0.5
			C425.8,63.9,426.3,64,426.7,64.3z"/>
		<path class="st1" d="M430.1,62.6c-0.2-0.2-0.2-0.4-0.2-0.6c0-0.2,0.1-0.4,0.2-0.6c0.2-0.2,0.4-0.2,0.6-0.2c0.2,0,0.4,0.1,0.6,0.2
			c0.2,0.2,0.2,0.4,0.2,0.6c0,0.2-0.1,0.4-0.2,0.6c-0.2,0.2-0.4,0.3-0.6,0.3C430.5,62.9,430.3,62.8,430.1,62.6z M430,64.1h1.4v7.2
			H430V64.1z"/>
		<path class="st1" d="M437.3,71c-0.2,0.2-0.4,0.3-0.7,0.4s-0.5,0.1-0.8,0.1c-0.6,0-1-0.2-1.4-0.6c-0.4-0.4-0.5-0.8-0.5-1.4v-4.3
			h-1.1v-1.2h1.1v-2h1.4v2h1.7v1.2h-1.7v4.2c0,0.3,0.1,0.5,0.2,0.6c0.1,0.2,0.3,0.2,0.5,0.2c0.1,0,0.3,0,0.4-0.1s0.2-0.1,0.3-0.2
			L437.3,71z"/>
		<path class="st1" d="M438.9,62.6c-0.2-0.2-0.2-0.4-0.2-0.6c0-0.2,0.1-0.4,0.2-0.6c0.2-0.2,0.4-0.2,0.6-0.2c0.2,0,0.4,0.1,0.6,0.2
			c0.2,0.2,0.2,0.4,0.2,0.6c0,0.2-0.1,0.4-0.2,0.6c-0.2,0.2-0.4,0.3-0.6,0.3C439.2,62.9,439,62.8,438.9,62.6z M438.7,64.1h1.4v7.2
			h-1.4V64.1z"/>
		<path class="st1" d="M447.5,64.3c0.4,0.2,0.7,0.6,1,1c0.2,0.4,0.3,0.9,0.3,1.5v4.6h-1.3V67c0-0.5-0.2-1-0.5-1.3
			c-0.3-0.3-0.7-0.5-1.2-0.5c-0.4,0-0.7,0.1-1,0.2c-0.3,0.2-0.5,0.4-0.7,0.6c-0.2,0.3-0.3,0.5-0.3,0.9v4.5h-1.4v-7.2h1.4v1.1
			c0.2-0.4,0.5-0.7,0.9-0.9c0.4-0.2,0.9-0.3,1.4-0.3C446.6,63.9,447.1,64,447.5,64.3z"/>
		<path class="st1" d="M457.6,64.1v6.5c0,0.6-0.2,1.2-0.5,1.6c-0.3,0.5-0.7,0.9-1.3,1.1c-0.6,0.3-1.2,0.4-1.9,0.4
			c-0.6,0-1.2-0.1-1.7-0.3c-0.5-0.2-1-0.4-1.3-0.7l0.5-1c0.3,0.3,0.6,0.4,1,0.6c0.4,0.1,0.8,0.2,1.3,0.2c0.8,0,1.4-0.2,1.8-0.5
			c0.4-0.4,0.7-0.8,0.7-1.5v-1.1c-0.3,0.4-0.7,0.7-1.1,1c-0.4,0.2-0.9,0.3-1.5,0.3c-0.6,0-1.2-0.1-1.7-0.4c-0.5-0.3-0.9-0.7-1.2-1.2
			c-0.3-0.5-0.4-1.1-0.4-1.8c0-0.7,0.1-1.3,0.4-1.8c0.3-0.5,0.7-0.9,1.2-1.2c0.5-0.3,1.1-0.4,1.7-0.4c0.5,0,1,0.1,1.5,0.3
			c0.4,0.2,0.8,0.6,1.1,1v-1.1H457.6z M455.6,69c0.4-0.4,0.6-1,0.6-1.6c0-0.7-0.2-1.2-0.6-1.6c-0.4-0.4-0.9-0.6-1.6-0.6
			c-0.6,0-1.2,0.2-1.6,0.6c-0.4,0.4-0.6,0.9-0.6,1.6s0.2,1.2,0.6,1.6c0.4,0.4,0.9,0.6,1.6,0.6C454.6,69.6,455.1,69.4,455.6,69z"/>
	</g>
	<rect x="225" y="89.9" class="st2" width="297.2" height="33"/>
	<g>
		<path class="st1" d="M281.4,109.7v1.3h-6.5v-9.6h1.4v8.3H281.4z"/>
		<path class="st1" d="M287.1,102.7h-5.1v-1.3h6.7v1.1l-4.1,8.6h-1.6L287.1,102.7z"/>
		<path class="st1" d="M295.9,102.7v2.8h5.1v1.3h-5.1v4.2h-1.4v-9.6h7.1v1.3H295.9z"/>
		<path class="st1" d="M303.3,102.3c-0.2-0.2-0.2-0.4-0.2-0.6c0-0.2,0.1-0.4,0.2-0.6c0.2-0.2,0.4-0.2,0.6-0.2c0.2,0,0.4,0.1,0.6,0.2
			c0.2,0.2,0.2,0.4,0.2,0.6c0,0.2-0.1,0.4-0.2,0.6c-0.2,0.2-0.4,0.3-0.6,0.3C303.7,102.6,303.5,102.5,303.3,102.3z M303.2,103.8h1.4
			v7.2h-1.4V103.8z"/>
		<path class="st1" d="M309.3,104c0.5-0.3,1-0.4,1.6-0.4v1.2c-0.5,0-1,0.1-1.4,0.3c-0.4,0.2-0.7,0.5-1,0.8c-0.2,0.4-0.3,0.8-0.3,1.2
			v3.9h-1.4v-7.2h1.4v1.4C308.5,104.7,308.8,104.3,309.3,104z"/>
		<path class="st1" d="M316.9,109.8c0.4-0.2,0.7-0.4,0.9-0.6l0.8,0.9c-0.3,0.3-0.7,0.6-1.3,0.8c-0.6,0.2-1.1,0.3-1.6,0.3
			c-0.7,0-1.3-0.2-1.9-0.5c-0.6-0.3-1-0.8-1.4-1.4c-0.3-0.6-0.5-1.2-0.5-2c0-0.7,0.2-1.4,0.5-1.9c0.3-0.6,0.8-1,1.3-1.4
			c0.6-0.3,1.2-0.5,1.8-0.5c0.7,0,1.4,0.2,1.9,0.5c0.5,0.3,0.9,0.8,1.2,1.5s0.4,1.4,0.4,2.2h-5.8c0.1,0.7,0.3,1.2,0.8,1.6
			c0.4,0.4,1,0.6,1.6,0.6C316.1,110,316.5,110,316.9,109.8z M314.2,105.3c-0.4,0.4-0.7,0.9-0.8,1.5h4.4c-0.1-0.6-0.3-1.1-0.7-1.5
			c-0.4-0.4-0.9-0.6-1.5-0.6C315.1,104.8,314.6,104.9,314.2,105.3z"/>
		<path class="st1" d="M319.9,103.8h1.4l1.7,5.4l1.8-5.4h1.2l1.8,5.4l1.7-5.4h1.4l-2.4,7.2H327l-1.7-5.4l-1.8,5.4h-1.3L319.9,103.8z
			"/>
		<path class="st1" d="M337.1,104.4c0.5,0.6,0.8,1.3,0.8,2.2v4.4h-1.4v-1c-0.3,0.4-0.6,0.6-1,0.8c-0.4,0.2-0.9,0.3-1.4,0.3
			c-0.8,0-1.4-0.2-1.9-0.6c-0.5-0.4-0.8-1-0.8-1.7c0-0.5,0.1-0.9,0.4-1.3c0.3-0.4,0.6-0.7,1-0.9s0.9-0.3,1.5-0.3
			c0.7,0,1.4,0.1,2.2,0.4v-0.2c0-0.5-0.1-1-0.4-1.3c-0.3-0.4-0.8-0.5-1.4-0.5c-0.6,0-1.2,0.2-2,0.6l-0.5-1c1-0.5,1.9-0.7,2.7-0.7
			C335.8,103.6,336.5,103.9,337.1,104.4z M335.7,109.7c0.4-0.2,0.7-0.6,0.8-1v-1c-0.6-0.2-1.3-0.3-2-0.3c-0.5,0-0.9,0.1-1.3,0.4
			c-0.3,0.3-0.5,0.6-0.5,1c0,0.4,0.2,0.7,0.5,0.9c0.3,0.2,0.7,0.3,1.2,0.3C334.9,110.1,335.3,110,335.7,109.7z"/>
		<path class="st1" d="M340,101.2h1.4v9.8H340V101.2z"/>
		<path class="st1" d="M343.6,101.2h1.4v9.8h-1.4V101.2z"/>
		<path class="st1" d="M354.9,100.6h1.5l-4.9,11.4H350L354.9,100.6z"/>
		<path class="st1" d="M361.7,101.4h3.3c1,0,1.9,0.2,2.7,0.6c0.8,0.4,1.4,1,1.9,1.7s0.7,1.6,0.7,2.5c0,0.9-0.2,1.8-0.7,2.5
			c-0.5,0.7-1.1,1.3-1.9,1.7c-0.8,0.4-1.7,0.6-2.7,0.6h-3.3V101.4z M365.1,109.7c0.7,0,1.4-0.1,2-0.4c0.6-0.3,1-0.7,1.3-1.3
			c0.3-0.5,0.5-1.1,0.5-1.8s-0.2-1.3-0.5-1.8c-0.3-0.5-0.8-0.9-1.3-1.2c-0.6-0.3-1.2-0.4-2-0.4h-2v7H365.1z"/>
		<path class="st1" d="M372.5,101.4h3.3c1,0,1.9,0.2,2.7,0.6c0.8,0.4,1.4,1,1.9,1.7s0.7,1.6,0.7,2.5c0,0.9-0.2,1.8-0.7,2.5
			c-0.5,0.7-1.1,1.3-1.9,1.7c-0.8,0.4-1.7,0.6-2.7,0.6h-3.3V101.4z M375.9,109.7c0.7,0,1.4-0.1,2-0.4c0.6-0.3,1-0.7,1.3-1.3
			c0.3-0.5,0.5-1.1,0.5-1.8s-0.2-1.3-0.5-1.8c-0.3-0.5-0.8-0.9-1.3-1.2c-0.6-0.3-1.2-0.4-2-0.4h-2v7H375.9z"/>
		<path class="st1" d="M384.3,110.7c-0.6-0.3-1-0.8-1.4-1.4c-0.3-0.6-0.5-1.2-0.5-1.9s0.2-1.3,0.5-1.9c0.3-0.6,0.8-1,1.4-1.4
			c0.6-0.3,1.2-0.5,1.9-0.5c0.7,0,1.3,0.2,1.9,0.5c0.6,0.3,1,0.8,1.4,1.4c0.3,0.6,0.5,1.2,0.5,1.9s-0.2,1.3-0.5,1.9
			c-0.3,0.6-0.8,1-1.4,1.4c-0.6,0.3-1.2,0.5-1.9,0.5C385.5,111.2,384.9,111,384.3,110.7z M387.4,109.6c0.4-0.2,0.7-0.5,0.9-0.9
			c0.2-0.4,0.3-0.8,0.3-1.3s-0.1-0.9-0.3-1.3s-0.5-0.7-0.9-0.9s-0.8-0.3-1.2-0.3c-0.4,0-0.8,0.1-1.2,0.3s-0.7,0.5-0.9,0.9
			c-0.2,0.4-0.3,0.8-0.3,1.3s0.1,0.9,0.3,1.3c0.2,0.4,0.5,0.7,0.9,0.9c0.4,0.2,0.8,0.4,1.2,0.4C386.7,110,387.1,109.9,387.4,109.6z"
			/>
		<path class="st1" d="M391.2,109.6l0.8-1c0.9,0.9,2,1.3,3.2,1.3c0.6,0,1.1-0.1,1.5-0.4c0.4-0.3,0.5-0.6,0.5-1c0-0.4-0.2-0.8-0.6-1
			c-0.4-0.2-1-0.4-1.9-0.6c-0.7-0.2-1.3-0.4-1.8-0.6c-0.5-0.2-0.8-0.5-1.1-0.9c-0.3-0.4-0.4-0.8-0.4-1.4c0-0.5,0.1-1,0.4-1.4
			c0.3-0.4,0.7-0.8,1.2-1s1.1-0.4,1.7-0.4c0.7,0,1.3,0.1,1.9,0.4c0.6,0.2,1.1,0.6,1.6,1l-0.8,1.1c-0.4-0.4-0.9-0.7-1.3-0.9
			c-0.5-0.2-0.9-0.3-1.4-0.3c-0.3,0-0.7,0.1-0.9,0.2c-0.3,0.1-0.5,0.3-0.7,0.5s-0.2,0.5-0.2,0.7c0,0.3,0.1,0.5,0.3,0.7
			c0.2,0.2,0.4,0.3,0.8,0.5c0.3,0.1,0.8,0.3,1.4,0.4c1.1,0.3,1.9,0.6,2.4,1s0.8,1,0.8,1.8c0,0.6-0.1,1-0.4,1.5
			c-0.3,0.4-0.7,0.8-1.2,1c-0.5,0.2-1.2,0.4-1.9,0.4C393.6,111.2,392.2,110.7,391.2,109.6z"/>
		<path class="st1" d="M404.6,101.4h4c0.7,0,1.3,0.1,1.8,0.4c0.5,0.3,1,0.6,1.3,1.1c0.3,0.5,0.5,1,0.5,1.6s-0.2,1.1-0.5,1.6
			c-0.3,0.5-0.7,0.9-1.3,1.1s-1.2,0.4-1.8,0.4H406v3.3h-1.4V101.4z M408.4,106.4c0.7,0,1.3-0.2,1.7-0.5s0.6-0.8,0.6-1.3
			s-0.2-1-0.6-1.3s-1-0.5-1.7-0.5H406v3.6H408.4z"/>
		<path class="st1" d="M416.4,104c0.5-0.3,1-0.4,1.6-0.4v1.2c-0.5,0-1,0.1-1.4,0.3c-0.4,0.2-0.7,0.5-1,0.8c-0.2,0.4-0.3,0.8-0.3,1.2
			v3.9h-1.4v-7.2h1.4v1.4C415.5,104.7,415.9,104.3,416.4,104z"/>
		<path class="st1" d="M421,110.7c-0.6-0.3-1-0.8-1.4-1.4c-0.3-0.6-0.5-1.2-0.5-1.9s0.2-1.3,0.5-1.9c0.3-0.6,0.8-1,1.4-1.4
			c0.6-0.3,1.2-0.5,1.9-0.5c0.7,0,1.3,0.2,1.9,0.5c0.6,0.3,1,0.8,1.4,1.4c0.3,0.6,0.5,1.2,0.5,1.9s-0.2,1.3-0.5,1.9
			c-0.3,0.6-0.8,1-1.4,1.4c-0.6,0.3-1.2,0.5-1.9,0.5C422.2,111.2,421.5,111,421,110.7z M424.1,109.6c0.4-0.2,0.7-0.5,0.9-0.9
			c0.2-0.4,0.3-0.8,0.3-1.3s-0.1-0.9-0.3-1.3s-0.5-0.7-0.9-0.9s-0.8-0.3-1.2-0.3c-0.4,0-0.8,0.1-1.2,0.3s-0.7,0.5-0.9,0.9
			c-0.2,0.4-0.3,0.8-0.3,1.3s0.1,0.9,0.3,1.3c0.2,0.4,0.5,0.7,0.9,0.9c0.4,0.2,0.8,0.4,1.2,0.4C423.3,110,423.7,109.9,424.1,109.6z"
			/>
		<path class="st1" d="M432,110.7c-0.2,0.2-0.4,0.3-0.7,0.4s-0.5,0.1-0.8,0.1c-0.6,0-1-0.2-1.4-0.6c-0.4-0.4-0.5-0.8-0.5-1.4V105
			h-1.1v-1.2h1.1v-2h1.4v2h1.7v1.2h-1.7v4.2c0,0.3,0.1,0.5,0.2,0.6c0.1,0.2,0.3,0.2,0.5,0.2c0.1,0,0.3,0,0.4-0.1s0.2-0.1,0.3-0.2
			L432,110.7z"/>
		<path class="st1" d="M437.7,109.8c0.4-0.2,0.7-0.4,0.9-0.6l0.8,0.9c-0.3,0.3-0.7,0.6-1.3,0.8c-0.6,0.2-1.1,0.3-1.6,0.3
			c-0.7,0-1.3-0.2-1.9-0.5c-0.6-0.3-1-0.8-1.4-1.4c-0.3-0.6-0.5-1.2-0.5-2c0-0.7,0.2-1.4,0.5-1.9c0.3-0.6,0.8-1,1.3-1.4
			c0.6-0.3,1.2-0.5,1.8-0.5c0.7,0,1.4,0.2,1.9,0.5c0.5,0.3,0.9,0.8,1.2,1.5s0.4,1.4,0.4,2.2h-5.8c0.1,0.7,0.3,1.2,0.8,1.6
			c0.4,0.4,1,0.6,1.6,0.6C436.9,110,437.3,110,437.7,109.8z M435,105.3c-0.4,0.4-0.7,0.9-0.8,1.5h4.4c-0.1-0.6-0.3-1.1-0.7-1.5
			c-0.4-0.4-0.9-0.6-1.5-0.6C435.9,104.8,435.4,104.9,435,105.3z"/>
		<path class="st1" d="M442.9,110.7c-0.6-0.3-1-0.8-1.4-1.4c-0.4-0.6-0.5-1.2-0.5-1.9s0.2-1.3,0.5-1.9s0.8-1,1.4-1.4
			c0.6-0.3,1.2-0.5,1.9-0.5c0.5,0,1,0.1,1.4,0.3c0.5,0.2,0.9,0.5,1.2,0.8l-0.9,0.9c-0.2-0.2-0.5-0.4-0.8-0.6
			c-0.3-0.1-0.6-0.2-0.9-0.2c-0.4,0-0.8,0.1-1.2,0.4c-0.4,0.2-0.7,0.5-0.9,0.9c-0.2,0.4-0.3,0.8-0.3,1.3c0,0.5,0.1,0.9,0.3,1.3
			c0.2,0.4,0.5,0.7,0.9,0.9c0.4,0.2,0.8,0.4,1.2,0.4c0.3,0,0.7-0.1,1-0.2c0.3-0.1,0.6-0.3,0.8-0.6l0.9,0.9c-0.4,0.4-0.8,0.6-1.2,0.9
			c-0.5,0.2-1,0.3-1.5,0.3C444.1,111.2,443.5,111,442.9,110.7z"/>
		<path class="st1" d="M452.6,110.7c-0.2,0.2-0.4,0.3-0.7,0.4c-0.3,0.1-0.5,0.1-0.8,0.1c-0.6,0-1-0.2-1.4-0.6s-0.5-0.8-0.5-1.4V105
			h-1.1v-1.2h1.1v-2h1.4v2h1.7v1.2h-1.7v4.2c0,0.3,0.1,0.5,0.2,0.6c0.1,0.2,0.3,0.2,0.5,0.2c0.1,0,0.3,0,0.4-0.1s0.2-0.1,0.3-0.2
			L452.6,110.7z"/>
		<path class="st1" d="M454.1,102.3c-0.2-0.2-0.2-0.4-0.2-0.6c0-0.2,0.1-0.4,0.2-0.6c0.2-0.2,0.4-0.2,0.6-0.2c0.2,0,0.4,0.1,0.6,0.2
			c0.2,0.2,0.2,0.4,0.2,0.6c0,0.2-0.1,0.4-0.2,0.6s-0.4,0.3-0.6,0.3C454.5,102.6,454.3,102.5,454.1,102.3z M454,103.8h1.4v7.2H454
			V103.8z"/>
		<path class="st1" d="M459,110.7c-0.6-0.3-1-0.8-1.4-1.4c-0.3-0.6-0.5-1.2-0.5-1.9s0.2-1.3,0.5-1.9c0.3-0.6,0.8-1,1.4-1.4
			c0.6-0.3,1.2-0.5,1.9-0.5c0.7,0,1.3,0.2,1.9,0.5c0.6,0.3,1,0.8,1.4,1.4c0.3,0.6,0.5,1.2,0.5,1.9s-0.2,1.3-0.5,1.9
			c-0.3,0.6-0.8,1-1.4,1.4s-1.2,0.5-1.9,0.5C460.2,111.2,459.6,111,459,110.7z M462.1,109.6c0.4-0.2,0.7-0.5,0.9-0.9
			c0.2-0.4,0.3-0.8,0.3-1.3s-0.1-0.9-0.3-1.3c-0.2-0.4-0.5-0.7-0.9-0.9c-0.4-0.2-0.8-0.3-1.2-0.3c-0.4,0-0.8,0.1-1.2,0.3
			c-0.4,0.2-0.7,0.5-0.9,0.9c-0.2,0.4-0.3,0.8-0.3,1.3s0.1,0.9,0.3,1.3c0.2,0.4,0.5,0.7,0.9,0.9c0.4,0.2,0.8,0.4,1.2,0.4
			C461.3,110,461.7,109.9,462.1,109.6z"/>
		<path class="st1" d="M471.5,104c0.4,0.2,0.7,0.6,1,1c0.2,0.4,0.3,0.9,0.3,1.5v4.6h-1.3v-4.4c0-0.5-0.2-1-0.5-1.3
			c-0.3-0.3-0.7-0.5-1.2-0.5c-0.4,0-0.7,0.1-1,0.2c-0.3,0.2-0.6,0.4-0.7,0.6c-0.2,0.3-0.3,0.5-0.3,0.9v4.5h-1.4v-7.2h1.4v1.1
			c0.2-0.4,0.5-0.7,0.9-0.9c0.4-0.2,0.9-0.3,1.4-0.3C470.6,103.6,471.1,103.7,471.5,104z"/>
	</g>
	<rect x="225" y="129" class="st2" width="297.2" height="33"/>
	<g>
		<path class="st1" d="M258.8,149.8c-0.6-0.4-1.1-0.9-1.5-1.5c-0.3-0.6-0.5-1.4-0.5-2.2v-5.6h1.4v5.5c0,0.6,0.1,1.1,0.3,1.5
			c0.2,0.4,0.6,0.8,1,1c0.4,0.3,0.9,0.4,1.4,0.4c0.5,0,1-0.1,1.4-0.4c0.4-0.3,0.7-0.6,1-1c0.2-0.4,0.3-1,0.3-1.5v-5.5h1.4v5.6
			c0,0.8-0.2,1.5-0.5,2.2c-0.4,0.6-0.8,1.1-1.5,1.5c-0.6,0.4-1.3,0.5-2.1,0.5S259.4,150.1,258.8,149.8z"/>
		<path class="st1" d="M268.1,150c-0.5-0.2-1-0.5-1.5-0.8l0.6-1c0.4,0.3,0.8,0.5,1.2,0.7c0.4,0.2,0.8,0.2,1.2,0.2
			c0.4,0,0.8-0.1,1-0.3c0.3-0.2,0.4-0.4,0.4-0.7c0-0.3-0.1-0.5-0.4-0.7c-0.3-0.2-0.7-0.3-1.3-0.5c-0.9-0.3-1.5-0.5-1.9-0.8
			c-0.4-0.3-0.6-0.7-0.6-1.3c0-0.7,0.2-1.2,0.7-1.6c0.5-0.4,1.1-0.6,1.9-0.6c0.5,0,0.9,0.1,1.4,0.2c0.5,0.1,0.9,0.4,1.3,0.6l-0.6,1
			c-0.7-0.5-1.4-0.7-2.1-0.7c-0.4,0-0.7,0.1-0.9,0.2c-0.2,0.2-0.4,0.4-0.4,0.7c0,0.2,0.1,0.3,0.2,0.4c0.1,0.1,0.3,0.2,0.5,0.3
			c0.2,0.1,0.6,0.2,1.1,0.4c0.5,0.2,0.9,0.3,1.3,0.5c0.3,0.1,0.6,0.4,0.8,0.6c0.2,0.3,0.3,0.6,0.3,1.1c0,0.7-0.3,1.2-0.8,1.6
			c-0.5,0.4-1.2,0.6-2,0.6C269.2,150.3,268.6,150.2,268.1,150z"/>
		<path class="st1" d="M278.5,148.9c0.4-0.2,0.7-0.4,0.9-0.6l0.8,0.9c-0.3,0.3-0.7,0.6-1.3,0.8c-0.6,0.2-1.1,0.3-1.6,0.3
			c-0.7,0-1.3-0.2-1.9-0.5c-0.6-0.3-1-0.8-1.4-1.4c-0.3-0.6-0.5-1.2-0.5-2c0-0.7,0.2-1.4,0.5-1.9c0.3-0.6,0.8-1,1.3-1.4
			c0.6-0.3,1.2-0.5,1.8-0.5c0.7,0,1.4,0.2,1.9,0.5c0.5,0.3,0.9,0.8,1.2,1.5s0.4,1.4,0.4,2.2h-5.8c0.1,0.7,0.3,1.2,0.8,1.6
			c0.4,0.4,1,0.6,1.6,0.6C277.7,149.2,278.1,149.1,278.5,148.9z M275.7,144.4c-0.4,0.4-0.7,0.9-0.8,1.5h4.4
			c-0.1-0.6-0.3-1.1-0.7-1.5c-0.4-0.4-0.9-0.6-1.5-0.6C276.7,143.9,276.2,144.1,275.7,144.4z"/>
		<path class="st1" d="M284.8,143.2c0.5-0.3,1-0.4,1.6-0.4v1.2c-0.5,0-1,0.1-1.4,0.3c-0.4,0.2-0.7,0.5-1,0.8
			c-0.2,0.4-0.3,0.8-0.3,1.2v3.9h-1.4v-7.2h1.4v1.4C284,143.8,284.3,143.4,284.8,143.2z"/>
		<path class="st1" d="M298.5,148.1h-5l-0.9,2h-1.6l4.1-9.6h1.6l4.1,9.6h-1.6L298.5,148.1z M298,146.9l-2-4.6l-2,4.6H298z"/>
		<path class="st1" d="M308.6,142.9v7.2h-1.4v-1c-0.2,0.4-0.5,0.7-1,0.9s-0.9,0.3-1.4,0.3c-0.5,0-1-0.1-1.4-0.4
			c-0.4-0.2-0.7-0.6-1-1c-0.2-0.4-0.3-0.9-0.3-1.5v-4.6h1.4v4.4c0,0.5,0.2,1,0.5,1.3c0.3,0.3,0.7,0.5,1.2,0.5c0.4,0,0.7-0.1,1-0.2
			c0.3-0.2,0.5-0.4,0.7-0.6c0.2-0.3,0.3-0.5,0.3-0.9v-4.5H308.6z"/>
		<path class="st1" d="M314.5,149.8c-0.2,0.2-0.4,0.3-0.7,0.4s-0.5,0.1-0.8,0.1c-0.6,0-1-0.2-1.4-0.6c-0.4-0.4-0.5-0.8-0.5-1.4v-4.3
			h-1.1v-1.2h1.1v-2h1.4v2h1.7v1.2h-1.7v4.2c0,0.3,0.1,0.5,0.2,0.6c0.1,0.2,0.3,0.2,0.5,0.2c0.1,0,0.3,0,0.4-0.1s0.2-0.1,0.3-0.2
			L314.5,149.8z"/>
		<path class="st1" d="M321.1,143.1c0.4,0.2,0.7,0.6,1,1c0.2,0.4,0.3,0.9,0.3,1.5v4.6H321v-4.4c0-0.5-0.2-1-0.5-1.3
			s-0.7-0.5-1.2-0.5c-0.4,0-0.7,0.1-1,0.2c-0.3,0.2-0.6,0.4-0.7,0.6c-0.2,0.3-0.3,0.5-0.3,0.9v4.5H316v-9.8h1.4v3.6
			c0.2-0.4,0.5-0.7,0.9-0.9c0.4-0.2,0.9-0.3,1.4-0.3C320.2,142.7,320.7,142.9,321.1,143.1z"/>
		<path class="st1" d="M328.8,148.9c0.4-0.2,0.7-0.4,0.9-0.6l0.8,0.9c-0.3,0.3-0.7,0.6-1.3,0.8c-0.6,0.2-1.1,0.3-1.6,0.3
			c-0.7,0-1.3-0.2-1.9-0.5c-0.6-0.3-1-0.8-1.4-1.4c-0.3-0.6-0.5-1.2-0.5-2c0-0.7,0.2-1.4,0.5-1.9c0.3-0.6,0.8-1,1.3-1.4
			c0.6-0.3,1.2-0.5,1.8-0.5c0.7,0,1.4,0.2,1.9,0.5c0.5,0.3,0.9,0.8,1.2,1.5s0.4,1.4,0.4,2.2h-5.8c0.1,0.7,0.3,1.2,0.8,1.6
			c0.4,0.4,1,0.6,1.6,0.6C328,149.2,328.4,149.1,328.8,148.9z M326.1,144.4c-0.4,0.4-0.7,0.9-0.8,1.5h4.4c-0.1-0.6-0.3-1.1-0.7-1.5
			c-0.4-0.4-0.9-0.6-1.5-0.6C327,143.9,326.5,144.1,326.1,144.4z"/>
		<path class="st1" d="M337.8,143.1c0.4,0.2,0.7,0.6,1,1c0.2,0.4,0.3,0.9,0.3,1.5v4.6h-1.3v-4.4c0-0.5-0.2-1-0.5-1.3
			s-0.7-0.5-1.2-0.5c-0.4,0-0.7,0.1-1,0.2c-0.3,0.2-0.6,0.4-0.7,0.6c-0.2,0.3-0.3,0.5-0.3,0.9v4.5h-1.4v-7.2h1.4v1.1
			c0.2-0.4,0.5-0.7,0.9-0.9c0.4-0.2,0.9-0.3,1.4-0.3C336.9,142.7,337.4,142.9,337.8,143.1z"/>
		<path class="st1" d="M344.8,149.8c-0.2,0.2-0.4,0.3-0.7,0.4s-0.5,0.1-0.8,0.1c-0.6,0-1-0.2-1.4-0.6c-0.4-0.4-0.5-0.8-0.5-1.4v-4.3
			h-1.1v-1.2h1.1v-2h1.4v2h1.7v1.2h-1.7v4.2c0,0.3,0.1,0.5,0.2,0.6c0.1,0.2,0.3,0.2,0.5,0.2c0.1,0,0.3,0,0.4-0.1s0.2-0.1,0.3-0.2
			L344.8,149.8z"/>
		<path class="st1" d="M346.4,141.5c-0.2-0.2-0.2-0.4-0.2-0.6c0-0.2,0.1-0.4,0.2-0.6c0.2-0.2,0.4-0.2,0.6-0.2c0.2,0,0.4,0.1,0.6,0.2
			c0.2,0.2,0.2,0.4,0.2,0.6c0,0.2-0.1,0.4-0.2,0.6c-0.2,0.2-0.4,0.3-0.6,0.3C346.7,141.7,346.5,141.6,346.4,141.5z M346.3,142.9h1.4
			v7.2h-1.4V142.9z"/>
		<path class="st1" d="M351.2,149.8c-0.6-0.3-1-0.8-1.4-1.4c-0.4-0.6-0.5-1.2-0.5-1.9s0.2-1.3,0.5-1.9s0.8-1,1.4-1.4
			c0.6-0.3,1.2-0.5,1.9-0.5c0.5,0,1,0.1,1.4,0.3c0.5,0.2,0.9,0.5,1.2,0.8l-0.9,0.9c-0.2-0.2-0.5-0.4-0.8-0.6
			c-0.3-0.1-0.6-0.2-0.9-0.2c-0.4,0-0.8,0.1-1.2,0.4c-0.4,0.2-0.7,0.5-0.9,0.9c-0.2,0.4-0.3,0.8-0.3,1.3c0,0.5,0.1,0.9,0.3,1.3
			c0.2,0.4,0.5,0.7,0.9,0.9c0.4,0.2,0.8,0.4,1.2,0.4c0.3,0,0.7-0.1,1-0.2c0.3-0.1,0.6-0.3,0.8-0.6l0.9,0.9c-0.4,0.4-0.8,0.6-1.2,0.9
			c-0.5,0.2-1,0.3-1.5,0.3C352.4,150.3,351.8,150.1,351.2,149.8z"/>
		<path class="st1" d="M362.3,143.6c0.5,0.6,0.8,1.3,0.8,2.2v4.4h-1.4v-1c-0.3,0.4-0.6,0.6-1,0.8c-0.4,0.2-0.9,0.3-1.4,0.3
			c-0.8,0-1.4-0.2-1.9-0.6c-0.5-0.4-0.8-1-0.8-1.7c0-0.5,0.1-0.9,0.4-1.3c0.3-0.4,0.6-0.7,1-0.9s0.9-0.3,1.5-0.3
			c0.7,0,1.4,0.1,2.2,0.4v-0.2c0-0.5-0.1-1-0.4-1.3c-0.3-0.4-0.8-0.5-1.4-0.5c-0.6,0-1.2,0.2-2,0.6l-0.5-1c1-0.5,1.9-0.7,2.7-0.7
			C361,142.7,361.7,143,362.3,143.6z M360.9,148.9c0.4-0.2,0.7-0.6,0.8-1v-1c-0.6-0.2-1.3-0.3-2-0.3c-0.5,0-0.9,0.1-1.3,0.4
			c-0.3,0.3-0.5,0.6-0.5,1c0,0.4,0.2,0.7,0.5,0.9c0.3,0.2,0.7,0.3,1.2,0.3C360,149.2,360.5,149.1,360.9,148.9z"/>
		<path class="st1" d="M368.8,149.8c-0.2,0.2-0.4,0.3-0.7,0.4s-0.5,0.1-0.8,0.1c-0.6,0-1-0.2-1.4-0.6c-0.4-0.4-0.5-0.8-0.5-1.4v-4.3
			h-1.1v-1.2h1.1v-2h1.4v2h1.7v1.2h-1.7v4.2c0,0.3,0.1,0.5,0.2,0.6c0.1,0.2,0.3,0.2,0.5,0.2c0.1,0,0.3,0,0.4-0.1s0.2-0.1,0.3-0.2
			L368.8,149.8z"/>
		<path class="st1" d="M370.3,141.5c-0.2-0.2-0.2-0.4-0.2-0.6c0-0.2,0.1-0.4,0.2-0.6c0.2-0.2,0.4-0.2,0.6-0.2c0.2,0,0.4,0.1,0.6,0.2
			c0.2,0.2,0.2,0.4,0.2,0.6c0,0.2-0.1,0.4-0.2,0.6c-0.2,0.2-0.4,0.3-0.6,0.3C370.7,141.7,370.5,141.6,370.3,141.5z M370.2,142.9h1.4
			v7.2h-1.4V142.9z"/>
		<path class="st1" d="M375.2,149.8c-0.6-0.3-1-0.8-1.4-1.4c-0.3-0.6-0.5-1.2-0.5-1.9s0.2-1.3,0.5-1.9c0.3-0.6,0.8-1,1.4-1.4
			c0.6-0.3,1.2-0.5,1.9-0.5c0.7,0,1.3,0.2,1.9,0.5c0.6,0.3,1,0.8,1.4,1.4c0.3,0.6,0.5,1.2,0.5,1.9s-0.2,1.3-0.5,1.9
			c-0.3,0.6-0.8,1-1.4,1.4c-0.6,0.3-1.2,0.5-1.9,0.5C376.4,150.3,375.8,150.1,375.2,149.8z M378.3,148.8c0.4-0.2,0.7-0.5,0.9-0.9
			c0.2-0.4,0.3-0.8,0.3-1.3s-0.1-0.9-0.3-1.3s-0.5-0.7-0.9-0.9s-0.8-0.3-1.2-0.3c-0.4,0-0.8,0.1-1.2,0.3s-0.7,0.5-0.9,0.9
			c-0.2,0.4-0.3,0.8-0.3,1.3s0.1,0.9,0.3,1.3c0.2,0.4,0.5,0.7,0.9,0.9c0.4,0.2,0.8,0.4,1.2,0.4C377.5,149.1,377.9,149,378.3,148.8z"
			/>
		<path class="st1" d="M387.7,143.1c0.4,0.2,0.7,0.6,1,1c0.2,0.4,0.3,0.9,0.3,1.5v4.6h-1.3v-4.4c0-0.5-0.2-1-0.5-1.3
			s-0.7-0.5-1.2-0.5c-0.4,0-0.7,0.1-1,0.2c-0.3,0.2-0.6,0.4-0.7,0.6c-0.2,0.3-0.3,0.5-0.3,0.9v4.5h-1.4v-7.2h1.4v1.1
			c0.2-0.4,0.5-0.7,0.9-0.9c0.4-0.2,0.9-0.3,1.4-0.3C386.8,142.7,387.3,142.9,387.7,143.1z"/>
		<path class="st1" d="M398.7,139.7h1.5l-4.9,11.4h-1.5L398.7,139.7z"/>
		<path class="st1" d="M411.8,148.1h-5l-0.9,2h-1.6l4.1-9.6h1.6l4.1,9.6h-1.6L411.8,148.1z M411.3,146.9l-2-4.6l-2,4.6H411.3z"/>
		<path class="st1" d="M422,142.9v7.2h-1.4v-1c-0.2,0.4-0.5,0.7-1,0.9s-0.9,0.3-1.4,0.3c-0.5,0-1-0.1-1.4-0.4c-0.4-0.2-0.7-0.6-1-1
			c-0.2-0.4-0.3-0.9-0.3-1.5v-4.6h1.4v4.4c0,0.5,0.2,1,0.5,1.3c0.3,0.3,0.7,0.5,1.2,0.5c0.4,0,0.7-0.1,1-0.2
			c0.3-0.2,0.5-0.4,0.7-0.6c0.2-0.3,0.3-0.5,0.3-0.9v-4.5H422z"/>
		<path class="st1" d="M427.9,149.8c-0.2,0.2-0.4,0.3-0.7,0.4s-0.5,0.1-0.8,0.1c-0.6,0-1-0.2-1.4-0.6c-0.4-0.4-0.5-0.8-0.5-1.4v-4.3
			h-1.1v-1.2h1.1v-2h1.4v2h1.7v1.2h-1.7v4.2c0,0.3,0.1,0.5,0.2,0.6c0.1,0.2,0.3,0.2,0.5,0.2c0.1,0,0.3,0,0.4-0.1s0.2-0.1,0.3-0.2
			L427.9,149.8z"/>
		<path class="st1" d="M434.4,143.1c0.4,0.2,0.7,0.6,1,1c0.2,0.4,0.3,0.9,0.3,1.5v4.6h-1.3v-4.4c0-0.5-0.2-1-0.5-1.3
			s-0.7-0.5-1.2-0.5c-0.4,0-0.7,0.1-1,0.2c-0.3,0.2-0.6,0.4-0.7,0.6c-0.2,0.3-0.3,0.5-0.3,0.9v4.5h-1.4v-9.8h1.4v3.6
			c0.2-0.4,0.5-0.7,0.9-0.9c0.4-0.2,0.9-0.3,1.4-0.3C433.5,142.7,434,142.9,434.4,143.1z"/>
		<path class="st1" d="M439.1,149.8c-0.6-0.3-1-0.8-1.4-1.4c-0.3-0.6-0.5-1.2-0.5-1.9s0.2-1.3,0.5-1.9c0.3-0.6,0.8-1,1.4-1.4
			c0.6-0.3,1.2-0.5,1.9-0.5c0.7,0,1.3,0.2,1.9,0.5c0.6,0.3,1,0.8,1.4,1.4c0.3,0.6,0.5,1.2,0.5,1.9s-0.2,1.3-0.5,1.9
			c-0.3,0.6-0.8,1-1.4,1.4c-0.6,0.3-1.2,0.5-1.9,0.5C440.4,150.3,439.7,150.1,439.1,149.8z M442.3,148.8c0.4-0.2,0.7-0.5,0.9-0.9
			c0.2-0.4,0.3-0.8,0.3-1.3s-0.1-0.9-0.3-1.3s-0.5-0.7-0.9-0.9s-0.8-0.3-1.2-0.3c-0.4,0-0.8,0.1-1.2,0.3s-0.7,0.5-0.9,0.9
			c-0.2,0.4-0.3,0.8-0.3,1.3s0.1,0.9,0.3,1.3c0.2,0.4,0.5,0.7,0.9,0.9c0.4,0.2,0.8,0.4,1.2,0.4C441.5,149.1,441.9,149,442.3,148.8z"
			/>
		<path class="st1" d="M449,143.2c0.5-0.3,1-0.4,1.6-0.4v1.2c-0.5,0-1,0.1-1.4,0.3c-0.4,0.2-0.7,0.5-1,0.8c-0.2,0.4-0.3,0.8-0.3,1.2
			v3.9h-1.4v-7.2h1.4v1.4C448.1,143.8,448.5,143.4,449,143.2z"/>
		<path class="st1" d="M452.3,141.5c-0.2-0.2-0.2-0.4-0.2-0.6c0-0.2,0.1-0.4,0.2-0.6c0.2-0.2,0.4-0.2,0.6-0.2c0.2,0,0.4,0.1,0.6,0.2
			c0.2,0.2,0.2,0.4,0.2,0.6c0,0.2-0.1,0.4-0.2,0.6s-0.4,0.3-0.6,0.3C452.7,141.7,452.5,141.6,452.3,141.5z M452.2,142.9h1.4v7.2
			h-1.4V142.9z"/>
		<path class="st1" d="M455.2,149.1l4.1-5h-4v-1.2h5.8l0,1l-4.1,5h4.1v1.2h-5.9V149.1z"/>
		<path class="st1" d="M467.7,143.6c0.5,0.6,0.8,1.3,0.8,2.2v4.4h-1.4v-1c-0.3,0.4-0.6,0.6-1,0.8c-0.4,0.2-0.9,0.3-1.4,0.3
			c-0.8,0-1.4-0.2-1.9-0.6s-0.8-1-0.8-1.7c0-0.5,0.1-0.9,0.4-1.3s0.6-0.7,1.1-0.9c0.4-0.2,0.9-0.3,1.5-0.3c0.7,0,1.4,0.1,2.2,0.4
			v-0.2c0-0.5-0.1-1-0.4-1.3c-0.3-0.4-0.8-0.5-1.4-0.5c-0.6,0-1.2,0.2-2,0.6l-0.5-1c1-0.5,1.9-0.7,2.7-0.7
			C466.5,142.7,467.2,143,467.7,143.6z M466.4,148.9c0.4-0.2,0.7-0.6,0.8-1v-1c-0.6-0.2-1.3-0.3-2-0.3c-0.5,0-0.9,0.1-1.3,0.4
			c-0.3,0.3-0.5,0.6-0.5,1c0,0.4,0.2,0.7,0.5,0.9c0.3,0.2,0.7,0.3,1.2,0.3C465.5,149.2,466,149.1,466.4,148.9z"/>
		<path class="st1" d="M474.3,149.8c-0.2,0.2-0.4,0.3-0.7,0.4c-0.3,0.1-0.5,0.1-0.8,0.1c-0.6,0-1-0.2-1.4-0.6s-0.5-0.8-0.5-1.4v-4.3
			h-1.1v-1.2h1.1v-2h1.4v2h1.7v1.2h-1.7v4.2c0,0.3,0.1,0.5,0.2,0.6c0.1,0.2,0.3,0.2,0.5,0.2c0.1,0,0.3,0,0.4-0.1s0.2-0.1,0.3-0.2
			L474.3,149.8z"/>
		<path class="st1" d="M475.8,141.5c-0.2-0.2-0.2-0.4-0.2-0.6c0-0.2,0.1-0.4,0.2-0.6c0.2-0.2,0.4-0.2,0.6-0.2c0.2,0,0.4,0.1,0.6,0.2
			c0.2,0.2,0.2,0.4,0.2,0.6c0,0.2-0.1,0.4-0.2,0.6s-0.4,0.3-0.6,0.3C476.2,141.7,476,141.6,475.8,141.5z M475.7,142.9h1.4v7.2h-1.4
			V142.9z"/>
		<path class="st1" d="M480.7,149.8c-0.6-0.3-1-0.8-1.4-1.4c-0.3-0.6-0.5-1.2-0.5-1.9s0.2-1.3,0.5-1.9c0.3-0.6,0.8-1,1.4-1.4
			c0.6-0.3,1.2-0.5,1.9-0.5c0.7,0,1.3,0.2,1.9,0.5c0.6,0.3,1,0.8,1.4,1.4c0.3,0.6,0.5,1.2,0.5,1.9s-0.2,1.3-0.5,1.9
			c-0.3,0.6-0.8,1-1.4,1.4s-1.2,0.5-1.9,0.5C481.9,150.3,481.3,150.1,480.7,149.8z M483.8,148.8c0.4-0.2,0.7-0.5,0.9-0.9
			c0.2-0.4,0.3-0.8,0.3-1.3s-0.1-0.9-0.3-1.3c-0.2-0.4-0.5-0.7-0.9-0.9c-0.4-0.2-0.8-0.3-1.2-0.3c-0.4,0-0.8,0.1-1.2,0.3
			c-0.4,0.2-0.7,0.5-0.9,0.9c-0.2,0.4-0.3,0.8-0.3,1.3s0.1,0.9,0.3,1.3c0.2,0.4,0.5,0.7,0.9,0.9c0.4,0.2,0.8,0.4,1.2,0.4
			C483,149.1,483.4,149,483.8,148.8z"/>
		<path class="st1" d="M493.2,143.1c0.4,0.2,0.7,0.6,1,1c0.2,0.4,0.3,0.9,0.3,1.5v4.6h-1.3v-4.4c0-0.5-0.2-1-0.5-1.3
			c-0.3-0.3-0.7-0.5-1.2-0.5c-0.4,0-0.7,0.1-1,0.2c-0.3,0.2-0.6,0.4-0.7,0.6c-0.2,0.3-0.3,0.5-0.3,0.9v4.5h-1.4v-7.2h1.4v1.1
			c0.2-0.4,0.5-0.7,0.9-0.9c0.4-0.2,0.9-0.3,1.4-0.3C492.3,142.7,492.8,142.9,493.2,143.1z"/>
	</g>
	<rect x="225" y="207.3" class="st2" width="297.2" height="33"/>
	<g>
		<path class="st1" d="M329,218.8h1.4v9.6H329V218.8z"/>
		<path class="st1" d="M333.3,218.8h4c0.7,0,1.3,0.1,1.8,0.4c0.5,0.3,1,0.6,1.3,1.1c0.3,0.5,0.5,1,0.5,1.6s-0.2,1.1-0.5,1.6
			c-0.3,0.5-0.7,0.9-1.3,1.1s-1.2,0.4-1.8,0.4h-2.6v3.3h-1.4V218.8z M337.1,223.7c0.7,0,1.3-0.2,1.7-0.5s0.6-0.8,0.6-1.3
			s-0.2-1-0.6-1.3s-1-0.5-1.7-0.5h-2.4v3.6H337.1z"/>
		<path class="st1" d="M353.6,223.9c-0.5,0.6-1.2,0.9-2,1l2.4,3.4h-1.6l-2.4-3.3h-1.8v3.3h-1.4v-9.6h4c0.7,0,1.3,0.1,1.8,0.4
			c0.5,0.3,1,0.6,1.3,1.1c0.3,0.5,0.5,1,0.5,1.6C354.3,222.7,354.1,223.4,353.6,223.9z M348.1,223.7h2.4c0.7,0,1.3-0.2,1.7-0.5
			s0.6-0.8,0.6-1.3s-0.2-1-0.6-1.3s-1-0.5-1.7-0.5h-2.4V223.7z"/>
		<path class="st1" d="M360.5,227.2c0.4-0.2,0.7-0.4,0.9-0.6l0.8,0.9c-0.3,0.3-0.7,0.6-1.3,0.8c-0.6,0.2-1.1,0.3-1.6,0.3
			c-0.7,0-1.3-0.2-1.9-0.5c-0.6-0.3-1-0.8-1.4-1.4c-0.3-0.6-0.5-1.2-0.5-2c0-0.7,0.2-1.4,0.5-1.9c0.3-0.6,0.8-1,1.3-1.4
			c0.6-0.3,1.2-0.5,1.8-0.5c0.7,0,1.4,0.2,1.9,0.5c0.5,0.3,0.9,0.8,1.2,1.5s0.4,1.4,0.4,2.2H357c0.1,0.7,0.3,1.2,0.8,1.6
			c0.4,0.4,1,0.6,1.6,0.6C359.7,227.4,360.1,227.3,360.5,227.2z M357.8,222.7c-0.4,0.4-0.7,0.9-0.8,1.5h4.4
			c-0.1-0.6-0.3-1.1-0.7-1.5c-0.4-0.4-0.9-0.6-1.5-0.6C358.7,222.2,358.2,222.3,357.8,222.7z"/>
		<path class="st1" d="M370,221.5c0.5,0.3,0.9,0.8,1.2,1.3c0.3,0.6,0.4,1.2,0.4,2s-0.1,1.4-0.4,2c-0.3,0.6-0.7,1-1.2,1.4
			c-0.5,0.3-1.1,0.5-1.7,0.5c-0.5,0-1-0.1-1.5-0.4s-0.8-0.6-1.1-1v3.7h-1.4v-9.6h1.4v1.2c0.3-0.4,0.7-0.8,1.1-1
			c0.4-0.2,0.9-0.4,1.5-0.4C368.9,221,369.5,221.2,370,221.5z M369.1,227c0.3-0.2,0.6-0.5,0.8-0.9c0.2-0.4,0.3-0.8,0.3-1.3
			s-0.1-0.9-0.3-1.3c-0.2-0.4-0.5-0.7-0.8-0.9s-0.7-0.3-1.2-0.3s-0.8,0.1-1.2,0.3s-0.6,0.5-0.8,0.9c-0.2,0.4-0.3,0.8-0.3,1.3
			s0.1,0.9,0.3,1.3c0.2,0.4,0.5,0.7,0.8,0.9c0.3,0.2,0.7,0.3,1.2,0.3S368.8,227.3,369.1,227z"/>
		<path class="st1" d="M379.6,221.2v7.2h-1.4v-1c-0.2,0.4-0.5,0.7-1,0.9s-0.9,0.3-1.4,0.3c-0.5,0-1-0.1-1.4-0.4
			c-0.4-0.2-0.7-0.6-1-1c-0.2-0.4-0.3-0.9-0.3-1.5v-4.6h1.4v4.4c0,0.5,0.2,1,0.5,1.3c0.3,0.3,0.7,0.5,1.2,0.5c0.4,0,0.7-0.1,1-0.2
			c0.3-0.2,0.5-0.4,0.7-0.6c0.2-0.3,0.3-0.5,0.3-0.9v-4.5H379.6z"/>
		<path class="st1" d="M385.5,228.1c-0.2,0.2-0.4,0.3-0.7,0.4s-0.5,0.1-0.8,0.1c-0.6,0-1-0.2-1.4-0.6c-0.4-0.4-0.5-0.8-0.5-1.4v-4.3
			h-1.1v-1.2h1.1v-2h1.4v2h1.7v1.2h-1.7v4.2c0,0.3,0.1,0.5,0.2,0.6c0.1,0.2,0.3,0.2,0.5,0.2c0.1,0,0.3,0,0.4-0.1s0.2-0.1,0.3-0.2
			L385.5,228.1z"/>
		<path class="st1" d="M391.9,221.8c0.5,0.6,0.8,1.3,0.8,2.2v4.4h-1.4v-1c-0.3,0.4-0.6,0.6-1,0.8c-0.4,0.2-0.9,0.3-1.4,0.3
			c-0.8,0-1.4-0.2-1.9-0.6c-0.5-0.4-0.8-1-0.8-1.7c0-0.5,0.1-0.9,0.4-1.3c0.3-0.4,0.6-0.7,1-0.9s0.9-0.3,1.5-0.3
			c0.7,0,1.4,0.1,2.2,0.4V224c0-0.5-0.1-1-0.4-1.3c-0.3-0.4-0.8-0.5-1.4-0.5c-0.6,0-1.2,0.2-2,0.6l-0.5-1c1-0.5,1.9-0.7,2.7-0.7
			C390.7,221,391.4,221.3,391.9,221.8z M390.6,227.1c0.4-0.2,0.7-0.6,0.8-1v-1c-0.6-0.2-1.3-0.3-2-0.3c-0.5,0-0.9,0.1-1.3,0.4
			c-0.3,0.3-0.5,0.6-0.5,1c0,0.4,0.2,0.7,0.5,0.9c0.3,0.2,0.7,0.3,1.2,0.3C389.7,227.5,390.2,227.4,390.6,227.1z"/>
		<path class="st1" d="M398.4,228.1c-0.2,0.2-0.4,0.3-0.7,0.4s-0.5,0.1-0.8,0.1c-0.6,0-1-0.2-1.4-0.6c-0.4-0.4-0.5-0.8-0.5-1.4v-4.3
			H394v-1.2h1.1v-2h1.4v2h1.7v1.2h-1.7v4.2c0,0.3,0.1,0.5,0.2,0.6c0.1,0.2,0.3,0.2,0.5,0.2c0.1,0,0.3,0,0.4-0.1s0.2-0.1,0.3-0.2
			L398.4,228.1z"/>
		<path class="st1" d="M400,219.7c-0.2-0.2-0.2-0.4-0.2-0.6c0-0.2,0.1-0.4,0.2-0.6c0.2-0.2,0.4-0.2,0.6-0.2c0.2,0,0.4,0.1,0.6,0.2
			c0.2,0.2,0.2,0.4,0.2,0.6c0,0.2-0.1,0.4-0.2,0.6c-0.2,0.2-0.4,0.3-0.6,0.3C400.4,220,400.2,219.9,400,219.7z M399.9,221.2h1.4v7.2
			h-1.4V221.2z"/>
		<path class="st1" d="M404.9,228.1c-0.6-0.3-1-0.8-1.4-1.4c-0.3-0.6-0.5-1.2-0.5-1.9s0.2-1.3,0.5-1.9c0.3-0.6,0.8-1,1.4-1.4
			c0.6-0.3,1.2-0.5,1.9-0.5c0.7,0,1.3,0.2,1.9,0.5c0.6,0.3,1,0.8,1.4,1.4c0.3,0.6,0.5,1.2,0.5,1.9s-0.2,1.3-0.5,1.9
			c-0.3,0.6-0.8,1-1.4,1.4c-0.6,0.3-1.2,0.5-1.9,0.5C406.1,228.6,405.5,228.4,404.9,228.1z M408,227c0.4-0.2,0.7-0.5,0.9-0.9
			c0.2-0.4,0.3-0.8,0.3-1.3s-0.1-0.9-0.3-1.3s-0.5-0.7-0.9-0.9s-0.8-0.3-1.2-0.3c-0.4,0-0.8,0.1-1.2,0.3s-0.7,0.5-0.9,0.9
			c-0.2,0.4-0.3,0.8-0.3,1.3s0.1,0.9,0.3,1.3c0.2,0.4,0.5,0.7,0.9,0.9c0.4,0.2,0.8,0.4,1.2,0.4C407.2,227.4,407.6,227.3,408,227z"/>
		<path class="st1" d="M417.3,221.4c0.4,0.2,0.7,0.6,1,1c0.2,0.4,0.3,0.9,0.3,1.5v4.6h-1.3V224c0-0.5-0.2-1-0.5-1.3
			s-0.7-0.5-1.2-0.5c-0.4,0-0.7,0.1-1,0.2c-0.3,0.2-0.6,0.4-0.7,0.6c-0.2,0.3-0.3,0.5-0.3,0.9v4.5h-1.4v-7.2h1.4v1.1
			c0.2-0.4,0.5-0.7,0.9-0.9c0.4-0.2,0.9-0.3,1.4-0.3C416.5,221,416.9,221.1,417.3,221.4z"/>
	</g>
	<rect x="225" y="168.2" class="st2" width="297.2" height="33"/>
	<rect x="225" y="246.3" class="st2" width="297.2" height="33"/>
	<g>
		<path class="st1" d="M269.6,266.1v1.3h-6.5v-9.6h1.4v8.3H269.6z"/>
		<path class="st1" d="M271.9,267.1c-0.6-0.3-1.1-0.7-1.5-1.2l0.9-0.9c0.3,0.4,0.7,0.7,1.2,1c0.5,0.2,1,0.4,1.5,0.4
			c0.6,0,1.1-0.1,1.5-0.4c0.4-0.3,0.6-0.7,0.6-1.2c0-0.5-0.2-0.9-0.6-1.1c-0.4-0.3-1-0.4-1.7-0.4h-1v-1.3l1,0c0.6,0,1.1-0.1,1.5-0.4
			c0.4-0.3,0.6-0.6,0.6-1.1c0-0.4-0.2-0.8-0.6-1.1c-0.4-0.3-0.8-0.4-1.4-0.4c-0.5,0-0.9,0.1-1.3,0.3c-0.4,0.2-0.8,0.5-1.1,1
			l-0.9-0.9c0.9-1.1,2-1.7,3.4-1.7c0.6,0,1.2,0.1,1.7,0.3c0.5,0.2,0.9,0.5,1.2,0.9c0.3,0.4,0.4,0.8,0.4,1.4c0,0.6-0.2,1-0.5,1.4
			c-0.3,0.4-0.8,0.7-1.3,0.8c0.6,0.1,1,0.4,1.4,0.8c0.4,0.4,0.6,0.9,0.6,1.5c0,0.5-0.1,1-0.4,1.4c-0.3,0.4-0.7,0.8-1.2,1
			s-1.1,0.4-1.8,0.4C273.2,267.6,272.5,267.4,271.9,267.1z"/>
		<path class="st1" d="M287.1,257h1.5l-4.9,11.4h-1.5L287.1,257z"/>
		<path class="st1" d="M297.8,265.2H293l-0.2-1.1l4.7-6.3h1.7v6.2h1.4v1.2h-1.4v2.2h-1.4V265.2z M297.8,264v-4.5l-3.4,4.5H297.8z"/>
		<path class="st1" d="M307.6,259.1v2.8h5.1v1.3h-5.1v4.2h-1.4v-9.6h7.1v1.3H307.6z"/>
		<path class="st1" d="M315.1,258.7c-0.2-0.2-0.2-0.4-0.2-0.6c0-0.2,0.1-0.4,0.2-0.6c0.2-0.2,0.4-0.2,0.6-0.2c0.2,0,0.4,0.1,0.6,0.2
			c0.2,0.2,0.2,0.4,0.2,0.6c0,0.2-0.1,0.4-0.2,0.6c-0.2,0.2-0.4,0.3-0.6,0.3C315.4,259,315.2,258.9,315.1,258.7z M314.9,260.2h1.4
			v7.2h-1.4V260.2z"/>
		<path class="st1" d="M321,260.4c0.5-0.3,1-0.4,1.6-0.4v1.2c-0.5,0-1,0.1-1.4,0.3c-0.4,0.2-0.7,0.5-1,0.8c-0.2,0.4-0.3,0.8-0.3,1.2
			v3.9h-1.4v-7.2h1.4v1.4C320.2,261.1,320.6,260.7,321,260.4z"/>
		<path class="st1" d="M328.6,266.2c0.4-0.2,0.7-0.4,0.9-0.6l0.8,0.9c-0.3,0.3-0.7,0.6-1.3,0.8c-0.6,0.2-1.1,0.3-1.6,0.3
			c-0.7,0-1.3-0.2-1.9-0.5c-0.6-0.3-1-0.8-1.4-1.4c-0.3-0.6-0.5-1.2-0.5-2c0-0.7,0.2-1.4,0.5-1.9c0.3-0.6,0.8-1,1.3-1.4
			c0.6-0.3,1.2-0.5,1.8-0.5c0.7,0,1.4,0.2,1.9,0.5c0.5,0.3,0.9,0.8,1.2,1.5s0.4,1.4,0.4,2.2h-5.8c0.1,0.7,0.3,1.2,0.8,1.6
			c0.4,0.4,1,0.6,1.6,0.6C327.8,266.4,328.2,266.3,328.6,266.2z M325.9,261.7c-0.4,0.4-0.7,0.9-0.8,1.5h4.4
			c-0.1-0.6-0.3-1.1-0.7-1.5c-0.4-0.4-0.9-0.6-1.5-0.6C326.8,261.2,326.3,261.3,325.9,261.7z"/>
		<path class="st1" d="M331.6,260.2h1.4l1.7,5.4l1.8-5.4h1.2l1.8,5.4l1.7-5.4h1.4l-2.4,7.2h-1.3l-1.7-5.4l-1.8,5.4H334L331.6,260.2z
			"/>
		<path class="st1" d="M348.8,260.8c0.5,0.6,0.8,1.3,0.8,2.2v4.4h-1.4v-1c-0.3,0.4-0.6,0.6-1,0.8c-0.4,0.2-0.9,0.3-1.4,0.3
			c-0.8,0-1.4-0.2-1.9-0.6c-0.5-0.4-0.8-1-0.8-1.7c0-0.5,0.1-0.9,0.4-1.3c0.3-0.4,0.6-0.7,1-0.9s0.9-0.3,1.5-0.3
			c0.7,0,1.4,0.1,2.2,0.4V263c0-0.5-0.1-1-0.4-1.3c-0.3-0.4-0.8-0.5-1.4-0.5c-0.6,0-1.2,0.2-2,0.6l-0.5-1c1-0.5,1.9-0.7,2.7-0.7
			C347.5,260,348.3,260.3,348.8,260.8z M347.5,266.1c0.4-0.2,0.7-0.6,0.8-1v-1c-0.6-0.2-1.3-0.3-2-0.3c-0.5,0-0.9,0.1-1.3,0.4
			c-0.3,0.3-0.5,0.6-0.5,1c0,0.4,0.2,0.7,0.5,0.9c0.3,0.2,0.7,0.3,1.2,0.3C346.6,266.5,347.1,266.4,347.5,266.1z"/>
		<path class="st1" d="M351.7,257.6h1.4v9.8h-1.4V257.6z"/>
		<path class="st1" d="M355.4,257.6h1.4v9.8h-1.4V257.6z"/>
		<path class="st1" d="M366.6,257h1.5l-4.9,11.4h-1.5L366.6,257z"/>
		<path class="st1" d="M373.5,257.8h3.3c1,0,1.9,0.2,2.7,0.6c0.8,0.4,1.4,1,1.9,1.7s0.7,1.6,0.7,2.5c0,0.9-0.2,1.8-0.7,2.5
			c-0.5,0.7-1.1,1.3-1.9,1.7c-0.8,0.4-1.7,0.6-2.7,0.6h-3.3V257.8z M376.9,266.1c0.7,0,1.4-0.1,2-0.4c0.6-0.3,1-0.7,1.3-1.3
			c0.3-0.5,0.5-1.1,0.5-1.8s-0.2-1.3-0.5-1.8c-0.3-0.5-0.8-0.9-1.3-1.2c-0.6-0.3-1.2-0.4-2-0.4h-2v7H376.9z"/>
		<path class="st1" d="M384.2,257.8h3.3c1,0,1.9,0.2,2.7,0.6c0.8,0.4,1.4,1,1.9,1.7s0.7,1.6,0.7,2.5c0,0.9-0.2,1.8-0.7,2.5
			c-0.5,0.7-1.1,1.3-1.9,1.7c-0.8,0.4-1.7,0.6-2.7,0.6h-3.3V257.8z M387.6,266.1c0.7,0,1.4-0.1,2-0.4c0.6-0.3,1-0.7,1.3-1.3
			c0.3-0.5,0.5-1.1,0.5-1.8s-0.2-1.3-0.5-1.8c-0.3-0.5-0.8-0.9-1.3-1.2c-0.6-0.3-1.2-0.4-2-0.4h-2v7H387.6z"/>
		<path class="st1" d="M396.1,267.1c-0.6-0.3-1-0.8-1.4-1.4c-0.3-0.6-0.5-1.2-0.5-1.9s0.2-1.3,0.5-1.9c0.3-0.6,0.8-1,1.4-1.4
			c0.6-0.3,1.2-0.5,1.9-0.5c0.7,0,1.3,0.2,1.9,0.5c0.6,0.3,1,0.8,1.4,1.4c0.3,0.6,0.5,1.2,0.5,1.9s-0.2,1.3-0.5,1.9
			c-0.3,0.6-0.8,1-1.4,1.4c-0.6,0.3-1.2,0.5-1.9,0.5C397.3,267.6,396.7,267.4,396.1,267.1z M399.2,266c0.4-0.2,0.7-0.5,0.9-0.9
			c0.2-0.4,0.3-0.8,0.3-1.3s-0.1-0.9-0.3-1.3s-0.5-0.7-0.9-0.9s-0.8-0.3-1.2-0.3c-0.4,0-0.8,0.1-1.2,0.3s-0.7,0.5-0.9,0.9
			c-0.2,0.4-0.3,0.8-0.3,1.3s0.1,0.9,0.3,1.3c0.2,0.4,0.5,0.7,0.9,0.9c0.4,0.2,0.8,0.4,1.2,0.4C398.4,266.4,398.8,266.3,399.2,266z"
			/>
		<path class="st1" d="M402.9,266l0.8-1c0.9,0.9,2,1.3,3.2,1.3c0.6,0,1.1-0.1,1.5-0.4c0.4-0.3,0.5-0.6,0.5-1c0-0.4-0.2-0.8-0.6-1
			c-0.4-0.2-1-0.4-1.9-0.6c-0.7-0.2-1.3-0.4-1.8-0.6c-0.5-0.2-0.8-0.5-1.1-0.9c-0.3-0.4-0.4-0.8-0.4-1.4c0-0.5,0.1-1,0.4-1.4
			c0.3-0.4,0.7-0.8,1.2-1s1.1-0.4,1.7-0.4c0.7,0,1.3,0.1,1.9,0.4c0.6,0.2,1.1,0.6,1.6,1l-0.8,1.1c-0.4-0.4-0.9-0.7-1.3-0.9
			c-0.5-0.2-0.9-0.3-1.4-0.3c-0.3,0-0.7,0.1-0.9,0.2c-0.3,0.1-0.5,0.3-0.7,0.5s-0.2,0.5-0.2,0.7c0,0.3,0.1,0.5,0.3,0.7
			c0.2,0.2,0.4,0.3,0.8,0.5c0.3,0.1,0.8,0.3,1.4,0.4c1.1,0.3,1.9,0.6,2.4,1s0.8,1,0.8,1.8c0,0.6-0.1,1-0.4,1.5
			c-0.3,0.4-0.7,0.8-1.2,1c-0.5,0.2-1.2,0.4-1.9,0.4C405.3,267.6,404,267,402.9,266z"/>
		<path class="st1" d="M416.3,257.8h4c0.7,0,1.3,0.1,1.8,0.4c0.5,0.3,1,0.6,1.3,1.1c0.3,0.5,0.5,1,0.5,1.6s-0.2,1.1-0.5,1.6
			c-0.3,0.5-0.7,0.9-1.3,1.1s-1.2,0.4-1.8,0.4h-2.6v3.3h-1.4V257.8z M420.2,262.7c0.7,0,1.3-0.2,1.7-0.5s0.6-0.8,0.6-1.3
			s-0.2-1-0.6-1.3s-1-0.5-1.7-0.5h-2.4v3.6H420.2z"/>
		<path class="st1" d="M428.1,260.4c0.5-0.3,1-0.4,1.6-0.4v1.2c-0.5,0-1,0.1-1.4,0.3c-0.4,0.2-0.7,0.5-1,0.8
			c-0.2,0.4-0.3,0.8-0.3,1.2v3.9h-1.4v-7.2h1.4v1.4C427.3,261.1,427.6,260.7,428.1,260.4z"/>
		<path class="st1" d="M432.7,267.1c-0.6-0.3-1-0.8-1.4-1.4c-0.3-0.6-0.5-1.2-0.5-1.9s0.2-1.3,0.5-1.9c0.3-0.6,0.8-1,1.4-1.4
			c0.6-0.3,1.2-0.5,1.9-0.5c0.7,0,1.3,0.2,1.9,0.5c0.6,0.3,1,0.8,1.4,1.4c0.3,0.6,0.5,1.2,0.5,1.9s-0.2,1.3-0.5,1.9
			c-0.3,0.6-0.8,1-1.4,1.4c-0.6,0.3-1.2,0.5-1.9,0.5C433.9,267.6,433.3,267.4,432.7,267.1z M435.8,266c0.4-0.2,0.7-0.5,0.9-0.9
			c0.2-0.4,0.3-0.8,0.3-1.3s-0.1-0.9-0.3-1.3s-0.5-0.7-0.9-0.9s-0.8-0.3-1.2-0.3c-0.4,0-0.8,0.1-1.2,0.3s-0.7,0.5-0.9,0.9
			c-0.2,0.4-0.3,0.8-0.3,1.3s0.1,0.9,0.3,1.3c0.2,0.4,0.5,0.7,0.9,0.9c0.4,0.2,0.8,0.4,1.2,0.4C435,266.4,435.4,266.3,435.8,266z"/>
		<path class="st1" d="M443.7,267.1c-0.2,0.2-0.4,0.3-0.7,0.4s-0.5,0.1-0.8,0.1c-0.6,0-1-0.2-1.4-0.6c-0.4-0.4-0.5-0.8-0.5-1.4v-4.3
			h-1.1v-1.2h1.1v-2h1.4v2h1.7v1.2h-1.7v4.2c0,0.3,0.1,0.5,0.2,0.6c0.1,0.2,0.3,0.2,0.5,0.2c0.1,0,0.3,0,0.4-0.1s0.2-0.1,0.3-0.2
			L443.7,267.1z"/>
		<path class="st1" d="M449.5,266.2c0.4-0.2,0.7-0.4,0.9-0.6l0.8,0.9c-0.3,0.3-0.7,0.6-1.3,0.8c-0.6,0.2-1.1,0.3-1.6,0.3
			c-0.7,0-1.3-0.2-1.9-0.5c-0.6-0.3-1-0.8-1.4-1.4c-0.3-0.6-0.5-1.2-0.5-2c0-0.7,0.2-1.4,0.5-1.9c0.3-0.6,0.8-1,1.3-1.4
			c0.6-0.3,1.2-0.5,1.8-0.5c0.7,0,1.4,0.2,1.9,0.5c0.5,0.3,0.9,0.8,1.2,1.5s0.4,1.4,0.4,2.2h-5.8c0.1,0.7,0.3,1.2,0.8,1.6
			c0.4,0.4,1,0.6,1.6,0.6C448.7,266.4,449.1,266.3,449.5,266.2z M446.7,261.7c-0.4,0.4-0.7,0.9-0.8,1.5h4.4
			c-0.1-0.6-0.3-1.1-0.7-1.5c-0.4-0.4-0.9-0.6-1.5-0.6C447.7,261.2,447.2,261.3,446.7,261.7z"/>
		<path class="st1" d="M454.7,267.1c-0.6-0.3-1-0.8-1.4-1.4c-0.3-0.6-0.5-1.2-0.5-1.9s0.2-1.3,0.5-1.9c0.4-0.6,0.8-1,1.4-1.4
			c0.6-0.3,1.2-0.5,1.9-0.5c0.5,0,1,0.1,1.4,0.3c0.5,0.2,0.9,0.5,1.2,0.8l-0.9,0.9c-0.2-0.2-0.5-0.4-0.8-0.6
			c-0.3-0.1-0.6-0.2-0.9-0.2c-0.4,0-0.8,0.1-1.2,0.4c-0.4,0.2-0.7,0.5-0.9,0.9c-0.2,0.4-0.3,0.8-0.3,1.3c0,0.5,0.1,0.9,0.3,1.3
			c0.2,0.4,0.5,0.7,0.9,0.9c0.4,0.2,0.8,0.4,1.2,0.4c0.3,0,0.7-0.1,1-0.2c0.3-0.1,0.6-0.3,0.8-0.6l0.9,0.9c-0.4,0.4-0.8,0.6-1.2,0.9
			c-0.5,0.2-1,0.3-1.5,0.3C455.9,267.6,455.2,267.4,454.7,267.1z"/>
		<path class="st1" d="M464.3,267.1c-0.2,0.2-0.4,0.3-0.7,0.4c-0.3,0.1-0.5,0.1-0.8,0.1c-0.6,0-1-0.2-1.4-0.6s-0.5-0.8-0.5-1.4v-4.3
			h-1.1v-1.2h1.1v-2h1.4v2h1.7v1.2h-1.7v4.2c0,0.3,0.1,0.5,0.2,0.6c0.1,0.2,0.3,0.2,0.5,0.2c0.1,0,0.3,0,0.4-0.1s0.2-0.1,0.3-0.2
			L464.3,267.1z"/>
		<path class="st1" d="M465.9,258.7c-0.2-0.2-0.2-0.4-0.2-0.6c0-0.2,0.1-0.4,0.2-0.6c0.2-0.2,0.4-0.2,0.6-0.2c0.2,0,0.4,0.1,0.6,0.2
			c0.2,0.2,0.2,0.4,0.2,0.6c0,0.2-0.1,0.4-0.2,0.6s-0.4,0.3-0.6,0.3C466.2,259,466,258.9,465.9,258.7z M465.8,260.2h1.4v7.2h-1.4
			V260.2z"/>
		<path class="st1" d="M470.7,267.1c-0.6-0.3-1-0.8-1.4-1.4c-0.3-0.6-0.5-1.2-0.5-1.9s0.2-1.3,0.5-1.9c0.3-0.6,0.8-1,1.4-1.4
			c0.6-0.3,1.2-0.5,1.9-0.5c0.7,0,1.3,0.2,1.9,0.5c0.6,0.3,1,0.8,1.4,1.4c0.3,0.6,0.5,1.2,0.5,1.9s-0.2,1.3-0.5,1.9
			c-0.3,0.6-0.8,1-1.4,1.4s-1.2,0.5-1.9,0.5C472,267.6,471.3,267.4,470.7,267.1z M473.9,266c0.4-0.2,0.7-0.5,0.9-0.9
			c0.2-0.4,0.3-0.8,0.3-1.3s-0.1-0.9-0.3-1.3c-0.2-0.4-0.5-0.7-0.9-0.9c-0.4-0.2-0.8-0.3-1.2-0.3c-0.4,0-0.8,0.1-1.2,0.3
			c-0.4,0.2-0.7,0.5-0.9,0.9c-0.2,0.4-0.3,0.8-0.3,1.3s0.1,0.9,0.3,1.3c0.2,0.4,0.5,0.7,0.9,0.9c0.4,0.2,0.8,0.4,1.2,0.4
			C473.1,266.4,473.5,266.3,473.9,266z"/>
		<path class="st1" d="M483.2,260.4c0.4,0.2,0.7,0.6,1,1c0.2,0.4,0.3,0.9,0.3,1.5v4.6h-1.3V263c0-0.5-0.2-1-0.5-1.3
			c-0.3-0.3-0.7-0.5-1.2-0.5c-0.4,0-0.7,0.1-1,0.2c-0.3,0.2-0.6,0.4-0.7,0.6c-0.2,0.3-0.3,0.5-0.3,0.9v4.5h-1.4v-7.2h1.4v1.1
			c0.2-0.4,0.5-0.7,0.9-0.9c0.4-0.2,0.9-0.3,1.4-0.3C482.3,260,482.8,260.1,483.2,260.4z"/>
	</g>
	<g>
		<path class="st1" d="M279.4,187.9l0.8-1c0.9,0.9,2,1.3,3.2,1.3c0.6,0,1.1-0.1,1.5-0.4c0.4-0.3,0.5-0.6,0.5-1c0-0.4-0.2-0.8-0.6-1
			c-0.4-0.2-1-0.4-1.9-0.6c-0.7-0.2-1.3-0.4-1.8-0.6c-0.5-0.2-0.8-0.5-1.1-0.9c-0.3-0.4-0.4-0.8-0.4-1.4c0-0.5,0.1-1,0.4-1.4
			c0.3-0.4,0.7-0.8,1.2-1s1.1-0.4,1.7-0.4c0.7,0,1.3,0.1,1.9,0.4c0.6,0.2,1.1,0.6,1.6,1l-0.8,1.1c-0.4-0.4-0.9-0.7-1.3-0.9
			c-0.5-0.2-0.9-0.3-1.4-0.3c-0.3,0-0.7,0.1-0.9,0.2c-0.3,0.1-0.5,0.3-0.7,0.5s-0.2,0.5-0.2,0.7c0,0.3,0.1,0.5,0.3,0.7
			c0.2,0.2,0.4,0.3,0.8,0.5c0.3,0.1,0.8,0.3,1.4,0.4c1.1,0.3,1.9,0.6,2.4,1s0.8,1,0.8,1.8c0,0.6-0.1,1-0.4,1.5
			c-0.3,0.4-0.7,0.8-1.2,1c-0.5,0.2-1.2,0.4-1.9,0.4C281.7,189.4,280.4,188.9,279.4,187.9z"/>
		<path class="st1" d="M288.1,187.9l0.8-1c0.9,0.9,2,1.3,3.2,1.3c0.6,0,1.1-0.1,1.5-0.4c0.4-0.3,0.5-0.6,0.5-1c0-0.4-0.2-0.8-0.6-1
			c-0.4-0.2-1-0.4-1.9-0.6c-0.7-0.2-1.3-0.4-1.8-0.6c-0.5-0.2-0.8-0.5-1.1-0.9c-0.3-0.4-0.4-0.8-0.4-1.4c0-0.5,0.1-1,0.4-1.4
			c0.3-0.4,0.7-0.8,1.2-1s1.1-0.4,1.7-0.4c0.7,0,1.3,0.1,1.9,0.4c0.6,0.2,1.1,0.6,1.6,1l-0.8,1.1c-0.4-0.4-0.9-0.7-1.3-0.9
			c-0.5-0.2-0.9-0.3-1.4-0.3c-0.3,0-0.7,0.1-0.9,0.2c-0.3,0.1-0.5,0.3-0.7,0.5s-0.2,0.5-0.2,0.7c0,0.3,0.1,0.5,0.3,0.7
			c0.2,0.2,0.4,0.3,0.8,0.5c0.3,0.1,0.8,0.3,1.4,0.4c1.1,0.3,1.9,0.6,2.4,1s0.8,1,0.8,1.8c0,0.6-0.1,1-0.4,1.5
			c-0.3,0.4-0.7,0.8-1.2,1c-0.5,0.2-1.2,0.4-1.9,0.4C290.5,189.4,289.2,188.9,288.1,187.9z"/>
		<path class="st1" d="M304.2,188v1.3h-6.5v-9.6h1.4v8.3H304.2z"/>
		<path class="st1" d="M313.3,178.9h1.5l-4.9,11.4h-1.5L313.3,178.9z"/>
		<path class="st1" d="M322.3,181h-3.2v-1.3h7.7v1.3h-3.1v8.3h-1.4V181z"/>
		<path class="st1" d="M335.1,188v1.3h-6.5v-9.6h1.4v8.3H335.1z"/>
		<path class="st1" d="M336.1,187.9l0.8-1c0.9,0.9,2,1.3,3.2,1.3c0.6,0,1.1-0.1,1.5-0.4c0.4-0.3,0.5-0.6,0.5-1c0-0.4-0.2-0.8-0.6-1
			c-0.4-0.2-1-0.4-1.9-0.6c-0.7-0.2-1.3-0.4-1.8-0.6c-0.5-0.2-0.8-0.5-1.1-0.9c-0.3-0.4-0.4-0.8-0.4-1.4c0-0.5,0.1-1,0.4-1.4
			c0.3-0.4,0.7-0.8,1.2-1s1.1-0.4,1.7-0.4c0.7,0,1.3,0.1,1.9,0.4c0.6,0.2,1.1,0.6,1.6,1l-0.8,1.1c-0.4-0.4-0.9-0.7-1.3-0.9
			c-0.5-0.2-0.9-0.3-1.4-0.3c-0.3,0-0.7,0.1-0.9,0.2c-0.3,0.1-0.5,0.3-0.7,0.5s-0.2,0.5-0.2,0.7c0,0.3,0.1,0.5,0.3,0.7
			c0.2,0.2,0.4,0.3,0.8,0.5c0.3,0.1,0.8,0.3,1.4,0.4c1.1,0.3,1.9,0.6,2.4,1s0.8,1,0.8,1.8c0,0.6-0.1,1-0.4,1.5
			c-0.3,0.4-0.7,0.8-1.2,1c-0.5,0.2-1.2,0.4-1.9,0.4C338.5,189.4,337.2,188.9,336.1,187.9z"/>
		<path class="st1" d="M355.9,187.3h-5l-0.9,2h-1.6l4.1-9.6h1.6l4.1,9.6h-1.6L355.9,187.3z M355.3,186l-2-4.6l-2,4.6H355.3z"/>
		<path class="st1" d="M366,182v7.2h-1.4v-1c-0.2,0.4-0.5,0.7-1,0.9s-0.9,0.3-1.4,0.3c-0.5,0-1-0.1-1.4-0.4c-0.4-0.2-0.7-0.6-1-1
			c-0.2-0.4-0.3-0.9-0.3-1.5V182h1.4v4.4c0,0.5,0.2,1,0.5,1.3c0.3,0.3,0.7,0.5,1.2,0.5c0.4,0,0.7-0.1,1-0.2c0.3-0.2,0.5-0.4,0.7-0.6
			c0.2-0.3,0.3-0.5,0.3-0.9V182H366z"/>
		<path class="st1" d="M371.9,188.9c-0.2,0.2-0.4,0.3-0.7,0.4s-0.5,0.1-0.8,0.1c-0.6,0-1-0.2-1.4-0.6c-0.4-0.4-0.5-0.8-0.5-1.4v-4.3
			h-1.1V182h1.1v-2h1.4v2h1.7v1.2h-1.7v4.2c0,0.3,0.1,0.5,0.2,0.6c0.1,0.2,0.3,0.2,0.5,0.2c0.1,0,0.3,0,0.4-0.1s0.2-0.1,0.3-0.2
			L371.9,188.9z"/>
		<path class="st1" d="M378.4,182.2c0.4,0.2,0.7,0.6,1,1c0.2,0.4,0.3,0.9,0.3,1.5v4.6h-1.3v-4.4c0-0.5-0.2-1-0.5-1.3
			s-0.7-0.5-1.2-0.5c-0.4,0-0.7,0.1-1,0.2c-0.3,0.2-0.6,0.4-0.7,0.6c-0.2,0.3-0.3,0.5-0.3,0.9v4.5h-1.4v-9.8h1.4v3.6
			c0.2-0.4,0.5-0.7,0.9-0.9c0.4-0.2,0.9-0.3,1.4-0.3C377.5,181.9,378,182,378.4,182.2z"/>
		<path class="st1" d="M389.5,178.9h1.5l-4.9,11.4h-1.5L389.5,178.9z"/>
		<path class="st1" d="M397.7,181v2.7h5.1v1.3h-5.1v2.9h5.6v1.3h-7.1v-9.6h7.1v1.3H397.7z"/>
		<path class="st1" d="M410.3,182.2c0.4,0.2,0.7,0.6,1,1c0.2,0.4,0.3,0.9,0.3,1.5v4.6h-1.3v-4.4c0-0.5-0.2-1-0.5-1.3
			s-0.7-0.5-1.2-0.5c-0.4,0-0.7,0.1-1,0.2c-0.3,0.2-0.6,0.4-0.7,0.6c-0.2,0.3-0.3,0.5-0.3,0.9v4.5h-1.4V182h1.4v1.1
			c0.2-0.4,0.5-0.7,0.9-0.9c0.4-0.2,0.9-0.3,1.4-0.3C409.5,181.9,409.9,182,410.3,182.2z"/>
		<path class="st1" d="M415.1,188.9c-0.6-0.3-1-0.8-1.4-1.4c-0.4-0.6-0.5-1.2-0.5-1.9s0.2-1.3,0.5-1.9s0.8-1,1.4-1.4
			c0.6-0.3,1.2-0.5,1.9-0.5c0.5,0,1,0.1,1.4,0.3c0.5,0.2,0.9,0.5,1.2,0.8l-0.9,0.9c-0.2-0.2-0.5-0.4-0.8-0.6
			c-0.3-0.1-0.6-0.2-0.9-0.2c-0.4,0-0.8,0.1-1.2,0.4c-0.4,0.2-0.7,0.5-0.9,0.9c-0.2,0.4-0.3,0.8-0.3,1.3c0,0.5,0.1,0.9,0.3,1.3
			c0.2,0.4,0.5,0.7,0.9,0.9c0.4,0.2,0.8,0.4,1.2,0.4c0.3,0,0.7-0.1,1-0.2c0.3-0.1,0.6-0.3,0.8-0.6l0.9,0.9c-0.4,0.4-0.8,0.6-1.2,0.9
			c-0.5,0.2-1,0.3-1.5,0.3C416.3,189.4,415.7,189.3,415.1,188.9z"/>
		<path class="st1" d="M423.6,182.3c0.5-0.3,1-0.4,1.6-0.4v1.2c-0.5,0-1,0.1-1.4,0.3c-0.4,0.2-0.7,0.5-1,0.8
			c-0.2,0.4-0.3,0.8-0.3,1.2v3.9h-1.4V182h1.4v1.4C422.7,183,423.1,182.6,423.6,182.3z"/>
		<path class="st1" d="M426.4,191.5l0.3-1.1c0.3,0.1,0.6,0.2,0.9,0.2c0.2,0,0.4,0,0.6-0.1s0.3-0.2,0.4-0.4l0.4-0.8l-3.1-7.3h1.5
			l2.3,5.7l2.2-5.7h1.4l-3.2,7.9c-0.3,0.6-0.6,1.1-1,1.4c-0.4,0.3-0.8,0.5-1.4,0.5C427.2,191.8,426.8,191.7,426.4,191.5z"/>
		<path class="st1" d="M440.2,182.4c0.5,0.3,0.9,0.8,1.2,1.3c0.3,0.6,0.4,1.2,0.4,2s-0.1,1.4-0.4,2c-0.3,0.6-0.7,1-1.2,1.4
			c-0.5,0.3-1.1,0.5-1.7,0.5c-0.5,0-1-0.1-1.5-0.4s-0.8-0.6-1.1-1v3.7h-1.4V182h1.4v1.2c0.3-0.4,0.7-0.8,1.1-1
			c0.4-0.2,0.9-0.4,1.5-0.4C439.2,181.9,439.7,182,440.2,182.4z M439.4,187.9c0.3-0.2,0.6-0.5,0.8-0.9c0.2-0.4,0.3-0.8,0.3-1.3
			s-0.1-0.9-0.3-1.3c-0.2-0.4-0.5-0.7-0.8-0.9s-0.7-0.3-1.2-0.3s-0.8,0.1-1.2,0.3s-0.6,0.5-0.8,0.9c-0.2,0.4-0.3,0.8-0.3,1.3
			s0.1,0.9,0.3,1.3c0.2,0.4,0.5,0.7,0.8,0.9c0.3,0.2,0.7,0.3,1.2,0.3S439,188.1,439.4,187.9z"/>
		<path class="st1" d="M447.2,188.9c-0.2,0.2-0.4,0.3-0.7,0.4c-0.3,0.1-0.5,0.1-0.8,0.1c-0.6,0-1-0.2-1.4-0.6
			c-0.4-0.4-0.5-0.8-0.5-1.4v-4.3h-1.1V182h1.1v-2h1.4v2h1.7v1.2h-1.7v4.2c0,0.3,0.1,0.5,0.2,0.6c0.1,0.2,0.3,0.2,0.5,0.2
			c0.2,0,0.3,0,0.4-0.1s0.2-0.1,0.3-0.2L447.2,188.9z"/>
		<path class="st1" d="M448.8,180.6c-0.2-0.2-0.2-0.4-0.2-0.6c0-0.2,0.1-0.4,0.2-0.6c0.2-0.2,0.4-0.2,0.6-0.2c0.2,0,0.4,0.1,0.6,0.2
			c0.2,0.2,0.2,0.4,0.2,0.6c0,0.2-0.1,0.4-0.2,0.6s-0.4,0.3-0.6,0.3C449.1,180.8,448.9,180.8,448.8,180.6z M448.7,182h1.4v7.2h-1.4
			V182z"/>
		<path class="st1" d="M453.6,188.9c-0.6-0.3-1-0.8-1.4-1.4c-0.3-0.6-0.5-1.2-0.5-1.9s0.2-1.3,0.5-1.9c0.3-0.6,0.8-1,1.4-1.4
			c0.6-0.3,1.2-0.5,1.9-0.5c0.7,0,1.3,0.2,1.9,0.5c0.6,0.3,1,0.8,1.4,1.4c0.3,0.6,0.5,1.2,0.5,1.9s-0.2,1.3-0.5,1.9
			c-0.3,0.6-0.8,1-1.4,1.4s-1.2,0.5-1.9,0.5C454.9,189.4,454.2,189.3,453.6,188.9z M456.8,187.9c0.4-0.2,0.7-0.5,0.9-0.9
			c0.2-0.4,0.3-0.8,0.3-1.3s-0.1-0.9-0.3-1.3c-0.2-0.4-0.5-0.7-0.9-0.9c-0.4-0.2-0.8-0.3-1.2-0.3c-0.4,0-0.8,0.1-1.2,0.3
			c-0.4,0.2-0.7,0.5-0.9,0.9c-0.2,0.4-0.3,0.8-0.3,1.3s0.1,0.9,0.3,1.3c0.2,0.4,0.5,0.7,0.9,0.9c0.4,0.2,0.8,0.4,1.2,0.4
			C456,188.2,456.4,188.1,456.8,187.9z"/>
		<path class="st1" d="M466.1,182.2c0.4,0.2,0.7,0.6,1,1c0.2,0.4,0.3,0.9,0.3,1.5v4.6h-1.3v-4.4c0-0.5-0.2-1-0.5-1.3
			c-0.3-0.3-0.7-0.5-1.2-0.5c-0.4,0-0.7,0.1-1,0.2c-0.3,0.2-0.6,0.4-0.7,0.6c-0.2,0.3-0.3,0.5-0.3,0.9v4.5H461V182h1.4v1.1
			c0.2-0.4,0.5-0.7,0.9-0.9c0.4-0.2,0.9-0.3,1.4-0.3C465.3,181.9,465.7,182,466.1,182.2z"/>
	</g>
</g>
<g>
	<g>
		<rect x="12.1" y="523" class="st3" width="141" height="37"/>
		<g>
			<path class="st1" d="M47.6,537.2v3.5h6.6v1.7h-6.6v3.8h7.3v1.7h-9.1v-12.4h9.1v1.7H47.6z"/>
			<path class="st1" d="M57.4,535.3h1.8v12.6h-1.8V535.3z"/>
			<path class="st1" d="M68.4,539.5c0.7,0.7,1,1.7,1,2.8v5.6h-1.7v-1.3c-0.3,0.5-0.8,0.8-1.4,1.1s-1.1,0.4-1.7,0.4
				c-1,0-1.8-0.3-2.5-0.8s-1-1.3-1-2.2c0-0.6,0.2-1.1,0.5-1.6c0.3-0.5,0.8-0.8,1.4-1.1s1.2-0.4,1.9-0.4c0.9,0,1.8,0.2,2.8,0.5v-0.3
				c0-0.7-0.2-1.3-0.6-1.7s-1-0.7-1.8-0.7c-0.7,0-1.6,0.3-2.6,0.8l-0.7-1.3c1.2-0.6,2.4-0.9,3.5-0.9
				C66.8,538.4,67.8,538.7,68.4,539.5z M66.7,546.3c0.5-0.3,0.9-0.7,1-1.3v-1.2c-0.8-0.2-1.6-0.4-2.5-0.4c-0.6,0-1.2,0.2-1.6,0.5
				c-0.4,0.3-0.7,0.7-0.7,1.2s0.2,0.9,0.6,1.2c0.4,0.3,0.9,0.4,1.5,0.4C65.6,546.7,66.2,546.6,66.7,546.3z"/>
			<path class="st1" d="M73.2,547.8c-0.7-0.2-1.3-0.6-1.9-1l0.8-1.2c0.5,0.4,1,0.7,1.6,0.9c0.5,0.2,1.1,0.3,1.6,0.3
				c0.6,0,1-0.1,1.3-0.3c0.3-0.2,0.5-0.5,0.5-0.9c0-0.4-0.2-0.7-0.5-0.9c-0.3-0.2-0.9-0.4-1.6-0.6c-1.1-0.3-2-0.7-2.5-1.1
				s-0.7-0.9-0.7-1.7c0-0.9,0.3-1.5,0.9-2.1c0.6-0.5,1.4-0.8,2.4-0.8c0.6,0,1.2,0.1,1.8,0.3c0.6,0.2,1.2,0.5,1.7,0.8l-0.7,1.3
				c-1-0.6-1.9-0.9-2.7-0.9c-0.5,0-0.9,0.1-1.2,0.3c-0.3,0.2-0.5,0.5-0.5,0.9c0,0.2,0.1,0.4,0.2,0.6c0.1,0.1,0.4,0.3,0.6,0.4
				s0.7,0.3,1.4,0.5c0.7,0.2,1.2,0.4,1.6,0.6c0.4,0.2,0.8,0.5,1.1,0.8c0.3,0.4,0.4,0.8,0.4,1.4c0,0.9-0.3,1.6-1,2.1
				c-0.7,0.5-1.5,0.8-2.5,0.8C74.5,548.1,73.9,548,73.2,547.8z"/>
			<path class="st1" d="M85.6,547.5c-0.3,0.2-0.5,0.4-0.9,0.5s-0.7,0.2-1,0.2c-0.7,0-1.3-0.2-1.8-0.7c-0.5-0.5-0.7-1.1-0.7-1.8v-5.5
				h-1.4v-1.5h1.4V536H83v2.6h2.2v1.5H83v5.3c0,0.3,0.1,0.6,0.3,0.8c0.2,0.2,0.4,0.3,0.7,0.3c0.2,0,0.4,0,0.5-0.1
				c0.2-0.1,0.3-0.1,0.4-0.2L85.6,547.5z"/>
			<path class="st1" d="M87.6,536.7c-0.2-0.2-0.3-0.5-0.3-0.8c0-0.3,0.1-0.5,0.3-0.7s0.5-0.3,0.8-0.3c0.3,0,0.5,0.1,0.7,0.3
				s0.3,0.5,0.3,0.7c0,0.3-0.1,0.5-0.3,0.8s-0.5,0.3-0.7,0.3C88,537.1,87.8,536.9,87.6,536.7z M87.4,538.6h1.8v9.3h-1.8V538.6z"/>
			<path class="st1" d="M93.8,547.5c-0.8-0.4-1.4-1-1.8-1.8c-0.4-0.8-0.7-1.6-0.7-2.4s0.2-1.7,0.7-2.4c0.5-0.7,1.1-1.3,1.8-1.8
				c0.8-0.4,1.6-0.7,2.4-0.7c0.7,0,1.3,0.1,1.9,0.4c0.6,0.3,1.1,0.6,1.6,1.1l-1.2,1.1c-0.3-0.3-0.6-0.6-1-0.7
				c-0.4-0.2-0.8-0.3-1.2-0.3c-0.6,0-1.1,0.1-1.5,0.4c-0.5,0.3-0.9,0.7-1.1,1.2c-0.3,0.5-0.4,1.1-0.4,1.6c0,0.6,0.1,1.2,0.4,1.7
				c0.3,0.5,0.7,0.9,1.1,1.2c0.5,0.3,1,0.5,1.5,0.5c0.4,0,0.8-0.1,1.2-0.3c0.4-0.2,0.7-0.4,1-0.8l1.2,1.1c-0.5,0.5-1,0.8-1.6,1.1
				c-0.6,0.3-1.2,0.4-1.9,0.4C95.4,548.1,94.6,547.9,93.8,547.5z"/>
			<path class="st1" d="M101.7,536.7c-0.2-0.2-0.3-0.5-0.3-0.8c0-0.3,0.1-0.5,0.3-0.7s0.5-0.3,0.8-0.3c0.3,0,0.5,0.1,0.7,0.3
				s0.3,0.5,0.3,0.7c0,0.3-0.1,0.5-0.3,0.8s-0.5,0.3-0.7,0.3C102.2,537.1,102,536.9,101.7,536.7z M101.6,538.6h1.8v9.3h-1.8V538.6z"
				/>
			<path class="st1" d="M111,547.5c-0.3,0.2-0.5,0.4-0.9,0.5s-0.7,0.2-1,0.2c-0.7,0-1.3-0.2-1.8-0.7c-0.5-0.5-0.7-1.1-0.7-1.8v-5.5
				h-1.4v-1.5h1.4V536h1.7v2.6h2.2v1.5h-2.2v5.3c0,0.3,0.1,0.6,0.3,0.8c0.2,0.2,0.4,0.3,0.7,0.3c0.2,0,0.4,0,0.5-0.1
				c0.2-0.1,0.3-0.1,0.4-0.2L111,547.5z"/>
			<path class="st1" d="M112.2,550.8l0.4-1.4c0.3,0.2,0.7,0.3,1.1,0.3c0.3,0,0.6-0.1,0.8-0.2c0.2-0.1,0.4-0.3,0.5-0.6l0.5-1l-4-9.4
				h1.9l3,7.3l2.8-7.3h1.9l-4.1,10.2c-0.3,0.8-0.7,1.4-1.2,1.8c-0.5,0.4-1.1,0.6-1.8,0.6C113.3,551.2,112.8,551,112.2,550.8z"/>
		</g>
	</g>
	<g>
		<rect x="157.6" y="523" class="st4" width="141" height="37"/>
		<g>
			<path class="st1" d="M198.7,545.3h-6.4l-1.1,2.6h-2l5.3-12.4h2l5.3,12.4h-2L198.7,545.3z M198,543.8l-2.5-5.9l-2.5,5.9H198z"/>
			<path class="st1" d="M210.3,538.8c0.5,0.3,0.9,0.7,1.2,1.3c0.3,0.5,0.4,1.2,0.4,1.9v5.9h-1.7v-5.6c0-0.7-0.2-1.3-0.6-1.7
				c-0.4-0.4-0.9-0.7-1.5-0.7c-0.5,0-0.9,0.1-1.3,0.3s-0.7,0.5-0.9,0.8c-0.2,0.3-0.3,0.7-0.3,1.1v5.8h-1.8v-9.3h1.8v1.4
				c0.3-0.5,0.7-0.8,1.2-1.1c0.5-0.3,1.1-0.4,1.8-0.4C209.2,538.4,209.8,538.5,210.3,538.8z"/>
			<path class="st1" d="M221.1,539.5c0.7,0.7,1,1.7,1,2.8v5.6h-1.7v-1.3c-0.3,0.5-0.8,0.8-1.4,1.1s-1.1,0.4-1.7,0.4
				c-1,0-1.8-0.3-2.5-0.8s-1-1.3-1-2.2c0-0.6,0.2-1.1,0.5-1.6c0.3-0.5,0.8-0.8,1.4-1.1s1.2-0.4,1.9-0.4c0.9,0,1.8,0.2,2.8,0.5v-0.3
				c0-0.7-0.2-1.3-0.6-1.7s-1-0.7-1.8-0.7c-0.7,0-1.6,0.3-2.6,0.8l-0.7-1.3c1.2-0.6,2.4-0.9,3.5-0.9
				C219.4,538.4,220.4,538.7,221.1,539.5z M219.4,546.3c0.5-0.3,0.9-0.7,1-1.3v-1.2c-0.8-0.2-1.6-0.4-2.5-0.4
				c-0.6,0-1.2,0.2-1.6,0.5c-0.4,0.3-0.7,0.7-0.7,1.2s0.2,0.9,0.6,1.2c0.4,0.3,0.9,0.4,1.5,0.4C218.3,546.7,218.8,546.6,219.4,546.3
				z"/>
			<path class="st1" d="M224.8,535.3h1.8v12.6h-1.8V535.3z"/>
			<path class="st1" d="M229,550.8l0.4-1.4c0.3,0.2,0.7,0.3,1.1,0.3c0.3,0,0.6-0.1,0.8-0.2c0.2-0.1,0.4-0.3,0.5-0.6l0.5-1l-4-9.4
				h1.9l3,7.3l2.8-7.3h1.9l-4.1,10.2c-0.3,0.8-0.7,1.4-1.2,1.8c-0.5,0.4-1.1,0.6-1.8,0.6C230.1,551.2,229.5,551,229,550.8z"/>
			<path class="st1" d="M244.1,547.5c-0.3,0.2-0.5,0.4-0.9,0.5s-0.7,0.2-1,0.2c-0.7,0-1.3-0.2-1.8-0.7c-0.5-0.5-0.7-1.1-0.7-1.8
				v-5.5h-1.4v-1.5h1.4V536h1.7v2.6h2.2v1.5h-2.2v5.3c0,0.3,0.1,0.6,0.3,0.8c0.2,0.2,0.4,0.3,0.7,0.3c0.2,0,0.4,0,0.5-0.1
				c0.2-0.1,0.3-0.1,0.4-0.2L244.1,547.5z"/>
			<path class="st1" d="M246.1,536.7c-0.2-0.2-0.3-0.5-0.3-0.8c0-0.3,0.1-0.5,0.3-0.7s0.5-0.3,0.8-0.3c0.3,0,0.5,0.1,0.7,0.3
				s0.3,0.5,0.3,0.7c0,0.3-0.1,0.5-0.3,0.8s-0.5,0.3-0.7,0.3C246.6,537.1,246.3,536.9,246.1,536.7z M246,538.6h1.8v9.3H246V538.6z"
				/>
			<path class="st1" d="M252.4,547.5c-0.8-0.4-1.4-1-1.8-1.8c-0.4-0.8-0.7-1.6-0.7-2.4s0.2-1.7,0.7-2.4c0.5-0.7,1.1-1.3,1.8-1.8
				c0.8-0.4,1.6-0.7,2.4-0.7c0.7,0,1.3,0.1,1.9,0.4c0.6,0.3,1.1,0.6,1.6,1.1l-1.2,1.1c-0.3-0.3-0.6-0.6-1-0.7
				c-0.4-0.2-0.8-0.3-1.2-0.3c-0.6,0-1.1,0.1-1.5,0.4c-0.5,0.3-0.9,0.7-1.1,1.2c-0.3,0.5-0.4,1.1-0.4,1.6c0,0.6,0.1,1.2,0.4,1.7
				c0.3,0.5,0.7,0.9,1.1,1.2c0.5,0.3,1,0.5,1.5,0.5c0.4,0,0.8-0.1,1.2-0.3c0.4-0.2,0.7-0.4,1-0.8l1.2,1.1c-0.5,0.5-1,0.8-1.6,1.1
				c-0.6,0.3-1.2,0.4-1.9,0.4C254,548.1,253.1,547.9,252.4,547.5z"/>
			<path class="st1" d="M261.2,547.8c-0.7-0.2-1.3-0.6-1.9-1l0.8-1.2c0.5,0.4,1,0.7,1.6,0.9c0.5,0.2,1.1,0.3,1.6,0.3
				c0.6,0,1-0.1,1.3-0.3c0.3-0.2,0.5-0.5,0.5-0.9c0-0.4-0.2-0.7-0.5-0.9c-0.3-0.2-0.9-0.4-1.6-0.6c-1.1-0.3-2-0.7-2.5-1.1
				s-0.7-0.9-0.7-1.7c0-0.9,0.3-1.5,0.9-2.1c0.6-0.5,1.4-0.8,2.4-0.8c0.6,0,1.2,0.1,1.8,0.3c0.6,0.2,1.2,0.5,1.7,0.8l-0.7,1.3
				c-1-0.6-1.9-0.9-2.7-0.9c-0.5,0-0.9,0.1-1.2,0.3c-0.3,0.2-0.5,0.5-0.5,0.9c0,0.2,0.1,0.4,0.2,0.6c0.1,0.1,0.4,0.3,0.6,0.4
				s0.7,0.3,1.4,0.5c0.7,0.2,1.2,0.4,1.6,0.6c0.4,0.2,0.8,0.5,1.1,0.8c0.3,0.4,0.4,0.8,0.4,1.4c0,0.9-0.3,1.6-1,2.1
				c-0.7,0.5-1.5,0.8-2.5,0.8C262.5,548.1,261.9,548,261.2,547.8z"/>
		</g>
	</g>
	<g>
		<rect x="303.1" y="523" class="st5" width="141" height="37"/>
		<g>
			<path class="st1" d="M327.9,546.2v1.7h-8.4v-12.4h1.8v10.7H327.9z"/>
			<path class="st1" d="M335.5,546.3c0.5-0.2,0.9-0.5,1.2-0.8l1,1.1c-0.4,0.4-1,0.8-1.7,1c-0.7,0.3-1.4,0.4-2.1,0.4
				c-0.9,0-1.6-0.2-2.4-0.6c-0.7-0.4-1.3-1-1.8-1.8s-0.7-1.6-0.7-2.5c0-0.9,0.2-1.7,0.6-2.5c0.4-0.7,1-1.3,1.7-1.7s1.5-0.6,2.3-0.6
				c0.9,0,1.7,0.2,2.4,0.7c0.7,0.4,1.2,1.1,1.5,1.9c0.4,0.8,0.5,1.8,0.5,2.9h-7.4c0.1,0.8,0.4,1.5,1,2c0.5,0.5,1.2,0.8,2,0.8
				C334.4,546.7,334.9,546.5,335.5,546.3z M331.9,540.6c-0.5,0.5-0.9,1.1-1,1.9h5.7c-0.1-0.8-0.4-1.4-0.9-1.9s-1.1-0.7-1.9-0.7
				C333.1,539.9,332.5,540.1,331.9,540.6z"/>
			<path class="st1" d="M346.8,539.5c0.7,0.7,1,1.7,1,2.8v5.6h-1.7v-1.3c-0.3,0.5-0.8,0.8-1.4,1.1s-1.1,0.4-1.7,0.4
				c-1,0-1.8-0.3-2.5-0.8s-1-1.3-1-2.2c0-0.6,0.2-1.1,0.5-1.6c0.3-0.5,0.8-0.8,1.4-1.1s1.2-0.4,1.9-0.4c0.9,0,1.8,0.2,2.8,0.5v-0.3
				c0-0.7-0.2-1.3-0.6-1.7s-1-0.7-1.8-0.7c-0.7,0-1.6,0.3-2.6,0.8l-0.7-1.3c1.2-0.6,2.4-0.9,3.5-0.9
				C345.2,538.4,346.1,538.7,346.8,539.5z M345.1,546.3c0.5-0.3,0.9-0.7,1-1.3v-1.2c-0.8-0.2-1.6-0.4-2.5-0.4
				c-0.6,0-1.2,0.2-1.6,0.5c-0.4,0.3-0.7,0.7-0.7,1.2s0.2,0.9,0.6,1.2c0.4,0.3,0.9,0.4,1.5,0.4C344,546.7,344.6,546.6,345.1,546.3z"
				/>
			<path class="st1" d="M353.7,538.9c0.6-0.4,1.3-0.5,2.1-0.5v1.5c-0.7,0-1.3,0.1-1.8,0.4c-0.5,0.3-0.9,0.6-1.2,1.1
				c-0.3,0.5-0.4,1-0.4,1.6v5h-1.8v-9.3h1.8v1.8C352.6,539.8,353.1,539.3,353.7,538.9z"/>
			<path class="st1" d="M364.4,538.8c0.5,0.3,0.9,0.7,1.2,1.3c0.3,0.5,0.4,1.2,0.4,1.9v5.9h-1.7v-5.6c0-0.7-0.2-1.3-0.6-1.7
				c-0.4-0.4-0.9-0.7-1.5-0.7c-0.5,0-0.9,0.1-1.3,0.3s-0.7,0.5-0.9,0.8c-0.2,0.3-0.3,0.7-0.3,1.1v5.8h-1.8v-9.3h1.8v1.4
				c0.3-0.5,0.7-0.8,1.2-1.1c0.5-0.3,1.1-0.4,1.8-0.4C363.3,538.4,363.9,538.5,364.4,538.8z"/>
			<path class="st1" d="M369,536.7c-0.2-0.2-0.3-0.5-0.3-0.8c0-0.3,0.1-0.5,0.3-0.7s0.5-0.3,0.8-0.3c0.3,0,0.5,0.1,0.7,0.3
				s0.3,0.5,0.3,0.7c0,0.3-0.1,0.5-0.3,0.8s-0.5,0.3-0.7,0.3C369.4,537.1,369.2,536.9,369,536.7z M368.8,538.6h1.8v9.3h-1.8V538.6z"
				/>
			<path class="st1" d="M380.1,538.8c0.5,0.3,0.9,0.7,1.2,1.3c0.3,0.5,0.4,1.2,0.4,1.9v5.9H380v-5.6c0-0.7-0.2-1.3-0.6-1.7
				c-0.4-0.4-0.9-0.7-1.5-0.7c-0.5,0-0.9,0.1-1.3,0.3s-0.7,0.5-0.9,0.8c-0.2,0.3-0.3,0.7-0.3,1.1v5.8h-1.8v-9.3h1.8v1.4
				c0.3-0.5,0.7-0.8,1.2-1.1c0.5-0.3,1.1-0.4,1.8-0.4C379,538.4,379.6,538.5,380.1,538.8z"/>
			<path class="st1" d="M393,538.6v8.3c0,0.8-0.2,1.5-0.6,2.1c-0.4,0.6-1,1.1-1.7,1.4c-0.7,0.3-1.5,0.5-2.4,0.5
				c-0.8,0-1.5-0.1-2.2-0.3c-0.7-0.2-1.3-0.5-1.7-0.9l0.7-1.3c0.3,0.3,0.8,0.6,1.3,0.8c0.5,0.2,1.1,0.3,1.6,0.3c1,0,1.8-0.2,2.3-0.7
				s0.8-1.1,0.8-1.9v-1.3c-0.4,0.5-0.8,1-1.4,1.3s-1.2,0.4-1.9,0.4c-0.8,0-1.5-0.2-2.2-0.6c-0.6-0.4-1.1-0.9-1.5-1.6
				c-0.4-0.7-0.5-1.4-0.5-2.3c0-0.9,0.2-1.6,0.5-2.3c0.4-0.7,0.9-1.2,1.5-1.6c0.6-0.4,1.4-0.6,2.2-0.6c0.7,0,1.3,0.2,1.9,0.5
				c0.6,0.3,1,0.7,1.4,1.2v-1.5H393z M390.4,544.9c0.5-0.5,0.8-1.2,0.8-2.1c0-0.8-0.3-1.5-0.8-2.1c-0.5-0.5-1.2-0.8-2.1-0.8
				c-0.8,0-1.5,0.3-2,0.8c-0.5,0.5-0.8,1.2-0.8,2.1c0,0.8,0.3,1.5,0.8,2.1c0.5,0.5,1.2,0.8,2,0.8
				C389.2,545.7,389.9,545.4,390.4,544.9z"/>
			<path class="st1" d="M400.8,534.5h1.9l-6.3,14.7h-1.9L400.8,534.5z"/>
			<path class="st1" d="M404.6,535.5h1.8l4.3,8.1l4.3-8.1h1.8v12.4h-1.8v-8.8l-4.3,8.1l-4.3-8.1v8.8h-1.8V535.5z"/>
			<path class="st1" d="M429,546.2v1.7h-8.4v-12.4h1.8v10.7H429z"/>
		</g>
	</g>
	<g>
		<rect x="448.6" y="523" class="st6" width="141" height="37"/>
		<g>
			<path class="st1" d="M472.6,546.2v1.7h-8.4v-12.4h1.8v10.7H472.6z"/>
			<path class="st1" d="M474.6,536.7c-0.2-0.2-0.3-0.5-0.3-0.8c0-0.3,0.1-0.5,0.3-0.7s0.5-0.3,0.8-0.3c0.3,0,0.5,0.1,0.7,0.3
				s0.3,0.5,0.3,0.7c0,0.3-0.1,0.5-0.3,0.8s-0.5,0.3-0.7,0.3C475.1,537.1,474.9,536.9,474.6,536.7z M474.5,538.6h1.8v9.3h-1.8V538.6
				z"/>
			<path class="st1" d="M477.9,538.6h1.9l2.9,7.2l2.8-7.2h1.9l-3.9,9.3h-1.7L477.9,538.6z"/>
			<path class="st1" d="M494.8,546.3c0.5-0.2,0.9-0.5,1.2-0.8l1,1.1c-0.4,0.4-1,0.8-1.7,1c-0.7,0.3-1.4,0.4-2.1,0.4
				c-0.9,0-1.6-0.2-2.4-0.6c-0.7-0.4-1.3-1-1.8-1.8s-0.7-1.6-0.7-2.5c0-0.9,0.2-1.7,0.6-2.5c0.4-0.7,1-1.3,1.7-1.7s1.5-0.6,2.3-0.6
				c0.9,0,1.7,0.2,2.4,0.7c0.7,0.4,1.2,1.1,1.5,1.9c0.4,0.8,0.5,1.8,0.5,2.9h-7.4c0.1,0.8,0.4,1.5,1,2c0.5,0.5,1.2,0.8,2,0.8
				C493.7,546.7,494.2,546.5,494.8,546.3z M491.2,540.6c-0.5,0.5-0.9,1.1-1,1.9h5.7c-0.1-0.8-0.4-1.4-0.9-1.9s-1.1-0.7-1.9-0.7
				C492.4,539.9,491.8,540.1,491.2,540.6z"/>
			<path class="st1" d="M504,546.1l1.1-1.3c1.2,1.2,2.6,1.7,4.1,1.7c0.8,0,1.5-0.2,1.9-0.5s0.7-0.8,0.7-1.3c0-0.6-0.2-1-0.7-1.3
				c-0.5-0.3-1.3-0.6-2.4-0.8c-0.9-0.2-1.7-0.5-2.3-0.7c-0.6-0.3-1.1-0.6-1.4-1.1s-0.5-1-0.5-1.7c0-0.7,0.2-1.3,0.6-1.9
				c0.4-0.6,0.9-1,1.5-1.3c0.7-0.3,1.4-0.5,2.2-0.5c0.9,0,1.7,0.2,2.5,0.5c0.7,0.3,1.4,0.7,2,1.3l-1,1.4c-0.5-0.5-1.1-0.9-1.7-1.1
				s-1.2-0.4-1.8-0.4c-0.4,0-0.8,0.1-1.2,0.3s-0.6,0.4-0.8,0.7s-0.3,0.6-0.3,0.9c0,0.4,0.1,0.7,0.3,0.9s0.6,0.4,1,0.6
				c0.4,0.2,1,0.3,1.8,0.5c1.4,0.3,2.4,0.8,3.1,1.3c0.7,0.5,1.1,1.3,1.1,2.3c0,0.7-0.2,1.3-0.5,1.9c-0.3,0.6-0.9,1-1.5,1.3
				c-0.7,0.3-1.5,0.5-2.4,0.5C507,548.1,505.3,547.4,504,546.1z"/>
			<path class="st1" d="M521.5,546.3c0.5-0.2,0.9-0.5,1.2-0.8l1,1.1c-0.4,0.4-1,0.8-1.7,1c-0.7,0.3-1.4,0.4-2.1,0.4
				c-0.9,0-1.6-0.2-2.4-0.6c-0.7-0.4-1.3-1-1.8-1.8s-0.7-1.6-0.7-2.5c0-0.9,0.2-1.7,0.6-2.5c0.4-0.7,1-1.3,1.7-1.7s1.5-0.6,2.3-0.6
				c0.9,0,1.7,0.2,2.4,0.7c0.7,0.4,1.2,1.1,1.5,1.9c0.4,0.8,0.5,1.8,0.5,2.9h-7.4c0.1,0.8,0.4,1.5,1,2c0.5,0.5,1.2,0.8,2,0.8
				C520.5,546.7,521,546.5,521.5,546.3z M518,540.6c-0.5,0.5-0.9,1.1-1,1.9h5.7c-0.1-0.8-0.4-1.4-0.9-1.9s-1.1-0.7-1.9-0.7
				C519.2,539.9,518.5,540.1,518,540.6z"/>
			<path class="st1" d="M529.6,538.9c0.6-0.4,1.3-0.5,2.1-0.5v1.5c-0.7,0-1.3,0.1-1.8,0.4c-0.5,0.3-0.9,0.6-1.2,1.1
				c-0.3,0.5-0.4,1-0.4,1.6v5h-1.8v-9.3h1.8v1.8C528.5,539.8,529,539.3,529.6,538.9z"/>
			<path class="st1" d="M532.5,538.6h1.9l2.9,7.2l2.8-7.2h1.9l-3.9,9.3h-1.7L532.5,538.6z"/>
			<path class="st1" d="M543.9,536.7c-0.2-0.2-0.3-0.5-0.3-0.8c0-0.3,0.1-0.5,0.3-0.7s0.5-0.3,0.8-0.3c0.3,0,0.5,0.1,0.7,0.3
				s0.3,0.5,0.3,0.7c0,0.3-0.1,0.5-0.3,0.8s-0.5,0.3-0.7,0.3C544.4,537.1,544.1,536.9,543.9,536.7z M543.8,538.6h1.8v9.3h-1.8V538.6
				z"/>
			<path class="st1" d="M550.2,547.5c-0.8-0.4-1.4-1-1.8-1.8c-0.4-0.8-0.7-1.6-0.7-2.4s0.2-1.7,0.7-2.4c0.5-0.7,1.1-1.3,1.8-1.8
				c0.8-0.4,1.6-0.7,2.4-0.7c0.7,0,1.3,0.1,1.9,0.4c0.6,0.3,1.1,0.6,1.6,1.1l-1.2,1.1c-0.3-0.3-0.6-0.6-1-0.7
				c-0.4-0.2-0.8-0.3-1.2-0.3c-0.6,0-1.1,0.1-1.5,0.4c-0.5,0.3-0.9,0.7-1.1,1.2c-0.3,0.5-0.4,1.1-0.4,1.6c0,0.6,0.1,1.2,0.4,1.7
				c0.3,0.5,0.7,0.9,1.1,1.2c0.5,0.3,1,0.5,1.5,0.5c0.4,0,0.8-0.1,1.2-0.3c0.4-0.2,0.7-0.4,1-0.8l1.2,1.1c-0.5,0.5-1,0.8-1.6,1.1
				c-0.6,0.3-1.2,0.4-1.9,0.4C551.7,548.1,550.9,547.9,550.2,547.5z"/>
			<path class="st1" d="M563.5,546.3c0.5-0.2,0.9-0.5,1.2-0.8l1,1.1c-0.4,0.4-1,0.8-1.7,1c-0.7,0.3-1.4,0.4-2.1,0.4
				c-0.9,0-1.6-0.2-2.4-0.6c-0.7-0.4-1.3-1-1.8-1.8s-0.7-1.6-0.7-2.5c0-0.9,0.2-1.7,0.6-2.5c0.4-0.7,1-1.3,1.7-1.7s1.5-0.6,2.3-0.6
				c0.9,0,1.7,0.2,2.4,0.7c0.7,0.4,1.2,1.1,1.5,1.9c0.4,0.8,0.5,1.8,0.5,2.9H559c0.1,0.8,0.4,1.5,1,2c0.5,0.5,1.2,0.8,2,0.8
				C562.5,546.7,563,546.5,563.5,546.3z M560,540.6c-0.5,0.5-0.9,1.1-1,1.9h5.7c-0.1-0.8-0.4-1.4-0.9-1.9s-1.1-0.7-1.9-0.7
				C561.2,539.9,560.5,540.1,560,540.6z"/>
			<path class="st1" d="M569.5,547.8c-0.7-0.2-1.3-0.6-1.9-1l0.8-1.2c0.5,0.4,1,0.7,1.6,0.9c0.5,0.2,1.1,0.3,1.6,0.3
				c0.6,0,1-0.1,1.3-0.3c0.3-0.2,0.5-0.5,0.5-0.9c0-0.4-0.2-0.7-0.5-0.9c-0.3-0.2-0.9-0.4-1.6-0.6c-1.1-0.3-2-0.7-2.5-1.1
				s-0.7-0.9-0.7-1.7c0-0.9,0.3-1.5,0.9-2.1c0.6-0.5,1.4-0.8,2.4-0.8c0.6,0,1.2,0.1,1.8,0.3c0.6,0.2,1.2,0.5,1.7,0.8l-0.7,1.3
				c-1-0.6-1.9-0.9-2.7-0.9c-0.5,0-0.9,0.1-1.2,0.3c-0.3,0.2-0.5,0.5-0.5,0.9c0,0.2,0.1,0.4,0.2,0.6c0.1,0.1,0.4,0.3,0.6,0.4
				s0.7,0.3,1.4,0.5c0.7,0.2,1.2,0.4,1.6,0.6c0.4,0.2,0.8,0.5,1.1,0.8c0.3,0.4,0.4,0.8,0.4,1.4c0,0.9-0.3,1.6-1,2.1
				c-0.7,0.5-1.5,0.8-2.5,0.8C570.9,548.1,570.2,548,569.5,547.8z"/>
		</g>
	</g>
	<g>
		<rect x="594" y="523" class="st7" width="141" height="37"/>
		<g>
			<path class="st1" d="M646,546.1l1.1-1.3c1.2,1.2,2.6,1.7,4.1,1.7c0.8,0,1.5-0.2,1.9-0.5s0.7-0.8,0.7-1.3c0-0.6-0.2-1-0.7-1.3
				c-0.5-0.3-1.3-0.6-2.4-0.8c-0.9-0.2-1.7-0.5-2.3-0.7c-0.6-0.3-1.1-0.6-1.4-1.1s-0.5-1-0.5-1.7c0-0.7,0.2-1.3,0.6-1.9
				c0.4-0.6,0.9-1,1.5-1.3c0.7-0.3,1.4-0.5,2.2-0.5c0.9,0,1.7,0.2,2.5,0.5c0.7,0.3,1.4,0.7,2,1.3l-1,1.4c-0.5-0.5-1.1-0.9-1.7-1.1
				c-0.6-0.3-1.2-0.4-1.8-0.4c-0.4,0-0.8,0.1-1.2,0.3c-0.4,0.2-0.6,0.4-0.8,0.7s-0.3,0.6-0.3,0.9c0,0.4,0.1,0.7,0.3,0.9
				c0.2,0.2,0.6,0.4,1,0.6c0.4,0.2,1,0.3,1.8,0.5c1.4,0.3,2.4,0.8,3.1,1.3c0.7,0.5,1.1,1.3,1.1,2.3c0,0.7-0.2,1.3-0.5,1.9
				c-0.3,0.6-0.9,1-1.5,1.3c-0.7,0.3-1.5,0.5-2.4,0.5C649.1,548.1,647.4,547.4,646,546.1z"/>
			<path class="st1" d="M660.7,547.3c-1-0.6-1.8-1.4-2.4-2.3s-0.9-2-0.9-3.2c0-1.1,0.3-2.2,0.9-3.2c0.6-1,1.4-1.8,2.4-2.3
				c1-0.6,2-0.9,3.2-0.9c1.1,0,2.2,0.3,3.2,0.9c1,0.6,1.8,1.4,2.3,2.3c0.6,1,0.9,2,0.9,3.2c0,1.1-0.3,2.2-0.9,3.2s-1.4,1.8-2.3,2.3
				c-1,0.6-2,0.9-3.2,0.9C662.8,548.1,661.7,547.8,660.7,547.3z M666.1,545.8c0.7-0.4,1.3-1,1.7-1.7c0.4-0.7,0.6-1.5,0.6-2.3
				c0-0.8-0.2-1.6-0.6-2.3c-0.4-0.7-1-1.3-1.7-1.7c-0.7-0.4-1.5-0.6-2.3-0.6c-0.8,0-1.6,0.2-2.3,0.6c-0.7,0.4-1.3,1-1.7,1.7
				c-0.4,0.7-0.6,1.5-0.6,2.3c0,0.8,0.2,1.6,0.6,2.3c0.4,0.7,1,1.3,1.7,1.7c0.7,0.4,1.5,0.6,2.3,0.6
				C664.7,546.5,665.4,546.2,666.1,545.8z"/>
			<path class="st1" d="M675.4,547.3c-1-0.6-1.8-1.4-2.4-2.3s-0.9-2-0.9-3.2c0-1.1,0.3-2.2,0.9-3.2c0.6-1,1.4-1.8,2.4-2.3
				c1-0.6,2-0.9,3.2-0.9c0.9,0,1.7,0.2,2.5,0.5c0.8,0.3,1.5,0.8,2.1,1.4l-1.3,1.2c-0.4-0.5-0.9-0.8-1.5-1.1
				c-0.6-0.3-1.2-0.4-1.8-0.4c-0.8,0-1.6,0.2-2.3,0.6c-0.7,0.4-1.3,1-1.7,1.7c-0.4,0.7-0.6,1.5-0.6,2.3c0,0.8,0.2,1.6,0.6,2.3
				c0.4,0.7,1,1.3,1.7,1.7c0.7,0.4,1.5,0.6,2.3,0.6c0.6,0,1.2-0.1,1.8-0.4c0.6-0.3,1.1-0.6,1.5-1.1l1.3,1.2
				c-0.6,0.6-1.3,1.1-2.1,1.4s-1.6,0.5-2.5,0.5C677.5,548.1,676.4,547.8,675.4,547.3z"/>
		</g>
	</g>
</g>
<linearGradient id="SVGID_1_" gradientUnits="userSpaceOnUse" x1="373" y1="278" x2="373" y2="358.5907">
	<stop  offset="0" style="stop-color:#717074;stop-opacity:0"/>
	<stop  offset="0.9944" style="stop-color:#717074;stop-opacity:0.5"/>
</linearGradient>
<polygon class="st8" points="413.8,358.6 332.2,358.6 224,278 522,278 "/>
<linearGradient id="SVGID_2_" gradientUnits="userSpaceOnUse" x1="372.9886" y1="520.9998" x2="372.9886" y2="438.7914">
	<stop  offset="0" style="stop-color:#717074;stop-opacity:5.000000e-02"/>
	<stop  offset="0.9944" style="stop-color:#717074;stop-opacity:0.5"/>
</linearGradient>
<polygon class="st9" points="371.1,438.8 374.9,438.8 732.8,521 13.1,521 "/>
<g>
	<g>
		<polygon class="st2" points="307.5,442.1 150.1,442.1 150.1,364.1 307.5,364.1 329.1,402.9 		"/>
		<g>
			<circle class="st10" cx="112.6" cy="400.9" r="56.5"/>
			<g>
				<path class="st2" d="M133.7,363.6c-5.2,0-9.7,3.3-11.5,7.9c0.6,0.4,1.2,0.9,1.8,1.4c1.3-4.1,5.1-7.2,9.7-7.2
					c5.6,0,10.1,4.5,10.1,10.1c0,5.6-4.5,10.1-10.1,10.1c-1.3,0-2.6-0.3-3.8-0.7c0,0.2,0,0.5,0,0.7c0,0.5,0,1-0.1,1.5
					c1.2,0.4,2.5,0.6,3.8,0.6c6.8,0,12.3-5.5,12.3-12.3C146,369.1,140.5,363.6,133.7,363.6z"/>
				<path class="st2" d="M94.9,386c0-0.2,0-0.3,0-0.5c-1,0.3-2,0.5-3.1,0.5c-5.6,0-10.1-4.5-10.1-10.1c0-5.6,4.5-10.1,10.1-10.1
					c4.4,0,8.1,2.8,9.5,6.7c0.6-0.5,1.2-0.9,1.8-1.3c-1.9-4.4-6.2-7.6-11.3-7.6c-6.8,0-12.3,5.5-12.3,12.3c0,6.8,5.5,12.3,12.3,12.3
					c1.1,0,2.1-0.2,3.1-0.4C94.9,387.2,94.9,386.6,94.9,386z"/>
				<path class="st2" d="M152.9,399.3c-5.7-5.8-11.3-8.2-19.4-8.2c0,0,0,0,0,0c-1.5,0-3,0.1-4.5,0.3c-0.3,0.8-0.6,1.6-1,2.3
					c1.8-0.3,3.6-0.5,5.5-0.5c0,0,0,0,0,0c6.2,0,11.5,1.2,17.5,7.2v21.2h2.1v-22L152.9,399.3z"/>
				<path class="st2" d="M95.5,391.3c-1.1-0.1-2.2-0.2-3.4-0.2c0,0,0,0,0,0c-8.2,0-14.1,2.5-19.8,8.2l-0.3,0.3v22h2.1v-21.2
					c5.2-5.1,10.4-7.2,17.9-7.2c0,0,0,0,0,0c1.5,0,2.9,0.1,4.3,0.3C96.1,392.8,95.8,392,95.5,391.3z"/>
				<path class="st2" d="M112.4,374.9c6.1,0,11.1,5,11.1,11.1s-5,11.1-11.1,11.1c-6.1,0-11.1-5-11.1-11.1S106.3,374.9,112.4,374.9
					 M112.4,372.8c-7.3,0-13.2,5.9-13.2,13.2c0,7.3,5.9,13.2,13.2,13.2s13.2-5.9,13.2-13.2C125.7,378.7,119.8,372.8,112.4,372.8
					L112.4,372.8z"/>
				<path class="st2" d="M113.2,402.6c7.5,0,15.4,2.8,21.8,10.2v20.6c0,2.2-2,4.7-4.5,4.7H95.4c-2.7-0.1-4.5-2.4-4.5-4.7l0-20.6
					C96.4,405.5,105.5,402.6,113.2,402.6C113.2,402.6,113.2,402.6,113.2,402.6 M113.2,404.7c-8.1,0-15.6,3.3-20.1,8.8l0,19.9
					c0,1,0.8,2.5,2.4,2.5h35.1c1.2,0,2.3-1.4,2.3-2.5v-19.8C126.2,406.3,118.5,404.7,113.2,404.7"/>
			</g>
		</g>
		<g>
			<path class="st1" d="M182.8,406.9c-0.6-0.4-1.1-0.8-1.4-1.5c-0.3-0.6-0.5-1.3-0.5-2.1v-5.6h1.1v5.6c0,0.6,0.1,1.2,0.4,1.6
				c0.3,0.5,0.6,0.9,1,1.1c0.4,0.3,0.9,0.4,1.5,0.4s1.1-0.1,1.5-0.4c0.4-0.3,0.8-0.6,1-1.1c0.3-0.5,0.4-1,0.4-1.6v-5.6h1.1v5.6
				c0,0.8-0.2,1.5-0.5,2.1s-0.8,1.1-1.4,1.5c-0.6,0.4-1.3,0.5-2.1,0.5C184.1,407.4,183.4,407.2,182.8,406.9z"/>
			<path class="st1" d="M196.3,400.2c0.4,0.2,0.7,0.6,1,1c0.2,0.4,0.3,0.9,0.3,1.5v4.6h-1v-4.5c0-0.6-0.2-1.1-0.5-1.4
				c-0.3-0.4-0.8-0.6-1.3-0.6c-0.4,0-0.8,0.1-1.1,0.3c-0.3,0.2-0.6,0.4-0.8,0.7c-0.2,0.3-0.3,0.6-0.3,0.9v4.6h-1.1V400h1.1v1.1
				c0.2-0.4,0.5-0.7,1-1c0.4-0.2,0.9-0.4,1.4-0.4C195.4,399.8,195.8,400,196.3,400.2z"/>
			<path class="st1" d="M198.7,400h1.2l2.4,6l2.4-6h1.2l-3,7.2h-1L198.7,400z"/>
			<path class="st1" d="M212,400.7c0.5,0.5,0.7,1.3,0.7,2.2v4.4h-1v-1.1c-0.3,0.4-0.6,0.7-1.1,1s-1,0.3-1.5,0.3
				c-0.8,0-1.4-0.2-1.9-0.6c-0.5-0.4-0.7-1-0.7-1.7c0-0.5,0.1-0.9,0.4-1.3c0.3-0.4,0.6-0.7,1-0.9c0.4-0.2,0.9-0.3,1.4-0.3
				c0.7,0,1.5,0.1,2.4,0.4v-0.3c0-0.6-0.1-1.1-0.4-1.5c-0.3-0.4-0.8-0.6-1.5-0.6c-0.3,0-0.7,0.1-1,0.2c-0.3,0.1-0.7,0.3-1.1,0.5
				l-0.4-0.9c0.9-0.5,1.8-0.7,2.6-0.7C210.8,399.8,211.5,400.1,212,400.7z M210.8,406.1c0.5-0.3,0.8-0.6,0.9-1.1v-1.1
				c-0.7-0.2-1.4-0.3-2.2-0.3c-0.6,0-1,0.1-1.4,0.4s-0.6,0.6-0.6,1.1c0,0.4,0.2,0.8,0.5,1c0.3,0.3,0.8,0.4,1.3,0.4
				C209.9,406.5,210.4,406.4,210.8,406.1z"/>
			<path class="st1" d="M215,397.5h1.1v9.8H215V397.5z"/>
			<path class="st1" d="M218.5,398.5c-0.1-0.1-0.2-0.3-0.2-0.5s0.1-0.3,0.2-0.5c0.1-0.1,0.3-0.2,0.5-0.2c0.2,0,0.3,0.1,0.5,0.2
				c0.1,0.1,0.2,0.3,0.2,0.5s-0.1,0.3-0.2,0.5c-0.1,0.1-0.3,0.2-0.5,0.2C218.9,398.7,218.7,398.6,218.5,398.5z M218.5,400h1.1v7.2
				h-1.1V400z"/>
			<path class="st1" d="M228.5,397.5v9.8h-1v-1.4c-0.3,0.5-0.6,0.9-1.1,1.1c-0.5,0.3-1,0.4-1.5,0.4c-0.6,0-1.2-0.2-1.7-0.5
				c-0.5-0.3-0.9-0.8-1.2-1.4c-0.3-0.6-0.4-1.2-0.4-2s0.1-1.4,0.4-2c0.3-0.6,0.7-1,1.2-1.3c0.5-0.3,1.1-0.5,1.7-0.5
				c0.6,0,1.1,0.1,1.5,0.4c0.5,0.3,0.8,0.6,1.1,1.1v-3.9H228.5z M226.2,406.1c0.4-0.2,0.7-0.6,0.9-1c0.2-0.4,0.3-0.9,0.3-1.5
				s-0.1-1-0.3-1.5c-0.2-0.4-0.5-0.8-0.9-1c-0.4-0.2-0.8-0.4-1.3-0.4s-0.9,0.1-1.3,0.4c-0.4,0.2-0.7,0.6-0.9,1
				c-0.2,0.4-0.3,0.9-0.3,1.5s0.1,1,0.3,1.5c0.2,0.4,0.5,0.8,0.9,1c0.4,0.2,0.8,0.4,1.3,0.4S225.9,406.4,226.2,406.1z"/>
			<path class="st1" d="M235.7,400.7c0.5,0.5,0.7,1.3,0.7,2.2v4.4h-1v-1.1c-0.3,0.4-0.6,0.7-1.1,1s-1,0.3-1.5,0.3
				c-0.8,0-1.4-0.2-1.9-0.6c-0.5-0.4-0.7-1-0.7-1.7c0-0.5,0.1-0.9,0.4-1.3c0.3-0.4,0.6-0.7,1-0.9c0.4-0.2,0.9-0.3,1.4-0.3
				c0.7,0,1.5,0.1,2.4,0.4v-0.3c0-0.6-0.1-1.1-0.4-1.5c-0.3-0.4-0.8-0.6-1.5-0.6c-0.3,0-0.7,0.1-1,0.2c-0.3,0.1-0.7,0.3-1.1,0.5
				l-0.4-0.9c0.9-0.5,1.8-0.7,2.6-0.7C234.4,399.8,235.2,400.1,235.7,400.7z M234.5,406.1c0.5-0.3,0.8-0.6,0.9-1.1v-1.1
				c-0.7-0.2-1.4-0.3-2.2-0.3c-0.6,0-1,0.1-1.4,0.4s-0.6,0.6-0.6,1.1c0,0.4,0.2,0.8,0.5,1c0.3,0.3,0.8,0.4,1.3,0.4
				C233.5,406.5,234,406.4,234.5,406.1z"/>
			<path class="st1" d="M242,407c-0.4,0.3-0.8,0.5-1.3,0.5c-0.5,0-0.9-0.2-1.3-0.5c-0.3-0.3-0.5-0.8-0.5-1.3V401h-1.1V400h1.1v-2h1
				v2h1.8v0.9h-1.8v4.6c0,0.3,0.1,0.5,0.2,0.7c0.2,0.2,0.3,0.3,0.6,0.3c0.2,0,0.3,0,0.4-0.1c0.1-0.1,0.2-0.1,0.3-0.2L242,407z"/>
			<path class="st1" d="M247.9,406.2c0.4-0.2,0.8-0.4,1-0.6l0.6,0.7c-0.3,0.3-0.7,0.6-1.3,0.8s-1.1,0.3-1.6,0.3
				c-0.6,0-1.2-0.2-1.8-0.5c-0.6-0.3-1-0.8-1.4-1.4c-0.3-0.6-0.5-1.2-0.5-2c0-0.7,0.2-1.3,0.5-1.9c0.3-0.6,0.8-1,1.3-1.4
				c0.5-0.3,1.1-0.5,1.8-0.5c1.1,0,1.9,0.4,2.5,1.1c0.6,0.8,0.9,1.8,0.9,3.1H244c0.1,0.7,0.3,1.3,0.8,1.8c0.5,0.5,1.1,0.7,1.8,0.7
				C247,406.5,247.4,406.4,247.9,406.2z M244.8,401.4c-0.5,0.4-0.7,1-0.8,1.7h4.9c-0.1-0.7-0.3-1.2-0.7-1.7
				c-0.4-0.4-0.9-0.6-1.6-0.6C245.9,400.8,245.3,401,244.8,401.4z"/>
			<path class="st1" d="M258.1,397.5v9.8h-1v-1.4c-0.3,0.5-0.6,0.9-1.1,1.1c-0.5,0.3-1,0.4-1.5,0.4c-0.6,0-1.2-0.2-1.7-0.5
				c-0.5-0.3-0.9-0.8-1.2-1.4c-0.3-0.6-0.4-1.2-0.4-2s0.1-1.4,0.4-2c0.3-0.6,0.7-1,1.2-1.3c0.5-0.3,1.1-0.5,1.7-0.5
				c0.6,0,1.1,0.1,1.5,0.4c0.5,0.3,0.8,0.6,1.1,1.1v-3.9H258.1z M255.9,406.1c0.4-0.2,0.7-0.6,0.9-1c0.2-0.4,0.3-0.9,0.3-1.5
				s-0.1-1-0.3-1.5c-0.2-0.4-0.5-0.8-0.9-1c-0.4-0.2-0.8-0.4-1.3-0.4s-0.9,0.1-1.3,0.4c-0.4,0.2-0.7,0.6-0.9,1
				c-0.2,0.4-0.3,0.9-0.3,1.5s0.1,1,0.3,1.5c0.2,0.4,0.5,0.8,0.9,1c0.4,0.2,0.8,0.4,1.3,0.4S255.5,406.4,255.9,406.1z"/>
			<path class="st1" d="M267.7,407c-0.4,0.3-0.8,0.5-1.3,0.5c-0.5,0-0.9-0.2-1.3-0.5c-0.3-0.3-0.5-0.8-0.5-1.3V401h-1.1V400h1.1v-2
				h1v2h1.8v0.9h-1.8v4.6c0,0.3,0.1,0.5,0.2,0.7c0.2,0.2,0.3,0.3,0.6,0.3c0.2,0,0.3,0,0.4-0.1c0.1-0.1,0.2-0.1,0.3-0.2L267.7,407z"
				/>
			<path class="st1" d="M271.4,400.3c0.5-0.3,1.1-0.4,1.7-0.4v0.9c-0.5,0-1,0.1-1.4,0.3c-0.4,0.2-0.8,0.5-1,0.9
				c-0.2,0.4-0.4,0.8-0.4,1.3v4h-1.1V400h1.1v1.4C270.5,400.9,270.9,400.6,271.4,400.3z"/>
			<path class="st1" d="M279.6,400.7c0.5,0.5,0.7,1.3,0.7,2.2v4.4h-1v-1.1c-0.3,0.4-0.6,0.7-1.1,1s-1,0.3-1.5,0.3
				c-0.8,0-1.4-0.2-1.9-0.6c-0.5-0.4-0.7-1-0.7-1.7c0-0.5,0.1-0.9,0.4-1.3c0.3-0.4,0.6-0.7,1-0.9c0.4-0.2,0.9-0.3,1.4-0.3
				c0.7,0,1.5,0.1,2.4,0.4v-0.3c0-0.6-0.1-1.1-0.4-1.5c-0.3-0.4-0.8-0.6-1.5-0.6c-0.3,0-0.7,0.1-1,0.2c-0.3,0.1-0.7,0.3-1.1,0.5
				l-0.4-0.9c0.9-0.5,1.8-0.7,2.6-0.7C278.3,399.8,279.1,400.1,279.6,400.7z M278.4,406.1c0.5-0.3,0.8-0.6,0.9-1.1v-1.1
				c-0.7-0.2-1.4-0.3-2.2-0.3c-0.6,0-1,0.1-1.4,0.4s-0.6,0.6-0.6,1.1c0,0.4,0.2,0.8,0.5,1c0.3,0.3,0.8,0.4,1.3,0.4
				C277.4,406.5,277.9,406.4,278.4,406.1z"/>
			<path class="st1" d="M283.9,400h1.8v0.9h-1.8v6.3h-1V401h-1.1V400h1.1v-1c0-0.5,0.2-1,0.5-1.3c0.3-0.3,0.8-0.5,1.3-0.5
				c0.5,0,1,0.2,1.3,0.5l-0.5,0.8c-0.1-0.1-0.2-0.2-0.3-0.2c-0.1-0.1-0.3-0.1-0.4-0.1c-0.2,0-0.4,0.1-0.6,0.3s-0.2,0.4-0.2,0.7V400z
				"/>
			<path class="st1" d="M288.3,400h1.8v0.9h-1.8v6.3h-1V401h-1.1V400h1.1v-1c0-0.5,0.2-1,0.5-1.3c0.3-0.3,0.8-0.5,1.3-0.5
				c0.5,0,1,0.2,1.3,0.5l-0.5,0.8c-0.1-0.1-0.2-0.2-0.3-0.2c-0.1-0.1-0.3-0.1-0.4-0.1c-0.2,0-0.4,0.1-0.6,0.3s-0.2,0.4-0.2,0.7V400z
				"/>
			<path class="st1" d="M291.5,398.5c-0.1-0.1-0.2-0.3-0.2-0.5s0.1-0.3,0.2-0.5c0.1-0.1,0.3-0.2,0.5-0.2c0.2,0,0.3,0.1,0.5,0.2
				c0.1,0.1,0.2,0.3,0.2,0.5s-0.1,0.3-0.2,0.5c-0.1,0.1-0.3,0.2-0.5,0.2C291.8,398.7,291.6,398.6,291.5,398.5z M291.5,400h1.1v7.2
				h-1.1V400z"/>
			<path class="st1" d="M296.2,406.9c-0.6-0.3-1-0.8-1.4-1.4c-0.3-0.6-0.5-1.2-0.5-1.9s0.2-1.3,0.5-1.9s0.8-1,1.4-1.4
				c0.6-0.3,1.2-0.5,1.9-0.5c0.5,0,0.9,0.1,1.4,0.3c0.4,0.2,0.8,0.4,1.2,0.8l-0.7,0.7c-0.2-0.3-0.5-0.5-0.8-0.6s-0.7-0.2-1-0.2
				c-0.5,0-0.9,0.1-1.3,0.4c-0.4,0.3-0.7,0.6-1,1c-0.2,0.4-0.4,0.9-0.4,1.4c0,0.5,0.1,1,0.4,1.4c0.2,0.4,0.6,0.8,1,1
				c0.4,0.3,0.8,0.4,1.3,0.4c0.4,0,0.7-0.1,1-0.2c0.3-0.2,0.6-0.4,0.9-0.7l0.7,0.7c-0.3,0.3-0.7,0.6-1.2,0.8
				c-0.5,0.2-0.9,0.3-1.4,0.3C297.4,407.4,296.8,407.2,296.2,406.9z"/>
		</g>
	</g>
	<g>
		<g>
			<path class="st11" d="M622.9,403.5h-13.1l-2.4,5.3h-2.9l10.3-23.4h2.9l10.3,23.4h-2.9L622.9,403.5z M621.8,401l-5.4-12.3
				l-5.5,12.3H621.8z"/>
			<path class="st11" d="M633.7,385.4h9.5c4.8,0,8.6,3.1,8.6,7.5c0,4.4-3.8,7.5-8.6,7.5h-6.9v8.4h-2.7V385.4z M642.7,397.9
				c3.8,0,6.4-1.8,6.4-5c0-3.1-2.6-5-6.4-5h-6.4v10H642.7z"/>
			<path class="st11" d="M657.5,385.4h9.5c4.8,0,8.6,3.1,8.6,7.5c0,4.4-3.8,7.5-8.6,7.5h-6.9v8.4h-2.7V385.4z M666.6,397.9
				c3.8,0,6.4-1.8,6.4-5c0-3.1-2.6-5-6.4-5h-6.4v10H666.6z"/>
		</g>
		<path class="st11" d="M688.5,346.2c3.1,0,5.6,2.5,5.6,5.6v94.7c0,3.1-2.5,5.6-5.6,5.6h-94.7c-3.1,0-5.6-2.5-5.6-5.6v-94.7
			c0-3.1,2.5-5.6,5.6-5.6H688.5 M688.5,343.3h-94.7c-4.7,0-8.5,3.8-8.5,8.5v94.7c0,4.7,3.8,8.5,8.5,8.5h94.7c4.7,0,8.5-3.8,8.5-8.5
			v-94.7C697.1,347.1,693.2,343.3,688.5,343.3L688.5,343.3z"/>
	</g>
	<g>
		<polygon class="st4" points="406.1,412.9 578.4,412.9 585.1,400.6 578.6,388.9 406.1,388.9 		"/>
		<g>
			<path class="st1" d="M446.6,397.2l-4.2,9.6h-1.2l-4.2-9.6h1.2l3.7,8.3l3.6-8.3H446.6z"/>
			<path class="st1" d="M453,400.3c0.5,0.5,0.7,1.3,0.7,2.2v4.4h-1v-1.1c-0.3,0.4-0.6,0.7-1.1,1s-1,0.3-1.5,0.3
				c-0.8,0-1.4-0.2-1.9-0.6c-0.5-0.4-0.7-1-0.7-1.7c0-0.5,0.1-0.9,0.4-1.3c0.3-0.4,0.6-0.7,1-0.9c0.4-0.2,0.9-0.3,1.4-0.3
				c0.7,0,1.5,0.1,2.4,0.4v-0.3c0-0.6-0.1-1.1-0.4-1.5c-0.3-0.4-0.8-0.6-1.5-0.6c-0.3,0-0.7,0.1-1,0.2c-0.3,0.1-0.7,0.3-1.1,0.5
				l-0.4-0.9c0.9-0.5,1.8-0.7,2.6-0.7C451.8,399.4,452.5,399.7,453,400.3z M451.8,405.7c0.5-0.3,0.8-0.6,0.9-1.1v-1.1
				c-0.7-0.2-1.4-0.3-2.2-0.3c-0.6,0-1,0.1-1.4,0.4s-0.6,0.6-0.6,1.1c0,0.4,0.2,0.8,0.5,1c0.3,0.3,0.8,0.4,1.3,0.4
				C450.9,406.1,451.3,406,451.8,405.7z"/>
			<path class="st1" d="M456,397.1h1.1v9.8H456V397.1z"/>
			<path class="st1" d="M459.5,398.1c-0.1-0.1-0.2-0.3-0.2-0.5s0.1-0.3,0.2-0.5c0.1-0.1,0.3-0.2,0.5-0.2c0.2,0,0.3,0.1,0.5,0.2
				c0.1,0.1,0.2,0.3,0.2,0.5s-0.1,0.3-0.2,0.5c-0.1,0.1-0.3,0.2-0.5,0.2C459.8,398.3,459.7,398.2,459.5,398.1z M459.5,399.6h1.1v7.2
				h-1.1V399.6z"/>
			<path class="st1" d="M469.4,397.1v9.8h-1v-1.4c-0.3,0.5-0.6,0.9-1.1,1.1c-0.5,0.3-1,0.4-1.5,0.4c-0.6,0-1.2-0.2-1.7-0.5
				c-0.5-0.3-0.9-0.8-1.2-1.4c-0.3-0.6-0.4-1.2-0.4-2s0.1-1.4,0.4-2c0.3-0.6,0.7-1,1.2-1.3c0.5-0.3,1.1-0.5,1.7-0.5
				c0.6,0,1.1,0.1,1.5,0.4c0.5,0.3,0.8,0.6,1.1,1.1v-3.9H469.4z M467.2,405.7c0.4-0.2,0.7-0.6,0.9-1c0.2-0.4,0.3-0.9,0.3-1.5
				s-0.1-1-0.3-1.5c-0.2-0.4-0.5-0.8-0.9-1c-0.4-0.2-0.8-0.4-1.3-0.4s-0.9,0.1-1.3,0.4c-0.4,0.2-0.7,0.6-0.9,1
				c-0.2,0.4-0.3,0.9-0.3,1.5s0.1,1,0.3,1.5c0.2,0.4,0.5,0.8,0.9,1c0.4,0.2,0.8,0.4,1.3,0.4S466.8,405.9,467.2,405.7z"/>
			<path class="st1" d="M476.7,400.3c0.5,0.5,0.7,1.3,0.7,2.2v4.4h-1v-1.1c-0.3,0.4-0.6,0.7-1.1,1s-1,0.3-1.5,0.3
				c-0.8,0-1.4-0.2-1.9-0.6c-0.5-0.4-0.7-1-0.7-1.7c0-0.5,0.1-0.9,0.4-1.3c0.3-0.4,0.6-0.7,1-0.9c0.4-0.2,0.9-0.3,1.4-0.3
				c0.7,0,1.5,0.1,2.4,0.4v-0.3c0-0.6-0.1-1.1-0.4-1.5c-0.3-0.4-0.8-0.6-1.5-0.6c-0.3,0-0.7,0.1-1,0.2c-0.3,0.1-0.7,0.3-1.1,0.5
				l-0.4-0.9c0.9-0.5,1.8-0.7,2.6-0.7C475.4,399.4,476.2,399.7,476.7,400.3z M475.5,405.7c0.5-0.3,0.8-0.6,0.9-1.1v-1.1
				c-0.7-0.2-1.4-0.3-2.2-0.3c-0.6,0-1,0.1-1.4,0.4s-0.6,0.6-0.6,1.1c0,0.4,0.2,0.8,0.5,1c0.3,0.3,0.8,0.4,1.3,0.4
				C474.5,406.1,475,406,475.5,405.7z"/>
			<path class="st1" d="M483,406.5c-0.4,0.3-0.8,0.5-1.3,0.5c-0.5,0-0.9-0.2-1.3-0.5c-0.3-0.3-0.5-0.8-0.5-1.3v-4.6h-1.1v-0.9h1.1
				v-2h1v2h1.8v0.9h-1.8v4.6c0,0.3,0.1,0.5,0.2,0.7c0.2,0.2,0.3,0.3,0.6,0.3c0.2,0,0.3,0,0.4-0.1c0.1-0.1,0.2-0.1,0.3-0.2L483,406.5
				z"/>
			<path class="st1" d="M488.8,405.8c0.4-0.2,0.8-0.4,1-0.6l0.6,0.7c-0.3,0.3-0.7,0.6-1.3,0.8s-1.1,0.3-1.6,0.3
				c-0.6,0-1.2-0.2-1.8-0.5c-0.6-0.3-1-0.8-1.4-1.4c-0.3-0.6-0.5-1.2-0.5-2c0-0.7,0.2-1.3,0.5-1.9c0.3-0.6,0.8-1,1.3-1.4
				c0.5-0.3,1.1-0.5,1.8-0.5c1.1,0,1.9,0.4,2.5,1.1c0.6,0.8,0.9,1.8,0.9,3.1H485c0.1,0.7,0.3,1.3,0.8,1.8c0.5,0.5,1.1,0.7,1.8,0.7
				C488,406.1,488.4,406,488.8,405.8z M485.8,401c-0.5,0.4-0.7,1-0.8,1.7h4.9c-0.1-0.7-0.3-1.2-0.7-1.7c-0.4-0.4-0.9-0.6-1.6-0.6
				C486.9,400.4,486.3,400.6,485.8,401z"/>
			<path class="st1" d="M499.1,397.1v9.8h-1v-1.4c-0.3,0.5-0.6,0.9-1.1,1.1c-0.5,0.3-1,0.4-1.5,0.4c-0.6,0-1.2-0.2-1.7-0.5
				c-0.5-0.3-0.9-0.8-1.2-1.4c-0.3-0.6-0.4-1.2-0.4-2s0.1-1.4,0.4-2c0.3-0.6,0.7-1,1.2-1.3c0.5-0.3,1.1-0.5,1.7-0.5
				c0.6,0,1.1,0.1,1.5,0.4c0.5,0.3,0.8,0.6,1.1,1.1v-3.9H499.1z M496.9,405.7c0.4-0.2,0.7-0.6,0.9-1c0.2-0.4,0.3-0.9,0.3-1.5
				s-0.1-1-0.3-1.5c-0.2-0.4-0.5-0.8-0.9-1c-0.4-0.2-0.8-0.4-1.3-0.4s-0.9,0.1-1.3,0.4c-0.4,0.2-0.7,0.6-0.9,1
				c-0.2,0.4-0.3,0.9-0.3,1.5s0.1,1,0.3,1.5c0.2,0.4,0.5,0.8,0.9,1c0.4,0.2,0.8,0.4,1.3,0.4S496.5,405.9,496.9,405.7z"/>
			<path class="st1" d="M508.7,406.5c-0.4,0.3-0.8,0.5-1.3,0.5c-0.5,0-0.9-0.2-1.3-0.5c-0.3-0.3-0.5-0.8-0.5-1.3v-4.6h-1.1v-0.9h1.1
				v-2h1v2h1.8v0.9h-1.8v4.6c0,0.3,0.1,0.5,0.2,0.7c0.2,0.2,0.3,0.3,0.6,0.3c0.2,0,0.3,0,0.4-0.1c0.1-0.1,0.2-0.1,0.3-0.2
				L508.7,406.5z"/>
			<path class="st1" d="M512.3,399.9c0.5-0.3,1.1-0.4,1.7-0.4v0.9c-0.5,0-1,0.1-1.4,0.3c-0.4,0.2-0.8,0.5-1,0.9
				c-0.2,0.4-0.4,0.8-0.4,1.3v4h-1.1v-7.2h1.1v1.4C511.5,400.5,511.9,400.1,512.3,399.9z"/>
			<path class="st1" d="M520.6,400.3c0.5,0.5,0.7,1.3,0.7,2.2v4.4h-1v-1.1c-0.3,0.4-0.6,0.7-1.1,1s-1,0.3-1.5,0.3
				c-0.8,0-1.4-0.2-1.9-0.6c-0.5-0.4-0.7-1-0.7-1.7c0-0.5,0.1-0.9,0.4-1.3c0.3-0.4,0.6-0.7,1-0.9c0.4-0.2,0.9-0.3,1.4-0.3
				c0.7,0,1.5,0.1,2.4,0.4v-0.3c0-0.6-0.1-1.1-0.4-1.5c-0.3-0.4-0.8-0.6-1.5-0.6c-0.3,0-0.7,0.1-1,0.2c-0.3,0.1-0.7,0.3-1.1,0.5
				l-0.4-0.9c0.9-0.5,1.8-0.7,2.6-0.7C519.3,399.4,520.1,399.7,520.6,400.3z M519.4,405.7c0.5-0.3,0.8-0.6,0.9-1.1v-1.1
				c-0.7-0.2-1.4-0.3-2.2-0.3c-0.6,0-1,0.1-1.4,0.4s-0.6,0.6-0.6,1.1c0,0.4,0.2,0.8,0.5,1c0.3,0.3,0.8,0.4,1.3,0.4
				C518.4,406.1,518.9,406,519.4,405.7z"/>
			<path class="st1" d="M524.9,399.6h1.8v0.9h-1.8v6.3h-1v-6.3h-1.1v-0.9h1.1v-1c0-0.5,0.2-1,0.5-1.3c0.3-0.3,0.8-0.5,1.3-0.5
				c0.5,0,1,0.2,1.3,0.5l-0.5,0.8c-0.1-0.1-0.2-0.2-0.3-0.2c-0.1-0.1-0.3-0.1-0.4-0.1c-0.2,0-0.4,0.1-0.6,0.3s-0.2,0.4-0.2,0.7
				V399.6z"/>
			<path class="st1" d="M529.3,399.6h1.8v0.9h-1.8v6.3h-1v-6.3h-1.1v-0.9h1.1v-1c0-0.5,0.2-1,0.5-1.3c0.3-0.3,0.8-0.5,1.3-0.5
				c0.5,0,1,0.2,1.3,0.5l-0.5,0.8c-0.1-0.1-0.2-0.2-0.3-0.2c-0.1-0.1-0.3-0.1-0.4-0.1c-0.2,0-0.4,0.1-0.6,0.3s-0.2,0.4-0.2,0.7
				V399.6z"/>
			<path class="st1" d="M532.5,398.1c-0.1-0.1-0.2-0.3-0.2-0.5s0.1-0.3,0.2-0.5c0.1-0.1,0.3-0.2,0.5-0.2c0.2,0,0.3,0.1,0.5,0.2
				c0.1,0.1,0.2,0.3,0.2,0.5s-0.1,0.3-0.2,0.5c-0.1,0.1-0.3,0.2-0.5,0.2C532.8,398.3,532.6,398.2,532.5,398.1z M532.5,399.6h1.1v7.2
				h-1.1V399.6z"/>
			<path class="st1" d="M537.2,406.5c-0.6-0.3-1-0.8-1.4-1.4c-0.3-0.6-0.5-1.2-0.5-1.9s0.2-1.3,0.5-1.9s0.8-1,1.4-1.4
				c0.6-0.3,1.2-0.5,1.9-0.5c0.5,0,0.9,0.1,1.4,0.3c0.4,0.2,0.8,0.4,1.2,0.8l-0.7,0.7c-0.2-0.3-0.5-0.5-0.8-0.6s-0.7-0.2-1-0.2
				c-0.5,0-0.9,0.1-1.3,0.4c-0.4,0.3-0.7,0.6-1,1c-0.2,0.4-0.4,0.9-0.4,1.4c0,0.5,0.1,1,0.4,1.4c0.2,0.4,0.6,0.8,1,1
				c0.4,0.3,0.8,0.4,1.3,0.4c0.4,0,0.7-0.1,1-0.2c0.3-0.2,0.6-0.4,0.9-0.7l0.7,0.7c-0.3,0.3-0.7,0.6-1.2,0.8
				c-0.5,0.2-0.9,0.3-1.4,0.3C538.4,407,537.8,406.8,537.2,406.5z"/>
		</g>
	</g>
	<g id="Layer_2_1_">
		<g id="Layer_1-2_1_">
			<path class="st1" d="M340.5,435c-5.4-2.9-8.7-8.5-8.7-14.6V358l40.7-7.1l40.7,7.1v62.4c0,6.1-3.3,11.7-8.7,14.6l-32,15.9
				L340.5,435z"/>
			<path class="st1" d="M340.5,435c-5.4-2.9-8.7-8.5-8.7-14.6V358l40.7-7.1l40.7,7.1v62.4c0,6.1-3.3,11.7-8.7,14.6l-32,15.9
				L340.5,435z"/>
			<path class="st12" d="M340.5,435c-5.4-2.9-8.7-8.5-8.7-14.6V358l40.7-7.1l40.7,7.1v62.4c0,6.1-3.3,11.7-8.7,14.6l-32,15.9
				L340.5,435z"/>
			<path class="st12" d="M336.9,420.4v-58l35.6-6.4l35.6,6.4v58c0,4.2-2.3,8.1-6,10.1l-29.6,14.6l-29.6-14.6
				C339.2,428.6,336.8,424.7,336.9,420.4z"/>
			<path class="st13" d="M372.5,356l35.6,6.4v58c0,4.2-2.3,8.1-6,10.1l-29.6,14.6V440l-1.3-1.3v-77.6l1.3-1.2V356z"/>
			<path class="st13" d="M413.2,358l-40.7-7.1l-40.3,6.8l4.7,4.7l35.6-6.4l35.6,6.4v58.9c0,3.8-2.1,7.2-5.4,9l-30.2,14.8v5.8
				l32.7-16.2c4.9-2.7,8-7.8,8-13.4V358z"/>
			<polygon class="st13" points="372.5,350.9 332.1,357.6 336.9,362.4 372.5,356 			"/>
			<polygon class="st13" points="338.1,422.2 340.7,418.4 340.7,366.2 338.1,363.7 			"/>
			<polygon class="st13" points="406.8,422.2 404.3,418.4 404.3,366.2 406.8,363.7 			"/>
			<path class="st14" d="M352.8,392.7v16.4c0,1.9,1,3.7,2.7,4.7l14.2,8.2c1.7,1,3.8,1,5.5,0l14.2-8.2c1.7-1,2.7-2.8,2.7-4.7v-16.4
				c0-1.9-1-3.7-2.7-4.7l-14.2-8.2c-1.7-1-3.8-1-5.5,0l-14.2,8.2C353.8,388.9,352.8,390.7,352.8,392.7z"/>
			<polyline class="st15" points="365.7,407.7 372.5,394 379.3,407.7 			"/>
		</g>
	</g>
</g>
</svg>
