<svg xmlns="http://www.w3.org/2000/svg" viewBox="0 0 111.95 111.95"><defs><style>.cls-1{fill:#fff;stroke:#ced0d3;stroke-miterlimit:10;stroke-width:4.15px;}.cls-2{fill:#727174;fill-rule:evenodd;}</style></defs><g id="Layer_2" data-name="Layer 2"><g id="Layer_1-2" data-name="Layer 1"><circle class="cls-1" cx="55.98" cy="55.98" r="53.9"/><path class="cls-2" d="M56.11,23.07V23H56l-4.51-4.72-1.41,1.4,3.27,3.42A34,34,0,0,0,34,31.47,31.05,31.05,0,0,0,23.1,53l2,.12c.81-14.4,13.89-27,28.61-28.1L50.06,28.8l1.41,1.4,5.72-6Z"/><path class="cls-2" d="M89,56l4.72-4.51-1.4-1.41L88.9,53.34A34,34,0,0,0,80.48,34,31,31,0,0,0,58.93,23.1l-.11,2c14.4.81,27,13.89,28.1,28.6l-3.77-3.61-1.4,1.41,6,5.72,1.14-1.09H89A.48.48,0,0,0,89,56Z"/><path class="cls-2" d="M87.66,58.82c-.83,14.4-14.22,27-29.28,28.1l3.69-3.77-1.45-1.39-5.86,6,1.12,1.15V89H56l4.62,4.71,1.45-1.39L58.71,88.9A35.27,35.27,0,0,0,78.5,80.48c6.73-5.77,10.7-13.42,11.16-21.55Z"/><path class="cls-2" d="M25,58.29l3.76,3.6,1.4-1.41-6-5.72-1.15,1.09h-.13V56l-4.71,4.5,1.4,1.41,3.42-3.28A34.07,34.07,0,0,0,31.47,78,31,31,0,0,0,53,88.85l.12-2C38.74,86.08,26.16,73,25,58.29Z"/><path class="cls-2" d="M56,66.12h-.12a1,1,0,0,1,0-2H56a8.12,8.12,0,1,0-8.12-8.2,1,1,0,0,1-1,1h0a1,1,0,0,1-1-1A10.15,10.15,0,1,1,56,66.12Z"/><path class="cls-2" d="M54.21,72.2l3.81,0c.07-.24.16-.57.27-1a7,7,0,0,1,.76-2l.24-.38.43-.07a9.29,9.29,0,0,0,3-1.14l.55-.31.51.36A21.88,21.88,0,0,0,66.05,69c1.48-1.42,2.28-2.23,2.7-2.69-.17-.26-.34-.55-.53-.89-.44-.81-.72-1.3-.83-1.47L67,63.33l.55-.55a4,4,0,0,0,.67-1.29,12.56,12.56,0,0,1,.86-1.91l.25-.39.47-.07a8.38,8.38,0,0,0,1.51-.33l.89-.24,0-3.78-1-.29a10,10,0,0,0-1.35-.33c-.8.13-1-.55-1.39-1.55-.2-.6-.51-1.5-.92-2.71l-.16-.47.29-.41c.34-.48.8-1.25,1.39-2.28-.37-.35-.82-.81-1.36-1.37a13,13,0,0,0-1.33-1.3c-.22.12-.52.29-.91.53a6.88,6.88,0,0,1-1.85.87l-.48.13-.38-.31a5.81,5.81,0,0,0-1.32-.67c-1.24-.49-1.58-.64-1.73-.7l-.42-.21-.12-.45c-.33-1.34-.56-2.17-.7-2.68l-3.74,0c-.09.3-.18.64-.29,1L54,43.39l-.22.67-.69,0A24.41,24.41,0,0,0,50,45.26l-.53.22L49,45.13a15.53,15.53,0,0,0-2.29-1.4c-1.47,1.41-2.27,2.21-2.7,2.68.3.47.74,1.21,1.37,2.44l.29.53-.36.5a8.12,8.12,0,0,0-.76,1.47c-.4.92-.67,1.49-.85,1.81l-.25.43-.49.06a10.58,10.58,0,0,0-1.51.33l-.89.24,0,3.79,1,.28a13.9,13.9,0,0,0,1.59.36l.75.1.09.75a6.87,6.87,0,0,0,.48,1.61c.56,1.27.69,1.62.74,1.77l.14.43-.23.38c-.74,1.24-1.13,2-1.33,2.34,1.45,1.51,2.23,2.26,2.65,2.64l.86-.5a8,8,0,0,1,1.84-.86l.46-.14.39.27s.49.24,3.06,1.4l.38.17.14.39A15.82,15.82,0,0,1,54,71.25,7.67,7.67,0,0,0,54.21,72.2Zm5.09,2-6.42-.07-.27-.56A9.32,9.32,0,0,1,52,71.7c-.12-.56-.22-.94-.3-1.2l-2.47-1.14a7.85,7.85,0,0,0-1,.53,13.31,13.31,0,0,1-1.61.89l-.5.21-.44-.3A31.36,31.36,0,0,1,41.81,67l-.4-.42.16-.55a16.5,16.5,0,0,1,1.52-2.87l-.52-1.21a9.81,9.81,0,0,1-.48-1.41c-.35-.07-.75-.17-1.17-.29-1-.29-1.4-.41-1.6-.45l-.79-.17.07-6.93.77-.17c.26-.06.78-.2,1.55-.42.47-.13.89-.23,1.27-.3.13-.26.3-.64.54-1.2a12.17,12.17,0,0,1,.64-1.3A13.58,13.58,0,0,0,42,47l-.51-.59.45-.63a40.41,40.41,0,0,1,3.92-4l.5-.48.63.31a25.75,25.75,0,0,1,2.76,1.57c1.27-.53,2-.8,2.48-1,.09-.3.21-.71.35-1.24.2-.72.38-1.32.53-1.79l.22-.69,6.6.07.24.62A28.85,28.85,0,0,1,61,42.28l1.18.47a8.33,8.33,0,0,1,1.36.64,6,6,0,0,0,.91-.49A12.48,12.48,0,0,1,66.16,42l.47-.19.44.27A11,11,0,0,1,69.24,44,24.79,24.79,0,0,0,71,45.75l.64.52-.4.73c-.66,1.18-1.18,2.07-1.6,2.71.46,1.37.72,2.11.86,2.52a13.2,13.2,0,0,1,1.34.34c.77.23,1.3.39,1.58.44l.8.17-.07,6.92-.77.17c-.27.06-.78.2-1.56.42-.47.13-.9.23-1.28.31-.11.23-.26.61-.49,1.18a7.69,7.69,0,0,1-.63,1.34l.54,1a10.63,10.63,0,0,0,.82,1.32l.44.58-.42.6a39.25,39.25,0,0,1-3.89,4l-.5.48-.62-.31a22.77,22.77,0,0,1-2.69-1.55,10.86,10.86,0,0,1-2.54,1,9.3,9.3,0,0,0-.34,1.11,9.42,9.42,0,0,1-.64,2Z"/></g></g></svg>