<svg xmlns="http://www.w3.org/2000/svg" viewBox="0 0 111.95 111.95"><defs><style>.cls-1{fill:#fff;stroke:#ced0d3;stroke-miterlimit:10;stroke-width:4.15px;}.cls-2,.cls-3{fill:#727174;}.cls-2{fill-rule:evenodd;}</style></defs><g id="Layer_2" data-name="Layer 2"><g id="Layer_1-2" data-name="Layer 1"><circle class="cls-1" cx="55.98" cy="55.98" r="53.9"/><path class="cls-2" d="M48.24,45.8c0-3.32,2.57-6.08,6.33-6.53v11.3l3-3.21v-8a13.14,13.14,0,0,1,5.45,2.28l2.16-2.28a15.49,15.49,0,0,0-7.61-3V33.23h-3v3c-5.52.6-9.43,4.57-9.43,9.81,0,4.07,2.16,6.36,6.15,8l2.58-2.72C50.15,50,48.24,48.5,48.24,45.8Z"/><path class="cls-2" d="M65,61.9c0,3.25-2.73,6-7.49,6.3V57.14l-3.07,3.1V68a14.71,14.71,0,0,1-5.64-2.07l-2.19,2.22a17.5,17.5,0,0,0,7.83,2.76v3.2h3.07v-3c6.77-.34,10.61-4.32,10.61-9.46,0-4.27-2.5-6.67-6.83-8.28l-2.59,2.61C62.91,57.24,65,58.91,65,61.9Z"/><path class="cls-2" d="M33.11,71.44A27.26,27.26,0,0,1,26.82,54,28.14,28.14,0,0,1,72.57,32.55l1.26-1.23a30,30,0,0,0-18.94-6.69A29.62,29.62,0,0,0,25.06,54a29,29,0,0,0,6.79,18.66Z"/><path class="cls-2" d="M81.12,63.53a15.9,15.9,0,0,1,1.65.54,29.53,29.53,0,0,0-4.12-28l-1.23,1.26a27.74,27.74,0,0,1,3.7,26.17Z"/><path class="cls-2" d="M61.31,81.39a24.9,24.9,0,0,1-6.49.86,25.52,25.52,0,0,1-16.33-6l-1.24,1.37a27.26,27.26,0,0,0,17.57,6.52,26.57,26.57,0,0,0,6.82-.89C61.5,82.65,61.39,82,61.31,81.39Z"/><path class="cls-2" d="M76.68,66.94A12.19,12.19,0,0,0,74.8,91.17a11.26,11.26,0,0,0,1.91.15A12.19,12.19,0,0,0,78.6,67.09,12.61,12.61,0,0,0,76.68,66.94Zm0,1.74h0a11.22,11.22,0,0,1,1.64.13,10.45,10.45,0,0,1-1.61,20.78,11.44,11.44,0,0,1-1.64-.13,10.45,10.45,0,0,1,1.61-20.78"/><path class="cls-2" d="M79.17,81.37c0-.87-.67-1.28-1.93-1.62V83C78.52,82.91,79.17,82.17,79.17,81.37Zm-3-3.1v-3a1.77,1.77,0,0,0-1.61,1.6C74.55,77.59,75.12,78,76.16,78.27ZM77.24,84v.88H76.16V84a5.16,5.16,0,0,1-3-1.46l.69-.84A4.5,4.5,0,0,0,76.16,83V79.47c-1.68-.43-2.71-1-2.71-2.56a2.83,2.83,0,0,1,2.71-2.67V73.4h1.09v.84A4.91,4.91,0,0,1,80,75.56l-.67.84a4.23,4.23,0,0,0-2.11-1.14v3.3c1.78.43,3,1.08,3,2.71C80.28,82.7,79.26,83.87,77.24,84Z"/><rect class="cls-3" x="20.28" y="53.24" width="71.02" height="1.75" transform="translate(-21.92 55.3) rotate(-45)"/></g></g></svg>