<svg xmlns="http://www.w3.org/2000/svg" viewBox="0 0 111.95 111.95"><defs><style>.cls-1{fill:#fff;stroke:#ced0d3;stroke-miterlimit:10;stroke-width:4.15px;}.cls-2{fill:#727174;fill-rule:evenodd;}</style></defs><g id="Layer_2" data-name="Layer 2"><g id="Layer_1-2" data-name="Layer 1"><circle class="cls-1" cx="55.98" cy="55.98" r="53.9"/><polygon class="cls-2" points="56.41 95.19 52.96 91.5 54.33 90.02 56.41 92.24 58.48 90.02 59.85 91.5 56.41 95.19"/><path class="cls-2" d="M30.18,69.34,23.66,63l1.49-1.44,6.52,6.32ZM40,78.82,33.44,72.5l1.49-1.45,6.52,6.32Zm9.79,9.48L43.23,82l1.49-1.44,6.52,6.32Z"/><polygon class="cls-2" points="20.46 59.85 16.76 55.98 20.46 52.1 21.93 53.65 19.72 55.98 21.93 58.3 20.46 59.85"/><path class="cls-2" d="M44.06,31.43,42.61,30l6.32-6.32,1.44,1.45ZM34.58,40.9l-1.45-1.45,6.32-6.32,1.45,1.45Zm-9.47,9.47-1.45-1.44L30,42.61l1.44,1.44Z"/><polygon class="cls-2" points="58.3 21.93 55.98 19.71 53.65 21.93 52.1 20.45 55.98 16.76 59.85 20.45 58.3 21.93"/><path class="cls-2" d="M67.9,31.42,61.58,25.1,63,23.66,69.34,30Zm9.47,9.48-6.31-6.32,1.44-1.45,6.32,6.32Zm9.49,9.47-6.32-6.32L82,42.61l6.32,6.33Z"/><polygon class="cls-2" points="91.49 59.85 90.02 58.3 92.23 55.98 90.02 53.65 91.49 52.1 95.19 55.98 91.49 59.85"/><path class="cls-2" d="M82,69.35,80.53,67.9l6.32-6.32L88.3,63ZM72.5,78.82l-1.45-1.45,6.32-6.32,1.45,1.45ZM63,88.3l-1.45-1.45,6.32-6.32L69.34,82Z"/><path class="cls-2" d="M74.83,66.32l-17.94,18a.69.69,0,0,1-.49.21.67.67,0,0,1-.48-.21L38,66.32a.69.69,0,0,1,0-1l18-18a.7.7,0,0,1,.48-.2.65.65,0,0,1,.48.2l18,18A.68.68,0,0,1,74.83,66.32Zm1.46-2.42-18-18a2.79,2.79,0,0,0-.87-.59V33h2.87l-3.9-6.77L52.53,33H55.4V45.3a2.85,2.85,0,0,0-.94.62l-17.93,18a2.76,2.76,0,0,0,0,3.89l17.94,18a2.75,2.75,0,0,0,3.88,0l17.94-18A2.76,2.76,0,0,0,76.29,63.9Z"/></g></g></svg>