<svg xmlns="http://www.w3.org/2000/svg" viewBox="0 0 111.95 111.95"><defs><style>.cls-1{fill:#fff;stroke:#ced0d3;stroke-miterlimit:10;stroke-width:4.15px;}.cls-2{fill:#727174;fill-rule:evenodd;}</style></defs><g id="Layer_2" data-name="Layer 2"><g id="Layer_1-2" data-name="Layer 1"><circle class="cls-1" cx="55.98" cy="55.98" r="53.9"/><path class="cls-2" d="M83.57,66.19c0-1.08-.87-1.59-2.51-2v4C82.72,68.1,83.57,67.18,83.57,66.19Zm-3.92-3.83V58.6a2.24,2.24,0,0,0-2.1,2C77.55,61.51,78.3,62,79.65,62.36Zm1.41,7.06v1.09H79.65V69.39a7,7,0,0,1-4-1.81l.9-1a5.8,5.8,0,0,0,3.07,1.6v-4.3c-2.19-.53-3.53-1.3-3.53-3.17,0-1.7,1.47-3.06,3.53-3.3v-1h1.41v1A6.55,6.55,0,0,1,84.68,59l-.87,1a5.59,5.59,0,0,0-2.75-1.41v4.08C83.37,63.24,85,64,85,66.07,85,67.82,83.68,69.27,81.06,69.42Z"/><path class="cls-2" d="M85,53.36V27.27H27V84.69H85V72.79H83.47V83.18h-55V47.73L43.42,62.5,41.94,64l5.51,1.46L46,60,44.5,61.43,28.63,45.74a.4.4,0,0,0-.15-.1V29.76L60.57,61.51,59.09,63l5.52,1.46L63.14,59l-1.49,1.47-32-31.66h16.4l15.19,15-1.48,1.46,5.52,1.46L63.8,41.27l-1.48,1.47-14.11-14H83.47V53.36Z"/></g></g></svg>