<svg xmlns="http://www.w3.org/2000/svg" viewBox="0 0 2279.42 968.52"><defs><style>.cls-1{fill-rule:evenodd;}</style></defs><g id="Layer_2" data-name="Layer 2"><g id="Layer_1-2" data-name="Layer 1"><path class="cls-1" d="M114.87,787.64c-7.29,0-7.29-1.44-4.38-4.38L155.7,719.1c10.22-13.13,11.67-16,13.13-16v8.74l-4.37,70c-1.46,5.82-1.46,5.82-7.29,5.82Zm86.06,87.52c-17.51-1.44-17.51-1.44-16.05-36.46l7.29-119.62c1.46-27.71,2.92-42.3,2.92-46.66,0-1.47-2.92-2.95-4.37-2.95,0,0-13.12,8.77-23.33,10.21-1.45,5.85-5.84,14.59-20.43,33.57L88.61,790.53c-24.8,35-45.21,61.29-54,71.49-7.29,8.74-14.59,13.13-24.8,13.13l-8.75,1.46c-1.45,1.44-1.45,5.83,0,8.75,11.67-1.44,23.35-1.44,36.47-1.44s23.35,0,33.55,1.44c2.92-1.44,2.92-7.29,0-8.75l-11.67-1.46c-5.84-1.44-7.29-2.92-7.29-4.39,0-2.91,2.92-7.28,14.58-24.79l24.8-36.46c5.83-8.77,5.83-8.77,16-8.77H155.7c7.29,0,7.29,0,7.29,7.29l-2.92,42.31c-1.46,14.59-2.93,19-4.38,20.41s-5.84,4.38-13.13,4.38l-10.2,1.47c-2.93,1.44-2.93,7.29,0,8.74,10.2-1.44,23.33-1.44,39.37-1.44,14.59,0,26.25,0,36.47,1.44,2.92-1.44,4.37-7.29,1.46-8.74ZM268,822.65l1.45,1.46c23.34-35,56.89-70,81.69-70,13.12,0,17.51,7.29,17.51,17.51a72.31,72.31,0,0,1-4.38,21.89c-5.83,16-30.63,67.08-30.63,70-1.47,2.94-1.47,5.85,0,5.85,5.84,0,21.88-10.21,30.63-20.42,5.84-1.46,5.84,1.44,5.84,4.36-13.14,19-37.94,35-56.88,35-2.92,0-7.29-4.36-7.29-7.29s0-5.83,7.29-21.87c7.28-14.59,18.94-46.69,26.25-62.72,2.91-5.85,7.29-16.06,7.29-21.89,0-4.39,0-8.75-4.38-8.75-8.75,0-27.71,16-46.67,37.93-17.51,20.41-30.64,45.21-49.6,80.23-2.92,2.92-4.37,4.36-7.29,4.36s-11.66-1.44-8.75-8.75c1.46-4.38,36.47-94.82,37.92-99.19s1.45-7.29-1.47-7.29c-7.28,0-19,5.85-29.16,16.06-2.92,0-4.38-2.92-4.38-5.85,13.13-16,33.54-29.16,49.6-29.16,7.29,0,11.66,5.83,8.76,13.13L268,822.65Zm207.11-51c8.76,0,14.6,4.38,16.05,10.2-4.39,19-19,46.7-43.76,68.55-19,17.51-29.17,20.41-32.09,20.41s-5.84-1.44-5.84-5.82c0-21.89,20.42-64.19,42.3-81.7C462,774.52,466.38,771.6,475.13,771.6Zm24.8-4.39c-1.46-2.91-5.83-5.82-7.29-5.82a11.07,11.07,0,0,0-7.29-2.92c-8.75,0-17.5,2.92-30.62,10.21S427,787.63,411,809.51c-20.41,27.71-27.71,54-27.71,61.25,0,8.77,4.37,17.51,14.59,17.51,14.58,0,48.13-21.86,71.46-49.57h1.45l-10.2,29.16c-2.92,7.29-4.37,10.21-4.37,11.67,0,2.92,2.91,8.74,10.2,8.74,17.51,0,42.3-17.51,55.42-35,0-2.92-1.45-4.36-4.37-4.36-19,16-29.18,20.41-33.55,20.41-2.92,0-4.37-1.46-2.92-7.28,10.22-27.72,39.39-97.73,43.76-109.42-1.45-4.36-10.22-7.29-16-5.82l-8.76,20.41Zm64.19,96.27c-2.92,7.28-2.92,10.23,1.45,10.23,7.29,0,21.88-16.06,37.93-32.1,2.91,0,4.38,1.44,4.38,4.36-8.75,16-29.18,42.3-56.89,42.3-10.2,0-13.12-4.35-13.12-10.2,0-4.36,2.92-10.21,7.29-26.24l54-150.24c7.28-21.9,4.37-24.8-1.46-27.72l-5.83-1.44a4.48,4.48,0,0,1,0-5.85c5.83-1.44,26.25-8.74,42.29-8.74l1.47,1.44c-4.39,11.67-7.29,20.41-19,54L564.12,863.48Z"/><path class="cls-1" d="M676.43,808.06c0,20.44,0,43.77-4.38,70h1.46c10.2-16,20.41-35,27.71-54,5.84-19,11.66-51.07,11.66-59.8,1.46-8.77,5.84-8.77,8.76-8.77,1.45,0,5.83,1.47,8.75,2.94,1.45,1.44,2.92,2.92,2.92,5.83,0,7.29-8.75,48.13-37.92,96.26-17.51,26.26-29.17,48.13-55.42,75.85-24.8,27.74-40.84,32.1-51.05,32.1-11.67,0-17.51-5.83-17.51-14.59a13.09,13.09,0,0,1,13.12-13.13c2.92,0,7.29,1.47,8.76,4.38S597.66,951,603.5,951c2.91,0,10.2-1.44,17.51-8.74,8.75-5.85,23.33-26.27,29.16-46.69,4.39-16,7.29-45.22,7.29-72.93-1.45-35-7.29-46.67-13.12-46.67-7.29,0-13.13,10.21-19,23.33-4.37,1.44-5.84-1.46-7.29-4.38C625.38,774.52,640,754.1,656,754.1c17.5,0,20.42,32.09,20.42,54Zm142.93-35c0,4.38-2.91,8.77-5.83,8.77-1.45,1.44-4.37,0-5.84-1.47-5.83-5.82-10.22-10.21-20.43-10.21-8.74,0-13.12,7.29-13.12,11.68,0,7.29,1.45,13.12,11.66,29.18,7.29,13.12,13.12,21.87,11.66,35,0,8.77-4.37,20.44-17.51,30.65-7.29,7.29-20.41,11.64-32.09,11.64-13.12,0-20.41-10.2-20.41-17.51,0-2.91,1.45-5.82,4.37-10.2a9.4,9.4,0,0,1,8.75,0c4.39,4.38,14.59,13.15,23.34,13.15,7.29,0,16-7.29,16-17.51,0-5.85-4.37-16.06-13.13-29.18s-11.66-23.34-11.66-29.18c0-11.65,5.84-21.87,20.42-33.54,10.21-7.29,20.41-10.21,24.8-10.21,11.7,0,19,10.22,19,19Zm90.44-8.74c5.84,0,7.29,4.38,7.29,7.29s-2.92,11.64-13.12,21.89c-11.66,10.21-21.88,16-43.76,23.33,2.91-8.76,11.67-23.33,24.79-37.92C896.66,767.21,905.42,764.31,909.8,764.31Zm5.84-10.21c-8.76,0-21.88,2.92-39.39,16-36.47,26.27-49.6,64.19-49.6,84.6,0,16,7.29,33.54,27.72,33.54,13.13,0,32.09-5.82,52.5-29.15,0-2.92-1.45-5.85-4.37-5.85-14.59,13.15-23.34,19-35,19-8.76,0-16-7.29-16-17.51,0-13.12,2.92-23.33,4.39-29.18C904,813.9,937.52,797.84,937.52,773,937.52,765.77,928.75,754.1,915.64,754.1Zm169.19,20.42-29.18,83.13c-1.45,5.83,0,7.29,1.46,7.29,5.84,0,27.72-16,37.93-27.72,4.37,0,5.83,1.47,5.83,5.83-19,26.26-49.59,45.21-64.17,45.21-4.37,0-8.76-4.36-8.76-8.74s1.47-8.77,4.38-17.51L1063,774.49h-24.8a7,7,0,0,1,2.92-8.74l26.25-4.39,19-32.1c2.92-1.46,10.21-1.46,13.13,1.47l-10.22,32.07h36.47c1.45,3,0,8.77-4.37,11.68h-36.46v0Zm93.34-72.93c7.29-20.42,8.77-24.8,2.95-29.16l-7.29-4.38c0-1.47,0-2.92,1.44-2.92,5.85-3,27.71-7.29,39.39-7.29l1.44,1.44c-7.28,17.51-17.51,46.69-24.78,64.19l-33.56,94.79v1.47c23.36-32.1,40.83-45.21,52.51-52.52,11.68-8.74,23.34-13.12,32.1-13.12,14.59,0,19,10.21,19,21.89,0,21.87-13.12,54-24.77,74.37-7.29,10.21-13.15,17.51-21.89,24.8-11.68,11.67-20.42,13.12-24.8,13.12-10.21,0-11.67-7.29-11.67-8.74,0-5.82,4.38-10.21,8.76-10.21a5.46,5.46,0,0,1,4.39,1.44c2.92,1.47,7.27,4.39,8.74,4.39,5.82,0,8.77-4.39,13.12-16,8.77-20.42,24.8-64.19,24.8-81.7,0-5.82-2.92-10.21-7.29-10.21s-11.64,4.39-17.51,8.77c-14.59,10.21-24.79,20.42-42.3,42.28-16,19-32.09,49.6-40.83,65.66-1.47,2.91-2.92,4.35-5.84,4.35s-11.66-1.44-8.75-8.74l62.69-177.94Zm179.43,62.72c7.29,0,8.74,4.38,8.74,7.29s-2.92,11.64-13.13,21.89c-13.12,10.21-23.33,16-45.21,23.33,4.38-8.76,11.67-23.33,24.8-37.92,11.65-11.69,20.41-14.59,24.8-14.59Zm7.29-10.21c-10.24,0-21.9,2.92-39.39,16-36.47,26.27-49.6,64.19-49.6,84.6,0,16,7.29,33.54,26.26,33.54,14.57,0,33.54-5.82,54-29.15,0-2.92-1.47-5.85-4.39-5.85-14.56,13.15-23.33,19-35,19-8.74,0-16-7.29-16-17.51,0-13.12,2.92-23.33,4.38-29.18,48.13-11.65,80.23-27.71,80.23-52.51C1385.3,765.77,1378,754.1,1364.89,754.1Zm176.49-33.54c10.21-30.65,10.21-35-7.29-37.92l-5.85-1.47c-2.92-1.46-1.44-5.82,1.47-7.29h17.51c5.83,0,11.67,1.47,19,1.47l61.26-1.47c20.41,0,36.45,1.47,46.69,0-3,5.83-10.24,30.62-13.15,42.31-1.44,1.44-7.29,1.44-8.75,0,1.44-17.51,2.92-24.8-11.67-29.18-7.29-1.44-17.51-2.92-35-2.92h-19c-8.77,0-8.77,1.47-11.68,11.67l-23.33,68.55c-2.92,7.29-1.46,8.74,5.83,8.74h21.89c32.1,0,37.92-2.92,45.21-16l5.82-10.21c1.47-1.46,8.77-1.46,8.77,1.47-1.46,5.82-7.29,17.51-10.2,29.15-4.39,11.68-7.29,24.8-8.77,32.1-2.92,2.92-7.29,1.47-8.74,0V797.86c0-10.21-7.29-14.59-33.57-14.59h-24.8c-7.29,0-8.74,1.47-11.64,8.77l-14.6,46.69c-8.76,29.15-10.2,36.46,7.29,36.46l13.13,1.46c1.46,2.92,0,7.29-1.47,8.74-19-1.44-30.62-1.44-45.21-1.44-13.12,0-24.77,0-37.92,1.44-2.92-2.91-2.92-7.28,0-8.74l10.2-1.46c16.06-1.44,19-4.39,29.19-36.46l39.36-118.17Zm132.73,135.65c-2.94,7.28-1.46,11.65,2.92,11.65s17.51-10.21,35-26.24c30.62-29.18,48.13-65.64,58.33-84.6,7.29-1.47,14.57,1.46,16,4.38-2.91,8.74-24.79,61.26-37.92,99.17-1.47,4.38-2.92,7.29,1.47,7.29,5.82,0,23.33-14.59,32.07-24.8,2.92,0,5.85,1.47,5.85,4.38-8.77,16-40.86,40.83-58.34,40.83-4.38,0-10.23-5.82-7.29-11.64l21.87-56.9v-1.47c-24.8,29.18-65.64,70-83.14,70-14.56,0-16-13.12-10.2-27.71l30.62-75.85c2.94-5.82,2.94-10.21,0-10.21-5.83,0-23.33,14.59-30.62,21.9-4.36,1.43-7.29-1.47-5.83-4.39,8.74-13.12,40.83-37.92,56.9-37.92,4.36,0,11.65,4.38,10.21,10.21l-37.94,91.91Zm191.05-81.69-30.63,83.13c-1.44,5.83,0,7.29,2.92,7.29,4.39,0,26.27-16,37.93-27.72,2.94,0,5.85,1.47,4.38,5.83-19,26.26-49.6,45.21-62.72,45.21-5.83,0-10.21-4.36-10.21-8.74s1.47-8.77,5.82-17.51l30.65-87.52H1817c0-2.92,0-7.29,4.38-8.74l26.24-4.39,19-32.1c2.92-1.46,8.75-1.46,11.68,1.47l-8.77,32.07h35c2.91,3,1.46,8.77-2.92,11.68h-36.47v0Zm67.1,81.69c-2.92,7.28,0,11.65,2.92,11.65,4.38,0,19-10.21,35-26.24,30.62-29.18,48.13-65.64,58.33-84.6,7.29-1.47,16.06,1.46,16.06,4.38-2.92,8.74-24.8,61.26-37.92,99.17-1.47,4.38-3,7.29,1.44,7.29,5.85,0,23.35-14.59,32.1-24.8,2.91,0,5.82,1.47,5.82,4.38-8.74,16-40.83,40.83-58.34,40.83-4.38,0-10.21-5.82-7.29-11.64l21.9-56.9v-1.47c-24.8,29.18-65.64,70-83.14,70-13.13,0-16.06-13.12-10.21-27.71l30.62-75.85c2.92-5.82,2.92-10.21,0-10.21-5.82,0-23.33,14.59-30.62,21.9-4.38,1.43-5.85-1.47-5.85-4.39,8.77-13.12,40.86-37.92,56.9-37.92,4.38,0,11.67,4.38,10.21,10.21l-37.94,91.91Zm185.26-71.49-13.12,39.39h1.44c10.2-17.51,26.26-42.31,35-52.51,7.29-10.21,14.59-17.51,23.33-17.51,11.68,0,13.13,11.67,13.13,16s-2.92,13.12-7.28,19c-2.94,4.39-8.76,4.39-10.2-1.46-1.47-8.74-3-13.13-7.29-13.13-3,0-5.85,4.39-10.21,10.21-20.41,24.8-39.39,62.72-56.9,99.19-1.46,2.92-2.92,4.36-5.82,4.36s-13.15-1.44-10.21-8.74c2.92-11.67,24.8-68.55,33.54-99.19,1.47-4.36,0-7.29-2.92-7.29-8.77,0-17.51,8.76-23.33,17.51-2.94,0-5.85-1.44-5.85-5.83,11.67-17.51,23.36-30.62,39.39-30.62,17.51,0,10.21,21.88,7.3,30.62Zm134.17-20.41c5.83,0,7.29,4.38,7.29,7.29s-2.92,11.64-13.12,21.89c-11.68,10.21-21.9,16-43.78,23.33,2.92-8.76,11.68-23.33,23.36-37.92C2238.58,767.21,2247.31,764.31,2251.69,764.31Zm5.83-10.21c-8.74,0-21.87,2.92-39.37,16-36.47,26.27-49.59,64.19-49.59,84.6,0,16,7.29,33.54,27.71,33.54,13.13,0,32.1-5.82,52.52-29.15,0-2.92-1.47-5.85-4.39-5.85-14.59,13.15-23.33,19-35,19-8.74,0-16-7.29-16-17.51,0-13.12,2.92-23.33,4.38-29.18,48.13-11.65,81.67-27.71,81.67-52.51,0-7.27-8.75-18.94-21.9-18.94Z"/><path class="cls-1" d="M619.54,56.89C571.41,20.41,513.06,0,448.88,0S326.36,20.41,278.23,56.89ZM726,230.46c-2.92-19-10.21-36.47-16-52.51l-523.64-1.46c-7.29,17.51-11.67,35-16,54ZM259.27,490.09C308.86,535.3,376,564.48,448.88,564.48A282,282,0,0,0,640,490.09ZM653.08,477c16-17.51,36.47-40.84,49.6-67.09H192.17c17.51,24.79,33.56,46.68,52.52,67.09ZM710,389.44c8.74-19,14.58-30.63,19-52.51H171.76a200.54,200.54,0,0,0,16,52.51Zm20.41-80.21V256.71h-563c0,16-1.45,14.59-1.45,24.8,0,7.29,0,21.88,1.45,27.72ZM693.92,138.57c-10.21-17.51-21.88-33.55-35-46.68H238.84c-11.66,13.13-24.8,29.17-35,46.68Z"/><path d="M870.41,500.78H623.91v-9.73h246.5ZM253.43,476H18.6v-9.73H253.43ZM867.5,419.11h-178v-9.73h178Zm0-71.48H721.64V337.9H867.5ZM176.13,309.71H20.05V300H176.13ZM867.5,267.42H726V257.7H867.5ZM177.58,229.49H23v-9.73H177.58ZM866,187.19H701.22v-9.72H866Zm-652-49.59H23v-9.73H214.05Zm650.53-36.46H650.16V91.41H864.58ZM300.11,57.38H24.44V47.65H300.11Zm570.3-32.09H537.86V15.56H870.41Z"/><path class="cls-1" d="M1020.66,75.85C1019.19,19,956.47,35,956.47,17.51c0-7.29,1.46-8.76,7.29-8.76,29.18,0,58.35,2.92,87.52,2.92,23.34,0,48.13-2.92,72.93-2.92,13.12,0,14.59,1.47,14.59,7.29,0,19-56.89,1.47-56.89,59.81v423c0,53.95,70,36.45,70,59.77,0,5.85-1.46,7.29-14.59,7.29-19,0-52.5-2.92-86-2.92-48.13,0-65.64,2.92-75.85,2.92-14.59,0-16-2.92-16-11.64,0-21.9,61.27,2.91,61.27-74.4Zm224.62,17.51c0-81.69-65.64-55.42-65.64-77.3,0-5.84,7.29-7.29,11.67-7.29,24.77,0,46.67,2.92,70,2.92,52.51,0,103.57-2.92,172.12-2.92,138.57,0,275.66,105,275.66,250.87,0,180.87-84.58,306.31-303.38,306.31-40.83,0-80.23-2.92-121.06-2.92-7.29,0-83.13,2.92-87.52,2.92-7.29,0-8.77-2.92-8.77-7.29,0-17.51,56.9,1.47,56.9-72.93V93.36Zm61.24,358.8c0,13.14-1.44,51,5.85,56.9,24.8,26.24,84.58,36.46,121.06,36.46,110.85,0,217.32-59.8,217.32-242.12,0-175-116.67-274.22-265.45-275.67-75.85,0-78.78,13.12-78.78,49.58ZM2014,1.47c148.77,0,189.6,61.26,212.94,61.26,5.82,0,10.2-8.75,19-8.75s8.74,13.13,10.21,64.19c1.44,42.29,8.74,67.09-4.39,67.09-8.74,0-14.59-20.41-17.51-24.8-49.59-84.6-105-135.65-207.11-135.65-153.16,0-227.55,102.1-227.55,248,0,137.1,78.77,274.22,230.47,274.22,122.52,0,199.81-78.78,213-113.78,1.44-5.84,5.83-10.21,10.21-10.21,4.36-1.45,8.74,4.37,7.28,7.29L2243,509.08c-1.46,4.35-56.9,62.72-234.84,62.72C1846.22,571.8,1731,460.93,1731,297.57S1847.66,1.47,2014,1.47Z"/><rect x="18.6" y="380.21" width="177.95" height="9.73"/></g></g></svg>