<?xml version="1.0" encoding="utf-8"?>
<!-- Generator: Adobe Illustrator 24.2.1, SVG Export Plug-In . SVG Version: 6.00 Build 0)  -->
<svg version="1.1" id="svg1978" xmlns:svg="http://www.w3.org/2000/svg"
	 xmlns="http://www.w3.org/2000/svg" xmlns:xlink="http://www.w3.org/1999/xlink" x="0px" y="0px" viewBox="0 0 797.6 153.6"
	 style="enable-background:new 0 0 797.6 153.6;" xml:space="preserve">
<style type="text/css">
	.st0{fill:#0018A8;}
</style>
<g id="layer1" transform="translate(222.6327,-275.4212)">
	<g id="g2901" transform="translate(5.314294,5.30821)">
		<path id="path2677" class="st0" d="M-12.2,417.1h-19.1V359h19.1c20.2,0,31.1,9.9,31.1,29C18.9,407,9.9,417.1-12.2,417.1z
			 M-13.6,367.9h-6.3v40.4h6.1c15.8,0.3,20.9-7.4,20.9-20.2C7.2,374-0.1,367.9-13.6,367.9"/>
		<path id="path2679" class="st0" d="M36.4,392.6c0.3-5.3,2.9-10.2,8.9-10.2c5.8,0,8.7,4.3,8.4,10.2H36.4z M45.6,375.6
			c-15.3,0-20.6,10.8-20.6,21c0,12.1,6.1,21.2,19.1,21.6c10.4,0.1,19.5-3,20.1-14.4H53.7c0,4.6-3.7,7.5-8,7.5c-7.3,0-9.6-5.4-9.7-12
			l29.3-0.1C66.1,387.3,60.9,375.6,45.6,375.6"/>
		<path id="path2681" class="st0" d="M112.2,417.1h-10.9l-0.1-6.6c-1.8,5.2-6.9,7.9-13.2,7.9c-7.4,0-14.4-4.5-14.5-15.3V377h11.1
			v24.6c-0.1,5.8,2.2,9,7.6,9.1c4.9,0,8.9-2.8,8.9-10.6v-23h11V417.1"/>
		<path id="path2683" class="st0" d="M126.4,377.2v-6.3l10.7-5.6v12h10.2v7.8h-10.2v19.4c0,3.9,1.4,6.2,5.4,6.3
			c1.5,0,2.9,0.2,4.9-0.4v6.9c-5.2,0.7-11.3,2.1-16.2-0.6c-3.8-2-4.7-5.5-4.7-11.2V385h-8.6v-7.8H126.4"/>
		<path id="path2685" class="st0" d="M188.9,399.8c1.8,3.5,1.7,8.2-0.5,11.4c-3.8,5.8-12,7.2-18.3,7.1c-9-0.6-17-2.9-16.6-13.7h10.9
			c-0.1,4.7,2.8,6.3,7,6.5c4,0,8-1.4,8-5.1c0-3-2.8-4.3-6.4-5.1c-4.1-0.9-7.1-1.3-11.7-3.1c-3.7-1.8-7.3-4.7-7.3-10.4
			c0-4.7,3.6-8.2,8.4-10.1c3.2-1.4,7.1-1.8,10.5-1.8c7.6,0,15.9,2.6,15.4,12.3H178c0-1.4-0.3-3-1.5-4c-2.3-2-9.2-2.3-11.3,1
			c-2.4,5.6,5.1,6,13.3,8.3C183.8,394.4,187.3,396.6,188.9,399.8"/>
		<path id="path2687" class="st0" d="M216.3,375.5c8.8,0,17.8,4,17.8,15l-10.8-0.1c0-5.1-2.8-8.3-8.1-8c-1.4,0.1-2.8,0.6-4,1.2
			c-3.3,1.9-4.4,7.3-4.4,12.7c0,5.7,1.4,11.2,3.9,13.2c1.7,1.6,4.6,2.1,7.2,1.6c4.3-0.7,5.5-4.9,5.6-8.5l10.5-0.1
			c0.1,11.5-9.2,15.8-19,15.7c-13.1-0.5-19.1-9-19.1-21.6C195.9,383.8,203.2,375.5,216.3,375.5"/>
		<path id="path2689" class="st0" d="M242.6,359.1h11.1v24.2c2.9-5.1,7.2-7.4,13.1-7.4c7.4,0,14.4,5.5,14.4,13.5v27.6h-10.9v-24.6
			c0-5.5-2.3-9.1-7.5-9.1c-4.9,0-9.1,3.2-9.1,10.6v23h-11V359.1"/>
		<path id="path2691" class="st0" d="M301,392.6c0.3-5.3,2.9-10.2,8.9-10.2c5.8,0,8.7,4.3,8.4,10.2H301z M310.3,375.6
			c-15.3,0-20.6,10.8-20.6,21c0,12.1,6.1,21.2,19.1,21.6c10.4,0.1,19.5-3,20.1-14.4h-10.6c0,4.6-3.7,7.5-8,7.5
			c-7.3,0-9.6-5.4-9.7-12l29.3-0.1C330.8,387.3,325.5,375.6,310.3,375.6"/>
		<path id="path2693" class="st0" d="M398.2,415.4c-3.7,1.2-8.6,1.7-13.8,1.7h-21v-57.9h22.3c10,0,20.4,3.1,20.8,14.3
			c0.2,7.1-4.6,11.6-10.6,13.6c4.6,1.2,8.4,2.6,11,6.9c2.3,3.9,2.4,9,0.6,13.2C405.6,411.2,402.6,413.9,398.2,415.4z M385.8,367.9
			h-11.3v15h11.5c6,0,9.1-2.5,9.1-7.4C395.1,370.9,391.5,367.9,385.8,367.9z M386.9,391.5l-12.5-0.1v17h12c8,0,10.6-3.9,10.6-8.8
			C397.1,395.9,394.3,391.5,386.9,391.5"/>
		<path id="path2695" class="st0" d="M433.2,411.3c-4.1-0.3-6.5-2.3-6.5-6.2c0.1-8.4,10.8-7.5,16.3-7.5
			C443.3,404.2,442.7,411.1,433.2,411.3z M453.5,388c0-8.2-8.8-12.3-19-12.2c-9.7,0.2-16.8,3.3-16.9,12.7h10.7
			c-0.2-4.3,2.7-6.6,6.7-6.7c5.9,0,8.6,2.7,8,9.5c-5.9,0.3-13.7-0.1-19.6,2.6c-4.3,2-7.5,5.8-7.5,11.8c0,7.7,5.4,12.4,13.2,12.6
			c5.6,0.6,12-1.9,14.5-7.1l0.4,5.9h9.6C453.5,407.4,453.5,397.8,453.5,388"/>
		<path id="path2697" class="st0" d="M464.2,377h11.1v6.4c2.9-5.2,8.2-7.5,14.2-7.5c6.6,0,13.5,3.9,13.5,13.5v27.6h-11.1v-24.6
			c0.1-5.2-2.5-9.1-7.5-9.1c-5,0-9.1,3.2-9.1,10.6v23h-11V377"/>
		<path id="path2699" class="st0" d="M541.7,417.1l-16.9-23l15.3-17.1h13l-15.8,16.7l18.6,23.4H541.7z M513.6,359.1h10.9v58h-10.9
			V359.1z"/>
		<path id="path2701" class="st0" d="M-214.2,275.4h141V417h-141V275.4z M-128.5,309l-55.1,73.9h24.9l55.3-73.9H-128.5z
			 M-194.6,397.4h101.7V295h-101.7V397.4z"/>
	</g>
</g>
</svg>
