<svg xmlns="http://www.w3.org/2000/svg" xmlns:xlink="http://www.w3.org/1999/xlink" viewBox="0 0 64.94 50.91"><defs><style>.a{fill:none;clip-rule:evenodd;}.b,.d{fill:#737276;}.b,.c{fill-rule:evenodd;}.c{fill:#fff;}.e{clip-path:url(#a);}</style><clipPath id="a"><polygon class="a" points="0 51.52 64.94 51.52 64.94 0 0 0 0 51.52 0 51.52"/></clipPath></defs><path class="b" d="M55.93,13.8C55.24,6.18,49.46.18,42.27,0h-.34c-5.81,0-10.83,3.87-13,9.4a11.92,11.92,0,0,0-4.85-1.15H23.8a12,12,0,0,0-11.69,9.47,9.59,9.59,0,0,0-2.35-.34H9.53A9.53,9.53,0,0,0,0,26.63c-.12,5.24,4.69,10,9.94,10.16h4.48c0-.57.1-1.13.18-1.69H10C5.63,35,1.61,30.89,1.71,26.67a7.84,7.84,0,0,1,7.8-7.6h.2a8.56,8.56,0,0,1,1.93.27l1.74.48.38-1.75a10.34,10.34,0,0,1,10-8.13H24a10.16,10.16,0,0,1,4.15,1l1.67.8L30.52,10C32.5,5,37,1.69,41.93,1.69h.3c6.22.15,11.38,5.42,12,12.25l.12,1.4,1.41.13c4.31.41,7.59,4.78,7.46,10S59.43,35,55,35H51.25c.09.56.16,1.13.2,1.7H55c5.35,0,9.78-5,9.92-11.21s-3.84-11.18-9-11.67Z"/><path class="c" d="M34.31,46a.39.39,0,0,1-.37-.39.38.38,0,0,1,.37-.39c4,0,7.24-3.51,7.24-7.81S38.3,29.6,34.31,29.6s-7.24,3.51-7.24,7.81a.37.37,0,1,1-.73,0c0-4.73,3.58-8.58,8-8.58s8,3.85,8,8.58S38.7,46,34.31,46Z"/><path class="d" d="M34.31,46a.39.39,0,0,1-.37-.39.38.38,0,0,1,.37-.39c4,0,7.24-3.51,7.24-7.81S38.3,29.6,34.31,29.6s-7.24,3.51-7.24,7.81a.37.37,0,1,1-.73,0c0-4.73,3.58-8.58,8-8.58s8,3.85,8,8.58S38.7,46,34.31,46Z"/><g class="e"><path class="c" d="M36.58,50.91H31.89l-.1-.22a7.45,7.45,0,0,1-.45-1.45c-.12-.54-.23-.94-.32-1.21-1.54-.68-2.13-1-2.36-1.06a5.3,5.3,0,0,0-1.09.55,13.27,13.27,0,0,1-1.25.71l-.19.08L26,48.2a31.78,31.78,0,0,1-3.12-3l-.15-.16.06-.2A14.37,14.37,0,0,1,24,42.43c-.08-.18-.23-.53-.53-1.19a6.52,6.52,0,0,1-.44-1.34q-.52-.09-1.2-.27c-.65-.19-1.1-.31-1.34-.36l-.3-.06v-5l.28-.06c.21-.05.65-.17,1.29-.36A9.85,9.85,0,0,1,23,33.55c.12-.25.3-.65.53-1.2a9.57,9.57,0,0,1,.61-1.24A13.34,13.34,0,0,0,22.83,29l-.19-.22.16-.24a38.32,38.32,0,0,1,3.11-3.21l.18-.18.24.11a16.53,16.53,0,0,1,2.4,1.37,17.3,17.3,0,0,1,2.43-.95l.34-1.25c.15-.59.29-1.08.41-1.45l.08-.27h4.75l.09.24a27.47,27.47,0,0,1,.78,2.64c.19.08.53.22,1.18.46a6.77,6.77,0,0,1,1.23.59,5,5,0,0,0,1-.53,9.91,9.91,0,0,1,1.29-.72l.17-.08.16.1a8.56,8.56,0,0,1,1.7,1.48,18.57,18.57,0,0,0,1.52,1.46l.24.19L46,28.8c-.58,1.07-1,1.86-1.37,2.38.54,1.55.78,2.22.88,2.5a8.82,8.82,0,0,1,1.29.29c.64.19,1.09.31,1.33.36l.3.06v4.94l-.29.07-1.29.36a11.48,11.48,0,0,1-1.21.29,12.49,12.49,0,0,0-.5,1.21,5.49,5.49,0,0,1-.61,1.24l.58,1a11.26,11.26,0,0,0,.72,1.12l.17.22-.16.22a36.79,36.79,0,0,1-3.08,3.22l-.18.18-.24-.11A19.51,19.51,0,0,1,39.94,47a8.8,8.8,0,0,1-2.4,1,5.67,5.67,0,0,0-.38,1.19,7.93,7.93,0,0,1-.47,1.56l-.11.21Zm-4.21-.75h3.74A9.75,9.75,0,0,0,36.44,49,5.44,5.44,0,0,1,37,47.43l.09-.14.16,0a8.09,8.09,0,0,0,2.53-1l.21-.12.19.13a17.64,17.64,0,0,0,2.24,1.31C44,46,44.73,45.22,45,44.85c-.18-.26-.39-.59-.6-1-.47-.83-.65-1.12-.71-1.21l-.15-.25.2-.21A3.5,3.5,0,0,0,44.41,41a9,9,0,0,1,.65-1.48l.09-.15.17,0a7.77,7.77,0,0,0,1.29-.29l1-.3V35l-1.1-.31a9,9,0,0,0-1.24-.28c-.37.09-.37.08-1.49-3.15l-.06-.18.1-.15c.31-.46.75-1.2,1.3-2.21-.33-.29-.77-.73-1.35-1.33a9.44,9.44,0,0,0-1.38-1.25c-.23.11-.57.31-1,.58a4.94,4.94,0,0,1-1.38.67l-.18.05-.15-.11a4.46,4.46,0,0,0-1.19-.6c-.76-.29-1.21-.47-1.39-.55L37,26.1l0-.17c-.32-1.2-.55-2-.71-2.5h-3.7c-.09.32-.2.71-.32,1.16-.21.81-.35,1.32-.4,1.49l-.08.25-.26,0a13.44,13.44,0,0,0-2.64,1l-.2.09-.17-.13A15.14,15.14,0,0,0,26.23,26c-1.61,1.58-2.34,2.35-2.65,2.71A20.09,20.09,0,0,1,24.89,31l.11.2-.13.18a8.23,8.23,0,0,0-.66,1.29,14,14,0,0,1-.65,1.44l-.09.16-.18,0a8,8,0,0,0-1.29.29l-1,.3v3.76l1.1.31a12.64,12.64,0,0,0,1.36.29l.28,0,0,.28A5.79,5.79,0,0,0,24.18,41c.47,1,.57,1.3.6,1.4l.06.16-.09.15c-.77,1.33-1.09,2-1.22,2.23,1.59,1.62,2.33,2.3,2.67,2.57.23-.12.55-.31,1-.57a5.76,5.76,0,0,1,1.39-.67l.17-.06.15.1c.05,0,.47.23,2.57,1.16l.14.06.06.14a12.46,12.46,0,0,1,.4,1.45,9.34,9.34,0,0,0,.31,1.09Z"/><path class="d" d="M36.58,50.91H31.89l-.1-.22a7.45,7.45,0,0,1-.45-1.45c-.12-.54-.23-.94-.32-1.21-1.54-.68-2.13-1-2.36-1.06a5.3,5.3,0,0,0-1.09.55,13.27,13.27,0,0,1-1.25.71l-.19.08L26,48.2a31.78,31.78,0,0,1-3.12-3l-.15-.16.06-.2A14.37,14.37,0,0,1,24,42.43c-.08-.18-.23-.53-.53-1.19a6.52,6.52,0,0,1-.44-1.34q-.52-.09-1.2-.27c-.65-.19-1.1-.31-1.34-.36l-.3-.06v-5l.28-.06c.21-.05.65-.17,1.29-.36A9.85,9.85,0,0,1,23,33.55c.12-.25.3-.65.53-1.2a9.57,9.57,0,0,1,.61-1.24A13.34,13.34,0,0,0,22.83,29l-.19-.22.16-.24a38.32,38.32,0,0,1,3.11-3.21l.18-.18.24.11a16.53,16.53,0,0,1,2.4,1.37,17.3,17.3,0,0,1,2.43-.95l.34-1.25c.15-.59.29-1.08.41-1.45l.08-.27h4.75l.09.24a27.47,27.47,0,0,1,.78,2.64c.19.08.53.22,1.18.46a6.77,6.77,0,0,1,1.23.59,5,5,0,0,0,1-.53,9.91,9.91,0,0,1,1.29-.72l.17-.08.16.1a8.56,8.56,0,0,1,1.7,1.48,18.57,18.57,0,0,0,1.52,1.46l.24.19L46,28.8c-.58,1.07-1,1.86-1.37,2.38.54,1.55.78,2.22.88,2.5a8.82,8.82,0,0,1,1.29.29c.64.19,1.09.31,1.33.36l.3.06v4.94l-.29.07-1.29.36a11.48,11.48,0,0,1-1.21.29,12.49,12.49,0,0,0-.5,1.21,5.49,5.49,0,0,1-.61,1.24l.58,1a11.26,11.26,0,0,0,.72,1.12l.17.22-.16.22a36.79,36.79,0,0,1-3.08,3.22l-.18.18-.24-.11A19.51,19.51,0,0,1,39.94,47a8.8,8.8,0,0,1-2.4,1,5.67,5.67,0,0,0-.38,1.19,7.93,7.93,0,0,1-.47,1.56l-.11.21Zm-4.21-.75h3.74A9.75,9.75,0,0,0,36.44,49,5.44,5.44,0,0,1,37,47.43l.09-.14.16,0a8.09,8.09,0,0,0,2.53-1l.21-.12.19.13a17.64,17.64,0,0,0,2.24,1.31C44,46,44.73,45.22,45,44.85c-.18-.26-.39-.59-.6-1-.47-.83-.65-1.12-.71-1.21l-.15-.25.2-.21A3.5,3.5,0,0,0,44.41,41a9,9,0,0,1,.65-1.48l.09-.15.17,0a7.77,7.77,0,0,0,1.29-.29l1-.3V35l-1.1-.31a9,9,0,0,0-1.24-.28c-.37.09-.37.08-1.49-3.15l-.06-.18.1-.15c.31-.46.75-1.2,1.3-2.21-.33-.29-.77-.73-1.35-1.33a9.44,9.44,0,0,0-1.38-1.25c-.23.11-.57.31-1,.58a4.94,4.94,0,0,1-1.38.67l-.18.05-.15-.11a4.46,4.46,0,0,0-1.19-.6c-.76-.29-1.21-.47-1.39-.55L37,26.1l0-.17c-.32-1.2-.55-2-.71-2.5h-3.7c-.09.32-.2.71-.32,1.16-.21.81-.35,1.32-.4,1.49l-.08.25-.26,0a13.44,13.44,0,0,0-2.64,1l-.2.09-.17-.13A15.14,15.14,0,0,0,26.23,26c-1.61,1.58-2.34,2.35-2.65,2.71A20.09,20.09,0,0,1,24.89,31l.11.2-.13.18a8.23,8.23,0,0,0-.66,1.29,14,14,0,0,1-.65,1.44l-.09.16-.18,0a8,8,0,0,0-1.29.29l-1,.3v3.76l1.1.31a12.64,12.64,0,0,0,1.36.29l.28,0,0,.28A5.79,5.79,0,0,0,24.18,41c.47,1,.57,1.3.6,1.4l.06.16-.09.15c-.77,1.33-1.09,2-1.22,2.23,1.59,1.62,2.33,2.3,2.67,2.57.23-.12.55-.31,1-.57a5.76,5.76,0,0,1,1.39-.67l.17-.06.15.1c.05,0,.47.23,2.57,1.16l.14.06.06.14a12.46,12.46,0,0,1,.4,1.45,9.34,9.34,0,0,0,.31,1.09Z"/></g></svg>