<svg xmlns="http://www.w3.org/2000/svg" xmlns:xlink="http://www.w3.org/1999/xlink" viewBox="0 0 67.52 66.9"><defs><style>.a,.b,.c{fill:none;}.a,.b{clip-rule:evenodd;}.b{clip-path:url(#a);}.d{clip-path:url(#b);}.e{clip-path:url(#c);}.f{fill:#737276;}</style><clipPath id="a"><polygon class="a" points="0 67.46 68.62 67.46 68.62 0 0 0 0 67.46 0 67.46"/></clipPath><clipPath id="b" transform="translate(-0.82 -0.54)"><polygon class="b" points="0 0 68.62 0 68.62 67.46 0 67.46 0 0 0 0"/></clipPath><clipPath id="c" transform="translate(-0.82 -0.54)"><polygon class="c" points="0 67.46 68.62 67.46 68.62 0 0 0 0 67.46 0 67.46"/></clipPath></defs><g class="d"><g class="e"><path class="f" d="M34.57,7.3a2.13,2.13,0,1,1,2.14-2.13A2.14,2.14,0,0,1,34.57,7.3Zm0-3.55A1.43,1.43,0,1,0,36,5.17a1.42,1.42,0,0,0-1.43-1.42Z" transform="translate(-0.82 -0.54)"/><polygon class="f" points="36.65 12.79 35.93 12.79 35.93 8.8 35.14 8.01 34.66 8.01 33.75 8.91 32.83 8.01 32.36 8.01 31.55 8.8 31.55 12.79 30.84 12.79 30.84 8.51 32.07 7.3 33.13 7.3 33.75 7.91 34.37 7.3 35.43 7.3 36.65 8.51 36.65 12.79 36.65 12.79"/><path class="f" d="M55.81,32.21l-.68-.2a4.76,4.76,0,0,1,4.26-3.33,4.67,4.67,0,0,1,3.87,1.62l-.54.46a4,4,0,0,0-3.3-1.38,4,4,0,0,0-3.61,2.83Z" transform="translate(-0.82 -0.54)"/><polygon class="f" points="55.79 31.42 54.48 33.08 53.69 31.12 55.79 31.42 55.79 31.42"/><path class="f" d="M59.66,38.05a4.7,4.7,0,0,1-3.58-1.63l.54-.46a4,4,0,0,0,6.91-1.45l.68.2A4.76,4.76,0,0,1,60,38Z" transform="translate(-0.82 -0.54)"/><polygon class="f" points="61.91 34.21 63.23 32.55 64.02 34.51 61.91 34.21 61.91 34.21"/><path class="f" d="M9.42,39.08v0h0l-.32-.62L6.81,33.92a4.35,4.35,0,0,1-.39-1.09,4.17,4.17,0,0,1,0-1.76,2.81,2.81,0,0,1,3-2.24,2.81,2.81,0,0,1,3,2.24,4.22,4.22,0,0,1,0,1.77h0A4.65,4.65,0,0,1,12,33.93l-2.6,5.15Zm0-9.55a2.1,2.1,0,0,0-2.28,1.7,3.41,3.41,0,0,0,0,1.46,3.6,3.6,0,0,0,.34.92l2,3.9,2-3.9a3.6,3.6,0,0,0,.34-.92,3.41,3.41,0,0,0,0-1.46,2.1,2.1,0,0,0-2.28-1.7Z" transform="translate(-0.82 -0.54)"/><path class="f" d="M10.53,32.06A1.12,1.12,0,1,1,9.41,31a1.12,1.12,0,0,1,1.12,1.1Z" transform="translate(-0.82 -0.54)"/><path class="f" d="M34.58,54.44c-.38,0-3.61,0-3.61,1.18s3.24,1.18,3.61,1.18a9.5,9.5,0,0,0,2.9-.42V58.1a6.21,6.21,0,0,1-2.87.53,6.16,6.16,0,0,1-2.93-.48v-.91H31v.91c0,1.15,3.27,1.18,3.64,1.18a8,8,0,0,0,2.87-.45v1.44a6.21,6.21,0,0,1-2.87.53,6.12,6.12,0,0,1-2.93-.48v-.91H31v.91c0,1.15,3.27,1.18,3.64,1.18a8,8,0,0,0,2.87-.45v1.6c-.11.18-1.12.52-2.9.52a6,6,0,0,1-2.9-.47V61.64H31v1.11c0,1.12,3,1.18,3.61,1.18s3.6-.06,3.6-1.18V55.61c0-1.14-3.24-1.17-3.6-1.17Zm0,1.65a6.17,6.17,0,0,1-2.86-.47,6.11,6.11,0,0,1,2.86-.48,6.09,6.09,0,0,1,2.85.48,6.29,6.29,0,0,1-2.85.47Z" transform="translate(-0.82 -0.54)"/><path class="f" d="M67.84,30.47a8.63,8.63,0,0,0-4.47-4.91,8.78,8.78,0,0,0-11.65,4.08A8.53,8.53,0,0,0,50.88,33H49.36A14.75,14.75,0,0,0,35.47,19.35V17.49a8.58,8.58,0,0,0,6.85-4.78,8.34,8.34,0,0,0,.34-6.5,8.5,8.5,0,0,0-4.39-4.84,8.64,8.64,0,0,0-11.45,4,8.36,8.36,0,0,0-.35,6.49,8.57,8.57,0,0,0,7.22,5.62v1.85A14.75,14.75,0,0,0,19.78,33.24H18a8.39,8.39,0,0,0-.46-2.12,8.51,8.51,0,0,0-4.39-4.83,8.63,8.63,0,0,0-11.45,4,8.34,8.34,0,0,0-.34,6.5,8.44,8.44,0,0,0,4.39,4.83,8.51,8.51,0,0,0,3.69.83A8.47,8.47,0,0,0,17.92,35h1.87A14.77,14.77,0,0,0,33.63,48.64v1.87a8.6,8.6,0,0,0-6.81,4.78,8.32,8.32,0,0,0-.34,6.49,8.48,8.48,0,0,0,4.4,4.84,8.62,8.62,0,0,0,11.44-4,8.36,8.36,0,0,0,.35-6.49,8.55,8.55,0,0,0-7.26-5.62V48.65a14.75,14.75,0,0,0,14-13.9H51a8.15,8.15,0,0,0,.38,1.51A8.77,8.77,0,0,0,59.58,42a8.74,8.74,0,0,0,7.89-4.93,8.51,8.51,0,0,0,.37-6.62ZM15.88,37a7.19,7.19,0,0,1-9.55,3.35,7,7,0,0,1-3.39-9.45,7.22,7.22,0,0,1,9.56-3.35,7.1,7.1,0,0,1,3.66,4A7,7,0,0,1,15.88,37Zm11.93-25.6A7,7,0,0,1,28.1,6a7.21,7.21,0,0,1,9.55-3.35,7.08,7.08,0,0,1,3.67,4A7,7,0,0,1,41,12.1a7.21,7.21,0,0,1-9.55,3.35,7.08,7.08,0,0,1-3.67-4ZM41.33,56.58A7,7,0,0,1,41,62a7.21,7.21,0,0,1-9.55,3.35,7.08,7.08,0,0,1-3.67-4,7,7,0,0,1,.29-5.42,7.18,7.18,0,0,1,6.48-4,7.21,7.21,0,0,1,6.74,4.73Zm-6.75-9.31A13.28,13.28,0,1,1,48,34,13.36,13.36,0,0,1,34.58,47.27ZM66.2,36.48a7.36,7.36,0,0,1-9.75,3.42,7.25,7.25,0,0,1-3.74-4.12,7.09,7.09,0,0,1,.3-5.53,7.33,7.33,0,0,1,9.74-3.42,7.19,7.19,0,0,1,3.45,9.65Z" transform="translate(-0.82 -0.54)"/><path class="f" d="M43.75,35.31c-.15,0-.44.11-.89.24a8,8,0,0,1-.91.21,5.7,5.7,0,0,0-.41,1,2.59,2.59,0,0,1-.49.9c.06.1.23.37.49.83a7.56,7.56,0,0,0,.5.79A25.53,25.53,0,0,1,40,41.37a12.3,12.3,0,0,1-1.71-1,5.47,5.47,0,0,1-1.8.71,3.39,3.39,0,0,0-.34,1,5.21,5.21,0,0,1-.3,1H33a4.72,4.72,0,0,1-.29-.93,8.38,8.38,0,0,0-.26-.94c-1.15-.5-1.74-.77-1.79-.81a4.69,4.69,0,0,0-.89.43,6.76,6.76,0,0,1-.82.47,22.55,22.55,0,0,1-2.08-2,14.24,14.24,0,0,1,.91-1.69c0-.1-.17-.41-.41-.93a4.13,4.13,0,0,1-.31-1,7.65,7.65,0,0,1-1-.2c-.44-.13-.75-.22-.93-.25V32.3l.89-.25a6.13,6.13,0,0,1,.91-.2c.09-.16.23-.48.43-1a6,6,0,0,1,.47-.91,9.94,9.94,0,0,0-1-1.62,27.62,27.62,0,0,1,2.08-2.13,10.78,10.78,0,0,1,1.71,1,9.53,9.53,0,0,1,1.88-.71c0-.11.13-.44.28-1,.1-.39.19-.72.27-1h2.87c.1.26.29.89.55,1.88l.93.36a3.46,3.46,0,0,1,.87.44,3.33,3.33,0,0,0,.88-.43,7.67,7.67,0,0,1,.83-.46,5.25,5.25,0,0,1,1.1,1,12.94,12.94,0,0,0,1.06,1c-.43.79-.76,1.35-1,1.69a18.36,18.36,0,0,0,.71,1.95,5.94,5.94,0,0,1,1,.21c.44.13.76.21.93.24v2.93Zm-4.14,1.25a5.74,5.74,0,0,0,.72-3.28,5.57,5.57,0,0,0-1.07-2.77A6.08,6.08,0,0,0,37,28.64a6,6,0,0,0-6.54,1,5.46,5.46,0,0,0-1.62,3.11,6.11,6.11,0,0,0,.39,3.49,5.35,5.35,0,0,0,2.4,2.65,5.79,5.79,0,0,0,4.62.39,5.47,5.47,0,0,0,3.4-2.7Z" transform="translate(-0.82 -0.54)"/></g></g></svg>