<?xml version="1.0" encoding="utf-8"?>
<!-- Generator: Adobe Illustrator 22.1.0, SVG Export Plug-In . SVG Version: 6.00 Build 0)  -->
<svg version="1.1" id="Layer_1" xmlns="http://www.w3.org/2000/svg" xmlns:xlink="http://www.w3.org/1999/xlink" x="0px" y="0px"
	 viewBox="0 0 200 200" style="enable-background:new 0 0 200 200;" xml:space="preserve">
<style type="text/css">
	.st0{fill:#F05024;stroke:#F04F23;stroke-width:2.9007;stroke-linecap:round;stroke-linejoin:round;}
	.st1{fill:none;stroke:#FFFFFF;stroke-width:2.9007;stroke-miterlimit:10;}
	
		.st2{opacity:0.3;fill:none;stroke:#FFFFFF;stroke-width:2.9007;stroke-linecap:round;stroke-miterlimit:10;enable-background:new    ;}
</style>
<title>Asset 1</title>
<g id="Layer_2_1_">
	<g id="Layer_1-2">
		<path class="st0" d="M26.7,63.7v72.6c0,3.7,2,7.2,5.2,9l62.8,36.3c3.2,1.9,7.2,1.9,10.4,0l62.9-36.3c3.2-1.9,5.2-5.3,5.2-9V63.7
			c0-3.7-2-7.2-5.2-9l-62.9-36.3c-3.2-1.9-7.2-1.9-10.4,0L31.9,54.7C28.7,56.6,26.7,60,26.7,63.7z"/>
		<path class="st1" d="M106.5,47.3l6.6,9.8c1.7,2.6,4.9,3.9,8,3.4l11.6-2.3c4.2-0.9,8.3,1.9,9.2,6.1c0.2,1,0.2,2.1,0,3.1l-2.3,11.5
			c-0.7,3.1,0.6,6.4,3.3,8.2l9.8,6.5c3.6,2.4,4.6,7.3,2.2,10.9c-0.6,0.9-1.3,1.6-2.2,2.2l-9.8,6.5c-2.6,1.8-4,4.9-3.3,8l2.3,11.6
			c0.9,4.2-1.9,8.3-6.1,9.2c-1,0.2-2.1,0.2-3.1,0l-11.6-2.4c-3.1-0.6-6.2,0.7-8,3.3l-6.5,9.8c-2.4,3.6-7.3,4.6-10.9,2.2
			c-0.9-0.6-1.6-1.3-2.2-2.2l-6.6-9.8c-1.8-2.6-5-4-8.1-3.3l-11.6,2.3c-4.2,0.9-8.3-1.9-9.2-6.1c-0.2-1-0.2-2.1,0-3.1l2.3-11.6
			c0.6-3.1-0.7-6.3-3.3-8l-9.8-6.5c-3.6-2.4-4.6-7.2-2.2-10.8c0.6-0.9,1.3-1.6,2.2-2.2l9.8-6.4c2.7-1.8,4-5,3.3-8.2l-2.3-11.6
			c-0.9-4.2,1.8-8.3,6.1-9.2c1-0.2,2.1-0.2,3.1,0l11.6,2.4c3.1,0.6,6.3-0.7,8.1-3.3l6.5-9.8c2.4-3.6,7.2-4.6,10.8-2.2
			C105.2,45.7,105.9,46.4,106.5,47.3z"/>
		<circle class="st1" cx="100" cy="100" r="15.6"/>
		<path class="st2" d="M100,118.2c-10.1,0-18.2-8.2-18.2-18.2c0-10.1,8.2-18.2,18.2-18.2"/>
		<circle class="st1" cx="100" cy="100" r="31.3"/>
		<path class="st2" d="M100,71.4c15.8,0,28.6,12.8,28.6,28.6s-12.8,28.6-28.6,28.6"/>
	</g>
</g>
</svg>
