<svg id="Layer_1" data-name="Layer 1" xmlns="http://www.w3.org/2000/svg" xmlns:xlink="http://www.w3.org/1999/xlink" viewBox="0 0 385 321.76"><defs><style>.cls-1,.cls-11,.cls-18,.cls-19,.cls-2,.cls-20,.cls-21{fill:none;}.cls-1,.cls-14,.cls-18,.cls-19,.cls-21{stroke:#495565;}.cls-1,.cls-14,.cls-18,.cls-19,.cls-2,.cls-21{stroke-miterlimit:10;}.cls-1,.cls-18,.cls-19,.cls-20,.cls-21{stroke-width:0.76px;}.cls-2{stroke:#f05025;stroke-dasharray:1 3;}.cls-3{fill:#f05025;}.cls-4{fill:#fff;}.cls-5{fill:#ef5226;}.cls-6{opacity:0.3;}.cls-15,.cls-16,.cls-19,.cls-21,.cls-7{opacity:0.15;}.cls-15,.cls-19,.cls-21,.cls-7,.cls-9{isolation:isolate;}.cls-14,.cls-8{fill:#4a5565;}.cls-9{opacity:0.35;}.cls-10{opacity:0.15;}.cls-11{stroke:#cccbca;stroke-width:0.82px;}.cls-11,.cls-18,.cls-20,.cls-21{stroke-linecap:round;}.cls-11,.cls-20{stroke-linejoin:round;}.cls-12{fill:#cccbca;}.cls-13{fill:#696667;}.cls-14{stroke-width:0.53px;}.cls-15,.cls-17{fill:#495565;}.cls-20{stroke:#999;}.cls-22{fill:url(#linear-gradient);}.cls-23{fill:url(#linear-gradient-2);}</style><linearGradient id="linear-gradient" x1="22.98" y1="141.86" x2="56.23" y2="172.86" gradientUnits="userSpaceOnUse"><stop offset="0" stop-color="#9ccb55"/><stop offset="1" stop-color="#689a41"/></linearGradient><linearGradient id="linear-gradient-2" x1="34.04" y1="153.53" x2="44.72" y2="162.29" gradientUnits="userSpaceOnUse"><stop offset="0" stop-color="#fbd540"/><stop offset="1" stop-color="#f7bd40"/></linearGradient></defs><title>vmware-load-balancing-architecture-inegration-with0avi-vantage</title><polyline class="cls-1" points="38.92 197.11 38.92 305.11 364.42 305.11"/><line class="cls-2" x1="58.64" y1="158.24" x2="215.73" y2="158.24"/><polygon class="cls-3" points="213.95 160.85 223.7 158.24 213.95 155.62 213.95 160.85"/><line class="cls-2" x1="67.24" y1="147.87" x2="225.59" y2="147.87"/><polygon class="cls-3" points="69.02 150.48 59.27 147.87 69.02 145.25 69.02 150.48"/><line class="cls-2" x1="66.61" y1="168.6" x2="224.73" y2="168.6"/><polygon class="cls-3" points="68.39 171.22 58.64 168.6 68.39 165.99 68.39 171.22"/><rect class="cls-4" x="105.22" y="154.42" width="75.41" height="18.32"/><rect class="cls-4" x="107.09" y="141.59" width="71.29" height="9.16"/><path class="cls-5" d="M226.82,148.21v20.25a6.87,6.87,0,0,0,3.43,5.94l17.54,10.12a6.82,6.82,0,0,0,6.85,0l17.54-10.12a6.86,6.86,0,0,0,3.42-5.94V148.21a6.83,6.83,0,0,0-3.42-5.93l-17.54-10.13a6.82,6.82,0,0,0-6.85,0l-17.54,10.13A6.84,6.84,0,0,0,226.82,148.21Z"/><path class="cls-3" d="M251.21,186.44a4,4,0,0,1-2-.52l-20.93-12.08a4,4,0,0,1-2-3.42V146.25a4,4,0,0,1,2-3.42l20.93-12.08a4,4,0,0,1,3.95,0l20.92,12.08a4,4,0,0,1,2,3.42v24.17a4,4,0,0,1-2,3.42l-20.92,12.08A4,4,0,0,1,251.21,186.44Zm0-55.25a3,3,0,0,0-1.49.4L228.8,143.67a3,3,0,0,0-1.5,2.58v24.17a3,3,0,0,0,1.5,2.58l20.92,12.08a3,3,0,0,0,3,0L273.63,173a3,3,0,0,0,1.49-2.58V146.25a3,3,0,0,0-1.49-2.58L252.7,131.59A2.92,2.92,0,0,0,251.21,131.19Z"/><path class="cls-4" d="M251.21,177.52h0a3.08,3.08,0,0,1-2.57-1.38l-2.17-3.27a2.1,2.1,0,0,0-2.18-.9l-3.85.77a3.09,3.09,0,0,1-3.64-3.63l.78-3.85a2.1,2.1,0,0,0-.9-2.18l-3.28-2.18a3.09,3.09,0,0,1,0-5.13l3.28-2.18a2.1,2.1,0,0,0,.9-2.18l-.78-3.85a3.09,3.09,0,0,1,3.64-3.63l3.85.77a2.09,2.09,0,0,0,2.18-.9l2.17-3.27a3.08,3.08,0,0,1,2.57-1.38h0a3.05,3.05,0,0,1,2.57,1.38L256,143.8a2.1,2.1,0,0,0,2.19.9l3.85-.77a3.08,3.08,0,0,1,3.63,3.63l-.78,3.85a2.11,2.11,0,0,0,.91,2.18l3.27,2.18a3.07,3.07,0,0,1,0,5.13l-3.27,2.18a2.11,2.11,0,0,0-.91,2.18l.78,3.85a3.08,3.08,0,0,1-3.63,3.63l-3.85-.77a2.12,2.12,0,0,0-2.19.9l-2.17,3.27A3.05,3.05,0,0,1,251.21,177.52Zm-6.5-6.56a3.05,3.05,0,0,1,2.56,1.38l2.18,3.27a2.09,2.09,0,0,0,1.76.95h0a2.11,2.11,0,0,0,1.77-.95l2.17-3.27a3.08,3.08,0,0,1,3.18-1.32l3.85.78a2.12,2.12,0,0,0,2.5-2.5l-.78-3.85a3.09,3.09,0,0,1,1.31-3.18l3.28-2.17a2.13,2.13,0,0,0,0-3.53l-3.28-2.17a3.09,3.09,0,0,1-1.31-3.18l.78-3.85a2.12,2.12,0,0,0-2.5-2.5l-3.85.78a3.07,3.07,0,0,1-3.18-1.32L253,141.06a2.11,2.11,0,0,0-1.77-.95h0a2.09,2.09,0,0,0-1.76.95l-2.18,3.27a3.06,3.06,0,0,1-3.17,1.32l-3.86-.78a2.12,2.12,0,0,0-2.49,2.5l.78,3.85a3.08,3.08,0,0,1-1.32,3.18l-3.27,2.17a2.11,2.11,0,0,0,0,3.53l3.27,2.17a3.08,3.08,0,0,1,1.32,3.18l-.78,3.85a2.12,2.12,0,0,0,2.49,2.5l3.86-.78A3.15,3.15,0,0,1,244.71,171Z"/><path class="cls-4" d="M251.21,164a5.69,5.69,0,1,1,5.69-5.68A5.69,5.69,0,0,1,251.21,164Zm0-10.4a4.72,4.72,0,1,0,4.72,4.72A4.72,4.72,0,0,0,251.21,153.62Z"/><g class="cls-6"><path class="cls-4" d="M251.21,164.89a6.55,6.55,0,0,1,0-13.1.47.47,0,0,1,.48.48.48.48,0,0,1-.48.48,5.59,5.59,0,0,0,0,11.17.49.49,0,0,1,0,1Z"/></g><path class="cls-4" d="M251.21,169.22a10.89,10.89,0,1,1,10.89-10.88A10.89,10.89,0,0,1,251.21,169.22Zm0-20.8a9.92,9.92,0,1,0,9.92,9.92A9.93,9.93,0,0,0,251.21,148.42Z"/><g class="cls-6"><path class="cls-4" d="M251.21,168.35a.48.48,0,0,1,0-1,9.06,9.06,0,1,0,0-18.11.48.48,0,0,1,0-1,10,10,0,1,1,0,20Z"/></g><g class="cls-7"><polygon class="cls-8" points="275.25 61.6 226.64 61.6 223.97 58.93 277.92 58.93 275.25 61.6"/></g><g class="cls-7"><path class="cls-8" d="M278.45,26.35l-2.13-2.13H226.11L224,26.35v2.14h54.48V26.35Z"/></g><g class="cls-9"><rect class="cls-8" x="223.97" y="27.69" width="53.94" height="2.67"/></g><path class="cls-5" d="M243.76,41.73v5a3.1,3.1,0,0,0,1.55,2.68l4.3,2.48a3.07,3.07,0,0,0,3.1,0l4.3-2.48a3.1,3.1,0,0,0,1.55-2.68v-5A3.08,3.08,0,0,0,257,39.05l-4.3-2.49a3.12,3.12,0,0,0-3.1,0l-4.3,2.49A3.08,3.08,0,0,0,243.76,41.73Z"/><path class="cls-3" d="M251.16,53a2.7,2.7,0,0,1-1.34-.36l-5.26-3a2.68,2.68,0,0,1-1.34-2.31V41.17a2.69,2.69,0,0,1,1.34-2.31l5.26-3a2.7,2.7,0,0,1,2.67,0l5.27,3a2.68,2.68,0,0,1,1.33,2.31v6.08a2.67,2.67,0,0,1-1.33,2.31l-5.27,3A2.63,2.63,0,0,1,251.16,53Zm0-16.43a1.51,1.51,0,0,0-.8.22l-5.27,3a1.6,1.6,0,0,0-.8,1.38v6.08a1.63,1.63,0,0,0,.8,1.39l5.27,3a1.63,1.63,0,0,0,1.6,0l5.26-3a1.61,1.61,0,0,0,.81-1.39V41.17a1.59,1.59,0,0,0-.81-1.38l-5.26-3A1.53,1.53,0,0,0,251.16,36.53Z"/><path class="cls-8" d="M265.63,72.82H236.79a.54.54,0,0,1,0-1.07h28.84a.54.54,0,1,1,0,1.07Z"/><rect class="cls-8" x="225.04" y="27.42" width="52.34" height="1.07"/><rect class="cls-8" x="250.14" y="25.82" width="2.14" height="1.07"/><rect class="cls-8" x="225.04" y="58.4" width="52.34" height="1.07"/><g class="cls-7"><path class="cls-8" d="M257.68,62.6h-3.63V61.53h3.63Zm-9.08,0H245V61.53h3.63Z"/></g><path class="cls-8" d="M238,72.82V71.75c6.07,0,6.14-10.15,6.14-10.25h1.07C245.23,62,245.15,72.82,238,72.82Z"/><path class="cls-8" d="M264.4,72.82c-7.12,0-7.21-10.86-7.21-11.32h1.07c0,.1.08,10.25,6.14,10.25Z"/><path class="cls-8" d="M251.21,64.7a3.17,3.17,0,0,1-3.2-3.2h1.07a2.14,2.14,0,0,0,4.27,0h1.07A3.17,3.17,0,0,1,251.21,64.7Z"/><path class="cls-4" d="M253.88,46.92a.52.52,0,0,1-.47-.3l-2.2-4.38L249,46.62a.53.53,0,0,1-.72.24.54.54,0,0,1-.24-.72l2.67-5.34a.56.56,0,0,1,1,0l2.67,5.34a.53.53,0,0,1-.24.72A.5.5,0,0,1,253.88,46.92Z"/><path class="cls-8" d="M275.68,61.6H226.63L224,59V26.34l2.12-2.12h50.24l2.12,2.12V58.9Zm-48.61-1.06h48.18l2.13-2.09V26.78l-1.49-1.49H226.54L225,26.78V58.51Z"/><polygon class="cls-8" points="264.56 73.36 237.86 73.36 236.79 72.29 265.63 72.29 264.56 73.36"/><path class="cls-3" d="M226.64,28.76a.53.53,0,0,0-.53.53.54.54,0,1,0,1.07,0,.54.54,0,0,0-.54-.53Z"/><path class="cls-3" d="M228.25,28.76a.54.54,0,0,0-.54.53.54.54,0,1,0,1.07,0,.53.53,0,0,0-.53-.53Z"/><path class="cls-3" d="M229.85,28.76a.54.54,0,0,0-.54.53.54.54,0,1,0,1.07,0,.53.53,0,0,0-.53-.53Z"/><g class="cls-7"><rect class="cls-8" x="225.2" y="30.28" width="52.88" height="1.07"/></g><g class="cls-7"><path class="cls-8" d="M276.21,41.23a.53.53,0,0,1-.53-.53V30.55H241a.54.54,0,0,1,0-1.07h35.25a.54.54,0,0,1,.54.54V40.7A.54.54,0,0,1,276.21,41.23Z"/></g><g class="cls-7"><path class="cls-8" d="M238.82,30.55h-1.6a.54.54,0,0,1,0-1.07h1.6a.54.54,0,1,1,0,1.07Z"/></g><g class="cls-7"><path class="cls-8" d="M276.21,42.84a.55.55,0,0,1-.5-.34.64.64,0,0,1,0-.2.69.69,0,0,1,0-.2.57.57,0,0,1,.12-.18.54.54,0,0,1,.59-.11.62.62,0,0,1,.17.11.57.57,0,0,1,.12.18.69.69,0,0,1,0,.2.64.64,0,0,1,0,.2.57.57,0,0,1-.12.18.45.45,0,0,1-.17.11A.54.54,0,0,1,276.21,42.84Z"/></g><g class="cls-10"><path class="cls-8" d="M251.16,54a2.7,2.7,0,0,1-1.34-.36l-5.26-3a.53.53,0,1,1,.53-.92l5.27,3a1.63,1.63,0,0,0,1.6,0l5.26-3a.53.53,0,1,1,.54.92l-5.27,3A2.63,2.63,0,0,1,251.16,54Z"/></g><path class="cls-8" d="M213.05,16.67l-.42-1.36h-2.08l-.41,1.36h-1.31l2-5.73h1.48l2,5.73Zm-.71-2.37c-.38-1.23-.59-1.93-.64-2.09s-.09-.29-.11-.39c-.08.34-.33,1.16-.74,2.48Z"/><path class="cls-8" d="M218.41,11h1.22l-1.94,5.71h-1.32L214.43,11h1.22l1.08,3.4c.06.2.12.43.18.7a4.14,4.14,0,0,1,.12.56,10.08,10.08,0,0,1,.3-1.26Z"/><path class="cls-8" d="M220.43,16.67V11h1.21v5.71Z"/><path class="cls-8" d="M228.81,16.67l-.41-1.36h-2.08l-.42,1.36h-1.3l2-5.73h1.48l2,5.73Zm-.7-2.37-.65-2.09a3.76,3.76,0,0,1-.1-.39c-.09.34-.33,1.16-.74,2.48Z"/><path class="cls-8" d="M235.65,13.76a2.79,2.79,0,0,1-.8,2.16,3.27,3.27,0,0,1-2.32.75h-1.61V11h1.79a3,3,0,0,1,2.17.74A2.69,2.69,0,0,1,235.65,13.76Zm-1.25,0c0-1.22-.55-1.84-1.63-1.84h-.64v3.72h.52C233.81,15.67,234.4,15.05,234.4,13.79Z"/><path class="cls-8" d="M239.33,16.67,238,12.19h0c.05.91.08,1.52.08,1.83v2.65h-1.08V11h1.65l1.35,4.37h0L241.37,11H243v5.71h-1.13V14c0-.13,0-.28,0-.44s0-.61,0-1.33h0l-1.48,4.47Z"/><path class="cls-8" d="M244.54,16.67V11h1.21v5.71Z"/><path class="cls-8" d="M252.33,16.67H250.8l-2.49-4.32h0c.05.76.07,1.31.07,1.63v2.69h-1.08V11h1.53l2.48,4.28h0c0-.74-.05-1.27-.05-1.58V11h1.08Z"/><path class="cls-8" d="M258.44,11.89a1.23,1.23,0,0,0-1.06.51,2.38,2.38,0,0,0-.38,1.43c0,1.28.48,1.91,1.44,1.91a4.51,4.51,0,0,0,1.45-.3v1a4.14,4.14,0,0,1-1.57.29,2.37,2.37,0,0,1-1.9-.76,3.18,3.18,0,0,1-.66-2.17,3.51,3.51,0,0,1,.32-1.56,2.36,2.36,0,0,1,.93-1,2.76,2.76,0,0,1,1.43-.36,3.82,3.82,0,0,1,1.67.4l-.39,1a6,6,0,0,0-.65-.27A1.78,1.78,0,0,0,258.44,11.89Z"/><path class="cls-8" d="M266.37,13.81a3.11,3.11,0,0,1-.7,2.18,3.05,3.05,0,0,1-4,0,3.12,3.12,0,0,1-.71-2.19,3.08,3.08,0,0,1,.71-2.18,2.63,2.63,0,0,1,2-.75,2.57,2.57,0,0,1,2,.76A3.07,3.07,0,0,1,266.37,13.81Zm-4.17,0a2.32,2.32,0,0,0,.37,1.44,1.26,1.26,0,0,0,1.08.48c1,0,1.45-.64,1.45-1.92s-.48-1.93-1.44-1.93a1.28,1.28,0,0,0-1.09.49A2.38,2.38,0,0,0,262.2,13.81Z"/><path class="cls-8" d="M272.7,16.67h-1.54l-2.48-4.32h0c.05.76.08,1.31.08,1.63v2.69h-1.09V11h1.53l2.48,4.28h0c0-.74-.06-1.27-.06-1.58V11h1.09Z"/><path class="cls-8" d="M277.59,15.09A1.46,1.46,0,0,1,277,16.3a2.39,2.39,0,0,1-1.55.45,3.63,3.63,0,0,1-1.61-.34V15.28a6.44,6.44,0,0,0,1,.36,2.88,2.88,0,0,0,.73.11,1.06,1.06,0,0,0,.61-.15.54.54,0,0,0,.21-.46.48.48,0,0,0-.09-.29,1,1,0,0,0-.28-.26,5.61,5.61,0,0,0-.74-.38,3.22,3.22,0,0,1-.78-.48,1.61,1.61,0,0,1-.42-.52,1.58,1.58,0,0,1-.16-.71,1.49,1.49,0,0,1,.52-1.19,2.11,2.11,0,0,1,1.42-.43,3.41,3.41,0,0,1,.85.1,5.33,5.33,0,0,1,.84.3l-.39.94a6.22,6.22,0,0,0-.75-.26,2.44,2.44,0,0,0-.59-.07.76.76,0,0,0-.53.16.51.51,0,0,0-.18.41.49.49,0,0,0,.07.28.76.76,0,0,0,.24.23,6.69,6.69,0,0,0,.77.41,3,3,0,0,1,1.09.76A1.5,1.5,0,0,1,277.59,15.09Z"/><path class="cls-8" d="M283.89,13.81a3.15,3.15,0,0,1-.7,2.18,3.06,3.06,0,0,1-4,0,3.16,3.16,0,0,1-.7-2.19,3.08,3.08,0,0,1,.71-2.18,2.63,2.63,0,0,1,2-.75,2.57,2.57,0,0,1,2,.76A3.07,3.07,0,0,1,283.89,13.81Zm-4.17,0a2.39,2.39,0,0,0,.36,1.44,1.3,1.3,0,0,0,1.09.48c1,0,1.45-.64,1.45-1.92s-.48-1.93-1.44-1.93a1.26,1.26,0,0,0-1.09.49A2.32,2.32,0,0,0,279.72,13.81Z"/><path class="cls-8" d="M285.15,16.67V11h1.21v4.71h2.32v1Z"/><path class="cls-8" d="M293,16.67h-3.29V11H293v1H291v1.26h1.94v1H291v1.47H293Z"/><path class="cls-8" d="M111.12,160.29l-.41-1.36h-2.08l-.42,1.36h-1.3l2-5.73h1.48l2,5.73Zm-.7-2.37-.65-2.09c0-.16-.08-.29-.1-.38-.09.33-.33,1.15-.74,2.47Z"/><path class="cls-8" d="M117.88,154.58v3.7a2.14,2.14,0,0,1-.29,1.11,1.83,1.83,0,0,1-.82.73,2.86,2.86,0,0,1-1.26.25,2.43,2.43,0,0,1-1.71-.56,2,2,0,0,1-.61-1.55v-3.68h1.21v3.5a1.46,1.46,0,0,0,.26,1,1.13,1.13,0,0,0,.88.31,1.1,1.1,0,0,0,.86-.31,1.49,1.49,0,0,0,.27-1v-3.49Z"/><path class="cls-8" d="M121.56,160.29h-1.21v-4.7H118.8v-1h4.31v1h-1.55Z"/><path class="cls-8" d="M129.25,157.43a3.09,3.09,0,0,1-.7,2.18,3.05,3.05,0,0,1-4,0,3.12,3.12,0,0,1-.71-2.19,3,3,0,0,1,.71-2.17,3.05,3.05,0,0,1,4,0A3.09,3.09,0,0,1,129.25,157.43Zm-4.17,0a2.32,2.32,0,0,0,.37,1.44,1.25,1.25,0,0,0,1.08.49c1,0,1.45-.65,1.45-1.93s-.48-1.93-1.44-1.93a1.26,1.26,0,0,0-1.09.49A2.38,2.38,0,0,0,125.08,157.43Z"/><path class="cls-8" d="M136.62,156.36a1.72,1.72,0,0,1-.58,1.41,2.43,2.43,0,0,1-1.64.49h-.52v2h-1.21v-5.71h1.83a2.42,2.42,0,0,1,1.58.45A1.63,1.63,0,0,1,136.62,156.36Zm-2.74.91h.4a1.34,1.34,0,0,0,.84-.22.78.78,0,0,0,.27-.64.76.76,0,0,0-.23-.63,1.06,1.06,0,0,0-.73-.2h-.55Z"/><path class="cls-8" d="M137.78,160.29v-5.71H139v4.71h2.31v1Z"/><path class="cls-8" d="M145.87,160.29l-.41-1.36h-2.08l-.42,1.36h-1.3l2-5.73h1.48l2,5.73Zm-.7-2.37-.65-2.09c-.05-.16-.08-.29-.1-.38-.09.33-.33,1.15-.74,2.47Z"/><path class="cls-8" d="M150.4,155.51a1.23,1.23,0,0,0-1.06.51,2.4,2.4,0,0,0-.37,1.43c0,1.28.47,1.91,1.43,1.91a4.56,4.56,0,0,0,1.46-.3v1a4.14,4.14,0,0,1-1.57.29,2.41,2.41,0,0,1-1.91-.75,3.22,3.22,0,0,1-.66-2.17,3.59,3.59,0,0,1,.32-1.56,2.35,2.35,0,0,1,.94-1,2.72,2.72,0,0,1,1.42-.36,3.79,3.79,0,0,1,1.67.4l-.39,1c-.21-.1-.43-.19-.64-.27A2.1,2.1,0,0,0,150.4,155.51Z"/><path class="cls-8" d="M156.44,160.29h-3.29v-5.71h3.29v1h-2.08v1.25h1.94v1h-1.94v1.47h2.08Z"/><path class="cls-8" d="M160.13,160.29l-1.37-4.48h0c.05.91.07,1.52.07,1.83v2.65h-1.08v-5.71h1.65l1.35,4.37h0l1.43-4.37h1.65v5.71h-1.13v-3.14c0-.17,0-.61.06-1.33h0l-1.47,4.47Z"/><path class="cls-8" d="M168.62,160.29h-3.28v-5.71h3.28v1h-2.07v1.25h1.93v1h-1.93v1.47h2.07Z"/><path class="cls-8" d="M175,160.29h-1.54L170.94,156h0c0,.77.08,1.31.08,1.64v2.68H169.9v-5.71h1.52l2.48,4.28h0c0-.74-.06-1.27-.06-1.57v-2.71H175Z"/><path class="cls-8" d="M178.68,160.29h-1.21v-4.7h-1.55v-1h4.31v1h-1.55Z"/><path class="cls-8" d="M112.83,149.77l-.42-1.36h-2.08l-.41,1.36h-1.31l2-5.74h1.48l2,5.74Zm-.71-2.38c-.38-1.23-.59-1.93-.64-2.09s-.09-.29-.11-.38c-.08.33-.33,1.16-.73,2.47Z"/><path class="cls-8" d="M119.58,144.06v3.69a2.23,2.23,0,0,1-.28,1.11,1.88,1.88,0,0,1-.82.73,2.94,2.94,0,0,1-1.27.25,2.42,2.42,0,0,1-1.71-.56,2,2,0,0,1-.61-1.54v-3.68h1.21v3.49a1.52,1.52,0,0,0,.26,1,1.1,1.1,0,0,0,.88.31,1,1,0,0,0,.86-.31,1.47,1.47,0,0,0,.27-1v-3.48Z"/><path class="cls-8" d="M123.26,149.77h-1.21v-4.71H120.5v-1h4.31v1h-1.55Z"/><path class="cls-8" d="M131,146.9a3.07,3.07,0,0,1-.7,2.18,3.05,3.05,0,0,1-4,0,3.74,3.74,0,0,1,0-4.36,3.1,3.1,0,0,1,4,0A3.15,3.15,0,0,1,131,146.9Zm-4.16,0a2.39,2.39,0,0,0,.36,1.44,1.25,1.25,0,0,0,1.08.49c1,0,1.45-.64,1.45-1.93s-.48-1.93-1.44-1.93a1.3,1.3,0,0,0-1.09.49A2.41,2.41,0,0,0,126.79,146.9Z"/><path class="cls-8" d="M139.11,146.86a2.79,2.79,0,0,1-.8,2.16,3.27,3.27,0,0,1-2.32.75h-1.61v-5.71h1.79a3,3,0,0,1,2.17.73A2.72,2.72,0,0,1,139.11,146.86Zm-1.25,0c0-1.23-.55-1.84-1.63-1.84h-.64v3.72h.52C137.27,148.77,137.86,148.14,137.86,146.89Z"/><path class="cls-8" d="M140.38,149.77v-5.71h1.21v5.71Z"/><path class="cls-8" d="M146.48,148.18a1.48,1.48,0,0,1-.56,1.22,2.4,2.4,0,0,1-1.55.44,3.64,3.64,0,0,1-1.62-.34v-1.12a7.32,7.32,0,0,0,1,.36,2.89,2.89,0,0,0,.73.1,1.09,1.09,0,0,0,.62-.15.52.52,0,0,0,.21-.45.53.53,0,0,0-.09-.3,1.16,1.16,0,0,0-.28-.25,7.83,7.83,0,0,0-.74-.39,3.56,3.56,0,0,1-.79-.47,1.76,1.76,0,0,1-.41-.53,1.42,1.42,0,0,1-.16-.7,1.47,1.47,0,0,1,.51-1.19,2.15,2.15,0,0,1,1.42-.44,3.35,3.35,0,0,1,.85.11,5.81,5.81,0,0,1,.85.3l-.39.94a5.29,5.29,0,0,0-.76-.26,2.39,2.39,0,0,0-.59-.08.81.81,0,0,0-.52.16.52.52,0,0,0-.19.42.51.51,0,0,0,.08.28.84.84,0,0,0,.23.23,8.56,8.56,0,0,0,.77.4,2.93,2.93,0,0,1,1.1.77A1.47,1.47,0,0,1,146.48,148.18Z"/><path class="cls-8" d="M150,145a1.22,1.22,0,0,0-1.06.52,2.36,2.36,0,0,0-.38,1.43c0,1.27.48,1.91,1.44,1.91a4.51,4.51,0,0,0,1.45-.3v1a3.92,3.92,0,0,1-1.57.29,2.39,2.39,0,0,1-1.9-.75,3.22,3.22,0,0,1-.66-2.17,3.62,3.62,0,0,1,.32-1.56,2.39,2.39,0,0,1,.93-1A2.76,2.76,0,0,1,150,144a3.84,3.84,0,0,1,1.67.41l-.39,1c-.21-.1-.43-.19-.65-.27A2,2,0,0,0,150,145Z"/><path class="cls-8" d="M158,146.9a3.07,3.07,0,0,1-.7,2.18,3.05,3.05,0,0,1-4,0,3.74,3.74,0,0,1,0-4.36,3.1,3.1,0,0,1,4,0A3.15,3.15,0,0,1,158,146.9Zm-4.16,0a2.39,2.39,0,0,0,.36,1.44,1.25,1.25,0,0,0,1.08.49c1,0,1.45-.64,1.45-1.93s-.48-1.93-1.44-1.93a1.3,1.3,0,0,0-1.09.49A2.41,2.41,0,0,0,153.79,146.9Z"/><path class="cls-8" d="M162.47,144.06h1.23l-1.94,5.71h-1.32l-1.94-5.71h1.22l1.07,3.39c.06.2.13.44.19.71s.1.45.12.55a11.55,11.55,0,0,1,.29-1.26Z"/><path class="cls-8" d="M167.78,149.77H164.5v-5.71h3.28v1h-2.07v1.25h1.93v1h-1.93v1.48h2.07Z"/><path class="cls-8" d="M170.27,147.58v2.19h-1.21v-5.71h1.66a2.85,2.85,0,0,1,1.72.42,1.49,1.49,0,0,1,.56,1.29,1.47,1.47,0,0,1-.28.89,1.81,1.81,0,0,1-.78.62l1.68,2.49h-1.35l-1.36-2.19Zm0-1h.39a1.51,1.51,0,0,0,.85-.19.69.69,0,0,0,.27-.6.62.62,0,0,0-.28-.58,1.78,1.78,0,0,0-.87-.17h-.36Z"/><path class="cls-8" d="M176.19,146.41l1.2-2.35h1.3l-1.89,3.48v2.23h-1.21v-2.19l-1.89-3.52H175Z"/><path class="cls-8" d="M29,180.34h1.22l-1.94,5.71H26.92L25,180.34h1.22l1.07,3.4c.06.2.12.43.19.7s.1.45.12.55a9.14,9.14,0,0,1,.29-1.25Z"/><path class="cls-8" d="M33.4,186.05,32,181.57h0c.05.91.08,1.52.08,1.82v2.66H31v-5.71h1.65L34,184.7h0l1.43-4.36h1.65v5.71H36v-2.7c0-.13,0-.28,0-.45s0-.61.05-1.32h0l-1.47,4.47Z"/><path class="cls-8" d="M42.1,186.05l-.33-1.53-.46-1.93h0l-.8,3.46H39.21L38,181.68h1.18l.51,1.93q.12.52.24,1.44h0a7.66,7.66,0,0,1,.13-.94l.07-.34.54-2.09H42l.51,2.09,0,.26q0,.16.06.36l.06.37a1.89,1.89,0,0,1,0,.29h0c0-.19.07-.45.13-.77s.1-.55.13-.67l.52-1.93h1.17l-1.26,4.37Z"/><path class="cls-8" d="M48.21,186.05l-.23-.6h0a1.66,1.66,0,0,1-.62.53,2,2,0,0,1-.83.15,1.34,1.34,0,0,1-1-.36,1.39,1.39,0,0,1-.36-1,1.14,1.14,0,0,1,.49-1,2.85,2.85,0,0,1,1.46-.37l.76,0v-.19a.6.6,0,0,0-.68-.67,3.11,3.11,0,0,0-1.23.32l-.39-.8a3.46,3.46,0,0,1,1.67-.4,2.13,2.13,0,0,1,1.35.38,1.44,1.44,0,0,1,.47,1.17v2.91Zm-.35-2-.46,0a1.43,1.43,0,0,0-.77.19.59.59,0,0,0-.26.52c0,.34.2.51.58.51a.89.89,0,0,0,.66-.24.83.83,0,0,0,.25-.64Z"/><path class="cls-8" d="M52.79,181.6a2.25,2.25,0,0,1,.4,0l-.09,1.12a1.61,1.61,0,0,0-.35,0,1.24,1.24,0,0,0-.89.3,1,1,0,0,0-.32.82v2.22H50.35v-4.37h.9l.18.74h.06a1.59,1.59,0,0,1,.55-.6A1.34,1.34,0,0,1,52.79,181.6Z"/><path class="cls-8" d="M56,186.13a2.27,2.27,0,0,1-1.65-.59,2.19,2.19,0,0,1-.59-1.64,2.4,2.4,0,0,1,.55-1.7,1.94,1.94,0,0,1,1.52-.6,1.91,1.91,0,0,1,1.44.53,2,2,0,0,1,.51,1.45v.58H55a1.11,1.11,0,0,0,.3.79,1,1,0,0,0,.79.29,3.5,3.5,0,0,0,.74-.08,4.11,4.11,0,0,0,.74-.26v.92a2.94,2.94,0,0,1-.67.23A4.3,4.3,0,0,1,56,186.13Zm-.17-3.68a.75.75,0,0,0-.59.24,1.11,1.11,0,0,0-.25.68h1.68a1,1,0,0,0-.23-.68A.79.79,0,0,0,55.87,182.45Z"/><path class="cls-8" d="M27.27,195.05l-1.67-4.37h1.25l.84,2.49a3.8,3.8,0,0,1,.18.89h0a4,4,0,0,1,.18-.89l.84-2.49h1.24l-1.66,4.37Z"/><path class="cls-8" d="M33.38,190.26a1.22,1.22,0,0,0-1.06.52,2.38,2.38,0,0,0-.37,1.43c0,1.27.47,1.91,1.43,1.91a4.56,4.56,0,0,0,1.46-.3v1a4,4,0,0,1-1.57.3,2.42,2.42,0,0,1-1.91-.76,3.2,3.2,0,0,1-.66-2.17,3.65,3.65,0,0,1,.32-1.56,2.35,2.35,0,0,1,.94-1,2.7,2.7,0,0,1,1.42-.35,3.82,3.82,0,0,1,1.67.4l-.39,1a5.73,5.73,0,0,0-.64-.26A1.85,1.85,0,0,0,33.38,190.26Z"/><path class="cls-8" d="M38,195.13a2.22,2.22,0,0,1-1.64-.59,2.16,2.16,0,0,1-.6-1.64,2.4,2.4,0,0,1,.55-1.7,2,2,0,0,1,1.52-.6,1.88,1.88,0,0,1,1.44.53,2,2,0,0,1,.51,1.45v.58H37a1.11,1.11,0,0,0,.3.79,1,1,0,0,0,.79.29,3.5,3.5,0,0,0,.74-.08,4.11,4.11,0,0,0,.74-.26v.92a2.94,2.94,0,0,1-.67.23A4.3,4.3,0,0,1,38,195.13Zm-.16-3.68a.77.77,0,0,0-.6.24,1.11,1.11,0,0,0-.24.68h1.67a1,1,0,0,0-.23-.68A.78.78,0,0,0,37.85,191.45Z"/><path class="cls-8" d="M44.88,195.05h-1.2V192.5a1.24,1.24,0,0,0-.16-.71.62.62,0,0,0-.54-.24.79.79,0,0,0-.72.34A2,2,0,0,0,42,193v2.06h-1.2v-4.37h.91l.16.56H42a1.29,1.29,0,0,1,.55-.48,1.83,1.83,0,0,1,.79-.16,1.55,1.55,0,0,1,1.16.41,1.68,1.68,0,0,1,.4,1.19Z"/><path class="cls-8" d="M48,194.18a2.62,2.62,0,0,0,.75-.14v.89a2.72,2.72,0,0,1-1.09.2,1.32,1.32,0,0,1-1-.36,1.6,1.6,0,0,1-.33-1.09v-2.1h-.57v-.51l.66-.4.34-.92h.76v.93h1.22v.9H47.5v2.1a.49.49,0,0,0,.14.38A.58.58,0,0,0,48,194.18Z"/><path class="cls-8" d="M51.71,195.13a2.27,2.27,0,0,1-1.65-.59,2.19,2.19,0,0,1-.59-1.64,2.4,2.4,0,0,1,.55-1.7,2.22,2.22,0,0,1,3-.07,2,2,0,0,1,.51,1.45v.58H50.68a1.11,1.11,0,0,0,.3.79,1,1,0,0,0,.79.29,3.5,3.5,0,0,0,.74-.08,4.11,4.11,0,0,0,.74-.26v.92a3.12,3.12,0,0,1-.67.23A4.3,4.3,0,0,1,51.71,195.13Zm-.17-3.68a.75.75,0,0,0-.59.24,1.11,1.11,0,0,0-.25.68h1.67a1,1,0,0,0-.23-.68A.77.77,0,0,0,51.54,191.45Z"/><path class="cls-8" d="M57,190.6a2.25,2.25,0,0,1,.4,0l-.09,1.12a1.69,1.69,0,0,0-.35,0,1.24,1.24,0,0,0-.89.3,1,1,0,0,0-.32.82v2.22H54.54v-4.37h.9l.18.74h.06a1.59,1.59,0,0,1,.55-.6A1.34,1.34,0,0,1,57,190.6Z"/><path class="cls-8" d="M230.53,102.18v2.2h-1.21V98.67H231a2.87,2.87,0,0,1,1.72.42,1.52,1.52,0,0,1,.56,1.29,1.47,1.47,0,0,1-.28.89,1.88,1.88,0,0,1-.78.62l1.68,2.49h-1.35l-1.36-2.2Zm0-1h.4a1.45,1.45,0,0,0,.84-.19.67.67,0,0,0,.28-.6.64.64,0,0,0-.28-.58,1.67,1.67,0,0,0-.87-.17h-.37Z"/><path class="cls-8" d="M238,104.38h-3.28V98.67H238v1H235.9v1.25h1.93v1H235.9v1.48H238Z"/><path class="cls-8" d="M242.62,102.79a1.48,1.48,0,0,1-.56,1.22,2.4,2.4,0,0,1-1.55.44,3.64,3.64,0,0,1-1.62-.34V103a7.32,7.32,0,0,0,1,.36,2.89,2.89,0,0,0,.73.1,1.09,1.09,0,0,0,.62-.15.52.52,0,0,0,.21-.45.53.53,0,0,0-.09-.3,1.16,1.16,0,0,0-.28-.25,7.83,7.83,0,0,0-.74-.39,3.56,3.56,0,0,1-.79-.47,1.76,1.76,0,0,1-.41-.53,1.42,1.42,0,0,1-.16-.7,1.47,1.47,0,0,1,.51-1.19,2.15,2.15,0,0,1,1.42-.44,3.35,3.35,0,0,1,.85.11,5.81,5.81,0,0,1,.85.3l-.39.94a4.28,4.28,0,0,0-.76-.26,2.39,2.39,0,0,0-.59-.08.75.75,0,0,0-.52.16.55.55,0,0,0-.19.42.51.51,0,0,0,.08.28,1,1,0,0,0,.23.23,8.56,8.56,0,0,0,.77.4,2.93,2.93,0,0,1,1.1.77A1.47,1.47,0,0,1,242.62,102.79Z"/><path class="cls-8" d="M245.94,104.38h-1.22V99.67h-1.55v-1h4.32v1h-1.55Z"/><path class="cls-8" d="M258.42,104.38,258,103h-2.08l-.42,1.36h-1.3l2-5.74h1.48l2,5.74Zm-.71-2.38c-.38-1.23-.6-1.93-.64-2.09s-.09-.29-.11-.38c-.08.33-.33,1.16-.74,2.47Z"/><path class="cls-8" d="M264.46,100.45a1.77,1.77,0,0,1-.57,1.41,2.51,2.51,0,0,1-1.64.48h-.52v2h-1.21V98.67h1.82a2.4,2.4,0,0,1,1.58.44A1.65,1.65,0,0,1,264.46,100.45Zm-2.73.9h.4a1.29,1.29,0,0,0,.83-.22.76.76,0,0,0,.28-.64.82.82,0,0,0-.23-.63,1.08,1.08,0,0,0-.73-.2h-.55Z"/><path class="cls-8" d="M265.62,104.38V98.67h1.21v5.71Z"/><path class="cls-8" d="M220.62,193.75l-.41-1.36h-2.09l-.41,1.36H216.4l2-5.73h1.48l2,5.73Zm-.7-2.37c-.39-1.24-.6-1.93-.65-2.09s-.08-.29-.1-.39c-.09.34-.34,1.16-.74,2.48Z"/><path class="cls-8" d="M226,188h1.22l-1.94,5.71h-1.32L222,188h1.23l1.07,3.4c.06.2.12.43.19.7s.1.45.12.56a8.11,8.11,0,0,1,.29-1.26Z"/><path class="cls-8" d="M228,193.75V188h1.21v5.71Z"/><path class="cls-8" d="M235.31,189a1.23,1.23,0,0,0-1.05.51,2.38,2.38,0,0,0-.38,1.43c0,1.27.48,1.91,1.43,1.91a4.56,4.56,0,0,0,1.46-.3v1a4.14,4.14,0,0,1-1.57.29,2.39,2.39,0,0,1-1.91-.76,3.18,3.18,0,0,1-.66-2.17,3.51,3.51,0,0,1,.33-1.56,2.39,2.39,0,0,1,.93-1,2.82,2.82,0,0,1,1.42-.35,3.83,3.83,0,0,1,1.68.4l-.39,1a5.87,5.87,0,0,0-.65-.26A1.84,1.84,0,0,0,235.31,189Z"/><path class="cls-8" d="M243.25,190.89a3.11,3.11,0,0,1-.7,2.18,3.05,3.05,0,0,1-4,0,3.12,3.12,0,0,1-.71-2.19,3.08,3.08,0,0,1,.71-2.18,2.63,2.63,0,0,1,2-.75,2.57,2.57,0,0,1,2,.76A3.07,3.07,0,0,1,243.25,190.89Zm-4.17,0a2.41,2.41,0,0,0,.36,1.44,1.3,1.3,0,0,0,1.09.48c1,0,1.45-.64,1.45-1.92s-.48-1.93-1.44-1.93a1.28,1.28,0,0,0-1.09.48A2.37,2.37,0,0,0,239.08,190.89Z"/><path class="cls-8" d="M249.58,193.75H248l-2.48-4.32h0c0,.76.08,1.31.08,1.63v2.69h-1.09V188H246l2.48,4.28h0c0-.75-.06-1.27-.06-1.58V188h1.09Z"/><path class="cls-8" d="M253.3,193.75h-1.21v-4.7h-1.55v-1h4.31v1H253.3Z"/><path class="cls-8" d="M257,191.56v2.19h-1.21V188h1.66a2.9,2.9,0,0,1,1.73.42,1.69,1.69,0,0,1,.28,2.19,1.89,1.89,0,0,1-.79.61q1.29,1.94,1.68,2.49H259l-1.36-2.19Zm0-1h.39a1.49,1.49,0,0,0,.85-.19.67.67,0,0,0,.27-.6.63.63,0,0,0-.28-.58,1.71,1.71,0,0,0-.86-.17H257Z"/><path class="cls-8" d="M266.35,190.89a3.11,3.11,0,0,1-.7,2.18,3.05,3.05,0,0,1-4,0,3.12,3.12,0,0,1-.7-2.19,3.07,3.07,0,0,1,.7-2.18,2.65,2.65,0,0,1,2-.75,2.6,2.6,0,0,1,2,.76A3.12,3.12,0,0,1,266.35,190.89Zm-4.16,0a2.41,2.41,0,0,0,.36,1.44,1.27,1.27,0,0,0,1.09.48c1,0,1.45-.64,1.45-1.92s-.49-1.93-1.45-1.93a1.3,1.3,0,0,0-1.09.48A2.44,2.44,0,0,0,262.19,190.89Z"/><path class="cls-8" d="M267.62,193.75V188h1.21v4.71h2.32v1Z"/><path class="cls-8" d="M272.22,193.75V188h1.21v4.71h2.32v1Z"/><path class="cls-8" d="M280.11,193.75h-3.29V188h3.29v1H278v1.26H280v1H278v1.47h2.08Z"/><path class="cls-8" d="M282.59,191.56v2.19h-1.21V188H283a2.85,2.85,0,0,1,1.72.42,1.52,1.52,0,0,1,.56,1.29,1.54,1.54,0,0,1-.27.9,1.89,1.89,0,0,1-.79.61q1.29,1.94,1.68,2.49H284.6l-1.37-2.19Zm0-1H283a1.49,1.49,0,0,0,.85-.19.67.67,0,0,0,.27-.6.63.63,0,0,0-.28-.58A1.71,1.71,0,0,0,283,189h-.37Z"/><path class="cls-8" d="M111.15,164.79h1.22l-1.94,5.71h-1.32l-1.94-5.71h1.22l1.08,3.4c.06.2.12.44.18.7a4.49,4.49,0,0,1,.12.56,11.55,11.55,0,0,1,.29-1.26Z"/><path class="cls-8" d="M115.59,165.72a1.25,1.25,0,0,0-1.06.51,2.42,2.42,0,0,0-.37,1.44c0,1.27.48,1.91,1.43,1.91a4.61,4.61,0,0,0,1.46-.31v1a4,4,0,0,1-1.57.29,2.41,2.41,0,0,1-1.91-.75,3.22,3.22,0,0,1-.66-2.17,3.45,3.45,0,0,1,.33-1.56,2.27,2.27,0,0,1,.93-1,2.72,2.72,0,0,1,1.42-.36,4,4,0,0,1,1.68.4l-.4,1c-.21-.1-.42-.19-.64-.27A2.1,2.1,0,0,0,115.59,165.72Z"/><path class="cls-8" d="M121.63,170.5h-3.28v-5.71h3.28v1h-2.07V167h1.93v1h-1.93v1.47h2.07Z"/><path class="cls-8" d="M128,170.5h-1.54L124,166.18h0c0,.77.08,1.31.08,1.64v2.68h-1.08v-5.71h1.52l2.48,4.28h0c0-.74-.06-1.27-.06-1.57v-2.71H128Z"/><path class="cls-8" d="M131.69,170.5h-1.21v-4.7h-1.55v-1h4.31v1h-1.55Z"/><path class="cls-8" d="M137.49,170.5H134.2v-5.71h3.29v1h-2.08V167h1.94v1h-1.94v1.47h2.08Z"/><path class="cls-8" d="M140,168.31v2.19h-1.21v-5.71h1.67a2.86,2.86,0,0,1,1.72.43,1.51,1.51,0,0,1,.56,1.28,1.48,1.48,0,0,1-.28.9,1.88,1.88,0,0,1-.78.62c.85,1.28,1.41,2.11,1.68,2.48H142l-1.36-2.19Zm0-1h.39a1.46,1.46,0,0,0,.85-.19.7.7,0,0,0,.28-.6.64.64,0,0,0-.28-.58,1.67,1.67,0,0,0-.87-.17H140Z"/><path class="cls-8" d="M148.7,170.5,147.33,166h0c.05.92.07,1.52.07,1.83v2.65h-1.08v-5.71h1.65l1.35,4.37h0l1.43-4.37h1.65v5.71h-1.13v-3.14c0-.17,0-.61.06-1.33h0l-1.47,4.47Z"/><path class="cls-8" d="M157.19,170.5h-3.28v-5.71h3.28v1h-2.07V167h1.93v1h-1.93v1.47h2.07Z"/><path class="cls-8" d="M160.67,170.5h-1.21v-4.7h-1.55v-1h4.31v1h-1.55Z"/><path class="cls-8" d="M164.39,168.31v2.19h-1.21v-5.71h1.66a2.84,2.84,0,0,1,1.72.43,1.48,1.48,0,0,1,.56,1.28,1.54,1.54,0,0,1-.27.9,1.91,1.91,0,0,1-.79.62c.86,1.28,1.42,2.11,1.68,2.48H166.4L165,168.31Zm0-1h.39a1.49,1.49,0,0,0,.85-.19.69.69,0,0,0,.27-.6.62.62,0,0,0-.28-.58,1.61,1.61,0,0,0-.86-.17h-.37Z"/><path class="cls-8" d="M168.54,170.5v-5.71h1.21v5.71Z"/><path class="cls-8" d="M173.69,165.72a1.23,1.23,0,0,0-1.05.51,2.42,2.42,0,0,0-.38,1.44c0,1.27.48,1.91,1.43,1.91a4.61,4.61,0,0,0,1.46-.31v1a4,4,0,0,1-1.57.29,2.41,2.41,0,0,1-1.91-.75,3.22,3.22,0,0,1-.66-2.17,3.45,3.45,0,0,1,.33-1.56,2.33,2.33,0,0,1,.93-1,2.72,2.72,0,0,1,1.42-.36,4,4,0,0,1,1.68.4l-.39,1c-.22-.1-.43-.19-.65-.27A2.1,2.1,0,0,0,173.69,165.72Z"/><path class="cls-8" d="M179.82,168.92a1.5,1.5,0,0,1-.56,1.22,2.46,2.46,0,0,1-1.55.44,3.64,3.64,0,0,1-1.62-.34v-1.13a6.34,6.34,0,0,0,1,.37,2.91,2.91,0,0,0,.74.1,1.08,1.08,0,0,0,.61-.15.52.52,0,0,0,.21-.45.53.53,0,0,0-.09-.3,1.16,1.16,0,0,0-.28-.25,7.83,7.83,0,0,0-.74-.39,3.56,3.56,0,0,1-.79-.47,1.76,1.76,0,0,1-.41-.53,1.42,1.42,0,0,1-.16-.7,1.46,1.46,0,0,1,.51-1.19,2.15,2.15,0,0,1,1.42-.44,3.35,3.35,0,0,1,.85.11,6.58,6.58,0,0,1,.85.29l-.39.95a5.55,5.55,0,0,0-.76-.27,2.36,2.36,0,0,0-.58-.07.76.76,0,0,0-.53.16.55.55,0,0,0-.19.42.54.54,0,0,0,.08.28,1,1,0,0,0,.23.23,8.56,8.56,0,0,0,.77.4,2.93,2.93,0,0,1,1.1.77A1.47,1.47,0,0,1,179.82,168.92Z"/><line class="cls-11" x1="251.21" y1="83.53" x2="251.21" y2="122.31"/><polygon class="cls-12" points="248.83 85.16 251.21 76.25 253.6 85.16 248.83 85.16"/><polygon class="cls-12" points="248.83 120.69 251.21 129.59 253.6 120.69 248.83 120.69"/><g id="g12"><g id="g164"><g id="g166"><g id="g172"><path id="path174" class="cls-13" d="M37,130.27l-2.88-8a1.24,1.24,0,0,1-.09-.39.69.69,0,0,1,.71-.67.74.74,0,0,1,.72.58l2.38,6.91,2.4-6.93a.72.72,0,0,1,.7-.56H41a.75.75,0,0,1,.74.56l2.38,6.93,2.42-7a.7.7,0,0,1,1.38.11,1.59,1.59,0,0,1-.09.39l-2.9,8a.84.84,0,0,1-.77.64H44.1a.8.8,0,0,1-.77-.64L41,123.46l-2.39,6.81a.79.79,0,0,1-.77.64h0a.83.83,0,0,1-.78-.64"/></g><g id="g176"><path id="path178" class="cls-13" d="M58,121.89a.71.71,0,0,1,.7-.71.7.7,0,0,1,.71.71v1.63a3.87,3.87,0,0,1,3.27-2.32.67.67,0,0,1,.7.71.7.7,0,0,1-.62.72c-1.84.22-3.35,1.6-3.35,4.33v3.23a.71.71,0,1,1-1.41,0v-8.3Z"/></g><g id="g180"><path id="path182" class="cls-13" d="M67.89,131a4.64,4.64,0,0,1-4.64-4.89v0a4.62,4.62,0,0,1,4.46-4.89c2.75,0,4.32,2.27,4.32,4.76a.65.65,0,0,1-.65.66H64.65a3.26,3.26,0,0,0,3.28,3.18,3.78,3.78,0,0,0,2.68-1.09.6.6,0,0,1,1,.44.58.58,0,0,1-.22.45A4.73,4.73,0,0,1,67.89,131m2.75-5.44c-.14-1.71-1.11-3.2-3-3.2a3.23,3.23,0,0,0-3,3.2Z"/></g><g id="g184"><path id="path186" class="cls-13" d="M47.94,128.05v0c0-2,1.65-3.06,4.05-3.06a10,10,0,0,1,2.91.4V125c0-1.7-1-2.58-2.82-2.58a4.78,4.78,0,0,0-2.2.43.69.69,0,0,1-.26.06.63.63,0,0,1-.62-.61.58.58,0,0,1,.38-.58,6.26,6.26,0,0,1,2.85-.54,4.16,4.16,0,0,1,3.06,1,3.75,3.75,0,0,1,1,2.77v5.22a.68.68,0,0,1-.68.7.66.66,0,0,1-.68-.66v-.91A4.13,4.13,0,0,1,51.48,131c-1.76,0-3.54-1-3.54-2.95m7-.74v-.91a9.92,9.92,0,0,0-2.78-.41c-1.78,0-2.77.77-2.77,2v0c0,1.19,1.1,1.89,2.38,1.89,1.74,0,3.17-1.07,3.17-2.57"/></g><g id="g188"><path id="path190" class="cls-13" d="M11.33,121.79a1.33,1.33,0,0,0-1.79-.67,1.31,1.31,0,0,0-.66,1.79l3,6.54c.47,1,1,1.56,1.9,1.56s1.44-.59,1.91-1.56l2.65-5.77a.36.36,0,0,1,.37-.24.42.42,0,0,1,.42.42v5.58A1.41,1.41,0,0,0,20.53,131,1.42,1.42,0,0,0,22,129.44v-4.57a1.4,1.4,0,0,1,1.49-1.45,1.36,1.36,0,0,1,1.43,1.45v4.57a1.41,1.41,0,1,0,2.81,0v-4.57a1.4,1.4,0,0,1,1.49-1.45,1.37,1.37,0,0,1,1.44,1.45v4.57A1.4,1.4,0,0,0,32,131a1.42,1.42,0,0,0,1.42-1.57v-5.2A3.26,3.26,0,0,0,30,121a4.32,4.32,0,0,0-3,1.28,3.32,3.32,0,0,0-2.9-1.27,4.8,4.8,0,0,0-2.84,1.27A3.36,3.36,0,0,0,18.77,121a3.12,3.12,0,0,0-3.06,2.07l-1.92,4.52Z"/></g><g id="g192"><path id="path194" class="cls-13" d="M72.15,122.36h0a1.17,1.17,0,1,1,2.34,0h0a1.18,1.18,0,0,1-1.17,1.18,1.16,1.16,0,0,1-1.17-1.17m2.11,0h0a.94.94,0,0,0-.94-1,1,1,0,0,0-.95,1h0a.94.94,0,0,0,.95,1,1,1,0,0,0,.94-1"/></g><g id="g196"><path id="path198" class="cls-13" d="M72.87,121.88a.12.12,0,0,1,.12-.12h.39a.44.44,0,0,1,.34.12.35.35,0,0,1,.09.25h0a.34.34,0,0,1-.22.34l.17.21a.13.13,0,0,1,0,.1.11.11,0,0,1-.12.11.14.14,0,0,1-.12-.06l-.24-.31h-.2v.25a.12.12,0,0,1-.13.12.12.12,0,0,1-.12-.12v-.9Zm.5.43c.12,0,.19-.06.19-.16h0c0-.11-.07-.17-.19-.17h-.25v.33Z"/></g></g></g></g><path class="cls-8" d="M181.83,248.52a2.1,2.1,0,1,1,2.1-2.1A2.1,2.1,0,0,1,181.83,248.52Zm0-3.59a1.49,1.49,0,1,0,0,3,1.49,1.49,0,0,0,0-3Z"/><path class="cls-8" d="M154.76,249.87a3.45,3.45,0,1,1,3.45-3.45A3.46,3.46,0,0,1,154.76,249.87Zm0-6.28a2.83,2.83,0,1,0,2.83,2.83A2.83,2.83,0,0,0,154.76,243.59Z"/><path class="cls-8" d="M162.22,246.73H157.9a.31.31,0,0,1,0-.62h4.32a.31.31,0,0,1,0,.62Z"/><path class="cls-8" d="M179.87,246.73h-4.32a.31.31,0,0,1,0-.62h4.32a.31.31,0,0,1,0,.62Z"/><path class="cls-8" d="M177.67,239.56a2.08,2.08,0,0,1-1.49-.62,2.06,2.06,0,0,1-.62-1.48,2.08,2.08,0,0,1,.62-1.49,2.14,2.14,0,0,1,3,0,2.08,2.08,0,0,1,.62,1.49,2.06,2.06,0,0,1-.62,1.48h0A2.06,2.06,0,0,1,177.67,239.56Zm0-3.59a1.5,1.5,0,0,0-1.49,1.49,1.49,1.49,0,0,0,2.54,1h0a1.5,1.5,0,0,0,.43-1,1.47,1.47,0,0,0-.43-1.05A1.49,1.49,0,0,0,177.67,236Z"/><path class="cls-8" d="M173.51,241.92a.31.31,0,0,1-.22-.09.3.3,0,0,1,0-.43l2.78-2.78a.3.3,0,0,1,.43,0,.31.31,0,0,1,0,.44l-2.78,2.77A.29.29,0,0,1,173.51,241.92Z"/><path class="cls-8" d="M177.67,257.49a2.08,2.08,0,0,1-1.49-.62h0a2.08,2.08,0,0,1-.62-1.49,2.06,2.06,0,0,1,.62-1.48,2.14,2.14,0,0,1,3,0,2.06,2.06,0,0,1,.62,1.48,2.08,2.08,0,0,1-.62,1.49A2.06,2.06,0,0,1,177.67,257.49Zm0-3.59a1.47,1.47,0,0,0-1,.43,1.49,1.49,0,0,0-.44,1,1.48,1.48,0,0,0,.44,1.05h0a1.52,1.52,0,0,0,2.1,0,1.47,1.47,0,0,0,.43-1.05,1.47,1.47,0,0,0-1.48-1.48Z"/><path class="cls-8" d="M176.29,254.31a.31.31,0,0,1-.22-.09l-2.78-2.78a.31.31,0,0,1,0-.44.3.3,0,0,1,.43,0l2.78,2.78a.31.31,0,0,1,0,.44A.3.3,0,0,1,176.29,254.31Z"/><path class="cls-5" d="M162.42,244v4.8a2.31,2.31,0,0,0,1.16,2l4.15,2.4a2.32,2.32,0,0,0,2.31,0l4.16-2.4a2.32,2.32,0,0,0,1.15-2V244a2.32,2.32,0,0,0-1.15-2l-4.16-2.4a2.32,2.32,0,0,0-2.31,0l-4.15,2.4A2.31,2.31,0,0,0,162.42,244Z"/><path class="cls-3" d="M168.89,253.91a2,2,0,0,1-1-.28l-4.67-2.69a2.12,2.12,0,0,1-1.06-1.82v-5.4a2.12,2.12,0,0,1,1.06-1.82l4.67-2.69a2.08,2.08,0,0,1,2.1,0l4.67,2.69a2.11,2.11,0,0,1,1,1.82v5.4a2.12,2.12,0,0,1-1,1.82l-4.67,2.69A2.09,2.09,0,0,1,168.89,253.91Zm0-14.37a1.53,1.53,0,0,0-.75.2l-4.67,2.7a1.49,1.49,0,0,0-.74,1.28v5.4a1.5,1.5,0,0,0,.74,1.28l4.67,2.7a1.52,1.52,0,0,0,1.49,0l4.67-2.7a1.48,1.48,0,0,0,.74-1.28v-5.4a1.47,1.47,0,0,0-.74-1.28l-4.67-2.7A1.52,1.52,0,0,0,168.89,239.54Z"/><path class="cls-4" d="M171.13,249.11a.45.45,0,0,1-.4-.25l-1.84-3.68-1.84,3.68a.46.46,0,0,1-.61.2.45.45,0,0,1-.2-.6l2.25-4.48a.43.43,0,0,1,.4-.25h0a.44.44,0,0,1,.4.25l2.24,4.48a.45.45,0,0,1-.2.6A.46.46,0,0,1,171.13,249.11Z"/><polygon class="cls-1" points="129.85 223.11 129.85 223.11 129.85 223.1 205.4 223.11 205.4 223.11 205.4 223.11 205.4 267.06 205.39 267.06 129.85 267.06 129.85 267.06 129.85 223.11"/><polygon class="cls-14" points="129.85 295.07 129.85 295.07 129.85 295.07 205.4 295.07 205.4 295.07 205.4 295.07 205.4 313.47 205.39 313.47 129.85 313.47 129.85 313.47 129.85 295.07"/><rect class="cls-15" x="129.73" y="269.77" width="23.54" height="4.18"/><g class="cls-16"><polygon class="cls-17" points="152.5 270.53 151.75 271.29 151.75 291.03 152.5 291.79 152.5 270.53"/></g><g class="cls-16"><polygon class="cls-17" points="130.49 270.53 130.49 291.79 131.25 291.03 131.25 271.29 130.49 270.53"/></g><line class="cls-18" x1="130.11" y1="273.94" x2="152.88" y2="273.94"/><line class="cls-19" x1="130.6" y1="274.65" x2="152.62" y2="274.65"/><polyline class="cls-20" points="140.74 280.78 138.84 284.57 136.94 280.78"/><polyline class="cls-20" points="142.25 284.57 142.25 280.78 144.15 283.81 146.05 280.78 146.05 284.57"/><rect class="cls-1" x="130.11" y="270.15" width="22.78" height="22.02"/><path class="cls-21" d="M150.4,291h0"/><path class="cls-21" d="M151.92,291h0"/><path class="cls-21" d="M151.92,289.45h0"/><path class="cls-21" d="M150.4,289.45h0"/><path class="cls-21" d="M148.88,291h0"/><path class="cls-21" d="M148.12,290.21h0"/><path class="cls-21" d="M151.92,287.94h0"/><path class="cls-21" d="M151.16,288.7h0"/><path class="cls-21" d="M151.16,290.21h0"/><path class="cls-21" d="M131,275h0"/><path class="cls-21" d="M132.56,275h0"/><path class="cls-21" d="M131.8,275.79h0"/><path class="cls-21" d="M131,276.55h0"/><path class="cls-21" d="M150.4,287.94h0"/><path class="cls-21" d="M151.92,286.42h0"/><rect class="cls-15" x="155.85" y="269.77" width="23.54" height="4.18"/><g class="cls-16"><polygon class="cls-17" points="178.63 270.53 177.87 271.29 177.87 291.03 178.63 291.79 178.63 270.53"/></g><g class="cls-16"><polygon class="cls-17" points="156.61 270.53 156.61 291.79 157.37 291.03 157.37 271.29 156.61 270.53"/></g><line class="cls-18" x1="156.23" y1="273.94" x2="179.01" y2="273.94"/><line class="cls-19" x1="156.73" y1="274.65" x2="178.75" y2="274.65"/><polyline class="cls-20" points="166.86 280.78 164.96 284.57 163.07 280.78"/><polyline class="cls-20" points="168.38 284.57 168.38 280.78 170.28 283.81 172.18 280.78 172.18 284.57"/><rect class="cls-1" x="156.23" y="270.15" width="22.78" height="22.02"/><path class="cls-21" d="M176.53,291h0"/><path class="cls-21" d="M178.05,291h0"/><path class="cls-21" d="M178.05,289.45h0"/><path class="cls-21" d="M176.53,289.45h0"/><path class="cls-21" d="M175,291h0"/><path class="cls-21" d="M174.25,290.21h0"/><path class="cls-21" d="M178.05,287.94h0"/><path class="cls-21" d="M177.29,288.7h0"/><path class="cls-21" d="M177.29,290.21h0"/><path class="cls-21" d="M157.17,275h0"/><path class="cls-21" d="M158.68,275h0"/><path class="cls-21" d="M157.93,275.79h0"/><path class="cls-21" d="M157.17,276.55h0"/><path class="cls-21" d="M176.53,287.94h0"/><path class="cls-21" d="M178.05,286.42h0"/><rect class="cls-15" x="181.98" y="269.77" width="23.54" height="4.18"/><g class="cls-16"><polygon class="cls-17" points="204.76 270.53 204 271.29 204 291.03 204.76 291.79 204.76 270.53"/></g><g class="cls-16"><polygon class="cls-17" points="182.74 270.53 182.74 291.79 183.5 291.03 183.5 271.29 182.74 270.53"/></g><line class="cls-18" x1="182.36" y1="273.94" x2="205.14" y2="273.94"/><line class="cls-19" x1="182.85" y1="274.65" x2="204.87" y2="274.65"/><polyline class="cls-20" points="192.99 280.78 191.09 284.57 189.19 280.78"/><polyline class="cls-20" points="194.51 284.57 194.51 280.78 196.41 283.81 198.3 280.78 198.3 284.57"/><rect class="cls-1" x="182.36" y="270.15" width="22.78" height="22.02"/><path class="cls-21" d="M202.65,291h0"/><path class="cls-21" d="M204.17,291h0"/><path class="cls-21" d="M204.17,289.45h0"/><path class="cls-21" d="M202.65,289.45h0"/><path class="cls-21" d="M201.13,291h0"/><path class="cls-21" d="M200.38,290.21h0"/><path class="cls-21" d="M204.17,287.94h0"/><path class="cls-21" d="M203.41,288.7h0"/><path class="cls-21" d="M203.41,290.21h0"/><path class="cls-21" d="M183.29,275h0"/><path class="cls-21" d="M184.81,275h0"/><path class="cls-21" d="M184.05,275.79h0"/><path class="cls-21" d="M183.29,276.55h0"/><path class="cls-21" d="M202.65,287.94h0"/><path class="cls-21" d="M204.17,286.42h0"/><path class="cls-8" d="M265.42,248.52a2.1,2.1,0,1,1,2.1-2.1A2.1,2.1,0,0,1,265.42,248.52Zm0-3.59a1.49,1.49,0,1,0,0,3,1.49,1.49,0,0,0,0-3Z"/><path class="cls-8" d="M238.35,249.87a3.45,3.45,0,1,1,3.45-3.45A3.46,3.46,0,0,1,238.35,249.87Zm0-6.28a2.83,2.83,0,1,0,2.83,2.83A2.83,2.83,0,0,0,238.35,243.59Z"/><path class="cls-8" d="M245.82,246.73h-4.33a.31.31,0,0,1,0-.62h4.33a.31.31,0,0,1,0,.62Z"/><path class="cls-8" d="M263.46,246.73h-4.32a.31.31,0,1,1,0-.62h4.32a.31.31,0,0,1,0,.62Z"/><path class="cls-8" d="M261.26,239.56a2.1,2.1,0,0,1-1.49-.62,2.06,2.06,0,0,1-.62-1.48,2.08,2.08,0,0,1,.62-1.49,2.14,2.14,0,0,1,3,0,2.08,2.08,0,0,1,.62,1.49,2.06,2.06,0,0,1-.62,1.48h0A2.06,2.06,0,0,1,261.26,239.56Zm0-3.59a1.5,1.5,0,0,0-1.49,1.49,1.49,1.49,0,0,0,2.54,1h0a1.5,1.5,0,0,0,.43-1,1.47,1.47,0,0,0-.43-1.05A1.49,1.49,0,0,0,261.26,236Z"/><path class="cls-8" d="M257.1,241.92a.31.31,0,0,1-.22-.09.3.3,0,0,1,0-.43l2.78-2.78a.3.3,0,0,1,.43,0,.3.3,0,0,1,0,.44l-2.77,2.77A.31.31,0,0,1,257.1,241.92Z"/><path class="cls-8" d="M261.26,257.49a2.1,2.1,0,0,1-1.49-.62h0a2.08,2.08,0,0,1-.62-1.49,2.06,2.06,0,0,1,.62-1.48,2.14,2.14,0,0,1,3,0,2.06,2.06,0,0,1,.62,1.48,2.08,2.08,0,0,1-.62,1.49A2.06,2.06,0,0,1,261.26,257.49Zm0-3.59a1.47,1.47,0,0,0-1.05.43,1.49,1.49,0,0,0-.44,1,1.48,1.48,0,0,0,.44,1.05h0a1.52,1.52,0,0,0,2.1,0,1.47,1.47,0,0,0,.43-1.05,1.47,1.47,0,0,0-1.48-1.48Z"/><path class="cls-8" d="M259.88,254.31a.31.31,0,0,1-.22-.09l-2.78-2.78a.31.31,0,0,1,.44-.44l2.77,2.78a.3.3,0,0,1,0,.44A.29.29,0,0,1,259.88,254.31Z"/><path class="cls-5" d="M246,244v4.8a2.31,2.31,0,0,0,1.16,2l4.15,2.4a2.32,2.32,0,0,0,2.31,0l4.16-2.4a2.32,2.32,0,0,0,1.15-2V244a2.32,2.32,0,0,0-1.15-2l-4.16-2.4a2.32,2.32,0,0,0-2.31,0l-4.15,2.4A2.31,2.31,0,0,0,246,244Z"/><path class="cls-3" d="M252.48,253.91a2,2,0,0,1-1-.28l-4.67-2.69a2.12,2.12,0,0,1-1.06-1.82v-5.4a2.12,2.12,0,0,1,1.06-1.82l4.67-2.69a2.08,2.08,0,0,1,2.1,0l4.67,2.69a2.11,2.11,0,0,1,1.05,1.82v5.4a2.12,2.12,0,0,1-1.05,1.82l-4.67,2.69A2.09,2.09,0,0,1,252.48,253.91Zm0-14.37a1.47,1.47,0,0,0-.74.2l-4.67,2.7a1.48,1.48,0,0,0-.75,1.28v5.4a1.49,1.49,0,0,0,.75,1.28l4.67,2.7a1.5,1.5,0,0,0,1.48,0l4.67-2.7a1.48,1.48,0,0,0,.74-1.28v-5.4a1.47,1.47,0,0,0-.74-1.28l-4.67-2.7A1.52,1.52,0,0,0,252.48,239.54Z"/><path class="cls-4" d="M254.72,249.11a.45.45,0,0,1-.4-.25l-1.84-3.68-1.84,3.68a.46.46,0,0,1-.61.2.45.45,0,0,1-.2-.6l2.25-4.48a.43.43,0,0,1,.4-.25h0a.44.44,0,0,1,.4.25l2.24,4.48a.45.45,0,0,1-.2.6A.46.46,0,0,1,254.72,249.11Z"/><polygon class="cls-1" points="213.44 223.11 213.44 223.11 213.44 223.1 288.99 223.11 288.99 223.11 288.99 223.11 288.99 267.06 288.99 267.06 213.44 267.06 213.44 267.06 213.44 223.11"/><polygon class="cls-14" points="213.44 295.07 213.44 295.07 213.44 295.07 288.99 295.07 288.99 295.07 288.99 295.07 288.99 313.47 288.99 313.47 213.44 313.47 213.44 313.47 213.44 295.07"/><rect class="cls-15" x="213.32" y="269.77" width="23.54" height="4.18"/><g class="cls-16"><polygon class="cls-17" points="236.09 270.53 235.34 271.29 235.34 291.03 236.09 291.79 236.09 270.53"/></g><g class="cls-16"><polygon class="cls-17" points="214.08 270.53 214.08 291.79 214.84 291.03 214.84 271.29 214.08 270.53"/></g><line class="cls-18" x1="213.7" y1="273.94" x2="236.48" y2="273.94"/><line class="cls-19" x1="214.19" y1="274.65" x2="236.21" y2="274.65"/><polyline class="cls-20" points="224.33 280.78 222.43 284.57 220.53 280.78"/><polyline class="cls-20" points="225.85 284.57 225.85 280.78 227.74 283.81 229.64 280.78 229.64 284.57"/><rect class="cls-1" x="213.7" y="270.15" width="22.78" height="22.02"/><path class="cls-21" d="M234,291h0"/><path class="cls-21" d="M235.51,291h0"/><path class="cls-21" d="M235.51,289.45h0"/><path class="cls-21" d="M234,289.45h0"/><path class="cls-21" d="M232.47,291h0"/><path class="cls-21" d="M231.71,290.21h0"/><path class="cls-21" d="M235.51,287.94h0"/><path class="cls-21" d="M234.75,288.7h0"/><path class="cls-21" d="M234.75,290.21h0"/><path class="cls-21" d="M214.63,275h0"/><path class="cls-21" d="M216.15,275h0"/><path class="cls-21" d="M215.39,275.79h0"/><path class="cls-21" d="M214.63,276.55h0"/><path class="cls-21" d="M234,287.94h0"/><path class="cls-21" d="M235.51,286.42h0"/><rect class="cls-15" x="239.44" y="269.77" width="23.54" height="4.18"/><g class="cls-16"><polygon class="cls-17" points="262.22 270.53 261.46 271.29 261.46 291.03 262.22 291.79 262.22 270.53"/></g><g class="cls-16"><polygon class="cls-17" points="240.2 270.53 240.2 291.79 240.96 291.03 240.96 271.29 240.2 270.53"/></g><line class="cls-18" x1="239.82" y1="273.94" x2="262.6" y2="273.94"/><line class="cls-19" x1="240.32" y1="274.65" x2="262.34" y2="274.65"/><polyline class="cls-20" points="250.45 280.78 248.56 284.57 246.66 280.78"/><polyline class="cls-20" points="251.97 284.57 251.97 280.78 253.87 283.81 255.77 280.78 255.77 284.57"/><rect class="cls-1" x="239.82" y="270.15" width="22.78" height="22.02"/><path class="cls-21" d="M260.12,291h0"/><path class="cls-21" d="M261.64,291h0"/><path class="cls-21" d="M261.64,289.45h0"/><path class="cls-21" d="M260.12,289.45h0"/><path class="cls-21" d="M258.6,291h0"/><path class="cls-21" d="M257.84,290.21h0"/><path class="cls-21" d="M261.64,287.94h0"/><path class="cls-21" d="M260.88,288.7h0"/><path class="cls-21" d="M260.88,290.21h0"/><path class="cls-21" d="M240.76,275h0"/><path class="cls-21" d="M242.28,275h0"/><path class="cls-21" d="M241.52,275.79h0"/><path class="cls-21" d="M240.76,276.55h0"/><path class="cls-21" d="M260.12,287.94h0"/><path class="cls-21" d="M261.64,286.42h0"/><rect class="cls-15" x="265.57" y="269.77" width="23.54" height="4.18"/><g class="cls-16"><polygon class="cls-17" points="288.35 270.53 287.59 271.29 287.59 291.03 288.35 291.79 288.35 270.53"/></g><g class="cls-16"><polygon class="cls-17" points="266.33 270.53 266.33 291.79 267.09 291.03 267.09 271.29 266.33 270.53"/></g><line class="cls-18" x1="265.95" y1="273.94" x2="288.73" y2="273.94"/><line class="cls-19" x1="266.45" y1="274.65" x2="288.46" y2="274.65"/><polyline class="cls-20" points="276.58 280.78 274.68 284.57 272.78 280.78"/><polyline class="cls-20" points="278.1 284.57 278.1 280.78 280 283.81 281.89 280.78 281.89 284.57"/><rect class="cls-1" x="265.95" y="270.15" width="22.78" height="22.02"/><path class="cls-21" d="M286.24,291h0"/><path class="cls-21" d="M287.76,291h0"/><path class="cls-21" d="M287.76,289.45h0"/><path class="cls-21" d="M286.24,289.45h0"/><path class="cls-21" d="M284.73,291h0"/><path class="cls-21" d="M284,290.21h0"/><path class="cls-21" d="M287.76,287.94h0"/><path class="cls-21" d="M287,288.7h0"/><path class="cls-21" d="M287,290.21h0"/><path class="cls-21" d="M266.88,275h0"/><path class="cls-21" d="M268.4,275h0"/><path class="cls-21" d="M267.64,275.79h0"/><path class="cls-21" d="M266.88,276.55h0"/><path class="cls-21" d="M286.24,287.94h0"/><path class="cls-21" d="M287.76,286.42h0"/><path class="cls-8" d="M349,248.52a2.1,2.1,0,1,1,2.1-2.1A2.1,2.1,0,0,1,349,248.52Zm0-3.59a1.49,1.49,0,1,0,0,3,1.49,1.49,0,0,0,0-3Z"/><path class="cls-8" d="M321.94,249.87a3.45,3.45,0,1,1,3.45-3.45A3.46,3.46,0,0,1,321.94,249.87Zm0-6.28a2.83,2.83,0,1,0,2.83,2.83A2.83,2.83,0,0,0,321.94,243.59Z"/><path class="cls-8" d="M329.41,246.73h-4.33a.31.31,0,0,1,0-.62h4.33a.31.31,0,0,1,0,.62Z"/><path class="cls-8" d="M347.06,246.73h-4.33a.31.31,0,0,1,0-.62h4.33a.31.31,0,0,1,0,.62Z"/><path class="cls-8" d="M344.85,239.56a2.1,2.1,0,0,1-1.49-.62,2.06,2.06,0,0,1-.62-1.48,2.08,2.08,0,0,1,.62-1.49,2.14,2.14,0,0,1,3,0,2.08,2.08,0,0,1,.62,1.49,2.06,2.06,0,0,1-.62,1.48h0A2.06,2.06,0,0,1,344.85,239.56Zm0-3.59a1.5,1.5,0,0,0-1.49,1.49,1.49,1.49,0,0,0,2.54,1h0a1.5,1.5,0,0,0,.43-1,1.47,1.47,0,0,0-.43-1.05A1.49,1.49,0,0,0,344.85,236Z"/><path class="cls-8" d="M340.69,241.92a.31.31,0,0,1-.22-.09.3.3,0,0,1,0-.43l2.78-2.78a.31.31,0,1,1,.44.44l-2.78,2.77A.31.31,0,0,1,340.69,241.92Z"/><path class="cls-8" d="M344.85,257.49a2.1,2.1,0,0,1-1.49-.62h0a2.08,2.08,0,0,1-.62-1.49,2.06,2.06,0,0,1,.62-1.48,2.14,2.14,0,0,1,3,0,2.06,2.06,0,0,1,.62,1.48,2.08,2.08,0,0,1-.62,1.49A2.06,2.06,0,0,1,344.85,257.49Zm0-3.59a1.47,1.47,0,0,0-1.05.43,1.49,1.49,0,0,0-.44,1,1.48,1.48,0,0,0,.44,1.05h0a1.52,1.52,0,0,0,2.1,0,1.47,1.47,0,0,0,.43-1.05,1.47,1.47,0,0,0-1.48-1.48Z"/><path class="cls-8" d="M343.47,254.31a.31.31,0,0,1-.22-.09l-2.78-2.78a.31.31,0,0,1,.44-.44l2.78,2.78a.31.31,0,0,1,0,.44A.33.33,0,0,1,343.47,254.31Z"/><path class="cls-5" d="M329.6,244v4.8a2.31,2.31,0,0,0,1.16,2l4.15,2.4a2.32,2.32,0,0,0,2.31,0l4.16-2.4a2.32,2.32,0,0,0,1.15-2V244a2.32,2.32,0,0,0-1.15-2l-4.16-2.4a2.32,2.32,0,0,0-2.31,0l-4.15,2.4A2.31,2.31,0,0,0,329.6,244Z"/><path class="cls-3" d="M336.07,253.91a2,2,0,0,1-1.05-.28l-4.67-2.69a2.11,2.11,0,0,1-1.05-1.82v-5.4a2.11,2.11,0,0,1,1.05-1.82l4.67-2.69a2.08,2.08,0,0,1,2.1,0l4.67,2.69a2.11,2.11,0,0,1,1,1.82v5.4a2.12,2.12,0,0,1-1,1.82l-4.67,2.69A2.09,2.09,0,0,1,336.07,253.91Zm0-14.37a1.47,1.47,0,0,0-.74.2l-4.67,2.7a1.48,1.48,0,0,0-.75,1.28v5.4a1.49,1.49,0,0,0,.75,1.28l4.67,2.7a1.5,1.5,0,0,0,1.48,0l4.67-2.7a1.48,1.48,0,0,0,.74-1.28v-5.4a1.47,1.47,0,0,0-.74-1.28l-4.67-2.7A1.52,1.52,0,0,0,336.07,239.54Z"/><path class="cls-4" d="M338.31,249.11a.45.45,0,0,1-.4-.25l-1.84-3.68-1.84,3.68a.45.45,0,0,1-.6.2.44.44,0,0,1-.21-.6l2.25-4.48a.43.43,0,0,1,.4-.25h0a.44.44,0,0,1,.4.25l2.24,4.48a.45.45,0,0,1-.2.6A.46.46,0,0,1,338.31,249.11Z"/><polygon class="cls-1" points="297.03 223.11 297.03 223.11 297.03 223.1 372.58 223.11 372.58 223.11 372.58 223.11 372.58 267.06 372.58 267.06 297.03 267.06 297.03 267.06 297.03 223.11"/><polygon class="cls-14" points="297.03 295.07 297.03 295.07 297.03 295.07 372.58 295.07 372.58 295.07 372.58 295.07 372.58 313.47 372.58 313.47 297.03 313.47 297.03 313.47 297.03 295.07"/><rect class="cls-15" x="296.91" y="269.77" width="23.54" height="4.18"/><g class="cls-16"><polygon class="cls-17" points="319.69 270.53 318.93 271.29 318.93 291.03 319.69 291.79 319.69 270.53"/></g><g class="cls-16"><polygon class="cls-17" points="297.67 270.53 297.67 291.79 298.43 291.03 298.43 271.29 297.67 270.53"/></g><line class="cls-18" x1="297.29" y1="273.94" x2="320.07" y2="273.94"/><line class="cls-19" x1="297.78" y1="274.65" x2="319.8" y2="274.65"/><polyline class="cls-20" points="307.92 280.78 306.02 284.57 304.12 280.78"/><polyline class="cls-20" points="309.44 284.57 309.44 280.78 311.33 283.81 313.23 280.78 313.23 284.57"/><rect class="cls-1" x="297.29" y="270.15" width="22.78" height="22.02"/><path class="cls-21" d="M317.58,291h0"/><path class="cls-21" d="M319.1,291h0"/><path class="cls-21" d="M319.1,289.45h0"/><path class="cls-21" d="M317.58,289.45h0"/><path class="cls-21" d="M316.06,291h0"/><path class="cls-21" d="M315.3,290.21h0"/><path class="cls-21" d="M319.1,287.94h0"/><path class="cls-21" d="M318.34,288.7h0"/><path class="cls-21" d="M318.34,290.21h0"/><path class="cls-21" d="M298.22,275h0"/><path class="cls-21" d="M299.74,275h0"/><path class="cls-21" d="M299,275.79h0"/><path class="cls-21" d="M298.22,276.55h0"/><path class="cls-21" d="M317.58,287.94h0"/><path class="cls-21" d="M319.1,286.42h0"/><rect class="cls-15" x="323.03" y="269.77" width="23.54" height="4.18"/><g class="cls-16"><polygon class="cls-17" points="345.81 270.53 345.05 271.29 345.05 291.03 345.81 291.79 345.81 270.53"/></g><g class="cls-16"><polygon class="cls-17" points="323.79 270.53 323.79 291.79 324.55 291.03 324.55 271.29 323.79 270.53"/></g><line class="cls-18" x1="323.41" y1="273.94" x2="346.19" y2="273.94"/><line class="cls-19" x1="323.91" y1="274.65" x2="345.93" y2="274.65"/><polyline class="cls-20" points="334.04 280.78 332.14 284.57 330.25 280.78"/><polyline class="cls-20" points="335.56 284.57 335.56 280.78 337.46 283.81 339.36 280.78 339.36 284.57"/><rect class="cls-1" x="323.41" y="270.15" width="22.78" height="22.02"/><path class="cls-21" d="M343.71,291h0"/><path class="cls-21" d="M345.23,291h0"/><path class="cls-21" d="M345.23,289.45h0"/><path class="cls-21" d="M343.71,289.45h0"/><path class="cls-21" d="M342.19,291h0"/><path class="cls-21" d="M341.43,290.21h0"/><path class="cls-21" d="M345.23,287.94h0"/><path class="cls-21" d="M344.47,288.7h0"/><path class="cls-21" d="M344.47,290.21h0"/><path class="cls-21" d="M324.35,275h0"/><path class="cls-21" d="M325.87,275h0"/><path class="cls-21" d="M325.11,275.79h0"/><path class="cls-21" d="M324.35,276.55h0"/><path class="cls-21" d="M343.71,287.94h0"/><path class="cls-21" d="M345.23,286.42h0"/><rect class="cls-15" x="349.16" y="269.77" width="23.54" height="4.18"/><g class="cls-16"><polygon class="cls-17" points="371.94 270.53 371.18 271.29 371.18 291.03 371.94 291.79 371.94 270.53"/></g><g class="cls-16"><polygon class="cls-17" points="349.92 270.53 349.92 291.79 350.68 291.03 350.68 271.29 349.92 270.53"/></g><line class="cls-18" x1="349.54" y1="273.94" x2="372.32" y2="273.94"/><line class="cls-19" x1="350.04" y1="274.65" x2="372.05" y2="274.65"/><polyline class="cls-20" points="360.17 280.78 358.27 284.57 356.37 280.78"/><polyline class="cls-20" points="361.69 284.57 361.69 280.78 363.59 283.81 365.48 280.78 365.48 284.57"/><rect class="cls-1" x="349.54" y="270.15" width="22.78" height="22.02"/><path class="cls-21" d="M369.83,291h0"/><path class="cls-21" d="M371.35,291h0"/><path class="cls-21" d="M371.35,289.45h0"/><path class="cls-21" d="M369.83,289.45h0"/><path class="cls-21" d="M368.32,291h0"/><path class="cls-21" d="M367.56,290.21h0"/><path class="cls-21" d="M371.35,287.94h0"/><path class="cls-21" d="M370.59,288.7h0"/><path class="cls-21" d="M370.59,290.21h0"/><path class="cls-21" d="M350.47,275h0"/><path class="cls-21" d="M352,275h0"/><path class="cls-21" d="M351.23,275.79h0"/><path class="cls-21" d="M350.47,276.55h0"/><path class="cls-21" d="M369.83,287.94h0"/><path class="cls-21" d="M371.35,286.42h0"/><path class="cls-4" d="M151.78,307.21h-1v-2H149v2h-1v-4.55h1v1.79h1.8v-1.79h1Z"/><path class="cls-4" d="M154.4,304.54l.95-1.88h1l-1.51,2.78v1.77h-.95v-1.74l-1.51-2.81h1Z"/><path class="cls-4" d="M160.17,304.08a1.36,1.36,0,0,1-.46,1.12,2,2,0,0,1-1.3.39H158v1.62h-1v-4.55h1.45a1.93,1.93,0,0,1,1.26.36A1.32,1.32,0,0,1,160.17,304.08Zm-2.18.72h.32a1,1,0,0,0,.66-.17.61.61,0,0,0,.22-.51.62.62,0,0,0-.18-.5.85.85,0,0,0-.58-.17H158Z"/><path class="cls-4" d="M163.71,307.21h-2.62v-4.55h2.62v.79h-1.66v1h1.54v.79h-1.54v1.17h1.66Z"/><path class="cls-4" d="M165.68,305.47v1.74h-1v-4.55H166a2.33,2.33,0,0,1,1.38.34,1.23,1.23,0,0,1,.44,1,1.19,1.19,0,0,1-.22.71,1.49,1.49,0,0,1-.63.49c.69,1,1.13,1.68,1.34,2h-1.07l-1.08-1.74Zm0-.79H166a1.21,1.21,0,0,0,.67-.15.56.56,0,0,0,.22-.48.51.51,0,0,0-.22-.46,1.37,1.37,0,0,0-.69-.14h-.3Z"/><path class="cls-4" d="M171.58,302.66h1L171,307.21h-1l-1.54-4.55h1l.85,2.71c0,.16.1.34.15.56s.08.36.1.44a7.91,7.91,0,0,1,.23-1Z"/><path class="cls-4" d="M173.19,307.21v-4.55h1v4.55Z"/><path class="cls-4" d="M178,306a1.17,1.17,0,0,1-.44,1,1.94,1.94,0,0,1-1.23.35,3,3,0,0,1-1.29-.27v-.9a4.61,4.61,0,0,0,.78.29,2.16,2.16,0,0,0,.58.09.75.75,0,0,0,.49-.13.42.42,0,0,0,.17-.36.48.48,0,0,0-.07-.23.86.86,0,0,0-.22-.2,5.33,5.33,0,0,0-.59-.31,2.8,2.8,0,0,1-.63-.38,1.34,1.34,0,0,1-.33-.42,1.22,1.22,0,0,1-.13-.56,1.19,1.19,0,0,1,.41-.95,1.71,1.71,0,0,1,1.13-.34,3,3,0,0,1,.68.08,5.46,5.46,0,0,1,.67.24l-.31.75a4.41,4.41,0,0,0-.6-.21,1.89,1.89,0,0,0-.47-.06.6.6,0,0,0-.42.13.42.42,0,0,0-.14.33.38.38,0,0,0,.06.22.64.64,0,0,0,.18.19c.09.06.29.16.62.32a2.37,2.37,0,0,1,.87.61A1.16,1.16,0,0,1,178,306Z"/><path class="cls-4" d="M183.06,304.93a2.51,2.51,0,0,1-.56,1.74,2.45,2.45,0,0,1-3.21,0,2.52,2.52,0,0,1-.56-1.75,2.47,2.47,0,0,1,.56-1.73,2.1,2.1,0,0,1,1.61-.6,2,2,0,0,1,1.6.61A2.47,2.47,0,0,1,183.06,304.93Zm-3.32,0a1.93,1.93,0,0,0,.29,1.15,1,1,0,0,0,.86.38c.77,0,1.16-.51,1.16-1.53s-.38-1.54-1.15-1.54a1,1,0,0,0-.87.39A1.93,1.93,0,0,0,179.74,304.93Z"/><path class="cls-4" d="M185,305.47v1.74h-1v-4.55h1.33a2.3,2.3,0,0,1,1.37.34,1.32,1.32,0,0,1,.22,1.74,1.4,1.4,0,0,1-.62.49c.68,1,1.13,1.68,1.34,2h-1.07l-1.09-1.74Zm0-.79h.31a1.19,1.19,0,0,0,.67-.15.53.53,0,0,0,.22-.48.49.49,0,0,0-.22-.46,1.37,1.37,0,0,0-.69-.14H185Z"/><path class="cls-4" d="M235.37,307.21h-1v-2h-1.8v2h-1v-4.55h1v1.79h1.8v-1.79h1Z"/><path class="cls-4" d="M238,304.54l.94-1.88h1l-1.51,2.78v1.77h-.95v-1.74L236,302.66h1Z"/><path class="cls-4" d="M243.76,304.08a1.36,1.36,0,0,1-.46,1.12,2,2,0,0,1-1.3.39h-.42v1.62h-1v-4.55h1.45a1.93,1.93,0,0,1,1.26.36A1.29,1.29,0,0,1,243.76,304.08Zm-2.18.72h.32a1,1,0,0,0,.66-.17.71.71,0,0,0,0-1,.85.85,0,0,0-.58-.17h-.44Z"/><path class="cls-4" d="M247.3,307.21h-2.62v-4.55h2.62v.79h-1.66v1h1.54v.79h-1.54v1.17h1.66Z"/><path class="cls-4" d="M249.27,305.47v1.74h-1v-4.55h1.33A2.32,2.32,0,0,1,251,303a1.23,1.23,0,0,1,.44,1,1.19,1.19,0,0,1-.22.71,1.46,1.46,0,0,1-.62.49l1.33,2h-1.07l-1.08-1.74Zm0-.79h.32a1.19,1.19,0,0,0,.67-.15.53.53,0,0,0,.22-.48.51.51,0,0,0-.22-.46,1.37,1.37,0,0,0-.69-.14h-.3Z"/><path class="cls-4" d="M255.17,302.66h1l-1.55,4.55h-1L252,302.66h1l.85,2.71c0,.16.1.34.15.56s.08.36.1.44a7.91,7.91,0,0,1,.23-1Z"/><path class="cls-4" d="M256.78,307.21v-4.55h1v4.55Z"/><path class="cls-4" d="M261.64,306a1.17,1.17,0,0,1-.45,1,1.94,1.94,0,0,1-1.23.35,3,3,0,0,1-1.29-.27v-.9a4.61,4.61,0,0,0,.78.29,2.16,2.16,0,0,0,.58.09.75.75,0,0,0,.49-.13.42.42,0,0,0,.17-.36.39.39,0,0,0-.07-.23.86.86,0,0,0-.22-.2,5.33,5.33,0,0,0-.59-.31,2.8,2.8,0,0,1-.63-.38,1.34,1.34,0,0,1-.33-.42,1.22,1.22,0,0,1-.12-.56,1.18,1.18,0,0,1,.4-.95,1.71,1.71,0,0,1,1.13-.34,3,3,0,0,1,.68.08,4.93,4.93,0,0,1,.67.24l-.31.75a4.41,4.41,0,0,0-.6-.21,1.89,1.89,0,0,0-.47-.06.6.6,0,0,0-.42.13.42.42,0,0,0-.14.33.38.38,0,0,0,.06.22.57.57,0,0,0,.19.19,5.25,5.25,0,0,0,.61.32,2.37,2.37,0,0,1,.87.61A1.16,1.16,0,0,1,261.64,306Z"/><path class="cls-4" d="M266.65,304.93a2.51,2.51,0,0,1-.56,1.74,2.45,2.45,0,0,1-3.21,0,2.52,2.52,0,0,1-.56-1.75,2.47,2.47,0,0,1,.56-1.73,2.1,2.1,0,0,1,1.61-.6,2,2,0,0,1,1.6.61A2.47,2.47,0,0,1,266.65,304.93Zm-3.32,0a1.93,1.93,0,0,0,.29,1.15,1,1,0,0,0,.87.38c.76,0,1.15-.51,1.15-1.53s-.38-1.54-1.15-1.54a1,1,0,0,0-.87.39A1.93,1.93,0,0,0,263.33,304.93Z"/><path class="cls-4" d="M268.62,305.47v1.74h-1v-4.55H269a2.28,2.28,0,0,1,1.37.34,1.21,1.21,0,0,1,.45,1,1.27,1.27,0,0,1-.22.71,1.49,1.49,0,0,1-.63.49c.68,1,1.13,1.68,1.34,2h-1.07l-1.09-1.74Zm0-.79h.31a1.16,1.16,0,0,0,.67-.15.53.53,0,0,0,.22-.48.49.49,0,0,0-.22-.46,1.37,1.37,0,0,0-.69-.14h-.29Z"/><path class="cls-4" d="M319,307.21h-1v-2h-1.8v2h-1v-4.55h1v1.79H318v-1.79h1Z"/><path class="cls-4" d="M321.59,304.54l.94-1.88h1l-1.51,2.78v1.77h-.95v-1.74l-1.51-2.81h1Z"/><path class="cls-4" d="M327.35,304.08a1.36,1.36,0,0,1-.46,1.12,2,2,0,0,1-1.3.39h-.42v1.62h-1v-4.55h1.45a1.93,1.93,0,0,1,1.26.36A1.29,1.29,0,0,1,327.35,304.08Zm-2.18.72h.32a1.05,1.05,0,0,0,.67-.17.64.64,0,0,0,.22-.51.63.63,0,0,0-.19-.5.85.85,0,0,0-.58-.17h-.44Z"/><path class="cls-4" d="M330.89,307.21h-2.62v-4.55h2.62v.79h-1.66v1h1.54v.79h-1.54v1.17h1.66Z"/><path class="cls-4" d="M332.87,305.47v1.74h-1v-4.55h1.33a2.32,2.32,0,0,1,1.37.34,1.23,1.23,0,0,1,.44,1,1.19,1.19,0,0,1-.22.71,1.46,1.46,0,0,1-.62.49l1.33,2h-1.07l-1.08-1.74Zm0-.79h.31a1.19,1.19,0,0,0,.67-.15.53.53,0,0,0,.22-.48.51.51,0,0,0-.22-.46,1.37,1.37,0,0,0-.69-.14h-.29Z"/><path class="cls-4" d="M338.76,302.66h1l-1.55,4.55h-1.05l-1.54-4.55h1l.85,2.71c.05.16.1.34.15.56s.09.36.1.44a7.91,7.91,0,0,1,.23-1Z"/><path class="cls-4" d="M340.37,307.21v-4.55h1v4.55Z"/><path class="cls-4" d="M345.23,306a1.17,1.17,0,0,1-.45,1,1.94,1.94,0,0,1-1.23.35,3,3,0,0,1-1.29-.27v-.9a4.61,4.61,0,0,0,.78.29,2.16,2.16,0,0,0,.58.09.75.75,0,0,0,.49-.13.42.42,0,0,0,.17-.36.39.39,0,0,0-.07-.23.86.86,0,0,0-.22-.2,5.33,5.33,0,0,0-.59-.31,2.8,2.8,0,0,1-.63-.38,1.34,1.34,0,0,1-.33-.42,1.22,1.22,0,0,1-.12-.56,1.18,1.18,0,0,1,.4-.95,1.71,1.71,0,0,1,1.13-.34,3,3,0,0,1,.68.08,4.93,4.93,0,0,1,.67.24l-.31.75a4.41,4.41,0,0,0-.6-.21,1.89,1.89,0,0,0-.47-.06.6.6,0,0,0-.42.13.42.42,0,0,0-.14.33.38.38,0,0,0,.06.22.57.57,0,0,0,.19.19,5.25,5.25,0,0,0,.61.32,2.37,2.37,0,0,1,.87.61A1.16,1.16,0,0,1,345.23,306Z"/><path class="cls-4" d="M350.24,304.93a2.51,2.51,0,0,1-.56,1.74,2.45,2.45,0,0,1-3.21,0,2.52,2.52,0,0,1-.56-1.75,2.47,2.47,0,0,1,.56-1.73,2.1,2.1,0,0,1,1.61-.6,2,2,0,0,1,1.6.61A2.47,2.47,0,0,1,350.24,304.93Zm-3.32,0a1.93,1.93,0,0,0,.29,1.15,1,1,0,0,0,.87.38c.76,0,1.15-.51,1.15-1.53s-.38-1.54-1.15-1.54a1,1,0,0,0-.87.39A1.93,1.93,0,0,0,346.92,304.93Z"/><path class="cls-4" d="M352.21,305.47v1.74h-1v-4.55h1.32a2.28,2.28,0,0,1,1.37.34,1.21,1.21,0,0,1,.45,1,1.27,1.27,0,0,1-.22.71,1.49,1.49,0,0,1-.63.49c.68,1,1.13,1.68,1.34,2h-1.07l-1.09-1.74Zm0-.79h.31a1.22,1.22,0,0,0,.68-.15.55.55,0,0,0,.21-.48.49.49,0,0,0-.22-.46,1.37,1.37,0,0,0-.69-.14h-.29Z"/><line class="cls-2" x1="252.42" y1="197.11" x2="252.42" y2="232"/><polygon class="cls-3" points="250.39 230.62 252.42 238.21 254.45 230.62 250.39 230.62"/><polyline class="cls-2" points="168.92 230.91 168.92 214.11 335.42 214.11 335.42 230.91"/><polygon class="cls-3" points="170.95 229.52 168.92 237.11 166.89 229.52 170.95 229.52"/><polygon class="cls-3" points="333.39 229.52 335.42 237.11 337.45 229.52 333.39 229.52"/><path class="cls-22" d="M53.36,139.54H35.29A4.42,4.42,0,0,0,30.87,144v4.49H26.05a4.42,4.42,0,0,0-4.42,4.42V171a4.42,4.42,0,0,0,4.42,4.42H44.12A4.42,4.42,0,0,0,48.54,171v-4.5h4.82A4.42,4.42,0,0,0,57.78,162V144A4.42,4.42,0,0,0,53.36,139.54Z"/><path class="cls-4" d="M50.55,144.3H37.71a2.53,2.53,0,0,0-2.53,2.53v7H28.69a2.52,2.52,0,0,0-2.52,2.52v12.84a2.52,2.52,0,0,0,2.52,2.53H41.53a2.53,2.53,0,0,0,2.53-2.53v-7h6.49a2.52,2.52,0,0,0,2.52-2.53V146.83A2.53,2.53,0,0,0,50.55,144.3Z"/><path class="cls-23" d="M47,148.08H40.83a2.09,2.09,0,0,0-2.09,2.08v5.21a2.08,2.08,0,0,1-2.08,2.08H31.81a2.1,2.1,0,0,0-2.09,2.09v6.12a2.09,2.09,0,0,0,2.09,2.08h6.12A2.08,2.08,0,0,0,40,165.66v-5.2a2.09,2.09,0,0,1,2.09-2.09H47A2.08,2.08,0,0,0,49,156.28v-6.12A2.08,2.08,0,0,0,47,148.08Z"/></svg>