<?xml version="1.0" encoding="utf-8"?>
<svg id="Layer_1" data-name="Layer 1" xmlns="http://www.w3.org/2000/svg" viewBox="0 0 150 150">
  <title>avi-hex-card-icons</title>
  <g id="Layer_1-2" data-name="Layer 1-2">
    <path d="M77.3,55.83l2.3,3.47a2.81,2.81,0,0,0,2.81,1.15l4.09-.82a2.8,2.8,0,0,1,3.26,2.27,2.41,2.41,0,0,1,0,1L88.93,67a2.83,2.83,0,0,0,1.18,2.81l3.48,2.32A2.81,2.81,0,0,1,94.28,76a2.48,2.48,0,0,1-.69.68L90.11,79a2.81,2.81,0,0,0-1.18,2.81l.83,4.09a2.8,2.8,0,0,1-2.26,3.25h0a2.8,2.8,0,0,1-1,0l-4.09-.82a2.78,2.78,0,0,0-2.81,1.18L77.28,93a2.82,2.82,0,0,1-3.91.7,2.91,2.91,0,0,1-.7-.7l-2.3-3.47a2.78,2.78,0,0,0-2.81-1.18l-4.1.88A2.8,2.8,0,0,1,60.22,87v0a3.35,3.35,0,0,1,0-1l.84-4.1a2.82,2.82,0,0,0-1.17-2.76l-3.49-2.31a2.82,2.82,0,0,1-.68-3.91,3,3,0,0,1,.68-.69l3.49-2.31a2.83,2.83,0,0,0,1.18-2.81L60.23,63a2.81,2.81,0,0,1,2.19-3.32,2.7,2.7,0,0,1,1.06,0l4.1.83a2.82,2.82,0,0,0,2.81-1.19l2.3-3.46a2.82,2.82,0,0,1,3.91-.7A2.74,2.74,0,0,1,77.3,55.83Z" style="fill: #fff"/>
    <path d="M66.7,118.64a3.68,3.68,0,0,1-2.6-6.28l2-2a36.83,36.83,0,0,1-1.86-71.43,3.69,3.69,0,1,1,2.23,7l-.23.07h0a29.47,29.47,0,0,0,7.9,57.86,3.68,3.68,0,0,1,2.6,6.28l-7.37,7.37A3.62,3.62,0,0,1,66.7,118.64Z" style="fill: #fff"/>
    <path d="M84.79,111.28a3.68,3.68,0,0,1-.91-7.23A29.47,29.47,0,0,0,76,46.19a3.68,3.68,0,0,1-2.65-6.28l7.34-7.36a3.68,3.68,0,0,1,5.42,5l-.22.21-2,2a36.85,36.85,0,0,1,1.92,71.45A3.73,3.73,0,0,1,84.79,111.28Z" style="fill: #fff"/>
    <g style="opacity: 0.15000000596046448">
      <path d="M66.7,118.64a3.68,3.68,0,0,1-2.6-6.28l2-2a36.83,36.83,0,0,1-1.86-71.43,3.69,3.69,0,1,1,2.23,7l-.23.07h0a29.47,29.47,0,0,0,7.9,57.86,3.68,3.68,0,0,1,2.6,6.28l-7.37,7.37A3.62,3.62,0,0,1,66.7,118.64Z" style="fill: #495565"/>
    </g>
    <g style="opacity: 0.15000000596046448">
      <path d="M84.79,111.28a3.68,3.68,0,0,1-.91-7.23A29.47,29.47,0,0,0,76,46.19a3.68,3.68,0,0,1-2.65-6.28l7.34-7.36a3.68,3.68,0,0,1,5.42,5l-.22.21-2,2a36.85,36.85,0,0,1,1.92,71.45A3.73,3.73,0,0,1,84.79,111.28Z" style="fill: #495565"/>
    </g>
    <circle cx="74.99" cy="74.46" r="5.53" style="fill: none;stroke: #495565;stroke-linecap: round;stroke-linejoin: round;stroke-width: 1.840000033378601px"/>
    <path d="M75,80.9A6.45,6.45,0,0,1,75,68h0" style="fill: none;stroke: #495565;stroke-linecap: round;stroke-miterlimit: 10;stroke-width: 1.840000033378601px;opacity: 0.15000000596046448;isolation: isolate"/>
    <circle cx="74.99" cy="74.46" r="11.05" style="fill: none;stroke: #495565;stroke-linecap: round;stroke-linejoin: round;stroke-width: 1.840000033378601px"/>
    <path d="M75,64.32a10.13,10.13,0,1,1,0,20.26" style="fill: none;stroke: #495565;stroke-linecap: round;stroke-miterlimit: 10;stroke-width: 1.840000033378601px;opacity: 0.15000000596046448;isolation: isolate"/>
    <path d="M77.3,55.83l2.3,3.47a2.81,2.81,0,0,0,2.81,1.15l4.09-.82a2.8,2.8,0,0,1,3.26,2.27,2.41,2.41,0,0,1,0,1L88.93,67a2.83,2.83,0,0,0,1.18,2.81l3.48,2.32A2.81,2.81,0,0,1,94.28,76a2.48,2.48,0,0,1-.69.68L90.11,79a2.81,2.81,0,0,0-1.18,2.81l.83,4.09a2.8,2.8,0,0,1-2.26,3.25h0a2.8,2.8,0,0,1-1,0l-4.09-.82a2.78,2.78,0,0,0-2.81,1.18L77.28,93a2.82,2.82,0,0,1-3.91.7,2.91,2.91,0,0,1-.7-.7l-2.3-3.47a2.78,2.78,0,0,0-2.81-1.18l-4.1.88A2.8,2.8,0,0,1,60.22,87v0a3.35,3.35,0,0,1,0-1l.84-4.1a2.82,2.82,0,0,0-1.17-2.76l-3.49-2.31a2.82,2.82,0,0,1-.68-3.91,3,3,0,0,1,.68-.69l3.49-2.31a2.83,2.83,0,0,0,1.18-2.81L60.23,63a2.81,2.81,0,0,1,2.19-3.32,2.7,2.7,0,0,1,1.06,0l4.1.83a2.82,2.82,0,0,0,2.81-1.19l2.3-3.46a2.82,2.82,0,0,1,3.91-.7A2.74,2.74,0,0,1,77.3,55.83Z" style="fill: none;stroke: #495565;stroke-linecap: round;stroke-linejoin: round;stroke-width: 1.840000033378601px"/>
    <path d="M66.7,118.64a3.68,3.68,0,0,1-2.6-6.28l2-2a36.83,36.83,0,0,1-1.86-71.43,3.69,3.69,0,1,1,2.23,7l-.23.07h0a29.47,29.47,0,0,0,7.9,57.86,3.68,3.68,0,0,1,2.6,6.28l-7.37,7.37A3.62,3.62,0,0,1,66.7,118.64Z" style="fill: none;stroke: #f04f23;stroke-linecap: round;stroke-miterlimit: 10;stroke-width: 1.840000033378601px"/>
    <path d="M84.79,111.28a3.68,3.68,0,0,1-.91-7.23A29.47,29.47,0,0,0,76,46.19a3.68,3.68,0,0,1-2.65-6.28l7.34-7.36a3.68,3.68,0,0,1,5.42,5l-.22.21-2,2a36.85,36.85,0,0,1,1.92,71.45A3.73,3.73,0,0,1,84.79,111.28Z" style="fill: none;stroke: #f04f23;stroke-linecap: round;stroke-miterlimit: 10;stroke-width: 1.840000033378601px"/>
  </g>
</svg>
