<?xml version="1.0" encoding="utf-8"?>
<svg id="Layer_1" data-name="Layer 1" xmlns="http://www.w3.org/2000/svg" viewBox="0 0 150 150">
  <title>avi-hex-card-icons</title>
  <g>
    <g style="opacity: 0.15000000596046448;isolation: isolate">
      <path d="M127.87,56.65a5.74,5.74,0,0,0-6.77-4.46h0a7,7,0,0,0-.89.27A9.54,9.54,0,0,0,101.31,54a9.41,9.41,0,0,0,.39,2.69Z" style="fill: #495565"/>
    </g>
    <g style="opacity: 0.15000000596046448;isolation: isolate">
      <path d="M127.87,56.65a5.74,5.74,0,0,0-6.77-4.46h0a7,7,0,0,0-.89.27A9.54,9.54,0,0,0,101.31,54a9.41,9.41,0,0,0,.39,2.69Z" style="fill: #495565"/>
    </g>
    <g style="opacity: 0.15000000596046448;isolation: isolate">
      <path d="M117.28,93.07H51.89a7.65,7.65,0,0,1,0-15.29h0a7.65,7.65,0,0,1,7.62,7.66,1,1,0,0,1-1,1h0a1,1,0,0,1-.95-1,5.74,5.74,0,0,0-5.72-5.75h0a5.74,5.74,0,0,0,0,11.47h64.19A14.32,14.32,0,1,0,88.6,85.44a1,1,0,0,1-1,1h0a1,1,0,0,1-1-1,16.33,16.33,0,0,1,1.58-6.91,16.22,16.22,0,0,1,29.27,14Z" style="fill: #495565"/>
    </g>
    <path d="M113.8,95.05H52.08L52,95a9.76,9.76,0,0,1-9.38-8.88,9.6,9.6,0,0,1,8.63-10.15A26.71,26.71,0,0,1,77.85,51.09h.05a26.54,26.54,0,0,1,24.59,16.29h.24a18.11,18.11,0,0,1,18.11,18.09,18.48,18.48,0,0,1-.61,4.67A6.7,6.7,0,0,1,113.8,95.05ZM52.87,93.14H113.8a4.75,4.75,0,0,0,4.58-3.5,16.17,16.17,0,0,0-15.65-20.35H101.2l-.24-.6A24.65,24.65,0,0,0,77.9,53h0A24.84,24.84,0,0,0,53.1,77.76v.08H51.36A7.65,7.65,0,0,0,44.54,86a7.83,7.83,0,0,0,7.77,7.12h.49Z" style="fill: #495565"/>
    <path d="M129,104.52H59.13a1,1,0,1,1,0-1.91H129a1,1,0,1,1,0,1.91Z" style="fill: #f04e23"/>
    <path d="M61.31,108.33H47.67a1,1,0,0,1,0-1.91H61.31a1,1,0,0,1,0,1.91Z" style="fill: #f04e23"/>
    <path d="M82.3,99.75H21a1,1,0,1,1,0-1.91H82.3a1,1,0,1,1,0,1.91Z" style="fill: #f04e23"/>
    <path d="M129,57.6H101l-.2-.69a10.64,10.64,0,0,1-.42-3,10.49,10.49,0,0,1,20.54-2.69,6.72,6.72,0,0,1,7.91,5.19Zm-26.6-1.91h24.1a4.79,4.79,0,0,0-5.25-2.56,5.19,5.19,0,0,0-.74.22l-1.06.4-.22-1.11a8.58,8.58,0,0,0-17,1.34A9.09,9.09,0,0,0,102.44,55.69Z" style="fill: #495565"/>
    <path d="M43.56,85.45H20V83.53A10.46,10.46,0,0,1,34.78,74a16.29,16.29,0,0,1,20.39-8.5l-.66,1.8a14.36,14.36,0,0,0-18.35,8.36l-.4,1-1-.57a8.57,8.57,0,0,0-12.88,7.41H43.56Z" style="fill: #495565"/>
    <g style="opacity: 0.15000000596046448;isolation: isolate">
      <path d="M52.15,76.85v1a25.58,25.58,0,0,1,2.68-11.45,15.18,15.18,0,0,0-19.55,8.87l0,0a9.53,9.53,0,0,0-13,3.45A9.65,9.65,0,0,0,21,83.53v1H43.66A8.62,8.62,0,0,1,52.15,76.85Z" style="fill: #495565"/>
    </g>
  </g>
</svg>
