<?xml version="1.0" encoding="utf-8"?>
<svg id="Layer_1" data-name="Layer 1" xmlns="http://www.w3.org/2000/svg" viewBox="0 0 150 150">
  <title>avi-hex-card-icons</title>
  <g id="Layer_1-2" data-name="Layer 1-2">
    <g id="Layer_1-2-2" data-name="Layer 1-2-2">
      <circle cx="46.46" cy="75.17" r="17.89" style="fill: #fff"/>
      <path d="M91.61,46.89a.87.87,0,0,1-.32-.06,1.52,1.52,0,0,1-.28-.19.84.84,0,0,1-.25-.6.77.77,0,0,1,.25-.6.87.87,0,0,1,1.39.27.88.88,0,0,1,.06.33.84.84,0,0,1-.25.6A.88.88,0,0,1,91.61,46.89Z" style="fill: #ff4b00"/>
      <path d="M66.83,71.31a.87.87,0,0,1,.54-1.08h0a.86.86,0,0,1,1.08.54h0a.88.88,0,0,1-.54,1.08h0a.84.84,0,0,1-.27,0h0A.85.85,0,0,1,66.83,71.31ZM70,70a.84.84,0,0,1,.15-1.19h0a.84.84,0,0,1,1.19.15h0a.86.86,0,0,1-.15,1.2h0a.92.92,0,0,1-.52.17h0A.84.84,0,0,1,70,70Zm2.5-2.29a.84.84,0,0,1-.25-1.17h0a.87.87,0,0,1,1.18-.25h0a.84.84,0,0,1,.24,1.17h0a.84.84,0,0,1-.71.39h0A.78.78,0,0,1,72.45,67.69Zm1.61-3a.84.84,0,0,1-.62-1h0a.87.87,0,0,1,1-.63h0a.86.86,0,0,1,.62,1h0a.86.86,0,0,1-.82.65h0A.78.78,0,0,1,74.06,64.71Zm-.34-4.19a.86.86,0,0,1,.85-.85h0a.86.86,0,0,1,.85.85h0a.85.85,0,0,1-.85.86h0A.85.85,0,0,1,73.72,60.52Zm0-3.38a.85.85,0,0,1,.85-.85h0a.85.85,0,0,1,.85.85h0a.85.85,0,0,1-.85.84h0A.85.85,0,0,1,73.72,57.14Zm1-2.54a.85.85,0,0,1-.61-1h0a.85.85,0,0,1,1-.6h0a.82.82,0,0,1,.61,1h0a.84.84,0,0,1-.82.65h0Zm1.1-3.2a.84.84,0,0,1-.25-1.17h0A.84.84,0,0,1,76.7,50h0a.84.84,0,0,1,.24,1.17h0a.87.87,0,0,1-.72.39h0A.78.78,0,0,1,75.77,51.4Zm2.08-2.67A.84.84,0,0,1,78,47.54h0a.86.86,0,0,1,1.2.13h0A.87.87,0,0,1,79,48.88h0a.84.84,0,0,1-.52.18h0A.86.86,0,0,1,77.85,48.73Zm2.83-1.86a.84.84,0,0,1,.52-1.08h0a.85.85,0,0,1,1.08.52h0a.85.85,0,0,1-.52,1.09h0a1.35,1.35,0,0,1-.28,0h0A.83.83,0,0,1,80.68,46.87ZM87.35,46a.84.84,0,0,1,.85-.85h0a.84.84,0,0,1,.85.85h0a.86.86,0,0,1-.85.85h0A.86.86,0,0,1,87.35,46ZM84,46a.84.84,0,0,1,.85-.85h0a.84.84,0,0,1,.85.85h0a.86.86,0,0,1-.85.85h0A.86.86,0,0,1,84,46Z" style="fill: #ff4b00"/>
      <path d="M64.35,72.44a1.26,1.26,0,0,1-.33,0,1.35,1.35,0,0,1-.27-.2.88.88,0,0,1-.19-.27.91.91,0,0,1-.06-.32.82.82,0,0,1,.25-.6A.85.85,0,0,1,65,71a.82.82,0,0,1,.25.6.91.91,0,0,1-.06.32.88.88,0,0,1-.19.27,1.18,1.18,0,0,1-.28.2A1.13,1.13,0,0,1,64.35,72.44Z" style="fill: #ff4b00"/>
      <path d="M91.61,104.82a.88.88,0,0,1-.6-.25,1.07,1.07,0,0,1-.19-.28.92.92,0,0,1-.06-.33.8.8,0,0,1,.25-.59.85.85,0,0,1,1.2,0,.8.8,0,0,1,.25.59.92.92,0,0,1-.06.33,1.07,1.07,0,0,1-.19.28A.88.88,0,0,1,91.61,104.82Z" style="fill: #ff4b00"/>
      <path d="M87.35,104a.85.85,0,0,1,.85-.84h0a.85.85,0,0,1,.85.84h0a.86.86,0,0,1-.85.86h0A.86.86,0,0,1,87.35,104ZM84,104a.85.85,0,0,1,.85-.84h0a.85.85,0,0,1,.85.84h0a.86.86,0,0,1-.85.86h0A.86.86,0,0,1,84,104Zm-2.76.25a.84.84,0,0,1-.52-1.08h0a.84.84,0,0,1,1.08-.52h0a.83.83,0,0,1,.52,1.07h0a.83.83,0,0,1-.8.57h0A.7.7,0,0,1,81.2,104.21ZM78,102.46a.83.83,0,0,1-.14-1.18h0a.84.84,0,0,1,1.19-.15h0a.86.86,0,0,1,.15,1.2h0a.86.86,0,0,1-.68.31h0A.86.86,0,0,1,78,102.46Zm-2.47-2.68a.84.84,0,0,1,.25-1.17h0a.84.84,0,0,1,1.17.23h0A.88.88,0,0,1,76.7,100h0a.89.89,0,0,1-.47.14h0A.85.85,0,0,1,75.52,99.78Zm-1.46-3.36h0a.87.87,0,0,1,.62-1h0a.87.87,0,0,1,1,.62h0a.84.84,0,0,1-.61,1h0a.52.52,0,0,1-.21,0h0A.84.84,0,0,1,74.06,96.42Zm-.34-3.55a.86.86,0,0,1,.85-.87h0a.86.86,0,0,1,.85.87h0a.85.85,0,0,1-.85.84h0A.85.85,0,0,1,73.72,92.87Zm0-3.4a.84.84,0,0,1,.85-.84h0a.84.84,0,0,1,.85.84h0a.86.86,0,0,1-.85.86h0A.86.86,0,0,1,73.72,89.47Zm-.29-3.15a.84.84,0,0,1,.62-1h0a.85.85,0,0,1,1,.6h0a.85.85,0,0,1-.62,1h0a.69.69,0,0,1-.2,0h0A.85.85,0,0,1,73.43,86.32ZM72.18,83.5h0a.85.85,0,0,1,.24-1.18h0a.85.85,0,0,1,1.18.23h0a.87.87,0,0,1-.24,1.19h0a.92.92,0,0,1-.47.14h0A.86.86,0,0,1,72.18,83.5Zm-2.11-2.26h0a.85.85,0,0,1-.16-1.2h0a.85.85,0,0,1,1.19-.16h0a.87.87,0,0,1,.16,1.2h0a.88.88,0,0,1-.68.33h0A.8.8,0,0,1,70.07,81.24ZM67.33,79.8a.84.84,0,0,1-.54-1.06h0a.85.85,0,0,1,1.07-.56h0a.86.86,0,0,1,.54,1.07h0a.83.83,0,0,1-.8.59h0A.84.84,0,0,1,67.33,79.8Z" style="fill: #ff4b00"/>
      <path d="M64.35,79.25a1,1,0,0,1-.33,0,1.35,1.35,0,0,1-.27-.2.83.83,0,0,1-.25-.59.86.86,0,0,1,.25-.61.89.89,0,0,1,1.2,0,.86.86,0,0,1,.25.61A.83.83,0,0,1,65,79a1.18,1.18,0,0,1-.28.2A.86.86,0,0,1,64.35,79.25Z" style="fill: #ff4b00"/>
      <path d="M91.61,75.84a.7.7,0,0,1-.32-.06.77.77,0,0,1-.28-.19.8.8,0,0,1-.25-.59.92.92,0,0,1,.06-.33.87.87,0,0,1,1.58,0,.92.92,0,0,1,.06.33.8.8,0,0,1-.25.59A.84.84,0,0,1,91.61,75.84Z" style="fill: #ff4b00"/>
      <path d="M87.35,75a.84.84,0,0,1,.85-.85h0a.84.84,0,0,1,.85.85h0a.85.85,0,0,1-.85.84h0A.85.85,0,0,1,87.35,75Zm-3.41,0a.84.84,0,0,1,.85-.85h0a.84.84,0,0,1,.85.85h0a.85.85,0,0,1-.85.84h0A.85.85,0,0,1,83.94,75Zm-3.41,0a.84.84,0,0,1,.85-.85h0a.84.84,0,0,1,.85.85h0a.85.85,0,0,1-.85.84h0A.85.85,0,0,1,80.53,75Zm-3.41,0a.84.84,0,0,1,.85-.85h0a.84.84,0,0,1,.85.85h0a.85.85,0,0,1-.85.84h0A.85.85,0,0,1,77.12,75Zm-3.41,0a.84.84,0,0,1,.85-.85h0a.84.84,0,0,1,.85.85h0a.85.85,0,0,1-.85.84h0A.85.85,0,0,1,73.71,75ZM70.3,75a.84.84,0,0,1,.85-.85h0A.84.84,0,0,1,72,75h0a.85.85,0,0,1-.85.84h0A.85.85,0,0,1,70.3,75Zm-3.41,0a.84.84,0,0,1,.85-.85h0a.84.84,0,0,1,.85.85h0a.85.85,0,0,1-.85.84h0A.85.85,0,0,1,66.89,75Z" style="fill: #ff4b00"/>
      <path d="M64.35,75.84a1,1,0,0,1-.33,0,1.05,1.05,0,0,1-.27-.2A.8.8,0,0,1,63.5,75a.84.84,0,0,1,.25-.6.7.7,0,0,1,.27-.19.94.94,0,0,1,.66,0,.7.7,0,0,1,.27.19.84.84,0,0,1,.25.6.8.8,0,0,1-.25.59,1,1,0,0,1-.28.2A.86.86,0,0,1,64.35,75.84Z" style="fill: #ff4b00"/>
      <path d="M121.43,58H95.87V34.11h25.56Z" style="fill: #fff"/>
      <g style="opacity: 0.15000000596046448;isolation: isolate">
        <rect x="95.02" y="33.26" width="27.26" height="5.96" style="fill: #495465"/>
      </g>
      <g style="opacity: 0.15000000596046448">
        <polygon points="120.58 34.95 118.87 36.66 118.87 55.41 120.58 57.1 120.58 34.95" style="fill: #495465"/>
      </g>
      <g style="opacity: 0.15000000596046448">
        <polygon points="96.72 34.95 96.72 57.1 98.43 55.41 98.43 36.66 96.72 34.95" style="fill: #495465"/>
      </g>
      <path d="M121.43,40.07H95.87a.85.85,0,0,1,0-1.7h25.56a.85.85,0,0,1,0,1.7Z" style="fill: #495465"/>
      <g style="opacity: 0.15000000596046448;isolation: isolate">
        <rect x="96.98" y="39.96" width="23.86" height="1.7" style="fill: #495465"/>
      </g>
      <path d="M122.28,58.82H95V33.25h27.26Zm-25.56-1.7h23.86V35H96.72Z" style="fill: #495465"/>
      <path d="M121.43,86.93H95.87V63.08h25.56Z" style="fill: #fff"/>
      <g style="opacity: 0.15000000596046448;isolation: isolate">
        <rect x="95.02" y="62.22" width="27.26" height="5.96" style="fill: #495465"/>
      </g>
      <g style="opacity: 0.15000000596046448">
        <polygon points="120.58 63.92 118.87 65.63 118.87 84.36 120.58 86.08 120.58 63.92" style="fill: #495465"/>
      </g>
      <g style="opacity: 0.15000000596046448">
        <polygon points="96.72 63.92 96.72 86.08 98.43 84.36 98.43 65.63 96.72 63.92" style="fill: #495465"/>
      </g>
      <path d="M121.43,69H95.87a.86.86,0,0,1,0-1.71h25.56a.86.86,0,0,1,0,1.71Z" style="fill: #495465"/>
      <g style="opacity: 0.15000000596046448;isolation: isolate">
        <rect x="96.98" y="68.92" width="23.86" height="1.7" style="fill: #495465"/>
      </g>
      <path d="M122.28,87.77H95V62.23h27.26ZM96.72,86.08h23.86V63.93H96.72Z" style="fill: #495465"/>
      <path d="M121.43,115.9H95.87V92h25.56Z" style="fill: #fff"/>
      <g style="opacity: 0.15000000596046448;isolation: isolate">
        <rect x="95.02" y="91.19" width="27.26" height="5.96" style="fill: #495465"/>
      </g>
      <g style="opacity: 0.15000000596046448">
        <polygon points="120.58 92.89 118.87 94.59 118.87 113.33 120.58 115.03 120.58 92.89" style="fill: #495465"/>
      </g>
      <g style="opacity: 0.15000000596046448">
        <polygon points="96.72 92.89 96.72 115.03 98.43 113.33 98.43 94.59 96.72 92.89" style="fill: #495465"/>
      </g>
      <path d="M121.43,98H95.87a.85.85,0,1,1,0-1.7h25.56a.85.85,0,1,1,0,1.7Z" style="fill: #495465"/>
      <g style="opacity: 0.15000000596046448;isolation: isolate">
        <rect x="96.98" y="97.89" width="23.86" height="1.7" style="fill: #495465"/>
      </g>
      <path d="M122.28,116.75H95V91.19h27.26Zm-25.56-1.7h23.86V92.88H96.72Z" style="fill: #495465"/>
      <g style="opacity: 0.15000000596046448">
        <path d="M46.46,86.23c-10.51,0-18.74-4.86-18.74-11.06S36,64.1,46.46,64.1,65.2,69,65.2,75.17,57,86.23,46.46,86.23Zm0-20.43c-9.4,0-17,4.2-17,9.37s7.64,9.37,17,9.37,17-4.21,17-9.37S55.86,65.8,46.46,65.8Z" style="fill: #495465"/>
        <path d="M46.46,93.91c-6.21,0-11.07-8.24-11.07-18.74s4.86-18.74,11.07-18.74,11.07,8.23,11.07,18.74S52.67,93.91,46.46,93.91Zm0-35.78c-5.17,0-9.37,7.64-9.37,17s4.2,17,9.37,17,9.37-7.65,9.37-17S51.63,58.13,46.46,58.13Z" style="fill: #495465"/>
        <rect x="28.14" y="74.58" width="36.64" height="1.7" style="fill: #495465"/>
        <rect x="45.61" y="57.1" width="1.7" height="36.64" style="fill: #495465"/>
      </g>
      <path d="M46.46,93.91A18.74,18.74,0,1,1,65.2,75.17,18.77,18.77,0,0,1,46.46,93.91Zm0-35.78a17,17,0,1,0,17,17A17.05,17.05,0,0,0,46.46,58.13Z" style="fill: #495465"/>
    </g>
  </g>
</svg>
