<?xml version="1.0" encoding="utf-8"?>
<svg id="Layer_1" data-name="Layer 1" xmlns="http://www.w3.org/2000/svg" viewBox="0 0 150 150">
  <title>avi-hex-card-icons</title>
  <g>
    <circle cx="90.25" cy="62.25" r="26.23" style="fill: #fff"/>
    <path d="M90.26,89.49A27.24,27.24,0,1,1,117.5,62.25,27.27,27.27,0,0,1,90.26,89.49Zm0-52.46a25.22,25.22,0,1,0,25.22,25.22A25.25,25.25,0,0,0,90.26,37Z" style="fill: #495565"/>
    <g style="opacity: 0.15000000596046448;isolation: isolate">
      <path d="M89.91,88.18a26.16,26.16,0,0,1-18.2-7.36,1,1,0,1,1,1.4-1.46,24.22,24.22,0,0,0,34.25-34.25,1,1,0,0,1,1.46-1.4A26.28,26.28,0,0,1,89.91,88.18Z" style="fill: #495565"/>
    </g>
    <g style="opacity: 0.15000000596046448;isolation: isolate">
      <path d="M74.55,79a1.05,1.05,0,0,1-.7-.28,23.23,23.23,0,0,1,32-33.67q.44.41.84.84a1,1,0,1,1-1.46,1.39c-.25-.26-.51-.52-.77-.76a21.2,21.2,0,0,0-30,.76,21.22,21.22,0,0,0,.77,30,1,1,0,0,1-.7,1.75Z" style="fill: #495565"/>
    </g>
    <path d="M90.26,84.45a22.2,22.2,0,1,1,22.2-22.2A22.23,22.23,0,0,1,90.26,84.45Zm0-42.38a20.18,20.18,0,1,0,20.18,20.18A20.21,20.21,0,0,0,90.26,42.07Z" style="fill: #495565"/>
    <g style="opacity: 0.15000000596046448;isolation: isolate">
      <circle cx="90.25" cy="62.25" r="21.19" style="fill: #495565"/>
    </g>
    <path d="M103.09,76.1a1,1,0,0,1-.71-.3,1,1,0,0,1,0-1.42,17.18,17.18,0,0,0,0-24.25,1,1,0,0,1,1.43-1.43,19.19,19.19,0,0,1,0,27.1A1,1,0,0,1,103.09,76.1Z" style="fill: #ff4b00"/>
    <polygon points="36.38 118.98 33.51 116.13 33.51 110.42 57.78 86.15 63.49 86.15 66.35 89.02 66.35 94.73 42.09 118.98 36.38 118.98" style="fill: #fff"/>
    <rect x="63.59" y="82.36" width="9.09" height="4.04" transform="translate(-39.71 72.89) rotate(-45)" style="fill: #fff"/>
    <path d="M42.5,120H36l-3.46-3.44V110L57.36,85.14h6.55l3.45,3.46v6.54Zm-5.71-2h4.88L65.34,94.31V89.44l-2.27-2.28H58.2L34.52,110.84v4.87Z" style="fill: #495565"/>
    <path d="M66.35,90.45l-4.28-4.29,7.85-7.85,4.29,4.28Zm-1.43-4.29,1.43,1.43,5-5-1.43-1.43Z" style="fill: #495565"/>
    <g style="opacity: 0.15000000596046448;isolation: isolate">
      <path d="M67.06,87.87a1,1,0,0,1-.71-.29,1,1,0,0,1,0-1.43l5-5a1,1,0,0,1,1.43,0,1,1,0,0,1,0,1.43l-5,5A1,1,0,0,1,67.06,87.87Z" style="fill: #495565"/>
    </g>
    <g style="opacity: 0.15000000596046448;isolation: isolate">
      <path d="M42,118.65a1,1,0,0,1-.72-1.73L64.62,93.59V90.15l-2.56-2.57a1,1,0,0,1,1.43-1.43l3.15,3.16v5.11L42.71,118.35A1,1,0,0,1,42,118.65Z" style="fill: #495565"/>
    </g>
    <path d="M40.66,115.72A1,1,0,0,1,40,114L62.77,91.15a1,1,0,0,1,1.43,1.43L41.38,115.42A1,1,0,0,1,40.66,115.72Z" style="fill: #495565"/>
    <path d="M37.8,112.85a1,1,0,0,1-.72-.29,1,1,0,0,1,0-1.43L59.92,88.3a1,1,0,1,1,1.43,1.43L38.51,112.56A1,1,0,0,1,37.8,112.85Z" style="fill: #495565"/>
  </g>
</svg>
