<?xml version="1.0" encoding="utf-8"?>
<svg id="Layer_1" data-name="Layer 1" xmlns="http://www.w3.org/2000/svg" viewBox="0 0 150 150">
  <title>1</title>
  <g id="Layer_1-2" data-name="Layer 1-2">
    <g id="Layer_1-2-2" data-name="Layer 1-2-2">
      <path d="M69.61,90.91H36.71l-2.34-2.47a42.08,42.08,0,0,1,84,0l-2.32,2.48H83.62" style="fill: #fff"/>
      <path d="M79.86,95.66a5.85,5.85,0,0,1-9.11-7.35h0a6.35,6.35,0,0,1,.62-.65l.22-.23c2.29-2.28,32.24-24,32.24-24S82.17,93.37,79.86,95.66Z" style="fill: #fff"/>
      <path d="M103.83,63.44s-21.66,30-24,32.22a5.84,5.84,0,0,1-8.26,0h0" style="fill: #e6e7e8"/>
      <path d="M76,57.44A33.48,33.48,0,0,0,42.54,90.91h.4A30.4,30.4,0,0,1,90.6,69l6.08-4.43A33.37,33.37,0,0,0,76,57.44Z" style="fill: #f04f23"/>
      <path d="M116.05,92.09H83.62a1.17,1.17,0,1,1,0-2.34h31.92L117.17,88a40.91,40.91,0,0,0-81.6,0l1.64,1.73h32.4a1.17,1.17,0,0,1,0,2.34H36.71a1.18,1.18,0,0,1-.85-.36l-2.34-2.47a1.2,1.2,0,0,1-.32-.88,43.25,43.25,0,0,1,86.34,0,1.17,1.17,0,0,1-.32.87l-2.32,2.48A1.15,1.15,0,0,1,116.05,92.09Z" style="fill: #4a5666"/>
      <path d="M71.59,96.76h-35a1.17,1.17,0,0,1,0-2.34h35a1.17,1.17,0,0,1,0,2.34Z" style="fill: #4a5666"/>
      <g style="opacity: 0.15000000596046448;isolation: isolate">
        <path d="M114.85,97.93h-77a1.17,1.17,0,1,1,0-2.34h77.05a1.17,1.17,0,1,1,0,2.34Z" style="fill: #4a5666"/>
      </g>
      <path d="M116.12,96.76H79.86a1.17,1.17,0,0,1,0-2.34h36.26a1.17,1.17,0,0,1,0,2.34Z" style="fill: #4a5666"/>
      <g style="opacity: 0.15000000596046448;isolation: isolate">
        <path d="M112.65,91.5a.59.59,0,0,1-.58-.59A35.7,35.7,0,0,0,76.42,55.27h0A35.64,35.64,0,0,0,40.75,90.91a.59.59,0,0,1-.58.59h0a.6.6,0,0,1-.59-.59A36.84,36.84,0,0,1,76.41,54.1h0a36.88,36.88,0,0,1,36.82,36.81A.6.6,0,0,1,112.65,91.5Z" style="fill: #4a5666"/>
      </g>
      <g>
        <circle cx="76.02" cy="90.91" r="2.34" style="fill: #fff"/>
        <path d="M76,94.42a3.51,3.51,0,1,1,3.51-3.51A3.51,3.51,0,0,1,76,94.42Zm0-4.68a1.17,1.17,0,1,0,1.17,1.17A1.17,1.17,0,0,0,76,89.74Z" style="fill: #4a5666"/>
      </g>
      <g style="opacity: 0.15000000596046448;isolation: isolate">
        <path d="M75.73,99.66A8.18,8.18,0,0,1,70,97.27l1.66-1.65a5.83,5.83,0,0,0,8.24,0c.9-.88,6-7.45,25.18-33.79.78-1.08,1.28-1.76,1.4-1.92a1.17,1.17,0,1,1,1.88,1.39l-1.39,1.9C91.23,84.75,82.91,95.9,81.5,97.28A8.13,8.13,0,0,1,75.73,99.66Z" style="fill: #4a5666"/>
      </g>
      <path d="M75.29,99a7,7,0,0,1-5.45-11.43,7.83,7.83,0,0,1,.74-.78l.16-.18c2.35-2.34,31.18-23.25,32.4-24.14l5.93-4.29-4.29,5.93c-.88,1.22-21.47,29.67-24,32.32A6.94,6.94,0,0,1,76.05,99,6.45,6.45,0,0,1,75.29,99ZM98.54,68.73C88.6,76,73.89,86.79,72.42,88.26l-.2.21a6.09,6.09,0,0,0-.57.59A4.68,4.68,0,0,0,79,94.93l.09-.1C80.53,93.35,91.31,78.67,98.54,68.73Z" style="fill: #4a5666"/>
      <g>
        <circle cx="76.02" cy="90.91" r="2.34" style="fill: #fff"/>
        <path d="M76,94.42a3.51,3.51,0,1,1,3.51-3.51A3.51,3.51,0,0,1,76,94.42Zm0-4.68a1.17,1.17,0,1,0,1.17,1.17A1.17,1.17,0,0,0,76,89.74Z" style="fill: #4a5666"/>
      </g>
      <g style="opacity: 0.15000000596046448;isolation: isolate">
        <path d="M75.83,95.53a4.71,4.71,0,0,1-3.15-1.22,1.17,1.17,0,1,1,1.56-1.74,2.36,2.36,0,0,0,3.18,0,2.36,2.36,0,0,0,.17-3.34,1.17,1.17,0,1,1,1.74-1.57,4.7,4.7,0,0,1,1.21,3.39A4.64,4.64,0,0,1,79,94.31,4.72,4.72,0,0,1,75.83,95.53Z" style="fill: #4a5666"/>
      </g>
      <g>
        <circle cx="76.02" cy="90.91" r="2.34" style="fill: #fff"/>
        <path d="M76,94.42a3.51,3.51,0,1,1,3.51-3.51A3.51,3.51,0,0,1,76,94.42Zm0-4.68a1.17,1.17,0,1,0,1.17,1.17A1.17,1.17,0,0,0,76,89.74Z" style="fill: #4a5666"/>
      </g>
      <g style="opacity: 0.15000000596046448;isolation: isolate">
        <circle cx="76.02" cy="90.91" r="2.34" style="fill: #4a5666"/>
      </g>
      <g style="opacity: 0.15000000596046448;isolation: isolate">
        <path d="M116.35,92.08h0a1.17,1.17,0,0,1-1.16-1.17A39.35,39.35,0,0,0,76.87,51.58a39.15,39.15,0,0,0-40,38.3A1.21,1.21,0,0,1,35.67,91a1.17,1.17,0,0,1-1.14-1.19,41.49,41.49,0,0,1,42.4-40.59,41.7,41.7,0,0,1,40.59,41.68A1.17,1.17,0,0,1,116.35,92.08Z" style="fill: #4a5666"/>
      </g>
      <g style="opacity: 0.15000000596046448;isolation: isolate">
        <path d="M117.52,90.91h-2.34A39.21,39.21,0,0,0,76,51.75V49.41A41.55,41.55,0,0,1,117.52,90.91Z" style="fill: #4a5666"/>
      </g>
      <g style="opacity: 0.15000000596046448;isolation: isolate">
        <path d="M29.63,86.19h-.15a1.17,1.17,0,0,1-1-1.31A48,48,0,0,1,76,43a1.17,1.17,0,0,1,0,2.34A45.69,45.69,0,0,0,30.79,85.17,1.17,1.17,0,0,1,29.63,86.19Z" style="fill: #fff"/>
      </g>
      <g style="opacity: 0.15000000596046448;isolation: isolate">
        <path d="M76,52.76a1.33,1.33,0,0,1-.45-.08,1.22,1.22,0,0,1-.38-.26,1.19,1.19,0,0,1-.25-.38,1.12,1.12,0,0,1-.09-.44,1.16,1.16,0,0,1,.34-.83,1.19,1.19,0,0,1,.18-.15l.2-.11a.9.9,0,0,1,.22-.06,1.18,1.18,0,0,1,1.06.32,1.2,1.2,0,0,1,.34.83,1.12,1.12,0,0,1-.09.44,1.19,1.19,0,0,1-.25.38,1.22,1.22,0,0,1-.38.26A1.42,1.42,0,0,1,76,52.76Z" style="fill: #4a5666"/>
      </g>
      <g style="opacity: 0.15000000596046448;isolation: isolate">
        <path d="M86.31,54.12a1.18,1.18,0,0,1-.83-.35,1.19,1.19,0,0,1-.25-.38,1.13,1.13,0,0,1-.09-.45,1.17,1.17,0,0,1,1.4-1.14.9.9,0,0,1,.22.06L87,52l.18.15a1.21,1.21,0,0,1,.34.82,1.13,1.13,0,0,1-.09.45,1.17,1.17,0,0,1-1.08.73Z" style="fill: #4a5666"/>
      </g>
      <g style="opacity: 0.15000000596046448;isolation: isolate">
        <path d="M95.89,58.08a1.33,1.33,0,0,1-.45-.08,1.22,1.22,0,0,1-.38-.26,1.17,1.17,0,0,1-.34-.83,1.12,1.12,0,0,1,.09-.44,1.06,1.06,0,0,1,.11-.21,1.15,1.15,0,0,1,.14-.17l.18-.15.2-.11a.9.9,0,0,1,.22-.06,1.16,1.16,0,0,1,1.06.32,1,1,0,0,1,.25.38,1.12,1.12,0,0,1,.09.44,1.17,1.17,0,0,1-.34.83,1.22,1.22,0,0,1-.38.26A1.42,1.42,0,0,1,95.89,58.08Z" style="fill: #4a5666"/>
      </g>
      <g style="opacity: 0.15000000596046448;isolation: isolate">
        <path d="M104.17,64.4a1.17,1.17,0,0,1-.83-.34,1.17,1.17,0,0,1,0-1.65,1.21,1.21,0,0,1,1.66,0,1.19,1.19,0,0,1,.34.82,1.16,1.16,0,0,1-.34.83,1.22,1.22,0,0,1-.38.26A1.16,1.16,0,0,1,104.17,64.4Z" style="fill: #4a5666"/>
      </g>
      <g style="opacity: 0.15000000596046448;isolation: isolate">
        <path d="M110.46,72.61a1.17,1.17,0,0,1-.83-.34,1.19,1.19,0,0,1-.25-.38,1.13,1.13,0,0,1-.09-.45,1.15,1.15,0,0,1,.34-.82,1.21,1.21,0,0,1,1.66,0,1.19,1.19,0,0,1,.34.82,1.13,1.13,0,0,1-.09.45,1.19,1.19,0,0,1-.25.38,1,1,0,0,1-.38.25A1.17,1.17,0,0,1,110.46,72.61Z" style="fill: #4a5666"/>
      </g>
      <g style="opacity: 0.15000000596046448;isolation: isolate">
        <path d="M114.46,82.22a1.17,1.17,0,0,1-.83-.34,1.17,1.17,0,0,1,0-1.65,1.21,1.21,0,0,1,1.66,0,1.19,1.19,0,0,1,.34.82,1.16,1.16,0,0,1-.34.83A1.17,1.17,0,0,1,114.46,82.22Z" style="fill: #4a5666"/>
      </g>
      <g style="opacity: 0.15000000596046448;isolation: isolate">
        <path d="M37.63,82.22a1.17,1.17,0,0,1-.83-.34,1.17,1.17,0,0,1,0-1.65,1.19,1.19,0,0,1,.18-.15l.2-.11a.9.9,0,0,1,.22-.06,1.18,1.18,0,0,1,1.06.32,1.17,1.17,0,0,1,0,1.65A1.17,1.17,0,0,1,37.63,82.22Z" style="fill: #4a5666"/>
      </g>
      <g style="opacity: 0.15000000596046448;isolation: isolate">
        <path d="M41.6,72.61a1.17,1.17,0,0,1-.83-.34,1.19,1.19,0,0,1-.25-.38,1.13,1.13,0,0,1-.09-.45,1.15,1.15,0,0,1,.34-.82,1.19,1.19,0,0,1,.18-.15l.2-.11a.9.9,0,0,1,.22-.06,1.16,1.16,0,0,1,1.06.32,1.19,1.19,0,0,1,.34.82,1.16,1.16,0,0,1-.34.83A1.17,1.17,0,0,1,41.6,72.61Z" style="fill: #4a5666"/>
      </g>
      <g style="opacity: 0.15000000596046448;isolation: isolate">
        <path d="M47.92,64.4a1.19,1.19,0,0,1-.83-.34,1.16,1.16,0,0,1-.34-.83,1.19,1.19,0,0,1,.34-.82,1.21,1.21,0,0,1,1.66,0,1.19,1.19,0,0,1,.34.82,1.16,1.16,0,0,1-1.17,1.17Z" style="fill: #4a5666"/>
      </g>
      <g style="opacity: 0.15000000596046448;isolation: isolate">
        <path d="M56.17,58.08a1.33,1.33,0,0,1-.45-.08,1.22,1.22,0,0,1-.38-.26,1.17,1.17,0,0,1-.34-.83,1.12,1.12,0,0,1,.09-.44,1.39,1.39,0,0,1,.11-.21,1.15,1.15,0,0,1,.14-.17,1.19,1.19,0,0,1,.18-.15l.2-.11a.9.9,0,0,1,.22-.06,1.17,1.17,0,0,1,1.2.49,2.12,2.12,0,0,1,.11.21,1.12,1.12,0,0,1,.09.44,1.16,1.16,0,0,1-.34.83A1.17,1.17,0,0,1,56.17,58.08Z" style="fill: #4a5666"/>
      </g>
      <g style="opacity: 0.15000000596046448;isolation: isolate">
        <path d="M65.73,54.12a1.17,1.17,0,0,1-.45-.09,1.22,1.22,0,0,1-.38-.26,1.19,1.19,0,0,1-.25-.38,1.13,1.13,0,0,1-.09-.45A1.17,1.17,0,0,1,66,51.8a.9.9,0,0,1,.22.06l.2.11.18.15a1.17,1.17,0,0,1,.34.82,1.13,1.13,0,0,1-.09.45,1.17,1.17,0,0,1-1.08.73Z" style="fill: #4a5666"/>
      </g>
      <g style="opacity: 0.15000000596046448;isolation: isolate">
        <path d="M112.39,55.71a1.16,1.16,0,0,1-.83-.34,50.33,50.33,0,0,0-71.08,0,1.17,1.17,0,0,1-1.66,0,1.19,1.19,0,0,1,0-1.66,52.71,52.71,0,0,1,74.4,0,1.19,1.19,0,0,1,0,1.66A1.16,1.16,0,0,1,112.39,55.71Z" style="fill: #fff"/>
      </g>
      <g style="opacity: 0.15000000596046448;isolation: isolate">
        <path d="M79,45.47a1.33,1.33,0,0,1-.45-.08,1.22,1.22,0,0,1-.38-.26,1.19,1.19,0,0,1-.25-.38,1.13,1.13,0,0,1-.09-.45,1.17,1.17,0,0,1,.34-.82l.18-.15.2-.11a.9.9,0,0,1,.22-.06,1.19,1.19,0,0,1,.46,0,.9.9,0,0,1,.22.06l.2.11a1.19,1.19,0,0,1,.18.15,1.21,1.21,0,0,1,.34.82,1.13,1.13,0,0,1-.09.45,1.19,1.19,0,0,1-.25.38,1.22,1.22,0,0,1-.38.26A1.42,1.42,0,0,1,79,45.47Z" style="fill: #fff"/>
      </g>
    </g>
  </g>
</svg>
