<?xml version="1.0" encoding="UTF-8"?>
<!DOCTYPE svg  PUBLIC '-//W3C//DTD SVG 1.1//EN'  'http://www.w3.org/Graphics/SVG/1.1/DTD/svg11.dtd'>
<svg enable-background="new 0 0 337.2006 141.8398" version="1.1" viewBox="0 0 337.2006 141.8398" xml:space="preserve" xmlns="http://www.w3.org/2000/svg">
	<g fill="#1E1E1C">
		<polygon points="287.93 49.334 287.93 51.365 292.14 51.365 292.14 67.128 294.35 67.128 294.35 51.365 298.57 51.365 298.57 49.334"/>
		<polygon points="273.08 49.334 262.44 49.334 262.44 51.365 266.66 51.365 266.66 67.128 268.87 67.128 268.87 51.365 273.08 51.365"/>
		<rect x="257.11" y="49.334" width="2.2134" height="17.794"/>
		<path d="m248.66 56.604l-1.2715-0.4961c-1.1065-0.4248-2.4712-1.1553-2.4712-2.5489 0-1.5586 1.5537-2.5244 2.9658-2.5244 1.3418 0 2.189 0.5645 2.8486 1.6748l1.7652-1.0625c-0.9649-1.7236-2.5879-2.6894-4.5664-2.6894-2.6836 0-5.2271 1.7226-5.2271 4.6015 0 2.4776 1.8374 3.6358 3.8609 4.5069l1.2251 0.5195c1.5293 0.6377 3.0595 1.4639 3.0595 3.375 0 1.8643-1.3652 3.4688-3.2719 3.4688-1.9063 0-3.4605-1.4161-3.4375-3.3741l-2.2369 0.4737c0.378 2.8535 2.6148 4.9775 5.4859 4.9775 3.1787 0 5.6738-2.3115 5.6738-5.5459 0-2.9736-1.8838-4.3652-4.4023-5.3564z"/>
		<polygon points="224.38 65.1 217.06 65.1 217.06 58.374 224.17 58.374 224.17 56.345 217.06 56.345 217.06 51.365 224.38 51.365 224.38 49.334 214.85 49.334 214.85 67.128 224.38 67.128"/>
		<polygon points="212.55 49.334 210.13 49.334 204.85 62.504 199.56 49.334 197.13 49.334 204.85 68.074"/>
		<rect x="192.61" y="49.334" width="2.2134" height="17.794"/>
		<polygon points="174.45 53.867 187.77 67.861 187.77 49.334 185.56 49.334 185.56 62.48 172.23 48.485 172.23 67.128 174.45 67.128"/>
		<path d="m161.73 67.507c4.0727 0 6.497-2.9971 6.497-6.915v-11.258h-2.2129v10.504c0 2.9013-0.8706 5.5918-4.2841 5.5918-3.4141 0-4.2847-2.6905-4.2847-5.5918v-10.504h-2.2129v11.258c0 3.9179 2.4248 6.915 6.4976 6.915z"/>
		<path d="m238.77 54.41c0-1.7002-0.8476-3.375-2.3315-4.25-1.4116-0.7998-3.1065-0.8261-4.6841-0.8261h-2.6831v17.794h2.2124v-7.5273h0.9185l5.2251 7.5273h2.6845l-5.603-7.7383c2.5669-0.3076 4.2612-2.4326 4.2612-4.9795zm-6.7807 3.3506h-0.7056v-6.4424h0.5884c2.1889 0 4.8266 0.3994 4.8266 3.1856 0 2.832-2.4482 3.2568-4.7094 3.2568z"/>
		<path d="m283.98 52.046c0.7779 0 1.4126-0.6368 1.4126-1.4385 0-0.7793-0.6347-1.416-1.4126-1.416-0.7998 0-1.4355 0.6367-1.4355 1.416 0 0.8017 0.6357 1.4385 1.4355 1.4385z"/>
		<path d="m272.02 67.128h2.3765l2.0253-4.459h8.1446l2.0249 4.459h2.3784l-8.4766-18.547-8.4731 18.547zm5.3198-6.4893l3.1533-7.1972 3.1558 7.1972h-6.3091z"/>
		<path d="m277 52.046c0.8018 0 1.4365-0.6368 1.4365-1.4385 0-0.7793-0.6347-1.416-1.4365-1.416-0.7774 0-1.4131 0.6367-1.4131 1.416 0 0.8017 0.6357 1.4385 1.4131 1.4385z"/>
		<polygon points="157.44 75.659 155.23 75.659 155.23 93.453 162.83 93.453 162.83 91.424 157.44 91.424"/>
		<path d="m227.44 86.515h4.5909c-0.0943 2.9033-3.0586 5.2871-5.8145 5.2871-3.8369 0-6.8974-3.54-6.8974-7.2685 0-3.9883 3.1079-7.2227 7.0859-7.2227 2.167 0 4.3076 1.1563 5.5791 2.9043l1.5542-1.4883c-1.7417-2.1933-4.4727-3.4453-7.2271-3.4453-5.1088 0-9.205 4.2002-9.205 9.3223 0 4.9316 4.0019 9.2275 8.9697 9.2275 4.9682 0 8.4033-3.7519 8.4033-8.6377v-0.708h-7.0391v2.0293z"/>
		<rect x="211.78" y="75.659" width="2.2133" height="17.794"/>
		<polygon points="197.42 75.858 197.42 77.89 205.14 77.89 196.15 93.653 208.75 93.653 208.75 91.623 199.75 91.623 208.75 75.858"/>
		<rect x="178.88" y="75.659" width="2.2138" height="17.794"/>
		<polygon points="165.04 93.453 174.58 93.453 174.58 91.424 167.26 91.424 167.26 84.699 174.36 84.699 174.36 82.669 167.26 82.669 167.26 77.688 174.58 77.688 174.58 75.659 165.04 75.659"/>
		<path d="m188.55 75.659h-2.5434v17.794h2.2119v-7.457h1.2719c3.3667 0 6.2159-1.4395 6.2159-5.1924 0-3.2569-1.6958-5.1446-7.1563-5.1446zm0.377 8.3545h-0.7085v-6.3711h0.5903c2.189 0 4.8247 0.3301 4.8247 3.1153 0 2.831-2.4482 3.2558-4.7065 3.2558z"/>
		<rect x="141.94" y="25.552" width=".521" height="91.213"/>
		<path d="m83.563 25.552c-25.147 0-45.606 20.46-45.606 45.606 0 25.146 20.46 45.607 45.606 45.607 25.148 0 45.606-20.461 45.606-45.607 0-25.146-20.459-45.606-45.606-45.606zm0 90.687c-24.857 0-45.079-20.224-45.079-45.081s20.222-45.079 45.079-45.079 45.081 20.222 45.081 45.079-20.223 45.081-45.081 45.081z"/>
		<path d="m72.371 57.684c0.0088 0.0058 0.1827 0.0791 0.1875 0.0791 0.0118 0 0.104 0.0449 0.1143 0.0459 0.0855-0.0254 0.1191-0.1055 0.1631-0.1914 0.0029-0.0039 0.2407-0.4063 0.417-0.7217 0.1006-0.1826 0.2461-0.3701 0.5669-0.2822 0.103 0.0253 0.289 0.0927 0.4297 0.1474 0.0073-0.0185 0.0151-0.0351 0.0273-0.0517 0.022-0.0274 0.042-0.0547 0.0581-0.087 5e-4 0 0.0186-0.041 0.023-0.0459 0.0175-0.0468 0.0312-0.0918 0.0454-0.1406-0.021-0.0273-0.0332-0.0615-0.0415-0.0957-0.0381-0.0176-0.0674-0.0469-0.0899-0.0791-0.0605-0.0205-0.1191-0.042-0.1728-0.0644-0.4868-0.2002-0.9795-0.0323-1.2422 0.4394-0.1333 0.2412-0.4024 0.5859-0.4834 0.751-0.0503 0.0976-0.0899 0.2246-0.0025 0.2969z"/>
		<path d="m72.098 56.574c0.1362 0.0322 0.2651-0.0859 0.2935-0.1445 0.0254-0.0596-0.0371-0.2012-0.065-0.2559-0.0268-0.0518-0.0854-0.0977-0.188-0.1338-0.1035-0.0351-0.208 0.0029-0.208 0.0029s-0.165 0.0606-0.2051 0.1309c-0.0415 0.0742 0.0142 0.1885 0.0704 0.2588 0.0581 0.0713 0.165 0.1084 0.3022 0.1416z"/>
		<path d="m72.02 58.106c-0.1158-0.0849-0.2359 0.0283-0.2359 0.0283s-0.0581 0.0821-0.0581 0.1993c0 0.1171-0.0029 0.3281 0.5044 0.4492 0.1914 0.0468 0.2998-1e-3 0.3623-0.1573 0.1343-0.3398-0.3227-0.3369-0.5727-0.5195z"/>
		<path d="m95.099 56.902c0.1723 0.0195 0.3154-0.1435 0.3403-0.2207 0.0249-0.0752-0.0732-0.2412-0.1138-0.3027-0.041-0.0625-0.1191-0.1114-0.2519-0.1387-0.1338-0.0312-0.2554 0.0313-0.2554 0.0313s-0.1953 0.0966-0.2353 0.1923c-0.0406 0.0957 0.0434 0.2286 0.1255 0.3086 0.0795 0.0772 0.2172 0.1094 0.3906 0.1299z"/>
		<path d="m99.857 68.547c0.125 0.0127 0.2265-0.1035 0.247-0.1591 0.0166-0.0547-0.0542-0.1748-0.0825-0.2178-0.0302-0.044-0.0859-0.0781-0.1816-0.1006-0.0962-0.0225-0.1841 0.0234-0.1841 0.0234s-0.1416 0.0694-0.1709 0.1387c-0.0278 0.0694 0.0327 0.1651 0.0913 0.2217 0.0567 0.0557 0.1567 0.0791 0.2808 0.0937z"/>
		<path d="m92.595 56.256c-0.0596-0.0429-0.1504-0.0605-0.2842-0.041-0.1338 0.0166-0.2285 0.1152-0.2285 0.1152s-0.1485 0.1612-0.1538 0.2647c-0.0044 0.1025 0.1201 0.1992 0.2241 0.2451 0.1025 0.0449 0.2422 0.0264 0.4121-0.0146 0.1689-0.0391 0.2451-0.2442 0.2432-0.3233-0.0035-0.0801-0.1519-0.2011-0.2129-0.2461z"/>
		<path d="m74.098 57.168c-0.1074-0.0254-0.2046 0.0254-0.2046 0.0254s-0.1597 0.0791-0.1904 0.1563c-0.0327 0.0771 0.0342 0.1826 0.1006 0.247 0.063 0.0635 0.1743 0.0899 0.3149 0.1055 0.1397 0.0166 0.2529-0.1162 0.2744-0.1777 0.02-0.0625-0.0596-0.1953-0.0918-0.2451-0.0337-0.0498-0.0962-0.0879-0.2031-0.1114z"/>
		<path d="m54.85 94.127l-1.6309 0.3614-1.3442-1.8819 0.8794-1.4131-0.3892-0.5439-3.2007 5.2803 6.0693-1.2657-0.3837-0.5371zm-4.5313 0.9961l1.2378-1.998 1.0645 1.4902-2.3023 0.5078z"/>
		<polygon points="50.605 87.309 50.111 87.57 50.806 88.892 46.51 91.153 46.792 91.688 51.582 89.164"/>
		<polygon points="50.035 86.323 49.832 85.74 46.144 86.284 46.139 86.27 49.238 83.354 44.996 82.98 44.992 82.966 48.223 81.107 48.02 80.524 42.974 83.438 47.916 83.813 44.267 87.162"/>
		<path d="m47.682 78.666l-1.6177-0.416-0.3467-2.2862 1.4224-0.8623-0.0986-0.6601-5.2447 3.2568 5.9839 1.6201-0.0986-0.6523zm-4.4917-1.1651l2.0093-1.2177 0.2734 1.8095-2.2827-0.5918z"/>
		<polygon points="46.868 71.66 46.915 71.046 43.314 70.075 43.316 70.06 47.321 68.621 43.579 66.587 43.58 66.573 47.284 66.155 47.331 65.539 41.54 66.202 45.925 68.516 41.243 70.135"/>
		<path d="m47.621 64.387l-1.335-1.002 0.5527-2.2461 1.6446-0.2529 0.1601-0.6465-6.0903 1.0049 4.9101 3.7832 0.1578-0.6406zm-1.8208-1.3731l-1.8838-1.4189 2.3217-0.3604-0.4379 1.7793z"/>
		<polygon points="44.841 56.662 49.365 58.424 49.583 57.861 45.06 56.099 45.54 54.869 45.018 54.663 43.844 57.676 44.366 57.88"/>
		<polygon points="52.149 52.621 51.657 52.354 50.6 54.287 48.734 53.268 49.762 51.389 49.27 51.12 48.243 52.998 46.832 52.226 47.891 50.292 47.399 50.022 46.051 52.486 50.801 55.085"/>
		<path d="m53.727 50.26l-1.9272-1.3935 0.0883-0.1211 2.8863 0.0635 0.4326-0.5996-2.9722-0.0196c0.2129-0.3594 0.2818-0.7178 0.2051-1.0742-0.0762-0.3555-0.2827-0.6562-0.6211-0.9004-0.4966-0.3584-0.9409-0.4297-1.3335-0.2139-0.3916 0.2159-0.7397 0.5303-1.0439 0.9424l-0.4576 0.6358 4.3902 3.1689 0.353-0.4883zm-2.2368-1.8593c-2e-3 0.0019-0.0049 0.0029-0.0122 0.0039l-0.1089 0.1523-1.5776-1.1396 0.1049-0.1446c0.2124-0.2959 0.4419-0.5254 0.689-0.6914 0.2461-0.164 0.5503-0.1152 0.9126 0.1465 0.3389 0.2461 0.4731 0.5166 0.4004 0.8115-0.0713 0.2969-0.2056 0.5821-0.4024 0.8526-0.0014 0.0049-0.0043 0.0078-0.0058 0.0088z"/>
		<polygon points="113.98 51.024 114.43 50.696 113.56 49.485 117.49 46.642 117.14 46.153 112.75 49.324"/>
			<rect transform="matrix(.8672 -.498 .498 .8672 -10.184 65.468)" x="114.92" y="51.524" width="5.4142" height=".6036"/>
		<path d="m117.04 56.628l2.186-0.915 0.169 0.4023c0.0112 0.0273 0.0219 0.0547 0.0337 0.0801 0.0102 0.0254 0.0224 0.0537 0.0327 0.081 0.0844 0.1768 0.1865 0.3457 0.3056 0.5049 0.1187 0.1612 0.2696 0.2901 0.4551 0.3828 0.1856 0.0977 0.3862 0.1504 0.6001 0.1534 0.2134 0.0039 0.419-0.0303 0.6172-0.1026 0.0093-0.0039 0.0171-0.0078 0.0259-0.0127 0.0093-0.0029 0.0176-0.0068 0.0263-0.0097 0.2198-0.0928 0.4131-0.2286 0.5782-0.4092 0.1655-0.1817 0.2719-0.3916 0.3222-0.6299 0.0415-0.1992 0.0406-0.3965-0.0019-0.5908-0.0435-0.1953-0.1006-0.3867-0.1743-0.5733-0.0127-0.0322-0.0254-0.0615-0.0391-0.0918-0.0122-0.0332-0.0229-0.0654-0.0322-0.0957l-0.3443-0.8213-4.9941 2.0918 0.2339 0.5557zm4.4775-1.8779l0.0855 0.207c0.0024 0.0039 0.0034 0.0078 0.0049 0.0107 4e-4 2e-3 0.0019 0.0039 0.0043 0.0098 0.1338 0.3223 0.2125 0.6358 0.233 0.9414 0.0214 0.3067-0.17 0.542-0.5733 0.711-0.3579 0.1513-0.646 0.1376-0.8623-0.0352-0.2168-0.1758-0.3862-0.416-0.5122-0.7266l-0.1553-0.373 1.7754-0.7451z"/>
		<path d="m121.83 60.313c-0.1318 0.2764-0.2241 0.585-0.2788 0.9258l-0.063 0.3574c-2e-3 0.0108-0.0029 0.0196-0.0044 0.0264-1e-3 0.0098-0.0015 0.0176-0.0039 0.0293-0.0444 0.2637-0.1128 0.5059-0.2031 0.7305-0.0904 0.2226-0.2832 0.374-0.5796 0.4502-0.2974 0.0771-0.5698 0.0322-0.8189-0.1358-0.2485-0.1679-0.4096-0.3925-0.4834-0.6757-0.0737-0.2823-0.0395-0.544 0.1011-0.7832 0.1406-0.2393 0.3428-0.4131 0.6065-0.5206l-0.3145-0.5283c-0.3867 0.1895-0.6641 0.4629-0.834 0.8203-0.1694 0.3536-0.1997 0.7432-0.0908 1.1651 0.1182 0.4541 0.373 0.8017 0.7647 1.0439 0.392 0.2422 0.8173 0.3037 1.2763 0.1846 0.4165-0.1084 0.6978-0.3145 0.8408-0.6143 0.1451-0.3027 0.2486-0.6455 0.313-1.0283l0.0552-0.3867c0.0054-0.0352 0.0122-0.0732 0.0181-0.1143 0.0063-0.042 0.0146-0.082 0.0229-0.125 0.0357-0.1679 0.0938-0.33 0.1748-0.4873 0.0801-0.1572 0.2105-0.2588 0.3916-0.3066 0.2412-0.0615 0.4595-0.0254 0.6553 0.1084 0.1953 0.1357 0.3228 0.3183 0.3828 0.5498 0.0581 0.2236 0.0557 0.417-0.0078 0.583-0.064 0.1641-0.1709 0.3203-0.3198 0.4668l0.416 0.3867c0.2217-0.207 0.3721-0.4453 0.4516-0.7148 0.0801-0.2735 0.0821-0.5557 0.0059-0.8477-0.1011-0.3906-0.3096-0.7002-0.6269-0.9316-0.3184-0.2324-0.6802-0.2949-1.0889-0.1895-0.375 0.0987-0.6275 0.2852-0.7588 0.5615z"/>
		<polygon points="123.85 62.438 123.84 62.436 123.84 62.439"/>
			<rect transform="matrix(.9916 -.129 .129 .9916 -7.5326 16.356)" x="119.81" y="66.036" width="5.4143" height=".6032"/>
		<polygon points="120.15 72.605 120.71 72.602 120.69 70.396 122.82 70.382 122.83 72.522 123.39 72.518 123.38 70.377 124.99 70.367 125 72.571 125.56 72.567 125.54 69.76 120.13 69.797"/>
		<polygon points="119.96 75.749 119.85 76.342 123.96 77.104 118.84 80.447 124.4 81.484 124.51 80.891 120.39 80.124 125.51 76.781"/>
		<path d="m122.13 84.503c-0.3637-0.1377-0.6777-0.1318-0.9443 0.0176-0.2676 0.1494-0.522 0.3467-0.7642 0.5937l-0.2588 0.2549c-0.0073 0.0059-0.0136 0.0137-0.018 0.0186-0.0059 0.0058-0.0122 0.0127-0.0196 0.0205-0.1894 0.1894-0.3857 0.3486-0.5888 0.4775-0.2036 0.1309-0.4488 0.1416-0.7344 0.0322-0.2866-0.1074-0.4824-0.3027-0.5879-0.5839-0.1064-0.2813-0.1069-0.5577-0.0029-0.8301 0.1035-0.2735 0.2817-0.4668 0.5346-0.5811 0.2544-0.1142 0.5191-0.1377 0.7964-0.0732l0.0489-0.6123c-0.4239-0.0674-0.8086-0.0069-1.1529 0.1826-0.3457 0.1924-0.5952 0.4932-0.749 0.9004-0.167 0.4365-0.1616 0.8691 0.0181 1.2939 0.1797 0.4239 0.4902 0.7207 0.9341 0.8897 0.4023 0.1533 0.7504 0.1484 1.0429-0.0147 0.2915-0.1631 0.5752-0.3828 0.8491-0.6572l0.2681-0.2812c0.0249-0.0274 0.0523-0.0557 0.0816-0.085 0.0297-0.0303 0.06-0.0596 0.0917-0.0899 0.126-0.1142 0.2667-0.2128 0.4234-0.2959 0.1567-0.08 0.3218-0.0869 0.4966-0.0214 0.2324 0.0888 0.3896 0.2441 0.4717 0.4677 0.081 0.2217 0.0791 0.4463-0.0049 0.6709-0.0821 0.2149-0.1978 0.3711-0.3443 0.4688-0.1469 0.0957-0.3242 0.1621-0.5317 0.1973l0.1162 0.5537c0.2993-0.0381 0.5596-0.1446 0.7813-0.3204 0.2241-0.1757 0.3896-0.4052 0.4965-0.6884 0.1421-0.375 0.1509-0.7491 0.0279-1.1211-0.1255-0.3731-0.3843-0.6348-0.7774-0.7842z"/>
		<polygon points="121.6 87.422 121.6 87.417 121.6 87.419"/>
			<rect transform="matrix(.4599 -.888 .888 .4599 -15.434 153.49)" x="118.16" y="86.727" width=".6036" height="5.4148"/>
		<polygon points="116.99 95.602 116.99 95.6 116.98 95.6"/>
		<path d="m118.16 92.88c-0.3217-0.2168-0.6294-0.2823-0.9233-0.1983-0.2935 0.0859-0.5869 0.2207-0.8775 0.4063l-0.309 0.1894c-0.0098 0.0049-0.0176 0.0117-0.0235 0.0156-0.0063 0.0039-0.0136 0.0098-0.0229 0.0147-0.228 0.1406-0.4546 0.251-0.6821 0.332-0.2276 0.082-0.4688 0.0362-0.7222-0.1347-0.2554-0.1719-0.4019-0.4053-0.4414-0.7022-0.0391-0.2969 0.0224-0.5684 0.1855-0.8115 0.1631-0.2412 0.3804-0.3897 0.6529-0.4414 0.2724-0.0557 0.5371-0.0186 0.7929 0.1074l0.1851-0.585c-0.3975-0.1631-0.7866-0.1904-1.1646-0.082-0.3784 0.1084-0.6899 0.3447-0.9331 0.7051-0.2617 0.3896-0.3535 0.8125-0.2749 1.2656 0.0791 0.4531 0.315 0.8115 0.708 1.0762 0.3575 0.2412 0.6973 0.3144 1.0186 0.2226 0.3218-0.0918 0.647-0.2422 0.9756-0.4472l0.3252-0.2149c0.0312-0.0195 0.0644-0.041 0.0996-0.0625 0.0356-0.0234 0.0718-0.0449 0.1084-0.0644 0.1489-0.086 0.3091-0.1504 0.4795-0.1934 0.1709-0.0439 0.334-0.0146 0.4897 0.0908 0.2061 0.1387 0.3237 0.3252 0.3526 0.5635 0.0293 0.2344-0.023 0.4522-0.1558 0.6504-0.1289 0.1914-0.2759 0.3164-0.4419 0.3789-0.165 0.0625-0.3525 0.0859-0.5625 0.0713l-0.0117 0.5674c0.3003 0.0293 0.5781-0.0156 0.8335-0.1367 0.2583-0.1192 0.4707-0.3057 0.6382-0.5567 0.2251-0.334 0.3193-0.6963 0.2817-1.0879-0.0371-0.3896-0.2305-0.7031-0.5806-0.9384z"/>
		<path d="m55.512 43.902c0.2431 0 0.4394-0.1963 0.4394-0.4394 0-0.2432-0.1963-0.4405-0.4394-0.4405-0.2427 0-0.4395 0.1973-0.4395 0.4405 0 0.2431 0.1968 0.4394 0.4395 0.4394z"/>
		<path d="m111.31 43.027c-0.2436 0-0.4404 0.1973-0.4404 0.4395 0 0.2431 0.1968 0.4394 0.4404 0.4394 0.2417 0 0.439-0.1963 0.439-0.4394 0-0.2422-0.1973-0.4395-0.439-0.4395z"/>
		<path d="m55.647 98.523c-0.2432 0-0.4394 0.1963-0.4394 0.4395 0 0.2441 0.1962 0.4394 0.4394 0.4394s0.4395-0.1953 0.4395-0.4394c0-0.2432-0.1963-0.4395-0.4395-0.4395z"/>
		<path d="m111.74 98.37c-0.2432 0-0.439 0.1982-0.439 0.4404 0 0.2432 0.1958 0.4385 0.439 0.4385s0.4404-0.1953 0.4404-0.4385c0-0.2422-0.1972-0.4404-0.4404-0.4404z"/>
	</g>
	<path d="m83.57 27.329c-24.166 0-43.829 19.662-43.829 43.828 0 15.36 7.9502 28.893 19.946 36.722l0.227 0.1445c6.8291 4.3984 14.947 6.9629 23.656 6.9629 24.167 0 43.828-19.663 43.828-43.829s-19.661-43.828-43.828-43.828zm0.0468 2.6806h0.9766v-0.5273h-0.9766v-1.3242c2.6963 0.0644 5.0962 1.2578 6.0518 2.9951h-6.0518v-1.1436zm7.1592 1.6709v0.8799h-14.806v-0.8799h14.806zm14.278 17.613v-5.8623c8.6939 6.6436 13.874 17.08 13.874 28.022 0 1.5059-0.1016 3-0.2925 4.4766h-3.6357s-0.0225-3.8008-0.0313-6.5274l2.0107 1.8701 0.3907-0.4189-2.4258-2.2481c-0.0025-1.1298-0.0044-3.582-0.0044-3.582 0.0518 0.126 0.1753 0.2168 0.3208 0.2168 0.1914 0 0.3476-0.1553 0.3476-0.3477 0-0.1914-0.1562-0.3476-0.3476-0.3476-0.1455 0-0.269 0.0898-0.3208 0.2168v-0.9111c0.0518 0.1259 0.1753 0.2168 0.3208 0.2168 0.1914 0 0.3476-0.1553 0.3476-0.3477 0-0.1914-0.1562-0.3467-0.3476-0.3467-0.1455 0-0.269 0.0889-0.3208 0.2158v-0.9111c0.0518 0.1279 0.1753 0.2168 0.3208 0.2168 0.1914 0 0.3476-0.1562 0.3476-0.3486 0-0.1905-0.1562-0.3467-0.3476-0.3467-0.1455 0-0.269 0.0898-0.3208 0.2168v-0.3916h-0.1279c0.1108-0.0567 0.1889-0.1699 0.1889-0.3037 0-0.1924-0.1557-0.3477-0.3476-0.3477s-0.3477 0.1553-0.3477 0.3477c0 0.1338 0.0777 0.247 0.188 0.3037h-0.1274v0.3574c-0.0591-0.1064-0.169-0.1826-0.2998-0.1826-0.1919 0-0.3477 0.1562-0.3477 0.3467 0 0.1924 0.1558 0.3486 0.3477 0.3486 0.1308 0 0.2407-0.0752 0.2998-0.1826v0.8428c-0.0591-0.1065-0.169-0.1817-0.2998-0.1817-0.1919 0-0.3477 0.1553-0.3477 0.3467 0 0.1924 0.1558 0.3477 0.3477 0.3477 0.1308 0 0.2407-0.0762 0.2998-0.1817v0.8418c-0.0591-0.1064-0.169-0.1826-0.2998-0.1826-0.1919 0-0.3477 0.1562-0.3477 0.3476 0 0.1924 0.1558 0.3477 0.3477 0.3477 0.1308 0 0.2407-0.0742 0.2998-0.1836v3.3926l-3.0162 0.0088c-4e-4 -0.0723-0.0371-11.232-0.0371-11.232 0.0523 0.1259 0.1758 0.2168 0.3208 0.2168 0.1919 0 0.3477-0.1573 0.3477-0.3487s-0.1558-0.3467-0.3477-0.3467c-0.145 0-0.2685 0.0889-0.3208 0.2159v-0.9102c0.0523 0.126 0.1758 0.2168 0.3208 0.2168 0.1919 0 0.3477-0.1562 0.3477-0.3486 0-0.1914-0.1558-0.3467-0.3477-0.3467-0.145 0-0.2685 0.0898-0.3208 0.2158v-0.9092c0.0523 0.125 0.1758 0.2149 0.3208 0.2149 0.1919 0 0.3477-0.1543 0.3477-0.3477 0-0.1924-0.1558-0.3467-0.3477-0.3467-0.145 0-0.2685 0.0899-0.3208 0.2159v-0.3907h-0.1274c0.1103-0.0566 0.188-0.1689 0.188-0.3037 0-0.1894-0.1553-0.3467-0.3477-0.3467-0.1919 0-0.3476 0.1573-0.3476 0.3467 0 0.1348 0.0781 0.2471 0.1885 0.3037h-0.1275v0.3555c-0.0586-0.1055-0.1689-0.1807-0.2998-0.1807-0.1919 0-0.3481 0.1543-0.3481 0.3467 0 0.1934 0.1562 0.3477 0.3481 0.3477 0.1309 0 0.2412-0.0752 0.2998-0.1817v0.8418c-0.0586-0.1064-0.1689-0.1816-0.2998-0.1816-0.1919 0-0.3481 0.1553-0.3481 0.3467 0 0.1924 0.1562 0.3486 0.3481 0.3486 0.1309 0 0.2412-0.0752 0.2998-0.1836v0.8428c-0.0586-0.1055-0.1689-0.1817-0.2998-0.1817-0.1919 0-0.3481 0.1553-0.3481 0.3467s0.1562 0.3487 0.3481 0.3487c0.1309 0 0.2412-0.0762 0.2998-0.1827v6.2227c-1.0771-4.9053-3.8076-8.583-5.6846-9.9043v-3.7559h1.4712v-0.5283h-1.4712zm-0.5415 49.872c-0.0312 0.039-0.0678 0.0723-0.1069 0.1035-0.0688 0.0811-0.1519 0.1504-0.2534 0.1992-0.3838 0.2881-0.959 0.4024-1.3613 0.4444-0.3711 0.0498-0.8174-0.3194-1.0498-0.5577 0.5507-0.8213 0.3901-1.8789 0.3837-1.917-0.0171-0.1357-0.4399-3.3349-0.7636-4.8476-0.2705-1.2686-0.0547-3.4053 0.6084-6.0244 0.1035-0.4131 0.2002-0.8906 0.2851-1.4219 0.3467-2.1602 0.4595-4.8584 0.3897-6.3008-0.0689-1.4453-0.8535-3.4228-1.1768-4.1826 0.0742-0.0186 0.148-0.0381 0.2207-0.0596 2.7608 3.2901 2.8008 5.6035 2.8174 6.8575l0.0137 17.709c-0.0015-0.0019-0.0049-0.0019-0.0069-0.0019zm0.0069 0.6933v5.5538l-1.295-3e-3 -0.0239-5.0244c0.5576-0.0976 1.0025-0.2764 1.3189-0.5264zm-7.6812 4.0889s-0.0327-0.7871-0.0845-1.1474c-0.0727-0.5186-0.2153-0.9307-0.3335-1.2081 0.1055-0.0439 0.2071-0.1005 0.3038-0.1826 0.3061-0.2578 0.4477-0.5107 0.5615-0.7129 0.1382-0.248 0.2217-0.3974 0.4897-0.5029 0.4492-0.0693 0.773-0.0254 1.1153 0.0225 0.0288 0.0039 0.0571 0.0078 0.0864 0.0117-0.3076 0.7207-1.0264 2.4834-1.0039 3.1748 0.0068 0.1904 0.0513 0.3691 0.1098 0.5449h-9e-4s0.0014 1e-3 0.0019 0.0029c0.0537 0.1309 0.3589 0.7637 0.4712 0.9532 0.1963 0.3388 0.4209 0.7197 0.6265 1.2041 0.1035 0.2451 0.1094 0.4463 0.0166 0.6211-0.188 0.3535-0.7559 0.5351-0.9336 0.5703-0.5103 0.0468-1.1636 0.0127-1.3189-0.1045-0.1264-0.0967-0.0991-0.7412-0.0859-1.0518 0.0107-0.2461-0.0269-2.0605-0.0215-2.1953zm-18.037 5.9443l1.2573-1.8691h0.2749v1.8691h-1.5322zm1.5322 0.4913v0.8828c-0.6342-0.0537-1.1928-0.0791-1.6128-0.0889-1.1586-0.0342-1.8969 0.0869-2.5708 0.2773v-3.4316h3.2715l-1.5796 2.3555 2.4917 0.0049zm-14.64-2.8877l0.0034-2.0782-1.5727-0.0039v-1.0615h2.5507l0.0035 0.0147 0.0175-0.0147h2.4121c-0.2788 0.3936-0.4795 0.7832-0.5385 0.9775-0.1153 0.3799-0.0806 0.9239 0.7382 1.3624 0.1636 0.0888 0.3716 0.1269 0.5957 0.1269 0.6617 0 1.46-0.3301 1.6583-0.6523 0.1938-0.3106 0.2299-1.127 0.1484-1.7793h1.0596c0.0922 0.2431 0.2558 0.4736 0.5468 0.5859l0.062 0.0234c0.2305 0.0918 0.4209 0.1524 0.6124 0.1524 0.3183 0 0.6416-0.167 1.1582-0.6328 0.2226 0.4033 0.4252 0.6582 0.6391 0.7881 0.1587 0.0966 0.3457 0.3261 0.5274 0.5459 0.3403 0.415 0.7246 0.8857 1.2304 0.8857 0.1001 0 0.2217 0.0049 0.3531 0.0098 0.1718 0.0068 0.3588 0.0156 0.5459 0.0156 0.6777 0 1.372-0.0938 1.5019-0.6387 0.2144-0.8984-0.7212-1.289-1.2808-1.5234-0.1582-0.0664-0.3017-0.125-0.3989-0.1865-0.0058-3e-3 -0.0185-0.0186-0.0278-0.0254h10.377c-0.1718 0.166-0.3452 0.3056-0.5341 0.4091-0.6451 0.3575-1.2818 1.1075-1.189 1.7989 0.0469 0.3398 0.1103 0.6738 0.1562 0.9004h-21.356zm-2.1089-16.688v14.604l-1.3237-1e-3v-51.236c0.5688 0.2949 1.4419 0.6367 2.9868 0.9414-0.0254 0.2421-0.0401 0.4843-0.0401 0.7334 0 1.5439 0.4996 3.0009 1.441 4.2158-0.8423 0.5674-2.0513 1.4922-3.0054 2.8955-0.6226 0.833-0.6919 4.1025-0.6929 4.1347-0.0205 1.0889 0.3155 2.7188 0.5005 3.3477 0.2095 0.7158 0.1235 1.4072 0.0557 1.9629-0.0269 0.2217-0.0518 0.4238-0.0557 0.6006-0.0083 0.2773-0.1289 0.8183-0.2471 1.3398-0.1357 0.6035-0.2631 1.1758-0.2534 1.4864 0.0186 0.7148 0.3535 1.3515 0.6343 1.7714v10.412l-0.5884 0.2129 0.5884 2.5782zm-1.3237-52.248v-0.6474l5.8222-3.1846v8.3838c-0.7915-1.1006-2.1992-2.1748-2.6455-2.501v-2.0938h-0.5473v2.1231c-0.4141 0.2949-1.5996 1.1611-2.6294 2.1035v-3.6562h1.2597v-0.5274h-1.2597zm2.9228 2.4785c0.8506 0.626 2.8472 2.2891 2.8994 3.3868v4.8681h-5.8222v-5.8672c1.0595-1.0263 2.4731-2.0654 2.9228-2.3877zm3.5733 8.7832c-0.8682 0.4825-1.6177 1.1534-2.2041 1.9512-1.9263-0.375-3.4073-0.8281-4.2813-1.3144l-0.0107 0.0166v-0.6534h6.4961zm7.9614-11.262v-5.4717h13.342v5.4717h-1.124v0.5274h1.124v10.206h-0.8198c-0.3917-2.9355-4.9283-9.9541-5.5801-10.951v-2.664h-0.6148v2.6787c-0.6919 1.042-5.0796 7.749-5.4585 10.936h-0.8691v-10.206h1.1235v-0.5274h-1.1235zm14.595 11.262c-1.2139 0.6787-2.1997 1.7139-2.8223 2.9629-1.8715-0.2656-3.4882-0.7265-4.6079-1.2705 0.1792-0.084 0.3814-0.3037 0.3814-0.3037 0.1767-0.206 0.2856-0.4668 0.2856-0.7549 0-0.2344-0.0703-0.4511-0.1904-0.6338h6.9536zm-0.6372-0.5283v-5.4277c0-0.8018 2.6753-2.6641 3.146-3.001 0.7969 0.5869 2.6548 2.168 2.8213 3.2363v5.1368c-0.627-0.1875-1.2886-0.2911-1.9761-0.2911-0.751 0-1.4726 0.1231-2.1504 0.3467h-1.8408zm-0.2954 9.5742c-0.2114-0.3506-0.4307-0.7148-0.416-1.0654 0.0151-0.3896 0.1699-0.6377 0.3354-0.9004 0.1807-0.2871 0.3682-0.583 0.3306-1.0224-0.0562-0.6651 0.1338-2.2491 1.0718-2.6338 0.791-0.3301 1.2417-0.1465 1.5429 0.1191-0.3838 0.0488-0.7285 0.1689-0.9731 0.3633-0.6743 0.5351-0.8589 1.0508-0.959 1.5293-0.0532 0.2578-0.2144 1.8994-0.1787 2.3935 0.0415 0.6319 0.2817 1.2471 0.4067 1.5127l-0.0039 2e-3c2e-3 0.0019 0.1328 0.2031 0.189 0.6348 0.0527 0.4091 0.0737 1.2939 0.0693 1.6982-0.2715 0.0791-0.8271 0.2217-1.3452 0.2314-0.1963 0.0059-0.4048-0.0039-0.5073-0.0097-0.0635-0.0059-0.1206-0.0069-0.1919-0.0215-0.4439-0.084-0.8032-0.1797-1.0493-0.252-0.085-0.2949-0.1446-0.7402 0.0322-0.8222 0.126-0.0537 0.3189-0.0157 0.5244 0.0234 0.4111 0.0801 0.9712 0.1904 1.3828-0.4121 0.2998-0.4355 0.0147-0.9092-0.2607-1.3682zm8.4951 1.1299c0.1519 0.0488 0.312 0.0694 0.4678 0.0694 0.1792 0 0.3515-0.0264 0.5024-0.0606 0.103 0.1084 0.8111 0.9004 1.167 2.0244-0.2954-0.084-1.0361-0.6172-1.0361-0.6172-0.0449-0.0322-0.9458-0.6367-1.9932-0.6621-0.415-0.0107-0.9761 0.1719-1.2886 0.2813-4e-4 -0.0371 0.0059-0.0811 0.0025-0.1133-0.0274-0.2725-0.082-0.541-0.1284-0.7363 0.0127 0-0.0284-0.1465-0.0567-0.2246-0.0132-0.0479-0.0224-0.0801-0.0239-0.085l-0.0064 0.0019c-0.0898-0.2832-0.1132-0.5918-0.0385-0.871 0.2134-0.8057 0.1294-2.2471 0.0581-3.0352-0.0435-0.4912-0.3906-1.7275-1.1314-2.1875-0.2465-0.1514-0.5307-0.2617-0.8266-0.3369 0.3027-0.2569 0.6733-0.457 1.4243-0.418 0.3218 0.0186 0.6572 0.2344 0.9463 0.6035 0.4697 0.6026 0.7143 1.4688 0.5942 2.1075l-0.0342 0.1787c-0.2006 1.0127-0.6718 3.3867 1.4014 4.081zm2.6621-4.8154c1.4634-0.2852 2.333-0.6338 2.9878-0.9873v13.646c-0.0508-0.0879-0.0967-0.1719-0.1509-0.2608l-0.0747-0.126c-0.0498-0.0859-0.1499-0.1992-0.3149-0.3847-0.6035-0.6817-2.0181-2.2764-2.2764-4.3545-0.1777-1.4317-1.0141-2.5352-1.3628-2.9385 0.8037-1.1582 1.2261-2.5098 1.2261-3.9267 0-0.2266-0.0122-0.4483-0.0342-0.668zm-0.082-0.5654c-0.1499-0.8223-0.4453-1.5899-0.8584-2.2842 1.6982-0.3408 3.0171-0.7344 3.9282-1.1748v2.3838c-0.645 0.3759-1.4844 0.7617-3.0698 1.0752zm-15.6 24.142c-0.2442-0.4472-0.521-0.9531-0.7612-1.7021-0.5318-1.6641 2.1845-3.0361 3.3432-3.624 0.1499-0.0743 0.2798-0.1407 0.4336-0.2246 0.939-0.5069 2.103-1.1377 3.4932-0.8223 0.1875 0.042 0.4404 0.0996 0.7295 0.1426-0.1685 0.5488-0.6348 1.955-1.2417 2.8027-0.816 1.1406-2.1162 2.6035-2.5747 2.9033-0.6055 0.3926-1.4458 1.6846-1.7305 2.6572-0.1709 0.5831-0.6309 2.1543-1.2793 2.8272 0.063-0.665 0.1309-1.3721 0.2139-2.1221 0.1567-1.4121-0.1885-2.042-0.626-2.8379zm-0.1792 12.637c0.4658 0.6298 1.2178 1.415 1.5102 1.7119-0.5244 0.9023-0.8569 2.0244-1.1582 3.4492-0.313 1.4844-0.2353 2.5283 0.2373 3.1894 0.4795 0.6719 1.2349 0.7627 1.6861 0.8194 0.4677 0.0576 0.9883-0.0303 1.5361-0.1338 0.1104 0.3389 0.3047 1.001 0.3047 1.456 0 0.1524 0.0088 0.2901 0.0166 0.419 0.0273 0.4404 0.0444 0.706-0.3213 1.124l-0.1938 0.2227c-0.063 0.0722-0.1206 0.1386-0.1807 0.207h-7.8897c-0.0991 0.0527-0.6904-2e-3 -0.7631-2e-3 -0.0557 0-0.5083-0.039-0.6973-0.0263-0.019 0.0088-0.0396 0.0185-0.0566 0.0234l0.0019 0.0049h-1.6807c-0.0083-0.1387-0.0205-0.3301-0.0351-0.5537 1.0723-0.0791 2.6113-0.5195 2.8979-0.6406 0.4556-0.1924 0.7452-0.4756 0.8623-0.8409 0.2168-0.6796-0.2338-1.413-0.5029-1.8525-0.0615-0.0986-0.1113-0.1748-0.1289-0.2217l-0.0156 0.0039c-0.0029-0.0058-0.0064-0.0127-0.0103-0.0195-0.1743-0.3252-0.3393-0.6348-0.4272-0.8691-0.27-0.7178-0.2549-3.1846 0.1465-4.9336 0.2334-1.0137 0.6523-1.5489 1.0966-2.1192 0.3033-0.3847 0.6158-0.7851 0.856-1.333 0.3789-0.8584 0.2471-1.8857 0.0186-3.2422l-0.0669-0.3906c-0.1914-1.1152-0.3311-1.918-0.0684-2.7803 0.0264-0.0849 0.0757-0.1777 0.1323-0.2861 0.2935-0.5654 0.7837-1.5107 0.2456-3.6943-0.1782-0.7207-0.0786-1.2676 0.0264-1.8457 0.1187-0.6543 0.2412-1.3282-0.0547-2.2276-0.2168-0.6572 0.0664-2.0771 0.3272-2.6572 0.5307 0.8506 1.2915 1.5215 1.7006 1.8467-0.4487 0.5849-0.6757 1.2578-0.4345 2.0136 0.2544 0.7998 0.5459 1.3272 0.8012 1.794 0.4234 0.7715 0.7027 1.2822 0.564 2.5273-0.0869 0.7754-0.1562 1.5049-0.2212 2.1914-0.1118 1.1905-0.209 2.2159-0.3633 3.1377-0.2089 1.2452-0.3798 3.6016 0.3023 4.5284zm15.26-24.148c-0.4516-0.4649-1.4389-0.21-1.9492 0.0166-0.4668 0.207-1.3296 0.7363-1.2583 1.2705 0.0425 0.3066 0.3565 0.4092 0.6094 0.4912 0.0962 0.0293 0.2769 0.0889 0.3047 0.1152 0.0503 0.2471-0.0308 0.5811-0.1724 0.7178-0.0679 0.0645-0.1933 0.2119-0.331 0.3926-0.6119-0.4463-0.9864-1.165-0.9864-1.9287 0-1.3154 1.0703-2.3887 2.3887-2.3887 1.3174 0 2.3887 1.0733 2.3887 2.3887 0 0.542-0.1895 1.0625-0.5249 1.4844-0.1504 0.0195-0.291 0.0351-0.3677 0.0136-0.0581-0.0175-0.1572-0.0556-0.1855-0.1113-0.0547-0.1123 0.0581-0.4004 0.1572-0.6504 0.2055-0.5195 0.4848-1.2344-0.0733-1.8115zm-2.8803 4.2305c0.0439-0.3174 0.581-1.0489 0.7783-1.2393 0.2715-0.2588 0.4106-0.7773 0.3237-1.2012-0.0644-0.3222-0.3935-0.4277-0.6577-0.5136-0.0884-0.0293-0.2373-0.0743-0.2485-0.0508 0.0141-0.1153 0.3852-0.4785 0.9467-0.7256 0.5567-0.2471 1.1919-0.3076 1.3599-0.1338 0.3008 0.3096 0.1802 0.6973-0.0386 1.252-0.1523 0.3867-0.2964 0.7539-0.1401 1.0742 0.0869 0.1806 0.2583 0.3105 0.5078 0.3847 0.19 0.0557 0.4053 0.0274 0.6318 0 0.503-0.0683 1.0699-0.1425 1.6797 0.5879 0.1451 0.1729 0.0142 0.6641-0.0913 1.0547-0.1352 0.5029-0.2641 0.9805-0.0268 1.292 0.0337 0.043 0.0825 0.0918 0.1377 0.1416-0.1177 0.0645-0.2784 0.1465-0.4746 0.2373-0.3951-0.4785-0.4473-0.6621-0.8516-0.8486-0.0845-0.041-0.0903-0.2002-0.0874-0.4043 1e-3 -0.2002 0.0039-0.4766-0.2481-0.5645-0.2553-0.0898-0.6782-0.0127-1.2724 0.8418-0.1895 0.2744-0.5718 0.293-0.9536 0.2998 0.0254-0.0673 0.0571-0.1416 0.081-0.1953 0.1255-0.29 0.2432-0.5635 0.0469-0.7451-0.1934-0.1797-0.46-0.0371-0.5742 0.0225-0.2588 0.1347-0.6255 0.2363-0.981 0.3105 0.0708-0.3105 0.1162-0.6191 0.1524-0.8769zm0.8491 1.1347c-0.1172 0.2725-0.2134 0.5274-0.083 0.7217 0.0405 0.0606 0.1333 0.1592 0.3135 0.1592h0.0102l0.1245-0.0049c0.4614-0.0059 1.0913-0.0146 1.4463-0.5264 0.2564-0.3691 0.4497-0.5351 0.561-0.6045v0.0215c-0.0029 0.2627-0.0068 0.7012 0.3946 0.8867 0.2046 0.0987 0.3467 0.2833 0.6128 0.5704-0.6436 0.2558-1.4873 0.5048-2.3496 0.5097-1.1866 0.0176-2.2886-0.2988-2.898-0.5146 0.0806-0.0557 0.1597-0.1162 0.2339-0.1807 0.2061-0.1807 0.3555-0.4394 0.4658-0.7275 0.3789-0.0674 0.813-0.166 1.168-0.3106zm1.2314 2.251c0.274-0.0107 0.5445-0.042 0.8062-0.0879 0.2778 0.6465 1.1069 2.6826 1.1753 4.0908 0.0679 1.4151-0.0425 4.0664-0.3838 6.1934-0.0098 0.0625-0.0191 0.1211-0.0298 0.1836-3.0322-0.7158-4.6743 0.8037-6.4131 2.4101-1.1997 1.1114-2.4389 2.2569-4.2441 2.7774-1.4224 0.4111-2.4014 0.9502-3.1187 1.6885 0.2295-0.6592 0.7666-1.6495 2.0205-2.3985 0.6665-0.3974 1.0899-1.1093 1.4981-1.8008 0.2734-0.4619 0.5571-0.9394 0.9087-1.3115 0.9135-0.9658 1.4179-1.4599 2.1552-2.1064l0.2442-0.2129c0.6606-0.5742 1.2856-1.1182 2.1733-2.332 0.8692-1.1915 2.0357-3.1973 2.7017-5.2549 0.2925-0.9063 0.436-1.4795 0.5063-1.8389zm0.71 17.836c0.3179 1.4922 0.751 4.7735 0.7568 4.8135 2e-3 0.0098 0.149 0.9639-0.3398 1.6133-0.2539 0.3389-0.6441 0.5381-1.1607 0.6025-0.4711 0.0547-0.7973 0.0127-1.142-0.0361-0.3633-0.0488-0.7388-0.1006-1.3194-0.0068-0.5 0.1875-0.6606 0.4746-0.8164 0.7519-0.1064 0.1895-0.209 0.3711-0.4414 0.5703-0.0239 0.0196-0.0518 0.0274-0.0771 0.043 0.1079-0.8135 0.3964-2.9551 0.476-3.6221 0.2837-2.3457-0.1587-4.708-1.2817-6.8271-0.438-0.8301-0.0073-2.2158 0.0913-2.5078 0.019-0.0166 0.0376-0.0352 0.0571-0.0528 1.7051-1.5771 3.1851-2.9463 5.9595-2.2793-0.0478 0.2393-0.0991 0.4659-0.1514 0.6739-0.4814 1.9052-0.979 4.54-0.6108 6.2636zm1.7539 7.7266l0.0171 3.5205h-3.9795c-0.0815-0.1904-0.1343-0.3711-0.1406-0.5635-0.0191-0.5664 0.6899-2.3261 1.0283-3.1074 0.1899 0.0078 0.3965 0.0039 0.6396-0.0244 0.4966-0.0605 0.9058-0.2266 1.2261-0.498 0.2359 0.2382 0.6919 0.6162 1.209 0.6728zm-12.266 1.8477c-0.0078-0.1182-0.0151-0.2471-0.0151-0.3868 0-0.498-0.1861-1.164-0.3086-1.5488 0.4033-0.0732 0.8169-0.1387 1.2666-0.1582 0.4121-0.0107 0.7861 0.0381 1.1313 0.1172-0.0654 0.0889-0.1357 0.1875-0.2178 0.3018-0.874 1.2226-0.6259 2.3877-0.4707 2.7002 0.0235 0.0439 0.0547 0.1025 0.0938 0.1689 0.1738 0.3086 0.4643 0.8232 0.4077 1.292-0.0474 0.3994-0.915 0.7187-1.3696 0.7998-0.4038 0.0742-0.9068 0.291-1.5371 0.665-0.4986 0.2969-1.3194 0.7979-1.7691 1.0743-0.0415-0.2149-0.0932-0.4961-0.1313-0.7764-0.0581-0.4209 0.4301-0.9951 0.9209-1.2656 0.3798-0.2071 0.6855-0.503 1.0156-0.8711h0.0312v-0.0342c0.1001-0.1133 0.2022-0.2295 0.3096-0.3555l0.1919-0.2197c0.5083-0.5811 0.4805-1.0293 0.4507-1.5029zm1.8564 0.79c-0.0898-0.1836-0.3003-1.1387 0.4273-2.1582 0.1533-0.2148 0.2607-0.3574 0.3354-0.4561 0.482 0.1661 0.8843 0.3819 1.2066 0.5586l0.145 0.0762c0.4629 0.2529 1.0361 0.5645 1.5767 0.5918 0.1088 0.2314 0.2729 0.6484 0.351 1.2002 0.0435 0.3037 0.0874 0.7402 0.0962 1.0771h-3.667c-0.1006-0.2597-0.2998-0.5839-0.3901-0.7431-0.0327-0.0596-0.062-0.1084-0.0811-0.1465zm1.6397-10.862c-0.3657-1.1582 0.0122-2.4023 0.1098-2.6875 0.3262-0.2471 0.6377-0.5068 0.938-0.7725-0.1206 0.6289-0.1777 1.4698 0.1577 2.1075 1.0718 2.0224 1.4952 4.2763 1.2256 6.5175-0.0864 0.7149-0.4101 3.1182-0.4985 3.7686-0.3848-0.0635-0.8237-0.3037-1.2056-0.5108l-0.1465-0.081c-0.289-0.1563-0.643-0.3438-1.0551-0.5078 0.1299-0.2676 0.5727-1.1963 0.7046-1.7754 0.1801-0.793 0.4716-3.8252-0.23-6.0586zm-2.6377-1.2637c0.7866-0.2256 1.4619-0.5625 2.0762-0.9541-0.1265 0.6006-0.2173 1.4942 0.0595 2.376 0.6763 2.1504 0.3658 5.1328 0.2193 5.7852-0.1158 0.5029-0.5152 1.3505-0.6509 1.6298-0.0342 0.0118-0.0698 0.0303-0.1084 0.0645-0.4009-0.1123-0.8467-0.1885-1.3394-0.1885-0.0634 0-0.1274 0-0.1923 0.0039-0.6265 0.0254-1.2041 0.1338-1.7144 0.2315-0.5884 0.1123-1.0957 0.2041-1.5269 0.1552-0.4936-0.0595-1.0029-0.1562-1.3212-0.6015-0.378-0.5283-0.4278-1.461-0.1504-2.7754 0.6953-3.2949 1.4961-4.8184 4.6489-5.7266zm-18.531 12.922h-1.0605c-0.0044-0.0166-0.0479-0.1816-0.0723-0.2988l0.25-0.8272c0.3125 0.085 0.6401 0.1494 0.9776 0.1885-0.0562 0.3652-0.0928 0.5967-0.0948 0.6074-0.0019 0.0147-0.0117 0.1504 0 0.3301zm-7.2353-7.6572l1.4443-0.7617 0.9907 7.1542-0.8144 0.7579-1.6206-7.1504zm1.1435 7.6933h-2.4467v-10.726l2.4467 10.726zm-1.4458-22.03c0.0464 0.0996 0.0699 0.1845 0.0811 0.2656-0.0664 0.2773-0.2129 0.5088-0.3721 0.7471-0.1929 0.2919-0.3921 0.5898-0.436 0.9814-0.0845 0.7432 0.1611 1.3936 0.1679 1.4131l0.2735 0.7861 0.4072 0.1192c0.0454-0.0352 0.1558-0.125 0.3052-0.2452l0.1816 1.3047-1.6093 0.583v-9.8603l0.0141-0.0147c0.1738 0.1807 0.3779 0.3145 0.5562 0.4278 0.1484 0.0947 0.2885 0.1845 0.375 0.2763 0.2417 0.2627 0.1704 0.6407 0.0327 1.2364-0.1382 0.6045-0.2974 1.29 0.0229 1.9795zm0.1763 2.2578l0.1675 1.207c-0.0874 0.0703-0.1748 0.1426-0.2578 0.209l-0.1548-0.4453c-0.0025-0.0069-0.2105-0.5567-0.1406-1.1778 0.0302-0.2636 0.1792-0.4892 0.3525-0.748 0.2104-0.3164 0.4473-0.6748 0.4922-1.168l-0.02-1e-3c0.3676-0.4169 0.9912-0.2041 1.2319-0.0957 0.3271 0.2032 0.4946 0.8194 0.4482 1.4493 0.0079 0.0136 0.0191 0.0195 0.0264 0.0332 0.0147 0.0293 0.0313 0.0517 0.0459 0.0791-0.3252 0.3808-0.9062 0.9179-1.5049 1.4306l-0.1186-0.8515-0.5679 0.0791zm2.4707-0.1866c0.021 0.0362 0.0449 0.0713 0.0645 0.1075-0.0123 0.3349-0.0416 0.7304-0.0733 1.1718-0.0308 0.4034-0.063 0.8438-0.0898 1.3184l-1.3887 0.5029-0.2129-1.5312c0.5508-0.461 1.2461-1.0703 1.7002-1.5694zm-0.127 3.2188c-0.0502 1.2705-0.039 2.7607 0.1744 4.4414 0.1547 1.2178 0.2983 1.9795 0.4228 2.499l-0.9136 0.4668-0.9638-6.9453 1.2802-0.4619zm1.1617 14.24l0.1015 0.459-0.5117 0.4072-0.9844-7.0976 0.982-0.502c0.0327 0.1094 0.0634 0.2071 0.0918 0.293 0.1035 0.3184 0.1548 0.4766 0.1548 0.8809 0 0.6982-0.0201 1.0517-0.0508 1.5879-0.0161 0.2871-0.0352 0.621-0.0557 1.083-0.0605 1.3935 0.1724 2.4404 0.2725 2.8886zm2.2851 1.8125c-0.0503-0.0205-0.102-0.0381-0.1509-0.0468-0.5922-0.1026-0.9902 0.2255-1.0483 0.249-0.0122 0.0146-0.0293 0.0254-0.0459 0.0361l-0.3774-1.7109c0.0595 0.0439 0.1211 0.0869 0.1889 0.126 0.3023 0.1708 0.8946 0.4736 1.6231 0.7207l-0.1895 0.6259zm-2.0464-0.7314l0.3135 1.4189h-2.0908l1.7773-1.4189zm1.5352 1.2334c0.084-0.0186 0.1626-0.0254 0.231-0.0254 0.0996 0 0.2509 0.2109 0.2773 0.2861 0.2056 0.6026 0.1465 1.7217 0.0254 1.918-0.1216 0.1777-1.1382 0.5664-1.5591 0.3379-0.5371-0.2861-0.5449-0.5371-0.4829-0.7461 0.1313-0.4316 0.9272-1.6377 1.5083-1.7705zm2.2544-1.3018c-1.2817-0.1465-2.4575-0.7392-2.9199-1.001-0.3931-0.2216-0.6079-0.6191-0.6709-0.7519-0.0894-0.5195-0.1753-1.2481-0.1368-2.125 0.0196-0.458 0.0386-0.79 0.0547-1.0732 0.0298-0.5274 0.0518-0.9082 0.0518-1.6211 0-0.4942-0.0723-0.7168-0.1826-1.0577-0.1504-0.4658-0.3775-1.1709-0.6431-3.2548-0.3266-2.5743-0.1694-4.7061-0.0542-6.2657 0.0161-0.2216 0.0313-0.4257 0.044-0.623 0.0083 0.0224 0.0175 0.0371 0.0253 0.0596l-0.0053 0.0029c0.0068 0.0117 0.0156 0.0303 0.0215 0.043 0.0053 0.0146 0.0044-0.1163-0.0064-0.2959 0.334 0.33 0.7383 0.8017 1.0166 1.375 0.2422 0.498 0.3579 0.8574 0.46 1.1728 0.1396 0.4356 0.2602 0.8115 0.6421 1.3125 0.5439 0.7188 1.9712 1.9561 2.395 2.3174-0.105 0.7441-0.1382 1.5391-0.0357 2.3476 0.0787 0.6231 0.1553 1.1456 0.2247 1.6124 0.2143 1.4609 0.3437 2.3418 0.1977 3.9668-0.1162 1.3027-0.3281 2.8398-0.4785 3.8593zm-3.6484-23.524c-0.0962-0.4463-0.1353-0.8144-0.19-1.1201-0.1777-1.0098-0.2432-1.3887-0.1186-2.2402 0.1464-0.9971-0.1988-1.5508-0.5318-2.086-0.0884-0.1426-0.1777-0.2851-0.2583-0.4404-0.3388-0.6553-0.6958-1.5195-0.4424-2.3955 0.2144-0.7412 0.649-2.5918 0.0381-3.7256-0.4341-0.8096-1.1074-1.8457-1.8525-2.2002-0.5947-0.2822-1.8897-0.3877-2.085-0.4043 0.0874-0.4609 0.1963-0.834 0.3257-1.0059 0.1094-0.1611 0.2251-0.3095 0.3403-0.458 0.4244 0.4043 2.355 1.9639 6.9239 1.9903h0.0952c0.2182 0 0.4277-0.0069 0.6343-0.0147 0.2216 0.6377 0.7587 2.375 0.663 3.0078-0.0395 0.2608-0.1152 0.3907-0.1958 0.5284-0.1928 0.3281-0.3037 0.6084-0.1025 1.456 0.1226 0.5088 0.2402 0.8848 0.3394 1.2002 0.1464 0.4678 0.2436 0.7783 0.2436 1.1943 0 0.2647-0.1167 0.5743-0.2402 0.9043-0.1929 0.5176-0.4126 1.1016-0.2447 1.6944 0.1016 0.3603 0.212 0.6416 0.3096 0.8906 0.145 0.3662 0.27 0.6836 0.3423 1.1758 0.0606 0.4043 0.0064 0.5547-0.0688 0.7568-0.0699 0.1904-0.1563 0.4268-0.1563 0.8613 0 0.6612 0.5674 1.4102 1.0244 2.0137 0.1392 0.1817 0.2725 0.3584 0.3599 0.4951 0.0337 0.0342 1.0019 2.2315 1.2104 2.6885l-0.0034 0.0039s0.0093 0.0147 0.0215 0.0371c0.0073 0.0166 0.0103 0.0205 0.0142 0.0293-0.2764 0.6387-0.9371 2.1407-1.3594 2.9365-0.2578 0.4854-0.8745 1.7627-1.1944 3.3643-0.5639-0.4912-1.6479-1.4609-2.0815-2.0312-0.3271-0.4307-0.4253-0.7364-0.561-1.1582-0.1016-0.3145-0.2285-0.71-0.4873-1.2422-0.4663-0.961-1.2315-1.6504-1.5855-1.9356-0.0244-0.0976-0.0508-0.1777-0.0845-0.2168 0.0684-0.1299 0.1358-0.2607 0.1983-0.3828 0.1103-0.2187 1.2226-2.0264 0.7598-4.1709zm7.2319-21.134c0.0556 0.4336 0.1089 0.8457-0.2554 1.2188-0.3867 0.3955-1.1284 0.2109-1.5107 0.0957 0.1191-0.1299 0.2119-0.2373 0.2588-0.291 0.1416-0.1797 1.3759-1.7735 0.9795-2.8731-0.1587-0.4443-0.5137-0.5156-0.7735-0.5674-0.1518-0.0312-0.2964-0.0605-0.4194-0.1513-0.0933-0.0684-0.1309-0.1621-0.1895-0.3213-0.081-0.2256-0.1924-0.5332-0.6035-0.6944-0.1406-0.0527-0.27-0.0488-0.4101-0.0468-0.1778 0.0039-0.4097 0.0078-0.7813-0.1172-0.7851-0.2686-1.4941 0.2812-1.7886 0.6474-0.1191 0.1455-0.1484 0.2364-0.1772 0.3536-0.0239 0.0927-0.0586 0.2353-0.291 0.6191-0.3203 0.5332-0.7827 0.8496-0.9488 0.9502-0.0566-0.0352-0.1123-0.0713-0.1689-0.1065-0.2349-0.1455-0.6709-0.415-0.6636-0.5449 0.0049-0.0888 0.0659-0.1396 0.2783-0.2656 0.1934-0.1152 0.4327-0.2578 0.5635-0.5381 0.0488-0.1025 0.0913-0.25 0.1382-0.418 0.084-0.3056 0.1895-0.6875 0.3945-0.8652 0.1094-0.0928 0.5664-0.123 0.8682-0.1416 0.3745-0.0244 0.6973-0.0439 0.9072-0.1494 0.1558-0.0781 0.2827-0.1797 0.3936-0.2676 0.1772-0.1445 0.3169-0.2558 0.5395-0.2656 0.3159-0.0225 0.4341 0.1445 0.5713 0.3476 0.0996 0.1446 0.2227 0.3272 0.4492 0.3526 0.1807 0.0215 0.3599-0.0528 0.5337-0.126 0.2364-0.0986 0.3999-0.1572 0.5318-0.0928 0.1445 0.0723 0.2832 0.416 0.3838 0.668 0.1108 0.2734 0.2065 0.5117 0.3652 0.6436 0.0693 0.0576 0.1133 0.1113 0.1572 0.165 0.1211 0.1475 0.2588 0.3135 0.6641 0.4727 0.1089 0.041 0.185 0.1289 0.2314 0.2666 0.1109 0.3242 0.0171 0.7968-0.1338 1.0507-0.1816 0.3028-0.1362 0.6534-0.0937 0.9922zm-5.5108-1.8554c0.2715-0.4502 0.3189-0.6407 0.3511-0.7637 0.0166-0.0694 0.02-0.084 0.0752-0.1504 0.0054-0.0078 0.5708-0.7002 1.2085-0.4805 0.4595 0.1592 0.7612 0.1494 0.9649 0.1455 0.0966-9e-4 0.1655-0.0029 0.207 0.0137 0.1802 0.0684 0.2236 0.1709 0.2998 0.3789 0.0644 0.1797 0.145 0.4033 0.3725 0.5703 0.2178 0.1572 0.4444 0.2022 0.6275 0.2403 0.2441 0.0498 0.3257 0.0703 0.3818 0.2275 0.2515 0.7031-0.5615 1.9492-0.8896 2.3613-0.44 0.5108-1.2046 1.2735-1.5269 1.3692-0.4512 0.1328-0.9653 0-1.1831-0.1426-0.1743-0.1094-0.7651-0.5752-1.145-0.8789 0.0049-0.0205 0.0137-0.0381 0.0181-0.0615 0.1582-0.9698-0.1729-1.2979-0.5923-1.7139 0 0-0.0967-0.0859-0.1167-0.1055 0.2588-0.1836 0.6504-0.5176 0.9472-1.0097zm0.605 4.2148c0.2505 0.1602 0.6499 0.2764 1.0659 0.2764 0.1836 0 0.3716-0.0235 0.5503-0.0743 0.0982-0.0283 0.2085-0.0888 0.3238-0.164l1.8432 1.0029c-0.2715 0.1104-0.5718 0.2803-0.7925 0.5469l-0.1206 0.1484c-0.3994 0.4922-0.852 1.0489-1.5629 1.1094-0.3814 0.0273-0.6163-0.1387-0.9312-0.3555-0.3281-0.2295-0.7007-0.4902-1.2969-0.584-0.4726-0.0732-0.8227-0.0849-1.105-0.0937-0.392-0.0156-0.6298-0.0225-0.9335-0.1768-0.5191-0.2607-1.0123-1.0185-1.0147-1.0185l-0.2148-0.4785c0.0463-0.0313 0.0991-0.0664 0.1406-0.0938 0.9966-0.5664 2.2251-0.3711 2.9595-0.8769 0.3544 0.2822 0.9013 0.7109 1.0888 0.832zm-3.1963 2.1055c0.4068 0.207 0.7359 0.2187 1.1519 0.2324 0.2822 0.0098 0.602 0.0195 1.0425 0.0898 0.4756 0.0752 0.7822 0.2891 1.0781 0.4922 0.3208 0.2237 0.6523 0.4551 1.1411 0.4551 0.043 0 0.0879-0.0029 0.1333-0.0078 0.9346-0.0762 1.4849-0.7539 1.9282-1.2998l0.1167-0.1436c0.3692-0.4453 1.1118-0.5361 1.1192-0.5381l0.0674-0.0097 0.0126-0.0078c0.1666 0.332 0.6031 1.1552 0.9629 1.4492-0.1972 0.1455-1.9404 1.3428-5.6401 1.3428h-0.0908c-4.5005-0.0215-6.3218-1.6084-6.5889-1.8682 0.7368-0.8399 1.5264-1.4473 2.1289-1.8613l0.1963 0.4355c0.0234 0.0381 0.5835 0.9092 1.2407 1.2393zm14.201 17.999c0.0796 0.3193 0.1279 0.6006 0.1636 0.8642-0.3526 0.1739-1.3902 0.8038-1.7705 2.4131-0.2256 0.9512-0.3159 1.6123-0.3819 2.0918-0.0586 0.4307-0.0976 0.7159-0.1933 0.9649-0.1929 0.4931-2.1548 2.9804-3.208 4.0254-0.0547-0.169-0.0987-0.3203-0.127-0.4493-0.0918-0.4169 0.2173-0.8623 0.542-1.3339 0.3306-0.4776 0.6729-0.9727 0.7056-1.5528 0.0268-0.4873-0.0845-0.7051-0.2036-0.9375-0.1646-0.3174-0.3907-0.7568-0.334-2.5049 0.0815-2.5566 0.5303-4.4394 0.6318-4.8388 0.564-0.6377 1.792-1.6494 2.0781-1.8838 0.2325 0.1172 0.4766 0.1904 0.7271 0.1904 0.0498 0 0.0972-0.0029 0.146-0.0088 0.4614-0.0537 0.9702-0.4453 1.2964-0.7402 0.1303 0.6094 0.042 1.1103-0.0528 1.6309-0.1108 0.6093-0.2236 1.2392-0.0195 2.0693zm-0.3164 6.7226l0.0659 0.3877c0.2193 1.3047 0.3389 2.2168 0.0186 2.9454-0.2134 0.4853-0.4937 0.8418-0.7881 1.2187-0.46 0.5898-0.938 1.1982-1.1958 2.3252-0.4019 1.7461-0.4634 4.3398-0.127 5.2363 0.1011 0.2676 0.274 0.5908 0.4571 0.9326 0.0078 0.0157 0.0161 0.0313 0.0249 0.0459h0.0229c0.0322 0.0616 0.0733 0.1299 0.1265 0.2178 0.2226 0.3613 0.5952 0.9678 0.4507 1.4199-0.0694 0.2159-0.2554 0.3868-0.5689 0.5205-0.2602 0.1094-1.7344 0.5264-2.7309 0.5977-0.086-1.1846-0.2383-2.8496-0.4478-3.6221-0.3477-1.2832 0.0913-3.2832 0.3838-4.3623 0.3047-1.1201-0.2056-2.5967-0.5791-3.6748 1.0059-0.9326 3.2612-3.7431 3.5112-4.3857 0.1197-0.3076 0.1646-0.6328 0.2251-1.084 0.064-0.4707 0.1519-1.1152 0.3726-2.043 0.2763-1.1738 0.9429-1.7324 1.3086-1.9599 0.0366 0.9941-0.2305 1.5302-0.4151 1.8847-0.0737 0.1426-0.1342 0.2647-0.1689 0.375-0.2979 0.9815-0.1426 1.8838 0.0537 3.0244zm0.2417-11.009c-0.2651 0.2646-0.8271 0.7597-1.2095 0.8027-0.7798 0.0869-1.6499-1.0117-2.0288-1.6035 0.4512-0.5401 1.3657-1.6035 1.6782-1.8467 0.1812-0.1406 0.356-0.1904 0.5459-0.1455 0.4878 0.1123 0.9375 0.8066 1.0933 1.1055-0.1143 0.5781-0.1616 1.2128-0.0791 1.6875zm-3.7905-0.6914c0.0205 0.0332 0.207 0.3496 0.5039 0.7207l-0.7705 0.1962-1.9395-7.8427 1.4146-0.3457 1.5127 6.1513c-0.3413 0.3936-0.6314 0.7432-0.6953 0.8213l-0.1172 0.1397 0.0913 0.1592zm1.9072-2.3721c-0.1699 0.1318-0.46 0.4365-0.7627 0.7715l-1.4248-5.794 1.8931-0.4619 1.2285 5.2354c-0.3228-0.0567-0.6431 0.0244-0.9341 0.249zm-4.7505-4.9385l2.1924 8.8691 1.5464-0.3925c0.1255 0.1289 0.2612 0.2529 0.4053 0.3662-0.3301 0.2705-1.7037 1.4111-2.1885 2.0576-0.5747 0.7705-0.9082 1.6787-1.1319 2.5879-0.1689 0.6855-0.5166 1.3379-0.7734 1.7617-0.3926-0.8574-1.2861-2.7959-1.46-3.0283-0.3877-0.5108-0.917-1.21-0.917-1.6944 0-0.3417 0.0596-0.5058 0.1226-0.6777 0.0869-0.2344 0.1763-0.4795 0.0957-1.0185-0.081-0.5498-0.2226-0.9102-0.3721-1.2911-0.0981-0.248-0.1997-0.5048-0.2944-0.8408-0.1201-0.4258 0.0581-0.9043 0.2324-1.3652 0.1343-0.3604 0.2735-0.7324 0.2735-1.0899 0-0.1962-0.021-0.371-0.0533-0.5419h3e-3c0-3e-3 0-0.2842 0.4975-1.1055 0.2515-0.417 0.2984-0.7793 0.3443-1.1279 0.0708-0.5577 0.1523-1.1915 1.1069-2.3624 1.2681-1.5566 2.0732-2.1503 2.314-2.3105 0.4301 0.6016 1.3144 1.751 1.7412 2.3027l-3.6846 0.9014zm-0.7798-1.2256c-1.0469 1.2862-1.143 2.0303-1.2202 2.627-0.0439 0.3349-0.0786 0.6015-0.2715 0.9228-0.1196 0.1963-0.208 0.3614-0.2837 0.5108-0.0923-0.295-0.1992-0.6426-0.3105-1.1084-0.1694-0.7051-0.0845-0.8496 0.0434-1.0664 0.0928-0.1592 0.2076-0.3545 0.2623-0.7178 0.1171-0.7774-0.4463-2.543-0.6387-3.1152 2.7466-0.1983 4.2241-1.0323 4.6645-1.3272 0.0064 0.043 0.0127 0.084 0.0186 0.127 0.0327 0.2324 0.0732 0.4853 0.1797 0.7236-0.2857 0.1846-1.1299 0.8125-2.4439 2.4238zm-1.8501 36.898c0.0044-0.0293 0.4595-2.836 0.6538-5.003 0.1509-1.6855 0.0103-2.6426-0.2011-4.0879-0.0689-0.4648-0.1451-0.9863-0.2237-1.6035-0.3501-2.7695 1.0005-5.4863 1.2749-6.0019 0.4659-0.878 1.1895-2.5371 1.4283-3.0918 0.0014 9e-4 0.0034 9e-4 0.0048 9e-4 0.0015-0.0097 3e-3 -0.0166 0.0044-0.0224 0.0386-0.0918 0.065-0.1524 0.0708-0.1641l-0.0029-0.0019c0.3887-0.5742 0.6699-1.3321 0.8984-2.0742 0.1397-0.4561 0.2989-0.9141 0.4952-1.3477-0.1675 0.8418-0.3492 2.0664-0.397 3.5771-0.0606 1.8838 0.1997 2.3926 0.3906 2.7627 0.1035 0.2012 0.1655 0.3233 0.1465 0.668-0.0249 0.4326-0.3232 0.8633-0.6118 1.2813-0.3765 0.5449-0.7647 1.1064-0.6245 1.7461 0.0625 0.2851 0.1865 0.6445 0.33 1.0585 0.3506 1.0147 0.8311 2.4024 0.5699 3.3672-0.3745 1.3809-0.7456 3.3047-0.3843 4.6368 0.2549 0.9394 0.4263 3.3886 0.4888 4.3925-0.3238-0.2246-0.7408-0.3974-1.2779-0.33-0.456 0.0517-0.7514 0.1757-0.9419 0.3125-0.1298 0.0449-0.1943 0.1308-0.2275 0.2265-0.8735 0.8438-1.0039 0.7949-1.4746 0.6094l-0.0635-0.0234c-0.3843-0.1495-0.3252-0.8877-0.3257-0.8877zm3.0952 0.2841c0.6997-0.081 1.1402 0.3975 1.4341 0.7149 0.1065 0.1133 0.1905 0.2041 0.2774 0.2597 0.1167 0.0733 0.2885 0.1465 0.477 0.2266 0.6133 0.2559 1.0737 0.4863 0.9717 0.916-0.0654 0.2735-1.1167 0.2364-1.5156 0.2188-0.1397-0.0039-0.2671-0.0078-0.3731-0.0098-0.2558 0-0.5576-0.3691-0.8237-0.6924-0.2188-0.2676-0.4253-0.5215-0.6611-0.6631-0.148-0.0898-0.3243-0.332-0.524-0.7226 0.104-0.0869 0.3164-0.1973 0.7373-0.2481zm16.207-32.012c-1.584-0.3574-2.897 0.3545-3.9121 0.9014-0.0982 0.0537-0.2227 0.1152-0.3677 0.1894-0.7686 0.3887-1.9951 1.0108-2.8247 1.8448-0.4092-0.3243-1.2544-1.0645-1.7398-1.9668 2.0992-1.3028 5.1509-2.958 5.751-2.8155 2.1411 0.5557 3.1939 0.0996 3.7012-0.1191 0.0947-0.0381 0.1836-0.0791 0.23-0.085 0.1753-0.0322 0.3032 0.0059 0.5874 0.0909 0.2036 0.0615 0.4629 0.1377 0.833 0.2138 1.105 0.2285 1.2969 0.502 1.3281 0.6123 0.0435 0.1553-0.1074 0.4082-0.4287 0.7129-0.9619 0.917-2.4458 0.583-3.1577 0.4209zm-2.961-2.3574c-0.9697-0.2637-4.8227 2.0508-6.1001 2.8418-0.0615-0.1787-0.1093-0.3604-0.1308-0.5449-0.065-0.5567 0.3574-1.5479 0.8208-1.9287 0.0908-0.0752 2.2192-1.8623 2.5596-5.4864 0.0976-1.0361 1.4863-2.1533 1.874-2.4472 0.2602 0.0761 0.6372 0.1767 1.1089 0.2666 0.1548 0.0293 0.2934 0.042 0.4253 0.0449 0-0.0029 5e-4 -0.0088 5e-4 -0.0137 0.0849 0.0039 0.1787 0.0059 0.2788 0.0059 0.0346 0 0.0703 0 0.1049-1e-3 0.4747-0.0088 0.9634-0.1143 1.2901-0.2002-0.0484 0.3897-0.1294 0.9297-0.2124 1.168-0.0279 0.0801-0.0615 0.1699-0.0972 0.2656-0.1846 0.4922-0.313 0.8623-0.2812 1.1143 0.0039 0.0302 0.0063 0.0703 0.0087 0.1123 0.0201 0.3261 0.0665 1.0869 0.896 1.2558 0.2872 0.0606 0.6402 0.0996 1.0044 0.0996 0.4869 0 0.9942-0.0703 1.3907-0.2705 0.6211-0.3086 1.4121-1.1347 1.6816-2.2119 0.0606-0.2402 0.126-0.4844 0.1904-0.7246 0.1289-0.4795 0.3174-1.2578 0.3174-1.2578 0.2329-0.0918 0.8091-0.332 1.3335-0.3301 0.5508 1e-3 1.1011 0.2324 1.5191 0.4609 0.6225 0.4659 1.1801 0.8301 1.6435 0.8457 0.0122 0.0694 0.0318 0.1329 0.041 0.2022 0.0088 0.0762 0.0298 0.1465 0.0425 0.2197-0.2436-0.0556-0.5771-0.0918-1.0308-0.04-1.0385 0.1181-2.497 0.8926-2.9252 1.5752-0.813 1.2949-2.6602 1.7519-2.6602 1.7519-0.4878 0.1504-2.5762 0.8858-2.7529 1-0.5235 0.3389-1.7525 1.7998-2.1426 2.2715-0.0684-0.0166-0.127-0.0254-0.1983-0.0449zm2.7295-9.7256c0.418-0.0185 0.7002-0.2197 0.9361-0.3916 0.1992-0.1435 0.372-0.2695 0.6152-0.2988 0.2666-0.0332 0.5093 0.1152 0.814 0.3017 0.3403 0.209 0.7593 0.46 1.3169 0.4746 0.0244 0.1026 0.0547 0.2022 0.0927 0.2989h0.0064c0.0454 0.1777 0.1167 0.4873 0.1479 0.7959 0.0332 0.332-0.1606 1.0547-0.3491 1.7549-0.0654 0.2441-0.1313 0.4912-0.1924 0.7334-0.2197 0.8769-0.875 1.6064-1.4091 1.873-0.4581 0.2305-1.3047 0.2813-2.0577 0.1279-0.4062-0.084-0.456-0.3877-0.4799-0.7793-0.0035-0.0556-0.0069-0.1045-0.0118-0.1435-0.0185-0.1475 0.1504-0.5987 0.2515-0.8692 0.0371-0.0996 0.0723-0.1933 0.1016-0.2773 0.1489-0.4268 0.2656-1.4854 0.2793-1.6787 0.018-0.2471 0.0024-1.3643-0.0616-1.9219zm2.8438-5.5586c0.3447 0.2119 0.5942 0.7061 0.7412 1.1514-0.7734-0.1279-1.5708 0.1426-1.7441 0.2275l0.2304 0.4727c0.1226-0.0596 0.9395-0.3408 1.6153-0.1416 0 0 0.039 0.0332 0.0429 0.0752 0.0533 0.6054 0.1563 2.0976-0.0434 2.8506-0.042 0.1562-0.0567 0.3183-0.0581 0.4785-0.3833-0.0283-0.6817-0.1983-0.9903-0.3877-0.3442-0.2119-0.6997-0.4297-1.1489-0.376-0.3769 0.0459-0.6338 0.2314-0.8589 0.3965-0.2417 0.1738-0.4345 0.2988-0.7422 0.2832-0.0141-0.044-0.0288-0.0957-0.0424-0.1328-1e-3 -3e-3 -2e-3 -0.0059-0.0035-0.0098-0.0039-0.0098-0.0078-0.0205-0.0122-0.0293-0.0112-0.0332-0.0219-0.0674-0.0346-0.0918-0.1099-0.208-0.3482-0.8232-0.3848-1.3828-0.0205-0.292 0.0415-1.0996 0.0986-1.6689l0.0034 0.0048c1e-3 -0.0019 0.1475-0.0888 0.5274-0.0888 0.311 0 0.6489-0.0117 0.7915 0.1806 0.042 0.0557 0.1226 0.2579 0.0845 0.4483-0.1411 0.7138-0.3438 1.4336-0.441 1.6152 0 0 0.4581 0.0147 0.5635 0.0195 0.0415-0.1484 0.3775-1.4697 0.3819-1.4814 0.1147-0.3818 0.0337-0.7275-0.0826-0.8828-0.2768-0.3731-0.8877-0.4268-1.2978-0.4268-0.1914 0-0.3413 0.0186-0.4619 0.044 5e-4 -3e-3 1e-3 -0.0088 0.0024-0.0137 0.0733-0.3555 0.2002-0.7734 0.7695-1.2256 0.5196-0.4111 1.753-0.3662 2.4942 0.0918zm-6.5767 5.916c-0.5717 0.2608-0.4345 1.041-0.3305 1.4131-0.4864 0.3711-1.9268 1.5664-2.0401 2.7852-0.2563 2.7285-1.6631 4.5488-2.3711 5.1308-0.6035 0.4961-1.0947 1.6602-1.0088 2.3955 0.0406 0.3526 0.1495 0.6905 0.3003 1.0108l-0.0498-0.0381c-0.1079 0.1396-0.2173 0.3887-0.3149 0.6885-0.1528-0.2139-0.356-0.4532-0.6011-0.6367l-1.4448-6.1524-0.6021 0.1465c-0.3813-0.4922-1.7846-2.3115-2.0527-2.7315-0.1162-0.1826-0.1514-0.4345-0.186-0.6767-0.0503-0.3555-0.1021-0.7236-0.4014-0.9492-0.2441-0.1836-0.6685-0.9414-0.8877-1.3926 1.4565-1.2168 2.3511-2.9873 2.4644-4.8809 1.7011-0.3183 3.2099-0.7558 4.3969-1.2666 1.3477 0.583 2.7896 1.0127 4.3916 1.3028 0.0625 1.4834 0.4283 2.8154 1.0401 3.7822-0.1026 0.0078-0.2036 0.0244-0.3023 0.0693zm-0.748-4.3877c-1.5845-0.2959-3.0132-0.7236-4.3408-1.3173l-0.0025-0.0069c-0.0156 2e-3 -0.0307 0.0039-0.0483 0.0039-0.0152 0-0.0283-0.0019-0.0415-0.0039l-2e-3 0.0069c-1.1479 0.5136-2.6352 0.9541-4.3252 1.2783-0.0156-0.8614-0.1904-1.6836-0.4941-2.4385 2.0181-0.2998 3.7153-0.7998 4.8755-1.4268 1.1601 0.627 2.8574 1.127 4.875 1.4268-0.3086 0.7666-0.4839 1.6016-0.4961 2.4775zm-3.4087-8.1806c1e-3 0.0166-2e-3 0.0302-1e-3 0.0468 0.0449 0.6143 0.499 1.0586 1.19 1.0586h0.0141c0.374-0.0029 0.7193-0.1562 0.9741-0.4326 0.2632-0.2832 0.398-0.6699 0.3716-1.0586-0.0556-0.748-0.6113-1.334-1.3613-1.5058h0.0122c0-0.9981-0.7505-1.8096-1.6714-1.8096v0.5264c0.6152 0 1.1148 0.5468 1.1397 1.2314-0.7286 0.0225-1.3174 0.3975-1.6377 0.9746-0.3194-0.581-0.9087-0.9551-1.6387-0.9785 0.0254-0.6836 0.5234-1.2305 1.1387-1.2305v-0.5273c-0.9209 0-1.67 0.8125-1.67 1.8105h0.0186c-0.7505 0.1719-1.3125 0.7559-1.3672 1.5059-0.0278 0.3857 0.106 0.7725 0.3692 1.0566 0.2543 0.2754 0.6005 0.4297 0.976 0.4346h0.0147c0.688 0 1.1587-0.4453 1.2031-1.0605 0.0015-0.0137 1e-3 -0.0274 1e-3 -0.042h-0.5264l5e-4 0.0049c-0.0273 0.3789-0.3633 0.5654-0.689 0.5693-0.228-1e-3 -0.4384-0.0957-0.5937-0.2627-0.1641-0.1777-0.2481-0.419-0.2305-0.6631 0.0454-0.624 0.5859-1.0742 1.2876-1.0742h0.0132c0.8418 0.0068 1.4287 0.6191 1.4287 1.4873v1.6533h-4.9853c0.3686-2.8506 4.2285-8.9053 5.2172-10.416 0.9952 1.5439 4.9497 7.8047 5.3345 10.416h-5.0395v-1.6504c0-0.8672 0.5874-1.4775 1.4282-1.4853h0.0137c0.6918 0 1.2436 0.4599 1.288 1.0742 0.0181 0.2422-0.0669 0.4844-0.2319 0.6611-0.1548 0.169-0.3657 0.2627-0.5933 0.2647h-0.0083c-0.3491 0-0.6381-0.1944-0.6645-0.5684v-0.0078l-0.5249-0.0029zm-0.9702 2.2431c0.3501 0 0.6338 0.2832 0.6338 0.6338 0 0.3487-0.2837 0.6319-0.6338 0.6338-0.3496-0.0019-0.6343-0.2851-0.6343-0.6338 0-0.3506 0.2847-0.6338 0.6343-0.6338zm-0.9702 0c-0.0386 0.0586-0.0728 0.1172-0.0996 0.1827-0.0596 0.1386-0.0923 0.2919-0.0923 0.4511s0.0327 0.3115 0.0923 0.4502c0.0473 0.1113 0.1152 0.2119 0.1943 0.3047 0 0 0.2495 0.2481 0.4116 0.3086-1.1191 0.5449-2.7656 0.999-4.6377 1.2656-0.623-1.249-1.6079-2.2842-2.8227-2.9629h6.9541zm-6.3169-11.262h-1.3545v0.5274h1.3545v3.7558c-1.0249-1.2021-2.1494-2.0303-2.7827-2.3789v-2.1211h-0.5474v2.0938c-0.4439 0.3252-1.8433 1.3906-2.6362 2.4892v-8.2021l5.9663 2.7256v1.1103zm-3.0757 2.3047c0.4702 0.3369 3.0249 2.249 3.0757 3.1934v5.2353h-1.8413c-0.6773-0.2236-1.399-0.3467-2.1499-0.3467-0.6871 0-1.3492 0.1036-1.9751 0.2911v-4.9854c0.1308-1.0664 2.0468-2.7666 2.8906-3.3877zm-0.9155 8.6084c3.5156 0 6.3769 2.8604 6.3769 6.377 0 1.9853-0.9404 3.8671-2.5181 5.0703l-2.0586-1.1201c0.1348-0.1192 0.3721-0.2979 0.3721-0.2979 0.0205 0.0049 0.0523 0.0166 0.0952 0.0293 0.4112 0.1309 1.5064 0.4775 2.1602-0.1934 0.5434-0.5576 0.4619-1.1923 0.4014-1.6533-0.0342-0.2724-0.0645-0.5068 0.0234-0.6562 0.2183-0.3653 0.3501-0.9952 0.1797-1.4912-0.0962-0.2832-0.2818-0.4854-0.5371-0.585-0.2783-0.1094-0.3501-0.1982-0.4502-0.3184-0.063-0.0781-0.1284-0.1552-0.2276-0.2353-0.0551-0.0469-0.1499-0.2803-0.2124-0.4365-0.1469-0.3653-0.3134-0.7784-0.6362-0.9424-0.3545-0.1758-0.7095-0.0303-0.9683 0.0791-0.0918 0.0381-0.2285 0.0957-0.2421 0.0996-0.023-0.0176-0.0699-0.0859-0.1045-0.1367-0.1524-0.2246-0.4136-0.6241-1.0293-0.5762-0.3951 0.0176-0.6343 0.209-0.8452 0.3789-0.1001 0.0811-0.1954 0.1553-0.3008 0.209-0.1143 0.0566-0.4419 0.0781-0.7051 0.0937-0.481 0.0313-0.9346 0.0606-1.1782 0.2705-0.3272 0.2803-0.4551 0.7481-0.5591 1.1231-0.0371 0.1328-0.0679 0.2519-0.106 0.334-0.063 0.1338-0.2002 0.2148-0.3569 0.3095-0.2178 0.1299-0.5156 0.3077-0.5347 0.6905-0.0239 0.4404 0.4512 0.7353 0.9117 1.0195 0.2236 0.1377 0.645 0.4697 0.645 0.4697 0.3823 0.3809 0.5576 0.5537 0.4433 1.2569-0.0713 0.4365-0.3725 0.4853-0.8257 0.5097-0.1254 0.0069-1.5024 0.1534-2.1181 0.5518-0.0352 0.0215-0.0796 0.0508-0.1172 0.0742-0.8848-1.1299-1.3545-2.4883-1.3545-3.9267 0-3.5166 2.8613-6.377 6.377-6.377zm-2.5445-0.1797h-0.9155v-14.875l0.3677-0.2021 0.5478 0.2509v14.826zm-3.3818 3.0322c-0.4038 0.6758-0.6978 1.4239-0.8516 2.2266-1.729-0.3437-2.5547-0.7236-3.0727-1.0254v-2.3838c0.9062 0.4424 2.2231 0.8389 3.9243 1.1826zm-2.71 23.495c-0.0063-0.2491 0.126-0.8389 0.2422-1.3584 0.1284-0.5723 0.2495-1.1114 0.2588-1.4405 0.0039-0.1631 0.0269-0.3466 0.0527-0.5508 0.0747-0.6044 0.1661-1.3544-0.0732-2.1748-0.1699-0.5849-0.4985-2.1709-0.4785-3.1904 0.0137-0.7461 0.2075-2.3066 0.2075-2.3066 0.3823 0.0254 1.4712 0.1396 1.9209 0.3525 0.4727 0.2266 1.062 0.9453 1.6143 1.9727 0.5336 0.9931 0.0727 2.8008-0.0806 3.334-0.3071 1.0634 0.1269 2.0976 0.4819 2.7802 0.086 0.1709 0.1822 0.3252 0.2774 0.4795 0.31 0.4961 0.5776 0.9238 0.4594 1.7285-0.1381 0.9375-0.0625 1.3692 0.1206 2.4082 0.0542 0.3067 0.1172 0.6661 0.1885 1.1114 0.294 1.8672-0.2861 3.0156-0.7099 3.8535-0.0069 0.0137-0.0147 0.0293-0.0215 0.043-0.0567-0.6006-0.2803-1.1543-0.7154-1.4219-0.6547-0.3028-1.2607-0.2832-1.6845 0.0254-0.1465-0.4746-0.0323-0.9756 0.0796-1.461 0.1391-0.6064 0.2837-1.2343-0.1597-1.7109-0.1318-0.1416-0.3003-0.25-0.4775-0.3633-0.1758-0.1142-1.1075-0.6914-1.274-1.1894-0.1245-0.2774-0.2197-0.5948-0.229-0.9209zm2.3389 11.998l0.9741 7.0215-1.5185 0.7744-1.6016-7.0195 2.146-0.7764zm21.384 20.292c0.3315 0.2217 1.0649 0.7285 1.4008 1.0869 0.2398 0.2549 0.2178 0.4873-0.0795 0.8301-0.1216 0.1377-0.793 0.6992-1.2886 1.1045-0.2866-0.2813-0.876-0.8535-1.2295-1.207-0.0894-0.0889-0.3257-0.3262 0.0542-0.7461 0.0791-0.0889 0.6899-0.6553 1.1426-1.0684zm1.7182 2.2617c0.6001-0.6885 0.3682-1.2148 0.0659-1.5371-0.2397-0.2529-0.6396-0.5615-0.9877-0.8125h4.0673l-0.5463 0.5234c-0.0328 0.0342-0.3277 0.3575-0.2955 0.7559 0.0122 0.1504 0.0782 0.375 0.3267 0.5635 0.501 0.3896 0.6626 0.5195 0.666 0.5215l0.333-0.4073s-0.1606-0.1328-0.6772-0.5302c-0.1035-0.0791-0.1196-0.1455-0.124-0.1885-0.0118-0.1406 0.1118-0.3086 0.1445-0.3457l0.8642-0.8252c0.2354 0.1426 0.6817 0.4307 1.0523 0.7685 0.0459 0.045 0.189 0.1758-0.0112 0.584-0.1294 0.2578-0.3233 0.4727-0.3262 0.4756l-1.6275 1.7617c-0.9174-0.3095-1.7197-0.5439-3.2905-0.5029-0.1665 0.0039-0.3603 0.0098-0.5737 0.0234 0.3794-0.3154 0.8179-0.6875 0.9399-0.8281zm-0.6816-2.8769c0.4394-0.2686 0.9814-0.5977 1.3481-0.8155 0.5694-0.3369 1.0274-0.539 1.3643-0.6025 0.0684-0.0127 1.6841-0.3115 1.7974-1.2539 0.0175-0.1484 0.0102-0.294-0.0098-0.4365h3.5786c0 0.0869 0.0015 0.1777 0.0015 0.2588 9e-4 0.3613 0.0019 0.6738 0.0224 0.8828 0.0152 0.1484 0.0064 0.3642-0.0044 0.5927-0.0224 0.5264-0.0444 1.0684 0.1783 1.3741h-8.2764zm11.427-0.5176c0.1705-0.3203 0.1714-0.6817 0.0035-1.0762-0.2188-0.5156-0.4517-0.9121-0.6568-1.2627-0.0591-0.1015-0.1128-0.1953-0.1645-0.2861h3.7759l0.0058 1.0566h-1.2256v2.086h-2.2534c0.2012-0.126 0.395-0.293 0.5151-0.5176zm2.563-32.552c0.7583-0.2763 1.3111-0.5937 1.4576-0.6806 0.538 0.3496 1.2651 0.7236 1.6523 0.915-0.0166 0.0508-0.0347 0.1094-0.0518 0.1572-0.1254 0.3682-0.2163 0.6367-0.2163 0.8516 0.0044 1.3828 0.6929 2.331 1.2456 3.0937 0.3262 0.4512 0.6094 0.8389 0.6094 1.1543 0 0.2071-0.0732 0.3809-0.2217 0.5245-0.3789 0.3671-1.1606 0.4765-1.6391 0.4951v-0.1055c-0.0664-1.374-0.4785-3.5342-2.836-6.4053zm4.6968 6.5049v1.8408h-1.8608v-1.3076c0.4428-0.0176 1.3042-0.1142 1.8608-0.5332zm-1.8608 11.802c0.1177 0.1767 0.2558 0.3486 0.4175 0.5088 0.5468 0.5419 1.2421 0.83 2.0097 0.83h0.0274c2.0571-0.0185 2.5127-1.7812 2.5219-2.2529 0.0044-0.2588-0.021-0.5732-0.1157-0.8867 0 0-0.1787-0.4248-0.1811-0.4268-0.544-0.9297-0.3575-2.7422 0.332-3.2314 0.2925-0.208 0.6362-0.294 0.9224-0.2236 0.227 0.0546 0.4018 0.2011 0.521 0.4355 0.1171 0.2285 0.1123 0.4863-0.0113 0.6855-0.1162 0.1895-0.3232 0.3252-0.5605 0.2911l-0.0064 0.5273h0.0152c0.4165 0 0.7885-0.2012 0.9995-0.542 0.2221-0.3584 0.2344-0.8066 0.0327-1.2002-0.1885-0.373-0.4878-0.6172-0.8652-0.709-0.4371-0.1103-0.9302 0.0039-1.3526 0.3057-0.7407 0.5264-0.9961 1.8516-0.8144 2.9404-0.2989-0.1406-0.6455-0.2207-1.0533-0.2207-0.5996 0-1.0986 0.2696-1.3671 0.7383-0.2466 0.4297-0.254 0.9688-0.0181 1.3711 0.2241 0.3809 0.6177 0.5889 1.1118 0.5889h0.02l-0.0068-0.5274c-0.3311 0.0039-0.542-0.1113-0.6704-0.3281-0.1416-0.2412-0.1343-0.5732 0.02-0.8428 0.1011-0.1767 0.355-0.4736 0.9106-0.4736 0.5191 0 0.919 0.1377 1.1856 0.4101 0.3843 0.3897 0.4311 0.9874 0.4258 1.3077 0 0.0175-0.1494 1.7207-2 1.7353-0.0078 0-0.0157 2e-3 -0.023 2e-3 -0.7905-2e-3 -1.3281-0.3682-1.6401-0.6768-0.5386-0.5351-0.7871-1.0918-0.7871-1.8242v-0.5762l4.6089-5.0469h3.1196v-0.5263h-3.3506l-4.3779 4.792v-6.3867h7.7285v-0.5284h-1.4429l-0.0063-6.3154 6.0503-0.0098c-1.127 0.8467-3.4663 2.6368-3.6895 2.8399-0.3496 0.3154-0.6914 0.7031-0.6982 1.6426-0.0039 0.4375 0.1645 0.8398 0.4853 1.1621 0.357 0.3584 0.8858 0.5918 1.3472 0.5918 0.5718 0 1.5464-0.3809 1.5801-1.4063 0.0141-0.415-0.1626-0.7676-0.3955-1-0.2017-0.2002-0.4742-0.2949-0.8067-0.2851-0.6362 0.0263-0.9092 0.6044-0.9023 0.9882l0.5273-0.0107c-1e-3 -0.0723 0.0669-0.4365 0.3975-0.4531 0.1719 0 0.3164 0.0371 0.4136 0.1338 0.125 0.125 0.2485 0.3457 0.2407 0.6074-0.0254 0.7383-0.7847 0.8984-1.0547 0.8984-0.2691 0-0.6743-0.1338-0.9732-0.4336-0.1533-0.1562-0.3364-0.4179-0.333-0.7881 0.0054-0.789 0.2813-1.0361 0.5249-1.2568 0.2535-0.2314 4.2779-3.2227 4.2779-3.2227h0.2334c-1.314 9.0596-6.1509 17.393-13.504 23.016v-6.7373zm2.1216-29.233c-0.3179-0.9073-0.8741-1.9414-1.5972-2.9649 0.4614-1.3623 1.1069-2.4795 1.7529-3.5468 0.6172 0.9228 1.207 2.0019 1.7163 3.2167-0.8564 1.0616-1.518 2.2491-1.872 3.295zm2.1162-2.67c0.8613 2.254 1.4863 4.9102 1.4638 7.8174l0.0137 14.125h-3.3281v-17.726c0-1.0752 0.7925-2.8242 1.8506-4.2168zm2.0332 8.1778h3.0737v6.9219h-3.0664l-0.0073-6.9219zm-4.3853-12.58c-0.6548 1.0762-1.3755 2.2979-1.8926 3.7598v-5.8242c0.6099 0.499 1.2583 1.1982 1.8926 2.0644zm-0.0298 8.6152h0.0049v13.667c-0.06-0.083-0.1206-0.1679-0.1841-0.2549-0.5078-0.7011-1.1406-1.5742-1.1435-2.7861-1e-3 -0.1279 0.0874-0.3838 0.1875-0.6826 0.2036-0.5938 0.5112-1.5 0.5195-2.5908 0.0068-0.8369-0.4165-2.0547-1.2471-3.6133v-8.0088c1.0801 1.5039 1.8628 3.209 1.8628 4.2695zm-1.1416 7.3477c-0.0053 0.6787-0.1357 1.2637-0.2817 1.7617-0.7632-0.3828-1.7988-0.9551-1.9927-1.2109-0.0796-0.1065 0.0371-0.5449 0.1162-0.836 0.1514-0.5644 0.3086-1.1474-0.0132-1.5302-0.5307-0.6338-1.0688-0.795-1.5297-0.8135 0.248-0.4346 0.3847-0.9297 0.3847-1.4375 0-1.6074-1.3086-2.917-2.916-2.917s-2.916 1.3096-2.916 2.917c0 0.9375 0.4639 1.8193 1.2183 2.3633-0.1529 0.25-0.2798 0.5097-0.3091 0.7177-0.0801 0.5616-0.2134 1.5049-0.6104 1.8526-0.1509 0.1328-0.3252 0.2402-0.4951 0.3496-0.0713 0.0449-0.2515 0.1152-0.2935 0.1875-0.0429 0.0732 0.0113 0.1309 0.0513 0.1641 0.0122 0.0107 0.0161 0.0136 0.0161 0.0136 0.0337 0.0293 0.0967 0.0821 0.1997 0.1319 0.6065 0.3369 1.9898 0.708 3.1963 0.7607-0.0703 0.3311-0.2051 0.8545-0.4702 1.6777-0.647 1.9991-1.7808 3.9473-2.6265 5.1045-0.852 1.167-1.455 1.6924-2.0937 2.2471l-0.2456 0.2129c-0.7515 0.6611-1.2627 1.1611-2.1914 2.1416-0.3902 0.4131-0.689 0.9189-0.9785 1.4062-0.3907 0.6622-0.7622 1.2862-1.315 1.6163-1.7597 1.0507-2.2534 2.5234-2.3906 3.1855-0.3501-0.3701-0.855-0.9219-1.1875-1.373-0.481-0.6514-0.4683-2.5713-0.207-4.1299 0.1279-0.7647 0.2168-1.5987 0.3061-2.5293 0.895-0.4619 1.4575-2.0313 1.8516-3.3848 0.269-0.917 1.0561-2.0674 1.5132-2.3642 0.5688-0.3692 1.9277-1.9366 2.7158-3.0372 0.7012-0.9775 1.2041-2.5693 1.3476-3.0566 0.771 0.043 1.6749-0.082 2.3741-0.75 0.4887-0.4648 0.6753-0.8711 0.5698-1.2383-0.1294-0.4531-0.6773-0.7656-1.7271-0.9814-0.2719-0.0567-0.4794-0.1123-0.6499-0.1631 0.1211-0.0488 0.2481-0.0996 0.3872-0.1533 0.545-0.2403 0.7735-0.2725 1.1045-0.2569l0.0245-0.5273c-0.462-0.0215-0.7701 0.0508-1.3296 0.2988-0.6621 0.252-1.1451 0.4795-1.2105 0.5078-0.0879 0.0235-0.1782 0.0586-0.289 0.1055-0.4185 0.1807-1.1495 0.4873-2.5787 0.2559 0.5557-0.6592 1.4771-1.709 1.8438-1.9473 0.3989-0.2598 1.811-0.6895 2.6538-0.9492 0.3061-0.0938 0.5664-0.1729 0.731-0.2285 0.7011-0.2364 1.7631-1.0782 2.184-1.7325 0.3189-0.4941 1.6094-1.2314 2.543-1.3369 0.6172-0.0713 0.9541 0.0459 1.0845 0.1094 0.4804 1.8311 1.6914 3.1963 2.2475 3.8242 0.1084 0.1221 0.2295 0.2588 0.2525 0.2998l0.0796 0.1309c1.54 2.5742 1.8564 3.8916 1.8515 4.541zm-1.249-23.097h-5.8198v-5.0264c0-1.0117 2.0161-2.7089 2.958-3.4023 0.4419 0.3164 1.8096 1.1523 2.8618 2.1621v6.2666zm0-10.733h-1.2236v0.5274h1.2236v3.2597c-1.0146-0.9209-2.1606-1.5918-2.5669-1.8818v-2.1221h-0.5478v2.0938c-0.4585 0.334-1.9395 1.4629-2.7163 2.5947v-8.3037l5.831 3.1777v0.6543zm0 11.262v0.6455c-0.8818 0.4864-2.3657 0.9375-4.2954 1.3116-0.5869-0.7998-1.3374-1.4727-2.2085-1.9571h6.5039zm-6.3994-0.5283h-0.9141v-14.826l0.5469-0.2509 0.3672 0.2011v14.876zm2.9189 6.5567c0 1.2919-0.3857 2.5263-1.1093 3.5878-0.2398 0.0772-0.6094 0.1543-0.8931 0.0596-1.6333-0.5478-1.2407-2.5273-1.0522-3.4785l0.0356-0.1855c0.1475-0.7872-0.1333-1.8028-0.6978-2.5264-0.3823-0.4912-0.853-0.7754-1.3281-0.8037-1.1728-0.0733-1.6523 0.3877-2.0381 0.7578l-0.0478 0.0449c-0.3213-0.3955-1.0156-1.1269-2.4131-0.5488-1.313 0.541-1.4507 2.5166-1.3945 3.166 0.0214 0.2617-0.0928 0.4463-0.2525 0.6973-0.1762 0.2812-0.396 0.6298-0.415 1.1601-0.0205 0.5059 0.251 0.959 0.4897 1.3584 0.2344 0.3877 0.3784 0.6533 0.2783 0.8018-0.1772 0.2568-0.3691 0.2734-0.6831 0.2207-0.7836-0.9766-1.2338-2.542-1.2338-4.3115 0-3.5166 2.8613-6.377 6.3769-6.377 3.5166 0 6.3779 2.8604 6.3779 6.377zm-4.4018-13.02c-0.8028-1.0615-2.1353-2.0791-2.5669-2.3935v-2.0938h-0.5484v2.1221c-0.4448 0.3154-1.7768 1.293-2.852 2.3115v-3.6894h1.3545v-0.5274h-1.3545v-1.1201l5.9673-2.7158v8.1064zm-13.553-13.349h-0.9029v0.5273h0.9029v1.1436h-5.98c0.9472-1.7207 3.3115-2.9092 5.98-2.9932v1.3223zm-42.824 41.675c0-22.964 17.969-41.8 40.586-43.207-2.0142 0.5312-3.6187 1.6845-4.3262 3.2031h-1.0835v1.9355h0.6597v3.7832l-6.8423-3.124v-3.0742h-0.4273v3.0449l-6.603 3.6113v-2.1875h-0.5264l0.0147 3.418h-1.294v0.5274h1.294v4.1406c-8.7691 6.8359-13.799 17.121-13.799 28.225 0 11.108 5.0278 21.391 13.799 28.225v5.7324l-1.6641-0.0019 0.0098 2.0879c-11.902-7.7266-19.797-21.124-19.797-36.339zm20.027 20.517c0.2353-0.4023 0.2275-0.9414-0.0186-1.3711-0.2685-0.4687-0.7661-0.7383-1.3677-0.7383-0.4062 0-0.7539 0.0801-1.0522 0.2207 0.1816-1.0888-0.0737-2.414-0.8145-2.9404-0.4228-0.3018-0.9145-0.416-1.3525-0.3057-0.3774 0.0918-0.6763 0.336-0.8662 0.7051-0.2002 0.3975-0.188 0.8457 0.0337 1.2041 0.2109 0.3408 0.583 0.542 0.999 0.542h0.0156l-0.0063-0.5273c-0.2246-0.0225-0.4434-0.1016-0.561-0.2911-0.1241-0.1992-0.1275-0.457-0.0118-0.6855 0.1201-0.2344 0.2954-0.3809 0.522-0.4355 0.2847-0.0704 0.6294 0.0156 0.9233 0.2236 0.6885 0.4892 0.8746 2.3017 0.3306 3.2314-0.0019 2e-3 -0.2969 0.5186-0.2969 1.3145 0 0.4726 0.4654 2.2334 2.5225 2.2519h0.0273c0.7681 0 1.4629-0.2881 2.0098-0.83 0.1489-0.1475 0.2764-0.3067 0.3882-0.4698v6.2237c-7.165-5.7207-11.707-13.613-12.918-22.539h0.1255c0.0352 0.0303 3.5449 2.9619 3.8301 3.2207 0.2427 0.2207 0.5186 0.4678 0.5249 1.2568 0.0024 0.3702-0.1802 0.6319-0.333 0.7862-0.2988 0.3017-0.7046 0.3779-0.9732 0.3779-0.2695 0-1.0209-0.1025-1.0458-0.8408-0.0088-0.2617 0.1054-0.4824 0.2299-0.6074 0.0992-0.0967 0.2393-0.1348 0.4146-0.1338 0.3315 0.0166 0.4223 0.3808 0.4223 0.4531l0.5269 0.0107c0.0063-0.3838-0.2896-0.9619-0.9272-0.9882-0.3228-0.0098-0.6045 0.0849-0.8057 0.2851-0.2329 0.2324-0.3999 0.585-0.3862 1 0.0337 1.0254 0.9985 1.3496 1.5712 1.3496 0.4605 0 0.9898-0.1767 1.3472-0.5351 0.3213-0.3223 0.4888-0.7246 0.4859-1.1621-0.0079-0.9405-0.3501-1.3272-0.6983-1.6426-0.2236-0.2031-2.2905-1.9697-3.2988-2.8301h5.7471l-0.0059 6.3154h-1.561v0.5284h7.728v6.3867l-4.377-4.792h-3.351v0.5263h3.1176l4.6104 5.0469v0.417c0.0483 0.9043-0.3047 1.5322-0.7578 1.9834-0.3125 0.3086-0.8496 0.6768-1.6402 0.6768-0.0068 0-0.0151-2e-3 -0.0229-2e-3 -1.8511-0.0146-2.001-1.7178-2.001-1.7324-0.0044-0.3232 0.043-0.9209 0.4273-1.3106 0.2666-0.2724 0.665-0.4101 1.184-0.4101 0.5577 0 0.8106 0.2969 0.9117 0.4736 0.1543 0.2696 0.1626 0.6016 0.0205 0.8428-0.1299 0.2168-0.3867 0.3301-0.6709 0.3281l-0.0069 0.5274c0.5142 0.0048 0.9053-0.2041 1.1319-0.5889zm1.4243-41.852v4.126c-1.8731 1.3604-4.4551 4.9815-5.6118 9.8467v-6.2188c0.0591 0.1075 0.1684 0.1827 0.2993 0.1827 0.1919 0 0.3481-0.1563 0.3481-0.3487 0-0.1914-0.1562-0.3476-0.3481-0.3476-0.1309 0-0.2402 0.0761-0.2993 0.1816v-0.8398c0.0591 0.1064 0.1684 0.1806 0.2993 0.1806 0.1919 0 0.3481-0.1552 0.3481-0.3447 0-0.1934-0.1562-0.3496-0.3481-0.3496-0.1309 0-0.2402 0.0752-0.2993 0.1836v-0.8428c0.0591 0.1065 0.1684 0.1826 0.2993 0.1826 0.1919 0 0.3481-0.1572 0.3481-0.3476 0-0.1934-0.1562-0.3487-0.3481-0.3487-0.1309 0-0.2402 0.0752-0.2993 0.1827v-0.3555h-0.128c0.1104-0.0586 0.189-0.1719 0.189-0.3037 0-0.1924-0.1558-0.3487-0.3481-0.3487-0.1919 0-0.3477 0.1563-0.3477 0.3487 0 0.1318 0.0781 0.2451 0.188 0.3037h-0.127v0.3896c-0.0517-0.1259-0.1757-0.2168-0.3208-0.2168-0.1919 0-0.3481 0.1553-0.3481 0.3487 0 0.1904 0.1562 0.3476 0.3481 0.3476 0.1451 0 0.2691-0.0908 0.3208-0.2168v0.9112c-0.0517-0.128-0.1757-0.2178-0.3208-0.2178-0.1919 0-0.3481 0.1562-0.3481 0.3496 0 0.1895 0.1562 0.3447 0.3481 0.3447 0.1451 0 0.2691-0.0888 0.3208-0.2148v0.9111c-0.0517-0.1279-0.1757-0.2187-0.3208-0.2187-0.1919 0-0.3481 0.1562-0.3481 0.3476 0 0.1924 0.1562 0.3487 0.3481 0.3487 0.1451 0 0.2691-0.0899 0.3208-0.2159 0 0 0.0059 10.502 0.0039 11.246l-3.0571-0.0097v-3.4053c0.0586 0.1074 0.169 0.1826 0.2998 0.1826 0.1919 0 0.3482-0.1543 0.3482-0.3476 0-0.1915-0.1563-0.3467-0.3482-0.3467-0.1308 0-0.2412 0.0742-0.2998 0.1826v-0.8438c0.0586 0.1075 0.169 0.1836 0.2998 0.1836 0.1919 0 0.3482-0.1562 0.3482-0.3476 0-0.1924-0.1563-0.3487-0.3482-0.3487-0.1308 0-0.2412 0.0752-0.2998 0.1827v-0.8418c0.0586 0.1084 0.169 0.1826 0.2998 0.1826 0.1919 0 0.3482-0.1553 0.3482-0.3477 0-0.1914-0.1563-0.3486-0.3482-0.3486-0.1308 0-0.2412 0.0771-0.2998 0.1836v-0.3555h-0.1279c0.1108-0.0596 0.1885-0.1719 0.1885-0.3056 0-0.1905-0.1558-0.3467-0.3472-0.3467-0.1924 0-0.3477 0.1562-0.3477 0.3467 0 0.1337 0.0777 0.246 0.1885 0.3056h-0.1279v0.3897c-0.0523-0.128-0.1753-0.2178-0.3208-0.2178-0.1919 0-0.3477 0.1572-0.3477 0.3486 0 0.1924 0.1558 0.3477 0.3477 0.3477 0.1455 0 0.2685-0.0908 0.3208-0.2168v0.9092c-0.0523-0.125-0.1753-0.2159-0.3208-0.2159-0.1919 0-0.3477 0.1563-0.3477 0.3487 0 0.1914 0.1558 0.3476 0.3477 0.3476 0.1455 0 0.2685-0.0898 0.3208-0.2148v0.9082c-0.0523-0.127-0.1753-0.2158-0.3208-0.2158-0.1919 0-0.3477 0.1552-0.3477 0.3467 0 0.1933 0.1558 0.3476 0.3477 0.3476 0.1455 0 0.2685-0.0889 0.3208-0.2158v3.5742l-2.4307 2.2559 0.3907 0.4189 2.0571-1.9658v6.3057h-3.188c-0.1856-1.4717-0.2881-2.9649-0.2881-4.4766 0-10.801 4.8345-20.808 13.272-27.543v5.3838h-1.4634v0.5283h1.4634zm-2.3945 15.552v17.398h-3.2173l0.0132-13.997c0-2.8897 0.5034-5.3438 1.4267-7.6289 1.0576 1.3925 1.7339 3 1.7735 4.0478-3e-3 0.0586 0.0039 0.1797 0.0039 0.1797zm-1.5332-4.8525c0.5092-1.2139 1.0991-2.293 1.7158-3.2168 0.6465 1.0683 1.2915 2.1855 1.7529 3.5488-0.7227 1.0215-1.3271 2.0664-1.645 2.9746-0.3535-1.0459-0.9678-2.2441-1.8237-3.3066zm2.0605 4.8486s0.0073-0.0567 0.0156-0.1533c0.064-1.0039 0.8081-2.5489 1.8516-4.0225v21.578h-1.8672v-17.402zm0.0474-8.626c0.6089-0.832 1.2309-1.5107 1.8198-2.0039v5.5703c-0.5127-1.374-1.1948-2.5361-1.8198-3.5664zm-4.3345 12.59l-0.0068 6.5957h-3.0992v-6.5899l3.106-0.0058zm5.0185 36.6l4.587 0.0079-0.0035 1.5537h-4.5756l-0.0079-1.5616zm0.3042 2.0889h7.2608c-0.6553 0.6904-0.5381 1.4277-0.2085 1.8926 0.1269 0.1758 1.5293 1.7383 2.0933 2.3652-3.2325-1.0674-6.2989-2.5-9.1456-4.2578zm8.9039 3.2012c-0.6812-0.7598-1.3536-1.5176-1.4239-1.6153-0.1601-0.2255-0.353-0.6855 0.1651-1.2246 0.2002-0.2099 0.4023-0.3125 0.5776-0.3613h0.5176l1.6289 1.7129c-0.313 0.0215-0.6133 0.1309-0.8672 0.3379-0.3589 0.2861-0.5732 0.7051-0.5981 1.1504zm0.9018 0.959c-0.1826-0.1866-0.395-0.4981-0.3799-0.9102 0.0113-0.3008 0.1626-0.5957 0.4048-0.79 0.2388-0.1914 0.5366-0.2637 0.833-0.2129 0.2534 0.0459 0.4536 0.207 0.5376 0.4277 0.0171 0.044 0.0274 0.0899 0.0327 0.1358 0.1778 0.0117 0.354 0.0136 0.5313 0.0283-0.0059-0.1182-0.0288-0.2354-0.0718-0.3487-0.082-0.2168-0.227-0.3964-0.4097-0.5312l-1.8173-1.959h4.4516l-1.1142 1.0342 0.3584 0.3877 1.5302-1.4219h0.0415v3.5938c-0.1308 0.0429-0.2617 0.0878-0.3974 0.1337l-0.1963 0.0674c-0.2647 0.0889-0.543 0.1895-0.8228 0.292-0.8393 0.3086-1.7065 0.628-2.2881 0.628-0.4204 0-0.9008-0.2178-1.2236-0.5547zm2.1636 0.9326c0.4848-0.1279 1.0107-0.3203 1.5293-0.5098 0.2759-0.1025 0.5483-0.2012 0.8105-0.29l0.1973-0.0674c0.9595-0.3272 1.7143-0.5781 3.313-0.5459 0.6826 0.0166 1.7324 0.0713 2.8838 0.2344 0.2065 0.3418 0.9116 1.5869 1.4301 2.5088-3.5019-0.045-6.9072-0.4981-10.164-1.3301zm10.557 0.9551c-1.4809-2.6358-1.4936-2.6426-1.6963-2.6475-0.2929-0.042-0.5796-0.0772-0.8574-0.1084v-0.9199h1.2466l0.0088-0.503h-1.2554v-1.8691h5.6553c-0.3496 0.3232-0.7696 0.7129-0.8511 0.8037-0.4468 0.4951-0.46 1.044-0.0352 1.4717 0.2852 0.2832 0.7193 0.707 1.0298 1.0078-0.4228 0.0469-0.8838 0.1084-1.3818 0.1895-0.1626 0-0.1743 0.0048-1.8633 2.5752zm0.3799 0.3818c0.6113-0.9287 1.4106-2.1367 1.6289-2.4502 0.6382-0.2383 2.5054-0.3252 2.8423-0.333 1.6025-0.0342 2.6533 0.251 3.6133 0.5791l0.1987 0.0674c0.2603 0.0888 0.5322 0.1875 0.8071 0.289 0.4981 0.1817 1.003 0.3662 1.4717 0.4942-3.3804 0.8691-6.9189 1.3359-10.562 1.3535zm12.786-2.2695c-0.3232 0.3369-0.8042 0.5547-1.2236 0.5547-0.582 0-1.4502-0.3194-2.29-0.628-0.2315-0.0849-0.4576-0.166-0.6797-0.2422l1.4692-1.5927c0.0611-0.0655 0.5933-0.6582 0.5689-1.2354-0.0088-0.2207-0.1001-0.4189-0.2627-0.5654-0.1812-0.167-0.3745-0.3194-0.5586-0.4512h3.3398l-1.8408 1.9609c-0.1826 0.1329-0.3291 0.3125-0.4106 0.5293-0.0425 0.1123-0.0645 0.2276-0.0704 0.3418 0.1768-0.0166 0.3516-0.0136 0.5279-0.0068 0.0053-0.0498 0.0166-0.1006 0.0351-0.1504 0.083-0.2207 0.2852-0.3799 0.5371-0.4277 0.3038-0.0508 0.5957 0.0224 0.8331 0.2129 0.2416 0.1943 0.394 0.4892 0.4047 0.79 0.0142 0.4121-0.1972 0.7236-0.3794 0.9102zm0.3033-2.1104c-0.2549-0.206-0.5533-0.3164-0.8672-0.3369l1.6269-1.7129h0.523c0.1753 0.0498 0.3735 0.1524 0.5732 0.3613 0.5191 0.5391 0.3272 0.9991 0.1651 1.2246-0.0704 0.0997-0.7432 0.8565-1.4234 1.6153-0.0244-0.4453-0.2392-0.8643-0.5976-1.1514zm0.415 2.1426c0.5981-0.6641 1.9126-2.1279 2.0347-2.2998 0.33-0.4649 0.4477-1.2031-0.2105-1.8926h7.1294c-2.79 1.7227-5.7925 3.1328-8.9536 4.1924zm9.2095-4.7197h-4.5786v-1.5537h4.5786v1.5537zm0.5229 0.0273l0.0044-2.1055-1.9731-0.0048v-5.2803c9.0141-6.7285 14.393-17.44 14.393-28.68 0-11.24-5.3818-21.957-14.4-28.684v-3.6816h1.3433v-0.5274h-1.3433v-3.418h-0.5449v2.1641l-6.5625-3.5859v-3.0469h-0.4277v3.0732l-6.8423 3.1143v-3.7725h0.6245v-1.9355h-1.0488c-0.7246-1.5547-2.3843-2.7266-4.4644-3.2412 22.85 1.1572 41.082 20.112 41.082 43.245 0 15.234-7.915 28.646-19.841 36.366z"/>
</svg>
