<svg xmlns="http://www.w3.org/2000/svg" xmlns:xlink="http://www.w3.org/1999/xlink" viewBox="0 0 1920 1080"><defs><style>.cls-1{fill:none;}.cls-2{clip-path:url(#clip-path);}.cls-3{fill:url(#linear-gradient);}.cls-4{clip-path:url(#clip-path-2);}.cls-5{fill:url(#linear-gradient-2);}.cls-6{fill:url(#linear-gradient-3);}.cls-7,.cls-8,.cls-9{fill:#fff;}.cls-7{opacity:0.3;}.cls-8{fill-rule:evenodd;}</style><clipPath id="clip-path"><rect class="cls-1" x="-2150.56" width="1922.47" height="1080.35"/></clipPath><linearGradient id="linear-gradient" x1="-1885.31" y1="870.85" x2="-725.27" y2="-289.2" gradientUnits="userSpaceOnUse"><stop offset="0" stop-color="#78be20"/><stop offset="0.1" stop-color="#63bf40"/><stop offset="0.25" stop-color="#45bf6d"/><stop offset="0.4" stop-color="#2cc093"/><stop offset="0.56" stop-color="#19c0b0"/><stop offset="0.71" stop-color="#0bc1c4"/><stop offset="0.86" stop-color="#03c1d1"/><stop offset="1" stop-color="#00c1d5"/></linearGradient><clipPath id="clip-path-2"><rect class="cls-1" x="0.29" width="1920" height="1080"/></clipPath><linearGradient id="linear-gradient-2" x1="263.91" y1="871.16" x2="1424.55" y2="-289.49" gradientUnits="userSpaceOnUse"><stop offset="0" stop-color="#1d428a"/><stop offset="0.18" stop-color="#3d3e97"/><stop offset="0.39" stop-color="#5a3aa3"/><stop offset="0.6" stop-color="#6e37ab"/><stop offset="0.8" stop-color="#7b36b0"/><stop offset="1" stop-color="#7f35b2"/></linearGradient><linearGradient id="linear-gradient-3" x1="-883.19" y1="7075.96" x2="-247.91" y2="6440.69" gradientTransform="translate(987.74 7465.48) rotate(180)" gradientUnits="userSpaceOnUse"><stop offset="0" stop-color="#0091da"/><stop offset="0.16" stop-color="#0091da" stop-opacity="0.98"/><stop offset="0.32" stop-color="#0091da" stop-opacity="0.92"/><stop offset="0.48" stop-color="#0091da" stop-opacity="0.83"/><stop offset="0.65" stop-color="#0091da" stop-opacity="0.7"/><stop offset="0.82" stop-color="#0091da" stop-opacity="0.52"/><stop offset="0.99" stop-color="#0091da" stop-opacity="0.32"/><stop offset="1" stop-color="#0091da" stop-opacity="0.3"/></linearGradient></defs><g id="Intro"><g class="cls-2"><polygon class="cls-3" points="-2148.09 1080 -960.85 1080 119.15 0 -2148.09 0 -2148.09 1080"/></g><g class="cls-4"><polygon class="cls-5" points="0.58 1080 1189.55 1080 2269.54 0 0.58 0 0.58 1080"/><polygon class="cls-6" points="2095.22 328.68 1768.3 328.68 1011.29 1085.69 1338.21 1085.69 2095.22 328.68"/><rect class="cls-1" x="0.58" width="1920" height="1078.4"/></g><circle class="cls-7" cx="749.1" cy="659.1" r="243.1"/><path class="cls-8" d="M865.3,523.6H632.9A20.78,20.78,0,0,0,612,544.3V773.9a20.85,20.85,0,0,0,20.9,20.7H865.3a20.78,20.78,0,0,0,20.9-20.7V544.3A20.66,20.66,0,0,0,865.3,523.6Zm0,7.1A13.64,13.64,0,0,1,879,544.3V773.9a13.7,13.7,0,0,1-13.7,13.6H632.9a13.64,13.64,0,0,1-13.7-13.6V544.3a13.7,13.7,0,0,1,13.7-13.6H865.3"/><path class="cls-8" d="M772.9,708.6H725.3a4.27,4.27,0,0,0-4.3,4.3v47.6a4.27,4.27,0,0,0,4.3,4.3h47.6a4.27,4.27,0,0,0,4.3-4.3V712.9A4.27,4.27,0,0,0,772.9,708.6Zm-2.7,7v42.1H728.1V715.6h42.1"/><path class="cls-8" d="M737.6,726.9a1.79,1.79,0,0,1,1.8-1.8H759a1.79,1.79,0,0,1,1.8,1.8v19.6a1.79,1.79,0,0,1-1.8,1.8H739.4a1.79,1.79,0,0,1-1.8-1.8Z"/><path class="cls-8" d="M772.9,556.6H725.3a4.27,4.27,0,0,0-4.3,4.3v47.6a4.27,4.27,0,0,0,4.3,4.3h47.6a4.27,4.27,0,0,0,4.3-4.3V560.9A4.27,4.27,0,0,0,772.9,556.6Zm-2.7,7v42.1H728.1V563.6h42.1"/><path class="cls-8" d="M852.2,708.6H804.6a4.27,4.27,0,0,0-4.3,4.3v47.6a4.27,4.27,0,0,0,4.3,4.3h47.6a4.27,4.27,0,0,0,4.3-4.3V712.9A4.27,4.27,0,0,0,852.2,708.6Zm-2.7,7v42.1H807.4V715.6h42.1"/><path class="cls-8" d="M828.4,629.3a3,3,0,0,0-2.3,1l-24.8,26.2a3.57,3.57,0,0,0,0,4.9l24.8,26.3a3.15,3.15,0,0,0,4.6,0l24.8-26.3a3.57,3.57,0,0,0,0-4.9l-24.8-26.2A3.45,3.45,0,0,0,828.4,629.3Zm0,9.1,19.5,20.7-19.5,20.7-19.5-20.7,19.5-20.7"/><path class="cls-8" d="M669.8,632.6c-15.5,0-28.1,13.3-28.1,29.7S654.3,692,669.8,692s28.1-13.3,28.1-29.7S685.3,632.6,669.8,632.6Zm0,7.4c11.6,0,21.1,10,21.1,22.3s-9.4,22.3-21.1,22.3-21.1-10-21.1-22.3,9.5-22.3,21.1-22.3"/><path class="cls-8" d="M828.4,556.6a28.1,28.1,0,1,0,28.1,28.1A28.12,28.12,0,0,0,828.4,556.6Zm0,7a21.1,21.1,0,1,1-21.1,21.1,21.1,21.1,0,0,1,21.1-21.1"/><path class="cls-8" d="M828.4,569.8a14.9,14.9,0,1,0,14.9,14.9A14.94,14.94,0,0,0,828.4,569.8Zm0,7.5a7.4,7.4,0,1,1-7.4,7.4,7.38,7.38,0,0,1,7.4-7.4"/><path class="cls-8" d="M830.1,751.6a8.6,8.6,0,0,1-1.6-.1,3.7,3.7,0,0,1-2.9-4.1,3.38,3.38,0,0,1,3.7-3.2,6.34,6.34,0,0,0,6.5-3.7,8.53,8.53,0,0,0,.7-5.7,6.92,6.92,0,0,0-3.1-4.5,5.57,5.57,0,0,0-5-.7,6.53,6.53,0,0,0-4,3.5,7.62,7.62,0,0,0-.8,4.7,3.66,3.66,0,0,1-2.8,4.2,3.32,3.32,0,0,1-3.7-3.2,17.14,17.14,0,0,1,1.6-9.5,13.53,13.53,0,0,1,8-6.9,11.83,11.83,0,0,1,10,1.5,15.41,15.41,0,0,1,6.2,9,16.38,16.38,0,0,1-1.3,11.3C839.1,748.8,834.8,751.6,830.1,751.6Z"/><path class="cls-8" d="M672.9,605.7V593.1h-7v12.6H648.8V563.6h17.1V577h7V563.6h18v17.8H649.2v7H691v17.3Zm20.7-49.1H646a4.27,4.27,0,0,0-4.3,4.3v47.6a4.27,4.27,0,0,0,4.3,4.3h47.6a4.27,4.27,0,0,0,4.3-4.3V560.9A4.27,4.27,0,0,0,693.6,556.6Z"/><path class="cls-8" d="M728.1,681.7V639.6h38.7L734.2,669a3.6,3.6,0,0,0-.3,5,3.37,3.37,0,0,0,2.6,1.2,3.78,3.78,0,0,0,2.4-.9L770.2,646v35.8l-42.1-.1Zm44.8-49.1H725.3a4.27,4.27,0,0,0-4.3,4.3v47.6a4.27,4.27,0,0,0,4.3,4.3h47.6a4.27,4.27,0,0,0,4.3-4.3V636.9A4.27,4.27,0,0,0,772.9,632.6Z"/><path class="cls-8" d="M690.9,757.7H670.1V738.5a3.54,3.54,0,0,0-3.5-3.5H648.8V715.6h42.1v42.1ZM648.8,742h14.3v15.7H648.8Zm44.8-33.4H646a4.27,4.27,0,0,0-4.3,4.3v47.6a4.27,4.27,0,0,0,4.3,4.3h47.6a4.27,4.27,0,0,0,4.3-4.3V712.9A4.27,4.27,0,0,0,693.6,708.6Z"/><path class="cls-9" d="M511.1,280.1c-4.48,2.24-13.44,4.48-24.92,4.48-26.6,0-46.62-16.8-46.62-47.74,0-29.54,20-49.56,49.28-49.56,11.76,0,19.18,2.52,22.4,4.2l-2.94,9.94a44.36,44.36,0,0,0-19-3.92c-22.12,0-36.82,14.14-36.82,38.92,0,23.1,13.3,37.94,36.26,37.94,7.42,0,15-1.54,19.88-3.92Z"/><path class="cls-9" d="M585.72,248.74c0,25.06-17.36,36-33.74,36-18.34,0-32.48-13.44-32.48-34.86,0-22.68,14.84-36,33.6-36C572.56,213.88,585.72,228,585.72,248.74Zm-53.76.7c0,14.84,8.54,26,20.58,26,11.76,0,20.58-11.06,20.58-26.32,0-11.48-5.74-26-20.3-26S532,236.56,532,249.44Z"/><path class="cls-9" d="M601.26,233.76c0-7-.14-12.74-.56-18.34h10.92l.7,11.2h.28c3.36-6.44,11.2-12.74,22.4-12.74,9.38,0,23.94,5.6,23.94,28.84v40.46H646.62V244.12c0-10.92-4.06-20-15.68-20a17.5,17.5,0,0,0-16.52,12.6,17.71,17.71,0,0,0-.84,5.74v40.74H601.26Z"/><path class="cls-9" d="M693.24,196v19.46h17.64v9.38H693.24v36.54c0,8.4,2.38,13.16,9.24,13.16a27.41,27.41,0,0,0,7.14-.84l.56,9.24a30.16,30.16,0,0,1-10.92,1.68c-5.74,0-10.36-1.82-13.3-5.18-3.5-3.64-4.76-9.66-4.76-17.64v-37H670.7v-9.38h10.5V199.18Z"/><path class="cls-9" d="M762.26,283.18l-1-8.54h-.42a25.24,25.24,0,0,1-20.72,10.08c-13.72,0-20.72-9.66-20.72-19.46,0-16.38,14.56-25.34,40.74-25.2v-1.4c0-5.6-1.54-15.68-15.4-15.68a33.76,33.76,0,0,0-17.64,5l-2.8-8.12c5.6-3.64,13.72-6,22.26-6,20.72,0,25.76,14.14,25.76,27.72v25.34a95.41,95.41,0,0,0,1.12,16.24Zm-1.82-34.58c-13.44-.28-28.7,2.1-28.7,15.26,0,8,5.32,11.76,11.62,11.76a16.86,16.86,0,0,0,16.38-11.34,12.86,12.86,0,0,0,.7-3.92Z"/><path class="cls-9" d="M805.94,196.38c.14,4.2-2.94,7.56-7.84,7.56a7.33,7.33,0,0,1-7.42-7.56,7.51,7.51,0,0,1,7.7-7.7C803,188.68,805.94,192,805.94,196.38Zm-13.72,86.8V215.42h12.32v67.76Z"/><path class="cls-9" d="M825,233.76c0-7-.14-12.74-.56-18.34h10.92l.7,11.2h.28c3.36-6.44,11.2-12.74,22.4-12.74,9.38,0,23.94,5.6,23.94,28.84v40.46H870.34V244.12c0-10.92-4.06-20-15.68-20a17.5,17.5,0,0,0-16.52,12.6,17.71,17.71,0,0,0-.84,5.74v40.74H825Z"/><path class="cls-9" d="M909.54,251.54c.28,16.66,10.92,23.52,23.24,23.52,8.82,0,14.14-1.54,18.76-3.5l2.1,8.82c-4.34,2-11.76,4.2-22.54,4.2-20.86,0-33.32-13.72-33.32-34.16s12-36.54,31.78-36.54c22.12,0,28,19.46,28,31.92a46.47,46.47,0,0,1-.42,5.74Zm36.12-8.82c.14-7.84-3.22-20-17.08-20-12.46,0-17.92,11.48-18.9,20Z"/><path class="cls-9" d="M972.82,236.56c0-8-.14-14.84-.56-21.14H983l.42,13.3H984c3.08-9.1,10.5-14.84,18.76-14.84a13.33,13.33,0,0,1,3.5.42v11.62a18.51,18.51,0,0,0-4.2-.42c-8.68,0-14.84,6.58-16.52,15.82a34.68,34.68,0,0,0-.56,5.74v36.12H972.82Z"/><path class="cls-9" d="M1016.92,270.58a32.29,32.29,0,0,0,16.24,4.9c9,0,13.16-4.48,13.16-10.08,0-5.88-3.5-9.1-12.6-12.46-12.18-4.34-17.92-11.06-17.92-19.18,0-10.92,8.82-19.88,23.38-19.88a33.82,33.82,0,0,1,16.66,4.2l-3.08,9a26.37,26.37,0,0,0-13.86-3.92c-7.28,0-11.34,4.2-11.34,9.24,0,5.6,4.06,8.12,12.88,11.48,11.76,4.48,17.78,10.36,17.78,20.44,0,11.9-9.24,20.3-25.34,20.3-7.42,0-14.28-1.82-19-4.62Z"/></g></svg>