<svg xmlns="http://www.w3.org/2000/svg" xmlns:xlink="http://www.w3.org/1999/xlink" viewBox="0 0 1920 1080"><defs><style>.cls-1{fill:none;}.cls-2{clip-path:url(#clip-path);}.cls-3{fill:url(#linear-gradient);}.cls-4{fill:url(#linear-gradient-2);}.cls-5,.cls-6,.cls-7{fill:#fff;}.cls-5{opacity:0.3;}.cls-6{fill-rule:evenodd;}</style><clipPath id="clip-path"><rect class="cls-1" y="0.8" width="1920" height="1078.4"/></clipPath><linearGradient id="linear-gradient" x1="262.77" y1="871.65" x2="1422.82" y2="-288.4" gradientUnits="userSpaceOnUse"><stop offset="0" stop-color="#1d428a"/><stop offset="0.09" stop-color="#185098"/><stop offset="0.32" stop-color="#0e6cb5"/><stop offset="0.55" stop-color="#0681c9"/><stop offset="0.78" stop-color="#028dd6"/><stop offset="1" stop-color="#0091da"/></linearGradient><linearGradient id="linear-gradient-2" x1="7715.25" y1="7075.16" x2="8350.53" y2="6439.89" gradientTransform="translate(9589.97 7465.48) rotate(180)" gradientUnits="userSpaceOnUse"><stop offset="0" stop-color="#7f35b2"/><stop offset="0.17" stop-color="#7f35b2" stop-opacity="0.98"/><stop offset="0.35" stop-color="#7f35b2" stop-opacity="0.91"/><stop offset="0.54" stop-color="#7f35b2" stop-opacity="0.79"/><stop offset="0.72" stop-color="#7f35b2" stop-opacity="0.63"/><stop offset="0.91" stop-color="#7f35b2" stop-opacity="0.42"/><stop offset="1" stop-color="#7f35b2" stop-opacity="0.3"/></linearGradient></defs><g id="Intro"><g class="cls-2"><polygon class="cls-3" points="0 1080.8 1187.24 1080.8 2267.24 0.8 0 0.8 0 1080.8"/><polygon class="cls-4" points="2099.02 329.48 1772.1 329.48 1015.09 1086.49 1342.01 1086.49 2099.02 329.48"/><rect class="cls-1" y="0.8" width="1920" height="1078.4"/></g><circle class="cls-5" cx="749.1" cy="659.1" r="243.1"/><path class="cls-6" d="M800.7,557.75c-31.6,0-58.9,21.3-70.7,51.8a64.56,64.56,0,0,0-26.4-6.4H702c-31.1,0-57.2,22.2-63.6,52.2a54.15,54.15,0,0,0-12.8-1.8h-1.3a52.28,52.28,0,0,0-51.9,51.1c-.7,28.9,25.5,55.3,54.1,56h6.1c34.4,0,198-.7,232.1-.7h7.2c29.1,0,53.2-27.5,53.9-61.9.9-33.7-20.9-61.7-49-64.4-3.8-42-35.3-75.1-74.3-76.1A5.24,5.24,0,0,1,800.7,557.75Zm0,9.3h1.7c33.8.8,61.9,29.9,65.3,67.6l.7,7.7,7.7.7c23.5,2.2,41.3,26.3,40.6,54.8-.6,29.1-20.7,52.7-44.6,52.7h-7.2c-17,0-67.1.2-115.5.3-48.8.2-99.3.3-116.5.3h-5.8c-23.7-.6-45.6-23.2-45-46.5.5-23.1,19.6-41.9,42.5-41.9h1.1a44.34,44.34,0,0,1,10.5,1.5l9.5,2.6,2.1-9.7c5.6-26,28.5-44.8,54.5-44.8h1.3a53.7,53.7,0,0,1,22.6,5.4l9.1,4.4,3.6-9.5c10.5-27.6,34.9-45.6,61.8-45.6"/><path class="cls-7" d="M392.46,189.94a141.17,141.17,0,0,1,23.38-1.82c12,0,20.86,2.8,26.46,7.84,5.18,4.48,8.26,11.34,8.26,19.74S448,231,443.28,235.86c-6.44,6.86-16.94,10.36-28.84,10.36a41.92,41.92,0,0,1-9.8-.84v37.8H392.46Zm12.18,45.5a40.85,40.85,0,0,0,10.08,1c14.7,0,23.66-7.14,23.66-20.16,0-12.46-8.82-18.48-22.26-18.48a51.11,51.11,0,0,0-11.48,1Z"/><path class="cls-7" d="M521.12,264.7c0,7,.14,13.16.56,18.48H510.76l-.7-11.06h-.28a25.49,25.49,0,0,1-22.4,12.6c-10.64,0-23.38-5.88-23.38-29.68V215.42h12.32v37.52c0,12.88,3.92,21.56,15.12,21.56,8.26,0,14-5.74,16.24-11.2a18,18,0,0,0,1.12-6.3V215.42h12.32Z"/><path class="cls-7" d="M541,283.18c.28-4.62.56-11.48.56-17.5v-81.9h12.18v42.56H554c4.34-7.56,12.18-12.46,23.1-12.46,16.8,0,28.7,14,28.56,34.58,0,24.22-15.26,36.26-30.38,36.26-9.8,0-17.64-3.78-22.68-12.74h-.42l-.56,11.2ZM553.74,256a23.07,23.07,0,0,0,.56,4.48c2.38,8.54,9.52,14.42,18.48,14.42,12.88,0,20.58-10.5,20.58-26,0-13.58-7-25.2-20.16-25.2-8.4,0-16.24,5.74-18.76,15.12a24.28,24.28,0,0,0-.7,5Z"/><path class="cls-7" d="M621.21,183.78h12.32v99.4H621.21Z"/><path class="cls-7" d="M668,196.38c.14,4.2-2.94,7.56-7.84,7.56a7.33,7.33,0,0,1-7.42-7.56,7.51,7.51,0,0,1,7.7-7.7C665,188.68,668,192,668,196.38Zm-13.72,86.8V215.42h12.32v67.76Z"/><path class="cls-7" d="M735.31,280.66c-3.22,1.68-10.36,3.92-19.46,3.92-20.44,0-33.74-13.86-33.74-34.58s14.28-36,36.4-36a41.18,41.18,0,0,1,17.08,3.5l-2.8,9.52c-2.94-1.68-7.56-3.22-14.28-3.22-15.54,0-23.94,11.48-23.94,25.62,0,15.68,10.08,25.34,23.52,25.34a35,35,0,0,0,15.12-3.36Z"/><path class="cls-7" d="M845.77,280.1c-4.48,2.24-13.44,4.48-24.92,4.48-26.6,0-46.62-16.8-46.62-47.74,0-29.54,20-49.56,49.28-49.56,11.76,0,19.18,2.52,22.4,4.2L843,201.42a44.36,44.36,0,0,0-19-3.92c-22.12,0-36.82,14.14-36.82,38.92,0,23.1,13.3,37.94,36.26,37.94,7.42,0,15-1.54,19.88-3.92Z"/><path class="cls-7" d="M860.61,183.78h12.32v99.4H860.61Z"/><path class="cls-7" d="M955,248.74c0,25.06-17.36,36-33.74,36-18.34,0-32.48-13.44-32.48-34.86,0-22.68,14.84-36,33.6-36C941.81,213.88,955,228,955,248.74Zm-53.76.7c0,14.84,8.54,26,20.58,26,11.76,0,20.58-11.06,20.58-26.32,0-11.48-5.74-26-20.3-26S901.21,236.56,901.21,249.44Z"/><path class="cls-7" d="M1027.21,264.7c0,7,.14,13.16.56,18.48h-10.92l-.7-11.06h-.28a25.49,25.49,0,0,1-22.4,12.6c-10.64,0-23.38-5.88-23.38-29.68V215.42h12.32v37.52c0,12.88,3.92,21.56,15.12,21.56,8.26,0,14-5.74,16.24-11.2a18,18,0,0,0,1.12-6.3V215.42h12.32Z"/><path class="cls-7" d="M1106.17,183.78v81.9c0,6,.14,12.88.56,17.5h-11.06l-.56-11.76h-.28c-3.78,7.56-12,13.3-23.1,13.3-16.38,0-29-13.86-29-34.44-.14-22.54,13.86-36.4,30.38-36.4,10.36,0,17.36,4.9,20.44,10.36h.28V183.78ZM1093.85,243a21.75,21.75,0,0,0-.56-5.18,18.12,18.12,0,0,0-17.78-14.28c-12.74,0-20.3,11.2-20.3,26.18,0,13.72,6.72,25.06,20,25.06,8.26,0,15.82-5.46,18.06-14.7a21.4,21.4,0,0,0,.56-5.32Z"/></g></svg>