<svg id="Layer_1" data-name="Layer 1" xmlns="http://www.w3.org/2000/svg" viewBox="0 0 312.39 81.35"><defs><style>.cls-1{fill:#333;}</style></defs><title>swisslos-dark-logo</title><g id="CSEst0"><path class="cls-1" d="M74.25,55.69c-1.64,2.85-3.17,5.55-4.75,8.21a1.36,1.36,0,0,1-1,.49c-5.23,0-10.47,0-15.71,0-.93,0-1.18-.37-1.24-1.22-.08-1.36-.28-2.71-.46-4.26A20,20,0,0,1,41,64.26a24.66,24.66,0,0,1-4.45.59c-1.72.1-3.45.07-5.18,0a27.47,27.47,0,0,1-10.45-2.45c-2.64-1.18-5.15-2.68-7.69-4.08a1.33,1.33,0,0,1-.58-1c0-9-.1-18,0-27a12.68,12.68,0,0,1,2.89-7.26,19.54,19.54,0,0,1,13.87-7.74,33.71,33.71,0,0,1,16,1.6c.12,0,.29,0,.53,0l-.23-1.3h23c.3,2.43.62,4.91.93,7.4h9.31l.88-7.39h39.48V20c1.47-.89,2.75-1.78,4.13-2.48a23.3,23.3,0,0,1,9.75-2.37,36.55,36.55,0,0,1,14.18,2.14c1.93.72,3.84,1.51,5.77,2.21a1.27,1.27,0,0,0,1-.14,22.38,22.38,0,0,1,9.93-3.94,37.3,37.3,0,0,1,18.8,2.45c.1,0,.21.05.44.11V15.7h23.18V42.76H211c0-1.46-.05-2.89,0-4.33.21-5.45,1.31-10.61,4.6-15.15a18.28,18.28,0,0,1,10.43-7.11,37.49,37.49,0,0,1,7.17-1,25.06,25.06,0,0,1,9.83,1.13,18.36,18.36,0,0,1,7.77,4.76c.56.6,1.13,1.19,1.76,1.85a17.92,17.92,0,0,1,6.75-5.54,24.45,24.45,0,0,1,9.43-2.26A39.46,39.46,0,0,1,287,18.81c2.06.91,2.08.86,2.08,3.05,0,4.3.08,8.6,0,12.9a7.48,7.48,0,0,0,1.36,4.62,12.55,12.55,0,0,1,2,6.51,17.33,17.33,0,0,1-1.47,8.79,17.37,17.37,0,0,1-9.72,8.55,28.12,28.12,0,0,1-8.29,1.69,33.54,33.54,0,0,1-15.6-2.65A40.89,40.89,0,0,1,252,59.51a1.3,1.3,0,0,0-1.89.12,19.44,19.44,0,0,1-11.13,5,28.21,28.21,0,0,1-5.17.44c-4.11-.2-8.18-.73-11.87-2.79-.16-.08-.33-.14-.59-.25v2.28h-38v-3c-1.62.74-3.13,1.53-4.71,2.11a28.48,28.48,0,0,1-8,1.47A32.74,32.74,0,0,1,157.27,63a52.15,52.15,0,0,1-5-2.29,1.9,1.9,0,0,0-2.37.09,20,20,0,0,1-10.17,3.86,41.31,41.31,0,0,1-5.06.44A35.11,35.11,0,0,1,120,61.59l-.65-.28v3.1H118q-18.75,0-37.51,0a1.69,1.69,0,0,1-1.81-1C77.33,60.82,75.78,58.32,74.25,55.69Zm-20.56-33C55.12,34.28,56.53,45.78,58,57.37c2.26,0,4.48,0,6.7,0a1.18,1.18,0,0,0,.76-.53Q68.81,51,72.16,45.07c.67-1.17,1.36-2.32,2.13-3.63,2.75,4.81,5.43,9.36,7.94,14,.79,1.44,1.6,2.26,3.33,2a16.92,16.92,0,0,1,2.57,0c.77,0,1.7.16,2.26-.2.39-.24.27-1.28.36-2,.31-2.28.63-4.56.91-6.84.27-2.1.48-4.2.74-6.3.29-2.36.6-4.72.91-7.08s.62-4.41.89-6.61c.22-1.86.39-3.73.58-5.65H86.06c-.74,6.38-1.48,12.69-2.26,19.38-2.37-4.15-4.57-8-6.8-11.94-1.62,0-3.26,0-4.9,0a1.25,1.25,0,0,0-.86.56c-1.39,2.37-2.73,4.78-4.09,7.17-.75,1.31-1.51,2.61-2.42,4.17-.77-6.66-1.51-13-2.25-19.37ZM218.06,40.06a22.36,22.36,0,0,0,1.63,9.7A12.5,12.5,0,0,0,228,57.14a21.87,21.87,0,0,0,10.6.47c3.65-.75,6.77-2.28,8.88-5.56a19.15,19.15,0,0,0,2.91-9.32A27.33,27.33,0,0,0,249,31a12.49,12.49,0,0,0-6.48-7.29,20.62,20.62,0,0,0-13.85-1,12.52,12.52,0,0,0-9.08,7.87A23.53,23.53,0,0,0,218.06,40.06Zm-172.82-8c0-2.28,0-4.66,0-7a1.07,1.07,0,0,0-.53-.85A30.1,30.1,0,0,0,34.28,22a30.31,30.31,0,0,0-6.24.9c-4.31.92-8.69,4.9-8.14,10.23A8.58,8.58,0,0,0,23,39.22c2.6,2.1,5.73,3.14,8.89,4.1A55,55,0,0,1,37.2,45.2a2.28,2.28,0,0,1,1.48,2.39,2.11,2.11,0,0,1-1.44,2.14,9,9,0,0,1-3.71.54,51.51,51.51,0,0,1-8-2.11,54.48,54.48,0,0,1-6-3c0,2.28.05,4.58,0,6.88,0,1.23.08,2.17,1.49,2.55a11.8,11.8,0,0,1,2.05,1A24.67,24.67,0,0,0,33.39,58a29.68,29.68,0,0,0,6.06-.67c4.81-.9,10.18-4.84,9.07-11.6a8.59,8.59,0,0,0-2.6-4.88c-2.44-2.3-5.5-3.53-8.63-4.62-2.12-.74-4.24-1.51-6.32-2.34A1.8,1.8,0,0,1,29.78,32c.11-.88.5-1.7,1.5-1.78A25.24,25.24,0,0,1,36.83,30C39.64,30.47,42.37,31.35,45.24,32.06ZM154.51,45.22c0,2.85,0,5.58,0,8.3a.91.91,0,0,0,.45.66c1.62.78,3.22,1.63,4.9,2.24a24.28,24.28,0,0,0,11.43,1.44c3.66-.45,7-1.36,9.73-4.11a9.14,9.14,0,0,0,0-12.67,18.47,18.47,0,0,0-6.86-4.1c-2.65-1-5.32-1.89-8-2.85a2,2,0,0,1-1.35-2.39,1.73,1.73,0,0,1,1.6-1.56,18.84,18.84,0,0,1,8.25.36c1.88.45,3.7,1.13,5.64,1.74,0-2.43,0-4.77,0-7.11a1.45,1.45,0,0,0-.83-1c-4.79-1.64-9.65-2.77-14.77-1.7-3.62.76-6.78,2.19-8.76,5.53a8.79,8.79,0,0,0,.71,9.82,14.18,14.18,0,0,0,6.74,4.35c3,1,5.91,2,8.86,3.1,1.13.4,1.35,1.33,1.31,2.44a2,2,0,0,1-1.42,2,10.41,10.41,0,0,1-3.83.58,29,29,0,0,1-11.64-3.92C156,46,155.3,45.64,154.51,45.22ZM282,24.4c-4.36-1.62-8.76-2.71-13.47-2.22A15.21,15.21,0,0,0,259,26.34c-3,2.92-3.05,9,0,12.07,2.68,2.69,6.17,3.75,9.63,4.9,1.81.59,3.62,1.18,5.39,1.88a2.33,2.33,0,0,1,1.47,2.51,2.28,2.28,0,0,1-1.66,2.12,10.14,10.14,0,0,1-3.52.47,27.78,27.78,0,0,1-10-3c-1.31-.67-2.59-1.39-4-2.14,0,2.51,0,4.89,0,7.26,0,1,.12,1.68,1.18,2.05.89.32,1.69.88,2.57,1.26a25.31,25.31,0,0,0,16.29,1.65c5.45-1.31,9.8-5,9.06-11.18a8.07,8.07,0,0,0-2-4.54c-2.49-2.83-5.83-4.15-9.23-5.39-2.08-.76-4.16-1.5-6.22-2.3a1.94,1.94,0,0,1-1.31-2.1,1.78,1.78,0,0,1,1.61-1.7,19.3,19.3,0,0,1,8.25.39c1.87.47,3.7,1.08,5.58,1.63ZM120.51,45c0,2.62,0,5,0,7.37,0,1,.12,1.68,1.18,2.06.89.31,1.69.87,2.56,1.25a25,25,0,0,0,16.41,1.62c5.42-1.37,9.66-4.91,8.94-11.16a8.23,8.23,0,0,0-2-4.53c-2.45-2.88-5.85-4.12-9.23-5.39-2.07-.77-4.16-1.5-6.21-2.31a1.93,1.93,0,0,1-1.31-2.1,1.79,1.79,0,0,1,1.62-1.69,19.3,19.3,0,0,1,8.25.39c1.86.48,3.69,1.08,5.57,1.63v-7.9a56.06,56.06,0,0,0-6.58-1.77,35.9,35.9,0,0,0-6.88-.28,14,14,0,0,0-9.59,4.11c-3,2.92-3.06,9,0,12.06,2.7,2.71,6.22,3.81,9.74,4.91,1.74.55,3.47,1.15,5.17,1.81a2.39,2.39,0,0,1,1.58,2.45,2.34,2.34,0,0,1-1.58,2.17,9.69,9.69,0,0,1-5.88.25A33.36,33.36,0,0,1,120.51,45Zm70-22.31V57.32h23.76V49.59H199.5V22.73Zm-87.23,0V57.28h9.24V22.72Z"/><path class="cls-1" d="M227,40.12c.3-2,.52-4,.93-5.9.92-4.41,4.52-5.2,7.95-4.63,3.88.65,4.63,3.29,5.15,6.52a23.38,23.38,0,0,1,.23,5.22c-.17,2.42-.28,4.88-1.77,7a4.52,4.52,0,0,1-3.08,2c-3.66.56-6.81.44-8.36-3.85a23.92,23.92,0,0,1-.81-4.51,13,13,0,0,1,0-1.87Z"/></g></svg>