<svg id="Layer_1" data-name="Layer 1" xmlns="http://www.w3.org/2000/svg" viewBox="0 0 206.68 81.35"><defs><style>.cls-1{fill:#333;fill-rule:evenodd;}</style></defs><title>zoll-data</title><polygon class="cls-1" points="152.12 15.56 167.61 15.56 167.61 54.69 188.94 54.69 188.94 67.46 152.12 67.46 152.12 15.56 152.12 15.56"/><polygon class="cls-1" points="112.31 15.56 127.8 15.56 127.8 54.69 148.99 54.69 148.99 67.46 112.31 67.46 112.31 15.56 112.31 15.56"/><polygon class="cls-1" points="15.71 15.29 59.59 15.29 59.59 27.11 34.87 54.69 59.87 54.69 59.87 67.46 13.67 67.46 13.67 54.96 38.54 27.11 15.57 27.11 15.71 15.29 15.71 15.29"/><path class="cls-1" d="M60,41.65c.41-20.38,9.65-26.22,25-26.36,15.22.14,24.59,6,24.59,26.76,0,17.94-9.37,25.41-24.59,25.41S60.55,60.12,60,41.65Zm17,.27c0,10.32,2,13,8,13,5.44,0,7.75-2.72,7.75-13,0-9.78-2.31-14.81-7.75-14.54-6-.27-8,4.76-8,14.54Z"/></svg>