<svg xmlns="http://www.w3.org/2000/svg" width="94.112" height="104.146" viewBox="0 0 94.112 104.146"><defs><style>.a{fill:#ea3718;}.b{fill:#fff;}</style></defs><g transform="translate(-595.747 -5646.167)"><g transform="translate(595.747 5646.167)"><path class="a" d="M-211,847.2v37.465a12.465,12.465,0,0,0,6.23,10.793l32.45,18.733a12.449,12.449,0,0,0,12.459,0l32.45-18.733a12.465,12.465,0,0,0,6.23-10.793V847.2a12.459,12.459,0,0,0-6.23-10.793l-32.45-18.733a12.447,12.447,0,0,0-12.459,0l-32.45,18.733A12.459,12.459,0,0,0-211,847.2Z" transform="translate(213.147 -813.862)"/><path class="a" d="M-164.444,919.654a14.6,14.6,0,0,1-7.3-1.954l-32.45-18.736a14.637,14.637,0,0,1-7.3-12.648v-37.47a14.646,14.646,0,0,1,7.3-12.648l32.45-18.733a14.6,14.6,0,0,1,14.606,0l32.45,18.733a14.646,14.646,0,0,1,7.3,12.648v37.47a14.637,14.637,0,0,1-7.3,12.648l-32.45,18.736A14.6,14.6,0,0,1-164.444,919.654Zm0-99.848a10.3,10.3,0,0,0-5.156,1.374l-32.45,18.732a10.355,10.355,0,0,0-5.157,8.935v37.47a10.354,10.354,0,0,0,5.157,8.934l32.45,18.732a10.335,10.335,0,0,0,10.313,0l32.45-18.732a10.354,10.354,0,0,0,5.156-8.934v-37.47a10.355,10.355,0,0,0-5.156-8.935l-32.45-18.732A10.3,10.3,0,0,0-164.444,819.805Z" transform="translate(211.5 -815.508)"/></g><g transform="translate(624.106 5679.687)"><path class="b" d="M-170.613,860.564a3.118,3.118,0,0,1-2.795-1.722l-12.79-25.585-12.794,25.585a3.112,3.112,0,0,1-4.177,1.4,3.117,3.117,0,0,1-1.4-4.182l15.581-31.153a3.239,3.239,0,0,1,5.573,0l15.581,31.153a3.121,3.121,0,0,1-1.4,4.182A3.085,3.085,0,0,1-170.613,860.564Z" transform="translate(204.895 -823.315)"/></g></g></svg>