<svg xmlns="http://www.w3.org/2000/svg" viewBox="0 0 63.02 71.08"><defs><style>.a{opacity:0.15;}.b{fill:#495565;}.c{fill:#f05125;}</style></defs><title>icon-piggy</title><g class="a"><path class="b" d="M30.77,30.62a.8.8,0,0,1-.09-1.6,28.27,28.27,0,0,1,6.63,0,.81.81,0,1,1-.19,1.6,27.22,27.22,0,0,0-6.25,0Z"/></g><path class="b" d="M30.77,29.82a.81.81,0,0,1-.09-1.61,28.27,28.27,0,0,1,6.63,0,.81.81,0,0,1,.71.89.79.79,0,0,1-.9.71,27.22,27.22,0,0,0-6.25,0Z"/><path class="b" d="M42.08,31.39a.79.79,0,0,1-.4-.1.81.81,0,0,1-.3-1.1l3.22-5.65a.81.81,0,0,1,.7-.4h4a.8.8,0,0,1,.81.8v5.65a.81.81,0,0,1-1.61,0V25.75H45.77l-3,5.24A.8.8,0,0,1,42.08,31.39Z"/><path class="b" d="M49.52,71.08a.78.78,0,0,1-.48-.17l-4.56-3.42a.39.39,0,0,1-.1-.08,32,32,0,0,1-20.74,0l-.09.07L19,70.91a.79.79,0,0,1-1-.07L11.1,64A.81.81,0,0,1,11,62.94l1.8-2.39A19.41,19.41,0,0,1,7.39,47.37c0-12,11.94-21.77,26.61-21.77a31.83,31.83,0,0,1,9.86,1.54l-.5,1.53A30.19,30.19,0,0,0,34,27.21c-13.78,0-25,9-25,20.16a17.72,17.72,0,0,0,5.45,12.55.81.81,0,0,1,.07,1l-1.79,2.38,5.85,5.86,3.26-2.45-.16-.16a.82.82,0,0,1-.1-1,.8.8,0,0,1,1-.29,30.4,30.4,0,0,0,22.93,0,.81.81,0,0,1,.88,1.32l-.18.18,3.26,2.45,5.85-5.86-1.81-2.41a.81.81,0,0,1,.07-1,19.5,19.5,0,0,0,4-5.77,4.07,4.07,0,0,1,3.75-2.38h.11V42.06h-.68a4,4,0,0,1-3.56-2.25A21.51,21.51,0,0,0,49,31.22l.84-1.38a23.1,23.1,0,0,1,8.82,9.25,2.38,2.38,0,0,0,2.12,1.36h1.49a.8.8,0,0,1,.8.8V52.54a.8.8,0,0,1-.8.81H61.3A2.46,2.46,0,0,0,59,54.77a21,21,0,0,1-3.84,5.75L57,62.94A.81.81,0,0,1,56.93,64l-6.84,6.84A.78.78,0,0,1,49.52,71.08Z"/><path class="b" d="M48.53,43.4c-1.36,0-2.42-1.41-2.42-3.22S47.17,37,48.53,37,51,38.37,51,40.18,49.88,43.4,48.53,43.4Zm0-4.83c-.32,0-.81.64-.81,1.61s.49,1.61.81,1.61.8-.63.8-1.61S48.86,38.57,48.53,38.57Z"/><path class="c" d="M34,23.34a4.84,4.84,0,1,1,4.83-4.84A4.84,4.84,0,0,1,34,23.34Zm0-8.06a3.23,3.23,0,1,0,3.22,3.22A3.23,3.23,0,0,0,34,15.28Z"/><path class="b" d="M8.2,50.06A8.21,8.21,0,0,1,0,41.86a3.23,3.23,0,1,1,6.45,0A1.74,1.74,0,0,0,8.2,43.6v1.62a3.37,3.37,0,0,1-3.36-3.36,1.62,1.62,0,0,0-3.23,0A6.59,6.59,0,0,0,8.2,48.44Z"/><g class="a"><path class="b" d="M8.2,49.25A7.4,7.4,0,0,1,.81,41.86a2.42,2.42,0,1,1,4.83,0A2.56,2.56,0,0,0,8.2,44.41"/></g><g class="a"><path class="b" d="M34,67.52a31.17,31.17,0,0,1-12.06-2.36.79.79,0,0,1-.43-1,.81.81,0,0,1,1-.44,30.34,30.34,0,0,0,22.93,0,.81.81,0,0,1,.62,1.49A31.21,31.21,0,0,1,34,67.52Z"/></g><g class="a"><path class="b" d="M34,12.9a.81.81,0,0,1-.81-.81V7.26a.81.81,0,1,1,1.61,0v4.83A.8.8,0,0,1,34,12.9Z"/></g><g class="a"><path class="b" d="M31.58,8.87a.81.81,0,0,1-.81-.81V.81a.81.81,0,0,1,1.62,0V8.06A.81.81,0,0,1,31.58,8.87Z"/></g></svg>