<svg id="dd956f11-739c-416f-b2b4-9c776aea57d4" data-name="Layer 1" xmlns="http://www.w3.org/2000/svg" width="7.41in" height="6.81in" viewBox="0 0 533.27 490.57">
  <title>icon-quote_white</title>
  <path d="M430.2,490.57c54.21,0,99.68-43.54,99.68-99.28,0-54-45.47-99.29-99.68-99.29-7,0-14,0-21,1.74,0-127.16,90.93-203.8,108.42-219.48s19.24-33.1,10.49-41.81L503.65,8.07c-10.49-10.45-24.48-12.2-42,3.48-56,52.26-146.9,177.67-146.9,322.25C314.78,459.22,374.24,490.57,430.2,490.57Zm-314.78,0c54.21,0,99.68-43.54,99.68-99.28,0-54-45.47-99.29-99.68-99.29-7,0-14,0-21,1.74,0-127.16,90.94-203.8,108.43-219.48s19.23-33.1,10.49-41.81L188.87,8.07c-10.49-10.45-24.48-12.2-42,3.48C90.94,63.81,0,189.22,0,333.8,0,459.22,59.46,490.57,115.42,490.57Z" fill="#fff"/>
</svg>
