<svg xmlns="http://www.w3.org/2000/svg" xmlns:xlink="http://www.w3.org/1999/xlink" viewBox="0 0 383.49 218.69"><defs><style>.cls-1{fill:url(#linear-gradient);}.cls-14,.cls-2,.cls-21,.cls-24,.cls-25,.cls-26,.cls-27,.cls-28,.cls-30,.cls-32,.cls-4,.cls-5{fill:none;}.cls-2,.cls-23,.cls-3,.cls-32{stroke:#ef4e23;}.cls-2,.cls-20,.cls-21,.cls-25,.cls-26,.cls-27,.cls-32,.cls-4,.cls-5,.cls-6,.cls-7{stroke-miterlimit:10;}.cls-2,.cls-25,.cls-26,.cls-27,.cls-32{stroke-width:0.75px;}.cls-2{stroke-dasharray:1.63 1.63;}.cls-23,.cls-3,.cls-31{fill:#ef4e23;}.cls-23,.cls-24,.cls-27,.cls-28,.cls-3,.cls-30,.cls-5{stroke-linecap:round;}.cls-23,.cls-24,.cls-28,.cls-3,.cls-30{stroke-linejoin:round;}.cls-3{stroke-width:0.85px;}.cls-14,.cls-24,.cls-28,.cls-30,.cls-4,.cls-5{stroke:#fff;}.cls-5{opacity:0.3;}.cls-22,.cls-5{isolation:isolate;}.cls-13,.cls-20,.cls-6,.cls-7{fill:#fff;}.cls-20,.cls-6,.cls-7{stroke:#d3d3d3;}.cls-6,.cls-7{stroke-width:0.5px;}.cls-6{stroke-dasharray:1.03 1.03;}.cls-8{fill:#727176;}.cls-9{fill:#208fce;}.cls-10{fill:#f2f2f2;}.cls-11{fill:#d3d3d3;}.cls-12{fill:#9d9d9d;}.cls-14{stroke-width:0.01px;}.cls-15{fill:#238fcf;}.cls-16{fill:#1bbfd3;}.cls-17{fill:#79bf43;}.cls-18{fill:#1d4489;}.cls-19{fill:#e6e6e5;}.cls-20{stroke-width:0.46px;}.cls-21,.cls-25,.cls-27{stroke:#495665;}.cls-21{stroke-width:0.53px;}.cls-22,.cls-29{fill:#495665;}.cls-22{opacity:0.15;}.cls-23{stroke-width:0.39px;}.cls-24{stroke-width:0.57px;}.cls-26{stroke:#4b5666;}.cls-28{stroke-width:0.59px;}.cls-30{stroke-width:0.61px;}.cls-32{stroke-dasharray:1.78 1.78;}</style><linearGradient id="linear-gradient" x1="164.35" y1="197.2" x2="164.35" y2="119.11" gradientUnits="userSpaceOnUse"><stop offset="0" stop-color="#727277" stop-opacity="0.7"/><stop offset="0.61" stop-color="#e6e6e5" stop-opacity="0.05"/></linearGradient></defs><g id="Layer_2" data-name="Layer 2"><g id="Layer_1-2" data-name="Layer 1"><polygon class="cls-1" points="148.39 197.2 95.35 119.11 233.35 119.11 180.93 197.13 148.39 197.2"/><line class="cls-2" x1="225.79" y1="80.09" x2="259.16" y2="80.09"/><line class="cls-2" x1="65.91" y1="80.09" x2="101.8" y2="80.09"/><g id="Layer_2-2" data-name="Layer 2"><g id="Layer_1-2-2" data-name="Layer 1-2"><path class="cls-3" d="M.43,64V96.17a4.59,4.59,0,0,0,2.31,4l27.84,16.08a4.6,4.6,0,0,0,4.62,0l27.89-16.08a4.61,4.61,0,0,0,2.31-4V64a4.6,4.6,0,0,0-2.31-4L35.22,43.9a4.65,4.65,0,0,0-4.62,0L2.74,60A4.6,4.6,0,0,0,.43,64Z"/><path class="cls-4" d="M35.79,56.72l2.94,4.37a3.46,3.46,0,0,0,3.53,1.48l5.14-1a3.46,3.46,0,0,1,4.07,4.07l-1,5.11a3.48,3.48,0,0,0,1.48,3.63l4.36,2.88a3.49,3.49,0,0,1,1,4.82,3.34,3.34,0,0,1-1,1l-4.36,2.9a3.47,3.47,0,0,0-1.48,3.57l1,5.14a3.45,3.45,0,0,1-2.7,4.07,3.51,3.51,0,0,1-1.37,0l-5.14-1.07a3.46,3.46,0,0,0-3.53,1.48l-2.9,4.37a3.49,3.49,0,0,1-5.77,0l-2.92-4.37a3.49,3.49,0,0,0-3.58-1.48l-5.13,1a3.46,3.46,0,0,1-4.07-2.71,3.51,3.51,0,0,1,0-1.37l1-5.14a3.46,3.46,0,0,0-1.48-3.56L9.55,83a3.45,3.45,0,0,1,0-5.77l4.36-2.85a3.48,3.48,0,0,0,1.48-3.63l-1-5.12A3.45,3.45,0,0,1,17,61.52a3.61,3.61,0,0,1,1.39,0l5.13,1a3.48,3.48,0,0,0,3.58-1.47L30,56.73a3.45,3.45,0,0,1,4.79-1A3.21,3.21,0,0,1,35.79,56.72Z"/><circle class="cls-4" cx="32.91" cy="80.09" r="6.93"/><path class="cls-5" d="M32.91,88.17a8.08,8.08,0,0,1,0-16.16"/><circle class="cls-4" cx="32.91" cy="80.09" r="13.86"/><path class="cls-5" d="M32.91,67.39a12.68,12.68,0,1,1,0,25.36"/></g></g><rect class="cls-6" x="279.35" y="30.43" width="103.89" height="132.72"/><rect class="cls-7" x="297.55" y="42.07" width="67.5" height="35.61"/><rect class="cls-8" x="303.12" y="48.77" width="31.8" height="9.46"/><rect class="cls-9" x="306.71" y="61.51" width="9.46" height="9.46" transform="translate(245.2 377.69) rotate(-90)"/><rect class="cls-9" x="321.87" y="61.51" width="9.46" height="9.46" transform="translate(260.36 392.84) rotate(-90)"/><rect class="cls-10" x="344.65" y="61.76" width="8.96" height="8.96"/><path class="cls-11" d="M353.37,62v8.46H344.9V62h8.47m.5-.5H344.4V71h9.47V61.51Z"/><rect class="cls-8" x="338.8" y="48.77" width="20.67" height="9.46"/><rect class="cls-7" x="297.55" y="84.18" width="67.5" height="35.61"/><rect class="cls-8" x="303.12" y="90.88" width="31.8" height="9.46"/><rect class="cls-9" x="306.71" y="103.63" width="9.46" height="9.46" transform="translate(203.09 419.8) rotate(-90)"/><rect class="cls-9" x="321.87" y="103.63" width="9.46" height="9.46" transform="translate(218.24 434.96) rotate(-90)"/><rect class="cls-10" x="344.65" y="103.88" width="8.96" height="8.96"/><path class="cls-11" d="M353.37,104.13v8.46H344.9v-8.46h8.47m.5-.5H344.4v9.46h9.47v-9.46Z"/><rect class="cls-8" x="338.8" y="90.88" width="20.67" height="9.46"/><path class="cls-12" d="M331.07,128.51a1.56,1.56,0,0,0-.6.15l-8.31,4a1.6,1.6,0,0,0-.86,1.07l-2.05,8.92a1.57,1.57,0,0,0,.21,1.21l.09.12,5.75,7.15a1.63,1.63,0,0,0,1.25.6h9.22a1.62,1.62,0,0,0,1.24-.59l5.75-7.15a1.59,1.59,0,0,0,.31-1.33L341,133.7a1.57,1.57,0,0,0-.86-1.07l-8.31-4A1.66,1.66,0,0,0,331.07,128.51Z"/><path class="cls-13" d="M331.14,142.88a.41.41,0,0,1,.21.05.41.41,0,0,1,.19.18h0l1.27,2.29a4.84,4.84,0,0,1-.51.14,5.09,5.09,0,0,1-2.8-.14l1.26-2.29h0A.46.46,0,0,1,331.14,142.88Zm-2.17-1a.43.43,0,0,1,.42.34.48.48,0,0,1,0,.27h0l-1,2.4a5.16,5.16,0,0,1-2.07-2.58l2.57-.44H329Zm4.35,0h.11l2.59.44a5.12,5.12,0,0,1-2.08,2.6l-1-2.42h0a.45.45,0,0,1,.21-.57A.53.53,0,0,1,333.32,141.82Zm-2.56-2.13h.8l.49.62-.17.78-.72.34-.72-.34-.18-.78Zm4.78-1.88a5.26,5.26,0,0,1,.75,3.23l-2.52-.72h0a.43.43,0,0,1-.31-.52.36.36,0,0,1,.14-.23h0Zm-8.78,0,1.95,1.75h0a.44.44,0,0,1,.06.6.39.39,0,0,1-.23.15h0l-2.51.72A5.16,5.16,0,0,1,326.76,137.81Zm5-2.41a5.15,5.15,0,0,1,3,1.44l-2.13,1.5h0a.44.44,0,0,1-.6-.08.42.42,0,0,1-.1-.25h0Zm-1.25,0-.14,2.61h0a.44.44,0,0,1-.44.42.45.45,0,0,1-.26-.08h0l-2.14-1.51a5,5,0,0,1,2.46-1.35Zm.63-3.86a.53.53,0,0,0-.5.56h0v.13a3.54,3.54,0,0,0,.07.47,4.87,4.87,0,0,1,0,.9.5.5,0,0,1-.16.26v.21a5.61,5.61,0,0,0-.9.14,6.44,6.44,0,0,0-3.25,1.85l-.18-.12a.38.38,0,0,1-.29,0,4.07,4.07,0,0,1-.67-.61c-.12-.12-.2-.23-.33-.35l-.11-.08a.54.54,0,0,0-.35-.13.45.45,0,0,0-.39.17.51.51,0,0,0,.12.73h0l.11.08a2.91,2.91,0,0,0,.41.24,5.51,5.51,0,0,1,.74.52.53.53,0,0,1,.1.29l.16.14a6.48,6.48,0,0,0-1,4.49l-.2.06a.92.92,0,0,1-.22.22,4.16,4.16,0,0,1-.89.14c-.16,0-.3,0-.48,0l-.13,0h0a.53.53,0,0,0-.42.61.52.52,0,0,0,.64.36h0l.13,0a4.49,4.49,0,0,0,.44-.17,4.61,4.61,0,0,1,.87-.26.59.59,0,0,1,.29.11l.21,0a6.54,6.54,0,0,0,2.87,3.58l-.09.22a.45.45,0,0,1,0,.28,4.52,4.52,0,0,1-.45.81,3.77,3.77,0,0,0-.26.39l-.07.14a.53.53,0,0,0,.21.7.52.52,0,0,0,.69-.28h0a.75.75,0,0,0,.06-.13c.07-.16.1-.3.15-.45a3.35,3.35,0,0,1,.38-.89.38.38,0,0,1,.22-.11l.11-.2a6.48,6.48,0,0,0,3.74.27,8.34,8.34,0,0,0,.85-.26,1.82,1.82,0,0,1,.1.19.42.42,0,0,1,.26.15,5.22,5.22,0,0,1,.34.84,4.75,4.75,0,0,0,.14.46l.07.12a.5.5,0,1,0,.89-.42.84.84,0,0,0-.06-.14,3.83,3.83,0,0,0-.27-.39,5,5,0,0,1-.44-.79.39.39,0,0,1,0-.29,1.56,1.56,0,0,1-.08-.21,6.43,6.43,0,0,0,2.86-3.6l.22,0a.38.38,0,0,1,.28-.11,4.76,4.76,0,0,1,.86.26c.16.06.28.12.45.17l.13,0h0a.5.5,0,1,0,.23-1l-.15,0a3.88,3.88,0,0,0-.48,0,5.14,5.14,0,0,1-.89-.15.52.52,0,0,1-.21-.21l-.2-.06a6.51,6.51,0,0,0-.11-2.32,6.43,6.43,0,0,0-.93-2.16l.18-.15a.43.43,0,0,1,.09-.29,5.51,5.51,0,0,1,.74-.52,2.91,2.91,0,0,0,.41-.24.48.48,0,0,0,.11-.09.52.52,0,0,0,.13-.73.54.54,0,0,0-.75,0l-.11.09c-.13.11-.21.22-.33.34a4.07,4.07,0,0,1-.67.61.46.46,0,0,1-.3,0l-.19.14a6.51,6.51,0,0,0-4.12-2,2,2,0,0,1,0-.22.39.39,0,0,1-.16-.25,5,5,0,0,1,.06-.9c0-.16.06-.3.07-.47s0-.1,0-.14A.53.53,0,0,0,331.16,131.54Z"/><path class="cls-14" d="M331.14,142.88a.41.41,0,0,1,.21.05.41.41,0,0,1,.19.18h0l1.27,2.29a4.84,4.84,0,0,1-.51.14,5.09,5.09,0,0,1-2.8-.14l1.26-2.29h0A.46.46,0,0,1,331.14,142.88Zm-2.17-1a.43.43,0,0,1,.42.34.48.48,0,0,1,0,.27h0l-1,2.4a5.16,5.16,0,0,1-2.07-2.58l2.57-.44H329Zm4.35,0h.11l2.59.44a5.12,5.12,0,0,1-2.08,2.6l-1-2.42h0a.45.45,0,0,1,.21-.57A.53.53,0,0,1,333.32,141.82Zm-2.56-2.13h.8l.49.62-.17.78-.72.34-.72-.34-.18-.78Zm4.78-1.88a5.26,5.26,0,0,1,.75,3.23l-2.52-.72h0a.43.43,0,0,1-.31-.52.36.36,0,0,1,.14-.23h0Zm-8.78,0,1.95,1.75h0a.44.44,0,0,1,.06.6.39.39,0,0,1-.23.15h0l-2.51.72A5.16,5.16,0,0,1,326.76,137.81Zm5-2.41a5.15,5.15,0,0,1,3,1.44l-2.13,1.5h0a.44.44,0,0,1-.6-.08.42.42,0,0,1-.1-.25h0Zm-1.25,0-.14,2.61h0a.44.44,0,0,1-.44.42.45.45,0,0,1-.26-.08h0l-2.14-1.51a5,5,0,0,1,2.46-1.35Zm.63-3.86a.53.53,0,0,0-.5.56h0v.13a3.54,3.54,0,0,0,.07.47,4.87,4.87,0,0,1,0,.9.5.5,0,0,1-.16.26v.21a5.61,5.61,0,0,0-.9.14,6.44,6.44,0,0,0-3.25,1.85l-.18-.12a.38.38,0,0,1-.29,0,4.07,4.07,0,0,1-.67-.61c-.12-.12-.2-.23-.33-.35l-.11-.08a.54.54,0,0,0-.35-.13.45.45,0,0,0-.39.17.51.51,0,0,0,.12.73h0l.11.08a2.91,2.91,0,0,0,.41.24,5.51,5.51,0,0,1,.74.52.53.53,0,0,1,.1.29l.16.14a6.48,6.48,0,0,0-1,4.49l-.2.06a.92.92,0,0,1-.22.22,4.16,4.16,0,0,1-.89.14c-.16,0-.3,0-.48,0l-.13,0h0a.53.53,0,0,0-.42.61.52.52,0,0,0,.64.36h0l.13,0a4.49,4.49,0,0,0,.44-.17,4.61,4.61,0,0,1,.87-.26.59.59,0,0,1,.29.11l.21,0a6.54,6.54,0,0,0,2.87,3.58l-.09.22a.45.45,0,0,1,0,.28,4.52,4.52,0,0,1-.45.81,3.77,3.77,0,0,0-.26.39l-.07.14a.53.53,0,0,0,.21.7.52.52,0,0,0,.69-.28h0a.75.75,0,0,0,.06-.13c.07-.16.1-.3.15-.45a3.35,3.35,0,0,1,.38-.89.38.38,0,0,1,.22-.11l.11-.2a6.48,6.48,0,0,0,3.74.27,8.34,8.34,0,0,0,.85-.26,1.82,1.82,0,0,1,.1.19.42.42,0,0,1,.26.15,5.22,5.22,0,0,1,.34.84,4.75,4.75,0,0,0,.14.46l.07.12a.5.5,0,1,0,.89-.42.84.84,0,0,0-.06-.14,3.83,3.83,0,0,0-.27-.39,5,5,0,0,1-.44-.79.39.39,0,0,1,0-.29,1.56,1.56,0,0,1-.08-.21,6.43,6.43,0,0,0,2.86-3.6l.22,0a.38.38,0,0,1,.28-.11,4.76,4.76,0,0,1,.86.26c.16.06.28.12.45.17l.13,0h0a.5.5,0,1,0,.23-1l-.15,0a3.88,3.88,0,0,0-.48,0,5.14,5.14,0,0,1-.89-.15.52.52,0,0,1-.21-.21l-.2-.06a6.51,6.51,0,0,0-.11-2.32,6.43,6.43,0,0,0-.93-2.16l.18-.15a.43.43,0,0,1,.09-.29,5.51,5.51,0,0,1,.74-.52,2.91,2.91,0,0,0,.41-.24.48.48,0,0,0,.11-.09.52.52,0,0,0,.13-.73.54.54,0,0,0-.75,0l-.11.09c-.13.11-.21.22-.33.34a4.07,4.07,0,0,1-.67.61.46.46,0,0,1-.3,0l-.19.14a6.51,6.51,0,0,0-4.12-2,2,2,0,0,1,0-.22.39.39,0,0,1-.16-.25,5,5,0,0,1,.06-.9c0-.16.06-.3.07-.47s0-.1,0-.14A.53.53,0,0,0,331.16,131.54Z"/><path id="path44560" class="cls-12" d="M368.93,132.45a9.58,9.58,0,0,0-.81-1.38l-3.31,1.21a6.18,6.18,0,0,1,1,1.31Zm-14.64,3.66-3.31,1.2a9,9,0,0,0,.26,1.57l3.15-1.14a5.92,5.92,0,0,1-.1-1.63"/><path id="path44564" class="cls-12" d="M361.64,131.51a6.11,6.11,0,0,1,1.79,1.27l3.31-1.2a9.3,9.3,0,0,0-3.69-3.08,9.46,9.46,0,0,0-13.45,9.32l3.31-1.21a6.27,6.27,0,0,1,.55-2.13,6.16,6.16,0,0,1,8.18-3"/><path id="path44572" class="cls-12" d="M365.17,137.56a6,6,0,0,1-.55,2.13,6.16,6.16,0,0,1-8.18,3,5.93,5.93,0,0,1-1.79-1.27l-3.31,1.2a9.33,9.33,0,0,0,3.7,3.08,9.49,9.49,0,0,0,12.59-4.58,9.39,9.39,0,0,0,.85-4.73l-3.31,1.2Z"/><path id="path44576" class="cls-12" d="M366,133.52l-3.15,1.14a6.14,6.14,0,0,1,.77,3.47l3.31-1.2a9.56,9.56,0,0,0-.93-3.41m-14.54,5.29L348.3,140a9.58,9.58,0,0,0,1.48,3.21l3.3-1.2a6.18,6.18,0,0,1-1.63-3.15"/><path id="path44584" class="cls-12" d="M368.45,131.57c-.1-.17-.21-.33-.33-.5l-3.31,1.21a6,6,0,0,1,.41.47Zm-14.17,5.2a4.85,4.85,0,0,1,0-.66l-3.31,1.2c0,.22,0,.43.07.64l3.23-1.18Z"/><path id="path44588" class="cls-12" d="M368.48,136.36l-3.31,1.2a5.42,5.42,0,0,1-.28,1.42l3.6-1.31a9.53,9.53,0,0,0,0-1.31m-17.14,6.23a11.8,11.8,0,0,0,.84,1l3.6-1.32a5.93,5.93,0,0,1-1.13-.91Z"/><path id="path44622" class="cls-12" d="M368.31,149.6v.3h.86v2.64h.33V149.9h.87v-.3Zm-2,.3v1h.81v.29h-.81v1.37H366V149.6h1.73v.3Zm-1.5-.3h.33v2.94h-.33Zm-1.17,2.94v-1.38h-1.46v1.38h-.33V149.6h.33v1.26h1.46V149.6H364v2.94Zm-3.49.05a1.39,1.39,0,0,1-1-.41l.22-.24a1.13,1.13,0,0,0,.78.35c.39,0,.63-.19.63-.5s-.16-.43-.7-.62-.85-.44-.85-.86.37-.75.92-.75a1.31,1.31,0,0,1,.9.31l-.21.26a1,1,0,0,0-.71-.28c-.4,0-.57.21-.57.44s.11.38.7.59.85.45.85.89a.86.86,0,0,1-1,.82m-2.32-.05-1.08-1.6a3.64,3.64,0,0,1-.2-.33v1.93H356V149.6h.57l1,1.56a2.64,2.64,0,0,1,.2.33V149.6h.58v2.94Zm-4.64,0V149.6h2.05v.58h-1.46v.51h.85v.57h-.85V152h1.52v.57Zm-1.67-1h-.65v1h-.58V149.6h1.28a.91.91,0,0,1,1,.93c0,.69-.45,1-1.06,1m0-1.33h-.68v.76h.69c.27,0,.42-.13.42-.38s-.17-.38-.43-.38m-3.2,2.42c-.77,0-1.3-.56-1.3-1.51s.54-1.52,1.3-1.52,1.29.56,1.29,1.51-.53,1.52-1.29,1.52m0-2.45c-.41,0-.68.33-.68.93s.28.94.69.94.69-.34.69-.93-.29-.94-.7-.94"/><path class="cls-15" d="M307.27,149.08h-7a.87.87,0,0,1-.71-.34l-4.45-5.56a.93.93,0,0,1-.17-.79l1.69-6.81a.93.93,0,0,1,.48-.6l6.27-3.14a1,1,0,0,1,.81,0l6.35,3.15a.91.91,0,0,1,.48.6l1.62,6.81a.93.93,0,0,1-.18.77L308,148.75A.87.87,0,0,1,307.27,149.08Zm-7-.93h7l4.46-5.55-1.61-6.78-6.32-3.13-6.25,3.13-1.68,6.79Z"/><polygon class="cls-16" points="311.83 133.73 312.62 133.08 304.25 128.93 304.25 129.98 311.83 133.73"/><polygon class="cls-17" points="293.45 143.48 292.43 143.71 298.27 151.04 298.73 150.11 293.45 143.48"/><polygon class="cls-16" points="303.31 129.98 303.31 128.93 295.04 133.08 295.81 133.74 303.31 129.98"/><polygon class="cls-18" points="295.25 134.5 294.46 133.82 292.23 142.79 293.25 142.56 295.25 134.5"/><polygon class="cls-18" points="314.31 142.56 315.33 142.79 313.21 133.82 312.4 134.48 314.31 142.56"/><polygon class="cls-17" points="314.1 143.48 308.76 150.12 309.22 151.05 315.12 143.71 314.1 143.48"/><polygon class="cls-16" points="299.58 150.51 299.12 151.45 308.37 151.45 307.91 150.51 299.58 150.51"/><path class="cls-19" d="M94.32,44.64v70.88a9.94,9.94,0,0,0,5,8.63l60,34.68a9.91,9.91,0,0,0,10,0l60.14-34.68a10,10,0,0,0,5-8.63V44.64a9.94,9.94,0,0,0-5-8.61L169.33,1.33a10,10,0,0,0-10,0L99.29,36A9.93,9.93,0,0,0,94.32,44.64Z"/><path class="cls-20" d="M132,102.68v32a4.6,4.6,0,0,0,2.3,4l27.71,16a4.59,4.59,0,0,0,4.59,0l27.76-16a4.6,4.6,0,0,0,2.3-4v-32a4.6,4.6,0,0,0-2.3-4l-27.73-16a4.61,4.61,0,0,0-4.6,0l-27.73,16A4.62,4.62,0,0,0,132,102.68Z"/><path class="cls-20" d="M99,45.1v32a4.58,4.58,0,0,0,2.3,4l27.7,16a4.61,4.61,0,0,0,4.6,0l27.76-16a4.57,4.57,0,0,0,2.29-4v-32a4.59,4.59,0,0,0-2.29-4l-27.73-16a4.61,4.61,0,0,0-4.6,0l-27.73,16A4.6,4.6,0,0,0,99,45.1Z"/><path class="cls-20" d="M165.1,45.54v32a4.58,4.58,0,0,0,2.3,4l27.7,16a4.61,4.61,0,0,0,4.6,0l27.75-16a4.58,4.58,0,0,0,2.3-4v-32a4.58,4.58,0,0,0-2.3-4l-27.73-16a4.59,4.59,0,0,0-4.59,0l-27.73,16A4.6,4.6,0,0,0,165.1,45.54Z"/><g id="Layer_2-3" data-name="Layer 2"><g id="Layer_1-2-3" data-name="Layer 1-2"><path class="cls-13" d="M187,80.5a5.2,5.2,0,0,1-2.75-4.59V56.23L197.08,54l12.84,2.25V75.91a5.22,5.22,0,0,1-2.75,4.59l-10.09,5Z"/><path class="cls-13" d="M187,80.5a5.2,5.2,0,0,1-2.75-4.59V56.23L197.08,54l12.84,2.25V75.91a5.22,5.22,0,0,1-2.75,4.59l-10.09,5Z"/><path class="cls-21" d="M187,80.5a5.2,5.2,0,0,1-2.75-4.59V56.23L197.08,54l12.84,2.25V75.91a5.22,5.22,0,0,1-2.75,4.59l-10.09,5Z"/><path class="cls-21" d="M185.85,75.91V57.61l11.23-2,11.23,2v18.3a3.61,3.61,0,0,1-1.9,3.2l-9.33,4.59-9.33-4.59A3.61,3.61,0,0,1,185.85,75.91Z"/><path class="cls-22" d="M197.08,55.6l11.23,2v18.3a3.61,3.61,0,0,1-1.9,3.2l-9.33,4.59V82.08l-.4-.41V57.21l.4-.39Z"/><path class="cls-22" d="M209.92,56.23,197.08,54l-12.72,2.14,1.49,1.49,11.23-2,11.23,2V76.18A3.19,3.19,0,0,1,206.62,79l-9.54,4.68V85.5l10.3-5.1a4.84,4.84,0,0,0,2.54-4.24Z"/><polygon class="cls-22" points="197.08 53.98 184.36 56.12 185.85 57.61 197.08 55.6 197.08 53.98"/><polyline class="cls-22" points="186.25 76.46 187.05 75.26 187.05 58.81 186.25 58.01"/><polyline class="cls-22" points="207.91 76.46 207.11 75.26 207.11 58.81 207.91 58.01"/><path class="cls-23" d="M190.88,67.16v5.17a1.72,1.72,0,0,0,.85,1.49l4.49,2.58a1.71,1.71,0,0,0,1.72,0l4.47-2.58a1.73,1.73,0,0,0,.86-1.49V67.16a1.71,1.71,0,0,0-.86-1.49l-4.48-2.59a1.71,1.71,0,0,0-1.72,0l-4.48,2.59A1.7,1.7,0,0,0,190.88,67.16Z"/><polyline class="cls-24" points="194.93 71.89 197.08 67.59 199.23 71.89"/></g></g><g id="Layer_2-4" data-name="Layer 2"><g id="Layer_1-2-4" data-name="Layer 1-2"><circle class="cls-25" cx="145.2" cy="69.95" r="1.77"/><circle class="cls-26" cx="118.53" cy="69.95" r="3.09"/><line class="cls-27" x1="125.88" y1="69.95" x2="121.62" y2="69.95"/><line class="cls-27" x1="143.28" y1="69.95" x2="139.01" y2="69.95"/><circle class="cls-25" cx="141.1" cy="61.11" r="1.77"/><line class="cls-27" x1="139.74" y1="62.47" x2="137" y2="65.21"/><circle class="cls-25" cx="141.1" cy="78.78" r="1.77"/><line class="cls-27" x1="139.74" y1="77.42" x2="137" y2="74.68"/><path class="cls-23" d="M126.08,67.29V72.6a1.81,1.81,0,0,0,.9,1.54l4.6,2.65a1.8,1.8,0,0,0,1.77,0l4.6-2.65a1.81,1.81,0,0,0,.9-1.54V67.29a1.78,1.78,0,0,0-.9-1.53l-4.62-2.66a1.75,1.75,0,0,0-1.77,0L127,65.77A1.76,1.76,0,0,0,126.08,67.29Z"/><polyline class="cls-28" points="130.24 72.16 132.45 67.74 134.66 72.16"/></g></g><polyline class="cls-27" points="157.04 136.36 157.04 130.5 171.66 130.5 171.66 136.9"/><rect class="cls-13" x="151.91" y="133.64" width="10.34" height="10.34" rx="0.86"/><path class="cls-29" d="M161.39,133.89a.62.62,0,0,1,.61.61v8.63a.62.62,0,0,1-.61.61h-8.62a.61.61,0,0,1-.61-.61V134.5a.61.61,0,0,1,.61-.61h8.62m0-.5h-8.62a1.11,1.11,0,0,0-1.11,1.11v8.63a1.11,1.11,0,0,0,1.11,1.11h8.62a1.11,1.11,0,0,0,1.11-1.11V134.5a1.11,1.11,0,0,0-1.11-1.11Z"/><polygon class="cls-13" points="158.9 142.16 158.96 140.75 160.38 140.81 160.32 142.16 158.9 142.16"/><path class="cls-29" d="M160.07,141.06v.85h-.86v-.85h.86m.31-.5H158.9a.18.18,0,0,0-.19.19v1.47a.18.18,0,0,0,.19.19h1.48a.19.19,0,0,0,.19-.19v-1.47a.19.19,0,0,0-.19-.19Z"/><polygon class="cls-13" points="156.46 142.16 156.52 140.75 157.94 140.81 157.88 142.16 156.46 142.16"/><path class="cls-29" d="M157.63,141.06v.85h-.86v-.85h.86m.31-.5h-1.48a.19.19,0,0,0-.19.19v1.47a.19.19,0,0,0,.19.19h1.48a.18.18,0,0,0,.19-.19v-1.47a.18.18,0,0,0-.19-.19Z"/><polygon class="cls-13" points="154.03 142.16 154.09 140.75 155.51 140.81 155.45 142.16 154.03 142.16"/><path class="cls-29" d="M155.2,141.06v.85h-.86v-.85h.86m.31-.5H154a.18.18,0,0,0-.19.19v1.47a.18.18,0,0,0,.19.19h1.48a.19.19,0,0,0,.19-.19v-1.47a.19.19,0,0,0-.19-.19Z"/><polygon class="cls-13" points="158.9 139.62 158.96 138.2 160.38 138.26 160.32 139.62 158.9 139.62"/><path class="cls-29" d="M160.07,138.51v.86h-.86v-.86h.86m.31-.5H158.9a.19.19,0,0,0-.19.19v1.48a.19.19,0,0,0,.19.19h1.48a.2.2,0,0,0,.19-.19V138.2a.2.2,0,0,0-.19-.19Z"/><polygon class="cls-13" points="156.46 139.62 156.52 138.2 157.94 138.26 157.88 139.62 156.46 139.62"/><path class="cls-29" d="M157.63,138.51v.86h-.86v-.86h.86m.31-.5h-1.48a.2.2,0,0,0-.19.19v1.48a.2.2,0,0,0,.19.19h1.48a.19.19,0,0,0,.19-.19V138.2a.19.19,0,0,0-.19-.19Z"/><polygon class="cls-13" points="154.03 139.62 154.09 138.2 155.51 138.26 155.45 139.62 154.03 139.62"/><path class="cls-29" d="M155.2,138.51v.86h-.86v-.86h.86m.31-.5H154a.19.19,0,0,0-.19.19v1.48a.19.19,0,0,0,.19.19h1.48a.2.2,0,0,0,.19-.19V138.2a.2.2,0,0,0-.19-.19Z"/><polygon class="cls-13" points="158.9 136.87 158.96 135.45 160.38 135.51 160.32 136.87 158.9 136.87"/><path class="cls-29" d="M160.07,135.76v.86h-.86v-.86h.86m.31-.5H158.9a.19.19,0,0,0-.19.19v1.48a.19.19,0,0,0,.19.19h1.48a.2.2,0,0,0,.19-.19v-1.48a.2.2,0,0,0-.19-.19Z"/><polygon class="cls-13" points="156.46 136.87 156.52 135.45 157.94 135.51 157.88 136.87 156.46 136.87"/><path class="cls-29" d="M157.63,135.76v.86h-.86v-.86h.86m.31-.5h-1.48a.2.2,0,0,0-.19.19v1.48a.2.2,0,0,0,.19.19h1.48a.19.19,0,0,0,.19-.19v-1.48a.19.19,0,0,0-.19-.19Z"/><polygon class="cls-13" points="154.03 136.87 154.09 135.45 155.51 135.51 155.45 136.87 154.03 136.87"/><path class="cls-29" d="M155.2,135.76v.86h-.86v-.86h.86m.31-.5H154a.19.19,0,0,0-.19.19v1.48a.19.19,0,0,0,.19.19h1.48a.2.2,0,0,0,.19-.19v-1.48a.2.2,0,0,0-.19-.19Z"/><rect class="cls-13" x="166.45" y="133.64" width="10.34" height="10.34" rx="0.86"/><path class="cls-29" d="M175.94,133.89a.62.62,0,0,1,.61.61v8.63a.62.62,0,0,1-.61.61h-8.63a.62.62,0,0,1-.61-.61V134.5a.62.62,0,0,1,.61-.61h8.63m0-.5h-8.63a1.11,1.11,0,0,0-1.11,1.11v8.63a1.11,1.11,0,0,0,1.11,1.11h8.63a1.11,1.11,0,0,0,1.11-1.11V134.5a1.11,1.11,0,0,0-1.11-1.11Z"/><polygon class="cls-13" points="173.45 142.16 173.51 140.75 174.92 140.81 174.87 142.16 173.45 142.16"/><path class="cls-29" d="M174.61,141.06v.85h-.85v-.85h.85m.31-.5h-1.47a.18.18,0,0,0-.19.19v1.47a.18.18,0,0,0,.19.19h1.47a.18.18,0,0,0,.19-.19v-1.47a.18.18,0,0,0-.19-.19Z"/><polygon class="cls-13" points="171.01 142.16 171.07 140.75 172.49 140.81 172.43 142.16 171.01 142.16"/><path class="cls-29" d="M172.18,141.06v.85h-.86v-.85h.86m.31-.5H171a.19.19,0,0,0-.19.19v1.47a.19.19,0,0,0,.19.19h1.48a.19.19,0,0,0,.19-.19v-1.47a.19.19,0,0,0-.19-.19Z"/><polygon class="cls-13" points="168.58 142.16 168.64 140.75 170.05 140.81 170 142.16 168.58 142.16"/><path class="cls-29" d="M169.74,141.06v.85h-.85v-.85h.85m.31-.5h-1.47a.18.18,0,0,0-.19.19v1.47a.18.18,0,0,0,.19.19h1.47a.18.18,0,0,0,.19-.19v-1.47a.18.18,0,0,0-.19-.19Z"/><polygon class="cls-13" points="173.45 139.62 173.51 138.2 174.92 138.26 174.87 139.62 173.45 139.62"/><path class="cls-29" d="M174.61,138.51v.86h-.85v-.86h.85m.31-.5h-1.47a.19.19,0,0,0-.19.19v1.48a.19.19,0,0,0,.19.19h1.47a.19.19,0,0,0,.19-.19V138.2a.19.19,0,0,0-.19-.19Z"/><polygon class="cls-13" points="171.01 139.62 171.07 138.2 172.49 138.26 172.43 139.62 171.01 139.62"/><path class="cls-29" d="M172.18,138.51v.86h-.86v-.86h.86m.31-.5H171a.2.2,0,0,0-.19.19v1.48a.2.2,0,0,0,.19.19h1.48a.2.2,0,0,0,.19-.19V138.2a.2.2,0,0,0-.19-.19Z"/><polygon class="cls-13" points="168.58 139.62 168.64 138.2 170.05 138.26 170 139.62 168.58 139.62"/><path class="cls-29" d="M169.74,138.51v.86h-.85v-.86h.85m.31-.5h-1.47a.19.19,0,0,0-.19.19v1.48a.19.19,0,0,0,.19.19h1.47a.19.19,0,0,0,.19-.19V138.2a.19.19,0,0,0-.19-.19Z"/><polygon class="cls-13" points="173.45 136.87 173.51 135.45 174.92 135.51 174.87 136.87 173.45 136.87"/><path class="cls-29" d="M174.61,135.76v.86h-.85v-.86h.85m.31-.5h-1.47a.19.19,0,0,0-.19.19v1.48a.19.19,0,0,0,.19.19h1.47a.19.19,0,0,0,.19-.19v-1.48a.19.19,0,0,0-.19-.19Z"/><polygon class="cls-13" points="171.01 136.87 171.07 135.45 172.49 135.51 172.43 136.87 171.01 136.87"/><path class="cls-29" d="M172.18,135.76v.86h-.86v-.86h.86m.31-.5H171a.2.2,0,0,0-.19.19v1.48a.2.2,0,0,0,.19.19h1.48a.2.2,0,0,0,.19-.19v-1.48a.2.2,0,0,0-.19-.19Z"/><polygon class="cls-13" points="168.58 136.87 168.64 135.45 170.05 135.51 170 136.87 168.58 136.87"/><path class="cls-29" d="M169.74,135.76v.86h-.85v-.86h.85m.31-.5h-1.47a.19.19,0,0,0-.19.19v1.48a.19.19,0,0,0,.19.19h1.47a.19.19,0,0,0,.19-.19v-1.48a.19.19,0,0,0-.19-.19Z"/><line class="cls-27" x1="164.35" y1="124.31" x2="164.35" y2="130.39"/><path class="cls-23" d="M157.75,117v5.51a1.84,1.84,0,0,0,.91,1.59l4.78,2.75a1.82,1.82,0,0,0,1.83,0l4.77-2.75a1.85,1.85,0,0,0,.92-1.59V117a1.84,1.84,0,0,0-.92-1.59l-4.77-2.76a1.88,1.88,0,0,0-1.84,0l-4.77,2.76A1.86,1.86,0,0,0,157.75,117Z"/><polyline class="cls-30" points="162.07 122.01 164.36 117.42 166.65 122.01"/><path class="cls-31" d="M121.53,40.78h2.34V43a3,3,0,0,1-1,.65,3.31,3.31,0,0,1-1.22.24,2.79,2.79,0,0,1-1.46-.4,3,3,0,0,1-1.08-1.08,2.85,2.85,0,0,1,0-2.91,3.07,3.07,0,0,1,1.08-1.07,2.79,2.79,0,0,1,1.46-.4,3.31,3.31,0,0,1,1.22.24,2.89,2.89,0,0,1,1,.65l-.58.56a2.06,2.06,0,0,0-.75-.5,2.41,2.41,0,0,0-.9-.18,2,2,0,0,0-1,.29,2.33,2.33,0,0,0-.77.79,2.2,2.2,0,0,0,0,2.15,2.27,2.27,0,0,0,.77.8,2,2,0,0,0,1,.29,2.43,2.43,0,0,0,.74-.12,2.25,2.25,0,0,0,.67-.35V41.51h-1.52Z"/><path class="cls-31" d="M124.81,43l.49-.62a2.67,2.67,0,0,0,1.86.79,1.42,1.42,0,0,0,.88-.25.8.8,0,0,0,.31-.62.65.65,0,0,0-.33-.58,3.73,3.73,0,0,0-1.09-.37,5.18,5.18,0,0,1-1.05-.34,1.7,1.7,0,0,1-.64-.5,1.35,1.35,0,0,1-.23-.8,1.47,1.47,0,0,1,.26-.85,1.79,1.79,0,0,1,.7-.6,2.37,2.37,0,0,1,1-.21,3,3,0,0,1,1.13.21,3,3,0,0,1,.93.59l-.48.63a2.76,2.76,0,0,0-.78-.51,1.91,1.91,0,0,0-.84-.19,1.23,1.23,0,0,0-.55.12,1,1,0,0,0-.39.31.73.73,0,0,0-.14.42.57.57,0,0,0,.16.42,1.2,1.2,0,0,0,.45.28,6.81,6.81,0,0,0,.81.23,3.94,3.94,0,0,1,1.43.59,1.26,1.26,0,0,1,.48,1.07,1.63,1.63,0,0,1-.24.87,1.58,1.58,0,0,1-.7.59,2.57,2.57,0,0,1-1.12.22A3.2,3.2,0,0,1,124.81,43Z"/><path class="cls-31" d="M134.27,43.06v.77h-3.83V38.17h.83v4.89Z"/><path class="cls-31" d="M135.34,38.17H138a1.89,1.89,0,0,1,.84.18,1.46,1.46,0,0,1,.57.5,1.4,1.4,0,0,1,.2.73,1.33,1.33,0,0,1-.2.73,1.73,1.73,0,0,1-.6.52,2,2,0,0,1,.76.62,1.4,1.4,0,0,1,.27.84,1.46,1.46,0,0,1-.22.8,1.49,1.49,0,0,1-.62.54,1.87,1.87,0,0,1-.9.2h-2.78Zm2.47,2.36a1.05,1.05,0,0,0,.7-.23.72.72,0,0,0,.27-.58.75.75,0,0,0-.27-.59,1.05,1.05,0,0,0-.7-.23h-1.64v1.63Zm.13,2.57a1.16,1.16,0,0,0,.77-.26.91.91,0,0,0,0-1.35,1.16,1.16,0,0,0-.77-.26h-1.77V43.1Z"/><path class="cls-31" d="M143.23,37.71h.89l-2.87,6.73h-.89Z"/><path class="cls-31" d="M110.24,46.46h2a3.5,3.5,0,0,1,1.61.36,2.78,2.78,0,0,1,1.11,1,2.86,2.86,0,0,1,0,2.92,2.78,2.78,0,0,1-1.11,1,3.5,3.5,0,0,1-1.61.36h-2Zm2,4.9a2.56,2.56,0,0,0,1.15-.26,2,2,0,0,0,1.07-1.81,1.94,1.94,0,0,0-1.07-1.81,2.56,2.56,0,0,0-1.15-.26h-1.17v4.14Z"/><path class="cls-31" d="M116.6,46.46h.83l3.25,4.29V46.46h.84v5.66h-.84l-3.25-4.29v4.29h-.83Z"/><path class="cls-31" d="M122.7,51.31l.5-.62a2.65,2.65,0,0,0,1.86.79,1.42,1.42,0,0,0,.88-.25.8.8,0,0,0,.31-.62.65.65,0,0,0-.33-.58,3.73,3.73,0,0,0-1.09-.37,5.18,5.18,0,0,1-1-.34,1.63,1.63,0,0,1-.64-.5,1.35,1.35,0,0,1-.23-.8,1.47,1.47,0,0,1,.26-.85,1.79,1.79,0,0,1,.7-.6,2.37,2.37,0,0,1,1-.21,2.87,2.87,0,0,1,1.12.21,3,3,0,0,1,.94.59l-.48.63a2.76,2.76,0,0,0-.78-.51,1.94,1.94,0,0,0-.84-.19,1.23,1.23,0,0,0-.55.12,1,1,0,0,0-.39.31.73.73,0,0,0-.14.42.57.57,0,0,0,.16.42,1.2,1.2,0,0,0,.45.28,6.81,6.81,0,0,0,.81.23,3.94,3.94,0,0,1,1.43.59,1.26,1.26,0,0,1,.48,1.07,1.63,1.63,0,0,1-.24.87,1.55,1.55,0,0,1-.71.59,2.53,2.53,0,0,1-1.11.22A3.24,3.24,0,0,1,122.7,51.31Z"/><path class="cls-31" d="M130.39,46h.89l-2.87,6.73h-.89Z"/><path class="cls-31" d="M132.14,46.46H133v5.66h-.83Z"/><path class="cls-31" d="M134.65,46.46H137a2.46,2.46,0,0,1,1.06.23,1.89,1.89,0,0,1,.76.66,1.77,1.77,0,0,1,0,1.91,1.89,1.89,0,0,1-.76.66,2.46,2.46,0,0,1-1.06.23h-1.55v2h-.84Zm2.26,2.92a1.63,1.63,0,0,0,1-.29.93.93,0,0,0,.38-.78,1,1,0,0,0-.38-.79,1.63,1.63,0,0,0-1-.29h-1.42v2.15Z"/><path class="cls-31" d="M144.05,50.94h-2.93l-.51,1.18h-.92l2.43-5.66H143l2.44,5.66h-.93Zm-.31-.72-1.16-2.69-1.15,2.69Z"/><path class="cls-31" d="M146.52,46.46h.83l2,3.7,2-3.7h.83v5.66h-.83v-4l-2,3.7-2-3.7v4h-.83Z"/><path class="cls-31" d="M187.13,43.11h.92l1.4,4.32,1.41-4.32h.92l1.42,4.32,1.39-4.32h.92l-1.86,5.67h-.83l-1.49-4.51-1.5,4.51H189Z"/><path class="cls-31" d="M200.33,47.6h-2.94l-.5,1.18H196l2.43-5.67h.92l2.43,5.67h-.92Zm-.32-.73-1.15-2.69-1.15,2.69Z"/><path class="cls-31" d="M203.64,43.89v1.65h3v.77h-3v2.47h-.84V43.11H207v.78Z"/><path class="cls-31" d="M150.71,95.77h.83v5.66h-.83Z"/><path class="cls-31" d="M156.05,97.27a1.49,1.49,0,0,1,.56.58,1.77,1.77,0,0,1,.2.87v2.71H156V98.86a1.12,1.12,0,0,0-.27-.78.91.91,0,0,0-.71-.3,1.31,1.31,0,0,0-.59.13,1.19,1.19,0,0,0-.43.37.9.9,0,0,0-.16.5v2.65h-.81V97.17h.81v.62a1.48,1.48,0,0,1,.56-.52,1.69,1.69,0,0,1,.8-.2A1.73,1.73,0,0,1,156.05,97.27Z"/><path class="cls-31" d="M162,97.17V101a1.75,1.75,0,0,1-.27,1,1.86,1.86,0,0,1-.77.67,2.52,2.52,0,0,1-1.12.24,3.31,3.31,0,0,1-1-.16,2.67,2.67,0,0,1-.79-.41l.33-.61a1.65,1.65,0,0,0,.58.34,2.17,2.17,0,0,0,.76.13,1.65,1.65,0,0,0,1.07-.32,1,1,0,0,0,.39-.86v-.62a1.74,1.74,0,0,1-.64.57,1.79,1.79,0,0,1-.86.2,1.84,1.84,0,0,1-1-.26,1.8,1.8,0,0,1-.7-.72,2.19,2.19,0,0,1-.25-1,2.26,2.26,0,0,1,.25-1,1.8,1.8,0,0,1,.7-.72,1.93,1.93,0,0,1,1-.25,1.91,1.91,0,0,1,.86.2,1.85,1.85,0,0,1,.64.57v-.67ZM160.79,100a1.4,1.4,0,0,0,0-1.9,1.38,1.38,0,0,0-1.86,0,1.27,1.27,0,0,0-.37,1,1.29,1.29,0,0,0,.37,1,1.35,1.35,0,0,0,1.86,0Z"/><path class="cls-31" d="M164.74,97.32a1.82,1.82,0,0,1,1-.25v.71a1.84,1.84,0,0,0-.83.17,1.3,1.3,0,0,0-.76,1.21v2.27h-.81V97.17h.81V98A1.57,1.57,0,0,1,164.74,97.32Z"/><path class="cls-31" d="M169.22,100.71a1.45,1.45,0,0,0,.56-.35l.48.51a2.21,2.21,0,0,1-.77.48,2.72,2.72,0,0,1-1,.18,2.2,2.2,0,0,1-1.09-.29,2.1,2.1,0,0,1-.81-.81,2.21,2.21,0,0,1-.3-1.14,2.3,2.3,0,0,1,.29-1.14,2.13,2.13,0,0,1,1.86-1.08,2,2,0,0,1,1.1.3,1.92,1.92,0,0,1,.71.87,3.31,3.31,0,0,1,.25,1.32h-3.41a1.52,1.52,0,0,0,.45.93,1.3,1.3,0,0,0,.94.36A2,2,0,0,0,169.22,100.71Zm-1.61-2.64a1.46,1.46,0,0,0-.47.89h2.6a1.46,1.46,0,0,0-.39-.88,1.14,1.14,0,0,0-.86-.34A1.28,1.28,0,0,0,167.61,98.07Z"/><path class="cls-31" d="M171.94,101.36a2.66,2.66,0,0,1-.86-.47l.37-.56a2.77,2.77,0,0,0,.73.4,2,2,0,0,0,.72.14,1,1,0,0,0,.61-.16.47.47,0,0,0,.22-.42.44.44,0,0,0-.24-.41,3.4,3.4,0,0,0-.75-.27,3.41,3.41,0,0,1-1.12-.49.9.9,0,0,1-.34-.76,1.15,1.15,0,0,1,.43-.94,1.74,1.74,0,0,1,1.12-.35,2.54,2.54,0,0,1,.81.13,3.13,3.13,0,0,1,.76.36l-.34.58a2.3,2.3,0,0,0-1.23-.41,1.06,1.06,0,0,0-.56.14.45.45,0,0,0-.22.4.36.36,0,0,0,.1.27,1,1,0,0,0,.3.17l.62.21c.3.1.55.18.75.27a1.3,1.3,0,0,1,.49.38,1,1,0,0,1,.2.64,1.17,1.17,0,0,1-.45,1,1.82,1.82,0,0,1-1.17.36A2.89,2.89,0,0,1,171.94,101.36Z"/><path class="cls-31" d="M175.94,101.36a2.77,2.77,0,0,1-.86-.47l.38-.56a2.57,2.57,0,0,0,.72.4,2.14,2.14,0,0,0,.73.14,1,1,0,0,0,.6-.16.48.48,0,0,0,.23-.42.44.44,0,0,0-.24-.41,3.4,3.4,0,0,0-.75-.27,3.48,3.48,0,0,1-1.13-.49.93.93,0,0,1-.34-.76,1.18,1.18,0,0,1,.43-.94,1.76,1.76,0,0,1,1.12-.35,2.65,2.65,0,0,1,.82.13,3.53,3.53,0,0,1,.76.36l-.34.58a2.31,2.31,0,0,0-1.24-.41,1,1,0,0,0-.55.14.45.45,0,0,0-.22.4.36.36,0,0,0,.1.27.85.85,0,0,0,.29.17l.62.21a6.71,6.71,0,0,1,.75.27,1.23,1.23,0,0,1,.49.38.93.93,0,0,1,.2.64,1.17,1.17,0,0,1-.45,1,1.79,1.79,0,0,1-1.16.36A2.94,2.94,0,0,1,175.94,101.36Z"/><path class="cls-31" d="M146.36,109.42a3.1,3.1,0,0,1-1.08-1.08,2.8,2.8,0,0,1-.41-1.46,2.77,2.77,0,0,1,.41-1.45,3,3,0,0,1,1.08-1.07,2.76,2.76,0,0,1,1.45-.4,2.94,2.94,0,0,1,1.14.23,2.9,2.9,0,0,1,1,.66l-.58.56a2.29,2.29,0,0,0-.69-.51,2,2,0,0,0-.82-.18,1.93,1.93,0,0,0-1,.3,2.21,2.21,0,0,0-.76.79,2.19,2.19,0,0,0,.76,2.94,1.93,1.93,0,0,0,1,.3,2,2,0,0,0,.82-.18,2.26,2.26,0,0,0,.69-.5l.58.56a3,3,0,0,1-2.09.89A2.85,2.85,0,0,1,146.36,109.42Z"/><path class="cls-31" d="M151.64,109.52a2.22,2.22,0,0,1-.82-.82,2.1,2.1,0,0,1-.31-1.12,2.07,2.07,0,0,1,.31-1.11,2.2,2.2,0,0,1,.82-.81,2.15,2.15,0,0,1,1.11-.3,2.19,2.19,0,0,1,1.12.3,2.27,2.27,0,0,1,.82.81,2.15,2.15,0,0,1,.3,1.11,2.19,2.19,0,0,1-.3,1.12,2.3,2.3,0,0,1-.82.82,2.19,2.19,0,0,1-1.12.3A2.15,2.15,0,0,1,151.64,109.52Zm1.83-.62a1.5,1.5,0,0,0,.51-.55,1.58,1.58,0,0,0,.2-.77,1.54,1.54,0,0,0-.2-.76,1.42,1.42,0,0,0-.51-.55,1.31,1.31,0,0,0-.72-.2,1.27,1.27,0,0,0-.71.2,1.45,1.45,0,0,0-.52.55,1.53,1.53,0,0,0-.19.76,1.57,1.57,0,0,0,.19.77,1.52,1.52,0,0,0,.52.55,1.28,1.28,0,0,0,.71.21A1.32,1.32,0,0,0,153.47,108.9Z"/><path class="cls-31" d="M159,105.56a1.59,1.59,0,0,1,.57.58,1.89,1.89,0,0,1,.2.87v2.71H159v-2.57a1.12,1.12,0,0,0-.27-.78.93.93,0,0,0-.71-.3,1.35,1.35,0,0,0-.6.13,1.08,1.08,0,0,0-.42.37.83.83,0,0,0-.16.5v2.65H156v-4.26h.82v.62a1.45,1.45,0,0,1,.55-.52,1.73,1.73,0,0,1,.81-.2A1.69,1.69,0,0,1,159,105.56Z"/><path class="cls-31" d="M163.12,109.51a1.2,1.2,0,0,1-.4.22,1.22,1.22,0,0,1-.46.09,1.07,1.07,0,0,1-.81-.33,1.19,1.19,0,0,1-.31-.84v-2.5h-.63v-.69h.63v-1.17h.8v1.17h1v.69h-1v2.45a.48.48,0,0,0,.13.36.42.42,0,0,0,.32.15.64.64,0,0,0,.24,0,.4.4,0,0,0,.18-.11Z"/><path class="cls-31" d="M165.4,105.61a1.82,1.82,0,0,1,1-.25v.71a1.84,1.84,0,0,0-.83.17,1.3,1.3,0,0,0-.76,1.21v2.27H164v-4.26h.81v.83A1.57,1.57,0,0,1,165.4,105.61Z"/><path class="cls-31" d="M168.1,109.52a2.3,2.3,0,0,1-.82-.82,2.19,2.19,0,0,1-.3-1.12,2.15,2.15,0,0,1,.3-1.11,2.27,2.27,0,0,1,.82-.81,2.19,2.19,0,0,1,1.12-.3,2.15,2.15,0,0,1,1.11.3,2.2,2.2,0,0,1,.82.81,2.07,2.07,0,0,1,.31,1.11,2.1,2.1,0,0,1-.31,1.12,2.22,2.22,0,0,1-.82.82,2.15,2.15,0,0,1-1.11.3A2.19,2.19,0,0,1,168.1,109.52Zm1.83-.62a1.52,1.52,0,0,0,.52-.55,1.57,1.57,0,0,0,.19-.77,1.53,1.53,0,0,0-.19-.76,1.45,1.45,0,0,0-.52-.55,1.27,1.27,0,0,0-.71-.2,1.31,1.31,0,0,0-.72.2,1.42,1.42,0,0,0-.51.55,1.54,1.54,0,0,0-.2.76,1.58,1.58,0,0,0,.2.77,1.5,1.5,0,0,0,.51.55,1.32,1.32,0,0,0,.72.21A1.28,1.28,0,0,0,169.93,108.9Z"/><path class="cls-31" d="M172.45,104h.81v5.76h-.81Z"/><path class="cls-31" d="M174.6,104h.82v5.76h-.82Z"/><path class="cls-31" d="M179.31,109a1.41,1.41,0,0,0,.55-.35l.48.51a2.07,2.07,0,0,1-.76.48,2.8,2.8,0,0,1-1,.18,2.2,2.2,0,0,1-1.09-.29,2.1,2.1,0,0,1-.81-.81,2.21,2.21,0,0,1-.3-1.14,2.3,2.3,0,0,1,.29-1.14,2,2,0,0,1,.78-.79,2,2,0,0,1,1.07-.29,2,2,0,0,1,1.11.3,1.92,1.92,0,0,1,.71.87,3.31,3.31,0,0,1,.24,1.32h-3.4a1.52,1.52,0,0,0,.45.93,1.29,1.29,0,0,0,.93.36A2,2,0,0,0,179.31,109Zm-1.62-2.64a1.45,1.45,0,0,0-.46.89h2.6a1.46,1.46,0,0,0-.39-.88,1.16,1.16,0,0,0-.86-.34A1.31,1.31,0,0,0,177.69,106.36Z"/><path class="cls-31" d="M183,105.61a1.82,1.82,0,0,1,1-.25v.71a1.84,1.84,0,0,0-.83.17,1.41,1.41,0,0,0-.56.49,1.34,1.34,0,0,0-.2.72v2.27h-.81v-4.26h.81v.83A1.57,1.57,0,0,1,183,105.61Z"/><path class="cls-31" d="M170.36,81.9h-4.63v4.68H163V81.9h-4.63V79.27H163v-4.7h2.76v4.7h4.63Z"/><polyline class="cls-32" points="284.58 101.49 259.16 101.49 259.16 58.68 284.58 58.68"/><polygon class="cls-31" points="283.93 99.25 287.81 101.49 283.93 103.74 283.93 99.25"/><polygon class="cls-31" points="283.93 60.92 287.81 58.68 283.93 56.44 283.93 60.92"/><path class="cls-31" d="M150.9,216H148l-.5,1.18h-.92l2.43-5.66h.92l2.43,5.66h-.92Zm-.32-.72-1.15-2.69-1.15,2.69Z"/><path class="cls-31" d="M156.2,213.05a1.42,1.42,0,0,1,.56.58,1.73,1.73,0,0,1,.2.86v2.71h-.79v-2.57a1.12,1.12,0,0,0-.27-.78.91.91,0,0,0-.71-.3,1.31,1.31,0,0,0-.59.14,1,1,0,0,0-.43.37.9.9,0,0,0-.16.5v2.64h-.81v-4.26H154v.63a1.35,1.35,0,0,1,.56-.52,1.57,1.57,0,0,1,.8-.21A1.63,1.63,0,0,1,156.2,213.05Z"/><path class="cls-31" d="M161.13,213.33a1.75,1.75,0,0,1,.47,1.29v2.58h-.8v-.57a1.58,1.58,0,0,1-.61.5,2.05,2.05,0,0,1-.8.17,1.67,1.67,0,0,1-1.13-.37,1.23,1.23,0,0,1-.45-1,1.24,1.24,0,0,1,.23-.73,1.49,1.49,0,0,1,.62-.51,2,2,0,0,1,.86-.18,3.84,3.84,0,0,1,1.28.24v-.14a1.2,1.2,0,0,0-.25-.78,1,1,0,0,0-.84-.32,2.79,2.79,0,0,0-1.2.35l-.3-.6a3.7,3.7,0,0,1,1.61-.43A1.75,1.75,0,0,1,161.13,213.33Zm-.79,3.12a.91.91,0,0,0,.46-.58v-.57a4,4,0,0,0-1.16-.16,1.2,1.2,0,0,0-.74.22.68.68,0,0,0-.31.56.65.65,0,0,0,.27.54,1.15,1.15,0,0,0,.69.2A1.53,1.53,0,0,0,160.34,216.45Z"/><path class="cls-31" d="M162.85,211.44h.81v5.76h-.81Z"/><path class="cls-31" d="M164.74,218.51l.18-.63a1.06,1.06,0,0,0,.52.13.73.73,0,0,0,.35-.07.68.68,0,0,0,.24-.26l.21-.45-1.83-4.29h.88l1.36,3.37,1.3-3.37h.85l-1.88,4.65a2,2,0,0,1-.56.83,1.4,1.4,0,0,1-.81.27A1.73,1.73,0,0,1,164.74,218.51Z"/><path class="cls-31" d="M171.69,217a1.41,1.41,0,0,1-.4.22,1.44,1.44,0,0,1-.46.08A1.1,1.1,0,0,1,170,217a1.21,1.21,0,0,1-.31-.84v-2.5h-.63v-.7h.63v-1.17h.8v1.17h1v.7h-1v2.44a.57.57,0,0,0,.13.37.41.41,0,0,0,.32.14.64.64,0,0,0,.24,0,.5.5,0,0,0,.18-.11Z"/><path class="cls-31" d="M172.6,212.09a.47.47,0,0,1-.14-.35.44.44,0,0,1,.14-.34.47.47,0,0,1,.35-.15.51.51,0,0,1,.49.49.49.49,0,0,1-.15.35.48.48,0,0,1-.34.14A.5.5,0,0,1,172.6,212.09Zm-.06.85h.81v4.26h-.81Z"/><path class="cls-31" d="M175.47,217a2.41,2.41,0,0,1-.83-.82,2.21,2.21,0,0,1-.31-1.11,2.12,2.12,0,0,1,.31-1.1,2.33,2.33,0,0,1,.83-.82,2.21,2.21,0,0,1,1.11-.31,2.07,2.07,0,0,1,.86.18,2.39,2.39,0,0,1,.72.48l-.55.51a1.43,1.43,0,0,0-.47-.33,1.21,1.21,0,0,0-.56-.13,1.27,1.27,0,0,0-.7.21,1.5,1.5,0,0,0-.72,1.31,1.53,1.53,0,0,0,.19.76,1.58,1.58,0,0,0,.53.56,1.35,1.35,0,0,0,.7.2,1.39,1.39,0,0,0,.57-.12,1.85,1.85,0,0,0,.48-.35l.55.5a2.31,2.31,0,0,1-.73.5,2.12,2.12,0,0,1-.87.18A2.15,2.15,0,0,1,175.47,217Z"/><path class="cls-31" d="M179.48,217.14a2.87,2.87,0,0,1-.86-.47l.37-.56a3.09,3.09,0,0,0,.73.4,2.07,2.07,0,0,0,.72.13,1.1,1.1,0,0,0,.61-.15.5.5,0,0,0,.22-.42.44.44,0,0,0-.24-.41,3.43,3.43,0,0,0-.75-.28,3.66,3.66,0,0,1-1.12-.48.9.9,0,0,1-.34-.76,1.14,1.14,0,0,1,.43-.94,1.69,1.69,0,0,1,1.12-.36,3.08,3.08,0,0,1,1.57.5l-.34.58a2.32,2.32,0,0,0-1.23-.42,1,1,0,0,0-.56.15.46.46,0,0,0-.22.4.38.38,0,0,0,.1.26.85.85,0,0,0,.3.18l.62.21a5.64,5.64,0,0,1,.75.27,1.21,1.21,0,0,1,.49.37,1,1,0,0,1,.2.64,1.15,1.15,0,0,1-.45,1,1.82,1.82,0,0,1-1.17.36A2.87,2.87,0,0,1,179.48,217.14Z"/><polyline class="cls-2" points="33.12 115.69 33.12 187 147.46 187"/><rect class="cls-13" x="147.09" y="175.53" width="33.78" height="22.91" rx="2.32"/><path class="cls-8" d="M179.74,176.3a1,1,0,0,1,1,1v19.82a.92.92,0,0,1-.89.94H148.88a.85.85,0,0,1-.82-.87v-20a.83.83,0,0,1,.81-.86h30.87m0-.91H148.87a1.74,1.74,0,0,0-1.72,1.77v20a1.75,1.75,0,0,0,1.73,1.77h30.94a1.81,1.81,0,0,0,1.79-1.84V177.31a1.89,1.89,0,0,0-1.87-1.92Z"/><circle class="cls-8" cx="176.17" cy="180.86" r="0.91"/><circle class="cls-8" cx="172.58" cy="184.53" r="0.91"/><circle class="cls-8" cx="168.91" cy="186.31" r="0.91"/><circle class="cls-8" cx="165.31" cy="186.31" r="0.91"/><circle class="cls-8" cx="161.6" cy="184.48" r="0.91"/><circle class="cls-8" cx="158" cy="188.07" r="0.91"/><circle class="cls-8" cx="154.37" cy="189.98" r="0.91"/><path class="cls-8" d="M170,207.25H158.72a.72.72,0,0,1-.69-.52.73.73,0,0,1,.28-.82,17.85,17.85,0,0,1,2.68-1.22l.64-4.86.9.12-.72,5.4-.25.09c-.44.17-1.45.56-2.15.9h9.87c-.7-.34-1.72-.73-2.16-.9l-.26-.1-.52-5.41.9-.08.47,4.84a16.93,16.93,0,0,1,2.67,1.23.73.73,0,0,1-.41,1.33Z"/><rect class="cls-8" x="150.83" y="194.52" width="27.21" height="0.45"/><rect class="cls-8" x="150.76" y="178.15" width="1.81" height="0.45"/><rect class="cls-8" x="150.76" y="179.97" width="1.81" height="0.45"/><rect class="cls-8" x="150.76" y="181.78" width="1.81" height="0.45"/><rect class="cls-8" x="150.76" y="183.6" width="1.81" height="0.45"/><rect class="cls-8" x="150.76" y="185.41" width="1.81" height="0.45"/><rect class="cls-8" x="150.76" y="187.22" width="1.81" height="0.45"/><rect class="cls-8" x="150.76" y="189.04" width="1.81" height="0.45"/><rect class="cls-8" x="150.76" y="190.85" width="1.81" height="0.45"/><rect class="cls-8" x="150.76" y="192.67" width="1.81" height="0.45"/><polygon class="cls-8" points="154.44 190.1 154.23 189.7 157.84 187.84 161.57 184.15 165.18 186.12 168.78 186.12 172.33 184.32 175.98 180.64 176.3 180.96 172.57 184.71 168.89 186.57 165.06 186.57 161.65 184.71 158.07 188.23 154.44 190.1"/></g></g></svg>