<?xml version="1.0" encoding="utf-8"?>
<!-- Generator: Adobe Illustrator 25.2.0, SVG Export Plug-In . SVG Version: 6.00 Build 0)  -->
<svg version="1.1" id="Layer_1" xmlns="http://www.w3.org/2000/svg" xmlns:xlink="http://www.w3.org/1999/xlink" x="0px" y="0px"
	 viewBox="0 0 804.5 558.8" style="enable-background:new 0 0 804.5 558.8;" xml:space="preserve">
<style type="text/css">
	.st0{fill:#F04E23;}
	.st1{fill:#4A5666;}
	.st2{fill:#FFFFFF;}
	
		.st3{opacity:0.15;fill:none;stroke:#4A5666;stroke-width:4.04;stroke-linecap:round;stroke-miterlimit:10;enable-background:new    ;}
	.st4{fill:none;stroke:#4A5666;stroke-width:4.04;stroke-miterlimit:10;}
	.st5{enable-background:new    ;}
	.st6{fill:#007DAC;}
	.st7{fill:none;stroke:#4A5666;stroke-width:3;stroke-miterlimit:10;}
	.st8{fill:none;stroke:#4A5666;stroke-width:3;stroke-linecap:round;stroke-miterlimit:10;}
	.st9{fill:#F05226;stroke:#F05125;stroke-width:1.91;stroke-linecap:round;stroke-linejoin:round;}
	.st10{fill:none;stroke:#FFFFFF;stroke-width:2.76;stroke-linecap:round;stroke-linejoin:round;}
	.st11{fill:none;stroke:#4A5666;stroke-width:2.48;stroke-miterlimit:10;}
	.st12{opacity:0.15;fill:#4A5666;enable-background:new    ;}
	.st13{fill:#F05226;stroke:#F05125;stroke-width:1.83;stroke-linecap:round;stroke-linejoin:round;}
	.st14{fill:none;stroke:#FFFFFF;stroke-width:2.65;stroke-linecap:round;stroke-linejoin:round;}
	.st15{fill:none;stroke:#4A5666;stroke-width:2.86;stroke-miterlimit:10;}
	.st16{fill:#F05226;stroke:#F05125;stroke-width:1.07;stroke-linecap:round;stroke-linejoin:round;}
	.st17{fill:none;stroke:#FFFFFF;stroke-width:1.55;stroke-linecap:round;stroke-linejoin:round;}
	
		.st18{opacity:0.15;fill:none;stroke:#4A5666;stroke-width:2.14;stroke-linecap:round;stroke-miterlimit:10;enable-background:new    ;}
	.st19{fill:none;stroke:#4A5666;stroke-width:2.14;stroke-miterlimit:10;}
	.st20{fill:none;stroke:#4A5666;stroke-width:2.52;stroke-miterlimit:10;}
	
		.st21{opacity:0.15;fill:none;stroke:#4A5666;stroke-width:3.09;stroke-linecap:round;stroke-miterlimit:10;enable-background:new    ;}
	.st22{fill:none;stroke:#4A5666;stroke-width:3.09;stroke-linecap:round;stroke-miterlimit:10;}
	
		.st23{opacity:0.15;fill:none;stroke:#4A5666;stroke-width:1.54;stroke-linecap:round;stroke-miterlimit:10;enable-background:new    ;}
	.st24{fill:none;stroke:#989898;stroke-width:3.09;stroke-linecap:round;stroke-miterlimit:10;}
	
		.st25{opacity:0.15;fill:none;stroke:#4A5666;stroke-width:2.69;stroke-linecap:round;stroke-miterlimit:10;enable-background:new    ;}
	.st26{fill:none;stroke:#4A5666;stroke-width:2.69;stroke-linecap:round;stroke-miterlimit:10;}
	
		.st27{opacity:0.15;fill:none;stroke:#4A5666;stroke-width:1.34;stroke-linecap:round;stroke-miterlimit:10;enable-background:new    ;}
	.st28{fill:none;stroke:#989898;stroke-width:2.69;stroke-linecap:round;stroke-miterlimit:10;}
</style>
<g id="Layer_2_1_">
	<g id="Layer_1-2">
		<rect x="2.1" y="227.4" class="st0" width="399" height="55.1"/>
		<rect x="401.1" y="227.2" class="st1" width="401.1" height="55.1"/>
		<g id="Layer_2-2">
			<g id="Layer_1-2-2">
				<path class="st2" d="M604.2,424.7c-9.8,0.2-18-7.3-18.8-17c-0.7-10,6.9-18.7,16.9-19.3l0,0c0.4,0,0.8,0,1.2,0v2
					c0-30.1,24.4-54.5,54.5-54.5c22.4,0,42.5,13.7,50.7,34.4c0.6,0,1.2-0.1,1.8-0.1c20.1,0,36.4,16.2,36.4,36.3c0,0,0,0,0,0.1
					c0,3.1-0.4,6.2-1.2,9.3c-1.4,5.3-6.2,8.9-11.7,8.9L604.2,424.7z"/>
				<path class="st3" d="M611.7,395.3c-6.2-4.8-15.1-3.6-19.8,2.6c-4.8,6.2-3.6,15.1,2.6,19.8c2.5,1.9,5.5,2.9,8.6,2.9h137.2
					c7.8-16.1,1.1-35.4-14.9-43.2c-10.2-4.9-22.2-4.2-31.7,1.9"/>
				<path class="st4" d="M604.2,424.7c-9.8,0.2-18-7.3-18.8-17c-0.7-10,6.9-18.7,16.9-19.3l0,0c0.4,0,0.8,0,1.2,0v2
					c0-30.1,24.4-54.5,54.5-54.5c22.4,0,42.5,13.7,50.7,34.4c0.6,0,1.2-0.1,1.8-0.1c20.1,0,36.4,16.2,36.4,36.3c0,0,0,0,0,0.1
					c0,3.1-0.4,6.2-1.2,9.3c-1.4,5.3-6.2,8.9-11.7,8.9L604.2,424.7z"/>
				<line class="st3" x1="766.4" y1="442.9" x2="618.3" y2="442.9"/>
				<line class="st3" x1="623" y1="451" x2="594.1" y2="451"/>
			</g>
		</g>
		<g class="st5">
			<path class="st1" d="M96.8,513.1c0,1.7-0.4,2.9-1.2,3.8s-2,1.3-3.5,1.3s-2.7-0.4-3.5-1.3s-1.2-2.2-1.2-3.8s0.4-2.9,1.2-3.8
				c0.8-0.9,2-1.3,3.5-1.3s2.7,0.4,3.5,1.3S96.8,511.4,96.8,513.1z M89.5,513.1c0,1.1,0.2,2,0.6,2.5s1.1,0.8,1.9,0.8
				c1.7,0,2.5-1.1,2.5-3.4c0-2.3-0.8-3.4-2.5-3.4c-0.8,0-1.5,0.3-1.9,0.9C89.7,511.1,89.5,512,89.5,513.1z"/>
			<path class="st1" d="M107.7,518.1H105l-4.3-7.6h-0.1c0.1,1.3,0.1,2.3,0.1,2.9v4.7h-1.9v-10h2.7l4.3,7.5h0
				c-0.1-1.3-0.1-2.2-0.1-2.8v-4.7h1.9V518.1z"/>
			<path class="st1" d="M109.4,515.2v-1.7h3.7v1.7H109.4z"/>
			<path class="st1" d="M121.7,511.2c0,1.1-0.3,1.9-1,2.5s-1.6,0.9-2.9,0.9h-0.9v3.6h-2.1v-10h3.2c1.2,0,2.1,0.3,2.8,0.8
				C121.3,509.4,121.7,510.2,121.7,511.2z M116.9,512.8h0.7c0.7,0,1.1-0.1,1.5-0.4c0.3-0.3,0.5-0.6,0.5-1.1c0-0.5-0.1-0.9-0.4-1.1
				s-0.7-0.4-1.3-0.4h-1V512.8z"/>
			<path class="st1" d="M125.7,514.3v3.8h-2.1v-10h2.9c1.4,0,2.4,0.2,3,0.7c0.7,0.5,1,1.2,1,2.3c0,0.6-0.2,1.1-0.5,1.6
				c-0.3,0.5-0.8,0.8-1.4,1.1c1.5,2.2,2.5,3.7,2.9,4.4h-2.4l-2.4-3.8H125.7z M125.7,512.6h0.7c0.7,0,1.2-0.1,1.5-0.3
				s0.5-0.6,0.5-1.1c0-0.5-0.2-0.8-0.5-1s-0.8-0.3-1.5-0.3h-0.6V512.6z"/>
			<path class="st1" d="M138.5,518.1h-5.8v-10h5.8v1.7h-3.6v2.2h3.4v1.7h-3.4v2.6h3.6V518.1z"/>
			<path class="st1" d="M144.9,518.1l-2.4-7.8h-0.1c0.1,1.6,0.1,2.7,0.1,3.2v4.6h-1.9v-10h2.9l2.4,7.6h0l2.5-7.6h2.9v10h-2v-4.7
				c0-0.2,0-0.5,0-0.8s0-1.1,0.1-2.3h-0.1l-2.6,7.8H144.9z"/>
			<path class="st1" d="M153.8,518.1v-10h2.1v10H153.8z"/>
			<path class="st1" d="M164.4,515.3c0,0.9-0.3,1.6-1,2.1s-1.6,0.8-2.7,0.8c-1.1,0-2-0.2-2.8-0.6v-2c0.7,0.3,1.2,0.5,1.7,0.6
				s0.9,0.2,1.3,0.2c0.5,0,0.8-0.1,1.1-0.3s0.4-0.4,0.4-0.8c0-0.2-0.1-0.4-0.2-0.5c-0.1-0.2-0.3-0.3-0.5-0.4s-0.6-0.4-1.3-0.7
				c-0.6-0.3-1.1-0.6-1.4-0.8s-0.5-0.6-0.7-0.9s-0.3-0.8-0.3-1.2c0-0.9,0.3-1.6,0.9-2.1s1.4-0.8,2.5-0.8c0.5,0,1,0.1,1.5,0.2
				s1,0.3,1.5,0.5l-0.7,1.6c-0.5-0.2-1-0.4-1.3-0.5s-0.7-0.1-1-0.1c-0.4,0-0.7,0.1-0.9,0.3s-0.3,0.4-0.3,0.7c0,0.2,0,0.3,0.1,0.5
				c0.1,0.1,0.2,0.3,0.4,0.4c0.2,0.1,0.6,0.4,1.3,0.7c0.9,0.4,1.6,0.9,1.9,1.3C164.2,514.1,164.4,514.7,164.4,515.3z"/>
			<path class="st1" d="M171.9,518.1h-5.8v-10h5.8v1.7h-3.6v2.2h3.4v1.7h-3.4v2.6h3.6V518.1z"/>
			<path class="st1" d="M179.9,515.3c0,0.9-0.3,1.6-1,2.1s-1.6,0.8-2.7,0.8c-1.1,0-2-0.2-2.8-0.6v-2c0.7,0.3,1.2,0.5,1.7,0.6
				s0.9,0.2,1.3,0.2c0.5,0,0.8-0.1,1.1-0.3s0.4-0.4,0.4-0.8c0-0.2-0.1-0.4-0.2-0.5c-0.1-0.2-0.3-0.3-0.5-0.4s-0.6-0.4-1.3-0.7
				c-0.6-0.3-1.1-0.6-1.4-0.8s-0.5-0.6-0.7-0.9s-0.3-0.8-0.3-1.2c0-0.9,0.3-1.6,0.9-2.1s1.4-0.8,2.5-0.8c0.5,0,1,0.1,1.5,0.2
				s1,0.3,1.5,0.5l-0.7,1.6c-0.5-0.2-1-0.4-1.3-0.5s-0.7-0.1-1-0.1c-0.4,0-0.7,0.1-0.9,0.3s-0.3,0.4-0.3,0.7c0,0.2,0,0.3,0.1,0.5
				c0.1,0.1,0.2,0.3,0.4,0.4c0.2,0.1,0.6,0.4,1.3,0.7c0.9,0.4,1.6,0.9,1.9,1.3C179.7,514.1,179.9,514.7,179.9,515.3z"/>
		</g>
		<g class="st5">
			<path class="st1" d="M331,513.1c0,1.7-0.4,2.9-1.2,3.8s-2,1.3-3.5,1.3s-2.7-0.4-3.5-1.3s-1.2-2.2-1.2-3.8s0.4-2.9,1.2-3.8
				c0.8-0.9,2-1.3,3.5-1.3s2.7,0.4,3.5,1.3S331,511.4,331,513.1z M323.7,513.1c0,1.1,0.2,2,0.6,2.5s1.1,0.8,1.9,0.8
				c1.7,0,2.5-1.1,2.5-3.4c0-2.3-0.8-3.4-2.5-3.4c-0.8,0-1.5,0.3-1.9,0.9C323.9,511.1,323.7,512,323.7,513.1z"/>
			<path class="st1" d="M341.9,518.1h-2.7l-4.3-7.6h-0.1c0.1,1.3,0.1,2.3,0.1,2.9v4.7H333v-10h2.7l4.3,7.5h0
				c-0.1-1.3-0.1-2.2-0.1-2.8v-4.7h1.9V518.1z"/>
			<path class="st1" d="M343.6,515.2v-1.7h3.7v1.7H343.6z"/>
			<path class="st1" d="M355.8,511.2c0,1.1-0.3,1.9-1,2.5s-1.6,0.9-2.9,0.9H351v3.6h-2.1v-10h3.2c1.2,0,2.1,0.3,2.8,0.8
				C355.5,509.4,355.8,510.2,355.8,511.2z M351,512.8h0.7c0.7,0,1.1-0.1,1.5-0.4c0.3-0.3,0.5-0.6,0.5-1.1c0-0.5-0.1-0.9-0.4-1.1
				s-0.7-0.4-1.3-0.4h-1V512.8z"/>
			<path class="st1" d="M359.8,514.3v3.8h-2.1v-10h2.9c1.4,0,2.4,0.2,3,0.7c0.7,0.5,1,1.2,1,2.3c0,0.6-0.2,1.1-0.5,1.6
				c-0.3,0.5-0.8,0.8-1.4,1.1c1.5,2.2,2.5,3.7,2.9,4.4h-2.4l-2.4-3.8H359.8z M359.8,512.6h0.7c0.7,0,1.2-0.1,1.5-0.3
				s0.5-0.6,0.5-1.1c0-0.5-0.2-0.8-0.5-1s-0.8-0.3-1.5-0.3h-0.6V512.6z"/>
			<path class="st1" d="M372.7,518.1H367v-10h5.8v1.7h-3.6v2.2h3.4v1.7h-3.4v2.6h3.6V518.1z"/>
			<path class="st1" d="M379,518.1l-2.4-7.8h-0.1c0.1,1.6,0.1,2.7,0.1,3.2v4.6h-1.9v-10h2.9l2.4,7.6h0l2.5-7.6h2.9v10h-2v-4.7
				c0-0.2,0-0.5,0-0.8s0-1.1,0.1-2.3h-0.1l-2.6,7.8H379z"/>
			<path class="st1" d="M388,518.1v-10h2.1v10H388z"/>
			<path class="st1" d="M398.5,515.3c0,0.9-0.3,1.6-1,2.1s-1.6,0.8-2.7,0.8c-1.1,0-2-0.2-2.8-0.6v-2c0.7,0.3,1.2,0.5,1.7,0.6
				s0.9,0.2,1.3,0.2c0.5,0,0.8-0.1,1.1-0.3s0.4-0.4,0.4-0.8c0-0.2-0.1-0.4-0.2-0.5c-0.1-0.2-0.3-0.3-0.5-0.4s-0.6-0.4-1.3-0.7
				c-0.6-0.3-1.1-0.6-1.4-0.8s-0.5-0.6-0.7-0.9s-0.3-0.8-0.3-1.2c0-0.9,0.3-1.6,0.9-2.1s1.4-0.8,2.5-0.8c0.5,0,1,0.1,1.5,0.2
				s1,0.3,1.5,0.5l-0.7,1.6c-0.5-0.2-1-0.4-1.3-0.5s-0.7-0.1-1-0.1c-0.4,0-0.7,0.1-0.9,0.3s-0.3,0.4-0.3,0.7c0,0.2,0,0.3,0.1,0.5
				c0.1,0.1,0.2,0.3,0.4,0.4c0.2,0.1,0.6,0.4,1.3,0.7c0.9,0.4,1.6,0.9,1.9,1.3C398.4,514.1,398.5,514.7,398.5,515.3z"/>
			<path class="st1" d="M406.1,518.1h-5.8v-10h5.8v1.7h-3.6v2.2h3.4v1.7h-3.4v2.6h3.6V518.1z"/>
			<path class="st1" d="M414.1,515.3c0,0.9-0.3,1.6-1,2.1s-1.6,0.8-2.7,0.8c-1.1,0-2-0.2-2.8-0.6v-2c0.7,0.3,1.2,0.5,1.7,0.6
				c0.5,0.1,0.9,0.2,1.3,0.2c0.5,0,0.8-0.1,1.1-0.3c0.2-0.2,0.4-0.4,0.4-0.8c0-0.2-0.1-0.4-0.2-0.5c-0.1-0.2-0.3-0.3-0.5-0.4
				s-0.6-0.4-1.3-0.7c-0.6-0.3-1.1-0.6-1.4-0.8c-0.3-0.3-0.5-0.6-0.7-0.9c-0.2-0.4-0.3-0.8-0.3-1.2c0-0.9,0.3-1.6,0.9-2.1
				c0.6-0.5,1.4-0.8,2.5-0.8c0.5,0,1,0.1,1.5,0.2s1,0.3,1.5,0.5l-0.7,1.6c-0.5-0.2-1-0.4-1.3-0.5s-0.7-0.1-1-0.1
				c-0.4,0-0.7,0.1-0.9,0.3c-0.2,0.2-0.3,0.4-0.3,0.7c0,0.2,0,0.3,0.1,0.5c0.1,0.1,0.2,0.3,0.4,0.4c0.2,0.1,0.6,0.4,1.3,0.7
				c0.9,0.4,1.6,0.9,1.9,1.3C413.9,514.1,414.1,514.7,414.1,515.3z"/>
			<path class="st1" d="M421.5,513.9h-2.6v-1.5h2.6v-2.7h1.5v2.7h2.6v1.5H423v2.6h-1.5V513.9z"/>
			<path class="st1" d="M435.4,509.7c-0.8,0-1.4,0.3-1.9,0.9c-0.4,0.6-0.7,1.4-0.7,2.5c0,2.2,0.8,3.3,2.5,3.3c0.7,0,1.6-0.2,2.5-0.5
				v1.8c-0.8,0.3-1.7,0.5-2.7,0.5c-1.5,0-2.6-0.4-3.3-1.3c-0.8-0.9-1.2-2.1-1.2-3.8c0-1,0.2-1.9,0.6-2.7c0.4-0.8,0.9-1.4,1.6-1.8
				c0.7-0.4,1.5-0.6,2.5-0.6c1,0,1.9,0.2,2.9,0.7l-0.7,1.7c-0.4-0.2-0.7-0.3-1.1-0.5C436.1,509.8,435.8,509.7,435.4,509.7z"/>
			<path class="st1" d="M440.1,518.1v-10h2.1v8.2h4.1v1.8H440.1z"/>
			<path class="st1" d="M457.1,513.1c0,1.7-0.4,2.9-1.2,3.8s-2,1.3-3.5,1.3s-2.7-0.4-3.5-1.3s-1.2-2.2-1.2-3.8s0.4-2.9,1.2-3.8
				c0.8-0.9,2-1.3,3.5-1.3c1.5,0,2.7,0.4,3.5,1.3S457.1,511.4,457.1,513.1z M449.8,513.1c0,1.1,0.2,2,0.6,2.5s1.1,0.8,1.9,0.8
				c1.7,0,2.5-1.1,2.5-3.4c0-2.3-0.8-3.4-2.5-3.4c-0.8,0-1.5,0.3-1.9,0.9C450,511.1,449.8,512,449.8,513.1z"/>
			<path class="st1" d="M467.3,508.1v6.5c0,0.7-0.2,1.4-0.5,1.9c-0.3,0.6-0.8,1-1.4,1.3c-0.6,0.3-1.4,0.4-2.2,0.4
				c-1.3,0-2.3-0.3-3-1c-0.7-0.7-1.1-1.6-1.1-2.7v-6.4h2.1v6.1c0,0.8,0.2,1.3,0.5,1.7c0.3,0.4,0.8,0.5,1.5,0.5
				c0.7,0,1.2-0.2,1.5-0.5c0.3-0.4,0.5-0.9,0.5-1.7v-6.1H467.3z"/>
			<path class="st1" d="M478,513c0,1.6-0.5,2.9-1.4,3.8c-0.9,0.9-2.3,1.3-4.1,1.3h-2.8v-10h3.1c1.6,0,2.9,0.4,3.8,1.3
				S478,511.5,478,513z M475.8,513.1c0-2.1-0.9-3.2-2.8-3.2h-1.1v6.5h0.9C474.8,516.4,475.8,515.3,475.8,513.1z"/>
		</g>
		<g class="st5">
			<path class="st1" d="M592.2,511.2c0,1.1-0.3,1.9-1,2.5c-0.7,0.6-1.6,0.9-2.9,0.9h-0.9v3.6h-2.1v-10h3.2c1.2,0,2.1,0.3,2.8,0.8
				C591.9,509.4,592.2,510.2,592.2,511.2z M587.5,512.8h0.7c0.7,0,1.1-0.1,1.5-0.4c0.3-0.3,0.5-0.6,0.5-1.1c0-0.5-0.1-0.9-0.4-1.1
				c-0.3-0.2-0.7-0.4-1.3-0.4h-1V512.8z"/>
			<path class="st1" d="M602.3,508.1v6.5c0,0.7-0.2,1.4-0.5,1.9c-0.3,0.6-0.8,1-1.4,1.3s-1.4,0.4-2.2,0.4c-1.3,0-2.3-0.3-3-1
				c-0.7-0.7-1.1-1.6-1.1-2.7v-6.4h2.1v6.1c0,0.8,0.2,1.3,0.5,1.7s0.8,0.5,1.5,0.5c0.7,0,1.2-0.2,1.5-0.5c0.3-0.4,0.5-0.9,0.5-1.7
				v-6.1H602.3z"/>
			<path class="st1" d="M604.7,508.1h3.1c1.4,0,2.4,0.2,3.1,0.6c0.6,0.4,1,1,1,1.9c0,0.6-0.1,1.1-0.4,1.5c-0.3,0.4-0.7,0.6-1.1,0.7
				v0.1c0.6,0.1,1.1,0.4,1.4,0.8c0.3,0.4,0.4,0.9,0.4,1.5c0,0.9-0.3,1.6-1,2.1c-0.7,0.5-1.6,0.8-2.7,0.8h-3.7V508.1z M606.8,512.1
				h1.2c0.6,0,1-0.1,1.2-0.3c0.3-0.2,0.4-0.5,0.4-0.9c0-0.4-0.1-0.7-0.4-0.8c-0.3-0.2-0.7-0.2-1.3-0.2h-1.1V512.1z M606.8,513.8v2.6
				h1.4c0.6,0,1-0.1,1.3-0.3s0.4-0.6,0.4-1c0-0.8-0.6-1.2-1.8-1.2H606.8z"/>
			<path class="st1" d="M614.1,518.1v-10h2.1v8.2h4.1v1.8H614.1z"/>
			<path class="st1" d="M622,518.1v-10h2.1v10H622z"/>
			<path class="st1" d="M630.9,509.7c-0.8,0-1.4,0.3-1.9,0.9c-0.4,0.6-0.7,1.4-0.7,2.5c0,2.2,0.8,3.3,2.5,3.3c0.7,0,1.6-0.2,2.5-0.5
				v1.8c-0.8,0.3-1.7,0.5-2.7,0.5c-1.5,0-2.6-0.4-3.3-1.3c-0.8-0.9-1.2-2.1-1.2-3.8c0-1,0.2-1.9,0.6-2.7c0.4-0.8,0.9-1.4,1.6-1.8
				c0.7-0.4,1.5-0.6,2.5-0.6c1,0,1.9,0.2,2.9,0.7l-0.7,1.7c-0.4-0.2-0.8-0.3-1.1-0.5S631.3,509.7,630.9,509.7z"/>
			<path class="st1" d="M648.3,513.1c0,1.7-0.4,2.9-1.2,3.8s-2,1.3-3.5,1.3s-2.7-0.4-3.5-1.3s-1.2-2.2-1.2-3.8s0.4-2.9,1.2-3.8
				c0.8-0.9,2-1.3,3.5-1.3s2.7,0.4,3.5,1.3C647.9,510.2,648.3,511.4,648.3,513.1z M641,513.1c0,1.1,0.2,2,0.6,2.5s1.1,0.8,1.9,0.8
				c1.7,0,2.5-1.1,2.5-3.4c0-2.3-0.8-3.4-2.5-3.4c-0.8,0-1.5,0.3-1.9,0.9C641.2,511.1,641,512,641,513.1z"/>
			<path class="st1" d="M652.5,514.3v3.8h-2.1v-10h2.9c1.4,0,2.4,0.2,3,0.7c0.7,0.5,1,1.2,1,2.3c0,0.6-0.2,1.1-0.5,1.6
				c-0.3,0.5-0.8,0.8-1.4,1.1c1.5,2.2,2.5,3.7,2.9,4.4H656l-2.4-3.8H652.5z M652.5,512.6h0.7c0.7,0,1.2-0.1,1.5-0.3s0.5-0.6,0.5-1.1
				c0-0.5-0.2-0.8-0.5-1c-0.3-0.2-0.8-0.3-1.5-0.3h-0.6V512.6z"/>
			<path class="st1" d="M670.1,511.2c0,1.1-0.3,1.9-1,2.5c-0.7,0.6-1.6,0.9-2.9,0.9h-0.9v3.6h-2.1v-10h3.2c1.2,0,2.1,0.3,2.8,0.8
				C669.8,509.4,670.1,510.2,670.1,511.2z M665.4,512.8h0.7c0.7,0,1.1-0.1,1.5-0.4c0.3-0.3,0.5-0.6,0.5-1.1c0-0.5-0.1-0.9-0.4-1.1
				c-0.3-0.2-0.7-0.4-1.3-0.4h-1V512.8z"/>
			<path class="st1" d="M674.2,514.3v3.8H672v-10h2.9c1.4,0,2.4,0.2,3,0.7c0.7,0.5,1,1.2,1,2.3c0,0.6-0.2,1.1-0.5,1.6
				c-0.3,0.5-0.8,0.8-1.4,1.1c1.5,2.2,2.5,3.7,2.9,4.4h-2.4l-2.4-3.8H674.2z M674.2,512.6h0.7c0.7,0,1.2-0.1,1.5-0.3
				s0.5-0.6,0.5-1.1c0-0.5-0.2-0.8-0.5-1c-0.3-0.2-0.8-0.3-1.5-0.3h-0.6V512.6z"/>
			<path class="st1" d="M681.3,518.1v-10h2.1v10H681.3z"/>
			<path class="st1" d="M691.6,508.1h2.1l-3.4,10H688l-3.4-10h2.1l1.9,5.9c0.1,0.4,0.2,0.8,0.3,1.2c0.1,0.5,0.2,0.8,0.2,1
				c0.1-0.4,0.2-1.2,0.5-2.2L691.6,508.1z"/>
			<path class="st1" d="M701.1,518.1l-0.7-2.4h-3.6l-0.7,2.4h-2.3l3.5-10h2.6l3.5,10H701.1z M699.9,514c-0.7-2.2-1-3.4-1.1-3.7
				c-0.1-0.3-0.1-0.5-0.2-0.7c-0.2,0.6-0.6,2-1.3,4.3H699.9z"/>
			<path class="st1" d="M708.5,518.1h-2.1v-8.2h-2.7v-1.8h7.5v1.8h-2.7V518.1z"/>
			<path class="st1" d="M718.5,518.1h-5.8v-10h5.8v1.7h-3.6v2.2h3.4v1.7h-3.4v2.6h3.6V518.1z"/>
			<path class="st1" d="M728.5,509.7c-0.8,0-1.4,0.3-1.9,0.9c-0.4,0.6-0.7,1.4-0.7,2.5c0,2.2,0.8,3.3,2.5,3.3c0.7,0,1.6-0.2,2.5-0.5
				v1.8c-0.8,0.3-1.7,0.5-2.7,0.5c-1.5,0-2.6-0.4-3.3-1.3c-0.8-0.9-1.2-2.1-1.2-3.8c0-1,0.2-1.9,0.6-2.7c0.4-0.8,0.9-1.4,1.6-1.8
				c0.7-0.4,1.5-0.6,2.5-0.6c1,0,1.9,0.2,2.9,0.7l-0.7,1.7c-0.4-0.2-0.8-0.3-1.1-0.5S728.9,509.7,728.5,509.7z"/>
			<path class="st1" d="M733.2,518.1v-10h2.1v8.2h4.1v1.8H733.2z"/>
			<path class="st1" d="M750.2,513.1c0,1.7-0.4,2.9-1.2,3.8s-2,1.3-3.5,1.3s-2.7-0.4-3.5-1.3s-1.2-2.2-1.2-3.8s0.4-2.9,1.2-3.8
				c0.8-0.9,2-1.3,3.5-1.3s2.7,0.4,3.5,1.3C749.7,510.2,750.2,511.4,750.2,513.1z M742.9,513.1c0,1.1,0.2,2,0.6,2.5s1.1,0.8,1.9,0.8
				c1.7,0,2.5-1.1,2.5-3.4c0-2.3-0.8-3.4-2.5-3.4c-0.8,0-1.5,0.3-1.9,0.9C743.1,511.1,742.9,512,742.9,513.1z"/>
			<path class="st1" d="M760.4,508.1v6.5c0,0.7-0.2,1.4-0.5,1.9c-0.3,0.6-0.8,1-1.4,1.3s-1.4,0.4-2.2,0.4c-1.3,0-2.3-0.3-3-1
				c-0.7-0.7-1.1-1.6-1.1-2.7v-6.4h2.1v6.1c0,0.8,0.2,1.3,0.5,1.7s0.8,0.5,1.5,0.5c0.7,0,1.2-0.2,1.5-0.5c0.3-0.4,0.5-0.9,0.5-1.7
				v-6.1H760.4z"/>
			<path class="st1" d="M771.1,513c0,1.6-0.5,2.9-1.4,3.8c-0.9,0.9-2.3,1.3-4.1,1.3h-2.8v-10h3.1c1.6,0,2.9,0.4,3.8,1.3
				S771.1,511.5,771.1,513z M768.9,513.1c0-2.1-0.9-3.2-2.8-3.2h-1.1v6.5h0.9C767.9,516.4,768.9,515.3,768.9,513.1z"/>
		</g>
		<g class="st5">
			<path class="st6" d="M83.9,491.5c0,2.5-0.7,4.4-2.1,5.7c-1.4,1.3-3.4,2-6.1,2h-4.2v-15h4.7c2.4,0,4.3,0.6,5.7,1.9
				C83.2,487.4,83.9,489.2,83.9,491.5z M80.6,491.6c0-3.2-1.4-4.8-4.3-4.8h-1.7v9.8H76C79,496.6,80.6,494.9,80.6,491.6z"/>
			<path class="st6" d="M94,499.2l-0.6-1.6h-0.1c-0.5,0.7-1.1,1.1-1.6,1.4c-0.6,0.3-1.3,0.4-2.2,0.4c-1.1,0-2-0.3-2.6-0.9
				s-0.9-1.5-0.9-2.7c0-1.2,0.4-2.1,1.3-2.7c0.9-0.6,2.1-0.9,3.9-1l2-0.1v-0.5c0-1.2-0.6-1.7-1.8-1.7c-0.9,0-2,0.3-3.2,0.8l-1-2.1
				c1.3-0.7,2.8-1,4.4-1c1.5,0,2.7,0.3,3.5,1c0.8,0.7,1.2,1.7,1.2,3.1v7.6H94z M93.1,493.9l-1.2,0c-0.9,0-1.6,0.2-2,0.5
				s-0.7,0.8-0.7,1.4c0,0.9,0.5,1.3,1.5,1.3c0.7,0,1.3-0.2,1.7-0.6s0.7-1,0.7-1.7V493.9z"/>
			<path class="st6" d="M104.2,496.9c0.5,0,1.2-0.1,2-0.4v2.3c-0.8,0.3-1.7,0.5-2.9,0.5c-1.3,0-2.2-0.3-2.7-0.9
				c-0.6-0.6-0.9-1.6-0.9-2.8v-5.5h-1.5v-1.3l1.7-1l0.9-2.4h2v2.4h3.2v2.3h-3.2v5.5c0,0.4,0.1,0.8,0.4,1S103.8,496.9,104.2,496.9z"
				/>
			<path class="st6" d="M115.8,499.2l-0.6-1.6h-0.1c-0.5,0.7-1.1,1.1-1.6,1.4c-0.6,0.3-1.3,0.4-2.2,0.4c-1.1,0-2-0.3-2.6-0.9
				s-0.9-1.5-0.9-2.7c0-1.2,0.4-2.1,1.3-2.7c0.9-0.6,2.1-0.9,3.9-1l2-0.1v-0.5c0-1.2-0.6-1.7-1.8-1.7c-0.9,0-2,0.3-3.2,0.8l-1-2.1
				c1.3-0.7,2.8-1,4.4-1c1.5,0,2.7,0.3,3.5,1c0.8,0.7,1.2,1.7,1.2,3.1v7.6H115.8z M114.9,493.9l-1.2,0c-0.9,0-1.6,0.2-2,0.5
				s-0.7,0.8-0.7,1.4c0,0.9,0.5,1.3,1.5,1.3c0.7,0,1.3-0.2,1.7-0.6s0.7-1,0.7-1.7V493.9z"/>
			<path class="st6" d="M133.3,486.6c-1.2,0-2.1,0.4-2.8,1.3c-0.7,0.9-1,2.2-1,3.8c0,3.3,1.3,5,3.8,5c1.1,0,2.3-0.3,3.8-0.8v2.7
				c-1.2,0.5-2.6,0.8-4.1,0.8c-2.2,0-3.8-0.7-5-2c-1.2-1.3-1.7-3.2-1.7-5.7c0-1.6,0.3-2.9,0.9-4.1c0.6-1.2,1.4-2.1,2.4-2.7
				c1.1-0.6,2.3-0.9,3.7-0.9c1.5,0,2.9,0.4,4.4,1.1l-1,2.6c-0.6-0.3-1.1-0.5-1.7-0.7S133.8,486.6,133.3,486.6z"/>
			<path class="st6" d="M145.2,499.4c-1.8,0-3.3-0.5-4.3-1.5s-1.6-2.5-1.6-4.3c0-1.9,0.5-3.4,1.4-4.5c1-1,2.3-1.6,4-1.6
				c1.6,0,2.9,0.5,3.8,1.4s1.4,2.2,1.4,3.8v1.5h-7.4c0,0.9,0.3,1.6,0.8,2.1s1.2,0.7,2.1,0.7c0.7,0,1.3-0.1,2-0.2s1.3-0.4,1.9-0.7
				v2.4c-0.5,0.3-1.1,0.5-1.8,0.6C146.9,499.3,146.1,499.4,145.2,499.4z M144.8,489.7c-0.7,0-1.2,0.2-1.6,0.6
				c-0.4,0.4-0.6,1-0.6,1.8h4.4c0-0.8-0.2-1.4-0.6-1.8C146,489.9,145.4,489.7,144.8,489.7z"/>
			<path class="st6" d="M163,499.2h-3.1v-6.7c0-0.8-0.1-1.4-0.4-1.9c-0.3-0.4-0.8-0.6-1.4-0.6c-0.9,0-1.5,0.3-1.9,0.9
				c-0.4,0.6-0.6,1.6-0.6,2.9v5.4h-3.1v-11.5h2.4l0.4,1.5h0.2c0.3-0.6,0.8-1,1.4-1.3c0.6-0.3,1.3-0.4,2.1-0.4c1.3,0,2.3,0.4,3,1.1
				c0.7,0.7,1,1.8,1,3.1V499.2z"/>
			<path class="st6" d="M171.1,496.9c0.5,0,1.2-0.1,2-0.4v2.3c-0.8,0.3-1.7,0.5-2.9,0.5c-1.3,0-2.2-0.3-2.7-0.9
				c-0.6-0.6-0.9-1.6-0.9-2.8v-5.5h-1.5v-1.3l1.7-1l0.9-2.4h2v2.4h3.2v2.3h-3.2v5.5c0,0.4,0.1,0.8,0.4,1S170.7,496.9,171.1,496.9z"
				/>
			<path class="st6" d="M180.5,499.4c-1.8,0-3.3-0.5-4.3-1.5s-1.6-2.5-1.6-4.3c0-1.9,0.5-3.4,1.4-4.5c1-1,2.3-1.6,4-1.6
				c1.6,0,2.9,0.5,3.8,1.4s1.4,2.2,1.4,3.8v1.5h-7.4c0,0.9,0.3,1.6,0.8,2.1s1.2,0.7,2.1,0.7c0.7,0,1.3-0.1,2-0.2s1.3-0.4,1.9-0.7
				v2.4c-0.5,0.3-1.1,0.5-1.8,0.6C182.2,499.3,181.4,499.4,180.5,499.4z M180.1,489.7c-0.7,0-1.2,0.2-1.6,0.6
				c-0.4,0.4-0.6,1-0.6,1.8h4.4c0-0.8-0.2-1.4-0.6-1.8C181.3,489.9,180.8,489.7,180.1,489.7z"/>
			<path class="st6" d="M194.2,487.5c0.4,0,0.8,0,1.1,0.1l-0.2,2.9c-0.3-0.1-0.6-0.1-0.9-0.1c-1,0-1.8,0.3-2.3,0.8
				c-0.6,0.5-0.8,1.2-0.8,2.2v5.8h-3.1v-11.5h2.4l0.5,1.9h0.2c0.4-0.6,0.8-1.2,1.4-1.6C192.8,487.7,193.5,487.5,194.2,487.5z"/>
		</g>
		<g class="st5">
			<path class="st6" d="M377.4,499.2h-3.2v-6.5h-5.9v6.5h-3.2v-15h3.2v5.9h5.9v-5.9h3.2V499.2z"/>
			<path class="st6" d="M379.3,487.7h3.4l2.2,6.5c0.2,0.6,0.3,1.2,0.4,2h0.1c0.1-0.7,0.2-1.4,0.4-2l2.1-6.5h3.4l-4.9,12.9
				c-0.4,1.2-1.1,2.1-1.9,2.7c-0.8,0.6-1.8,0.9-2.9,0.9c-0.5,0-1.1-0.1-1.6-0.2v-2.5c0.4,0.1,0.8,0.1,1.2,0.1c0.6,0,1-0.2,1.5-0.5
				c0.4-0.3,0.7-0.8,1-1.5l0.2-0.6L379.3,487.7z"/>
			<path class="st6" d="M399.2,487.5c1.4,0,2.4,0.5,3.2,1.6c0.8,1.1,1.1,2.5,1.1,4.3c0,1.9-0.4,3.4-1.2,4.4c-0.8,1-1.9,1.6-3.2,1.6
				c-1.3,0-2.4-0.5-3.2-1.5h-0.2l-0.5,1.3h-2.4v-16h3.1v3.7c0,0.5,0,1.2-0.1,2.3h0.1C396.7,488.1,397.8,487.5,399.2,487.5z
				 M398.2,490c-0.8,0-1.3,0.2-1.7,0.7c-0.4,0.5-0.5,1.3-0.6,2.4v0.3c0,1.2,0.2,2.1,0.5,2.6s0.9,0.8,1.7,0.8c0.6,0,1.2-0.3,1.5-0.9
				c0.4-0.6,0.6-1.5,0.6-2.6c0-1.1-0.2-2-0.6-2.5C399.4,490.3,398.9,490,398.2,490z"/>
			<path class="st6" d="M412.6,487.5c0.4,0,0.8,0,1.1,0.1l-0.2,2.9c-0.3-0.1-0.6-0.1-0.9-0.1c-1,0-1.8,0.3-2.3,0.8
				c-0.6,0.5-0.8,1.2-0.8,2.2v5.8h-3.1v-11.5h2.4l0.5,1.9h0.2c0.4-0.6,0.8-1.2,1.4-1.6C411.2,487.7,411.8,487.5,412.6,487.5z"/>
			<path class="st6" d="M415.6,484.8c0-1,0.6-1.5,1.7-1.5s1.7,0.5,1.7,1.5c0,0.5-0.1,0.9-0.4,1.1c-0.3,0.3-0.7,0.4-1.3,0.4
				C416.1,486.3,415.6,485.8,415.6,484.8z M418.8,499.2h-3.1v-11.5h3.1V499.2z"/>
			<path class="st6" d="M425.7,499.4c-1.3,0-2.4-0.5-3.2-1.6c-0.8-1-1.2-2.5-1.2-4.3c0-1.9,0.4-3.3,1.2-4.4c0.8-1,1.9-1.6,3.2-1.6
				c1.4,0,2.5,0.6,3.3,1.7h0.1c-0.2-0.9-0.2-1.6-0.2-2.3v-3.7h3.1v16h-2.4l-0.6-1.5H429C428.3,498.8,427.2,499.4,425.7,499.4z
				 M426.8,496.9c0.8,0,1.4-0.2,1.8-0.7c0.4-0.5,0.6-1.3,0.6-2.4v-0.3c0-1.2-0.2-2.1-0.6-2.6c-0.4-0.5-1-0.8-1.9-0.8
				c-0.7,0-1.2,0.3-1.6,0.9c-0.4,0.6-0.6,1.5-0.6,2.6c0,1.1,0.2,2,0.6,2.5C425.5,496.6,426.1,496.9,426.8,496.9z"/>
		</g>
		<g class="st5">
			<path class="st6" d="M654.2,486.6c-1.2,0-2.1,0.4-2.8,1.3c-0.7,0.9-1,2.2-1,3.8c0,3.3,1.3,5,3.8,5c1.1,0,2.3-0.3,3.8-0.8v2.7
				c-1.2,0.5-2.6,0.8-4.1,0.8c-2.2,0-3.8-0.7-5-2c-1.2-1.3-1.7-3.2-1.7-5.7c0-1.6,0.3-2.9,0.9-4.1c0.6-1.2,1.4-2.1,2.4-2.7
				c1.1-0.6,2.3-0.9,3.7-0.9c1.5,0,2.9,0.4,4.4,1.1l-1,2.6c-0.6-0.3-1.1-0.5-1.7-0.7S654.7,486.6,654.2,486.6z"/>
			<path class="st6" d="M664.1,499.2h-3.1v-16h3.1V499.2z"/>
			<path class="st6" d="M677.8,493.4c0,1.9-0.5,3.3-1.5,4.4s-2.4,1.6-4.1,1.6c-1.1,0-2.1-0.2-2.9-0.7c-0.8-0.5-1.5-1.2-1.9-2.1
				s-0.7-2-0.7-3.2c0-1.9,0.5-3.3,1.5-4.4c1-1,2.4-1.6,4.1-1.6c1.1,0,2.1,0.2,2.9,0.7s1.5,1.2,1.9,2.1S677.8,492.2,677.8,493.4z
				 M669.8,493.4c0,1.1,0.2,2,0.6,2.6c0.4,0.6,1,0.9,1.8,0.9c0.8,0,1.4-0.3,1.8-0.9c0.4-0.6,0.5-1.4,0.5-2.6c0-1.1-0.2-2-0.6-2.6
				s-1-0.9-1.8-0.9c-0.8,0-1.4,0.3-1.8,0.8C670,491.4,669.8,492.3,669.8,493.4z"/>
			<path class="st6" d="M688.5,499.2l-0.4-1.5h-0.2c-0.3,0.5-0.8,0.9-1.4,1.2c-0.6,0.3-1.3,0.4-2.1,0.4c-1.3,0-2.4-0.4-3-1.1
				c-0.7-0.7-1-1.8-1-3.1v-7.5h3.1v6.7c0,0.8,0.1,1.4,0.4,1.9c0.3,0.4,0.8,0.6,1.4,0.6c0.9,0,1.5-0.3,1.9-0.9
				c0.4-0.6,0.6-1.6,0.6-2.9v-5.4h3.1v11.5H688.5z"/>
			<path class="st6" d="M697.8,499.4c-1.3,0-2.4-0.5-3.2-1.6c-0.8-1-1.2-2.5-1.2-4.3c0-1.9,0.4-3.3,1.2-4.4c0.8-1,1.9-1.6,3.2-1.6
				c1.4,0,2.5,0.6,3.3,1.7h0.1c-0.2-0.9-0.2-1.6-0.2-2.3v-3.7h3.1v16h-2.4l-0.6-1.5H701C700.3,498.8,699.2,499.4,697.8,499.4z
				 M698.9,496.9c0.8,0,1.4-0.2,1.8-0.7c0.4-0.5,0.6-1.3,0.6-2.4v-0.3c0-1.2-0.2-2.1-0.6-2.6c-0.4-0.5-1-0.8-1.9-0.8
				c-0.7,0-1.2,0.3-1.6,0.9c-0.4,0.6-0.6,1.5-0.6,2.6c0,1.1,0.2,2,0.6,2.5C697.6,496.6,698.1,496.9,698.9,496.9z"/>
		</g>
		<g class="st5">
			<path class="st6" d="M96.1,51.5c0,1.4-0.5,2.4-1.5,3.2c-1,0.8-2.3,1.2-4.1,1.2c-1.6,0-3-0.3-4.2-0.9v-3c1,0.5,1.9,0.8,2.6,1
				c0.7,0.2,1.3,0.3,1.9,0.3c0.7,0,1.2-0.1,1.6-0.4c0.4-0.3,0.6-0.7,0.6-1.2c0-0.3-0.1-0.6-0.2-0.8c-0.2-0.2-0.4-0.4-0.7-0.7
				c-0.3-0.2-1-0.5-1.9-1c-0.9-0.4-1.6-0.8-2.1-1.2s-0.8-0.9-1.1-1.4c-0.3-0.5-0.4-1.1-0.4-1.8c0-1.3,0.4-2.4,1.3-3.1
				s2.1-1.1,3.7-1.1c0.8,0,1.5,0.1,2.2,0.3c0.7,0.2,1.4,0.4,2.2,0.8L95,44c-0.8-0.3-1.5-0.6-2-0.7c-0.5-0.1-1-0.2-1.5-0.2
				c-0.6,0-1.1,0.1-1.4,0.4s-0.5,0.6-0.5,1.1c0,0.3,0.1,0.5,0.2,0.7c0.1,0.2,0.3,0.4,0.6,0.6c0.3,0.2,1,0.5,2,1.1
				c1.4,0.7,2.4,1.3,2.9,2C95.9,49.7,96.1,50.5,96.1,51.5z"/>
			<path class="st6" d="M109,49.9c0,1.9-0.5,3.3-1.5,4.4s-2.4,1.6-4.1,1.6c-1.1,0-2.1-0.2-2.9-0.7c-0.8-0.5-1.5-1.2-1.9-2.1
				s-0.7-2-0.7-3.2c0-1.9,0.5-3.3,1.5-4.4c1-1,2.4-1.6,4.1-1.6c1.1,0,2.1,0.2,2.9,0.7s1.5,1.2,1.9,2.1S109,48.7,109,49.9z
				 M101.1,49.9c0,1.1,0.2,2,0.6,2.6c0.4,0.6,1,0.9,1.8,0.9c0.8,0,1.4-0.3,1.8-0.9c0.4-0.6,0.5-1.4,0.5-2.6c0-1.1-0.2-2-0.6-2.6
				s-1-0.9-1.8-0.9c-0.8,0-1.4,0.3-1.8,0.8C101.3,47.9,101.1,48.8,101.1,49.9z"/>
			<path class="st6" d="M117.9,46.5h-2.7v9.1h-3.1v-9.1h-1.7V45l1.7-0.8v-0.8c0-1.3,0.3-2.3,1-2.9c0.6-0.6,1.7-0.9,3.1-0.9
				c1.1,0,2,0.2,2.9,0.5l-0.8,2.3c-0.6-0.2-1.2-0.3-1.7-0.3c-0.4,0-0.8,0.1-1,0.4c-0.2,0.3-0.3,0.6-0.3,1v0.7h2.7V46.5z"/>
			<path class="st6" d="M124.6,53.4c0.5,0,1.2-0.1,2-0.4v2.3c-0.8,0.3-1.7,0.5-2.9,0.5c-1.3,0-2.2-0.3-2.7-0.9
				c-0.6-0.6-0.9-1.6-0.9-2.8v-5.5h-1.5v-1.3l1.7-1l0.9-2.4h2v2.4h3.2v2.3h-3.2v5.5c0,0.4,0.1,0.8,0.4,1S124.1,53.4,124.6,53.4z"/>
			<path class="st6" d="M138.3,55.7l-0.9-4l-1.2-5.1h-0.1l-2.1,9.1h-3.4l-3.3-11.5h3.1l1.3,5.1c0.2,0.9,0.4,2.2,0.6,3.8h0.1
				c0-0.5,0.1-1.3,0.4-2.5l0.2-0.9l1.4-5.5h3.4l1.3,5.5c0,0.2,0.1,0.4,0.1,0.7s0.1,0.6,0.2,0.9c0.1,0.3,0.1,0.7,0.1,1
				c0,0.3,0.1,0.6,0.1,0.8h0.1c0.1-0.5,0.2-1.2,0.3-2c0.2-0.9,0.3-1.4,0.3-1.7l1.4-5.1h3.1l-3.3,11.5H138.3z"/>
			<path class="st6" d="M154.1,55.7l-0.6-1.6h-0.1c-0.5,0.7-1.1,1.1-1.6,1.4c-0.6,0.3-1.3,0.4-2.2,0.4c-1.1,0-2-0.3-2.6-0.9
				s-0.9-1.5-0.9-2.7c0-1.2,0.4-2.1,1.3-2.7c0.9-0.6,2.1-0.9,3.9-1l2-0.1V48c0-1.2-0.6-1.7-1.8-1.7c-0.9,0-2,0.3-3.2,0.8l-1-2.1
				c1.3-0.7,2.8-1,4.4-1c1.5,0,2.7,0.3,3.5,1c0.8,0.7,1.2,1.7,1.2,3.1v7.6H154.1z M153.2,50.3l-1.2,0c-0.9,0-1.6,0.2-2,0.5
				s-0.7,0.8-0.7,1.4c0,0.9,0.5,1.3,1.5,1.3c0.7,0,1.3-0.2,1.7-0.6s0.7-1,0.7-1.7V50.3z"/>
			<path class="st6" d="M165.9,44c0.4,0,0.8,0,1.1,0.1l-0.2,2.9c-0.3-0.1-0.6-0.1-0.9-0.1c-1,0-1.8,0.3-2.3,0.8
				c-0.6,0.5-0.8,1.2-0.8,2.2v5.8h-3.1V44.2h2.4l0.5,1.9h0.2c0.4-0.6,0.8-1.2,1.4-1.6C164.5,44.2,165.2,44,165.9,44z"/>
			<path class="st6" d="M174.2,55.9c-1.8,0-3.3-0.5-4.3-1.5s-1.6-2.5-1.6-4.3c0-1.9,0.5-3.4,1.4-4.5c1-1,2.3-1.6,4-1.6
				c1.6,0,2.9,0.5,3.8,1.4s1.4,2.2,1.4,3.8v1.5h-7.4c0,0.9,0.3,1.6,0.8,2.1s1.2,0.7,2.1,0.7c0.7,0,1.3-0.1,2-0.2s1.3-0.4,1.9-0.7
				v2.4c-0.5,0.3-1.1,0.5-1.8,0.6C175.9,55.8,175.1,55.9,174.2,55.9z M173.8,46.2c-0.7,0-1.2,0.2-1.6,0.6c-0.4,0.4-0.6,1-0.6,1.8
				h4.4c0-0.8-0.2-1.4-0.6-1.8C175,46.4,174.5,46.2,173.8,46.2z"/>
		</g>
		<g class="st5">
			<path class="st6" d="M60.1,80.9v-15h3.2v12.4h6.1v2.6H60.1z"/>
			<path class="st6" d="M82.2,75.1c0,1.9-0.5,3.3-1.5,4.4s-2.4,1.6-4.1,1.6c-1.1,0-2.1-0.2-2.9-0.7c-0.8-0.5-1.5-1.2-1.9-2.1
				s-0.7-2-0.7-3.2c0-1.9,0.5-3.3,1.5-4.4c1-1,2.4-1.6,4.1-1.6c1.1,0,2.1,0.2,2.9,0.7s1.5,1.2,1.9,2.1S82.2,73.9,82.2,75.1z
				 M74.2,75.1c0,1.1,0.2,2,0.6,2.6c0.4,0.6,1,0.9,1.8,0.9c0.8,0,1.4-0.3,1.8-0.9c0.4-0.6,0.5-1.4,0.5-2.6c0-1.1-0.2-2-0.6-2.6
				s-1-0.9-1.8-0.9c-0.8,0-1.4,0.3-1.8,0.8C74.4,73.1,74.2,74,74.2,75.1z"/>
			<path class="st6" d="M92,80.9l-0.6-1.6h-0.1c-0.5,0.7-1.1,1.1-1.6,1.4c-0.6,0.3-1.3,0.4-2.2,0.4c-1.1,0-2-0.3-2.6-0.9
				S84,78.6,84,77.4c0-1.2,0.4-2.1,1.3-2.7c0.9-0.6,2.1-0.9,3.9-1l2-0.1v-0.5c0-1.2-0.6-1.7-1.8-1.7c-0.9,0-2,0.3-3.2,0.8l-1-2.1
				c1.3-0.7,2.8-1,4.4-1c1.5,0,2.7,0.3,3.5,1c0.8,0.7,1.2,1.7,1.2,3.1v7.6H92z M91.1,75.5l-1.2,0c-0.9,0-1.6,0.2-2,0.5
				s-0.7,0.8-0.7,1.4c0,0.9,0.5,1.3,1.5,1.3c0.7,0,1.3-0.2,1.7-0.6s0.7-1,0.7-1.7V75.5z"/>
			<path class="st6" d="M101.1,81.1c-1.3,0-2.4-0.5-3.2-1.6c-0.8-1-1.2-2.5-1.2-4.3c0-1.9,0.4-3.3,1.2-4.4c0.8-1,1.9-1.6,3.2-1.6
				c1.4,0,2.5,0.6,3.3,1.7h0.1c-0.2-0.9-0.2-1.6-0.2-2.3v-3.7h3.1v16H105l-0.6-1.5h-0.1C103.6,80.5,102.5,81.1,101.1,81.1z
				 M102.2,78.6c0.8,0,1.4-0.2,1.8-0.7c0.4-0.5,0.6-1.3,0.6-2.4v-0.3c0-1.2-0.2-2.1-0.6-2.6c-0.4-0.5-1-0.8-1.9-0.8
				c-0.7,0-1.2,0.3-1.6,0.9c-0.4,0.6-0.6,1.5-0.6,2.6c0,1.1,0.2,2,0.6,2.5C100.9,78.3,101.4,78.6,102.2,78.6z"/>
			<path class="st6" d="M116.4,65.9h4.7c2.1,0,3.7,0.3,4.6,0.9c1,0.6,1.4,1.6,1.4,2.9c0,0.9-0.2,1.6-0.6,2.2c-0.4,0.6-1,0.9-1.7,1
				V73c1,0.2,1.6,0.6,2.1,1.2c0.4,0.6,0.6,1.4,0.6,2.3c0,1.4-0.5,2.4-1.5,3.2c-1,0.8-2.3,1.1-4,1.1h-5.6V65.9z M119.6,71.8h1.8
				c0.9,0,1.5-0.1,1.9-0.4s0.6-0.7,0.6-1.3c0-0.6-0.2-1-0.6-1.2c-0.4-0.2-1.1-0.4-2-0.4h-1.7V71.8z M119.6,74.3v3.9h2.1
				c0.9,0,1.5-0.2,1.9-0.5s0.6-0.8,0.6-1.5c0-1.2-0.9-1.9-2.7-1.9H119.6z"/>
			<path class="st6" d="M137.6,80.9l-0.6-1.6h-0.1c-0.5,0.7-1.1,1.1-1.6,1.4c-0.6,0.3-1.3,0.4-2.2,0.4c-1.1,0-2-0.3-2.6-0.9
				s-0.9-1.5-0.9-2.7c0-1.2,0.4-2.1,1.3-2.7c0.9-0.6,2.1-0.9,3.9-1l2-0.1v-0.5c0-1.2-0.6-1.7-1.8-1.7c-0.9,0-2,0.3-3.2,0.8l-1-2.1
				c1.3-0.7,2.8-1,4.4-1c1.5,0,2.7,0.3,3.5,1c0.8,0.7,1.2,1.7,1.2,3.1v7.6H137.6z M136.6,75.5l-1.2,0c-0.9,0-1.6,0.2-2,0.5
				s-0.7,0.8-0.7,1.4c0,0.9,0.5,1.3,1.5,1.3c0.7,0,1.3-0.2,1.7-0.6s0.7-1,0.7-1.7V75.5z"/>
			<path class="st6" d="M146.1,80.9H143v-16h3.1V80.9z"/>
			<path class="st6" d="M156.7,80.9l-0.6-1.6H156c-0.5,0.7-1.1,1.1-1.6,1.4c-0.6,0.3-1.3,0.4-2.2,0.4c-1.1,0-2-0.3-2.6-0.9
				s-0.9-1.5-0.9-2.7c0-1.2,0.4-2.1,1.3-2.7c0.9-0.6,2.1-0.9,3.9-1l2-0.1v-0.5c0-1.2-0.6-1.7-1.8-1.7c-0.9,0-2,0.3-3.2,0.8l-1-2.1
				c1.3-0.7,2.8-1,4.4-1c1.5,0,2.7,0.3,3.5,1c0.8,0.7,1.2,1.7,1.2,3.1v7.6H156.7z M155.7,75.5l-1.2,0c-0.9,0-1.6,0.2-2,0.5
				s-0.7,0.8-0.7,1.4c0,0.9,0.5,1.3,1.5,1.3c0.7,0,1.3-0.2,1.7-0.6s0.7-1,0.7-1.7V75.5z"/>
			<path class="st6" d="M172.6,80.9h-3.1v-6.7c0-0.8-0.1-1.4-0.4-1.9c-0.3-0.4-0.8-0.6-1.4-0.6c-0.9,0-1.5,0.3-1.9,0.9
				c-0.4,0.6-0.6,1.6-0.6,2.9v5.4h-3.1V69.4h2.4l0.4,1.5h0.2c0.3-0.6,0.8-1,1.4-1.3c0.6-0.3,1.3-0.4,2.1-0.4c1.3,0,2.3,0.4,3,1.1
				c0.7,0.7,1,1.8,1,3.1V80.9z"/>
			<path class="st6" d="M180.5,81.1c-3.6,0-5.4-2-5.4-5.9c0-1.9,0.5-3.4,1.5-4.5c1-1,2.4-1.5,4.2-1.5c1.3,0,2.5,0.3,3.6,0.8
				l-0.9,2.4c-0.5-0.2-1-0.4-1.4-0.5c-0.4-0.1-0.8-0.2-1.3-0.2c-1.6,0-2.4,1.2-2.4,3.5c0,2.2,0.8,3.4,2.4,3.4c0.6,0,1.2-0.1,1.7-0.2
				c0.5-0.2,1-0.4,1.5-0.8v2.7c-0.5,0.3-1,0.5-1.5,0.7S181.3,81.1,180.5,81.1z"/>
			<path class="st6" d="M191.8,81.1c-1.8,0-3.3-0.5-4.3-1.5s-1.6-2.5-1.6-4.3c0-1.9,0.5-3.4,1.4-4.5c1-1,2.3-1.6,4-1.6
				c1.6,0,2.9,0.5,3.8,1.4s1.4,2.2,1.4,3.8v1.5h-7.4c0,0.9,0.3,1.6,0.8,2.1s1.2,0.7,2.1,0.7c0.7,0,1.3-0.1,2-0.2s1.3-0.4,1.9-0.7
				v2.4c-0.5,0.3-1.1,0.5-1.8,0.6C193.5,81,192.7,81.1,191.8,81.1z M191.4,71.4c-0.7,0-1.2,0.2-1.6,0.6c-0.4,0.4-0.6,1-0.6,1.8h4.4
				c0-0.8-0.2-1.4-0.6-1.8C192.6,71.6,192.1,71.4,191.4,71.4z"/>
			<path class="st6" d="M205.5,69.2c0.4,0,0.8,0,1.1,0.1l-0.2,2.9c-0.3-0.1-0.6-0.1-0.9-0.1c-1,0-1.8,0.3-2.3,0.8
				c-0.6,0.5-0.8,1.2-0.8,2.2v5.8h-3.1V69.4h2.4l0.5,1.9h0.2c0.4-0.6,0.8-1.2,1.4-1.6C204.1,69.4,204.8,69.2,205.5,69.2z"/>
		</g>
		<g class="st5">
			<path class="st6" d="M346,55.7v-15h3.2v15H346z"/>
			<path class="st6" d="M363.3,55.7h-3.1V49c0-0.8-0.1-1.4-0.4-1.9c-0.3-0.4-0.8-0.6-1.4-0.6c-0.9,0-1.5,0.3-1.9,0.9
				c-0.4,0.6-0.6,1.6-0.6,2.9v5.4h-3.1V44.2h2.4l0.4,1.5h0.2c0.3-0.6,0.8-1,1.4-1.3c0.6-0.3,1.3-0.4,2.1-0.4c1.3,0,2.3,0.4,3,1.1
				c0.7,0.7,1,1.8,1,3.1V55.7z"/>
			<path class="st6" d="M371.4,53.4c0.5,0,1.2-0.1,2-0.4v2.3c-0.8,0.3-1.7,0.5-2.9,0.5c-1.3,0-2.2-0.3-2.7-0.9
				c-0.6-0.6-0.9-1.6-0.9-2.8v-5.5h-1.5v-1.3l1.7-1l0.9-2.4h2v2.4h3.2v2.3H370v5.5c0,0.4,0.1,0.8,0.4,1S370.9,53.4,371.4,53.4z"/>
			<path class="st6" d="M380.8,55.9c-1.8,0-3.3-0.5-4.3-1.5s-1.6-2.5-1.6-4.3c0-1.9,0.5-3.4,1.4-4.5c1-1,2.3-1.6,4-1.6
				c1.6,0,2.9,0.5,3.8,1.4s1.4,2.2,1.4,3.8v1.5h-7.4c0,0.9,0.3,1.6,0.8,2.1s1.2,0.7,2.1,0.7c0.7,0,1.3-0.1,2-0.2s1.3-0.4,1.9-0.7
				v2.4c-0.5,0.3-1.1,0.5-1.8,0.6C382.5,55.8,381.7,55.9,380.8,55.9z M380.4,46.2c-0.7,0-1.2,0.2-1.6,0.6c-0.4,0.4-0.6,1-0.6,1.8
				h4.4c0-0.8-0.2-1.4-0.6-1.8C381.6,46.4,381.1,46.2,380.4,46.2z"/>
			<path class="st6" d="M391.2,55.7H388v-16h3.1V55.7z"/>
			<path class="st6" d="M397.6,55.7h-3.1v-16h3.1V55.7z"/>
			<path class="st6" d="M400.7,41.2c0-1,0.6-1.5,1.7-1.5s1.7,0.5,1.7,1.5c0,0.5-0.1,0.9-0.4,1.1c-0.3,0.3-0.7,0.4-1.3,0.4
				C401.3,42.8,400.7,42.3,400.7,41.2z M404,55.7h-3.1V44.2h3.1V55.7z"/>
			<path class="st6" d="M417.3,44.2v1.6l-1.8,0.5c0.3,0.5,0.5,1.1,0.5,1.7c0,1.2-0.4,2.2-1.3,2.9c-0.9,0.7-2,1-3.6,1l-0.6,0
				l-0.5-0.1c-0.3,0.2-0.5,0.5-0.5,0.8c0,0.5,0.6,0.7,1.7,0.7h1.9c1.3,0,2.2,0.3,2.9,0.8c0.7,0.5,1,1.3,1,2.4c0,1.3-0.6,2.4-1.7,3.1
				c-1.1,0.7-2.7,1.1-4.8,1.1c-1.6,0-2.8-0.3-3.7-0.8c-0.8-0.6-1.3-1.3-1.3-2.3c0-0.7,0.2-1.3,0.6-1.7c0.4-0.5,1.1-0.8,1.9-1
				c-0.3-0.1-0.6-0.4-0.8-0.7c-0.2-0.3-0.4-0.6-0.4-1c0-0.4,0.1-0.8,0.4-1.1c0.3-0.3,0.6-0.6,1.1-0.9c-0.6-0.3-1.1-0.7-1.4-1.3
				c-0.4-0.6-0.5-1.3-0.5-2c0-1.3,0.4-2.2,1.2-2.9c0.8-0.7,2-1,3.5-1c0.3,0,0.7,0,1.1,0.1c0.4,0.1,0.7,0.1,0.8,0.1H417.3z
				 M408.4,57.3c0,0.4,0.2,0.8,0.6,1c0.4,0.2,1,0.4,1.7,0.4c1.1,0,2-0.2,2.6-0.5s1-0.7,1-1.3c0-0.4-0.2-0.7-0.6-0.9s-1-0.2-1.7-0.2
				h-1.6c-0.6,0-1.1,0.1-1.4,0.4C408.6,56.5,408.4,56.8,408.4,57.3z M409.5,47.9c0,0.6,0.1,1.1,0.4,1.5c0.3,0.4,0.7,0.5,1.3,0.5
				c0.6,0,1-0.2,1.3-0.5s0.4-0.9,0.4-1.5c0-1.4-0.6-2.1-1.7-2.1C410.1,45.9,409.5,46.6,409.5,47.9z"/>
			<path class="st6" d="M424.3,55.9c-1.8,0-3.3-0.5-4.3-1.5s-1.6-2.5-1.6-4.3c0-1.9,0.5-3.4,1.4-4.5c1-1,2.3-1.6,4-1.6
				c1.6,0,2.9,0.5,3.8,1.4s1.4,2.2,1.4,3.8v1.5h-7.4c0,0.9,0.3,1.6,0.8,2.1s1.2,0.7,2.1,0.7c0.7,0,1.3-0.1,2-0.2s1.3-0.4,1.9-0.7
				v2.4c-0.5,0.3-1.1,0.5-1.8,0.6C426,55.8,425.2,55.9,424.3,55.9z M423.9,46.2c-0.7,0-1.2,0.2-1.6,0.6c-0.4,0.4-0.6,1-0.6,1.8h4.4
				c0-0.8-0.2-1.4-0.6-1.8C425.1,46.4,424.5,46.2,423.9,46.2z"/>
			<path class="st6" d="M442.1,55.7H439V49c0-0.8-0.1-1.4-0.4-1.9c-0.3-0.4-0.8-0.6-1.4-0.6c-0.9,0-1.5,0.3-1.9,0.9
				c-0.4,0.6-0.6,1.6-0.6,2.9v5.4h-3.1V44.2h2.4l0.4,1.5h0.2c0.3-0.6,0.8-1,1.4-1.3c0.6-0.3,1.3-0.4,2.1-0.4c1.3,0,2.3,0.4,3,1.1
				c0.7,0.7,1,1.8,1,3.1V55.7z"/>
			<path class="st6" d="M450.2,53.4c0.5,0,1.2-0.1,2-0.4v2.3c-0.8,0.3-1.7,0.5-2.9,0.5c-1.3,0-2.2-0.3-2.7-0.9
				c-0.6-0.6-0.9-1.6-0.9-2.8v-5.5h-1.5v-1.3l1.7-1l0.9-2.4h2v2.4h3.2v2.3h-3.2v5.5c0,0.4,0.1,0.8,0.4,1
				C449.4,53.3,449.8,53.4,450.2,53.4z"/>
		</g>
		<g class="st5">
			<path class="st6" d="M391.8,80.9h-3.6l-2-7.9c-0.1-0.3-0.2-0.9-0.4-1.7c-0.2-0.9-0.3-1.5-0.3-1.8c0,0.4-0.1,1-0.3,1.8
				c-0.2,0.8-0.3,1.4-0.4,1.7l-2,7.9h-3.6l-3.8-15h3.1l1.9,8.2c0.3,1.5,0.6,2.8,0.7,3.9c0-0.4,0.1-1,0.3-1.8
				c0.1-0.8,0.3-1.5,0.4-1.9l2.2-8.4h3l2.2,8.4c0.1,0.4,0.2,1,0.4,1.7c0.1,0.8,0.3,1.4,0.3,2c0.1-0.5,0.2-1.2,0.3-2
				c0.2-0.8,0.3-1.4,0.4-1.9l1.9-8.2h3.1L391.8,80.9z"/>
			<path class="st6" d="M406.7,80.9l-1.1-3.6h-5.5l-1.1,3.6h-3.4l5.3-15.1h3.9l5.3,15.1H406.7z M404.8,74.6c-1-3.2-1.6-5.1-1.7-5.5
				c-0.1-0.4-0.2-0.8-0.3-1c-0.2,0.9-0.9,3-1.9,6.5H404.8z"/>
			<path class="st6" d="M415.1,80.9H412v-15h8.6v2.6h-5.5v3.9h5.1v2.6h-5.1V80.9z"/>
		</g>
		<g class="st5">
			<path class="st6" d="M641.4,40.7v9.7c0,1.1-0.2,2.1-0.7,2.9c-0.5,0.8-1.2,1.5-2.1,1.9s-2,0.7-3.3,0.7c-1.9,0-3.4-0.5-4.5-1.5
				c-1.1-1-1.6-2.3-1.6-4.1v-9.7h3.2v9.2c0,1.2,0.2,2,0.7,2.5c0.5,0.5,1.2,0.8,2.3,0.8c1,0,1.8-0.3,2.3-0.8c0.5-0.5,0.7-1.4,0.7-2.6
				v-9.2H641.4z"/>
			<path class="st6" d="M655.4,55.7h-3.1V49c0-0.8-0.1-1.4-0.4-1.9c-0.3-0.4-0.8-0.6-1.4-0.6c-0.9,0-1.5,0.3-1.9,0.9
				c-0.4,0.6-0.6,1.6-0.6,2.9v5.4h-3.1V44.2h2.4l0.4,1.5h0.2c0.3-0.6,0.8-1,1.4-1.3c0.6-0.3,1.3-0.4,2.1-0.4c1.3,0,2.3,0.4,3,1.1
				c0.7,0.7,1,1.8,1,3.1V55.7z"/>
			<path class="st6" d="M658.5,41.2c0-1,0.6-1.5,1.7-1.5s1.7,0.5,1.7,1.5c0,0.5-0.1,0.9-0.4,1.1c-0.3,0.3-0.7,0.4-1.3,0.4
				C659,42.8,658.5,42.3,658.5,41.2z M661.7,55.7h-3.1V44.2h3.1V55.7z"/>
			<path class="st6" d="M667.7,55.7l-4.4-11.5h3.3l2.2,6.5c0.2,0.8,0.4,1.6,0.5,2.3h0.1c0-0.7,0.2-1.4,0.5-2.3l2.2-6.5h3.3
				l-4.4,11.5H667.7z"/>
			<path class="st6" d="M682.1,55.9c-1.8,0-3.3-0.5-4.3-1.5s-1.6-2.5-1.6-4.3c0-1.9,0.5-3.4,1.4-4.5c1-1,2.3-1.6,4-1.6
				c1.6,0,2.9,0.5,3.8,1.4s1.4,2.2,1.4,3.8v1.5h-7.4c0,0.9,0.3,1.6,0.8,2.1s1.2,0.7,2.1,0.7c0.7,0,1.3-0.1,2-0.2s1.3-0.4,1.9-0.7
				v2.4c-0.5,0.3-1.1,0.5-1.8,0.6C683.8,55.8,683,55.9,682.1,55.9z M681.7,46.2c-0.7,0-1.2,0.2-1.6,0.6c-0.4,0.4-0.6,1-0.6,1.8h4.4
				c0-0.8-0.2-1.4-0.6-1.8C682.9,46.4,682.4,46.2,681.7,46.2z"/>
			<path class="st6" d="M695.8,44c0.4,0,0.8,0,1.1,0.1l-0.2,2.9c-0.3-0.1-0.6-0.1-0.9-0.1c-1,0-1.8,0.3-2.3,0.8
				c-0.6,0.5-0.8,1.2-0.8,2.2v5.8h-3.1V44.2h2.4l0.5,1.9h0.2c0.4-0.6,0.8-1.2,1.4-1.6C694.4,44.2,695.1,44,695.8,44z"/>
			<path class="st6" d="M706.9,52.3c0,1.2-0.4,2.1-1.2,2.7s-2,0.9-3.7,0.9c-0.8,0-1.5-0.1-2.1-0.2c-0.6-0.1-1.1-0.3-1.7-0.5v-2.6
				c0.6,0.3,1.2,0.5,2,0.7c0.7,0.2,1.4,0.3,1.9,0.3c1.1,0,1.7-0.3,1.7-1c0-0.2-0.1-0.4-0.2-0.6c-0.2-0.2-0.4-0.3-0.8-0.5
				c-0.4-0.2-0.9-0.4-1.5-0.7c-0.9-0.4-1.5-0.7-1.9-1c-0.4-0.3-0.7-0.7-0.9-1.1c-0.2-0.4-0.3-0.9-0.3-1.5c0-1,0.4-1.8,1.2-2.4
				c0.8-0.6,1.9-0.8,3.4-0.8c1.4,0,2.7,0.3,4,0.9l-0.9,2.3c-0.6-0.2-1.1-0.4-1.6-0.6c-0.5-0.2-1-0.2-1.5-0.2c-0.9,0-1.4,0.2-1.4,0.7
				c0,0.3,0.1,0.5,0.4,0.7c0.3,0.2,0.9,0.5,2,0.9c0.9,0.4,1.6,0.7,2,1c0.4,0.3,0.7,0.7,0.9,1.1C706.8,51.2,706.9,51.7,706.9,52.3z"
				/>
			<path class="st6" d="M716.6,55.7l-0.6-1.6h-0.1c-0.5,0.7-1.1,1.1-1.6,1.4c-0.6,0.3-1.3,0.4-2.2,0.4c-1.1,0-2-0.3-2.6-0.9
				s-0.9-1.5-0.9-2.7c0-1.2,0.4-2.1,1.3-2.7c0.9-0.6,2.1-0.9,3.9-1l2-0.1V48c0-1.2-0.6-1.7-1.8-1.7c-0.9,0-2,0.3-3.2,0.8l-1-2.1
				c1.3-0.7,2.8-1,4.4-1c1.5,0,2.7,0.3,3.5,1c0.8,0.7,1.2,1.7,1.2,3.1v7.6H716.6z M715.7,50.3l-1.2,0c-0.9,0-1.6,0.2-2,0.5
				s-0.7,0.8-0.7,1.4c0,0.9,0.5,1.3,1.5,1.3c0.7,0,1.3-0.2,1.7-0.6s0.7-1,0.7-1.7V50.3z"/>
			<path class="st6" d="M725.2,55.7H722v-16h3.1V55.7z"/>
		</g>
		<g class="st5">
			<path class="st6" d="M618.1,76.7c0,1.4-0.5,2.4-1.5,3.2c-1,0.8-2.3,1.2-4.1,1.2c-1.6,0-3-0.3-4.2-0.9v-3c1,0.5,1.9,0.8,2.6,1
				c0.7,0.2,1.3,0.3,1.9,0.3c0.7,0,1.2-0.1,1.6-0.4c0.4-0.3,0.6-0.7,0.6-1.2c0-0.3-0.1-0.6-0.2-0.8c-0.2-0.2-0.4-0.4-0.7-0.7
				c-0.3-0.2-1-0.5-1.9-1c-0.9-0.4-1.6-0.8-2.1-1.2s-0.8-0.9-1.1-1.4c-0.3-0.5-0.4-1.1-0.4-1.8c0-1.3,0.4-2.4,1.3-3.1
				c0.9-0.8,2.1-1.1,3.7-1.1c0.8,0,1.5,0.1,2.2,0.3c0.7,0.2,1.4,0.4,2.2,0.8l-1,2.5c-0.8-0.3-1.5-0.6-2-0.7c-0.5-0.1-1-0.2-1.5-0.2
				c-0.6,0-1.1,0.1-1.4,0.4s-0.5,0.6-0.5,1.1c0,0.3,0.1,0.5,0.2,0.7c0.1,0.2,0.3,0.4,0.6,0.6c0.3,0.2,1,0.5,2,1.1
				c1.4,0.7,2.4,1.3,2.9,2C617.8,74.9,618.1,75.7,618.1,76.7z"/>
			<path class="st6" d="M625.8,81.1c-1.8,0-3.3-0.5-4.3-1.5s-1.6-2.5-1.6-4.3c0-1.9,0.5-3.4,1.4-4.5c1-1,2.3-1.6,4-1.6
				c1.6,0,2.9,0.5,3.8,1.4s1.4,2.2,1.4,3.8v1.5H623c0,0.9,0.3,1.6,0.8,2.1s1.2,0.7,2.1,0.7c0.7,0,1.3-0.1,2-0.2s1.3-0.4,1.9-0.7v2.4
				c-0.5,0.3-1.1,0.5-1.8,0.6C627.4,81,626.7,81.1,625.8,81.1z M625.3,71.4c-0.7,0-1.2,0.2-1.6,0.6c-0.4,0.4-0.6,1-0.6,1.8h4.4
				c0-0.8-0.2-1.4-0.6-1.8C626.5,71.6,626,71.4,625.3,71.4z"/>
			<path class="st6" d="M639.4,69.2c0.4,0,0.8,0,1.1,0.1l-0.2,2.9c-0.3-0.1-0.6-0.1-0.9-0.1c-1,0-1.8,0.3-2.3,0.8
				c-0.6,0.5-0.8,1.2-0.8,2.2v5.8H633V69.4h2.4l0.5,1.9h0.2c0.4-0.6,0.8-1.2,1.4-1.6C638,69.4,638.7,69.2,639.4,69.2z"/>
			<path class="st6" d="M645.2,80.9l-4.4-11.5h3.3l2.2,6.5c0.2,0.8,0.4,1.6,0.5,2.3h0.1c0-0.7,0.2-1.4,0.5-2.3l2.2-6.5h3.3
				l-4.4,11.5H645.2z"/>
			<path class="st6" d="M654.3,66.4c0-1,0.6-1.5,1.7-1.5s1.7,0.5,1.7,1.5c0,0.5-0.1,0.9-0.4,1.1c-0.3,0.3-0.7,0.4-1.3,0.4
				C654.9,68,654.3,67.5,654.3,66.4z M657.6,80.9h-3.1V69.4h3.1V80.9z"/>
			<path class="st6" d="M665.5,81.1c-3.6,0-5.4-2-5.4-5.9c0-1.9,0.5-3.4,1.5-4.5c1-1,2.4-1.5,4.2-1.5c1.3,0,2.5,0.3,3.6,0.8
				l-0.9,2.4c-0.5-0.2-1-0.4-1.4-0.5c-0.4-0.1-0.8-0.2-1.3-0.2c-1.6,0-2.4,1.2-2.4,3.5c0,2.2,0.8,3.4,2.4,3.4c0.6,0,1.2-0.1,1.7-0.2
				c0.5-0.2,1-0.4,1.5-0.8v2.7c-0.5,0.3-1,0.5-1.5,0.7C667,81,666.3,81.1,665.5,81.1z"/>
			<path class="st6" d="M676.9,81.1c-1.8,0-3.3-0.5-4.3-1.5s-1.6-2.5-1.6-4.3c0-1.9,0.5-3.4,1.4-4.5c1-1,2.3-1.6,4-1.6
				c1.6,0,2.9,0.5,3.8,1.4s1.4,2.2,1.4,3.8v1.5h-7.4c0,0.9,0.3,1.6,0.8,2.1s1.2,0.7,2.1,0.7c0.7,0,1.3-0.1,2-0.2s1.3-0.4,1.9-0.7
				v2.4c-0.5,0.3-1.1,0.5-1.8,0.6C678.5,81,677.7,81.1,676.9,81.1z M676.4,71.4c-0.7,0-1.2,0.2-1.6,0.6c-0.4,0.4-0.6,1-0.6,1.8h4.4
				c0-0.8-0.2-1.4-0.6-1.8C677.6,71.6,677.1,71.4,676.4,71.4z"/>
			<path class="st6" d="M696.1,80.9l-3.6-11.8h-0.1c0.1,2.4,0.2,4,0.2,4.8v7h-2.8v-15h4.3l3.5,11.5h0.1l3.8-11.5h4.3v15h-3v-7.1
				c0-0.3,0-0.7,0-1.2c0-0.4,0.1-1.6,0.1-3.5h-0.1L699,80.9H696.1z"/>
			<path class="st6" d="M714.5,81.1c-1.8,0-3.3-0.5-4.3-1.5s-1.6-2.5-1.6-4.3c0-1.9,0.5-3.4,1.4-4.5c1-1,2.3-1.6,4-1.6
				c1.6,0,2.9,0.5,3.8,1.4s1.4,2.2,1.4,3.8v1.5h-7.4c0,0.9,0.3,1.6,0.8,2.1s1.2,0.7,2.1,0.7c0.7,0,1.3-0.1,2-0.2s1.3-0.4,1.9-0.7
				v2.4c-0.5,0.3-1.1,0.5-1.8,0.6C716.2,81,715.4,81.1,714.5,81.1z M714.1,71.4c-0.7,0-1.2,0.2-1.6,0.6c-0.4,0.4-0.6,1-0.6,1.8h4.4
				c0-0.8-0.2-1.4-0.6-1.8C715.3,71.6,714.7,71.4,714.1,71.4z"/>
			<path class="st6" d="M729.7,77.5c0,1.2-0.4,2.1-1.2,2.7c-0.8,0.6-2,0.9-3.7,0.9c-0.8,0-1.5-0.1-2.1-0.2c-0.6-0.1-1.1-0.3-1.7-0.5
				v-2.6c0.6,0.3,1.2,0.5,2,0.7c0.7,0.2,1.4,0.3,1.9,0.3c1.1,0,1.7-0.3,1.7-1c0-0.2-0.1-0.4-0.2-0.6c-0.2-0.2-0.4-0.3-0.8-0.5
				c-0.4-0.2-0.9-0.4-1.5-0.7c-0.9-0.4-1.5-0.7-1.9-1c-0.4-0.3-0.7-0.7-0.9-1.1c-0.2-0.4-0.3-0.9-0.3-1.5c0-1,0.4-1.8,1.2-2.4
				c0.8-0.6,1.9-0.8,3.4-0.8c1.4,0,2.7,0.3,4,0.9l-0.9,2.3c-0.6-0.2-1.1-0.4-1.6-0.6s-1-0.2-1.5-0.2c-0.9,0-1.4,0.2-1.4,0.7
				c0,0.3,0.1,0.5,0.4,0.7c0.3,0.2,0.9,0.5,2,0.9c0.9,0.4,1.6,0.7,2,1s0.7,0.7,0.9,1.1S729.7,76.9,729.7,77.5z"/>
			<path class="st6" d="M742.8,80.9h-3.1v-6.7c0-1.7-0.6-2.5-1.8-2.5c-0.9,0-1.5,0.3-1.9,0.9s-0.6,1.6-0.6,2.9v5.4h-3.1v-16h3.1v3.2
				c0,0.3,0,0.8-0.1,1.8l-0.1,0.9h0.2c0.7-1.1,1.8-1.7,3.3-1.7c1.3,0,2.4,0.4,3.1,1.1s1,1.8,1,3.1V80.9z"/>
		</g>
		<g id="Layer_2-3">
			<g id="Layer_1-2-3">
				<circle class="st7" cx="176.3" cy="137.9" r="5.5"/>
				<circle class="st7" cx="93" cy="137.9" r="9.6"/>
				<line class="st8" x1="116" y1="137.9" x2="102.7" y2="137.9"/>
				<line class="st8" x1="170.3" y1="137.9" x2="157" y2="137.9"/>
				<circle class="st7" cx="163.5" cy="110.4" r="5.5"/>
				<line class="st8" x1="159.3" y1="114.6" x2="150.7" y2="123.1"/>
				<circle class="st7" cx="163.5" cy="165.5" r="5.5"/>
				<line class="st8" x1="159.3" y1="161.3" x2="150.7" y2="152.7"/>
				<path class="st9" d="M116.6,129.6v16.6c0,2,1.1,3.8,2.8,4.8l14.4,8.3c1.7,1,3.8,1,5.5,0l14.4-8.3c1.7-1,2.8-2.8,2.8-4.8v-16.6
					c0-2-1.1-3.8-2.8-4.8l-14.4-8.3c-1.7-1-3.8-1-5.5,0l-14.4,8.3C117.7,125.9,116.6,127.7,116.6,129.6z"/>
				<polyline class="st10" points="129.6,144.8 136.5,131 143.4,144.8 				"/>
			</g>
		</g>
		<g id="Layer_2-4">
			<g id="Layer_1-2-4">
				<path class="st2" d="M367.4,178c-5.2-2.8-8.5-8.2-8.5-14.2v-60.7l39.6-6.9l39.6,6.9v60.7c0,5.9-3.2,11.4-8.5,14.1l-31.1,15.4
					L367.4,178z"/>
				<path class="st2" d="M367.4,178c-5.2-2.8-8.5-8.2-8.5-14.2v-60.7l39.6-6.9l39.6,6.9v60.7c0,5.9-3.2,11.4-8.5,14.1l-31.1,15.4
					L367.4,178z"/>
				<path class="st11" d="M367.4,178c-5.2-2.8-8.5-8.2-8.5-14.2v-60.7l39.6-6.9l39.6,6.9v60.7c0,5.9-3.2,11.4-8.5,14.1l-31.1,15.4
					L367.4,178z"/>
				<path class="st11" d="M363.9,163.9v-56.4l34.6-6.2l34.6,6.2v56.4c0,4.1-2.2,7.9-5.9,9.9L398.4,188l-28.8-14.2
					C366.1,171.8,363.8,168,363.9,163.9z"/>
				<path class="st12" d="M398.5,101.2l34.6,6.2v56.4c0,4.1-2.2,7.9-5.9,9.9l-28.8,14.2v-5l-1.2-1.2v-75.4l1.2-1.2L398.5,101.2z"/>
				<path class="st12" d="M438.1,103.2l-39.6-6.9l-39.2,6.6l4.6,4.6l34.6-6.2l34.6,6.2v57.3c0,3.6-2,7-5.2,8.7l-29.4,14.4v5.6
					l31.8-15.8c4.8-2.6,7.8-7.6,7.8-13.1L438.1,103.2z"/>
				<polygon class="st12" points="398.5,96.2 359.2,102.8 363.9,107.4 398.5,101.2 				"/>
				<polyline class="st12" points="365.1,165.6 367.6,161.8 367.6,111.1 365.1,108.7 				"/>
				<polyline class="st12" points="431.9,165.6 429.4,161.8 429.4,111.1 431.9,108.7 				"/>
				<path class="st13" d="M379.4,136.9v15.9c0,1.9,1,3.6,2.6,4.6l13.8,8c1.6,0.9,3.7,0.9,5.3,0l13.8-8c1.6-1,2.6-2.7,2.6-4.6v-15.9
					c0-1.9-1-3.6-2.6-4.6l-13.8-8c-1.6-1-3.7-1-5.3,0l-13.8,8C380.4,133.2,379.3,135,379.4,136.9z"/>
				<polyline class="st14" points="391.9,151.5 398.5,138.2 405.1,151.5 				"/>
			</g>
		</g>
		<g id="Layer_2-5">
			<g id="Layer_1-2-5">
				<line class="st15" x1="708.1" y1="128.6" x2="667.4" y2="180.7"/>
				<line class="st15" x1="665" y1="177.6" x2="670.5" y2="118.2"/>
				<line class="st15" x1="712.2" y1="130.9" x2="718.5" y2="162.2"/>
				<line class="st15" x1="703.5" y1="124.6" x2="640.7" y2="151.7"/>
				<line class="st15" x1="636.8" y1="158.2" x2="657.8" y2="179.9"/>
				<line class="st15" x1="637.5" y1="142.4" x2="666.7" y2="116.7"/>
				<line class="st15" x1="671.8" y1="186.3" x2="710.9" y2="177.8"/>
				<path class="st16" d="M621.9,146.6v9.3c0,1.1,0.6,2.2,1.6,2.8l8.1,4.7c1,0.6,2.1,0.6,3.1,0l8.1-4.7c1-0.6,1.6-1.6,1.5-2.8v-9.3
					c0-1.1-0.6-2.1-1.6-2.7l-8.1-4.7c-1-0.6-2.1-0.6-3.1,0l-8.1,4.7C622.5,144.4,621.9,145.4,621.9,146.6z"/>
				<polyline class="st17" points="629.2,155.1 633.1,147.3 636.9,155.1 				"/>
				<path class="st16" d="M661,104v9.3c0,1.1,0.6,2.1,1.5,2.7l8.1,4.7c1,0.5,2.1,0.5,3.1,0l8.1-4.7c1-0.5,1.5-1.6,1.5-2.7V104
					c0-1.1-0.6-2.1-1.5-2.7l-8.1-4.7c-1-0.5-2.1-0.5-3.1,0l-8.1,4.7C661.6,101.9,661,102.9,661,104z"/>
				<polyline class="st17" points="668.3,112.5 672.2,104.8 676.1,112.5 				"/>
				<path class="st16" d="M700.9,115.5v9.3c0,1.1,0.6,2.1,1.5,2.7l8.1,4.7c1,0.5,2.1,0.5,3.1,0l8.1-4.7c1-0.5,1.6-1.6,1.5-2.7v-9.3
					c0-1.1-0.6-2.1-1.5-2.7l-8.1-4.7c-1-0.5-2.1-0.5-3.1,0l-8.1,4.7C701.5,113.4,700.9,114.4,700.9,115.5z"/>
				<polyline class="st17" points="708.2,124.1 712.1,116.3 716,124.1 				"/>
				<path class="st16" d="M707.5,167.7v9.3c0,1.1,0.6,2.1,1.5,2.7l8.1,4.7c1,0.5,2.1,0.5,3.1,0l8.1-4.7c1-0.6,1.5-1.6,1.5-2.7v-9.4
					c0-1.1-0.6-2.1-1.5-2.7l-8.1-4.7c-1-0.6-2.1-0.6-3.1,0L709,165C708,165.6,707.4,166.6,707.5,167.7z"/>
				<polyline class="st17" points="714.8,176.3 718.7,168.5 722.5,176.3 				"/>
				<path class="st16" d="M650.3,181.9v9.3c0,1.1,0.6,2.1,1.5,2.7l8.1,4.7c1,0.5,2.1,0.5,3.1,0l8.1-4.7c1-0.6,1.5-1.6,1.5-2.7v-9.3
					c0-1.1-0.6-2.1-1.5-2.7l-8.1-4.7c-1-0.6-2.1-0.6-3.1,0l-8.1,4.7C650.9,179.7,650.3,180.8,650.3,181.9z"/>
				<polyline class="st17" points="657.6,190.4 661.5,182.7 665.4,190.4 				"/>
			</g>
		</g>
		<g class="st5">
			<path class="st2" d="M132,264.8l-1.4-4.8h-7.3l-1.4,4.8h-4.6l7.1-20.1h5.2l7.1,20.1H132z M129.6,256.5c-1.3-4.3-2.1-6.7-2.3-7.3
				c-0.2-0.6-0.3-1-0.4-1.3c-0.3,1.2-1.2,4.1-2.6,8.7H129.6z"/>
			<path class="st2" d="M142.4,264.8l-5.8-15.3h4.4l3,8.7c0.3,1.1,0.5,2.1,0.6,3.1h0.1c0-0.9,0.3-1.9,0.6-3.1l2.9-8.7h4.4l-5.8,15.3
				H142.4z"/>
			<path class="st2" d="M154.5,245.5c0-1.4,0.8-2,2.3-2c1.5,0,2.3,0.7,2.3,2c0,0.6-0.2,1.2-0.6,1.5c-0.4,0.4-0.9,0.5-1.7,0.5
				C155.3,247.6,154.5,246.9,154.5,245.5z M158.9,264.8h-4.2v-15.3h4.2V264.8z"/>
			<path class="st2" d="M161.9,259v-3.4h7.3v3.4H161.9z"/>
			<path class="st2" d="M181.1,264.8l-4.8-15.7h-0.1c0.2,3.2,0.3,5.3,0.3,6.4v9.3h-3.8v-20h5.8l4.7,15.3h0.1l5-15.3h5.8v20h-4v-9.5
				c0-0.4,0-1,0-1.5s0.1-2.1,0.2-4.6h-0.1l-5.2,15.7H181.1z"/>
			<path class="st2" d="M208.4,264.8l-0.8-2.1h-0.1c-0.7,0.9-1.4,1.5-2.2,1.8c-0.7,0.3-1.7,0.5-2.9,0.5c-1.5,0-2.6-0.4-3.5-1.3
				c-0.8-0.8-1.3-2-1.3-3.6c0-1.6,0.6-2.8,1.7-3.6s2.8-1.2,5.1-1.3l2.7-0.1v-0.7c0-1.5-0.8-2.3-2.4-2.3c-1.2,0-2.7,0.4-4.3,1.1
				l-1.4-2.8c1.8-0.9,3.7-1.4,5.9-1.4c2.1,0,3.6,0.4,4.7,1.3s1.6,2.3,1.6,4.1v10.2H208.4z M207.2,257.7l-1.6,0.1
				c-1.2,0-2.1,0.3-2.7,0.7c-0.6,0.4-0.9,1-0.9,1.8c0,1.2,0.7,1.8,2,1.8c1,0,1.7-0.3,2.3-0.8c0.6-0.6,0.9-1.3,0.9-2.2V257.7z"/>
			<path class="st2" d="M229.7,264.8h-4.2v-8.9c0-1.1-0.2-1.9-0.6-2.5c-0.4-0.6-1-0.8-1.9-0.8c-1.2,0-2,0.4-2.5,1.2
				s-0.8,2.1-0.8,3.9v7.2h-4.2v-15.3h3.2l0.6,2h0.2c0.5-0.7,1.1-1.3,1.9-1.7c0.8-0.4,1.7-0.6,2.8-0.6c1.8,0,3.1,0.5,4,1.4
				c0.9,1,1.4,2.3,1.4,4.2V264.8z"/>
			<path class="st2" d="M243.7,264.8l-0.8-2.1h-0.1c-0.7,0.9-1.4,1.5-2.2,1.8c-0.7,0.3-1.7,0.5-2.9,0.5c-1.5,0-2.6-0.4-3.5-1.3
				c-0.8-0.8-1.3-2-1.3-3.6c0-1.6,0.6-2.8,1.7-3.6s2.8-1.2,5.1-1.3l2.7-0.1v-0.7c0-1.5-0.8-2.3-2.4-2.3c-1.2,0-2.7,0.4-4.3,1.1
				l-1.4-2.8c1.8-0.9,3.7-1.4,5.9-1.4c2.1,0,3.6,0.4,4.7,1.3s1.6,2.3,1.6,4.1v10.2H243.7z M242.5,257.7l-1.6,0.1
				c-1.2,0-2.1,0.3-2.7,0.7c-0.6,0.4-0.9,1-0.9,1.8c0,1.2,0.7,1.8,2,1.8c1,0,1.7-0.3,2.3-0.8c0.6-0.6,0.9-1.3,0.9-2.2V257.7z"/>
			<path class="st2" d="M264.2,249.5v2.1l-2.4,0.6c0.4,0.7,0.7,1.4,0.7,2.3c0,1.6-0.6,2.9-1.7,3.8c-1.1,0.9-2.7,1.4-4.8,1.4l-0.8,0
				l-0.6-0.1c-0.4,0.3-0.6,0.7-0.6,1.1c0,0.6,0.8,0.9,2.3,0.9h2.6c1.7,0,3,0.4,3.8,1.1s1.3,1.8,1.3,3.2c0,1.8-0.7,3.2-2.2,4.2
				s-3.6,1.5-6.4,1.5c-2.1,0-3.8-0.4-4.9-1.1c-1.1-0.7-1.7-1.8-1.7-3.1c0-0.9,0.3-1.7,0.9-2.3s1.4-1.1,2.5-1.3
				c-0.4-0.2-0.8-0.5-1.1-0.9c-0.3-0.4-0.5-0.9-0.5-1.3c0-0.6,0.2-1.1,0.5-1.5c0.3-0.4,0.8-0.8,1.5-1.1c-0.8-0.3-1.4-0.9-1.9-1.7
				c-0.5-0.8-0.7-1.7-0.7-2.7c0-1.7,0.5-3,1.6-3.9c1.1-0.9,2.6-1.4,4.6-1.4c0.4,0,0.9,0,1.5,0.1s1,0.1,1.1,0.2H264.2z M252.4,266.9
				c0,0.6,0.3,1,0.8,1.4c0.6,0.3,1.3,0.5,2.3,0.5c1.5,0,2.7-0.2,3.5-0.6s1.3-1,1.3-1.7c0-0.6-0.3-1-0.8-1.2
				c-0.5-0.2-1.3-0.3-2.3-0.3h-2.2c-0.8,0-1.4,0.2-1.9,0.5C252.7,265.9,252.4,266.3,252.4,266.9z M253.9,254.5c0,0.8,0.2,1.5,0.6,2
				c0.4,0.5,1,0.7,1.7,0.7c0.8,0,1.4-0.2,1.7-0.7c0.4-0.5,0.5-1.1,0.5-2c0-1.8-0.8-2.8-2.3-2.8C254.7,251.7,253.9,252.7,253.9,254.5
				z"/>
			<path class="st2" d="M273.6,265.1c-2.5,0-4.4-0.7-5.8-2s-2.1-3.3-2.1-5.8c0-2.6,0.6-4.5,1.9-5.9s3.1-2.1,5.3-2.1
				c2.2,0,3.8,0.6,5,1.8s1.8,2.9,1.8,5.1v2H270c0,1.2,0.4,2.1,1.1,2.8s1.6,1,2.8,1c0.9,0,1.8-0.1,2.6-0.3s1.7-0.5,2.6-0.9v3.2
				c-0.7,0.4-1.5,0.6-2.3,0.8S274.8,265.1,273.6,265.1z M273.1,252.2c-0.9,0-1.6,0.3-2.1,0.8s-0.8,1.4-0.9,2.4h5.9
				c0-1-0.3-1.8-0.8-2.4S273.9,252.2,273.1,252.2z"/>
			<path class="st2" d="M288.1,265.1c-1.8,0-3.2-0.7-4.2-2.1s-1.5-3.3-1.5-5.8c0-2.5,0.5-4.5,1.6-5.9s2.5-2.1,4.3-2.1
				c1.9,0,3.4,0.7,4.4,2.2h0.1c-0.2-1.1-0.3-2.2-0.3-3v-4.9h4.2v21.3h-3.2l-0.8-2h-0.2C291.5,264.3,290,265.1,288.1,265.1z
				 M289.6,261.7c1.1,0,1.8-0.3,2.3-0.9s0.8-1.7,0.8-3.2v-0.5c0-1.6-0.3-2.8-0.8-3.5s-1.3-1.1-2.5-1.1c-0.9,0-1.7,0.4-2.2,1.2
				s-0.8,1.9-0.8,3.4s0.3,2.6,0.8,3.4S288.6,261.7,289.6,261.7z"/>
		</g>
		<g class="st5">
			<path class="st2" d="M487.1,248c-1.6,0-2.8,0.6-3.7,1.8s-1.3,2.9-1.3,5c0,4.5,1.7,6.7,5,6.7c1.4,0,3.1-0.4,5.1-1.1v3.6
				c-1.6,0.7-3.5,1-5.5,1c-2.9,0-5.1-0.9-6.7-2.6s-2.3-4.3-2.3-7.6c0-2.1,0.4-3.9,1.1-5.5s1.8-2.8,3.3-3.6s3.1-1.3,5-1.3
				c1.9,0,3.9,0.5,5.9,1.4l-1.4,3.4c-0.7-0.4-1.5-0.7-2.3-0.9S487.8,248,487.1,248z"/>
			<path class="st2" d="M506.9,264.8l-0.6-2h-0.2c-0.4,0.7-1.1,1.3-1.9,1.6s-1.8,0.6-2.8,0.6c-1.8,0-3.1-0.5-4.1-1.4
				s-1.4-2.3-1.4-4.1v-10h4.2v8.9c0,1.1,0.2,1.9,0.6,2.5s1,0.8,1.9,0.8c1.2,0,2-0.4,2.5-1.2s0.8-2.1,0.8-3.9v-7.2h4.2v15.3H506.9z"
				/>
			<path class="st2" d="M525.1,260.2c0,1.6-0.5,2.8-1.6,3.6s-2.7,1.2-4.9,1.2c-1.1,0-2.1-0.1-2.8-0.2s-1.5-0.4-2.2-0.7v-3.4
				c0.8,0.4,1.6,0.7,2.6,0.9s1.8,0.4,2.6,0.4c1.5,0,2.3-0.4,2.3-1.3c0-0.3-0.1-0.6-0.3-0.8s-0.5-0.4-1-0.7s-1.1-0.6-2-0.9
				c-1.2-0.5-2-0.9-2.6-1.4s-1-0.9-1.2-1.4s-0.4-1.2-0.4-2c0-1.4,0.5-2.4,1.6-3.2s2.5-1.1,4.5-1.1c1.8,0,3.6,0.4,5.4,1.2l-1.3,3
				c-0.8-0.3-1.5-0.6-2.1-0.8s-1.3-0.3-2-0.3c-1.2,0-1.8,0.3-1.8,1c0,0.4,0.2,0.7,0.6,1s1.3,0.7,2.6,1.2c1.2,0.5,2.1,0.9,2.6,1.4
				s1,0.9,1.2,1.4S525.1,259.5,525.1,260.2z"/>
			<path class="st2" d="M534.8,261.7c0.7,0,1.6-0.2,2.6-0.5v3.1c-1,0.5-2.3,0.7-3.8,0.7c-1.7,0-2.9-0.4-3.6-1.3s-1.1-2.1-1.1-3.8
				v-7.4h-2v-1.8l2.3-1.4l1.2-3.2h2.7v3.3h4.3v3.1H533v7.4c0,0.6,0.2,1,0.5,1.3S534.3,261.7,534.8,261.7z"/>
			<path class="st2" d="M554.4,257.1c0,2.5-0.7,4.4-2,5.8s-3.1,2.1-5.5,2.1c-1.5,0-2.8-0.3-3.9-1s-2-1.6-2.6-2.8s-0.9-2.6-0.9-4.2
				c0-2.5,0.7-4.4,2-5.8s3.1-2.1,5.5-2.1c1.5,0,2.8,0.3,3.9,1s2,1.6,2.6,2.7S554.4,255.5,554.4,257.1z M543.9,257.1
				c0,1.5,0.2,2.7,0.7,3.4s1.3,1.2,2.4,1.2c1.1,0,1.9-0.4,2.4-1.2s0.7-1.9,0.7-3.4c0-1.5-0.2-2.6-0.7-3.4s-1.3-1.1-2.4-1.1
				c-1.1,0-1.9,0.4-2.4,1.1S543.9,255.6,543.9,257.1z"/>
			<path class="st2" d="M571.6,264.8h-4.2v-8.9c0-1.1-0.2-1.9-0.6-2.5s-1-0.8-1.7-0.8c-1.1,0-1.8,0.4-2.3,1.2s-0.7,2.1-0.7,3.9v7.2
				h-4.2v-15.3h3.2l0.6,2h0.2c0.4-0.7,1-1.3,1.8-1.6s1.7-0.6,2.7-0.6c2.3,0,3.8,0.7,4.6,2.2h0.4c0.4-0.7,1-1.3,1.8-1.7
				s1.7-0.6,2.7-0.6c1.7,0,3,0.4,3.9,1.3s1.3,2.3,1.3,4.3v10h-4.2v-8.9c0-1.1-0.2-1.9-0.6-2.5s-1-0.8-1.7-0.8c-1,0-1.8,0.4-2.3,1.1
				s-0.8,1.9-0.8,3.5V264.8z"/>
			<path class="st2" d="M592.3,265.1c-2.5,0-4.4-0.7-5.8-2s-2.1-3.3-2.1-5.8c0-2.6,0.6-4.5,1.9-5.9s3.1-2.1,5.3-2.1
				c2.2,0,3.8,0.6,5,1.8s1.8,2.9,1.8,5.1v2h-9.9c0,1.2,0.4,2.1,1.1,2.8s1.6,1,2.8,1c0.9,0,1.8-0.1,2.6-0.3s1.7-0.5,2.6-0.9v3.2
				c-0.7,0.4-1.5,0.6-2.3,0.8S593.5,265.1,592.3,265.1z M591.7,252.2c-0.9,0-1.6,0.3-2.1,0.8s-0.8,1.4-0.9,2.4h5.9
				c0-1-0.3-1.8-0.8-2.4S592.6,252.2,591.7,252.2z"/>
			<path class="st2" d="M610.5,249.2c0.6,0,1,0,1.4,0.1l-0.3,3.9c-0.3-0.1-0.7-0.1-1.2-0.1c-1.3,0-2.4,0.3-3.1,1s-1.1,1.6-1.1,2.9
				v7.8h-4.2v-15.3h3.2l0.6,2.6h0.2c0.5-0.9,1.1-1.5,1.9-2.1S609.5,249.2,610.5,249.2z"/>
			<path class="st2" d="M613.3,259v-3.4h7.3v3.4H613.3z"/>
			<path class="st2" d="M632.4,264.8l-4.8-15.7h-0.1c0.2,3.2,0.3,5.3,0.3,6.4v9.3H624v-20h5.8l4.7,15.3h0.1l5-15.3h5.8v20h-4v-9.5
				c0-0.4,0-1,0-1.5s0.1-2.1,0.2-4.6h-0.1l-5.2,15.7H632.4z"/>
			<path class="st2" d="M659.8,264.8l-0.8-2.1h-0.1c-0.7,0.9-1.4,1.5-2.2,1.8s-1.7,0.5-2.9,0.5c-1.5,0-2.6-0.4-3.5-1.3
				s-1.3-2-1.3-3.6c0-1.6,0.6-2.8,1.7-3.6s2.8-1.2,5.1-1.3l2.7-0.1v-0.7c0-1.5-0.8-2.3-2.4-2.3c-1.2,0-2.7,0.4-4.3,1.1l-1.4-2.8
				c1.8-0.9,3.7-1.4,5.9-1.4c2.1,0,3.6,0.4,4.7,1.3s1.6,2.3,1.6,4.1v10.2H659.8z M658.5,257.7l-1.6,0.1c-1.2,0-2.1,0.3-2.7,0.7
				s-0.9,1-0.9,1.8c0,1.2,0.7,1.8,2,1.8c1,0,1.7-0.3,2.3-0.8s0.9-1.3,0.9-2.2V257.7z"/>
			<path class="st2" d="M681.1,264.8h-4.2v-8.9c0-1.1-0.2-1.9-0.6-2.5s-1-0.8-1.9-0.8c-1.2,0-2,0.4-2.5,1.2s-0.8,2.1-0.8,3.9v7.2
				H667v-15.3h3.2l0.6,2h0.2c0.5-0.7,1.1-1.3,1.9-1.7s1.7-0.6,2.8-0.6c1.8,0,3.1,0.5,4,1.4s1.4,2.3,1.4,4.2V264.8z"/>
			<path class="st2" d="M695.1,264.8l-0.8-2.1h-0.1c-0.7,0.9-1.4,1.5-2.2,1.8s-1.7,0.5-2.9,0.5c-1.5,0-2.6-0.4-3.5-1.3
				s-1.3-2-1.3-3.6c0-1.6,0.6-2.8,1.7-3.6s2.8-1.2,5.1-1.3l2.7-0.1v-0.7c0-1.5-0.8-2.3-2.4-2.3c-1.2,0-2.7,0.4-4.3,1.1l-1.4-2.8
				c1.8-0.9,3.7-1.4,5.9-1.4c2.1,0,3.6,0.4,4.7,1.3s1.6,2.3,1.6,4.1v10.2H695.1z M693.8,257.7l-1.6,0.1c-1.2,0-2.1,0.3-2.7,0.7
				s-0.9,1-0.9,1.8c0,1.2,0.7,1.8,2,1.8c1,0,1.7-0.3,2.3-0.8s0.9-1.3,0.9-2.2V257.7z"/>
			<path class="st2" d="M715.6,249.5v2.1l-2.4,0.6c0.4,0.7,0.7,1.4,0.7,2.3c0,1.6-0.6,2.9-1.7,3.8s-2.7,1.4-4.8,1.4l-0.8,0l-0.6-0.1
				c-0.4,0.3-0.6,0.7-0.6,1.1c0,0.6,0.8,0.9,2.3,0.9h2.6c1.7,0,3,0.4,3.8,1.1s1.3,1.8,1.3,3.2c0,1.8-0.7,3.2-2.2,4.2
				s-3.6,1.5-6.4,1.5c-2.1,0-3.8-0.4-4.9-1.1s-1.7-1.8-1.7-3.1c0-0.9,0.3-1.7,0.9-2.3s1.4-1.1,2.5-1.3c-0.4-0.2-0.8-0.5-1.1-0.9
				s-0.5-0.9-0.5-1.3c0-0.6,0.2-1.1,0.5-1.5s0.8-0.8,1.5-1.1c-0.8-0.3-1.4-0.9-1.9-1.7s-0.7-1.7-0.7-2.7c0-1.7,0.5-3,1.6-3.9
				s2.6-1.4,4.6-1.4c0.4,0,0.9,0,1.5,0.1s1,0.1,1.1,0.2H715.6z M703.8,266.9c0,0.6,0.3,1,0.8,1.4s1.3,0.5,2.3,0.5
				c1.5,0,2.7-0.2,3.5-0.6s1.3-1,1.3-1.7c0-0.6-0.3-1-0.8-1.2s-1.3-0.3-2.3-0.3h-2.2c-0.8,0-1.4,0.2-1.9,0.5
				S703.8,266.3,703.8,266.9z M705.3,254.5c0,0.8,0.2,1.5,0.6,2s1,0.7,1.7,0.7c0.8,0,1.4-0.2,1.7-0.7s0.5-1.1,0.5-2
				c0-1.8-0.8-2.8-2.3-2.8C706.1,251.7,705.3,252.7,705.3,254.5z"/>
			<path class="st2" d="M725,265.1c-2.5,0-4.4-0.7-5.8-2s-2.1-3.3-2.1-5.8c0-2.6,0.6-4.5,1.9-5.9s3.1-2.1,5.3-2.1
				c2.2,0,3.8,0.6,5,1.8s1.8,2.9,1.8,5.1v2h-9.9c0,1.2,0.4,2.1,1.1,2.8s1.6,1,2.8,1c0.9,0,1.8-0.1,2.6-0.3s1.7-0.5,2.6-0.9v3.2
				c-0.7,0.4-1.5,0.6-2.3,0.8S726.2,265.1,725,265.1z M724.4,252.2c-0.9,0-1.6,0.3-2.1,0.8s-0.8,1.4-0.9,2.4h5.9
				c0-1-0.3-1.8-0.8-2.4S725.3,252.2,724.4,252.2z"/>
			<path class="st2" d="M739.5,265.1c-1.8,0-3.2-0.7-4.2-2.1s-1.5-3.3-1.5-5.8c0-2.5,0.5-4.5,1.6-5.9s2.5-2.1,4.3-2.1
				c1.9,0,3.4,0.7,4.4,2.2h0.1c-0.2-1.1-0.3-2.2-0.3-3v-4.9h4.2v21.3h-3.2l-0.8-2h-0.2C742.9,264.3,741.4,265.1,739.5,265.1z
				 M740.9,261.7c1.1,0,1.8-0.3,2.3-0.9s0.8-1.7,0.8-3.2v-0.5c0-1.6-0.3-2.8-0.8-3.5s-1.3-1.1-2.5-1.1c-0.9,0-1.7,0.4-2.2,1.2
				s-0.8,1.9-0.8,3.4s0.3,2.6,0.8,3.4S740,261.7,740.9,261.7z"/>
		</g>
		<g id="Layer_2-6">
			<g id="Layer_1-2-6">
				<path class="st2" d="M374.4,357.3c-5.2,0.1-9.6-3.8-10-9c-0.3-5.3,3.7-9.9,9-10.2l0,0c0.2,0,0.5,0,0.7,0v1.1
					c0-16,12.9-28.9,28.9-28.9c11.9,0,22.5,7.2,26.9,18.3c0.3,0,0.6,0,1,0c10.6,0,19.2,8.7,19.2,19.3c0,1.7-0.2,3.3-0.6,4.9
					c-0.8,2.8-3.3,4.7-6.2,4.7h-68.9V357.3z"/>
				<path class="st18" d="M378.3,341.8c-3.3-2.5-8-1.9-10.5,1.4s-1.9,8,1.4,10.5c1.3,1,2.9,1.5,4.6,1.5h72.7
					c4.1-8.5,0.6-18.8-7.9-22.9c-5.4-2.6-11.8-2.2-16.8,1"/>
				<path class="st19" d="M374.4,357.3c-5.2,0.1-9.6-3.8-10-9c-0.3-5.3,3.7-9.9,9-10.2l0,0c0.2,0,0.5,0,0.7,0v1.1
					c0-16,12.9-28.9,28.9-28.9c11.9,0,22.5,7.2,26.9,18.3c0.3,0,0.6,0,1,0c10.6,0,19.2,8.7,19.2,19.3c0,1.7-0.2,3.3-0.6,4.9
					c-0.8,2.8-3.3,4.7-6.2,4.7h-68.9V357.3z"/>
				<line class="st18" x1="460.3" y1="367" x2="381.9" y2="367"/>
				<line class="st18" x1="384.3" y1="371.3" x2="369" y2="371.3"/>
			</g>
		</g>
		<rect x="1.6" y="1.3" class="st20" width="801.6" height="556.3"/>
		<g id="Layer_2-7">
			<g id="Layer_1-2-7">
				<polyline class="st2" points="90.8,454.4 65.8,454.4 65.8,349 70.1,344.7 90.8,344.7 				"/>
				<polygon class="st2" points="152.3,339.8 152.3,459 93.6,459 93.6,339.8 97.9,335.4 148,335.4 				"/>
				<path class="st1" d="M148,335.5l4.2,4.2V459H93.6V339.8l4.4-4.2L148,335.5 M149.3,332.3H96.7l-0.9,0.9l-4.3,4.3l-0.9,0.9v123.7
					h64.9V338.5l-0.9-0.9l-4.3-4.3L149.3,332.3z"/>
				<polyline class="st21" points="93.6,457.4 93.6,339.7 97.8,335.5 147.3,335.5 151.6,339.7 				"/>
				<polyline class="st22" points="146.4,344.7 97.9,344.7 97.9,451.9 				"/>
				<polyline class="st21" points="144.9,346.2 99.5,346.2 99.5,450.3 				"/>
				<line class="st23" x1="97.9" y1="355.5" x2="148" y2="355.5"/>
				<line class="st23" x1="97.9" y1="364.8" x2="148" y2="364.8"/>
				<polyline class="st23" points="82.8,454.4 65.8,454.4 65.8,349 70.1,344.7 90.8,344.7 				"/>
				<path class="st21" d="M85.7,445.7L85.7,445.7"/>
				<path class="st21" d="M79.4,445.7L79.4,445.7"/>
				<path class="st21" d="M73.2,445.7L73.2,445.7"/>
				<path class="st21" d="M88.7,442.6L88.7,442.6"/>
				<path class="st21" d="M82.5,442.6L82.5,442.6"/>
				<path class="st21" d="M76.3,442.6L76.3,442.6"/>
				<path class="st21" d="M85.7,439.5L85.7,439.5"/>
				<path class="st21" d="M79.4,439.5L79.4,439.5"/>
				<path class="st21" d="M73.2,439.5L73.2,439.5"/>
				<path class="st21" d="M88.7,436.4L88.7,436.4"/>
				<path class="st21" d="M82.5,436.4L82.5,436.4"/>
				<path class="st21" d="M76.3,436.4L76.3,436.4"/>
				<path class="st21" d="M85.7,433.3L85.7,433.3"/>
				<path class="st21" d="M79.4,433.3L79.4,433.3"/>
				<path class="st21" d="M73.2,433.3L73.2,433.3"/>
				<path class="st21" d="M88.7,430.2L88.7,430.2"/>
				<path class="st21" d="M82.5,430.2L82.5,430.2"/>
				<path class="st21" d="M76.3,430.2L76.3,430.2"/>
				<path class="st21" d="M85.7,427.1L85.7,427.1"/>
				<path class="st21" d="M79.4,427.1L79.4,427.1"/>
				<path class="st21" d="M73.2,427.1L73.2,427.1"/>
				<path class="st21" d="M88.7,424L88.7,424"/>
				<path class="st21" d="M82.5,424L82.5,424"/>
				<path class="st21" d="M76.3,424L76.3,424"/>
				<path class="st21" d="M85.7,421L85.7,421"/>
				<path class="st21" d="M79.4,421L79.4,421"/>
				<path class="st21" d="M73.2,421L73.2,421"/>
				<path class="st21" d="M88.7,417.9L88.7,417.9"/>
				<path class="st21" d="M82.5,417.9L82.5,417.9"/>
				<path class="st21" d="M76.3,417.9L76.3,417.9"/>
				<path class="st21" d="M85.7,414.8L85.7,414.8"/>
				<path class="st21" d="M79.4,414.8L79.4,414.8"/>
				<path class="st21" d="M73.2,414.8L73.2,414.8"/>
				<path class="st21" d="M88.7,411.6L88.7,411.6"/>
				<path class="st21" d="M82.5,411.6L82.5,411.6"/>
				<path class="st21" d="M76.3,411.6L76.3,411.6"/>
				<path class="st21" d="M85.7,408.6L85.7,408.6"/>
				<path class="st21" d="M79.4,408.6L79.4,408.6"/>
				<path class="st21" d="M73.2,408.6L73.2,408.6"/>
				<path class="st21" d="M88.7,405.5L88.7,405.5"/>
				<path class="st21" d="M82.5,405.5L82.5,405.5"/>
				<path class="st21" d="M76.3,405.5L76.3,405.5"/>
				<path class="st21" d="M85.7,402.4L85.7,402.4"/>
				<path class="st21" d="M79.4,402.4L79.4,402.4"/>
				<path class="st21" d="M73.2,402.4L73.2,402.4"/>
				<path class="st21" d="M88.7,399.3L88.7,399.3"/>
				<path class="st21" d="M82.5,399.3L82.5,399.3"/>
				<path class="st21" d="M76.3,399.3L76.3,399.3"/>
				<path class="st21" d="M85.7,396.2L85.7,396.2"/>
				<path class="st21" d="M79.4,396.2L79.4,396.2"/>
				<path class="st21" d="M73.2,396.2L73.2,396.2"/>
				<path class="st21" d="M88.7,393.2L88.7,393.2"/>
				<path class="st21" d="M82.5,393.2L82.5,393.2"/>
				<path class="st21" d="M76.3,393.2L76.3,393.2"/>
				<path class="st21" d="M85.7,390.1L85.7,390.1"/>
				<path class="st21" d="M79.4,390.1L79.4,390.1"/>
				<path class="st21" d="M73.2,390.1L73.2,390.1"/>
				<path class="st21" d="M88.7,387L88.7,387"/>
				<path class="st21" d="M82.5,387L82.5,387"/>
				<path class="st21" d="M76.3,387L76.3,387"/>
				<path class="st21" d="M85.7,383.9L85.7,383.9"/>
				<path class="st21" d="M79.4,383.9L79.4,383.9"/>
				<path class="st21" d="M73.2,383.9L73.2,383.9"/>
				<path class="st21" d="M88.7,380.8L88.7,380.8"/>
				<path class="st21" d="M82.5,380.8L82.5,380.8"/>
				<path class="st21" d="M76.3,380.8L76.3,380.8"/>
				<path class="st21" d="M85.7,377.7L85.7,377.7"/>
				<path class="st21" d="M79.4,377.7L79.4,377.7"/>
				<path class="st21" d="M73.2,377.7L73.2,377.7"/>
				<path class="st21" d="M88.7,374.6L88.7,374.6"/>
				<path class="st21" d="M82.5,374.6L82.5,374.6"/>
				<path class="st21" d="M76.3,374.6L76.3,374.6"/>
				<path class="st21" d="M85.7,371.5L85.7,371.5"/>
				<path class="st21" d="M79.4,371.5L79.4,371.5"/>
				<path class="st21" d="M73.2,371.5L73.2,371.5"/>
				<path class="st21" d="M88.7,368.4L88.7,368.4"/>
				<path class="st21" d="M82.5,368.4L82.5,368.4"/>
				<path class="st21" d="M76.3,368.4L76.3,368.4"/>
				<path class="st21" d="M85.7,365.3L85.7,365.3"/>
				<path class="st21" d="M79.4,365.3L79.4,365.3"/>
				<path class="st21" d="M73.2,365.3L73.2,365.3"/>
				<path class="st21" d="M88.7,362.2L88.7,362.2"/>
				<path class="st21" d="M82.5,362.2L82.5,362.2"/>
				<path class="st21" d="M76.3,362.2L76.3,362.2"/>
				<path class="st21" d="M85.7,359.2L85.7,359.2"/>
				<path class="st21" d="M79.4,359.2L79.4,359.2"/>
				<path class="st21" d="M73.2,359.2L73.2,359.2"/>
				<path class="st21" d="M88.7,356.1L88.7,356.1"/>
				<path class="st21" d="M82.5,356.1L82.5,356.1"/>
				<path class="st21" d="M76.3,356.1L76.3,356.1"/>
				<path class="st21" d="M85.7,353L85.7,353"/>
				<path class="st21" d="M79.4,353L79.4,353"/>
				<path class="st21" d="M73.2,353L73.2,353"/>
				<polyline class="st2" points="153.9,454.4 178.9,454.4 178.9,349 174.6,344.7 153.9,344.7 				"/>
				<polyline class="st23" points="161.9,454.4 178.9,454.4 178.9,349 174.6,344.7 153.9,344.7 				"/>
				<path class="st21" d="M159.1,445.7L159.1,445.7"/>
				<path class="st21" d="M165.3,445.7L165.3,445.7"/>
				<path class="st21" d="M171.5,445.7L171.5,445.7"/>
				<path class="st21" d="M156,442.6L156,442.6"/>
				<path class="st21" d="M162.2,442.6L162.2,442.6"/>
				<path class="st21" d="M168.4,442.6L168.4,442.6"/>
				<path class="st21" d="M159.1,439.5L159.1,439.5"/>
				<path class="st21" d="M165.3,439.5L165.3,439.5"/>
				<path class="st21" d="M171.5,439.5L171.5,439.5"/>
				<path class="st21" d="M156,436.4L156,436.4"/>
				<path class="st21" d="M162.2,436.4L162.2,436.4"/>
				<path class="st21" d="M168.4,436.4L168.4,436.4"/>
				<path class="st21" d="M159.1,433.3L159.1,433.3"/>
				<path class="st21" d="M165.3,433.3L165.3,433.3"/>
				<path class="st21" d="M171.5,433.3L171.5,433.3"/>
				<path class="st21" d="M156,430.2L156,430.2"/>
				<path class="st21" d="M162.2,430.2L162.2,430.2"/>
				<path class="st21" d="M168.4,430.2L168.4,430.2"/>
				<path class="st21" d="M159.1,427.1L159.1,427.1"/>
				<path class="st21" d="M165.3,427.1L165.3,427.1"/>
				<path class="st21" d="M171.5,427.1L171.5,427.1"/>
				<path class="st21" d="M156,424L156,424"/>
				<path class="st21" d="M162.2,424L162.2,424"/>
				<path class="st21" d="M168.4,424L168.4,424"/>
				<path class="st21" d="M159.1,421L159.1,421"/>
				<path class="st21" d="M165.3,421L165.3,421"/>
				<path class="st21" d="M171.5,421L171.5,421"/>
				<path class="st21" d="M156,417.9L156,417.9"/>
				<path class="st21" d="M162.2,417.9L162.2,417.9"/>
				<path class="st21" d="M168.4,417.9L168.4,417.9"/>
				<path class="st21" d="M159.1,414.8L159.1,414.8"/>
				<path class="st21" d="M165.3,414.8L165.3,414.8"/>
				<path class="st21" d="M171.5,414.8L171.5,414.8"/>
				<path class="st21" d="M156,411.6L156,411.6"/>
				<path class="st21" d="M162.2,411.6L162.2,411.6"/>
				<path class="st21" d="M168.4,411.6L168.4,411.6"/>
				<path class="st21" d="M159.1,408.6L159.1,408.6"/>
				<path class="st21" d="M165.3,408.6L165.3,408.6"/>
				<path class="st21" d="M171.5,408.6L171.5,408.6"/>
				<path class="st21" d="M156,405.5L156,405.5"/>
				<path class="st21" d="M162.2,405.5L162.2,405.5"/>
				<path class="st21" d="M168.4,405.5L168.4,405.5"/>
				<path class="st21" d="M159.1,402.4L159.1,402.4"/>
				<path class="st21" d="M165.3,402.4L165.3,402.4"/>
				<path class="st21" d="M171.5,402.4L171.5,402.4"/>
				<path class="st21" d="M156,399.3L156,399.3"/>
				<path class="st21" d="M162.2,399.3L162.2,399.3"/>
				<path class="st21" d="M168.4,399.3L168.4,399.3"/>
				<path class="st21" d="M159.1,396.2L159.1,396.2"/>
				<path class="st21" d="M165.3,396.2L165.3,396.2"/>
				<path class="st21" d="M171.5,396.2L171.5,396.2"/>
				<path class="st21" d="M156,393.2L156,393.2"/>
				<path class="st21" d="M162.2,393.2L162.2,393.2"/>
				<path class="st21" d="M168.4,393.2L168.4,393.2"/>
				<path class="st21" d="M159.1,390.1L159.1,390.1"/>
				<path class="st21" d="M165.3,390.1L165.3,390.1"/>
				<path class="st21" d="M171.5,390.1L171.5,390.1"/>
				<path class="st21" d="M156,387L156,387"/>
				<path class="st21" d="M162.2,387L162.2,387"/>
				<path class="st21" d="M168.4,387L168.4,387"/>
				<path class="st21" d="M159.1,383.9L159.1,383.9"/>
				<path class="st21" d="M165.3,383.9L165.3,383.9"/>
				<path class="st21" d="M171.5,383.9L171.5,383.9"/>
				<path class="st21" d="M156,380.8L156,380.8"/>
				<path class="st21" d="M162.2,380.8L162.2,380.8"/>
				<path class="st21" d="M168.4,380.8L168.4,380.8"/>
				<path class="st21" d="M159.1,377.7L159.1,377.7"/>
				<path class="st21" d="M165.3,377.7L165.3,377.7"/>
				<path class="st21" d="M171.5,377.7L171.5,377.7"/>
				<path class="st21" d="M156,374.6L156,374.6"/>
				<path class="st21" d="M162.2,374.6L162.2,374.6"/>
				<path class="st21" d="M168.4,374.6L168.4,374.6"/>
				<path class="st21" d="M159.1,371.5L159.1,371.5"/>
				<path class="st21" d="M165.3,371.5L165.3,371.5"/>
				<path class="st21" d="M171.5,371.5L171.5,371.5"/>
				<path class="st21" d="M156,368.4L156,368.4"/>
				<path class="st21" d="M162.2,368.4L162.2,368.4"/>
				<path class="st21" d="M168.4,368.4L168.4,368.4"/>
				<path class="st21" d="M159.1,365.3L159.1,365.3"/>
				<path class="st21" d="M165.3,365.3L165.3,365.3"/>
				<path class="st21" d="M171.5,365.3L171.5,365.3"/>
				<path class="st21" d="M156,362.2L156,362.2"/>
				<path class="st21" d="M162.2,362.2L162.2,362.2"/>
				<path class="st21" d="M168.4,362.2L168.4,362.2"/>
				<path class="st21" d="M159.1,359.2L159.1,359.2"/>
				<path class="st21" d="M165.3,359.2L165.3,359.2"/>
				<path class="st21" d="M171.5,359.2L171.5,359.2"/>
				<path class="st21" d="M156,356.1L156,356.1"/>
				<path class="st21" d="M162.2,356.1L162.2,356.1"/>
				<path class="st21" d="M168.4,356.1L168.4,356.1"/>
				<path class="st21" d="M159.1,353L159.1,353"/>
				<path class="st21" d="M165.3,353L165.3,353"/>
				<path class="st21" d="M171.5,353L171.5,353"/>
				<polygon class="st1" points="150.8,465.2 95.2,465.2 93.6,462.1 152.3,462.1 				"/>
				<path class="st21" d="M145.9,349.9L145.9,349.9"/>
				<path class="st21" d="M141.1,349.9L141.1,349.9"/>
				<path class="st24" d="M136.6,349.9L136.6,349.9"/>
				<path class="st24" d="M145.9,360.7L145.9,360.7"/>
				<path class="st21" d="M141.1,360.7L141.1,360.7"/>
				<path class="st21" d="M136.6,360.7L136.6,360.7"/>
				<line class="st23" x1="97.9" y1="374" x2="148" y2="374"/>
				<path class="st21" d="M145.9,370L145.9,370"/>
				<path class="st24" d="M141.1,370L141.1,370"/>
				<path class="st21" d="M136.6,370L136.6,370"/>
				<line class="st23" x1="97.9" y1="383.3" x2="148" y2="383.3"/>
				<path class="st24" d="M145.9,379.2L145.9,379.2"/>
				<path class="st21" d="M141.1,379.2L141.1,379.2"/>
				<path class="st21" d="M136.6,379.2L136.6,379.2"/>
				<line class="st23" x1="97.9" y1="392.6" x2="148" y2="392.6"/>
				<path class="st21" d="M145.9,388.5L145.9,388.5"/>
				<path class="st21" d="M141.1,388.5L141.1,388.5"/>
				<path class="st24" d="M136.6,388.5L136.6,388.5"/>
				<line class="st23" x1="97.9" y1="401.9" x2="148" y2="401.9"/>
				<path class="st21" d="M145.9,397.8L145.9,397.8"/>
				<path class="st21" d="M141.1,397.8L141.1,397.8"/>
				<path class="st21" d="M136.6,397.8L136.6,397.8"/>
				<line class="st23" x1="97.9" y1="411.1" x2="148" y2="411.1"/>
				<path class="st21" d="M145.9,407L145.9,407"/>
				<path class="st24" d="M141.1,407L141.1,407"/>
				<path class="st21" d="M136.6,407L136.6,407"/>
				<line class="st23" x1="97.9" y1="420.4" x2="148" y2="420.4"/>
				<path class="st21" d="M145.9,416.4L145.9,416.4"/>
				<path class="st21" d="M141.1,416.4L141.1,416.4"/>
				<path class="st21" d="M136.6,416.4L136.6,416.4"/>
				<line class="st23" x1="97.9" y1="429.7" x2="148" y2="429.7"/>
				<path class="st24" d="M145.9,425.6L145.9,425.6"/>
				<path class="st21" d="M141.1,425.6L141.1,425.6"/>
				<path class="st21" d="M136.6,425.6L136.6,425.6"/>
				<line class="st23" x1="97.9" y1="438.9" x2="148" y2="438.9"/>
				<path class="st21" d="M145.9,434.9L145.9,434.9"/>
				<path class="st21" d="M141.1,434.9L141.1,434.9"/>
				<path class="st21" d="M136.6,434.9L136.6,434.9"/>
				<line class="st23" x1="97.9" y1="448.2" x2="148" y2="448.2"/>
				<path class="st21" d="M145.9,444.1L145.9,444.1"/>
				<path class="st21" d="M141.1,444.1L141.1,444.1"/>
				<path class="st21" d="M136.6,444.1L136.6,444.1"/>
			</g>
		</g>
		<g id="Layer_2-8">
			<g id="Layer_1-2-8">
				<polyline class="st2" points="335.5,455.8 313.8,455.8 313.8,364.3 317.6,360.5 335.5,360.5 				"/>
				<polygon class="st2" points="388.9,356.3 388.9,459.8 338,459.8 338,356.3 341.7,352.5 385.2,352.5 				"/>
				<path class="st1" d="M385.2,352.6l3.7,3.7v103.6h-51V356.3l3.8-3.7L385.2,352.6 M386.3,349.8h-45.7l-0.8,0.8l-3.8,3.8l-0.8,0.8
					v107.4h56.4V355.1l-0.8-0.8l-3.8-3.8L386.3,349.8z"/>
				<polyline class="st25" points="338,458.4 338,356.2 341.6,352.6 384.6,352.6 388.3,356.2 				"/>
				<polyline class="st26" points="383.9,360.5 341.7,360.5 341.7,453.6 				"/>
				<polyline class="st25" points="382.5,361.9 343.1,361.9 343.1,452.3 				"/>
				<line class="st27" x1="341.7" y1="369.9" x2="385.2" y2="369.9"/>
				<line class="st27" x1="341.7" y1="378" x2="385.2" y2="378"/>
				<polyline class="st27" points="328.6,455.8 313.8,455.8 313.8,364.3 317.6,360.5 335.5,360.5 				"/>
				<path class="st25" d="M331,448.2L331,448.2"/>
				<path class="st25" d="M325.6,448.2L325.6,448.2"/>
				<path class="st25" d="M320.3,448.2L320.3,448.2"/>
				<path class="st25" d="M333.7,445.6L333.7,445.6"/>
				<path class="st25" d="M328.3,445.6L328.3,445.6"/>
				<path class="st25" d="M323,445.6L323,445.6"/>
				<path class="st25" d="M331,442.9L331,442.9"/>
				<path class="st25" d="M325.6,442.9L325.6,442.9"/>
				<path class="st25" d="M320.3,442.9L320.3,442.9"/>
				<path class="st25" d="M333.7,440.2L333.7,440.2"/>
				<path class="st25" d="M328.3,440.2L328.3,440.2"/>
				<path class="st25" d="M323,440.2L323,440.2"/>
				<path class="st25" d="M331,437.5L331,437.5"/>
				<path class="st25" d="M325.6,437.5L325.6,437.5"/>
				<path class="st25" d="M320.3,437.5L320.3,437.5"/>
				<path class="st25" d="M333.7,434.8L333.7,434.8"/>
				<path class="st25" d="M328.3,434.8L328.3,434.8"/>
				<path class="st25" d="M323,434.8L323,434.8"/>
				<path class="st25" d="M331,432.1L331,432.1"/>
				<path class="st25" d="M325.6,432.1L325.6,432.1"/>
				<path class="st25" d="M320.3,432.1L320.3,432.1"/>
				<path class="st25" d="M333.7,429.5L333.7,429.5"/>
				<path class="st25" d="M328.3,429.5L328.3,429.5"/>
				<path class="st25" d="M323,429.5L323,429.5"/>
				<path class="st25" d="M331,426.8L331,426.8"/>
				<path class="st25" d="M325.6,426.8L325.6,426.8"/>
				<path class="st25" d="M320.3,426.8L320.3,426.8"/>
				<path class="st25" d="M333.7,424.1L333.7,424.1"/>
				<path class="st25" d="M328.3,424.1L328.3,424.1"/>
				<path class="st25" d="M323,424.1L323,424.1"/>
				<path class="st25" d="M331,421.4L331,421.4"/>
				<path class="st25" d="M325.6,421.4L325.6,421.4"/>
				<path class="st25" d="M320.3,421.4L320.3,421.4"/>
				<path class="st25" d="M333.7,418.7L333.7,418.7"/>
				<path class="st25" d="M328.3,418.7L328.3,418.7"/>
				<path class="st25" d="M323,418.7L323,418.7"/>
				<path class="st25" d="M331,416L331,416"/>
				<path class="st25" d="M325.6,416L325.6,416"/>
				<path class="st25" d="M320.3,416L320.3,416"/>
				<path class="st25" d="M333.7,413.4L333.7,413.4"/>
				<path class="st25" d="M328.3,413.4L328.3,413.4"/>
				<path class="st25" d="M323,413.4L323,413.4"/>
				<path class="st25" d="M331,410.7L331,410.7"/>
				<path class="st25" d="M325.6,410.7L325.6,410.7"/>
				<path class="st25" d="M320.3,410.7L320.3,410.7"/>
				<path class="st25" d="M333.7,408L333.7,408"/>
				<path class="st25" d="M328.3,408L328.3,408"/>
				<path class="st25" d="M323,408L323,408"/>
				<path class="st25" d="M331,405.3L331,405.3"/>
				<path class="st25" d="M325.6,405.3L325.6,405.3"/>
				<path class="st25" d="M320.3,405.3L320.3,405.3"/>
				<path class="st25" d="M333.7,402.6L333.7,402.6"/>
				<path class="st25" d="M328.3,402.6L328.3,402.6"/>
				<path class="st25" d="M323,402.6L323,402.6"/>
				<path class="st25" d="M331,399.9L331,399.9"/>
				<path class="st25" d="M325.6,399.9L325.6,399.9"/>
				<path class="st25" d="M320.3,399.9L320.3,399.9"/>
				<path class="st25" d="M333.7,397.3L333.7,397.3"/>
				<path class="st25" d="M328.3,397.3L328.3,397.3"/>
				<path class="st25" d="M323,397.3L323,397.3"/>
				<path class="st25" d="M331,394.6L331,394.6"/>
				<path class="st25" d="M325.6,394.6L325.6,394.6"/>
				<path class="st25" d="M320.3,394.6L320.3,394.6"/>
				<path class="st25" d="M333.7,391.9L333.7,391.9"/>
				<path class="st25" d="M328.3,391.9L328.3,391.9"/>
				<path class="st25" d="M323,391.9L323,391.9"/>
				<path class="st25" d="M331,389.2L331,389.2"/>
				<path class="st25" d="M325.6,389.2L325.6,389.2"/>
				<path class="st25" d="M320.3,389.2L320.3,389.2"/>
				<path class="st25" d="M333.7,386.5L333.7,386.5"/>
				<path class="st25" d="M328.3,386.5L328.3,386.5"/>
				<path class="st25" d="M323,386.5L323,386.5"/>
				<path class="st25" d="M331,383.8L331,383.8"/>
				<path class="st25" d="M325.6,383.8L325.6,383.8"/>
				<path class="st25" d="M320.3,383.8L320.3,383.8"/>
				<path class="st25" d="M333.7,381.2L333.7,381.2"/>
				<path class="st25" d="M328.3,381.2L328.3,381.2"/>
				<path class="st25" d="M323,381.2L323,381.2"/>
				<path class="st25" d="M331,378.5L331,378.5"/>
				<path class="st25" d="M325.6,378.5L325.6,378.5"/>
				<path class="st25" d="M320.3,378.5L320.3,378.5"/>
				<path class="st25" d="M333.7,375.8L333.7,375.8"/>
				<path class="st25" d="M328.3,375.8L328.3,375.8"/>
				<path class="st25" d="M323,375.8L323,375.8"/>
				<path class="st25" d="M331,373.1L331,373.1"/>
				<path class="st25" d="M325.6,373.1L325.6,373.1"/>
				<path class="st25" d="M320.3,373.1L320.3,373.1"/>
				<path class="st25" d="M333.7,370.5L333.7,370.5"/>
				<path class="st25" d="M328.3,370.5L328.3,370.5"/>
				<path class="st25" d="M323,370.5L323,370.5"/>
				<path class="st25" d="M331,367.7L331,367.7"/>
				<path class="st25" d="M325.6,367.7L325.6,367.7"/>
				<path class="st25" d="M320.3,367.7L320.3,367.7"/>
				<polyline class="st2" points="390.3,455.8 412,455.8 412,364.3 408.3,360.5 390.3,360.5 				"/>
				<polyline class="st27" points="397.3,455.8 412,455.8 412,364.3 408.3,360.5 390.3,360.5 				"/>
				<path class="st25" d="M394.8,448.2L394.8,448.2"/>
				<path class="st25" d="M400.2,448.2L400.2,448.2"/>
				<path class="st25" d="M405.6,448.2L405.6,448.2"/>
				<path class="st25" d="M392.2,445.6L392.2,445.6"/>
				<path class="st25" d="M397.5,445.6L397.5,445.6"/>
				<path class="st25" d="M402.9,445.6L402.9,445.6"/>
				<path class="st25" d="M394.8,442.9L394.8,442.9"/>
				<path class="st25" d="M400.2,442.9L400.2,442.9"/>
				<path class="st25" d="M405.6,442.9L405.6,442.9"/>
				<path class="st25" d="M392.2,440.2L392.2,440.2"/>
				<path class="st25" d="M397.5,440.2L397.5,440.2"/>
				<path class="st25" d="M402.9,440.2L402.9,440.2"/>
				<path class="st25" d="M394.8,437.5L394.8,437.5"/>
				<path class="st25" d="M400.2,437.5L400.2,437.5"/>
				<path class="st25" d="M405.6,437.5L405.6,437.5"/>
				<path class="st25" d="M392.2,434.8L392.2,434.8"/>
				<path class="st25" d="M397.5,434.8L397.5,434.8"/>
				<path class="st25" d="M402.9,434.8L402.9,434.8"/>
				<path class="st25" d="M394.8,432.1L394.8,432.1"/>
				<path class="st25" d="M400.2,432.1L400.2,432.1"/>
				<path class="st25" d="M405.6,432.1L405.6,432.1"/>
				<path class="st25" d="M392.2,429.5L392.2,429.5"/>
				<path class="st25" d="M397.5,429.5L397.5,429.5"/>
				<path class="st25" d="M402.9,429.5L402.9,429.5"/>
				<path class="st25" d="M394.8,426.8L394.8,426.8"/>
				<path class="st25" d="M400.2,426.8L400.2,426.8"/>
				<path class="st25" d="M405.6,426.8L405.6,426.8"/>
				<path class="st25" d="M392.2,424.1L392.2,424.1"/>
				<path class="st25" d="M397.5,424.1L397.5,424.1"/>
				<path class="st25" d="M402.9,424.1L402.9,424.1"/>
				<path class="st25" d="M394.8,421.4L394.8,421.4"/>
				<path class="st25" d="M400.2,421.4L400.2,421.4"/>
				<path class="st25" d="M405.6,421.4L405.6,421.4"/>
				<path class="st25" d="M392.2,418.7L392.2,418.7"/>
				<path class="st25" d="M397.5,418.7L397.5,418.7"/>
				<path class="st25" d="M402.9,418.7L402.9,418.7"/>
				<path class="st25" d="M394.8,416L394.8,416"/>
				<path class="st25" d="M400.2,416L400.2,416"/>
				<path class="st25" d="M405.6,416L405.6,416"/>
				<path class="st25" d="M392.2,413.4L392.2,413.4"/>
				<path class="st25" d="M397.5,413.4L397.5,413.4"/>
				<path class="st25" d="M402.9,413.4L402.9,413.4"/>
				<path class="st25" d="M394.8,410.7L394.8,410.7"/>
				<path class="st25" d="M400.2,410.7L400.2,410.7"/>
				<path class="st25" d="M405.6,410.7L405.6,410.7"/>
				<path class="st25" d="M392.2,408L392.2,408"/>
				<path class="st25" d="M397.5,408L397.5,408"/>
				<path class="st25" d="M402.9,408L402.9,408"/>
				<path class="st25" d="M394.8,405.3L394.8,405.3"/>
				<path class="st25" d="M400.2,405.3L400.2,405.3"/>
				<path class="st25" d="M405.6,405.3L405.6,405.3"/>
				<path class="st25" d="M392.2,402.6L392.2,402.6"/>
				<path class="st25" d="M397.5,402.6L397.5,402.6"/>
				<path class="st25" d="M402.9,402.6L402.9,402.6"/>
				<path class="st25" d="M394.8,399.9L394.8,399.9"/>
				<path class="st25" d="M400.2,399.9L400.2,399.9"/>
				<path class="st25" d="M405.6,399.9L405.6,399.9"/>
				<path class="st25" d="M392.2,397.3L392.2,397.3"/>
				<path class="st25" d="M397.5,397.3L397.5,397.3"/>
				<path class="st25" d="M402.9,397.3L402.9,397.3"/>
				<path class="st25" d="M394.8,394.6L394.8,394.6"/>
				<path class="st25" d="M400.2,394.6L400.2,394.6"/>
				<path class="st25" d="M405.6,394.6L405.6,394.6"/>
				<path class="st25" d="M392.2,391.9L392.2,391.9"/>
				<path class="st25" d="M397.5,391.9L397.5,391.9"/>
				<path class="st25" d="M402.9,391.9L402.9,391.9"/>
				<path class="st25" d="M394.8,389.2L394.8,389.2"/>
				<path class="st25" d="M400.2,389.2L400.2,389.2"/>
				<path class="st25" d="M405.6,389.2L405.6,389.2"/>
				<path class="st25" d="M392.2,386.5L392.2,386.5"/>
				<path class="st25" d="M397.5,386.5L397.5,386.5"/>
				<path class="st25" d="M402.9,386.5L402.9,386.5"/>
				<path class="st25" d="M394.8,383.8L394.8,383.8"/>
				<path class="st25" d="M400.2,383.8L400.2,383.8"/>
				<path class="st25" d="M405.6,383.8L405.6,383.8"/>
				<path class="st25" d="M392.2,381.2L392.2,381.2"/>
				<path class="st25" d="M397.5,381.2L397.5,381.2"/>
				<path class="st25" d="M402.9,381.2L402.9,381.2"/>
				<path class="st25" d="M394.8,378.5L394.8,378.5"/>
				<path class="st25" d="M400.2,378.5L400.2,378.5"/>
				<path class="st25" d="M405.6,378.5L405.6,378.5"/>
				<path class="st25" d="M392.2,375.8L392.2,375.8"/>
				<path class="st25" d="M397.5,375.8L397.5,375.8"/>
				<path class="st25" d="M402.9,375.8L402.9,375.8"/>
				<path class="st25" d="M394.8,373.1L394.8,373.1"/>
				<path class="st25" d="M400.2,373.1L400.2,373.1"/>
				<path class="st25" d="M405.6,373.1L405.6,373.1"/>
				<path class="st25" d="M392.2,370.5L392.2,370.5"/>
				<path class="st25" d="M397.5,370.5L397.5,370.5"/>
				<path class="st25" d="M402.9,370.5L402.9,370.5"/>
				<path class="st25" d="M394.8,367.7L394.8,367.7"/>
				<path class="st25" d="M400.2,367.7L400.2,367.7"/>
				<path class="st25" d="M405.6,367.7L405.6,367.7"/>
				<polygon class="st1" points="387.6,465.2 339.3,465.2 338,462.5 388.9,462.5 				"/>
				<path class="st25" d="M383.4,365.1L383.4,365.1"/>
				<path class="st25" d="M379.2,365.1L379.2,365.1"/>
				<path class="st28" d="M375.3,365.1L375.3,365.1"/>
				<path class="st28" d="M383.4,374.4L383.4,374.4"/>
				<path class="st25" d="M379.2,374.4L379.2,374.4"/>
				<path class="st25" d="M375.3,374.4L375.3,374.4"/>
				<line class="st27" x1="341.7" y1="386" x2="385.2" y2="386"/>
				<path class="st25" d="M383.4,382.5L383.4,382.5"/>
				<path class="st28" d="M379.2,382.5L379.2,382.5"/>
				<path class="st25" d="M375.3,382.5L375.3,382.5"/>
				<line class="st27" x1="341.7" y1="394.1" x2="385.2" y2="394.1"/>
				<path class="st28" d="M383.4,390.5L383.4,390.5"/>
				<path class="st25" d="M379.2,390.5L379.2,390.5"/>
				<path class="st25" d="M375.3,390.5L375.3,390.5"/>
				<line class="st27" x1="341.7" y1="402.1" x2="385.2" y2="402.1"/>
				<path class="st25" d="M383.4,398.6L383.4,398.6"/>
				<path class="st25" d="M379.2,398.6L379.2,398.6"/>
				<path class="st28" d="M375.3,398.6L375.3,398.6"/>
				<line class="st27" x1="341.7" y1="410.2" x2="385.2" y2="410.2"/>
				<path class="st25" d="M383.4,406.6L383.4,406.6"/>
				<path class="st25" d="M379.2,406.6L379.2,406.6"/>
				<path class="st25" d="M375.3,406.6L375.3,406.6"/>
				<line class="st27" x1="341.7" y1="418.2" x2="385.2" y2="418.2"/>
				<path class="st25" d="M383.4,414.7L383.4,414.7"/>
				<path class="st28" d="M379.2,414.7L379.2,414.7"/>
				<path class="st25" d="M375.3,414.7L375.3,414.7"/>
				<line class="st27" x1="341.7" y1="426.3" x2="385.2" y2="426.3"/>
				<path class="st25" d="M383.4,422.8L383.4,422.8"/>
				<path class="st25" d="M379.2,422.8L379.2,422.8"/>
				<path class="st25" d="M375.3,422.8L375.3,422.8"/>
				<line class="st27" x1="341.7" y1="434.3" x2="385.2" y2="434.3"/>
				<path class="st28" d="M383.4,430.8L383.4,430.8"/>
				<path class="st25" d="M379.2,430.8L379.2,430.8"/>
				<path class="st25" d="M375.3,430.8L375.3,430.8"/>
				<line class="st27" x1="341.7" y1="442.4" x2="385.2" y2="442.4"/>
				<path class="st25" d="M383.4,438.8L383.4,438.8"/>
				<path class="st25" d="M379.2,438.8L379.2,438.8"/>
				<path class="st25" d="M375.3,438.8L375.3,438.8"/>
				<line class="st27" x1="341.7" y1="450.4" x2="385.2" y2="450.4"/>
				<path class="st25" d="M383.4,446.9L383.4,446.9"/>
				<path class="st25" d="M379.2,446.9L379.2,446.9"/>
				<path class="st25" d="M375.3,446.9L375.3,446.9"/>
			</g>
		</g>
	</g>
</g>
</svg>
