<svg id="Layer_1" data-name="Layer 1" xmlns="http://www.w3.org/2000/svg" xmlns:xlink="http://www.w3.org/1999/xlink" viewBox="0 0 383.49 218.69"><defs><style>.cls-1{fill:url(#linear-gradient);}.cls-19,.cls-2,.cls-22,.cls-23,.cls-24,.cls-25,.cls-26,.cls-28,.cls-30,.cls-4,.cls-5{fill:none;}.cls-2,.cls-21,.cls-3,.cls-30{stroke:#ef4e23;}.cls-17,.cls-19,.cls-2,.cls-23,.cls-24,.cls-25,.cls-30,.cls-4,.cls-5,.cls-6,.cls-7{stroke-miterlimit:10;}.cls-2,.cls-23,.cls-24,.cls-25,.cls-30{stroke-width:0.75px;}.cls-2{stroke-dasharray:1.63 1.63;}.cls-21,.cls-29,.cls-3{fill:#ef4e23;}.cls-21,.cls-22,.cls-25,.cls-26,.cls-28,.cls-3,.cls-5{stroke-linecap:round;}.cls-21,.cls-22,.cls-26,.cls-28,.cls-3{stroke-linejoin:round;}.cls-3{stroke-width:0.85px;}.cls-22,.cls-26,.cls-28,.cls-4,.cls-5{stroke:#fff;}.cls-5{opacity:0.3;}.cls-20,.cls-5{isolation:isolate;}.cls-17,.cls-18,.cls-6,.cls-7{fill:#fff;}.cls-17,.cls-6,.cls-7{stroke:#d3d3d3;}.cls-6,.cls-7{stroke-width:0.5px;}.cls-6{stroke-dasharray:1.03 1.03;}.cls-8{fill:#727176;}.cls-9{fill:#208fce;}.cls-10{fill:#f2f2f2;}.cls-11{fill:#d3d3d3;}.cls-12{fill:#238fcf;}.cls-13{fill:#1bbfd3;}.cls-14{fill:#79bf43;}.cls-15{fill:#1d4489;}.cls-16{fill:#e6e6e5;}.cls-17{stroke-width:0.46px;}.cls-19,.cls-23,.cls-25{stroke:#495665;}.cls-19{stroke-width:0.53px;}.cls-20,.cls-27{fill:#495665;}.cls-20{opacity:0.15;}.cls-21{stroke-width:0.39px;}.cls-22{stroke-width:0.57px;}.cls-24{stroke:#4b5666;}.cls-26{stroke-width:0.59px;}.cls-28{stroke-width:0.61px;}.cls-30{stroke-dasharray:1.78 1.78;}</style><linearGradient id="linear-gradient" x1="164.35" y1="197.2" x2="164.35" y2="119.11" gradientUnits="userSpaceOnUse"><stop offset="0" stop-color="#727277" stop-opacity="0.7"/><stop offset="0.61" stop-color="#e6e6e5" stop-opacity="0.05"/></linearGradient></defs><polygon class="cls-1" points="148.39 197.2 95.35 119.11 233.35 119.11 180.93 197.13 148.39 197.2"/><line class="cls-2" x1="225.79" y1="80.09" x2="259.16" y2="80.09"/><line class="cls-2" x1="65.91" y1="80.09" x2="101.8" y2="80.09"/><g id="Layer_2" data-name="Layer 2"><g id="Layer_1-2" data-name="Layer 1-2"><path class="cls-3" d="M7.13,70.47v32.18a4.59,4.59,0,0,0,2.31,4l27.84,16.09a4.6,4.6,0,0,0,4.62,0l27.89-16.09a4.59,4.59,0,0,0,2.31-4V70.47a4.62,4.62,0,0,0-2.31-4L41.92,50.38a4.58,4.58,0,0,0-4.61,0L9.44,66.47A4.62,4.62,0,0,0,7.13,70.47Z" transform="translate(-6.7 -6.47)"/><path class="cls-4" d="M42.5,63.19l2.93,4.37A3.48,3.48,0,0,0,49,69.05l5.14-1a3.46,3.46,0,0,1,4.07,2.71,3.51,3.51,0,0,1,0,1.37l-1,5.11a3.48,3.48,0,0,0,1.48,3.62L63,83.71a3.47,3.47,0,0,1,1,4.81,3.38,3.38,0,0,1-1,1l-4.36,2.9A3.47,3.47,0,0,0,57.14,96l1,5.13a3.46,3.46,0,0,1-2.7,4.08,3.51,3.51,0,0,1-1.37,0L49,104.09a3.48,3.48,0,0,0-3.53,1.47l-2.9,4.37a3.47,3.47,0,0,1-4.81,1,3.65,3.65,0,0,1-1-1l-2.92-4.37a3.48,3.48,0,0,0-3.58-1.47l-5.13,1a3.45,3.45,0,0,1-4.07-2.71,3.51,3.51,0,0,1,0-1.37l1-5.13a3.47,3.47,0,0,0-1.48-3.57l-4.36-2.9a3.45,3.45,0,0,1-1-4.79,3.52,3.52,0,0,1,1-1l4.36-2.85a3.48,3.48,0,0,0,1.48-3.62l-1-5.13A3.43,3.43,0,0,1,23.74,68a3.26,3.26,0,0,1,1.39,0l5.13,1a3.48,3.48,0,0,0,3.58-1.48l2.89-4.37a3.46,3.46,0,0,1,4.79-1A3.62,3.62,0,0,1,42.5,63.19Z" transform="translate(-6.7 -6.47)"/><circle class="cls-4" cx="32.91" cy="80.09" r="6.93"/><path class="cls-5" d="M39.62,94.64a8.08,8.08,0,1,1,0-16.16" transform="translate(-6.7 -6.47)"/><circle class="cls-4" cx="32.91" cy="80.09" r="13.86"/><path class="cls-5" d="M39.62,73.86a12.68,12.68,0,0,1,0,25.36" transform="translate(-6.7 -6.47)"/></g></g><rect class="cls-6" x="279.35" y="30.43" width="103.89" height="132.72"/><rect class="cls-7" x="297.55" y="42.07" width="67.5" height="35.61"/><rect class="cls-8" x="303.12" y="48.77" width="31.8" height="9.46"/><rect class="cls-9" x="313.42" y="67.98" width="9.46" height="9.46" transform="translate(238.73 384.39) rotate(-90)"/><rect class="cls-9" x="328.57" y="67.98" width="9.46" height="9.46" transform="translate(253.88 399.54) rotate(-90)"/><rect class="cls-10" x="344.65" y="61.76" width="8.96" height="8.96"/><path class="cls-11" d="M360.07,68.49V77H351.6V68.49h8.47m.5-.5H351.1v9.46h9.47V68Z" transform="translate(-6.7 -6.47)"/><rect class="cls-8" x="338.8" y="48.77" width="20.67" height="9.46"/><rect class="cls-7" x="297.55" y="84.18" width="67.5" height="35.61"/><rect class="cls-8" x="303.12" y="90.88" width="31.8" height="9.46"/><rect class="cls-9" x="313.42" y="110.1" width="9.46" height="9.46" transform="translate(196.61 426.51) rotate(-90)"/><rect class="cls-9" x="328.57" y="110.1" width="9.46" height="9.46" transform="translate(211.77 441.66) rotate(-90)"/><rect class="cls-10" x="344.65" y="103.88" width="8.96" height="8.96"/><path class="cls-11" d="M360.07,110.6v8.46H351.6V110.6h8.47m.5-.5H351.1v9.46h9.47V110.1Z" transform="translate(-6.7 -6.47)"/><rect class="cls-8" x="338.8" y="90.88" width="20.67" height="9.46"/><path class="cls-12" d="M341.48,155.56h-7a.89.89,0,0,1-.71-.34l-4.45-5.57a.91.91,0,0,1-.17-.78l1.69-6.82a.94.94,0,0,1,.48-.59l6.27-3.14a.89.89,0,0,1,.81,0l6.35,3.14a.9.9,0,0,1,.48.61l1.62,6.81a.9.9,0,0,1-.18.76l-4.48,5.58A.89.89,0,0,1,341.48,155.56Zm-7-.94h7l4.46-5.54-1.61-6.79L338,139.16l-6.25,3.13-1.68,6.79Z" transform="translate(-6.7 -6.47)"/><polygon class="cls-13" points="339.35 133.73 340.14 133.08 331.76 128.93 331.76 129.98 339.35 133.73"/><polygon class="cls-14" points="320.97 143.48 319.95 143.71 325.79 151.04 326.25 150.11 320.97 143.48"/><polygon class="cls-13" points="330.82 129.98 330.82 128.93 322.56 133.08 323.33 133.74 330.82 129.98"/><polygon class="cls-15" points="322.77 134.5 321.98 133.82 319.75 142.79 320.77 142.56 322.77 134.5"/><polygon class="cls-15" points="341.83 142.56 342.85 142.79 340.73 133.82 339.92 134.48 341.83 142.56"/><polygon class="cls-14" points="341.62 143.48 336.28 150.12 336.74 151.05 342.64 143.71 341.62 143.48"/><polygon class="cls-13" points="327.1 150.51 326.64 151.45 335.88 151.45 335.43 150.51 327.1 150.51"/><path class="cls-16" d="M101,51.11V122a9.93,9.93,0,0,0,5,8.63l60,34.68a9.86,9.86,0,0,0,10,0l60.14-34.68a9.94,9.94,0,0,0,5-8.63V51.11a10,10,0,0,0-5-8.61L176,7.81a10,10,0,0,0-10,0L106,42.5A10,10,0,0,0,101,51.11Z" transform="translate(-6.7 -6.47)"/><path class="cls-17" d="M138.73,109.15v32a4.57,4.57,0,0,0,2.29,4l27.71,16a4.54,4.54,0,0,0,4.59,0l27.76-16a4.6,4.6,0,0,0,2.3-4v-32a4.57,4.57,0,0,0-2.3-4l-27.73-16a4.61,4.61,0,0,0-4.6,0l-27.73,16A4.57,4.57,0,0,0,138.73,109.15Z" transform="translate(-6.7 -6.47)"/><path class="cls-17" d="M105.65,51.57v32a4.6,4.6,0,0,0,2.3,4l27.7,16a4.56,4.56,0,0,0,4.6,0l27.76-16a4.57,4.57,0,0,0,2.29-4v-32a4.58,4.58,0,0,0-2.29-4l-27.73-16a4.61,4.61,0,0,0-4.6,0L108,47.6A4.59,4.59,0,0,0,105.65,51.57Z" transform="translate(-6.7 -6.47)"/><path class="cls-17" d="M171.8,52V84a4.58,4.58,0,0,0,2.3,4l27.7,16a4.56,4.56,0,0,0,4.6,0l27.75-16a4.56,4.56,0,0,0,2.3-4V52a4.57,4.57,0,0,0-2.3-4L206.42,32a4.59,4.59,0,0,0-4.59,0L174.1,48A4.59,4.59,0,0,0,171.8,52Z" transform="translate(-6.7 -6.47)"/><g id="Layer_2-2" data-name="Layer 2"><g id="Layer_1-2-2" data-name="Layer 1-2"><path class="cls-18" d="M193.69,87a5.2,5.2,0,0,1-2.75-4.59V62.71l12.84-2.26,12.84,2.26V82.38A5.19,5.19,0,0,1,213.87,87l-10.09,5Z" transform="translate(-6.7 -6.47)"/><path class="cls-18" d="M193.69,87a5.2,5.2,0,0,1-2.75-4.59V62.71l12.84-2.26,12.84,2.26V82.38A5.19,5.19,0,0,1,213.87,87l-10.09,5Z" transform="translate(-6.7 -6.47)"/><path class="cls-19" d="M193.69,87a5.2,5.2,0,0,1-2.75-4.59V62.71l12.84-2.26,12.84,2.26V82.38A5.19,5.19,0,0,1,213.87,87l-10.09,5Z" transform="translate(-6.7 -6.47)"/><path class="cls-19" d="M192.55,82.38V64.08l11.23-2,11.23,2v18.3a3.59,3.59,0,0,1-1.9,3.2l-9.33,4.59-9.33-4.59A3.59,3.59,0,0,1,192.55,82.38Z" transform="translate(-6.7 -6.47)"/><path class="cls-20" d="M203.78,62.07l11.23,2v18.3a3.59,3.59,0,0,1-1.9,3.2l-9.33,4.59V88.55l-.4-.4V63.68l.4-.38Z" transform="translate(-6.7 -6.47)"/><path class="cls-20" d="M216.62,62.71l-12.84-2.26-12.72,2.14,1.49,1.49,11.23-2,11.23,2V82.65a3.22,3.22,0,0,1-1.69,2.83l-9.54,4.67V92l10.3-5.11a4.82,4.82,0,0,0,2.54-4.24Z" transform="translate(-6.7 -6.47)"/><polygon class="cls-20" points="197.08 53.98 184.36 56.12 185.85 57.61 197.08 55.6 197.08 53.98"/><polyline class="cls-20" points="186.25 76.46 187.05 75.26 187.05 58.81 186.25 58.01"/><polyline class="cls-20" points="207.91 76.46 207.11 75.26 207.11 58.81 207.91 58.01"/><path class="cls-21" d="M197.58,73.63V78.8a1.69,1.69,0,0,0,.86,1.49l4.48,2.59a1.71,1.71,0,0,0,1.72,0l4.47-2.59A1.72,1.72,0,0,0,210,78.8V73.63a1.71,1.71,0,0,0-.86-1.49l-4.48-2.59a1.71,1.71,0,0,0-1.72,0l-4.47,2.59A1.71,1.71,0,0,0,197.58,73.63Z" transform="translate(-6.7 -6.47)"/><polyline class="cls-22" points="194.93 71.89 197.08 67.59 199.23 71.89"/></g></g><g id="Layer_2-3" data-name="Layer 2"><g id="Layer_1-2-3" data-name="Layer 1-2"><circle class="cls-23" cx="145.2" cy="69.95" r="1.77"/><circle class="cls-24" cx="118.53" cy="69.95" r="3.09"/><line class="cls-25" x1="125.88" y1="69.95" x2="121.62" y2="69.95"/><line class="cls-25" x1="143.28" y1="69.95" x2="139.01" y2="69.95"/><circle class="cls-23" cx="141.1" cy="61.11" r="1.77"/><line class="cls-25" x1="139.74" y1="62.47" x2="137" y2="65.21"/><circle class="cls-23" cx="141.1" cy="78.78" r="1.77"/><line class="cls-25" x1="139.74" y1="77.42" x2="137" y2="74.68"/><path class="cls-21" d="M132.78,73.76v5.32a1.8,1.8,0,0,0,.9,1.53l4.6,2.66a1.8,1.8,0,0,0,1.77,0l4.6-2.66a1.8,1.8,0,0,0,.9-1.53V73.76a1.79,1.79,0,0,0-.9-1.53L140,69.58a1.75,1.75,0,0,0-1.77,0l-4.59,2.67A1.76,1.76,0,0,0,132.78,73.76Z" transform="translate(-6.7 -6.47)"/><polyline class="cls-26" points="130.24 72.16 132.45 67.74 134.66 72.16"/></g></g><polyline class="cls-25" points="157.04 136.36 157.04 130.5 171.66 130.5 171.66 136.9"/><rect class="cls-18" x="151.91" y="133.64" width="10.34" height="10.34" rx="0.86"/><path class="cls-27" d="M168.09,140.37a.61.61,0,0,1,.61.61v8.62a.61.61,0,0,1-.61.61h-8.62a.61.61,0,0,1-.61-.61V141a.61.61,0,0,1,.61-.61h8.62m0-.5h-8.62a1.1,1.1,0,0,0-1.11,1.11v8.62a1.11,1.11,0,0,0,1.11,1.11h8.62a1.11,1.11,0,0,0,1.11-1.11V141a1.11,1.11,0,0,0-1.11-1.11Z" transform="translate(-6.7 -6.47)"/><polygon class="cls-18" points="158.9 142.16 158.96 140.75 160.38 140.81 160.32 142.16 158.9 142.16"/><path class="cls-27" d="M166.77,147.53v.86h-.86v-.86h.86m.31-.5H165.6a.19.19,0,0,0-.19.19v1.48a.19.19,0,0,0,.19.19h1.48a.2.2,0,0,0,.19-.19v-1.48a.2.2,0,0,0-.19-.19Z" transform="translate(-6.7 -6.47)"/><polygon class="cls-18" points="156.46 142.16 156.52 140.75 157.94 140.81 157.88 142.16 156.46 142.16"/><path class="cls-27" d="M164.33,147.53v.86h-.86v-.86h.86m.31-.5h-1.48a.2.2,0,0,0-.19.19v1.48a.2.2,0,0,0,.19.19h1.48a.19.19,0,0,0,.19-.19v-1.48a.19.19,0,0,0-.19-.19Z" transform="translate(-6.7 -6.47)"/><polygon class="cls-18" points="154.03 142.16 154.09 140.75 155.51 140.81 155.45 142.16 154.03 142.16"/><path class="cls-27" d="M161.9,147.53v.86H161v-.86h.86m.31-.5h-1.48a.19.19,0,0,0-.19.19v1.48a.19.19,0,0,0,.19.19h1.48a.2.2,0,0,0,.19-.19v-1.48a.2.2,0,0,0-.19-.19Z" transform="translate(-6.7 -6.47)"/><polygon class="cls-18" points="158.9 139.62 158.96 138.2 160.38 138.26 160.32 139.62 158.9 139.62"/><path class="cls-27" d="M166.77,145v.86h-.86V145h.86m.31-.5H165.6a.19.19,0,0,0-.19.19v1.48a.18.18,0,0,0,.19.19h1.48a.19.19,0,0,0,.19-.19v-1.48a.2.2,0,0,0-.19-.19Z" transform="translate(-6.7 -6.47)"/><polygon class="cls-18" points="156.46 139.62 156.52 138.2 157.94 138.26 157.88 139.62 156.46 139.62"/><path class="cls-27" d="M164.33,145v.86h-.86V145h.86m.31-.5h-1.48a.2.2,0,0,0-.19.19v1.48a.19.19,0,0,0,.19.19h1.48a.18.18,0,0,0,.19-.19v-1.48a.19.19,0,0,0-.19-.19Z" transform="translate(-6.7 -6.47)"/><polygon class="cls-18" points="154.03 139.62 154.09 138.2 155.51 138.26 155.45 139.62 154.03 139.62"/><path class="cls-27" d="M161.9,145v.86H161V145h.86m.31-.5h-1.48a.19.19,0,0,0-.19.19v1.48a.18.18,0,0,0,.19.19h1.48a.19.19,0,0,0,.19-.19v-1.48a.2.2,0,0,0-.19-.19Z" transform="translate(-6.7 -6.47)"/><polygon class="cls-18" points="158.9 136.87 158.96 135.45 160.38 135.51 160.32 136.87 158.9 136.87"/><path class="cls-27" d="M166.77,142.23v.86h-.86v-.86h.86m.31-.5H165.6a.19.19,0,0,0-.19.19v1.48a.18.18,0,0,0,.19.19h1.48a.19.19,0,0,0,.19-.19v-1.48a.2.2,0,0,0-.19-.19Z" transform="translate(-6.7 -6.47)"/><polygon class="cls-18" points="156.46 136.87 156.52 135.45 157.94 135.51 157.88 136.87 156.46 136.87"/><path class="cls-27" d="M164.33,142.23v.86h-.86v-.86h.86m.31-.5h-1.48a.2.2,0,0,0-.19.19v1.48a.19.19,0,0,0,.19.19h1.48a.18.18,0,0,0,.19-.19v-1.48a.19.19,0,0,0-.19-.19Z" transform="translate(-6.7 -6.47)"/><polygon class="cls-18" points="154.03 136.87 154.09 135.45 155.51 135.51 155.45 136.87 154.03 136.87"/><path class="cls-27" d="M161.9,142.23v.86H161v-.86h.86m.31-.5h-1.48a.19.19,0,0,0-.19.19v1.48a.18.18,0,0,0,.19.19h1.48a.19.19,0,0,0,.19-.19v-1.48a.2.2,0,0,0-.19-.19Z" transform="translate(-6.7 -6.47)"/><rect class="cls-18" x="166.45" y="133.64" width="10.34" height="10.34" rx="0.86"/><path class="cls-27" d="M182.64,140.37a.61.61,0,0,1,.61.61v8.62a.61.61,0,0,1-.61.61H174a.6.6,0,0,1-.6-.61V141a.6.6,0,0,1,.6-.61h8.63m0-.5H174a1.1,1.1,0,0,0-1.1,1.11v8.62a1.11,1.11,0,0,0,1.1,1.11h8.63a1.11,1.11,0,0,0,1.11-1.11V141a1.11,1.11,0,0,0-1.11-1.11Z" transform="translate(-6.7 -6.47)"/><polygon class="cls-18" points="173.45 142.16 173.51 140.75 174.92 140.81 174.87 142.16 173.45 142.16"/><path class="cls-27" d="M181.31,147.53v.86h-.85v-.86h.85m.31-.5h-1.47a.19.19,0,0,0-.19.19v1.48a.19.19,0,0,0,.19.19h1.47a.19.19,0,0,0,.19-.19v-1.48a.19.19,0,0,0-.19-.19Z" transform="translate(-6.7 -6.47)"/><polygon class="cls-18" points="171.01 142.16 171.07 140.75 172.49 140.81 172.43 142.16 171.01 142.16"/><path class="cls-27" d="M178.88,147.53v.86H178v-.86h.86m.31-.5h-1.48a.2.2,0,0,0-.19.19v1.48a.2.2,0,0,0,.19.19h1.48a.2.2,0,0,0,.19-.19v-1.48a.2.2,0,0,0-.19-.19Z" transform="translate(-6.7 -6.47)"/><polygon class="cls-18" points="168.58 142.16 168.64 140.75 170.05 140.81 170 142.16 168.58 142.16"/><path class="cls-27" d="M176.44,147.53v.86h-.85v-.86h.85m.31-.5h-1.47a.19.19,0,0,0-.19.19v1.48a.19.19,0,0,0,.19.19h1.47a.19.19,0,0,0,.19-.19v-1.48a.19.19,0,0,0-.19-.19Z" transform="translate(-6.7 -6.47)"/><polygon class="cls-18" points="173.45 139.62 173.51 138.2 174.92 138.26 174.87 139.62 173.45 139.62"/><path class="cls-27" d="M181.31,145v.86h-.85V145h.85m.31-.5h-1.47a.19.19,0,0,0-.19.19v1.48a.18.18,0,0,0,.19.19h1.47a.18.18,0,0,0,.19-.19v-1.48a.19.19,0,0,0-.19-.19Z" transform="translate(-6.7 -6.47)"/><polygon class="cls-18" points="171.01 139.62 171.07 138.2 172.49 138.26 172.43 139.62 171.01 139.62"/><path class="cls-27" d="M178.88,145v.86H178V145h.86m.31-.5h-1.48a.2.2,0,0,0-.19.19v1.48a.19.19,0,0,0,.19.19h1.48a.19.19,0,0,0,.19-.19v-1.48a.2.2,0,0,0-.19-.19Z" transform="translate(-6.7 -6.47)"/><polygon class="cls-18" points="168.58 139.62 168.64 138.2 170.05 138.26 170 139.62 168.58 139.62"/><path class="cls-27" d="M176.44,145v.86h-.85V145h.85m.31-.5h-1.47a.19.19,0,0,0-.19.19v1.48a.18.18,0,0,0,.19.19h1.47a.18.18,0,0,0,.19-.19v-1.48a.19.19,0,0,0-.19-.19Z" transform="translate(-6.7 -6.47)"/><polygon class="cls-18" points="173.45 136.87 173.51 135.45 174.92 135.51 174.87 136.87 173.45 136.87"/><path class="cls-27" d="M181.31,142.23v.86h-.85v-.86h.85m.31-.5h-1.47a.19.19,0,0,0-.19.19v1.48a.18.18,0,0,0,.19.19h1.47a.18.18,0,0,0,.19-.19v-1.48a.19.19,0,0,0-.19-.19Z" transform="translate(-6.7 -6.47)"/><polygon class="cls-18" points="171.01 136.87 171.07 135.45 172.49 135.51 172.43 136.87 171.01 136.87"/><path class="cls-27" d="M178.88,142.23v.86H178v-.86h.86m.31-.5h-1.48a.2.2,0,0,0-.19.19v1.48a.19.19,0,0,0,.19.19h1.48a.19.19,0,0,0,.19-.19v-1.48a.2.2,0,0,0-.19-.19Z" transform="translate(-6.7 -6.47)"/><polygon class="cls-18" points="168.58 136.87 168.64 135.45 170.05 135.51 170 136.87 168.58 136.87"/><path class="cls-27" d="M176.44,142.23v.86h-.85v-.86h.85m.31-.5h-1.47a.19.19,0,0,0-.19.19v1.48a.18.18,0,0,0,.19.19h1.47a.18.18,0,0,0,.19-.19v-1.48a.19.19,0,0,0-.19-.19Z" transform="translate(-6.7 -6.47)"/><line class="cls-25" x1="164.35" y1="124.31" x2="164.35" y2="130.39"/><path class="cls-21" d="M164.45,123.44V129a1.83,1.83,0,0,0,.91,1.58l4.78,2.76a1.82,1.82,0,0,0,1.83,0l4.77-2.76a1.85,1.85,0,0,0,.92-1.58v-5.51a1.83,1.83,0,0,0-.92-1.59L172,119.09a1.83,1.83,0,0,0-1.84,0l-4.77,2.76A1.83,1.83,0,0,0,164.45,123.44Z" transform="translate(-6.7 -6.47)"/><polyline class="cls-28" points="162.07 122.01 164.36 117.42 166.65 122.01"/><path class="cls-29" d="M128.23,47.26h2.35v2.25a2.93,2.93,0,0,1-1,.65,3.31,3.31,0,0,1-1.22.24,2.79,2.79,0,0,1-1.46-.4,3,3,0,0,1-1.08-1.07,2.79,2.79,0,0,1-.4-1.46,2.73,2.73,0,0,1,.4-1.45,3.1,3.1,0,0,1,1.08-1.08,2.89,2.89,0,0,1,1.46-.4,3.31,3.31,0,0,1,1.22.24,2.93,2.93,0,0,1,1,.65L130,46a1.94,1.94,0,0,0-.75-.5,2.24,2.24,0,0,0-.9-.19,1.93,1.93,0,0,0-1,.3,2.24,2.24,0,0,0-.77.79,2.11,2.11,0,0,0-.28,1.07,2.18,2.18,0,0,0,.28,1.08,2.24,2.24,0,0,0,.77.79,1.93,1.93,0,0,0,1,.3,2.18,2.18,0,0,0,.74-.13,2.23,2.23,0,0,0,.67-.34V48h-1.52Z" transform="translate(-6.7 -6.47)"/><path class="cls-29" d="M131.51,49.49l.49-.62a2.64,2.64,0,0,0,1.86.79,1.36,1.36,0,0,0,.88-.25.75.75,0,0,0,.31-.61.63.63,0,0,0-.33-.58,3.68,3.68,0,0,0-1.09-.38,5.18,5.18,0,0,1-1-.34,1.61,1.61,0,0,1-.64-.5,1.33,1.33,0,0,1-.23-.8,1.5,1.5,0,0,1,.26-.85,1.69,1.69,0,0,1,.7-.59,2.37,2.37,0,0,1,1-.22,3,3,0,0,1,1.13.21,3.4,3.4,0,0,1,.93.59l-.48.63a2.86,2.86,0,0,0-.77-.51,2.13,2.13,0,0,0-.85-.18,1.38,1.38,0,0,0-.55.11.89.89,0,0,0-.39.32.73.73,0,0,0-.14.42.57.57,0,0,0,.16.42,1.08,1.08,0,0,0,.45.27,5.15,5.15,0,0,0,.81.24,4,4,0,0,1,1.43.58,1.27,1.27,0,0,1,.48,1.07,1.58,1.58,0,0,1-.24.87,1.66,1.66,0,0,1-.7.6,2.73,2.73,0,0,1-1.12.22A3.21,3.21,0,0,1,131.51,49.49Z" transform="translate(-6.7 -6.47)"/><path class="cls-29" d="M141,49.53v.78h-3.84V44.64H138v4.89Z" transform="translate(-6.7 -6.47)"/><path class="cls-29" d="M142,44.64h2.69a1.84,1.84,0,0,1,.83.18,1.48,1.48,0,0,1,.57.51,1.34,1.34,0,0,1,.2.72,1.3,1.3,0,0,1-.2.73,1.66,1.66,0,0,1-.6.53,1.9,1.9,0,0,1,.76.62,1.4,1.4,0,0,1,.27.83,1.44,1.44,0,0,1-.22.8,1.51,1.51,0,0,1-.62.55,2,2,0,0,1-.9.2H142ZM144.51,47a1.05,1.05,0,0,0,.7-.23.72.72,0,0,0,.27-.58.73.73,0,0,0-.27-.58,1,1,0,0,0-.7-.23h-1.64V47Zm.13,2.57a1.09,1.09,0,0,0,.77-.26.83.83,0,0,0,.3-.67.85.85,0,0,0-.3-.67,1.14,1.14,0,0,0-.77-.26h-1.77v1.86Z" transform="translate(-6.7 -6.47)"/><path class="cls-29" d="M149.93,44.18h.89L148,50.92h-.89Z" transform="translate(-6.7 -6.47)"/><path class="cls-29" d="M116.94,52.93h2a3.38,3.38,0,0,1,1.61.37,2.75,2.75,0,0,1,0,4.93,3.5,3.5,0,0,1-1.61.37h-2Zm2,4.91a2.41,2.41,0,0,0,1.15-.27,2,2,0,0,0,.79-.73,2.07,2.07,0,0,0,.28-1.08,2,2,0,0,0-.28-1.07,2,2,0,0,0-.79-.73,2.41,2.41,0,0,0-1.15-.27h-1.17v4.15Z" transform="translate(-6.7 -6.47)"/><path class="cls-29" d="M123.3,52.93h.83l3.25,4.3v-4.3h.84V58.6h-.84l-3.25-4.3v4.3h-.83Z" transform="translate(-6.7 -6.47)"/><path class="cls-29" d="M129.41,57.78l.49-.62a2.63,2.63,0,0,0,1.86.79,1.36,1.36,0,0,0,.88-.25.78.78,0,0,0,.31-.61.63.63,0,0,0-.33-.58,3.68,3.68,0,0,0-1.09-.38,5.18,5.18,0,0,1-1.05-.34,1.61,1.61,0,0,1-.64-.5,1.33,1.33,0,0,1-.23-.8,1.52,1.52,0,0,1,.26-.85,1.69,1.69,0,0,1,.7-.59,2.37,2.37,0,0,1,1-.22,3,3,0,0,1,1.13.21,3.4,3.4,0,0,1,.93.59l-.48.63a2.76,2.76,0,0,0-.78-.51,2,2,0,0,0-.84-.18,1.38,1.38,0,0,0-.55.11.89.89,0,0,0-.39.32.73.73,0,0,0-.14.42.57.57,0,0,0,.16.42,1.08,1.08,0,0,0,.45.27,5.15,5.15,0,0,0,.81.24,4,4,0,0,1,1.43.58,1.27,1.27,0,0,1,.48,1.07,1.58,1.58,0,0,1-.24.87,1.66,1.66,0,0,1-.7.6,2.73,2.73,0,0,1-1.12.22A3.21,3.21,0,0,1,129.41,57.78Z" transform="translate(-6.7 -6.47)"/><path class="cls-29" d="M137.09,52.47H138l-2.87,6.74h-.89Z" transform="translate(-6.7 -6.47)"/><path class="cls-29" d="M138.84,52.93h.83V58.6h-.83Z" transform="translate(-6.7 -6.47)"/><path class="cls-29" d="M141.36,52.93h2.38a2.33,2.33,0,0,1,1.06.24,1.75,1.75,0,0,1,.76.66,1.75,1.75,0,0,1,0,1.9,1.82,1.82,0,0,1-.76.66,2.33,2.33,0,0,1-1.06.24h-1.55v2h-.83Zm2.25,2.92a1.61,1.61,0,0,0,1-.29,1,1,0,0,0,0-1.56,1.55,1.55,0,0,0-1-.29h-1.42v2.14Z" transform="translate(-6.7 -6.47)"/><path class="cls-29" d="M150.75,57.42h-2.93l-.51,1.18h-.92l2.43-5.67h.92l2.44,5.67h-.93Zm-.31-.73L149.28,54l-1.15,2.69Z" transform="translate(-6.7 -6.47)"/><path class="cls-29" d="M153.22,52.93h.83l2,3.7,2-3.7h.83V58.6H158v-4l-2,3.7-2-3.7v4h-.83Z" transform="translate(-6.7 -6.47)"/><path class="cls-29" d="M193.83,49.59h.92l1.4,4.32,1.42-4.32h.91l1.42,4.32,1.39-4.32h.92l-1.86,5.66h-.83L198,50.74l-1.5,4.51h-.84Z" transform="translate(-6.7 -6.47)"/><path class="cls-29" d="M207,54.07h-2.94l-.5,1.18h-.92l2.43-5.66H206l2.43,5.66h-.92Zm-.32-.72-1.15-2.69-1.15,2.69Z" transform="translate(-6.7 -6.47)"/><path class="cls-29" d="M210.34,50.36V52h3v.78h-3v2.46h-.84V49.59h4.16v.77Z" transform="translate(-6.7 -6.47)"/><path class="cls-29" d="M157.41,102.24h.83v5.66h-.83Z" transform="translate(-6.7 -6.47)"/><path class="cls-29" d="M162.75,103.75a1.42,1.42,0,0,1,.56.58,1.74,1.74,0,0,1,.21.86v2.71h-.8v-2.57a1.12,1.12,0,0,0-.27-.78.9.9,0,0,0-.71-.3,1.31,1.31,0,0,0-.59.14,1.17,1.17,0,0,0-.43.36,1,1,0,0,0-.15.51v2.64h-.82v-4.26h.82v.63a1.41,1.41,0,0,1,.55-.53,1.7,1.7,0,0,1,.81-.2A1.61,1.61,0,0,1,162.75,103.75Z" transform="translate(-6.7 -6.47)"/><path class="cls-29" d="M168.67,103.64v3.81a1.79,1.79,0,0,1-.27,1,1.91,1.91,0,0,1-.77.66,2.51,2.51,0,0,1-1.11.24,3,3,0,0,1-1-.16,2.46,2.46,0,0,1-.79-.41l.33-.61a1.62,1.62,0,0,0,.59.35,2.31,2.31,0,0,0,.75.12,1.64,1.64,0,0,0,1.07-.31,1.06,1.06,0,0,0,.39-.87v-.62a1.86,1.86,0,0,1-.64.58,1.91,1.91,0,0,1-.86.2,1.93,1.93,0,0,1-1-.26,1.71,1.71,0,0,1-.69-.72,2.25,2.25,0,0,1,0-2.1,1.75,1.75,0,0,1,.69-.71,1.93,1.93,0,0,1,1-.26,1.79,1.79,0,0,1,.86.21,1.85,1.85,0,0,1,.64.57v-.68Zm-1.17,2.87a1.42,1.42,0,0,0,0-1.89,1.27,1.27,0,0,0-.94-.37,1.23,1.23,0,0,0-.93.37,1.25,1.25,0,0,0-.37.94,1.27,1.27,0,0,0,.37,1,1.23,1.23,0,0,0,.93.37A1.27,1.27,0,0,0,167.5,106.51Z" transform="translate(-6.7 -6.47)"/><path class="cls-29" d="M171.44,103.79a1.92,1.92,0,0,1,1-.25v.71a2,2,0,0,0-.83.17,1.34,1.34,0,0,0-.56.49,1.4,1.4,0,0,0-.19.73v2.26H170v-4.26h.82v.83A1.54,1.54,0,0,1,171.44,103.79Z" transform="translate(-6.7 -6.47)"/><path class="cls-29" d="M175.92,107.19a1.58,1.58,0,0,0,.56-.35l.48.5a2,2,0,0,1-.77.48,2.72,2.72,0,0,1-1,.18,2.2,2.2,0,0,1-1.09-.29,2.22,2.22,0,0,1-.81-.8,2.35,2.35,0,0,1,0-2.28,2.07,2.07,0,0,1,.78-.8,2.13,2.13,0,0,1,1.08-.29,1.92,1.92,0,0,1,1.1.31,1.83,1.83,0,0,1,.71.86,3.21,3.21,0,0,1,.25,1.32h-3.41a1.52,1.52,0,0,0,.45.94,1.3,1.3,0,0,0,.94.36A2,2,0,0,0,175.92,107.19Zm-1.61-2.64a1.44,1.44,0,0,0-.47.88h2.61a1.47,1.47,0,0,0-.4-.87,1.11,1.11,0,0,0-.86-.34A1.28,1.28,0,0,0,174.31,104.55Z" transform="translate(-6.7 -6.47)"/><path class="cls-29" d="M178.64,107.84a2.87,2.87,0,0,1-.86-.47l.37-.56a3.5,3.5,0,0,0,.73.4,2.07,2.07,0,0,0,.72.13,1.1,1.1,0,0,0,.61-.15.5.5,0,0,0,.22-.43.43.43,0,0,0-.24-.4,3,3,0,0,0-.75-.28,3.41,3.41,0,0,1-1.12-.49.87.87,0,0,1-.34-.75,1.14,1.14,0,0,1,.43-.94,1.69,1.69,0,0,1,1.12-.36,2.85,2.85,0,0,1,.81.13,2.82,2.82,0,0,1,.76.37l-.34.57a2.39,2.39,0,0,0-1.23-.41,1,1,0,0,0-.56.15.46.46,0,0,0-.22.4.38.38,0,0,0,.1.26,1,1,0,0,0,.3.18l.62.21a7.83,7.83,0,0,1,.75.26,1.23,1.23,0,0,1,.49.38,1,1,0,0,1,.2.64,1.17,1.17,0,0,1-.45,1,1.82,1.82,0,0,1-1.17.36A2.87,2.87,0,0,1,178.64,107.84Z" transform="translate(-6.7 -6.47)"/><path class="cls-29" d="M182.64,107.84a2.81,2.81,0,0,1-.85-.47l.37-.56a3.2,3.2,0,0,0,.72.4,2.12,2.12,0,0,0,.73.13,1.07,1.07,0,0,0,.6-.15.51.51,0,0,0,.23-.43.43.43,0,0,0-.24-.4,3.32,3.32,0,0,0-.75-.28,3.31,3.31,0,0,1-1.12-.49.88.88,0,0,1-.35-.75,1.15,1.15,0,0,1,.44-.94,1.66,1.66,0,0,1,1.11-.36,2.84,2.84,0,0,1,1.58.5l-.34.57a2.39,2.39,0,0,0-1.24-.41.94.94,0,0,0-.55.15.44.44,0,0,0-.22.4.34.34,0,0,0,.1.26.85.85,0,0,0,.29.18l.62.21c.31.09.56.18.76.26a1.38,1.38,0,0,1,.49.38,1,1,0,0,1,.19.64,1.17,1.17,0,0,1-.45,1,1.79,1.79,0,0,1-1.16.36A2.93,2.93,0,0,1,182.64,107.84Z" transform="translate(-6.7 -6.47)"/><path class="cls-29" d="M153.06,115.89a3.07,3.07,0,0,1-1.08-1.07,2.8,2.8,0,0,1,0-2.92,3.07,3.07,0,0,1,1.08-1.07,2.83,2.83,0,0,1,2.59-.16,2.73,2.73,0,0,1,.95.65l-.58.56a2.26,2.26,0,0,0-.69-.5,2,2,0,0,0-.82-.18,2,2,0,0,0-1,.29,2.24,2.24,0,0,0-.76.8,2.1,2.1,0,0,0-.29,1.07,2.12,2.12,0,0,0,.29,1.07,2.24,2.24,0,0,0,.76.8,2,2,0,0,0,1.86.11,2.26,2.26,0,0,0,.69-.5l.58.56a2.86,2.86,0,0,1-2.09.89A2.76,2.76,0,0,1,153.06,115.89Z" transform="translate(-6.7 -6.47)"/><path class="cls-29" d="M158.34,116a2.15,2.15,0,0,1-.82-.82,2.07,2.07,0,0,1-.31-1.11,2.13,2.13,0,0,1,.31-1.12,2.2,2.2,0,0,1,.82-.81,2.15,2.15,0,0,1,1.11-.3,2.19,2.19,0,0,1,1.12.3,2.27,2.27,0,0,1,.82.81,2.21,2.21,0,0,1,.3,1.12,2.15,2.15,0,0,1-.3,1.11,2.22,2.22,0,0,1-.82.82,2.19,2.19,0,0,1-1.12.3A2.15,2.15,0,0,1,158.34,116Zm1.83-.61a1.55,1.55,0,0,0,.71-1.32,1.69,1.69,0,0,0-.19-.77,1.61,1.61,0,0,0-.52-.55,1.39,1.39,0,0,0-.72-.2,1.36,1.36,0,0,0-.71.2,1.52,1.52,0,0,0-.52.55,1.57,1.57,0,0,0-.19.77,1.53,1.53,0,0,0,.19.76,1.55,1.55,0,0,0,.52.56,1.36,1.36,0,0,0,.71.2A1.39,1.39,0,0,0,160.17,115.38Z" transform="translate(-6.7 -6.47)"/><path class="cls-29" d="M165.68,112a1.45,1.45,0,0,1,.57.58,1.85,1.85,0,0,1,.2.86v2.71h-.79v-2.57a1.12,1.12,0,0,0-.27-.78.91.91,0,0,0-.71-.3,1.36,1.36,0,0,0-.6.14,1.06,1.06,0,0,0-.42.36.88.88,0,0,0-.16.51v2.64h-.82v-4.26h.82v.63a1.43,1.43,0,0,1,.56-.53,1.67,1.67,0,0,1,.8-.2A1.59,1.59,0,0,1,165.68,112Z" transform="translate(-6.7 -6.47)"/><path class="cls-29" d="M169.82,116a1.71,1.71,0,0,1-.4.22,1.44,1.44,0,0,1-.46.08,1.06,1.06,0,0,1-.8-.32,1.17,1.17,0,0,1-.32-.84v-2.51h-.63v-.69h.63v-1.17h.8v1.17h1v.69h-1v2.45a.57.57,0,0,0,.13.37.45.45,0,0,0,.32.14.64.64,0,0,0,.24,0,.68.68,0,0,0,.19-.11Z" transform="translate(-6.7 -6.47)"/><path class="cls-29" d="M172.1,112.08a1.92,1.92,0,0,1,1-.25v.71a2,2,0,0,0-.83.17,1.34,1.34,0,0,0-.56.49,1.4,1.4,0,0,0-.2.73v2.26h-.81v-4.26h.81v.83A1.62,1.62,0,0,1,172.1,112.08Z" transform="translate(-6.7 -6.47)"/><path class="cls-29" d="M174.8,116a2.3,2.3,0,0,1-.82-.82,2.15,2.15,0,0,1-.3-1.11,2.21,2.21,0,0,1,.3-1.12,2.35,2.35,0,0,1,.82-.81,2.24,2.24,0,0,1,2.24,0,2.25,2.25,0,0,1,.81.81,2.13,2.13,0,0,1,.31,1.12,2.07,2.07,0,0,1-.31,1.11,2.23,2.23,0,0,1-3,.82Zm1.83-.61a1.55,1.55,0,0,0,.52-.56,1.53,1.53,0,0,0,.19-.76,1.57,1.57,0,0,0-.19-.77,1.52,1.52,0,0,0-.52-.55,1.36,1.36,0,0,0-.71-.2,1.33,1.33,0,0,0-.71.2,1.52,1.52,0,0,0-.52.55,1.58,1.58,0,0,0-.2.77,1.59,1.59,0,0,0,.72,1.32,1.33,1.33,0,0,0,.71.2A1.36,1.36,0,0,0,176.63,115.38Z" transform="translate(-6.7 -6.47)"/><path class="cls-29" d="M179.15,110.43H180v5.76h-.81Z" transform="translate(-6.7 -6.47)"/><path class="cls-29" d="M181.3,110.43h.82v5.76h-.82Z" transform="translate(-6.7 -6.47)"/><path class="cls-29" d="M186,115.48a1.68,1.68,0,0,0,.56-.35l.47.5a1.84,1.84,0,0,1-.76.48,2.76,2.76,0,0,1-1,.18,2.2,2.2,0,0,1-1.09-.29,2.14,2.14,0,0,1-.81-.8,2.35,2.35,0,0,1,0-2.28,2.07,2.07,0,0,1,.78-.8,2.1,2.1,0,0,1,1.07-.29,1.93,1.93,0,0,1,1.11.31,1.89,1.89,0,0,1,.71.86,3.38,3.38,0,0,1,.24,1.32h-3.4a1.52,1.52,0,0,0,.45.94,1.3,1.3,0,0,0,.94.36A2,2,0,0,0,186,115.48Zm-1.62-2.64a1.42,1.42,0,0,0-.46.88h2.6a1.41,1.41,0,0,0-.39-.87,1.12,1.12,0,0,0-.86-.34A1.31,1.31,0,0,0,184.39,112.84Z" transform="translate(-6.7 -6.47)"/><path class="cls-29" d="M189.71,112.08a1.92,1.92,0,0,1,1-.25v.71a2,2,0,0,0-.83.17,1.27,1.27,0,0,0-.75,1.22v2.26h-.82v-4.26h.82v.83A1.54,1.54,0,0,1,189.71,112.08Z" transform="translate(-6.7 -6.47)"/><path class="cls-29" d="M177.06,88.38h-4.63v4.68h-2.76V88.38H165V85.75h4.63V81h2.76v4.71h4.63Z" transform="translate(-6.7 -6.47)"/><polyline class="cls-30" points="284.58 101.49 259.16 101.49 259.16 58.68 284.58 58.68"/><polygon class="cls-29" points="283.93 99.25 287.81 101.49 283.93 103.74 283.93 99.25"/><polygon class="cls-29" points="283.93 60.92 287.81 58.68 283.93 56.44 283.93 60.92"/><path class="cls-29" d="M157.6,222.5h-2.93l-.51,1.18h-.92l2.43-5.66h.92l2.43,5.66h-.92Zm-.31-.73-1.16-2.68L155,221.77Z" transform="translate(-6.7 -6.47)"/><path class="cls-29" d="M162.9,219.52a1.45,1.45,0,0,1,.56.59,1.71,1.71,0,0,1,.2.86v2.71h-.79v-2.57a1.12,1.12,0,0,0-.27-.78.91.91,0,0,0-.71-.3,1.31,1.31,0,0,0-.59.13,1.12,1.12,0,0,0-.43.37.9.9,0,0,0-.16.5v2.65h-.81v-4.26h.81V220a1.48,1.48,0,0,1,.56-.52,1.67,1.67,0,0,1,.8-.2A1.73,1.73,0,0,1,162.9,219.52Z" transform="translate(-6.7 -6.47)"/><path class="cls-29" d="M167.83,219.8a1.78,1.78,0,0,1,.47,1.3v2.58h-.8v-.58a1.5,1.5,0,0,1-.61.5,1.9,1.9,0,0,1-.8.18,1.73,1.73,0,0,1-1.13-.37,1.23,1.23,0,0,1-.45-1,1.27,1.27,0,0,1,.23-.74,1.4,1.4,0,0,1,.62-.5,2,2,0,0,1,.86-.18,4.08,4.08,0,0,1,1.28.23v-.13a1.22,1.22,0,0,0-.25-.79,1,1,0,0,0-.84-.32,2.68,2.68,0,0,0-1.2.36l-.3-.6a3.57,3.57,0,0,1,1.61-.43A1.74,1.74,0,0,1,167.83,219.8Zm-.79,3.12a.91.91,0,0,0,.46-.58v-.57a4,4,0,0,0-1.16-.16,1.2,1.2,0,0,0-.74.22.68.68,0,0,0-.3.56.62.62,0,0,0,.26.54,1.09,1.09,0,0,0,.69.2A1.53,1.53,0,0,0,167,222.92Z" transform="translate(-6.7 -6.47)"/><path class="cls-29" d="M169.55,217.92h.81v5.76h-.81Z" transform="translate(-6.7 -6.47)"/><path class="cls-29" d="M171.44,225l.18-.63a1.07,1.07,0,0,0,.52.14.72.72,0,0,0,.35-.08.64.64,0,0,0,.24-.25l.21-.46-1.83-4.28H172l1.37,3.36,1.29-3.36h.85l-1.88,4.65a2,2,0,0,1-.56.82,1.28,1.28,0,0,1-.81.27A1.73,1.73,0,0,1,171.44,225Z" transform="translate(-6.7 -6.47)"/><path class="cls-29" d="M178.39,223.47a1.2,1.2,0,0,1-.4.22,1.22,1.22,0,0,1-.46.09,1,1,0,0,1-.8-.33,1.15,1.15,0,0,1-.32-.84v-2.5h-.63v-.69h.63v-1.17h.8v1.17h1v.69h-1v2.45a.53.53,0,0,0,.13.36.42.42,0,0,0,.32.15.64.64,0,0,0,.24,0,.5.5,0,0,0,.19-.11Z" transform="translate(-6.7 -6.47)"/><path class="cls-29" d="M179.3,218.56a.5.5,0,0,1-.14-.35.49.49,0,0,1,.14-.34.5.5,0,0,1,.35-.14.48.48,0,0,1,.34.14.46.46,0,0,1,.15.34.47.47,0,0,1-.15.35.45.45,0,0,1-.34.15A.47.47,0,0,1,179.3,218.56Zm-.06.86h.82v4.26h-.82Z" transform="translate(-6.7 -6.47)"/><path class="cls-29" d="M182.17,223.47a2.33,2.33,0,0,1-.83-.82,2.19,2.19,0,0,1,0-2.21,2.5,2.5,0,0,1,.83-.82,2.23,2.23,0,0,1,2-.13,2.48,2.48,0,0,1,.72.49l-.55.51a1.45,1.45,0,0,0-.47-.34,1.33,1.33,0,0,0-.55-.12,1.36,1.36,0,0,0-.71.2,1.58,1.58,0,0,0-.53.56,1.49,1.49,0,0,0-.19.75,1.57,1.57,0,0,0,.19.77,1.55,1.55,0,0,0,.53.55,1.28,1.28,0,0,0,.71.21,1.24,1.24,0,0,0,.56-.13,1.38,1.38,0,0,0,.48-.35l.55.5a2.42,2.42,0,0,1-.72.51,2.18,2.18,0,0,1-2-.13Z" transform="translate(-6.7 -6.47)"/><path class="cls-29" d="M186.18,223.61a2.66,2.66,0,0,1-.86-.47l.37-.56a2.77,2.77,0,0,0,.73.4,2.09,2.09,0,0,0,.72.14,1,1,0,0,0,.61-.16.47.47,0,0,0,.22-.42.45.45,0,0,0-.23-.41,3.4,3.4,0,0,0-.75-.27,3.38,3.38,0,0,1-1.13-.49.9.9,0,0,1-.34-.76,1.15,1.15,0,0,1,.43-.94,1.74,1.74,0,0,1,1.12-.35,2.54,2.54,0,0,1,.81.13,3.13,3.13,0,0,1,.76.36l-.34.58a2.39,2.39,0,0,0-1.23-.41,1.06,1.06,0,0,0-.56.14.47.47,0,0,0-.22.4.41.41,0,0,0,.1.27,1,1,0,0,0,.3.17l.62.21c.3.1.56.19.75.27a1.23,1.23,0,0,1,.49.38,1,1,0,0,1,.2.64,1.17,1.17,0,0,1-.45,1,1.82,1.82,0,0,1-1.17.36A2.93,2.93,0,0,1,186.18,223.61Z" transform="translate(-6.7 -6.47)"/><polyline class="cls-2" points="33.12 115.69 33.12 187 147.46 187"/><rect class="cls-18" x="147.09" y="175.53" width="33.78" height="22.91" rx="2.32"/><path class="cls-8" d="M186.44,182.77a1,1,0,0,1,1,1v19.82a.91.91,0,0,1-.89.93H155.58a.85.85,0,0,1-.82-.87v-20a.84.84,0,0,1,.81-.86h30.87m0-.9H155.57a1.74,1.74,0,0,0-1.72,1.76v20a1.75,1.75,0,0,0,1.73,1.78h30.94a1.82,1.82,0,0,0,1.79-1.84V183.79a1.89,1.89,0,0,0-1.87-1.92Z" transform="translate(-6.7 -6.47)"/><circle class="cls-8" cx="176.17" cy="180.86" r="0.91"/><circle class="cls-8" cx="172.58" cy="184.53" r="0.91"/><circle class="cls-8" cx="168.91" cy="186.31" r="0.91"/><circle class="cls-8" cx="165.31" cy="186.31" r="0.91"/><circle class="cls-8" cx="161.6" cy="184.48" r="0.91"/><circle class="cls-8" cx="158" cy="188.07" r="0.91"/><circle class="cls-8" cx="154.37" cy="189.98" r="0.91"/><path class="cls-8" d="M176.67,213.72H165.42a.71.71,0,0,1-.69-.51.74.74,0,0,1,.28-.83,18.91,18.91,0,0,1,2.68-1.22l.64-4.86.9.12-.72,5.4-.25.1c-.44.16-1.45.56-2.15.9H176c-.7-.34-1.72-.74-2.16-.9l-.26-.1-.52-5.41.9-.09.47,4.85a17.83,17.83,0,0,1,2.67,1.22.74.74,0,0,1,.28.82A.73.73,0,0,1,176.67,213.72Z" transform="translate(-6.7 -6.47)"/><rect class="cls-8" x="150.83" y="194.52" width="27.21" height="0.45"/><rect class="cls-8" x="150.76" y="178.15" width="1.81" height="0.45"/><rect class="cls-8" x="150.76" y="179.97" width="1.81" height="0.45"/><rect class="cls-8" x="150.76" y="181.78" width="1.81" height="0.45"/><rect class="cls-8" x="150.76" y="183.6" width="1.81" height="0.45"/><rect class="cls-8" x="150.76" y="185.41" width="1.81" height="0.45"/><rect class="cls-8" x="150.76" y="187.22" width="1.81" height="0.45"/><rect class="cls-8" x="150.76" y="189.04" width="1.81" height="0.45"/><rect class="cls-8" x="150.76" y="190.85" width="1.81" height="0.45"/><rect class="cls-8" x="150.76" y="192.67" width="1.81" height="0.45"/><polygon class="cls-8" points="154.44 190.1 154.23 189.7 157.84 187.84 161.57 184.15 165.18 186.12 168.78 186.12 172.33 184.32 175.98 180.64 176.3 180.96 172.57 184.71 168.89 186.57 165.06 186.57 161.65 184.71 158.07 188.23 154.44 190.1"/></svg>