<svg id="Layer_1" data-name="Layer 1" xmlns="http://www.w3.org/2000/svg" viewBox="0 0 1440 240"><defs><style>.cls-1{opacity:0.15;}.cls-2{fill:#fff;}.cls-3,.cls-4,.cls-5{fill:none;stroke:#fff;stroke-miterlimit:10;}.cls-3{stroke-width:0.5px;}.cls-5{stroke-width:0.75px;}.cls-6{opacity:0.3;}.cls-7{opacity:0.5;}</style></defs><title>dots-overlay</title><g class="cls-1"><circle class="cls-2" cx="42" cy="32.5" r="3.5"/><circle class="cls-2" cx="184.1" cy="41" r="3.5"/><circle class="cls-2" cx="229.5" cy="9" r="3.5"/><circle class="cls-2" cx="281.5" cy="37.5" r="3.5"/><circle class="cls-2" cx="222.5" cy="105.5" r="3.5"/><circle class="cls-2" cx="249.5" cy="149.5" r="3.5"/><circle class="cls-2" cx="368.8" cy="136.2" r="3.5"/><circle class="cls-2" cx="385.5" cy="178.2" r="3.5"/><circle class="cls-2" cx="453.5" cy="171.6" r="3.5"/><circle class="cls-2" cx="394" cy="71.5" r="3.5"/><circle class="cls-2" cx="335" cy="44.5" r="3.5"/><circle class="cls-2" cx="453.5" cy="43" r="3.5"/><circle class="cls-2" cx="484" cy="94.5" r="3.5"/><circle class="cls-2" cx="527.4" cy="148.7" r="3.5"/><circle class="cls-2" cx="571" cy="194.7" r="3.5"/><circle class="cls-2" cx="624" cy="204.7" r="3.5"/><circle class="cls-2" cx="681.2" cy="78.5" r="3.5"/><circle class="cls-2" cx="739.5" cy="82" r="3.5"/><circle class="cls-2" cx="773" cy="183.1" r="3.5"/><circle class="cls-2" cx="816.9" cy="209.7" r="3.5"/><circle class="cls-2" cx="803.3" cy="33.5" r="3.5"/><circle class="cls-2" cx="634" cy="55" r="3.5"/><circle class="cls-2" cx="585.5" cy="11" r="3.5"/><circle class="cls-2" cx="947.9" cy="40.3" r="3.5"/><circle class="cls-2" cx="994.5" cy="9.9" r="3.5"/><circle class="cls-2" cx="1043.5" cy="37" r="3.5"/><circle class="cls-2" cx="983.3" cy="108.7" r="3.5"/><circle class="cls-2" cx="1008.7" cy="150.5" r="3.5"/><circle class="cls-2" cx="1130.5" cy="137" r="3.5"/><circle class="cls-2" cx="1095" cy="43.8" r="3.5"/><circle class="cls-2" cx="927.3" cy="202.7" r="3.5"/><circle class="cls-2" cx="1040" cy="214.7" r="3.5"/><circle class="cls-2" cx="1148" cy="179" r="3.5"/><circle class="cls-2" cx="1215" cy="169" r="3.5"/><circle class="cls-2" cx="1159.5" cy="69.8" r="3.5"/><circle class="cls-2" cx="1215" cy="40.5" r="3.5"/><circle class="cls-2" cx="1245.5" cy="96" r="3.5"/><circle class="cls-2" cx="1289.5" cy="147.4" r="3.5"/><circle class="cls-2" cx="1332.4" cy="196.3" r="3.5"/><circle class="cls-2" cx="1384.2" cy="204.4" r="3.5"/><circle class="cls-2" cx="493.5" cy="221.2" r="3.5"/><polyline class="cls-3" points="12.5 -3.5 42 32.5 111 -3.5"/><polyline class="cls-3" points="42 32.5 184.1 41 195.5 -13"/><polyline class="cls-3" points="229.5 9 281.5 37.5 335 44.5 281.5 -16 281.5 37.5 249.5 149.5 222.5 105.5 229.5 9 184.1 0"/><line class="cls-4" x1="282.6" y1="38.8" x2="222.5" y2="105.5"/><line class="cls-4" x1="369.6" y1="136.2" x2="249.5" y2="149.5"/><polyline class="cls-3" points="333.7 43 394 71.5 368 136.5 281.5 37.5"/><polygon class="cls-5" points="394 71.5 453.5 43 484 94.5 394 71.5"/><line class="cls-4" x1="459" x2="453.5" y2="43"/><polyline class="cls-3" points="366.2 0 394 71.5 440.8 -1.2"/><polyline class="cls-3" points="394 71.5 453.5 171.6 527.4 148.7 493.5 221.2 385.5 178.2 335 44.5"/><line class="cls-4" x1="453.5" y1="172.8" x2="385" y2="176.9"/><line class="cls-4" x1="453.5" y1="171.6" x2="368.8" y2="136.2"/><polyline class="cls-3" points="571 240 624 204.7 646.5 242.8"/><polyline class="cls-3" points="624 204.7 731.2 228.5 773 182 816.9 208.5 816.9 240"/><polyline class="cls-3" points="681.2 77.2 739.5 82 772 183.1 681.2 78.5 624 204.7 571 194.7 493.5 221.2"/><line class="cls-4" x1="780.5" y1="111.2" x2="739.5" y2="83.2"/><polyline class="cls-3" points="630.5 -2.5 634 55 585.5 11 592.5 -7.5"/><line class="cls-4" x1="634" y1="55" x2="760" y2="-5"/><polyline class="cls-3" points="769.5 -7.5 803.3 33.5 885.5 -5"/><polyline class="cls-3" points="803.3 33.5 947.9 40.3 951.4 0 994.5 9.9 1043.5 37 1043.5 -14.5"/><polyline class="cls-3" points="1032.5 -14.5 1095 43.8 1043.5 37 1130.5 137 1008.7 150.5 983.3 108.7 994.5 9.9"/><polyline class="cls-3" points="983.3 108.7 1043.5 37 1008.7 150.5"/><polyline class="cls-3" points="1130.5 -5 1159.5 69.8 1130.5 137 1148 179 1218.5 169 1159.5 69.8 1249 96"/><polyline class="cls-3" points="1095 43.8 1159.5 69.8 1215 40.5 1245.5 99.5"/><line class="cls-4" x1="1215" y1="40.5" x2="1222.5" y2="-5"/><polyline class="cls-3" points="1215 169 1289.5 147.4 1252.2 222 1148 182.5"/><polyline class="cls-3" points="1440 76.5 1384.2 200.9 1332.4 196.3 1308.5 240"/><polyline class="cls-3" points="1323.5 240.4 1384.2 207.9 1417.5 247.5"/></g><g class="cls-6"><circle class="cls-2" cx="61.6" cy="173.2" r="6"/><circle class="cls-2" cx="180.6" cy="94.5" r="6"/><circle class="cls-2" cx="159.2" cy="231.9" r="6"/><circle class="cls-2" cx="284" cy="161.6" r="6"/><circle class="cls-2" cx="379.5" cy="201.7" r="6"/><circle class="cls-2" cx="508.3" cy="168.2" r="6"/><polyline class="cls-3" points="94.9 240 61.6 173.2 180.6 94.5 159.2 232 180.9 240.1"/><polyline class="cls-3" points="313.6 240.4 284 161.6 341.5 189.7 323.4 240"/><polyline class="cls-3" points="341.5 189.7 379.5 204.1 366.5 240"/><polyline class="cls-3" points="379.5 204.1 508.3 168.2 423.5 240.4"/><line class="cls-4" x1="508.3" y1="168.2" x2="548.4" y2="240.5"/></g><g class="cls-7"><circle class="cls-2" cx="922.3" cy="40.3" r="5"/><circle class="cls-2" cx="1033" cy="108.7" r="5"/><circle class="cls-2" cx="1095" cy="60" r="5"/><circle class="cls-2" cx="1186.5" cy="1.4" r="5"/><circle class="cls-2" cx="1149.5" cy="96" r="5"/><circle class="cls-2" cx="1172" cy="154.5" r="5"/><circle class="cls-2" cx="1240.5" cy="145.5" r="5"/><circle class="cls-2" cx="1308.2" cy="137" r="5"/><circle class="cls-2" cx="1303.2" cy="59" r="5"/><circle class="cls-2" cx="1363.7" cy="43.5" r="5"/><circle class="cls-2" cx="1414" cy="0.4" r="5"/><circle class="cls-2" cx="1425.5" cy="114" r="5"/><circle class="cls-2" cx="1384.2" cy="160.5" r="5"/><circle class="cls-2" cx="1289.5" cy="226" r="5"/><circle class="cls-2" cx="1380.2" cy="217" r="3"/><circle class="cls-2" cx="1425.5" cy="199.3" r="3"/><circle class="cls-2" cx="1420.5" cy="74" r="3"/><circle class="cls-2" cx="685.5" cy="211.7" r="3"/><circle class="cls-2" cx="490.5" cy="237" r="3"/><circle class="cls-2" cx="397" cy="186.1" r="3"/><circle class="cls-2" cx="341.5" cy="189.7" r="3"/><circle class="cls-2" cx="1021.7" cy="179" r="5" transform="translate(681.35 1158.83) rotate(-80.78)"/><circle class="cls-2" cx="862" cy="204.7" r="5"/><circle class="cls-2" cx="816.9" cy="153.7" r="5"/><circle class="cls-2" cx="779.5" cy="113.2" r="5"/><circle class="cls-2" cx="717" cy="181.1" r="5"/><circle class="cls-2" cx="414.5" cy="225" r="5"/><circle class="cls-2" cx="289" cy="240.4" r="5"/><circle class="cls-2" cx="262.5" cy="89.5" r="5"/><circle class="cls-2" cx="206" cy="32.5" r="5"/><circle class="cls-2" cx="200" cy="221.5" r="5"/><circle class="cls-2" cx="101.5" cy="199.7" r="5"/><circle class="cls-2" cx="14" cy="209.7" r="5"/><circle class="cls-2" cx="29.5" cy="100.5" r="5"/><circle class="cls-2" cx="666" cy="194.7" r="5"/><circle class="cls-2" cx="734.5" cy="214.7" r="5"/><line class="cls-4" x1="1440" y1="64" x2="1308.2" y2="137"/><line class="cls-4" x1="1363.7" y1="43.5" x2="1308.2" y2="137"/><line class="cls-4" x1="1303.2" y1="59" x2="1308.2" y2="137"/><line class="cls-4" x1="1308.2" y1="137" x2="1289.5" y2="226"/><line class="cls-4" x1="1308.2" y1="137" x2="1191.7" y2="210.3"/><line class="cls-4" x1="1308.2" y1="137" x2="1173" y2="155.5"/><line class="cls-4" x1="1303.2" y1="59" x2="1191.7" y2="210.3"/><line class="cls-4" x1="1384.2" y1="160.5" x2="1269" y2="240.2"/><line class="cls-4" x1="1440" y1="160.5" x2="1384.2" y2="160.5"/><line class="cls-4" x1="1380.2" y1="217" x2="1384.2" y2="160.5"/><line class="cls-4" x1="1425.5" y1="199.3" x2="1380.2" y2="217"/><line class="cls-4" x1="1425.5" y1="200.7" x2="1405.8" y2="239.8"/><line class="cls-4" x1="1425.5" y1="199.3" x2="1439.8" y2="206"/><line class="cls-4" x1="1363.7" y1="43.5" x2="1384.2" y2="160.5"/><line class="cls-4" x1="1363.7" y1="43.5" x2="1425.5" y2="114"/><line class="cls-4" x1="1334.4" x2="1363.7" y2="43.5"/><line class="cls-4" x1="1316" y1="-1.4" x2="1303.2" y2="59"/><line class="cls-4" x1="1363.7" y1="43.7" x2="1149.5" y2="96"/><line class="cls-4" x1="1414" x2="1425.5" y2="114"/><line class="cls-4" x1="1440" y1="81.8" x2="1421.5" y2="74"/><line class="cls-4" x1="1440.4" y1="127.3" x2="1423.5" y2="111.7"/><polyline class="cls-3" points="1414 0.4 1363.7 43.5 1186.5 1.4 1095 60 1149.5 94 1191.7 210.3 1368.9 240.1"/><polyline class="cls-3" points="1173 155.5 1021.7 179 1149.5 96 1187 1.7 1303.7 59"/><line class="cls-4" x1="1021.7" y1="179" x2="1122" y2="240.4"/><polyline class="cls-3" points="1156.4 240.4 1191.7 210.3 1189.1 240.4"/><line class="cls-4" x1="1022.7" y1="177.3" x2="956.9" y2="240.9"/><line class="cls-4" x1="1031.2" y1="109.7" x2="1149.5" y2="96"/><polyline class="cls-3" points="1034 108.7 922.3 40.3 1095 60"/><polyline class="cls-3" points="772 240.6 816.9 153.7 779.5 113.7 685.5 211.7"/><polyline class="cls-3" points="826.7 240 862 204.7 816.9 153.7 922.3 40.3 862 204.7 1033 108.7 1020.9 179 862 204.7 1071.8 240.4"/><polyline class="cls-3" points="803.3 240.4 734.5 214.7 705.3 240.5"/><line class="cls-4" x1="717.7" y1="240" x2="666" y2="194.7"/><line class="cls-4" x1="666.4" y1="194.7" x2="678.7" y2="240.4"/><line class="cls-4" x1="666.4" y1="194.7" x2="816.9" y2="153.7"/><polyline class="cls-3" points="779.5 113.7 490.5 237 397 186.1 341.5 189.7 397.2 240.1"/><polyline class="cls-3" points="424.3 240.1 414.5 225 289 240.4 262.5 89.5 716.4 181.1"/><polyline class="cls-3" points="206 32.5 29.5 100.5 200 221.5 206 32.5 262.5 89.5 200 221.5 289 240.4"/><polyline class="cls-3" points="177 240.4 200 221.5 101.5 199.7 29.5 100.5 14 209.7 36.4 240.4"/><line class="cls-4" x1="14" y1="209.7" x2="3.3" y2="240.1"/><polyline class="cls-3" points="94.9 240 101.5 199.7 19 209.7"/><polyline class="cls-3" points="0 95.5 29.5 100.5 0 56"/></g></svg>