<?xml version="1.0" encoding="utf-8"?>
<!-- Generator: Adobe Illustrator 18.1.1, SVG Export Plug-In . SVG Version: 6.00 Build 0)  -->
<svg version="1.1" xmlns="http://www.w3.org/2000/svg" xmlns:xlink="http://www.w3.org/1999/xlink" x="0px" y="0px"
	 viewBox="0 0 400 400" enable-background="new 0 0 400 400" xml:space="preserve">
<g id="BG_Color">
	<rect id="XMLID_624_" fill="#5FBAAB" width="400" height="400"/>
</g>
<g id="Icons">
	<g id="XMLID_631_">
		<g id="XMLID_634_">
			
				<path id="XMLID_629_" fill="none" stroke="#FFFFFF" stroke-width="3.6978" stroke-linecap="round" stroke-linejoin="round" stroke-miterlimit="10" d="
				M182.2,235.1l-2.3,16.3c0,1.2,1,2.2,2.3,2.2h35.7c1.3,0,2.3-1,2.3-2.2l-2.3-16.3"/>
			
				<path id="XMLID_628_" fill="none" stroke="#FFFFFF" stroke-width="3.6978" stroke-linecap="round" stroke-linejoin="round" stroke-miterlimit="10" d="
				M245.9,146.4h-91.9c-4.2,0-7.5,3.3-7.5,7.4v62.7c0,4.1,3.3,7.5,7.5,7.5h91.9c4.2,0,7.6-3.3,7.6-7.5v-62.7
				C253.5,149.7,250.2,146.4,245.9,146.4z"/>
			
				<line id="XMLID_627_" fill="none" stroke="#FFFFFF" stroke-width="3.6978" stroke-linecap="round" stroke-linejoin="round" stroke-miterlimit="10" x1="146.5" y1="209.2" x2="253.5" y2="209.2"/>
		</g>
		
			<path id="XMLID_626_" fill="none" stroke="#FFFFFF" stroke-width="3.6978" stroke-linecap="round" stroke-linejoin="round" stroke-miterlimit="10" d="
			M212.1,190c-5.9-2.3-12.5-5.2-13.1-7v-1.9c1.2-1.3,2.2-3,2.8-5.1c1.4-1,1.7-3,0.6-4.4v-4.2c0-4.3-2.4-7.3-7.9-7.3
			c-5.3,0-7.9,3-7.9,7.3v4.2c-1.1,1.4-0.8,3.4,0.6,4.4c0.6,2.1,1.5,3.8,2.8,5.1v1.9c-0.6,1.8-7.1,4.6-13.1,7
			c-0.5,0.2-0.8,0.7-0.8,1.2v4.7c0,0.7,0.6,1.3,1.3,1.3h34.2c0.7,0,1.3-0.6,1.3-1.3v-4.7C213,190.7,212.6,190.2,212.1,190z"/>
		
			<path id="XMLID_625_" fill="none" stroke="#FFFFFF" stroke-width="3.6978" stroke-linecap="round" stroke-linejoin="round" stroke-miterlimit="10" d="
			M222.1,197.3h8.4c0.5,0,0.9-0.4,0.9-1v-3.5c0-0.4-0.2-0.8-0.6-0.9c-4.2-1.7-8.9-3.9-9.3-5.2v-1.4c0.9-0.9,1.6-2.3,2-3.8
			c0.5-0.4,0.4-6.4,0.4-6.4c0-3.2-1.7-5.5-5.6-5.5c-3.8,0-5.6,2.2-5.6,5.5c0,0-0.1,6,0.4,6.4"/>
	</g>
</g>
</svg>
