<?xml version="1.0" encoding="utf-8"?>
<!-- Generator: Adobe Illustrator 18.1.1, SVG Export Plug-In . SVG Version: 6.00 Build 0)  -->
<svg version="1.1" xmlns="http://www.w3.org/2000/svg" xmlns:xlink="http://www.w3.org/1999/xlink" x="0px" y="0px"
	 viewBox="0 0 400 400" enable-background="new 0 0 400 400" xml:space="preserve">
<g id="BG_Color">
	<rect id="XMLID_43_" fill="#4E88FF" width="400" height="400"/>
</g>
<g id="Icons">
	<g id="XMLID_4_">
		<g id="XMLID_5_">
			
				<polyline id="XMLID_64_" fill="none" stroke="#FFFFFF" stroke-width="3.6539" stroke-linecap="round" stroke-linejoin="round" stroke-miterlimit="10" points="
				220.1,147.1 220.1,165.3 238.3,165.3 			"/>
			
				<path id="XMLID_63_" fill="none" stroke="#FFFFFF" stroke-width="3.6539" stroke-linecap="round" stroke-linejoin="round" stroke-miterlimit="10" d="
				M238.3,249.3c0,2-1.6,3.7-3.6,3.7h-69.5c-2,0-3.6-1.7-3.6-3.7v-98.6c0-2,1.6-3.7,3.6-3.7h54.8c0.9,0,1.4,0.4,2.1,1.1l15.1,14.9
				c0.7,0.7,1.1,1.3,1.1,2.3V249.3z"/>
		</g>
		
			<line id="XMLID_62_" fill="none" stroke="#FFFFFF" stroke-width="3.6539" stroke-linecap="round" stroke-linejoin="round" x1="198" y1="179.9" x2="223.9" y2="179.9"/>
		
			<rect id="XMLID_61_" x="176.4" y="176.6" fill="none" stroke="#FFFFFF" stroke-width="3.6539" stroke-linecap="round" stroke-linejoin="round" width="10.9" height="10.9"/>
		
			<line id="XMLID_60_" fill="none" stroke="#FFFFFF" stroke-width="3.6539" stroke-linecap="round" stroke-linejoin="round" x1="198" y1="201.9" x2="223.9" y2="201.9"/>
		
			<rect id="XMLID_59_" x="176.4" y="198.5" fill="none" stroke="#FFFFFF" stroke-width="3.6539" stroke-linecap="round" stroke-linejoin="round" width="10.9" height="10.9"/>
		
			<line id="XMLID_58_" fill="none" stroke="#FFFFFF" stroke-width="3.6539" stroke-linecap="round" stroke-linejoin="round" x1="198" y1="223.8" x2="223.9" y2="223.8"/>
		
			<rect id="XMLID_57_" x="176.4" y="220.4" fill="none" stroke="#FFFFFF" stroke-width="3.6539" stroke-linecap="round" stroke-linejoin="round" width="10.9" height="10.9"/>
	</g>
</g>
</svg>
