<?xml version="1.0" encoding="utf-8"?>
<!-- Generator: Adobe Illustrator 18.1.1, SVG Export Plug-In . SVG Version: 6.00 Build 0)  -->
<svg version="1.1" xmlns="http://www.w3.org/2000/svg" xmlns:xlink="http://www.w3.org/1999/xlink" x="0px" y="0px"
	 viewBox="0 0 400 400" enable-background="new 0 0 400 400" xml:space="preserve">
<g id="BG_Color">
	<rect id="XMLID_209_" fill="#858D8D" width="400" height="400"/>
</g>
<g id="Icons">
	<g id="XMLID_189_">
		<g id="XMLID_194_">
			
				<polyline id="XMLID_196_" fill="none" stroke="#FFFFFF" stroke-width="3.7383" stroke-linecap="round" stroke-linejoin="round" stroke-miterlimit="10" points="
				220.5,145.8 220.5,164.5 239.2,164.5 			"/>
			
				<path id="XMLID_195_" fill="none" stroke="#FFFFFF" stroke-width="3.7383" stroke-linecap="round" stroke-linejoin="round" stroke-miterlimit="10" d="
				M239.2,250.4c0,2-1.7,3.7-3.7,3.7h-71.1c-2,0-3.7-1.7-3.7-3.7V149.6c0-2,1.6-3.8,3.7-3.8h56.1c1,0,1.4,0.4,2.1,1.1l15.5,15.3
				c0.7,0.7,1.1,1.3,1.1,2.3V250.4z"/>
		</g>
		
			<line id="XMLID_193_" fill="none" stroke="#FFFFFF" stroke-width="3.7383" stroke-linecap="round" stroke-linejoin="round" stroke-miterlimit="10" x1="223.4" y1="198" x2="176.5" y2="198"/>
		
			<line id="XMLID_192_" fill="none" stroke="#FFFFFF" stroke-width="3.7383" stroke-linecap="round" stroke-linejoin="round" stroke-miterlimit="10" x1="223.4" y1="213" x2="176.5" y2="213"/>
		
			<line id="XMLID_191_" fill="none" stroke="#FFFFFF" stroke-width="3.7383" stroke-linecap="round" stroke-linejoin="round" stroke-miterlimit="10" x1="223.4" y1="228" x2="176.5" y2="228"/>
		
			<line id="XMLID_190_" fill="none" stroke="#FFFFFF" stroke-width="3.7383" stroke-linecap="round" stroke-linejoin="round" stroke-miterlimit="10" x1="202.6" y1="183.1" x2="176.5" y2="183.1"/>
	</g>
</g>
</svg>
