<?xml version="1.0" encoding="utf-8"?>
<!-- Generator: Adobe Illustrator 18.1.1, SVG Export Plug-In . SVG Version: 6.00 Build 0)  -->
<svg version="1.1" xmlns="http://www.w3.org/2000/svg" xmlns:xlink="http://www.w3.org/1999/xlink" x="0px" y="0px"
	 viewBox="0 0 400 400" enable-background="new 0 0 400 400" xml:space="preserve">
<g id="BG_Color">
	<rect id="XMLID_289_" fill="#6FE793" width="400" height="400"/>
</g>
<g id="Icons">
	<g id="XMLID_519_">
		<path id="XMLID_517_" fill="none" stroke="#FFFFFF" stroke-width="4" stroke-linecap="round" stroke-linejoin="round" d="
			M198.9,189.7c-0.8,0-37.7,18.8-37.7,18.8l9.1-39.6c1.2-9.6-45.8-4.7-50.5,33.6c-3.1,25.3,16.7,47.9,42.5,47.9
			c30.1,0,50.9-30.6,39.6-58.7C201.5,190.5,200.3,189.7,198.9,189.7z"/>
		<path id="XMLID_503_" fill="none" stroke="#FFFFFF" stroke-width="4" stroke-linecap="round" stroke-linejoin="round" d="
			M212.1,167.6c-6.5-15.4-25.3-20.9-25.8-16.7c-0.2,1.6-4.1,28.7-2.8,29.7c1.1,0.8,28.2-10.5,28.7-11.8
			C212.2,168.4,212.2,168,212.1,167.6z"/>
		
			<line id="XMLID_502_" fill="none" stroke="#FFFFFF" stroke-width="4" stroke-linecap="round" stroke-linejoin="round" x1="238" y1="167" x2="280.5" y2="167"/>
		
			<line id="XMLID_501_" fill="none" stroke="#FFFFFF" stroke-width="4" stroke-linecap="round" stroke-linejoin="round" x1="238" y1="201" x2="280.5" y2="201"/>
		
			<line id="XMLID_500_" fill="none" stroke="#FFFFFF" stroke-width="4" stroke-linecap="round" stroke-linejoin="round" x1="238" y1="235.1" x2="280.5" y2="235.1"/>
	</g>
</g>
</svg>
