<svg id="Layer_1" data-name="Layer 1" xmlns="http://www.w3.org/2000/svg" viewBox="0 0 257.91 200.45"><defs><style>.cls-1,.cls-2,.cls-3{fill:#fff;}.cls-1{opacity:0;}.cls-2{opacity:0.15;isolation:isolate;}.cls-4,.cls-5,.cls-6,.cls-7{fill:none;stroke:#fff;}.cls-4,.cls-6,.cls-7{stroke-linecap:round;}.cls-4,.cls-5,.cls-6{stroke-miterlimit:10;}.cls-4{stroke-width:6.68px;}.cls-5{stroke-width:6.68px;}.cls-6{stroke-width:6.32px;}.cls-7{stroke-linejoin:round;stroke-width:7.93px;}</style></defs><title>rc_icon_video</title><circle class="cls-1" cx="180.09" cy="151.99" r="45.12" transform="translate(-101.7 62.76) rotate(-28.22)"/><rect class="cls-2" width="257.91" height="40.09"/><path class="cls-3" d="M74.63,53.81a6.68,6.68,0,1,0,6.68,6.68,6.71,6.71,0,0,0-6.68-6.68Z" transform="translate(-51.24 -40.45)"/><path class="cls-3" d="M94.67,53.81a6.68,6.68,0,1,0,6.68,6.68,6.7,6.7,0,0,0-6.68-6.68Z" transform="translate(-51.24 -40.45)"/><path class="cls-3" d="M114.72,53.81a6.68,6.68,0,1,0,6.68,6.68,6.71,6.71,0,0,0-6.68-6.68Z" transform="translate(-51.24 -40.45)"/><line class="cls-4" x1="3.34" y1="36.75" x2="254.57" y2="36.75"/><rect class="cls-5" x="3.34" y="3.34" width="251.23" height="193.76"/><circle class="cls-6" cx="180.19" cy="151.99" r="45.12" transform="translate(-101.69 62.81) rotate(-28.22)"/><polyline class="cls-7" points="117.45 94.06 144.24 111.54 117.45 129.03"/></svg>