<svg id="Layer_1" data-name="Layer 1" xmlns="http://www.w3.org/2000/svg" xmlns:xlink="http://www.w3.org/1999/xlink" viewBox="0 0 69.38 53.54"><defs><style>.cls-1{fill:none;}.cls-2,.cls-5{fill:#fff;}.cls-2{stroke:#fff;stroke-miterlimit:10;stroke-width:0.75px;}.cls-3{clip-path:url(#clip-path);}.cls-4{opacity:0.65;}</style><clipPath id="clip-path" transform="translate(-16.38 -12.9)"><path class="cls-1" d="M16.81,13.67V65.42H85.14V13.67Zm10,42A2.15,2.15,0,1,1,29,53.5,2.15,2.15,0,0,1,26.8,55.65Zm12.27-14.3a2.15,2.15,0,1,1,2.16-2.15A2.15,2.15,0,0,1,39.07,41.35Zm12.28,7.87a2.16,2.16,0,1,1,2.15-2.15A2.15,2.15,0,0,1,51.35,49.22Zm12.27-23.5a2.15,2.15,0,1,1,2.15-2.15A2.15,2.15,0,0,1,63.62,25.72Zm12.27,5.65a2.15,2.15,0,1,1,2.16-2.15A2.15,2.15,0,0,1,75.89,31.37Z"/></clipPath></defs><title>rc_icon_infographic</title><path class="cls-2" d="M84.42,66.06H17.71a1,1,0,0,1-1-1V14.23a1,1,0,0,1,1-1H84.42a1,1,0,0,1,1,1V65.1A1,1,0,0,1,84.42,66.06ZM18.67,64.14H83.46V15.19H18.67Z" transform="translate(-16.38 -12.9)"/><g id="chart"><g class="cls-3"><g class="cls-4"><path class="cls-5" d="M27.31,64.3a.24.24,0,0,1-.24-.24V13.67a.24.24,0,0,1,.48,0V64.06A.24.24,0,0,1,27.31,64.3Z" transform="translate(-16.38 -12.9)"/><path class="cls-5" d="M39.33,64.3a.24.24,0,0,1-.24-.24V13.67a.24.24,0,0,1,.48,0V64.06A.24.24,0,0,1,39.33,64.3Z" transform="translate(-16.38 -12.9)"/><path class="cls-5" d="M51.35,64.3a.24.24,0,0,1-.24-.24V13.67a.23.23,0,0,1,.24-.24.24.24,0,0,1,.24.24V64.06A.24.24,0,0,1,51.35,64.3Z" transform="translate(-16.38 -12.9)"/><path class="cls-5" d="M63.37,64.3a.24.24,0,0,1-.24-.24V13.67a.23.23,0,0,1,.24-.24.24.24,0,0,1,.24.24V64.06A.24.24,0,0,1,63.37,64.3Z" transform="translate(-16.38 -12.9)"/><path class="cls-5" d="M75.38,64.3a.24.24,0,0,1-.24-.24V13.67a.24.24,0,0,1,.24-.24.23.23,0,0,1,.24.24V64.06A.24.24,0,0,1,75.38,64.3Z" transform="translate(-16.38 -12.9)"/></g><g class="cls-4"><path class="cls-5" d="M83.94,57.93H18.35a.24.24,0,0,1-.24-.24.24.24,0,0,1,.24-.24H83.94a.24.24,0,0,1,.24.24A.24.24,0,0,1,83.94,57.93Z" transform="translate(-16.38 -12.9)"/><path class="cls-5" d="M83.94,45.92H18.35a.24.24,0,0,1-.24-.24.24.24,0,0,1,.24-.24H83.94a.24.24,0,0,1,.24.24A.24.24,0,0,1,83.94,45.92Z" transform="translate(-16.38 -12.9)"/><path class="cls-5" d="M83.94,33.9H18.35a.24.24,0,0,1,0-.48H83.94a.24.24,0,1,1,0,.48Z" transform="translate(-16.38 -12.9)"/><path class="cls-5" d="M83.94,21.88H18.35a.24.24,0,0,1,0-.48H83.94a.24.24,0,1,1,0,.48Z" transform="translate(-16.38 -12.9)"/></g><path class="cls-5" d="M75.89,24.54a4.66,4.66,0,0,0-3.46,1.53l-4.17-1.91a4.08,4.08,0,0,0,0-.59,4.68,4.68,0,1,0-8,3.3L52.16,42.46a4.45,4.45,0,0,0-.81-.08,4.71,4.71,0,0,0-3,1.09l-4.76-3a4.6,4.6,0,0,0,.17-1.22,4.69,4.69,0,0,0-9.37,0,4.58,4.58,0,0,0,.71,2.47L28.64,49.2a4.53,4.53,0,0,0-1.84-.38,4.67,4.67,0,1,0,4,2.21l6.46-7.53a4.65,4.65,0,0,0,4.83-.71l4.76,3.05a4.61,4.61,0,0,0-.16,1.23,4.68,4.68,0,1,0,8-3.3L62.8,28.18a4.72,4.72,0,0,0,4.29-1.46l4.16,1.91c0,.21,0,.4,0,.59a4.69,4.69,0,1,0,4.68-4.68Zm4.31,3.79a4.56,4.56,0,0,0-.66-1.57A4.56,4.56,0,0,1,80.2,28.33Zm-2.6-3.16a4.48,4.48,0,0,1,1.4.94,4.48,4.48,0,0,0-1.4-.94,4.38,4.38,0,0,0-1.71-.34A4.38,4.38,0,0,1,77.6,25.17Zm-5.75,5.76a4.27,4.27,0,0,0,.94,1.39A4.27,4.27,0,0,1,71.85,30.93Zm1.59,1.93a4.2,4.2,0,0,0,1.57.66A4.2,4.2,0,0,1,73.44,32.86Zm3.34.66a4.2,4.2,0,0,0,1.57-.66A4.2,4.2,0,0,1,76.78,33.52ZM79,32.32a4.27,4.27,0,0,0,.94-1.39A4.27,4.27,0,0,1,79,32.32Z" transform="translate(-16.38 -12.9)"/></g></g></svg>