<svg id="Layer_1" data-name="Layer 1" xmlns="http://www.w3.org/2000/svg" viewBox="0 0 163.08 218.32"><defs><style>.cls-1,.cls-3,.cls-4{fill:none;stroke:#fff;}.cls-1,.cls-3{stroke-miterlimit:10;}.cls-1,.cls-4{stroke-width:6.04px;}.cls-2{fill:#fff;}.cls-3,.cls-4{stroke-linecap:round;}.cls-3{stroke-width:6.04px;opacity:0.4;}.cls-4{stroke-linejoin:round;}</style></defs><title>rc_icon_solution_brief</title><path class="cls-1" d="M240.5,177.76A78.53,78.53,0,0,0,156.93,99.4c-38.27,2.39-69.74,33-73.15,71.15a78.51,78.51,0,0,0,47,79.26,12,12,0,0,1,7.06,11.05v8l6,6H180.1l6-6V260.8a12.26,12.26,0,0,1,7.47-11.16A78.54,78.54,0,0,0,240.5,177.76Z" transform="translate(-80.44 -96.22)"/><polygon class="cls-1" points="99.72 201.41 63.48 201.41 60.46 187.56 102.75 187.56 99.72 201.41"/><polygon class="cls-2" points="90.67 218.32 72.55 218.32 66.5 209.91 96.7 209.91 90.67 218.32"/><line class="cls-3" x1="69.46" y1="107.26" x2="69.46" y2="166.61"/><line class="cls-3" x1="93.62" y1="122.36" x2="93.62" y2="166.61"/><polyline class="cls-4" points="66.44 98.2 72.48 98.2 84.56 134.44 87.58 113.3 96.64 113.3"/><path class="cls-3" d="M162,111.32a66.44,66.44,0,0,1,66.44,66.44" transform="translate(-80.44 -96.22)"/></svg>