<svg id="Layer_1" data-name="Layer 1" xmlns="http://www.w3.org/2000/svg" viewBox="0 0 239.22 239.22"><defs><style>.cls-1,.cls-2{fill:none;stroke:#fff;stroke-miterlimit:10;stroke-width:5.99px;}.cls-2{stroke-linecap:round;}</style></defs><title>rc_icon_datasheet</title><polygon class="cls-1" points="17.53 236.22 9.05 227.75 9.05 210.79 81.1 138.75 106.53 164.18 34.48 236.22 17.53 236.22"/><polygon class="cls-1" points="189.16 39.16 210.35 17.97 227.31 34.92 206.12 56.11 193.4 60.35 110.76 142.99 102.29 134.51 184.93 51.87 189.16 39.16"/><polygon class="cls-1" points="106.53 164.18 81.1 138.75 81.1 121.8 85.34 117.56 127.72 159.94 123.48 164.18 106.53 164.18"/><line class="cls-2" x1="93.91" y1="151.39" x2="26.1" y2="219.2"/><path class="cls-1" d="M173.69,134.76l95.36,95.36v16.95l-8.47,8.48H243.63L86.83,98.75h0l23.3-23.31a3,3,0,0,1,4.24,0l50,50" transform="translate(-32.83 -19.33)"/><polyline class="cls-2" points="132.38 123.91 202.32 193.84 202.32 202.32 193.84 202.32 124.27 132.74"/><polyline class="cls-2" points="113.54 122.02 83.66 92.13 83.66 83.66 92.13 83.66 122.02 113.54"/><polygon class="cls-1" points="37.04 3.14 32.72 7.46 34.84 9.57 49.67 24.41 44.24 44.67 23.98 50.1 9.15 35.27 7.03 33.15 3.14 37.04 5.26 56.11 28.57 79.42 53.99 79.42 79.42 53.99 79.42 28.57 56.11 5.26 37.04 3.14"/><circle class="cls-2" cx="216.85" cy="216.85" r="5.99"/></svg>