<?xml version="1.0" encoding="utf-8"?>
<svg xmlns="http://www.w3.org/2000/svg" viewBox="0 0 786.97 143.02">
  <title>deutsche-bank-colored-landscape</title>
  <g id="Layer_2" data-name="Layer 2">
    <g id="svg1978">
      <g id="layer1">
        <g id="g2901">
          <path id="path2677" d="M19.11,141.66H0v-58H19.11c20.22,0,31.05,9.87,31.05,29C50.16,131.54,41.16,141.66,19.11,141.66ZM17.73,92.44H11.46v40.38h6.13c15.78.33,20.87-7.38,20.87-20.15,0-14-7.3-20.23-20.73-20.23" style="fill: #333"/>
          <path id="path2679" d="M67.68,117.17c.31-5.3,2.91-10.2,8.9-10.2,5.81,0,8.69,4.34,8.45,10.2Zm9.24-17c-15.26,0-20.56,10.84-20.56,21,0,12.13,6.09,21.2,19.11,21.6,10.35.08,19.53-3.05,20.15-14.37H85C85,133,81.32,136,77,136c-7.3,0-9.62-5.38-9.72-12l29.25-.08c.86-12-4.36-23.76-19.6-23.76" style="fill: #333"/>
          <path id="path2681" d="M143.5,141.66H132.56l-.07-6.59c-1.84,5.22-6.93,7.87-13.16,7.87-7.41,0-14.4-4.49-14.47-15.25v-26.1h11.08v24.57c-.07,5.78,2.18,9,7.62,9.07,4.91,0,8.93-2.81,8.93-10.59v-23h11v40.07" style="fill: #333"/>
          <path id="path2683" d="M157.69,101.75V95.41l10.7-5.62v12H178.6v7.79H168.39v19.35c0,3.93,1.35,6.18,5.37,6.34a15.6,15.6,0,0,0,4.91-.4v6.91c-5.23.72-11.25,2.09-16.24-.57-3.77-2-4.74-5.53-4.74-11.15V109.54h-8.58v-7.79h8.58" style="fill: #333"/>
          <path id="path2685" d="M220.18,124.39a11.72,11.72,0,0,1-.48,11.41c-3.78,5.78-12,7.22-18.32,7.06-9-.56-17-2.89-16.62-13.65H195.7c-.1,4.66,2.81,6.35,7,6.51,4,0,8-1.37,8-5.06,0-3-2.8-4.26-6.4-5.06-4.12-.88-7.06-1.28-11.67-3.13-3.67-1.77-7.3-4.74-7.3-10.36,0-4.66,3.63-8.19,8.38-10.12a27.82,27.82,0,0,1,10.52-1.76c7.62,0,15.89,2.65,15.41,12.28H209.34a5,5,0,0,0-1.52-4c-2.25-2-9.17-2.25-11.32,1-2.42,5.62,5.05,6,13.33,8.27,5.23,1.2,8.76,3.37,10.35,6.58" style="fill: #333"/>
          <path id="path2687" d="M247.56,100.06c8.76,0,17.83,4,17.83,15L254.63,115c0-5.14-2.81-8.27-8.1-8a9.8,9.8,0,0,0-4,1.21c-3.32,1.92-4.36,7.3-4.36,12.68,0,5.7,1.38,11.24,3.87,13.25,1.67,1.61,4.64,2.09,7.21,1.61,4.25-.72,5.53-4.9,5.64-8.51l10.52-.08c.14,11.48-9.24,15.81-19,15.65-13.08-.48-19.11-9-19.11-21.6,0-12.76,7.31-21.12,20.32-21.12" style="fill: #333"/>
          <path id="path2689" d="M273.87,83.69H285v24.24c2.91-5.13,7.24-7.38,13.09-7.38,7.41,0,14.4,5.54,14.4,13.49v27.62H301.5V117.09c0-5.46-2.32-9.07-7.55-9.07-4.88,0-9.07,3.21-9.07,10.59v23h-11v-58" style="fill: #333"/>
          <path id="path2691" d="M332.35,117.17c.31-5.3,2.87-10.2,8.89-10.2,5.79,0,8.69,4.34,8.45,10.2Zm9.24-17c-15.27,0-20.56,10.84-20.56,21,0,12.13,6.09,21.2,19.11,21.6,10.35.08,19.52-3.05,20.14-14.37H349.69c0,4.58-3.7,7.55-8,7.55-7.31,0-9.62-5.38-9.73-12l29.25-.08c.87-12-4.36-23.76-19.59-23.76" style="fill: #333"/>
          <path id="path2693" d="M429.49,140a47,47,0,0,1-13.78,1.69h-21V83.77h22.33c10,0,20.39,3.13,20.81,14.29.24,7.07-4.57,11.56-10.6,13.57,4.64,1.2,8.42,2.57,11,6.9a15.09,15.09,0,0,1,.59,13.25A15.28,15.28,0,0,1,429.49,140ZM417.06,92.44H405.74v15h11.49c6,0,9.14-2.49,9.14-7.39C426.37,95.49,422.77,92.44,417.06,92.44Zm1.14,23.68L405.74,116v17h12.05c8,0,10.59-3.94,10.59-8.83,0-3.78-2.73-8.2-10.18-8.12" style="fill: #333"/>
          <path id="path2695" d="M464.52,135.88c-4.08-.32-6.5-2.33-6.5-6.19.06-8.42,10.76-7.54,16.3-7.54C474.56,128.81,474,135.72,464.52,135.88Zm20.33-23.29c0-8.19-8.83-12.28-19-12.2-9.73.16-16.8,3.29-16.93,12.68h10.66c-.24-4.33,2.73-6.58,6.68-6.66,5.92,0,8.59,2.73,8,9.48-5.88.31-13.74-.09-19.59,2.64a12.44,12.44,0,0,0-7.55,11.81c0,7.71,5.37,12.36,13.23,12.6,5.64.56,12-1.92,14.54-7.14l.41,5.86h9.56V112.59" style="fill: #333"/>
          <path id="path2697" d="M495.51,101.59h11.08V108c2.9-5.22,8.2-7.47,14.16-7.47,6.64,0,13.46,3.85,13.46,13.49v27.62H523.13V117.09c.07-5.22-2.49-9.07-7.54-9.07s-9.07,3.21-9.07,10.59v23h-11V101.59" style="fill: #333"/>
          <path id="path2699" d="M573,141.66l-16.86-23,15.26-17.1h13l-15.82,16.7,18.63,23.37Zm-28.08-58h10.91v58H544.91Z" style="fill: #333"/>
          <path id="path2701" d="M646,0H787V141.58H646Zm85.69,33.53-55.08,73.93h24.89l55.29-73.93ZM665.59,122H767.34V19.61H665.59Z" style="fill: #333"/>
        </g>
      </g>
    </g>
  </g>
</svg>
