<svg xmlns="http://www.w3.org/2000/svg" xmlns:xlink="http://www.w3.org/1999/xlink" viewBox="0 0 1920 1080"><defs><style>.a{fill:none;}.b{clip-path:url(#a);}.c{fill:url(#b);}.d{clip-path:url(#c);}.e{fill:url(#d);}.f{fill:url(#e);}.g,.h,.i{fill:#fff;}.g{opacity:0.3;}.h{fill-rule:evenodd;}</style><clipPath id="a"><rect class="a" x="-2155.12" width="1922.47" height="1080.35"/></clipPath><linearGradient id="b" x1="-1889.87" y1="870.85" x2="-729.82" y2="-289.2" gradientUnits="userSpaceOnUse"><stop offset="0" stop-color="#7f35b2"/><stop offset="0.17" stop-color="#7b38b3"/><stop offset="0.35" stop-color="#6e41b7"/><stop offset="0.53" stop-color="#5a50be"/><stop offset="0.72" stop-color="#3d65c7"/><stop offset="0.9" stop-color="#1880d3"/><stop offset="1" stop-color="#0091da"/></linearGradient><clipPath id="c"><rect class="a" x="0.29" width="1920" height="1080"/></clipPath><linearGradient id="d" x1="263.91" y1="871.16" x2="1424.55" y2="-289.49" gradientUnits="userSpaceOnUse"><stop offset="0" stop-color="#0091da"/><stop offset="0.28" stop-color="#0095da"/><stop offset="0.58" stop-color="#00a2d8"/><stop offset="0.88" stop-color="#00b6d6"/><stop offset="1" stop-color="#00c1d5"/></linearGradient><linearGradient id="e" x1="-6132.3" y1="-1122.04" x2="-5497.03" y2="-1757.31" gradientTransform="translate(-4261.38 -732.52) rotate(180)" gradientUnits="userSpaceOnUse"><stop offset="0" stop-color="#1d428a"/><stop offset="0.2" stop-color="#1d428a" stop-opacity="0.97"/><stop offset="0.4" stop-color="#1d428a" stop-opacity="0.88"/><stop offset="0.61" stop-color="#1d428a" stop-opacity="0.73"/><stop offset="0.82" stop-color="#1d428a" stop-opacity="0.52"/><stop offset="1" stop-color="#1d428a" stop-opacity="0.3"/></linearGradient></defs><g class="b"><polygon class="c" points="-2152.64 1080 -965.4 1080 114.59 0 -2152.64 0 -2152.64 1080"/></g><g class="d"><polygon class="e" points="0.58 1080 1189.55 1080 2269.54 0 0.58 0 0.58 1080"/><polygon class="f" points="2095.22 328.68 1768.3 328.68 1011.29 1085.69 1338.21 1085.69 2095.22 328.68"/><rect class="a" x="0.58" width="1920" height="1078.4"/></g><circle class="g" cx="749.1" cy="659.1" r="243.1"/><path class="h" d="M732.2,705.43l-5.57-6-36.09,35.34,1.07,2.49a34.7,34.7,0,0,1-7.82,38.56,36.53,36.53,0,0,1-32.72,9.63L667.86,769l-6-21.77-22.25-5.83-16.79,16.44a34.78,34.78,0,0,1,9.85-32,36.56,36.56,0,0,1,39.39-7.64l2.55,1,55.61-54.42-5.86-5.73-51.74,50.66a44.9,44.9,0,0,0-45.78,10.36,42.72,42.72,0,0,0-9.8,46.9l2.34,5.71,22.75-22.27,13,3.41,3.49,12.75L636,788.89l5.83,2.29a45.07,45.07,0,0,0,47.92-9.59,42.59,42.59,0,0,0,10.59-44.8Z"/><path class="h" d="M881.13,551.7l-2.34-5.81L856,568.59l-13-3.48-3.49-13,22.75-22.7-5.83-2.34a44.33,44.33,0,0,0-58.5,55.46l-52.22,52.16,5.85,5.84,56.06-55.94-1.06-2.54a36.08,36.08,0,0,1,40.53-49.16l-16.79,16.76,6,22.19,22.24,5.94L875.3,561a36.08,36.08,0,0,1-49.24,40.45l-2.55-1.06-39.13,39.05,5.57,6.12,35.57-35.5a44.34,44.34,0,0,0,55.61-58.38Z"/><path class="h" d="M877.91,744.58l-73.42-73.77-15.08-8.07A13.38,13.38,0,0,0,785.5,654l-8-8a13,13,0,0,0-18.47-.28l-8.65,8.69-89.82-90.28V545.8l-28.74-18.54-14.56,14.63,14.31,24.64a4.09,4.09,0,1,0,7.06-4.15l-11.1-19.15,5.43-5.45,19.4,12.5v17.27l92.21,92.66-12.51,12.57a13.17,13.17,0,0,0,.28,18.56l6.81,6.85,5.8-5.83-6.81-6.85a5.22,5.22,0,0,1-1.56-3.6,4.47,4.47,0,0,1,1.28-3.3l27-27.1a4.89,4.89,0,0,1,6.89.28l8,8a5.22,5.22,0,0,1,1.56,3.6,4.47,4.47,0,0,1-1.28,3.29l.12.13-28.2,28.37a4.16,4.16,0,0,0,0,5.83,4.09,4.09,0,0,0,5.8,0l29.82-30,12,6.41,70.92,71.26,1.44,6.06L841.46,785.4l-5.5-1.07L761.6,709.59a4.12,4.12,0,0,0-5.8,5.84l76.14,76.51,12.24,2.38,36.76-36.94Z"/><path class="i" d="M294.53,199.18h-28.7V188.82h69.86v10.36H306.85v84H294.53Z"/><path class="i" d="M339.47,236.56c0-8-.14-14.84-.56-21.14h10.78l.42,13.3h.56c3.08-9.1,10.5-14.84,18.76-14.84a13.33,13.33,0,0,1,3.5.42v11.62a18.51,18.51,0,0,0-4.2-.42c-8.68,0-14.84,6.58-16.52,15.82a34.68,34.68,0,0,0-.56,5.74v36.12H339.47Z"/><path class="i" d="M445.17,248.74c0,25.06-17.36,36-33.74,36-18.34,0-32.48-13.44-32.48-34.86,0-22.68,14.84-36,33.6-36C432,213.88,445.17,228,445.17,248.74Zm-53.76.7c0,14.84,8.54,26,20.58,26,11.76,0,20.58-11.06,20.58-26.32,0-11.48-5.74-26-20.3-26S391.41,236.56,391.41,249.44Z"/><path class="i" d="M517.41,264.7c0,7,.14,13.16.56,18.48H507.05l-.7-11.06h-.28a25.49,25.49,0,0,1-22.4,12.6c-10.64,0-23.38-5.88-23.38-29.68V215.42h12.32v37.52c0,12.88,3.92,21.56,15.12,21.56,8.26,0,14-5.74,16.24-11.2a18,18,0,0,0,1.12-6.3V215.42h12.32Z"/><path class="i" d="M537.29,283.18c.28-4.62.56-11.48.56-17.5v-81.9H550v42.56h.28c4.34-7.56,12.18-12.46,23.1-12.46,16.79,0,28.7,14,28.56,34.58,0,24.22-15.27,36.26-30.38,36.26-9.81,0-17.64-3.78-22.68-12.74h-.42l-.56,11.2ZM550,256a23.07,23.07,0,0,0,.56,4.48c2.38,8.54,9.52,14.42,18.48,14.42,12.88,0,20.58-10.5,20.58-26,0-13.58-7-25.2-20.16-25.2-8.4,0-16.24,5.74-18.76,15.12a24.28,24.28,0,0,0-.7,5Z"/><path class="i" d="M617.5,183.78h12.32v99.4H617.5Z"/><path class="i" d="M657.4,251.54c.28,16.66,10.92,23.52,23.24,23.52,8.82,0,14.14-1.54,18.76-3.5l2.1,8.82c-4.34,2-11.76,4.2-22.54,4.2-20.86,0-33.32-13.72-33.32-34.16s12-36.54,31.78-36.54c22.12,0,28,19.46,28,31.92a46.47,46.47,0,0,1-.42,5.74Zm36.12-8.82c.14-7.84-3.22-20-17.08-20-12.46,0-17.92,11.48-18.9,20Z"/><path class="i" d="M719,270.58a32.29,32.29,0,0,0,16.24,4.9c9,0,13.16-4.48,13.16-10.08,0-5.88-3.5-9.1-12.6-12.46-12.18-4.34-17.92-11.06-17.92-19.18,0-10.92,8.82-19.88,23.38-19.88a33.82,33.82,0,0,1,16.66,4.2l-3.08,9A26.37,26.37,0,0,0,741,223.12c-7.28,0-11.34,4.2-11.34,9.24,0,5.6,4.06,8.12,12.88,11.48,11.76,4.48,17.78,10.36,17.78,20.44,0,11.9-9.24,20.3-25.34,20.3-7.42,0-14.28-1.82-19-4.62Z"/><path class="i" d="M776.12,183.78h12.32v42.28h.28a22.86,22.86,0,0,1,8.82-8.68,25.36,25.36,0,0,1,12.6-3.5c9.1,0,23.66,5.6,23.66,29v40.32H821.48V244.26c0-10.92-4.06-20.16-15.68-20.16-8,0-14.28,5.6-16.52,12.32a14.92,14.92,0,0,0-.84,5.88v40.88H776.12Z"/><path class="i" d="M915.14,248.74c0,25.06-17.36,36-33.74,36-18.34,0-32.48-13.44-32.48-34.86,0-22.68,14.84-36,33.6-36C902,213.88,915.14,228,915.14,248.74Zm-53.76.7c0,14.84,8.54,26,20.58,26,11.76,0,20.58-11.06,20.58-26.32,0-11.48-5.74-26-20.3-26S861.38,236.56,861.38,249.44Z"/><path class="i" d="M992,248.74c0,25.06-17.36,36-33.74,36-18.34,0-32.48-13.44-32.48-34.86,0-22.68,14.84-36,33.6-36C978.84,213.88,992,228,992,248.74Zm-53.76.7c0,14.84,8.54,26,20.58,26,11.76,0,20.58-11.06,20.58-26.32,0-11.48-5.74-26-20.3-26S938.24,236.56,938.24,249.44Z"/><path class="i" d="M1022.38,196v19.46H1040v9.38h-17.64v36.54c0,8.4,2.38,13.16,9.24,13.16a27.41,27.41,0,0,0,7.14-.84l.56,9.24a30.16,30.16,0,0,1-10.92,1.68c-5.74,0-10.36-1.82-13.3-5.18-3.5-3.64-4.76-9.66-4.76-17.64v-37h-10.5v-9.38h10.5V199.18Z"/><path class="i" d="M1067.6,196.38c.14,4.2-2.94,7.56-7.84,7.56a7.33,7.33,0,0,1-7.42-7.56,7.51,7.51,0,0,1,7.7-7.7C1064.66,188.68,1067.6,192,1067.6,196.38Zm-13.72,86.8V215.42h12.32v67.76Z"/><path class="i" d="M1086.64,233.76c0-7-.14-12.74-.56-18.34H1097l.7,11.2h.28c3.36-6.44,11.2-12.74,22.4-12.74,9.38,0,23.94,5.6,23.94,28.84v40.46H1132V244.12c0-10.92-4.06-20-15.68-20a17.5,17.5,0,0,0-16.52,12.6,17.71,17.71,0,0,0-.84,5.74v40.74h-12.32Z"/><path class="i" d="M1222.72,215.42c-.28,4.9-.56,10.36-.56,18.62v39.34c0,15.54-3.08,25.06-9.66,30.94-6.58,6.16-16.1,8.12-24.64,8.12-8.12,0-17.08-2-22.54-5.6l3.08-9.38a38.21,38.21,0,0,0,19.88,5.32c12.6,0,21.84-6.58,21.84-23.66v-7.56h-.28c-3.78,6.3-11.06,11.34-21.56,11.34-16.8,0-28.84-14.28-28.84-33,0-23,15-36,30.52-36,11.76,0,18.2,6.16,21.14,11.76h.28l.56-10.22ZM1210,242.16a17.55,17.55,0,0,0-.7-5.6c-2.24-7.14-8.26-13-17.22-13-11.76,0-20.16,9.94-20.16,25.62,0,13.3,6.72,24.36,20,24.36a18,18,0,0,0,17.08-12.6,21.43,21.43,0,0,0,1-6.58Z"/></svg>