<svg xmlns="http://www.w3.org/2000/svg" xmlns:xlink="http://www.w3.org/1999/xlink" viewBox="0 0 1920 1080"><defs><style>.a{fill:none;}.b{clip-path:url(#a);}.c{fill:url(#b);}.d{clip-path:url(#c);}.e{fill:url(#d);}.f{fill:url(#e);}.g,.h,.i{fill:#fff;}.g{opacity:0.3;}.h{fill-rule:evenodd;}</style><clipPath id="a"><rect class="a" x="-2157.56" y="0.8" width="1920" height="1078.4"/></clipPath><linearGradient id="b" x1="-1894.79" y1="871.65" x2="-734.74" y2="-288.4" gradientUnits="userSpaceOnUse"><stop offset="0" stop-color="#0091da"/><stop offset="0.11" stop-color="#189ab5"/><stop offset="0.26" stop-color="#35a588"/><stop offset="0.41" stop-color="#4dae62"/><stop offset="0.56" stop-color="#60b545"/><stop offset="0.71" stop-color="#6dba31"/><stop offset="0.86" stop-color="#75bd24"/><stop offset="1" stop-color="#78be20"/></linearGradient><clipPath id="c"><rect class="a" x="-2" width="1922.47" height="1080.35"/></clipPath><linearGradient id="d" x1="263.25" y1="870.85" x2="1423.29" y2="-289.2" gradientUnits="userSpaceOnUse"><stop offset="0" stop-color="#7f35b2"/><stop offset="0.17" stop-color="#7b38b3"/><stop offset="0.35" stop-color="#6e41b7"/><stop offset="0.53" stop-color="#5a50be"/><stop offset="0.72" stop-color="#3d65c7"/><stop offset="0.9" stop-color="#1880d3"/><stop offset="1" stop-color="#0091da"/></linearGradient><linearGradient id="e" x1="-1826.34" y1="-1122.04" x2="-1191.06" y2="-1757.31" gradientTransform="translate(48.85 -732.52) rotate(180)" gradientUnits="userSpaceOnUse"><stop offset="0" stop-color="#0091da"/><stop offset="0.16" stop-color="#0091da" stop-opacity="0.98"/><stop offset="0.32" stop-color="#0091da" stop-opacity="0.92"/><stop offset="0.48" stop-color="#0091da" stop-opacity="0.83"/><stop offset="0.65" stop-color="#0091da" stop-opacity="0.7"/><stop offset="0.82" stop-color="#0091da" stop-opacity="0.52"/><stop offset="0.99" stop-color="#0091da" stop-opacity="0.32"/><stop offset="1" stop-color="#0091da" stop-opacity="0.3"/></linearGradient></defs><g class="b"><polygon class="c" points="-2157.56 1080.8 -970.32 1080.8 109.68 0.8 -2157.56 0.8 -2157.56 1080.8"/></g><g class="d"><polygon class="e" points="0.47 1080 1187.71 1080 2267.71 0 0.47 0 0.47 1080"/><polygon class="f" points="2099.49 328.68 1772.57 328.68 1015.56 1085.69 1342.48 1085.69 2099.49 328.68"/><rect class="a" y="1.95" width="1922.47" height="1078.4"/></g><circle class="g" cx="747.1" cy="659.1" r="243.1"/><path class="h" d="M667.23,711.24a4.18,4.18,0,0,1-4.22-4.13,83.63,83.63,0,0,1,82.57-84.52,4.17,4.17,0,0,1,.1,8.34A75.32,75.32,0,0,0,671.33,707,4.13,4.13,0,0,1,667.23,711.24Z"/><path class="h" d="M748.27,808c-55.8.66-101.74-43.51-102.38-98.42s44.25-100.14,100-100.79,101.74,43.5,102.39,98.42S804.07,807.34,748.27,808ZM694.72,557.6c-.3-25.77,19.9-47,45-47.27l10-.12c25.14-.3,45.84,20.43,46.14,46.2l.66,55.65a111.29,111.29,0,0,0-101.22,1.19Zm110.36,59.19-.71-60.48c-.36-30.34-24.89-54.75-54.68-54.4l-10,.11c-29.79.35-53.74,25.34-53.39,55.68l.71,60.48c-30.19,19.54-50,53.31-49.54,91.49.7,59.59,50.37,107.33,110.92,106.62S857.45,766.71,856.75,707.1C856.3,668.91,835.72,635.62,805.08,616.79Z"/><path class="h" d="M746.78,681.06c-10.08.12-18.18,8-18.07,17.5A17.14,17.14,0,0,0,738,713.42l.21,18a4.75,4.75,0,0,0,4.93,4.55l8.53-.1a4.75,4.75,0,0,0,4.82-4.66l-.21-18a17.17,17.17,0,0,0,9-15.08C765.15,688.57,756.87,680.94,746.78,681.06Z"/><path class="i" d="M216.3,253.5l-9.8,29.68H193.9L226,188.82h14.7l32.2,94.36h-13L249.76,253.5ZM247.24,244,238,216.82c-2.1-6.16-3.5-11.76-4.9-17.22h-.28c-1.4,5.6-2.94,11.34-4.76,17.08L218.82,244Z"/><path class="i" d="M285.88,237.54c0-8.68-.28-15.68-.56-22.12h11.06l.56,11.62h.28c5-8.26,13-13.16,24.08-13.16,16.38,0,28.7,13.86,28.7,34.44,0,24.36-14.84,36.4-30.8,36.4-9,0-16.8-3.92-20.86-10.64h-.28V310.9H285.88Zm12.18,18.06a27.74,27.74,0,0,0,.56,5,19,19,0,0,0,18.48,14.42c13,0,20.58-10.64,20.58-26.18,0-13.58-7.14-25.2-20.16-25.2-8.4,0-16.24,6-18.62,15.26a20,20,0,0,0-.84,5Z"/><path class="i" d="M365.54,237.54c0-8.68-.28-15.68-.56-22.12H376L376.6,227h.28c5-8.26,13-13.16,24.08-13.16,16.38,0,28.7,13.86,28.7,34.44,0,24.36-14.84,36.4-30.8,36.4-9,0-16.8-3.92-20.86-10.64h-.28V310.9H365.54Zm12.18,18.06a27.74,27.74,0,0,0,.56,5,19,19,0,0,0,18.48,14.42c13,0,20.58-10.64,20.58-26.18,0-13.58-7.14-25.2-20.16-25.2-8.4,0-16.24,6-18.62,15.26a20,20,0,0,0-.84,5Z"/><path class="i" d="M473.62,268.34a43.16,43.16,0,0,0,21.84,6.16c12.46,0,19.74-6.58,19.74-16.1,0-8.82-5-13.86-17.78-18.76C482,234.18,472.5,226.2,472.5,212.9c0-14.7,12.18-25.62,30.52-25.62,9.66,0,16.66,2.24,20.86,4.62l-3.36,9.94a37.58,37.58,0,0,0-17.92-4.48c-12.88,0-17.78,7.7-17.78,14.14,0,8.82,5.74,13.16,18.76,18.2,16,6.16,24.08,13.86,24.08,27.72,0,14.56-10.78,27.16-33,27.16-9.1,0-19-2.66-24.08-6Z"/><path class="i" d="M551.59,251.54c.29,16.66,10.92,23.52,23.25,23.52,8.82,0,14.14-1.54,18.75-3.5l2.1,8.82c-4.34,2-11.76,4.2-22.53,4.2-20.86,0-33.32-13.72-33.32-34.16s12-36.54,31.77-36.54c22.13,0,28,19.46,28,31.92a44.55,44.55,0,0,1-.42,5.74Zm36.13-8.82c.13-7.84-3.22-20-17.08-20-12.46,0-17.92,11.48-18.9,20Z"/><path class="i" d="M663.17,280.66c-3.22,1.68-10.36,3.92-19.46,3.92C623.27,284.58,610,270.72,610,250s14.28-36,36.4-36a41.18,41.18,0,0,1,17.08,3.5l-2.8,9.52c-2.94-1.68-7.56-3.22-14.28-3.22-15.54,0-23.94,11.48-23.94,25.62,0,15.68,10.08,25.34,23.52,25.34a35,35,0,0,0,15.12-3.36Z"/><path class="i" d="M734.29,264.7c0,7,.14,13.16.56,18.48H723.93l-.7-11.06H723a25.49,25.49,0,0,1-22.4,12.6c-10.64,0-23.38-5.88-23.38-29.68V215.42h12.32v37.52c0,12.88,3.92,21.56,15.12,21.56,8.26,0,14-5.74,16.24-11.2A18,18,0,0,0,722,257V215.42h12.32Z"/><path class="i" d="M754.73,236.56c0-8-.14-14.84-.56-21.14H765l.42,13.3h.56c3.08-9.1,10.5-14.84,18.76-14.84a13.33,13.33,0,0,1,3.5.42v11.62a18.51,18.51,0,0,0-4.2-.42c-8.68,0-14.84,6.58-16.52,15.82a34.68,34.68,0,0,0-.56,5.74v36.12H754.73Z"/><path class="i" d="M814.79,196.38c.14,4.2-2.94,7.56-7.84,7.56a7.33,7.33,0,0,1-7.42-7.56,7.51,7.51,0,0,1,7.7-7.7C811.85,188.68,814.79,192,814.79,196.38Zm-13.72,86.8V215.42h12.32v67.76Z"/><path class="i" d="M848.67,196v19.46h17.64v9.38H848.67v36.54c0,8.4,2.38,13.16,9.24,13.16a27.41,27.41,0,0,0,7.14-.84l.56,9.24a30.16,30.16,0,0,1-10.92,1.68c-5.74,0-10.36-1.82-13.3-5.18-3.5-3.64-4.76-9.66-4.76-17.64v-37h-10.5v-9.38h10.5V199.18Z"/><path class="i" d="M885.91,215.42l14.84,40c1.54,4.48,3.22,9.8,4.34,13.86h.28c1.26-4.06,2.66-9.24,4.34-14.14l13.44-39.76h13l-18.48,48.3c-8.82,23.24-14.84,35.14-23.24,42.42a33.38,33.38,0,0,1-15.12,8l-3.08-10.36a32.59,32.59,0,0,0,10.78-6A37.35,37.35,0,0,0,897.39,284a8.84,8.84,0,0,0,1-2.94,10.74,10.74,0,0,0-.84-3.22l-25.06-62.44Z"/><path class="i" d="M966.69,288.78l39.06-101.5h9.52l-39.2,101.5Z"/><path class="i" d="M1065.52,283.18l-23.94-94.36h12.88l11.2,47.74c2.8,11.76,5.32,23.52,7,32.62h.28c1.54-9.38,4.48-20.58,7.7-32.76l12.6-47.6H1106l11.48,47.88c2.66,11.2,5.18,22.4,6.58,32.34h.28c2-10.36,4.62-20.86,7.56-32.62l12.46-47.6h12.46l-26.74,94.36h-12.74L1105.42,234a284.13,284.13,0,0,1-6.16-30.8H1099a294.79,294.79,0,0,1-7.28,30.8l-13.44,49.14Z"/><path class="i" d="M1175.84,253.5l-9.8,29.68h-12.6l32.06-94.36h14.7l32.2,94.36h-13L1209.3,253.5Zm30.94-9.52-9.24-27.16c-2.1-6.16-3.5-11.76-4.9-17.22h-.28c-1.4,5.6-2.94,11.34-4.76,17.08l-9.24,27.3Z"/><path class="i" d="M1246.26,188.82h50.82V199h-38.64V230.4h35.7v10.08h-35.7v42.7h-12.18Z"/></svg>