<svg xmlns="http://www.w3.org/2000/svg" xmlns:xlink="http://www.w3.org/1999/xlink" viewBox="0 0 1920 1080"><defs><style>.a{fill:none;}.b{clip-path:url(#a);}.c{fill:url(#b);}.d{fill:url(#c);}.e,.f{fill:#fff;}.e{opacity:0.3;}</style><clipPath id="a"><rect class="a" y="0.8" width="1920" height="1078.4"/></clipPath><linearGradient id="b" x1="262.77" y1="871.65" x2="1422.82" y2="-288.4" gradientUnits="userSpaceOnUse"><stop offset="0" stop-color="#0091da"/><stop offset="0.11" stop-color="#189ab5"/><stop offset="0.26" stop-color="#35a588"/><stop offset="0.41" stop-color="#4dae62"/><stop offset="0.56" stop-color="#60b545"/><stop offset="0.71" stop-color="#6dba31"/><stop offset="0.86" stop-color="#75bd24"/><stop offset="1" stop-color="#78be20"/></linearGradient><linearGradient id="c" x1="2489.25" y1="-1122.84" x2="3124.53" y2="-1758.11" gradientTransform="translate(4363.97 -732.52) rotate(180)" gradientUnits="userSpaceOnUse"><stop offset="0" stop-color="#1d428a"/><stop offset="0.2" stop-color="#1d428a" stop-opacity="0.97"/><stop offset="0.4" stop-color="#1d428a" stop-opacity="0.88"/><stop offset="0.61" stop-color="#1d428a" stop-opacity="0.73"/><stop offset="0.82" stop-color="#1d428a" stop-opacity="0.52"/><stop offset="1" stop-color="#1d428a" stop-opacity="0.3"/></linearGradient></defs><g class="b"><polygon class="c" points="0 1080.8 1187.24 1080.8 2267.24 0.8 0 0.8 0 1080.8"/><polygon class="d" points="2099.02 329.48 1772.1 329.48 1015.09 1086.49 1342.01 1086.49 2099.02 329.48"/><rect class="a" y="0.8" width="1920" height="1078.4"/></g><circle class="e" cx="749.1" cy="659.1" r="243.1"/><path class="f" d="M868.6,793.6H686.82l-87.21-91.46V617.48l84.09-92.87H868.6Zm-178.67-7.08H861.52V531.68H686.82l-80.14,88.63v79Z"/><circle class="f" cx="728.16" cy="580.1" r="21.24"/><circle class="f" cx="728.16" cy="663.63" r="21.24"/><circle class="f" cx="645.19" cy="663.63" r="21.24"/><circle class="f" cx="728.16" cy="746.6" r="21.24"/><rect class="f" x="666.77" y="619.68" width="45.87" height="7.08" transform="translate(-238.68 670.23) rotate(-45)"/><rect class="f" x="685.98" y="684.38" width="7.08" height="45.87" transform="translate(-298.19 694.73) rotate(-45)"/><rect class="f" x="678.04" y="660.23" width="25.2" height="7.08"/><polygon class="f" points="812.25 599.07 845.1 580.1 812.25 561.13 812.25 573.02 760.15 573.02 760.15 587.18 812.25 587.18 812.25 599.07"/><polygon class="f" points="812.25 656.55 760.15 656.55 760.15 670.71 812.25 670.71 812.25 682.89 845.1 663.63 812.25 644.66 812.25 656.55"/><polygon class="f" points="812.25 739.52 760.15 739.52 760.15 753.67 812.25 753.67 812.25 765.85 845.1 746.6 812.25 727.62 812.25 739.52"/><path class="f" d="M314.69,188.82h12.18V273h40.32v10.22h-52.5Z"/><path class="f" d="M439.71,248.74c0,25.06-17.36,36-33.74,36-18.34,0-32.48-13.44-32.48-34.86,0-22.68,14.84-36,33.6-36C426.55,213.88,439.71,228,439.71,248.74Zm-53.76.7c0,14.84,8.54,26,20.58,26,11.76,0,20.58-11.06,20.58-26.32,0-11.48-5.74-26-20.3-26S386,236.56,386,249.44Z"/><path class="f" d="M492.77,283.18l-1-8.54h-.42a25.24,25.24,0,0,1-20.72,10.08c-13.72,0-20.72-9.66-20.72-19.46,0-16.38,14.56-25.34,40.74-25.2v-1.4c0-5.6-1.54-15.68-15.4-15.68a33.76,33.76,0,0,0-17.64,5l-2.8-8.12c5.6-3.64,13.72-6,22.26-6,20.72,0,25.76,14.14,25.76,27.72v25.34A95.41,95.41,0,0,0,504,283.18ZM491,248.6c-13.44-.28-28.7,2.1-28.7,15.26,0,8,5.32,11.76,11.62,11.76a16.86,16.86,0,0,0,16.38-11.34,12.86,12.86,0,0,0,.7-3.92Z"/><path class="f" d="M581.25,183.78v81.9c0,6,.14,12.88.56,17.5H570.75l-.56-11.76h-.28c-3.78,7.56-12,13.3-23.1,13.3-16.38,0-29-13.86-29-34.44-.14-22.54,13.86-36.4,30.38-36.4,10.36,0,17.36,4.9,20.44,10.36h.28V183.78ZM568.93,243a21.75,21.75,0,0,0-.56-5.18,18.12,18.12,0,0,0-17.78-14.28c-12.74,0-20.3,11.2-20.3,26.18,0,13.72,6.72,25.06,20,25.06,8.26,0,15.82-5.46,18.06-14.7a21.4,21.4,0,0,0,.56-5.32Z"/><path class="f" d="M631.78,190.08a118,118,0,0,1,22.26-2c12.18,0,20,2.1,25.9,6.86,4.9,3.64,7.84,9.24,7.84,16.66,0,9.1-6,17.08-16,20.72v.28c9,2.24,19.46,9.66,19.46,23.66a25.44,25.44,0,0,1-8,18.9c-6.58,6-17.22,8.82-32.62,8.82a142.39,142.39,0,0,1-18.9-1.12ZM644,228.72H655c12.88,0,20.44-6.72,20.44-15.82,0-11.06-8.4-15.4-20.72-15.4a52.25,52.25,0,0,0-10.78.84Zm0,45.22a65.08,65.08,0,0,0,10.22.56c12.6,0,24.22-4.62,24.22-18.34,0-12.88-11.06-18.2-24.36-18.2H644Z"/><path class="f" d="M744.76,283.18l-1-8.54h-.42a25.24,25.24,0,0,1-20.72,10.08c-13.72,0-20.72-9.66-20.72-19.46,0-16.38,14.56-25.34,40.74-25.2v-1.4c0-5.6-1.54-15.68-15.4-15.68a33.76,33.76,0,0,0-17.64,5l-2.8-8.12c5.6-3.64,13.72-6,22.26-6,20.72,0,25.76,14.14,25.76,27.72v25.34A95.41,95.41,0,0,0,756,283.18Zm-1.82-34.58c-13.44-.28-28.7,2.1-28.7,15.26,0,8,5.32,11.76,11.62,11.76a16.86,16.86,0,0,0,16.38-11.34,12.86,12.86,0,0,0,.7-3.92Z"/><path class="f" d="M774.72,183.78H787v99.4H774.72Z"/><path class="f" d="M845.28,283.18l-1-8.54h-.42a25.24,25.24,0,0,1-20.72,10.08c-13.72,0-20.72-9.66-20.72-19.46,0-16.38,14.56-25.34,40.74-25.2v-1.4c0-5.6-1.54-15.68-15.4-15.68a33.76,33.76,0,0,0-17.64,5l-2.8-8.12c5.6-3.64,13.72-6,22.26-6,20.72,0,25.76,14.14,25.76,27.72v25.34a95.41,95.41,0,0,0,1.12,16.24Zm-1.82-34.58c-13.44-.28-28.7,2.1-28.7,15.26,0,8,5.32,11.76,11.62,11.76a16.86,16.86,0,0,0,16.38-11.34,12.86,12.86,0,0,0,.7-3.92Z"/><path class="f" d="M875.24,233.76c0-7-.14-12.74-.56-18.34H885.6l.7,11.2h.28c3.36-6.44,11.2-12.74,22.4-12.74,9.38,0,23.94,5.6,23.94,28.84v40.46H920.6V244.12c0-10.92-4.06-20-15.68-20a17.5,17.5,0,0,0-16.52,12.6,17.71,17.71,0,0,0-.84,5.74v40.74H875.24Z"/><path class="f" d="M1001.24,280.66c-3.22,1.68-10.36,3.92-19.46,3.92C961.34,284.58,948,270.72,948,250s14.28-36,36.4-36a41.18,41.18,0,0,1,17.08,3.5l-2.8,9.52c-2.94-1.68-7.56-3.22-14.28-3.22-15.54,0-23.94,11.48-23.94,25.62,0,15.68,10.08,25.34,23.52,25.34a35,35,0,0,0,15.12-3.36Z"/><path class="f" d="M1029.38,196.38c.14,4.2-2.94,7.56-7.84,7.56a7.33,7.33,0,0,1-7.42-7.56,7.51,7.51,0,0,1,7.7-7.7C1026.44,188.68,1029.38,192,1029.38,196.38Zm-13.72,86.8V215.42H1028v67.76Z"/><path class="f" d="M1048.42,233.76c0-7-.14-12.74-.56-18.34h10.92l.7,11.2h.28c3.36-6.44,11.2-12.74,22.4-12.74,9.38,0,23.94,5.6,23.94,28.84v40.46h-12.32V244.12c0-10.92-4.06-20-15.68-20a17.5,17.5,0,0,0-16.52,12.6,17.71,17.71,0,0,0-.84,5.74v40.74h-12.32Z"/><path class="f" d="M1184.5,215.42c-.28,4.9-.56,10.36-.56,18.62v39.34c0,15.54-3.08,25.06-9.66,30.94-6.58,6.16-16.1,8.12-24.64,8.12-8.12,0-17.08-2-22.54-5.6l3.08-9.38a38.21,38.21,0,0,0,19.88,5.32c12.6,0,21.84-6.58,21.84-23.66v-7.56h-.28c-3.78,6.3-11.06,11.34-21.56,11.34-16.8,0-28.84-14.28-28.84-33,0-23,15-36,30.52-36,11.76,0,18.2,6.16,21.14,11.76h.28l.56-10.22Zm-12.74,26.74a17.55,17.55,0,0,0-.7-5.6c-2.24-7.14-8.26-13-17.22-13-11.76,0-20.16,9.94-20.16,25.62,0,13.3,6.72,24.36,20,24.36a18,18,0,0,0,17.08-12.6,21.43,21.43,0,0,0,1-6.58Z"/></svg>