<svg xmlns="http://www.w3.org/2000/svg" viewBox="0 0 100 100"><defs><style>.a{fill:#1d428a;}.a,.b{fill-rule:evenodd;}.b{fill:#0091da;}</style></defs><path class="a" d="M21.68,49.65c0-15.49,12.83-28.12,28.61-28.12A28.68,28.68,0,0,1,75.05,35.47l-4.87-.87-.32,1.61,7.47,1.31,1.51-7.27-1.65-.32-.94,4.36a30.28,30.28,0,0,0-26-14.44C33.59,19.85,20,33.23,20,49.65A29.66,29.66,0,0,0,25,66.2l1.39-.93A28.54,28.54,0,0,1,21.68,49.65Z"/><path class="a" d="M78.23,39.89l-1.57.57a27.34,27.34,0,0,1,1.75,9.8A28.34,28.34,0,0,1,29.94,70l4.88.88.31-1.62-7.39-1.31-1.51,7.27,1.63.31.94-4.34A30,30,0,0,0,80.09,50.21,29.12,29.12,0,0,0,78.23,39.89Z"/><path class="a" d="M47.88,54.8a2.52,2.52,0,0,0,.93,2v2.44c0,.33.2.66.51.66h.88a.59.59,0,0,0,.51-.66V56.84a2.52,2.52,0,0,0,.93-2,2.16,2.16,0,0,0-1.86-2.38A2.19,2.19,0,0,0,47.88,54.8Z"/><path class="b" d="M62.25,56.13a11.93,11.93,0,1,1-11.93-12A11.93,11.93,0,0,1,62.25,56.13ZM44.76,37.38A5.62,5.62,0,1,1,56,37a2.81,2.81,0,0,1,0,.41v6.15a13.32,13.32,0,0,0-5.62-1.25,14.26,14.26,0,0,0-5.62,1.18Zm5.62-7.54a7.48,7.48,0,0,0-7.48,7.47v7.21a13.79,13.79,0,1,0,15,0V37.38a7.54,7.54,0,0,0-7.48-7.5Z"/></svg>