<?xml version="1.0" encoding="utf-8"?>
<!-- Generator: Adobe Illustrator 26.0.1, SVG Export Plug-In . SVG Version: 6.00 Build 0)  -->
<svg version="1.1" id="Layer_1" xmlns="http://www.w3.org/2000/svg" xmlns:xlink="http://www.w3.org/1999/xlink" x="0px" y="0px"
	 viewBox="0 0 100 100" style="enable-background:new 0 0 100 100;" xml:space="preserve">
<style type="text/css">
	.st0{fill-rule:evenodd;clip-rule:evenodd;fill:#0091DA;}
	.st1{fill-rule:evenodd;clip-rule:evenodd;fill:#1D428A;}
	.st2{fill:#0091DA;}
	.st3{fill:#1D428A;}
</style>
<g>
	<path class="st1" d="M59.8,77.4H40.2c-0.6,0-1-0.4-1.2-0.9c-0.2-0.6,0-1.2,0.5-1.5c1.5-0.9,3-1.6,4.7-2.2l1.1-8.4l1.6,0.2l-1.2,9.4
		l-0.4,0.2c-0.8,0.3-2.5,1-3.7,1.6h17.1c-1.2-0.6-2.9-1.3-3.7-1.6l-0.4-0.2l-0.9-9.3l1.6-0.1l0.8,8.4c1.6,0.6,3.1,1.4,4.6,2.2
		c0.5,0.4,0.7,1,0.5,1.5C60.8,77,60.3,77.4,59.8,77.4z"/>
	<path class="st1" d="M77.3,26.6H22.5c-1.6-0.1-3,1.1-3.1,2.7c0,0,0,0,0,0v31c0.1,1.6,1.5,2.8,3,2.7c0,0,0,0,0,0h54.9
		c1.7,0.1,3.1-1.2,3.2-2.9c0,0,0,0,0,0V29.6C80.7,27.9,79.2,26.6,77.3,26.6z M77.3,28.3c0.8-0.1,1.6,0.5,1.7,1.3v30.7
		c-0.1,0.8-0.8,1.3-1.6,1.2H22.5c-0.8,0-1.4-0.5-1.4-1.1v-31c0-0.6,0.7-1.1,1.4-1.1L77.3,28.3"/>
	<rect x="24.6" y="56.6" class="st3" width="49.5" height="1.3"/>
	<path class="st1" d="M36.1,53.9c-3.1,0-6-1.2-8.1-3.4c-4.5-4.6-4.5-12,0-16.6c4.3-4.5,11.5-4.6,15.9-0.2c0.1,0.1,0.2,0.2,0.2,0.2
		L43,35.2c-3.8-3.8-9.9-3.9-13.7-0.1c0,0-0.1,0.1-0.1,0.1c-3.8,4-3.8,10.3,0,14.2c3.8,3.8,9.9,3.9,13.7,0.1c0,0,0.1-0.1,0.1-0.1
		l1.2,1.2C42,52.8,39.1,54,36.1,53.9z"/>
	<path class="st0" d="M36.7,42.2l6.5,6.6c3.2-3.9,3.2-9.4,0-13.3L36.7,42.2z M43.3,51.4l-8.9-9.1l9-9.1l0.6,0.6
		c4.6,4.7,4.6,12.3,0,17L43.3,51.4z"/>
	<rect x="63.2" y="38.3" class="st3" width="5.7" height="1.3"/>
	<path class="st1" d="M64.3,39.6h-3.8c-0.4,0-0.7-0.3-0.7-0.7c0-0.4,0.3-0.6,0.7-0.6h3.8c0.4,0,0.7,0.2,0.7,0.6s-0.2,0.7-0.6,0.7
		C64.4,39.6,64.3,39.6,64.3,39.6L64.3,39.6z"/>
	<rect x="63.7" y="46.1" class="st3" width="1.3" height="1.3"/>
	<path class="st1" d="M64.2,47.4h-3.7c-0.4,0-0.7-0.3-0.7-0.7c0-0.4,0.4-0.7,0.7-0.7h3.7c0.4-0.1,0.7,0.2,0.8,0.6s-0.2,0.7-0.6,0.8
		C64.4,47.5,64.3,47.5,64.2,47.4z"/>
	<rect x="71.5" y="46.1" class="st3" width="1.3" height="1.3"/>
	<path class="st1" d="M73.4,47.4h-1.2c-0.4,0-0.7-0.3-0.7-0.7c0-0.4,0.3-0.6,0.7-0.7h1.2c0.4,0,0.7,0.3,0.7,0.7
		C74,47.2,73.7,47.4,73.4,47.4C73.4,47.4,73.4,47.4,73.4,47.4z"/>
	<path class="st0" d="M74.1,39c0,1.1-0.9,2-1.9,2c-1.1,0-2-0.9-2-1.9c0-1.1,0.9-2,1.9-2c0,0,0,0,0,0C73.2,37,74.1,37.9,74.1,39z"/>
	<path class="st0" d="M70.2,46.8c0,1.1-0.9,2-2,2s-2-0.9-2-2s0.9-2,2-2C69.3,44.8,70.2,45.7,70.2,46.8
		C70.2,46.8,70.2,46.8,70.2,46.8z"/>
</g>
</svg>
