<?xml version="1.0" encoding="utf-8"?>
<!-- Generator: Adobe Illustrator 19.2.1, SVG Export Plug-In . SVG Version: 6.00 Build 0)  -->
<svg version="1.1" xmlns="http://www.w3.org/2000/svg" xmlns:xlink="http://www.w3.org/1999/xlink" x="0px" y="0px"
	 viewBox="0 0 490 300" enable-background="new 0 0 490 300" xml:space="preserve">
<symbol  id="New_Symbol" viewBox="-14.9 -14.9 29.9 29.9">
	<path fill="#EC4F24" d="M14.9-9.7c0-2.9-2.3-5.2-5.2-5.2H-9.7c-2.9,0-5.2,2.3-5.2,5.2V9.7c0,2.9,2.3,5.2,5.2,5.2H9.7
		c2.9,0,5.2-2.3,5.2-5.2V-9.7z"/>
	<g>
		<path fill="#FFFFFF" d="M-0.1,3.6v1.7h-1.6c-0.1,0.6-0.3,1.1-0.6,1.6L-1.2,8l-1.2,1.2L-3.6,8c-0.5,0.3-1,0.6-1.6,0.7v1.6h-1.7V8.7
			C-7.4,8.6-8,8.4-8.5,8.1l-1.1,1.1L-10.8,8l1.1-1.1c-0.3-0.5-0.5-1-0.7-1.6h-1.6V3.6h1.6C-10.2,3-10,2.4-9.6,2l-1.1-1.1l1.2-1.2
			l1.2,1.2c0.5-0.3,1-0.5,1.6-0.6v-1.7h1.7v1.7c0.6,0.1,1.1,0.3,1.6,0.7l1.2-1.2l1.2,1.2L-2.4,2c0.3,0.5,0.5,1,0.7,1.6H-0.1z
			 M-6,1.8c-1.5,0-2.7,1.2-2.7,2.7S-7.5,7.1-6,7.1s2.7-1.2,2.7-2.7S-4.6,1.8-6,1.8z"/>
		<path fill="#FFFFFF" d="M12.3-4.1v1.9h-1.8c-0.1,0.6-0.4,1.2-0.7,1.7l1.3,1.3L9.7,2.1L8.5,0.8C8,1.2,7.4,1.4,6.7,1.5v1.8H4.9V1.6
			C4.2,1.4,3.6,1.2,3.1,0.8L1.9,2.1L0.5,0.7l1.2-1.2C1.4-1,1.2-1.6,1-2.3h-1.8v-1.9h1.8c0.1-0.6,0.4-1.2,0.7-1.8L0.5-7.2l1.3-1.3
			l1.3,1.3c0.5-0.3,1.1-0.6,1.7-0.7v-1.8h1.9v1.8c0.6,0.1,1.2,0.4,1.7,0.7l1.3-1.3l1.3,1.3L9.8-5.9c0.3,0.5,0.6,1.1,0.7,1.7H12.3z
			 M5.8-6.1c-1.6,0-3,1.3-3,3s1.3,3,3,3s3-1.3,3-3S7.4-6.1,5.8-6.1z"/>
	</g>
</symbol>
<g id="Artwork__x5B_Live_x5D_" display="none">
	<g id="XMLID_3118_" display="inline">
		<path id="XMLID_3119_" fill-rule="evenodd" clip-rule="evenodd" fill="#57BFFF" d="M152.7,73.3h50.1c0.6,0,1,0.4,1,0.8v11.5
			c0,0.4-0.5,0.8-1,0.8h-50.1c-0.6,0-1-0.4-1-0.8V74.1C151.7,73.7,152.2,73.3,152.7,73.3L152.7,73.3z M194.8,77.9
			c-0.3,0-0.5,0.2-0.5,0.4v3.2c0,0.2,0.2,0.4,0.5,0.4h3.9c0.3,0,0.5-0.2,0.5-0.4v-3.2c0-0.2-0.2-0.4-0.5-0.4H194.8L194.8,77.9z
			 M152.7,89.6h50.1c0.6,0,1,0.4,1,0.8v11.5c0,0.4-0.5,0.8-1,0.8h-50.1c-0.6,0-1-0.4-1-0.8V90.4C151.7,90,152.2,89.6,152.7,89.6
			L152.7,89.6z M194.8,94.2c-0.3,0-0.5,0.2-0.5,0.4v3.2c0,0.2,0.2,0.4,0.5,0.4h3.9c0.3,0,0.5-0.2,0.5-0.4v-3.2
			c0-0.2-0.2-0.4-0.5-0.4H194.8L194.8,94.2z M152.7,105.9h50.1c0.6,0,1,0.4,1,0.8v11.5c0,0.4-0.5,0.8-1,0.8h-50.1
			c-0.6,0-1-0.4-1-0.8v-11.5C151.7,106.2,152.2,105.9,152.7,105.9L152.7,105.9z M194.8,110.4c-0.3,0-0.5,0.2-0.5,0.4v3.2
			c0,0.2,0.2,0.4,0.5,0.4h3.9c0.3,0,0.5-0.2,0.5-0.4v-3.2c0-0.2-0.2-0.4-0.5-0.4H194.8z"/>
	</g>
	<text id="XMLID_3117_" transform="matrix(1 0 0 1 141.6925 138.0288)" display="inline"><tspan x="0" y="0" fill="#8A9192" font-family="'BrandonGrotesque-Bold'" font-size="16px">Bare Metal </tspan><tspan x="14.8" y="16" fill="#8A9192" font-family="'BrandonGrotesque-Bold'" font-size="16px">Server</tspan></text>
	<g id="XMLID_3104_" display="inline">
		<rect id="XMLID_3115_" x="400.5" y="83.4" fill="#57BFFF" width="77.1" height="35.5"/>
		<polyline id="XMLID_3114_" fill="none" stroke="#57BFFF" stroke-width="4.9942" stroke-miterlimit="10" points="404.4,86.1 
			440.2,64 475.1,86.5 		"/>
		
			<line id="XMLID_3113_" fill="none" stroke="#57BFFF" stroke-width="4.9942" stroke-miterlimit="10" x1="440.2" y1="63.2" x2="440.2" y2="44.9"/>
		<circle id="XMLID_3112_" fill="#FFFFFF" cx="440.4" cy="64.2" r="6.6"/>
		<circle id="XMLID_3111_" fill="#57BFFF" cx="440.4" cy="64.2" r="3.8"/>
		<polyline id="XMLID_3110_" fill="none" stroke="#FFFFFF" stroke-width="3.3295" stroke-miterlimit="10" points="415.4,114 
			409.4,114 409.4,87.5 		"/>
		<polyline id="XMLID_3109_" fill="none" stroke="#FFFFFF" stroke-width="3.3295" stroke-miterlimit="10" points="426.7,114 
			420.8,114 420.8,87.5 		"/>
		<polyline id="XMLID_3108_" fill="none" stroke="#FFFFFF" stroke-width="3.3295" stroke-miterlimit="10" points="438.1,114 
			432.1,114 432.1,87.5 		"/>
		<polyline id="XMLID_3107_" fill="none" stroke="#FFFFFF" stroke-width="3.3295" stroke-miterlimit="10" points="449.5,114 
			443.5,114 443.5,87.5 		"/>
		<polyline id="XMLID_3106_" fill="none" stroke="#FFFFFF" stroke-width="3.3295" stroke-miterlimit="10" points="460.9,114 
			454.9,114 454.9,87.5 		"/>
		<polyline id="XMLID_3105_" fill="none" stroke="#FFFFFF" stroke-width="3.3295" stroke-miterlimit="10" points="472.2,114 
			466.3,114 466.3,87.5 		"/>
	</g>
	
		<text id="XMLID_3103_" transform="matrix(1 0 0 1 407.1621 138.0288)" display="inline" fill="#8A9192" font-family="'BrandonGrotesque-Bold'" font-size="16px">Container</text>
	<g id="XMLID_3066_" display="inline">
		<g id="XMLID_3068_">
			<g id="XMLID_3069_">
				<g id="XMLID_3100_">
					<path id="XMLID_3101_" fill="#57BFFF" d="M344.9,99.5c0,1.7-1.4,3-3,3h-68.4c-1.7,0-3-1.4-3-3V57.4c0-1.7,1.4-3,3-3h68.4
						c1.7,0,3,1.4,3,3V99.5z"/>
				</g>
				<g id="XMLID_3098_">
					<rect id="XMLID_3099_" x="276.1" y="59.6" fill="#FFFFFF" width="63.1" height="37.6"/>
				</g>
				<g id="XMLID_3096_">
					<path id="XMLID_3097_" fill="#57BFFF" d="M327.6,89.7c0,0.9-0.7,1.6-1.6,1.6h-36.7c-0.9,0-1.6-0.7-1.6-1.6V67.1
						c0-0.9,0.7-1.6,1.6-1.6H326c0.9,0,1.6,0.7,1.6,1.6V89.7z"/>
				</g>
				<g id="XMLID_3094_">
					<rect id="XMLID_3095_" x="291" y="71.9" fill="#FFFFFF" width="33.3" height="16.9"/>
				</g>
				<g id="XMLID_3092_">
					<polygon id="XMLID_3093_" fill="#57BFFF" points="315.3,102.4 299.9,102.4 298.8,115.6 316.4,115.6 					"/>
				</g>
				<g id="XMLID_3072_">
					<path id="XMLID_3091_" fill="#57BFFF" d="M322.7,115.4h-30.2c-1,0-1.8,0.8-1.8,1.8l0,0c0,1,0.8,1.8,1.8,1.8h30.2
						c1,0,1.8-0.8,1.8-1.8l0,0C324.5,116.2,323.7,115.4,322.7,115.4z"/>
				</g>
			</g>
		</g>
		
			<text id="XMLID_3067_" transform="matrix(1 0 0 1 296.8983 84.8633)" fill="#57BFFF" font-family="'EurostileBold'" font-size="13.8641px">VM</text>
	</g>
	
		<text id="XMLID_3065_" transform="matrix(1 0 0 1 296.4327 138.0288)" display="inline" fill="#8A9192" font-family="'BrandonGrotesque-Bold'" font-size="16px">VM</text>
	<g id="XMLID_3061_" display="inline">
		<g id="XMLID_3062_">
			<path id="XMLID_3063_" fill="none" stroke="#57BFFF" stroke-width="4.9942" stroke-miterlimit="10" d="M409.6,255.3L409.6,255.3
				c0,0,0.1,0,0.1,0c8.3,0,15-6,15-13.3c0-6.4-5-11.7-11.7-13c0.1-0.6,0.1-1.2,0.1-1.9c0-9.8-8.9-17.8-20-17.8
				c-6.5,0-12.3,2.8-16,7.1c-1.9-0.7-3.9-1.1-6.1-1.1c-8.3,0-15,6-15,13.3c0,0.1,0,0.3,0,0.4c-6.5,1.5-11.2,6.7-11.2,12.9
				c0,7.4,6.7,13.3,15,13.3H409.6z"/>
		</g>
	</g>
	<g id="XMLID_3018_" display="inline">
		<path id="XMLID_3058_" fill-rule="evenodd" clip-rule="evenodd" fill="#57BFFF" d="M270.4,257.8c0.6,0,1-0.4,1-0.8v-11.5
			c0-0.4-0.5-0.8-1-0.8l-33.8-3.3v16.4H270.4z M262.4,249l3.9,0.3c0.3,0,0.5,0.2,0.5,0.4v3.2c0,0.2-0.2,0.4-0.5,0.4h-3.9
			c-0.3,0-0.5-0.2-0.5-0.4v-3.5C261.9,249.1,262.1,249,262.4,249z"/>
		<path id="XMLID_3055_" fill-rule="evenodd" clip-rule="evenodd" fill="#57BFFF" d="M270.4,241.5c0.6,0,1-0.4,1-0.8v-11.5
			c0-0.4-0.5-0.8-1-0.8l-33.8-8.3v18.1L270.4,241.5z M262.4,232.4l3.9,0.6c0.3,0,0.5,0.2,0.5,0.4v3.2c0,0.2-0.2,0.4-0.5,0.4
			l-3.9-0.6c-0.3,0-0.5-0.2-0.5-0.4v-3.2C261.9,232.6,262.1,232.4,262.4,232.4z"/>
		<path id="XMLID_3054_" fill-rule="evenodd" clip-rule="evenodd" fill="#57BFFF" d="M220.3,212.2c-0.6,0-1,0.4-1,0.8v11.5
			c0,0.4,0.5,0.8,1,0.8l16.3-8.3v-19.8L220.3,212.2z"/>
		<path id="XMLID_3051_" fill-rule="evenodd" clip-rule="evenodd" fill="#57BFFF" d="M271.4,224.5V213c0-0.4-0.5-0.8-1-0.8l-33.8-15
			v19.8l33.8,8.3C271,225.3,271.4,224.9,271.4,224.5z M266.8,220.3c0,0.2-0.2,0.4-0.5,0.4l-3.9-1c-0.3,0-0.5-0.2-0.5-0.4v-3.2
			c0-0.2,0.2-0.4,0.5-0.4l3.9,1c0.3,0,0.5,0.2,0.5,0.4V220.3z"/>
		<path id="XMLID_3050_" fill-rule="evenodd" clip-rule="evenodd" fill="#57BFFF" d="M220.3,195.6c-0.6,0-1,0.4-1,0.8v11.5
			c0,0.4,0.5,0.8,1,0.8l16.3-15.6v-19.8L220.3,195.6z"/>
		<path id="XMLID_3047_" fill-rule="evenodd" clip-rule="evenodd" fill="#57BFFF" d="M271.4,208.8v-11.5c0-0.4-0.5-0.8-1-0.8
			l-33.8-23.2v19.8l33.8,16.5C271,209.6,271.4,209.2,271.4,208.8z M266.8,204.6c0,0.2-0.2,0.4-0.5,0.4l-3.9-1.9
			c-0.3,0-0.5-0.2-0.5-0.4v-3.7c0-0.2,0.2-0.4,0.5-0.4l3.9,2.4c0.3,0,0.5,0.2,0.5,0.4V204.6z"/>
		<path id="XMLID_3046_" fill-rule="evenodd" clip-rule="evenodd" fill="#57BFFF" d="M219.3,229.2v11.5c0,0.4,0.5,0.8,1,0.8
			l16.3-3.3v-18.1l-16.3,8.3C219.7,228.4,219.3,228.8,219.3,229.2z"/>
		<path id="XMLID_3045_" fill-rule="evenodd" clip-rule="evenodd" fill="#57BFFF" d="M219.3,245.5V257c0,0.4,0.5,0.8,1,0.8h16.3
			v-16.4l-16.3,3.3C219.7,244.7,219.3,245.1,219.3,245.5z"/>
		<g id="XMLID_3032_">
			<path id="XMLID_3042_" fill-rule="evenodd" clip-rule="evenodd" fill="#57BFFF" d="M215,257.9c0.3,0,0.5-0.2,0.5-0.4v-5.9
				c0-0.2-0.2-0.4-0.5-0.4l-17.4-1.7v8.5H215z M210.9,253.3l2,0.2c0.1,0,0.3,0.1,0.3,0.2v1.6c0,0.1-0.1,0.2-0.3,0.2h-2
				c-0.1,0-0.3-0.1-0.3-0.2v-1.8C210.6,253.4,210.7,253.3,210.9,253.3z"/>
			<path id="XMLID_3039_" fill-rule="evenodd" clip-rule="evenodd" fill="#57BFFF" d="M215,249.5c0.3,0,0.5-0.2,0.5-0.4v-5.9
				c0-0.2-0.2-0.4-0.5-0.4l-17.4-4.3v9.3L215,249.5z M210.9,244.8l2,0.3c0.1,0,0.3,0.1,0.3,0.2v1.6c0,0.1-0.1,0.2-0.3,0.2l-2-0.3
				c-0.1,0-0.3-0.1-0.3-0.2V245C210.6,244.9,210.7,244.8,210.9,244.8z"/>
			<path id="XMLID_3038_" fill-rule="evenodd" clip-rule="evenodd" fill="#57BFFF" d="M189.1,234.4c-0.3,0-0.5,0.2-0.5,0.4v5.9
				c0,0.2,0.2,0.4,0.5,0.4l8.4-4.3v-10.2L189.1,234.4z"/>
			<path id="XMLID_3035_" fill-rule="evenodd" clip-rule="evenodd" fill="#57BFFF" d="M215.5,240.7v-5.9c0-0.2-0.2-0.4-0.5-0.4
				l-17.4-7.7v10.2l17.4,4.3C215.3,241.1,215.5,240.9,215.5,240.7z M213.1,238.6c0,0.1-0.1,0.2-0.3,0.2l-2-0.5
				c-0.1,0-0.3-0.1-0.3-0.2v-1.6c0-0.1,0.1-0.2,0.3-0.2l2,0.5c0.1,0,0.3,0.1,0.3,0.2V238.6z"/>
			<path id="XMLID_3034_" fill-rule="evenodd" clip-rule="evenodd" fill="#57BFFF" d="M188.6,243.2v5.9c0,0.2,0.2,0.4,0.5,0.4
				l8.4-1.7v-9.3l-8.4,4.3C188.8,242.8,188.6,242.9,188.6,243.2z"/>
			<path id="XMLID_3033_" fill-rule="evenodd" clip-rule="evenodd" fill="#57BFFF" d="M188.6,251.6v5.9c0,0.2,0.2,0.4,0.5,0.4h8.4
				v-8.5l-8.4,1.7C188.8,251.1,188.6,251.3,188.6,251.6z"/>
		</g>
		<g id="XMLID_3019_">
			<path id="XMLID_3029_" fill-rule="evenodd" clip-rule="evenodd" fill="#57BFFF" d="M310.3,257.9c0.4,0,0.7-0.2,0.7-0.5v-7.6
				c0-0.3-0.3-0.5-0.7-0.5l-22.4-2.2v10.9H310.3z M305,252l2.6,0.2c0.2,0,0.3,0.1,0.3,0.3v2.1c0,0.1-0.2,0.3-0.3,0.3H305
				c-0.2,0-0.3-0.1-0.3-0.3v-2.3C304.7,252.2,304.8,252,305,252z"/>
			<path id="XMLID_3026_" fill-rule="evenodd" clip-rule="evenodd" fill="#57BFFF" d="M310.3,247.1c0.4,0,0.7-0.2,0.7-0.5V239
				c0-0.3-0.3-0.5-0.7-0.5l-22.4-5.5v12L310.3,247.1z M305,241.1l2.6,0.4c0.2,0,0.3,0.1,0.3,0.3v2.1c0,0.1-0.2,0.3-0.3,0.3l-2.6-0.4
				c-0.2,0-0.3-0.1-0.3-0.3v-2.1C304.7,241.2,304.8,241.1,305,241.1z"/>
			<path id="XMLID_3025_" fill-rule="evenodd" clip-rule="evenodd" fill="#57BFFF" d="M277.1,227.6c-0.4,0-0.7,0.2-0.7,0.5v7.6
				c0,0.3,0.3,0.5,0.7,0.5l10.8-5.5v-13.1L277.1,227.6z"/>
			<path id="XMLID_3022_" fill-rule="evenodd" clip-rule="evenodd" fill="#57BFFF" d="M311,235.8v-7.6c0-0.3-0.3-0.5-0.7-0.5
				l-22.4-9.9v13.1l22.4,5.5C310.7,236.3,311,236.1,311,235.8z M308,233c0,0.1-0.2,0.3-0.3,0.3l-2.6-0.7c-0.2,0-0.3-0.1-0.3-0.3
				v-2.1c0-0.1,0.2-0.3,0.3-0.3l2.6,0.7c0.2,0,0.3,0.1,0.3,0.3V233z"/>
			<path id="XMLID_3021_" fill-rule="evenodd" clip-rule="evenodd" fill="#57BFFF" d="M276.4,239v7.6c0,0.3,0.3,0.5,0.7,0.5
				l10.8-2.2v-12l-10.8,5.5C276.7,238.4,276.4,238.7,276.4,239z"/>
			<path id="XMLID_3020_" fill-rule="evenodd" clip-rule="evenodd" fill="#57BFFF" d="M276.4,249.8v7.6c0,0.3,0.3,0.5,0.7,0.5h10.8
				V247l-10.8,2.2C276.7,249.2,276.4,249.5,276.4,249.8z"/>
		</g>
	</g>
	
		<text id="XMLID_3017_" transform="matrix(1 0 0 1 210.777 278.8743)" display="inline" fill="#8A9192" font-family="'BrandonGrotesque-Bold'" font-size="14.3819px">Private Cloud</text>
	
		<text id="XMLID_3016_" transform="matrix(1 0 0 1 347.9637 278.8743)" display="inline" fill="#8A9192" font-family="'BrandonGrotesque-Bold'" font-size="14.3819px">Public Cloud</text>
	
		<use xlink:href="#New_Symbol"  width="29.9" height="29.9" id="XMLID_3015_" x="-14.9" y="-14.9" transform="matrix(1.6741 0 0 -1.6741 37.3868 80.0623)" display="inline" overflow="visible"/>
	<g id="XMLID_2987_" display="inline">
		<path id="XMLID_3014_" fill="#EC4F24" d="M141.4,83.1c0,2.1-1.7,3.9-3.9,3.9H123c-2.1,0-3.9-1.7-3.9-3.9V68.6
			c0-2.1,1.7-3.9,3.9-3.9h14.5c2.1,0,3.9,1.7,3.9,3.9V83.1z"/>
		
			<ellipse id="XMLID_3013_" transform="matrix(0.7071 -0.7071 0.7071 0.7071 -15.4095 114.2025)" fill="#FFFFFF" cx="130.1" cy="75.7" rx="3.8" ry="3.8"/>
		
			<ellipse id="XMLID_3012_" transform="matrix(0.7071 -0.7071 0.7071 0.7071 -15.4095 114.2025)" fill="#EC4F24" cx="130.1" cy="75.7" rx="2.7" ry="2.7"/>
		
			<rect id="XMLID_3011_" x="126" y="77" transform="matrix(0.7071 0.7071 -0.7071 0.7071 93.0697 -66.3032)" fill="#FFFFFF" width="1.2" height="4.4"/>
		<g id="XMLID_3007_">
			<circle id="XMLID_3010_" fill="#FFFFFF" cx="128.6" cy="75.7" r="0.6"/>
			<circle id="XMLID_3009_" fill="#FFFFFF" cx="130.1" cy="75.7" r="0.6"/>
			<circle id="XMLID_3008_" fill="#FFFFFF" cx="131.6" cy="75.7" r="0.6"/>
		</g>
		<g id="XMLID_3004_">
			<polygon id="XMLID_3006_" fill="#FFFFFF" points="138.1,77.7 138.1,74.2 139.8,75.9 			"/>
			<rect id="XMLID_3005_" x="135" y="75.3" fill="#FFFFFF" width="3.2" height="1.3"/>
		</g>
		<g id="XMLID_3001_">
			<polygon id="XMLID_3003_" fill="#FFFFFF" points="137,71.1 134.6,68.6 137,68.6 			"/>
			
				<rect id="XMLID_3002_" x="133.2" y="70.3" transform="matrix(0.7071 -0.7071 0.7071 0.7071 -10.6621 116.0694)" fill="#FFFFFF" width="3.2" height="1.3"/>
		</g>
		<g id="XMLID_2995_">
			<polygon id="XMLID_3000_" fill="#FFFFFF" points="134.5,82.9 137,80.4 137,82.9 			"/>
			
				<rect id="XMLID_2997_" x="133.1" y="80" transform="matrix(0.7071 0.7071 -0.7071 0.7071 96.4784 -71.6352)" fill="#FFFFFF" width="3.2" height="1.3"/>
		</g>
		<g id="XMLID_2992_">
			<polygon id="XMLID_2994_" fill="#FFFFFF" points="123.6,77.4 123.6,73.9 125.4,75.6 			"/>
			<rect id="XMLID_2993_" x="120.6" y="75" fill="#FFFFFF" width="3.2" height="1.3"/>
		</g>
	</g>
	<g id="XMLID_2966_" display="inline">
		<path id="XMLID_2986_" fill="#EC4F24" d="M261.4,83.1c0,2.1-1.7,3.9-3.9,3.9H243c-2.1,0-3.9-1.7-3.9-3.9V68.6
			c0-2.1,1.7-3.9,3.9-3.9h14.5c2.1,0,3.9,1.7,3.9,3.9V83.1z"/>
		
			<ellipse id="XMLID_2985_" transform="matrix(0.7071 -0.7071 0.7071 0.7071 19.7501 199.0853)" fill="#FFFFFF" cx="250.2" cy="75.7" rx="3.8" ry="3.8"/>
		
			<ellipse id="XMLID_2984_" transform="matrix(0.7071 -0.7071 0.7071 0.7071 19.7501 199.0853)" fill="#EC4F24" cx="250.2" cy="75.7" rx="2.7" ry="2.7"/>
		
			<rect id="XMLID_2983_" x="246" y="77" transform="matrix(0.7071 0.7071 -0.7071 0.7071 128.2293 -151.1861)" fill="#FFFFFF" width="1.2" height="4.4"/>
		<g id="XMLID_2979_">
			<circle id="XMLID_2982_" fill="#FFFFFF" cx="248.6" cy="75.7" r="0.6"/>
			<circle id="XMLID_2981_" fill="#FFFFFF" cx="250.2" cy="75.7" r="0.6"/>
			<circle id="XMLID_2980_" fill="#FFFFFF" cx="251.7" cy="75.7" r="0.6"/>
		</g>
		<g id="XMLID_2976_">
			<polygon id="XMLID_2978_" fill="#FFFFFF" points="258.1,77.7 258.1,74.2 259.8,75.9 			"/>
			<rect id="XMLID_2977_" x="255.1" y="75.3" fill="#FFFFFF" width="3.2" height="1.3"/>
		</g>
		<g id="XMLID_2973_">
			<polygon id="XMLID_2975_" fill="#FFFFFF" points="257.1,71.1 254.6,68.6 257.1,68.6 			"/>
			
				<rect id="XMLID_2974_" x="253.2" y="70.3" transform="matrix(0.7071 -0.7071 0.7071 0.7071 24.4976 200.9523)" fill="#FFFFFF" width="3.2" height="1.3"/>
		</g>
		<g id="XMLID_2970_">
			<polygon id="XMLID_2972_" fill="#FFFFFF" points="254.5,82.9 257,80.4 257,82.9 			"/>
			
				<rect id="XMLID_2971_" x="253.2" y="80" transform="matrix(0.7071 0.7071 -0.7071 0.7071 131.638 -156.5181)" fill="#FFFFFF" width="3.2" height="1.3"/>
		</g>
		<g id="XMLID_2967_">
			<polygon id="XMLID_2969_" fill="#FFFFFF" points="243.7,77.4 243.7,73.9 245.4,75.6 			"/>
			<rect id="XMLID_2968_" x="240.6" y="75" fill="#FFFFFF" width="3.2" height="1.3"/>
		</g>
	</g>
	<g id="XMLID_2930_" display="inline">
		<path id="XMLID_2965_" fill="#EC4F24" d="M391.6,83.1c0,2.1-1.7,3.9-3.9,3.9h-14.5c-2.1,0-3.9-1.7-3.9-3.9V68.6
			c0-2.1,1.7-3.9,3.9-3.9h14.5c2.1,0,3.9,1.7,3.9,3.9V83.1z"/>
		
			<ellipse id="XMLID_2964_" transform="matrix(0.7071 -0.7071 0.7071 0.7071 57.8994 291.1861)" fill="#FFFFFF" cx="380.4" cy="75.7" rx="3.8" ry="3.8"/>
		
			<ellipse id="XMLID_2963_" transform="matrix(0.7071 -0.7071 0.7071 0.7071 57.8994 291.1861)" fill="#EC4F24" cx="380.4" cy="75.7" rx="2.7" ry="2.7"/>
		
			<rect id="XMLID_2962_" x="376.3" y="77" transform="matrix(0.7071 0.7071 -0.7071 0.7071 166.3787 -243.2868)" fill="#FFFFFF" width="1.2" height="4.4"/>
		<g id="XMLID_2958_">
			<circle id="XMLID_2961_" fill="#FFFFFF" cx="378.9" cy="75.7" r="0.6"/>
			<circle id="XMLID_2960_" fill="#FFFFFF" cx="380.4" cy="75.7" r="0.6"/>
			<circle id="XMLID_2959_" fill="#FFFFFF" cx="381.9" cy="75.7" r="0.6"/>
		</g>
		<g id="XMLID_2942_">
			<polygon id="XMLID_2944_" fill="#FFFFFF" points="388.3,77.7 388.3,74.2 390.1,75.9 			"/>
			<rect id="XMLID_2943_" x="385.3" y="75.3" fill="#FFFFFF" width="3.2" height="1.3"/>
		</g>
		<g id="XMLID_2937_">
			<polygon id="XMLID_2940_" fill="#FFFFFF" points="387.3,71.1 384.8,68.6 387.3,68.6 			"/>
			
				<rect id="XMLID_2939_" x="383.5" y="70.3" transform="matrix(0.7071 -0.7071 0.7071 0.7071 62.6469 293.053)" fill="#FFFFFF" width="3.2" height="1.3"/>
		</g>
		<g id="XMLID_2934_">
			<polygon id="XMLID_2936_" fill="#FFFFFF" points="384.8,82.9 387.3,80.4 387.3,82.9 			"/>
			
				<rect id="XMLID_2935_" x="383.4" y="80" transform="matrix(0.7071 0.7071 -0.7071 0.7071 169.7874 -248.6188)" fill="#FFFFFF" width="3.2" height="1.3"/>
		</g>
		<g id="XMLID_2931_">
			<polygon id="XMLID_2933_" fill="#FFFFFF" points="373.9,77.4 373.9,73.9 375.7,75.6 			"/>
			<rect id="XMLID_2932_" x="370.9" y="75" fill="#FFFFFF" width="3.2" height="1.3"/>
		</g>
	</g>
	
		<polyline id="XMLID_2929_" display="inline" fill="none" stroke="#231F20" stroke-width="1.9708" stroke-miterlimit="10" stroke-dasharray="1.9708,5.9123" points="
		49.7,50.2 49.7,35.4 131.5,35.4 131.5,58.6 	"/>
	
		<polyline id="XMLID_2928_" display="inline" fill="none" stroke="#231F20" stroke-width="1.9708" stroke-miterlimit="10" stroke-dasharray="1.9708,5.9123" points="
		38.4,49.5 38.4,26.2 252.2,26.2 252.2,60 	"/>
	
		<polyline id="XMLID_2921_" display="inline" fill="none" stroke="#231F20" stroke-width="1.9708" stroke-miterlimit="10" stroke-dasharray="1.9708,5.9123" points="
		27.9,49.5 27.9,15.6 381.9,15.6 381.9,61.5 	"/>
</g>
<g id="Artwork__x5B_Outlined_x5D_">
	<g id="XMLID_7233_">
		<path id="XMLID_7234_" fill-rule="evenodd" clip-rule="evenodd" fill="#57BFFF" d="M152.7,73.3h50.1c0.6,0,1,0.4,1,0.8v11.5
			c0,0.4-0.5,0.8-1,0.8h-50.1c-0.6,0-1-0.4-1-0.8V74.1C151.7,73.7,152.2,73.3,152.7,73.3L152.7,73.3z M194.8,77.9
			c-0.3,0-0.5,0.2-0.5,0.4v3.2c0,0.2,0.2,0.4,0.5,0.4h3.9c0.3,0,0.5-0.2,0.5-0.4v-3.2c0-0.2-0.2-0.4-0.5-0.4H194.8L194.8,77.9z
			 M152.7,89.6h50.1c0.6,0,1,0.4,1,0.8v11.5c0,0.4-0.5,0.8-1,0.8h-50.1c-0.6,0-1-0.4-1-0.8V90.4C151.7,90,152.2,89.6,152.7,89.6
			L152.7,89.6z M194.8,94.2c-0.3,0-0.5,0.2-0.5,0.4v3.2c0,0.2,0.2,0.4,0.5,0.4h3.9c0.3,0,0.5-0.2,0.5-0.4v-3.2
			c0-0.2-0.2-0.4-0.5-0.4H194.8L194.8,94.2z M152.7,105.9h50.1c0.6,0,1,0.4,1,0.8v11.5c0,0.4-0.5,0.8-1,0.8h-50.1
			c-0.6,0-1-0.4-1-0.8v-11.5C151.7,106.2,152.2,105.9,152.7,105.9L152.7,105.9z M194.8,110.4c-0.3,0-0.5,0.2-0.5,0.4v3.2
			c0,0.2,0.2,0.4,0.5,0.4h3.9c0.3,0,0.5-0.2,0.5-0.4v-3.2c0-0.2-0.2-0.4-0.5-0.4H194.8z"/>
	</g>
	<g id="XMLID_11106_">
		<path id="XMLID_11107_" fill="#8A9192" d="M143.4,127.1c0-0.2,0.1-0.3,0.3-0.3h3.7c1.9,0,3.4,1.3,3.4,3c0,1.2-1,2.2-1.8,2.5
			c0.8,0.3,2.1,1.1,2.1,2.6c0,1.8-1.5,3.1-3.5,3.1h-3.9c-0.2,0-0.3-0.1-0.3-0.3V127.1z M147.2,131.5c0.8,0,1.4-0.6,1.4-1.4
			c0-0.8-0.6-1.4-1.4-1.4h-1.7v2.8H147.2z M147.4,136.1c0.8,0,1.4-0.6,1.4-1.5c0-0.8-0.8-1.4-1.6-1.4h-1.7v2.8H147.4z"/>
		<path id="XMLID_11111_" fill="#8A9192" d="M154.6,134c0.6,0,1.2,0.2,1.2,0.2c0-0.8-0.2-1.1-0.8-1.1c-0.6,0-1.4,0.1-1.8,0.2
			c-0.2,0.1-0.3-0.1-0.4-0.3l-0.1-0.8c0-0.2,0.1-0.4,0.2-0.4c0.1,0,1.2-0.3,2.2-0.3c2,0,2.5,1,2.5,2.8v3.5c0,0.2-0.1,0.3-0.3,0.3
			h-0.6c-0.1,0-0.2,0-0.3-0.2l-0.2-0.4c-0.4,0.3-1,0.8-2,0.8c-1.3,0-2.2-0.8-2.2-2.2C152.1,134.9,153,134,154.6,134z M154.7,136.8
			c0.5,0,1-0.4,1.1-0.6v-0.9c0,0-0.4-0.2-0.9-0.2c-0.6,0-1,0.4-1,0.9C153.8,136.5,154.2,136.8,154.7,136.8z"/>
		<path id="XMLID_11114_" fill="#8A9192" d="M159.4,131.9c0-0.2,0.1-0.3,0.3-0.3h0.6c0.1,0,0.2,0.1,0.3,0.2l0.2,0.6
			c0.2-0.3,0.8-1,1.8-1c0.8,0,1.4,0.2,1.2,0.6l-0.6,1c-0.1,0.1-0.2,0.2-0.4,0.1c0,0-0.3-0.1-0.5-0.1c-0.6,0-1,0.4-1.1,0.7v3.9
			c0,0.2-0.1,0.3-0.4,0.3h-1.2c-0.2,0-0.3-0.1-0.3-0.3V131.9z"/>
		<path id="XMLID_11116_" fill="#8A9192" d="M167.6,131.5c1.6,0,3,1.2,3,3c0,0.1,0,0.3,0,0.4c0,0.2-0.2,0.3-0.3,0.3h-4.1
			c0,0.7,0.6,1.4,1.5,1.4c0.5,0,1-0.2,1.2-0.4c0.2-0.1,0.3-0.1,0.4,0l0.7,0.8c0.1,0.1,0.1,0.3,0,0.4c-0.5,0.5-1.3,0.9-2.4,0.9
			c-1.9,0-3.3-1.5-3.3-3.4C164.3,133,165.7,131.5,167.6,131.5z M168.7,134c0-0.6-0.6-1.1-1.2-1.1c-0.6,0-1.2,0.5-1.2,1.1H168.7z"/>
		<path id="XMLID_11119_" fill="#8A9192" d="M177.1,126.9c0-0.1,0.1-0.2,0.3-0.2h0.3c0.1,0,0.2,0.1,0.3,0.2l3.5,7.6c0,0,0,0,0,0
			l3.5-7.6c0-0.1,0.1-0.2,0.3-0.2h0.3c0.2,0,0.3,0.1,0.3,0.2l1.9,10.8c0,0.2-0.1,0.4-0.3,0.4H186c-0.1,0-0.3-0.1-0.3-0.2l-0.9-6.1
			c0,0,0,0,0,0l-2.8,6.3c0,0.1-0.1,0.2-0.3,0.2h-0.3c-0.1,0-0.2-0.1-0.3-0.2l-2.8-6.3c0,0,0,0,0,0l-0.9,6.1c0,0.1-0.1,0.2-0.3,0.2
			h-1.4c-0.2,0-0.3-0.1-0.3-0.4L177.1,126.9z"/>
		<path id="XMLID_11121_" fill="#8A9192" d="M192,131.5c1.6,0,3,1.2,3,3c0,0.1,0,0.3,0,0.4c0,0.2-0.2,0.3-0.3,0.3h-4.1
			c0,0.7,0.6,1.4,1.5,1.4c0.5,0,1-0.2,1.2-0.4c0.2-0.1,0.3-0.1,0.4,0l0.7,0.8c0.1,0.1,0.1,0.3,0,0.4c-0.5,0.5-1.3,0.9-2.4,0.9
			c-1.9,0-3.3-1.5-3.3-3.4C188.7,133,190.1,131.5,192,131.5z M193.1,134c0-0.6-0.6-1.1-1.2-1.1c-0.6,0-1.2,0.5-1.2,1.1H193.1z"/>
		<path id="XMLID_11124_" fill="#8A9192" d="M196.7,133.3h-0.5c-0.2,0-0.3-0.1-0.3-0.3v-1.1c0-0.2,0.1-0.3,0.3-0.3h0.5v-1.8
			c0-0.2,0.1-0.3,0.3-0.3l1.3,0c0.2,0,0.3,0.1,0.3,0.3v1.8h1.4c0.2,0,0.3,0.1,0.3,0.3v1.1c0,0.2-0.1,0.3-0.3,0.3h-1.4v2.6
			c0,0.4,0.2,0.5,0.5,0.5c0.3,0,0.6-0.1,0.8-0.2c0.2-0.1,0.3,0,0.4,0.2l0.3,1c0.1,0.2,0,0.3-0.2,0.4c-0.1,0-1.1,0.4-1.9,0.4
			c-1.2,0-1.8-0.8-1.8-2.1V133.3z"/>
		<path id="XMLID_11126_" fill="#8A9192" d="M203.9,134c0.6,0,1.2,0.2,1.2,0.2c0-0.8-0.2-1.1-0.8-1.1c-0.6,0-1.4,0.1-1.8,0.2
			c-0.2,0.1-0.3-0.1-0.4-0.3l-0.1-0.8c0-0.2,0.1-0.4,0.2-0.4c0.1,0,1.2-0.3,2.2-0.3c2,0,2.5,1,2.5,2.8v3.5c0,0.2-0.1,0.3-0.3,0.3
			H206c-0.1,0-0.2,0-0.3-0.2l-0.2-0.4c-0.4,0.3-1,0.8-2,0.8c-1.3,0-2.2-0.8-2.2-2.2C201.4,134.9,202.3,134,203.9,134z M204,136.8
			c0.5,0,1-0.4,1.1-0.6v-0.9c0,0-0.4-0.2-0.9-0.2c-0.6,0-1,0.4-1,0.9C203.1,136.5,203.5,136.8,204,136.8z"/>
		<path id="XMLID_11129_" fill="#8A9192" d="M208.7,127.1c0-0.2,0.1-0.3,0.3-0.3h1.3c0.2,0,0.3,0.1,0.3,0.3v10.6
			c0,0.2-0.1,0.3-0.3,0.3H209c-0.2,0-0.3-0.1-0.3-0.3V127.1z"/>
	</g>
	<g id="XMLID_7220_">
		<rect id="XMLID_7231_" x="400.5" y="83.4" fill="#57BFFF" width="77.1" height="35.5"/>
		<polyline id="XMLID_7230_" fill="none" stroke="#57BFFF" stroke-width="4.9942" stroke-miterlimit="10" points="404.4,86.1 
			440.2,64 475.1,86.5 		"/>
		
			<line id="XMLID_7229_" fill="none" stroke="#57BFFF" stroke-width="4.9942" stroke-miterlimit="10" x1="440.2" y1="63.2" x2="440.2" y2="44.9"/>
		<circle id="XMLID_7228_" fill="#FFFFFF" cx="440.4" cy="64.2" r="6.6"/>
		<circle id="XMLID_7227_" fill="#57BFFF" cx="440.4" cy="64.2" r="3.8"/>
		<polyline id="XMLID_7226_" fill="none" stroke="#FFFFFF" stroke-width="3.3295" stroke-miterlimit="10" points="415.4,114 
			409.4,114 409.4,87.5 		"/>
		<polyline id="XMLID_7225_" fill="none" stroke="#FFFFFF" stroke-width="3.3295" stroke-miterlimit="10" points="426.7,114 
			420.8,114 420.8,87.5 		"/>
		<polyline id="XMLID_7224_" fill="none" stroke="#FFFFFF" stroke-width="3.3295" stroke-miterlimit="10" points="438.1,114 
			432.1,114 432.1,87.5 		"/>
		<polyline id="XMLID_7223_" fill="none" stroke="#FFFFFF" stroke-width="3.3295" stroke-miterlimit="10" points="449.5,114 
			443.5,114 443.5,87.5 		"/>
		<polyline id="XMLID_7222_" fill="none" stroke="#FFFFFF" stroke-width="3.3295" stroke-miterlimit="10" points="460.9,114 
			454.9,114 454.9,87.5 		"/>
		<polyline id="XMLID_7221_" fill="none" stroke="#FFFFFF" stroke-width="3.3295" stroke-miterlimit="10" points="472.2,114 
			466.3,114 466.3,87.5 		"/>
	</g>
	<g id="XMLID_11083_">
		<path id="XMLID_11084_" fill="#8A9192" d="M413.7,126.7c1.6,0,2.8,0.5,3.9,1.5c0.1,0.1,0.1,0.3,0,0.4l-1,1c-0.1,0.1-0.3,0.1-0.4,0
			c-0.7-0.6-1.6-0.9-2.5-0.9c-2,0-3.6,1.7-3.6,3.7c0,2,1.5,3.7,3.6,3.7c1,0,1.8-0.4,2.4-0.9c0.1-0.1,0.3-0.1,0.4,0l1,1
			c0.1,0.1,0.1,0.3,0,0.4c-1.1,1.1-2.5,1.6-3.9,1.6c-3.2,0-5.8-2.5-5.8-5.7S410.5,126.7,413.7,126.7z"/>
		<path id="XMLID_11086_" fill="#8A9192" d="M421.8,131.5c1.8,0,3.3,1.5,3.3,3.3c0,1.8-1.5,3.4-3.3,3.4c-1.8,0-3.3-1.5-3.3-3.4
			C418.5,133,419.9,131.5,421.8,131.5z M421.8,136.5c0.8,0,1.5-0.7,1.5-1.6c0-0.9-0.7-1.6-1.5-1.6c-0.9,0-1.5,0.7-1.5,1.6
			C420.2,135.7,420.9,136.5,421.8,136.5z"/>
		<path id="XMLID_11089_" fill="#8A9192" d="M426.5,131.9c0-0.2,0.1-0.3,0.3-0.3h0.6c0.1,0,0.2,0.1,0.3,0.2l0.2,0.6
			c0.2-0.3,1-0.9,2.3-0.9c2,0,2.8,1.5,2.8,3.2v3.1c0,0.2-0.1,0.3-0.3,0.3h-1.3c-0.2,0-0.3-0.1-0.3-0.3v-3.2c0-0.8-0.4-1.4-1.2-1.4
			c-0.8,0-1.3,0.6-1.5,1v3.5c0,0.2-0.1,0.3-0.4,0.3h-1.2c-0.2,0-0.3-0.1-0.3-0.3V131.9z"/>
		<path id="XMLID_11091_" fill="#8A9192" d="M435,133.3h-0.5c-0.2,0-0.3-0.1-0.3-0.3v-1.1c0-0.2,0.1-0.3,0.3-0.3h0.5v-1.8
			c0-0.2,0.1-0.3,0.3-0.3l1.3,0c0.2,0,0.3,0.1,0.3,0.3v1.8h1.4c0.2,0,0.3,0.1,0.3,0.3v1.1c0,0.2-0.1,0.3-0.3,0.3H437v2.6
			c0,0.4,0.2,0.5,0.5,0.5c0.3,0,0.6-0.1,0.8-0.2c0.2-0.1,0.3,0,0.4,0.2l0.3,1c0.1,0.2,0,0.3-0.2,0.4c-0.1,0-1.1,0.4-1.9,0.4
			c-1.2,0-1.8-0.8-1.8-2.1V133.3z"/>
		<path id="XMLID_11093_" fill="#8A9192" d="M442.3,134c0.6,0,1.2,0.2,1.2,0.2c0-0.8-0.2-1.1-0.8-1.1c-0.6,0-1.4,0.1-1.8,0.2
			c-0.2,0.1-0.3-0.1-0.4-0.3l-0.1-0.8c0-0.2,0.1-0.4,0.2-0.4c0.1,0,1.2-0.3,2.2-0.3c2,0,2.5,1,2.5,2.8v3.5c0,0.2-0.1,0.3-0.3,0.3
			h-0.6c-0.1,0-0.2,0-0.3-0.2l-0.2-0.4c-0.4,0.3-1,0.8-2,0.8c-1.3,0-2.2-0.8-2.2-2.2C439.8,134.9,440.7,134,442.3,134z M442.4,136.8
			c0.5,0,1-0.4,1.1-0.6v-0.9c0,0-0.4-0.2-0.9-0.2c-0.6,0-1,0.4-1,0.9C441.5,136.5,441.9,136.8,442.4,136.8z"/>
		<path id="XMLID_11096_" fill="#8A9192" d="M446.9,128.2c0-0.6,0.5-1.1,1.1-1.1c0.6,0,1.1,0.5,1.1,1.1s-0.5,1.1-1.1,1.1
			C447.4,129.4,446.9,128.9,446.9,128.2z M447.1,131.9c0-0.2,0.1-0.3,0.3-0.3h1.3c0.2,0,0.3,0.1,0.3,0.3v5.8c0,0.2-0.1,0.3-0.3,0.3
			h-1.3c-0.2,0-0.3-0.1-0.3-0.3V131.9z"/>
		<path id="XMLID_11099_" fill="#8A9192" d="M450.9,131.9c0-0.2,0.1-0.3,0.3-0.3h0.6c0.1,0,0.2,0.1,0.3,0.2l0.2,0.6
			c0.2-0.3,1-0.9,2.3-0.9c2,0,2.8,1.5,2.8,3.2v3.1c0,0.2-0.1,0.3-0.3,0.3h-1.3c-0.2,0-0.3-0.1-0.3-0.3v-3.2c0-0.8-0.4-1.4-1.2-1.4
			c-0.8,0-1.3,0.6-1.5,1v3.5c0,0.2-0.1,0.3-0.4,0.3h-1.2c-0.2,0-0.3-0.1-0.3-0.3V131.9z"/>
		<path id="XMLID_11101_" fill="#8A9192" d="M462,131.5c1.6,0,3,1.2,3,3c0,0.1,0,0.3,0,0.4c0,0.2-0.2,0.3-0.3,0.3h-4.1
			c0,0.7,0.6,1.4,1.5,1.4c0.5,0,1-0.2,1.2-0.4c0.2-0.1,0.3-0.1,0.4,0l0.7,0.8c0.1,0.1,0.1,0.3,0,0.4c-0.5,0.5-1.3,0.9-2.4,0.9
			c-1.9,0-3.3-1.5-3.3-3.4C458.7,133,460.1,131.5,462,131.5z M463.1,134c0-0.6-0.6-1.1-1.2-1.1c-0.6,0-1.2,0.5-1.2,1.1H463.1z"/>
		<path id="XMLID_11104_" fill="#8A9192" d="M466.3,131.9c0-0.2,0.1-0.3,0.3-0.3h0.6c0.1,0,0.2,0.1,0.3,0.2l0.2,0.6
			c0.2-0.3,0.8-1,1.8-1c0.8,0,1.4,0.2,1.2,0.6l-0.6,1c-0.1,0.1-0.2,0.2-0.4,0.1c0,0-0.3-0.1-0.5-0.1c-0.6,0-1,0.4-1.1,0.7v3.9
			c0,0.2-0.1,0.3-0.4,0.3h-1.2c-0.2,0-0.3-0.1-0.3-0.3V131.9z"/>
	</g>
	<g id="XMLID_7203_">
		<g id="XMLID_7205_">
			<g id="XMLID_7206_">
				<g id="XMLID_7217_">
					<path id="XMLID_7218_" fill="#57BFFF" d="M344.9,99.5c0,1.7-1.4,3-3,3h-68.4c-1.7,0-3-1.4-3-3V57.4c0-1.7,1.4-3,3-3h68.4
						c1.7,0,3,1.4,3,3V99.5z"/>
				</g>
				<g id="XMLID_7215_">
					<rect id="XMLID_7216_" x="276.1" y="59.6" fill="#FFFFFF" width="63.1" height="37.6"/>
				</g>
				<g id="XMLID_7213_">
					<path id="XMLID_7214_" fill="#57BFFF" d="M327.6,89.7c0,0.9-0.7,1.6-1.6,1.6h-36.7c-0.9,0-1.6-0.7-1.6-1.6V67.1
						c0-0.9,0.7-1.6,1.6-1.6H326c0.9,0,1.6,0.7,1.6,1.6V89.7z"/>
				</g>
				<g id="XMLID_7211_">
					<rect id="XMLID_7212_" x="291" y="71.9" fill="#FFFFFF" width="33.3" height="16.9"/>
				</g>
				<g id="XMLID_7209_">
					<polygon id="XMLID_7210_" fill="#57BFFF" points="315.3,102.4 299.9,102.4 298.8,115.6 316.4,115.6 					"/>
				</g>
				<g id="XMLID_7207_">
					<path id="XMLID_7208_" fill="#57BFFF" d="M322.7,115.4h-30.2c-1,0-1.8,0.8-1.8,1.8l0,0c0,1,0.8,1.8,1.8,1.8h30.2
						c1,0,1.8-0.8,1.8-1.8l0,0C324.5,116.2,323.7,115.4,322.7,115.4z"/>
				</g>
			</g>
		</g>
		<g id="XMLID_11078_">
			<path id="XMLID_11079_" fill="#57BFFF" d="M303.6,75.6h1.9l-3,9.2h-2.7l-3-9.2h1.8l1.7,5.2c0.2,0.5,0.4,1.3,0.7,2.5h0l0.2-0.6
				c0.2-0.8,0.4-1.4,0.6-1.9L303.6,75.6z"/>
			<path id="XMLID_11081_" fill="#57BFFF" d="M317.1,75.6v9.2h-1.8v-5c0-0.4,0-0.9,0-1.4l0-0.7l0-0.7h-0.1l-0.2,0.6l-0.2,0.6
				c-0.2,0.6-0.3,1-0.4,1.3l-2,5.2h-1.6l-2.1-5.2c-0.1-0.3-0.3-0.7-0.4-1.3l-0.2-0.6l-0.2-0.6h-0.1l0,0.7l0,0.7c0,0.5,0,1,0,1.3v5
				h-1.8v-9.2h2.9l1.7,4.3c0.1,0.3,0.3,0.7,0.4,1.3l0.2,0.6l0.2,0.6h0.1l0.2-0.6l0.2-0.6c0.2-0.5,0.3-1,0.4-1.3l1.6-4.3H317.1z"/>
		</g>
	</g>
	<g id="XMLID_11073_">
		<path id="XMLID_11074_" fill="#8A9192" d="M296.4,127.2c-0.1-0.2,0-0.4,0.3-0.4h1.6c0.1,0,0.2,0.1,0.3,0.2l3.1,6.9h0.1l3.1-6.9
			c0-0.1,0.1-0.2,0.3-0.2h1.6c0.2,0,0.4,0.2,0.3,0.4l-5,10.8c0,0.1-0.1,0.2-0.3,0.2h-0.2c-0.1,0-0.2-0.1-0.3-0.2L296.4,127.2z"/>
		<path id="XMLID_11076_" fill="#8A9192" d="M309.5,126.9c0-0.1,0.1-0.2,0.3-0.2h0.3c0.1,0,0.2,0.1,0.3,0.2l3.5,7.6c0,0,0,0,0,0
			l3.5-7.6c0-0.1,0.1-0.2,0.3-0.2h0.3c0.2,0,0.3,0.1,0.3,0.2l1.9,10.8c0,0.2-0.1,0.4-0.3,0.4h-1.5c-0.1,0-0.3-0.1-0.3-0.2l-0.9-6.1
			c0,0,0,0,0,0l-2.8,6.3c0,0.1-0.1,0.2-0.3,0.2h-0.3c-0.1,0-0.2-0.1-0.3-0.2l-2.8-6.3c0,0,0,0,0,0l-0.9,6.1c0,0.1-0.1,0.2-0.3,0.2
			h-1.4c-0.2,0-0.3-0.1-0.3-0.4L309.5,126.9z"/>
	</g>
	<g id="XMLID_7199_">
		<g id="XMLID_7200_">
			<path id="XMLID_7201_" fill="none" stroke="#57BFFF" stroke-width="4.9942" stroke-miterlimit="10" d="M409.6,255.3L409.6,255.3
				c0,0,0.1,0,0.1,0c8.3,0,15-6,15-13.3c0-6.4-5-11.7-11.7-13c0.1-0.6,0.1-1.2,0.1-1.9c0-9.8-8.9-17.8-20-17.8
				c-6.5,0-12.3,2.8-16,7.1c-1.9-0.7-3.9-1.1-6.1-1.1c-8.3,0-15,6-15,13.3c0,0.1,0,0.3,0,0.4c-6.5,1.5-11.2,6.7-11.2,12.9
				c0,7.4,6.7,13.3,15,13.3H409.6z"/>
		</g>
	</g>
	<g id="XMLID_7156_">
		<path id="XMLID_7196_" fill-rule="evenodd" clip-rule="evenodd" fill="#57BFFF" d="M270.4,257.8c0.6,0,1-0.4,1-0.8v-11.5
			c0-0.4-0.5-0.8-1-0.8l-33.8-3.3v16.4H270.4z M262.4,249l3.9,0.3c0.3,0,0.5,0.2,0.5,0.4v3.2c0,0.2-0.2,0.4-0.5,0.4h-3.9
			c-0.3,0-0.5-0.2-0.5-0.4v-3.5C261.9,249.1,262.1,249,262.4,249z"/>
		<path id="XMLID_7193_" fill-rule="evenodd" clip-rule="evenodd" fill="#57BFFF" d="M270.4,241.5c0.6,0,1-0.4,1-0.8v-11.5
			c0-0.4-0.5-0.8-1-0.8l-33.8-8.3v18.1L270.4,241.5z M262.4,232.4l3.9,0.6c0.3,0,0.5,0.2,0.5,0.4v3.2c0,0.2-0.2,0.4-0.5,0.4
			l-3.9-0.6c-0.3,0-0.5-0.2-0.5-0.4v-3.2C261.9,232.6,262.1,232.4,262.4,232.4z"/>
		<path id="XMLID_7192_" fill-rule="evenodd" clip-rule="evenodd" fill="#57BFFF" d="M220.3,212.2c-0.6,0-1,0.4-1,0.8v11.5
			c0,0.4,0.5,0.8,1,0.8l16.3-8.3v-19.8L220.3,212.2z"/>
		<path id="XMLID_7189_" fill-rule="evenodd" clip-rule="evenodd" fill="#57BFFF" d="M271.4,224.5V213c0-0.4-0.5-0.8-1-0.8l-33.8-15
			v19.8l33.8,8.3C271,225.3,271.4,224.9,271.4,224.5z M266.8,220.3c0,0.2-0.2,0.4-0.5,0.4l-3.9-1c-0.3,0-0.5-0.2-0.5-0.4v-3.2
			c0-0.2,0.2-0.4,0.5-0.4l3.9,1c0.3,0,0.5,0.2,0.5,0.4V220.3z"/>
		<path id="XMLID_7188_" fill-rule="evenodd" clip-rule="evenodd" fill="#57BFFF" d="M220.3,195.6c-0.6,0-1,0.4-1,0.8v11.5
			c0,0.4,0.5,0.8,1,0.8l16.3-15.6v-19.8L220.3,195.6z"/>
		<path id="XMLID_7185_" fill-rule="evenodd" clip-rule="evenodd" fill="#57BFFF" d="M271.4,208.8v-11.5c0-0.4-0.5-0.8-1-0.8
			l-33.8-23.2v19.8l33.8,16.5C271,209.6,271.4,209.2,271.4,208.8z M266.8,204.6c0,0.2-0.2,0.4-0.5,0.4l-3.9-1.9
			c-0.3,0-0.5-0.2-0.5-0.4v-3.7c0-0.2,0.2-0.4,0.5-0.4l3.9,2.4c0.3,0,0.5,0.2,0.5,0.4V204.6z"/>
		<path id="XMLID_7184_" fill-rule="evenodd" clip-rule="evenodd" fill="#57BFFF" d="M219.3,229.2v11.5c0,0.4,0.5,0.8,1,0.8
			l16.3-3.3v-18.1l-16.3,8.3C219.7,228.4,219.3,228.8,219.3,229.2z"/>
		<path id="XMLID_7183_" fill-rule="evenodd" clip-rule="evenodd" fill="#57BFFF" d="M219.3,245.5V257c0,0.4,0.5,0.8,1,0.8h16.3
			v-16.4l-16.3,3.3C219.7,244.7,219.3,245.1,219.3,245.5z"/>
		<g id="XMLID_7170_">
			<path id="XMLID_7180_" fill-rule="evenodd" clip-rule="evenodd" fill="#57BFFF" d="M215,257.9c0.3,0,0.5-0.2,0.5-0.4v-5.9
				c0-0.2-0.2-0.4-0.5-0.4l-17.4-1.7v8.5H215z M210.9,253.3l2,0.2c0.1,0,0.3,0.1,0.3,0.2v1.6c0,0.1-0.1,0.2-0.3,0.2h-2
				c-0.1,0-0.3-0.1-0.3-0.2v-1.8C210.6,253.4,210.7,253.3,210.9,253.3z"/>
			<path id="XMLID_7177_" fill-rule="evenodd" clip-rule="evenodd" fill="#57BFFF" d="M215,249.5c0.3,0,0.5-0.2,0.5-0.4v-5.9
				c0-0.2-0.2-0.4-0.5-0.4l-17.4-4.3v9.3L215,249.5z M210.9,244.8l2,0.3c0.1,0,0.3,0.1,0.3,0.2v1.6c0,0.1-0.1,0.2-0.3,0.2l-2-0.3
				c-0.1,0-0.3-0.1-0.3-0.2V245C210.6,244.9,210.7,244.8,210.9,244.8z"/>
			<path id="XMLID_7176_" fill-rule="evenodd" clip-rule="evenodd" fill="#57BFFF" d="M189.1,234.4c-0.3,0-0.5,0.2-0.5,0.4v5.9
				c0,0.2,0.2,0.4,0.5,0.4l8.4-4.3v-10.2L189.1,234.4z"/>
			<path id="XMLID_7173_" fill-rule="evenodd" clip-rule="evenodd" fill="#57BFFF" d="M215.5,240.7v-5.9c0-0.2-0.2-0.4-0.5-0.4
				l-17.4-7.7v10.2l17.4,4.3C215.3,241.1,215.5,240.9,215.5,240.7z M213.1,238.6c0,0.1-0.1,0.2-0.3,0.2l-2-0.5
				c-0.1,0-0.3-0.1-0.3-0.2v-1.6c0-0.1,0.1-0.2,0.3-0.2l2,0.5c0.1,0,0.3,0.1,0.3,0.2V238.6z"/>
			<path id="XMLID_7172_" fill-rule="evenodd" clip-rule="evenodd" fill="#57BFFF" d="M188.6,243.2v5.9c0,0.2,0.2,0.4,0.5,0.4
				l8.4-1.7v-9.3l-8.4,4.3C188.8,242.8,188.6,242.9,188.6,243.2z"/>
			<path id="XMLID_7171_" fill-rule="evenodd" clip-rule="evenodd" fill="#57BFFF" d="M188.6,251.6v5.9c0,0.2,0.2,0.4,0.5,0.4h8.4
				v-8.5l-8.4,1.7C188.8,251.1,188.6,251.3,188.6,251.6z"/>
		</g>
		<g id="XMLID_7157_">
			<path id="XMLID_7167_" fill-rule="evenodd" clip-rule="evenodd" fill="#57BFFF" d="M310.3,257.9c0.4,0,0.7-0.2,0.7-0.5v-7.6
				c0-0.3-0.3-0.5-0.7-0.5l-22.4-2.2v10.9H310.3z M305,252l2.6,0.2c0.2,0,0.3,0.1,0.3,0.3v2.1c0,0.1-0.2,0.3-0.3,0.3H305
				c-0.2,0-0.3-0.1-0.3-0.3v-2.3C304.7,252.2,304.8,252,305,252z"/>
			<path id="XMLID_7164_" fill-rule="evenodd" clip-rule="evenodd" fill="#57BFFF" d="M310.3,247.1c0.4,0,0.7-0.2,0.7-0.5V239
				c0-0.3-0.3-0.5-0.7-0.5l-22.4-5.5v12L310.3,247.1z M305,241.1l2.6,0.4c0.2,0,0.3,0.1,0.3,0.3v2.1c0,0.1-0.2,0.3-0.3,0.3l-2.6-0.4
				c-0.2,0-0.3-0.1-0.3-0.3v-2.1C304.7,241.2,304.8,241.1,305,241.1z"/>
			<path id="XMLID_7163_" fill-rule="evenodd" clip-rule="evenodd" fill="#57BFFF" d="M277.1,227.6c-0.4,0-0.7,0.2-0.7,0.5v7.6
				c0,0.3,0.3,0.5,0.7,0.5l10.8-5.5v-13.1L277.1,227.6z"/>
			<path id="XMLID_7160_" fill-rule="evenodd" clip-rule="evenodd" fill="#57BFFF" d="M311,235.8v-7.6c0-0.3-0.3-0.5-0.7-0.5
				l-22.4-9.9v13.1l22.4,5.5C310.7,236.3,311,236.1,311,235.8z M308,233c0,0.1-0.2,0.3-0.3,0.3l-2.6-0.7c-0.2,0-0.3-0.1-0.3-0.3
				v-2.1c0-0.1,0.2-0.3,0.3-0.3l2.6,0.7c0.2,0,0.3,0.1,0.3,0.3V233z"/>
			<path id="XMLID_7159_" fill-rule="evenodd" clip-rule="evenodd" fill="#57BFFF" d="M276.4,239v7.6c0,0.3,0.3,0.5,0.7,0.5
				l10.8-2.2v-12l-10.8,5.5C276.7,238.4,276.4,238.7,276.4,239z"/>
			<path id="XMLID_7158_" fill-rule="evenodd" clip-rule="evenodd" fill="#57BFFF" d="M276.4,249.8v7.6c0,0.3,0.3,0.5,0.7,0.5h10.8
				V247l-10.8,2.2C276.7,249.2,276.4,249.5,276.4,249.8z"/>
		</g>
	</g>
	<g id="XMLID_11042_">
		<path id="XMLID_11043_" fill="#8A9192" d="M212.4,269.1c0-0.1,0.1-0.3,0.3-0.3h3.4c1.8,0,3.2,1.4,3.2,3.2c0,1.8-1.5,3.2-3.2,3.2
			h-1.8v3.4c0,0.1-0.1,0.3-0.3,0.3h-1.3c-0.2,0-0.3-0.1-0.3-0.3V269.1z M215.9,273.5c0.8,0,1.5-0.6,1.5-1.5c0-0.8-0.7-1.4-1.5-1.4
			h-1.7v2.9H215.9z"/>
		<path id="XMLID_11046_" fill="#8A9192" d="M220,273.4c0-0.2,0.1-0.3,0.3-0.3h0.5c0.1,0,0.2,0.1,0.3,0.2l0.2,0.6
			c0.2-0.3,0.7-0.9,1.6-0.9c0.7,0,1.3,0.2,1.1,0.6l-0.5,0.9c-0.1,0.1-0.2,0.2-0.3,0.1c0,0-0.3-0.1-0.4-0.1c-0.6,0-0.9,0.4-1,0.6v3.5
			c0,0.2-0.1,0.3-0.3,0.3h-1.1c-0.1,0-0.3-0.1-0.3-0.3V273.4z"/>
		<path id="XMLID_11048_" fill="#8A9192" d="M224.8,270.1c0-0.5,0.4-1,1-1c0.6,0,1,0.4,1,1s-0.4,1-1,1
			C225.2,271.1,224.8,270.6,224.8,270.1z M224.9,273.4c0-0.2,0.1-0.3,0.3-0.3h1.2c0.1,0,0.3,0.1,0.3,0.3v5.2c0,0.1-0.1,0.3-0.3,0.3
			h-1.2c-0.1,0-0.3-0.1-0.3-0.3V273.4z"/>
		<path id="XMLID_11051_" fill="#8A9192" d="M227.6,273.5c-0.1-0.2,0-0.3,0.2-0.3h1.3c0.1,0,0.2,0.1,0.3,0.2l1.2,2.7c0,0,0,0,0,0
			l1.2-2.7c0.1-0.1,0.2-0.2,0.3-0.2h1.1c0.2,0,0.3,0.2,0.2,0.3l-2.6,5.4c0,0.1-0.1,0.1-0.2,0.1h-0.1c-0.1,0-0.2-0.1-0.2-0.1
			L227.6,273.5z"/>
		<path id="XMLID_11053_" fill="#8A9192" d="M236.3,275.2c0.6,0,1.1,0.2,1.1,0.2c0-0.7-0.2-1-0.7-1s-1.3,0.1-1.6,0.2
			c-0.2,0.1-0.3-0.1-0.3-0.3l-0.1-0.7c0-0.2,0.1-0.3,0.2-0.4c0.1,0,1-0.3,2-0.3c1.8,0,2.2,0.9,2.2,2.5v3.1c0,0.1-0.1,0.3-0.3,0.3
			h-0.5c-0.1,0-0.2,0-0.2-0.2l-0.2-0.4c-0.3,0.3-0.9,0.7-1.8,0.7c-1.2,0-1.9-0.7-1.9-2C234,276,234.8,275.2,236.3,275.2z
			 M236.3,277.8c0.5,0,0.9-0.4,1-0.6v-0.8c0,0-0.4-0.2-0.8-0.2c-0.6,0-0.9,0.3-0.9,0.8C235.6,277.5,235.9,277.8,236.3,277.8z"/>
		<path id="XMLID_11056_" fill="#8A9192" d="M240.9,274.6h-0.5c-0.1,0-0.3-0.1-0.3-0.3v-1c0-0.2,0.1-0.3,0.3-0.3h0.5v-1.6
			c0-0.1,0.1-0.3,0.3-0.3l1.2,0c0.1,0,0.3,0.1,0.3,0.3v1.6h1.3c0.2,0,0.3,0.1,0.3,0.3v1c0,0.1-0.1,0.3-0.3,0.3h-1.3v2.3
			c0,0.4,0.2,0.5,0.4,0.5c0.2,0,0.5-0.1,0.7-0.2s0.3,0,0.3,0.2l0.3,0.9c0.1,0.1,0,0.3-0.2,0.3c-0.1,0-1,0.4-1.7,0.4
			c-1.1,0-1.6-0.7-1.6-1.9V274.6z"/>
		<path id="XMLID_11058_" fill="#8A9192" d="M248,273c1.5,0,2.7,1.1,2.7,2.7c0,0.1,0,0.3,0,0.4c0,0.1-0.1,0.2-0.3,0.2h-3.7
			c0,0.6,0.5,1.3,1.4,1.3c0.4,0,0.9-0.2,1.1-0.4c0.1-0.1,0.3-0.1,0.4,0l0.6,0.7c0.1,0.1,0.1,0.3,0,0.4c-0.5,0.4-1.2,0.8-2.1,0.8
			c-1.7,0-3-1.4-3-3C245.1,274.4,246.3,273,248,273z M249,275.3c0-0.5-0.5-1-1-1c-0.6,0-1.1,0.4-1.1,1H249z"/>
		<path id="XMLID_11061_" fill="#8A9192" d="M260,268.7c1.5,0,2.5,0.5,3.5,1.3c0.1,0.1,0.1,0.3,0,0.4l-0.9,0.9
			c-0.1,0.1-0.2,0.1-0.4,0c-0.6-0.5-1.4-0.8-2.2-0.8c-1.8,0-3.2,1.5-3.2,3.4c0,1.8,1.4,3.3,3.2,3.3c0.9,0,1.6-0.3,2.2-0.8
			c0.1-0.1,0.3-0.1,0.4,0l0.9,0.9c0.1,0.1,0.1,0.3,0,0.4c-1,1-2.2,1.4-3.5,1.4c-2.9,0-5.2-2.3-5.2-5.2S257.1,268.7,260,268.7z"/>
		<path id="XMLID_11063_" fill="#8A9192" d="M264.8,269.1c0-0.1,0.1-0.3,0.3-0.3h1.2c0.1,0,0.3,0.1,0.3,0.3v9.5
			c0,0.1-0.1,0.3-0.3,0.3h-1.2c-0.1,0-0.3-0.1-0.3-0.3V269.1z"/>
		<path id="XMLID_11065_" fill="#8A9192" d="M270.8,273c1.6,0,2.9,1.4,2.9,3c0,1.7-1.3,3-2.9,3s-3-1.4-3-3
			C267.8,274.4,269.1,273,270.8,273z M270.8,277.5c0.8,0,1.4-0.7,1.4-1.5c0-0.8-0.6-1.5-1.4-1.5c-0.8,0-1.4,0.6-1.4,1.5
			C269.4,276.8,270,277.5,270.8,277.5z"/>
		<path id="XMLID_11068_" fill="#8A9192" d="M274.9,273.4c0-0.2,0.1-0.3,0.3-0.3h1.2c0.1,0,0.3,0.1,0.3,0.3v2.8
			c0,0.8,0.4,1.2,1.1,1.2c0.6,0,1.1-0.6,1.2-1.1v-3c0-0.2,0.1-0.3,0.3-0.3h1.1c0.1,0,0.3,0.1,0.3,0.3v5.2c0,0.1-0.1,0.3-0.3,0.3
			h-0.5c-0.1,0-0.2-0.1-0.3-0.2l-0.2-0.5c-0.3,0.2-0.8,0.8-1.9,0.8c-1.8,0-2.4-1.4-2.4-2.8V273.4z"/>
		<path id="XMLID_11070_" fill="#8A9192" d="M284.6,273c0.6,0,1,0.2,1.3,0.3v-4.2c0-0.1,0.1-0.3,0.3-0.3h1.2c0.1,0,0.3,0.1,0.3,0.3
			v9.5c0,0.1-0.1,0.3-0.3,0.3h-0.6c-0.1,0-0.2-0.1-0.3-0.3l-0.1-0.4c0,0-0.7,0.9-1.9,0.9c-1.6,0-2.8-1.4-2.8-3
			C281.8,274.3,282.9,273,284.6,273z M284.8,277.5c0.8,0,1.1-0.6,1.2-0.9v-1.7c0,0-0.4-0.3-1.1-0.3c-0.8,0-1.4,0.7-1.4,1.5
			S284,277.5,284.8,277.5z"/>
	</g>
	<g id="XMLID_11014_">
		<path id="XMLID_11015_" fill="#8A9192" d="M349.5,269.1c0-0.1,0.1-0.3,0.3-0.3h3.4c1.8,0,3.2,1.4,3.2,3.2c0,1.8-1.5,3.2-3.2,3.2
			h-1.8v3.4c0,0.1-0.1,0.3-0.3,0.3h-1.3c-0.2,0-0.3-0.1-0.3-0.3V269.1z M353.1,273.5c0.8,0,1.5-0.6,1.5-1.5c0-0.8-0.7-1.4-1.5-1.4
			h-1.7v2.9H353.1z"/>
		<path id="XMLID_11018_" fill="#8A9192" d="M357.2,273.4c0-0.2,0.1-0.3,0.3-0.3h1.2c0.1,0,0.3,0.1,0.3,0.3v2.8
			c0,0.8,0.4,1.2,1.1,1.2c0.6,0,1.1-0.6,1.2-1.1v-3c0-0.2,0.1-0.3,0.3-0.3h1.1c0.1,0,0.3,0.1,0.3,0.3v5.2c0,0.1-0.1,0.3-0.3,0.3H362
			c-0.1,0-0.2-0.1-0.3-0.2l-0.2-0.5c-0.3,0.2-0.8,0.8-1.9,0.8c-1.8,0-2.4-1.4-2.4-2.8V273.4z"/>
		<path id="XMLID_11020_" fill="#8A9192" d="M364.5,269.1c0-0.1,0.1-0.3,0.3-0.3h1.2c0.1,0,0.3,0.1,0.3,0.3v4.2
			c0.3-0.1,0.7-0.3,1.3-0.3c1.7,0,2.8,1.3,2.8,3c0,1.7-1.2,3-2.8,3c-1.2,0-1.9-0.9-1.9-0.9l-0.1,0.4c0,0.2-0.1,0.3-0.3,0.3h-0.6
			c-0.1,0-0.3-0.1-0.3-0.3V269.1z M367.4,277.5c0.8,0,1.3-0.7,1.3-1.5s-0.6-1.5-1.4-1.5c-0.7,0-1.1,0.3-1.1,0.3v1.7
			C366.3,276.9,366.6,277.5,367.4,277.5z"/>
		<path id="XMLID_11023_" fill="#8A9192" d="M371.7,269.1c0-0.1,0.1-0.3,0.3-0.3h1.2c0.1,0,0.3,0.1,0.3,0.3v9.5
			c0,0.1-0.1,0.3-0.3,0.3H372c-0.1,0-0.3-0.1-0.3-0.3V269.1z"/>
		<path id="XMLID_11025_" fill="#8A9192" d="M375,270.1c0-0.5,0.4-1,1-1c0.6,0,1,0.4,1,1s-0.4,1-1,1
			C375.5,271.1,375,270.6,375,270.1z M375.2,273.4c0-0.2,0.1-0.3,0.3-0.3h1.2c0.1,0,0.3,0.1,0.3,0.3v5.2c0,0.1-0.1,0.3-0.3,0.3h-1.2
			c-0.1,0-0.3-0.1-0.3-0.3V273.4z"/>
		<path id="XMLID_11028_" fill="#8A9192" d="M381.2,273c0.9,0,1.6,0.4,2.1,1c0.1,0.1,0.1,0.3-0.1,0.4l-0.7,0.6c-0.1,0.1-0.3,0-0.4,0
			c-0.2-0.3-0.6-0.5-1-0.5c-0.8,0-1.4,0.7-1.4,1.5c0,0.8,0.6,1.5,1.4,1.5c0.6,0,0.9-0.3,1.2-0.5c0.1-0.1,0.2-0.1,0.4,0l0.6,0.5
			c0.1,0.1,0.2,0.3,0.1,0.4c-0.5,0.8-1.3,1.2-2.3,1.2c-1.6,0-3.1-1.3-3.1-3C378.2,274.3,379.6,273,381.2,273z"/>
		<path id="XMLID_11030_" fill="#8A9192" d="M392.8,268.7c1.5,0,2.5,0.5,3.5,1.3c0.1,0.1,0.1,0.3,0,0.4l-0.9,0.9
			c-0.1,0.1-0.2,0.1-0.4,0c-0.6-0.5-1.4-0.8-2.2-0.8c-1.8,0-3.2,1.5-3.2,3.4c0,1.8,1.4,3.3,3.2,3.3c0.9,0,1.6-0.3,2.2-0.8
			c0.1-0.1,0.3-0.1,0.4,0l0.9,0.9c0.1,0.1,0.1,0.3,0,0.4c-1,1-2.2,1.4-3.5,1.4c-2.9,0-5.2-2.3-5.2-5.2S390,268.7,392.8,268.7z"/>
		<path id="XMLID_11032_" fill="#8A9192" d="M397.6,269.1c0-0.1,0.1-0.3,0.3-0.3h1.2c0.1,0,0.3,0.1,0.3,0.3v9.5
			c0,0.1-0.1,0.3-0.3,0.3h-1.2c-0.1,0-0.3-0.1-0.3-0.3V269.1z"/>
		<path id="XMLID_11034_" fill="#8A9192" d="M403.6,273c1.6,0,2.9,1.4,2.9,3c0,1.7-1.3,3-2.9,3s-3-1.4-3-3
			C400.6,274.4,402,273,403.6,273z M403.6,277.5c0.8,0,1.4-0.7,1.4-1.5c0-0.8-0.6-1.5-1.4-1.5c-0.8,0-1.4,0.6-1.4,1.5
			C402.2,276.8,402.8,277.5,403.6,277.5z"/>
		<path id="XMLID_11037_" fill="#8A9192" d="M407.7,273.4c0-0.2,0.1-0.3,0.3-0.3h1.2c0.1,0,0.3,0.1,0.3,0.3v2.8
			c0,0.8,0.4,1.2,1.1,1.2c0.6,0,1.1-0.6,1.2-1.1v-3c0-0.2,0.1-0.3,0.3-0.3h1.1c0.1,0,0.3,0.1,0.3,0.3v5.2c0,0.1-0.1,0.3-0.3,0.3
			h-0.5c-0.1,0-0.2-0.1-0.3-0.2l-0.2-0.5c-0.3,0.2-0.8,0.8-1.9,0.8c-1.8,0-2.4-1.4-2.4-2.8V273.4z"/>
		<path id="XMLID_11039_" fill="#8A9192" d="M417.5,273c0.6,0,1,0.2,1.3,0.3v-4.2c0-0.1,0.1-0.3,0.3-0.3h1.2c0.1,0,0.3,0.1,0.3,0.3
			v9.5c0,0.1-0.1,0.3-0.3,0.3h-0.6c-0.1,0-0.2-0.1-0.3-0.3l-0.1-0.4c0,0-0.7,0.9-1.9,0.9c-1.6,0-2.8-1.4-2.8-3
			C414.6,274.3,415.8,273,417.5,273z M417.6,277.5c0.8,0,1.1-0.6,1.2-0.9v-1.7c0,0-0.4-0.3-1.1-0.3c-0.8,0-1.4,0.7-1.4,1.5
			S416.8,277.5,417.6,277.5z"/>
	</g>
	
		<use xlink:href="#New_Symbol"  width="29.9" height="29.9" id="XMLID_7153_" x="-14.9" y="-14.9" transform="matrix(1.6741 0 0 -1.6741 37.3868 80.0623)" overflow="visible"/>
	<g id="XMLID_7132_">
		<path id="XMLID_7152_" fill="#EC4F24" d="M141.4,83.1c0,2.1-1.7,3.9-3.9,3.9H123c-2.1,0-3.9-1.7-3.9-3.9V68.6
			c0-2.1,1.7-3.9,3.9-3.9h14.5c2.1,0,3.9,1.7,3.9,3.9V83.1z"/>
		
			<ellipse id="XMLID_7151_" transform="matrix(0.7071 -0.7071 0.7071 0.7071 -15.4095 114.2025)" fill="#FFFFFF" cx="130.1" cy="75.7" rx="3.8" ry="3.8"/>
		
			<ellipse id="XMLID_7150_" transform="matrix(0.7071 -0.7071 0.7071 0.7071 -15.4095 114.2025)" fill="#EC4F24" cx="130.1" cy="75.7" rx="2.7" ry="2.7"/>
		
			<rect id="XMLID_7149_" x="126" y="77" transform="matrix(0.7071 0.7071 -0.7071 0.7071 93.0697 -66.3032)" fill="#FFFFFF" width="1.2" height="4.4"/>
		<g id="XMLID_7145_">
			<circle id="XMLID_7148_" fill="#FFFFFF" cx="128.6" cy="75.7" r="0.6"/>
			<circle id="XMLID_7147_" fill="#FFFFFF" cx="130.1" cy="75.7" r="0.6"/>
			<circle id="XMLID_7146_" fill="#FFFFFF" cx="131.6" cy="75.7" r="0.6"/>
		</g>
		<g id="XMLID_7142_">
			<polygon id="XMLID_7144_" fill="#FFFFFF" points="138.1,77.7 138.1,74.2 139.8,75.9 			"/>
			<rect id="XMLID_7143_" x="135" y="75.3" fill="#FFFFFF" width="3.2" height="1.3"/>
		</g>
		<g id="XMLID_7139_">
			<polygon id="XMLID_7141_" fill="#FFFFFF" points="137,71.1 134.6,68.6 137,68.6 			"/>
			
				<rect id="XMLID_7140_" x="133.2" y="70.3" transform="matrix(0.7071 -0.7071 0.7071 0.7071 -10.6621 116.0694)" fill="#FFFFFF" width="3.2" height="1.3"/>
		</g>
		<g id="XMLID_7136_">
			<polygon id="XMLID_7138_" fill="#FFFFFF" points="134.5,82.9 137,80.4 137,82.9 			"/>
			
				<rect id="XMLID_7137_" x="133.1" y="80" transform="matrix(0.7071 0.7071 -0.7071 0.7071 96.4784 -71.6352)" fill="#FFFFFF" width="3.2" height="1.3"/>
		</g>
		<g id="XMLID_7133_">
			<polygon id="XMLID_7135_" fill="#FFFFFF" points="123.6,77.4 123.6,73.9 125.4,75.6 			"/>
			<rect id="XMLID_7134_" x="120.6" y="75" fill="#FFFFFF" width="3.2" height="1.3"/>
		</g>
	</g>
	<g id="XMLID_7111_">
		<path id="XMLID_7131_" fill="#EC4F24" d="M261.4,83.1c0,2.1-1.7,3.9-3.9,3.9H243c-2.1,0-3.9-1.7-3.9-3.9V68.6
			c0-2.1,1.7-3.9,3.9-3.9h14.5c2.1,0,3.9,1.7,3.9,3.9V83.1z"/>
		
			<ellipse id="XMLID_7130_" transform="matrix(0.7071 -0.7071 0.7071 0.7071 19.7501 199.0853)" fill="#FFFFFF" cx="250.2" cy="75.7" rx="3.8" ry="3.8"/>
		
			<ellipse id="XMLID_7129_" transform="matrix(0.7071 -0.7071 0.7071 0.7071 19.7501 199.0853)" fill="#EC4F24" cx="250.2" cy="75.7" rx="2.7" ry="2.7"/>
		
			<rect id="XMLID_7128_" x="246" y="77" transform="matrix(0.7071 0.7071 -0.7071 0.7071 128.2293 -151.1861)" fill="#FFFFFF" width="1.2" height="4.4"/>
		<g id="XMLID_7124_">
			<circle id="XMLID_7127_" fill="#FFFFFF" cx="248.6" cy="75.7" r="0.6"/>
			<circle id="XMLID_7126_" fill="#FFFFFF" cx="250.2" cy="75.7" r="0.6"/>
			<circle id="XMLID_7125_" fill="#FFFFFF" cx="251.7" cy="75.7" r="0.6"/>
		</g>
		<g id="XMLID_7121_">
			<polygon id="XMLID_7123_" fill="#FFFFFF" points="258.1,77.7 258.1,74.2 259.8,75.9 			"/>
			<rect id="XMLID_7122_" x="255.1" y="75.3" fill="#FFFFFF" width="3.2" height="1.3"/>
		</g>
		<g id="XMLID_7118_">
			<polygon id="XMLID_7120_" fill="#FFFFFF" points="257.1,71.1 254.6,68.6 257.1,68.6 			"/>
			
				<rect id="XMLID_7119_" x="253.2" y="70.3" transform="matrix(0.7071 -0.7071 0.7071 0.7071 24.4976 200.9523)" fill="#FFFFFF" width="3.2" height="1.3"/>
		</g>
		<g id="XMLID_7115_">
			<polygon id="XMLID_7117_" fill="#FFFFFF" points="254.5,82.9 257,80.4 257,82.9 			"/>
			
				<rect id="XMLID_7116_" x="253.2" y="80" transform="matrix(0.7071 0.7071 -0.7071 0.7071 131.638 -156.5181)" fill="#FFFFFF" width="3.2" height="1.3"/>
		</g>
		<g id="XMLID_7112_">
			<polygon id="XMLID_7114_" fill="#FFFFFF" points="243.7,77.4 243.7,73.9 245.4,75.6 			"/>
			<rect id="XMLID_7113_" x="240.6" y="75" fill="#FFFFFF" width="3.2" height="1.3"/>
		</g>
	</g>
	<g id="XMLID_7090_">
		<path id="XMLID_7110_" fill="#EC4F24" d="M391.6,83.1c0,2.1-1.7,3.9-3.9,3.9h-14.5c-2.1,0-3.9-1.7-3.9-3.9V68.6
			c0-2.1,1.7-3.9,3.9-3.9h14.5c2.1,0,3.9,1.7,3.9,3.9V83.1z"/>
		
			<ellipse id="XMLID_7109_" transform="matrix(0.7071 -0.7071 0.7071 0.7071 57.8994 291.1861)" fill="#FFFFFF" cx="380.4" cy="75.7" rx="3.8" ry="3.8"/>
		
			<ellipse id="XMLID_7108_" transform="matrix(0.7071 -0.7071 0.7071 0.7071 57.8994 291.1861)" fill="#EC4F24" cx="380.4" cy="75.7" rx="2.7" ry="2.7"/>
		
			<rect id="XMLID_7107_" x="376.3" y="77" transform="matrix(0.7071 0.7071 -0.7071 0.7071 166.3787 -243.2868)" fill="#FFFFFF" width="1.2" height="4.4"/>
		<g id="XMLID_7103_">
			<circle id="XMLID_7106_" fill="#FFFFFF" cx="378.9" cy="75.7" r="0.6"/>
			<circle id="XMLID_7105_" fill="#FFFFFF" cx="380.4" cy="75.7" r="0.6"/>
			<circle id="XMLID_7104_" fill="#FFFFFF" cx="381.9" cy="75.7" r="0.6"/>
		</g>
		<g id="XMLID_7100_">
			<polygon id="XMLID_7102_" fill="#FFFFFF" points="388.3,77.7 388.3,74.2 390.1,75.9 			"/>
			<rect id="XMLID_7101_" x="385.3" y="75.3" fill="#FFFFFF" width="3.2" height="1.3"/>
		</g>
		<g id="XMLID_7097_">
			<polygon id="XMLID_7099_" fill="#FFFFFF" points="387.3,71.1 384.8,68.6 387.3,68.6 			"/>
			
				<rect id="XMLID_7098_" x="383.5" y="70.3" transform="matrix(0.7071 -0.7071 0.7071 0.7071 62.6469 293.053)" fill="#FFFFFF" width="3.2" height="1.3"/>
		</g>
		<g id="XMLID_7094_">
			<polygon id="XMLID_7096_" fill="#FFFFFF" points="384.8,82.9 387.3,80.4 387.3,82.9 			"/>
			
				<rect id="XMLID_7095_" x="383.4" y="80" transform="matrix(0.7071 0.7071 -0.7071 0.7071 169.7874 -248.6188)" fill="#FFFFFF" width="3.2" height="1.3"/>
		</g>
		<g id="XMLID_7091_">
			<polygon id="XMLID_7093_" fill="#FFFFFF" points="373.9,77.4 373.9,73.9 375.7,75.6 			"/>
			<rect id="XMLID_7092_" x="370.9" y="75" fill="#FFFFFF" width="3.2" height="1.3"/>
		</g>
	</g>
	
		<polyline id="XMLID_7089_" fill="none" stroke="#231F20" stroke-width="1.9708" stroke-miterlimit="10" stroke-dasharray="1.9708,5.9123" points="
		49.7,50.2 49.7,35.4 131.5,35.4 131.5,58.6 	"/>
	
		<polyline id="XMLID_7088_" fill="none" stroke="#231F20" stroke-width="1.9708" stroke-miterlimit="10" stroke-dasharray="1.9708,5.9123" points="
		38.4,49.5 38.4,26.2 252.2,26.2 252.2,60 	"/>
	
		<polyline id="XMLID_7087_" fill="none" stroke="#231F20" stroke-width="1.9708" stroke-miterlimit="10" stroke-dasharray="1.9708,5.9123" points="
		27.9,49.5 27.9,15.6 381.9,15.6 381.9,61.5 	"/>
</g>
<g id="Misc._Art" display="none">
</g>
</svg>
