<?xml version="1.0" encoding="utf-8"?>
<!-- Generator: Adobe Illustrator 19.2.1, SVG Export Plug-In . SVG Version: 6.00 Build 0)  -->
<svg version="1.1" xmlns="http://www.w3.org/2000/svg" xmlns:xlink="http://www.w3.org/1999/xlink" x="0px" y="0px"
	 viewBox="0 0 360 230" enable-background="new 0 0 360 230" xml:space="preserve">
<g id="Artwork__x5B_Live_x5D_" display="none">
	<g id="XMLID_1078_" display="inline">
		<g id="XMLID_2855_">
			<g id="XMLID_2858_">
				<path id="XMLID_2859_" fill="#CED0D1" d="M330.3,117.1c0,3.5-2.8,6.3-6.3,6.3l-286.9,0c-3.5,0-6.3-2.8-6.3-6.3V16.3
					c0-3.5,2.8-6.3,6.3-6.3H324c3.5,0,6.3,2.8,6.3,6.3V117.1z"/>
			</g>
			<g id="XMLID_2856_">
				<rect id="XMLID_2857_" x="37.6" y="16.8" fill="#EBEBEB" width="285.9" height="99.7"/>
			</g>
		</g>
		<rect id="XMLID_2854_" x="119.1" y="52.6" fill="#EEEEEE" width="114.3" height="56.2"/>
		<g id="XMLID_2843_">
			<g id="XMLID_2852_">
				<path id="XMLID_2853_" fill="#83898A" d="M123.2,103.6c-0.6,0-1.2-0.2-1.7-0.6c-1-0.9-1.1-2.5-0.2-3.6L142.6,73
					c0.9-1,2.5-1.1,3.6-0.2c1,0.9,1.1,2.5,0.2,3.6l-21.3,26.3C124.6,103.3,123.9,103.6,123.2,103.6z"/>
			</g>
			<g id="XMLID_2850_">
				<path id="XMLID_2851_" fill="#83898A" d="M164.9,96.3c-0.5,0-1.1-0.2-1.5-0.5l-20.5-19c-1.1-0.9-1.3-2.4-0.5-3.6
					c0.9-1.1,2.4-1.3,3.6-0.5l20.5,19c1.1,0.9,1.3,2.4,0.5,3.6C166.5,95.9,165.7,96.3,164.9,96.3z"/>
			</g>
			<g id="XMLID_2848_">
				<path id="XMLID_2849_" fill="#83898A" d="M165,96.3c-0.3,0-0.6-0.1-0.9-0.2c-1.3-0.5-2-2-1.4-3.3l19-19.9c0.5-1.3,2-2,3.3-1.4
					c1.3,0.5,2,2,1.4,3.3l-19,19.9C166.9,95.7,166,96.3,165,96.3z"/>
			</g>
			<g id="XMLID_2846_">
				<path id="XMLID_2847_" fill="#83898A" d="M204.9,85.3c-0.8,0-1.5-0.3-2-1L182,75.4c-0.9-1.1-0.6-2.7,0.5-3.6
					c1.1-0.9,2.7-0.6,3.6,0.5l20.9,8.9c0.9,1.1,0.6,2.7-0.5,3.6C206,85.1,205.4,85.3,204.9,85.3z"/>
			</g>
			<g id="XMLID_2844_">
				<path id="XMLID_2845_" fill="#83898A" d="M204.9,85.3c-0.4,0-0.8-0.1-1.2-0.3c-1.2-0.7-1.7-2.2-1-3.5l20.1-24.6
					c0.7-1.2,2.2-1.7,3.5-1c1.2,0.7,1.7,2.2,1,3.5L207.1,84C206.6,84.8,205.8,85.3,204.9,85.3z"/>
			</g>
		</g>
		<g id="XMLID_2841_">
			<path id="XMLID_2842_" fill="#5E7391" d="M223.8,60.4c-1.2-0.6-1.7-2.2-1.1-3.4c0.6-1.2,2.2-1.7,3.4-1.1"/>
		</g>
		<g id="XMLID_2839_">
			<circle id="XMLID_2840_" fill="#EC4F24" cx="225.6" cy="59.5" r="5.8"/>
		</g>
		<g id="XMLID_2837_">
			
				<circle id="XMLID_2838_" fill="#8AFFAC" stroke="#EEEEEE" stroke-width="1.7141" stroke-miterlimit="10" cx="204.6" cy="80.3" r="5.8"/>
		</g>
		<g id="XMLID_2835_">
			
				<circle id="XMLID_2836_" fill="#57BFFF" stroke="#EEEEEE" stroke-width="1.7141" stroke-miterlimit="10" cx="184.4" cy="76.2" r="5.8"/>
		</g>
		<g id="XMLID_2833_">
			
				<circle id="XMLID_2834_" fill="#3F41FF" stroke="#EEEEEE" stroke-width="1.7141" stroke-miterlimit="10" cx="144.6" cy="75.2" r="5.8"/>
		</g>
		<g id="XMLID_2831_">
			<circle id="XMLID_2832_" fill="#E4E4E4" cx="144.6" cy="75.2" r="1.4"/>
		</g>
		<g id="XMLID_2829_">
			
				<circle id="XMLID_2830_" fill="#4E88FF" stroke="#EEEEEE" stroke-width="1.7141" stroke-miterlimit="10" cx="164.7" cy="93.3" r="5.8"/>
		</g>
		<g id="XMLID_2827_">
			<circle id="XMLID_2828_" fill="#E4E4E4" cx="164.7" cy="93.3" r="1.4"/>
		</g>
		<g id="XMLID_2825_">
			<circle id="XMLID_2826_" fill="#E4E4E4" cx="184.4" cy="76.2" r="1.4"/>
		</g>
		<g id="XMLID_2823_">
			<circle id="XMLID_2824_" fill="#EEEEEE" cx="204.6" cy="80.3" r="1.4"/>
		</g>
		<g id="XMLID_2821_">
			<circle id="XMLID_2822_" fill="#E4E4E4" cx="225.6" cy="59.5" r="1.4"/>
		</g>
		<g id="XMLID_2819_">
			<rect id="XMLID_2820_" x="70.5" y="24.5" fill="#C2C2C2" width="9.1" height="2.3"/>
		</g>
		<g id="XMLID_2817_">
			<rect id="XMLID_2818_" x="70.5" y="29.1" fill="#C2C2C2" width="18.3" height="2.3"/>
		</g>
		<g id="XMLID_2815_">
			<rect id="XMLID_2816_" x="91" y="29.1" fill="#C2C2C2" width="6.8" height="2.3"/>
		</g>
		<g id="XMLID_2813_">
			<rect id="XMLID_2814_" x="100.2" y="29.1" fill="#C2C2C2" width="9.1" height="2.3"/>
		</g>
		<g id="XMLID_2811_">
			<rect id="XMLID_2812_" x="111.6" y="29.1" fill="#C2C2C2" width="13.7" height="2.3"/>
		</g>
		<g id="XMLID_2809_">
			<rect id="XMLID_2810_" x="61.4" y="33.7" fill="#C2C2C2" width="13.7" height="2.3"/>
		</g>
		<g id="XMLID_2807_">
			<rect id="XMLID_2808_" x="61.4" y="41.6" fill="#C2C2C2" width="238.5" height="1.1"/>
		</g>
		<g id="XMLID_2805_">
			<rect id="XMLID_2806_" x="77.3" y="33.7" fill="#C2C2C2" width="6.8" height="2.3"/>
		</g>
		<g id="XMLID_2803_">
			<rect id="XMLID_2804_" x="81.9" y="24.5" fill="#C2C2C2" width="18.3" height="2.3"/>
		</g>
		<g id="XMLID_2801_">
			<rect id="XMLID_2802_" x="109.3" y="24.5" fill="#C2C2C2" width="25.1" height="2.3"/>
		</g>
		<g id="XMLID_2799_">
			<rect id="XMLID_2800_" x="61.4" y="24.5" fill="#3F41FF" width="6.8" height="6.8"/>
		</g>
		<g id="XMLID_2797_">
			<rect id="XMLID_2798_" x="102.4" y="24.5" fill="#C2C2C2" width="4.6" height="2.3"/>
		</g>
		<g id="XMLID_2795_">
			<rect id="XMLID_2796_" x="182.9" y="98.1" fill="#3F41FF" width="6.8" height="6.8"/>
		</g>
		<g id="XMLID_2793_">
			<rect id="XMLID_2794_" x="192" y="98.1" fill="#4E88FF" width="6.8" height="6.8"/>
		</g>
		<g id="XMLID_2791_">
			<rect id="XMLID_2792_" x="201.2" y="98.1" fill="#57BFFF" width="6.8" height="6.8"/>
		</g>
		<g id="XMLID_2789_">
			<rect id="XMLID_2790_" x="210.3" y="98.1" fill="#8AFFAC" width="6.8" height="6.8"/>
		</g>
		<g id="XMLID_2787_">
			<rect id="XMLID_2788_" x="219.4" y="98.1" fill="#EC4F24" width="6.8" height="6.8"/>
		</g>
		<g id="XMLID_2771_">
			<g id="XMLID_2780_">
				<g id="XMLID_2785_">
					<path id="XMLID_2786_" fill="#57BFFF" d="M98.7,68.1c-0.9-1.7-2.2-3.2-3.7-4.4l-9.2,11.5L98.7,68.1z"/>
				</g>
				<g id="XMLID_2783_">
					<path id="XMLID_2784_" opacity="0.5" fill="#57BFFF" d="M95,63.7c-2.5-2-5.7-3.2-9.2-3.2c-3.9,0-7.5,1.5-10.1,4l10.1,10.7
						L95,63.7z"/>
				</g>
				<g id="XMLID_2781_">
					<path id="XMLID_2782_" fill="#3F41FF" d="M85.7,75.2L75.7,64.5C72.8,67.2,71,71,71,75.2C71,83.4,77.6,90,85.7,90
						s14.7-6.6,14.7-14.7c0-2.6-0.7-5-1.8-7.1L85.7,75.2z"/>
				</g>
			</g>
			<g id="XMLID_2778_">
				<rect id="XMLID_2779_" x="73.1" y="96.8" fill="#57BFFF" width="6.8" height="6.8"/>
			</g>
			<g id="XMLID_2776_">
				<rect id="XMLID_2777_" x="82.3" y="96.8" fill="#57BFFF" width="6.8" height="6.8"/>
			</g>
			<g id="XMLID_2774_">
				<rect id="XMLID_2775_" x="91.4" y="96.8" fill="#3F41FF" width="6.8" height="6.8"/>
			</g>
			<g id="XMLID_2772_">
				<rect id="XMLID_2773_" x="73.1" y="105.9" fill="#C2C2C2" width="25.1" height="2.3"/>
			</g>
		</g>
		<g id="XMLID_2748_">
			<g id="XMLID_2766_">
				<g id="XMLID_2769_">
					<rect id="XMLID_2770_" x="246.9" y="62" fill="#C2C2C2" width="9.1" height="2.3"/>
				</g>
				<g id="XMLID_2767_">
					<rect id="XMLID_2768_" x="258.3" y="62" fill="#C2C2C2" width="18.3" height="2.3"/>
				</g>
			</g>
			<rect id="XMLID_2765_" x="246.9" y="54.8" fill="#FFB300" width="43.9" height="4.7"/>
			<g id="XMLID_2762_">
				<g id="XMLID_2763_">
					<rect id="XMLID_2764_" x="246.9" y="76.8" fill="#C2C2C2" width="20.1" height="2.3"/>
				</g>
			</g>
			<rect id="XMLID_2761_" x="246.9" y="69.6" fill="#FF8000" width="43.9" height="4.7"/>
			<g id="XMLID_2756_">
				<g id="XMLID_2759_">
					<rect id="XMLID_2760_" x="246.9" y="91.6" fill="#C2C2C2" width="6.9" height="2.3"/>
				</g>
				<g id="XMLID_2757_">
					<rect id="XMLID_2758_" x="256.1" y="91.6" fill="#C2C2C2" width="16.1" height="2.3"/>
				</g>
			</g>
			<rect id="XMLID_2755_" x="246.9" y="84.4" fill="#FF6903" width="43.9" height="4.7"/>
			<g id="XMLID_2750_">
				<g id="XMLID_2753_">
					<rect id="XMLID_2754_" x="246.9" y="106.4" fill="#C2C2C2" width="9.1" height="2.3"/>
				</g>
				<g id="XMLID_2751_">
					<rect id="XMLID_2752_" x="258.3" y="106.4" fill="#C2C2C2" width="2.9" height="2.3"/>
				</g>
			</g>
			<rect id="XMLID_2749_" x="246.9" y="99.3" fill="#FF4900" width="43.9" height="4.7"/>
		</g>
	</g>
	<g id="XMLID_2_" display="inline">
		<g id="XMLID_2860_">
			<text transform="matrix(1 0 0 1 30.2687 214.4096)" fill="#868D8D" font-family="'BrandonGrotesque-Bold'" font-size="13px">Performance</text>
		</g>
		<path id="XMLID_2745_" fill="#858C8D" d="M63.6,145.8c-12.4,0-22.4,10-22.4,22.4s10,22.4,22.4,22.4s22.4-10,22.4-22.4
			S76,145.8,63.6,145.8z"/>
		<path id="XMLID_2687_" fill="#FFFFFF" d="M72.9,163.8l-5.4,3.1c0.1,0.3,0.1,0.6,0.1,0.9c0,2.2-1.8,4-4,4c-1.1,0-2-0.4-2.8-1.1
			l-1.3,0.7c-0.1,0.1-0.2,0.1-0.4,0.1c-0.3,0-0.5-0.1-0.6-0.4l-0.5-0.9c-0.1-0.2-0.1-0.4-0.1-0.6c0.1-0.2,0.2-0.4,0.3-0.4l1.3-0.8
			c0-0.2-0.1-0.5-0.1-0.7c0-2.2,1.8-4,4-4c1,0,1.9,0.4,2.6,1l5.4-3.1c0.4-0.2,0.8-0.1,1,0.3l0.5,0.9c0.1,0.2,0.1,0.4,0.1,0.6
			C73.2,163.6,73,163.7,72.9,163.8z M79.3,176.9l-0.2,0.4c-0.1,0.3-0.4,0.4-0.6,0.5c-0.1,0-0.2,0-0.3,0c-0.2,0-0.4,0-0.5-0.1
			l-3.3-1.9c-0.3-0.1-0.4-0.4-0.5-0.7c-0.1-0.3,0-0.6,0.1-0.8l0.5-0.8c0.1-0.2,0.4-0.4,0.7-0.5c0.3-0.1,0.6,0,0.8,0.1l1.5,0.9
			c0.6-1.3,0.9-2.7,1.1-4H76c-0.6,0-1.1-0.5-1.1-1.1v-2.2c0-0.6,0.5-1.1,1.1-1.1h2.5c-0.2-1.4-0.6-2.9-1.2-4.3l-1.4,0.9
			c-0.3,0.2-0.6,0.2-0.8,0.1c-0.3-0.1-0.5-0.2-0.7-0.5l-0.5-0.9c-0.1-0.2-0.2-0.5-0.1-0.8c0.1-0.3,0.3-0.5,0.5-0.7l1.4-0.8
			c-0.9-1.3-2.1-2.4-3.4-3.3l-0.9,1.5c-0.3,0.5-0.9,0.7-1.4,0.4l-1-0.5c-0.5-0.3-0.7-0.9-0.5-1.4l0.7-1.5c-1.4-0.7-2.6-1.1-5.1-1.3
			v1.2c0,0.6-0.5,1.1-1.1,1.1c-0.6,0-1.1-0.5-1.1-1.1v-1.1c-1.5,0.2-3.2,0.6-4.5,1.2l0.8,1.4c0.1,0.2,0.2,0.5,0.1,0.8
			c-0.1,0.3-0.3,0.5-0.5,0.7l-0.9,0.5c-0.5,0.3-1.2,0.1-1.5-0.4l-0.8-1.4c-1.3,0.9-2.4,2-3.3,3.3l1.4,0.8c0.3,0.1,0.4,0.4,0.5,0.7
			c0.1,0.3,0,0.6-0.1,0.8l-0.5,0.8c-0.1,0.2-0.4,0.4-0.7,0.5c-0.3,0.1-0.6,0-0.8-0.1l-1.4-0.9c-0.6,1.4-1,2.9-1.2,4.3h1.5
			c0.6,0,1.1,0.5,1.1,1.1v2.2c0,0.6-0.5,1.1-1.1,1.1h-1.5c0.2,1.3,0.5,2.6,1.1,3.9l1.6-0.9c0.5-0.3,1.2-0.1,1.5,0.4l0.5,0.9
			c0.1,0.2,0.2,0.5,0.1,0.8c-0.1,0.3-0.3,0.5-0.5,0.7l-3.3,1.9c-0.5,0.3-1.2,0.1-1.5-0.4l-0.3-0.4c-1.6-2.8-2.4-5.9-2.4-9.1
			c0-10,8.2-18.2,18.2-18.2c10,0,18.2,8.2,18.2,18.2C81.8,171,80.9,174.1,79.3,176.9z"/>
	</g>
	<g id="XMLID_42_" display="inline">
		<g id="XMLID_2736_">
			<text transform="matrix(1 0 0 1 154.1105 214.4096)" fill="#868D8D" font-family="'BrandonGrotesque-Bold'" font-size="13px">Security</text>
		</g>
		<path id="XMLID_2734_" fill="#858C8D" d="M175.6,145.8c-12.4,0-22.4,10-22.4,22.4s10,22.4,22.4,22.4s22.4-10,22.4-22.4
			S188,145.8,175.6,145.8z"/>
		<g id="XMLID_1727_">
			<path id="XMLID_2740_" fill="#FFFFFF" d="M184.2,164.7H167c-1.4,0-2.5,1.1-2.5,2.5v11.4c0,1.4,1.1,2.5,2.5,2.5h17.2
				c1.4,0,2.5-1.1,2.5-2.5v-11.4C186.7,165.9,185.6,164.7,184.2,164.7z M176.8,173v3.2c0,0.3-0.3,0.6-0.6,0.6H175
				c-0.3,0-0.6-0.3-0.6-0.6V173c-0.5-0.4-0.8-0.9-0.8-1.6c0-1.1,0.9-2,2-2c1.1,0,2,0.9,2,2C177.6,172.1,177.3,172.7,176.8,173z"/>
			<path id="XMLID_2741_" fill="#FFFFFF" d="M170.6,156.9c0-0.9,0.7-1.6,1.6-1.6h6.9c0.9,0,1.6,0.7,1.6,1.6v5.9h3.1v-5.9
				c0-2.6-2.1-4.7-4.7-4.7h-6.9c-2.6,0-4.7,2.1-4.7,4.7v5.9h3.1V156.9z"/>
		</g>
	</g>
	<g id="XMLID_1118_" display="inline">
		<g id="XMLID_1686_">
			<text transform="matrix(1 0 0 1 247.0891 214.4096)" fill="#868D8D" font-family="'BrandonGrotesque-Bold'" font-size="13px">Troubleshooting</text>
		</g>
		<path id="XMLID_1683_" fill="#858C8D" d="M288.6,145.8c-12.4,0-22.4,10-22.4,22.4s10,22.4,22.4,22.4s22.4-10,22.4-22.4
			S301,145.8,288.6,145.8z"/>
		<path id="XMLID_1737_" fill="#FFFFFF" d="M288.8,162.6l-6.2,6.2l-1.3-1.3l6.2-6.2L288.8,162.6z M275.9,158.5l-0.8-1.6l1.6-1.6
			l1.6,0.8c0.3,0.1,0.5,0.4,0.7,0.6l1.5,2.4l4.2,4.2l-1.6,1.6l-4.2-4.2l-2.4-1.5C276.3,159,276.1,158.8,275.9,158.5z M300.3,179.2
			l-1.1,1.1c-1.2,1.2-3.2,1-4.6-0.3l-5.2-5.2l1.2-1.2l1.6,1.6c0.7,0.7,1.6-0.1,0.8-0.8l-1.6-1.6l1.3-1.3l1.6,1.6
			c0.7,0.7,1.6-0.1,0.8-0.8l-1.6-1.6l1.2-1.2l5.2,5.2C301.3,176,301.5,178,300.3,179.2z M301.4,161.9l-0.3,1l-1.7,1.7l-3.2,0.8
			l-10,10l-0.8,3.2l-1.7,1.7l-3.4,0.9l-0.5-0.5l2.9-2.9c0.2-0.2,0.2-0.5,0-0.6l-2.2-2.2c-0.2-0.2-0.5-0.2-0.6,0l-2.9,2.9l-0.5-0.5
			l0.9-3.4l1.7-1.7l3.2-0.8c3.5-3.5,6.4-6.4,9.9-9.9l0.8-3.2l1.7-1.7l1-0.3l2.3-0.6l0.5,0.5l-2.9,2.9c-0.2,0.2-0.2,0.5,0,0.6
			l2.2,2.2c0.2,0.2,0.5,0.2,0.6,0l2.9-2.9l0.5,0.5L301.4,161.9z"/>
	</g>
</g>
<g id="Artwork__x5B_Outlined_x5D_">
	<g id="XMLID_7320_">
		<g id="XMLID_7428_">
			<g id="XMLID_7431_">
				<path id="XMLID_7432_" fill="#CED0D1" d="M330.3,117.1c0,3.5-2.8,6.3-6.3,6.3l-286.9,0c-3.5,0-6.3-2.8-6.3-6.3V16.3
					c0-3.5,2.8-6.3,6.3-6.3H324c3.5,0,6.3,2.8,6.3,6.3V117.1z"/>
			</g>
			<g id="XMLID_7429_">
				<rect id="XMLID_7430_" x="37.6" y="16.8" fill="#EBEBEB" width="285.9" height="99.7"/>
			</g>
		</g>
		<rect id="XMLID_7427_" x="119.1" y="52.6" fill="#EEEEEE" width="114.3" height="56.2"/>
		<g id="XMLID_7416_">
			<g id="XMLID_7425_">
				<path id="XMLID_7426_" fill="#83898A" d="M123.2,103.6c-0.6,0-1.2-0.2-1.7-0.6c-1-0.9-1.1-2.5-0.2-3.6L142.6,73
					c0.9-1,2.5-1.1,3.6-0.2c1,0.9,1.1,2.5,0.2,3.6l-21.3,26.3C124.6,103.3,123.9,103.6,123.2,103.6z"/>
			</g>
			<g id="XMLID_7423_">
				<path id="XMLID_7424_" fill="#83898A" d="M164.9,96.3c-0.5,0-1.1-0.2-1.5-0.5l-20.5-19c-1.1-0.9-1.3-2.4-0.5-3.6
					c0.9-1.1,2.4-1.3,3.6-0.5l20.5,19c1.1,0.9,1.3,2.4,0.5,3.6C166.5,95.9,165.7,96.3,164.9,96.3z"/>
			</g>
			<g id="XMLID_7421_">
				<path id="XMLID_7422_" fill="#83898A" d="M165,96.3c-0.3,0-0.6-0.1-0.9-0.2c-1.3-0.5-2-2-1.4-3.3l19-19.9c0.5-1.3,2-2,3.3-1.4
					c1.3,0.5,2,2,1.4,3.3l-19,19.9C166.9,95.7,166,96.3,165,96.3z"/>
			</g>
			<g id="XMLID_7419_">
				<path id="XMLID_7420_" fill="#83898A" d="M204.9,85.3c-0.8,0-1.5-0.3-2-1L182,75.4c-0.9-1.1-0.6-2.7,0.5-3.6
					c1.1-0.9,2.7-0.6,3.6,0.5l20.9,8.9c0.9,1.1,0.6,2.7-0.5,3.6C206,85.1,205.4,85.3,204.9,85.3z"/>
			</g>
			<g id="XMLID_7417_">
				<path id="XMLID_7418_" fill="#83898A" d="M204.9,85.3c-0.4,0-0.8-0.1-1.2-0.3c-1.2-0.7-1.7-2.2-1-3.5l20.1-24.6
					c0.7-1.2,2.2-1.7,3.5-1c1.2,0.7,1.7,2.2,1,3.5L207.1,84C206.6,84.8,205.8,85.3,204.9,85.3z"/>
			</g>
		</g>
		<g id="XMLID_7414_">
			<path id="XMLID_7415_" fill="#5E7391" d="M223.8,60.4c-1.2-0.6-1.7-2.2-1.1-3.4c0.6-1.2,2.2-1.7,3.4-1.1"/>
		</g>
		<g id="XMLID_7412_">
			<circle id="XMLID_7413_" fill="#EC4F24" cx="225.6" cy="59.5" r="5.8"/>
		</g>
		<g id="XMLID_7410_">
			
				<circle id="XMLID_7411_" fill="#8AFFAC" stroke="#EEEEEE" stroke-width="1.7141" stroke-miterlimit="10" cx="204.6" cy="80.3" r="5.8"/>
		</g>
		<g id="XMLID_7408_">
			
				<circle id="XMLID_7409_" fill="#57BFFF" stroke="#EEEEEE" stroke-width="1.7141" stroke-miterlimit="10" cx="184.4" cy="76.2" r="5.8"/>
		</g>
		<g id="XMLID_7406_">
			
				<circle id="XMLID_7407_" fill="#3F41FF" stroke="#EEEEEE" stroke-width="1.7141" stroke-miterlimit="10" cx="144.6" cy="75.2" r="5.8"/>
		</g>
		<g id="XMLID_7404_">
			<circle id="XMLID_7405_" fill="#E4E4E4" cx="144.6" cy="75.2" r="1.4"/>
		</g>
		<g id="XMLID_7402_">
			
				<circle id="XMLID_7403_" fill="#4E88FF" stroke="#EEEEEE" stroke-width="1.7141" stroke-miterlimit="10" cx="164.7" cy="93.3" r="5.8"/>
		</g>
		<g id="XMLID_7400_">
			<circle id="XMLID_7401_" fill="#E4E4E4" cx="164.7" cy="93.3" r="1.4"/>
		</g>
		<g id="XMLID_7398_">
			<circle id="XMLID_7399_" fill="#E4E4E4" cx="184.4" cy="76.2" r="1.4"/>
		</g>
		<g id="XMLID_7396_">
			<circle id="XMLID_7397_" fill="#EEEEEE" cx="204.6" cy="80.3" r="1.4"/>
		</g>
		<g id="XMLID_7394_">
			<circle id="XMLID_7395_" fill="#E4E4E4" cx="225.6" cy="59.5" r="1.4"/>
		</g>
		<g id="XMLID_7392_">
			<rect id="XMLID_7393_" x="70.5" y="24.5" fill="#C2C2C2" width="9.1" height="2.3"/>
		</g>
		<g id="XMLID_7390_">
			<rect id="XMLID_7391_" x="70.5" y="29.1" fill="#C2C2C2" width="18.3" height="2.3"/>
		</g>
		<g id="XMLID_7388_">
			<rect id="XMLID_7389_" x="91" y="29.1" fill="#C2C2C2" width="6.8" height="2.3"/>
		</g>
		<g id="XMLID_7386_">
			<rect id="XMLID_7387_" x="100.2" y="29.1" fill="#C2C2C2" width="9.1" height="2.3"/>
		</g>
		<g id="XMLID_7384_">
			<rect id="XMLID_7385_" x="111.6" y="29.1" fill="#C2C2C2" width="13.7" height="2.3"/>
		</g>
		<g id="XMLID_7382_">
			<rect id="XMLID_7383_" x="61.4" y="33.7" fill="#C2C2C2" width="13.7" height="2.3"/>
		</g>
		<g id="XMLID_7380_">
			<rect id="XMLID_7381_" x="61.4" y="41.6" fill="#C2C2C2" width="238.5" height="1.1"/>
		</g>
		<g id="XMLID_7378_">
			<rect id="XMLID_7379_" x="77.3" y="33.7" fill="#C2C2C2" width="6.8" height="2.3"/>
		</g>
		<g id="XMLID_7376_">
			<rect id="XMLID_7377_" x="81.9" y="24.5" fill="#C2C2C2" width="18.3" height="2.3"/>
		</g>
		<g id="XMLID_7374_">
			<rect id="XMLID_7375_" x="109.3" y="24.5" fill="#C2C2C2" width="25.1" height="2.3"/>
		</g>
		<g id="XMLID_7372_">
			<rect id="XMLID_7373_" x="61.4" y="24.5" fill="#3F41FF" width="6.8" height="6.8"/>
		</g>
		<g id="XMLID_7370_">
			<rect id="XMLID_7371_" x="102.4" y="24.5" fill="#C2C2C2" width="4.6" height="2.3"/>
		</g>
		<g id="XMLID_7368_">
			<rect id="XMLID_7369_" x="182.9" y="98.1" fill="#3F41FF" width="6.8" height="6.8"/>
		</g>
		<g id="XMLID_7366_">
			<rect id="XMLID_7367_" x="192" y="98.1" fill="#4E88FF" width="6.8" height="6.8"/>
		</g>
		<g id="XMLID_7364_">
			<rect id="XMLID_7365_" x="201.2" y="98.1" fill="#57BFFF" width="6.8" height="6.8"/>
		</g>
		<g id="XMLID_7362_">
			<rect id="XMLID_7363_" x="210.3" y="98.1" fill="#8AFFAC" width="6.8" height="6.8"/>
		</g>
		<g id="XMLID_7360_">
			<rect id="XMLID_7361_" x="219.4" y="98.1" fill="#EC4F24" width="6.8" height="6.8"/>
		</g>
		<g id="XMLID_7344_">
			<g id="XMLID_7353_">
				<g id="XMLID_7358_">
					<path id="XMLID_7359_" fill="#57BFFF" d="M98.7,68.1c-0.9-1.7-2.2-3.2-3.7-4.4l-9.2,11.5L98.7,68.1z"/>
				</g>
				<g id="XMLID_7356_">
					<path id="XMLID_7357_" opacity="0.5" fill="#57BFFF" d="M95,63.7c-2.5-2-5.7-3.2-9.2-3.2c-3.9,0-7.5,1.5-10.1,4l10.1,10.7
						L95,63.7z"/>
				</g>
				<g id="XMLID_7354_">
					<path id="XMLID_7355_" fill="#3F41FF" d="M85.7,75.2L75.7,64.5C72.8,67.2,71,71,71,75.2C71,83.4,77.6,90,85.7,90
						s14.7-6.6,14.7-14.7c0-2.6-0.7-5-1.8-7.1L85.7,75.2z"/>
				</g>
			</g>
			<g id="XMLID_7351_">
				<rect id="XMLID_7352_" x="73.1" y="96.8" fill="#57BFFF" width="6.8" height="6.8"/>
			</g>
			<g id="XMLID_7349_">
				<rect id="XMLID_7350_" x="82.3" y="96.8" fill="#57BFFF" width="6.8" height="6.8"/>
			</g>
			<g id="XMLID_7347_">
				<rect id="XMLID_7348_" x="91.4" y="96.8" fill="#3F41FF" width="6.8" height="6.8"/>
			</g>
			<g id="XMLID_7345_">
				<rect id="XMLID_7346_" x="73.1" y="105.9" fill="#C2C2C2" width="25.1" height="2.3"/>
			</g>
		</g>
		<g id="XMLID_7321_">
			<g id="XMLID_7339_">
				<g id="XMLID_7342_">
					<rect id="XMLID_7343_" x="246.9" y="62" fill="#C2C2C2" width="9.1" height="2.3"/>
				</g>
				<g id="XMLID_7340_">
					<rect id="XMLID_7341_" x="258.3" y="62" fill="#C2C2C2" width="18.3" height="2.3"/>
				</g>
			</g>
			<rect id="XMLID_7338_" x="246.9" y="54.8" fill="#FFB300" width="43.9" height="4.7"/>
			<g id="XMLID_7335_">
				<g id="XMLID_7336_">
					<rect id="XMLID_7337_" x="246.9" y="76.8" fill="#C2C2C2" width="20.1" height="2.3"/>
				</g>
			</g>
			<rect id="XMLID_7334_" x="246.9" y="69.6" fill="#FF8000" width="43.9" height="4.7"/>
			<g id="XMLID_7329_">
				<g id="XMLID_7332_">
					<rect id="XMLID_7333_" x="246.9" y="91.6" fill="#C2C2C2" width="6.9" height="2.3"/>
				</g>
				<g id="XMLID_7330_">
					<rect id="XMLID_7331_" x="256.1" y="91.6" fill="#C2C2C2" width="16.1" height="2.3"/>
				</g>
			</g>
			<rect id="XMLID_7328_" x="246.9" y="84.4" fill="#FF6903" width="43.9" height="4.7"/>
			<g id="XMLID_7323_">
				<g id="XMLID_7326_">
					<rect id="XMLID_7327_" x="246.9" y="106.4" fill="#C2C2C2" width="9.1" height="2.3"/>
				</g>
				<g id="XMLID_7324_">
					<rect id="XMLID_7325_" x="258.3" y="106.4" fill="#C2C2C2" width="2.9" height="2.3"/>
				</g>
			</g>
			<rect id="XMLID_7322_" x="246.9" y="99.3" fill="#FF4900" width="43.9" height="4.7"/>
		</g>
	</g>
	<g id="XMLID_7263_">
		<g id="XMLID_11203_">
			<g id="XMLID_16046_">
				<path id="XMLID_16073_" fill="#868D8D" d="M31.7,205.6c0-0.1,0.1-0.2,0.2-0.2H35c1.6,0,2.9,1.3,2.9,2.9c0,1.6-1.3,2.9-2.9,2.9
					h-1.6v3.1c0,0.1-0.1,0.2-0.2,0.2h-1.2c-0.1,0-0.2-0.1-0.2-0.2V205.6z M34.9,209.5c0.7,0,1.3-0.6,1.3-1.4c0-0.7-0.6-1.3-1.3-1.3
					h-1.5v2.6H34.9z"/>
				<path id="XMLID_16070_" fill="#868D8D" d="M40.8,209.1c1.3,0,2.4,1,2.4,2.4c0,0.1,0,0.3,0,0.4c0,0.1-0.1,0.2-0.2,0.2h-3.3
					c0,0.5,0.5,1.1,1.2,1.1c0.4,0,0.8-0.2,1-0.3c0.1-0.1,0.2-0.1,0.3,0l0.5,0.6c0.1,0.1,0.1,0.2,0,0.3c-0.4,0.4-1.1,0.7-1.9,0.7
					c-1.6,0-2.7-1.2-2.7-2.7C38.1,210.3,39.2,209.1,40.8,209.1z M41.7,211.2c0-0.5-0.5-0.9-0.9-0.9c-0.5,0-0.9,0.4-1,0.9H41.7z"/>
				<path id="XMLID_16068_" fill="#868D8D" d="M44.3,209.5c0-0.1,0.1-0.2,0.2-0.2h0.5c0.1,0,0.2,0.1,0.2,0.2l0.2,0.5
					c0.2-0.3,0.7-0.8,1.5-0.8c0.6,0,1.2,0.2,1,0.5l-0.5,0.8c-0.1,0.1-0.2,0.2-0.3,0.1c0,0-0.2-0.1-0.4-0.1c-0.5,0-0.8,0.4-0.9,0.5
					v3.1c0,0.2-0.1,0.2-0.3,0.2h-1c-0.1,0-0.2-0.1-0.2-0.2V209.5z"/>
				<path id="XMLID_16066_" fill="#868D8D" d="M49.1,210.6h-0.4c-0.1,0-0.2-0.1-0.2-0.2v-0.9c0-0.1,0.1-0.2,0.2-0.2h0.4v-1.4
					c0-1.7,1.1-2.6,2.4-2.6c0.7,0,1.3,0.3,1.5,0.5c0.1,0.1,0.1,0.2,0.1,0.3l-0.4,0.8c-0.1,0.1-0.2,0.1-0.3,0.1
					c-0.2-0.1-0.5-0.3-0.8-0.3c-0.6,0-0.9,0.4-0.9,1.2v1.4H52c0.1,0,0.2,0.1,0.2,0.2v0.9c0,0.1-0.1,0.2-0.2,0.2h-1.3v3.6
					c0,0.1-0.1,0.2-0.2,0.2h-1.1c-0.1,0-0.2-0.1-0.2-0.2V210.6z"/>
				<path id="XMLID_16062_" fill="#868D8D" d="M55.5,209.1c1.5,0,2.7,1.2,2.7,2.7c0,1.5-1.2,2.7-2.7,2.7s-2.7-1.2-2.7-2.7
					C52.8,210.3,54,209.1,55.5,209.1z M55.5,213.1c0.7,0,1.2-0.6,1.2-1.3c0-0.7-0.6-1.3-1.2-1.3c-0.7,0-1.2,0.6-1.2,1.3
					C54.2,212.5,54.8,213.1,55.5,213.1z"/>
				<path id="XMLID_16060_" fill="#868D8D" d="M59.3,209.5c0-0.1,0.1-0.2,0.2-0.2H60c0.1,0,0.2,0.1,0.2,0.2l0.2,0.5
					c0.2-0.3,0.7-0.8,1.5-0.8c0.6,0,1.2,0.2,1,0.5l-0.5,0.8c-0.1,0.1-0.2,0.2-0.3,0.1c0,0-0.2-0.1-0.4-0.1c-0.5,0-0.8,0.4-0.9,0.5
					v3.1c0,0.2-0.1,0.2-0.3,0.2h-1c-0.1,0-0.2-0.1-0.2-0.2V209.5z"/>
				<path id="XMLID_16058_" fill="#868D8D" d="M63.7,209.5c0-0.1,0.1-0.2,0.2-0.2h0.5c0.1,0,0.2,0.1,0.2,0.1l0.2,0.5
					c0.2-0.2,0.8-0.8,1.7-0.8c0.7,0,1.3,0.3,1.7,0.8c0.2-0.2,0.9-0.8,1.8-0.8c1.7,0,2.3,1.2,2.3,2.6v2.5c0,0.1-0.1,0.2-0.2,0.2h-1.1
					c-0.1,0-0.2-0.1-0.2-0.2v-2.6c0-0.7-0.3-1.1-1-1.1c-0.8,0-1.1,0.5-1.1,0.5s0,0.3,0,0.5v2.6c0,0.1-0.1,0.2-0.2,0.2h-1
					c-0.1,0-0.2-0.1-0.2-0.2v-2.6c0-0.7-0.3-1.1-1-1.1c-0.6,0-1,0.5-1.1,0.8v2.9c0,0.1-0.1,0.2-0.2,0.2H64c-0.1,0-0.2-0.1-0.2-0.2
					V209.5z"/>
				<path id="XMLID_16055_" fill="#868D8D" d="M75.6,211.1c0.5,0,0.9,0.1,0.9,0.1c0-0.7-0.2-0.9-0.7-0.9c-0.5,0-1.2,0.1-1.5,0.2
					c-0.2,0.1-0.3-0.1-0.3-0.2l-0.1-0.7c0-0.2,0.1-0.3,0.2-0.3c0.1,0,0.9-0.2,1.8-0.2c1.6,0,2,0.8,2,2.3v2.8c0,0.1-0.1,0.2-0.2,0.2
					h-0.5c-0.1,0-0.2,0-0.2-0.2l-0.2-0.4c-0.3,0.3-0.8,0.7-1.6,0.7c-1,0-1.8-0.7-1.8-1.8C73.5,211.8,74.2,211.1,75.6,211.1z
					 M75.6,213.4c0.4,0,0.8-0.4,0.9-0.5v-0.7c0,0-0.4-0.2-0.7-0.2c-0.5,0-0.8,0.3-0.8,0.7C74.9,213.1,75.2,213.4,75.6,213.4z"/>
				<path id="XMLID_16053_" fill="#868D8D" d="M79.4,209.5c0-0.1,0.1-0.2,0.2-0.2h0.5c0.1,0,0.2,0.1,0.2,0.2l0.2,0.5
					c0.2-0.2,0.8-0.8,1.8-0.8c1.7,0,2.3,1.2,2.3,2.6v2.5c0,0.1-0.1,0.2-0.2,0.2h-1.1c-0.1,0-0.2-0.1-0.2-0.2v-2.6
					c0-0.7-0.4-1.1-1-1.1c-0.7,0-1.1,0.5-1.2,0.8v2.9c0,0.2-0.1,0.2-0.3,0.2h-1c-0.1,0-0.2-0.1-0.2-0.2V209.5z"/>
				<path id="XMLID_16050_" fill="#868D8D" d="M88.5,209.1c0.8,0,1.4,0.3,1.9,0.9c0.1,0.1,0.1,0.3-0.1,0.4l-0.6,0.6
					c-0.1,0.1-0.2,0-0.3,0c-0.2-0.2-0.5-0.4-0.9-0.4c-0.7,0-1.3,0.6-1.3,1.3c0,0.7,0.6,1.3,1.3,1.3c0.6,0,0.8-0.3,1-0.5
					c0.1-0.1,0.2-0.1,0.3,0l0.6,0.5c0.1,0.1,0.2,0.2,0.1,0.4c-0.4,0.7-1.1,1.1-2.1,1.1c-1.5,0-2.8-1.2-2.8-2.7
					C85.8,210.3,87.1,209.1,88.5,209.1z"/>
				<path id="XMLID_16047_" fill="#868D8D" d="M94,209.1c1.3,0,2.4,1,2.4,2.4c0,0.1,0,0.3,0,0.4c0,0.1-0.1,0.2-0.2,0.2h-3.3
					c0,0.5,0.5,1.1,1.2,1.1c0.4,0,0.8-0.2,1-0.3c0.1-0.1,0.2-0.1,0.3,0l0.5,0.6c0.1,0.1,0.1,0.2,0,0.3c-0.4,0.4-1.1,0.7-1.9,0.7
					c-1.6,0-2.7-1.2-2.7-2.7C91.3,210.3,92.4,209.1,94,209.1z M94.9,211.2c0-0.5-0.5-0.9-0.9-0.9c-0.5,0-0.9,0.4-1,0.9H94.9z"/>
			</g>
		</g>
		<path id="XMLID_7267_" fill="#858C8D" d="M63.6,145.8c-12.4,0-22.4,10-22.4,22.4s10,22.4,22.4,22.4s22.4-10,22.4-22.4
			S76,145.8,63.6,145.8z"/>
		<path id="XMLID_7264_" fill="#FFFFFF" d="M72.9,163.8l-5.4,3.1c0.1,0.3,0.1,0.6,0.1,0.9c0,2.2-1.8,4-4,4c-1.1,0-2-0.4-2.8-1.1
			l-1.3,0.7c-0.1,0.1-0.2,0.1-0.4,0.1c-0.3,0-0.5-0.1-0.6-0.4l-0.5-0.9c-0.1-0.2-0.1-0.4-0.1-0.6c0.1-0.2,0.2-0.4,0.3-0.4l1.3-0.8
			c0-0.2-0.1-0.5-0.1-0.7c0-2.2,1.8-4,4-4c1,0,1.9,0.4,2.6,1l5.4-3.1c0.4-0.2,0.8-0.1,1,0.3l0.5,0.9c0.1,0.2,0.1,0.4,0.1,0.6
			C73.2,163.6,73,163.7,72.9,163.8z M79.3,176.9l-0.2,0.4c-0.1,0.3-0.4,0.4-0.6,0.5c-0.1,0-0.2,0-0.3,0c-0.2,0-0.4,0-0.5-0.1
			l-3.3-1.9c-0.3-0.1-0.4-0.4-0.5-0.7c-0.1-0.3,0-0.6,0.1-0.8l0.5-0.8c0.1-0.2,0.4-0.4,0.7-0.5c0.3-0.1,0.6,0,0.8,0.1l1.5,0.9
			c0.6-1.3,0.9-2.7,1.1-4H76c-0.6,0-1.1-0.5-1.1-1.1v-2.2c0-0.6,0.5-1.1,1.1-1.1h2.5c-0.2-1.4-0.6-2.9-1.2-4.3l-1.4,0.9
			c-0.3,0.2-0.6,0.2-0.8,0.1c-0.3-0.1-0.5-0.2-0.7-0.5l-0.5-0.9c-0.1-0.2-0.2-0.5-0.1-0.8c0.1-0.3,0.3-0.5,0.5-0.7l1.4-0.8
			c-0.9-1.3-2.1-2.4-3.4-3.3l-0.9,1.5c-0.3,0.5-0.9,0.7-1.4,0.4l-1-0.5c-0.5-0.3-0.7-0.9-0.5-1.4l0.7-1.5c-1.4-0.7-2.6-1.1-5.1-1.3
			v1.2c0,0.6-0.5,1.1-1.1,1.1c-0.6,0-1.1-0.5-1.1-1.1v-1.1c-1.5,0.2-3.2,0.6-4.5,1.2l0.8,1.4c0.1,0.2,0.2,0.5,0.1,0.8
			c-0.1,0.3-0.3,0.5-0.5,0.7l-0.9,0.5c-0.5,0.3-1.2,0.1-1.5-0.4l-0.8-1.4c-1.3,0.9-2.4,2-3.3,3.3l1.4,0.8c0.3,0.1,0.4,0.4,0.5,0.7
			c0.1,0.3,0,0.6-0.1,0.8l-0.5,0.8c-0.1,0.2-0.4,0.4-0.7,0.5c-0.3,0.1-0.6,0-0.8-0.1l-1.4-0.9c-0.6,1.4-1,2.9-1.2,4.3h1.5
			c0.6,0,1.1,0.5,1.1,1.1v2.2c0,0.6-0.5,1.1-1.1,1.1h-1.5c0.2,1.3,0.5,2.6,1.1,3.9l1.6-0.9c0.5-0.3,1.2-0.1,1.5,0.4l0.5,0.9
			c0.1,0.2,0.2,0.5,0.1,0.8c-0.1,0.3-0.3,0.5-0.5,0.7l-3.3,1.9c-0.5,0.3-1.2,0.1-1.5-0.4l-0.3-0.4c-1.6-2.8-2.4-5.9-2.4-9.1
			c0-10,8.2-18.2,18.2-18.2c10,0,18.2,8.2,18.2,18.2C81.8,171,80.9,174.1,79.3,176.9z"/>
	</g>
	<g id="XMLID_7252_">
		<g id="XMLID_11184_">
			<g id="XMLID_15604_">
				<path id="XMLID_15623_" fill="#868D8D" d="M154.8,213.1l0.5-0.8c0.1-0.2,0.3-0.2,0.4-0.1c0.1,0,1.1,0.8,2,0.8
					c0.7,0,1.2-0.4,1.2-1c0-0.7-0.6-1.1-1.7-1.6c-1.2-0.5-2.4-1.3-2.4-2.8c0-1.2,0.9-2.5,2.9-2.5c1.3,0,2.3,0.7,2.6,0.9
					c0.1,0.1,0.2,0.3,0.1,0.4l-0.5,0.7c-0.1,0.2-0.3,0.3-0.5,0.2c-0.1-0.1-1.1-0.7-1.8-0.7c-0.7,0-1.1,0.5-1.1,0.9
					c0,0.6,0.5,1,1.5,1.5c1.3,0.5,2.7,1.3,2.7,2.9c0,1.3-1.2,2.6-3,2.6c-1.6,0-2.6-0.8-2.9-1C154.7,213.4,154.7,213.3,154.8,213.1z"
					/>
				<path id="XMLID_15620_" fill="#868D8D" d="M164.2,209.1c1.3,0,2.4,1,2.4,2.4c0,0.1,0,0.3,0,0.4c0,0.1-0.1,0.2-0.2,0.2H163
					c0,0.5,0.5,1.1,1.2,1.1c0.4,0,0.8-0.2,1-0.3c0.1-0.1,0.2-0.1,0.3,0l0.5,0.6c0.1,0.1,0.1,0.2,0,0.3c-0.4,0.4-1.1,0.7-1.9,0.7
					c-1.6,0-2.7-1.2-2.7-2.7C161.5,210.3,162.6,209.1,164.2,209.1z M165.1,211.2c0-0.5-0.5-0.9-0.9-0.9c-0.5,0-0.9,0.4-1,0.9H165.1z
					"/>
				<path id="XMLID_15618_" fill="#868D8D" d="M170,209.1c0.8,0,1.4,0.3,1.9,0.9c0.1,0.1,0.1,0.3-0.1,0.4l-0.6,0.6
					c-0.1,0.1-0.2,0-0.3,0c-0.2-0.2-0.5-0.4-0.9-0.4c-0.7,0-1.3,0.6-1.3,1.3c0,0.7,0.6,1.3,1.3,1.3c0.6,0,0.8-0.3,1-0.5
					c0.1-0.1,0.2-0.1,0.3,0l0.6,0.5c0.1,0.1,0.2,0.2,0.1,0.4c-0.4,0.7-1.1,1.1-2.1,1.1c-1.5,0-2.8-1.2-2.8-2.7
					C167.3,210.3,168.6,209.1,170,209.1z"/>
				<path id="XMLID_15616_" fill="#868D8D" d="M173.1,209.5c0-0.1,0.1-0.2,0.2-0.2h1.1c0.1,0,0.2,0.1,0.2,0.2v2.6
					c0,0.7,0.4,1.1,0.9,1.1c0.5,0,1-0.5,1-1v-2.7c0-0.2,0.1-0.2,0.3-0.2h1c0.1,0,0.2,0.1,0.2,0.2v4.7c0,0.1-0.1,0.2-0.2,0.2h-0.5
					c-0.1,0-0.2-0.1-0.2-0.2l-0.2-0.4c-0.2,0.2-0.7,0.8-1.7,0.8c-1.6,0-2.2-1.2-2.2-2.6V209.5z"/>
				<path id="XMLID_15613_" fill="#868D8D" d="M179.8,209.5c0-0.1,0.1-0.2,0.2-0.2h0.5c0.1,0,0.2,0.1,0.2,0.2l0.2,0.5
					c0.2-0.3,0.7-0.8,1.5-0.8c0.6,0,1.2,0.2,1,0.5l-0.5,0.8c-0.1,0.1-0.2,0.2-0.3,0.1c0,0-0.2-0.1-0.4-0.1c-0.5,0-0.8,0.4-0.9,0.5
					v3.1c0,0.2-0.1,0.2-0.3,0.2h-1c-0.1,0-0.2-0.1-0.2-0.2V209.5z"/>
				<path id="XMLID_15610_" fill="#868D8D" d="M184.1,206.5c0-0.5,0.4-0.9,0.9-0.9c0.5,0,0.9,0.4,0.9,0.9s-0.4,0.9-0.9,0.9
					C184.5,207.4,184.1,207,184.1,206.5z M184.2,209.5c0-0.1,0.1-0.2,0.2-0.2h1.1c0.1,0,0.2,0.1,0.2,0.2v4.7c0,0.1-0.1,0.2-0.2,0.2
					h-1.1c-0.1,0-0.2-0.1-0.2-0.2V209.5z"/>
				<path id="XMLID_15608_" fill="#868D8D" d="M187.6,210.6h-0.4c-0.1,0-0.2-0.1-0.2-0.2v-0.9c0-0.1,0.1-0.2,0.2-0.2h0.4v-1.4
					c0-0.1,0.1-0.2,0.2-0.2l1.1,0c0.1,0,0.2,0.1,0.2,0.2v1.5h1.1c0.1,0,0.2,0.1,0.2,0.2v0.9c0,0.1-0.1,0.2-0.2,0.2h-1.1v2.1
					c0,0.4,0.2,0.4,0.4,0.4c0.2,0,0.5-0.1,0.6-0.1c0.1-0.1,0.2,0,0.3,0.1l0.3,0.8c0.1,0.1,0,0.3-0.1,0.3c-0.1,0-0.9,0.3-1.5,0.3
					c-1,0-1.4-0.6-1.4-1.7V210.6z"/>
				<path id="XMLID_15606_" fill="#868D8D" d="M191.1,209.5c-0.1-0.2,0-0.3,0.2-0.3h1.2c0.1,0,0.2,0.1,0.2,0.1l1.3,2.9h0l1.3-2.9
					c0.1-0.1,0.2-0.1,0.3-0.1h1c0.2,0,0.3,0.2,0.2,0.3l-4,8.6c0,0.1-0.1,0.2-0.2,0.2h-1.1c-0.2,0-0.3-0.2-0.2-0.4l1.8-3.9
					L191.1,209.5z"/>
			</g>
		</g>
		<path id="XMLID_7258_" fill="#858C8D" d="M175.6,145.8c-12.4,0-22.4,10-22.4,22.4s10,22.4,22.4,22.4s22.4-10,22.4-22.4
			S188,145.8,175.6,145.8z"/>
		<g id="XMLID_7253_">
			<path id="XMLID_7255_" fill="#FFFFFF" d="M184.2,164.7H167c-1.4,0-2.5,1.1-2.5,2.5v11.4c0,1.4,1.1,2.5,2.5,2.5h17.2
				c1.4,0,2.5-1.1,2.5-2.5v-11.4C186.7,165.9,185.6,164.7,184.2,164.7z M176.8,173v3.2c0,0.3-0.3,0.6-0.6,0.6H175
				c-0.3,0-0.6-0.3-0.6-0.6V173c-0.5-0.4-0.8-0.9-0.8-1.6c0-1.1,0.9-2,2-2c1.1,0,2,0.9,2,2C177.6,172.1,177.3,172.7,176.8,173z"/>
			<path id="XMLID_7254_" fill="#FFFFFF" d="M170.6,156.9c0-0.9,0.7-1.6,1.6-1.6h6.9c0.9,0,1.6,0.7,1.6,1.6v5.9h3.1v-5.9
				c0-2.6-2.1-4.7-4.7-4.7h-6.9c-2.6,0-4.7,2.1-4.7,4.7v5.9h3.1V156.9z"/>
		</g>
	</g>
	<g id="XMLID_7241_">
		<g id="XMLID_11145_">
			<g id="XMLID_16141_">
				<path id="XMLID_16178_" fill="#868D8D" d="M249.9,206.9h-2c-0.1,0-0.2-0.1-0.2-0.2v-1.1c0-0.1,0.1-0.2,0.2-0.2h5.7
					c0.1,0,0.2,0.1,0.2,0.2v1.1c0,0.1-0.1,0.2-0.2,0.2h-2v7.3c0,0.1-0.1,0.2-0.2,0.2h-1.2c-0.1,0-0.2-0.1-0.2-0.2V206.9z"/>
				<path id="XMLID_16176_" fill="#868D8D" d="M254,209.5c0-0.1,0.1-0.2,0.2-0.2h0.5c0.1,0,0.2,0.1,0.2,0.2l0.2,0.5
					c0.2-0.3,0.7-0.8,1.5-0.8c0.6,0,1.2,0.2,1,0.5l-0.5,0.8c-0.1,0.1-0.2,0.2-0.3,0.1c0,0-0.2-0.1-0.4-0.1c-0.5,0-0.8,0.4-0.9,0.5
					v3.1c0,0.2-0.1,0.2-0.3,0.2h-1c-0.1,0-0.2-0.1-0.2-0.2V209.5z"/>
				<path id="XMLID_16173_" fill="#868D8D" d="M260.7,209.1c1.5,0,2.7,1.2,2.7,2.7c0,1.5-1.2,2.7-2.7,2.7s-2.7-1.2-2.7-2.7
					C258,210.3,259.2,209.1,260.7,209.1z M260.7,213.1c0.7,0,1.2-0.6,1.2-1.3c0-0.7-0.6-1.3-1.2-1.3c-0.7,0-1.2,0.6-1.2,1.3
					C259.4,212.5,260,213.1,260.7,213.1z"/>
				<path id="XMLID_16171_" fill="#868D8D" d="M264.4,209.5c0-0.1,0.1-0.2,0.2-0.2h1.1c0.1,0,0.2,0.1,0.2,0.2v2.6
					c0,0.7,0.4,1.1,0.9,1.1c0.5,0,1-0.5,1-1v-2.7c0-0.2,0.1-0.2,0.3-0.2h1c0.1,0,0.2,0.1,0.2,0.2v4.7c0,0.1-0.1,0.2-0.2,0.2h-0.5
					c-0.1,0-0.2-0.1-0.2-0.2l-0.2-0.4c-0.2,0.2-0.7,0.8-1.7,0.8c-1.6,0-2.2-1.2-2.2-2.6V209.5z"/>
				<path id="XMLID_16168_" fill="#868D8D" d="M271,205.6c0-0.1,0.1-0.2,0.2-0.2h1.1c0.1,0,0.2,0.1,0.2,0.2v3.8
					c0.2-0.1,0.6-0.2,1.2-0.2c1.5,0,2.6,1.2,2.6,2.7c0,1.5-1.1,2.7-2.5,2.7c-1.1,0-1.7-0.8-1.7-0.8l-0.1,0.4c0,0.1-0.1,0.2-0.2,0.2
					h-0.5c-0.1,0-0.2-0.1-0.2-0.2V205.6z M273.7,213.1c0.7,0,1.2-0.6,1.2-1.3c0-0.7-0.5-1.3-1.3-1.3c-0.6,0-1,0.3-1,0.3v1.5
					C272.7,212.6,273,213.1,273.7,213.1z"/>
				<path id="XMLID_16166_" fill="#868D8D" d="M277.5,205.6c0-0.1,0.1-0.2,0.2-0.2h1.1c0.1,0,0.2,0.1,0.2,0.2v8.6
					c0,0.1-0.1,0.2-0.2,0.2h-1.1c-0.1,0-0.2-0.1-0.2-0.2V205.6z"/>
				<path id="XMLID_16163_" fill="#868D8D" d="M282.9,209.1c1.3,0,2.4,1,2.4,2.4c0,0.1,0,0.3,0,0.4c0,0.1-0.1,0.2-0.2,0.2h-3.3
					c0,0.5,0.5,1.1,1.2,1.1c0.4,0,0.8-0.2,1-0.3c0.1-0.1,0.2-0.1,0.3,0l0.5,0.6c0.1,0.1,0.1,0.2,0,0.3c-0.4,0.4-1.1,0.7-1.9,0.7
					c-1.6,0-2.7-1.2-2.7-2.7C280.3,210.3,281.4,209.1,282.9,209.1z M283.9,211.2c0-0.5-0.5-0.9-0.9-0.9c-0.5,0-0.9,0.4-1,0.9H283.9z
					"/>
				<path id="XMLID_16161_" fill="#868D8D" d="M286.2,213.8l0.4-0.7c0.1-0.1,0.2-0.2,0.3-0.1c0,0,0.6,0.3,1.2,0.3
					c0.3,0,0.4-0.1,0.4-0.3c0-0.2-0.2-0.4-0.9-0.7c-1-0.4-1.5-0.9-1.5-1.7s0.6-1.5,1.9-1.5c0.8,0,1.3,0.2,1.6,0.4
					c0.1,0.1,0.2,0.2,0.1,0.4l-0.3,0.7c-0.1,0.1-0.2,0.1-0.3,0.1c0,0-0.6-0.3-1.1-0.3c-0.3,0-0.4,0.1-0.4,0.3c0,0.2,0.2,0.3,0.7,0.5
					c1,0.4,1.8,0.8,1.8,1.8c0,0.9-0.8,1.6-2.1,1.6c-0.9,0-1.5-0.3-1.7-0.5C286.2,214,286.1,213.9,286.2,213.8z"/>
				<path id="XMLID_16159_" fill="#868D8D" d="M291.2,205.6c0-0.1,0.1-0.2,0.2-0.2h1.1c0.1,0,0.2,0.1,0.2,0.2v4
					c0.3-0.2,0.8-0.4,1.4-0.4c1.7,0,2.3,1.3,2.3,2.6v2.5c0,0.1-0.1,0.2-0.2,0.2h-1.1c-0.1,0-0.2-0.1-0.2-0.2v-2.5
					c0-0.7-0.4-1.2-1-1.2c-0.6,0-1,0.4-1.1,0.9v2.8c0,0.1-0.1,0.2-0.3,0.2h-1.1c-0.1,0-0.2-0.1-0.2-0.2V205.6z"/>
				<path id="XMLID_16156_" fill="#868D8D" d="M300.2,209.1c1.5,0,2.7,1.2,2.7,2.7c0,1.5-1.2,2.7-2.7,2.7s-2.7-1.2-2.7-2.7
					C297.6,210.3,298.8,209.1,300.2,209.1z M300.2,213.1c0.7,0,1.2-0.6,1.2-1.3c0-0.7-0.6-1.3-1.2-1.3c-0.7,0-1.2,0.6-1.2,1.3
					C299,212.5,299.5,213.1,300.2,213.1z"/>
				<path id="XMLID_16153_" fill="#868D8D" d="M306.3,209.1c1.5,0,2.7,1.2,2.7,2.7c0,1.5-1.2,2.7-2.7,2.7s-2.7-1.2-2.7-2.7
					C303.6,210.3,304.8,209.1,306.3,209.1z M306.3,213.1c0.7,0,1.2-0.6,1.2-1.3c0-0.7-0.6-1.3-1.2-1.3c-0.7,0-1.2,0.6-1.2,1.3
					C305.1,212.5,305.6,213.1,306.3,213.1z"/>
				<path id="XMLID_16151_" fill="#868D8D" d="M310.4,210.6H310c-0.1,0-0.2-0.1-0.2-0.2v-0.9c0-0.1,0.1-0.2,0.2-0.2h0.4v-1.4
					c0-0.1,0.1-0.2,0.2-0.2l1.1,0c0.1,0,0.2,0.1,0.2,0.2v1.5h1.1c0.1,0,0.2,0.1,0.2,0.2v0.9c0,0.1-0.1,0.2-0.2,0.2h-1.1v2.1
					c0,0.4,0.2,0.4,0.4,0.4c0.2,0,0.5-0.1,0.6-0.1c0.1-0.1,0.2,0,0.3,0.1l0.3,0.8c0.1,0.1,0,0.3-0.1,0.3c-0.1,0-0.9,0.3-1.5,0.3
					c-1,0-1.4-0.6-1.4-1.7V210.6z"/>
				<path id="XMLID_16148_" fill="#868D8D" d="M314.5,206.5c0-0.5,0.4-0.9,0.9-0.9c0.5,0,0.9,0.4,0.9,0.9s-0.4,0.9-0.9,0.9
					C314.9,207.4,314.5,207,314.5,206.5z M314.6,209.5c0-0.1,0.1-0.2,0.2-0.2h1.1c0.1,0,0.2,0.1,0.2,0.2v4.7c0,0.1-0.1,0.2-0.2,0.2
					h-1.1c-0.1,0-0.2-0.1-0.2-0.2V209.5z"/>
				<path id="XMLID_16146_" fill="#868D8D" d="M317.7,209.5c0-0.1,0.1-0.2,0.2-0.2h0.5c0.1,0,0.2,0.1,0.2,0.2l0.2,0.5
					c0.2-0.2,0.8-0.8,1.8-0.8c1.7,0,2.3,1.2,2.3,2.6v2.5c0,0.1-0.1,0.2-0.2,0.2h-1.1c-0.1,0-0.2-0.1-0.2-0.2v-2.6
					c0-0.7-0.4-1.1-1-1.1c-0.7,0-1.1,0.5-1.2,0.8v2.9c0,0.2-0.1,0.2-0.3,0.2h-1c-0.1,0-0.2-0.1-0.2-0.2V209.5z"/>
				<path id="XMLID_16142_" fill="#868D8D" d="M324.9,212.6c0,0-0.4-0.4-0.4-1.2c0-1.2,1-2.3,2.3-2.3h2.4c0.1,0,0.2,0.1,0.2,0.2v0.4
					c0,0.1-0.1,0.2-0.1,0.2l-0.7,0.2c0,0,0.5,0.4,0.5,1.3c0,1-0.9,2-2.2,2c-0.5,0-0.8-0.1-1-0.1c-0.2,0-0.5,0.2-0.5,0.5
					c0,0.3,0.2,0.4,0.5,0.4h1.7c1.2,0,2.1,0.7,2.1,1.8c0,1.2-1,2.2-2.8,2.2c-1.9,0-2.7-0.9-2.7-1.8c0-0.8,0.7-1.2,0.8-1.2v0
					c-0.2-0.1-1-0.4-1-1.4C323.9,213,324.9,212.6,324.9,212.6z M326.8,217.1c0.7,0,1.2-0.3,1.2-0.8c0-0.2-0.2-0.6-0.9-0.6
					c-0.3,0-0.6,0-0.8,0.1c-0.2,0.1-0.6,0.2-0.6,0.6C325.6,216.8,326.1,217.1,326.8,217.1z M326.8,212.3c0.5,0,0.9-0.4,0.9-0.9
					s-0.4-0.9-0.9-0.9c-0.5,0-0.9,0.4-0.9,0.9S326.3,212.3,326.8,212.3z"/>
			</g>
		</g>
		<path id="XMLID_7247_" fill="#858C8D" d="M288.6,145.8c-12.4,0-22.4,10-22.4,22.4s10,22.4,22.4,22.4s22.4-10,22.4-22.4
			S301,145.8,288.6,145.8z"/>
		<path id="XMLID_7242_" fill="#FFFFFF" d="M288.8,162.6l-6.2,6.2l-1.3-1.3l6.2-6.2L288.8,162.6z M275.9,158.5l-0.8-1.6l1.6-1.6
			l1.6,0.8c0.3,0.1,0.5,0.4,0.7,0.6l1.5,2.4l4.2,4.2l-1.6,1.6l-4.2-4.2l-2.4-1.5C276.3,159,276.1,158.8,275.9,158.5z M300.3,179.2
			l-1.1,1.1c-1.2,1.2-3.2,1-4.6-0.3l-5.2-5.2l1.2-1.2l1.6,1.6c0.7,0.7,1.6-0.1,0.8-0.8l-1.6-1.6l1.3-1.3l1.6,1.6
			c0.7,0.7,1.6-0.1,0.8-0.8l-1.6-1.6l1.2-1.2l5.2,5.2C301.3,176,301.5,178,300.3,179.2z M301.4,161.9l-0.3,1l-1.7,1.7l-3.2,0.8
			l-10,10l-0.8,3.2l-1.7,1.7l-3.4,0.9l-0.5-0.5l2.9-2.9c0.2-0.2,0.2-0.5,0-0.6l-2.2-2.2c-0.2-0.2-0.5-0.2-0.6,0l-2.9,2.9l-0.5-0.5
			l0.9-3.4l1.7-1.7l3.2-0.8c3.5-3.5,6.4-6.4,9.9-9.9l0.8-3.2l1.7-1.7l1-0.3l2.3-0.6l0.5,0.5l-2.9,2.9c-0.2,0.2-0.2,0.5,0,0.6
			l2.2,2.2c0.2,0.2,0.5,0.2,0.6,0l2.9-2.9l0.5,0.5L301.4,161.9z"/>
	</g>
</g>
<g id="Misc._Art" display="none">
	<rect id="XMLID_2898_" x="330" y="-245.5" display="inline" fill="#868D8D" width="30" height="763.5"/>
	<rect id="XMLID_2728_" y="-245.5" display="inline" fill="#868D8D" width="30" height="763.5"/>
	<rect id="XMLID_2913_" x="50.9" y="0" display="inline" fill="#868D8D" width="17.3" height="10"/>
</g>
</svg>
