<svg xmlns="http://www.w3.org/2000/svg" xmlns:xlink="http://www.w3.org/1999/xlink" viewBox="0 0 56.1 56.1"><symbol id="a" viewBox="-14.9 -14.9 29.9 29.9"><path fill="#EC4F24" d="M14.9-9.7c0-2.9-2.3-5.2-5.2-5.2H-9.7c-2.9 0-5.2 2.3-5.2 5.2V9.7c0 2.9 2.3 5.2 5.2 5.2H9.7c2.9 0 5.2-2.3 5.2-5.2V-9.7z"/><g fill="#FFF"><path d="M-.1 3.6v1.7h-1.6c-.1.6-.3 1.1-.6 1.6L-1.2 8l-1.2 1.2L-3.6 8c-.5.3-1 .6-1.6.7v1.6h-1.7V8.7c-.5-.1-1.1-.3-1.6-.6l-1.1 1.1-1.2-1.2 1.1-1.1c-.3-.5-.5-1-.7-1.6H-12V3.6h1.6c.2-.6.4-1.2.8-1.6L-10.7.9l1.2-1.2L-8.3.9c.5-.3 1-.5 1.6-.6v-1.7H-5V.3c.6.1 1.1.3 1.6.7l1.2-1.2L-1 1l-1.4 1c.3.5.5 1 .7 1.6h1.6zM-6 1.8c-1.5 0-2.7 1.2-2.7 2.7S-7.5 7.1-6 7.1s2.7-1.2 2.7-2.7S-4.6 1.8-6 1.8zM12.3-4.1v1.9h-1.8c-.1.6-.4 1.2-.7 1.7L11.1.8 9.7 2.1 8.5.8c-.5.4-1.1.6-1.8.7v1.8H4.9V1.6c-.7-.2-1.3-.4-1.8-.8L1.9 2.1.5.7 1.7-.5C1.4-1 1.2-1.6 1-2.3H-.8v-1.9H1c.1-.6.4-1.2.7-1.8L.5-7.2l1.3-1.3 1.3 1.3c.5-.3 1.1-.6 1.7-.7v-1.8h1.9v1.8c.6.1 1.2.4 1.7.7l1.3-1.3L11-7.2 9.8-5.9c.3.5.6 1.1.7 1.7h1.8zm-6.5-2c-1.6 0-3 1.3-3 3s1.3 3 3 3 3-1.3 3-3-1.4-3-3-3z"/></g></symbol><path fill="#EC4F24" d="M56.1 46.3c0 5.4-4.4 9.8-9.8 9.8H9.8c-5.4 0-9.8-4.4-9.8-9.8V9.8C0 4.4 4.4 0 9.8 0h36.5c5.4 0 9.8 4.4 9.8 9.8v36.5z"/><ellipse transform="rotate(-45 27.817 27.66)" fill="#FFF" cx="27.8" cy="27.7" rx="9.7" ry="9.7"/><ellipse transform="rotate(-45 27.817 27.66)" fill="#EC4F24" cx="27.8" cy="27.7" rx="6.8" ry="6.8"/><path fill="#FFF" d="M21.6 31.41l2.193 2.192-7.92 7.92-2.19-2.192z"/><g fill="#FFF"><circle cx="23.9" cy="27.7" r="1.4"/><circle cx="27.7" cy="27.7" r="1.4"/><circle cx="31.6" cy="27.7" r="1.4"/></g><g fill="#FFF"><path d="M47.8 32.7v-8.9l4.4 4.4"/><path d="M40.1 26.7h8v3.2h-8z"/></g><g fill="#FFF"><path d="M45.2 16.1l-6.3-6.2h6.3"/><path d="M35.57 17.278l5.655-5.656 2.263 2.262-5.657 5.657z"/></g><g fill="#FFF"><path d="M38.8 45.8l6.2-6.2v6.2"/><path d="M37.626 36.13l5.657 5.657-2.263 2.262-5.657-5.658z"/></g><g fill="#FFF"><path d="M11.4 32v-8.9l4.4 4.4"/><path d="M3.7 25.9h8v3.2h-8z"/></g><use xlink:href="#a" width="29.9" height="29.9" x="-14.9" y="-14.9" transform="matrix(1.8757 0 0 -1.8684 28.04 28.15)" overflow="visible"/></svg>