<?xml version="1.0" encoding="utf-8"?>
<!-- Generator: Adobe Illustrator 19.2.1, SVG Export Plug-In . SVG Version: 6.00 Build 0)  -->
<svg version="1.1" xmlns="http://www.w3.org/2000/svg" xmlns:xlink="http://www.w3.org/1999/xlink" x="0px" y="0px"
	 viewBox="0 0 360 230" enable-background="new 0 0 360 230" xml:space="preserve">
<g id="Artwork__x5B_Live_x5D_" display="none">
	<g id="XMLID_2911_" display="inline">
		<rect id="XMLID_2685_" x="188.6" y="13.5" fill="#EBEBEB" width="138" height="105.7"/>
		
			<path id="XMLID_2682_" fill="#EBEBEB" stroke="#57C0FF" stroke-width="1.9029" stroke-linecap="round" stroke-linejoin="round" stroke-miterlimit="10" d="
			M197.2,119.1c0,0,36.7-38.4,42.3-39.4s6.8,16.7,14,16.3c7.2-0.3,11.2-34.9,17.5-35.6c6.2-0.7,40.9,42.7,40.9,42.7l14.8,16H197.2z"
			/>
		<g id="XMLID_2680_">
			<text transform="matrix(1 0 0 1 245.8269 29.2039)"><tspan x="0" y="0" fill="#868D8D" font-family="'BrandonGrotesque-Bold'" font-size="14px">Avi </tspan><tspan x="-29.8" y="15" fill="#868D8D" font-family="'BrandonGrotesque-Bold'" font-size="14px">Mirrors traffic</tspan></text>
		</g>
		<g id="XMLID_2646_">
			<path id="XMLID_2666_" fill="#ED4F24" stroke="#EBEBEB" stroke-width="2" stroke-miterlimit="10" d="M223.2,112.4h-11.3
				c-1.6,0-2.9-1.3-2.9-2.9V98.9c0-1.6,1.3-2.9,2.9-2.9h11.3c1.6,0,2.9,1.3,2.9,2.9v10.7C226,111.1,224.7,112.4,223.2,112.4z"/>
			<path id="XMLID_2665_" fill="#FFFFFF" d="M219.5,106.1c-1.1,1.1-3,1.1-4.1,0c-1.1-1.1-1.1-2.9,0-4c1.1-1.1,3-1.1,4.1,0
				C220.7,103.2,220.7,105,219.5,106.1z"/>
			<path id="XMLID_2664_" fill="#ED4F24" d="M218.9,105.5c-0.8,0.8-2.1,0.8-2.9,0c-0.8-0.8-0.8-2,0-2.8c0.8-0.8,2.1-0.8,2.9,0
				C219.7,103.5,219.7,104.7,218.9,105.5z"/>
			<polygon id="XMLID_2663_" fill="#FFFFFF" points="213.8,108.2 213.2,107.5 215.6,105.2 216.2,105.9 			"/>
			<g id="XMLID_2659_">
				<ellipse id="XMLID_2662_" fill="#FFFFFF" cx="216.2" cy="104.1" rx="0.4" ry="0.4"/>
				<ellipse id="XMLID_2661_" fill="#FFFFFF" cx="217.4" cy="104.1" rx="0.4" ry="0.4"/>
				<ellipse id="XMLID_2660_" fill="#FFFFFF" cx="218.6" cy="104.1" rx="0.4" ry="0.4"/>
			</g>
			<g id="XMLID_2656_">
				<polygon id="XMLID_2658_" fill="#FFFFFF" points="223.5,105.6 223.5,103 224.8,104.3 				"/>
				<rect id="XMLID_2657_" x="221.2" y="103.8" fill="#FFFFFF" width="2.4" height="0.9"/>
			</g>
			<g id="XMLID_2653_">
				<polygon id="XMLID_2655_" fill="#FFFFFF" points="222.7,100.7 220.8,98.9 222.7,98.9 				"/>
				<polygon id="XMLID_2654_" fill="#FFFFFF" points="222.2,100.1 220.5,101.7 219.8,101.1 221.5,99.4 				"/>
			</g>
			<g id="XMLID_2650_">
				<polygon id="XMLID_2652_" fill="#FFFFFF" points="220.8,109.4 222.7,107.6 222.7,109.4 				"/>
				<polygon id="XMLID_2651_" fill="#FFFFFF" points="221.4,108.9 219.7,107.3 220.4,106.6 222.1,108.3 				"/>
			</g>
			<g id="XMLID_2647_">
				<polygon id="XMLID_2649_" fill="#FFFFFF" points="212.4,105.4 212.4,102.8 213.8,104.1 				"/>
				<rect id="XMLID_2648_" x="210.1" y="103.6" fill="#FFFFFF" width="2.4" height="0.9"/>
			</g>
		</g>
		<g id="XMLID_2625_">
			<path id="XMLID_2645_" fill="#ED4F24" stroke="#EBEBEB" stroke-width="2" stroke-miterlimit="10" d="M245.8,112.4h-11.3
				c-1.6,0-2.9-1.3-2.9-2.9V98.9c0-1.6,1.3-2.9,2.9-2.9h11.3c1.6,0,2.9,1.3,2.9,2.9v10.7C248.6,111.1,247.4,112.4,245.8,112.4z"/>
			<path id="XMLID_2644_" fill="#FFFFFF" d="M242.1,106.1c-1.1,1.1-3,1.1-4.1,0c-1.1-1.1-1.1-2.9,0-4c1.1-1.1,3-1.1,4.1,0
				S243.3,105,242.1,106.1z"/>
			<path id="XMLID_2643_" fill="#ED4F24" d="M241.5,105.5c-0.8,0.8-2.1,0.8-2.9,0s-0.8-2,0-2.8s2.1-0.8,2.9,0
				C242.3,103.5,242.3,104.7,241.5,105.5z"/>
			<polygon id="XMLID_2642_" fill="#FFFFFF" points="236.5,108.2 235.8,107.5 238.2,105.2 238.8,105.9 			"/>
			<g id="XMLID_2638_">
				<ellipse id="XMLID_2641_" fill="#FFFFFF" cx="238.9" cy="104.1" rx="0.4" ry="0.4"/>
				<ellipse id="XMLID_2640_" fill="#FFFFFF" cx="240" cy="104.1" rx="0.4" ry="0.4"/>
				<ellipse id="XMLID_2639_" fill="#FFFFFF" cx="241.2" cy="104.1" rx="0.4" ry="0.4"/>
			</g>
			<g id="XMLID_2635_">
				<polygon id="XMLID_2637_" fill="#FFFFFF" points="246.1,105.6 246.1,103 247.5,104.3 				"/>
				<rect id="XMLID_2636_" x="243.8" y="103.8" fill="#FFFFFF" width="2.4" height="0.9"/>
			</g>
			<g id="XMLID_2632_">
				<polygon id="XMLID_2634_" fill="#FFFFFF" points="245.3,100.7 243.4,98.9 245.3,98.9 				"/>
				<polygon id="XMLID_2633_" fill="#FFFFFF" points="244.8,100.1 243.1,101.7 242.4,101.1 244.1,99.4 				"/>
			</g>
			<g id="XMLID_2629_">
				<polygon id="XMLID_2631_" fill="#FFFFFF" points="243.4,109.4 245.3,107.6 245.3,109.4 				"/>
				<polygon id="XMLID_2630_" fill="#FFFFFF" points="244.1,108.9 242.4,107.3 243,106.6 244.7,108.3 				"/>
			</g>
			<g id="XMLID_2626_">
				<polygon id="XMLID_2628_" fill="#FFFFFF" points="235.1,105.4 235.1,102.8 236.4,104.1 				"/>
				<rect id="XMLID_2627_" x="232.8" y="103.6" fill="#FFFFFF" width="2.4" height="0.9"/>
			</g>
		</g>
		<g id="XMLID_2604_">
			<path id="XMLID_2624_" fill="#ED4F24" stroke="#EBEBEB" stroke-width="2" stroke-miterlimit="10" d="M245.8,87.7h-11.3
				c-1.6,0-2.9-1.3-2.9-2.9V74.2c0-1.6,1.3-2.9,2.9-2.9h11.3c1.6,0,2.9,1.3,2.9,2.9v10.7C248.6,86.5,247.4,87.7,245.8,87.7z"/>
			<path id="XMLID_2623_" fill="#FFFFFF" d="M242.1,81.4c-1.1,1.1-3,1.1-4.1,0c-1.1-1.1-1.1-2.9,0-4c1.1-1.1,3-1.1,4.1,0
				C243.3,78.5,243.3,80.3,242.1,81.4z"/>
			<path id="XMLID_2622_" fill="#ED4F24" d="M241.5,80.8c-0.8,0.8-2.1,0.8-2.9,0s-0.8-2,0-2.8s2.1-0.8,2.9,0
				C242.3,78.8,242.3,80.1,241.5,80.8z"/>
			<polygon id="XMLID_2621_" fill="#FFFFFF" points="236.5,83.5 235.8,82.9 238.2,80.5 238.8,81.2 			"/>
			<g id="XMLID_2617_">
				<ellipse id="XMLID_2620_" fill="#FFFFFF" cx="238.9" cy="79.4" rx="0.4" ry="0.4"/>
				<ellipse id="XMLID_2619_" fill="#FFFFFF" cx="240" cy="79.4" rx="0.4" ry="0.4"/>
				<ellipse id="XMLID_2618_" fill="#FFFFFF" cx="241.2" cy="79.4" rx="0.4" ry="0.4"/>
			</g>
			<g id="XMLID_2614_">
				<polygon id="XMLID_2616_" fill="#FFFFFF" points="246.1,80.9 246.1,78.3 247.5,79.6 				"/>
				<rect id="XMLID_2615_" x="243.8" y="79.2" fill="#FFFFFF" width="2.4" height="0.9"/>
			</g>
			<g id="XMLID_2611_">
				<polygon id="XMLID_2613_" fill="#FFFFFF" points="245.3,76.1 243.4,74.2 245.3,74.2 				"/>
				<polygon id="XMLID_2612_" fill="#FFFFFF" points="244.8,75.4 243.1,77.1 242.4,76.4 244.1,74.8 				"/>
			</g>
			<g id="XMLID_2608_">
				<polygon id="XMLID_2610_" fill="#FFFFFF" points="243.4,84.7 245.3,82.9 245.3,84.7 				"/>
				<polygon id="XMLID_2609_" fill="#FFFFFF" points="244.1,84.2 242.4,82.6 243,81.9 244.7,83.6 				"/>
			</g>
			<g id="XMLID_2605_">
				<polygon id="XMLID_2607_" fill="#FFFFFF" points="235.1,80.7 235.1,78.1 236.4,79.4 				"/>
				<rect id="XMLID_2606_" x="232.8" y="78.9" fill="#FFFFFF" width="2.4" height="0.9"/>
			</g>
		</g>
		<g id="XMLID_2583_">
			<path id="XMLID_2603_" fill="#ED4F24" stroke="#EBEBEB" stroke-width="2" stroke-miterlimit="10" d="M272.7,112.4h-11.3
				c-1.6,0-2.9-1.3-2.9-2.9V98.9c0-1.6,1.3-2.9,2.9-2.9h11.3c1.6,0,2.9,1.3,2.9,2.9v10.7C275.5,111.1,274.3,112.4,272.7,112.4z"/>
			<path id="XMLID_2602_" fill="#FFFFFF" d="M269,106.1c-1.1,1.1-3,1.1-4.1,0c-1.1-1.1-1.1-2.9,0-4c1.1-1.1,3-1.1,4.1,0
				C270.2,103.2,270.2,105,269,106.1z"/>
			<path id="XMLID_2601_" fill="#ED4F24" d="M268.4,105.5c-0.8,0.8-2.1,0.8-2.9,0s-0.8-2,0-2.8s2.1-0.8,2.9,0
				S269.2,104.7,268.4,105.5z"/>
			<polygon id="XMLID_2600_" fill="#FFFFFF" points="263.4,108.2 262.7,107.5 265.1,105.2 265.7,105.9 			"/>
			<g id="XMLID_2596_">
				<ellipse id="XMLID_2599_" fill="#FFFFFF" cx="265.8" cy="104.1" rx="0.4" ry="0.4"/>
				<ellipse id="XMLID_2598_" fill="#FFFFFF" cx="266.9" cy="104.1" rx="0.4" ry="0.4"/>
				<ellipse id="XMLID_2597_" fill="#FFFFFF" cx="268.1" cy="104.1" rx="0.4" ry="0.4"/>
			</g>
			<g id="XMLID_2593_">
				<polygon id="XMLID_2595_" fill="#FFFFFF" points="273,105.6 273,103 274.4,104.3 				"/>
				<rect id="XMLID_2594_" x="270.7" y="103.8" fill="#FFFFFF" width="2.4" height="0.9"/>
			</g>
			<g id="XMLID_2590_">
				<polygon id="XMLID_2592_" fill="#FFFFFF" points="272.2,100.7 270.3,98.9 272.2,98.9 				"/>
				<polygon id="XMLID_2591_" fill="#FFFFFF" points="271.7,100.1 270,101.7 269.3,101.1 271,99.4 				"/>
			</g>
			<g id="XMLID_2587_">
				<polygon id="XMLID_2589_" fill="#FFFFFF" points="270.3,109.4 272.2,107.6 272.2,109.4 				"/>
				<polygon id="XMLID_2588_" fill="#FFFFFF" points="271,108.9 269.3,107.3 269.9,106.6 271.6,108.3 				"/>
			</g>
			<g id="XMLID_2584_">
				<polygon id="XMLID_2586_" fill="#FFFFFF" points="262,105.4 262,102.8 263.3,104.1 				"/>
				<rect id="XMLID_2585_" x="259.6" y="103.6" fill="#FFFFFF" width="2.4" height="0.9"/>
			</g>
		</g>
		<g id="XMLID_2562_">
			<path id="XMLID_2582_" fill="#ED4F24" stroke="#EBEBEB" stroke-width="2" stroke-miterlimit="10" d="M272.7,87.7h-11.3
				c-1.6,0-2.9-1.3-2.9-2.9V74.2c0-1.6,1.3-2.9,2.9-2.9h11.3c1.6,0,2.9,1.3,2.9,2.9v10.7C275.5,86.5,274.3,87.7,272.7,87.7z"/>
			<path id="XMLID_2581_" fill="#FFFFFF" d="M269,81.4c-1.1,1.1-3,1.1-4.1,0c-1.1-1.1-1.1-2.9,0-4c1.1-1.1,3-1.1,4.1,0
				C270.2,78.5,270.2,80.3,269,81.4z"/>
			<path id="XMLID_2580_" fill="#ED4F24" d="M268.4,80.8c-0.8,0.8-2.1,0.8-2.9,0s-0.8-2,0-2.8s2.1-0.8,2.9,0S269.2,80.1,268.4,80.8z
				"/>
			<polygon id="XMLID_2579_" fill="#FFFFFF" points="263.4,83.5 262.7,82.9 265.1,80.5 265.7,81.2 			"/>
			<g id="XMLID_2575_">
				<ellipse id="XMLID_2578_" fill="#FFFFFF" cx="265.8" cy="79.4" rx="0.4" ry="0.4"/>
				<ellipse id="XMLID_2577_" fill="#FFFFFF" cx="266.9" cy="79.4" rx="0.4" ry="0.4"/>
				<ellipse id="XMLID_2576_" fill="#FFFFFF" cx="268.1" cy="79.4" rx="0.4" ry="0.4"/>
			</g>
			<g id="XMLID_2572_">
				<polygon id="XMLID_2574_" fill="#FFFFFF" points="273,80.9 273,78.3 274.4,79.6 				"/>
				<rect id="XMLID_2573_" x="270.7" y="79.2" fill="#FFFFFF" width="2.4" height="0.9"/>
			</g>
			<g id="XMLID_2569_">
				<polygon id="XMLID_2571_" fill="#FFFFFF" points="272.2,76.1 270.3,74.2 272.2,74.2 				"/>
				<polygon id="XMLID_2570_" fill="#FFFFFF" points="271.7,75.4 270,77.1 269.3,76.4 271,74.8 				"/>
			</g>
			<g id="XMLID_2566_">
				<polygon id="XMLID_2568_" fill="#FFFFFF" points="270.3,84.7 272.2,82.9 272.2,84.7 				"/>
				<polygon id="XMLID_2567_" fill="#FFFFFF" points="271,84.2 269.3,82.6 269.9,81.9 271.6,83.6 				"/>
			</g>
			<g id="XMLID_2563_">
				<polygon id="XMLID_2565_" fill="#FFFFFF" points="262,80.7 262,78.1 263.3,79.4 				"/>
				<rect id="XMLID_2564_" x="259.6" y="78.9" fill="#FFFFFF" width="2.4" height="0.9"/>
			</g>
		</g>
		<g id="XMLID_2541_">
			<path id="XMLID_2561_" fill="#ED4F24" stroke="#EBEBEB" stroke-width="2" stroke-miterlimit="10" d="M272.7,63.1h-11.3
				c-1.6,0-2.9-1.3-2.9-2.9V49.5c0-1.6,1.3-2.9,2.9-2.9h11.3c1.6,0,2.9,1.3,2.9,2.9v10.7C275.5,61.8,274.3,63.1,272.7,63.1z"/>
			<path id="XMLID_2560_" fill="#FFFFFF" d="M269,56.8c-1.1,1.1-3,1.1-4.1,0c-1.1-1.1-1.1-2.9,0-4c1.1-1.1,3-1.1,4.1,0
				C270.2,53.9,270.2,55.7,269,56.8z"/>
			<path id="XMLID_2559_" fill="#ED4F24" d="M268.4,56.2c-0.8,0.8-2.1,0.8-2.9,0s-0.8-2,0-2.8s2.1-0.8,2.9,0S269.2,55.4,268.4,56.2z
				"/>
			<polygon id="XMLID_2558_" fill="#FFFFFF" points="263.4,58.8 262.7,58.2 265.1,55.9 265.7,56.5 			"/>
			<g id="XMLID_2554_">
				<ellipse id="XMLID_2557_" fill="#FFFFFF" cx="265.8" cy="54.8" rx="0.4" ry="0.4"/>
				<ellipse id="XMLID_2556_" fill="#FFFFFF" cx="266.9" cy="54.8" rx="0.4" ry="0.4"/>
				<ellipse id="XMLID_2555_" fill="#FFFFFF" cx="268.1" cy="54.8" rx="0.4" ry="0.4"/>
			</g>
			<g id="XMLID_2551_">
				<polygon id="XMLID_2553_" fill="#FFFFFF" points="273,56.2 273,53.6 274.4,54.9 				"/>
				<rect id="XMLID_2552_" x="270.7" y="54.5" fill="#FFFFFF" width="2.4" height="0.9"/>
			</g>
			<g id="XMLID_2548_">
				<polygon id="XMLID_2550_" fill="#FFFFFF" points="272.2,51.4 270.3,49.6 272.2,49.6 				"/>
				<polygon id="XMLID_2549_" fill="#FFFFFF" points="271.7,50.7 270,52.4 269.3,51.7 271,50.1 				"/>
			</g>
			<g id="XMLID_2545_">
				<polygon id="XMLID_2547_" fill="#FFFFFF" points="270.3,60.1 272.2,58.2 272.2,60.1 				"/>
				<polygon id="XMLID_2546_" fill="#FFFFFF" points="271,59.6 269.3,57.9 269.9,57.3 271.6,58.9 				"/>
			</g>
			<g id="XMLID_2542_">
				<polygon id="XMLID_2544_" fill="#FFFFFF" points="262,56 262,53.4 263.3,54.7 				"/>
				<rect id="XMLID_2543_" x="259.6" y="54.3" fill="#FFFFFF" width="2.4" height="0.9"/>
			</g>
		</g>
		<g id="XMLID_2520_">
			<path id="XMLID_2540_" fill="#ED4F24" stroke="#EBEBEB" stroke-width="2" stroke-miterlimit="10" d="M297.4,112.4h-11.3
				c-1.6,0-2.9-1.3-2.9-2.9V98.9c0-1.6,1.3-2.9,2.9-2.9h11.3c1.6,0,2.9,1.3,2.9,2.9v10.7C300.3,111.1,299,112.4,297.4,112.4z"/>
			<path id="XMLID_2539_" fill="#FFFFFF" d="M293.8,106.1c-1.1,1.1-3,1.1-4.1,0c-1.1-1.1-1.1-2.9,0-4c1.1-1.1,3-1.1,4.1,0
				C294.9,103.2,294.9,105,293.8,106.1z"/>
			<path id="XMLID_2538_" fill="#ED4F24" d="M293.1,105.5c-0.8,0.8-2.1,0.8-2.9,0s-0.8-2,0-2.8s2.1-0.8,2.9,0
				S293.9,104.7,293.1,105.5z"/>
			<polygon id="XMLID_2537_" fill="#FFFFFF" points="288.1,108.2 287.4,107.5 289.8,105.2 290.5,105.9 			"/>
			<g id="XMLID_2533_">
				<ellipse id="XMLID_2536_" fill="#FFFFFF" cx="290.5" cy="104.1" rx="0.4" ry="0.4"/>
				<ellipse id="XMLID_2535_" fill="#FFFFFF" cx="291.7" cy="104.1" rx="0.4" ry="0.4"/>
				<ellipse id="XMLID_2534_" fill="#FFFFFF" cx="292.8" cy="104.1" rx="0.4" ry="0.4"/>
			</g>
			<g id="XMLID_2530_">
				<polygon id="XMLID_2532_" fill="#FFFFFF" points="297.7,105.6 297.7,103 299.1,104.3 				"/>
				<rect id="XMLID_2531_" x="295.4" y="103.8" fill="#FFFFFF" width="2.4" height="0.9"/>
			</g>
			<g id="XMLID_2527_">
				<polygon id="XMLID_2529_" fill="#FFFFFF" points="297,100.7 295.1,98.9 297,98.9 				"/>
				<polygon id="XMLID_2528_" fill="#FFFFFF" points="296.4,100.1 294.7,101.7 294,101.1 295.7,99.4 				"/>
			</g>
			<g id="XMLID_2524_">
				<polygon id="XMLID_2526_" fill="#FFFFFF" points="295,109.4 296.9,107.6 296.9,109.4 				"/>
				<polygon id="XMLID_2525_" fill="#FFFFFF" points="295.7,108.9 294,107.3 294.7,106.6 296.4,108.3 				"/>
			</g>
			<g id="XMLID_2521_">
				<polygon id="XMLID_2523_" fill="#FFFFFF" points="286.7,105.4 286.7,102.8 288,104.1 				"/>
				<rect id="XMLID_2522_" x="284.4" y="103.6" fill="#FFFFFF" width="2.4" height="0.9"/>
			</g>
		</g>
		<g id="XMLID_2499_">
			<path id="XMLID_2519_" fill="#ED4F24" stroke="#EBEBEB" stroke-width="2" stroke-miterlimit="10" d="M297.4,87.7h-11.3
				c-1.6,0-2.9-1.3-2.9-2.9V74.2c0-1.6,1.3-2.9,2.9-2.9h11.3c1.6,0,2.9,1.3,2.9,2.9v10.7C300.3,86.5,299,87.7,297.4,87.7z"/>
			<path id="XMLID_2518_" fill="#FFFFFF" d="M293.8,81.4c-1.1,1.1-3,1.1-4.1,0c-1.1-1.1-1.1-2.9,0-4c1.1-1.1,3-1.1,4.1,0
				C294.9,78.5,294.9,80.3,293.8,81.4z"/>
			<path id="XMLID_2517_" fill="#ED4F24" d="M293.1,80.8c-0.8,0.8-2.1,0.8-2.9,0s-0.8-2,0-2.8s2.1-0.8,2.9,0S293.9,80.1,293.1,80.8z
				"/>
			<polygon id="XMLID_2516_" fill="#FFFFFF" points="288.1,83.5 287.4,82.9 289.8,80.5 290.5,81.2 			"/>
			<g id="XMLID_2512_">
				<ellipse id="XMLID_2515_" fill="#FFFFFF" cx="290.5" cy="79.4" rx="0.4" ry="0.4"/>
				<ellipse id="XMLID_2514_" fill="#FFFFFF" cx="291.7" cy="79.4" rx="0.4" ry="0.4"/>
				<ellipse id="XMLID_2513_" fill="#FFFFFF" cx="292.8" cy="79.4" rx="0.4" ry="0.4"/>
			</g>
			<g id="XMLID_2509_">
				<polygon id="XMLID_2511_" fill="#FFFFFF" points="297.7,80.9 297.7,78.3 299.1,79.6 				"/>
				<rect id="XMLID_2510_" x="295.4" y="79.2" fill="#FFFFFF" width="2.4" height="0.9"/>
			</g>
			<g id="XMLID_2506_">
				<polygon id="XMLID_2508_" fill="#FFFFFF" points="297,76.1 295.1,74.2 297,74.2 				"/>
				<polygon id="XMLID_2507_" fill="#FFFFFF" points="296.4,75.4 294.7,77.1 294,76.4 295.7,74.8 				"/>
			</g>
			<g id="XMLID_2503_">
				<polygon id="XMLID_2505_" fill="#FFFFFF" points="295,84.7 296.9,82.9 296.9,84.7 				"/>
				<polygon id="XMLID_2504_" fill="#FFFFFF" points="295.7,84.2 294,82.6 294.7,81.9 296.4,83.6 				"/>
			</g>
			<g id="XMLID_2500_">
				<polygon id="XMLID_2502_" fill="#FFFFFF" points="286.7,80.7 286.7,78.1 288,79.4 				"/>
				<rect id="XMLID_2501_" x="284.4" y="78.9" fill="#FFFFFF" width="2.4" height="0.9"/>
			</g>
		</g>
		<path id="XMLID_2493_" fill="#CED0D1" d="M323.2,10.3H192.4c-3.5,0-6.3,2.8-6.3,6.3v100.8c0,3.5,2.8,6.3,6.3,6.3h130.8
			c3.5,0,6.3-2.8,6.3-6.3V16.7C329.5,13.2,326.7,10.3,323.2,10.3z M322.7,116.9H192.9V17.2h129.8V116.9z"/>
	</g>
	<g id="XMLID_2908_" display="inline">
		<rect id="XMLID_2684_" x="32.6" y="13.5" fill="#EBEBEB" width="138" height="105.7"/>
		<text id="XMLID_2681_" transform="matrix(1 0 0 1 84.0327 29.3289)"><tspan x="0" y="0" fill="#868D8D" font-family="'BrandonGrotesque-Bold'" font-size="14px">Legacy </tspan><tspan x="-28.4" y="15" fill="#868D8D" font-family="'BrandonGrotesque-Bold'" font-size="14px">Overprovisioning</tspan></text>
		<g id="XMLID_2672_">
			<rect id="XMLID_2679_" x="57.5" y="51.5" fill="#ED1C24" width="9.6" height="67.8"/>
			<polygon id="XMLID_2668_" fill="#4E87FF" points="67.1,97.1 57.5,105.8 57.5,119.3 67.1,119.3 			"/>
			<rect id="XMLID_2678_" x="81.4" y="51.5" fill="#ED1C24" width="9.6" height="67.8"/>
			<rect id="XMLID_2677_" x="105.2" y="51.5" fill="#ED1C24" width="9.6" height="67.8"/>
			<polygon id="XMLID_2669_" fill="#4E87FF" points="114.8,63.8 105.2,90.8 105.2,119.3 114.8,119.3 			"/>
			<rect id="XMLID_2676_" x="129.1" y="51.5" fill="#ED1C24" width="9.6" height="67.8"/>
			<polygon id="XMLID_2670_" fill="#4E87FF" points="138.7,79.5 129.1,70.3 129.1,119.3 138.7,119.3 			"/>
			<polygon id="XMLID_2675_" fill="#4E87FF" points="89.5,83.6 89.3,82.7 86.7,80.8 82.9,82.6 82.7,83.6 81.4,83.6 81.4,119.3 
				91,119.3 91,83.6 			"/>
			
				<path id="XMLID_2671_" fill="none" stroke="#EBEBEB" stroke-width="4" stroke-linecap="round" stroke-linejoin="round" stroke-miterlimit="10" d="
				M44.3,120c0,0,36.1-38.1,41.7-39.2c5.6-1,6.8,16.7,14,16.3c7.2-0.3,11.1-34.9,17.4-35.6s40.8,40.9,40.8,40.9l12.1,15.1
				c0.3,2.9-19.8,1.7-22.9,1.7L44.3,120z"/>
			
				<path id="XMLID_2667_" fill="none" stroke="#57C0FF" stroke-width="2" stroke-linecap="round" stroke-linejoin="round" stroke-miterlimit="10" d="
				M44.3,120c0,0,36.1-38.1,41.7-39.2c5.6-1,6.8,16.7,14,16.3c7.2-0.3,11.1-34.9,17.4-35.6s40.8,40.9,40.8,40.9l12.1,15.1
				c0.3,2.9-19.8,1.7-22.9,1.7L44.3,120z"/>
		</g>
		<path id="XMLID_2496_" fill="#CED0D1" d="M167.6,10.3H36.8c-3.5,0-6.3,2.8-6.3,6.3v100.8c0,3.5,2.8,6.3,6.3,6.3h130.8
			c3.5,0,6.3-2.8,6.3-6.3V16.7C174,13.2,171.1,10.3,167.6,10.3z M167.1,116.9H37.3V17.2h129.8V116.9z"/>
	</g>
	<g id="XMLID_1722_" display="inline">
		<g id="XMLID_2717_">
			<text transform="matrix(1 0 0 1 29.974 215.3831)" fill="#868D8D" font-family="'BrandonGrotesque-Bold'" font-size="13px">Software Only</text>
		</g>
		<path id="XMLID_2714_" fill="#858C8D" d="M67.5,146.7c-12.4,0-22.4,10-22.4,22.4s10,22.4,22.4,22.4s22.4-10,22.4-22.4
			S79.9,146.7,67.5,146.7z M83.1,179.4c0,1.1-0.9,2-2,2H53.9c-1.1,0-2-0.9-2-2v-20.5c0-1.1,0.9-2,2-2h27.3c1.1,0,2,0.9,2,2V179.4z"
			/>
		<g id="XMLID_2674_">
			<circle id="XMLID_2713_" fill="#848A8B" cx="55.2" cy="160.5" r="1.3"/>
			<circle id="XMLID_2712_" fill="#848A8B" cx="59.1" cy="160.5" r="1.3"/>
			<circle id="XMLID_2711_" fill="#848A8B" cx="63.1" cy="160.5" r="1.3"/>
			<rect id="XMLID_2683_" x="53.2" y="164.2" fill="#848A8B" width="28.5" height="15.7"/>
		</g>
	</g>
	<g id="XMLID_1725_" display="inline">
		<g id="XMLID_1917_">
			<text transform="matrix(1 0 0 1 128.9181 215.3831)" fill="#868D8D" font-family="'BrandonGrotesque-Bold'" font-size="13px">Commodity x86</text>
		</g>
		<path id="XMLID_1914_" fill="#858C8D" d="M171.2,146.7c-12.4,0-22.4,10-22.4,22.4s10,22.4,22.4,22.4s22.4-10,22.4-22.4
			S183.6,146.7,171.2,146.7z"/>
		<g id="XMLID_2489_">
			<circle id="XMLID_2695_" fill="#FFFFFF" cx="161.5" cy="169.2" r="6.6"/>
			<path id="XMLID_2484_" fill="#858C8D" d="M163.1,170L163.1,170c0-0.5-0.4-0.9-0.9-1.1c0.4-0.2,0.7-0.5,0.7-1v0
				c0-0.7-0.7-1.1-1.5-1.1s-1.5,0.5-1.5,1.1v0c0,0.5,0.3,0.8,0.7,1c-0.5,0.2-0.9,0.5-0.9,1.1v0c0,0.7,0.7,1.2,1.6,1.2
				C162.4,171.2,163.1,170.7,163.1,170z M160.5,167.9L160.5,167.9c0-0.4,0.4-0.8,1-0.8c0.6,0,1,0.3,1,0.7v0c0,0.5-0.4,0.8-1,0.8
				C161,168.7,160.5,168.4,160.5,167.9z M162.6,170c0,0.4-0.4,0.8-1.1,0.8c-0.7,0-1.1-0.4-1.1-0.8v0c0-0.5,0.5-0.8,1.1-0.8
				C162.1,169.1,162.6,169.5,162.6,170L162.6,170z"/>
			<path id="XMLID_2483_" fill="#858C8D" d="M158.6,169.5l1-1.2c0,0,0.1-0.1,0.1-0.2c0-0.1-0.1-0.2-0.2-0.2c-0.1,0-0.1,0-0.2,0.1
				l-0.9,1.2l-0.9-1.2c-0.1-0.1-0.1-0.1-0.2-0.1c-0.1,0-0.2,0.1-0.2,0.2c0,0.1,0,0.1,0.1,0.2l1,1.2l-1,1.3c0,0-0.1,0.1-0.1,0.2
				c0,0.1,0.1,0.2,0.2,0.2c0.1,0,0.1,0,0.2-0.1l1-1.2l1,1.2c0.1,0.1,0.1,0.1,0.2,0.1c0.1,0,0.2-0.1,0.2-0.2c0-0.1,0-0.1-0.1-0.2
				L158.6,169.5z"/>
			<path id="XMLID_2480_" fill="#858C8D" d="M165,171.2c0.9,0,1.5-0.6,1.5-1.4v0c0-0.8-0.7-1.3-1.5-1.3c-0.6,0-1,0.3-1.2,0.7
				c0-1.1,0.5-1.9,1.3-1.9c0.3,0,0.6,0.1,0.9,0.3c0,0,0.1,0,0.1,0c0.1,0,0.2-0.1,0.2-0.2c0-0.1,0-0.2-0.1-0.2
				c-0.3-0.2-0.7-0.4-1.1-0.4c-1.1,0-1.8,1-1.8,2.3v0c0,0.9,0.2,1.3,0.5,1.7C164.1,171,164.5,171.2,165,171.2z M163.9,169.8
				c0-0.5,0.4-0.9,1.1-0.9c0.6,0,1,0.4,1,0.9v0c0,0.5-0.4,1-1,1C164.4,170.8,163.9,170.3,163.9,169.8L163.9,169.8z"/>
			<path id="XMLID_2947_" fill="#FFFFFF" d="M185,158.6h-23.4c-0.3,0-0.5,0.2-0.5,0.4v3c0.2,0,0.5-0.1,0.7-0.1
				c2.3,0,4.4,1.1,5.7,2.8H185c0.3,0,0.5-0.2,0.5-0.4v-5.4C185.5,158.7,185.3,158.6,185,158.6z M183.4,162.4c0,0.1-0.1,0.2-0.2,0.2
				h-1.8c-0.1,0-0.2-0.1-0.2-0.2v-1.5c0-0.1,0.1-0.2,0.2-0.2h1.8c0.1,0,0.2,0.1,0.2,0.2V162.4z"/>
			<g id="XMLID_2152_">
				<g id="XMLID_2945_">
					<path id="XMLID_2952_" fill="#FFFFFF" d="M185,166h-16.6c0.5,1,0.8,2.1,0.8,3.3c0,1-0.2,2-0.6,2.8H185c0.3,0,0.5-0.2,0.5-0.4
						v-5.4C185.5,166.2,185.3,166,185,166z M183.4,169.8c0,0.1-0.1,0.2-0.2,0.2h-1.8c-0.1,0-0.2-0.1-0.2-0.2v-1.5
						c0-0.1,0.1-0.2,0.2-0.2h1.8c0.1,0,0.2,0.1,0.2,0.2V169.8z"/>
				</g>
			</g>
			<path id="XMLID_2946_" fill="#FFFFFF" d="M185,173.7h-17.3c-1.4,1.8-3.5,3-5.9,3c-0.2,0-0.5,0-0.7-0.1v2.8c0,0.2,0.2,0.4,0.5,0.4
				H185c0.3,0,0.5-0.2,0.5-0.4v-5.4C185.5,173.9,185.3,173.7,185,173.7z M183.4,177.5c0,0.1-0.1,0.2-0.2,0.2h-1.8
				c-0.1,0-0.2-0.1-0.2-0.2v-1.5c0-0.1,0.1-0.2,0.2-0.2h1.8c0.1,0,0.2,0.1,0.2,0.2V177.5z"/>
		</g>
	</g>
	<g id="XMLID_1697_" display="inline">
		<g id="XMLID_2990_">
			<text transform="matrix(1 0 0 1 233.7592 215.3831)" fill="#868D8D" font-family="'BrandonGrotesque-Bold'" font-size="13px">Op Ex Not Cap Ex</text>
		</g>
		<path id="XMLID_2988_" fill="#858C8D" d="M282.2,146.7c-12.4,0-22.4,10-22.4,22.4s10,22.4,22.4,22.4s22.4-10,22.4-22.4
			S294.6,146.7,282.2,146.7z"/>
		<g id="XMLID_2686_">
			<path id="XMLID_2998_" fill="#FFFFFF" d="M284.3,178.8c2.8,0,5-0.5,6.1-1.5s1.7-2.8,1.7-5.3c0-2.3-0.6-3.9-1.6-4.8
				c-1-0.9-3.1-1.4-6.1-1.6l-1,0v-6.3h0.9c2.2,0,3.3,1.2,3.3,2.9l0,0.7h4v-0.8c0-2.3-0.7-3.9-1.8-4.8c-1.1-0.9-2.7-1.3-6.3-1.3v-2.3
				h-2.7v2.3c-2.7,0-5.2,0.4-6.3,1.3c-1.2,0.9-1.6,2.6-1.6,5c0,2.5,0.5,4.2,1.7,5.1c1.2,0.9,3.6,1.4,6.3,1.4v6.4l-0.5,0
				c-1.6,0-2.6-0.2-3.1-0.6c-0.5-0.4-0.9-1.4-0.9-2.8v-0.8h-3.6l-0.1,1c0,2.4,0.5,4.3,1.7,5.2c1.1,1,3.1,1.5,5.9,1.5l0.6,0v2.3H277
				l5.2,5.2l5.2-5.2h-4.1v-2.3L284.3,178.8z M283.3,169.1c1.8,0,3.2,0.3,3.7,0.7c0.6,0.4,1,1.3,1,2.5c0,2.2-1.3,3.5-3.9,3.5h-0.9
				V169.1z M280.6,165.4c0,0-0.5,0-0.5,0c-2.4,0-3.4-1-3.4-3c0-1.9,1.1-2.8,3.5-2.8l0.4,0V165.4z"/>
		</g>
	</g>
</g>
<g id="Artwork__x5B_Outlined_x5D_">
	<g id="XMLID_7462_">
		<rect id="XMLID_7638_" x="188.6" y="13.5" fill="#EBEBEB" width="138" height="105.7"/>
		
			<path id="XMLID_7637_" fill="#EBEBEB" stroke="#57C0FF" stroke-width="1.9029" stroke-linecap="round" stroke-linejoin="round" stroke-miterlimit="10" d="
			M197.2,119.1c0,0,36.7-38.4,42.3-39.4s6.8,16.7,14,16.3c7.2-0.3,11.2-34.9,17.5-35.6c6.2-0.7,40.9,42.7,40.9,42.7l14.8,16H197.2z"
			/>
		<g id="XMLID_11381_">
			<g id="XMLID_16367_">
				<path id="XMLID_16401_" fill="#868D8D" d="M246,28.8l4.4-9.4c0-0.1,0.1-0.2,0.2-0.2h0.1c0.1,0,0.2,0.1,0.2,0.2l4.3,9.4
					c0.1,0.2,0,0.4-0.2,0.4h-1.2c-0.2,0-0.3-0.1-0.4-0.3l-0.7-1.5h-4.2l-0.7,1.5c-0.1,0.1-0.2,0.3-0.4,0.3h-1.2
					C246.1,29.2,245.9,29,246,28.8z M252.1,25.9l-1.4-3.1h0l-1.4,3.1H252.1z"/>
				<path id="XMLID_16399_" fill="#868D8D" d="M255,23.9c-0.1-0.2,0-0.3,0.2-0.3h1.2c0.1,0,0.2,0.1,0.3,0.2l1.1,2.6c0,0,0,0,0,0
					l1.2-2.6c0.1-0.1,0.2-0.2,0.3-0.2h1.1c0.2,0,0.3,0.2,0.2,0.3l-2.6,5.3c0,0.1-0.1,0.1-0.2,0.1h-0.1c-0.1,0-0.2-0.1-0.2-0.1
					L255,23.9z"/>
				<path id="XMLID_16396_" fill="#868D8D" d="M261.5,20.6c0-0.5,0.4-1,1-1c0.5,0,1,0.4,1,1s-0.4,1-1,1
					C261.9,21.6,261.5,21.2,261.5,20.6z M261.6,23.9c0-0.2,0.1-0.3,0.3-0.3h1.2c0.1,0,0.3,0.1,0.3,0.3v5.1c0,0.1-0.1,0.3-0.3,0.3
					h-1.2c-0.1,0-0.3-0.1-0.3-0.3V23.9z"/>
				<path id="XMLID_16394_" fill="#868D8D" d="M218.4,34.5c0-0.1,0.1-0.2,0.3-0.2h0.2c0.1,0,0.2,0.1,0.2,0.1l3.1,6.6c0,0,0,0,0,0
					l3.1-6.6c0-0.1,0.1-0.1,0.2-0.1h0.2c0.2,0,0.2,0.1,0.3,0.2l1.7,9.4c0,0.2-0.1,0.3-0.3,0.3h-1.3c-0.1,0-0.2-0.1-0.3-0.2l-0.8-5.3
					c0,0,0,0,0,0l-2.5,5.5c0,0.1-0.1,0.2-0.2,0.2h-0.3c-0.1,0-0.2-0.1-0.2-0.2l-2.5-5.5c0,0,0,0,0,0l-0.8,5.3c0,0.1-0.1,0.2-0.3,0.2
					H217c-0.2,0-0.3-0.1-0.3-0.3L218.4,34.5z"/>
				<path id="XMLID_16391_" fill="#868D8D" d="M228.9,35.6c0-0.5,0.4-1,1-1c0.5,0,1,0.4,1,1s-0.4,1-1,1
					C229.3,36.6,228.9,36.2,228.9,35.6z M229,38.9c0-0.2,0.1-0.3,0.3-0.3h1.2c0.1,0,0.3,0.1,0.3,0.3v5.1c0,0.1-0.1,0.3-0.3,0.3h-1.2
					c-0.1,0-0.3-0.1-0.3-0.3V38.9z"/>
				<path id="XMLID_16389_" fill="#868D8D" d="M232.4,38.9c0-0.2,0.1-0.3,0.3-0.3h0.5c0.1,0,0.2,0.1,0.3,0.2l0.2,0.5
					c0.2-0.3,0.7-0.9,1.6-0.9c0.7,0,1.2,0.2,1.1,0.6l-0.5,0.9c-0.1,0.1-0.2,0.2-0.3,0.1c0,0-0.3-0.1-0.4-0.1c-0.6,0-0.9,0.4-1,0.6
					v3.4c0,0.2-0.1,0.3-0.3,0.3h-1.1c-0.1,0-0.3-0.1-0.3-0.3V38.9z"/>
				<path id="XMLID_16387_" fill="#868D8D" d="M237.1,38.9c0-0.2,0.1-0.3,0.3-0.3h0.5c0.1,0,0.2,0.1,0.3,0.2l0.2,0.5
					c0.2-0.3,0.7-0.9,1.6-0.9c0.7,0,1.2,0.2,1.1,0.6l-0.5,0.9c-0.1,0.1-0.2,0.2-0.3,0.1c0,0-0.3-0.1-0.4-0.1c-0.6,0-0.9,0.4-1,0.6
					v3.4c0,0.2-0.1,0.3-0.3,0.3h-1.1c-0.1,0-0.3-0.1-0.3-0.3V38.9z"/>
				<path id="XMLID_16384_" fill="#868D8D" d="M244.3,38.5c1.6,0,2.9,1.3,2.9,2.9c0,1.6-1.3,3-2.9,3s-2.9-1.3-2.9-3
					C241.4,39.8,242.7,38.5,244.3,38.5z M244.3,42.8c0.7,0,1.3-0.6,1.3-1.4c0-0.8-0.6-1.4-1.3-1.4c-0.8,0-1.3,0.6-1.3,1.4
					C243,42.2,243.6,42.8,244.3,42.8z"/>
				<path id="XMLID_16382_" fill="#868D8D" d="M248.4,38.9c0-0.2,0.1-0.3,0.3-0.3h0.5c0.1,0,0.2,0.1,0.3,0.2l0.2,0.5
					c0.2-0.3,0.7-0.9,1.6-0.9c0.7,0,1.2,0.2,1.1,0.6l-0.5,0.9c-0.1,0.1-0.2,0.2-0.3,0.1c0,0-0.3-0.1-0.4-0.1c-0.6,0-0.9,0.4-1,0.6
					v3.4c0,0.2-0.1,0.3-0.3,0.3h-1.1c-0.1,0-0.3-0.1-0.3-0.3V38.9z"/>
				<path id="XMLID_16380_" fill="#868D8D" d="M252.9,43.5l0.4-0.8c0.1-0.1,0.2-0.2,0.3-0.1c0,0,0.6,0.3,1.3,0.3
					c0.3,0,0.5-0.1,0.5-0.4c0-0.3-0.2-0.4-0.9-0.7c-1.1-0.4-1.6-1-1.6-1.8s0.6-1.7,2.1-1.7c0.8,0,1.4,0.2,1.7,0.4
					c0.1,0.1,0.2,0.2,0.1,0.4l-0.4,0.7c-0.1,0.1-0.2,0.1-0.3,0.1c0,0-0.6-0.3-1.2-0.3c-0.3,0-0.5,0.1-0.5,0.3c0,0.3,0.3,0.3,0.8,0.5
					c1.1,0.4,1.9,0.9,1.9,2c0,0.9-0.8,1.7-2.2,1.7c-0.9,0-1.6-0.3-1.9-0.5C252.9,43.8,252.8,43.6,252.9,43.5z"/>
				<path id="XMLID_16378_" fill="#868D8D" d="M261.7,40.1h-0.5c-0.1,0-0.3-0.1-0.3-0.3v-0.9c0-0.2,0.1-0.3,0.3-0.3h0.5V37
					c0-0.1,0.1-0.3,0.3-0.3l1.1,0c0.1,0,0.3,0.1,0.3,0.3v1.6h1.2c0.2,0,0.3,0.1,0.3,0.3v0.9c0,0.1-0.1,0.3-0.3,0.3h-1.2v2.2
					c0,0.4,0.2,0.4,0.4,0.4c0.2,0,0.5-0.1,0.7-0.2c0.2-0.1,0.3,0,0.3,0.2l0.3,0.9c0.1,0.1,0,0.3-0.2,0.3c-0.1,0-1,0.4-1.7,0.4
					c-1.1,0-1.6-0.7-1.6-1.8V40.1z"/>
				<path id="XMLID_16376_" fill="#868D8D" d="M266.2,38.9c0-0.2,0.1-0.3,0.3-0.3h0.5c0.1,0,0.2,0.1,0.3,0.2l0.2,0.5
					c0.2-0.3,0.7-0.9,1.6-0.9c0.7,0,1.2,0.2,1.1,0.6l-0.5,0.9c-0.1,0.1-0.2,0.2-0.3,0.1c0,0-0.3-0.1-0.4-0.1c-0.6,0-0.9,0.4-1,0.6
					v3.4c0,0.2-0.1,0.3-0.3,0.3h-1.1c-0.1,0-0.3-0.1-0.3-0.3V38.9z"/>
				<path id="XMLID_16373_" fill="#868D8D" d="M272.8,40.7c0.6,0,1,0.2,1,0.2c0-0.7-0.2-1-0.7-1s-1.2,0.1-1.6,0.2
					c-0.2,0.1-0.3-0.1-0.3-0.3l-0.1-0.7c0-0.2,0.1-0.3,0.2-0.3c0.1,0,1-0.3,1.9-0.3c1.8,0,2.2,0.9,2.2,2.4v3c0,0.1-0.1,0.3-0.3,0.3
					h-0.5c-0.1,0-0.2,0-0.2-0.2l-0.2-0.4c-0.3,0.3-0.8,0.7-1.7,0.7c-1.1,0-1.9-0.7-1.9-1.9C270.6,41.4,271.4,40.7,272.8,40.7z
					 M272.9,43.2c0.4,0,0.9-0.4,1-0.5v-0.8c0,0-0.4-0.2-0.8-0.2c-0.5,0-0.9,0.3-0.9,0.8C272.1,42.8,272.4,43.2,272.9,43.2z"/>
				<path id="XMLID_16370_" fill="#868D8D" d="M277.3,40.1h-0.5c-0.2,0-0.3-0.1-0.3-0.3v-0.9c0-0.2,0.1-0.3,0.3-0.3h0.5v-1.2
					c0-1.6,1-2.9,2.9-3c1.2,0,1.8,0.6,1.9,0.6c0.5-0.5,1.1-0.8,2-0.8c0.9,0,1.8,0.4,2.2,0.6c0.1,0.1,0.2,0.2,0.1,0.4l-0.5,0.9
					c-0.1,0.1-0.2,0.1-0.4,0.1c-0.1,0-0.8-0.4-1.3-0.4c-0.5,0-1,0.4-1,1.2v1.5h3.8c0.2,0,0.3,0.1,0.3,0.3v5.1c0,0.1-0.1,0.3-0.3,0.3
					h-1.2c-0.2,0-0.3-0.1-0.3-0.3v-3.9h-2.3v3.9c0,0.1-0.1,0.3-0.3,0.3h-1.2c-0.1,0-0.3-0.1-0.3-0.3v-3.9h-2.4v3.9
					c0,0.1-0.1,0.3-0.3,0.3h-1.2c-0.1,0-0.3-0.1-0.3-0.3V40.1z M281.5,38.6v-1.5c0-0.2,0-0.4,0-0.6c-0.2-0.2-0.6-0.5-1.2-0.5
					c-0.7,0-1.3,0.5-1.3,1.4v1.2H281.5z"/>
				<path id="XMLID_16368_" fill="#868D8D" d="M291.5,38.5c0.9,0,1.5,0.4,2.1,1c0.1,0.1,0.1,0.3-0.1,0.4l-0.6,0.6
					c-0.1,0.1-0.3,0-0.3,0c-0.2-0.3-0.6-0.4-1-0.4c-0.8,0-1.4,0.6-1.4,1.4c0,0.8,0.6,1.4,1.4,1.4c0.6,0,0.9-0.3,1.1-0.5
					c0.1-0.1,0.2-0.1,0.4,0l0.6,0.5c0.1,0.1,0.2,0.3,0.1,0.4c-0.5,0.7-1.2,1.2-2.2,1.2c-1.6,0-3-1.3-3-2.9
					C288.5,39.8,289.9,38.5,291.5,38.5z"/>
			</g>
		</g>
		<g id="XMLID_7613_">
			<path id="XMLID_7633_" fill="#ED4F24" stroke="#EBEBEB" stroke-width="2" stroke-miterlimit="10" d="M223.2,112.4h-11.3
				c-1.6,0-2.9-1.3-2.9-2.9V98.9c0-1.6,1.3-2.9,2.9-2.9h11.3c1.6,0,2.9,1.3,2.9,2.9v10.7C226,111.1,224.7,112.4,223.2,112.4z"/>
			<path id="XMLID_7632_" fill="#FFFFFF" d="M219.5,106.1c-1.1,1.1-3,1.1-4.1,0c-1.1-1.1-1.1-2.9,0-4c1.1-1.1,3-1.1,4.1,0
				C220.7,103.2,220.7,105,219.5,106.1z"/>
			<path id="XMLID_7631_" fill="#ED4F24" d="M218.9,105.5c-0.8,0.8-2.1,0.8-2.9,0c-0.8-0.8-0.8-2,0-2.8c0.8-0.8,2.1-0.8,2.9,0
				C219.7,103.5,219.7,104.7,218.9,105.5z"/>
			<polygon id="XMLID_7630_" fill="#FFFFFF" points="213.8,108.2 213.2,107.5 215.6,105.2 216.2,105.9 			"/>
			<g id="XMLID_7626_">
				<ellipse id="XMLID_7629_" fill="#FFFFFF" cx="216.2" cy="104.1" rx="0.4" ry="0.4"/>
				<ellipse id="XMLID_7628_" fill="#FFFFFF" cx="217.4" cy="104.1" rx="0.4" ry="0.4"/>
				<ellipse id="XMLID_7627_" fill="#FFFFFF" cx="218.6" cy="104.1" rx="0.4" ry="0.4"/>
			</g>
			<g id="XMLID_7623_">
				<polygon id="XMLID_7625_" fill="#FFFFFF" points="223.5,105.6 223.5,103 224.8,104.3 				"/>
				<rect id="XMLID_7624_" x="221.2" y="103.8" fill="#FFFFFF" width="2.4" height="0.9"/>
			</g>
			<g id="XMLID_7620_">
				<polygon id="XMLID_7622_" fill="#FFFFFF" points="222.7,100.7 220.8,98.9 222.7,98.9 				"/>
				<polygon id="XMLID_7621_" fill="#FFFFFF" points="222.2,100.1 220.5,101.7 219.8,101.1 221.5,99.4 				"/>
			</g>
			<g id="XMLID_7617_">
				<polygon id="XMLID_7619_" fill="#FFFFFF" points="220.8,109.4 222.7,107.6 222.7,109.4 				"/>
				<polygon id="XMLID_7618_" fill="#FFFFFF" points="221.4,108.9 219.7,107.3 220.4,106.6 222.1,108.3 				"/>
			</g>
			<g id="XMLID_7614_">
				<polygon id="XMLID_7616_" fill="#FFFFFF" points="212.4,105.4 212.4,102.8 213.8,104.1 				"/>
				<rect id="XMLID_7615_" x="210.1" y="103.6" fill="#FFFFFF" width="2.4" height="0.9"/>
			</g>
		</g>
		<g id="XMLID_7592_">
			<path id="XMLID_7612_" fill="#ED4F24" stroke="#EBEBEB" stroke-width="2" stroke-miterlimit="10" d="M245.8,112.4h-11.3
				c-1.6,0-2.9-1.3-2.9-2.9V98.9c0-1.6,1.3-2.9,2.9-2.9h11.3c1.6,0,2.9,1.3,2.9,2.9v10.7C248.6,111.1,247.4,112.4,245.8,112.4z"/>
			<path id="XMLID_7611_" fill="#FFFFFF" d="M242.1,106.1c-1.1,1.1-3,1.1-4.1,0c-1.1-1.1-1.1-2.9,0-4c1.1-1.1,3-1.1,4.1,0
				S243.3,105,242.1,106.1z"/>
			<path id="XMLID_7610_" fill="#ED4F24" d="M241.5,105.5c-0.8,0.8-2.1,0.8-2.9,0s-0.8-2,0-2.8s2.1-0.8,2.9,0
				C242.3,103.5,242.3,104.7,241.5,105.5z"/>
			<polygon id="XMLID_7609_" fill="#FFFFFF" points="236.5,108.2 235.8,107.5 238.2,105.2 238.8,105.9 			"/>
			<g id="XMLID_7605_">
				<ellipse id="XMLID_7608_" fill="#FFFFFF" cx="238.9" cy="104.1" rx="0.4" ry="0.4"/>
				<ellipse id="XMLID_7607_" fill="#FFFFFF" cx="240" cy="104.1" rx="0.4" ry="0.4"/>
				<ellipse id="XMLID_7606_" fill="#FFFFFF" cx="241.2" cy="104.1" rx="0.4" ry="0.4"/>
			</g>
			<g id="XMLID_7602_">
				<polygon id="XMLID_7604_" fill="#FFFFFF" points="246.1,105.6 246.1,103 247.5,104.3 				"/>
				<rect id="XMLID_7603_" x="243.8" y="103.8" fill="#FFFFFF" width="2.4" height="0.9"/>
			</g>
			<g id="XMLID_7599_">
				<polygon id="XMLID_7601_" fill="#FFFFFF" points="245.3,100.7 243.4,98.9 245.3,98.9 				"/>
				<polygon id="XMLID_7600_" fill="#FFFFFF" points="244.8,100.1 243.1,101.7 242.4,101.1 244.1,99.4 				"/>
			</g>
			<g id="XMLID_7596_">
				<polygon id="XMLID_7598_" fill="#FFFFFF" points="243.4,109.4 245.3,107.6 245.3,109.4 				"/>
				<polygon id="XMLID_7597_" fill="#FFFFFF" points="244.1,108.9 242.4,107.3 243,106.6 244.7,108.3 				"/>
			</g>
			<g id="XMLID_7593_">
				<polygon id="XMLID_7595_" fill="#FFFFFF" points="235.1,105.4 235.1,102.8 236.4,104.1 				"/>
				<rect id="XMLID_7594_" x="232.8" y="103.6" fill="#FFFFFF" width="2.4" height="0.9"/>
			</g>
		</g>
		<g id="XMLID_7571_">
			<path id="XMLID_7591_" fill="#ED4F24" stroke="#EBEBEB" stroke-width="2" stroke-miterlimit="10" d="M245.8,87.7h-11.3
				c-1.6,0-2.9-1.3-2.9-2.9V74.2c0-1.6,1.3-2.9,2.9-2.9h11.3c1.6,0,2.9,1.3,2.9,2.9v10.7C248.6,86.5,247.4,87.7,245.8,87.7z"/>
			<path id="XMLID_7590_" fill="#FFFFFF" d="M242.1,81.4c-1.1,1.1-3,1.1-4.1,0c-1.1-1.1-1.1-2.9,0-4c1.1-1.1,3-1.1,4.1,0
				C243.3,78.5,243.3,80.3,242.1,81.4z"/>
			<path id="XMLID_7589_" fill="#ED4F24" d="M241.5,80.8c-0.8,0.8-2.1,0.8-2.9,0s-0.8-2,0-2.8s2.1-0.8,2.9,0
				C242.3,78.8,242.3,80.1,241.5,80.8z"/>
			<polygon id="XMLID_7588_" fill="#FFFFFF" points="236.5,83.5 235.8,82.9 238.2,80.5 238.8,81.2 			"/>
			<g id="XMLID_7584_">
				<ellipse id="XMLID_7587_" fill="#FFFFFF" cx="238.9" cy="79.4" rx="0.4" ry="0.4"/>
				<ellipse id="XMLID_7586_" fill="#FFFFFF" cx="240" cy="79.4" rx="0.4" ry="0.4"/>
				<ellipse id="XMLID_7585_" fill="#FFFFFF" cx="241.2" cy="79.4" rx="0.4" ry="0.4"/>
			</g>
			<g id="XMLID_7581_">
				<polygon id="XMLID_7583_" fill="#FFFFFF" points="246.1,80.9 246.1,78.3 247.5,79.6 				"/>
				<rect id="XMLID_7582_" x="243.8" y="79.2" fill="#FFFFFF" width="2.4" height="0.9"/>
			</g>
			<g id="XMLID_7578_">
				<polygon id="XMLID_7580_" fill="#FFFFFF" points="245.3,76.1 243.4,74.2 245.3,74.2 				"/>
				<polygon id="XMLID_7579_" fill="#FFFFFF" points="244.8,75.4 243.1,77.1 242.4,76.4 244.1,74.8 				"/>
			</g>
			<g id="XMLID_7575_">
				<polygon id="XMLID_7577_" fill="#FFFFFF" points="243.4,84.7 245.3,82.9 245.3,84.7 				"/>
				<polygon id="XMLID_7576_" fill="#FFFFFF" points="244.1,84.2 242.4,82.6 243,81.9 244.7,83.6 				"/>
			</g>
			<g id="XMLID_7572_">
				<polygon id="XMLID_7574_" fill="#FFFFFF" points="235.1,80.7 235.1,78.1 236.4,79.4 				"/>
				<rect id="XMLID_7573_" x="232.8" y="78.9" fill="#FFFFFF" width="2.4" height="0.9"/>
			</g>
		</g>
		<g id="XMLID_7550_">
			<path id="XMLID_7570_" fill="#ED4F24" stroke="#EBEBEB" stroke-width="2" stroke-miterlimit="10" d="M272.7,112.4h-11.3
				c-1.6,0-2.9-1.3-2.9-2.9V98.9c0-1.6,1.3-2.9,2.9-2.9h11.3c1.6,0,2.9,1.3,2.9,2.9v10.7C275.5,111.1,274.3,112.4,272.7,112.4z"/>
			<path id="XMLID_7569_" fill="#FFFFFF" d="M269,106.1c-1.1,1.1-3,1.1-4.1,0c-1.1-1.1-1.1-2.9,0-4c1.1-1.1,3-1.1,4.1,0
				C270.2,103.2,270.2,105,269,106.1z"/>
			<path id="XMLID_7568_" fill="#ED4F24" d="M268.4,105.5c-0.8,0.8-2.1,0.8-2.9,0s-0.8-2,0-2.8s2.1-0.8,2.9,0
				S269.2,104.7,268.4,105.5z"/>
			<polygon id="XMLID_7567_" fill="#FFFFFF" points="263.4,108.2 262.7,107.5 265.1,105.2 265.7,105.9 			"/>
			<g id="XMLID_7563_">
				<ellipse id="XMLID_7566_" fill="#FFFFFF" cx="265.8" cy="104.1" rx="0.4" ry="0.4"/>
				<ellipse id="XMLID_7565_" fill="#FFFFFF" cx="266.9" cy="104.1" rx="0.4" ry="0.4"/>
				<ellipse id="XMLID_7564_" fill="#FFFFFF" cx="268.1" cy="104.1" rx="0.4" ry="0.4"/>
			</g>
			<g id="XMLID_7560_">
				<polygon id="XMLID_7562_" fill="#FFFFFF" points="273,105.6 273,103 274.4,104.3 				"/>
				<rect id="XMLID_7561_" x="270.7" y="103.8" fill="#FFFFFF" width="2.4" height="0.9"/>
			</g>
			<g id="XMLID_7557_">
				<polygon id="XMLID_7559_" fill="#FFFFFF" points="272.2,100.7 270.3,98.9 272.2,98.9 				"/>
				<polygon id="XMLID_7558_" fill="#FFFFFF" points="271.7,100.1 270,101.7 269.3,101.1 271,99.4 				"/>
			</g>
			<g id="XMLID_7554_">
				<polygon id="XMLID_7556_" fill="#FFFFFF" points="270.3,109.4 272.2,107.6 272.2,109.4 				"/>
				<polygon id="XMLID_7555_" fill="#FFFFFF" points="271,108.9 269.3,107.3 269.9,106.6 271.6,108.3 				"/>
			</g>
			<g id="XMLID_7551_">
				<polygon id="XMLID_7553_" fill="#FFFFFF" points="262,105.4 262,102.8 263.3,104.1 				"/>
				<rect id="XMLID_7552_" x="259.6" y="103.6" fill="#FFFFFF" width="2.4" height="0.9"/>
			</g>
		</g>
		<g id="XMLID_7529_">
			<path id="XMLID_7549_" fill="#ED4F24" stroke="#EBEBEB" stroke-width="2" stroke-miterlimit="10" d="M272.7,87.7h-11.3
				c-1.6,0-2.9-1.3-2.9-2.9V74.2c0-1.6,1.3-2.9,2.9-2.9h11.3c1.6,0,2.9,1.3,2.9,2.9v10.7C275.5,86.5,274.3,87.7,272.7,87.7z"/>
			<path id="XMLID_7548_" fill="#FFFFFF" d="M269,81.4c-1.1,1.1-3,1.1-4.1,0c-1.1-1.1-1.1-2.9,0-4c1.1-1.1,3-1.1,4.1,0
				C270.2,78.5,270.2,80.3,269,81.4z"/>
			<path id="XMLID_7547_" fill="#ED4F24" d="M268.4,80.8c-0.8,0.8-2.1,0.8-2.9,0s-0.8-2,0-2.8s2.1-0.8,2.9,0S269.2,80.1,268.4,80.8z
				"/>
			<polygon id="XMLID_7546_" fill="#FFFFFF" points="263.4,83.5 262.7,82.9 265.1,80.5 265.7,81.2 			"/>
			<g id="XMLID_7542_">
				<ellipse id="XMLID_7545_" fill="#FFFFFF" cx="265.8" cy="79.4" rx="0.4" ry="0.4"/>
				<ellipse id="XMLID_7544_" fill="#FFFFFF" cx="266.9" cy="79.4" rx="0.4" ry="0.4"/>
				<ellipse id="XMLID_7543_" fill="#FFFFFF" cx="268.1" cy="79.4" rx="0.4" ry="0.4"/>
			</g>
			<g id="XMLID_7539_">
				<polygon id="XMLID_7541_" fill="#FFFFFF" points="273,80.9 273,78.3 274.4,79.6 				"/>
				<rect id="XMLID_7540_" x="270.7" y="79.2" fill="#FFFFFF" width="2.4" height="0.9"/>
			</g>
			<g id="XMLID_7536_">
				<polygon id="XMLID_7538_" fill="#FFFFFF" points="272.2,76.1 270.3,74.2 272.2,74.2 				"/>
				<polygon id="XMLID_7537_" fill="#FFFFFF" points="271.7,75.4 270,77.1 269.3,76.4 271,74.8 				"/>
			</g>
			<g id="XMLID_7533_">
				<polygon id="XMLID_7535_" fill="#FFFFFF" points="270.3,84.7 272.2,82.9 272.2,84.7 				"/>
				<polygon id="XMLID_7534_" fill="#FFFFFF" points="271,84.2 269.3,82.6 269.9,81.9 271.6,83.6 				"/>
			</g>
			<g id="XMLID_7530_">
				<polygon id="XMLID_7532_" fill="#FFFFFF" points="262,80.7 262,78.1 263.3,79.4 				"/>
				<rect id="XMLID_7531_" x="259.6" y="78.9" fill="#FFFFFF" width="2.4" height="0.9"/>
			</g>
		</g>
		<g id="XMLID_7508_">
			<path id="XMLID_7528_" fill="#ED4F24" stroke="#EBEBEB" stroke-width="2" stroke-miterlimit="10" d="M272.7,63.1h-11.3
				c-1.6,0-2.9-1.3-2.9-2.9V49.5c0-1.6,1.3-2.9,2.9-2.9h11.3c1.6,0,2.9,1.3,2.9,2.9v10.7C275.5,61.8,274.3,63.1,272.7,63.1z"/>
			<path id="XMLID_7527_" fill="#FFFFFF" d="M269,56.8c-1.1,1.1-3,1.1-4.1,0c-1.1-1.1-1.1-2.9,0-4c1.1-1.1,3-1.1,4.1,0
				C270.2,53.9,270.2,55.7,269,56.8z"/>
			<path id="XMLID_7526_" fill="#ED4F24" d="M268.4,56.2c-0.8,0.8-2.1,0.8-2.9,0s-0.8-2,0-2.8s2.1-0.8,2.9,0S269.2,55.4,268.4,56.2z
				"/>
			<polygon id="XMLID_7525_" fill="#FFFFFF" points="263.4,58.8 262.7,58.2 265.1,55.9 265.7,56.5 			"/>
			<g id="XMLID_7521_">
				<ellipse id="XMLID_7524_" fill="#FFFFFF" cx="265.8" cy="54.8" rx="0.4" ry="0.4"/>
				<ellipse id="XMLID_7523_" fill="#FFFFFF" cx="266.9" cy="54.8" rx="0.4" ry="0.4"/>
				<ellipse id="XMLID_7522_" fill="#FFFFFF" cx="268.1" cy="54.8" rx="0.4" ry="0.4"/>
			</g>
			<g id="XMLID_7518_">
				<polygon id="XMLID_7520_" fill="#FFFFFF" points="273,56.2 273,53.6 274.4,54.9 				"/>
				<rect id="XMLID_7519_" x="270.7" y="54.5" fill="#FFFFFF" width="2.4" height="0.9"/>
			</g>
			<g id="XMLID_7515_">
				<polygon id="XMLID_7517_" fill="#FFFFFF" points="272.2,51.4 270.3,49.6 272.2,49.6 				"/>
				<polygon id="XMLID_7516_" fill="#FFFFFF" points="271.7,50.7 270,52.4 269.3,51.7 271,50.1 				"/>
			</g>
			<g id="XMLID_7512_">
				<polygon id="XMLID_7514_" fill="#FFFFFF" points="270.3,60.1 272.2,58.2 272.2,60.1 				"/>
				<polygon id="XMLID_7513_" fill="#FFFFFF" points="271,59.6 269.3,57.9 269.9,57.3 271.6,58.9 				"/>
			</g>
			<g id="XMLID_7509_">
				<polygon id="XMLID_7511_" fill="#FFFFFF" points="262,56 262,53.4 263.3,54.7 				"/>
				<rect id="XMLID_7510_" x="259.6" y="54.3" fill="#FFFFFF" width="2.4" height="0.9"/>
			</g>
		</g>
		<g id="XMLID_7487_">
			<path id="XMLID_7507_" fill="#ED4F24" stroke="#EBEBEB" stroke-width="2" stroke-miterlimit="10" d="M297.4,112.4h-11.3
				c-1.6,0-2.9-1.3-2.9-2.9V98.9c0-1.6,1.3-2.9,2.9-2.9h11.3c1.6,0,2.9,1.3,2.9,2.9v10.7C300.3,111.1,299,112.4,297.4,112.4z"/>
			<path id="XMLID_7506_" fill="#FFFFFF" d="M293.8,106.1c-1.1,1.1-3,1.1-4.1,0c-1.1-1.1-1.1-2.9,0-4c1.1-1.1,3-1.1,4.1,0
				C294.9,103.2,294.9,105,293.8,106.1z"/>
			<path id="XMLID_7505_" fill="#ED4F24" d="M293.1,105.5c-0.8,0.8-2.1,0.8-2.9,0s-0.8-2,0-2.8s2.1-0.8,2.9,0
				S293.9,104.7,293.1,105.5z"/>
			<polygon id="XMLID_7504_" fill="#FFFFFF" points="288.1,108.2 287.4,107.5 289.8,105.2 290.5,105.9 			"/>
			<g id="XMLID_7500_">
				<ellipse id="XMLID_7503_" fill="#FFFFFF" cx="290.5" cy="104.1" rx="0.4" ry="0.4"/>
				<ellipse id="XMLID_7502_" fill="#FFFFFF" cx="291.7" cy="104.1" rx="0.4" ry="0.4"/>
				<ellipse id="XMLID_7501_" fill="#FFFFFF" cx="292.8" cy="104.1" rx="0.4" ry="0.4"/>
			</g>
			<g id="XMLID_7497_">
				<polygon id="XMLID_7499_" fill="#FFFFFF" points="297.7,105.6 297.7,103 299.1,104.3 				"/>
				<rect id="XMLID_7498_" x="295.4" y="103.8" fill="#FFFFFF" width="2.4" height="0.9"/>
			</g>
			<g id="XMLID_7494_">
				<polygon id="XMLID_7496_" fill="#FFFFFF" points="297,100.7 295.1,98.9 297,98.9 				"/>
				<polygon id="XMLID_7495_" fill="#FFFFFF" points="296.4,100.1 294.7,101.7 294,101.1 295.7,99.4 				"/>
			</g>
			<g id="XMLID_7491_">
				<polygon id="XMLID_7493_" fill="#FFFFFF" points="295,109.4 296.9,107.6 296.9,109.4 				"/>
				<polygon id="XMLID_7492_" fill="#FFFFFF" points="295.7,108.9 294,107.3 294.7,106.6 296.4,108.3 				"/>
			</g>
			<g id="XMLID_7488_">
				<polygon id="XMLID_7490_" fill="#FFFFFF" points="286.7,105.4 286.7,102.8 288,104.1 				"/>
				<rect id="XMLID_7489_" x="284.4" y="103.6" fill="#FFFFFF" width="2.4" height="0.9"/>
			</g>
		</g>
		<g id="XMLID_7466_">
			<path id="XMLID_7486_" fill="#ED4F24" stroke="#EBEBEB" stroke-width="2" stroke-miterlimit="10" d="M297.4,87.7h-11.3
				c-1.6,0-2.9-1.3-2.9-2.9V74.2c0-1.6,1.3-2.9,2.9-2.9h11.3c1.6,0,2.9,1.3,2.9,2.9v10.7C300.3,86.5,299,87.7,297.4,87.7z"/>
			<path id="XMLID_7485_" fill="#FFFFFF" d="M293.8,81.4c-1.1,1.1-3,1.1-4.1,0c-1.1-1.1-1.1-2.9,0-4c1.1-1.1,3-1.1,4.1,0
				C294.9,78.5,294.9,80.3,293.8,81.4z"/>
			<path id="XMLID_7484_" fill="#ED4F24" d="M293.1,80.8c-0.8,0.8-2.1,0.8-2.9,0s-0.8-2,0-2.8s2.1-0.8,2.9,0S293.9,80.1,293.1,80.8z
				"/>
			<polygon id="XMLID_7483_" fill="#FFFFFF" points="288.1,83.5 287.4,82.9 289.8,80.5 290.5,81.2 			"/>
			<g id="XMLID_7479_">
				<ellipse id="XMLID_7482_" fill="#FFFFFF" cx="290.5" cy="79.4" rx="0.4" ry="0.4"/>
				<ellipse id="XMLID_7481_" fill="#FFFFFF" cx="291.7" cy="79.4" rx="0.4" ry="0.4"/>
				<ellipse id="XMLID_7480_" fill="#FFFFFF" cx="292.8" cy="79.4" rx="0.4" ry="0.4"/>
			</g>
			<g id="XMLID_7476_">
				<polygon id="XMLID_7478_" fill="#FFFFFF" points="297.7,80.9 297.7,78.3 299.1,79.6 				"/>
				<rect id="XMLID_7477_" x="295.4" y="79.2" fill="#FFFFFF" width="2.4" height="0.9"/>
			</g>
			<g id="XMLID_7473_">
				<polygon id="XMLID_7475_" fill="#FFFFFF" points="297,76.1 295.1,74.2 297,74.2 				"/>
				<polygon id="XMLID_7474_" fill="#FFFFFF" points="296.4,75.4 294.7,77.1 294,76.4 295.7,74.8 				"/>
			</g>
			<g id="XMLID_7470_">
				<polygon id="XMLID_7472_" fill="#FFFFFF" points="295,84.7 296.9,82.9 296.9,84.7 				"/>
				<polygon id="XMLID_7471_" fill="#FFFFFF" points="295.7,84.2 294,82.6 294.7,81.9 296.4,83.6 				"/>
			</g>
			<g id="XMLID_7467_">
				<polygon id="XMLID_7469_" fill="#FFFFFF" points="286.7,80.7 286.7,78.1 288,79.4 				"/>
				<rect id="XMLID_7468_" x="284.4" y="78.9" fill="#FFFFFF" width="2.4" height="0.9"/>
			</g>
		</g>
		<path id="XMLID_7463_" fill="#CED0D1" d="M323.2,10.3H192.4c-3.5,0-6.3,2.8-6.3,6.3v100.8c0,3.5,2.8,6.3,6.3,6.3h130.8
			c3.5,0,6.3-2.8,6.3-6.3V16.7C329.5,13.2,326.7,10.3,323.2,10.3z M322.7,116.9H192.9V17.2h129.8V116.9z"/>
	</g>
	<g id="XMLID_7445_">
		<rect id="XMLID_7461_" x="32.6" y="13.5" fill="#EBEBEB" width="138" height="105.7"/>
		<g id="XMLID_11322_">
			<path id="XMLID_11323_" fill="#868D8D" d="M85.3,19.8c0-0.1,0.1-0.3,0.3-0.3h1.3c0.1,0,0.3,0.1,0.3,0.3v7.9h3.6
				c0.2,0,0.3,0.1,0.3,0.3v1.1c0,0.1-0.1,0.3-0.3,0.3h-5.1c-0.2,0-0.3-0.1-0.3-0.3V19.8z"/>
			<path id="XMLID_11325_" fill="#868D8D" d="M94.4,23.6c1.4,0,2.6,1.1,2.6,2.6c0,0.1,0,0.3,0,0.4c0,0.1-0.1,0.2-0.3,0.2h-3.6
				c0,0.6,0.5,1.2,1.3,1.2c0.4,0,0.8-0.2,1.1-0.4c0.1-0.1,0.3-0.1,0.4,0l0.6,0.7c0.1,0.1,0.1,0.3,0,0.4c-0.5,0.4-1.2,0.8-2.1,0.8
				c-1.7,0-2.9-1.3-2.9-2.9C91.5,24.9,92.7,23.6,94.4,23.6z M95.4,25.8c0-0.5-0.5-1-1-1c-0.6,0-1,0.4-1.1,1H95.4z"/>
			<path id="XMLID_11328_" fill="#868D8D" d="M98.6,27.3c0,0-0.4-0.5-0.4-1.3c0-1.3,1-2.4,2.4-2.4h2.5c0.2,0,0.3,0.1,0.3,0.3v0.5
				c0,0.1-0.1,0.2-0.2,0.2l-0.8,0.3c0,0,0.6,0.4,0.6,1.4c0,1.1-0.9,2.2-2.4,2.2c-0.5,0-0.9-0.1-1.1-0.1c-0.2,0-0.5,0.2-0.5,0.5
				c0,0.3,0.3,0.5,0.6,0.5h1.8c1.3,0,2.3,0.7,2.3,2c0,1.3-1,2.4-3.1,2.4c-2.1,0-2.9-1-2.9-1.9c0-0.8,0.7-1.2,0.8-1.3v0
				c-0.2-0.1-1-0.4-1-1.5C97.6,27.8,98.6,27.3,98.6,27.3z M100.6,32.3c0.8,0,1.3-0.3,1.3-0.9c0-0.3-0.2-0.7-1-0.7
				c-0.3,0-0.6,0-0.9,0.1c-0.2,0.1-0.6,0.3-0.6,0.7C99.4,31.9,99.9,32.3,100.6,32.3z M100.7,27.1c0.6,0,1-0.4,1-1c0-0.6-0.4-1-1-1
				c-0.6,0-1,0.4-1,1C99.7,26.7,100.1,27.1,100.7,27.1z"/>
			<path id="XMLID_11332_" fill="#868D8D" d="M106.5,25.8c0.6,0,1,0.2,1,0.2c0-0.7-0.2-1-0.7-1s-1.2,0.1-1.6,0.2
				c-0.2,0.1-0.3-0.1-0.3-0.3l-0.1-0.7c0-0.2,0.1-0.3,0.2-0.3c0.1,0,1-0.3,1.9-0.3c1.7,0,2.2,0.9,2.2,2.4v3c0,0.1-0.1,0.3-0.3,0.3
				h-0.5c-0.1,0-0.2,0-0.2-0.2l-0.2-0.4c-0.3,0.3-0.8,0.7-1.7,0.7c-1.1,0-1.9-0.7-1.9-1.9C104.2,26.6,105,25.8,106.5,25.8z
				 M106.5,28.3c0.4,0,0.9-0.4,1-0.5V27c0,0-0.4-0.2-0.8-0.2c-0.5,0-0.9,0.3-0.9,0.8C105.8,28,106.1,28.3,106.5,28.3z"/>
			<path id="XMLID_11335_" fill="#868D8D" d="M113.2,23.6c0.9,0,1.5,0.4,2.1,1c0.1,0.1,0.1,0.3-0.1,0.4l-0.6,0.6
				c-0.1,0.1-0.3,0-0.3,0c-0.2-0.3-0.6-0.4-1-0.4c-0.8,0-1.4,0.6-1.4,1.4c0,0.8,0.6,1.4,1.4,1.4c0.6,0,0.9-0.3,1.1-0.5
				c0.1-0.1,0.2-0.1,0.3,0l0.6,0.5c0.1,0.1,0.2,0.3,0.1,0.4c-0.5,0.7-1.2,1.2-2.2,1.2c-1.6,0-3-1.3-3-2.9
				C110.2,24.9,111.6,23.6,113.2,23.6z"/>
			<path id="XMLID_11337_" fill="#868D8D" d="M115.9,24.1c-0.1-0.2,0-0.4,0.2-0.4h1.3c0.1,0,0.2,0.1,0.2,0.2L119,27h0l1.4-3.2
				c0.1-0.1,0.2-0.2,0.3-0.2h1.1c0.2,0,0.3,0.2,0.2,0.4l-4.3,9.3c0,0.1-0.1,0.2-0.2,0.2h-1.2c-0.2,0-0.3-0.2-0.2-0.4l2-4.2
				L115.9,24.1z"/>
			<path id="XMLID_11339_" fill="#868D8D" d="M61.2,34.4c2.8,0,5,2.3,5,5.1s-2.2,5-5,5c-2.8,0-5-2.2-5-5S58.4,34.4,61.2,34.4z
				 M61.2,42.6c1.8,0,3.2-1.4,3.2-3.2s-1.5-3.2-3.2-3.2S58,37.7,58,39.4S59.5,42.6,61.2,42.6z"/>
			<path id="XMLID_11342_" fill="#868D8D" d="M66.9,39.1c-0.1-0.2,0-0.3,0.2-0.3h1.2c0.1,0,0.2,0.1,0.3,0.2l1.1,2.6c0,0,0,0,0,0
				l1.2-2.6c0.1-0.1,0.2-0.2,0.3-0.2h1.1c0.2,0,0.3,0.2,0.2,0.3L70,44.3c0,0.1-0.1,0.1-0.2,0.1h-0.1c-0.1,0-0.2-0.1-0.2-0.1
				L66.9,39.1z"/>
			<path id="XMLID_11344_" fill="#868D8D" d="M76,38.6c1.4,0,2.6,1.1,2.6,2.6c0,0.1,0,0.3,0,0.4c0,0.1-0.1,0.2-0.3,0.2h-3.6
				c0,0.6,0.5,1.2,1.3,1.2c0.4,0,0.8-0.2,1.1-0.4c0.1-0.1,0.3-0.1,0.4,0l0.6,0.7c0.1,0.1,0.1,0.3,0,0.4c-0.5,0.4-1.2,0.8-2.1,0.8
				c-1.7,0-2.9-1.3-2.9-2.9C73.1,39.9,74.3,38.6,76,38.6z M77,40.8c0-0.5-0.5-1-1-1c-0.6,0-1,0.4-1.1,1H77z"/>
			<path id="XMLID_11347_" fill="#868D8D" d="M79.8,39c0-0.2,0.1-0.3,0.3-0.3h0.5c0.1,0,0.2,0.1,0.3,0.2l0.2,0.5
				c0.2-0.3,0.7-0.9,1.6-0.9c0.7,0,1.2,0.2,1.1,0.6l-0.5,0.9c-0.1,0.1-0.2,0.2-0.3,0.1c0,0-0.3-0.1-0.4-0.1c-0.6,0-0.9,0.4-1,0.6
				v3.4c0,0.2-0.1,0.3-0.3,0.3H80c-0.1,0-0.3-0.1-0.3-0.3V39z"/>
			<path id="XMLID_11349_" fill="#868D8D" d="M86.3,48.3c0,0.2-0.1,0.3-0.3,0.3h-1.1c-0.1,0-0.3-0.1-0.3-0.3V39
				c0-0.2,0.1-0.3,0.3-0.3h0.5c0.1,0,0.2,0.1,0.2,0.2l0.2,0.5c0.2-0.3,0.9-0.8,1.8-0.8c1.5,0,2.7,1.3,2.7,2.9c0,1.7-1.3,2.9-2.8,2.9
				c-0.5,0-1-0.2-1.2-0.3V48.3z M87.3,43c0.8,0,1.4-0.6,1.4-1.4c0-0.8-0.5-1.4-1.3-1.4c-0.7,0-1.1,0.6-1.1,0.9v1.7
				C86.2,42.6,86.6,43,87.3,43z"/>
			<path id="XMLID_11352_" fill="#868D8D" d="M91.5,39c0-0.2,0.1-0.3,0.3-0.3h0.5c0.1,0,0.2,0.1,0.3,0.2l0.2,0.5
				c0.2-0.3,0.7-0.9,1.6-0.9c0.7,0,1.2,0.2,1.1,0.6l-0.5,0.9c-0.1,0.1-0.2,0.2-0.3,0.1c0,0-0.3-0.1-0.4-0.1c-0.6,0-0.9,0.4-1,0.6
				v3.4c0,0.2-0.1,0.3-0.3,0.3h-1.1c-0.1,0-0.3-0.1-0.3-0.3V39z"/>
			<path id="XMLID_11354_" fill="#868D8D" d="M98.7,38.6c1.6,0,2.9,1.3,2.9,2.9c0,1.6-1.3,3-2.9,3c-1.6,0-2.9-1.3-2.9-3
				C95.8,39.9,97.1,38.6,98.7,38.6z M98.7,43c0.7,0,1.3-0.6,1.3-1.4c0-0.8-0.6-1.4-1.3-1.4c-0.8,0-1.3,0.6-1.3,1.4
				C97.4,42.3,98,43,98.7,43z"/>
			<path id="XMLID_11357_" fill="#868D8D" d="M102.1,39.1c-0.1-0.2,0-0.3,0.2-0.3h1.2c0.1,0,0.2,0.1,0.3,0.2l1.1,2.6c0,0,0,0,0,0
				l1.2-2.6c0.1-0.1,0.2-0.2,0.3-0.2h1.1c0.2,0,0.3,0.2,0.2,0.3l-2.6,5.3c0,0.1-0.1,0.1-0.2,0.1h-0.1c-0.1,0-0.2-0.1-0.2-0.1
				L102.1,39.1z"/>
			<path id="XMLID_11359_" fill="#868D8D" d="M108.6,35.8c0-0.5,0.4-1,1-1c0.5,0,1,0.4,1,1s-0.4,1-1,1
				C109,36.7,108.6,36.3,108.6,35.8z M108.7,39c0-0.2,0.1-0.3,0.3-0.3h1.2c0.1,0,0.3,0.1,0.3,0.3v5.1c0,0.1-0.1,0.3-0.3,0.3h-1.2
				c-0.1,0-0.3-0.1-0.3-0.3V39z"/>
			<path id="XMLID_11362_" fill="#868D8D" d="M111.7,43.7l0.4-0.8c0.1-0.1,0.2-0.2,0.3-0.1c0,0,0.6,0.3,1.3,0.3
				c0.3,0,0.5-0.1,0.5-0.4c0-0.3-0.2-0.4-0.9-0.7c-1.1-0.4-1.6-1-1.6-1.8s0.6-1.7,2.1-1.7c0.8,0,1.4,0.2,1.7,0.4
				c0.1,0.1,0.2,0.2,0.1,0.4l-0.3,0.7c-0.1,0.1-0.2,0.1-0.3,0.1c0,0-0.6-0.3-1.2-0.3c-0.3,0-0.5,0.1-0.5,0.3c0,0.3,0.3,0.3,0.8,0.5
				c1.1,0.4,1.9,0.9,1.9,2c0,0.9-0.8,1.7-2.2,1.7c-0.9,0-1.6-0.3-1.9-0.5C111.7,43.9,111.7,43.8,111.7,43.7z"/>
			<path id="XMLID_11364_" fill="#868D8D" d="M117,35.8c0-0.5,0.4-1,1-1c0.5,0,1,0.4,1,1s-0.4,1-1,1C117.4,36.7,117,36.3,117,35.8z
				 M117.1,39c0-0.2,0.1-0.3,0.3-0.3h1.2c0.1,0,0.3,0.1,0.3,0.3v5.1c0,0.1-0.1,0.3-0.3,0.3h-1.2c-0.1,0-0.3-0.1-0.3-0.3V39z"/>
			<path id="XMLID_11367_" fill="#868D8D" d="M123,38.6c1.6,0,2.9,1.3,2.9,2.9c0,1.6-1.3,3-2.9,3c-1.6,0-2.9-1.3-2.9-3
				C120.1,39.9,121.4,38.6,123,38.6z M123,43c0.7,0,1.3-0.6,1.3-1.4c0-0.8-0.6-1.4-1.3-1.4c-0.8,0-1.3,0.6-1.3,1.4
				C121.6,42.3,122.2,43,123,43z"/>
			<path id="XMLID_11370_" fill="#868D8D" d="M127.1,39c0-0.2,0.1-0.3,0.3-0.3h0.5c0.1,0,0.2,0.1,0.2,0.2l0.2,0.5
				c0.2-0.2,0.9-0.8,2-0.8c1.8,0,2.5,1.3,2.5,2.8v2.7c0,0.1-0.1,0.3-0.3,0.3h-1.1c-0.2,0-0.3-0.1-0.3-0.3v-2.8c0-0.7-0.4-1.2-1-1.2
				c-0.7,0-1.2,0.5-1.3,0.9v3.1c0,0.2-0.1,0.3-0.3,0.3h-1c-0.1,0-0.3-0.1-0.3-0.3V39z"/>
			<path id="XMLID_11372_" fill="#868D8D" d="M134.2,35.8c0-0.5,0.4-1,1-1c0.5,0,1,0.4,1,1s-0.4,1-1,1
				C134.6,36.7,134.2,36.3,134.2,35.8z M134.3,39c0-0.2,0.1-0.3,0.3-0.3h1.2c0.1,0,0.3,0.1,0.3,0.3v5.1c0,0.1-0.1,0.3-0.3,0.3h-1.2
				c-0.1,0-0.3-0.1-0.3-0.3V39z"/>
			<path id="XMLID_11375_" fill="#868D8D" d="M137.7,39c0-0.2,0.1-0.3,0.3-0.3h0.5c0.1,0,0.2,0.1,0.2,0.2l0.2,0.5
				c0.2-0.2,0.9-0.8,2-0.8c1.8,0,2.5,1.3,2.5,2.8v2.7c0,0.1-0.1,0.3-0.3,0.3H142c-0.2,0-0.3-0.1-0.3-0.3v-2.8c0-0.7-0.4-1.2-1-1.2
				c-0.7,0-1.2,0.5-1.3,0.9v3.1c0,0.2-0.1,0.3-0.4,0.3h-1c-0.1,0-0.3-0.1-0.3-0.3V39z"/>
			<path id="XMLID_11377_" fill="#868D8D" d="M145.4,42.3c0,0-0.4-0.5-0.4-1.3c0-1.3,1-2.4,2.4-2.4h2.5c0.2,0,0.3,0.1,0.3,0.3v0.5
				c0,0.1-0.1,0.2-0.2,0.2l-0.8,0.3c0,0,0.6,0.4,0.6,1.4c0,1.1-0.9,2.2-2.4,2.2c-0.5,0-0.9-0.1-1.1-0.1c-0.2,0-0.5,0.2-0.5,0.5
				c0,0.3,0.3,0.5,0.6,0.5h1.8c1.3,0,2.3,0.7,2.3,2c0,1.3-1,2.4-3.1,2.4c-2.1,0-2.9-1-2.9-1.9c0-0.8,0.7-1.2,0.8-1.3v0
				c-0.2-0.1-1-0.4-1-1.5C144.4,42.8,145.4,42.3,145.4,42.3z M147.4,47.3c0.8,0,1.3-0.3,1.3-0.9c0-0.3-0.2-0.7-1-0.7
				c-0.3,0-0.6,0-0.9,0.1c-0.2,0.1-0.6,0.3-0.6,0.7C146.2,46.9,146.7,47.3,147.4,47.3z M147.5,42.1c0.6,0,1-0.4,1-1c0-0.6-0.4-1-1-1
				c-0.6,0-1,0.4-1,1C146.5,41.7,146.9,42.1,147.5,42.1z"/>
		</g>
		<g id="XMLID_7449_">
			<rect id="XMLID_7459_" x="57.5" y="51.5" fill="#ED1C24" width="9.6" height="67.8"/>
			<polygon id="XMLID_7458_" fill="#4E87FF" points="67.1,97.1 57.5,105.8 57.5,119.3 67.1,119.3 			"/>
			<rect id="XMLID_7457_" x="81.4" y="51.5" fill="#ED1C24" width="9.6" height="67.8"/>
			<rect id="XMLID_7456_" x="105.2" y="51.5" fill="#ED1C24" width="9.6" height="67.8"/>
			<polygon id="XMLID_7455_" fill="#4E87FF" points="114.8,63.8 105.2,90.8 105.2,119.3 114.8,119.3 			"/>
			<rect id="XMLID_7454_" x="129.1" y="51.5" fill="#ED1C24" width="9.6" height="67.8"/>
			<polygon id="XMLID_7453_" fill="#4E87FF" points="138.7,79.5 129.1,70.3 129.1,119.3 138.7,119.3 			"/>
			<polygon id="XMLID_7452_" fill="#4E87FF" points="89.5,83.6 89.3,82.7 86.7,80.8 82.9,82.6 82.7,83.6 81.4,83.6 81.4,119.3 
				91,119.3 91,83.6 			"/>
			
				<path id="XMLID_7451_" fill="none" stroke="#EBEBEB" stroke-width="4" stroke-linecap="round" stroke-linejoin="round" stroke-miterlimit="10" d="
				M44.3,120c0,0,36.1-38.1,41.7-39.2c5.6-1,6.8,16.7,14,16.3c7.2-0.3,11.1-34.9,17.4-35.6s40.8,40.9,40.8,40.9l12.1,15.1
				c0.3,2.9-19.8,1.7-22.9,1.7L44.3,120z"/>
			
				<path id="XMLID_7450_" fill="none" stroke="#57C0FF" stroke-width="2" stroke-linecap="round" stroke-linejoin="round" stroke-miterlimit="10" d="
				M44.3,120c0,0,36.1-38.1,41.7-39.2c5.6-1,6.8,16.7,14,16.3c7.2-0.3,11.1-34.9,17.4-35.6s40.8,40.9,40.8,40.9l12.1,15.1
				c0.3,2.9-19.8,1.7-22.9,1.7L44.3,120z"/>
		</g>
		<path id="XMLID_7446_" fill="#CED0D1" d="M167.6,10.3H36.8c-3.5,0-6.3,2.8-6.3,6.3v100.8c0,3.5,2.8,6.3,6.3,6.3h130.8
			c3.5,0,6.3-2.8,6.3-6.3V16.7C174,13.2,171.1,10.3,167.6,10.3z M167.1,116.9H37.3V17.2h129.8V116.9z"/>
	</g>
	<g id="XMLID_7433_">
		<g id="XMLID_11293_">
			<g id="XMLID_16086_">
				<path id="XMLID_16252_" fill="#868D8D" d="M30.8,214.1l0.5-0.8c0.1-0.2,0.3-0.2,0.4-0.1c0.1,0,1.1,0.8,2,0.8
					c0.7,0,1.2-0.4,1.2-1c0-0.7-0.6-1.1-1.7-1.6c-1.2-0.5-2.4-1.3-2.4-2.8c0-1.2,0.9-2.5,2.9-2.5c1.3,0,2.3,0.7,2.6,0.9
					c0.1,0.1,0.2,0.3,0.1,0.4l-0.5,0.7c-0.1,0.2-0.3,0.3-0.5,0.2c-0.1-0.1-1.1-0.7-1.8-0.7c-0.7,0-1.1,0.5-1.1,0.9
					c0,0.6,0.5,1,1.5,1.5c1.3,0.5,2.7,1.3,2.7,2.9c0,1.3-1.2,2.6-3,2.6c-1.6,0-2.6-0.8-2.9-1C30.7,214.4,30.7,214.3,30.8,214.1z"/>
				<path id="XMLID_16249_" fill="#868D8D" d="M40.1,210.1c1.5,0,2.7,1.2,2.7,2.7c0,1.5-1.2,2.7-2.7,2.7s-2.7-1.2-2.7-2.7
					C37.5,211.3,38.7,210.1,40.1,210.1z M40.1,214.1c0.7,0,1.2-0.6,1.2-1.3c0-0.7-0.6-1.3-1.2-1.3c-0.7,0-1.2,0.6-1.2,1.3
					C38.9,213.5,39.4,214.1,40.1,214.1z"/>
				<path id="XMLID_16247_" fill="#868D8D" d="M44.3,211.5h-0.4c-0.1,0-0.2-0.1-0.2-0.2v-0.9c0-0.1,0.1-0.2,0.2-0.2h0.4v-1.4
					c0-1.7,1.1-2.6,2.4-2.6c0.7,0,1.3,0.3,1.5,0.5c0.1,0.1,0.1,0.2,0.1,0.3l-0.4,0.8c-0.1,0.1-0.2,0.1-0.3,0.1
					c-0.2-0.1-0.5-0.3-0.8-0.3c-0.6,0-0.9,0.4-0.9,1.2v1.4h1.3c0.1,0,0.2,0.1,0.2,0.2v0.9c0,0.1-0.1,0.2-0.2,0.2h-1.3v3.6
					c0,0.1-0.1,0.2-0.2,0.2h-1.1c-0.1,0-0.2-0.1-0.2-0.2V211.5z"/>
				<path id="XMLID_16245_" fill="#868D8D" d="M48.7,211.5h-0.4c-0.1,0-0.2-0.1-0.2-0.2v-0.9c0-0.1,0.1-0.2,0.2-0.2h0.4v-1.4
					c0-0.1,0.1-0.2,0.2-0.2l1.1,0c0.1,0,0.2,0.1,0.2,0.2v1.5h1.1c0.1,0,0.2,0.1,0.2,0.2v0.9c0,0.1-0.1,0.2-0.2,0.2h-1.1v2.1
					c0,0.4,0.2,0.4,0.4,0.4c0.2,0,0.5-0.1,0.6-0.1c0.1-0.1,0.2,0,0.3,0.1l0.3,0.8c0.1,0.1,0,0.3-0.1,0.3c-0.1,0-0.9,0.3-1.5,0.3
					c-1,0-1.4-0.6-1.4-1.7V211.5z"/>
				<path id="XMLID_16211_" fill="#868D8D" d="M52.4,210.5c-0.1-0.2,0-0.3,0.2-0.3h0.9c0.1,0,0.2,0.1,0.2,0.2l0.8,2.3h0l1.3-2.5
					c0-0.1,0.1-0.1,0.2-0.1h0.1c0.1,0,0.2,0.1,0.2,0.1l1.3,2.5h0l0.8-2.3c0.1-0.1,0.2-0.2,0.3-0.2h0.8c0.2,0,0.3,0.1,0.2,0.3
					l-1.6,4.9c0,0.1-0.1,0.1-0.2,0.1H58c-0.1,0-0.2-0.1-0.2-0.1l-1.6-3h0l-1.6,3c0,0.1-0.1,0.1-0.2,0.1h-0.1c-0.1,0-0.2-0.1-0.2-0.1
					L52.4,210.5z"/>
				<path id="XMLID_16208_" fill="#868D8D" d="M62.6,212.1c0.5,0,0.9,0.1,0.9,0.1c0-0.7-0.2-0.9-0.7-0.9c-0.5,0-1.2,0.1-1.5,0.2
					c-0.2,0.1-0.3-0.1-0.3-0.2l-0.1-0.7c0-0.2,0.1-0.3,0.2-0.3c0.1,0,0.9-0.2,1.8-0.2c1.6,0,2,0.8,2,2.3v2.8c0,0.1-0.1,0.2-0.2,0.2
					h-0.5c-0.1,0-0.2,0-0.2-0.2l-0.2-0.4c-0.3,0.3-0.8,0.7-1.6,0.7c-1,0-1.8-0.7-1.8-1.8C60.6,212.8,61.3,212.1,62.6,212.1z
					 M62.7,214.4c0.4,0,0.8-0.4,0.9-0.5v-0.7c0,0-0.4-0.2-0.7-0.2c-0.5,0-0.8,0.3-0.8,0.7C62,214.1,62.3,214.4,62.7,214.4z"/>
				<path id="XMLID_16206_" fill="#868D8D" d="M66.5,210.4c0-0.1,0.1-0.2,0.2-0.2h0.5c0.1,0,0.2,0.1,0.2,0.2l0.2,0.5
					c0.2-0.3,0.7-0.8,1.5-0.8c0.6,0,1.2,0.2,1,0.5l-0.5,0.8c-0.1,0.1-0.2,0.2-0.3,0.1c0,0-0.2-0.1-0.4-0.1c-0.5,0-0.8,0.4-0.9,0.5
					v3.1c0,0.2-0.1,0.2-0.3,0.2h-1c-0.1,0-0.2-0.1-0.2-0.2V210.4z"/>
				<path id="XMLID_16202_" fill="#868D8D" d="M73.1,210.1c1.3,0,2.4,1,2.4,2.4c0,0.1,0,0.3,0,0.4c0,0.1-0.1,0.2-0.2,0.2H72
					c0,0.5,0.5,1.1,1.2,1.1c0.4,0,0.8-0.2,1-0.3c0.1-0.1,0.2-0.1,0.3,0l0.5,0.6c0.1,0.1,0.1,0.2,0,0.3c-0.4,0.4-1.1,0.7-1.9,0.7
					c-1.6,0-2.7-1.2-2.7-2.7C70.5,211.3,71.6,210.1,73.1,210.1z M74,212.1c0-0.5-0.5-0.9-0.9-0.9c-0.5,0-0.9,0.4-1,0.9H74z"/>
				<path id="XMLID_16199_" fill="#868D8D" d="M84,206.2c2.6,0,4.7,2.1,4.7,4.7c0,2.6-2.1,4.7-4.7,4.7s-4.7-2.1-4.7-4.7
					C79.3,208.2,81.4,206.2,84,206.2z M84,213.8c1.6,0,3-1.3,3-3s-1.4-3-3-3s-3,1.4-3,3S82.3,213.8,84,213.8z"/>
				<path id="XMLID_16197_" fill="#868D8D" d="M89.7,210.4c0-0.1,0.1-0.2,0.2-0.2h0.5c0.1,0,0.2,0.1,0.2,0.2l0.2,0.5
					c0.2-0.2,0.8-0.8,1.8-0.8c1.7,0,2.3,1.2,2.3,2.6v2.5c0,0.1-0.1,0.2-0.2,0.2h-1.1c-0.1,0-0.2-0.1-0.2-0.2v-2.6
					c0-0.7-0.4-1.1-1-1.1c-0.7,0-1.1,0.5-1.2,0.8v2.9c0,0.2-0.1,0.2-0.3,0.2h-1c-0.1,0-0.2-0.1-0.2-0.2V210.4z"/>
				<path id="XMLID_16126_" fill="#868D8D" d="M96.5,206.5c0-0.1,0.1-0.2,0.2-0.2h1.1c0.1,0,0.2,0.1,0.2,0.2v8.6
					c0,0.1-0.1,0.2-0.2,0.2h-1.1c-0.1,0-0.2-0.1-0.2-0.2V206.5z"/>
				<path id="XMLID_16087_" fill="#868D8D" d="M98.9,210.5c-0.1-0.2,0-0.3,0.2-0.3h1.2c0.1,0,0.2,0.1,0.2,0.1l1.3,2.9h0l1.3-2.9
					c0.1-0.1,0.2-0.1,0.3-0.1h1c0.2,0,0.3,0.2,0.2,0.3l-4,8.6c0,0.1-0.1,0.2-0.2,0.2h-1.1c-0.2,0-0.3-0.2-0.2-0.4l1.8-3.9
					L98.9,210.5z"/>
			</g>
		</g>
		<path id="XMLID_7439_" fill="#858C8D" d="M67.5,146.7c-12.4,0-22.4,10-22.4,22.4s10,22.4,22.4,22.4s22.4-10,22.4-22.4
			S79.9,146.7,67.5,146.7z M83.1,179.4c0,1.1-0.9,2-2,2H53.9c-1.1,0-2-0.9-2-2v-20.5c0-1.1,0.9-2,2-2h27.3c1.1,0,2,0.9,2,2V179.4z"
			/>
		<g id="XMLID_7434_">
			<circle id="XMLID_7438_" fill="#848A8B" cx="55.2" cy="160.5" r="1.3"/>
			<circle id="XMLID_7437_" fill="#848A8B" cx="59.1" cy="160.5" r="1.3"/>
			<circle id="XMLID_7436_" fill="#848A8B" cx="63.1" cy="160.5" r="1.3"/>
			<rect id="XMLID_7435_" x="53.2" y="164.2" fill="#848A8B" width="28.5" height="15.7"/>
		</g>
	</g>
	<g id="XMLID_7283_">
		<g id="XMLID_11261_">
			<g id="XMLID_16213_">
				<path id="XMLID_16243_" fill="#868D8D" d="M134.2,206.2c1.3,0,2.3,0.4,3.1,1.2c0.1,0.1,0.1,0.3,0,0.4l-0.8,0.8
					c-0.1,0.1-0.2,0.1-0.3,0c-0.5-0.5-1.3-0.8-2-0.8c-1.7,0-2.9,1.4-2.9,3c0,1.6,1.2,3,2.9,3c0.8,0,1.4-0.3,2-0.7
					c0.1-0.1,0.2-0.1,0.3,0l0.8,0.8c0.1,0.1,0.1,0.3,0,0.4c-0.9,0.9-2,1.3-3.2,1.3c-2.6,0-4.7-2.1-4.7-4.7
					C129.5,208.2,131.6,206.2,134.2,206.2z"/>
				<path id="XMLID_16240_" fill="#868D8D" d="M140.8,210.1c1.5,0,2.7,1.2,2.7,2.7c0,1.5-1.2,2.7-2.7,2.7s-2.7-1.2-2.7-2.7
					C138.1,211.3,139.3,210.1,140.8,210.1z M140.8,214.1c0.7,0,1.2-0.6,1.2-1.3c0-0.7-0.6-1.3-1.2-1.3c-0.7,0-1.2,0.6-1.2,1.3
					C139.5,213.5,140.1,214.1,140.8,214.1z"/>
				<path id="XMLID_16238_" fill="#868D8D" d="M144.6,210.4c0-0.1,0.1-0.2,0.2-0.2h0.5c0.1,0,0.2,0.1,0.2,0.1l0.2,0.5
					c0.2-0.2,0.8-0.8,1.7-0.8c0.7,0,1.3,0.3,1.7,0.8c0.2-0.2,0.9-0.8,1.8-0.8c1.7,0,2.3,1.2,2.3,2.6v2.5c0,0.1-0.1,0.2-0.2,0.2h-1.1
					c-0.1,0-0.2-0.1-0.2-0.2v-2.6c0-0.7-0.3-1.1-1-1.1c-0.8,0-1.1,0.5-1.1,0.5s0,0.3,0,0.5v2.6c0,0.1-0.1,0.2-0.2,0.2h-1
					c-0.1,0-0.2-0.1-0.2-0.2v-2.6c0-0.7-0.3-1.1-1-1.1c-0.6,0-1,0.5-1.1,0.8v2.9c0,0.1-0.1,0.2-0.2,0.2h-1.1c-0.1,0-0.2-0.1-0.2-0.2
					V210.4z"/>
				<path id="XMLID_16236_" fill="#868D8D" d="M154.7,210.4c0-0.1,0.1-0.2,0.2-0.2h0.5c0.1,0,0.2,0.1,0.2,0.1l0.2,0.5
					c0.2-0.2,0.8-0.8,1.7-0.8c0.7,0,1.3,0.3,1.7,0.8c0.2-0.2,0.9-0.8,1.8-0.8c1.7,0,2.3,1.2,2.3,2.6v2.5c0,0.1-0.1,0.2-0.2,0.2h-1.1
					c-0.1,0-0.2-0.1-0.2-0.2v-2.6c0-0.7-0.3-1.1-1-1.1c-0.8,0-1.1,0.5-1.1,0.5s0,0.3,0,0.5v2.6c0,0.1-0.1,0.2-0.2,0.2h-1
					c-0.1,0-0.2-0.1-0.2-0.2v-2.6c0-0.7-0.3-1.1-1-1.1c-0.6,0-1,0.5-1.1,0.8v2.9c0,0.1-0.1,0.2-0.2,0.2h-1.1c-0.1,0-0.2-0.1-0.2-0.2
					V210.4z"/>
				<path id="XMLID_16233_" fill="#868D8D" d="M167.1,210.1c1.5,0,2.7,1.2,2.7,2.7c0,1.5-1.2,2.7-2.7,2.7s-2.7-1.2-2.7-2.7
					C164.4,211.3,165.6,210.1,167.1,210.1z M167.1,214.1c0.7,0,1.2-0.6,1.2-1.3c0-0.7-0.6-1.3-1.2-1.3c-0.7,0-1.2,0.6-1.2,1.3
					C165.8,213.5,166.4,214.1,167.1,214.1z"/>
				<path id="XMLID_16230_" fill="#868D8D" d="M173.1,210.1c0.5,0,0.9,0.1,1.2,0.2v-3.8c0-0.1,0.1-0.2,0.2-0.2h1.1
					c0.1,0,0.2,0.1,0.2,0.2v8.6c0,0.1-0.1,0.2-0.2,0.2h-0.5c-0.1,0-0.2-0.1-0.2-0.2l-0.1-0.4c0,0-0.6,0.8-1.7,0.8
					c-1.4,0-2.5-1.2-2.5-2.7C170.5,211.3,171.5,210.1,173.1,210.1z M173.2,214.1c0.7,0,1-0.5,1.1-0.8v-1.5c0,0-0.4-0.3-1-0.3
					c-0.7,0-1.3,0.6-1.3,1.3C172,213.5,172.5,214.1,173.2,214.1z"/>
				<path id="XMLID_16227_" fill="#868D8D" d="M177.3,207.4c0-0.5,0.4-0.9,0.9-0.9c0.5,0,0.9,0.4,0.9,0.9c0,0.5-0.4,0.9-0.9,0.9
					C177.7,208.3,177.3,207.9,177.3,207.4z M177.4,210.4c0-0.1,0.1-0.2,0.2-0.2h1.1c0.1,0,0.2,0.1,0.2,0.2v4.7
					c0,0.1-0.1,0.2-0.2,0.2h-1.1c-0.1,0-0.2-0.1-0.2-0.2V210.4z"/>
				<path id="XMLID_16225_" fill="#868D8D" d="M180.8,211.5h-0.4c-0.1,0-0.2-0.1-0.2-0.2v-0.9c0-0.1,0.1-0.2,0.2-0.2h0.4v-1.4
					c0-0.1,0.1-0.2,0.2-0.2l1.1,0c0.1,0,0.2,0.1,0.2,0.2v1.5h1.1c0.1,0,0.2,0.1,0.2,0.2v0.9c0,0.1-0.1,0.2-0.2,0.2h-1.1v2.1
					c0,0.4,0.2,0.4,0.4,0.4c0.2,0,0.5-0.1,0.6-0.1c0.1-0.1,0.2,0,0.3,0.1l0.3,0.8c0.1,0.1,0,0.3-0.1,0.3c-0.1,0-0.9,0.3-1.5,0.3
					c-1,0-1.4-0.6-1.4-1.7V211.5z"/>
				<path id="XMLID_16223_" fill="#868D8D" d="M184.4,210.5c-0.1-0.2,0-0.3,0.2-0.3h1.2c0.1,0,0.2,0.1,0.2,0.1l1.3,2.9h0l1.3-2.9
					c0.1-0.1,0.2-0.1,0.3-0.1h1c0.2,0,0.3,0.2,0.2,0.3l-4,8.6c0,0.1-0.1,0.2-0.2,0.2h-1.1c-0.2,0-0.3-0.2-0.2-0.4l1.8-3.9
					L184.4,210.5z"/>
				<path id="XMLID_16221_" fill="#868D8D" d="M193.5,215l1.7-2.3l-1.6-2.2c-0.1-0.2,0-0.4,0.2-0.4h1.1c0.2,0,0.3,0,0.4,0.2l0.8,1.2
					h0l0.9-1.2c0.1-0.1,0.2-0.2,0.4-0.2h1.2c0.2,0,0.3,0.2,0.2,0.4l-1.6,2.2l1.7,2.3c0.1,0.2,0.1,0.4-0.2,0.4h-1.1
					c-0.2,0-0.3-0.1-0.4-0.2l-0.9-1.3h0l-1,1.4c0,0.1-0.1,0.1-0.2,0.1h-1.2C193.4,215.4,193.3,215.2,193.5,215z"/>
				<path id="XMLID_16217_" fill="#868D8D" d="M201.2,210.8L201.2,210.8c-0.5-0.3-1.3-1-1.3-2.1c0-1.4,1.2-2.4,2.8-2.4
					c1.6,0,2.9,0.9,2.9,2.4c0,1-0.8,1.7-1.3,2v0.1c0.6,0.3,1.6,1.1,1.6,2.2c0,1.4-1.2,2.5-3.1,2.5c-1.9,0-3.1-1.1-3.1-2.5
					C199.6,211.9,200.8,211,201.2,210.8z M202.7,214.2c0.7,0,1.4-0.5,1.4-1.2c0-0.6-0.5-1.2-1.4-1.4c-0.9,0.2-1.4,0.8-1.4,1.4
					C201.3,213.7,202,214.2,202.7,214.2z M203.9,208.9c0-0.6-0.5-1.1-1.2-1.1c-0.6,0-1.2,0.5-1.2,1.1c0,0.6,0.4,1,1.2,1.2
					C203.5,209.9,203.9,209.4,203.9,208.9z"/>
				<path id="XMLID_16214_" fill="#868D8D" d="M211.3,206.3c0.2-0.1,0.3,0,0.4,0.2l0.3,0.8c0.1,0.2,0,0.3-0.2,0.4
					c-0.6,0.2-2.5,1.1-2.9,2.5c0.2-0.1,0.9-0.4,1.5-0.4c1.3,0,2.7,1,2.7,2.8c0,1.6-1.3,3-2.9,3c-2,0-3.1-1.6-3.1-3.6
					C206.9,208.1,210.1,206.6,211.3,206.3z M211.5,212.5c0-0.8-0.7-1.5-1.5-1.5c-0.9,0-1.4,0.7-1.5,1.1c0,0.9,0.5,1.9,1.5,1.9
					C210.8,214,211.5,213.3,211.5,212.5z"/>
			</g>
		</g>
		<path id="XMLID_7315_" fill="#858C8D" d="M171.2,146.7c-12.4,0-22.4,10-22.4,22.4s10,22.4,22.4,22.4s22.4-10,22.4-22.4
			S183.6,146.7,171.2,146.7z"/>
		<g id="XMLID_7284_">
			<circle id="XMLID_7314_" fill="#FFFFFF" cx="161.5" cy="169.2" r="6.6"/>
			<path id="XMLID_7310_" fill="#858C8D" d="M163.1,170L163.1,170c0-0.5-0.4-0.9-0.9-1.1c0.4-0.2,0.7-0.5,0.7-1v0
				c0-0.7-0.7-1.1-1.5-1.1s-1.5,0.5-1.5,1.1v0c0,0.5,0.3,0.8,0.7,1c-0.5,0.2-0.9,0.5-0.9,1.1v0c0,0.7,0.7,1.2,1.6,1.2
				C162.4,171.2,163.1,170.7,163.1,170z M160.5,167.9L160.5,167.9c0-0.4,0.4-0.8,1-0.8c0.6,0,1,0.3,1,0.7v0c0,0.5-0.4,0.8-1,0.8
				C161,168.7,160.5,168.4,160.5,167.9z M162.6,170c0,0.4-0.4,0.8-1.1,0.8c-0.7,0-1.1-0.4-1.1-0.8v0c0-0.5,0.5-0.8,1.1-0.8
				C162.1,169.1,162.6,169.5,162.6,170L162.6,170z"/>
			<path id="XMLID_7309_" fill="#858C8D" d="M158.6,169.5l1-1.2c0,0,0.1-0.1,0.1-0.2c0-0.1-0.1-0.2-0.2-0.2c-0.1,0-0.1,0-0.2,0.1
				l-0.9,1.2l-0.9-1.2c-0.1-0.1-0.1-0.1-0.2-0.1c-0.1,0-0.2,0.1-0.2,0.2c0,0.1,0,0.1,0.1,0.2l1,1.2l-1,1.3c0,0-0.1,0.1-0.1,0.2
				c0,0.1,0.1,0.2,0.2,0.2c0.1,0,0.1,0,0.2-0.1l1-1.2l1,1.2c0.1,0.1,0.1,0.1,0.2,0.1c0.1,0,0.2-0.1,0.2-0.2c0-0.1,0-0.1-0.1-0.2
				L158.6,169.5z"/>
			<path id="XMLID_7306_" fill="#858C8D" d="M165,171.2c0.9,0,1.5-0.6,1.5-1.4v0c0-0.8-0.7-1.3-1.5-1.3c-0.6,0-1,0.3-1.2,0.7
				c0-1.1,0.5-1.9,1.3-1.9c0.3,0,0.6,0.1,0.9,0.3c0,0,0.1,0,0.1,0c0.1,0,0.2-0.1,0.2-0.2c0-0.1,0-0.2-0.1-0.2
				c-0.3-0.2-0.7-0.4-1.1-0.4c-1.1,0-1.8,1-1.8,2.3v0c0,0.9,0.2,1.3,0.5,1.7C164.1,171,164.5,171.2,165,171.2z M163.9,169.8
				c0-0.5,0.4-0.9,1.1-0.9c0.6,0,1,0.4,1,0.9v0c0,0.5-0.4,1-1,1C164.4,170.8,163.9,170.3,163.9,169.8L163.9,169.8z"/>
			<path id="XMLID_7303_" fill="#FFFFFF" d="M185,158.6h-23.4c-0.3,0-0.5,0.2-0.5,0.4v3c0.2,0,0.5-0.1,0.7-0.1
				c2.3,0,4.4,1.1,5.7,2.8H185c0.3,0,0.5-0.2,0.5-0.4v-5.4C185.5,158.7,185.3,158.6,185,158.6z M183.4,162.4c0,0.1-0.1,0.2-0.2,0.2
				h-1.8c-0.1,0-0.2-0.1-0.2-0.2v-1.5c0-0.1,0.1-0.2,0.2-0.2h1.8c0.1,0,0.2,0.1,0.2,0.2V162.4z"/>
			<g id="XMLID_7288_">
				<g id="XMLID_7290_">
					<path id="XMLID_7291_" fill="#FFFFFF" d="M185,166h-16.6c0.5,1,0.8,2.1,0.8,3.3c0,1-0.2,2-0.6,2.8H185c0.3,0,0.5-0.2,0.5-0.4
						v-5.4C185.5,166.2,185.3,166,185,166z M183.4,169.8c0,0.1-0.1,0.2-0.2,0.2h-1.8c-0.1,0-0.2-0.1-0.2-0.2v-1.5
						c0-0.1,0.1-0.2,0.2-0.2h1.8c0.1,0,0.2,0.1,0.2,0.2V169.8z"/>
				</g>
			</g>
			<path id="XMLID_7285_" fill="#FFFFFF" d="M185,173.7h-17.3c-1.4,1.8-3.5,3-5.9,3c-0.2,0-0.5,0-0.7-0.1v2.8c0,0.2,0.2,0.4,0.5,0.4
				H185c0.3,0,0.5-0.2,0.5-0.4v-5.4C185.5,173.9,185.3,173.7,185,173.7z M183.4,177.5c0,0.1-0.1,0.2-0.2,0.2h-1.8
				c-0.1,0-0.2-0.1-0.2-0.2v-1.5c0-0.1,0.1-0.2,0.2-0.2h1.8c0.1,0,0.2,0.1,0.2,0.2V177.5z"/>
		</g>
	</g>
	<g id="XMLID_7272_">
		<g id="XMLID_11231_">
			<g id="XMLID_16128_">
				<path id="XMLID_16194_" fill="#868D8D" d="M239.4,206.2c2.6,0,4.7,2.1,4.7,4.7c0,2.6-2.1,4.7-4.7,4.7s-4.7-2.1-4.7-4.7
					C234.8,208.2,236.8,206.2,239.4,206.2z M239.4,213.8c1.6,0,3-1.3,3-3s-1.4-3-3-3s-3,1.4-3,3S237.8,213.8,239.4,213.8z"/>
				<path id="XMLID_16191_" fill="#868D8D" d="M246.8,219c0,0.2-0.1,0.2-0.3,0.2h-1c-0.1,0-0.2-0.1-0.2-0.2v-8.6
					c0-0.1,0.1-0.2,0.2-0.2h0.5c0.1,0,0.2,0.1,0.2,0.2l0.2,0.4c0.2-0.3,0.8-0.7,1.7-0.7c1.4,0,2.5,1.2,2.5,2.7
					c0,1.5-1.2,2.7-2.6,2.7c-0.5,0-1-0.2-1.2-0.3V219z M247.8,214.1c0.7,0,1.3-0.6,1.3-1.3c0-0.7-0.5-1.3-1.2-1.3
					c-0.7,0-1,0.5-1.1,0.8v1.6C246.7,213.8,247.1,214.1,247.8,214.1z"/>
				<path id="XMLID_16189_" fill="#868D8D" d="M255,206.5c0-0.1,0.1-0.2,0.2-0.2h5.3c0.1,0,0.2,0.1,0.2,0.2v1.1
					c0,0.1-0.1,0.2-0.2,0.2h-3.8v2.1h3.2c0.1,0,0.2,0.1,0.2,0.2v1.1c0,0.1-0.1,0.2-0.2,0.2h-3.2v2.3h3.8c0.1,0,0.2,0.1,0.2,0.2v1.1
					c0,0.1-0.1,0.2-0.2,0.2h-5.3c-0.1,0-0.2-0.1-0.2-0.2V206.5z"/>
				<path id="XMLID_16187_" fill="#868D8D" d="M261.6,215l1.7-2.3l-1.6-2.2c-0.1-0.2,0-0.4,0.2-0.4h1.1c0.2,0,0.3,0,0.4,0.2l0.8,1.2
					h0l0.9-1.2c0.1-0.1,0.2-0.2,0.4-0.2h1.2c0.2,0,0.3,0.2,0.2,0.4l-1.6,2.2l1.7,2.3c0.1,0.2,0.1,0.4-0.2,0.4h-1.1
					c-0.2,0-0.3-0.1-0.4-0.2l-0.9-1.3h0l-1,1.4c0,0.1-0.1,0.1-0.2,0.1h-1.2C261.5,215.4,261.5,215.2,261.6,215z"/>
				<path id="XMLID_16185_" fill="#868D8D" d="M271.2,206.4c0-0.1,0.1-0.2,0.2-0.2h0.3l5.4,5.7h0v-5.4c0-0.1,0.1-0.2,0.2-0.2h1.2
					c0.1,0,0.2,0.1,0.2,0.2v8.7c0,0.1-0.1,0.2-0.2,0.2h-0.3l-5.4-6h0v5.6c0,0.1-0.1,0.2-0.2,0.2h-1.2c-0.1,0-0.2-0.1-0.2-0.2V206.4z
					"/>
				<path id="XMLID_16182_" fill="#868D8D" d="M282.8,210.1c1.5,0,2.7,1.2,2.7,2.7c0,1.5-1.2,2.7-2.7,2.7s-2.7-1.2-2.7-2.7
					C280.1,211.3,281.3,210.1,282.8,210.1z M282.8,214.1c0.7,0,1.2-0.6,1.2-1.3c0-0.7-0.6-1.3-1.2-1.3c-0.7,0-1.2,0.6-1.2,1.3
					C281.6,213.5,282.1,214.1,282.8,214.1z"/>
				<path id="XMLID_16180_" fill="#868D8D" d="M286.9,211.5h-0.4c-0.1,0-0.2-0.1-0.2-0.2v-0.9c0-0.1,0.1-0.2,0.2-0.2h0.4v-1.4
					c0-0.1,0.1-0.2,0.2-0.2l1.1,0c0.1,0,0.2,0.1,0.2,0.2v1.5h1.1c0.1,0,0.2,0.1,0.2,0.2v0.9c0,0.1-0.1,0.2-0.2,0.2h-1.1v2.1
					c0,0.4,0.2,0.4,0.4,0.4c0.2,0,0.5-0.1,0.6-0.1c0.1-0.1,0.2,0,0.3,0.1l0.3,0.8c0.1,0.1,0,0.3-0.1,0.3c-0.1,0-0.9,0.3-1.5,0.3
					c-1,0-1.4-0.6-1.4-1.7V211.5z"/>
				<path id="XMLID_16139_" fill="#868D8D" d="M298.4,206.2c1.3,0,2.3,0.4,3.1,1.2c0.1,0.1,0.1,0.3,0,0.4l-0.8,0.8
					c-0.1,0.1-0.2,0.1-0.3,0c-0.5-0.5-1.3-0.8-2-0.8c-1.7,0-2.9,1.4-2.9,3c0,1.6,1.2,3,2.9,3c0.8,0,1.4-0.3,2-0.7
					c0.1-0.1,0.2-0.1,0.3,0l0.8,0.8c0.1,0.1,0.1,0.3,0,0.4c-0.9,0.9-2,1.3-3.2,1.3c-2.6,0-4.7-2.1-4.7-4.7
					C293.7,208.2,295.8,206.2,298.4,206.2z"/>
				<path id="XMLID_16136_" fill="#868D8D" d="M304.5,212.1c0.5,0,0.9,0.1,0.9,0.1c0-0.7-0.2-0.9-0.7-0.9c-0.5,0-1.2,0.1-1.5,0.2
					c-0.2,0.1-0.3-0.1-0.3-0.2l-0.1-0.7c0-0.2,0.1-0.3,0.2-0.3c0.1,0,0.9-0.2,1.8-0.2c1.6,0,2,0.8,2,2.3v2.8c0,0.1-0.1,0.2-0.2,0.2
					h-0.5c-0.1,0-0.2,0-0.2-0.2l-0.2-0.4c-0.3,0.3-0.8,0.7-1.6,0.7c-1,0-1.8-0.7-1.8-1.8C302.4,212.8,303.1,212.1,304.5,212.1z
					 M304.5,214.4c0.4,0,0.8-0.4,0.9-0.5v-0.7c0,0-0.4-0.2-0.7-0.2c-0.5,0-0.8,0.3-0.8,0.7C303.8,214.1,304.1,214.4,304.5,214.4z"/>
				<path id="XMLID_16133_" fill="#868D8D" d="M309.9,219c0,0.2-0.1,0.2-0.3,0.2h-1c-0.1,0-0.2-0.1-0.2-0.2v-8.6
					c0-0.1,0.1-0.2,0.2-0.2h0.5c0.1,0,0.2,0.1,0.2,0.2l0.2,0.4c0.2-0.3,0.8-0.7,1.7-0.7c1.4,0,2.5,1.2,2.5,2.7
					c0,1.5-1.2,2.7-2.6,2.7c-0.5,0-1-0.2-1.2-0.3V219z M310.9,214.1c0.7,0,1.3-0.6,1.3-1.3c0-0.7-0.5-1.3-1.2-1.3
					c-0.7,0-1,0.5-1.1,0.8v1.6C309.9,213.8,310.2,214.1,310.9,214.1z"/>
				<path id="XMLID_16131_" fill="#868D8D" d="M318.1,206.5c0-0.1,0.1-0.2,0.2-0.2h5.3c0.1,0,0.2,0.1,0.2,0.2v1.1
					c0,0.1-0.1,0.2-0.2,0.2h-3.8v2.1h3.2c0.1,0,0.2,0.1,0.2,0.2v1.1c0,0.1-0.1,0.2-0.2,0.2h-3.2v2.3h3.8c0.1,0,0.2,0.1,0.2,0.2v1.1
					c0,0.1-0.1,0.2-0.2,0.2h-5.3c-0.1,0-0.2-0.1-0.2-0.2V206.5z"/>
				<path id="XMLID_16129_" fill="#868D8D" d="M324.7,215l1.7-2.3l-1.6-2.2c-0.1-0.2,0-0.4,0.2-0.4h1.1c0.2,0,0.3,0,0.4,0.2l0.8,1.2
					h0l0.9-1.2c0.1-0.1,0.2-0.2,0.4-0.2h1.2c0.2,0,0.3,0.2,0.2,0.4l-1.6,2.2l1.7,2.3c0.1,0.2,0.1,0.4-0.2,0.4h-1.1
					c-0.2,0-0.3-0.1-0.4-0.2l-0.9-1.3h0l-1,1.4c0,0.1-0.1,0.1-0.2,0.1h-1.2C324.6,215.4,324.6,215.2,324.7,215z"/>
			</g>
		</g>
		<path id="XMLID_7278_" fill="#858C8D" d="M282.2,146.7c-12.4,0-22.4,10-22.4,22.4s10,22.4,22.4,22.4s22.4-10,22.4-22.4
			S294.6,146.7,282.2,146.7z"/>
		<g id="XMLID_7273_">
			<path id="XMLID_7274_" fill="#FFFFFF" d="M284.3,178.8c2.8,0,5-0.5,6.1-1.5s1.7-2.8,1.7-5.3c0-2.3-0.6-3.9-1.6-4.8
				c-1-0.9-3.1-1.4-6.1-1.6l-1,0v-6.3h0.9c2.2,0,3.3,1.2,3.3,2.9l0,0.7h4v-0.8c0-2.3-0.7-3.9-1.8-4.8c-1.1-0.9-2.7-1.3-6.3-1.3v-2.3
				h-2.7v2.3c-2.7,0-5.2,0.4-6.3,1.3c-1.2,0.9-1.6,2.6-1.6,5c0,2.5,0.5,4.2,1.7,5.1c1.2,0.9,3.6,1.4,6.3,1.4v6.4l-0.5,0
				c-1.6,0-2.6-0.2-3.1-0.6c-0.5-0.4-0.9-1.4-0.9-2.8v-0.8h-3.6l-0.1,1c0,2.4,0.5,4.3,1.7,5.2c1.1,1,3.1,1.5,5.9,1.5l0.6,0v2.3H277
				l5.2,5.2l5.2-5.2h-4.1v-2.3L284.3,178.8z M283.3,169.1c1.8,0,3.2,0.3,3.7,0.7c0.6,0.4,1,1.3,1,2.5c0,2.2-1.3,3.5-3.9,3.5h-0.9
				V169.1z M280.6,165.4c0,0-0.5,0-0.5,0c-2.4,0-3.4-1-3.4-3c0-1.9,1.1-2.8,3.5-2.8l0.4,0V165.4z"/>
		</g>
	</g>
</g>
<g id="Misc._Art" display="none">
	<rect id="XMLID_2898_" x="330" y="31.5" display="inline" fill="#868D8D" width="30" height="763.5"/>
	<rect id="XMLID_2728_" y="31.5" display="inline" fill="#868D8D" width="30" height="763.5"/>
</g>
</svg>
