<?xml version="1.0" encoding="utf-8"?>
<!-- Generator: Adobe Illustrator 19.2.1, SVG Export Plug-In . SVG Version: 6.00 Build 0)  -->
<svg version="1.1" xmlns="http://www.w3.org/2000/svg" xmlns:xlink="http://www.w3.org/1999/xlink" x="0px" y="0px"
	 viewBox="0 0 490 269.5" enable-background="new 0 0 490 269.5" xml:space="preserve">
<symbol  id="New_Symbol" viewBox="-14.9 -14.9 29.9 29.9">
	<path fill="#EC4F24" d="M14.9-9.7c0-2.9-2.3-5.2-5.2-5.2H-9.7c-2.9,0-5.2,2.3-5.2,5.2V9.7c0,2.9,2.3,5.2,5.2,5.2H9.7
		c2.9,0,5.2-2.3,5.2-5.2V-9.7z"/>
	<g>
		<path fill="#FFFFFF" d="M-0.1,3.6v1.7h-1.6c-0.1,0.6-0.3,1.1-0.6,1.6L-1.2,8l-1.2,1.2L-3.6,8c-0.5,0.3-1,0.6-1.6,0.7v1.6h-1.7V8.7
			C-7.4,8.6-8,8.4-8.5,8.1l-1.1,1.1L-10.8,8l1.1-1.1c-0.3-0.5-0.5-1-0.7-1.6h-1.6V3.6h1.6C-10.2,3-10,2.4-9.6,2l-1.1-1.1l1.2-1.2
			l1.2,1.2c0.5-0.3,1-0.5,1.6-0.6v-1.7h1.7v1.7c0.6,0.1,1.1,0.3,1.6,0.7l1.2-1.2l1.2,1.2L-2.4,2c0.3,0.5,0.5,1,0.7,1.6H-0.1z
			 M-6,1.8c-1.5,0-2.7,1.2-2.7,2.7S-7.5,7.1-6,7.1s2.7-1.2,2.7-2.7S-4.6,1.8-6,1.8z"/>
		<path fill="#FFFFFF" d="M12.3-4.1v1.9h-1.8c-0.1,0.6-0.4,1.2-0.7,1.7l1.3,1.3L9.7,2.1L8.5,0.8C8,1.2,7.4,1.4,6.7,1.5v1.8H4.9V1.6
			C4.2,1.4,3.6,1.2,3.1,0.8L1.9,2.1L0.5,0.7l1.2-1.2C1.4-1,1.2-1.6,1-2.3h-1.8v-1.9h1.8c0.1-0.6,0.4-1.2,0.7-1.8L0.5-7.2l1.3-1.3
			l1.3,1.3c0.5-0.3,1.1-0.6,1.7-0.7v-1.8h1.9v1.8c0.6,0.1,1.2,0.4,1.7,0.7l1.3-1.3l1.3,1.3L9.8-5.9c0.3,0.5,0.6,1.1,0.7,1.7H12.3z
			 M5.8-6.1c-1.6,0-3,1.3-3,3s1.3,3,3,3s3-1.3,3-3S7.4-6.1,5.8-6.1z"/>
	</g>
</symbol>
<g id="Artwork__x5B_Live_x5D_" display="none">
	<path id="XMLID_3805_" display="inline" fill="none" stroke="#B9BBBD" stroke-width="2" stroke-miterlimit="10" d="M437.6,39.8
		h34.3c5.4,0,9.7,4.4,9.7,9.7v176.8c0,5.4-4.4,9.7-9.7,9.7h-65.2"/>
	<path id="XMLID_3804_" display="inline" fill="none" stroke="#959595" stroke-width="2" stroke-miterlimit="10" d="M369.7,39.8
		H18.2c-5.4,0-9.7,4.4-9.7,9.7v102.3c0,5.4,4.4,9.7,9.7,9.7h381.9c5.4,0,9.7-4.4,9.7-9.7V67.4"/>
	<path id="outline_2_" display="inline" fill-rule="evenodd" clip-rule="evenodd" fill="#394D54" d="M67.2,231.7h4.6v4.7h2.3
		c1.1,0,2.2-0.2,3.2-0.5c0.5-0.2,1.1-0.4,1.5-0.7c-0.6-0.8-1-1.9-1.1-2.9c-0.1-1.4,0.2-3.3,1.1-4.4l0.5-0.6l0.6,0.5
		c1.4,1.2,2.7,2.8,2.9,4.6c1.7-0.5,3.8-0.4,5.3,0.5l0.6,0.4l-0.3,0.6c-1.3,2.5-4,3.3-6.7,3.2c-4,9.8-12.6,14.5-23.1,14.5
		c-5.4,0-10.4-2-13.2-6.8l0-0.1l-0.4-0.8c-1-2.1-1.3-4.4-1.1-6.7l0.1-0.7H48v-4.7h4.6v-4.5h9.2v-4.6h5.5V231.7z"/>
	<g id="body_colors_2_" display="inline">
		<path id="XMLID_3802_" fill="#00A9D9" d="M82.1,233.4c0.3-2.4-1.5-4.2-2.6-5.1c-1.3,1.5-1.5,5.3,0.5,6.9c-1.1,1-3.5,1.9-5.9,1.9
			H44.7c-0.2,2.5,0.2,4.8,1.2,6.8l0.3,0.6c0.2,0.4,0.4,0.7,0.7,1l0,0c1.2,0.1,2.3,0.1,3.3,0.1h0c2,0,3.6-0.3,4.9-0.7
			c0.2-0.1,0.4,0,0.4,0.2c0.1,0.2,0,0.4-0.2,0.4c-0.2,0.1-0.3,0.1-0.5,0.2h0c-1,0.3-2,0.5-3.4,0.5c0.1,0-0.1,0-0.1,0
			c0,0-0.1,0-0.2,0c-0.5,0-1.1,0-1.7,0c-0.6,0-1.3,0-2,0l0,0c2.5,2.7,6.3,4.4,11.1,4.4c10.2,0,18.8-4.5,22.6-14.5
			c2.7,0.3,5.3-0.4,6.5-2.7C85.9,232.3,83.5,232.7,82.1,233.4z"/>
		<path id="XMLID_3801_" fill="#24B7EA" d="M82.1,233.4c0.3-2.4-1.5-4.2-2.6-5.1c-1.3,1.5-1.5,5.3,0.5,6.9c-1.1,1-3.5,1.9-5.9,1.9
			H46.5c-0.1,3.8,1.3,6.7,3.8,8.5h0c2,0,3.6-0.3,4.9-0.7c0.2-0.1,0.4,0,0.4,0.2c0.1,0.2,0,0.4-0.2,0.4c-0.2,0.1-0.3,0.1-0.5,0.2h0
			c-1,0.3-2.1,0.5-3.5,0.6l0,0c3.5,1.8,8.5,1.8,14.2-0.4c6.4-2.5,12.4-7.1,16.6-12.5C82.2,233.3,82.2,233.4,82.1,233.4z"/>
		<path id="XMLID_3800_" fill="#008AB7" d="M44.8,240.1c0.2,1.3,0.6,2.6,1.2,3.7l0.3,0.6c0.2,0.4,0.4,0.7,0.7,1
			c1.2,0.1,2.3,0.1,3.3,0.1c2,0,3.6-0.3,4.9-0.7c0.2-0.1,0.4,0,0.4,0.2c0.1,0.2,0,0.4-0.2,0.4c-0.2,0.1-0.3,0.1-0.5,0.2h0
			c-1,0.3-2.1,0.5-3.5,0.6c0,0-0.1,0-0.2,0c-0.5,0-1.1,0-1.7,0c-0.6,0-1.3,0-2,0c2.5,2.7,6.3,4.4,11.1,4.4c8.7,0,16.3-3.3,20.7-10.5
			H44.8z"/>
		<path id="XMLID_3799_" fill="#039AC5" d="M46.8,240.1c0.5,2.4,1.8,4.2,3.6,5.5c2,0,3.6-0.3,4.9-0.7c0.2-0.1,0.4,0,0.4,0.2
			c0.1,0.2,0,0.4-0.2,0.4c-0.2,0.1-0.3,0.1-0.5,0.2h0c-1,0.3-2.1,0.5-3.5,0.6c3.5,1.8,8.5,1.7,14.2-0.5c3.5-1.3,6.8-3.3,9.8-5.7
			H46.8z"/>
	</g>
	<g id="Containers_2_" display="inline">
		<path id="XMLID_3791_" fill-rule="evenodd" clip-rule="evenodd" fill="#00ABD2" d="M52.1,232.8h0.3v3.3h-0.3V232.8z M51.5,232.8
			h0.3v3.3h-0.3V232.8z M50.9,232.8h0.3v3.3h-0.3V232.8z M50.3,232.8h0.3v3.3h-0.3V232.8z M49.7,232.8H50v3.3h-0.3V232.8z
			 M49.1,232.8h0.3v3.3h-0.3V232.8z M48.7,232.4h4v3.9h-4V232.4z"/>
		<path id="XMLID_3783_" fill-rule="evenodd" clip-rule="evenodd" fill="#00ABD2" d="M56.7,228.2H57v3.3h-0.3V228.2z M56.1,228.2
			h0.3v3.3h-0.3V228.2z M55.5,228.2h0.3v3.3h-0.3V228.2z M54.8,228.2h0.3v3.3h-0.3V228.2z M54.2,228.2h0.3v3.3h-0.3V228.2z
			 M53.7,228.2H54v3.3h-0.3V228.2z M53.3,227.9h4v3.9h-4V227.9z"/>
		<path id="XMLID_3775_" fill-rule="evenodd" clip-rule="evenodd" fill="#20C1EE" d="M56.7,232.8H57v3.3h-0.3V232.8z M56.1,232.8
			h0.3v3.3h-0.3V232.8z M55.5,232.8h0.3v3.3h-0.3V232.8z M54.8,232.8h0.3v3.3h-0.3V232.8z M54.2,232.8h0.3v3.3h-0.3V232.8z
			 M53.7,232.8H54v3.3h-0.3V232.8z M53.3,232.4h4v3.9h-4V232.4z"/>
		<path id="XMLID_3767_" fill-rule="evenodd" clip-rule="evenodd" fill="#00ABD2" d="M61.2,232.8h0.3v3.3h-0.3V232.8z M60.6,232.8
			H61v3.3h-0.3V232.8z M60,232.8h0.3v3.3H60V232.8z M59.4,232.8h0.3v3.3h-0.3V232.8z M58.8,232.8h0.3v3.3h-0.3V232.8z M58.2,232.8
			h0.3v3.3h-0.3V232.8z M57.9,232.4h4v3.9h-4V232.4z"/>
		<path id="XMLID_3759_" fill-rule="evenodd" clip-rule="evenodd" fill="#20C1EE" d="M61.2,228.2h0.3v3.3h-0.3V228.2z M60.6,228.2
			H61v3.3h-0.3V228.2z M60,228.2h0.3v3.3H60V228.2z M59.4,228.2h0.3v3.3h-0.3V228.2z M58.8,228.2h0.3v3.3h-0.3V228.2z M58.2,228.2
			h0.3v3.3h-0.3V228.2z M57.9,227.9h4v3.9h-4V227.9z"/>
		<path id="XMLID_3751_" fill-rule="evenodd" clip-rule="evenodd" fill="#20C1EE" d="M65.8,232.8h0.3v3.3h-0.3V232.8z M65.2,232.8
			h0.3v3.3h-0.3V232.8z M64.6,232.8H65v3.3h-0.3V232.8z M64,232.8h0.3v3.3H64V232.8z M63.4,232.8h0.3v3.3h-0.3V232.8z M62.8,232.8
			h0.3v3.3h-0.3V232.8z M62.5,232.4h4v3.9h-4V232.4z"/>
		<path id="XMLID_3743_" fill-rule="evenodd" clip-rule="evenodd" fill="#00ABD2" d="M65.8,228.2h0.3v3.3h-0.3V228.2z M65.2,228.2
			h0.3v3.3h-0.3V228.2z M64.6,228.2H65v3.3h-0.3V228.2z M64,228.2h0.3v3.3H64V228.2z M63.4,228.2h0.3v3.3h-0.3V228.2z M62.8,228.2
			h0.3v3.3h-0.3V228.2z M62.5,227.9h4v3.9h-4V227.9z"/>
		<path id="XMLID_3735_" fill-rule="evenodd" clip-rule="evenodd" fill="#20C1EE" d="M65.8,223.7h0.3v3.3h-0.3V223.7z M65.2,223.7
			h0.3v3.3h-0.3V223.7z M64.6,223.7H65v3.3h-0.3V223.7z M64,223.7h0.3v3.3H64V223.7z M63.4,223.7h0.3v3.3h-0.3V223.7z M62.8,223.7
			h0.3v3.3h-0.3V223.7z M62.5,223.3h4v3.9h-4V223.3z"/>
		<path id="XMLID_3727_" fill-rule="evenodd" clip-rule="evenodd" fill="#00ABD2" d="M70.4,232.8h0.3v3.3h-0.3V232.8z M69.8,232.8
			h0.3v3.3h-0.3V232.8z M69.2,232.8h0.3v3.3h-0.3V232.8z M68.6,232.8h0.3v3.3h-0.3V232.8z M68,232.8h0.3v3.3H68V232.8z M67.4,232.8
			h0.3v3.3h-0.3V232.8z M67.1,232.4h4v3.9h-4V232.4z"/>
	</g>
	<path id="XMLID_3726_" display="inline" fill-rule="evenodd" clip-rule="evenodd" fill="#D3ECF0" d="M57.1,242.8
		c0.6,0,1.1,0.5,1.1,1.1c0,0.6-0.5,1.1-1.1,1.1c-0.6,0-1.1-0.5-1.1-1.1C56,243.2,56.4,242.8,57.1,242.8"/>
	<path id="XMLID_3725_" display="inline" fill-rule="evenodd" clip-rule="evenodd" fill="#394D54" d="M57.1,243.1
		c0.1,0,0.2,0,0.3,0.1c-0.1,0.1-0.2,0.2-0.2,0.3c0,0.2,0.1,0.3,0.3,0.3c0.1,0,0.2-0.1,0.3-0.2c0,0.1,0.1,0.2,0.1,0.3
		c0,0.4-0.4,0.8-0.8,0.8c-0.4,0-0.8-0.3-0.8-0.8C56.3,243.4,56.6,243.1,57.1,243.1"/>
	<path id="XMLID_3724_" display="inline" fill-rule="evenodd" clip-rule="evenodd" fill="#394D54" d="M37.6,240.5h24h3h24
		c-1.1-0.3-3.5-0.7-3.1-2.1c-2,2.3-6.9,1.6-8.1,0.5c-1.4,2-9.3,1.2-9.9-0.3c-1.7,2-7,2-8.8,0c-0.6,1.5-8.5,2.3-9.9,0.3
		c-1.2,1.1-6.1,1.8-8.1-0.5C41.2,239.9,38.8,240.2,37.6,240.5"/>
	<path id="XMLID_3723_" display="inline" fill="#BEDADF" d="M60,250.6c-2.7-1.3-4.2-3-5-4.9c-1,0.3-2.2,0.5-3.6,0.5
		c-0.5,0-1.1,0-1.7,0c-0.7,0-1.4,0-2.1-0.1c2.5,2.5,5.6,4.4,11.2,4.4C59.1,250.6,59.6,250.6,60,250.6z"/>
	<path id="XMLID_3722_" display="inline" fill="#D3ECF0" d="M55.9,247.4c-0.4-0.5-0.7-1.1-1-1.8c-1,0.3-2.2,0.5-3.6,0.5
		C52.3,246.8,53.7,247.2,55.9,247.4z"/>
	<path id="XMLID_3711_" display="inline" fill-rule="evenodd" clip-rule="evenodd" fill="#394D54" d="M142.3,242.6
		c1.6-1.3,3.1-2.7,4.7-4c0.5-0.5,1.1-0.9,1.7-1.4c-0.4-0.5-1.1-0.9-1.7-1.1c-1.2-0.5-2.4-0.3-3.5,0.3c-1.5,0.8-2.1,2.2-2,3.8
		c0,0.7,0.2,1.3,0.5,1.8C142,242.2,142.1,242.4,142.3,242.6 M144.1,243.9c0.8,0.3,1.6,0.2,2.4,0.1c0.4-0.2,1.4-0.6,1.8-0.6l0.1,0
		l0.1,0c0.2,0.1,0.5,0.3,0.6,0.5c0.3,0.5,0.1,1.1-0.4,1.4l-0.2,0.1c-2,1.1-4.1,1-6.1-0.1c-1-0.5-1.7-1.3-2.2-2.2L140,243
		c-1.3-2.2-1.1-4.5,0.3-6.6c0.5-0.7,1.2-1.3,1.9-1.7l0.3-0.2c1.9-1.1,3.9-1,5.9-0.1c1,0.5,1.9,1.3,2.5,2.3l0.1,0.2
		c0.4,0.7-0.1,1.4-0.7,1.8c-0.7,0.5-1.3,1.1-1.9,1.6C146.9,241.5,145.5,242.7,144.1,243.9z M159.1,233.8h0.2c0.6,0,1.1,0.4,1.1,1
		c0,0.9-0.8,1.1-1.6,1.1c-1,0-1.9,0.6-2.5,1.2c-0.8,0.8-1.2,1.8-1.2,2.9v5.1c0,0.6-0.4,1-1,1H154c-0.6,0-1-0.5-1-1v-5.4
		c0-2.1,1-3.7,2.7-4.9C156.8,234.2,157.9,233.8,159.1,233.8z M132.8,237.4c0.8-0.8,1.6-1.6,2.5-2.4c0.2-0.2,1.1-1.2,1.5-1.2h0.4l0,0
		c0.5,0.1,0.8,0.4,0.8,0.9v0.2c0,0.4-0.4,0.8-0.6,1c-0.5,0.5-1,1-1.5,1.5l-2.6,2.6c1.1,1.1,2.2,2.2,3.3,3.3c0.3,0.3,0.6,0.6,0.9,0.9
		c0.1,0.1,0.3,0.2,0.3,0.4c0.1,0.1,0.2,0.3,0.2,0.5v0.2l0,0.1c-0.1,0.5-0.4,0.9-1,0.9h-0.2c-0.3,0-0.7-0.4-1-0.6
		c-0.5-0.5-1-0.9-1.5-1.4l-1.6-1.6v2.5c0,0.6-0.4,1-1,1h-0.2c-0.6,0-1-0.5-1-1v-14.2c0-0.6,0.4-1,1-1h0.2c0.6,0,1,0.5,1,1V237.4z
		 M125.9,236c-0.3-0.1-0.9-0.2-1.3-0.2c-1.8-0.1-3,0.9-3.8,2.5c-0.3,0.5-0.4,1.1-0.4,1.7c0,1.8,1,3.1,2.6,3.8c0.6,0.3,1.4,0.3,2,0.3
		c0.6,0,1.4-0.3,1.9-0.6l0.1,0h0.4l0,0c0.5,0.1,0.8,0.4,0.8,0.9v0.2c0,1.3-2.4,1.6-3.3,1.6c-3.2,0.2-5.5-1.5-6.4-4.5
		c-0.2-0.5-0.2-1-0.2-1.6v-0.4c0-2.3,1.1-4.1,3.1-5.2c0.9-0.5,1.9-0.8,3-0.8h0.4c1.1,0,2.2,0.3,3.1,0.9l0.1,0.1l0,0.1
		c0.1,0.2,0.2,0.4,0.2,0.6v0.2c0,0.5-0.4,0.8-0.9,0.9l0,0h-0.1C126.9,236.4,126.2,236.1,125.9,236z M106.6,240
		c0,1.6,0.8,2.8,2.1,3.6c0.6,0.4,1.3,0.6,2.1,0.6c1.6,0,2.8-0.8,3.6-2.1c0.4-0.6,0.6-1.3,0.6-2.1c0-1.5-0.7-2.6-2-3.4
		c-0.7-0.5-1.4-0.7-2.2-0.7c-1.8,0-3,0.9-3.8,2.5C106.8,238.8,106.6,239.4,106.6,240z M110.6,233.7h0.3c2.5,0,4.3,1.2,5.5,3.3
		c0.5,0.8,0.7,1.8,0.7,2.7v0.4c0,2.3-1.1,4.1-3.1,5.2c-0.9,0.5-1.9,0.8-3,0.8h-0.4c-2.3,0-4.1-1.1-5.3-3.1c-0.5-0.9-0.8-1.9-0.8-3
		v-0.4c0-2.3,1.1-4.1,3.1-5.2C108.5,234,109.6,233.7,110.6,233.7z M92.8,240c0,1.6,0.8,2.9,2.3,3.7c0.6,0.3,1.2,0.5,1.9,0.5
		c1.6,0,2.8-0.8,3.7-2.1c0.4-0.6,0.6-1.3,0.6-2.1c0-1.4-0.7-2.5-1.8-3.4c-0.7-0.5-1.5-0.8-2.4-0.8c-1.8,0-3,0.9-3.8,2.5
		C92.9,238.8,92.8,239.4,92.8,240z M101.2,235.3v-4.4c0-0.6,0.4-1.1,1-1.1h0.2c0.6,0,1,0.5,1,1.1v9.3c0,2.3-1.1,4.1-3.1,5.2
		c-0.9,0.5-1.9,0.8-3,0.8h-0.4c-2.3,0-4.1-1.1-5.3-3.1c-0.5-0.9-0.8-1.9-0.8-3v-0.4c0-2.3,1.1-4.1,3.1-5.2c0.9-0.5,1.9-0.8,3-0.8
		h0.4C98.7,233.7,100.1,234.3,101.2,235.3z"/>
	<path id="XMLID_3842_" display="inline" fill="#57BFFF" d="M278.4,111.5h-26.8c-3.9,0-7-3.1-7-7V77.7c0-3.9,3.1-7,7-7h26.8
		c3.9,0,7,3.1,7,7v26.8C285.4,108.4,282.2,111.5,278.4,111.5z"/>
	<g id="XMLID_3840_" display="inline">
		
			<rect id="XMLID_3841_" x="251.3" y="80.7" transform="matrix(0.8544 0.5196 -0.5196 0.8544 79.7197 -121.7505)" fill="#FFFFFF" stroke="#FFFFFF" stroke-width="0.8362" stroke-miterlimit="10" width="11.6" height="1.3"/>
	</g>
	<g id="XMLID_3838_" display="inline">
		
			<rect id="XMLID_3839_" x="258.1" y="89.4" transform="matrix(0.3026 0.9531 -0.9531 0.3026 269.8749 -188.6713)" fill="#FFFFFF" stroke="#FFFFFF" stroke-width="0.8362" stroke-miterlimit="10" width="11.6" height="1.3"/>
	</g>
	<g id="XMLID_3836_" display="inline">
		
			<rect id="XMLID_3837_" x="255.2" y="99.3" transform="matrix(-0.7462 0.6657 -0.6657 -0.7462 522.2848 0.6967)" fill="#FFFFFF" stroke="#FFFFFF" stroke-width="0.8362" stroke-miterlimit="10" width="11.6" height="1.3"/>
	</g>
	<g id="XMLID_3834_" display="inline">
		
			<rect id="XMLID_3835_" x="264.7" y="99.7" transform="matrix(-0.7168 -0.6973 0.6973 -0.7168 394.4183 360.8441)" fill="#FFFFFF" stroke="#FFFFFF" stroke-width="0.8362" stroke-miterlimit="10" width="11.6" height="1.3"/>
	</g>
	<circle id="XMLID_3833_" display="inline" fill="#FFFFFF" cx="252.4" cy="78.3" r="3.2"/>
	<circle id="XMLID_3832_" display="inline" fill="#18D18D" cx="252.4" cy="78.3" r="1.5"/>
	<circle id="XMLID_3831_" display="inline" fill="#FFFFFF" cx="261.8" cy="84.1" r="3.2"/>
	<circle id="XMLID_3830_" display="inline" fill="#FFFFFF" cx="265.8" cy="95.8" r="3.2"/>
	<circle id="XMLID_3829_" display="inline" fill="#FFFFFF" cx="256.3" cy="104.2" r="3.2"/>
	<circle id="XMLID_3828_" display="inline" fill="#FFFFFF" cx="274.8" cy="104.3" r="3.2"/>
	<circle id="XMLID_3827_" display="inline" fill="#18D18D" cx="261.8" cy="84.1" r="1.5"/>
	<circle id="XMLID_3826_" display="inline" fill="#18D18D" cx="265.8" cy="95.8" r="1.5"/>
	<circle id="XMLID_3825_" display="inline" fill="#18D18D" cx="274.8" cy="104.3" r="1.5"/>
	<circle id="XMLID_3824_" display="inline" fill="#18D18D" cx="256.3" cy="104.2" r="1.5"/>
	<g id="XMLID_1718_" display="inline">
		<text transform="matrix(1 0 0 1 241.0377 136.9722)" fill="#868D8D" font-family="'BrandonGrotesque-Bold'" font-size="13px">App Map</text>
	</g>
	<g id="XMLID_3812_" display="inline">
		<path id="XMLID_216_" fill="#57BFFF" stroke="#FFFFFF" stroke-width="1.6083" stroke-miterlimit="10" d="M374.6,105h-22.4
			c-3.2,0-5.8-2.6-5.8-5.8V76.7c0-3.2,2.6-5.8,5.8-5.8h22.4c3.2,0,5.8,2.6,5.8,5.8v22.4C380.5,102.3,377.9,105,374.6,105z"/>
		<path id="XMLID_303_" fill="#57BFFF" stroke="#FFFFFF" stroke-width="1.6083" stroke-miterlimit="10" d="M364.7,108.9H347
			c-2.5,0-4.6-2.1-4.6-4.6V86.6c0-2.5,2.1-4.6,4.6-4.6h17.7c2.5,0,4.6,2.1,4.6,4.6v17.7C369.3,106.8,367.3,108.9,364.7,108.9z"/>
		<path id="XMLID_151_" fill="#57BFFF" stroke="#FFFFFF" stroke-width="1.6083" stroke-miterlimit="10" d="M354.8,112.8h-12.9
			c-1.9,0-3.4-1.5-3.4-3.4V96.5c0-1.9,1.5-3.4,3.4-3.4h12.9c1.9,0,3.4,1.5,3.4,3.4v12.9C358.2,111.3,356.6,112.8,354.8,112.8z"/>
	</g>
	<g id="XMLID_3809_" display="inline">
		
			<rect id="XMLID_3811_" x="344.2" y="101.8" transform="matrix(0.7071 -0.7071 0.7071 0.7071 27.8612 275.9577)" fill="#FFFFFF" width="5.7" height="5.1"/>
		<polygon id="XMLID_3810_" fill="#FFFFFF" points="352.8,106.7 344.7,98.6 352.8,98.6 		"/>
	</g>
	<g id="XMLID_1719_" display="inline">
		<text transform="matrix(1 0 0 1 321.5912 136.9722)" fill="#868D8D" font-family="'BrandonGrotesque-Bold'" font-size="13px">App Scale Out</text>
	</g>
	<path id="XMLID_3949_" display="inline" fill="#57BFFF" d="M76.2,111.5H49.3c-3.9,0-7-3.1-7-7V77.7c0-3.9,3.1-7,7-7h26.8
		c3.9,0,7,3.1,7,7v26.8C83.2,108.4,80,111.5,76.2,111.5z"/>
	
		<ellipse id="XMLID_3910_" transform="matrix(0.7071 -0.7071 0.7071 0.7071 -45.1408 68.9273)" display="inline" fill-rule="evenodd" clip-rule="evenodd" fill="none" stroke="#FFFFFF" stroke-width="3.3447" stroke-linecap="round" stroke-linejoin="round" stroke-miterlimit="10" cx="60.6" cy="89" rx="8.2" ry="8.2"/>
	
		<line id="XMLID_3907_" display="inline" fill-rule="evenodd" clip-rule="evenodd" fill="none" stroke="#FFFFFF" stroke-width="3.3447" stroke-linecap="round" stroke-linejoin="round" stroke-miterlimit="10" x1="66.4" y1="94.7" x2="73.2" y2="101.5"/>
	<g id="XMLID_3884_" display="inline">
		<text transform="matrix(1 0 0 1 17.3659 136.9722)" fill="#868D8D" font-family="'BrandonGrotesque-Bold'" font-size="13px">Service Discovery</text>
	</g>
	<g id="XMLID_3893_" display="inline">
		<text transform="matrix(1 0 0 1 139.3911 136.9722)" fill="#868D8D" font-family="'BrandonGrotesque-Bold'" font-size="13px">Service Proxy</text>
	</g>
	<path id="XMLID_3896_" display="inline" fill="#57BFFF" d="M174.5,68.7c-12.4,0-22.4,10-22.4,22.4s10,22.4,22.4,22.4
		c12.4,0,22.4-10,22.4-22.4S186.8,68.7,174.5,68.7z"/>
	<g id="XMLID_3885_" display="inline">
		<path id="XMLID_3892_" fill="#FFFFFF" d="M177.2,86.4H171c-0.6,0-1.2-0.5-1.2-1.2v-3.9c0-0.6,0.5-1.2,1.2-1.2h6.2
			c0.6,0,1.2,0.5,1.2,1.2v3.9C178.4,85.9,177.9,86.4,177.2,86.4z"/>
		<path id="XMLID_3891_" fill="#FFFFFF" d="M166.5,101.9h-6.2c-0.6,0-1.2-0.5-1.2-1.2v-3.9c0-0.6,0.5-1.2,1.2-1.2h6.2
			c0.6,0,1.2,0.5,1.2,1.2v3.9C167.7,101.4,167.2,101.9,166.5,101.9z"/>
		<path id="XMLID_3890_" fill="#FFFFFF" d="M177.6,101.9h-6.2c-0.6,0-1.2-0.5-1.2-1.2v-3.9c0-0.6,0.5-1.2,1.2-1.2h6.2
			c0.6,0,1.2,0.5,1.2,1.2v3.9C178.7,101.4,178.2,101.9,177.6,101.9z"/>
		<path id="XMLID_3889_" fill="#FFFFFF" d="M188.6,101.9h-6.2c-0.6,0-1.2-0.5-1.2-1.2v-3.9c0-0.6,0.5-1.2,1.2-1.2h6.2
			c0.6,0,1.2,0.5,1.2,1.2v3.9C189.8,101.4,189.3,101.9,188.6,101.9z"/>
		<rect id="XMLID_3888_" x="173.5" y="86.4" fill="#FFFFFF" width="1.2" height="9.8"/>
		
			<rect id="XMLID_3887_" x="168.7" y="84.9" transform="matrix(0.7071 0.7071 -0.7071 0.7071 114.4088 -92.8299)" fill="#FFFFFF" width="1.2" height="13.7"/>
		
			<rect id="XMLID_3886_" x="178.6" y="84.8" transform="matrix(0.7071 -0.7071 0.7071 0.7071 -12.4348 153.5725)" fill="#FFFFFF" width="1.2" height="14"/>
	</g>
	
		<use xlink:href="#New_Symbol"  width="29.9" height="29.9" id="XMLID_3678_" x="-14.9" y="-14.9" transform="matrix(1.6741 0 0 -1.6741 406.4137 33.8507)" display="inline" overflow="visible"/>
	<polygon id="XMLID_2889_" display="inline" fill="#FFFFFF" points="238.4,244.1 226.6,237.2 226.3,236.4 226.3,222.9 226.6,222.1 
		238.4,215.2 239.2,215.2 251.1,222.1 251.4,222.8 251.4,236.4 251.1,237.2 239.2,244.1 	"/>
	<g id="XMLID_1731_" display="inline">
		<path id="XMLID_2709_" fill="#FFFFFF" d="M232.7,226.5c0,2.2,0,4.2,0,6.3c1.9-1.1,3.6-2.1,5.5-3.2
			C236.3,228.5,234.6,227.5,232.7,226.5z M238.2,237.2c-1.9-1.1-3.6-2.1-5.5-3.2c0,2.2,0,4.2,0,6.4
			C234.5,239.3,236.2,238.3,238.2,237.2z M238.4,244.1c0-2.2,0-4.2,0-6.3c-1.8,1.1-3.5,2-5.4,3.1C234.8,242,236.5,243,238.4,244.1z
			 M233,233.4c1.9,1.1,3.6,2.1,5.4,3.1c0-2.2,0-4.1,0-6.3C236.5,231.3,234.9,232.3,233,233.4z M238.4,215.2
			c-1.9,1.1-3.6,2.1-5.4,3.2c1.9,1.1,3.6,2.1,5.4,3.1C238.4,219.3,238.4,217.4,238.4,215.2z M239.2,236.6c1.9-1.1,3.6-2.1,5.5-3.2
			c-1.9-1.1-3.6-2.1-5.5-3.2C239.2,232.4,239.2,234.4,239.2,236.6z M251.1,229.6c-1.9-1.1-3.5-2-5.3-3c0,2.1,0,4,0,6.1
			C247.6,231.7,249.2,230.7,251.1,229.6z M239.2,237.8c0,2.2,0,4.1,0,6.3c1.9-1.1,3.6-2.1,5.5-3.1
			C242.8,239.8,241.1,238.9,239.2,237.8z M251.1,237.2c-1.9-1.1-3.5-2-5.3-3c0,2.1,0,4,0,6.1C247.6,239.2,249.2,238.2,251.1,237.2z
			 M245.7,225.2c1.8-1,3.5-2,5.3-3c-1.9-1.1-3.5-2-5.3-3.1C245.7,221.2,245.7,223.1,245.7,225.2z M244.9,226.5
			c-1.8,1.1-3.5,2.1-5.4,3.1c1.9,1.1,3.6,2.1,5.4,3.1C244.9,230.6,244.9,228.7,244.9,226.5z M244.7,218.3c-1.9-1.1-3.6-2.1-5.4-3.1
			c0,2.2,0,4.2,0,6.3C241.1,220.4,242.8,219.5,244.7,218.3z M244.9,234c-1.8,1.1-3.5,2-5.4,3.1c1.9,1.1,3.6,2.1,5.4,3.1
			C244.9,238.1,244.9,236.2,244.9,234z M238,222.1c-1.8-1.1-3.5-2-5.2-3c0,2.1,0,4,0,6C234.6,224.1,236.2,223.2,238,222.1z
			 M251.4,222.8c-1.8,1.1-3.5,2-5.3,3.1c1.9,1.1,3.5,2,5.3,3C251.4,226.8,251.4,224.9,251.4,222.8z M251.4,236.4c0-2.1,0-4,0-6.1
			c-1.8,1-3.4,2-5.3,3C248,234.5,249.6,235.4,251.4,236.4z M244.5,225.9c-1.8-1-3.5-2-5.2-3c0,2.1,0,4,0,6
			C241.1,227.9,242.7,226.9,244.5,225.9z M231.8,232.7c0-2.1,0-4,0-6c-1.8,1-3.4,2-5.2,3C228.4,230.7,230,231.6,231.8,232.7z
			 M226.6,222.1c1.8,1.1,3.5,2,5.2,3c0-2.1,0-3.9,0-6C230,220.1,228.4,221.1,226.6,222.1z M226.6,237.2c1.9,1.1,3.5,2,5.2,3
			c0-2.1,0-3.9,0-6C230,235.2,228.4,236.1,226.6,237.2z M226.3,230.4c0,2.1,0,4,0,6c1.8-1,3.4-2,5.2-3
			C229.6,232.3,228,231.4,226.3,230.4z M244.8,219.1c-1.8,1-3.4,2-5.2,3c1.9,1.1,3.5,2,5.2,3C244.8,223.1,244.8,221.2,244.8,219.1z
			 M226.3,222.9c0,2.1,0,4,0,6c1.8-1,3.4-2,5.2-3C229.7,224.8,228,223.9,226.3,222.9z M233.1,225.9c1.8,1,3.4,2,5.1,3
			c0-2,0-3.9,0-5.9C236.5,223.9,234.9,224.8,233.1,225.9z"/>
		<path id="XMLID_2708_" fill="#003857" d="M232.7,226.5c1.9,1.1,3.6,2.1,5.5,3.2c-1.9,1.1-3.6,2.1-5.5,3.2
			C232.7,230.6,232.7,228.7,232.7,226.5z"/>
		<path id="XMLID_2707_" fill="#003857" d="M238.2,237.2c-1.9,1.1-3.6,2.1-5.5,3.2c0-2.2,0-4.2,0-6.4
			C234.5,235.1,236.2,236.1,238.2,237.2z"/>
		<path id="XMLID_2706_" fill="#003857" d="M238.4,244.1c-1.9-1.1-3.6-2.1-5.4-3.1c1.9-1.1,3.6-2.1,5.4-3.1
			C238.4,239.9,238.4,241.9,238.4,244.1z"/>
		<path id="XMLID_2703_" fill="#003857" d="M233,233.4c1.9-1.1,3.6-2.1,5.4-3.1c0,2.1,0,4.1,0,6.3
			C236.6,235.5,234.9,234.5,233,233.4z"/>
		<path id="XMLID_2702_" fill="#003857" d="M238.4,215.2c0,2.2,0,4.1,0,6.3c-1.8-1.1-3.5-2-5.4-3.1
			C234.8,217.3,236.5,216.3,238.4,215.2z"/>
		<path id="XMLID_2699_" fill="#003857" d="M239.2,236.6c0-2.2,0-4.2,0-6.3c1.8,1.1,3.6,2.1,5.5,3.2
			C242.8,234.5,241.1,235.5,239.2,236.6z"/>
		<path id="XMLID_2698_" fill="#1AA3DA" d="M251.1,229.6c-1.9,1.1-3.5,2-5.3,3.1c0-2.1,0-4,0-6.1
			C247.5,227.6,249.2,228.5,251.1,229.6z"/>
		<path id="XMLID_2697_" fill="#003857" d="M239.2,237.8c1.9,1.1,3.5,2.1,5.5,3.2c-1.9,1.1-3.6,2.1-5.5,3.1
			C239.2,241.9,239.2,240,239.2,237.8z"/>
		<path id="XMLID_2673_" fill="#1AA3DA" d="M251.1,237.2c-1.9,1.1-3.5,2-5.3,3.1c0-2.1,0-4,0-6.1
			C247.5,235.2,249.2,236.1,251.1,237.2z"/>
		<path id="XMLID_2249_" fill="#1AA3DA" d="M245.7,225.2c0-2.1,0-4,0-6.1c1.8,1,3.4,2,5.3,3.1C249.2,223.2,247.5,224.1,245.7,225.2z
			"/>
		<path id="XMLID_2248_" fill="#003857" d="M244.9,226.5c0,2.2,0,4.1,0,6.3c-1.8-1.1-3.5-2-5.4-3.1
			C241.3,228.6,243,227.6,244.9,226.5z"/>
		<path id="XMLID_2247_" fill="#003857" d="M244.7,218.3c-1.9,1.1-3.6,2.1-5.4,3.2c0-2.1,0-4.1,0-6.3
			C241.1,216.3,242.8,217.3,244.7,218.3z"/>
		<path id="XMLID_2208_" fill="#003857" d="M244.9,234c0,2.2,0,4.1,0,6.3c-1.8-1-3.5-2-5.4-3.1C241.3,236.1,243,235.1,244.9,234z"/>
		<path id="XMLID_2207_" fill="#1AA3DA" d="M238,222.1c-1.8,1.1-3.4,2-5.2,3c0-2.1,0-3.9,0-6C234.5,220.1,236.2,221.1,238,222.1z"/>
		<path id="XMLID_2203_" fill="#1AA3DA" d="M251.4,222.8c0,2.1,0,4,0,6.1c-1.8-1-3.4-1.9-5.3-3C248,224.8,249.6,223.9,251.4,222.8z"
			/>
		<path id="XMLID_1992_" fill="#1AA3DA" d="M251.4,236.4c-1.8-1-3.4-2-5.3-3c1.8-1.1,3.5-2,5.3-3
			C251.4,232.5,251.4,234.3,251.4,236.4z"/>
		<path id="XMLID_1902_" fill="#1AA3DA" d="M244.5,225.9c-1.8,1-3.4,2-5.2,3c0-2,0-3.9,0-6C241,223.9,242.7,224.8,244.5,225.9z"/>
		<path id="XMLID_1901_" fill="#1AA3DA" d="M231.8,232.7c-1.8-1-3.4-2-5.2-3c1.8-1,3.4-2,5.2-3C231.8,228.7,231.8,230.6,231.8,232.7
			z"/>
		<path id="XMLID_1900_" fill="#1AA3DA" d="M226.6,222.1c1.8-1,3.5-2,5.2-3c0,2,0,3.9,0,6C230.1,224.1,228.4,223.2,226.6,222.1z"/>
		<path id="XMLID_1897_" fill="#1AA3DA" d="M226.6,237.2c1.8-1,3.4-2,5.2-3c0,2,0,3.9,0,6C230.1,239.2,228.4,238.2,226.6,237.2z"/>
		<path id="XMLID_1893_" fill="#1AA3DA" d="M226.3,230.4c1.7,1,3.4,1.9,5.2,3c-1.8,1-3.4,2-5.2,3
			C226.3,234.4,226.3,232.5,226.3,230.4z"/>
		<path id="XMLID_1891_" fill="#1AA3DA" d="M244.8,219.1c0,2.1,0,4,0,6c-1.7-1-3.4-1.9-5.2-3C241.4,221.1,243.1,220.1,244.8,219.1z"
			/>
		<path id="XMLID_1809_" fill="#1AA3DA" d="M226.3,222.9c1.8,1,3.4,1.9,5.2,3c-1.8,1.1-3.4,2-5.2,3
			C226.3,226.8,226.3,225,226.3,222.9z"/>
		<path id="XMLID_1744_" fill="#1AA3DA" d="M233.1,225.9c1.8-1,3.4-2,5.1-3c0,2,0,3.9,0,5.9C236.6,227.9,234.9,226.9,233.1,225.9z"
			/>
	</g>
	<path id="XMLID_1726_" display="inline" fill="#646464" d="M226.3,247.4h6.3v1.1h-5.2v3.5h5.2v1.1h-5.2v4.4h5.2v1.1h-6.3V247.4z"/>
	<path id="XMLID_1143_" display="inline" fill="#646464" d="M235.9,256.4l0.9-0.6c0.7,1.2,1.4,1.8,2.3,1.8c0.4,0,0.7-0.1,1-0.3
		c0.3-0.2,0.6-0.4,0.7-0.7c0.2-0.3,0.3-0.6,0.3-0.9c0-0.4-0.1-0.7-0.4-1.1c-0.3-0.5-1-1.1-1.9-1.8c-0.9-0.7-1.5-1.2-1.7-1.5
		c-0.4-0.5-0.6-1.1-0.6-1.7c0-0.5,0.1-0.9,0.3-1.3s0.6-0.7,1-0.9c0.4-0.2,0.9-0.3,1.4-0.3c0.5,0,1,0.1,1.5,0.4
		c0.5,0.3,0.9,0.7,1.4,1.4l-0.9,0.7c-0.4-0.6-0.8-0.9-1.1-1.1c-0.3-0.2-0.6-0.3-1-0.3c-0.4,0-0.8,0.1-1.1,0.4
		c-0.3,0.3-0.4,0.6-0.4,1c0,0.2,0.1,0.5,0.2,0.7c0.1,0.2,0.3,0.5,0.5,0.7c0.1,0.1,0.6,0.5,1.4,1.1c1,0.7,1.6,1.3,2,1.9
		c0.4,0.6,0.5,1.1,0.5,1.7c0,0.8-0.3,1.5-0.9,2.1c-0.6,0.6-1.4,0.9-2.2,0.9c-0.7,0-1.3-0.2-1.8-0.5
		C236.9,257.9,236.4,257.3,235.9,256.4z"/>
	<path id="XMLID_652_" display="inline" fill="#646464" d="M252.5,247.1c1.7,0,3.1,0.6,4.2,1.7c1.1,1.1,1.7,2.5,1.7,4.1
		c0,1.6-0.6,3-1.7,4.1c-1.1,1.1-2.5,1.7-4.1,1.7c-1.6,0-3-0.6-4.2-1.7c-1.1-1.1-1.7-2.5-1.7-4.1c0-1.1,0.3-2.1,0.8-3
		c0.5-0.9,1.2-1.6,2.1-2.1C250.5,247.4,251.4,247.1,252.5,247.1z M252.5,248.2c-0.8,0-1.6,0.2-2.3,0.6c-0.7,0.4-1.3,1-1.7,1.7
		c-0.4,0.7-0.6,1.5-0.6,2.4c0,1.3,0.5,2.4,1.4,3.3c0.9,0.9,2,1.4,3.3,1.4c0.9,0,1.7-0.2,2.4-0.6s1.3-1,1.7-1.7s0.6-1.5,0.6-2.4
		c0-0.9-0.2-1.7-0.6-2.4s-1-1.3-1.7-1.7C254.1,248.4,253.3,248.2,252.5,248.2z"/>
	<path id="XMLID_304_" display="inline" fill="#646464" d="M261.9,256.4l0.9-0.6c0.7,1.2,1.4,1.8,2.3,1.8c0.4,0,0.7-0.1,1-0.3
		c0.3-0.2,0.6-0.4,0.7-0.7c0.2-0.3,0.3-0.6,0.3-0.9c0-0.4-0.1-0.7-0.4-1.1c-0.3-0.5-1-1.1-1.9-1.8c-0.9-0.7-1.5-1.2-1.7-1.5
		c-0.4-0.5-0.6-1.1-0.6-1.7c0-0.5,0.1-0.9,0.3-1.3s0.6-0.7,1-0.9c0.4-0.2,0.9-0.3,1.4-0.3c0.5,0,1,0.1,1.5,0.4
		c0.5,0.3,0.9,0.7,1.4,1.4l-0.9,0.7c-0.4-0.6-0.8-0.9-1.1-1.1c-0.3-0.2-0.6-0.3-1-0.3c-0.4,0-0.8,0.1-1.1,0.4
		c-0.3,0.3-0.4,0.6-0.4,1c0,0.2,0,0.5,0.2,0.7c0.1,0.2,0.3,0.5,0.5,0.7c0.1,0.1,0.6,0.5,1.4,1.1c1,0.7,1.6,1.3,2,1.9
		c0.4,0.6,0.5,1.1,0.5,1.7c0,0.8-0.3,1.5-0.9,2.1c-0.6,0.6-1.4,0.9-2.2,0.9c-0.7,0-1.3-0.2-1.8-0.5
		C262.9,257.9,262.4,257.3,261.9,256.4z"/>
	<polygon id="XMLID_302_" display="inline" fill="#646464" points="220,258.6 221,258.6 221,247.6 215.4,254.8 209.8,247.5 
		209.8,249.4 215.4,256.5 220,250.6 	"/>
	<polygon id="XMLID_291_" display="inline" fill="#646464" points="209.8,251.4 211,252.8 211,258.8 209.8,258.8 	"/>
	<path id="XMLID_3176_" display="inline" fill="#00FC98" d="M357.6,232.2c0-2-0.3-3.9-0.9-5.7l-11.1,4c0.1,0.5,0.2,1.1,0.2,1.7
		H357.6z"/>
	<path id="XMLID_3174_" display="inline" fill="#007BF8" d="M332.1,249.9c2,0.7,4.2,1.2,6.5,1.2c2.6,0,5-0.5,7.2-1.4l-4.7-10.8
		c-0.8,0.3-1.6,0.5-2.5,0.5c-0.9,0-1.8-0.2-2.6-0.5L332.1,249.9z"/>
	<path id="XMLID_3173_" display="inline" fill="#007BF8" d="M332,234.6c-0.3-0.7-0.4-1.5-0.4-2.4c0-3.9,3.2-7.1,7.1-7.1c0,0,0,0,0,0
		c0,0,0,0,0,0c-3.9,0-7.1,3.2-7.1,7.1h-11.8l0,0c0,2.8,0.6,5.4,1.7,7.8L332,234.6z"/>
	<path id="XMLID_3172_" display="inline" fill="#00BFFD" d="M336.1,238.8c-1.9-0.7-3.4-2.3-4.1-4.2l-10.5,5.4
		c2.1,4.6,5.9,8.2,10.7,9.9"/>
	<path id="XMLID_3167_" display="inline" fill="#00F79D" d="M345.7,232.2c0,3-1.9,5.6-4.6,6.6l4.7,10.8c6.9-2.8,11.7-9.6,11.7-17.5
		H345.7z"/>
	<path id="XMLID_3165_" display="inline" fill="#78FF00" d="M356.7,226.5c-1-3.1-2.7-5.8-5-8l-7.7,9c0,0-0.1-0.1-0.1-0.1
		c0.8,0.9,1.5,2,1.8,3.2L356.7,226.5z"/>
	<path id="XMLID_3163_" display="inline" fill="#05D9A6" d="M338.7,225.1C338.7,225.1,338.7,225.1,338.7,225.1c0.3,0,0.5,0,0.7,0
		c0.1,0,0.2,0,0.2,0c0.2,0,0.3,0,0.5,0.1c0.1,0,0.2,0,0.3,0.1c0.1,0,0.3,0.1,0.4,0.1c0.1,0,0.2,0.1,0.3,0.1c0.1,0,0.3,0.1,0.4,0.1
		c0.1,0,0.2,0.1,0.3,0.1c0.1,0.1,0.2,0.1,0.4,0.2c0.1,0.1,0.2,0.1,0.3,0.2c0.1,0.1,0.2,0.1,0.3,0.2c0.1,0.1,0.2,0.1,0.3,0.2
		c0.1,0.1,0.2,0.2,0.3,0.2c0.1,0.1,0.2,0.1,0.2,0.2c0.1,0.1,0.2,0.2,0.3,0.3c0,0,0.1,0.1,0.1,0.1l7.7-9l0,0
		c-0.2-0.2-0.4-0.3-0.5-0.5c-0.2-0.2-0.4-0.4-0.6-0.5c-0.3-0.2-0.5-0.4-0.8-0.6c-0.2-0.2-0.4-0.3-0.7-0.5c-0.3-0.2-0.6-0.3-0.8-0.5
		c-0.2-0.1-0.5-0.3-0.7-0.4c-0.3-0.2-0.6-0.3-0.9-0.4c-0.2-0.1-0.5-0.2-0.7-0.3c-0.3-0.1-0.7-0.2-1-0.4c-0.2-0.1-0.5-0.2-0.7-0.3
		c-0.4-0.1-0.7-0.2-1.1-0.3c-0.2-0.1-0.5-0.1-0.7-0.2c-0.4-0.1-0.8-0.1-1.2-0.2c-0.2,0-0.4-0.1-0.6-0.1c-0.6-0.1-1.3-0.1-1.9-0.1
		c-10.4,0-18.9,8.5-18.9,18.9l0,0h11.8C331.6,228.3,334.7,225.1,338.7,225.1z"/>
	
		<circle id="XMLID_3162_" display="inline" fill="none" stroke="#000000" stroke-width="0.25" stroke-miterlimit="10" cx="338.7" cy="232.2" r="18.9"/>
	<circle id="XMLID_3161_" display="inline" fill="#FFFFFF" cx="338.7" cy="232.2" r="7.1"/>
	<path id="XMLID_3160_" display="inline" fill="none" d="M343.3,226.8c-0.1-0.1-0.2-0.2-0.3-0.2c-0.1-0.1-0.2-0.1-0.3-0.2
		c-0.1-0.1-0.2-0.1-0.3-0.2c-0.1-0.1-0.2-0.1-0.3-0.2c-0.1-0.1-0.2-0.1-0.4-0.2c-0.1,0-0.2-0.1-0.3-0.1c-0.1-0.1-0.3-0.1-0.4-0.1
		c-0.1,0-0.2-0.1-0.3-0.1c-0.1,0-0.3-0.1-0.4-0.1c-0.1,0-0.2-0.1-0.3-0.1c-0.2,0-0.3-0.1-0.5-0.1c-0.1,0-0.2,0-0.2,0
		c-0.2,0-0.5,0-0.7,0c0,0,0,0,0,0c-3.9,0-7.1,3.2-7.1,7.1c0,3.9,3.2,7.1,7.1,7.1c3.9,0,7.1-3.2,7.1-7.1c0-1.9-0.7-3.6-1.9-4.9
		c-0.1-0.1-0.2-0.2-0.3-0.3C343.4,227,343.4,226.9,343.3,226.8z"/>
	<path id="XMLID_3159_" display="inline" fill="#78FF00" d="M344.2,214.1c0.2,0.1,0.5,0.2,0.7,0.3
		C344.7,214.3,344.4,214.2,344.2,214.1z"/>
	<path id="XMLID_3158_" display="inline" fill="#78FF00" d="M347.5,215.5c0.2,0.1,0.5,0.3,0.7,0.4
		C348,215.8,347.8,215.6,347.5,215.5z"/>
	<path id="XMLID_3157_" display="inline" fill="#78FF00" d="M340.6,213.4c0.2,0,0.4,0.1,0.6,0.1C341,213.4,340.8,213.4,340.6,213.4z
		"/>
	<path id="XMLID_3155_" display="inline" fill="#78FF00" d="M342.4,213.6c0.2,0,0.5,0.1,0.7,0.2
		C342.9,213.8,342.6,213.7,342.4,213.6z"/>
	<path id="XMLID_3154_" display="inline" fill="#78FF00" d="M345.9,214.7c0.2,0.1,0.5,0.2,0.7,0.3
		C346.4,214.9,346.1,214.8,345.9,214.7z"/>
	<path id="XMLID_3153_" display="inline" fill="#78FF00" d="M339.4,225.1c0.1,0,0.2,0,0.2,0C339.6,225.2,339.5,225.1,339.4,225.1z"
		/>
	<path id="XMLID_3151_" display="inline" fill="#78FF00" d="M340.1,225.2c0.1,0,0.2,0,0.3,0.1C340.3,225.3,340.2,225.3,340.1,225.2z
		"/>
	<path id="XMLID_3150_" display="inline" fill="#78FF00" d="M340.8,225.4c0.1,0,0.2,0.1,0.3,0.1C341,225.5,340.9,225.5,340.8,225.4z
		"/>
	<path id="XMLID_3149_" display="inline" fill="#78FF00" d="M350.5,217.5c0.2,0.2,0.4,0.4,0.6,0.5
		C350.9,217.8,350.7,217.6,350.5,217.5z"/>
	<path id="XMLID_3148_" display="inline" fill="#78FF00" d="M349.1,216.4c0.2,0.2,0.4,0.3,0.7,0.5
		C349.5,216.7,349.3,216.6,349.1,216.4z"/>
	<path id="XMLID_3147_" display="inline" fill="#78FF00" d="M342.1,226c0.1,0.1,0.2,0.1,0.3,0.2C342.3,226.1,342.2,226.1,342.1,226z
		"/>
	<path id="XMLID_3146_" display="inline" fill="#78FF00" d="M343.3,226.8c0.1,0.1,0.2,0.1,0.2,0.2
		C343.4,227,343.4,226.9,343.3,226.8z"/>
	<path id="XMLID_3078_" display="inline" fill="#78FF00" d="M342.7,226.4c0.1,0.1,0.2,0.1,0.3,0.2
		C342.9,226.5,342.8,226.4,342.7,226.4z"/>
	<path id="XMLID_2955_" display="inline" fill="#78FF00" d="M341.5,225.7c0.1,0,0.2,0.1,0.3,0.1
		C341.7,225.8,341.6,225.7,341.5,225.7z"/>
	<path id="XMLID_2919_" display="inline" fill="#646464" stroke="#646464" stroke-width="0.25" stroke-miterlimit="10" d="
		M323,260.6C323,260.6,323,260.6,323,260.6c-0.2,0.1-0.2,0-0.2,0v-4.1l-1.5,2.1c0,0,0,0-0.1,0c0,0,0,0,0,0c0,0,0,0,0,0
		c0,0,0,0-0.1,0l-1.5-2.1v4.1c0,0,0,0.1-0.1,0.1c-0.1,0-0.1,0-0.1-0.1v-4.4v0v0l0,0v0v0h0v0h0v0l0,0c0,0,0,0,0,0l0,0l0,0h0h0h0h0h0
		h0h0c0,0,0,0,0,0h0l0,0h0v0h0v0h0v0v0l1.6,2.2l1.6-2.2v0v0h0v0h0v0h0c0,0,0,0,0,0h0c0,0,0,0,0,0h0h0h0h0h0h0h0c0,0,0,0,0,0h0v0h0
		c0,0,0,0,0,0v0h0v0c0,0,0,0,0,0v0v0h0v0v0V260.6z"/>
	<path id="XMLID_2916_" display="inline" fill="#646464" stroke="#646464" stroke-width="0.25" stroke-miterlimit="10" d="
		M328.7,260.5C328.7,260.6,328.7,260.6,328.7,260.5C328.6,260.6,328.6,260.6,328.7,260.5l-0.1,0.1c-0.1,0-0.1,0-0.1,0l-0.4-0.9h-2.4
		l-0.4,0.9c0,0-0.1,0-0.1,0h0c-0.1,0-0.1,0-0.1-0.1l1.7-4.4c0,0,0,0,0,0v0l0,0v0h0v0h0v0h0c0,0,0,0,0,0h0v0h0h0h0h0h0l0,0h0h0v0h0v0
		h0v0l0,0v0h0v0v0L328.7,260.5z M328,259.5l-1.1-3l-1.1,3H328z"/>
	<path id="XMLID_2903_" display="inline" fill="#646464" stroke="#646464" stroke-width="0.25" stroke-miterlimit="10" d="
		M333.7,260.5C333.7,260.5,333.7,260.6,333.7,260.5C333.7,260.6,333.6,260.6,333.7,260.5L333.7,260.5c-0.1,0.1-0.2,0.1-0.2,0
		l-1.3-1.9c0,0,0,0-0.1,0h-1.4v1.9c0,0,0,0.1-0.1,0.1c-0.1,0-0.1,0-0.1-0.1v-4.4c0,0,0-0.1,0.1-0.1h1.5c0.2,0,0.4,0,0.5,0.1
		c0.2,0.1,0.3,0.2,0.5,0.3c0.1,0.1,0.2,0.3,0.3,0.4s0.1,0.3,0.1,0.5c0,0.2,0,0.3-0.1,0.5c-0.1,0.2-0.2,0.3-0.3,0.4
		c-0.2,0.2-0.4,0.3-0.7,0.4L333.7,260.5z M332.1,258.6c0.1,0,0.3,0,0.4-0.1c0.1-0.1,0.3-0.1,0.4-0.3c0.1-0.1,0.2-0.2,0.3-0.4
		c0.1-0.1,0.1-0.3,0.1-0.4c0-0.1,0-0.3-0.1-0.4c-0.1-0.1-0.2-0.3-0.3-0.4c-0.1-0.1-0.2-0.2-0.4-0.3c-0.1-0.1-0.3-0.1-0.4-0.1h-1.4
		v2.3H332.1z"/>
	<path id="XMLID_1960_" display="inline" fill="#646464" stroke="#646464" stroke-width="0.25" stroke-miterlimit="10" d="
		M338.6,260.5C338.6,260.6,338.6,260.6,338.6,260.5C338.6,260.6,338.6,260.6,338.6,260.5l-0.1,0.1c-0.1,0-0.1,0-0.1,0l-0.4-0.9h-2.4
		l-0.4,0.9c0,0-0.1,0-0.1,0h0c-0.1,0-0.1,0-0.1-0.1l1.7-4.4c0,0,0,0,0,0v0l0,0v0h0v0h0v0h0c0,0,0,0,0,0h0v0h0h0h0h0h0l0,0h0h0v0h0v0
		h0v0l0,0v0h0v0v0L338.6,260.5z M338,259.5l-1.1-3l-1.1,3H338z"/>
	<path id="XMLID_1687_" display="inline" fill="#646464" stroke="#646464" stroke-width="0.25" stroke-miterlimit="10" d="
		M341.1,256.2h-1.3c-0.1,0-0.1,0-0.1-0.1c0,0,0-0.1,0.1-0.1h2.8c0.1,0,0.1,0,0.1,0.1c0,0,0,0.1-0.1,0.1h-1.3v4.3c0,0,0,0.1-0.1,0.1
		c-0.1,0-0.1,0-0.1-0.1V256.2z"/>
	<path id="XMLID_1664_" display="inline" fill="#646464" stroke="#646464" stroke-width="0.25" stroke-miterlimit="10" d="
		M347,256.1C347.1,256.1,347.1,256.1,347,256.1l0.1,4.4c0,0,0,0.1-0.1,0.1c-0.1,0-0.1,0-0.1-0.1v-1.9h-2.4v1.9c0,0,0,0.1-0.1,0.1
		c-0.1,0-0.1,0-0.1-0.1v-4.4c0,0,0-0.1,0.1-0.1c0.1,0,0.1,0,0.1,0.1v2.4h2.4L347,256.1C346.9,256.1,347,256.1,347,256.1z"/>
	<path id="XMLID_1651_" display="inline" fill="#646464" stroke="#646464" stroke-width="0.25" stroke-miterlimit="10" d="
		M351.9,259.6C351.9,259.7,351.9,259.7,351.9,259.6c0,0.2,0,0.2,0,0.3s-0.1,0.2-0.1,0.2c0,0.1-0.1,0.2-0.2,0.2
		c-0.2,0.2-0.5,0.3-0.9,0.3c-0.4,0-0.7-0.1-0.9-0.3c-0.1-0.1-0.2-0.2-0.2-0.2s-0.1-0.2-0.1-0.3c0-0.1,0-0.1,0-0.2c0-0.1,0-0.1,0-0.1
		v-2.5c0-0.3,0.1-0.6,0.4-0.8c0.1-0.1,0.2-0.1,0.4-0.2s0.3-0.1,0.5-0.1s0.3,0,0.5,0.1c0.1,0,0.3,0.1,0.4,0.2
		c0.3,0.2,0.4,0.4,0.4,0.8V259.6z M351.7,257.1c0-0.2,0-0.3-0.1-0.4c-0.1-0.1-0.2-0.2-0.3-0.3c-0.1-0.1-0.2-0.1-0.4-0.1
		c-0.1,0-0.3,0-0.4,0c-0.1,0-0.3,0-0.4,0.1c-0.1,0-0.2,0.1-0.3,0.2c-0.1,0.1-0.2,0.2-0.2,0.3c-0.1,0.1-0.1,0.2-0.1,0.4v2.5
		c0,0.1,0,0.2,0,0.3c0,0.1,0,0.2,0.1,0.2c0,0.1,0.1,0.2,0.2,0.2c0.2,0.1,0.4,0.2,0.8,0.2c0.3,0,0.6-0.1,0.8-0.2
		c0.1-0.1,0.2-0.1,0.2-0.2c0-0.1,0.1-0.2,0.1-0.2c0-0.1,0-0.2,0-0.2L351.7,257.1z"/>
	<path id="XMLID_1288_" display="inline" fill="#646464" stroke="#646464" stroke-width="0.25" stroke-miterlimit="10" d="
		M353.9,256.2L353.9,256.2L353.9,256.2L353.9,256.2L353.9,256.2L353.9,256.2L353.9,256.2L353.9,256.2L353.9,256.2L353.9,256.2
		L353.9,256.2C354,256.1,354,256.1,353.9,256.2L353.9,256.2C354,256.1,354,256.1,353.9,256.2L353.9,256.2L353.9,256.2L353.9,256.2
		l0.1-0.1h0h0h0c0,0,0,0,0,0h0v0h0l0,0v0h0v0l0,0l2.5,4.1v-4.1c0,0,0-0.1,0.1-0.1c0.1,0,0.1,0,0.1,0.1v4.4h0v0v0v0v0h0v0v0h0v0h0v0
		h0v0h0l0,0h0h0h0h0l0,0h0c0,0,0,0,0,0l0,0l0,0v0c0,0,0,0,0,0l-2.5-4.1v4.1c0,0,0,0.1-0.1,0.1s-0.1,0-0.1-0.1V256.2L353.9,256.2z"/>
</g>
<g id="Artwork__x5B_Outlined_x5D_">
	<path id="XMLID_6555_" fill="none" stroke="#B9BBBD" stroke-width="2" stroke-miterlimit="10" d="M437.6,39.8h34.3
		c5.4,0,9.7,4.4,9.7,9.7v176.8c0,5.4-4.4,9.7-9.7,9.7h-65.2"/>
	<path id="XMLID_6554_" fill="none" stroke="#959595" stroke-width="2" stroke-miterlimit="10" d="M369.7,39.8H18.2
		c-5.4,0-9.7,4.4-9.7,9.7v102.3c0,5.4,4.4,9.7,9.7,9.7h381.9c5.4,0,9.7-4.4,9.7-9.7V67.4"/>
	<path id="outline_3_" fill-rule="evenodd" clip-rule="evenodd" fill="#394D54" d="M67.2,231.7h4.6v4.7h2.3c1.1,0,2.2-0.2,3.2-0.5
		c0.5-0.2,1.1-0.4,1.5-0.7c-0.6-0.8-1-1.9-1.1-2.9c-0.1-1.4,0.2-3.3,1.1-4.4l0.5-0.6l0.6,0.5c1.4,1.2,2.7,2.8,2.9,4.6
		c1.7-0.5,3.8-0.4,5.3,0.5l0.6,0.4l-0.3,0.6c-1.3,2.5-4,3.3-6.7,3.2c-4,9.8-12.6,14.5-23.1,14.5c-5.4,0-10.4-2-13.2-6.8l0-0.1
		l-0.4-0.8c-1-2.1-1.3-4.4-1.1-6.7l0.1-0.7H48v-4.7h4.6v-4.5h9.2v-4.6h5.5V231.7z"/>
	<g id="body_colors_3_">
		<path id="XMLID_6553_" fill="#00A9D9" d="M82.1,233.4c0.3-2.4-1.5-4.2-2.6-5.1c-1.3,1.5-1.5,5.3,0.5,6.9c-1.1,1-3.5,1.9-5.9,1.9
			H44.7c-0.2,2.5,0.2,4.8,1.2,6.8l0.3,0.6c0.2,0.4,0.4,0.7,0.7,1l0,0c1.2,0.1,2.3,0.1,3.3,0.1h0c2,0,3.6-0.3,4.9-0.7
			c0.2-0.1,0.4,0,0.4,0.2c0.1,0.2,0,0.4-0.2,0.4c-0.2,0.1-0.3,0.1-0.5,0.2h0c-1,0.3-2,0.5-3.4,0.5c0.1,0-0.1,0-0.1,0
			c0,0-0.1,0-0.2,0c-0.5,0-1.1,0-1.7,0c-0.6,0-1.3,0-2,0l0,0c2.5,2.7,6.3,4.4,11.1,4.4c10.2,0,18.8-4.5,22.6-14.5
			c2.7,0.3,5.3-0.4,6.5-2.7C85.9,232.3,83.5,232.7,82.1,233.4z"/>
		<path id="XMLID_6552_" fill="#24B7EA" d="M82.1,233.4c0.3-2.4-1.5-4.2-2.6-5.1c-1.3,1.5-1.5,5.3,0.5,6.9c-1.1,1-3.5,1.9-5.9,1.9
			H46.5c-0.1,3.8,1.3,6.7,3.8,8.5h0c2,0,3.6-0.3,4.9-0.7c0.2-0.1,0.4,0,0.4,0.2c0.1,0.2,0,0.4-0.2,0.4c-0.2,0.1-0.3,0.1-0.5,0.2h0
			c-1,0.3-2.1,0.5-3.5,0.6l0,0c3.5,1.8,8.5,1.8,14.2-0.4c6.4-2.5,12.4-7.1,16.6-12.5C82.2,233.3,82.2,233.4,82.1,233.4z"/>
		<path id="XMLID_6551_" fill="#008AB7" d="M44.8,240.1c0.2,1.3,0.6,2.6,1.2,3.7l0.3,0.6c0.2,0.4,0.4,0.7,0.7,1
			c1.2,0.1,2.3,0.1,3.3,0.1c2,0,3.6-0.3,4.9-0.7c0.2-0.1,0.4,0,0.4,0.2c0.1,0.2,0,0.4-0.2,0.4c-0.2,0.1-0.3,0.1-0.5,0.2h0
			c-1,0.3-2.1,0.5-3.5,0.6c0,0-0.1,0-0.2,0c-0.5,0-1.1,0-1.7,0c-0.6,0-1.3,0-2,0c2.5,2.7,6.3,4.4,11.1,4.4c8.7,0,16.3-3.3,20.7-10.5
			H44.8z"/>
		<path id="XMLID_6550_" fill="#039AC5" d="M46.8,240.1c0.5,2.4,1.8,4.2,3.6,5.5c2,0,3.6-0.3,4.9-0.7c0.2-0.1,0.4,0,0.4,0.2
			c0.1,0.2,0,0.4-0.2,0.4c-0.2,0.1-0.3,0.1-0.5,0.2h0c-1,0.3-2.1,0.5-3.5,0.6c3.5,1.8,8.5,1.7,14.2-0.5c3.5-1.3,6.8-3.3,9.8-5.7
			H46.8z"/>
	</g>
	<g id="Containers_3_">
		<path id="XMLID_6542_" fill-rule="evenodd" clip-rule="evenodd" fill="#00ABD2" d="M52.1,232.8h0.3v3.3h-0.3V232.8z M51.5,232.8
			h0.3v3.3h-0.3V232.8z M50.9,232.8h0.3v3.3h-0.3V232.8z M50.3,232.8h0.3v3.3h-0.3V232.8z M49.7,232.8H50v3.3h-0.3V232.8z
			 M49.1,232.8h0.3v3.3h-0.3V232.8z M48.7,232.4h4v3.9h-4V232.4z"/>
		<path id="XMLID_6534_" fill-rule="evenodd" clip-rule="evenodd" fill="#00ABD2" d="M56.7,228.2H57v3.3h-0.3V228.2z M56.1,228.2
			h0.3v3.3h-0.3V228.2z M55.5,228.2h0.3v3.3h-0.3V228.2z M54.8,228.2h0.3v3.3h-0.3V228.2z M54.2,228.2h0.3v3.3h-0.3V228.2z
			 M53.7,228.2H54v3.3h-0.3V228.2z M53.3,227.9h4v3.9h-4V227.9z"/>
		<path id="XMLID_6526_" fill-rule="evenodd" clip-rule="evenodd" fill="#20C1EE" d="M56.7,232.8H57v3.3h-0.3V232.8z M56.1,232.8
			h0.3v3.3h-0.3V232.8z M55.5,232.8h0.3v3.3h-0.3V232.8z M54.8,232.8h0.3v3.3h-0.3V232.8z M54.2,232.8h0.3v3.3h-0.3V232.8z
			 M53.7,232.8H54v3.3h-0.3V232.8z M53.3,232.4h4v3.9h-4V232.4z"/>
		<path id="XMLID_6518_" fill-rule="evenodd" clip-rule="evenodd" fill="#00ABD2" d="M61.2,232.8h0.3v3.3h-0.3V232.8z M60.6,232.8
			H61v3.3h-0.3V232.8z M60,232.8h0.3v3.3H60V232.8z M59.4,232.8h0.3v3.3h-0.3V232.8z M58.8,232.8h0.3v3.3h-0.3V232.8z M58.2,232.8
			h0.3v3.3h-0.3V232.8z M57.9,232.4h4v3.9h-4V232.4z"/>
		<path id="XMLID_6510_" fill-rule="evenodd" clip-rule="evenodd" fill="#20C1EE" d="M61.2,228.2h0.3v3.3h-0.3V228.2z M60.6,228.2
			H61v3.3h-0.3V228.2z M60,228.2h0.3v3.3H60V228.2z M59.4,228.2h0.3v3.3h-0.3V228.2z M58.8,228.2h0.3v3.3h-0.3V228.2z M58.2,228.2
			h0.3v3.3h-0.3V228.2z M57.9,227.9h4v3.9h-4V227.9z"/>
		<path id="XMLID_6502_" fill-rule="evenodd" clip-rule="evenodd" fill="#20C1EE" d="M65.8,232.8h0.3v3.3h-0.3V232.8z M65.2,232.8
			h0.3v3.3h-0.3V232.8z M64.6,232.8H65v3.3h-0.3V232.8z M64,232.8h0.3v3.3H64V232.8z M63.4,232.8h0.3v3.3h-0.3V232.8z M62.8,232.8
			h0.3v3.3h-0.3V232.8z M62.5,232.4h4v3.9h-4V232.4z"/>
		<path id="XMLID_6494_" fill-rule="evenodd" clip-rule="evenodd" fill="#00ABD2" d="M65.8,228.2h0.3v3.3h-0.3V228.2z M65.2,228.2
			h0.3v3.3h-0.3V228.2z M64.6,228.2H65v3.3h-0.3V228.2z M64,228.2h0.3v3.3H64V228.2z M63.4,228.2h0.3v3.3h-0.3V228.2z M62.8,228.2
			h0.3v3.3h-0.3V228.2z M62.5,227.9h4v3.9h-4V227.9z"/>
		<path id="XMLID_6486_" fill-rule="evenodd" clip-rule="evenodd" fill="#20C1EE" d="M65.8,223.7h0.3v3.3h-0.3V223.7z M65.2,223.7
			h0.3v3.3h-0.3V223.7z M64.6,223.7H65v3.3h-0.3V223.7z M64,223.7h0.3v3.3H64V223.7z M63.4,223.7h0.3v3.3h-0.3V223.7z M62.8,223.7
			h0.3v3.3h-0.3V223.7z M62.5,223.3h4v3.9h-4V223.3z"/>
		<path id="XMLID_6478_" fill-rule="evenodd" clip-rule="evenodd" fill="#00ABD2" d="M70.4,232.8h0.3v3.3h-0.3V232.8z M69.8,232.8
			h0.3v3.3h-0.3V232.8z M69.2,232.8h0.3v3.3h-0.3V232.8z M68.6,232.8h0.3v3.3h-0.3V232.8z M68,232.8h0.3v3.3H68V232.8z M67.4,232.8
			h0.3v3.3h-0.3V232.8z M67.1,232.4h4v3.9h-4V232.4z"/>
	</g>
	<path id="XMLID_6477_" fill-rule="evenodd" clip-rule="evenodd" fill="#D3ECF0" d="M57.1,242.8c0.6,0,1.1,0.5,1.1,1.1
		c0,0.6-0.5,1.1-1.1,1.1c-0.6,0-1.1-0.5-1.1-1.1C56,243.2,56.4,242.8,57.1,242.8"/>
	<path id="XMLID_6476_" fill-rule="evenodd" clip-rule="evenodd" fill="#394D54" d="M57.1,243.1c0.1,0,0.2,0,0.3,0.1
		c-0.1,0.1-0.2,0.2-0.2,0.3c0,0.2,0.1,0.3,0.3,0.3c0.1,0,0.2-0.1,0.3-0.2c0,0.1,0.1,0.2,0.1,0.3c0,0.4-0.4,0.8-0.8,0.8
		c-0.4,0-0.8-0.3-0.8-0.8C56.3,243.4,56.6,243.1,57.1,243.1"/>
	<path id="XMLID_6475_" fill-rule="evenodd" clip-rule="evenodd" fill="#394D54" d="M37.6,240.5h24h3h24c-1.1-0.3-3.5-0.7-3.1-2.1
		c-2,2.3-6.9,1.6-8.1,0.5c-1.4,2-9.3,1.2-9.9-0.3c-1.7,2-7,2-8.8,0c-0.6,1.5-8.5,2.3-9.9,0.3c-1.2,1.1-6.1,1.8-8.1-0.5
		C41.2,239.9,38.8,240.2,37.6,240.5"/>
	<path id="XMLID_6474_" fill="#BEDADF" d="M60,250.6c-2.7-1.3-4.2-3-5-4.9c-1,0.3-2.2,0.5-3.6,0.5c-0.5,0-1.1,0-1.7,0
		c-0.7,0-1.4,0-2.1-0.1c2.5,2.5,5.6,4.4,11.2,4.4C59.1,250.6,59.6,250.6,60,250.6z"/>
	<path id="XMLID_6473_" fill="#D3ECF0" d="M55.9,247.4c-0.4-0.5-0.7-1.1-1-1.8c-1,0.3-2.2,0.5-3.6,0.5
		C52.3,246.8,53.7,247.2,55.9,247.4z"/>
	<path id="XMLID_6463_" fill-rule="evenodd" clip-rule="evenodd" fill="#394D54" d="M142.3,242.6c1.6-1.3,3.1-2.7,4.7-4
		c0.5-0.5,1.1-0.9,1.7-1.4c-0.4-0.5-1.1-0.9-1.7-1.1c-1.2-0.5-2.4-0.3-3.5,0.3c-1.5,0.8-2.1,2.2-2,3.8c0,0.7,0.2,1.3,0.5,1.8
		C142,242.2,142.1,242.4,142.3,242.6 M144.1,243.9c0.8,0.3,1.6,0.2,2.4,0.1c0.4-0.2,1.4-0.6,1.8-0.6l0.1,0l0.1,0
		c0.2,0.1,0.5,0.3,0.6,0.5c0.3,0.5,0.1,1.1-0.4,1.4l-0.2,0.1c-2,1.1-4.1,1-6.1-0.1c-1-0.5-1.7-1.3-2.2-2.2L140,243
		c-1.3-2.2-1.1-4.5,0.3-6.6c0.5-0.7,1.2-1.3,1.9-1.7l0.3-0.2c1.9-1.1,3.9-1,5.9-0.1c1,0.5,1.9,1.3,2.5,2.3l0.1,0.2
		c0.4,0.7-0.1,1.4-0.7,1.8c-0.7,0.5-1.3,1.1-1.9,1.6C146.9,241.5,145.5,242.7,144.1,243.9z M159.1,233.8h0.2c0.6,0,1.1,0.4,1.1,1
		c0,0.9-0.8,1.1-1.6,1.1c-1,0-1.9,0.6-2.5,1.2c-0.8,0.8-1.2,1.8-1.2,2.9v5.1c0,0.6-0.4,1-1,1H154c-0.6,0-1-0.5-1-1v-5.4
		c0-2.1,1-3.7,2.7-4.9C156.8,234.2,157.9,233.8,159.1,233.8z M132.8,237.4c0.8-0.8,1.6-1.6,2.5-2.4c0.2-0.2,1.1-1.2,1.5-1.2h0.4l0,0
		c0.5,0.1,0.8,0.4,0.8,0.9v0.2c0,0.4-0.4,0.8-0.6,1c-0.5,0.5-1,1-1.5,1.5l-2.6,2.6c1.1,1.1,2.2,2.2,3.3,3.3c0.3,0.3,0.6,0.6,0.9,0.9
		c0.1,0.1,0.3,0.2,0.3,0.4c0.1,0.1,0.2,0.3,0.2,0.5v0.2l0,0.1c-0.1,0.5-0.4,0.9-1,0.9h-0.2c-0.3,0-0.7-0.4-1-0.6
		c-0.5-0.5-1-0.9-1.5-1.4l-1.6-1.6v2.5c0,0.6-0.4,1-1,1h-0.2c-0.6,0-1-0.5-1-1v-14.2c0-0.6,0.4-1,1-1h0.2c0.6,0,1,0.5,1,1V237.4z
		 M125.9,236c-0.3-0.1-0.9-0.2-1.3-0.2c-1.8-0.1-3,0.9-3.8,2.5c-0.3,0.5-0.4,1.1-0.4,1.7c0,1.8,1,3.1,2.6,3.8c0.6,0.3,1.4,0.3,2,0.3
		c0.6,0,1.4-0.3,1.9-0.6l0.1,0h0.4l0,0c0.5,0.1,0.8,0.4,0.8,0.9v0.2c0,1.3-2.4,1.6-3.3,1.6c-3.2,0.2-5.5-1.5-6.4-4.5
		c-0.2-0.5-0.2-1-0.2-1.6v-0.4c0-2.3,1.1-4.1,3.1-5.2c0.9-0.5,1.9-0.8,3-0.8h0.4c1.1,0,2.2,0.3,3.1,0.9l0.1,0.1l0,0.1
		c0.1,0.2,0.2,0.4,0.2,0.6v0.2c0,0.5-0.4,0.8-0.9,0.9l0,0h-0.1C126.9,236.4,126.2,236.1,125.9,236z M106.6,240
		c0,1.6,0.8,2.8,2.1,3.6c0.6,0.4,1.3,0.6,2.1,0.6c1.6,0,2.8-0.8,3.6-2.1c0.4-0.6,0.6-1.3,0.6-2.1c0-1.5-0.7-2.6-2-3.4
		c-0.7-0.5-1.4-0.7-2.2-0.7c-1.8,0-3,0.9-3.8,2.5C106.8,238.8,106.6,239.4,106.6,240z M110.6,233.7h0.3c2.5,0,4.3,1.2,5.5,3.3
		c0.5,0.8,0.7,1.8,0.7,2.7v0.4c0,2.3-1.1,4.1-3.1,5.2c-0.9,0.5-1.9,0.8-3,0.8h-0.4c-2.3,0-4.1-1.1-5.3-3.1c-0.5-0.9-0.8-1.9-0.8-3
		v-0.4c0-2.3,1.1-4.1,3.1-5.2C108.5,234,109.6,233.7,110.6,233.7z M92.8,240c0,1.6,0.8,2.9,2.3,3.7c0.6,0.3,1.2,0.5,1.9,0.5
		c1.6,0,2.8-0.8,3.7-2.1c0.4-0.6,0.6-1.3,0.6-2.1c0-1.4-0.7-2.5-1.8-3.4c-0.7-0.5-1.5-0.8-2.4-0.8c-1.8,0-3,0.9-3.8,2.5
		C92.9,238.8,92.8,239.4,92.8,240z M101.2,235.3v-4.4c0-0.6,0.4-1.1,1-1.1h0.2c0.6,0,1,0.5,1,1.1v9.3c0,2.3-1.1,4.1-3.1,5.2
		c-0.9,0.5-1.9,0.8-3,0.8h-0.4c-2.3,0-4.1-1.1-5.3-3.1c-0.5-0.9-0.8-1.9-0.8-3v-0.4c0-2.3,1.1-4.1,3.1-5.2c0.9-0.5,1.9-0.8,3-0.8
		h0.4C98.7,233.7,100.1,234.3,101.2,235.3z"/>
	<path id="XMLID_6462_" fill="#57BFFF" d="M278.4,111.5h-26.8c-3.9,0-7-3.1-7-7V77.7c0-3.9,3.1-7,7-7h26.8c3.9,0,7,3.1,7,7v26.8
		C285.4,108.4,282.2,111.5,278.4,111.5z"/>
	<g id="XMLID_6460_">
		
			<rect id="XMLID_6461_" x="251.3" y="80.7" transform="matrix(0.8544 0.5196 -0.5196 0.8544 79.7197 -121.7505)" fill="#FFFFFF" stroke="#FFFFFF" stroke-width="0.8362" stroke-miterlimit="10" width="11.6" height="1.3"/>
	</g>
	<g id="XMLID_6458_">
		
			<rect id="XMLID_6459_" x="258.1" y="89.4" transform="matrix(0.3026 0.9531 -0.9531 0.3026 269.8749 -188.6713)" fill="#FFFFFF" stroke="#FFFFFF" stroke-width="0.8362" stroke-miterlimit="10" width="11.6" height="1.3"/>
	</g>
	<g id="XMLID_6456_">
		
			<rect id="XMLID_6457_" x="255.2" y="99.3" transform="matrix(-0.7462 0.6657 -0.6657 -0.7462 522.2848 0.6967)" fill="#FFFFFF" stroke="#FFFFFF" stroke-width="0.8362" stroke-miterlimit="10" width="11.6" height="1.3"/>
	</g>
	<g id="XMLID_6454_">
		
			<rect id="XMLID_6455_" x="264.7" y="99.7" transform="matrix(-0.7168 -0.6973 0.6973 -0.7168 394.4183 360.8441)" fill="#FFFFFF" stroke="#FFFFFF" stroke-width="0.8362" stroke-miterlimit="10" width="11.6" height="1.3"/>
	</g>
	<circle id="XMLID_6453_" fill="#FFFFFF" cx="252.4" cy="78.3" r="3.2"/>
	<circle id="XMLID_6452_" fill="#18D18D" cx="252.4" cy="78.3" r="1.5"/>
	<circle id="XMLID_6451_" fill="#FFFFFF" cx="261.8" cy="84.1" r="3.2"/>
	<circle id="XMLID_6450_" fill="#FFFFFF" cx="265.8" cy="95.8" r="3.2"/>
	<circle id="XMLID_6449_" fill="#FFFFFF" cx="256.3" cy="104.2" r="3.2"/>
	<circle id="XMLID_6448_" fill="#FFFFFF" cx="274.8" cy="104.3" r="3.2"/>
	<circle id="XMLID_6447_" fill="#18D18D" cx="261.8" cy="84.1" r="1.5"/>
	<circle id="XMLID_6446_" fill="#18D18D" cx="265.8" cy="95.8" r="1.5"/>
	<circle id="XMLID_6445_" fill="#18D18D" cx="274.8" cy="104.3" r="1.5"/>
	<circle id="XMLID_6444_" fill="#18D18D" cx="256.3" cy="104.2" r="1.5"/>
	<g id="XMLID_10661_">
		<g id="XMLID_15222_">
			<path id="XMLID_15300_" fill="#868D8D" d="M241.1,136.6l4-8.8c0-0.1,0.1-0.1,0.2-0.1h0.1c0.1,0,0.2,0.1,0.2,0.1l4,8.8
				c0.1,0.2,0,0.3-0.2,0.3h-1.1c-0.2,0-0.3-0.1-0.4-0.3l-0.6-1.4h-3.9l-0.6,1.4c-0.1,0.1-0.2,0.3-0.4,0.3h-1.1
				C241.2,137,241.1,136.8,241.1,136.6z M246.7,133.9l-1.3-2.9h0l-1.3,2.9H246.7z"/>
			<path id="XMLID_15297_" fill="#868D8D" d="M252.1,140.6c0,0.2-0.1,0.2-0.3,0.2h-1c-0.1,0-0.2-0.1-0.2-0.2V132
				c0-0.1,0.1-0.2,0.2-0.2h0.5c0.1,0,0.2,0.1,0.2,0.2l0.2,0.4c0.2-0.3,0.8-0.7,1.7-0.7c1.4,0,2.5,1.2,2.5,2.7c0,1.5-1.2,2.7-2.6,2.7
				c-0.5,0-1-0.2-1.2-0.3V140.6z M253,135.7c0.7,0,1.3-0.6,1.3-1.3c0-0.7-0.5-1.3-1.2-1.3c-0.7,0-1,0.5-1.1,0.8v1.6
				C252,135.4,252.4,135.7,253,135.7z"/>
			<path id="XMLID_15293_" fill="#868D8D" d="M258.6,140.6c0,0.2-0.1,0.2-0.3,0.2h-1c-0.1,0-0.2-0.1-0.2-0.2V132
				c0-0.1,0.1-0.2,0.2-0.2h0.5c0.1,0,0.2,0.1,0.2,0.2l0.2,0.4c0.2-0.3,0.8-0.7,1.7-0.7c1.4,0,2.5,1.2,2.5,2.7c0,1.5-1.2,2.7-2.6,2.7
				c-0.5,0-1-0.2-1.2-0.3V140.6z M259.5,135.7c0.7,0,1.3-0.6,1.3-1.3c0-0.7-0.5-1.3-1.2-1.3c-0.7,0-1,0.5-1.1,0.8v1.6
				C258.5,135.4,258.9,135.7,259.5,135.7z"/>
			<path id="XMLID_15230_" fill="#868D8D" d="M267.7,127.9c0-0.1,0.1-0.2,0.2-0.2h0.2c0.1,0,0.2,0.1,0.2,0.1l2.9,6.1c0,0,0,0,0,0
				l2.9-6.1c0-0.1,0.1-0.1,0.2-0.1h0.2c0.1,0,0.2,0.1,0.2,0.2l1.5,8.7c0,0.2-0.1,0.3-0.2,0.3h-1.2c-0.1,0-0.2-0.1-0.2-0.2l-0.8-4.9
				c0,0,0,0,0,0l-2.3,5.1c0,0.1-0.1,0.1-0.2,0.1h-0.2c-0.1,0-0.2-0.1-0.2-0.1l-2.3-5.1c0,0,0,0,0,0l-0.8,4.9c0,0.1-0.1,0.2-0.2,0.2
				h-1.2c-0.2,0-0.3-0.1-0.2-0.3L267.7,127.9z"/>
			<path id="XMLID_15227_" fill="#868D8D" d="M279.3,133.7c0.5,0,0.9,0.1,0.9,0.1c0-0.7-0.2-0.9-0.7-0.9c-0.5,0-1.2,0.1-1.5,0.2
				c-0.2,0.1-0.3-0.1-0.3-0.2l-0.1-0.7c0-0.2,0.1-0.3,0.2-0.3c0.1,0,0.9-0.2,1.8-0.2c1.6,0,2,0.8,2,2.3v2.8c0,0.1-0.1,0.2-0.2,0.2
				h-0.5c-0.1,0-0.2,0-0.2-0.2l-0.2-0.4c-0.3,0.3-0.8,0.7-1.6,0.7c-1,0-1.8-0.7-1.8-1.8C277.2,134.4,277.9,133.7,279.3,133.7z
				 M279.3,136c0.4,0,0.8-0.4,0.9-0.5v-0.7c0,0-0.4-0.2-0.7-0.2c-0.5,0-0.8,0.3-0.8,0.7C278.6,135.7,278.9,136,279.3,136z"/>
			<path id="XMLID_15223_" fill="#868D8D" d="M284.7,140.6c0,0.2-0.1,0.2-0.3,0.2h-1c-0.1,0-0.2-0.1-0.2-0.2V132
				c0-0.1,0.1-0.2,0.2-0.2h0.5c0.1,0,0.2,0.1,0.2,0.2l0.2,0.4c0.2-0.3,0.8-0.7,1.7-0.7c1.4,0,2.5,1.2,2.5,2.7c0,1.5-1.2,2.7-2.6,2.7
				c-0.5,0-1-0.2-1.2-0.3V140.6z M285.7,135.7c0.7,0,1.3-0.6,1.3-1.3c0-0.7-0.5-1.3-1.2-1.3c-0.7,0-1,0.5-1.1,0.8v1.6
				C284.7,135.4,285,135.7,285.7,135.7z"/>
		</g>
	</g>
	<g id="XMLID_6432_">
		<path id="XMLID_6440_" fill="#57BFFF" stroke="#FFFFFF" stroke-width="1.6083" stroke-miterlimit="10" d="M374.6,105h-22.4
			c-3.2,0-5.8-2.6-5.8-5.8V76.7c0-3.2,2.6-5.8,5.8-5.8h22.4c3.2,0,5.8,2.6,5.8,5.8v22.4C380.5,102.3,377.9,105,374.6,105z"/>
		<path id="XMLID_6439_" fill="#57BFFF" stroke="#FFFFFF" stroke-width="1.6083" stroke-miterlimit="10" d="M364.7,108.9H347
			c-2.5,0-4.6-2.1-4.6-4.6V86.6c0-2.5,2.1-4.6,4.6-4.6h17.7c2.5,0,4.6,2.1,4.6,4.6v17.7C369.3,106.8,367.3,108.9,364.7,108.9z"/>
		<path id="XMLID_6438_" fill="#57BFFF" stroke="#FFFFFF" stroke-width="1.6083" stroke-miterlimit="10" d="M354.8,112.8h-12.9
			c-1.9,0-3.4-1.5-3.4-3.4V96.5c0-1.9,1.5-3.4,3.4-3.4h12.9c1.9,0,3.4,1.5,3.4,3.4v12.9C358.2,111.3,356.6,112.8,354.8,112.8z"/>
	</g>
	<g id="XMLID_6429_">
		
			<rect id="XMLID_6431_" x="344.2" y="101.8" transform="matrix(0.7071 -0.7071 0.7071 0.7071 27.8612 275.9577)" fill="#FFFFFF" width="5.7" height="5.1"/>
		<polygon id="XMLID_6430_" fill="#FFFFFF" points="352.8,106.7 344.7,98.6 352.8,98.6 		"/>
	</g>
	<g id="XMLID_10632_">
		<g id="XMLID_15538_">
			<path id="XMLID_15594_" fill="#868D8D" d="M321.7,136.6l4-8.8c0-0.1,0.1-0.1,0.2-0.1h0.1c0.1,0,0.2,0.1,0.2,0.1l4,8.8
				c0.1,0.2,0,0.3-0.2,0.3H329c-0.2,0-0.3-0.1-0.4-0.3l-0.6-1.4h-3.9l-0.6,1.4c-0.1,0.1-0.2,0.3-0.4,0.3H322
				C321.8,137,321.7,136.8,321.7,136.6z M327.3,133.9L326,131h0l-1.3,2.9H327.3z"/>
			<path id="XMLID_15591_" fill="#868D8D" d="M332.7,140.6c0,0.2-0.1,0.2-0.3,0.2h-1c-0.1,0-0.2-0.1-0.2-0.2V132
				c0-0.1,0.1-0.2,0.2-0.2h0.5c0.1,0,0.2,0.1,0.2,0.2l0.2,0.4c0.2-0.3,0.8-0.7,1.7-0.7c1.4,0,2.5,1.2,2.5,2.7c0,1.5-1.2,2.7-2.6,2.7
				c-0.5,0-1-0.2-1.2-0.3V140.6z M333.6,135.7c0.7,0,1.3-0.6,1.3-1.3c0-0.7-0.5-1.3-1.2-1.3c-0.7,0-1,0.5-1.1,0.8v1.6
				C332.6,135.4,333,135.7,333.6,135.7z"/>
			<path id="XMLID_15588_" fill="#868D8D" d="M339.2,140.6c0,0.2-0.1,0.2-0.3,0.2h-1c-0.1,0-0.2-0.1-0.2-0.2V132
				c0-0.1,0.1-0.2,0.2-0.2h0.5c0.1,0,0.2,0.1,0.2,0.2l0.2,0.4c0.2-0.3,0.8-0.7,1.7-0.7c1.4,0,2.5,1.2,2.5,2.7c0,1.5-1.2,2.7-2.6,2.7
				c-0.5,0-1-0.2-1.2-0.3V140.6z M340.1,135.7c0.7,0,1.3-0.6,1.3-1.3c0-0.7-0.5-1.3-1.2-1.3c-0.7,0-1,0.5-1.1,0.8v1.6
				C339.1,135.4,339.5,135.7,340.1,135.7z"/>
			<path id="XMLID_15586_" fill="#868D8D" d="M346.8,135.7l0.5-0.8c0.1-0.2,0.3-0.2,0.4-0.1c0.1,0,1.1,0.8,2,0.8
				c0.7,0,1.2-0.4,1.2-1c0-0.7-0.6-1.1-1.7-1.6c-1.2-0.5-2.4-1.3-2.4-2.8c0-1.2,0.9-2.5,2.9-2.5c1.3,0,2.3,0.7,2.6,0.9
				c0.1,0.1,0.2,0.3,0.1,0.4l-0.5,0.7c-0.1,0.2-0.3,0.3-0.5,0.2c-0.1-0.1-1.1-0.7-1.8-0.7c-0.7,0-1.1,0.5-1.1,0.9
				c0,0.6,0.5,1,1.5,1.5c1.3,0.5,2.7,1.3,2.7,2.9c0,1.3-1.2,2.6-3,2.6c-1.6,0-2.6-0.8-2.9-1C346.8,136,346.7,135.9,346.8,135.7z"/>
			<path id="XMLID_15584_" fill="#868D8D" d="M356.3,131.6c0.8,0,1.4,0.3,1.9,0.9c0.1,0.1,0.1,0.3-0.1,0.4l-0.6,0.6
				c-0.1,0.1-0.2,0-0.3,0c-0.2-0.2-0.5-0.4-0.9-0.4c-0.7,0-1.3,0.6-1.3,1.3c0,0.7,0.6,1.3,1.3,1.3c0.6,0,0.8-0.3,1-0.5
				c0.1-0.1,0.2-0.1,0.3,0l0.6,0.5c0.1,0.1,0.2,0.2,0.1,0.4c-0.4,0.7-1.1,1.1-2.1,1.1c-1.5,0-2.8-1.2-2.8-2.7
				C353.5,132.8,354.8,131.6,356.3,131.6z"/>
			<path id="XMLID_15581_" fill="#868D8D" d="M361.2,133.7c0.5,0,0.9,0.1,0.9,0.1c0-0.7-0.2-0.9-0.7-0.9c-0.5,0-1.2,0.1-1.5,0.2
				c-0.2,0.1-0.3-0.1-0.3-0.2l-0.1-0.7c0-0.2,0.1-0.3,0.2-0.3c0.1,0,0.9-0.2,1.8-0.2c1.6,0,2,0.8,2,2.3v2.8c0,0.1-0.1,0.2-0.2,0.2
				h-0.5c-0.1,0-0.2,0-0.2-0.2l-0.2-0.4c-0.3,0.3-0.8,0.7-1.6,0.7c-1,0-1.8-0.7-1.8-1.8C359.1,134.4,359.8,133.7,361.2,133.7z
				 M361.2,136c0.4,0,0.8-0.4,0.9-0.5v-0.7c0,0-0.4-0.2-0.7-0.2c-0.5,0-0.8,0.3-0.8,0.7C360.5,135.7,360.8,136,361.2,136z"/>
			<path id="XMLID_15579_" fill="#868D8D" d="M365,128.1c0-0.1,0.1-0.2,0.2-0.2h1.1c0.1,0,0.2,0.1,0.2,0.2v8.6
				c0,0.1-0.1,0.2-0.2,0.2h-1.1c-0.1,0-0.2-0.1-0.2-0.2V128.1z"/>
			<path id="XMLID_15576_" fill="#868D8D" d="M370.4,131.6c1.3,0,2.4,1,2.4,2.4c0,0.1,0,0.3,0,0.3c0,0.1-0.1,0.2-0.2,0.2h-3.3
				c0,0.5,0.5,1.1,1.2,1.1c0.4,0,0.8-0.2,1-0.3c0.1-0.1,0.2-0.1,0.3,0l0.5,0.6c0.1,0.1,0.1,0.2,0,0.3c-0.4,0.4-1.1,0.7-1.9,0.7
				c-1.6,0-2.7-1.2-2.7-2.7C367.8,132.9,368.9,131.6,370.4,131.6z M371.3,133.7c0-0.5-0.5-0.9-0.9-0.9c-0.5,0-0.9,0.4-1,0.9H371.3z"
				/>
			<path id="XMLID_15543_" fill="#868D8D" d="M381.2,127.7c2.6,0,4.7,2.1,4.7,4.7c0,2.6-2.1,4.7-4.7,4.7s-4.7-2.1-4.7-4.7
				C376.6,129.8,378.6,127.7,381.2,127.7z M381.2,135.4c1.6,0,3-1.3,3-3c0-1.6-1.4-3-3-3s-3,1.4-3,3
				C378.3,134.1,379.6,135.4,381.2,135.4z"/>
			<path id="XMLID_15541_" fill="#868D8D" d="M387,132c0-0.1,0.1-0.2,0.2-0.2h1.1c0.1,0,0.2,0.1,0.2,0.2v2.6c0,0.7,0.4,1.1,0.9,1.1
				c0.5,0,1-0.5,1-1V132c0-0.2,0.1-0.2,0.3-0.2h1c0.1,0,0.2,0.1,0.2,0.2v4.7c0,0.1-0.1,0.2-0.2,0.2h-0.5c-0.1,0-0.2-0.1-0.2-0.2
				l-0.2-0.4c-0.2,0.2-0.7,0.8-1.7,0.8c-1.6,0-2.2-1.2-2.2-2.6V132z"/>
			<path id="XMLID_15539_" fill="#868D8D" d="M393.9,133.1h-0.4c-0.1,0-0.2-0.1-0.2-0.2V132c0-0.1,0.1-0.2,0.2-0.2h0.4v-1.4
				c0-0.1,0.1-0.2,0.2-0.2l1.1,0c0.1,0,0.2,0.1,0.2,0.2v1.5h1.1c0.1,0,0.2,0.1,0.2,0.2v0.9c0,0.1-0.1,0.2-0.2,0.2h-1.1v2.1
				c0,0.4,0.2,0.4,0.4,0.4c0.2,0,0.5-0.1,0.6-0.1c0.1-0.1,0.2,0,0.3,0.1l0.3,0.8c0.1,0.1,0,0.3-0.1,0.3c-0.1,0-0.9,0.3-1.5,0.3
				c-1,0-1.4-0.6-1.4-1.7V133.1z"/>
		</g>
	</g>
	<path id="XMLID_6425_" fill="#57BFFF" d="M76.2,111.5H49.3c-3.9,0-7-3.1-7-7V77.7c0-3.9,3.1-7,7-7h26.8c3.9,0,7,3.1,7,7v26.8
		C83.2,108.4,80,111.5,76.2,111.5z"/>
	
		<ellipse id="XMLID_6424_" transform="matrix(0.7071 -0.7071 0.7071 0.7071 -45.1408 68.9273)" fill-rule="evenodd" clip-rule="evenodd" fill="none" stroke="#FFFFFF" stroke-width="3.3447" stroke-linecap="round" stroke-linejoin="round" stroke-miterlimit="10" cx="60.6" cy="89" rx="8.2" ry="8.2"/>
	
		<line id="XMLID_6423_" fill-rule="evenodd" clip-rule="evenodd" fill="none" stroke="#FFFFFF" stroke-width="3.3447" stroke-linecap="round" stroke-linejoin="round" stroke-miterlimit="10" x1="66.4" y1="94.7" x2="73.2" y2="101.5"/>
	<g id="XMLID_10592_">
		<g id="XMLID_15646_">
			<path id="XMLID_15684_" fill="#868D8D" d="M17.9,135.7l0.5-0.8c0.1-0.2,0.3-0.2,0.4-0.1c0.1,0,1.1,0.8,2,0.8c0.7,0,1.2-0.4,1.2-1
				c0-0.7-0.6-1.1-1.7-1.6c-1.2-0.5-2.4-1.3-2.4-2.8c0-1.2,0.9-2.5,2.9-2.5c1.3,0,2.3,0.7,2.6,0.9c0.1,0.1,0.2,0.3,0.1,0.4l-0.5,0.7
				c-0.1,0.2-0.3,0.3-0.5,0.2c-0.1-0.1-1.1-0.7-1.8-0.7c-0.7,0-1.1,0.5-1.1,0.9c0,0.6,0.5,1,1.5,1.5c1.3,0.5,2.7,1.3,2.7,2.9
				c0,1.3-1.2,2.6-3,2.6c-1.6,0-2.6-0.8-2.9-1C17.9,136,17.8,135.9,17.9,135.7z"/>
			<path id="XMLID_15681_" fill="#868D8D" d="M27.3,131.6c1.3,0,2.4,1,2.4,2.4c0,0.1,0,0.3,0,0.3c0,0.1-0.1,0.2-0.2,0.2h-3.3
				c0,0.5,0.5,1.1,1.2,1.1c0.4,0,0.8-0.2,1-0.3c0.1-0.1,0.2-0.1,0.3,0l0.5,0.6c0.1,0.1,0.1,0.2,0,0.3c-0.4,0.4-1.1,0.7-1.9,0.7
				c-1.6,0-2.7-1.2-2.7-2.7C24.6,132.9,25.7,131.6,27.3,131.6z M28.2,133.7c0-0.5-0.5-0.9-0.9-0.9c-0.5,0-0.9,0.4-1,0.9H28.2z"/>
			<path id="XMLID_15679_" fill="#868D8D" d="M30.8,132c0-0.1,0.1-0.2,0.2-0.2h0.5c0.1,0,0.2,0.1,0.2,0.2l0.2,0.5
				c0.2-0.3,0.7-0.8,1.5-0.8c0.6,0,1.2,0.2,1,0.5L34,133c-0.1,0.1-0.2,0.2-0.3,0.1c0,0-0.2-0.1-0.4-0.1c-0.5,0-0.8,0.3-0.9,0.5v3.1
				c0,0.2-0.1,0.2-0.3,0.2h-1c-0.1,0-0.2-0.1-0.2-0.2V132z"/>
			<path id="XMLID_15677_" fill="#868D8D" d="M34.8,132.1c-0.1-0.2,0-0.3,0.2-0.3h1.1c0.1,0,0.2,0.1,0.2,0.1l1.1,2.4c0,0,0,0,0,0
				l1.1-2.4c0.1-0.1,0.2-0.1,0.3-0.1h1c0.2,0,0.3,0.1,0.2,0.3l-2.4,4.9c0,0.1-0.1,0.1-0.2,0.1h-0.1c-0.1,0-0.2-0.1-0.2-0.1
				L34.8,132.1z"/>
			<path id="XMLID_15674_" fill="#868D8D" d="M40.8,129c0-0.5,0.4-0.9,0.9-0.9c0.5,0,0.9,0.4,0.9,0.9s-0.4,0.9-0.9,0.9
				C41.2,129.9,40.8,129.5,40.8,129z M40.9,132c0-0.1,0.1-0.2,0.2-0.2h1.1c0.1,0,0.2,0.1,0.2,0.2v4.7c0,0.1-0.1,0.2-0.2,0.2h-1.1
				c-0.1,0-0.2-0.1-0.2-0.2V132z"/>
			<path id="XMLID_15672_" fill="#868D8D" d="M46.4,131.6c0.8,0,1.4,0.3,1.9,0.9c0.1,0.1,0.1,0.3-0.1,0.4l-0.6,0.6
				c-0.1,0.1-0.2,0-0.3,0c-0.2-0.2-0.5-0.4-0.9-0.4c-0.7,0-1.3,0.6-1.3,1.3c0,0.7,0.6,1.3,1.3,1.3c0.6,0,0.8-0.3,1-0.5
				c0.1-0.1,0.2-0.1,0.3,0l0.6,0.5c0.1,0.1,0.2,0.2,0.1,0.4c-0.4,0.7-1.1,1.1-2.1,1.1c-1.5,0-2.8-1.2-2.8-2.7
				C43.7,132.8,45,131.6,46.4,131.6z"/>
			<path id="XMLID_15669_" fill="#868D8D" d="M51.9,131.6c1.3,0,2.4,1,2.4,2.4c0,0.1,0,0.3,0,0.3c0,0.1-0.1,0.2-0.2,0.2h-3.3
				c0,0.5,0.5,1.1,1.2,1.1c0.4,0,0.8-0.2,1-0.3c0.1-0.1,0.2-0.1,0.3,0l0.5,0.6c0.1,0.1,0.1,0.2,0,0.3c-0.4,0.4-1.1,0.7-1.9,0.7
				c-1.6,0-2.7-1.2-2.7-2.7C49.2,132.9,50.3,131.6,51.9,131.6z M52.8,133.7c0-0.5-0.5-0.9-0.9-0.9c-0.5,0-0.9,0.4-1,0.9H52.8z"/>
			<path id="XMLID_15666_" fill="#868D8D" d="M58.7,128.1c0-0.1,0.1-0.2,0.2-0.2H62c2.5,0,4.6,2,4.6,4.5c0,2.5-2.1,4.6-4.6,4.6h-3.1
				c-0.1,0-0.2-0.1-0.2-0.2V128.1z M61.8,135.4c1.7,0,2.9-1.3,2.9-3c0-1.7-1.2-3-2.9-3h-1.5v5.9H61.8z"/>
			<path id="XMLID_15663_" fill="#868D8D" d="M67.5,129c0-0.5,0.4-0.9,0.9-0.9c0.5,0,0.9,0.4,0.9,0.9s-0.4,0.9-0.9,0.9
				C67.9,129.9,67.5,129.5,67.5,129z M67.6,132c0-0.1,0.1-0.2,0.2-0.2H69c0.1,0,0.2,0.1,0.2,0.2v4.7c0,0.1-0.1,0.2-0.2,0.2h-1.1
				c-0.1,0-0.2-0.1-0.2-0.2V132z"/>
			<path id="XMLID_15661_" fill="#868D8D" d="M70.5,136.3l0.4-0.7c0.1-0.1,0.2-0.2,0.3-0.1c0,0,0.6,0.3,1.2,0.3
				c0.3,0,0.4-0.1,0.4-0.3c0-0.2-0.2-0.4-0.9-0.7c-1-0.4-1.5-0.9-1.5-1.7s0.6-1.5,1.9-1.5c0.8,0,1.3,0.2,1.6,0.4
				c0.1,0.1,0.2,0.2,0.1,0.4l-0.3,0.7c-0.1,0.1-0.2,0.1-0.3,0.1c0,0-0.6-0.3-1.1-0.3c-0.3,0-0.4,0.1-0.4,0.3c0,0.2,0.2,0.3,0.7,0.5
				c1,0.4,1.8,0.8,1.8,1.8c0,0.9-0.8,1.6-2.1,1.6c-0.9,0-1.5-0.3-1.7-0.5C70.5,136.6,70.4,136.5,70.5,136.3z"/>
			<path id="XMLID_15659_" fill="#868D8D" d="M77.9,131.6c0.8,0,1.4,0.3,1.9,0.9c0.1,0.1,0.1,0.3-0.1,0.4l-0.6,0.6
				c-0.1,0.1-0.2,0-0.3,0c-0.2-0.2-0.5-0.4-0.9-0.4c-0.7,0-1.3,0.6-1.3,1.3c0,0.7,0.6,1.3,1.3,1.3c0.6,0,0.8-0.3,1-0.5
				c0.1-0.1,0.2-0.1,0.3,0l0.6,0.5c0.1,0.1,0.2,0.2,0.1,0.4c-0.4,0.7-1.1,1.1-2.1,1.1c-1.5,0-2.8-1.2-2.8-2.7
				C75.1,132.8,76.4,131.6,77.9,131.6z"/>
			<path id="XMLID_15656_" fill="#868D8D" d="M83.3,131.6c1.5,0,2.7,1.2,2.7,2.7c0,1.5-1.2,2.7-2.7,2.7s-2.7-1.2-2.7-2.7
				C80.6,132.9,81.8,131.6,83.3,131.6z M83.3,135.7c0.7,0,1.2-0.6,1.2-1.3c0-0.7-0.6-1.3-1.2-1.3c-0.7,0-1.2,0.6-1.2,1.3
				C82.1,135.1,82.6,135.7,83.3,135.7z"/>
			<path id="XMLID_15654_" fill="#868D8D" d="M86.4,132.1c-0.1-0.2,0-0.3,0.2-0.3h1.1c0.1,0,0.2,0.1,0.2,0.1l1.1,2.4c0,0,0,0,0,0
				l1.1-2.4c0.1-0.1,0.2-0.1,0.3-0.1h1c0.2,0,0.3,0.1,0.2,0.3l-2.4,4.9c0,0.1-0.1,0.1-0.2,0.1H89c-0.1,0-0.2-0.1-0.2-0.1L86.4,132.1
				z"/>
			<path id="XMLID_15651_" fill="#868D8D" d="M94.8,131.6c1.3,0,2.4,1,2.4,2.4c0,0.1,0,0.3,0,0.3c0,0.1-0.1,0.2-0.2,0.2h-3.3
				c0,0.5,0.5,1.1,1.2,1.1c0.4,0,0.8-0.2,1-0.3c0.1-0.1,0.2-0.1,0.3,0l0.5,0.6c0.1,0.1,0.1,0.2,0,0.3c-0.4,0.4-1.1,0.7-1.9,0.7
				c-1.6,0-2.7-1.2-2.7-2.7C92.2,132.9,93.3,131.6,94.8,131.6z M95.7,133.7c0-0.5-0.5-0.9-0.9-0.9c-0.5,0-0.9,0.4-1,0.9H95.7z"/>
			<path id="XMLID_15649_" fill="#868D8D" d="M98.3,132c0-0.1,0.1-0.2,0.2-0.2h0.5c0.1,0,0.2,0.1,0.2,0.2l0.2,0.5
				c0.2-0.3,0.7-0.8,1.5-0.8c0.6,0,1.2,0.2,1,0.5l-0.5,0.8c-0.1,0.1-0.2,0.2-0.3,0.1c0,0-0.2-0.1-0.4-0.1c-0.5,0-0.8,0.3-0.9,0.5
				v3.1c0,0.2-0.1,0.2-0.3,0.2h-1c-0.1,0-0.2-0.1-0.2-0.2V132z"/>
			<path id="XMLID_15647_" fill="#868D8D" d="M102.3,132.1c-0.1-0.2,0-0.3,0.2-0.3h1.2c0.1,0,0.2,0.1,0.2,0.1l1.3,2.9h0l1.3-2.9
				c0.1-0.1,0.2-0.1,0.3-0.1h1c0.2,0,0.3,0.2,0.2,0.3l-4,8.6c0,0.1-0.1,0.2-0.2,0.2h-1.1c-0.2,0-0.3-0.2-0.2-0.4l1.8-3.9
				L102.3,132.1z"/>
		</g>
	</g>
	<g id="XMLID_10562_">
		<g id="XMLID_15544_">
			<path id="XMLID_15572_" fill="#868D8D" d="M140.2,135.7l0.5-0.8c0.1-0.2,0.3-0.2,0.4-0.1c0.1,0,1.1,0.8,2,0.8
				c0.7,0,1.2-0.4,1.2-1c0-0.7-0.6-1.1-1.7-1.6c-1.2-0.5-2.4-1.3-2.4-2.8c0-1.2,0.9-2.5,2.9-2.5c1.3,0,2.3,0.7,2.6,0.9
				c0.1,0.1,0.2,0.3,0.1,0.4l-0.5,0.7c-0.1,0.2-0.3,0.3-0.5,0.2c-0.1-0.1-1.1-0.7-1.8-0.7c-0.7,0-1.1,0.5-1.1,0.9
				c0,0.6,0.5,1,1.5,1.5c1.3,0.5,2.7,1.3,2.7,2.9c0,1.3-1.2,2.6-3,2.6c-1.6,0-2.6-0.8-2.9-1C140.1,136,140.1,135.9,140.2,135.7z"/>
			<path id="XMLID_15569_" fill="#868D8D" d="M149.5,131.6c1.3,0,2.4,1,2.4,2.4c0,0.1,0,0.3,0,0.3c0,0.1-0.1,0.2-0.2,0.2h-3.3
				c0,0.5,0.5,1.1,1.2,1.1c0.4,0,0.8-0.2,1-0.3c0.1-0.1,0.2-0.1,0.3,0l0.5,0.6c0.1,0.1,0.1,0.2,0,0.3c-0.4,0.4-1.1,0.7-1.9,0.7
				c-1.6,0-2.7-1.2-2.7-2.7C146.9,132.9,148,131.6,149.5,131.6z M150.5,133.7c0-0.5-0.5-0.9-0.9-0.9c-0.5,0-0.9,0.4-1,0.9H150.5z"/>
			<path id="XMLID_15567_" fill="#868D8D" d="M153.1,132c0-0.1,0.1-0.2,0.2-0.2h0.5c0.1,0,0.2,0.1,0.2,0.2l0.2,0.5
				c0.2-0.3,0.7-0.8,1.5-0.8c0.6,0,1.2,0.2,1,0.5l-0.5,0.8c-0.1,0.1-0.2,0.2-0.3,0.1c0,0-0.2-0.1-0.4-0.1c-0.5,0-0.8,0.3-0.9,0.5
				v3.1c0,0.2-0.1,0.2-0.3,0.2h-1c-0.1,0-0.2-0.1-0.2-0.2V132z"/>
			<path id="XMLID_15565_" fill="#868D8D" d="M157.1,132.1c-0.1-0.2,0-0.3,0.2-0.3h1.1c0.1,0,0.2,0.1,0.2,0.1l1.1,2.4c0,0,0,0,0,0
				l1.1-2.4c0.1-0.1,0.2-0.1,0.3-0.1h1c0.2,0,0.3,0.1,0.2,0.3l-2.4,4.9c0,0.1-0.1,0.1-0.2,0.1h-0.1c-0.1,0-0.2-0.1-0.2-0.1
				L157.1,132.1z"/>
			<path id="XMLID_15562_" fill="#868D8D" d="M163.1,129c0-0.5,0.4-0.9,0.9-0.9c0.5,0,0.9,0.4,0.9,0.9s-0.4,0.9-0.9,0.9
				C163.5,129.9,163.1,129.5,163.1,129z M163.2,132c0-0.1,0.1-0.2,0.2-0.2h1.1c0.1,0,0.2,0.1,0.2,0.2v4.7c0,0.1-0.1,0.2-0.2,0.2
				h-1.1c-0.1,0-0.2-0.1-0.2-0.2V132z"/>
			<path id="XMLID_15560_" fill="#868D8D" d="M168.7,131.6c0.8,0,1.4,0.3,1.9,0.9c0.1,0.1,0.1,0.3-0.1,0.4l-0.6,0.6
				c-0.1,0.1-0.2,0-0.3,0c-0.2-0.2-0.5-0.4-0.9-0.4c-0.7,0-1.3,0.6-1.3,1.3c0,0.7,0.6,1.3,1.3,1.3c0.6,0,0.8-0.3,1-0.5
				c0.1-0.1,0.2-0.1,0.3,0l0.6,0.5c0.1,0.1,0.2,0.2,0.1,0.4c-0.4,0.7-1.1,1.1-2.1,1.1c-1.5,0-2.8-1.2-2.8-2.7
				C165.9,132.8,167.2,131.6,168.7,131.6z"/>
			<path id="XMLID_15557_" fill="#868D8D" d="M174.1,131.6c1.3,0,2.4,1,2.4,2.4c0,0.1,0,0.3,0,0.3c0,0.1-0.1,0.2-0.2,0.2h-3.3
				c0,0.5,0.5,1.1,1.2,1.1c0.4,0,0.8-0.2,1-0.3c0.1-0.1,0.2-0.1,0.3,0l0.5,0.6c0.1,0.1,0.1,0.2,0,0.3c-0.4,0.4-1.1,0.7-1.9,0.7
				c-1.6,0-2.7-1.2-2.7-2.7C171.5,132.9,172.6,131.6,174.1,131.6z M175,133.7c0-0.5-0.5-0.9-0.9-0.9c-0.5,0-0.9,0.4-1,0.9H175z"/>
			<path id="XMLID_15554_" fill="#868D8D" d="M180.9,128.1c0-0.1,0.1-0.2,0.2-0.2h3.1c1.6,0,2.9,1.3,2.9,2.9c0,1.6-1.3,2.9-2.9,2.9
				h-1.6v3.1c0,0.1-0.1,0.2-0.2,0.2h-1.2c-0.1,0-0.2-0.1-0.2-0.2V128.1z M184.1,132.1c0.7,0,1.3-0.6,1.3-1.4c0-0.7-0.6-1.3-1.3-1.3
				h-1.5v2.6H184.1z"/>
			<path id="XMLID_15552_" fill="#868D8D" d="M187.9,132c0-0.1,0.1-0.2,0.2-0.2h0.5c0.1,0,0.2,0.1,0.2,0.2l0.2,0.5
				c0.2-0.3,0.7-0.8,1.5-0.8c0.6,0,1.2,0.2,1,0.5L191,133c-0.1,0.1-0.2,0.2-0.3,0.1c0,0-0.2-0.1-0.4-0.1c-0.5,0-0.8,0.3-0.9,0.5v3.1
				c0,0.2-0.1,0.2-0.3,0.2h-1c-0.1,0-0.2-0.1-0.2-0.2V132z"/>
			<path id="XMLID_15549_" fill="#868D8D" d="M194.5,131.6c1.5,0,2.7,1.2,2.7,2.7c0,1.5-1.2,2.7-2.7,2.7s-2.7-1.2-2.7-2.7
				C191.8,132.9,193,131.6,194.5,131.6z M194.5,135.7c0.7,0,1.2-0.6,1.2-1.3c0-0.7-0.6-1.3-1.2-1.3c-0.7,0-1.2,0.6-1.2,1.3
				C193.3,135.1,193.8,135.7,194.5,135.7z"/>
			<path id="XMLID_15547_" fill="#868D8D" d="M197.8,136.6l1.7-2.3l-1.6-2.2c-0.1-0.2,0-0.4,0.2-0.4h1.1c0.2,0,0.3,0,0.4,0.2
				l0.8,1.2h0l0.9-1.2c0.1-0.1,0.2-0.2,0.4-0.2h1.2c0.2,0,0.3,0.2,0.2,0.4l-1.6,2.2l1.7,2.3c0.1,0.2,0.1,0.4-0.2,0.4h-1.1
				c-0.2,0-0.3-0.1-0.4-0.2l-0.9-1.3h0l-1,1.4c0,0.1-0.1,0.1-0.2,0.1H198C197.7,137,197.7,136.8,197.8,136.6z"/>
			<path id="XMLID_15545_" fill="#868D8D" d="M203.5,132.1c-0.1-0.2,0-0.3,0.2-0.3h1.2c0.1,0,0.2,0.1,0.2,0.1l1.3,2.9h0l1.3-2.9
				c0.1-0.1,0.2-0.1,0.3-0.1h1c0.2,0,0.3,0.2,0.2,0.3l-4,8.6c0,0.1-0.1,0.2-0.2,0.2h-1.1c-0.2,0-0.3-0.2-0.2-0.4l1.8-3.9
				L203.5,132.1z"/>
		</g>
	</g>
	<path id="XMLID_6415_" fill="#57BFFF" d="M174.5,68.7c-12.4,0-22.4,10-22.4,22.4s10,22.4,22.4,22.4c12.4,0,22.4-10,22.4-22.4
		S186.8,68.7,174.5,68.7z"/>
	<g id="XMLID_6407_">
		<path id="XMLID_6414_" fill="#FFFFFF" d="M177.2,86.4H171c-0.6,0-1.2-0.5-1.2-1.2v-3.9c0-0.6,0.5-1.2,1.2-1.2h6.2
			c0.6,0,1.2,0.5,1.2,1.2v3.9C178.4,85.9,177.9,86.4,177.2,86.4z"/>
		<path id="XMLID_6413_" fill="#FFFFFF" d="M166.5,101.9h-6.2c-0.6,0-1.2-0.5-1.2-1.2v-3.9c0-0.6,0.5-1.2,1.2-1.2h6.2
			c0.6,0,1.2,0.5,1.2,1.2v3.9C167.7,101.4,167.2,101.9,166.5,101.9z"/>
		<path id="XMLID_6412_" fill="#FFFFFF" d="M177.6,101.9h-6.2c-0.6,0-1.2-0.5-1.2-1.2v-3.9c0-0.6,0.5-1.2,1.2-1.2h6.2
			c0.6,0,1.2,0.5,1.2,1.2v3.9C178.7,101.4,178.2,101.9,177.6,101.9z"/>
		<path id="XMLID_6411_" fill="#FFFFFF" d="M188.6,101.9h-6.2c-0.6,0-1.2-0.5-1.2-1.2v-3.9c0-0.6,0.5-1.2,1.2-1.2h6.2
			c0.6,0,1.2,0.5,1.2,1.2v3.9C189.8,101.4,189.3,101.9,188.6,101.9z"/>
		<rect id="XMLID_6410_" x="173.5" y="86.4" fill="#FFFFFF" width="1.2" height="9.8"/>
		
			<rect id="XMLID_6409_" x="168.7" y="84.9" transform="matrix(0.7071 0.7071 -0.7071 0.7071 114.4088 -92.8299)" fill="#FFFFFF" width="1.2" height="13.7"/>
		
			<rect id="XMLID_6408_" x="178.6" y="84.8" transform="matrix(0.7071 -0.7071 0.7071 0.7071 -12.4348 153.5725)" fill="#FFFFFF" width="1.2" height="14"/>
	</g>
	
		<use xlink:href="#New_Symbol"  width="29.9" height="29.9" id="XMLID_6406_" x="-14.9" y="-14.9" transform="matrix(1.6741 0 0 -1.6741 406.4137 33.8507)" overflow="visible"/>
	<polygon id="XMLID_6405_" fill="#FFFFFF" points="238.4,244.1 226.6,237.2 226.3,236.4 226.3,222.9 226.6,222.1 238.4,215.2 
		239.2,215.2 251.1,222.1 251.4,222.8 251.4,236.4 251.1,237.2 239.2,244.1 	"/>
	<g id="XMLID_6355_">
		<path id="XMLID_6380_" fill="#FFFFFF" d="M232.7,226.5c0,2.2,0,4.2,0,6.3c1.9-1.1,3.6-2.1,5.5-3.2
			C236.3,228.5,234.6,227.5,232.7,226.5z M238.2,237.2c-1.9-1.1-3.6-2.1-5.5-3.2c0,2.2,0,4.2,0,6.4
			C234.5,239.3,236.2,238.3,238.2,237.2z M238.4,244.1c0-2.2,0-4.2,0-6.3c-1.8,1.1-3.5,2-5.4,3.1C234.8,242,236.5,243,238.4,244.1z
			 M233,233.4c1.9,1.1,3.6,2.1,5.4,3.1c0-2.2,0-4.1,0-6.3C236.5,231.3,234.9,232.3,233,233.4z M238.4,215.2
			c-1.9,1.1-3.6,2.1-5.4,3.2c1.9,1.1,3.6,2.1,5.4,3.1C238.4,219.3,238.4,217.4,238.4,215.2z M239.2,236.6c1.9-1.1,3.6-2.1,5.5-3.2
			c-1.9-1.1-3.6-2.1-5.5-3.2C239.2,232.4,239.2,234.4,239.2,236.6z M251.1,229.6c-1.9-1.1-3.5-2-5.3-3c0,2.1,0,4,0,6.1
			C247.6,231.7,249.2,230.7,251.1,229.6z M239.2,237.8c0,2.2,0,4.1,0,6.3c1.9-1.1,3.6-2.1,5.5-3.1
			C242.8,239.8,241.1,238.9,239.2,237.8z M251.1,237.2c-1.9-1.1-3.5-2-5.3-3c0,2.1,0,4,0,6.1C247.6,239.2,249.2,238.2,251.1,237.2z
			 M245.7,225.2c1.8-1,3.5-2,5.3-3c-1.9-1.1-3.5-2-5.3-3.1C245.7,221.2,245.7,223.1,245.7,225.2z M244.9,226.5
			c-1.8,1.1-3.5,2.1-5.4,3.1c1.9,1.1,3.6,2.1,5.4,3.1C244.9,230.6,244.9,228.7,244.9,226.5z M244.7,218.3c-1.9-1.1-3.6-2.1-5.4-3.1
			c0,2.2,0,4.2,0,6.3C241.1,220.4,242.8,219.5,244.7,218.3z M244.9,234c-1.8,1.1-3.5,2-5.4,3.1c1.9,1.1,3.6,2.1,5.4,3.1
			C244.9,238.1,244.9,236.2,244.9,234z M238,222.1c-1.8-1.1-3.5-2-5.2-3c0,2.1,0,4,0,6C234.6,224.1,236.2,223.2,238,222.1z
			 M251.4,222.8c-1.8,1.1-3.5,2-5.3,3.1c1.9,1.1,3.5,2,5.3,3C251.4,226.8,251.4,224.9,251.4,222.8z M251.4,236.4c0-2.1,0-4,0-6.1
			c-1.8,1-3.4,2-5.3,3C248,234.5,249.6,235.4,251.4,236.4z M244.5,225.9c-1.8-1-3.5-2-5.2-3c0,2.1,0,4,0,6
			C241.1,227.9,242.7,226.9,244.5,225.9z M231.8,232.7c0-2.1,0-4,0-6c-1.8,1-3.4,2-5.2,3C228.4,230.7,230,231.6,231.8,232.7z
			 M226.6,222.1c1.8,1.1,3.5,2,5.2,3c0-2.1,0-3.9,0-6C230,220.1,228.4,221.1,226.6,222.1z M226.6,237.2c1.9,1.1,3.5,2,5.2,3
			c0-2.1,0-3.9,0-6C230,235.2,228.4,236.1,226.6,237.2z M226.3,230.4c0,2.1,0,4,0,6c1.8-1,3.4-2,5.2-3
			C229.6,232.3,228,231.4,226.3,230.4z M244.8,219.1c-1.8,1-3.4,2-5.2,3c1.9,1.1,3.5,2,5.2,3C244.8,223.1,244.8,221.2,244.8,219.1z
			 M226.3,222.9c0,2.1,0,4,0,6c1.8-1,3.4-2,5.2-3C229.7,224.8,228,223.9,226.3,222.9z M233.1,225.9c1.8,1,3.4,2,5.1,3
			c0-2,0-3.9,0-5.9C236.5,223.9,234.9,224.8,233.1,225.9z"/>
		<path id="XMLID_6379_" fill="#003857" d="M232.7,226.5c1.9,1.1,3.6,2.1,5.5,3.2c-1.9,1.1-3.6,2.1-5.5,3.2
			C232.7,230.6,232.7,228.7,232.7,226.5z"/>
		<path id="XMLID_6378_" fill="#003857" d="M238.2,237.2c-1.9,1.1-3.6,2.1-5.5,3.2c0-2.2,0-4.2,0-6.4
			C234.5,235.1,236.2,236.1,238.2,237.2z"/>
		<path id="XMLID_6377_" fill="#003857" d="M238.4,244.1c-1.9-1.1-3.6-2.1-5.4-3.1c1.9-1.1,3.6-2.1,5.4-3.1
			C238.4,239.9,238.4,241.9,238.4,244.1z"/>
		<path id="XMLID_6376_" fill="#003857" d="M233,233.4c1.9-1.1,3.6-2.1,5.4-3.1c0,2.1,0,4.1,0,6.3
			C236.6,235.5,234.9,234.5,233,233.4z"/>
		<path id="XMLID_6375_" fill="#003857" d="M238.4,215.2c0,2.2,0,4.1,0,6.3c-1.8-1.1-3.5-2-5.4-3.1
			C234.8,217.3,236.5,216.3,238.4,215.2z"/>
		<path id="XMLID_6374_" fill="#003857" d="M239.2,236.6c0-2.2,0-4.2,0-6.3c1.8,1.1,3.6,2.1,5.5,3.2
			C242.8,234.5,241.1,235.5,239.2,236.6z"/>
		<path id="XMLID_6373_" fill="#1AA3DA" d="M251.1,229.6c-1.9,1.1-3.5,2-5.3,3.1c0-2.1,0-4,0-6.1
			C247.5,227.6,249.2,228.5,251.1,229.6z"/>
		<path id="XMLID_6372_" fill="#003857" d="M239.2,237.8c1.9,1.1,3.5,2.1,5.5,3.2c-1.9,1.1-3.6,2.1-5.5,3.1
			C239.2,241.9,239.2,240,239.2,237.8z"/>
		<path id="XMLID_6371_" fill="#1AA3DA" d="M251.1,237.2c-1.9,1.1-3.5,2-5.3,3.1c0-2.1,0-4,0-6.1
			C247.5,235.2,249.2,236.1,251.1,237.2z"/>
		<path id="XMLID_6370_" fill="#1AA3DA" d="M245.7,225.2c0-2.1,0-4,0-6.1c1.8,1,3.4,2,5.3,3.1C249.2,223.2,247.5,224.1,245.7,225.2z
			"/>
		<path id="XMLID_6369_" fill="#003857" d="M244.9,226.5c0,2.2,0,4.1,0,6.3c-1.8-1.1-3.5-2-5.4-3.1
			C241.3,228.6,243,227.6,244.9,226.5z"/>
		<path id="XMLID_6368_" fill="#003857" d="M244.7,218.3c-1.9,1.1-3.6,2.1-5.4,3.2c0-2.1,0-4.1,0-6.3
			C241.1,216.3,242.8,217.3,244.7,218.3z"/>
		<path id="XMLID_6367_" fill="#003857" d="M244.9,234c0,2.2,0,4.1,0,6.3c-1.8-1-3.5-2-5.4-3.1C241.3,236.1,243,235.1,244.9,234z"/>
		<path id="XMLID_6366_" fill="#1AA3DA" d="M238,222.1c-1.8,1.1-3.4,2-5.2,3c0-2.1,0-3.9,0-6C234.5,220.1,236.2,221.1,238,222.1z"/>
		<path id="XMLID_6365_" fill="#1AA3DA" d="M251.4,222.8c0,2.1,0,4,0,6.1c-1.8-1-3.4-1.9-5.3-3C248,224.8,249.6,223.9,251.4,222.8z"
			/>
		<path id="XMLID_6364_" fill="#1AA3DA" d="M251.4,236.4c-1.8-1-3.4-2-5.3-3c1.8-1.1,3.5-2,5.3-3
			C251.4,232.5,251.4,234.3,251.4,236.4z"/>
		<path id="XMLID_6363_" fill="#1AA3DA" d="M244.5,225.9c-1.8,1-3.4,2-5.2,3c0-2,0-3.9,0-6C241,223.9,242.7,224.8,244.5,225.9z"/>
		<path id="XMLID_6362_" fill="#1AA3DA" d="M231.8,232.7c-1.8-1-3.4-2-5.2-3c1.8-1,3.4-2,5.2-3C231.8,228.7,231.8,230.6,231.8,232.7
			z"/>
		<path id="XMLID_6361_" fill="#1AA3DA" d="M226.6,222.1c1.8-1,3.5-2,5.2-3c0,2,0,3.9,0,6C230.1,224.1,228.4,223.2,226.6,222.1z"/>
		<path id="XMLID_6360_" fill="#1AA3DA" d="M226.6,237.2c1.8-1,3.4-2,5.2-3c0,2,0,3.9,0,6C230.1,239.2,228.4,238.2,226.6,237.2z"/>
		<path id="XMLID_6359_" fill="#1AA3DA" d="M226.3,230.4c1.7,1,3.4,1.9,5.2,3c-1.8,1-3.4,2-5.2,3
			C226.3,234.4,226.3,232.5,226.3,230.4z"/>
		<path id="XMLID_6358_" fill="#1AA3DA" d="M244.8,219.1c0,2.1,0,4,0,6c-1.7-1-3.4-1.9-5.2-3C241.4,221.1,243.1,220.1,244.8,219.1z"
			/>
		<path id="XMLID_6357_" fill="#1AA3DA" d="M226.3,222.9c1.8,1,3.4,1.9,5.2,3c-1.8,1.1-3.4,2-5.2,3
			C226.3,226.8,226.3,225,226.3,222.9z"/>
		<path id="XMLID_6356_" fill="#1AA3DA" d="M233.1,225.9c1.8-1,3.4-2,5.1-3c0,2,0,3.9,0,5.9C236.6,227.9,234.9,226.9,233.1,225.9z"
			/>
	</g>
	<path id="XMLID_6353_" fill="#646464" d="M226.3,247.4h6.3v1.1h-5.2v3.5h5.2v1.1h-5.2v4.4h5.2v1.1h-6.3V247.4z"/>
	<path id="XMLID_6351_" fill="#646464" d="M235.9,256.4l0.9-0.6c0.7,1.2,1.4,1.8,2.3,1.8c0.4,0,0.7-0.1,1-0.3
		c0.3-0.2,0.6-0.4,0.7-0.7c0.2-0.3,0.3-0.6,0.3-0.9c0-0.4-0.1-0.7-0.4-1.1c-0.3-0.5-1-1.1-1.9-1.8c-0.9-0.7-1.5-1.2-1.7-1.5
		c-0.4-0.5-0.6-1.1-0.6-1.7c0-0.5,0.1-0.9,0.3-1.3s0.6-0.7,1-0.9c0.4-0.2,0.9-0.3,1.4-0.3c0.5,0,1,0.1,1.5,0.4
		c0.5,0.3,0.9,0.7,1.4,1.4l-0.9,0.7c-0.4-0.6-0.8-0.9-1.1-1.1c-0.3-0.2-0.6-0.3-1-0.3c-0.4,0-0.8,0.1-1.1,0.4
		c-0.3,0.3-0.4,0.6-0.4,1c0,0.2,0.1,0.5,0.2,0.7c0.1,0.2,0.3,0.5,0.5,0.7c0.1,0.1,0.6,0.5,1.4,1.1c1,0.7,1.6,1.3,2,1.9
		c0.4,0.6,0.5,1.1,0.5,1.7c0,0.8-0.3,1.5-0.9,2.1c-0.6,0.6-1.4,0.9-2.2,0.9c-0.7,0-1.3-0.2-1.8-0.5
		C236.9,257.9,236.4,257.3,235.9,256.4z"/>
	<path id="XMLID_6348_" fill="#646464" d="M252.5,247.1c1.7,0,3.1,0.6,4.2,1.7c1.1,1.1,1.7,2.5,1.7,4.1c0,1.6-0.6,3-1.7,4.1
		c-1.1,1.1-2.5,1.7-4.1,1.7c-1.6,0-3-0.6-4.2-1.7c-1.1-1.1-1.7-2.5-1.7-4.1c0-1.1,0.3-2.1,0.8-3c0.5-0.9,1.2-1.6,2.1-2.1
		C250.5,247.4,251.4,247.1,252.5,247.1z M252.5,248.2c-0.8,0-1.6,0.2-2.3,0.6c-0.7,0.4-1.3,1-1.7,1.7c-0.4,0.7-0.6,1.5-0.6,2.4
		c0,1.3,0.5,2.4,1.4,3.3c0.9,0.9,2,1.4,3.3,1.4c0.9,0,1.7-0.2,2.4-0.6s1.3-1,1.7-1.7s0.6-1.5,0.6-2.4c0-0.9-0.2-1.7-0.6-2.4
		s-1-1.3-1.7-1.7C254.1,248.4,253.3,248.2,252.5,248.2z"/>
	<path id="XMLID_6346_" fill="#646464" d="M261.9,256.4l0.9-0.6c0.7,1.2,1.4,1.8,2.3,1.8c0.4,0,0.7-0.1,1-0.3
		c0.3-0.2,0.6-0.4,0.7-0.7c0.2-0.3,0.3-0.6,0.3-0.9c0-0.4-0.1-0.7-0.4-1.1c-0.3-0.5-1-1.1-1.9-1.8c-0.9-0.7-1.5-1.2-1.7-1.5
		c-0.4-0.5-0.6-1.1-0.6-1.7c0-0.5,0.1-0.9,0.3-1.3s0.6-0.7,1-0.9c0.4-0.2,0.9-0.3,1.4-0.3c0.5,0,1,0.1,1.5,0.4
		c0.5,0.3,0.9,0.7,1.4,1.4l-0.9,0.7c-0.4-0.6-0.8-0.9-1.1-1.1c-0.3-0.2-0.6-0.3-1-0.3c-0.4,0-0.8,0.1-1.1,0.4
		c-0.3,0.3-0.4,0.6-0.4,1c0,0.2,0,0.5,0.2,0.7c0.1,0.2,0.3,0.5,0.5,0.7c0.1,0.1,0.6,0.5,1.4,1.1c1,0.7,1.6,1.3,2,1.9
		c0.4,0.6,0.5,1.1,0.5,1.7c0,0.8-0.3,1.5-0.9,2.1c-0.6,0.6-1.4,0.9-2.2,0.9c-0.7,0-1.3-0.2-1.8-0.5
		C262.9,257.9,262.4,257.3,261.9,256.4z"/>
	<polygon id="XMLID_6345_" fill="#646464" points="220,258.6 221,258.6 221,247.6 215.4,254.8 209.8,247.5 209.8,249.4 215.4,256.5 
		220,250.6 	"/>
	<polygon id="XMLID_6344_" fill="#646464" points="209.8,251.4 211,252.8 211,258.8 209.8,258.8 	"/>
	<path id="XMLID_6343_" fill="#00FC98" d="M357.6,232.2c0-2-0.3-3.9-0.9-5.7l-11.1,4c0.1,0.5,0.2,1.1,0.2,1.7H357.6z"/>
	<path id="XMLID_6342_" fill="#007BF8" d="M332.1,249.9c2,0.7,4.2,1.2,6.5,1.2c2.6,0,5-0.5,7.2-1.4l-4.7-10.8
		c-0.8,0.3-1.6,0.5-2.5,0.5c-0.9,0-1.8-0.2-2.6-0.5L332.1,249.9z"/>
	<path id="XMLID_6341_" fill="#007BF8" d="M332,234.6c-0.3-0.7-0.4-1.5-0.4-2.4c0-3.9,3.2-7.1,7.1-7.1c0,0,0,0,0,0c0,0,0,0,0,0
		c-3.9,0-7.1,3.2-7.1,7.1h-11.8l0,0c0,2.8,0.6,5.4,1.7,7.8L332,234.6z"/>
	<path id="XMLID_6340_" fill="#00BFFD" d="M336.1,238.8c-1.9-0.7-3.4-2.3-4.1-4.2l-10.5,5.4c2.1,4.6,5.9,8.2,10.7,9.9"/>
	<path id="XMLID_6339_" fill="#00F79D" d="M345.7,232.2c0,3-1.9,5.6-4.6,6.6l4.7,10.8c6.9-2.8,11.7-9.6,11.7-17.5H345.7z"/>
	<path id="XMLID_6338_" fill="#78FF00" d="M356.7,226.5c-1-3.1-2.7-5.8-5-8l-7.7,9c0,0-0.1-0.1-0.1-0.1c0.8,0.9,1.5,2,1.8,3.2
		L356.7,226.5z"/>
	<path id="XMLID_6337_" fill="#05D9A6" d="M338.7,225.1C338.7,225.1,338.7,225.1,338.7,225.1c0.3,0,0.5,0,0.7,0c0.1,0,0.2,0,0.2,0
		c0.2,0,0.3,0,0.5,0.1c0.1,0,0.2,0,0.3,0.1c0.1,0,0.3,0.1,0.4,0.1c0.1,0,0.2,0.1,0.3,0.1c0.1,0,0.3,0.1,0.4,0.1
		c0.1,0,0.2,0.1,0.3,0.1c0.1,0.1,0.2,0.1,0.4,0.2c0.1,0.1,0.2,0.1,0.3,0.2c0.1,0.1,0.2,0.1,0.3,0.2c0.1,0.1,0.2,0.1,0.3,0.2
		c0.1,0.1,0.2,0.2,0.3,0.2c0.1,0.1,0.2,0.1,0.2,0.2c0.1,0.1,0.2,0.2,0.3,0.3c0,0,0.1,0.1,0.1,0.1l7.7-9l0,0
		c-0.2-0.2-0.4-0.3-0.5-0.5c-0.2-0.2-0.4-0.4-0.6-0.5c-0.3-0.2-0.5-0.4-0.8-0.6c-0.2-0.2-0.4-0.3-0.7-0.5c-0.3-0.2-0.6-0.3-0.8-0.5
		c-0.2-0.1-0.5-0.3-0.7-0.4c-0.3-0.2-0.6-0.3-0.9-0.4c-0.2-0.1-0.5-0.2-0.7-0.3c-0.3-0.1-0.7-0.2-1-0.4c-0.2-0.1-0.5-0.2-0.7-0.3
		c-0.4-0.1-0.7-0.2-1.1-0.3c-0.2-0.1-0.5-0.1-0.7-0.2c-0.4-0.1-0.8-0.1-1.2-0.2c-0.2,0-0.4-0.1-0.6-0.1c-0.6-0.1-1.3-0.1-1.9-0.1
		c-10.4,0-18.9,8.5-18.9,18.9l0,0h11.8C331.6,228.3,334.7,225.1,338.7,225.1z"/>
	
		<circle id="XMLID_6336_" fill="none" stroke="#000000" stroke-width="0.25" stroke-miterlimit="10" cx="338.7" cy="232.2" r="18.9"/>
	<circle id="XMLID_6335_" fill="#FFFFFF" cx="338.7" cy="232.2" r="7.1"/>
	<path id="XMLID_6334_" fill="none" d="M343.3,226.8c-0.1-0.1-0.2-0.2-0.3-0.2c-0.1-0.1-0.2-0.1-0.3-0.2c-0.1-0.1-0.2-0.1-0.3-0.2
		c-0.1-0.1-0.2-0.1-0.3-0.2c-0.1-0.1-0.2-0.1-0.4-0.2c-0.1,0-0.2-0.1-0.3-0.1c-0.1-0.1-0.3-0.1-0.4-0.1c-0.1,0-0.2-0.1-0.3-0.1
		c-0.1,0-0.3-0.1-0.4-0.1c-0.1,0-0.2-0.1-0.3-0.1c-0.2,0-0.3-0.1-0.5-0.1c-0.1,0-0.2,0-0.2,0c-0.2,0-0.5,0-0.7,0c0,0,0,0,0,0
		c-3.9,0-7.1,3.2-7.1,7.1c0,3.9,3.2,7.1,7.1,7.1c3.9,0,7.1-3.2,7.1-7.1c0-1.9-0.7-3.6-1.9-4.9c-0.1-0.1-0.2-0.2-0.3-0.3
		C343.4,227,343.4,226.9,343.3,226.8z"/>
	<path id="XMLID_6333_" fill="#78FF00" d="M344.2,214.1c0.2,0.1,0.5,0.2,0.7,0.3C344.7,214.3,344.4,214.2,344.2,214.1z"/>
	<path id="XMLID_6332_" fill="#78FF00" d="M347.5,215.5c0.2,0.1,0.5,0.3,0.7,0.4C348,215.8,347.8,215.6,347.5,215.5z"/>
	<path id="XMLID_6331_" fill="#78FF00" d="M340.6,213.4c0.2,0,0.4,0.1,0.6,0.1C341,213.4,340.8,213.4,340.6,213.4z"/>
	<path id="XMLID_6330_" fill="#78FF00" d="M342.4,213.6c0.2,0,0.5,0.1,0.7,0.2C342.9,213.8,342.6,213.7,342.4,213.6z"/>
	<path id="XMLID_6329_" fill="#78FF00" d="M345.9,214.7c0.2,0.1,0.5,0.2,0.7,0.3C346.4,214.9,346.1,214.8,345.9,214.7z"/>
	<path id="XMLID_6328_" fill="#78FF00" d="M339.4,225.1c0.1,0,0.2,0,0.2,0C339.6,225.2,339.5,225.1,339.4,225.1z"/>
	<path id="XMLID_6327_" fill="#78FF00" d="M340.1,225.2c0.1,0,0.2,0,0.3,0.1C340.3,225.3,340.2,225.3,340.1,225.2z"/>
	<path id="XMLID_6326_" fill="#78FF00" d="M340.8,225.4c0.1,0,0.2,0.1,0.3,0.1C341,225.5,340.9,225.5,340.8,225.4z"/>
	<path id="XMLID_6325_" fill="#78FF00" d="M350.5,217.5c0.2,0.2,0.4,0.4,0.6,0.5C350.9,217.8,350.7,217.6,350.5,217.5z"/>
	<path id="XMLID_6324_" fill="#78FF00" d="M349.1,216.4c0.2,0.2,0.4,0.3,0.7,0.5C349.5,216.7,349.3,216.6,349.1,216.4z"/>
	<path id="XMLID_6323_" fill="#78FF00" d="M342.1,226c0.1,0.1,0.2,0.1,0.3,0.2C342.3,226.1,342.2,226.1,342.1,226z"/>
	<path id="XMLID_6322_" fill="#78FF00" d="M343.3,226.8c0.1,0.1,0.2,0.1,0.2,0.2C343.4,227,343.4,226.9,343.3,226.8z"/>
	<path id="XMLID_6321_" fill="#78FF00" d="M342.7,226.4c0.1,0.1,0.2,0.1,0.3,0.2C342.9,226.5,342.8,226.4,342.7,226.4z"/>
	<path id="XMLID_6320_" fill="#78FF00" d="M341.5,225.7c0.1,0,0.2,0.1,0.3,0.1C341.7,225.8,341.6,225.7,341.5,225.7z"/>
	<path id="XMLID_6318_" fill="#646464" stroke="#646464" stroke-width="0.25" stroke-miterlimit="10" d="M323,260.6
		C323,260.6,323,260.6,323,260.6c-0.2,0.1-0.2,0-0.2,0v-4.1l-1.5,2.1c0,0,0,0-0.1,0c0,0,0,0,0,0c0,0,0,0,0,0c0,0,0,0-0.1,0l-1.5-2.1
		v4.1c0,0,0,0.1-0.1,0.1c-0.1,0-0.1,0-0.1-0.1v-4.4v0v0l0,0v0v0h0v0h0v0l0,0c0,0,0,0,0,0l0,0l0,0h0h0h0h0h0h0h0c0,0,0,0,0,0h0l0,0h0
		v0h0v0h0v0v0l1.6,2.2l1.6-2.2v0v0h0v0h0v0h0c0,0,0,0,0,0h0c0,0,0,0,0,0h0h0h0h0h0h0h0c0,0,0,0,0,0h0v0h0c0,0,0,0,0,0v0h0v0
		c0,0,0,0,0,0v0v0h0v0v0V260.6z"/>
	<path id="XMLID_6315_" fill="#646464" stroke="#646464" stroke-width="0.25" stroke-miterlimit="10" d="M328.7,260.5
		C328.7,260.6,328.7,260.6,328.7,260.5C328.6,260.6,328.6,260.6,328.7,260.5l-0.1,0.1c-0.1,0-0.1,0-0.1,0l-0.4-0.9h-2.4l-0.4,0.9
		c0,0-0.1,0-0.1,0h0c-0.1,0-0.1,0-0.1-0.1l1.7-4.4c0,0,0,0,0,0v0l0,0v0h0v0h0v0h0c0,0,0,0,0,0h0v0h0h0h0h0h0l0,0h0h0v0h0v0h0v0l0,0
		v0h0v0v0L328.7,260.5z M328,259.5l-1.1-3l-1.1,3H328z"/>
	<path id="XMLID_6312_" fill="#646464" stroke="#646464" stroke-width="0.25" stroke-miterlimit="10" d="M333.7,260.5
		C333.7,260.5,333.7,260.6,333.7,260.5C333.7,260.6,333.6,260.6,333.7,260.5L333.7,260.5c-0.1,0.1-0.2,0.1-0.2,0l-1.3-1.9
		c0,0,0,0-0.1,0h-1.4v1.9c0,0,0,0.1-0.1,0.1c-0.1,0-0.1,0-0.1-0.1v-4.4c0,0,0-0.1,0.1-0.1h1.5c0.2,0,0.4,0,0.5,0.1
		c0.2,0.1,0.3,0.2,0.5,0.3c0.1,0.1,0.2,0.3,0.3,0.4s0.1,0.3,0.1,0.5c0,0.2,0,0.3-0.1,0.5c-0.1,0.2-0.2,0.3-0.3,0.4
		c-0.2,0.2-0.4,0.3-0.7,0.4L333.7,260.5z M332.1,258.6c0.1,0,0.3,0,0.4-0.1c0.1-0.1,0.3-0.1,0.4-0.3c0.1-0.1,0.2-0.2,0.3-0.4
		c0.1-0.1,0.1-0.3,0.1-0.4c0-0.1,0-0.3-0.1-0.4c-0.1-0.1-0.2-0.3-0.3-0.4c-0.1-0.1-0.2-0.2-0.4-0.3c-0.1-0.1-0.3-0.1-0.4-0.1h-1.4
		v2.3H332.1z"/>
	<path id="XMLID_6309_" fill="#646464" stroke="#646464" stroke-width="0.25" stroke-miterlimit="10" d="M338.6,260.5
		C338.6,260.6,338.6,260.6,338.6,260.5C338.6,260.6,338.6,260.6,338.6,260.5l-0.1,0.1c-0.1,0-0.1,0-0.1,0l-0.4-0.9h-2.4l-0.4,0.9
		c0,0-0.1,0-0.1,0h0c-0.1,0-0.1,0-0.1-0.1l1.7-4.4c0,0,0,0,0,0v0l0,0v0h0v0h0v0h0c0,0,0,0,0,0h0v0h0h0h0h0h0l0,0h0h0v0h0v0h0v0l0,0
		v0h0v0v0L338.6,260.5z M338,259.5l-1.1-3l-1.1,3H338z"/>
	<path id="XMLID_6307_" fill="#646464" stroke="#646464" stroke-width="0.25" stroke-miterlimit="10" d="M341.1,256.2h-1.3
		c-0.1,0-0.1,0-0.1-0.1c0,0,0-0.1,0.1-0.1h2.8c0.1,0,0.1,0,0.1,0.1c0,0,0,0.1-0.1,0.1h-1.3v4.3c0,0,0,0.1-0.1,0.1
		c-0.1,0-0.1,0-0.1-0.1V256.2z"/>
	<path id="XMLID_6305_" fill="#646464" stroke="#646464" stroke-width="0.25" stroke-miterlimit="10" d="M347,256.1
		C347.1,256.1,347.1,256.1,347,256.1l0.1,4.4c0,0,0,0.1-0.1,0.1c-0.1,0-0.1,0-0.1-0.1v-1.9h-2.4v1.9c0,0,0,0.1-0.1,0.1
		c-0.1,0-0.1,0-0.1-0.1v-4.4c0,0,0-0.1,0.1-0.1c0.1,0,0.1,0,0.1,0.1v2.4h2.4L347,256.1C346.9,256.1,347,256.1,347,256.1z"/>
	<path id="XMLID_6302_" fill="#646464" stroke="#646464" stroke-width="0.25" stroke-miterlimit="10" d="M351.9,259.6
		C351.9,259.7,351.9,259.7,351.9,259.6c0,0.2,0,0.2,0,0.3s-0.1,0.2-0.1,0.2c0,0.1-0.1,0.2-0.2,0.2c-0.2,0.2-0.5,0.3-0.9,0.3
		c-0.4,0-0.7-0.1-0.9-0.3c-0.1-0.1-0.2-0.2-0.2-0.2s-0.1-0.2-0.1-0.3c0-0.1,0-0.1,0-0.2c0-0.1,0-0.1,0-0.1v-2.5
		c0-0.3,0.1-0.6,0.4-0.8c0.1-0.1,0.2-0.1,0.4-0.2s0.3-0.1,0.5-0.1s0.3,0,0.5,0.1c0.1,0,0.3,0.1,0.4,0.2c0.3,0.2,0.4,0.4,0.4,0.8
		V259.6z M351.7,257.1c0-0.2,0-0.3-0.1-0.4c-0.1-0.1-0.2-0.2-0.3-0.3c-0.1-0.1-0.2-0.1-0.4-0.1c-0.1,0-0.3,0-0.4,0
		c-0.1,0-0.3,0-0.4,0.1c-0.1,0-0.2,0.1-0.3,0.2c-0.1,0.1-0.2,0.2-0.2,0.3c-0.1,0.1-0.1,0.2-0.1,0.4v2.5c0,0.1,0,0.2,0,0.3
		c0,0.1,0,0.2,0.1,0.2c0,0.1,0.1,0.2,0.2,0.2c0.2,0.1,0.4,0.2,0.8,0.2c0.3,0,0.6-0.1,0.8-0.2c0.1-0.1,0.2-0.1,0.2-0.2
		c0-0.1,0.1-0.2,0.1-0.2c0-0.1,0-0.2,0-0.2L351.7,257.1z"/>
	<path id="XMLID_6300_" fill="#646464" stroke="#646464" stroke-width="0.25" stroke-miterlimit="10" d="M353.9,256.2L353.9,256.2
		L353.9,256.2L353.9,256.2L353.9,256.2L353.9,256.2L353.9,256.2L353.9,256.2L353.9,256.2L353.9,256.2L353.9,256.2
		C354,256.1,354,256.1,353.9,256.2L353.9,256.2C354,256.1,354,256.1,353.9,256.2L353.9,256.2L353.9,256.2L353.9,256.2l0.1-0.1h0h0h0
		c0,0,0,0,0,0h0v0h0l0,0v0h0v0l0,0l2.5,4.1v-4.1c0,0,0-0.1,0.1-0.1c0.1,0,0.1,0,0.1,0.1v4.4h0v0v0v0v0h0v0v0h0v0h0v0h0v0h0l0,0h0h0
		h0h0l0,0h0c0,0,0,0,0,0l0,0l0,0v0c0,0,0,0,0,0l-2.5-4.1v4.1c0,0,0,0.1-0.1,0.1s-0.1,0-0.1-0.1V256.2L353.9,256.2z"/>
</g>
<g id="Misc._Art" display="none">
</g>
</svg>
