<?xml version="1.0" encoding="utf-8"?>
<!-- Generator: Adobe Illustrator 19.2.1, SVG Export Plug-In . SVG Version: 6.00 Build 0)  -->
<svg version="1.1" xmlns="http://www.w3.org/2000/svg" xmlns:xlink="http://www.w3.org/1999/xlink" x="0px" y="0px"
	 viewBox="0 0 490 305" enable-background="new 0 0 490 305" xml:space="preserve">
<symbol  id="New_Symbol" viewBox="-14.9 -14.9 29.9 29.9">
	<path fill="#EC4F24" d="M14.9-9.7c0-2.9-2.3-5.2-5.2-5.2H-9.7c-2.9,0-5.2,2.3-5.2,5.2V9.7c0,2.9,2.3,5.2,5.2,5.2H9.7
		c2.9,0,5.2-2.3,5.2-5.2V-9.7z"/>
	<g>
		<path fill="#FFFFFF" d="M-0.1,3.6v1.7h-1.6c-0.1,0.6-0.3,1.1-0.6,1.6L-1.2,8l-1.2,1.2L-3.6,8c-0.5,0.3-1,0.6-1.6,0.7v1.6h-1.7V8.7
			C-7.4,8.6-8,8.4-8.5,8.1l-1.1,1.1L-10.8,8l1.1-1.1c-0.3-0.5-0.5-1-0.7-1.6h-1.6V3.6h1.6C-10.2,3-10,2.4-9.6,2l-1.1-1.1l1.2-1.2
			l1.2,1.2c0.5-0.3,1-0.5,1.6-0.6v-1.7h1.7v1.7c0.6,0.1,1.1,0.3,1.6,0.7l1.2-1.2l1.2,1.2L-2.4,2c0.3,0.5,0.5,1,0.7,1.6H-0.1z
			 M-6,1.8c-1.5,0-2.7,1.2-2.7,2.7S-7.5,7.1-6,7.1s2.7-1.2,2.7-2.7S-4.6,1.8-6,1.8z"/>
		<path fill="#FFFFFF" d="M12.3-4.1v1.9h-1.8c-0.1,0.6-0.4,1.2-0.7,1.7l1.3,1.3L9.7,2.1L8.5,0.8C8,1.2,7.4,1.4,6.7,1.5v1.8H4.9V1.6
			C4.2,1.4,3.6,1.2,3.1,0.8L1.9,2.1L0.5,0.7l1.2-1.2C1.4-1,1.2-1.6,1-2.3h-1.8v-1.9h1.8c0.1-0.6,0.4-1.2,0.7-1.8L0.5-7.2l1.3-1.3
			l1.3,1.3c0.5-0.3,1.1-0.6,1.7-0.7v-1.8h1.9v1.8c0.6,0.1,1.2,0.4,1.7,0.7l1.3-1.3l1.3,1.3L9.8-5.9c0.3,0.5,0.6,1.1,0.7,1.7H12.3z
			 M5.8-6.1c-1.6,0-3,1.3-3,3s1.3,3,3,3s3-1.3,3-3S7.4-6.1,5.8-6.1z"/>
	</g>
</symbol>
<g id="Artwork__x5B_Live_x5D_" display="none">
	<g id="XMLID_1745_" display="inline">
		<path id="XMLID_3440_" fill="#8A9192" d="M39,117.7c0-2.5-4.1-4.6-9.4-5.1v-0.8c1.9-1.1,3.2-3.3,3.2-5.9c0-3.6-2.5-6.6-5.6-6.6
			c-3.1,0-5.6,3-5.6,6.6c0,2.6,1.3,4.9,3.2,5.9v0.8c-5.4,0.5-9.4,2.6-9.4,5.1c0,0.1,0,0.1,0,0.2h0v3.3c0.3,0.3,0.7,0.5,1.1,0.8
			c2.8,1.9,6.5,3,10.6,3s7.8-1.1,10.6-3c0.5-0.3,1-0.7,1.4-1.1v-3h0C39,117.8,39,117.8,39,117.7z"/>
		<path id="XMLID_3439_" fill="#8A9192" d="M39,74.2c0-2.5-4.1-4.6-9.4-5.1v-0.8c1.9-1.1,3.2-3.3,3.2-5.9c0-3.6-2.5-6.6-5.6-6.6
			c-3.1,0-5.6,3-5.6,6.6c0,2.6,1.3,4.9,3.2,5.9v0.8c-5.4,0.5-9.4,2.6-9.4,5.1c0,0.1,0,0.1,0,0.2h0v3.3c0.3,0.3,0.7,0.5,1.1,0.8
			c2.8,1.9,6.5,3,10.6,3s7.8-1.1,10.6-3c0.5-0.3,1-0.7,1.4-1.1v-3h0C39,74.4,39,74.3,39,74.2z"/>
		<path id="XMLID_3438_" fill="#8A9192" d="M39,30.7c0-2.5-4.1-4.6-9.4-5.1v-0.8c1.9-1.1,3.2-3.3,3.2-5.9c0-3.6-2.5-6.6-5.6-6.6
			c-3.1,0-5.6,3-5.6,6.6c0,2.6,1.3,4.9,3.2,5.9v0.8c-5.4,0.5-9.4,2.6-9.4,5.1c0,0.1,0,0.1,0,0.2h0v3.3c0.3,0.3,0.7,0.5,1.1,0.8
			c2.8,1.9,6.5,3,10.6,3s7.8-1.1,10.6-3c0.5-0.3,1-0.7,1.4-1.1v-3h0C39,30.9,39,30.8,39,30.7z"/>
		<g id="XMLID_3250_">
			<g id="XMLID_3274_">
				<g id="XMLID_3433_">
					
						<image overflow="visible" width="377" height="348" id="XMLID_2872_" xlink:href="F3D36003A1D0D78A.png"  transform="matrix(0.24 0 0 0.24 374.0472 34.9176)">
					</image>
				</g>
				<g id="XMLID_3430_">
					
						<image overflow="visible" width="324" height="324" id="XMLID_2720_" xlink:href="F3D36003A1D0D78E.png"  transform="matrix(0.24 0 0 0.24 380.3256 40.8624)">
					</image>
				</g>
				<g id="XMLID_3275_">
					<g id="XMLID_3334_">
						<g id="XMLID_3364_" enable-background="new    ">
							<g id="XMLID_3407_" enable-background="new    ">
								<defs>
									<path id="XMLID_3408_" enable-background="new    " d="M448.5,73.1l-5-4.9c0.7-0.1,1.3-0.7,1.3-1.4l5,4.9
										C449.8,72.4,449.2,73,448.5,73.1z"/>
								</defs>
								<clipPath id="XMLID_2143_">
									<use xlink:href="#XMLID_3408_"  overflow="visible"/>
								</clipPath>
								<g id="XMLID_3409_" clip-path="url(#XMLID_2143_)" enable-background="new    ">
									<path id="XMLID_3429_" fill="#B83626" d="M448.5,73.1l-5-4.9c0,0,0,0,0.1,0L448.5,73.1C448.5,73.1,448.5,73.1,448.5,73.1"
										/>
									<path id="XMLID_3428_" fill="#BB3728" d="M448.6,73.1l-5-4.9c0.1,0,0.1,0,0.2,0l5,4.9C448.7,73,448.6,73,448.6,73.1"/>
									<path id="XMLID_3427_" fill="#C03928" d="M448.8,73l-5-4.9c0.1,0,0.2-0.1,0.3-0.1l5,4.9C448.9,72.9,448.8,73,448.8,73"/>
									<path id="XMLID_3426_" fill="#BB3728" d="M449,72.9l-5-4.9c0.1,0,0.1-0.1,0.2-0.1l5,4.9C449.1,72.8,449.1,72.9,449,72.9"/>
									<path id="XMLID_3425_" fill="#B83626" d="M449.2,72.8l-5-4.9c0,0,0.1-0.1,0.1-0.1L449.2,72.8
										C449.3,72.7,449.2,72.8,449.2,72.8"/>
									<path id="XMLID_3424_" fill="#B33527" d="M449.3,72.7l-5-4.9c0,0,0.1,0,0.1-0.1L449.3,72.7
										C449.3,72.7,449.3,72.7,449.3,72.7"/>
									<path id="XMLID_3423_" fill="#B23226" d="M449.4,72.7l-5-4.9c0,0,0,0,0.1-0.1L449.4,72.7C449.4,72.6,449.4,72.6,449.4,72.7
										"/>
									<path id="XMLID_3422_" fill="#AE3026" d="M449.4,72.6l-5-4.9c0,0,0,0,0.1-0.1L449.4,72.6C449.5,72.5,449.4,72.6,449.4,72.6
										"/>
									<path id="XMLID_3421_" fill="#AB3025" d="M449.5,72.5l-5-4.9c0,0,0,0,0-0.1L449.5,72.5C449.5,72.5,449.5,72.5,449.5,72.5"
										/>
									<path id="XMLID_3420_" fill="#A73024" d="M449.5,72.5l-5-4.9c0,0,0,0,0-0.1L449.5,72.5C449.5,72.4,449.5,72.4,449.5,72.5"
										/>
									<path id="XMLID_3419_" fill="#A32C24" d="M449.6,72.4l-5-4.9c0,0,0,0,0-0.1L449.6,72.4C449.6,72.4,449.6,72.4,449.6,72.4"
										/>
									<path id="XMLID_3418_" fill="#9F2B23" d="M449.6,72.3l-5-4.9c0,0,0,0,0-0.1L449.6,72.3C449.6,72.3,449.6,72.3,449.6,72.3"
										/>
									<path id="XMLID_3417_" fill="#9A2C21" d="M449.6,72.3l-5-4.9c0,0,0,0,0-0.1L449.6,72.3C449.6,72.2,449.6,72.3,449.6,72.3"
										/>
									<path id="XMLID_3416_" fill="#972B21" d="M449.7,72.2l-5-4.9c0,0,0,0,0-0.1L449.7,72.2C449.7,72.2,449.7,72.2,449.7,72.2"
										/>
									<path id="XMLID_3415_" fill="#942820" d="M449.7,72.1l-5-4.9c0,0,0,0,0-0.1L449.7,72.1C449.7,72.1,449.7,72.1,449.7,72.1"
										/>
									<path id="XMLID_3414_" fill="#912720" d="M449.7,72.1l-5-4.9c0,0,0,0,0-0.1L449.7,72.1C449.7,72,449.7,72.1,449.7,72.1"/>
									<path id="XMLID_3413_" fill="#8D251E" d="M449.7,72l-5-4.9c0,0,0-0.1,0-0.1L449.7,72C449.7,71.9,449.7,72,449.7,72"/>
									<path id="XMLID_3412_" fill="#8A241D" d="M449.7,71.9l-5-4.9c0,0,0-0.1,0-0.1L449.7,71.9C449.7,71.9,449.7,71.9,449.7,71.9
										"/>
									<path id="XMLID_3411_" fill="#87231C" d="M449.8,71.8l-5-4.9c0,0,0-0.1,0-0.1l5,4.9C449.8,71.8,449.8,71.8,449.8,71.8"/>
									<path id="XMLID_3410_" fill="#84231B" d="M449.8,71.7l-5-4.9c0,0,0,0,0,0L449.8,71.7C449.8,71.7,449.8,71.7,449.8,71.7"/>
								</g>
							</g>
							<g id="XMLID_3400_">
								<g id="XMLID_2694_">
									<polygon id="XMLID_2696_" fill="#87231C" points="449.8,70 444.8,65.1 452.3,64.4 457.3,69.3 									"/>
								</g>
								<g id="XMLID_2492_">
									<polygon id="XMLID_2693_" fill="#87231C" points="449.8,70 444.8,65.1 452.3,64.4 457.3,69.3 									"/>
								</g>
							</g>
							<g id="XMLID_3398_">
								<polygon id="XMLID_3399_" fill="#87231C" points="449.8,71.7 444.8,66.8 444.8,65.1 449.8,70 								"/>
							</g>
							<g id="XMLID_3396_">
								<polygon id="XMLID_3397_" fill="#C03928" points="430,74.7 425,69.8 443.5,68.1 448.5,73.1 								"/>
							</g>
							<g id="XMLID_3381_" enable-background="new    ">
								<defs>
									<path id="XMLID_3382_" enable-background="new    " d="M429.1,74.4c-0.1-0.1-0.2-0.2-0.3-0.2c-1.6-1.6-3.1-3.1-4.7-4.7
										c0.2,0.2,0.6,0.3,0.9,0.3l5,4.9C429.6,74.7,429.3,74.6,429.1,74.4z"/>
								</defs>
								<clipPath id="XMLID_2161_">
									<use xlink:href="#XMLID_3382_"  overflow="visible"/>
								</clipPath>
								<g id="XMLID_3383_" clip-path="url(#XMLID_2161_)" enable-background="new    ">
									<path id="XMLID_3395_" fill="#912720" d="M429.1,74.4l-5-4.9c0,0,0,0,0.1,0L429.1,74.4C429.1,74.4,429.1,74.4,429.1,74.4"
										/>
									<path id="XMLID_3394_" fill="#942820" d="M429.1,74.4l-5-4.9c0,0,0.1,0,0.1,0.1L429.1,74.4
										C429.2,74.5,429.1,74.4,429.1,74.4"/>
									<path id="XMLID_3393_" fill="#972B21" d="M429.2,74.5l-5-4.9c0,0,0.1,0,0.1,0L429.2,74.5C429.2,74.5,429.2,74.5,429.2,74.5
										"/>
									<path id="XMLID_3392_" fill="#9A2C21" d="M429.3,74.5l-5-4.9c0,0,0,0,0.1,0L429.3,74.5C429.3,74.6,429.3,74.5,429.3,74.5"
										/>
									<path id="XMLID_3391_" fill="#9F2B23" d="M429.3,74.6l-5-4.9c0,0,0,0,0.1,0L429.3,74.6C429.4,74.6,429.4,74.6,429.3,74.6"
										/>
									<path id="XMLID_3390_" fill="#A32C24" d="M429.4,74.6l-5-4.9c0,0,0.1,0,0.1,0L429.4,74.6C429.5,74.6,429.4,74.6,429.4,74.6
										"/>
									<path id="XMLID_3389_" fill="#A73024" d="M429.5,74.6l-5-4.9c0,0,0,0,0.1,0L429.5,74.6C429.5,74.6,429.5,74.6,429.5,74.6"
										/>
									<path id="XMLID_3388_" fill="#AB3025" d="M429.6,74.7l-5-4.9c0,0,0.1,0,0.1,0L429.6,74.7C429.6,74.7,429.6,74.7,429.6,74.7
										"/>
									<path id="XMLID_3387_" fill="#AE3026" d="M429.6,74.7l-5-4.9c0,0,0.1,0,0.1,0L429.6,74.7C429.7,74.7,429.7,74.7,429.6,74.7
										"/>
									<path id="XMLID_3386_" fill="#B23226" d="M429.7,74.7l-5-4.9c0,0,0.1,0,0.1,0L429.7,74.7C429.8,74.7,429.8,74.7,429.7,74.7
										"/>
									<path id="XMLID_3385_" fill="#B33527" d="M429.8,74.7l-5-4.9c0,0,0.1,0,0.1,0l5,4.9C429.9,74.7,429.9,74.7,429.8,74.7"/>
									<path id="XMLID_3384_" fill="#B83626" d="M429.9,74.7l-5-4.9c0,0,0,0,0.1,0L429.9,74.7C430,74.7,429.9,74.7,429.9,74.7"/>
								</g>
							</g>
							<g id="XMLID_3376_" enable-background="new    ">
								<defs>
									<path id="XMLID_3377_" enable-background="new    " d="M421.8,82.1l-5-4.9c-0.4-0.4-0.6-0.9-0.6-1.6l5,4.9
										C421.2,81.2,421.4,81.7,421.8,82.1z"/>
								</defs>
								<clipPath id="XMLID_2195_">
									<use xlink:href="#XMLID_3377_"  overflow="visible"/>
								</clipPath>
								<g id="XMLID_3378_" clip-path="url(#XMLID_2195_)" enable-background="new    ">
									<path id="XMLID_3380_" fill="#802119" d="M421.8,82.1l-5-4.9c-0.4-0.3-0.6-0.8-0.6-1.4l5,4.9
										C421.2,81.3,421.5,81.8,421.8,82.1"/>
									<path id="XMLID_3379_" fill="#84231B" d="M421.2,80.8l-5-4.9c0-0.1,0-0.1,0-0.2l5,4.9C421.2,80.6,421.2,80.7,421.2,80.8"/>
								</g>
							</g>
							<g id="XMLID_3374_">
								<path id="XMLID_3375_" fill="#D53D27" d="M457.3,69.3l0,8.1c0,1.3-1.1,2.5-2.4,2.6l-31.3,2.7c-1.3,0.1-2.4-0.9-2.4-2.2
									l0-8.1l7.5-0.7l0,1.7c0,0.7,0.6,1.2,1.2,1.1l18.5-1.6c0.7-0.1,1.3-0.7,1.3-1.4l0-1.7L457.3,69.3z"/>
							</g>
							<g id="XMLID_3367_">
								<g id="XMLID_2473_">
									<polygon id="XMLID_2474_" fill="#87231C" points="421.2,72.5 416.2,67.6 423.8,66.9 428.7,71.8 									"/>
								</g>
								<g id="XMLID_2471_">
									<polygon id="XMLID_2472_" fill="#87231C" points="421.2,72.5 416.2,67.6 423.8,66.9 428.7,71.8 									"/>
								</g>
							</g>
							<g id="XMLID_3365_">
								<polygon id="XMLID_3366_" fill="#87231C" points="421.2,80.6 416.2,75.7 416.2,67.6 421.2,72.5 								"/>
							</g>
						</g>
						<g id="XMLID_3347_" enable-background="new    ">
							<g id="XMLID_3357_">
								<g id="XMLID_2469_">
									<polygon id="XMLID_2470_" fill="#E3574F" points="457.2,55.6 457.3,67.6 449.8,68.2 449.7,56.3 									"/>
								</g>
								<g id="XMLID_2467_">
									<polygon id="XMLID_2468_" fill="#DF493B" points="457.2,55.6 457.3,67.6 449.8,68.2 449.7,56.3 									"/>
								</g>
							</g>
							<g id="XMLID_3355_">
								<polygon id="XMLID_3356_" fill="#87231C" points="449.8,68.2 444.8,63.3 444.7,51.4 449.7,56.3 								"/>
							</g>
							<g id="XMLID_3348_">
								<g id="XMLID_2228_">
									<polygon id="XMLID_2466_" fill="#87231C" points="449.7,56.3 444.7,51.4 452.3,50.7 457.2,55.6 									"/>
								</g>
								<g id="XMLID_1895_">
									<polygon id="XMLID_2154_" fill="#87231C" points="449.7,56.3 444.7,51.4 452.3,50.7 457.2,55.6 									"/>
								</g>
							</g>
						</g>
						<g id="XMLID_3335_" enable-background="new    ">
							<g id="XMLID_3340_">
								<g id="XMLID_2464_">
									<polygon id="XMLID_2465_" fill="#E3574F" points="428.7,58.1 428.7,70.1 421.2,70.7 421.2,58.8 									"/>
								</g>
								<g id="XMLID_2462_">
									<polygon id="XMLID_2463_" fill="#DF493B" points="428.7,58.1 428.7,70.1 421.2,70.7 421.2,58.8 									"/>
								</g>
							</g>
							<g id="XMLID_3338_">
								<polygon id="XMLID_3339_" fill="#87231C" points="421.2,70.7 416.2,65.8 416.2,53.9 421.2,58.8 								"/>
							</g>
							<g id="XMLID_3336_">
								<polygon id="XMLID_3337_" fill="#87231C" points="421.2,58.8 416.2,53.9 423.7,53.2 428.7,58.1 								"/>
							</g>
						</g>
					</g>
					<g id="XMLID_3276_">
						<g id="XMLID_3277_" enable-background="new    ">
							<g id="XMLID_3332_">
								<polygon id="XMLID_3333_" fill="#87231C" points="449.8,54.5 444.8,49.6 444.8,48.1 449.8,53 								"/>
							</g>
							<g id="XMLID_3327_" enable-background="new    ">
								<defs>
									<path id="XMLID_3328_" enable-background="new    " d="M444.5,47.3c1.7,1.6,3.3,3.3,5,4.9c0.2,0.2,0.3,0.5,0.3,0.8l-5-4.9
										C444.8,47.8,444.7,47.5,444.5,47.3z"/>
								</defs>
								<clipPath id="XMLID_2196_">
									<use xlink:href="#XMLID_3328_"  overflow="visible"/>
								</clipPath>
								<g id="XMLID_3329_" clip-path="url(#XMLID_2196_)" enable-background="new    ">
									<path id="XMLID_3331_" fill="#84231B" d="M449.8,53l-5-4.9c0,0,0-0.1,0-0.1L449.8,53C449.8,53,449.8,53,449.8,53"/>
									<path id="XMLID_3330_" fill="#802119" d="M449.8,52.9l-5-4.9c0-0.3-0.1-0.5-0.3-0.7l5,4.9
										C449.6,52.4,449.7,52.6,449.8,52.9"/>
								</g>
							</g>
							<g id="XMLID_3312_" enable-background="new    ">
								<defs>
									<path id="XMLID_3313_" enable-background="new    " d="M451.7,39.5c0.3,0.3,0.7,0.7,1,1c1.3,1.3,2.7,2.6,4,3.9
										c-0.4-0.4-1.1-0.7-1.7-0.6l-5-4.9C450.6,38.9,451.3,39.1,451.7,39.5z"/>
								</defs>
								<clipPath id="XMLID_2197_">
									<use xlink:href="#XMLID_3313_"  overflow="visible"/>
								</clipPath>
								<g id="XMLID_3314_" clip-path="url(#XMLID_2197_)" enable-background="new    ">
									<path id="XMLID_3326_" fill="#B83626" d="M454.9,43.8l-5-4.9c0,0,0.1,0,0.1,0l5,4.9C455,43.8,454.9,43.8,454.9,43.8"/>
									<path id="XMLID_3325_" fill="#B33527" d="M455,43.8l-5-4.9c0.1,0,0.1,0,0.2,0l5,4.9C455.1,43.8,455.1,43.8,455,43.8"/>
									<path id="XMLID_3324_" fill="#B23226" d="M455.2,43.8l-5-4.9c0.1,0,0.1,0,0.2,0l5,4.9C455.3,43.8,455.3,43.8,455.2,43.8"/>
									<path id="XMLID_3323_" fill="#AE3026" d="M455.4,43.8l-5-4.9c0.1,0,0.1,0,0.2,0l5,4.9C455.5,43.9,455.4,43.8,455.4,43.8"/>
									<path id="XMLID_3322_" fill="#AB3025" d="M455.5,43.9l-5-4.9c0.1,0,0.1,0,0.2,0l5,4.9C455.6,43.9,455.6,43.9,455.5,43.9"/>
									<path id="XMLID_3321_" fill="#A73024" d="M455.7,43.9l-5-4.9c0,0,0.1,0,0.1,0l5,4.9C455.8,43.9,455.7,43.9,455.7,43.9"/>
									<path id="XMLID_3320_" fill="#A32C24" d="M455.8,43.9l-5-4.9c0,0,0.1,0,0.1,0.1l5,4.9C455.9,44,455.9,44,455.8,43.9"/>
									<path id="XMLID_3319_" fill="#9F2B23" d="M456,44l-5-4.9c0,0,0.1,0,0.1,0.1l5,4.9C456.1,44,456,44,456,44"/>
									<path id="XMLID_3318_" fill="#9A2C21" d="M456.1,44.1l-5-4.9c0,0,0.1,0.1,0.1,0.1l5,4.9C456.2,44.1,456.2,44.1,456.1,44.1"
										/>
									<path id="XMLID_3317_" fill="#972B21" d="M456.3,44.1l-5-4.9c0.1,0,0.1,0.1,0.1,0.1l5,4.9
										C456.4,44.2,456.3,44.2,456.3,44.1"/>
									<path id="XMLID_3316_" fill="#942820" d="M456.4,44.2l-5-4.9c0.1,0,0.1,0.1,0.2,0.1l5,4.9
										C456.5,44.3,456.5,44.3,456.4,44.2"/>
									<path id="XMLID_3315_" fill="#912720" d="M456.6,44.4l-5-4.9c0,0,0.1,0.1,0.1,0.1L456.6,44.4
										C456.6,44.4,456.6,44.4,456.6,44.4"/>
								</g>
							</g>
							<g id="XMLID_3310_">
								<polygon id="XMLID_3311_" fill="#87231C" points="421.2,57 416.2,52.1 416.3,44.2 421.2,49.1 								"/>
							</g>
							<g id="XMLID_3308_">
								<polygon id="XMLID_3309_" fill="#C03928" points="423.6,46.6 418.6,41.6 449.9,38.9 454.9,43.8 								"/>
							</g>
							<g id="XMLID_3301_">
								<g id="XMLID_2251_">
									<path id="XMLID_2460_" fill="#E3574F" d="M423.6,46.6l31.3-2.7c1.3-0.1,2.4,0.9,2.4,2.2l0,7.9l-7.5,0.7l0-1.5
										c0-0.7-0.6-1.2-1.2-1.1L430,53.5c-0.7,0.1-1.3,0.7-1.3,1.4l0,1.5l-7.5,0.7l0-7.9C421.2,47.8,422.3,46.7,423.6,46.6z"/>
								</g>
								<g id="XMLID_2234_">
									<path id="XMLID_2246_" fill="#E3574F" d="M423.6,46.6l31.3-2.7c1.3-0.1,2.4,0.9,2.4,2.2l0,7.9l-7.5,0.7l0-1.5
										c0-0.7-0.6-1.2-1.2-1.1L430,53.5c-0.7,0.1-1.3,0.7-1.3,1.4l0,1.5l-7.5,0.7l0-7.9C421.2,47.8,422.3,46.7,423.6,46.6z"/>
								</g>
							</g>
							<g id="XMLID_3278_" enable-background="new    ">
								<defs>
									<path id="XMLID_3279_" enable-background="new    " d="M421.2,49.1l-5-4.9c0-1.3,1.1-2.5,2.4-2.6l5,4.9
										C422.3,46.7,421.2,47.8,421.2,49.1z"/>
								</defs>
								<clipPath id="XMLID_2198_">
									<use xlink:href="#XMLID_3279_"  overflow="visible"/>
								</clipPath>
								<g id="XMLID_3280_" clip-path="url(#XMLID_2198_)" enable-background="new    ">
									<path id="XMLID_3300_" fill="#84231B" d="M421.2,49.1l-5-4.9c0,0,0,0,0-0.1L421.2,49.1C421.2,49.1,421.2,49.1,421.2,49.1"
										/>
									<path id="XMLID_3299_" fill="#87231C" d="M421.2,49.1l-5-4.9c0-0.1,0-0.1,0-0.2l5,4.9C421.2,49,421.2,49,421.2,49.1"/>
									<path id="XMLID_3298_" fill="#8A241D" d="M421.2,48.9l-5-4.9c0-0.1,0-0.1,0-0.2l5,4.9C421.3,48.8,421.2,48.8,421.2,48.9"/>
									<path id="XMLID_3297_" fill="#8D251E" d="M421.3,48.7l-5-4.9c0-0.1,0-0.1,0-0.2l5,4.9C421.3,48.6,421.3,48.7,421.3,48.7"/>
									<path id="XMLID_3296_" fill="#912720" d="M421.3,48.6l-5-4.9c0,0,0-0.1,0-0.1l5,4.9C421.3,48.5,421.3,48.5,421.3,48.6"/>
									<path id="XMLID_3295_" fill="#942820" d="M421.3,48.4l-5-4.9c0,0,0-0.1,0-0.1l5,4.9C421.4,48.4,421.3,48.4,421.3,48.4"/>
									<path id="XMLID_3294_" fill="#972B21" d="M421.4,48.3l-5-4.9c0,0,0-0.1,0-0.1l5,4.9C421.4,48.2,421.4,48.3,421.4,48.3"/>
									<path id="XMLID_3293_" fill="#9A2C21" d="M421.4,48.2l-5-4.9c0,0,0-0.1,0.1-0.1l5,4.9C421.5,48.1,421.4,48.1,421.4,48.2"/>
									<path id="XMLID_3292_" fill="#9F2B23" d="M421.5,48.1l-5-4.9c0,0,0-0.1,0.1-0.1l5,4.9C421.5,48,421.5,48,421.5,48.1"/>
									<path id="XMLID_3291_" fill="#A32C24" d="M421.5,47.9l-5-4.9c0,0,0-0.1,0.1-0.1l5,4.9C421.6,47.9,421.6,47.9,421.5,47.9"/>
									<path id="XMLID_3290_" fill="#A73024" d="M421.6,47.8l-5-4.9c0,0,0.1-0.1,0.1-0.1l5,4.9C421.7,47.7,421.6,47.8,421.6,47.8"
										/>
									<path id="XMLID_3289_" fill="#AB3025" d="M421.7,47.7l-5-4.9c0,0,0.1-0.1,0.1-0.1l5,4.9C421.7,47.6,421.7,47.7,421.7,47.7"
										/>
									<path id="XMLID_3288_" fill="#AE3026" d="M421.8,47.6l-5-4.9c0,0,0.1-0.1,0.1-0.1l5,4.9C421.8,47.5,421.8,47.5,421.8,47.6"
										/>
									<path id="XMLID_3287_" fill="#B23226" d="M421.9,47.5l-5-4.9c0,0,0.1-0.1,0.1-0.1l5,4.9C421.9,47.4,421.9,47.4,421.9,47.5"
										/>
									<path id="XMLID_3286_" fill="#B33527" d="M422,47.3l-5-4.9c0,0,0.1-0.1,0.1-0.1l5,4.9C422.1,47.2,422,47.3,422,47.3"/>
									<path id="XMLID_3285_" fill="#B83626" d="M422.1,47.2l-5-4.9c0.1-0.1,0.1-0.1,0.2-0.1l5,4.9
										C422.2,47.1,422.2,47.2,422.1,47.2"/>
									<path id="XMLID_3284_" fill="#BB3728" d="M422.3,47.1l-5-4.9c0.1-0.1,0.2-0.1,0.3-0.2l5,4.9
										C422.5,46.9,422.4,47,422.3,47.1"/>
									<path id="XMLID_3283_" fill="#C03928" d="M422.6,46.9l-5-4.9c0.2-0.1,0.3-0.2,0.5-0.2l5,4.9
										C423,46.7,422.8,46.8,422.6,46.9"/>
									<path id="XMLID_3282_" fill="#BB3728" d="M423.1,46.6l-5-4.9c0.1,0,0.2-0.1,0.4-0.1l5,4.9
										C423.4,46.6,423.3,46.6,423.1,46.6"/>
									<path id="XMLID_3281_" fill="#B83626" d="M423.5,46.6l-5-4.9c0,0,0.1,0,0.1,0l5,4.9C423.6,46.6,423.5,46.6,423.5,46.6"/>
								</g>
							</g>
						</g>
					</g>
				</g>
			</g>
			<g id="XMLID_3251_">
				<path id="XMLID_3271_" fill="#6D6D6D" d="M411,98.6c0,4.3-2,5.8-3.7,5.8c-2,0-3.6-1.8-3.6-5.8c0-4.1,1.8-5.8,3.7-5.8
					C409.4,92.8,411,94.7,411,98.6z M405.4,98.6c0,1.9,0.3,4.4,1.9,4.4c1.5,0,1.9-2.6,1.9-4.4c0-1.7-0.3-4.4-1.9-4.4
					C405.7,94.2,405.4,96.8,405.4,98.6z"/>
				<path id="XMLID_3268_" fill="#6D6D6D" d="M412.9,96.4c0-1.7-0.1-2.7-0.1-3.5h1.6l0.1,1.4h0c0.6-1.2,1.5-1.6,2.4-1.6
					c2,0,3.2,2.1,3.2,5.7c0,4.2-1.7,5.8-3.5,5.8c-1.1,0-1.7-0.7-2-1.3h0v5.6h-1.8V96.4z M414.7,100.1c0,0.3,0,0.6,0.1,0.9
					c0.3,1.6,1.2,1.9,1.6,1.9c1.5,0,2-2,2-4.3c0-2.3-0.6-4.3-2-4.3c-0.8,0-1.6,1-1.6,2c0,0.3-0.1,0.6-0.1,0.9V100.1z"/>
				<path id="XMLID_3265_" fill="#6D6D6D" d="M423.4,98.7c0,3.4,1.4,4.2,2.6,4.2c0.8,0,1.4-0.2,1.9-0.4l0.3,1.3
					c-0.6,0.3-1.6,0.5-2.5,0.5c-2.7,0-4.1-2.2-4.1-5.6c0-3.6,1.6-5.9,3.8-5.9c2.3,0,3.2,2.4,3.2,4.9c0,0.4,0,0.7,0,1H423.4z
					 M427,97.4c0-2.2-0.8-3.2-1.7-3.2c-1.2,0-1.8,1.7-1.8,3.2H427z"/>
				<path id="XMLID_3263_" fill="#6D6D6D" d="M430.6,95.8c0-1.3-0.1-2-0.1-2.9h1.6l0.1,1.4h0c0.5-0.9,1.4-1.5,2.6-1.5
					c1.6,0,2.7,1.1,2.7,3.8v7.5h-1.8V97c0-1.3-0.3-2.7-1.6-2.7c-0.7,0-1.5,0.6-1.7,1.8c-0.1,0.3-0.1,0.6-0.1,1v7h-1.8V95.8z"/>
				<path id="XMLID_3261_" fill="#CC3428" d="M439.7,102.3c0.4,0.3,1.1,0.6,1.8,0.6c1,0,1.6-0.6,1.6-1.6c0-0.9-0.3-1.4-1.4-2.2
					c-1.5-0.9-2.2-1.9-2.2-3.2c0-1.8,1.3-3.1,3.1-3.1c0.9,0,1.5,0.3,2,0.6l-0.5,1.3c-0.4-0.3-0.9-0.5-1.5-0.5
					c-0.9,0-1.4,0.7-1.4,1.4c0,0.7,0.3,1.2,1.4,1.9c1.3,0.8,2.3,1.9,2.3,3.4c0,2.2-1.5,3.3-3.4,3.3c-0.8,0-1.7-0.3-2.2-0.6
					L439.7,102.3z"/>
				<path id="XMLID_3259_" fill="#CC3428" d="M448.8,90.3V93h2.2v1.3h-2.2v6.7c0,1.5,0.5,1.9,1.2,1.9c0.3,0,0.5,0,0.7-0.1l0.1,1.4
					c-0.3,0.1-0.7,0.2-1.3,0.2c-0.7,0-1.3-0.2-1.8-0.7c-0.5-0.5-0.7-1.3-0.7-2.8v-6.5h-1.4V93h1.4v-1.9L448.8,90.3z"/>
				<path id="XMLID_3256_" fill="#CC3428" d="M458.5,101.6c0,0.9,0,1.8,0.1,2.5H457l-0.1-1.2h-0.1c-0.5,0.9-1.3,1.4-2.2,1.4
					c-1.5,0-2.6-1.3-2.6-3.2c0-2.8,2.2-4.1,4.8-4.1v-0.3c0-1.5-0.4-2.5-1.8-2.5c-0.7,0-1.3,0.2-1.9,0.6l-0.4-1.3
					c0.5-0.3,1.5-0.7,2.6-0.7c2.2,0,3.2,1.5,3.2,4V101.6z M456.7,98.3c-0.9,0-3.1,0.2-3.1,2.6c0,1.5,0.7,2,1.4,2
					c0.8,0,1.4-0.6,1.6-1.7c0-0.2,0.1-0.4,0.1-0.6V98.3z"/>
				<path id="XMLID_3254_" fill="#CC3428" d="M466.4,103.9c-0.4,0.2-1.1,0.4-1.9,0.4c-2.5,0-4.1-2-4.1-5.7c0-3.2,1.6-5.8,4.4-5.8
					c0.6,0,1.2,0.2,1.6,0.3l-0.3,1.5c-0.2-0.1-0.7-0.3-1.3-0.3c-1.8,0-2.6,2.1-2.6,4.3c0,2.6,1,4.2,2.6,4.2c0.5,0,0.9-0.1,1.3-0.3
					L466.4,103.9z"/>
				<path id="XMLID_3252_" fill="#CC3428" d="M469.7,98.2L469.7,98.2c0.3-0.4,0.4-0.9,0.6-1.3l2.2-4h1.9l-3,4.7l3.2,6.5h-2l-2.4-5.3
					l-0.6,1v4.2h-1.8v-16h1.8V98.2z"/>
			</g>
		</g>
		
			<use xlink:href="#New_Symbol"  width="29.9" height="29.9" id="XMLID_3249_" x="-14.9" y="-14.9" transform="matrix(2.5684 0 0 -2.5684 223.3091 71.562)" overflow="visible"/>
		<g id="XMLID_3228_">
			<path id="XMLID_3248_" fill="#EC4F24" d="M190.3,180.2c0,4-3.3,7.3-7.3,7.3h-27.3c-4,0-7.3-3.3-7.3-7.3v-27.3
				c0-4,3.3-7.3,7.3-7.3H183c4,0,7.3,3.3,7.3,7.3V180.2z"/>
			
				<ellipse id="XMLID_3247_" transform="matrix(0.7071 -0.7071 0.7071 0.7071 -68.0041 168.3208)" fill="#FFFFFF" cx="169.2" cy="166.2" rx="7.2" ry="7.2"/>
			
				<ellipse id="XMLID_3246_" transform="matrix(0.7071 -0.7071 0.7071 0.7071 -68.0041 168.3208)" fill="#EC4F24" cx="169.2" cy="166.2" rx="5" ry="5"/>
			
				<rect id="XMLID_3245_" x="161.3" y="168.7" transform="matrix(0.7071 0.7071 -0.7071 0.7071 169.7798 -64.2456)" fill="#FFFFFF" width="2.3" height="8.3"/>
			<g id="XMLID_3241_">
				<circle id="XMLID_3244_" fill="#FFFFFF" cx="166.3" cy="166.2" r="1.1"/>
				<circle id="XMLID_3243_" fill="#FFFFFF" cx="169.1" cy="166.2" r="1.1"/>
				<circle id="XMLID_3242_" fill="#FFFFFF" cx="172" cy="166.2" r="1.1"/>
			</g>
			<g id="XMLID_3238_">
				<polygon id="XMLID_3240_" fill="#FFFFFF" points="184.1,170 184.1,163.4 187.4,166.7 				"/>
				<rect id="XMLID_3239_" x="178.4" y="165.5" fill="#FFFFFF" width="6" height="2.4"/>
			</g>
			<g id="XMLID_3235_">
				<polygon id="XMLID_3237_" fill="#FFFFFF" points="182.1,157.6 177.5,153 182.1,153 				"/>
				
					<rect id="XMLID_3236_" x="174.9" y="156" transform="matrix(0.7071 -0.7071 0.7071 0.7071 -59.0687 171.8346)" fill="#FFFFFF" width="6" height="2.4"/>
			</g>
			<g id="XMLID_3232_">
				<polygon id="XMLID_3234_" fill="#FFFFFF" points="177.3,179.8 182,175.1 182,179.8 				"/>
				
					<rect id="XMLID_3233_" x="174.8" y="174.4" transform="matrix(0.7071 0.7071 -0.7071 0.7071 176.1954 -74.2811)" fill="#FFFFFF" width="6" height="2.4"/>
			</g>
			<g id="XMLID_3229_">
				<polygon id="XMLID_3231_" fill="#FFFFFF" points="156.9,169.5 156.9,162.8 160.2,166.2 				"/>
				<rect id="XMLID_3230_" x="151.2" y="165" fill="#FFFFFF" width="6" height="2.4"/>
			</g>
		</g>
		<g id="XMLID_3207_">
			<path id="XMLID_3227_" fill="#EC4F24" d="M245.2,180.2c0,4-3.3,7.3-7.3,7.3h-27.3c-4,0-7.3-3.3-7.3-7.3v-27.3
				c0-4,3.3-7.3,7.3-7.3h27.3c4,0,7.3,3.3,7.3,7.3V180.2z"/>
			
				<ellipse id="XMLID_3226_" transform="matrix(0.7071 -0.7071 0.7071 0.7071 -51.9038 207.1902)" fill="#FFFFFF" cx="224.1" cy="166.2" rx="7.2" ry="7.2"/>
			
				<ellipse id="XMLID_3225_" transform="matrix(0.7071 -0.7071 0.7071 0.7071 -51.9038 207.1902)" fill="#EC4F24" cx="224.1" cy="166.2" rx="5" ry="5"/>
			
				<rect id="XMLID_3224_" x="216.3" y="168.7" transform="matrix(0.7071 0.7071 -0.7071 0.7071 185.8801 -103.1151)" fill="#FFFFFF" width="2.3" height="8.3"/>
			<g id="XMLID_3220_">
				<circle id="XMLID_3223_" fill="#FFFFFF" cx="221.2" cy="166.2" r="1.1"/>
				<circle id="XMLID_3222_" fill="#FFFFFF" cx="224.1" cy="166.2" r="1.1"/>
				<circle id="XMLID_3221_" fill="#FFFFFF" cx="227" cy="166.2" r="1.1"/>
			</g>
			<g id="XMLID_3217_">
				<polygon id="XMLID_3219_" fill="#FFFFFF" points="239,170 239,163.4 242.3,166.7 				"/>
				<rect id="XMLID_3218_" x="233.3" y="165.5" fill="#FFFFFF" width="6" height="2.4"/>
			</g>
			<g id="XMLID_3214_">
				<polygon id="XMLID_3216_" fill="#FFFFFF" points="237.1,157.6 232.4,153 237.1,153 				"/>
				
					<rect id="XMLID_3215_" x="229.9" y="156" transform="matrix(0.7071 -0.7071 0.7071 0.7071 -42.9685 210.7041)" fill="#FFFFFF" width="6" height="2.4"/>
			</g>
			<g id="XMLID_3211_">
				<polygon id="XMLID_3213_" fill="#FFFFFF" points="232.3,179.8 237,175.1 237,179.8 				"/>
				
					<rect id="XMLID_3212_" x="229.7" y="174.4" transform="matrix(0.7071 0.7071 -0.7071 0.7071 192.2956 -113.1506)" fill="#FFFFFF" width="6" height="2.4"/>
			</g>
			<g id="XMLID_3208_">
				<polygon id="XMLID_3210_" fill="#FFFFFF" points="211.9,169.5 211.9,162.8 215.2,166.2 				"/>
				<rect id="XMLID_3209_" x="206.2" y="165" fill="#FFFFFF" width="6" height="2.4"/>
			</g>
		</g>
		<g id="XMLID_2956_">
			<path id="XMLID_3206_" fill="#EC4F24" d="M300.2,180.2c0,4-3.3,7.3-7.3,7.3h-27.3c-4,0-7.3-3.3-7.3-7.3v-27.3
				c0-4,3.3-7.3,7.3-7.3h27.3c4,0,7.3,3.3,7.3,7.3V180.2z"/>
			
				<ellipse id="XMLID_3205_" transform="matrix(0.7071 -0.7071 0.7071 0.7071 -35.8036 246.0597)" fill="#FFFFFF" cx="279.1" cy="166.2" rx="7.2" ry="7.2"/>
			
				<ellipse id="XMLID_3204_" transform="matrix(0.7071 -0.7071 0.7071 0.7071 -35.8036 246.0597)" fill="#EC4F24" cx="279.1" cy="166.2" rx="5" ry="5"/>
			
				<rect id="XMLID_3203_" x="271.2" y="168.7" transform="matrix(0.7071 0.7071 -0.7071 0.7071 201.9803 -141.9845)" fill="#FFFFFF" width="2.3" height="8.3"/>
			<g id="XMLID_3199_">
				<circle id="XMLID_3202_" fill="#FFFFFF" cx="276.2" cy="166.2" r="1.1"/>
				<circle id="XMLID_3201_" fill="#FFFFFF" cx="279.1" cy="166.2" r="1.1"/>
				<circle id="XMLID_3200_" fill="#FFFFFF" cx="281.9" cy="166.2" r="1.1"/>
			</g>
			<g id="XMLID_3196_">
				<polygon id="XMLID_3198_" fill="#FFFFFF" points="294,170 294,163.4 297.3,166.7 				"/>
				<rect id="XMLID_3197_" x="288.3" y="165.5" fill="#FFFFFF" width="6" height="2.4"/>
			</g>
			<g id="XMLID_3192_">
				<polygon id="XMLID_3194_" fill="#FFFFFF" points="292.1,157.6 287.4,153 292.1,153 				"/>
				
					<rect id="XMLID_3193_" x="284.8" y="156" transform="matrix(0.7071 -0.7071 0.7071 0.7071 -26.8682 249.5735)" fill="#FFFFFF" width="6" height="2.4"/>
			</g>
			<g id="XMLID_3102_">
				<polygon id="XMLID_3191_" fill="#FFFFFF" points="287.3,179.8 292,175.1 292,179.8 				"/>
				
					<rect id="XMLID_3189_" x="284.7" y="174.4" transform="matrix(0.7071 0.7071 -0.7071 0.7071 208.3959 -152.02)" fill="#FFFFFF" width="6" height="2.4"/>
			</g>
			<g id="XMLID_3064_">
				<polygon id="XMLID_3071_" fill="#FFFFFF" points="266.8,169.5 266.8,162.8 270.2,166.2 				"/>
				<rect id="XMLID_3070_" x="261.1" y="165" fill="#FFFFFF" width="6" height="2.4"/>
			</g>
		</g>
		<g id="XMLID_2925_">
			<g id="XMLID_2200_">
				
					<line id="XMLID_2227_" fill="none" stroke="#231F20" stroke-width="1.9333" stroke-miterlimit="10" x1="47" y1="32.4" x2="47.6" y2="33.1"/>
				
					<line id="XMLID_2226_" fill="none" stroke="#231F20" stroke-width="1.9333" stroke-miterlimit="10" stroke-dasharray="1.9665,5.8995" x1="51.8" y1="37.3" x2="77.5" y2="63"/>
				<polyline id="XMLID_2224_" fill="none" stroke="#231F20" stroke-width="1.9333" stroke-miterlimit="10" points="79.6,65.1 
					80.3,65.8 81.3,65.8 				"/>
				
					<line id="XMLID_2218_" fill="none" stroke="#231F20" stroke-width="1.9333" stroke-miterlimit="10" stroke-dasharray="1.9641,5.8924" x1="87.2" y1="65.8" x2="170.6" y2="65.8"/>
				
					<line id="XMLID_2206_" fill="none" stroke="#231F20" stroke-width="1.9333" stroke-miterlimit="10" x1="173.6" y1="65.8" x2="174.5" y2="65.8"/>
			</g>
		</g>
		<g id="XMLID_2868_">
			<g id="XMLID_2157_">
				
					<line id="XMLID_2182_" fill="none" stroke="#231F20" stroke-width="1.9333" stroke-miterlimit="10" x1="47" y1="112.2" x2="47.6" y2="111.5"/>
				
					<line id="XMLID_2177_" fill="none" stroke="#231F20" stroke-width="1.9333" stroke-miterlimit="10" stroke-dasharray="1.9665,5.8995" x1="51.8" y1="107.3" x2="77.5" y2="81.6"/>
				<polyline id="XMLID_2160_" fill="none" stroke="#231F20" stroke-width="1.9333" stroke-miterlimit="10" points="79.6,79.5 
					80.3,78.8 81.3,78.8 				"/>
				
					<line id="XMLID_2159_" fill="none" stroke="#231F20" stroke-width="1.9333" stroke-miterlimit="10" stroke-dasharray="1.9641,5.8924" x1="87.2" y1="78.8" x2="170.6" y2="78.8"/>
				
					<line id="XMLID_2158_" fill="none" stroke="#231F20" stroke-width="1.9333" stroke-miterlimit="10" x1="173.6" y1="78.8" x2="174.5" y2="78.8"/>
			</g>
		</g>
		<g id="XMLID_2742_">
			<g id="XMLID_1931_">
				
					<line id="XMLID_2145_" fill="none" stroke="#231F20" stroke-width="1.9333" stroke-miterlimit="10" x1="48.9" y1="72.1" x2="49.9" y2="72.1"/>
				
					<line id="XMLID_2144_" fill="none" stroke="#231F20" stroke-width="1.9333" stroke-miterlimit="10" stroke-dasharray="1.9333,5.7999" x1="55.7" y1="72.1" x2="168.7" y2="72.1"/>
				
					<line id="XMLID_1935_" fill="none" stroke="#231F20" stroke-width="1.9333" stroke-miterlimit="10" x1="171.6" y1="72.1" x2="172.6" y2="72.1"/>
			</g>
		</g>
		
			<line id="XMLID_2721_" fill="none" stroke="#231F20" stroke-width="1.9333" stroke-miterlimit="10" stroke-dasharray="1.9333,5.7999" x1="222.4" y1="114.1" x2="222.4" y2="141.7"/>
		
			<line id="XMLID_1681_" fill="none" stroke="#231F20" stroke-width="1.9333" stroke-miterlimit="10" stroke-dasharray="1.9333,5.7999" x1="228.7" y1="114.1" x2="278" y2="142.2"/>
		
			<line id="XMLID_1679_" fill="none" stroke="#231F20" stroke-width="1.9333" stroke-miterlimit="10" stroke-dasharray="1.9333,5.7999" x1="216.1" y1="113.6" x2="168.7" y2="142.6"/>
		<path id="XMLID_1676_" fill="#83898A" d="M145.3,84.1h-37.7c-4.7,0-8.6-3.9-8.6-8.6v-7.5c0-4.7,3.9-8.6,8.6-8.6h37.7
			c4.7,0,8.6,3.9,8.6,8.6v7.5C153.8,80.3,150,84.1,145.3,84.1z"/>
		
			<text id="XMLID_1675_" transform="matrix(1 0 0 1 112.9851 77.284)" fill="#FFFFFF" font-family="'BrandonGrotesque-Bold'" font-size="17.7071px">API</text>
		
			<line id="XMLID_1657_" fill="none" stroke="#231F20" stroke-width="1.9333" stroke-miterlimit="10" stroke-dasharray="1.9333,5.7999" x1="268.2" y1="68.5" x2="394.8" y2="68.5"/>
		<text id="XMLID_1656_" transform="matrix(1 0 0 1 309.2616 90.4228)"><tspan x="0" y="0" fill="#858C8D" font-family="'BrandonGrotesque-Bold'" font-size="16px">Native</tspan><tspan x="-14.2" y="16" fill="#858C8D" font-family="'BrandonGrotesque-Bold'" font-size="16px">Integration</tspan></text>
	</g>
	<g id="XMLID_1899_" display="inline">
		<path id="XMLID_2726_" fill="#858C8D" d="M131.1,221.7c-12.4,0-22.4,10-22.4,22.4s10,22.4,22.4,22.4s22.4-10,22.4-22.4
			S143.5,221.7,131.1,221.7z"/>
		<g id="XMLID_2729_">
			<text transform="matrix(1 0 0 1 72.8658 290.3833)" fill="#868D8D" font-family="'BrandonGrotesque-Bold'" font-size="13px">Ticketless Provisioning</text>
		</g>
		<g id="XMLID_1742_">
			<polygon id="XMLID_3454_" fill="#FFFFFF" points="126,240 132.5,240 133.2,239.3 133.2,239.2 126,239.2 			"/>
			<rect id="XMLID_3462_" x="126" y="236.1" fill="#FFFFFF" width="6.7" height="0.8"/>
			<polygon id="XMLID_3485_" fill="#FFFFFF" points="126,241.5 130.9,241.5 131.7,240.8 126,240.8 			"/>
			<polygon id="XMLID_3490_" fill="#FFFFFF" points="126,238.4 134,238.4 134.2,238.3 134.2,237.7 126,237.7 			"/>
			<polygon id="XMLID_3493_" fill="#FFFFFF" points="126,246.2 126.3,246.2 127.1,245.4 126,245.4 			"/>
			<polygon id="XMLID_3494_" fill="#FFFFFF" points="122.7,249.8 124,248.5 124,234.8 136.7,234.8 136.7,235.8 138,234.5 138,233.6 
				122.7,233.6 			"/>
			<polygon id="XMLID_3495_" fill="#FFFFFF" points="126,243.1 129.4,243.1 130.2,242.3 126,242.3 			"/>
			<polygon id="XMLID_3496_" fill="#FFFFFF" points="126,244.6 127.8,244.6 128.6,243.9 126,243.9 			"/>
			<polygon id="XMLID_3497_" fill="#FFFFFF" points="129.1,251.4 126.2,251.4 126,251.7 126,252.2 129.1,252.2 			"/>
			<path id="XMLID_3500_" fill="#FFFFFF" d="M143.8,233.8c-0.8-0.9-1.7-1.8-2.6-2.6c-2.8-2.2-6.3-3.5-10.1-3.5
				c-9.1,0-16.4,7.4-16.4,16.4c0,3.8,1.3,7.3,3.5,10.1c0.8,1,1.6,1.8,2.6,2.6c2.8,2.3,6.4,3.7,10.3,3.7c9.1,0,16.4-7.4,16.4-16.4
				C147.5,240.2,146.1,236.6,143.8,233.8z M120,253.8c-0.2-0.2-0.4-0.5-0.6-0.8c-1.9-2.5-3-5.6-3-8.9c0-8.1,6.6-14.7,14.7-14.7
				c3.3,0,6.4,1.1,8.9,3c0.3,0.2,0.5,0.4,0.8,0.6L120,253.8z M131.1,258.9c-3.4,0-6.6-1.2-9.1-3.2c-0.3-0.2-0.5-0.4-0.7-0.6
				l20.7-20.7c0.2,0.2,0.4,0.5,0.6,0.7c2,2.5,3.2,5.7,3.2,9.1C145.8,252.3,139.2,258.9,131.1,258.9z"/>
			<polygon id="XMLID_3503_" fill="#FFFFFF" points="131.6,248.4 129.3,248.4 128.5,249.1 131.6,249.1 			"/>
			<polygon id="XMLID_3504_" fill="#FFFFFF" points="136.7,253.7 124,253.7 124,253.6 122.8,254.9 138,254.9 138,239.7 136.7,240.9 
							"/>
			<polygon id="XMLID_3506_" fill="#FFFFFF" points="134.2,249.9 127.7,249.9 127,250.7 134.2,250.7 			"/>
			<polygon id="XMLID_3507_" fill="#FFFFFF" points="134.2,243.9 133.8,243.9 133,244.6 134.2,244.6 			"/>
			<polygon id="XMLID_3508_" fill="#FFFFFF" points="133.7,246.8 130.8,246.8 130.1,247.6 133.7,247.6 			"/>
		</g>
	</g>
	<g id="XMLID_1915_" display="inline">
		<path id="XMLID_2710_" fill="#858C8D" d="M273.5,221.7c-12.4,0-22.4,10-22.4,22.4s10,22.4,22.4,22.4c12.4,0,22.4-10,22.4-22.4
			S285.9,221.7,273.5,221.7z"/>
		<g id="XMLID_2719_">
			<text transform="matrix(1 0 0 1 223.8103 290.3833)" fill="#868D8D" font-family="'BrandonGrotesque-Bold'" font-size="13px">Full Featured ADC</text>
		</g>
		<g id="XMLID_1663_">
			<path id="XMLID_3448_" fill="#FFFFFF" d="M276.3,239.5h-6.2c-0.6,0-1.2-0.5-1.2-1.2v-3.9c0-0.6,0.5-1.2,1.2-1.2h6.2
				c0.6,0,1.2,0.5,1.2,1.2v3.9C277.5,239,276.9,239.5,276.3,239.5z"/>
			<path id="XMLID_3446_" fill="#FFFFFF" d="M265.6,255h-6.2c-0.6,0-1.2-0.5-1.2-1.2V250c0-0.6,0.5-1.2,1.2-1.2h6.2
				c0.6,0,1.2,0.5,1.2,1.2v3.9C266.8,254.5,266.2,255,265.6,255z"/>
			<path id="XMLID_3445_" fill="#FFFFFF" d="M276.6,255h-6.2c-0.6,0-1.2-0.5-1.2-1.2V250c0-0.6,0.5-1.2,1.2-1.2h6.2
				c0.6,0,1.2,0.5,1.2,1.2v3.9C277.8,254.5,277.3,255,276.6,255z"/>
			<path id="XMLID_3444_" fill="#FFFFFF" d="M287.7,255h-6.2c-0.6,0-1.2-0.5-1.2-1.2V250c0-0.6,0.5-1.2,1.2-1.2h6.2
				c0.6,0,1.2,0.5,1.2,1.2v3.9C288.9,254.5,288.3,255,287.7,255z"/>
			<rect id="XMLID_3443_" x="272.5" y="239.5" fill="#FFFFFF" width="1.2" height="9.8"/>
			
				<rect id="XMLID_1876_" x="267.8" y="237.9" transform="matrix(0.7071 0.7071 -0.7071 0.7071 251.6759 -118.0439)" fill="#FFFFFF" width="1.2" height="13.7"/>
			
				<rect id="XMLID_1874_" x="277.7" y="237.9" transform="matrix(0.7071 -0.7071 0.7071 0.7071 -91.6683 268.4641)" fill="#FFFFFF" width="1.2" height="14"/>
		</g>
	</g>
	<g id="XMLID_1930_" display="inline">
		<g id="XMLID_1749_">
			<text transform="matrix(1 0 0 1 365.965 290.3833)" fill="#868D8D" font-family="'BrandonGrotesque-Bold'" font-size="13px">Analytics</text>
		</g>
		<path id="XMLID_1747_" fill="#858C8D" d="M389.9,221.7c-12.4,0-22.4,10-22.4,22.4s10,22.4,22.4,22.4c12.4,0,22.4-10,22.4-22.4
			S402.3,221.7,389.9,221.7z"/>
		<g id="XMLID_1733_">
			<defs>
				<path id="XMLID_1724_" d="M389.9,221.7c-12.4,0-22.4,10-22.4,22.4s10,22.4,22.4,22.4c12.4,0,22.4-10,22.4-22.4
					S402.3,221.7,389.9,221.7z"/>
			</defs>
			<clipPath id="XMLID_2216_">
				<use xlink:href="#XMLID_1724_"  overflow="visible"/>
			</clipPath>
			<g id="XMLID_1873_" clip-path="url(#XMLID_2216_)">
				<rect id="XMLID_1167_" x="374.4" y="246.6" fill="#FFFFFF" width="3.6" height="19.9"/>
				<rect id="XMLID_1819_" x="393.1" y="244.2" fill="#FFFFFF" width="3.6" height="22.4"/>
				<rect id="XMLID_1813_" x="383.8" y="241.4" fill="#FFFFFF" width="3.6" height="27"/>
				<rect id="XMLID_1820_" x="402.4" y="235.2" fill="#FFFFFF" width="3.6" height="33.1"/>
			</g>
		</g>
	</g>
</g>
<g id="Artwork__x5B_Outlined_x5D_">
	<g id="XMLID_6806_">
		<path id="XMLID_7086_" fill="#8A9192" d="M39,117.7c0-2.5-4.1-4.6-9.4-5.1v-0.8c1.9-1.1,3.2-3.3,3.2-5.9c0-3.6-2.5-6.6-5.6-6.6
			c-3.1,0-5.6,3-5.6,6.6c0,2.6,1.3,4.9,3.2,5.9v0.8c-5.4,0.5-9.4,2.6-9.4,5.1c0,0.1,0,0.1,0,0.2h0v3.3c0.3,0.3,0.7,0.5,1.1,0.8
			c2.8,1.9,6.5,3,10.6,3s7.8-1.1,10.6-3c0.5-0.3,1-0.7,1.4-1.1v-3h0C39,117.8,39,117.8,39,117.7z"/>
		<path id="XMLID_7085_" fill="#8A9192" d="M39,74.2c0-2.5-4.1-4.6-9.4-5.1v-0.8c1.9-1.1,3.2-3.3,3.2-5.9c0-3.6-2.5-6.6-5.6-6.6
			c-3.1,0-5.6,3-5.6,6.6c0,2.6,1.3,4.9,3.2,5.9v0.8c-5.4,0.5-9.4,2.6-9.4,5.1c0,0.1,0,0.1,0,0.2h0v3.3c0.3,0.3,0.7,0.5,1.1,0.8
			c2.8,1.9,6.5,3,10.6,3s7.8-1.1,10.6-3c0.5-0.3,1-0.7,1.4-1.1v-3h0C39,74.4,39,74.3,39,74.2z"/>
		<path id="XMLID_7084_" fill="#8A9192" d="M39,30.7c0-2.5-4.1-4.6-9.4-5.1v-0.8c1.9-1.1,3.2-3.3,3.2-5.9c0-3.6-2.5-6.6-5.6-6.6
			c-3.1,0-5.6,3-5.6,6.6c0,2.6,1.3,4.9,3.2,5.9v0.8c-5.4,0.5-9.4,2.6-9.4,5.1c0,0.1,0,0.1,0,0.2h0v3.3c0.3,0.3,0.7,0.5,1.1,0.8
			c2.8,1.9,6.5,3,10.6,3s7.8-1.1,10.6-3c0.5-0.3,1-0.7,1.4-1.1v-3h0C39,30.9,39,30.8,39,30.7z"/>
		<g id="XMLID_6900_">
			<g id="XMLID_6924_">
				<g id="XMLID_7081_">
					
						<image overflow="visible" width="377" height="348" id="XMLID_9780_" xlink:href="F3D36003A1D0D789.png"  transform="matrix(0.24 0 0 0.24 374.0472 34.9176)">
					</image>
				</g>
				<g id="XMLID_7080_">
					
						<image overflow="visible" width="324" height="324" id="XMLID_9756_" xlink:href="F3D36003A1D0D78B.png"  transform="matrix(0.24 0 0 0.24 380.3256 40.8624)">
					</image>
				</g>
				<g id="XMLID_6925_">
					<g id="XMLID_6984_">
						<g id="XMLID_7014_" enable-background="new    ">
							<g id="XMLID_7057_" enable-background="new    ">
								<defs>
									<path id="XMLID_7058_" enable-background="new    " d="M448.5,73.1l-5-4.9c0.7-0.1,1.3-0.7,1.3-1.4l5,4.9
										C449.8,72.4,449.2,73,448.5,73.1z"/>
								</defs>
								<clipPath id="XMLID_2250_">
									<use xlink:href="#XMLID_7058_"  overflow="visible"/>
								</clipPath>
								<g id="XMLID_7059_" clip-path="url(#XMLID_2250_)" enable-background="new    ">
									<path id="XMLID_7079_" fill="#B83626" d="M448.5,73.1l-5-4.9c0,0,0,0,0.1,0L448.5,73.1C448.5,73.1,448.5,73.1,448.5,73.1"
										/>
									<path id="XMLID_7078_" fill="#BB3728" d="M448.6,73.1l-5-4.9c0.1,0,0.1,0,0.2,0l5,4.9C448.7,73,448.6,73,448.6,73.1"/>
									<path id="XMLID_7077_" fill="#C03928" d="M448.8,73l-5-4.9c0.1,0,0.2-0.1,0.3-0.1l5,4.9C448.9,72.9,448.8,73,448.8,73"/>
									<path id="XMLID_7076_" fill="#BB3728" d="M449,72.9l-5-4.9c0.1,0,0.1-0.1,0.2-0.1l5,4.9C449.1,72.8,449.1,72.9,449,72.9"/>
									<path id="XMLID_7075_" fill="#B83626" d="M449.2,72.8l-5-4.9c0,0,0.1-0.1,0.1-0.1L449.2,72.8
										C449.3,72.7,449.2,72.8,449.2,72.8"/>
									<path id="XMLID_7074_" fill="#B33527" d="M449.3,72.7l-5-4.9c0,0,0.1,0,0.1-0.1L449.3,72.7
										C449.3,72.7,449.3,72.7,449.3,72.7"/>
									<path id="XMLID_7073_" fill="#B23226" d="M449.4,72.7l-5-4.9c0,0,0,0,0.1-0.1L449.4,72.7C449.4,72.6,449.4,72.6,449.4,72.7
										"/>
									<path id="XMLID_7072_" fill="#AE3026" d="M449.4,72.6l-5-4.9c0,0,0,0,0.1-0.1L449.4,72.6C449.5,72.5,449.4,72.6,449.4,72.6
										"/>
									<path id="XMLID_7071_" fill="#AB3025" d="M449.5,72.5l-5-4.9c0,0,0,0,0-0.1L449.5,72.5C449.5,72.5,449.5,72.5,449.5,72.5"
										/>
									<path id="XMLID_7070_" fill="#A73024" d="M449.5,72.5l-5-4.9c0,0,0,0,0-0.1L449.5,72.5C449.5,72.4,449.5,72.4,449.5,72.5"
										/>
									<path id="XMLID_7069_" fill="#A32C24" d="M449.6,72.4l-5-4.9c0,0,0,0,0-0.1L449.6,72.4C449.6,72.4,449.6,72.4,449.6,72.4"
										/>
									<path id="XMLID_7068_" fill="#9F2B23" d="M449.6,72.3l-5-4.9c0,0,0,0,0-0.1L449.6,72.3C449.6,72.3,449.6,72.3,449.6,72.3"
										/>
									<path id="XMLID_7067_" fill="#9A2C21" d="M449.6,72.3l-5-4.9c0,0,0,0,0-0.1L449.6,72.3C449.6,72.2,449.6,72.3,449.6,72.3"
										/>
									<path id="XMLID_7066_" fill="#972B21" d="M449.7,72.2l-5-4.9c0,0,0,0,0-0.1L449.7,72.2C449.7,72.2,449.7,72.2,449.7,72.2"
										/>
									<path id="XMLID_7065_" fill="#942820" d="M449.7,72.1l-5-4.9c0,0,0,0,0-0.1L449.7,72.1C449.7,72.1,449.7,72.1,449.7,72.1"
										/>
									<path id="XMLID_7064_" fill="#912720" d="M449.7,72.1l-5-4.9c0,0,0,0,0-0.1L449.7,72.1C449.7,72,449.7,72.1,449.7,72.1"/>
									<path id="XMLID_7063_" fill="#8D251E" d="M449.7,72l-5-4.9c0,0,0-0.1,0-0.1L449.7,72C449.7,71.9,449.7,72,449.7,72"/>
									<path id="XMLID_7062_" fill="#8A241D" d="M449.7,71.9l-5-4.9c0,0,0-0.1,0-0.1L449.7,71.9C449.7,71.9,449.7,71.9,449.7,71.9
										"/>
									<path id="XMLID_7061_" fill="#87231C" d="M449.8,71.8l-5-4.9c0,0,0-0.1,0-0.1l5,4.9C449.8,71.8,449.8,71.8,449.8,71.8"/>
									<path id="XMLID_7060_" fill="#84231B" d="M449.8,71.7l-5-4.9c0,0,0,0,0,0L449.8,71.7C449.8,71.7,449.8,71.7,449.8,71.7"/>
								</g>
							</g>
							<g id="XMLID_7050_">
								<g id="XMLID_7054_">
									<polygon id="XMLID_7055_" fill="#87231C" points="449.8,70 444.8,65.1 452.3,64.4 457.3,69.3 									"/>
								</g>
								<g id="XMLID_7052_">
									<polygon id="XMLID_7053_" fill="#87231C" points="449.8,70 444.8,65.1 452.3,64.4 457.3,69.3 									"/>
								</g>
							</g>
							<g id="XMLID_7048_">
								<polygon id="XMLID_7049_" fill="#87231C" points="449.8,71.7 444.8,66.8 444.8,65.1 449.8,70 								"/>
							</g>
							<g id="XMLID_7046_">
								<polygon id="XMLID_7047_" fill="#C03928" points="430,74.7 425,69.8 443.5,68.1 448.5,73.1 								"/>
							</g>
							<g id="XMLID_7031_" enable-background="new    ">
								<defs>
									<path id="XMLID_7032_" enable-background="new    " d="M429.1,74.4c-0.1-0.1-0.2-0.2-0.3-0.2c-1.6-1.6-3.1-3.1-4.7-4.7
										c0.2,0.2,0.6,0.3,0.9,0.3l5,4.9C429.6,74.7,429.3,74.6,429.1,74.4z"/>
								</defs>
								<clipPath id="XMLID_2259_">
									<use xlink:href="#XMLID_7032_"  overflow="visible"/>
								</clipPath>
								<g id="XMLID_7033_" clip-path="url(#XMLID_2259_)" enable-background="new    ">
									<path id="XMLID_7045_" fill="#912720" d="M429.1,74.4l-5-4.9c0,0,0,0,0.1,0L429.1,74.4C429.1,74.4,429.1,74.4,429.1,74.4"
										/>
									<path id="XMLID_7044_" fill="#942820" d="M429.1,74.4l-5-4.9c0,0,0.1,0,0.1,0.1L429.1,74.4
										C429.2,74.5,429.1,74.4,429.1,74.4"/>
									<path id="XMLID_7043_" fill="#972B21" d="M429.2,74.5l-5-4.9c0,0,0.1,0,0.1,0L429.2,74.5C429.2,74.5,429.2,74.5,429.2,74.5
										"/>
									<path id="XMLID_7042_" fill="#9A2C21" d="M429.3,74.5l-5-4.9c0,0,0,0,0.1,0L429.3,74.5C429.3,74.6,429.3,74.5,429.3,74.5"
										/>
									<path id="XMLID_7041_" fill="#9F2B23" d="M429.3,74.6l-5-4.9c0,0,0,0,0.1,0L429.3,74.6C429.4,74.6,429.4,74.6,429.3,74.6"
										/>
									<path id="XMLID_7040_" fill="#A32C24" d="M429.4,74.6l-5-4.9c0,0,0.1,0,0.1,0L429.4,74.6C429.5,74.6,429.4,74.6,429.4,74.6
										"/>
									<path id="XMLID_7039_" fill="#A73024" d="M429.5,74.6l-5-4.9c0,0,0,0,0.1,0L429.5,74.6C429.5,74.6,429.5,74.6,429.5,74.6"
										/>
									<path id="XMLID_7038_" fill="#AB3025" d="M429.6,74.7l-5-4.9c0,0,0.1,0,0.1,0L429.6,74.7C429.6,74.7,429.6,74.7,429.6,74.7
										"/>
									<path id="XMLID_7037_" fill="#AE3026" d="M429.6,74.7l-5-4.9c0,0,0.1,0,0.1,0L429.6,74.7C429.7,74.7,429.7,74.7,429.6,74.7
										"/>
									<path id="XMLID_7036_" fill="#B23226" d="M429.7,74.7l-5-4.9c0,0,0.1,0,0.1,0L429.7,74.7C429.8,74.7,429.8,74.7,429.7,74.7
										"/>
									<path id="XMLID_7035_" fill="#B33527" d="M429.8,74.7l-5-4.9c0,0,0.1,0,0.1,0l5,4.9C429.9,74.7,429.9,74.7,429.8,74.7"/>
									<path id="XMLID_7034_" fill="#B83626" d="M429.9,74.7l-5-4.9c0,0,0,0,0.1,0L429.9,74.7C430,74.7,429.9,74.7,429.9,74.7"/>
								</g>
							</g>
							<g id="XMLID_7026_" enable-background="new    ">
								<defs>
									<path id="XMLID_7027_" enable-background="new    " d="M421.8,82.1l-5-4.9c-0.4-0.4-0.6-0.9-0.6-1.6l5,4.9
										C421.2,81.2,421.4,81.7,421.8,82.1z"/>
								</defs>
								<clipPath id="XMLID_2260_">
									<use xlink:href="#XMLID_7027_"  overflow="visible"/>
								</clipPath>
								<g id="XMLID_7028_" clip-path="url(#XMLID_2260_)" enable-background="new    ">
									<path id="XMLID_7030_" fill="#802119" d="M421.8,82.1l-5-4.9c-0.4-0.3-0.6-0.8-0.6-1.4l5,4.9
										C421.2,81.3,421.5,81.8,421.8,82.1"/>
									<path id="XMLID_7029_" fill="#84231B" d="M421.2,80.8l-5-4.9c0-0.1,0-0.1,0-0.2l5,4.9C421.2,80.6,421.2,80.7,421.2,80.8"/>
								</g>
							</g>
							<g id="XMLID_7024_">
								<path id="XMLID_7025_" fill="#D53D27" d="M457.3,69.3l0,8.1c0,1.3-1.1,2.5-2.4,2.6l-31.3,2.7c-1.3,0.1-2.4-0.9-2.4-2.2
									l0-8.1l7.5-0.7l0,1.7c0,0.7,0.6,1.2,1.2,1.1l18.5-1.6c0.7-0.1,1.3-0.7,1.3-1.4l0-1.7L457.3,69.3z"/>
							</g>
							<g id="XMLID_7017_">
								<g id="XMLID_7021_">
									<polygon id="XMLID_7022_" fill="#87231C" points="421.2,72.5 416.2,67.6 423.8,66.9 428.7,71.8 									"/>
								</g>
								<g id="XMLID_7019_">
									<polygon id="XMLID_7020_" fill="#87231C" points="421.2,72.5 416.2,67.6 423.8,66.9 428.7,71.8 									"/>
								</g>
							</g>
							<g id="XMLID_7015_">
								<polygon id="XMLID_7016_" fill="#87231C" points="421.2,80.6 416.2,75.7 416.2,67.6 421.2,72.5 								"/>
							</g>
						</g>
						<g id="XMLID_6997_" enable-background="new    ">
							<g id="XMLID_7007_">
								<g id="XMLID_7011_">
									<polygon id="XMLID_7012_" fill="#E3574F" points="457.2,55.6 457.3,67.6 449.8,68.2 449.7,56.3 									"/>
								</g>
								<g id="XMLID_7009_">
									<polygon id="XMLID_7010_" fill="#DF493B" points="457.2,55.6 457.3,67.6 449.8,68.2 449.7,56.3 									"/>
								</g>
							</g>
							<g id="XMLID_7005_">
								<polygon id="XMLID_7006_" fill="#87231C" points="449.8,68.2 444.8,63.3 444.7,51.4 449.7,56.3 								"/>
							</g>
							<g id="XMLID_6998_">
								<g id="XMLID_7002_">
									<polygon id="XMLID_7003_" fill="#87231C" points="449.7,56.3 444.7,51.4 452.3,50.7 457.2,55.6 									"/>
								</g>
								<g id="XMLID_7000_">
									<polygon id="XMLID_7001_" fill="#87231C" points="449.7,56.3 444.7,51.4 452.3,50.7 457.2,55.6 									"/>
								</g>
							</g>
						</g>
						<g id="XMLID_6985_" enable-background="new    ">
							<g id="XMLID_6990_">
								<g id="XMLID_6994_">
									<polygon id="XMLID_6995_" fill="#E3574F" points="428.7,58.1 428.7,70.1 421.2,70.7 421.2,58.8 									"/>
								</g>
								<g id="XMLID_6992_">
									<polygon id="XMLID_6993_" fill="#DF493B" points="428.7,58.1 428.7,70.1 421.2,70.7 421.2,58.8 									"/>
								</g>
							</g>
							<g id="XMLID_6988_">
								<polygon id="XMLID_6989_" fill="#87231C" points="421.2,70.7 416.2,65.8 416.2,53.9 421.2,58.8 								"/>
							</g>
							<g id="XMLID_6986_">
								<polygon id="XMLID_6987_" fill="#87231C" points="421.2,58.8 416.2,53.9 423.7,53.2 428.7,58.1 								"/>
							</g>
						</g>
					</g>
					<g id="XMLID_6926_">
						<g id="XMLID_6927_" enable-background="new    ">
							<g id="XMLID_6982_">
								<polygon id="XMLID_6983_" fill="#87231C" points="449.8,54.5 444.8,49.6 444.8,48.1 449.8,53 								"/>
							</g>
							<g id="XMLID_6977_" enable-background="new    ">
								<defs>
									<path id="XMLID_6978_" enable-background="new    " d="M444.5,47.3c1.7,1.6,3.3,3.3,5,4.9c0.2,0.2,0.3,0.5,0.3,0.8l-5-4.9
										C444.8,47.8,444.7,47.5,444.5,47.3z"/>
								</defs>
								<clipPath id="XMLID_2374_">
									<use xlink:href="#XMLID_6978_"  overflow="visible"/>
								</clipPath>
								<g id="XMLID_6979_" clip-path="url(#XMLID_2374_)" enable-background="new    ">
									<path id="XMLID_6981_" fill="#84231B" d="M449.8,53l-5-4.9c0,0,0-0.1,0-0.1L449.8,53C449.8,53,449.8,53,449.8,53"/>
									<path id="XMLID_6980_" fill="#802119" d="M449.8,52.9l-5-4.9c0-0.3-0.1-0.5-0.3-0.7l5,4.9
										C449.6,52.4,449.7,52.6,449.8,52.9"/>
								</g>
							</g>
							<g id="XMLID_6962_" enable-background="new    ">
								<defs>
									<path id="XMLID_6963_" enable-background="new    " d="M451.7,39.5c0.3,0.3,0.7,0.7,1,1c1.3,1.3,2.7,2.6,4,3.9
										c-0.4-0.4-1.1-0.7-1.7-0.6l-5-4.9C450.6,38.9,451.3,39.1,451.7,39.5z"/>
								</defs>
								<clipPath id="XMLID_2375_">
									<use xlink:href="#XMLID_6963_"  overflow="visible"/>
								</clipPath>
								<g id="XMLID_6964_" clip-path="url(#XMLID_2375_)" enable-background="new    ">
									<path id="XMLID_6976_" fill="#B83626" d="M454.9,43.8l-5-4.9c0,0,0.1,0,0.1,0l5,4.9C455,43.8,454.9,43.8,454.9,43.8"/>
									<path id="XMLID_6975_" fill="#B33527" d="M455,43.8l-5-4.9c0.1,0,0.1,0,0.2,0l5,4.9C455.1,43.8,455.1,43.8,455,43.8"/>
									<path id="XMLID_6974_" fill="#B23226" d="M455.2,43.8l-5-4.9c0.1,0,0.1,0,0.2,0l5,4.9C455.3,43.8,455.3,43.8,455.2,43.8"/>
									<path id="XMLID_6973_" fill="#AE3026" d="M455.4,43.8l-5-4.9c0.1,0,0.1,0,0.2,0l5,4.9C455.5,43.9,455.4,43.8,455.4,43.8"/>
									<path id="XMLID_6972_" fill="#AB3025" d="M455.5,43.9l-5-4.9c0.1,0,0.1,0,0.2,0l5,4.9C455.6,43.9,455.6,43.9,455.5,43.9"/>
									<path id="XMLID_6971_" fill="#A73024" d="M455.7,43.9l-5-4.9c0,0,0.1,0,0.1,0l5,4.9C455.8,43.9,455.7,43.9,455.7,43.9"/>
									<path id="XMLID_6970_" fill="#A32C24" d="M455.8,43.9l-5-4.9c0,0,0.1,0,0.1,0.1l5,4.9C455.9,44,455.9,44,455.8,43.9"/>
									<path id="XMLID_6969_" fill="#9F2B23" d="M456,44l-5-4.9c0,0,0.1,0,0.1,0.1l5,4.9C456.1,44,456,44,456,44"/>
									<path id="XMLID_6968_" fill="#9A2C21" d="M456.1,44.1l-5-4.9c0,0,0.1,0.1,0.1,0.1l5,4.9C456.2,44.1,456.2,44.1,456.1,44.1"
										/>
									<path id="XMLID_6967_" fill="#972B21" d="M456.3,44.1l-5-4.9c0.1,0,0.1,0.1,0.1,0.1l5,4.9
										C456.4,44.2,456.3,44.2,456.3,44.1"/>
									<path id="XMLID_6966_" fill="#942820" d="M456.4,44.2l-5-4.9c0.1,0,0.1,0.1,0.2,0.1l5,4.9
										C456.5,44.3,456.5,44.3,456.4,44.2"/>
									<path id="XMLID_6965_" fill="#912720" d="M456.6,44.4l-5-4.9c0,0,0.1,0.1,0.1,0.1L456.6,44.4
										C456.6,44.4,456.6,44.4,456.6,44.4"/>
								</g>
							</g>
							<g id="XMLID_6960_">
								<polygon id="XMLID_6961_" fill="#87231C" points="421.2,57 416.2,52.1 416.3,44.2 421.2,49.1 								"/>
							</g>
							<g id="XMLID_6958_">
								<polygon id="XMLID_6959_" fill="#C03928" points="423.6,46.6 418.6,41.6 449.9,38.9 454.9,43.8 								"/>
							</g>
							<g id="XMLID_6951_">
								<g id="XMLID_6955_">
									<path id="XMLID_6956_" fill="#E3574F" d="M423.6,46.6l31.3-2.7c1.3-0.1,2.4,0.9,2.4,2.2l0,7.9l-7.5,0.7l0-1.5
										c0-0.7-0.6-1.2-1.2-1.1L430,53.5c-0.7,0.1-1.3,0.7-1.3,1.4l0,1.5l-7.5,0.7l0-7.9C421.2,47.8,422.3,46.7,423.6,46.6z"/>
								</g>
								<g id="XMLID_6953_">
									<path id="XMLID_6954_" fill="#E3574F" d="M423.6,46.6l31.3-2.7c1.3-0.1,2.4,0.9,2.4,2.2l0,7.9l-7.5,0.7l0-1.5
										c0-0.7-0.6-1.2-1.2-1.1L430,53.5c-0.7,0.1-1.3,0.7-1.3,1.4l0,1.5l-7.5,0.7l0-7.9C421.2,47.8,422.3,46.7,423.6,46.6z"/>
								</g>
							</g>
							<g id="XMLID_6928_" enable-background="new    ">
								<defs>
									<path id="XMLID_6929_" enable-background="new    " d="M421.2,49.1l-5-4.9c0-1.3,1.1-2.5,2.4-2.6l5,4.9
										C422.3,46.7,421.2,47.8,421.2,49.1z"/>
								</defs>
								<clipPath id="XMLID_2377_">
									<use xlink:href="#XMLID_6929_"  overflow="visible"/>
								</clipPath>
								<g id="XMLID_6930_" clip-path="url(#XMLID_2377_)" enable-background="new    ">
									<path id="XMLID_6950_" fill="#84231B" d="M421.2,49.1l-5-4.9c0,0,0,0,0-0.1L421.2,49.1C421.2,49.1,421.2,49.1,421.2,49.1"
										/>
									<path id="XMLID_6949_" fill="#87231C" d="M421.2,49.1l-5-4.9c0-0.1,0-0.1,0-0.2l5,4.9C421.2,49,421.2,49,421.2,49.1"/>
									<path id="XMLID_6948_" fill="#8A241D" d="M421.2,48.9l-5-4.9c0-0.1,0-0.1,0-0.2l5,4.9C421.3,48.8,421.2,48.8,421.2,48.9"/>
									<path id="XMLID_6947_" fill="#8D251E" d="M421.3,48.7l-5-4.9c0-0.1,0-0.1,0-0.2l5,4.9C421.3,48.6,421.3,48.7,421.3,48.7"/>
									<path id="XMLID_6946_" fill="#912720" d="M421.3,48.6l-5-4.9c0,0,0-0.1,0-0.1l5,4.9C421.3,48.5,421.3,48.5,421.3,48.6"/>
									<path id="XMLID_6945_" fill="#942820" d="M421.3,48.4l-5-4.9c0,0,0-0.1,0-0.1l5,4.9C421.4,48.4,421.3,48.4,421.3,48.4"/>
									<path id="XMLID_6944_" fill="#972B21" d="M421.4,48.3l-5-4.9c0,0,0-0.1,0-0.1l5,4.9C421.4,48.2,421.4,48.3,421.4,48.3"/>
									<path id="XMLID_6943_" fill="#9A2C21" d="M421.4,48.2l-5-4.9c0,0,0-0.1,0.1-0.1l5,4.9C421.5,48.1,421.4,48.1,421.4,48.2"/>
									<path id="XMLID_6942_" fill="#9F2B23" d="M421.5,48.1l-5-4.9c0,0,0-0.1,0.1-0.1l5,4.9C421.5,48,421.5,48,421.5,48.1"/>
									<path id="XMLID_6941_" fill="#A32C24" d="M421.5,47.9l-5-4.9c0,0,0-0.1,0.1-0.1l5,4.9C421.6,47.9,421.6,47.9,421.5,47.9"/>
									<path id="XMLID_6940_" fill="#A73024" d="M421.6,47.8l-5-4.9c0,0,0.1-0.1,0.1-0.1l5,4.9C421.7,47.7,421.6,47.8,421.6,47.8"
										/>
									<path id="XMLID_6939_" fill="#AB3025" d="M421.7,47.7l-5-4.9c0,0,0.1-0.1,0.1-0.1l5,4.9C421.7,47.6,421.7,47.7,421.7,47.7"
										/>
									<path id="XMLID_6938_" fill="#AE3026" d="M421.8,47.6l-5-4.9c0,0,0.1-0.1,0.1-0.1l5,4.9C421.8,47.5,421.8,47.5,421.8,47.6"
										/>
									<path id="XMLID_6937_" fill="#B23226" d="M421.9,47.5l-5-4.9c0,0,0.1-0.1,0.1-0.1l5,4.9C421.9,47.4,421.9,47.4,421.9,47.5"
										/>
									<path id="XMLID_6936_" fill="#B33527" d="M422,47.3l-5-4.9c0,0,0.1-0.1,0.1-0.1l5,4.9C422.1,47.2,422,47.3,422,47.3"/>
									<path id="XMLID_6935_" fill="#B83626" d="M422.1,47.2l-5-4.9c0.1-0.1,0.1-0.1,0.2-0.1l5,4.9
										C422.2,47.1,422.2,47.2,422.1,47.2"/>
									<path id="XMLID_6934_" fill="#BB3728" d="M422.3,47.1l-5-4.9c0.1-0.1,0.2-0.1,0.3-0.2l5,4.9
										C422.5,46.9,422.4,47,422.3,47.1"/>
									<path id="XMLID_6933_" fill="#C03928" d="M422.6,46.9l-5-4.9c0.2-0.1,0.3-0.2,0.5-0.2l5,4.9
										C423,46.7,422.8,46.8,422.6,46.9"/>
									<path id="XMLID_6932_" fill="#BB3728" d="M423.1,46.6l-5-4.9c0.1,0,0.2-0.1,0.4-0.1l5,4.9
										C423.4,46.6,423.3,46.6,423.1,46.6"/>
									<path id="XMLID_6931_" fill="#B83626" d="M423.5,46.6l-5-4.9c0,0,0.1,0,0.1,0l5,4.9C423.6,46.6,423.5,46.6,423.5,46.6"/>
								</g>
							</g>
						</g>
					</g>
				</g>
			</g>
			<g id="XMLID_6901_">
				<path id="XMLID_6921_" fill="#6D6D6D" d="M411,98.6c0,4.3-2,5.8-3.7,5.8c-2,0-3.6-1.8-3.6-5.8c0-4.1,1.8-5.8,3.7-5.8
					C409.4,92.8,411,94.7,411,98.6z M405.4,98.6c0,1.9,0.3,4.4,1.9,4.4c1.5,0,1.9-2.6,1.9-4.4c0-1.7-0.3-4.4-1.9-4.4
					C405.7,94.2,405.4,96.8,405.4,98.6z"/>
				<path id="XMLID_6918_" fill="#6D6D6D" d="M412.9,96.4c0-1.7-0.1-2.7-0.1-3.5h1.6l0.1,1.4h0c0.6-1.2,1.5-1.6,2.4-1.6
					c2,0,3.2,2.1,3.2,5.7c0,4.2-1.7,5.8-3.5,5.8c-1.1,0-1.7-0.7-2-1.3h0v5.6h-1.8V96.4z M414.7,100.1c0,0.3,0,0.6,0.1,0.9
					c0.3,1.6,1.2,1.9,1.6,1.9c1.5,0,2-2,2-4.3c0-2.3-0.6-4.3-2-4.3c-0.8,0-1.6,1-1.6,2c0,0.3-0.1,0.6-0.1,0.9V100.1z"/>
				<path id="XMLID_6915_" fill="#6D6D6D" d="M423.4,98.7c0,3.4,1.4,4.2,2.6,4.2c0.8,0,1.4-0.2,1.9-0.4l0.3,1.3
					c-0.6,0.3-1.6,0.5-2.5,0.5c-2.7,0-4.1-2.2-4.1-5.6c0-3.6,1.6-5.9,3.8-5.9c2.3,0,3.2,2.4,3.2,4.9c0,0.4,0,0.7,0,1H423.4z
					 M427,97.4c0-2.2-0.8-3.2-1.7-3.2c-1.2,0-1.8,1.7-1.8,3.2H427z"/>
				<path id="XMLID_6913_" fill="#6D6D6D" d="M430.6,95.8c0-1.3-0.1-2-0.1-2.9h1.6l0.1,1.4h0c0.5-0.9,1.4-1.5,2.6-1.5
					c1.6,0,2.7,1.1,2.7,3.8v7.5h-1.8V97c0-1.3-0.3-2.7-1.6-2.7c-0.7,0-1.5,0.6-1.7,1.8c-0.1,0.3-0.1,0.6-0.1,1v7h-1.8V95.8z"/>
				<path id="XMLID_6911_" fill="#CC3428" d="M439.7,102.3c0.4,0.3,1.1,0.6,1.8,0.6c1,0,1.6-0.6,1.6-1.6c0-0.9-0.3-1.4-1.4-2.2
					c-1.5-0.9-2.2-1.9-2.2-3.2c0-1.8,1.3-3.1,3.1-3.1c0.9,0,1.5,0.3,2,0.6l-0.5,1.3c-0.4-0.3-0.9-0.5-1.5-0.5
					c-0.9,0-1.4,0.7-1.4,1.4c0,0.7,0.3,1.2,1.4,1.9c1.3,0.8,2.3,1.9,2.3,3.4c0,2.2-1.5,3.3-3.4,3.3c-0.8,0-1.7-0.3-2.2-0.6
					L439.7,102.3z"/>
				<path id="XMLID_6909_" fill="#CC3428" d="M448.8,90.3V93h2.2v1.3h-2.2v6.7c0,1.5,0.5,1.9,1.2,1.9c0.3,0,0.5,0,0.7-0.1l0.1,1.4
					c-0.3,0.1-0.7,0.2-1.3,0.2c-0.7,0-1.3-0.2-1.8-0.7c-0.5-0.5-0.7-1.3-0.7-2.8v-6.5h-1.4V93h1.4v-1.9L448.8,90.3z"/>
				<path id="XMLID_6906_" fill="#CC3428" d="M458.5,101.6c0,0.9,0,1.8,0.1,2.5H457l-0.1-1.2h-0.1c-0.5,0.9-1.3,1.4-2.2,1.4
					c-1.5,0-2.6-1.3-2.6-3.2c0-2.8,2.2-4.1,4.8-4.1v-0.3c0-1.5-0.4-2.5-1.8-2.5c-0.7,0-1.3,0.2-1.9,0.6l-0.4-1.3
					c0.5-0.3,1.5-0.7,2.6-0.7c2.2,0,3.2,1.5,3.2,4V101.6z M456.7,98.3c-0.9,0-3.1,0.2-3.1,2.6c0,1.5,0.7,2,1.4,2
					c0.8,0,1.4-0.6,1.6-1.7c0-0.2,0.1-0.4,0.1-0.6V98.3z"/>
				<path id="XMLID_6904_" fill="#CC3428" d="M466.4,103.9c-0.4,0.2-1.1,0.4-1.9,0.4c-2.5,0-4.1-2-4.1-5.7c0-3.2,1.6-5.8,4.4-5.8
					c0.6,0,1.2,0.2,1.6,0.3l-0.3,1.5c-0.2-0.1-0.7-0.3-1.3-0.3c-1.8,0-2.6,2.1-2.6,4.3c0,2.6,1,4.2,2.6,4.2c0.5,0,0.9-0.1,1.3-0.3
					L466.4,103.9z"/>
				<path id="XMLID_6902_" fill="#CC3428" d="M469.7,98.2L469.7,98.2c0.3-0.4,0.4-0.9,0.6-1.3l2.2-4h1.9l-3,4.7l3.2,6.5h-2l-2.4-5.3
					l-0.6,1v4.2h-1.8v-16h1.8V98.2z"/>
			</g>
		</g>
		
			<use xlink:href="#New_Symbol"  width="29.9" height="29.9" id="XMLID_6899_" x="-14.9" y="-14.9" transform="matrix(2.5684 0 0 -2.5684 223.3091 71.562)" overflow="visible"/>
		<g id="XMLID_6878_">
			<path id="XMLID_6898_" fill="#EC4F24" d="M190.3,180.2c0,4-3.3,7.3-7.3,7.3h-27.3c-4,0-7.3-3.3-7.3-7.3v-27.3
				c0-4,3.3-7.3,7.3-7.3H183c4,0,7.3,3.3,7.3,7.3V180.2z"/>
			
				<ellipse id="XMLID_6897_" transform="matrix(0.7071 -0.7071 0.7071 0.7071 -68.0041 168.3208)" fill="#FFFFFF" cx="169.2" cy="166.2" rx="7.2" ry="7.2"/>
			
				<ellipse id="XMLID_6896_" transform="matrix(0.7071 -0.7071 0.7071 0.7071 -68.0041 168.3208)" fill="#EC4F24" cx="169.2" cy="166.2" rx="5" ry="5"/>
			
				<rect id="XMLID_6895_" x="161.3" y="168.7" transform="matrix(0.7071 0.7071 -0.7071 0.7071 169.7798 -64.2456)" fill="#FFFFFF" width="2.3" height="8.3"/>
			<g id="XMLID_6891_">
				<circle id="XMLID_6894_" fill="#FFFFFF" cx="166.3" cy="166.2" r="1.1"/>
				<circle id="XMLID_6893_" fill="#FFFFFF" cx="169.1" cy="166.2" r="1.1"/>
				<circle id="XMLID_6892_" fill="#FFFFFF" cx="172" cy="166.2" r="1.1"/>
			</g>
			<g id="XMLID_6888_">
				<polygon id="XMLID_6890_" fill="#FFFFFF" points="184.1,170 184.1,163.4 187.4,166.7 				"/>
				<rect id="XMLID_6889_" x="178.4" y="165.5" fill="#FFFFFF" width="6" height="2.4"/>
			</g>
			<g id="XMLID_6885_">
				<polygon id="XMLID_6887_" fill="#FFFFFF" points="182.1,157.6 177.5,153 182.1,153 				"/>
				
					<rect id="XMLID_6886_" x="174.9" y="156" transform="matrix(0.7071 -0.7071 0.7071 0.7071 -59.0687 171.8346)" fill="#FFFFFF" width="6" height="2.4"/>
			</g>
			<g id="XMLID_6882_">
				<polygon id="XMLID_6884_" fill="#FFFFFF" points="177.3,179.8 182,175.1 182,179.8 				"/>
				
					<rect id="XMLID_6883_" x="174.8" y="174.4" transform="matrix(0.7071 0.7071 -0.7071 0.7071 176.1954 -74.2811)" fill="#FFFFFF" width="6" height="2.4"/>
			</g>
			<g id="XMLID_6879_">
				<polygon id="XMLID_6881_" fill="#FFFFFF" points="156.9,169.5 156.9,162.8 160.2,166.2 				"/>
				<rect id="XMLID_6880_" x="151.2" y="165" fill="#FFFFFF" width="6" height="2.4"/>
			</g>
		</g>
		<g id="XMLID_6857_">
			<path id="XMLID_6877_" fill="#EC4F24" d="M245.2,180.2c0,4-3.3,7.3-7.3,7.3h-27.3c-4,0-7.3-3.3-7.3-7.3v-27.3
				c0-4,3.3-7.3,7.3-7.3h27.3c4,0,7.3,3.3,7.3,7.3V180.2z"/>
			
				<ellipse id="XMLID_6876_" transform="matrix(0.7071 -0.7071 0.7071 0.7071 -51.9038 207.1902)" fill="#FFFFFF" cx="224.1" cy="166.2" rx="7.2" ry="7.2"/>
			
				<ellipse id="XMLID_6875_" transform="matrix(0.7071 -0.7071 0.7071 0.7071 -51.9038 207.1902)" fill="#EC4F24" cx="224.1" cy="166.2" rx="5" ry="5"/>
			
				<rect id="XMLID_6874_" x="216.3" y="168.7" transform="matrix(0.7071 0.7071 -0.7071 0.7071 185.8801 -103.1151)" fill="#FFFFFF" width="2.3" height="8.3"/>
			<g id="XMLID_6870_">
				<circle id="XMLID_6873_" fill="#FFFFFF" cx="221.2" cy="166.2" r="1.1"/>
				<circle id="XMLID_6872_" fill="#FFFFFF" cx="224.1" cy="166.2" r="1.1"/>
				<circle id="XMLID_6871_" fill="#FFFFFF" cx="227" cy="166.2" r="1.1"/>
			</g>
			<g id="XMLID_6867_">
				<polygon id="XMLID_6869_" fill="#FFFFFF" points="239,170 239,163.4 242.3,166.7 				"/>
				<rect id="XMLID_6868_" x="233.3" y="165.5" fill="#FFFFFF" width="6" height="2.4"/>
			</g>
			<g id="XMLID_6864_">
				<polygon id="XMLID_6866_" fill="#FFFFFF" points="237.1,157.6 232.4,153 237.1,153 				"/>
				
					<rect id="XMLID_6865_" x="229.9" y="156" transform="matrix(0.7071 -0.7071 0.7071 0.7071 -42.9685 210.7041)" fill="#FFFFFF" width="6" height="2.4"/>
			</g>
			<g id="XMLID_6861_">
				<polygon id="XMLID_6863_" fill="#FFFFFF" points="232.3,179.8 237,175.1 237,179.8 				"/>
				
					<rect id="XMLID_6862_" x="229.7" y="174.4" transform="matrix(0.7071 0.7071 -0.7071 0.7071 192.2956 -113.1506)" fill="#FFFFFF" width="6" height="2.4"/>
			</g>
			<g id="XMLID_6858_">
				<polygon id="XMLID_6860_" fill="#FFFFFF" points="211.9,169.5 211.9,162.8 215.2,166.2 				"/>
				<rect id="XMLID_6859_" x="206.2" y="165" fill="#FFFFFF" width="6" height="2.4"/>
			</g>
		</g>
		<g id="XMLID_6836_">
			<path id="XMLID_6856_" fill="#EC4F24" d="M300.2,180.2c0,4-3.3,7.3-7.3,7.3h-27.3c-4,0-7.3-3.3-7.3-7.3v-27.3
				c0-4,3.3-7.3,7.3-7.3h27.3c4,0,7.3,3.3,7.3,7.3V180.2z"/>
			
				<ellipse id="XMLID_6855_" transform="matrix(0.7071 -0.7071 0.7071 0.7071 -35.8036 246.0597)" fill="#FFFFFF" cx="279.1" cy="166.2" rx="7.2" ry="7.2"/>
			
				<ellipse id="XMLID_6854_" transform="matrix(0.7071 -0.7071 0.7071 0.7071 -35.8036 246.0597)" fill="#EC4F24" cx="279.1" cy="166.2" rx="5" ry="5"/>
			
				<rect id="XMLID_6853_" x="271.2" y="168.7" transform="matrix(0.7071 0.7071 -0.7071 0.7071 201.9803 -141.9845)" fill="#FFFFFF" width="2.3" height="8.3"/>
			<g id="XMLID_6849_">
				<circle id="XMLID_6852_" fill="#FFFFFF" cx="276.2" cy="166.2" r="1.1"/>
				<circle id="XMLID_6851_" fill="#FFFFFF" cx="279.1" cy="166.2" r="1.1"/>
				<circle id="XMLID_6850_" fill="#FFFFFF" cx="281.9" cy="166.2" r="1.1"/>
			</g>
			<g id="XMLID_6846_">
				<polygon id="XMLID_6848_" fill="#FFFFFF" points="294,170 294,163.4 297.3,166.7 				"/>
				<rect id="XMLID_6847_" x="288.3" y="165.5" fill="#FFFFFF" width="6" height="2.4"/>
			</g>
			<g id="XMLID_6843_">
				<polygon id="XMLID_6845_" fill="#FFFFFF" points="292.1,157.6 287.4,153 292.1,153 				"/>
				
					<rect id="XMLID_6844_" x="284.8" y="156" transform="matrix(0.7071 -0.7071 0.7071 0.7071 -26.8682 249.5735)" fill="#FFFFFF" width="6" height="2.4"/>
			</g>
			<g id="XMLID_6840_">
				<polygon id="XMLID_6842_" fill="#FFFFFF" points="287.3,179.8 292,175.1 292,179.8 				"/>
				
					<rect id="XMLID_6841_" x="284.7" y="174.4" transform="matrix(0.7071 0.7071 -0.7071 0.7071 208.3959 -152.02)" fill="#FFFFFF" width="6" height="2.4"/>
			</g>
			<g id="XMLID_6837_">
				<polygon id="XMLID_6839_" fill="#FFFFFF" points="266.8,169.5 266.8,162.8 270.2,166.2 				"/>
				<rect id="XMLID_6838_" x="261.1" y="165" fill="#FFFFFF" width="6" height="2.4"/>
			</g>
		</g>
		<g id="XMLID_6828_">
			<g id="XMLID_6830_">
				
					<line id="XMLID_6835_" fill="none" stroke="#231F20" stroke-width="1.9333" stroke-miterlimit="10" x1="47" y1="32.4" x2="47.6" y2="33.1"/>
				
					<line id="XMLID_6834_" fill="none" stroke="#231F20" stroke-width="1.9333" stroke-miterlimit="10" stroke-dasharray="1.9665,5.8995" x1="51.8" y1="37.3" x2="77.5" y2="63"/>
				<polyline id="XMLID_6833_" fill="none" stroke="#231F20" stroke-width="1.9333" stroke-miterlimit="10" points="79.6,65.1 
					80.3,65.8 81.3,65.8 				"/>
				
					<line id="XMLID_6832_" fill="none" stroke="#231F20" stroke-width="1.9333" stroke-miterlimit="10" stroke-dasharray="1.9641,5.8924" x1="87.2" y1="65.8" x2="170.6" y2="65.8"/>
				
					<line id="XMLID_6831_" fill="none" stroke="#231F20" stroke-width="1.9333" stroke-miterlimit="10" x1="173.6" y1="65.8" x2="174.5" y2="65.8"/>
			</g>
		</g>
		<g id="XMLID_6820_">
			<g id="XMLID_6822_">
				
					<line id="XMLID_6827_" fill="none" stroke="#231F20" stroke-width="1.9333" stroke-miterlimit="10" x1="47" y1="112.2" x2="47.6" y2="111.5"/>
				
					<line id="XMLID_6826_" fill="none" stroke="#231F20" stroke-width="1.9333" stroke-miterlimit="10" stroke-dasharray="1.9665,5.8995" x1="51.8" y1="107.3" x2="77.5" y2="81.6"/>
				<polyline id="XMLID_6825_" fill="none" stroke="#231F20" stroke-width="1.9333" stroke-miterlimit="10" points="79.6,79.5 
					80.3,78.8 81.3,78.8 				"/>
				
					<line id="XMLID_6824_" fill="none" stroke="#231F20" stroke-width="1.9333" stroke-miterlimit="10" stroke-dasharray="1.9641,5.8924" x1="87.2" y1="78.8" x2="170.6" y2="78.8"/>
				
					<line id="XMLID_6823_" fill="none" stroke="#231F20" stroke-width="1.9333" stroke-miterlimit="10" x1="173.6" y1="78.8" x2="174.5" y2="78.8"/>
			</g>
		</g>
		<g id="XMLID_6814_">
			<g id="XMLID_6816_">
				
					<line id="XMLID_6819_" fill="none" stroke="#231F20" stroke-width="1.9333" stroke-miterlimit="10" x1="48.9" y1="72.1" x2="49.9" y2="72.1"/>
				
					<line id="XMLID_6818_" fill="none" stroke="#231F20" stroke-width="1.9333" stroke-miterlimit="10" stroke-dasharray="1.9333,5.7999" x1="55.7" y1="72.1" x2="168.7" y2="72.1"/>
				
					<line id="XMLID_6817_" fill="none" stroke="#231F20" stroke-width="1.9333" stroke-miterlimit="10" x1="171.6" y1="72.1" x2="172.6" y2="72.1"/>
			</g>
		</g>
		
			<line id="XMLID_6813_" fill="none" stroke="#231F20" stroke-width="1.9333" stroke-miterlimit="10" stroke-dasharray="1.9333,5.7999" x1="222.4" y1="114.1" x2="222.4" y2="141.7"/>
		
			<line id="XMLID_6812_" fill="none" stroke="#231F20" stroke-width="1.9333" stroke-miterlimit="10" stroke-dasharray="1.9333,5.7999" x1="228.7" y1="114.1" x2="278" y2="142.2"/>
		
			<line id="XMLID_6811_" fill="none" stroke="#231F20" stroke-width="1.9333" stroke-miterlimit="10" stroke-dasharray="1.9333,5.7999" x1="216.1" y1="113.6" x2="168.7" y2="142.6"/>
		<path id="XMLID_6810_" fill="#83898A" d="M145.3,84.1h-37.7c-4.7,0-8.6-3.9-8.6-8.6v-7.5c0-4.7,3.9-8.6,8.6-8.6h37.7
			c4.7,0,8.6,3.9,8.6,8.6v7.5C153.8,80.3,150,84.1,145.3,84.1z"/>
		<g id="XMLID_11005_">
			<path id="XMLID_11006_" fill="#FFFFFF" d="M113,76.8l5.5-11.9c0.1-0.1,0.1-0.2,0.3-0.2h0.2c0.2,0,0.2,0.1,0.3,0.2l5.5,11.9
				c0.1,0.2,0,0.5-0.3,0.5h-1.5c-0.3,0-0.4-0.1-0.5-0.4l-0.9-1.9h-5.3l-0.9,1.9c-0.1,0.2-0.2,0.4-0.5,0.4h-1.5
				C113,77.3,112.9,77.1,113,76.8z M120.6,73.1l-1.8-3.9h-0.1l-1.7,3.9H120.6z"/>
			<path id="XMLID_11009_" fill="#FFFFFF" d="M126.3,65.2c0-0.2,0.1-0.3,0.3-0.3h4.2c2.2,0,4,1.8,4,3.9c0,2.2-1.8,4-3.9,4h-2.2v4.2
				c0,0.2-0.2,0.3-0.3,0.3h-1.6c-0.2,0-0.3-0.2-0.3-0.3V65.2z M130.7,70.6c1,0,1.8-0.8,1.8-1.8c0-1-0.8-1.7-1.8-1.7h-2.1v3.6H130.7z
				"/>
			<path id="XMLID_11012_" fill="#FFFFFF" d="M136.8,65.2c0-0.2,0.2-0.3,0.3-0.3h1.6c0.2,0,0.3,0.2,0.3,0.3v11.7
				c0,0.2-0.2,0.3-0.3,0.3h-1.6c-0.2,0-0.3-0.2-0.3-0.3V65.2z"/>
		</g>
		
			<line id="XMLID_6808_" fill="none" stroke="#231F20" stroke-width="1.9333" stroke-miterlimit="10" stroke-dasharray="1.9333,5.7999" x1="268.2" y1="68.5" x2="394.8" y2="68.5"/>
		<g id="XMLID_10961_">
			<path id="XMLID_10962_" fill="#858C8D" d="M310.9,79.3c0-0.2,0.1-0.3,0.3-0.3h0.4l6.7,7.1h0v-6.6c0-0.2,0.1-0.3,0.3-0.3h1.5
				c0.2,0,0.3,0.1,0.3,0.3v10.8c0,0.2-0.1,0.3-0.3,0.3h-0.4l-6.7-7.3h0v6.9c0,0.2-0.1,0.3-0.3,0.3h-1.5c-0.2,0-0.3-0.1-0.3-0.3V79.3
				z"/>
			<path id="XMLID_10964_" fill="#858C8D" d="M324.5,86.4c0.6,0,1.2,0.2,1.2,0.2c0-0.8-0.2-1.1-0.8-1.1c-0.6,0-1.4,0.1-1.8,0.2
				c-0.2,0.1-0.3-0.1-0.4-0.3l-0.1-0.8c0-0.2,0.1-0.4,0.2-0.4c0.1,0,1.2-0.3,2.2-0.3c2,0,2.5,1,2.5,2.8v3.5c0,0.2-0.1,0.3-0.3,0.3
				h-0.6c-0.1,0-0.2,0-0.3-0.2l-0.2-0.4c-0.4,0.3-1,0.8-2,0.8c-1.3,0-2.2-0.8-2.2-2.2C321.9,87.3,322.9,86.4,324.5,86.4z
				 M324.5,89.2c0.5,0,1-0.4,1.1-0.6v-0.9c0,0-0.4-0.2-0.9-0.2c-0.6,0-1,0.4-1,0.9C323.7,88.9,324,89.2,324.5,89.2z"/>
			<path id="XMLID_10967_" fill="#858C8D" d="M329.6,85.7H329c-0.2,0-0.3-0.1-0.3-0.3v-1.1c0-0.2,0.1-0.3,0.3-0.3h0.5v-1.8
				c0-0.2,0.1-0.3,0.3-0.3l1.3,0c0.2,0,0.3,0.1,0.3,0.3V84h1.4c0.2,0,0.3,0.1,0.3,0.3v1.1c0,0.2-0.1,0.3-0.3,0.3h-1.4v2.6
				c0,0.4,0.2,0.5,0.5,0.5c0.3,0,0.6-0.1,0.8-0.2c0.2-0.1,0.3,0,0.4,0.2l0.3,1c0.1,0.2,0,0.3-0.2,0.4c-0.1,0-1.1,0.4-1.9,0.4
				c-1.2,0-1.8-0.8-1.8-2.1V85.7z"/>
			<path id="XMLID_10969_" fill="#858C8D" d="M334.6,80.6c0-0.6,0.5-1.1,1.1-1.1c0.6,0,1.1,0.5,1.1,1.1s-0.5,1.1-1.1,1.1
				C335.1,81.7,334.6,81.3,334.6,80.6z M334.7,84.3c0-0.2,0.1-0.3,0.3-0.3h1.3c0.2,0,0.3,0.1,0.3,0.3v5.8c0,0.2-0.1,0.3-0.3,0.3H335
				c-0.2,0-0.3-0.1-0.3-0.3V84.3z"/>
			<path id="XMLID_10972_" fill="#858C8D" d="M337.8,84.4c-0.1-0.2,0-0.4,0.2-0.4h1.4c0.2,0,0.2,0.1,0.3,0.2l1.3,3c0,0,0,0,0,0
				l1.4-3c0.1-0.2,0.2-0.2,0.4-0.2h1.2c0.2,0,0.3,0.2,0.2,0.4l-2.9,6c0,0.1-0.1,0.2-0.3,0.2h-0.1c-0.1,0-0.2-0.1-0.3-0.2L337.8,84.4
				z"/>
			<path id="XMLID_10974_" fill="#858C8D" d="M348.1,83.9c1.6,0,3,1.2,3,3c0,0.1,0,0.3,0,0.4c0,0.2-0.2,0.3-0.3,0.3h-4.1
				c0,0.7,0.6,1.4,1.5,1.4c0.5,0,1-0.2,1.2-0.4c0.2-0.1,0.3-0.1,0.4,0l0.7,0.8c0.1,0.1,0.1,0.3,0,0.4c-0.5,0.5-1.3,0.9-2.4,0.9
				c-1.9,0-3.3-1.5-3.3-3.4C344.8,85.4,346.2,83.9,348.1,83.9z M349.2,86.4c0-0.6-0.6-1.1-1.2-1.1c-0.6,0-1.2,0.5-1.2,1.1H349.2z"/>
			<path id="XMLID_10977_" fill="#858C8D" d="M296.6,95.5c0-0.2,0.1-0.3,0.3-0.3h1.5c0.2,0,0.3,0.1,0.3,0.3v10.6
				c0,0.2-0.1,0.3-0.3,0.3h-1.5c-0.2,0-0.3-0.1-0.3-0.3V95.5z"/>
			<path id="XMLID_10979_" fill="#858C8D" d="M300.9,100.3c0-0.2,0.1-0.3,0.3-0.3h0.6c0.1,0,0.2,0.1,0.3,0.2l0.2,0.6
				c0.2-0.3,1-0.9,2.3-0.9c2,0,2.8,1.5,2.8,3.2v3.1c0,0.2-0.1,0.3-0.3,0.3h-1.3c-0.2,0-0.3-0.1-0.3-0.3v-3.2c0-0.8-0.4-1.4-1.2-1.4
				c-0.8,0-1.3,0.6-1.5,1v3.5c0,0.2-0.1,0.3-0.4,0.3h-1.2c-0.2,0-0.3-0.1-0.3-0.3V100.3z"/>
			<path id="XMLID_10981_" fill="#858C8D" d="M309.5,101.7H309c-0.2,0-0.3-0.1-0.3-0.3v-1.1c0-0.2,0.1-0.3,0.3-0.3h0.5v-1.8
				c0-0.2,0.1-0.3,0.3-0.3l1.3,0c0.2,0,0.3,0.1,0.3,0.3v1.8h1.4c0.2,0,0.3,0.1,0.3,0.3v1.1c0,0.2-0.1,0.3-0.3,0.3h-1.4v2.6
				c0,0.4,0.2,0.5,0.5,0.5c0.3,0,0.6-0.1,0.8-0.2c0.2-0.1,0.3,0,0.4,0.2l0.3,1c0.1,0.2,0,0.3-0.2,0.4c-0.1,0-1.1,0.4-1.9,0.4
				c-1.2,0-1.8-0.8-1.8-2.1V101.7z"/>
			<path id="XMLID_10983_" fill="#858C8D" d="M317.5,99.9c1.6,0,3,1.2,3,3c0,0.1,0,0.3,0,0.4c0,0.2-0.2,0.3-0.3,0.3h-4.1
				c0,0.7,0.6,1.4,1.5,1.4c0.5,0,1-0.2,1.2-0.4c0.2-0.1,0.3-0.1,0.4,0l0.7,0.8c0.1,0.1,0.1,0.3,0,0.4c-0.5,0.5-1.3,0.9-2.4,0.9
				c-1.9,0-3.3-1.5-3.3-3.4C314.2,101.4,315.6,99.9,317.5,99.9z M318.6,102.4c0-0.6-0.6-1.1-1.2-1.1c-0.6,0-1.2,0.5-1.2,1.1H318.6z"
				/>
			<path id="XMLID_10986_" fill="#858C8D" d="M322.4,104.2c0,0-0.5-0.5-0.5-1.5c0-1.5,1.2-2.8,2.8-2.8h2.9c0.2,0,0.3,0.1,0.3,0.3
				v0.5c0,0.1-0.1,0.2-0.2,0.3l-0.9,0.3c0,0,0.6,0.5,0.6,1.6c0,1.3-1.1,2.5-2.7,2.5c-0.6,0-1-0.1-1.3-0.1c-0.2,0-0.6,0.2-0.6,0.6
				c0,0.3,0.3,0.5,0.6,0.5h2c1.5,0,2.6,0.8,2.6,2.2c0,1.5-1.2,2.7-3.5,2.7c-2.4,0-3.3-1.2-3.3-2.2c0-1,0.8-1.4,1-1.5v0
				c-0.3-0.1-1.2-0.5-1.2-1.7C321.2,104.7,322.4,104.2,322.4,104.2z M324.7,109.8c0.9,0,1.5-0.4,1.5-1c0-0.3-0.2-0.8-1.2-0.8
				c-0.4,0-0.7,0-1,0.1c-0.2,0.1-0.7,0.3-0.7,0.8C323.2,109.4,323.8,109.8,324.7,109.8z M324.7,103.9c0.7,0,1.1-0.5,1.1-1.2
				c0-0.7-0.4-1.2-1.1-1.2c-0.6,0-1.1,0.5-1.1,1.2C323.6,103.4,324.1,103.9,324.7,103.9z"/>
			<path id="XMLID_10990_" fill="#858C8D" d="M329.2,100.3c0-0.2,0.1-0.3,0.3-0.3h0.6c0.1,0,0.2,0.1,0.3,0.2l0.2,0.6
				c0.2-0.3,0.8-1,1.8-1c0.8,0,1.4,0.2,1.2,0.6l-0.6,1c-0.1,0.1-0.2,0.2-0.4,0.1c0,0-0.3-0.1-0.5-0.1c-0.6,0-1,0.4-1.1,0.7v3.9
				c0,0.2-0.1,0.3-0.4,0.3h-1.2c-0.2,0-0.3-0.1-0.3-0.3V100.3z"/>
			<path id="XMLID_10992_" fill="#858C8D" d="M336.8,102.4c0.6,0,1.2,0.2,1.2,0.2c0-0.8-0.2-1.1-0.8-1.1c-0.6,0-1.4,0.1-1.8,0.2
				c-0.2,0.1-0.3-0.1-0.4-0.3l-0.1-0.8c0-0.2,0.1-0.4,0.2-0.4c0.1,0,1.2-0.3,2.2-0.3c2,0,2.5,1,2.5,2.8v3.5c0,0.2-0.1,0.3-0.3,0.3
				h-0.6c-0.1,0-0.2,0-0.3-0.2l-0.2-0.4c-0.4,0.3-1,0.8-2,0.8c-1.3,0-2.2-0.8-2.2-2.2C334.2,103.3,335.2,102.4,336.8,102.4z
				 M336.8,105.2c0.5,0,1-0.4,1.1-0.6v-0.9c0,0-0.4-0.2-0.9-0.2c-0.6,0-1,0.4-1,0.9C336,104.9,336.3,105.2,336.8,105.2z"/>
			<path id="XMLID_10995_" fill="#858C8D" d="M341.9,101.7h-0.5c-0.2,0-0.3-0.1-0.3-0.3v-1.1c0-0.2,0.1-0.3,0.3-0.3h0.5v-1.8
				c0-0.2,0.1-0.3,0.3-0.3l1.3,0c0.2,0,0.3,0.1,0.3,0.3v1.8h1.4c0.2,0,0.3,0.1,0.3,0.3v1.1c0,0.2-0.1,0.3-0.3,0.3h-1.4v2.6
				c0,0.4,0.2,0.5,0.5,0.5c0.3,0,0.6-0.1,0.8-0.2c0.2-0.1,0.3,0,0.4,0.2l0.3,1c0.1,0.2,0,0.3-0.2,0.4c-0.1,0-1.1,0.4-1.9,0.4
				c-1.2,0-1.8-0.8-1.8-2.1V101.7z"/>
			<path id="XMLID_10997_" fill="#858C8D" d="M346.9,96.6c0-0.6,0.5-1.1,1.1-1.1c0.6,0,1.1,0.5,1.1,1.1s-0.5,1.1-1.1,1.1
				C347.4,97.7,346.9,97.3,346.9,96.6z M347,100.3c0-0.2,0.1-0.3,0.3-0.3h1.3c0.2,0,0.3,0.1,0.3,0.3v5.8c0,0.2-0.1,0.3-0.3,0.3h-1.3
				c-0.2,0-0.3-0.1-0.3-0.3V100.3z"/>
			<path id="XMLID_11000_" fill="#858C8D" d="M353.7,99.9c1.8,0,3.3,1.5,3.3,3.3c0,1.8-1.5,3.4-3.3,3.4c-1.8,0-3.3-1.5-3.3-3.4
				C350.4,101.4,351.9,99.9,353.7,99.9z M353.7,104.9c0.8,0,1.5-0.7,1.5-1.6c0-0.9-0.7-1.6-1.5-1.6c-0.9,0-1.5,0.7-1.5,1.6
				C352.1,104.1,352.8,104.9,353.7,104.9z"/>
			<path id="XMLID_11003_" fill="#858C8D" d="M358.4,100.3c0-0.2,0.1-0.3,0.3-0.3h0.6c0.1,0,0.2,0.1,0.3,0.2l0.2,0.6
				c0.2-0.3,1-0.9,2.3-0.9c2,0,2.8,1.5,2.8,3.2v3.1c0,0.2-0.1,0.3-0.3,0.3h-1.3c-0.2,0-0.3-0.1-0.3-0.3v-3.2c0-0.8-0.4-1.4-1.2-1.4
				c-0.8,0-1.3,0.6-1.5,1v3.5c0,0.2-0.1,0.3-0.4,0.3h-1.2c-0.2,0-0.3-0.1-0.3-0.3V100.3z"/>
		</g>
	</g>
	<g id="XMLID_6781_">
		<path id="XMLID_6804_" fill="#858C8D" d="M131.1,221.7c-12.4,0-22.4,10-22.4,22.4s10,22.4,22.4,22.4s22.4-10,22.4-22.4
			S143.5,221.7,131.1,221.7z"/>
		<g id="XMLID_10905_">
			<g id="XMLID_16260_">
				<path id="XMLID_16314_" fill="#868D8D" d="M75.6,282.8h-2c-0.1,0-0.2-0.1-0.2-0.2v-1.1c0-0.1,0.1-0.2,0.2-0.2h5.7
					c0.1,0,0.2,0.1,0.2,0.2v1.1c0,0.1-0.1,0.2-0.2,0.2h-2v7.3c0,0.1-0.1,0.2-0.2,0.2h-1.2c-0.1,0-0.2-0.1-0.2-0.2V282.8z"/>
				<path id="XMLID_16311_" fill="#868D8D" d="M80.2,282.4c0-0.5,0.4-0.9,0.9-0.9c0.5,0,0.9,0.4,0.9,0.9s-0.4,0.9-0.9,0.9
					C80.6,283.3,80.2,282.9,80.2,282.4z M80.3,285.4c0-0.1,0.1-0.2,0.2-0.2h1.1c0.1,0,0.2,0.1,0.2,0.2v4.7c0,0.1-0.1,0.2-0.2,0.2
					h-1.1c-0.1,0-0.2-0.1-0.2-0.2V285.4z"/>
				<path id="XMLID_16309_" fill="#868D8D" d="M85.8,285.1c0.8,0,1.4,0.3,1.9,0.9c0.1,0.1,0.1,0.3-0.1,0.4l-0.6,0.6
					c-0.1,0.1-0.2,0-0.3,0c-0.2-0.2-0.5-0.4-0.9-0.4c-0.7,0-1.3,0.6-1.3,1.3c0,0.7,0.6,1.3,1.3,1.3c0.6,0,0.8-0.3,1-0.5
					c0.1-0.1,0.2-0.1,0.3,0l0.6,0.5c0.1,0.1,0.2,0.2,0.1,0.4c-0.4,0.7-1.1,1.1-2.1,1.1c-1.5,0-2.8-1.2-2.8-2.7
					C83.1,286.2,84.4,285.1,85.8,285.1z"/>
				<path id="XMLID_16307_" fill="#868D8D" d="M89,281.5c0-0.1,0.1-0.2,0.2-0.2h1.1c0.1,0,0.2,0.1,0.2,0.2v5.6l1.8-1.8
					c0.1-0.1,0.2-0.2,0.3-0.2h1.2c0.2,0,0.3,0.2,0.2,0.4l-1.9,2l2.3,2.5c0.1,0.1,0.1,0.4-0.2,0.4h-1.4c-0.1,0-0.2-0.1-0.2-0.1
					l-2.1-2.3v2.2c0,0.1-0.1,0.2-0.2,0.2h-1.1c-0.1,0-0.2-0.1-0.2-0.2V281.5z"/>
				<path id="XMLID_16304_" fill="#868D8D" d="M97.5,285.1c1.3,0,2.4,1,2.4,2.4c0,0.1,0,0.3,0,0.4c0,0.1-0.1,0.2-0.2,0.2h-3.3
					c0,0.5,0.5,1.1,1.2,1.1c0.4,0,0.8-0.2,1-0.3c0.1-0.1,0.2-0.1,0.3,0l0.5,0.6c0.1,0.1,0.1,0.2,0,0.3c-0.4,0.4-1.1,0.7-1.9,0.7
					c-1.6,0-2.7-1.2-2.7-2.7C94.9,286.3,96,285.1,97.5,285.1z M98.4,287.1c0-0.5-0.5-0.9-0.9-0.9c-0.5,0-0.9,0.4-1,0.9H98.4z"/>
				<path id="XMLID_16302_" fill="#868D8D" d="M101.3,286.5h-0.4c-0.1,0-0.2-0.1-0.2-0.2v-0.9c0-0.1,0.1-0.2,0.2-0.2h0.4v-1.4
					c0-0.1,0.1-0.2,0.2-0.2l1.1,0c0.1,0,0.2,0.1,0.2,0.2v1.5h1.1c0.1,0,0.2,0.1,0.2,0.2v0.9c0,0.1-0.1,0.2-0.2,0.2h-1.1v2.1
					c0,0.4,0.2,0.4,0.4,0.4c0.2,0,0.5-0.1,0.6-0.1c0.1-0.1,0.2,0,0.3,0.1l0.3,0.8c0.1,0.1,0,0.3-0.1,0.3c-0.1,0-0.9,0.3-1.5,0.3
					c-1,0-1.4-0.6-1.4-1.7V286.5z"/>
				<path id="XMLID_16300_" fill="#868D8D" d="M105.5,281.5c0-0.1,0.1-0.2,0.2-0.2h1.1c0.1,0,0.2,0.1,0.2,0.2v8.6
					c0,0.1-0.1,0.2-0.2,0.2h-1.1c-0.1,0-0.2-0.1-0.2-0.2V281.5z"/>
				<path id="XMLID_16297_" fill="#868D8D" d="M110.9,285.1c1.3,0,2.4,1,2.4,2.4c0,0.1,0,0.3,0,0.4c0,0.1-0.1,0.2-0.2,0.2h-3.3
					c0,0.5,0.5,1.1,1.2,1.1c0.4,0,0.8-0.2,1-0.3c0.1-0.1,0.2-0.1,0.3,0l0.5,0.6c0.1,0.1,0.1,0.2,0,0.3c-0.4,0.4-1.1,0.7-1.9,0.7
					c-1.6,0-2.7-1.2-2.7-2.7C108.3,286.3,109.4,285.1,110.9,285.1z M111.8,287.1c0-0.5-0.5-0.9-0.9-0.9c-0.5,0-0.9,0.4-1,0.9H111.8z
					"/>
				<path id="XMLID_16295_" fill="#868D8D" d="M114.2,289.8l0.4-0.7c0.1-0.1,0.2-0.2,0.3-0.1c0,0,0.6,0.3,1.2,0.3
					c0.3,0,0.4-0.1,0.4-0.3c0-0.2-0.2-0.4-0.9-0.7c-1-0.4-1.5-0.9-1.5-1.7s0.6-1.5,1.9-1.5c0.8,0,1.3,0.2,1.6,0.4
					c0.1,0.1,0.2,0.2,0.1,0.3l-0.3,0.7c-0.1,0.1-0.2,0.1-0.3,0.1c0,0-0.6-0.3-1.1-0.3c-0.3,0-0.4,0.1-0.4,0.3c0,0.2,0.2,0.3,0.7,0.5
					c1,0.4,1.8,0.8,1.8,1.8c0,0.9-0.8,1.6-2.1,1.6c-0.9,0-1.5-0.3-1.7-0.5C114.2,290,114.1,289.9,114.2,289.8z"/>
				<path id="XMLID_16293_" fill="#868D8D" d="M118.9,289.8l0.4-0.7c0.1-0.1,0.2-0.2,0.3-0.1c0,0,0.6,0.3,1.2,0.3
					c0.3,0,0.4-0.1,0.4-0.3c0-0.2-0.2-0.4-0.9-0.7c-1-0.4-1.5-0.9-1.5-1.7s0.6-1.5,1.9-1.5c0.8,0,1.3,0.2,1.6,0.4
					c0.1,0.1,0.2,0.2,0.1,0.3l-0.3,0.7c-0.1,0.1-0.2,0.1-0.3,0.1c0,0-0.6-0.3-1.1-0.3c-0.3,0-0.4,0.1-0.4,0.3c0,0.2,0.2,0.3,0.7,0.5
					c1,0.4,1.8,0.8,1.8,1.8c0,0.9-0.8,1.6-2.1,1.6c-0.9,0-1.5-0.3-1.7-0.5C118.9,290,118.9,289.9,118.9,289.8z"/>
				<path id="XMLID_16290_" fill="#868D8D" d="M127.2,281.5c0-0.1,0.1-0.2,0.2-0.2h3.1c1.6,0,2.9,1.3,2.9,2.9c0,1.6-1.3,2.9-2.9,2.9
					h-1.6v3.1c0,0.1-0.1,0.2-0.2,0.2h-1.2c-0.1,0-0.2-0.1-0.2-0.2V281.5z M130.4,285.5c0.7,0,1.3-0.6,1.3-1.4c0-0.7-0.6-1.3-1.3-1.3
					h-1.5v2.6H130.4z"/>
				<path id="XMLID_16288_" fill="#868D8D" d="M134.1,285.4c0-0.1,0.1-0.2,0.2-0.2h0.5c0.1,0,0.2,0.1,0.2,0.2l0.2,0.5
					c0.2-0.3,0.7-0.8,1.5-0.8c0.6,0,1.2,0.2,1,0.5l-0.5,0.8c-0.1,0.1-0.2,0.2-0.3,0.1c0,0-0.2-0.1-0.4-0.1c-0.5,0-0.8,0.4-0.9,0.5
					v3.1c0,0.2-0.1,0.2-0.3,0.2h-1c-0.1,0-0.2-0.1-0.2-0.2V285.4z"/>
				<path id="XMLID_16285_" fill="#868D8D" d="M140.8,285.1c1.5,0,2.7,1.2,2.7,2.7c0,1.5-1.2,2.7-2.7,2.7s-2.7-1.2-2.7-2.7
					C138.1,286.3,139.3,285.1,140.8,285.1z M140.8,289.1c0.7,0,1.2-0.6,1.2-1.3c0-0.7-0.6-1.3-1.2-1.3c-0.7,0-1.2,0.6-1.2,1.3
					C139.5,288.5,140.1,289.1,140.8,289.1z"/>
				<path id="XMLID_16283_" fill="#868D8D" d="M143.9,285.5c-0.1-0.2,0-0.3,0.2-0.3h1.1c0.1,0,0.2,0.1,0.2,0.1l1.1,2.4c0,0,0,0,0,0
					l1.1-2.4c0.1-0.1,0.2-0.1,0.3-0.1h1c0.2,0,0.3,0.1,0.2,0.3l-2.4,4.9c0,0.1-0.1,0.1-0.2,0.1h-0.1c-0.1,0-0.2-0.1-0.2-0.1
					L143.9,285.5z"/>
				<path id="XMLID_16280_" fill="#868D8D" d="M149.9,282.4c0-0.5,0.4-0.9,0.9-0.9c0.5,0,0.9,0.4,0.9,0.9s-0.4,0.9-0.9,0.9
					C150.3,283.3,149.9,282.9,149.9,282.4z M150.1,285.4c0-0.1,0.1-0.2,0.2-0.2h1.1c0.1,0,0.2,0.1,0.2,0.2v4.7
					c0,0.1-0.1,0.2-0.2,0.2h-1.1c-0.1,0-0.2-0.1-0.2-0.2V285.4z"/>
				<path id="XMLID_16278_" fill="#868D8D" d="M152.9,289.8l0.4-0.7c0.1-0.1,0.2-0.2,0.3-0.1c0,0,0.6,0.3,1.2,0.3
					c0.3,0,0.4-0.1,0.4-0.3c0-0.2-0.2-0.4-0.9-0.7c-1-0.4-1.5-0.9-1.5-1.7s0.6-1.5,1.9-1.5c0.8,0,1.3,0.2,1.6,0.4
					c0.1,0.1,0.2,0.2,0.1,0.3l-0.3,0.7c-0.1,0.1-0.2,0.1-0.3,0.1c0,0-0.6-0.3-1.1-0.3c-0.3,0-0.4,0.1-0.4,0.3c0,0.2,0.2,0.3,0.7,0.5
					c1,0.4,1.8,0.8,1.8,1.8c0,0.9-0.8,1.6-2.1,1.6c-0.9,0-1.5-0.3-1.7-0.5C152.9,290,152.8,289.9,152.9,289.8z"/>
				<path id="XMLID_16275_" fill="#868D8D" d="M157.8,282.4c0-0.5,0.4-0.9,0.9-0.9c0.5,0,0.9,0.4,0.9,0.9s-0.4,0.9-0.9,0.9
					C158.2,283.3,157.8,282.9,157.8,282.4z M157.9,285.4c0-0.1,0.1-0.2,0.2-0.2h1.1c0.1,0,0.2,0.1,0.2,0.2v4.7
					c0,0.1-0.1,0.2-0.2,0.2h-1.1c-0.1,0-0.2-0.1-0.2-0.2V285.4z"/>
				<path id="XMLID_16272_" fill="#868D8D" d="M163.3,285.1c1.5,0,2.7,1.2,2.7,2.7c0,1.5-1.2,2.7-2.7,2.7s-2.7-1.2-2.7-2.7
					C160.6,286.3,161.8,285.1,163.3,285.1z M163.3,289.1c0.7,0,1.2-0.6,1.2-1.3c0-0.7-0.6-1.3-1.2-1.3c-0.7,0-1.2,0.6-1.2,1.3
					C162.1,288.5,162.6,289.1,163.3,289.1z"/>
				<path id="XMLID_16270_" fill="#868D8D" d="M167.1,285.4c0-0.1,0.1-0.2,0.2-0.2h0.5c0.1,0,0.2,0.1,0.2,0.2l0.2,0.5
					c0.2-0.2,0.8-0.8,1.8-0.8c1.7,0,2.3,1.2,2.3,2.6v2.5c0,0.1-0.1,0.2-0.2,0.2h-1.1c-0.1,0-0.2-0.1-0.2-0.2v-2.6
					c0-0.7-0.4-1.1-1-1.1c-0.7,0-1.1,0.5-1.2,0.8v2.9c0,0.2-0.1,0.2-0.3,0.2h-1c-0.1,0-0.2-0.1-0.2-0.2V285.4z"/>
				<path id="XMLID_16267_" fill="#868D8D" d="M173.8,282.4c0-0.5,0.4-0.9,0.9-0.9c0.5,0,0.9,0.4,0.9,0.9s-0.4,0.9-0.9,0.9
					C174.2,283.3,173.8,282.9,173.8,282.4z M173.9,285.4c0-0.1,0.1-0.2,0.2-0.2h1.1c0.1,0,0.2,0.1,0.2,0.2v4.7
					c0,0.1-0.1,0.2-0.2,0.2h-1.1c-0.1,0-0.2-0.1-0.2-0.2V285.4z"/>
				<path id="XMLID_16265_" fill="#868D8D" d="M177,285.4c0-0.1,0.1-0.2,0.2-0.2h0.5c0.1,0,0.2,0.1,0.2,0.2l0.2,0.5
					c0.2-0.2,0.8-0.8,1.8-0.8c1.7,0,2.3,1.2,2.3,2.6v2.5c0,0.1-0.1,0.2-0.2,0.2H181c-0.1,0-0.2-0.1-0.2-0.2v-2.6
					c0-0.7-0.4-1.1-1-1.1c-0.7,0-1.1,0.5-1.2,0.8v2.9c0,0.2-0.1,0.2-0.3,0.2h-1c-0.1,0-0.2-0.1-0.2-0.2V285.4z"/>
				<path id="XMLID_16261_" fill="#868D8D" d="M184.2,288.5c0,0-0.4-0.4-0.4-1.2c0-1.2,1-2.3,2.3-2.3h2.4c0.1,0,0.2,0.1,0.2,0.2v0.4
					c0,0.1-0.1,0.2-0.1,0.2l-0.7,0.2c0,0,0.5,0.4,0.5,1.3c0,1-0.9,2-2.2,2c-0.5,0-0.8-0.1-1-0.1c-0.2,0-0.5,0.2-0.5,0.5
					c0,0.3,0.2,0.4,0.5,0.4h1.7c1.2,0,2.1,0.7,2.1,1.8c0,1.2-1,2.2-2.8,2.2c-1.9,0-2.7-0.9-2.7-1.8c0-0.8,0.7-1.2,0.8-1.2v0
					c-0.2-0.1-1-0.4-1-1.4C183.2,289,184.2,288.5,184.2,288.5z M186,293.1c0.7,0,1.2-0.3,1.2-0.8c0-0.2-0.2-0.6-0.9-0.6
					c-0.3,0-0.6,0-0.8,0.1c-0.2,0.1-0.6,0.2-0.6,0.6C184.9,292.8,185.3,293.1,186,293.1z M186.1,288.3c0.5,0,0.9-0.4,0.9-0.9
					c0-0.5-0.4-0.9-0.9-0.9c-0.5,0-0.9,0.4-0.9,0.9C185.2,287.9,185.6,288.3,186.1,288.3z"/>
			</g>
		</g>
		<g id="XMLID_6782_">
			<polygon id="XMLID_6800_" fill="#FFFFFF" points="126,240 132.5,240 133.2,239.3 133.2,239.2 126,239.2 			"/>
			<rect id="XMLID_6799_" x="126" y="236.1" fill="#FFFFFF" width="6.7" height="0.8"/>
			<polygon id="XMLID_6798_" fill="#FFFFFF" points="126,241.5 130.9,241.5 131.7,240.8 126,240.8 			"/>
			<polygon id="XMLID_6797_" fill="#FFFFFF" points="126,238.4 134,238.4 134.2,238.3 134.2,237.7 126,237.7 			"/>
			<polygon id="XMLID_6796_" fill="#FFFFFF" points="126,246.2 126.3,246.2 127.1,245.4 126,245.4 			"/>
			<polygon id="XMLID_6795_" fill="#FFFFFF" points="122.7,249.8 124,248.5 124,234.8 136.7,234.8 136.7,235.8 138,234.5 138,233.6 
				122.7,233.6 			"/>
			<polygon id="XMLID_6794_" fill="#FFFFFF" points="126,243.1 129.4,243.1 130.2,242.3 126,242.3 			"/>
			<polygon id="XMLID_6793_" fill="#FFFFFF" points="126,244.6 127.8,244.6 128.6,243.9 126,243.9 			"/>
			<polygon id="XMLID_6792_" fill="#FFFFFF" points="129.1,251.4 126.2,251.4 126,251.7 126,252.2 129.1,252.2 			"/>
			<path id="XMLID_6788_" fill="#FFFFFF" d="M143.8,233.8c-0.8-0.9-1.7-1.8-2.6-2.6c-2.8-2.2-6.3-3.5-10.1-3.5
				c-9.1,0-16.4,7.4-16.4,16.4c0,3.8,1.3,7.3,3.5,10.1c0.8,1,1.6,1.8,2.6,2.6c2.8,2.3,6.4,3.7,10.3,3.7c9.1,0,16.4-7.4,16.4-16.4
				C147.5,240.2,146.1,236.6,143.8,233.8z M120,253.8c-0.2-0.2-0.4-0.5-0.6-0.8c-1.9-2.5-3-5.6-3-8.9c0-8.1,6.6-14.7,14.7-14.7
				c3.3,0,6.4,1.1,8.9,3c0.3,0.2,0.5,0.4,0.8,0.6L120,253.8z M131.1,258.9c-3.4,0-6.6-1.2-9.1-3.2c-0.3-0.2-0.5-0.4-0.7-0.6
				l20.7-20.7c0.2,0.2,0.4,0.5,0.6,0.7c2,2.5,3.2,5.7,3.2,9.1C145.8,252.3,139.2,258.9,131.1,258.9z"/>
			<polygon id="XMLID_6787_" fill="#FFFFFF" points="131.6,248.4 129.3,248.4 128.5,249.1 131.6,249.1 			"/>
			<polygon id="XMLID_6786_" fill="#FFFFFF" points="136.7,253.7 124,253.7 124,253.6 122.8,254.9 138,254.9 138,239.7 136.7,240.9 
							"/>
			<polygon id="XMLID_6785_" fill="#FFFFFF" points="134.2,249.9 127.7,249.9 127,250.7 134.2,250.7 			"/>
			<polygon id="XMLID_6784_" fill="#FFFFFF" points="134.2,243.9 133.8,243.9 133,244.6 134.2,244.6 			"/>
			<polygon id="XMLID_6783_" fill="#FFFFFF" points="133.7,246.8 130.8,246.8 130.1,247.6 133.7,247.6 			"/>
		</g>
	</g>
	<g id="XMLID_6767_">
		<path id="XMLID_6779_" fill="#858C8D" d="M273.5,221.7c-12.4,0-22.4,10-22.4,22.4s10,22.4,22.4,22.4c12.4,0,22.4-10,22.4-22.4
			S285.9,221.7,273.5,221.7z"/>
		<g id="XMLID_10868_">
			<g id="XMLID_16089_">
				<path id="XMLID_16124_" fill="#868D8D" d="M225.4,281.5c0-0.1,0.1-0.2,0.2-0.2h5.3c0.1,0,0.2,0.1,0.2,0.2v1.1
					c0,0.1-0.1,0.2-0.2,0.2h-3.8v2.4h3.2c0.1,0,0.2,0.1,0.2,0.2v1.1c0,0.1-0.1,0.2-0.2,0.2h-3.2v3.3c0,0.1-0.1,0.2-0.2,0.2h-1.2
					c-0.1,0-0.2-0.1-0.2-0.2V281.5z"/>
				<path id="XMLID_16122_" fill="#868D8D" d="M231.9,285.4c0-0.1,0.1-0.2,0.2-0.2h1.1c0.1,0,0.2,0.1,0.2,0.2v2.6
					c0,0.7,0.4,1.1,0.9,1.1c0.5,0,1-0.5,1-1v-2.7c0-0.2,0.1-0.2,0.3-0.2h1c0.1,0,0.2,0.1,0.2,0.2v4.7c0,0.1-0.1,0.2-0.2,0.2h-0.5
					c-0.1,0-0.2-0.1-0.2-0.2l-0.2-0.4c-0.2,0.2-0.7,0.8-1.7,0.8c-1.6,0-2.2-1.2-2.2-2.6V285.4z"/>
				<path id="XMLID_16120_" fill="#868D8D" d="M238.5,281.5c0-0.1,0.1-0.2,0.2-0.2h1.1c0.1,0,0.2,0.1,0.2,0.2v8.6
					c0,0.1-0.1,0.2-0.2,0.2h-1.1c-0.1,0-0.2-0.1-0.2-0.2V281.5z"/>
				<path id="XMLID_16118_" fill="#868D8D" d="M241.7,281.5c0-0.1,0.1-0.2,0.2-0.2h1.1c0.1,0,0.2,0.1,0.2,0.2v8.6
					c0,0.1-0.1,0.2-0.2,0.2h-1.1c-0.1,0-0.2-0.1-0.2-0.2V281.5z"/>
				<path id="XMLID_16116_" fill="#868D8D" d="M248.1,281.5c0-0.1,0.1-0.2,0.2-0.2h5.3c0.1,0,0.2,0.1,0.2,0.2v1.1
					c0,0.1-0.1,0.2-0.2,0.2h-3.8v2.4h3.2c0.1,0,0.2,0.1,0.2,0.2v1.1c0,0.1-0.1,0.2-0.2,0.2h-3.2v3.3c0,0.1-0.1,0.2-0.2,0.2h-1.2
					c-0.1,0-0.2-0.1-0.2-0.2V281.5z"/>
				<path id="XMLID_16113_" fill="#868D8D" d="M256.8,285.1c1.3,0,2.4,1,2.4,2.4c0,0.1,0,0.3,0,0.4c0,0.1-0.1,0.2-0.2,0.2h-3.3
					c0,0.5,0.5,1.1,1.2,1.1c0.4,0,0.8-0.2,1-0.3c0.1-0.1,0.2-0.1,0.3,0l0.5,0.6c0.1,0.1,0.1,0.2,0,0.3c-0.4,0.4-1.1,0.7-1.9,0.7
					c-1.6,0-2.7-1.2-2.7-2.7C254.2,286.3,255.3,285.1,256.8,285.1z M257.7,287.1c0-0.5-0.5-0.9-0.9-0.9c-0.5,0-0.9,0.4-1,0.9H257.7z
					"/>
				<path id="XMLID_16110_" fill="#868D8D" d="M262,287.1c0.5,0,0.9,0.1,0.9,0.1c0-0.7-0.2-0.9-0.7-0.9c-0.5,0-1.2,0.1-1.5,0.2
					c-0.2,0.1-0.3-0.1-0.3-0.2l-0.1-0.7c0-0.2,0.1-0.3,0.2-0.3c0.1,0,0.9-0.2,1.8-0.2c1.6,0,2,0.8,2,2.3v2.8c0,0.1-0.1,0.2-0.2,0.2
					h-0.5c-0.1,0-0.2,0-0.2-0.2l-0.2-0.4c-0.3,0.3-0.8,0.7-1.6,0.7c-1,0-1.8-0.7-1.8-1.8C260,287.8,260.7,287.1,262,287.1z
					 M262.1,289.4c0.4,0,0.8-0.4,0.9-0.5v-0.7c0,0-0.4-0.2-0.7-0.2c-0.5,0-0.8,0.3-0.8,0.7C261.4,289.1,261.7,289.4,262.1,289.4z"/>
				<path id="XMLID_16108_" fill="#868D8D" d="M266.2,286.5h-0.4c-0.1,0-0.2-0.1-0.2-0.2v-0.9c0-0.1,0.1-0.2,0.2-0.2h0.4v-1.4
					c0-0.1,0.1-0.2,0.2-0.2l1.1,0c0.1,0,0.2,0.1,0.2,0.2v1.5h1.1c0.1,0,0.2,0.1,0.2,0.2v0.9c0,0.1-0.1,0.2-0.2,0.2h-1.1v2.1
					c0,0.4,0.2,0.4,0.4,0.4c0.2,0,0.5-0.1,0.6-0.1c0.1-0.1,0.2,0,0.3,0.1l0.3,0.8c0.1,0.1,0,0.3-0.1,0.3c-0.1,0-0.9,0.3-1.5,0.3
					c-1,0-1.4-0.6-1.4-1.7V286.5z"/>
				<path id="XMLID_16106_" fill="#868D8D" d="M270.3,285.4c0-0.1,0.1-0.2,0.2-0.2h1.1c0.1,0,0.2,0.1,0.2,0.2v2.6
					c0,0.7,0.4,1.1,0.9,1.1c0.5,0,1-0.5,1-1v-2.7c0-0.2,0.1-0.2,0.3-0.2h1c0.1,0,0.2,0.1,0.2,0.2v4.7c0,0.1-0.1,0.2-0.2,0.2h-0.5
					c-0.1,0-0.2-0.1-0.2-0.2l-0.2-0.4c-0.2,0.2-0.7,0.8-1.7,0.8c-1.6,0-2.2-1.2-2.2-2.6V285.4z"/>
				<path id="XMLID_16104_" fill="#868D8D" d="M276.9,285.4c0-0.1,0.1-0.2,0.2-0.2h0.5c0.1,0,0.2,0.1,0.2,0.2l0.2,0.5
					c0.2-0.3,0.7-0.8,1.5-0.8c0.6,0,1.2,0.2,1,0.5l-0.5,0.8c-0.1,0.1-0.2,0.2-0.3,0.1c0,0-0.2-0.1-0.4-0.1c-0.5,0-0.8,0.4-0.9,0.5
					v3.1c0,0.2-0.1,0.2-0.3,0.2h-1c-0.1,0-0.2-0.1-0.2-0.2V285.4z"/>
				<path id="XMLID_16101_" fill="#868D8D" d="M283.6,285.1c1.3,0,2.4,1,2.4,2.4c0,0.1,0,0.3,0,0.4c0,0.1-0.1,0.2-0.2,0.2h-3.3
					c0,0.5,0.5,1.1,1.2,1.1c0.4,0,0.8-0.2,1-0.3c0.1-0.1,0.2-0.1,0.3,0l0.5,0.6c0.1,0.1,0.1,0.2,0,0.3c-0.4,0.4-1.1,0.7-1.9,0.7
					c-1.6,0-2.7-1.2-2.7-2.7C280.9,286.3,282,285.1,283.6,285.1z M284.5,287.1c0-0.5-0.5-0.9-0.9-0.9c-0.5,0-0.9,0.4-1,0.9H284.5z"
					/>
				<path id="XMLID_16098_" fill="#868D8D" d="M289.3,285.1c0.5,0,0.9,0.1,1.2,0.2v-3.8c0-0.1,0.1-0.2,0.2-0.2h1.1
					c0.1,0,0.2,0.1,0.2,0.2v8.6c0,0.1-0.1,0.2-0.2,0.2h-0.5c-0.1,0-0.2-0.1-0.2-0.2l-0.1-0.4c0,0-0.6,0.8-1.7,0.8
					c-1.4,0-2.5-1.2-2.5-2.7C286.7,286.3,287.7,285.1,289.3,285.1z M289.4,289.1c0.7,0,1-0.5,1.1-0.8v-1.5c0,0-0.4-0.3-1-0.3
					c-0.7,0-1.3,0.6-1.3,1.3S288.7,289.1,289.4,289.1z"/>
				<path id="XMLID_16095_" fill="#868D8D" d="M295.7,290l4-8.7c0-0.1,0.1-0.1,0.2-0.1h0.1c0.1,0,0.2,0.1,0.2,0.1l4,8.7
					c0.1,0.2,0,0.3-0.2,0.3H303c-0.2,0-0.3-0.1-0.4-0.3l-0.6-1.4h-3.9l-0.6,1.4c-0.1,0.1-0.2,0.3-0.4,0.3h-1.1
					C295.7,290.4,295.6,290.2,295.7,290z M301.3,287.3l-1.3-2.9h0l-1.3,2.9H301.3z"/>
				<path id="XMLID_16092_" fill="#868D8D" d="M305.5,281.5c0-0.1,0.1-0.2,0.2-0.2h3.1c2.5,0,4.6,2,4.6,4.5c0,2.5-2.1,4.6-4.6,4.6
					h-3.1c-0.1,0-0.2-0.1-0.2-0.2V281.5z M308.6,288.8c1.7,0,2.9-1.3,2.9-3c0-1.7-1.2-3-2.9-3h-1.5v5.9H308.6z"/>
				<path id="XMLID_16090_" fill="#868D8D" d="M319.1,281.2c1.3,0,2.3,0.4,3.1,1.2c0.1,0.1,0.1,0.3,0,0.4l-0.8,0.8
					c-0.1,0.1-0.2,0.1-0.3,0c-0.5-0.5-1.3-0.8-2-0.8c-1.7,0-2.9,1.4-2.9,3c0,1.6,1.2,3,2.9,3c0.8,0,1.4-0.3,2-0.7
					c0.1-0.1,0.2-0.1,0.3,0l0.8,0.8c0.1,0.1,0.1,0.3,0,0.4c-0.9,0.9-2,1.3-3.2,1.3c-2.6,0-4.7-2.1-4.7-4.7S316.5,281.2,319.1,281.2z
					"/>
			</g>
		</g>
		<g id="XMLID_6768_">
			<path id="XMLID_6775_" fill="#FFFFFF" d="M276.3,239.5h-6.2c-0.6,0-1.2-0.5-1.2-1.2v-3.9c0-0.6,0.5-1.2,1.2-1.2h6.2
				c0.6,0,1.2,0.5,1.2,1.2v3.9C277.5,239,276.9,239.5,276.3,239.5z"/>
			<path id="XMLID_6774_" fill="#FFFFFF" d="M265.6,255h-6.2c-0.6,0-1.2-0.5-1.2-1.2V250c0-0.6,0.5-1.2,1.2-1.2h6.2
				c0.6,0,1.2,0.5,1.2,1.2v3.9C266.8,254.5,266.2,255,265.6,255z"/>
			<path id="XMLID_6773_" fill="#FFFFFF" d="M276.6,255h-6.2c-0.6,0-1.2-0.5-1.2-1.2V250c0-0.6,0.5-1.2,1.2-1.2h6.2
				c0.6,0,1.2,0.5,1.2,1.2v3.9C277.8,254.5,277.3,255,276.6,255z"/>
			<path id="XMLID_6772_" fill="#FFFFFF" d="M287.7,255h-6.2c-0.6,0-1.2-0.5-1.2-1.2V250c0-0.6,0.5-1.2,1.2-1.2h6.2
				c0.6,0,1.2,0.5,1.2,1.2v3.9C288.9,254.5,288.3,255,287.7,255z"/>
			<rect id="XMLID_6771_" x="272.5" y="239.5" fill="#FFFFFF" width="1.2" height="9.8"/>
			
				<rect id="XMLID_6770_" x="267.8" y="237.9" transform="matrix(0.7071 0.7071 -0.7071 0.7071 251.6759 -118.0439)" fill="#FFFFFF" width="1.2" height="13.7"/>
			
				<rect id="XMLID_6769_" x="277.7" y="237.9" transform="matrix(0.7071 -0.7071 0.7071 0.7071 -91.6683 268.4641)" fill="#FFFFFF" width="1.2" height="14"/>
		</g>
	</g>
	<g id="XMLID_6753_">
		<g id="XMLID_10846_">
			<g id="XMLID_15626_">
				<path id="XMLID_15864_" fill="#868D8D" d="M366,290l4-8.7c0-0.1,0.1-0.1,0.2-0.1h0.1c0.1,0,0.2,0.1,0.2,0.1l4,8.7
					c0.1,0.2,0,0.3-0.2,0.3h-1.1c-0.2,0-0.3-0.1-0.4-0.3l-0.6-1.4h-3.9l-0.6,1.4c-0.1,0.1-0.2,0.3-0.4,0.3h-1.1
					C366,290.4,365.9,290.2,366,290z M371.6,287.3l-1.3-2.9h0l-1.3,2.9H371.6z"/>
				<path id="XMLID_15862_" fill="#868D8D" d="M375.3,285.4c0-0.1,0.1-0.2,0.2-0.2h0.5c0.1,0,0.2,0.1,0.2,0.2l0.2,0.5
					c0.2-0.2,0.8-0.8,1.8-0.8c1.7,0,2.3,1.2,2.3,2.6v2.5c0,0.1-0.1,0.2-0.2,0.2h-1.1c-0.1,0-0.2-0.1-0.2-0.2v-2.6
					c0-0.7-0.4-1.1-1-1.1c-0.7,0-1.1,0.5-1.2,0.8v2.9c0,0.2-0.1,0.2-0.3,0.2h-1c-0.1,0-0.2-0.1-0.2-0.2V285.4z"/>
				<path id="XMLID_15831_" fill="#868D8D" d="M383.8,287.1c0.5,0,0.9,0.1,0.9,0.1c0-0.7-0.2-0.9-0.7-0.9c-0.5,0-1.2,0.1-1.5,0.2
					c-0.2,0.1-0.3-0.1-0.3-0.2l-0.1-0.7c0-0.2,0.1-0.3,0.2-0.3c0.1,0,0.9-0.2,1.8-0.2c1.6,0,2,0.8,2,2.3v2.8c0,0.1-0.1,0.2-0.2,0.2
					h-0.5c-0.1,0-0.2,0-0.2-0.2l-0.2-0.4c-0.3,0.3-0.8,0.7-1.6,0.7c-1,0-1.8-0.7-1.8-1.8C381.7,287.8,382.5,287.1,383.8,287.1z
					 M383.8,289.4c0.4,0,0.8-0.4,0.9-0.5v-0.7c0,0-0.4-0.2-0.7-0.2c-0.5,0-0.8,0.3-0.8,0.7C383.1,289.1,383.4,289.4,383.8,289.4z"/>
				<path id="XMLID_15805_" fill="#868D8D" d="M387.6,281.5c0-0.1,0.1-0.2,0.2-0.2h1.1c0.1,0,0.2,0.1,0.2,0.2v8.6
					c0,0.1-0.1,0.2-0.2,0.2h-1.1c-0.1,0-0.2-0.1-0.2-0.2V281.5z"/>
				<path id="XMLID_15802_" fill="#868D8D" d="M390.1,285.5c-0.1-0.2,0-0.3,0.2-0.3h1.2c0.1,0,0.2,0.1,0.2,0.1l1.3,2.9h0l1.3-2.9
					c0.1-0.1,0.2-0.1,0.3-0.1h1c0.2,0,0.3,0.2,0.2,0.3l-4,8.6c0,0.1-0.1,0.2-0.2,0.2h-1.1c-0.2,0-0.3-0.2-0.2-0.4l1.8-3.9
					L390.1,285.5z"/>
				<path id="XMLID_15799_" fill="#868D8D" d="M397.1,286.5h-0.4c-0.1,0-0.2-0.1-0.2-0.2v-0.9c0-0.1,0.1-0.2,0.2-0.2h0.4v-1.4
					c0-0.1,0.1-0.2,0.2-0.2l1.1,0c0.1,0,0.2,0.1,0.2,0.2v1.5h1.1c0.1,0,0.2,0.1,0.2,0.2v0.9c0,0.1-0.1,0.2-0.2,0.2h-1.1v2.1
					c0,0.4,0.2,0.4,0.4,0.4c0.2,0,0.5-0.1,0.6-0.1c0.1-0.1,0.2,0,0.3,0.1l0.3,0.8c0.1,0.1,0,0.3-0.1,0.3c-0.1,0-0.9,0.3-1.5,0.3
					c-1,0-1.4-0.6-1.4-1.7V286.5z"/>
				<path id="XMLID_15631_" fill="#868D8D" d="M401.2,282.4c0-0.5,0.4-0.9,0.9-0.9c0.5,0,0.9,0.4,0.9,0.9s-0.4,0.9-0.9,0.9
					C401.6,283.3,401.2,282.9,401.2,282.4z M401.3,285.4c0-0.1,0.1-0.2,0.2-0.2h1.1c0.1,0,0.2,0.1,0.2,0.2v4.7
					c0,0.1-0.1,0.2-0.2,0.2h-1.1c-0.1,0-0.2-0.1-0.2-0.2V285.4z"/>
				<path id="XMLID_15629_" fill="#868D8D" d="M406.8,285.1c0.8,0,1.4,0.3,1.9,0.9c0.1,0.1,0.1,0.3-0.1,0.4l-0.6,0.6
					c-0.1,0.1-0.2,0-0.3,0c-0.2-0.2-0.5-0.4-0.9-0.4c-0.7,0-1.3,0.6-1.3,1.3c0,0.7,0.6,1.3,1.3,1.3c0.6,0,0.8-0.3,1-0.5
					c0.1-0.1,0.2-0.1,0.3,0l0.6,0.5c0.1,0.1,0.2,0.2,0.1,0.4c-0.4,0.7-1.1,1.1-2.1,1.1c-1.5,0-2.8-1.2-2.8-2.7
					C404,286.2,405.3,285.1,406.8,285.1z"/>
				<path id="XMLID_15627_" fill="#868D8D" d="M409.7,289.8l0.4-0.7c0.1-0.1,0.2-0.2,0.3-0.1c0,0,0.6,0.3,1.2,0.3
					c0.3,0,0.4-0.1,0.4-0.3c0-0.2-0.2-0.4-0.9-0.7c-1-0.4-1.5-0.9-1.5-1.7s0.6-1.5,1.9-1.5c0.8,0,1.3,0.2,1.6,0.4
					c0.1,0.1,0.2,0.2,0.1,0.3l-0.3,0.7c-0.1,0.1-0.2,0.1-0.3,0.1c0,0-0.6-0.3-1.1-0.3c-0.3,0-0.4,0.1-0.4,0.3c0,0.2,0.2,0.3,0.7,0.5
					c1,0.4,1.8,0.8,1.8,1.8c0,0.9-0.8,1.6-2.1,1.6c-0.9,0-1.5-0.3-1.7-0.5C409.7,290,409.6,289.9,409.7,289.8z"/>
			</g>
		</g>
		<path id="XMLID_6762_" fill="#858C8D" d="M389.9,221.7c-12.4,0-22.4,10-22.4,22.4s10,22.4,22.4,22.4c12.4,0,22.4-10,22.4-22.4
			S402.3,221.7,389.9,221.7z"/>
		<g id="XMLID_6754_">
			<defs>
				<path id="XMLID_6755_" d="M389.9,221.7c-12.4,0-22.4,10-22.4,22.4s10,22.4,22.4,22.4c12.4,0,22.4-10,22.4-22.4
					S402.3,221.7,389.9,221.7z"/>
			</defs>
			<clipPath id="XMLID_2865_">
				<use xlink:href="#XMLID_6755_"  overflow="visible"/>
			</clipPath>
			<g id="XMLID_6757_" clip-path="url(#XMLID_2865_)">
				<rect id="XMLID_6761_" x="374.4" y="246.6" fill="#FFFFFF" width="3.6" height="19.9"/>
				<rect id="XMLID_6760_" x="393.1" y="244.2" fill="#FFFFFF" width="3.6" height="22.4"/>
				<rect id="XMLID_6759_" x="383.8" y="241.4" fill="#FFFFFF" width="3.6" height="27"/>
				<rect id="XMLID_6758_" x="402.4" y="235.2" fill="#FFFFFF" width="3.6" height="33.1"/>
			</g>
		</g>
	</g>
</g>
<g id="Misc._Art" display="none">
</g>
</svg>
