<?xml version="1.0" encoding="utf-8"?>
<!-- Generator: Adobe Illustrator 19.2.1, SVG Export Plug-In . SVG Version: 6.00 Build 0)  -->
<svg version="1.1" xmlns="http://www.w3.org/2000/svg" xmlns:xlink="http://www.w3.org/1999/xlink" x="0px" y="0px"
	 viewBox="0 0 360 230" enable-background="new 0 0 360 230" xml:space="preserve">
<symbol  id="New_Symbol" viewBox="-14.9 -14.9 29.9 29.9">
	<path fill="#EC4F24" d="M14.9-9.7c0-2.9-2.3-5.2-5.2-5.2H-9.7c-2.9,0-5.2,2.3-5.2,5.2V9.7c0,2.9,2.3,5.2,5.2,5.2H9.7
		c2.9,0,5.2-2.3,5.2-5.2V-9.7z"/>
	<g>
		<path fill="#FFFFFF" d="M-0.1,3.6v1.7h-1.6c-0.1,0.6-0.3,1.1-0.6,1.6L-1.2,8l-1.2,1.2L-3.6,8c-0.5,0.3-1,0.6-1.6,0.7v1.6h-1.7V8.7
			C-7.4,8.6-8,8.4-8.5,8.1l-1.1,1.1L-10.8,8l1.1-1.1c-0.3-0.5-0.5-1-0.7-1.6h-1.6V3.6h1.6C-10.2,3-10,2.4-9.6,2l-1.1-1.1l1.2-1.2
			l1.2,1.2c0.5-0.3,1-0.5,1.6-0.6v-1.7h1.7v1.7c0.6,0.1,1.1,0.3,1.6,0.7l1.2-1.2l1.2,1.2L-2.4,2c0.3,0.5,0.5,1,0.7,1.6H-0.1z
			 M-6,1.8c-1.5,0-2.7,1.2-2.7,2.7S-7.5,7.1-6,7.1s2.7-1.2,2.7-2.7S-4.6,1.8-6,1.8z"/>
		<path fill="#FFFFFF" d="M12.3-4.1v1.9h-1.8c-0.1,0.6-0.4,1.2-0.7,1.7l1.3,1.3L9.7,2.1L8.5,0.8C8,1.2,7.4,1.4,6.7,1.5v1.8H4.9V1.6
			C4.2,1.4,3.6,1.2,3.1,0.8L1.9,2.1L0.5,0.7l1.2-1.2C1.4-1,1.2-1.6,1-2.3h-1.8v-1.9h1.8c0.1-0.6,0.4-1.2,0.7-1.8L0.5-7.2l1.3-1.3
			l1.3,1.3c0.5-0.3,1.1-0.6,1.7-0.7v-1.8h1.9v1.8c0.6,0.1,1.2,0.4,1.7,0.7l1.3-1.3l1.3,1.3L9.8-5.9c0.3,0.5,0.6,1.1,0.7,1.7H12.3z
			 M5.8-6.1c-1.6,0-3,1.3-3,3s1.3,3,3,3s3-1.3,3-3S7.4-6.1,5.8-6.1z"/>
	</g>
</symbol>
<g id="Artwork__x5B_Live_x5D_" display="none">
	<g id="XMLID_3141_" display="inline">
		<g id="XMLID_3144_">
			<path id="XMLID_3145_" fill="#CED0D1" d="M329.8,117.1c0,3.5-2.8,6.3-6.3,6.3l-286.9,0c-3.5,0-6.3-2.8-6.3-6.3V16.3
				c0-3.5,2.8-6.3,6.3-6.3h286.9c3.5,0,6.3,2.8,6.3,6.3V117.1z"/>
		</g>
		<g id="XMLID_3142_">
			<rect id="XMLID_3143_" x="37.1" y="16.8" fill="#EBEBEB" width="285.9" height="99.7"/>
		</g>
	</g>
	<g id="XMLID_3139_" display="inline">
		<path id="XMLID_3140_" fill="#EC4F24" d="M240.7,105.9h-28.5c-5.8,0-10.5-4.7-10.5-10.5V66.8c0-5.8,4.7-10.5,10.5-10.5h28.5
			c5.8,0,10.5,4.7,10.5,10.5v28.5C251.2,101.2,246.5,105.9,240.7,105.9z"/>
	</g>
	<g id="XMLID_3137_" display="inline">
		<path id="XMLID_3138_" fill="none" stroke="#EBEBEB" stroke-width="4" stroke-miterlimit="10" d="M227.3,92.5h-28.5
			c-5.8,0-10.5-4.7-10.5-10.5V53.5c0-5.8,4.7-10.5,10.5-10.5h28.5c5.8,0,10.5,4.7,10.5,10.5V82C237.8,87.8,233.1,92.5,227.3,92.5z"
			/>
	</g>
	<g id="XMLID_3135_" display="inline">
		<path id="XMLID_3136_" fill="#EC4F24" d="M227.3,92.5h-28.5c-5.8,0-10.5-4.7-10.5-10.5V53.5c0-5.8,4.7-10.5,10.5-10.5h28.5
			c5.8,0,10.5,4.7,10.5,10.5V82C237.8,87.8,233.1,92.5,227.3,92.5z"/>
	</g>
	<g id="XMLID_3133_" display="inline">
		<path id="XMLID_3134_" fill="none" stroke="#EBEBEB" stroke-width="4" stroke-miterlimit="10" d="M213.9,79.1h-28.5
			c-5.8,0-10.5-4.7-10.5-10.5V40.1c0-5.8,4.7-10.5,10.5-10.5h28.5c5.8,0,10.5,4.7,10.5,10.5v28.5C224.4,74.4,219.7,79.1,213.9,79.1z
			"/>
	</g>
	<g id="XMLID_3130_" display="inline">
		<polygon id="XMLID_3132_" fill="#EC4F24" points="162.7,58.6 162.7,49.4 167.2,54 		"/>
		<rect id="XMLID_3131_" x="152.1" y="51.9" fill="#EC4F24" width="10.7" height="4.3"/>
	</g>
	<g id="XMLID_3074_" display="inline">
		<path id="XMLID_3129_" fill="#EC4F24" d="M213.9,79.1h-28.5c-5.8,0-10.5-4.7-10.5-10.5V40.1c0-5.8,4.7-10.5,10.5-10.5h28.5
			c5.8,0,10.5,4.7,10.5,10.5v28.5C224.4,74.4,219.7,79.1,213.9,79.1z"/>
		
			<ellipse id="XMLID_3128_" transform="matrix(0.7071 -0.7071 0.7071 0.7071 20.233 156.8663)" fill="#FFFFFF" cx="199.5" cy="54" rx="8.5" ry="8.5"/>
		
			<ellipse id="XMLID_3127_" transform="matrix(0.7071 -0.7071 0.7071 0.7071 20.233 156.8663)" fill="#EC4F24" cx="199.5" cy="54" rx="6" ry="6"/>
		
			<rect id="XMLID_3126_" x="190.1" y="56.9" transform="matrix(0.7071 0.7071 -0.7071 0.7071 99.7802 -117.3049)" fill="#FFFFFF" width="2.7" height="9.9"/>
		<g id="XMLID_3088_">
			<circle id="XMLID_3116_" fill="#FFFFFF" cx="196" cy="54" r="1.2"/>
			<circle id="XMLID_3090_" fill="#FFFFFF" cx="199.4" cy="54" r="1.2"/>
			<circle id="XMLID_3089_" fill="#FFFFFF" cx="202.8" cy="54" r="1.2"/>
		</g>
		<g id="XMLID_3085_">
			<polygon id="XMLID_3087_" fill="#FFFFFF" points="217.1,58.4 217.1,50.6 221,54.5 			"/>
			<rect id="XMLID_3086_" x="210.3" y="53.1" fill="#FFFFFF" width="7.1" height="2.8"/>
		</g>
		<g id="XMLID_3082_">
			<polygon id="XMLID_3084_" fill="#FFFFFF" points="214.8,43.8 209.3,38.3 214.8,38.3 			"/>
			
				<rect id="XMLID_3083_" x="206.2" y="41.9" transform="matrix(0.7071 -0.7071 0.7071 0.7071 30.8167 161.0282)" fill="#FFFFFF" width="7.1" height="2.8"/>
		</g>
		<g id="XMLID_3079_">
			<polygon id="XMLID_3081_" fill="#FFFFFF" points="209.1,70.1 214.7,64.5 214.7,70.1 			"/>
			
				<rect id="XMLID_3080_" x="206.1" y="63.6" transform="matrix(0.7071 0.7071 -0.7071 0.7071 107.3793 -129.1918)" fill="#FFFFFF" width="7.1" height="2.8"/>
		</g>
		<g id="XMLID_3075_">
			<polygon id="XMLID_3077_" fill="#FFFFFF" points="184.9,57.8 184.9,50 188.9,53.9 			"/>
			<rect id="XMLID_3076_" x="178.2" y="52.5" fill="#FFFFFF" width="7.1" height="2.8"/>
		</g>
	</g>
	
		<use xlink:href="#New_Symbol"  width="29.9" height="29.9" id="XMLID_3073_" x="-14.9" y="-14.9" transform="matrix(1.6533 0 0 -1.6533 119.6527 54.617)" display="inline" overflow="visible"/>
	<g id="XMLID_2873_" display="inline">
		<g id="XMLID_2914_">
			<text transform="matrix(1 0 0 1 29.3661 214.409)"><tspan x="0" y="0" fill="#868D8D" font-family="'BrandonGrotesque-Bold'" font-size="13px">1</tspan><tspan x="3.8" y="0" fill="#868D8D" font-family="'BrandonGrotesque-Bold'" font-size="13px" letter-spacing="-1">0</tspan><tspan x="10.9" y="0" fill="#868D8D" font-family="'BrandonGrotesque-Bold'" font-size="13px">0% Rest API</tspan></text>
		</g>
		<path id="XMLID_2910_" fill="#858C8D" d="M68.1,145.8c-12.4,0-22.4,10-22.4,22.4s10,22.4,22.4,22.4s22.4-10,22.4-22.4
			S80.5,145.8,68.1,145.8z"/>
		<path id="XMLID_2906_" fill="#FFFFFF" d="M55.9,166.9v-5.6h7.5v-4.7l7.5,7.5l-7.5,7.5v-4.7H55.9z M80.3,178.2h-7.5v4.1l-7.5-7.5
			l7.5-7.5v3.5h7.5V178.2z"/>
	</g>
	<g id="XMLID_2888_" display="inline">
		<g id="XMLID_2902_">
			<text transform="matrix(1 0 0 1 150.1082 214.409)" fill="#868D8D" font-family="'BrandonGrotesque-Bold'" font-size="13px">On-Demand</text>
		</g>
		<path id="XMLID_2900_" fill="#858C8D" d="M183.2,145.8c-12.4,0-22.4,10-22.4,22.4s10,22.4,22.4,22.4s22.4-10,22.4-22.4
			S195.6,145.8,183.2,145.8z"/>
		<g id="XMLID_2892_">
			<path id="XMLID_2899_" fill="#FFFFFF" d="M173.4,167.7c-0.8,0-1.3,0.8-1.3,1.8c0,1,0.5,1.8,1.3,1.8c0.8,0,1.3-0.8,1.3-1.8
				C174.6,168.5,174.2,167.7,173.4,167.7z"/>
			<path id="XMLID_2893_" fill="#FFFFFF" d="M192.8,162.9c-0.9,0-1.7,0.2-2.4,0.5h-17.9c-3.1,0-5.6,2.5-5.6,5.6
				c0,3.1,2.5,5.6,5.6,5.6h12.9c-0.6-1.1-0.9-2.2-0.9-3.5c0-3,1.8-5.6,4.3-6.9c-1.7,1.2-2.8,3.2-2.8,5.4c0,3.7,3,6.8,6.8,6.8
				s6.8-3,6.8-6.8C199.6,165.9,196.6,162.9,192.8,162.9z M173.3,172.2c-1.6,0-2.5-1.2-2.5-2.7c0-1.6,1-2.8,2.6-2.8
				c1.6,0,2.5,1.2,2.5,2.7C175.9,171.1,174.8,172.2,173.3,172.2z M181,172.1h-1.2l-1.1-2c-0.3-0.6-0.7-1.2-0.9-1.9l0,0
				c0,0.7,0,1.4,0,2.3v1.6h-1.1v-5.3h1.4l1.1,1.9c0.3,0.6,0.6,1.2,0.9,1.8h0c-0.1-0.7-0.1-1.4-0.1-2.2v-1.5h1.1V172.1z M192.8,173.7
				c-2.2,0-4-1.8-4-4c0-2.2,1.8-4,4-4c2.2,0,4,1.8,4,4C196.9,171.9,195.1,173.7,192.8,173.7z"/>
		</g>
	</g>
	<g id="XMLID_148_" display="inline">
		<g id="XMLID_2882_">
			<text transform="matrix(1 0 0 1 264.6698 214.409)" fill="#868D8D" font-family="'BrandonGrotesque-Bold'" font-size="13px">App-Centric</text>
		</g>
		<path id="XMLID_2880_" fill="#858C8D" d="M297.4,145.8c-12.4,0-22.4,10-22.4,22.4s10,22.4,22.4,22.4c12.4,0,22.4-10,22.4-22.4
			S309.8,145.8,297.4,145.8z"/>
		<path id="XMLID_2875_" fill="#FFFFFF" d="M288.2,181l-5.2-1.4l2.2-1.3l-1-1.8l0,0c-1.9-3.3-2.4-7.2-1.4-11l1.2,0.3l1.2,0.3
			c-0.8,3.1-0.4,6.4,1.2,9.1l1,1.8l2.4-1.4L288.2,181z M294.8,152.2v2.6h1.9v0c3.9,0,7.5,1.5,10.2,4.2l-1.7,1.7
			c-2.3-2.3-5.3-3.5-8.5-3.5h-1.9v2.6l-3.8-3.8L294.8,152.2z M293.4,174.6c-0.9,0-1.7-0.7-1.7-1.7v-8.1c0-0.9,0.7-1.7,1.7-1.7h8.1
			c0.9,0,1.7,0.7,1.7,1.7v8.1c0,0.9-0.7,1.7-1.7,1.7H293.4z M309.2,176.5L309.2,176.5c-1.9,3.4-5,5.7-8.8,6.7l-0.3-1.2h0l0,0
			l-0.3-1.2c3.1-0.8,5.7-2.8,7.3-5.6l1-1.8l-2.2-1.3l5.2-1.4l1.4,5.2l-2.4-1.4L309.2,176.5z"/>
	</g>
</g>
<g id="Artwork__x5B_Outlined_x5D_">
	<g id="XMLID_6748_">
		<g id="XMLID_6751_">
			<path id="XMLID_6752_" fill="#CED0D1" d="M329.8,117.1c0,3.5-2.8,6.3-6.3,6.3l-286.9,0c-3.5,0-6.3-2.8-6.3-6.3V16.3
				c0-3.5,2.8-6.3,6.3-6.3h286.9c3.5,0,6.3,2.8,6.3,6.3V117.1z"/>
		</g>
		<g id="XMLID_6749_">
			<rect id="XMLID_6750_" x="37.1" y="16.8" fill="#EBEBEB" width="285.9" height="99.7"/>
		</g>
	</g>
	<g id="XMLID_6746_">
		<path id="XMLID_6747_" fill="#EC4F24" d="M240.7,105.9h-28.5c-5.8,0-10.5-4.7-10.5-10.5V66.8c0-5.8,4.7-10.5,10.5-10.5h28.5
			c5.8,0,10.5,4.7,10.5,10.5v28.5C251.2,101.2,246.5,105.9,240.7,105.9z"/>
	</g>
	<g id="XMLID_6744_">
		<path id="XMLID_6745_" fill="none" stroke="#EBEBEB" stroke-width="4" stroke-miterlimit="10" d="M227.3,92.5h-28.5
			c-5.8,0-10.5-4.7-10.5-10.5V53.5c0-5.8,4.7-10.5,10.5-10.5h28.5c5.8,0,10.5,4.7,10.5,10.5V82C237.8,87.8,233.1,92.5,227.3,92.5z"
			/>
	</g>
	<g id="XMLID_6742_">
		<path id="XMLID_6743_" fill="#EC4F24" d="M227.3,92.5h-28.5c-5.8,0-10.5-4.7-10.5-10.5V53.5c0-5.8,4.7-10.5,10.5-10.5h28.5
			c5.8,0,10.5,4.7,10.5,10.5V82C237.8,87.8,233.1,92.5,227.3,92.5z"/>
	</g>
	<g id="XMLID_6740_">
		<path id="XMLID_6741_" fill="none" stroke="#EBEBEB" stroke-width="4" stroke-miterlimit="10" d="M213.9,79.1h-28.5
			c-5.8,0-10.5-4.7-10.5-10.5V40.1c0-5.8,4.7-10.5,10.5-10.5h28.5c5.8,0,10.5,4.7,10.5,10.5v28.5C224.4,74.4,219.7,79.1,213.9,79.1z
			"/>
	</g>
	<g id="XMLID_6737_">
		<polygon id="XMLID_6739_" fill="#EC4F24" points="162.7,58.6 162.7,49.4 167.2,54 		"/>
		<rect id="XMLID_6738_" x="152.1" y="51.9" fill="#EC4F24" width="10.7" height="4.3"/>
	</g>
	<g id="XMLID_6716_">
		<path id="XMLID_6736_" fill="#EC4F24" d="M213.9,79.1h-28.5c-5.8,0-10.5-4.7-10.5-10.5V40.1c0-5.8,4.7-10.5,10.5-10.5h28.5
			c5.8,0,10.5,4.7,10.5,10.5v28.5C224.4,74.4,219.7,79.1,213.9,79.1z"/>
		
			<ellipse id="XMLID_6735_" transform="matrix(0.7071 -0.7071 0.7071 0.7071 20.233 156.8663)" fill="#FFFFFF" cx="199.5" cy="54" rx="8.5" ry="8.5"/>
		
			<ellipse id="XMLID_6734_" transform="matrix(0.7071 -0.7071 0.7071 0.7071 20.233 156.8663)" fill="#EC4F24" cx="199.5" cy="54" rx="6" ry="6"/>
		
			<rect id="XMLID_6733_" x="190.1" y="56.9" transform="matrix(0.7071 0.7071 -0.7071 0.7071 99.7802 -117.3049)" fill="#FFFFFF" width="2.7" height="9.9"/>
		<g id="XMLID_6729_">
			<circle id="XMLID_6732_" fill="#FFFFFF" cx="196" cy="54" r="1.2"/>
			<circle id="XMLID_6731_" fill="#FFFFFF" cx="199.4" cy="54" r="1.2"/>
			<circle id="XMLID_6730_" fill="#FFFFFF" cx="202.8" cy="54" r="1.2"/>
		</g>
		<g id="XMLID_6726_">
			<polygon id="XMLID_6728_" fill="#FFFFFF" points="217.1,58.4 217.1,50.6 221,54.5 			"/>
			<rect id="XMLID_6727_" x="210.3" y="53.1" fill="#FFFFFF" width="7.1" height="2.8"/>
		</g>
		<g id="XMLID_6723_">
			<polygon id="XMLID_6725_" fill="#FFFFFF" points="214.8,43.8 209.3,38.3 214.8,38.3 			"/>
			
				<rect id="XMLID_6724_" x="206.2" y="41.9" transform="matrix(0.7071 -0.7071 0.7071 0.7071 30.8167 161.0282)" fill="#FFFFFF" width="7.1" height="2.8"/>
		</g>
		<g id="XMLID_6720_">
			<polygon id="XMLID_6722_" fill="#FFFFFF" points="209.1,70.1 214.7,64.5 214.7,70.1 			"/>
			
				<rect id="XMLID_6721_" x="206.1" y="63.6" transform="matrix(0.7071 0.7071 -0.7071 0.7071 107.3793 -129.1918)" fill="#FFFFFF" width="7.1" height="2.8"/>
		</g>
		<g id="XMLID_6717_">
			<polygon id="XMLID_6719_" fill="#FFFFFF" points="184.9,57.8 184.9,50 188.9,53.9 			"/>
			<rect id="XMLID_6718_" x="178.2" y="52.5" fill="#FFFFFF" width="7.1" height="2.8"/>
		</g>
	</g>
	
		<use xlink:href="#New_Symbol"  width="29.9" height="29.9" id="XMLID_6715_" x="-14.9" y="-14.9" transform="matrix(1.6533 0 0 -1.6533 119.6527 54.617)" overflow="visible"/>
	<g id="XMLID_6706_">
		<g id="XMLID_10813_">
			<g id="XMLID_16004_">
				<path id="XMLID_16035_" fill="#868D8D" d="M31.4,207.9l-1.1,0.2c-0.1,0-0.2-0.1-0.3-0.2l-0.1-0.6c0-0.1,0-0.2,0.1-0.2l1.9-1.6
					h0.9c0.1,0,0.2,0.1,0.2,0.2v8.3c0,0.1-0.1,0.2-0.2,0.2h-1.1c-0.1,0-0.2-0.1-0.2-0.2V207.9z"/>
				<path id="XMLID_16032_" fill="#868D8D" d="M34.2,210c0-2.8,1.2-4.6,3.3-4.6s3.3,1.7,3.3,4.6c0,2.8-1.2,4.5-3.3,4.5
					S34.2,212.8,34.2,210z M39,210c0-1.9-0.6-3-1.6-3s-1.6,1.1-1.6,3c0,1.9,0.6,3,1.6,3S39,211.9,39,210z"/>
				<path id="XMLID_16029_" fill="#868D8D" d="M41.3,210c0-2.8,1.2-4.6,3.3-4.6s3.3,1.7,3.3,4.6c0,2.8-1.2,4.5-3.3,4.5
					S41.3,212.8,41.3,210z M46.1,210c0-1.9-0.6-3-1.6-3s-1.6,1.1-1.6,3c0,1.9,0.6,3,1.6,3S46.1,211.9,46.1,210z"/>
				<path id="XMLID_16023_" fill="#868D8D" d="M48.9,206.9c0-1,0.8-1.8,1.8-1.8c1,0,1.8,0.8,1.8,1.8c0,1-0.8,1.8-1.8,1.8
					C49.7,208.7,48.9,207.9,48.9,206.9z M54.4,205.4c0-0.1,0.1-0.1,0.2-0.1h0.7c0.2,0,0.3,0.2,0.2,0.4l-4.5,8.6
					c0,0.1-0.1,0.1-0.2,0.1h-0.6c-0.2,0-0.3-0.2-0.2-0.4L54.4,205.4z M51.3,206.9c0-0.3-0.3-0.6-0.6-0.6c-0.4,0-0.6,0.3-0.6,0.6
					c0,0.4,0.3,0.6,0.6,0.6C51,207.6,51.3,207.3,51.3,206.9z M54.9,211c1,0,1.8,0.8,1.8,1.8c0,1-0.8,1.8-1.8,1.8
					c-1,0-1.8-0.8-1.8-1.8C53.2,211.8,54,211,54.9,211z M54.9,213.4c0.3,0,0.6-0.3,0.6-0.6c0-0.3-0.3-0.6-0.6-0.6
					c-0.4,0-0.6,0.3-0.6,0.6C54.3,213.1,54.6,213.4,54.9,213.4z"/>
				<path id="XMLID_16020_" fill="#868D8D" d="M61.3,205.6c0-0.1,0.1-0.2,0.2-0.2h3.7c1.6,0,2.8,1.2,2.8,2.8c0,1.2-0.8,2.2-1.9,2.6
					l1.8,3.3c0.1,0.2,0,0.4-0.2,0.4h-1.4c-0.1,0-0.2-0.1-0.2-0.1l-1.7-3.4H63v3.3c0,0.1-0.1,0.2-0.2,0.2h-1.2
					c-0.1,0-0.2-0.1-0.2-0.2V205.6z M65.1,209.5c0.7,0,1.3-0.6,1.3-1.3c0-0.7-0.6-1.3-1.3-1.3H63v2.6H65.1z"/>
				<path id="XMLID_16017_" fill="#868D8D" d="M71.4,209.1c1.3,0,2.4,1,2.4,2.4c0,0.1,0,0.3,0,0.4c0,0.1-0.1,0.2-0.2,0.2h-3.3
					c0,0.5,0.5,1.1,1.2,1.1c0.4,0,0.8-0.2,1-0.3c0.1-0.1,0.2-0.1,0.3,0l0.5,0.6c0.1,0.1,0.1,0.2,0,0.3c-0.4,0.4-1.1,0.7-1.9,0.7
					c-1.6,0-2.7-1.2-2.7-2.7C68.7,210.3,69.9,209.1,71.4,209.1z M72.3,211.2c0-0.5-0.5-0.9-0.9-0.9c-0.5,0-0.9,0.4-1,0.9H72.3z"/>
				<path id="XMLID_16015_" fill="#868D8D" d="M74.6,213.8l0.4-0.7c0.1-0.1,0.2-0.2,0.3-0.1c0,0,0.6,0.3,1.2,0.3
					c0.3,0,0.4-0.1,0.4-0.3c0-0.2-0.2-0.4-0.9-0.7c-1-0.4-1.5-0.9-1.5-1.7s0.6-1.5,1.9-1.5c0.8,0,1.3,0.2,1.6,0.4
					c0.1,0.1,0.2,0.2,0.1,0.4l-0.3,0.7c-0.1,0.1-0.2,0.1-0.3,0.1c0,0-0.6-0.3-1.1-0.3c-0.3,0-0.4,0.1-0.4,0.3c0,0.2,0.2,0.3,0.7,0.5
					c1,0.4,1.8,0.8,1.8,1.8c0,0.9-0.8,1.6-2.1,1.6c-0.9,0-1.5-0.3-1.7-0.5C74.6,214,74.6,213.9,74.6,213.8z"/>
				<path id="XMLID_16013_" fill="#868D8D" d="M79.9,210.6h-0.4c-0.1,0-0.2-0.1-0.2-0.2v-0.9c0-0.1,0.1-0.2,0.2-0.2h0.4v-1.4
					c0-0.1,0.1-0.2,0.2-0.2l1.1,0c0.1,0,0.2,0.1,0.2,0.2v1.5h1.1c0.1,0,0.2,0.1,0.2,0.2v0.9c0,0.1-0.1,0.2-0.2,0.2h-1.1v2.1
					c0,0.4,0.2,0.4,0.4,0.4c0.2,0,0.5-0.1,0.6-0.1c0.1-0.1,0.2,0,0.3,0.1l0.3,0.8c0.1,0.1,0,0.3-0.1,0.3c-0.1,0-0.9,0.3-1.5,0.3
					c-1,0-1.4-0.6-1.4-1.7V210.6z"/>
				<path id="XMLID_16010_" fill="#868D8D" d="M86.2,214.1l4-8.7c0-0.1,0.1-0.1,0.2-0.1h0.1c0.1,0,0.2,0.1,0.2,0.1l4,8.7
					c0.1,0.2,0,0.3-0.2,0.3h-1.1c-0.2,0-0.3-0.1-0.4-0.3l-0.6-1.4h-3.9l-0.6,1.4c-0.1,0.1-0.2,0.3-0.4,0.3h-1.1
					C86.3,214.4,86.2,214.2,86.2,214.1z M91.9,211.3l-1.3-2.9h0l-1.3,2.9H91.9z"/>
				<path id="XMLID_16007_" fill="#868D8D" d="M96,205.6c0-0.1,0.1-0.2,0.2-0.2h3.1c1.6,0,2.9,1.3,2.9,2.9c0,1.6-1.3,2.9-2.9,2.9
					h-1.6v3.1c0,0.1-0.1,0.2-0.2,0.2h-1.2c-0.1,0-0.2-0.1-0.2-0.2V205.6z M99.2,209.5c0.7,0,1.3-0.6,1.3-1.4c0-0.7-0.6-1.3-1.3-1.3
					h-1.5v2.6H99.2z"/>
				<path id="XMLID_16005_" fill="#868D8D" d="M103.7,205.6c0-0.1,0.1-0.2,0.2-0.2h1.2c0.1,0,0.2,0.1,0.2,0.2v8.6
					c0,0.1-0.1,0.2-0.2,0.2H104c-0.1,0-0.2-0.1-0.2-0.2V205.6z"/>
			</g>
		</g>
		<path id="XMLID_6710_" fill="#858C8D" d="M68.1,145.8c-12.4,0-22.4,10-22.4,22.4s10,22.4,22.4,22.4s22.4-10,22.4-22.4
			S80.5,145.8,68.1,145.8z"/>
		<path id="XMLID_6707_" fill="#FFFFFF" d="M55.9,166.9v-5.6h7.5v-4.7l7.5,7.5l-7.5,7.5v-4.7H55.9z M80.3,178.2h-7.5v4.1l-7.5-7.5
			l7.5-7.5v3.5h7.5V178.2z"/>
	</g>
	<g id="XMLID_6693_">
		<g id="XMLID_10789_">
			<g id="XMLID_15806_">
				<path id="XMLID_15827_" fill="#868D8D" d="M155.6,205.2c2.6,0,4.7,2.1,4.7,4.7c0,2.6-2.1,4.7-4.7,4.7s-4.7-2.1-4.7-4.7
					C150.9,207.3,153,205.2,155.6,205.2z M155.6,212.8c1.6,0,3-1.3,3-3s-1.4-3-3-3s-3,1.4-3,3S153.9,212.8,155.6,212.8z"/>
				<path id="XMLID_15825_" fill="#868D8D" d="M161.3,209.5c0-0.1,0.1-0.2,0.2-0.2h0.5c0.1,0,0.2,0.1,0.2,0.2l0.2,0.5
					c0.2-0.2,0.8-0.8,1.8-0.8c1.7,0,2.3,1.2,2.3,2.6v2.5c0,0.1-0.1,0.2-0.2,0.2h-1.1c-0.1,0-0.2-0.1-0.2-0.2v-2.6
					c0-0.7-0.4-1.1-1-1.1c-0.7,0-1.1,0.5-1.2,0.8v2.9c0,0.2-0.1,0.2-0.3,0.2h-1c-0.1,0-0.2-0.1-0.2-0.2V209.5z"/>
				<path id="XMLID_15823_" fill="#868D8D" d="M168,211.7v-0.9c0-0.1,0.1-0.2,0.2-0.2h2.9c0.1,0,0.2,0.1,0.2,0.2v0.9
					c0,0.1-0.1,0.2-0.2,0.2h-2.9C168.1,211.9,168,211.8,168,211.7z"/>
				<path id="XMLID_15820_" fill="#868D8D" d="M173.2,205.6c0-0.1,0.1-0.2,0.2-0.2h3.1c2.5,0,4.6,2,4.6,4.5c0,2.5-2.1,4.6-4.6,4.6
					h-3.1c-0.1,0-0.2-0.1-0.2-0.2V205.6z M176.3,212.8c1.7,0,2.9-1.3,2.9-3c0-1.7-1.2-3-2.9-3h-1.5v5.9H176.3z"/>
				<path id="XMLID_15817_" fill="#868D8D" d="M184.4,209.1c1.3,0,2.4,1,2.4,2.4c0,0.1,0,0.3,0,0.4c0,0.1-0.1,0.2-0.2,0.2h-3.3
					c0,0.5,0.5,1.1,1.2,1.1c0.4,0,0.8-0.2,1-0.3c0.1-0.1,0.2-0.1,0.3,0l0.5,0.6c0.1,0.1,0.1,0.2,0,0.3c-0.4,0.4-1.1,0.7-1.9,0.7
					c-1.6,0-2.7-1.2-2.7-2.7C181.8,210.3,182.9,209.1,184.4,209.1z M185.3,211.2c0-0.5-0.5-0.9-0.9-0.9c-0.5,0-0.9,0.4-1,0.9H185.3z
					"/>
				<path id="XMLID_15815_" fill="#868D8D" d="M187.9,209.5c0-0.1,0.1-0.2,0.2-0.2h0.5c0.1,0,0.2,0.1,0.2,0.1l0.2,0.5
					c0.2-0.2,0.8-0.8,1.7-0.8c0.7,0,1.3,0.3,1.7,0.8c0.2-0.2,0.9-0.8,1.8-0.8c1.7,0,2.3,1.2,2.3,2.6v2.5c0,0.1-0.1,0.2-0.2,0.2h-1.1
					c-0.1,0-0.2-0.1-0.2-0.2v-2.6c0-0.7-0.3-1.1-1-1.1c-0.8,0-1.1,0.5-1.1,0.5s0,0.3,0,0.5v2.6c0,0.1-0.1,0.2-0.2,0.2h-1
					c-0.1,0-0.2-0.1-0.2-0.2v-2.6c0-0.7-0.3-1.1-1-1.1c-0.6,0-1,0.5-1.1,0.8v2.9c0,0.1-0.1,0.2-0.2,0.2h-1.1c-0.1,0-0.2-0.1-0.2-0.2
					V209.5z"/>
				<path id="XMLID_15812_" fill="#868D8D" d="M199.8,211.1c0.5,0,0.9,0.1,0.9,0.1c0-0.7-0.2-0.9-0.7-0.9c-0.5,0-1.2,0.1-1.5,0.2
					c-0.2,0.1-0.3-0.1-0.3-0.2l-0.1-0.7c0-0.2,0.1-0.3,0.2-0.3c0.1,0,0.9-0.2,1.8-0.2c1.6,0,2,0.8,2,2.3v2.8c0,0.1-0.1,0.2-0.2,0.2
					h-0.5c-0.1,0-0.2,0-0.2-0.2l-0.2-0.4c-0.3,0.3-0.8,0.7-1.6,0.7c-1,0-1.8-0.7-1.8-1.8C197.7,211.8,198.4,211.1,199.8,211.1z
					 M199.8,213.4c0.4,0,0.8-0.4,0.9-0.5v-0.7c0,0-0.4-0.2-0.7-0.2c-0.5,0-0.8,0.3-0.8,0.7C199.1,213.1,199.4,213.4,199.8,213.4z"/>
				<path id="XMLID_15810_" fill="#868D8D" d="M203.6,209.5c0-0.1,0.1-0.2,0.2-0.2h0.5c0.1,0,0.2,0.1,0.2,0.2l0.2,0.5
					c0.2-0.2,0.8-0.8,1.8-0.8c1.7,0,2.3,1.2,2.3,2.6v2.5c0,0.1-0.1,0.2-0.2,0.2h-1.1c-0.1,0-0.2-0.1-0.2-0.2v-2.6
					c0-0.7-0.4-1.1-1-1.1c-0.7,0-1.1,0.5-1.2,0.8v2.9c0,0.2-0.1,0.2-0.3,0.2h-1c-0.1,0-0.2-0.1-0.2-0.2V209.5z"/>
				<path id="XMLID_15807_" fill="#868D8D" d="M212.6,209.1c0.5,0,0.9,0.1,1.2,0.2v-3.8c0-0.1,0.1-0.2,0.2-0.2h1.1
					c0.1,0,0.2,0.1,0.2,0.2v8.6c0,0.1-0.1,0.2-0.2,0.2h-0.5c-0.1,0-0.2-0.1-0.2-0.2l-0.1-0.4c0,0-0.6,0.8-1.7,0.8
					c-1.4,0-2.5-1.2-2.5-2.7C210,210.3,211,209.1,212.6,209.1z M212.7,213.1c0.7,0,1-0.5,1.1-0.8v-1.5c0,0-0.4-0.3-1-0.3
					c-0.7,0-1.3,0.6-1.3,1.3C211.5,212.5,212,213.1,212.7,213.1z"/>
			</g>
		</g>
		<path id="XMLID_6701_" fill="#858C8D" d="M183.2,145.8c-12.4,0-22.4,10-22.4,22.4s10,22.4,22.4,22.4s22.4-10,22.4-22.4
			S195.6,145.8,183.2,145.8z"/>
		<g id="XMLID_6694_">
			<path id="XMLID_6700_" fill="#FFFFFF" d="M173.4,167.7c-0.8,0-1.3,0.8-1.3,1.8c0,1,0.5,1.8,1.3,1.8c0.8,0,1.3-0.8,1.3-1.8
				C174.6,168.5,174.2,167.7,173.4,167.7z"/>
			<path id="XMLID_6695_" fill="#FFFFFF" d="M192.8,162.9c-0.9,0-1.7,0.2-2.4,0.5h-17.9c-3.1,0-5.6,2.5-5.6,5.6
				c0,3.1,2.5,5.6,5.6,5.6h12.9c-0.6-1.1-0.9-2.2-0.9-3.5c0-3,1.8-5.6,4.3-6.9c-1.7,1.2-2.8,3.2-2.8,5.4c0,3.7,3,6.8,6.8,6.8
				s6.8-3,6.8-6.8C199.6,165.9,196.6,162.9,192.8,162.9z M173.3,172.2c-1.6,0-2.5-1.2-2.5-2.7c0-1.6,1-2.8,2.6-2.8
				c1.6,0,2.5,1.2,2.5,2.7C175.9,171.1,174.8,172.2,173.3,172.2z M181,172.1h-1.2l-1.1-2c-0.3-0.6-0.7-1.2-0.9-1.9l0,0
				c0,0.7,0,1.4,0,2.3v1.6h-1.1v-5.3h1.4l1.1,1.9c0.3,0.6,0.6,1.2,0.9,1.8h0c-0.1-0.7-0.1-1.4-0.1-2.2v-1.5h1.1V172.1z M192.8,173.7
				c-2.2,0-4-1.8-4-4c0-2.2,1.8-4,4-4c2.2,0,4,1.8,4,4C196.9,171.9,195.1,173.7,192.8,173.7z"/>
		</g>
	</g>
	<g id="XMLID_6682_">
		<g id="XMLID_10761_">
			<g id="XMLID_15833_">
				<path id="XMLID_15858_" fill="#868D8D" d="M264.8,214.1l4-8.7c0-0.1,0.1-0.1,0.2-0.1h0.1c0.1,0,0.2,0.1,0.2,0.1l4,8.7
					c0.1,0.2,0,0.3-0.2,0.3h-1.1c-0.2,0-0.3-0.1-0.4-0.3l-0.6-1.4h-3.9l-0.6,1.4c-0.1,0.1-0.2,0.3-0.4,0.3H265
					C264.8,214.4,264.7,214.2,264.8,214.1z M270.4,211.3l-1.3-2.9h0l-1.3,2.9H270.4z"/>
				<path id="XMLID_15855_" fill="#868D8D" d="M275.8,218.1c0,0.2-0.1,0.2-0.3,0.2h-1c-0.1,0-0.2-0.1-0.2-0.2v-8.6
					c0-0.1,0.1-0.2,0.2-0.2h0.5c0.1,0,0.2,0.1,0.2,0.2l0.2,0.4c0.2-0.3,0.8-0.7,1.7-0.7c1.4,0,2.5,1.2,2.5,2.7
					c0,1.5-1.2,2.7-2.6,2.7c-0.5,0-1-0.2-1.2-0.3V218.1z M276.7,213.1c0.7,0,1.3-0.6,1.3-1.3c0-0.7-0.5-1.3-1.2-1.3
					c-0.7,0-1,0.5-1.1,0.8v1.6C275.7,212.8,276.1,213.1,276.7,213.1z"/>
				<path id="XMLID_15852_" fill="#868D8D" d="M282.3,218.1c0,0.2-0.1,0.2-0.3,0.2h-1c-0.1,0-0.2-0.1-0.2-0.2v-8.6
					c0-0.1,0.1-0.2,0.2-0.2h0.5c0.1,0,0.2,0.1,0.2,0.2l0.2,0.4c0.2-0.3,0.8-0.7,1.7-0.7c1.4,0,2.5,1.2,2.5,2.7
					c0,1.5-1.2,2.7-2.6,2.7c-0.5,0-1-0.2-1.2-0.3V218.1z M283.2,213.1c0.7,0,1.3-0.6,1.3-1.3c0-0.7-0.5-1.3-1.2-1.3
					c-0.7,0-1,0.5-1.1,0.8v1.6C282.2,212.8,282.6,213.1,283.2,213.1z"/>
				<path id="XMLID_15850_" fill="#868D8D" d="M287.1,211.7v-0.9c0-0.1,0.1-0.2,0.2-0.2h2.9c0.1,0,0.2,0.1,0.2,0.2v0.9
					c0,0.1-0.1,0.2-0.2,0.2h-2.9C287.2,211.9,287.1,211.8,287.1,211.7z"/>
				<path id="XMLID_15848_" fill="#868D8D" d="M296.4,205.2c1.3,0,2.3,0.4,3.1,1.2c0.1,0.1,0.1,0.3,0,0.4l-0.8,0.8
					c-0.1,0.1-0.2,0.1-0.3,0c-0.5-0.5-1.3-0.8-2-0.8c-1.7,0-2.9,1.4-2.9,3c0,1.6,1.2,3,2.9,3c0.8,0,1.4-0.3,2-0.7
					c0.1-0.1,0.2-0.1,0.3,0l0.8,0.8c0.1,0.1,0.1,0.3,0,0.4c-0.9,0.9-2,1.3-3.2,1.3c-2.6,0-4.7-2.1-4.7-4.7
					C291.7,207.3,293.8,205.2,296.4,205.2z"/>
				<path id="XMLID_15845_" fill="#868D8D" d="M302.9,209.1c1.3,0,2.4,1,2.4,2.4c0,0.1,0,0.3,0,0.4c0,0.1-0.1,0.2-0.2,0.2h-3.3
					c0,0.5,0.5,1.1,1.2,1.1c0.4,0,0.8-0.2,1-0.3c0.1-0.1,0.2-0.1,0.3,0l0.5,0.6c0.1,0.1,0.1,0.2,0,0.3c-0.4,0.4-1.1,0.7-1.9,0.7
					c-1.6,0-2.7-1.2-2.7-2.7C300.3,210.3,301.4,209.1,302.9,209.1z M303.8,211.2c0-0.5-0.5-0.9-0.9-0.9c-0.5,0-0.9,0.4-1,0.9H303.8z
					"/>
				<path id="XMLID_15843_" fill="#868D8D" d="M306.4,209.5c0-0.1,0.1-0.2,0.2-0.2h0.5c0.1,0,0.2,0.1,0.2,0.2l0.2,0.5
					c0.2-0.2,0.8-0.8,1.8-0.8c1.7,0,2.3,1.2,2.3,2.6v2.5c0,0.1-0.1,0.2-0.2,0.2h-1.1c-0.1,0-0.2-0.1-0.2-0.2v-2.6
					c0-0.7-0.4-1.1-1-1.1c-0.7,0-1.1,0.5-1.2,0.8v2.9c0,0.2-0.1,0.2-0.3,0.2h-1c-0.1,0-0.2-0.1-0.2-0.2V209.5z"/>
				<path id="XMLID_15841_" fill="#868D8D" d="M313.4,210.6H313c-0.1,0-0.2-0.1-0.2-0.2v-0.9c0-0.1,0.1-0.2,0.2-0.2h0.4v-1.4
					c0-0.1,0.1-0.2,0.2-0.2l1.1,0c0.1,0,0.2,0.1,0.2,0.2v1.5h1.1c0.1,0,0.2,0.1,0.2,0.2v0.9c0,0.1-0.1,0.2-0.2,0.2H315v2.1
					c0,0.4,0.2,0.4,0.4,0.4c0.2,0,0.5-0.1,0.6-0.1c0.1-0.1,0.2,0,0.3,0.1l0.3,0.8c0.1,0.1,0,0.3-0.1,0.3c-0.1,0-0.9,0.3-1.5,0.3
					c-1,0-1.4-0.6-1.4-1.7V210.6z"/>
				<path id="XMLID_15839_" fill="#868D8D" d="M317.6,209.5c0-0.1,0.1-0.2,0.2-0.2h0.5c0.1,0,0.2,0.1,0.2,0.2l0.2,0.5
					c0.2-0.3,0.7-0.8,1.5-0.8c0.6,0,1.2,0.2,1,0.5l-0.5,0.8c-0.1,0.1-0.2,0.2-0.3,0.1c0,0-0.2-0.1-0.4-0.1c-0.5,0-0.8,0.4-0.9,0.5
					v3.1c0,0.2-0.1,0.2-0.3,0.2h-1c-0.1,0-0.2-0.1-0.2-0.2V209.5z"/>
				<path id="XMLID_15836_" fill="#868D8D" d="M321.9,206.5c0-0.5,0.4-0.9,0.9-0.9c0.5,0,0.9,0.4,0.9,0.9s-0.4,0.9-0.9,0.9
					C322.3,207.4,321.9,207,321.9,206.5z M322.1,209.5c0-0.1,0.1-0.2,0.2-0.2h1.1c0.1,0,0.2,0.1,0.2,0.2v4.7c0,0.1-0.1,0.2-0.2,0.2
					h-1.1c-0.1,0-0.2-0.1-0.2-0.2V209.5z"/>
				<path id="XMLID_15834_" fill="#868D8D" d="M327.6,209.1c0.8,0,1.4,0.3,1.9,0.9c0.1,0.1,0.1,0.3-0.1,0.4l-0.6,0.6
					c-0.1,0.1-0.2,0-0.3,0c-0.2-0.2-0.5-0.4-0.9-0.4c-0.7,0-1.3,0.6-1.3,1.3c0,0.7,0.6,1.3,1.3,1.3c0.6,0,0.8-0.3,1-0.5
					c0.1-0.1,0.2-0.1,0.3,0l0.6,0.5c0.1,0.1,0.2,0.2,0.1,0.4c-0.4,0.7-1.1,1.1-2.1,1.1c-1.5,0-2.8-1.2-2.8-2.7
					C324.8,210.3,326.1,209.1,327.6,209.1z"/>
			</g>
		</g>
		<path id="XMLID_6688_" fill="#858C8D" d="M297.4,145.8c-12.4,0-22.4,10-22.4,22.4s10,22.4,22.4,22.4c12.4,0,22.4-10,22.4-22.4
			S309.8,145.8,297.4,145.8z"/>
		<path id="XMLID_6683_" fill="#FFFFFF" d="M288.2,181l-5.2-1.4l2.2-1.3l-1-1.8l0,0c-1.9-3.3-2.4-7.2-1.4-11l1.2,0.3l1.2,0.3
			c-0.8,3.1-0.4,6.4,1.2,9.1l1,1.8l2.4-1.4L288.2,181z M294.8,152.2v2.6h1.9v0c3.9,0,7.5,1.5,10.2,4.2l-1.7,1.7
			c-2.3-2.3-5.3-3.5-8.5-3.5h-1.9v2.6l-3.8-3.8L294.8,152.2z M293.4,174.6c-0.9,0-1.7-0.7-1.7-1.7v-8.1c0-0.9,0.7-1.7,1.7-1.7h8.1
			c0.9,0,1.7,0.7,1.7,1.7v8.1c0,0.9-0.7,1.7-1.7,1.7H293.4z M309.2,176.5L309.2,176.5c-1.9,3.4-5,5.7-8.8,6.7l-0.3-1.2h0l0,0
			l-0.3-1.2c3.1-0.8,5.7-2.8,7.3-5.6l1-1.8l-2.2-1.3l5.2-1.4l1.4,5.2l-2.4-1.4L309.2,176.5z"/>
	</g>
</g>
<g id="Misc._Art" display="none">
	<rect id="XMLID_2898_" x="330" y="-533.5" display="inline" fill="#868D8D" width="30" height="763.5"/>
	<rect id="XMLID_2728_" y="-533.5" display="inline" fill="#868D8D" width="30" height="763.5"/>
	<rect id="XMLID_2957_" x="50.9" y="0" display="inline" fill="#868D8D" width="17.3" height="10"/>
</g>
</svg>
