<?xml version="1.0" encoding="utf-8"?>
<!-- Generator: Adobe Illustrator 19.2.1, SVG Export Plug-In . SVG Version: 6.00 Build 0)  -->
<svg version="1.1" xmlns="http://www.w3.org/2000/svg" xmlns:xlink="http://www.w3.org/1999/xlink" x="0px" y="0px"
	 viewBox="0 0 490 256.7" enable-background="new 0 0 490 256.7" xml:space="preserve">
<symbol  id="New_Symbol" viewBox="-14.9 -14.9 29.9 29.9">
	<path fill="#EC4F24" d="M14.9-9.7c0-2.9-2.3-5.2-5.2-5.2H-9.7c-2.9,0-5.2,2.3-5.2,5.2V9.7c0,2.9,2.3,5.2,5.2,5.2H9.7
		c2.9,0,5.2-2.3,5.2-5.2V-9.7z"/>
	<g>
		<path fill="#FFFFFF" d="M-0.1,3.6v1.7h-1.6c-0.1,0.6-0.3,1.1-0.6,1.6L-1.2,8l-1.2,1.2L-3.6,8c-0.5,0.3-1,0.6-1.6,0.7v1.6h-1.7V8.7
			C-7.4,8.6-8,8.4-8.5,8.1l-1.1,1.1L-10.8,8l1.1-1.1c-0.3-0.5-0.5-1-0.7-1.6h-1.6V3.6h1.6C-10.2,3-10,2.4-9.6,2l-1.1-1.1l1.2-1.2
			l1.2,1.2c0.5-0.3,1-0.5,1.6-0.6v-1.7h1.7v1.7c0.6,0.1,1.1,0.3,1.6,0.7l1.2-1.2l1.2,1.2L-2.4,2c0.3,0.5,0.5,1,0.7,1.6H-0.1z
			 M-6,1.8c-1.5,0-2.7,1.2-2.7,2.7S-7.5,7.1-6,7.1s2.7-1.2,2.7-2.7S-4.6,1.8-6,1.8z"/>
		<path fill="#FFFFFF" d="M12.3-4.1v1.9h-1.8c-0.1,0.6-0.4,1.2-0.7,1.7l1.3,1.3L9.7,2.1L8.5,0.8C8,1.2,7.4,1.4,6.7,1.5v1.8H4.9V1.6
			C4.2,1.4,3.6,1.2,3.1,0.8L1.9,2.1L0.5,0.7l1.2-1.2C1.4-1,1.2-1.6,1-2.3h-1.8v-1.9h1.8c0.1-0.6,0.4-1.2,0.7-1.8L0.5-7.2l1.3-1.3
			l1.3,1.3c0.5-0.3,1.1-0.6,1.7-0.7v-1.8h1.9v1.8c0.6,0.1,1.2,0.4,1.7,0.7l1.3-1.3l1.3,1.3L9.8-5.9c0.3,0.5,0.6,1.1,0.7,1.7H12.3z
			 M5.8-6.1c-1.6,0-3,1.3-3,3s1.3,3,3,3s3-1.3,3-3S7.4-6.1,5.8-6.1z"/>
	</g>
</symbol>
<g id="Artwork__x5B_Live_x5D_" display="none">
	<path id="XMLID_3622_" display="inline" fill-rule="evenodd" clip-rule="evenodd" fill="#57BFFF" d="M66.4,144.1h62.8
		c0.7,0,1.3,0.5,1.3,1v14.4c0,0.6-0.6,1-1.3,1H66.4c-0.7,0-1.3-0.5-1.3-1v-14.4C65.1,144.6,65.7,144.1,66.4,144.1L66.4,144.1z
		 M119.2,149.8c-0.3,0-0.6,0.2-0.6,0.5v4c0,0.3,0.3,0.5,0.6,0.5h4.9c0.3,0,0.6-0.2,0.6-0.5v-4c0-0.3-0.3-0.5-0.6-0.5H119.2
		L119.2,149.8z"/>
	<path id="XMLID_3619_" display="inline" fill-rule="evenodd" clip-rule="evenodd" fill="#57BFFF" d="M141.2,144.1h62.8
		c0.7,0,1.3,0.5,1.3,1v14.4c0,0.6-0.6,1-1.3,1h-62.8c-0.7,0-1.3-0.5-1.3-1v-14.4C139.9,144.6,140.5,144.1,141.2,144.1L141.2,144.1z
		 M194,149.8c-0.3,0-0.6,0.2-0.6,0.5v4c0,0.3,0.3,0.5,0.6,0.5h4.9c0.3,0,0.6-0.2,0.6-0.5v-4c0-0.3-0.3-0.5-0.6-0.5H194L194,149.8z"
		/>
	<path id="XMLID_3616_" display="inline" fill-rule="evenodd" clip-rule="evenodd" fill="#57BFFF" d="M216,144.1h62.8
		c0.7,0,1.3,0.5,1.3,1v14.4c0,0.6-0.6,1-1.3,1H216c-0.7,0-1.3-0.5-1.3-1v-14.4C214.8,144.6,215.3,144.1,216,144.1L216,144.1z
		 M268.8,149.8c-0.3,0-0.6,0.2-0.6,0.5v4c0,0.3,0.3,0.5,0.6,0.5h4.9c0.3,0,0.6-0.2,0.6-0.5v-4c0-0.3-0.3-0.5-0.6-0.5H268.8
		L268.8,149.8z"/>
	<path id="XMLID_3613_" display="inline" fill-rule="evenodd" clip-rule="evenodd" fill="#57BFFF" d="M290.8,144.1h62.8
		c0.7,0,1.3,0.5,1.3,1v14.4c0,0.6-0.6,1-1.3,1h-62.8c-0.7,0-1.3-0.5-1.3-1v-14.4C289.6,144.6,290.1,144.1,290.8,144.1L290.8,144.1z
		 M343.6,149.8c-0.3,0-0.6,0.2-0.6,0.5v4c0,0.3,0.3,0.5,0.6,0.5h4.9c0.3,0,0.6-0.2,0.6-0.5v-4c0-0.3-0.3-0.5-0.6-0.5H343.6
		L343.6,149.8z"/>
	<g id="XMLID_3609_" display="inline">
		<path id="XMLID_3610_" fill-rule="evenodd" clip-rule="evenodd" fill="#57BFFF" d="M136.5,42h62.8c0.7,0,1.3,0.5,1.3,1v14.4
			c0,0.6-0.6,1-1.3,1h-62.8c-0.7,0-1.3-0.5-1.3-1V43C135.3,42.5,135.8,42,136.5,42L136.5,42z M189.3,47.7c-0.3,0-0.6,0.2-0.6,0.5v4
			c0,0.3,0.3,0.5,0.6,0.5h4.9c0.3,0,0.6-0.2,0.6-0.5v-4c0-0.3-0.3-0.5-0.6-0.5H189.3L189.3,47.7z"/>
	</g>
	<g id="XMLID_3605_" display="inline">
		<path id="XMLID_3606_" fill-rule="evenodd" clip-rule="evenodd" fill="#57BFFF" d="M286,42c0.7,0,1.3,0.5,1.3,1v14.4
			c0,0.6-0.6,1-1.3,1h-62.8c-0.7,0-1.3-0.5-1.3-1V43c0-0.6,0.6-1,1.3-1H286L286,42z M233.2,47.7h-4.9c-0.3,0-0.6,0.2-0.6,0.5v4
			c0,0.3,0.3,0.5,0.6,0.5h4.9c0.3,0,0.6-0.2,0.6-0.5v-4C233.8,48,233.5,47.7,233.2,47.7L233.2,47.7z"/>
	</g>
	<g id="XMLID_3602_" display="inline">
		<text transform="matrix(1 0 0 1 83.541 58.4274)" fill="#8A9192" font-family="'BrandonGrotesque-Bold'" font-size="16px">Spines</text>
	</g>
	<g id="XMLID_3599_" display="inline">
		<text transform="matrix(1 0 0 1 13.3762 160.8549)" fill="#8A9192" font-family="'BrandonGrotesque-Bold'" font-size="16px">Leaves</text>
	</g>
	<g id="XMLID_3578_" display="inline">
		<path id="XMLID_3598_" fill="#EC4F24" d="M166.3,243.5h-20.9c-4.9,0-8.8-3.9-8.8-8.8v-20.9c0-4.9,3.9-8.8,8.8-8.8h20.9
			c4.9,0,8.8,3.9,8.8,8.8v20.9C175.1,239.6,171.2,243.5,166.3,243.5z"/>
		
			<ellipse id="XMLID_3597_" transform="matrix(0.7071 -0.7071 0.7071 0.7071 -112.817 175.761)" fill="#FFFFFF" cx="155.8" cy="224.1" rx="6.6" ry="6.6"/>
		
			<ellipse id="XMLID_3596_" transform="matrix(0.7071 -0.7071 0.7071 0.7071 -112.817 175.761)" fill="#EC4F24" cx="155.8" cy="224.1" rx="4.6" ry="4.6"/>
		
			<rect id="XMLID_3595_" x="148.5" y="226.3" transform="matrix(0.7071 0.7071 -0.7071 0.7071 206.5103 -38.3647)" fill="#FFFFFF" width="2.1" height="7.6"/>
		<g id="XMLID_3591_">
			<circle id="XMLID_3594_" fill="#FFFFFF" cx="153.1" cy="224.1" r="1"/>
			<circle id="XMLID_3593_" fill="#FFFFFF" cx="155.7" cy="224.1" r="1"/>
			<circle id="XMLID_3592_" fill="#FFFFFF" cx="158.3" cy="224.1" r="1"/>
		</g>
		<g id="XMLID_3588_">
			<polygon id="XMLID_3590_" fill="#FFFFFF" points="169.4,227.5 169.4,221.4 172.4,224.5 			"/>
			<rect id="XMLID_3589_" x="164.2" y="223.4" fill="#FFFFFF" width="5.5" height="2.2"/>
		</g>
		<g id="XMLID_3585_">
			<polygon id="XMLID_3587_" fill="#FFFFFF" points="167.7,216.2 163.4,211.9 167.7,211.9 			"/>
			
				<rect id="XMLID_3586_" x="161" y="214.7" transform="matrix(0.7071 -0.7071 0.7071 0.7071 -104.6105 178.9882)" fill="#FFFFFF" width="5.5" height="2.2"/>
		</g>
		<g id="XMLID_3582_">
			<polygon id="XMLID_3584_" fill="#FFFFFF" points="163.3,236.5 167.5,232.2 167.5,236.5 			"/>
			
				<rect id="XMLID_3583_" x="160.9" y="231.5" transform="matrix(0.7071 0.7071 -0.7071 0.7071 212.4026 -47.5817)" fill="#FFFFFF" width="5.5" height="2.2"/>
		</g>
		<g id="XMLID_3579_">
			<polygon id="XMLID_3581_" fill="#FFFFFF" points="144.5,227 144.5,220.9 147.5,224 			"/>
			<rect id="XMLID_3580_" x="139.3" y="222.9" fill="#FFFFFF" width="5.5" height="2.2"/>
		</g>
	</g>
	<g id="XMLID_3557_" display="inline">
		<path id="XMLID_3577_" fill="#EC4F24" d="M220.8,243.5h-20.9c-4.9,0-8.8-3.9-8.8-8.8v-20.9c0-4.9,3.9-8.8,8.8-8.8h20.9
			c4.9,0,8.8,3.9,8.8,8.8v20.9C229.6,239.6,225.6,243.5,220.8,243.5z"/>
		
			<ellipse id="XMLID_3576_" transform="matrix(0.7071 -0.7071 0.7071 0.7071 -96.8701 214.2604)" fill="#FFFFFF" cx="210.2" cy="224.1" rx="6.6" ry="6.6"/>
		
			<ellipse id="XMLID_3575_" transform="matrix(0.7071 -0.7071 0.7071 0.7071 -96.8701 214.2604)" fill="#EC4F24" cx="210.2" cy="224.1" rx="4.6" ry="4.6"/>
		
			<rect id="XMLID_3574_" x="203" y="226.3" transform="matrix(0.7071 0.7071 -0.7071 0.7071 222.4573 -76.864)" fill="#FFFFFF" width="2.1" height="7.6"/>
		<g id="XMLID_3570_">
			<circle id="XMLID_3573_" fill="#FFFFFF" cx="207.5" cy="224.1" r="1"/>
			<circle id="XMLID_3572_" fill="#FFFFFF" cx="210.2" cy="224.1" r="1"/>
			<circle id="XMLID_3571_" fill="#FFFFFF" cx="212.8" cy="224.1" r="1"/>
		</g>
		<g id="XMLID_3567_">
			<polygon id="XMLID_3569_" fill="#FFFFFF" points="223.9,227.5 223.9,221.4 226.9,224.5 			"/>
			<rect id="XMLID_3568_" x="218.6" y="223.4" fill="#FFFFFF" width="5.5" height="2.2"/>
		</g>
		<g id="XMLID_3564_">
			<polygon id="XMLID_3566_" fill="#FFFFFF" points="222.1,216.2 217.8,211.9 222.1,211.9 			"/>
			
				<rect id="XMLID_3565_" x="215.5" y="214.7" transform="matrix(0.7071 -0.7071 0.7071 0.7071 -88.6636 217.4876)" fill="#FFFFFF" width="5.5" height="2.2"/>
		</g>
		<g id="XMLID_3561_">
			<polygon id="XMLID_3563_" fill="#FFFFFF" points="217.7,236.5 222,232.2 222,236.5 			"/>
			
				<rect id="XMLID_3562_" x="215.3" y="231.5" transform="matrix(0.7071 0.7071 -0.7071 0.7071 228.3496 -86.081)" fill="#FFFFFF" width="5.5" height="2.2"/>
		</g>
		<g id="XMLID_3558_">
			<polygon id="XMLID_3560_" fill="#FFFFFF" points="198.9,227 198.9,220.9 202,224 			"/>
			<rect id="XMLID_3559_" x="193.7" y="222.9" fill="#FFFFFF" width="5.5" height="2.2"/>
		</g>
	</g>
	<g id="XMLID_3536_" display="inline">
		<path id="XMLID_3556_" fill="#EC4F24" d="M275.2,243.5h-20.9c-4.9,0-8.8-3.9-8.8-8.8v-20.9c0-4.9,3.9-8.8,8.8-8.8h20.9
			c4.9,0,8.8,3.9,8.8,8.8v20.9C284,239.6,280.1,243.5,275.2,243.5z"/>
		
			<ellipse id="XMLID_3555_" transform="matrix(0.7071 -0.7071 0.7071 0.7071 -80.9231 252.7597)" fill="#FFFFFF" cx="264.6" cy="224.1" rx="6.6" ry="6.6"/>
		
			<ellipse id="XMLID_3554_" transform="matrix(0.7071 -0.7071 0.7071 0.7071 -80.9231 252.7597)" fill="#EC4F24" cx="264.6" cy="224.1" rx="4.6" ry="4.6"/>
		
			<rect id="XMLID_3553_" x="257.4" y="226.3" transform="matrix(0.7071 0.7071 -0.7071 0.7071 238.4043 -115.3634)" fill="#FFFFFF" width="2.1" height="7.6"/>
		<g id="XMLID_3549_">
			<circle id="XMLID_3552_" fill="#FFFFFF" cx="262" cy="224.1" r="1"/>
			<circle id="XMLID_3551_" fill="#FFFFFF" cx="264.6" cy="224.1" r="1"/>
			<circle id="XMLID_3550_" fill="#FFFFFF" cx="267.2" cy="224.1" r="1"/>
		</g>
		<g id="XMLID_3546_">
			<polygon id="XMLID_3548_" fill="#FFFFFF" points="278.3,227.5 278.3,221.4 281.3,224.5 			"/>
			<rect id="XMLID_3547_" x="273.1" y="223.4" fill="#FFFFFF" width="5.5" height="2.2"/>
		</g>
		<g id="XMLID_3543_">
			<polygon id="XMLID_3545_" fill="#FFFFFF" points="276.6,216.2 272.3,211.9 276.6,211.9 			"/>
			
				<rect id="XMLID_3544_" x="269.9" y="214.7" transform="matrix(0.7071 -0.7071 0.7071 0.7071 -72.7166 255.9869)" fill="#FFFFFF" width="5.5" height="2.2"/>
		</g>
		<g id="XMLID_3540_">
			<polygon id="XMLID_3542_" fill="#FFFFFF" points="272.1,236.5 276.4,232.2 276.4,236.5 			"/>
			
				<rect id="XMLID_3541_" x="269.8" y="231.5" transform="matrix(0.7071 0.7071 -0.7071 0.7071 244.2965 -124.5804)" fill="#FFFFFF" width="5.5" height="2.2"/>
		</g>
		<g id="XMLID_3537_">
			<polygon id="XMLID_3539_" fill="#FFFFFF" points="253.4,227 253.4,220.9 256.4,224 			"/>
			<rect id="XMLID_3538_" x="248.1" y="222.9" fill="#FFFFFF" width="5.5" height="2.2"/>
		</g>
	</g>
	
		<line id="XMLID_3535_" display="inline" fill-rule="evenodd" clip-rule="evenodd" fill="none" stroke="#8A9192" stroke-width="1.0439" stroke-miterlimit="10" x1="263.5" y1="61.2" x2="235.3" y2="139.6"/>
	
		<line id="XMLID_3534_" display="inline" fill-rule="evenodd" clip-rule="evenodd" fill="none" stroke="#8A9192" stroke-width="1.0439" stroke-miterlimit="10" x1="263.5" y1="61.2" x2="168.6" y2="139.6"/>
	
		<line id="XMLID_3533_" display="inline" fill-rule="evenodd" clip-rule="evenodd" fill="none" stroke="#8A9192" stroke-width="1.0439" stroke-miterlimit="10" x1="263.5" y1="61.2" x2="101.7" y2="140.5"/>
	
		<line id="XMLID_3532_" display="inline" fill-rule="evenodd" clip-rule="evenodd" fill="none" stroke="#8A9192" stroke-width="1.0439" stroke-miterlimit="10" x1="263.5" y1="61.2" x2="326.2" y2="139.6"/>
	
		<line id="XMLID_3531_" display="inline" fill-rule="evenodd" clip-rule="evenodd" fill="none" stroke="#8A9192" stroke-width="1.0439" stroke-miterlimit="10" x1="156.4" y1="61.2" x2="183.7" y2="139.6"/>
	
		<line id="XMLID_3530_" display="inline" fill-rule="evenodd" clip-rule="evenodd" fill="none" stroke="#8A9192" stroke-width="1.0439" stroke-miterlimit="10" x1="156.4" y1="61.2" x2="250.3" y2="139.6"/>
	
		<line id="XMLID_3529_" display="inline" fill-rule="evenodd" clip-rule="evenodd" fill="none" stroke="#8A9192" stroke-width="1.0439" stroke-miterlimit="10" x1="156.4" y1="61.2" x2="317.3" y2="140.5"/>
	
		<line id="XMLID_3528_" display="inline" fill-rule="evenodd" clip-rule="evenodd" fill="none" stroke="#8A9192" stroke-width="1.0439" stroke-miterlimit="10" x1="156.4" y1="61.2" x2="92.8" y2="139.6"/>
	
		<line id="XMLID_3527_" display="inline" fill="none" stroke="#231F20" stroke-width="1.6746" stroke-miterlimit="10" stroke-dasharray="1.6746,5.0238" x1="301" y1="50.4" x2="376.5" y2="50.4"/>
	<path id="XMLID_3634_" display="inline" fill="none" stroke="#8A9192" stroke-width="2" stroke-miterlimit="10" d="M426,182.9v28.7
		c0,7-5.7,12.7-12.7,12.7H310.9"/>
	
		<line id="XMLID_3518_" display="inline" fill="none" stroke="#8A9192" stroke-width="2" stroke-miterlimit="10" x1="426" y1="112.5" x2="426" y2="123.5"/>
	
		<line id="XMLID_3526_" display="inline" fill="none" stroke="#8A9192" stroke-width="2" stroke-miterlimit="10" x1="426" y1="65.4" x2="426" y2="81.5"/>
	<g id="XMLID_3522_" display="inline">
		<text transform="matrix(1 0 0 1 396.9701 102.2657)" fill="#8A9192" font-family="'BrandonGrotesque-Bold'" font-size="16px">Rest API</text>
	</g>
	<g id="XMLID_1352_" display="inline">
		<path id="XMLID_3517_" fill="#57BFFF" stroke="#FFFFFF" stroke-width="2.5377" stroke-miterlimit="10" d="M455.8,61.8h-60
			c-3.3,0-5.9-2.7-5.9-5.9v-13c0-3.3,2.7-5.9,5.9-5.9h60c3.3,0,5.9,2.7,5.9,5.9v13C461.8,59.1,459.1,61.8,455.8,61.8z"/>
		<g id="XMLID_1353_">
			<path id="XMLID_3516_" fill-rule="evenodd" clip-rule="evenodd" fill="#FFFFFF" d="M411.4,45.7h28.2c0.3,0,0.6,0.2,0.6,0.5v6.5
				c0,0.3-0.3,0.5-0.6,0.5h-28.2c-0.3,0-0.6-0.2-0.6-0.5v-6.5C410.9,45.9,411.1,45.7,411.4,45.7L411.4,45.7z"/>
			<path id="XMLID_3515_" fill-rule="evenodd" clip-rule="evenodd" fill="#57BFFF" d="M412.7,47c-0.1,0-0.2,0.1-0.2,0.2v1.4
				c0,0.1,0.1,0.2,0.2,0.2h1.8c0.1,0,0.2-0.1,0.2-0.2v-1.4c0-0.1-0.1-0.2-0.2-0.2H412.7L412.7,47z"/>
			<path id="XMLID_3514_" fill-rule="evenodd" clip-rule="evenodd" fill="#57BFFF" d="M416.2,47c-0.1,0-0.2,0.1-0.2,0.2v1.4
				c0,0.1,0.1,0.2,0.2,0.2h1.8c0.1,0,0.2-0.1,0.2-0.2v-1.4c0-0.1-0.1-0.2-0.2-0.2H416.2L416.2,47z"/>
			<path id="XMLID_3195_" fill-rule="evenodd" clip-rule="evenodd" fill="#57BFFF" d="M419.7,47c-0.1,0-0.2,0.1-0.2,0.2v1.4
				c0,0.1,0.1,0.2,0.2,0.2h1.8c0.1,0,0.2-0.1,0.2-0.2v-1.4c0-0.1-0.1-0.2-0.2-0.2H419.7L419.7,47z"/>
			<path id="XMLID_3190_" fill-rule="evenodd" clip-rule="evenodd" fill="#57BFFF" d="M423.3,47c-0.1,0-0.2,0.1-0.2,0.2v1.4
				c0,0.1,0.1,0.2,0.2,0.2h1.8c0.1,0,0.2-0.1,0.2-0.2v-1.4c0-0.1-0.1-0.2-0.2-0.2H423.3L423.3,47z"/>
			<path id="XMLID_1812_" fill-rule="evenodd" clip-rule="evenodd" fill="#57BFFF" d="M426.8,47c-0.1,0-0.2,0.1-0.2,0.2v1.4
				c0,0.1,0.1,0.2,0.2,0.2h1.8c0.1,0,0.2-0.1,0.2-0.2v-1.4c0-0.1-0.1-0.2-0.2-0.2H426.8L426.8,47z"/>
			<path id="XMLID_1721_" fill-rule="evenodd" clip-rule="evenodd" fill="#57BFFF" d="M430.3,47c-0.1,0-0.2,0.1-0.2,0.2v1.4
				c0,0.1,0.1,0.2,0.2,0.2h1.8c0.1,0,0.2-0.1,0.2-0.2v-1.4c0-0.1-0.1-0.2-0.2-0.2H430.3L430.3,47z"/>
			<path id="XMLID_1714_" fill-rule="evenodd" clip-rule="evenodd" fill="#57BFFF" d="M412.7,49.8c-0.1,0-0.2,0.1-0.2,0.2v1.4
				c0,0.1,0.1,0.2,0.2,0.2h1.8c0.1,0,0.2-0.1,0.2-0.2V50c0-0.1-0.1-0.2-0.2-0.2H412.7L412.7,49.8z"/>
			<path id="XMLID_1713_" fill-rule="evenodd" clip-rule="evenodd" fill="#57BFFF" d="M416.2,49.8c-0.1,0-0.2,0.1-0.2,0.2v1.4
				c0,0.1,0.1,0.2,0.2,0.2h1.8c0.1,0,0.2-0.1,0.2-0.2V50c0-0.1-0.1-0.2-0.2-0.2H416.2L416.2,49.8z"/>
			<path id="XMLID_1708_" fill-rule="evenodd" clip-rule="evenodd" fill="#57BFFF" d="M419.7,49.8c-0.1,0-0.2,0.1-0.2,0.2v1.4
				c0,0.1,0.1,0.2,0.2,0.2h1.8c0.1,0,0.2-0.1,0.2-0.2V50c0-0.1-0.1-0.2-0.2-0.2H419.7L419.7,49.8z"/>
			<path id="XMLID_1698_" fill-rule="evenodd" clip-rule="evenodd" fill="#57BFFF" d="M423.3,49.8c-0.1,0-0.2,0.1-0.2,0.2v1.4
				c0,0.1,0.1,0.2,0.2,0.2h1.8c0.1,0,0.2-0.1,0.2-0.2V50c0-0.1-0.1-0.2-0.2-0.2H423.3L423.3,49.8z"/>
			<path id="XMLID_1649_" fill-rule="evenodd" clip-rule="evenodd" fill="#57BFFF" d="M426.8,49.8c-0.1,0-0.2,0.1-0.2,0.2v1.4
				c0,0.1,0.1,0.2,0.2,0.2h1.8c0.1,0,0.2-0.1,0.2-0.2V50c0-0.1-0.1-0.2-0.2-0.2H426.8L426.8,49.8z"/>
			<path id="XMLID_1648_" fill-rule="evenodd" clip-rule="evenodd" fill="#57BFFF" d="M430.3,49.8c-0.1,0-0.2,0.1-0.2,0.2v1.4
				c0,0.1,0.1,0.2,0.2,0.2h1.8c0.1,0,0.2-0.1,0.2-0.2V50c0-0.1-0.1-0.2-0.2-0.2H430.3L430.3,49.8z"/>
			<circle id="XMLID_1647_" fill-rule="evenodd" clip-rule="evenodd" fill="#57BFFF" cx="437.3" cy="48.2" r="0.8"/>
			<circle id="XMLID_1382_" fill-rule="evenodd" clip-rule="evenodd" fill="#57BFFF" cx="437.3" cy="50.6" r="0.8"/>
		</g>
	</g>
	<g id="XMLID_1210_" display="inline">
		<text transform="matrix(1 0 0 1 374.8892 26.7315)" fill="#8A9192" font-family="'BrandonGrotesque-Bold'" font-size="16px">SDN Controller</text>
	</g>
	
		<use xlink:href="#New_Symbol"  width="29.9" height="29.9" id="XMLID_3663_" x="-14.9" y="-14.9" transform="matrix(1.6741 0 0 -1.6741 425.8408 152.9431)" display="inline" overflow="visible"/>
</g>
<g id="Artwork__x5B_Outlined_x5D_">
	<path id="XMLID_6679_" fill-rule="evenodd" clip-rule="evenodd" fill="#57BFFF" d="M66.4,144.1h62.8c0.7,0,1.3,0.5,1.3,1v14.4
		c0,0.6-0.6,1-1.3,1H66.4c-0.7,0-1.3-0.5-1.3-1v-14.4C65.1,144.6,65.7,144.1,66.4,144.1L66.4,144.1z M119.2,149.8
		c-0.3,0-0.6,0.2-0.6,0.5v4c0,0.3,0.3,0.5,0.6,0.5h4.9c0.3,0,0.6-0.2,0.6-0.5v-4c0-0.3-0.3-0.5-0.6-0.5H119.2L119.2,149.8z"/>
	<path id="XMLID_6676_" fill-rule="evenodd" clip-rule="evenodd" fill="#57BFFF" d="M141.2,144.1h62.8c0.7,0,1.3,0.5,1.3,1v14.4
		c0,0.6-0.6,1-1.3,1h-62.8c-0.7,0-1.3-0.5-1.3-1v-14.4C139.9,144.6,140.5,144.1,141.2,144.1L141.2,144.1z M194,149.8
		c-0.3,0-0.6,0.2-0.6,0.5v4c0,0.3,0.3,0.5,0.6,0.5h4.9c0.3,0,0.6-0.2,0.6-0.5v-4c0-0.3-0.3-0.5-0.6-0.5H194L194,149.8z"/>
	<path id="XMLID_6673_" fill-rule="evenodd" clip-rule="evenodd" fill="#57BFFF" d="M216,144.1h62.8c0.7,0,1.3,0.5,1.3,1v14.4
		c0,0.6-0.6,1-1.3,1H216c-0.7,0-1.3-0.5-1.3-1v-14.4C214.8,144.6,215.3,144.1,216,144.1L216,144.1z M268.8,149.8
		c-0.3,0-0.6,0.2-0.6,0.5v4c0,0.3,0.3,0.5,0.6,0.5h4.9c0.3,0,0.6-0.2,0.6-0.5v-4c0-0.3-0.3-0.5-0.6-0.5H268.8L268.8,149.8z"/>
	<path id="XMLID_6670_" fill-rule="evenodd" clip-rule="evenodd" fill="#57BFFF" d="M290.8,144.1h62.8c0.7,0,1.3,0.5,1.3,1v14.4
		c0,0.6-0.6,1-1.3,1h-62.8c-0.7,0-1.3-0.5-1.3-1v-14.4C289.6,144.6,290.1,144.1,290.8,144.1L290.8,144.1z M343.6,149.8
		c-0.3,0-0.6,0.2-0.6,0.5v4c0,0.3,0.3,0.5,0.6,0.5h4.9c0.3,0,0.6-0.2,0.6-0.5v-4c0-0.3-0.3-0.5-0.6-0.5H343.6L343.6,149.8z"/>
	<g id="XMLID_6666_">
		<path id="XMLID_6667_" fill-rule="evenodd" clip-rule="evenodd" fill="#57BFFF" d="M136.5,42h62.8c0.7,0,1.3,0.5,1.3,1v14.4
			c0,0.6-0.6,1-1.3,1h-62.8c-0.7,0-1.3-0.5-1.3-1V43C135.3,42.5,135.8,42,136.5,42L136.5,42z M189.3,47.7c-0.3,0-0.6,0.2-0.6,0.5v4
			c0,0.3,0.3,0.5,0.6,0.5h4.9c0.3,0,0.6-0.2,0.6-0.5v-4c0-0.3-0.3-0.5-0.6-0.5H189.3L189.3,47.7z"/>
	</g>
	<g id="XMLID_6662_">
		<path id="XMLID_6663_" fill-rule="evenodd" clip-rule="evenodd" fill="#57BFFF" d="M286,42c0.7,0,1.3,0.5,1.3,1v14.4
			c0,0.6-0.6,1-1.3,1h-62.8c-0.7,0-1.3-0.5-1.3-1V43c0-0.6,0.6-1,1.3-1H286L286,42z M233.2,47.7h-4.9c-0.3,0-0.6,0.2-0.6,0.5v4
			c0,0.3,0.3,0.5,0.6,0.5h4.9c0.3,0,0.6-0.2,0.6-0.5v-4C233.8,48,233.5,47.7,233.2,47.7L233.2,47.7z"/>
	</g>
	<g id="XMLID_10745_">
		<g id="XMLID_15308_">
			<path id="XMLID_15486_" fill="#8A9192" d="M84.3,56.9l0.6-1c0.1-0.2,0.4-0.2,0.5-0.1c0.1,0,1.4,1,2.4,1c0.8,0,1.5-0.5,1.5-1.2
				c0-0.8-0.7-1.4-2-1.9c-1.5-0.6-3-1.6-3-3.5c0-1.4,1.1-3.1,3.6-3.1c1.6,0,2.9,0.8,3.2,1.1c0.2,0.1,0.2,0.4,0.1,0.5l-0.6,0.9
				c-0.1,0.2-0.4,0.3-0.6,0.2c-0.1-0.1-1.3-0.9-2.2-0.9c-0.9,0-1.4,0.6-1.4,1.1c0,0.8,0.6,1.3,1.9,1.8c1.6,0.6,3.3,1.6,3.3,3.6
				c0,1.6-1.4,3.2-3.7,3.2c-2,0-3.2-0.9-3.5-1.2C84.3,57.2,84.2,57.1,84.3,56.9z"/>
			<path id="XMLID_15483_" fill="#8A9192" d="M94.9,62.9c0,0.2-0.1,0.3-0.4,0.3h-1.3c-0.2,0-0.3-0.1-0.3-0.3V52.3
				c0-0.2,0.1-0.3,0.3-0.3h0.6c0.1,0,0.2,0.1,0.3,0.2l0.2,0.5c0.2-0.3,1-0.9,2.1-0.9c1.8,0,3.1,1.5,3.1,3.4c0,1.9-1.4,3.4-3.2,3.4
				c-0.6,0-1.2-0.2-1.4-0.4V62.9z M96.1,56.9c0.9,0,1.6-0.7,1.6-1.6s-0.6-1.6-1.5-1.6c-0.8,0-1.2,0.6-1.3,1v1.9
				C94.9,56.5,95.3,56.9,96.1,56.9z"/>
			<path id="XMLID_15479_" fill="#8A9192" d="M100.8,48.6c0-0.6,0.5-1.1,1.1-1.1c0.6,0,1.1,0.5,1.1,1.1s-0.5,1.1-1.1,1.1
				C101.3,49.8,100.8,49.3,100.8,48.6z M101,52.3c0-0.2,0.1-0.3,0.3-0.3h1.3c0.2,0,0.3,0.1,0.3,0.3v5.8c0,0.2-0.1,0.3-0.3,0.3h-1.3
				c-0.2,0-0.3-0.1-0.3-0.3V52.3z"/>
			<path id="XMLID_15477_" fill="#8A9192" d="M104.8,52.3c0-0.2,0.1-0.3,0.3-0.3h0.6c0.1,0,0.2,0.1,0.3,0.2l0.2,0.6
				c0.2-0.3,1-0.9,2.3-0.9c2,0,2.8,1.5,2.8,3.2v3.1c0,0.2-0.1,0.3-0.3,0.3h-1.3c-0.2,0-0.3-0.1-0.3-0.3V55c0-0.8-0.4-1.4-1.2-1.4
				c-0.8,0-1.3,0.6-1.5,1v3.5c0,0.2-0.1,0.3-0.4,0.3h-1.2c-0.2,0-0.3-0.1-0.3-0.3V52.3z"/>
			<path id="XMLID_15473_" fill="#8A9192" d="M115.9,51.9c1.6,0,3,1.2,3,3c0,0.1,0,0.3,0,0.4c0,0.2-0.2,0.3-0.3,0.3h-4.1
				c0,0.7,0.6,1.4,1.5,1.4c0.5,0,1-0.2,1.2-0.4c0.2-0.1,0.3-0.1,0.4,0l0.7,0.8c0.1,0.1,0.1,0.3,0,0.4c-0.5,0.5-1.3,0.9-2.4,0.9
				c-1.9,0-3.3-1.5-3.3-3.4C112.7,53.4,114,51.9,115.9,51.9z M117,54.4c0-0.6-0.6-1.1-1.2-1.1c-0.6,0-1.2,0.5-1.2,1.1H117z"/>
			<path id="XMLID_15309_" fill="#8A9192" d="M119.9,57.7l0.4-0.9c0.1-0.2,0.2-0.2,0.4-0.1c0,0,0.7,0.4,1.5,0.4
				c0.3,0,0.5-0.1,0.5-0.4c0-0.3-0.2-0.5-1.1-0.8c-1.2-0.5-1.8-1.1-1.8-2.1s0.7-1.9,2.4-1.9c0.9,0,1.6,0.3,2,0.5
				c0.1,0.1,0.2,0.3,0.1,0.4l-0.4,0.8c-0.1,0.1-0.3,0.2-0.4,0.1c0,0-0.7-0.3-1.3-0.3c-0.4,0-0.5,0.2-0.5,0.4c0,0.3,0.3,0.4,0.9,0.6
				c1.2,0.5,2.2,1,2.2,2.3c0,1.1-0.9,2-2.5,2c-1.1,0-1.8-0.3-2.1-0.6C119.9,57.9,119.8,57.8,119.9,57.7z"/>
		</g>
	</g>
	<g id="XMLID_10729_">
		<g id="XMLID_9611_">
			<path id="XMLID_15305_" fill="#8A9192" d="M14.8,150c0-0.2,0.1-0.3,0.3-0.3h1.5c0.2,0,0.3,0.1,0.3,0.3v9H21
				c0.2,0,0.3,0.1,0.3,0.3v1.3c0,0.2-0.1,0.3-0.3,0.3h-5.9c-0.2,0-0.3-0.1-0.3-0.3V150z"/>
			<path id="XMLID_15221_" fill="#8A9192" d="M25.2,154.3c1.6,0,3,1.2,3,3c0,0.1,0,0.3,0,0.4c0,0.2-0.2,0.3-0.3,0.3h-4.1
				c0,0.7,0.6,1.4,1.5,1.4c0.5,0,1-0.2,1.2-0.4c0.2-0.1,0.3-0.1,0.4,0l0.7,0.8c0.1,0.1,0.1,0.3,0,0.4c-0.5,0.5-1.3,0.9-2.4,0.9
				c-1.9,0-3.3-1.5-3.3-3.4C21.9,155.8,23.3,154.3,25.2,154.3z M26.3,156.9c0-0.6-0.6-1.1-1.2-1.1c-0.6,0-1.2,0.5-1.2,1.1H26.3z"/>
			<path id="XMLID_15217_" fill="#8A9192" d="M31.6,156.8c0.6,0,1.2,0.2,1.2,0.2c0-0.8-0.2-1.1-0.8-1.1c-0.6,0-1.4,0.1-1.8,0.2
				c-0.2,0.1-0.3-0.1-0.4-0.3l-0.1-0.8c0-0.2,0.1-0.4,0.2-0.4c0.1,0,1.2-0.3,2.2-0.3c2,0,2.5,1,2.5,2.8v3.5c0,0.2-0.1,0.3-0.3,0.3
				h-0.6c-0.1,0-0.2,0-0.3-0.2l-0.2-0.4c-0.4,0.3-1,0.8-2,0.8c-1.3,0-2.2-0.8-2.2-2.2C29.1,157.7,30,156.8,31.6,156.8z M31.7,159.7
				c0.5,0,1-0.4,1.1-0.6v-0.9c0,0-0.4-0.2-0.9-0.2c-0.6,0-1,0.4-1,0.9C30.8,159.3,31.2,159.7,31.7,159.7z"/>
			<path id="XMLID_15215_" fill="#8A9192" d="M35.5,154.8c-0.1-0.2,0-0.4,0.2-0.4h1.4c0.2,0,0.2,0.1,0.3,0.2l1.3,3c0,0,0,0,0,0
				l1.4-3c0.1-0.2,0.2-0.2,0.4-0.2h1.2c0.2,0,0.3,0.2,0.2,0.4l-2.9,6c0,0.1-0.1,0.2-0.3,0.2h-0.1c-0.1,0-0.2-0.1-0.3-0.2L35.5,154.8
				z"/>
			<path id="XMLID_15212_" fill="#8A9192" d="M45.8,154.3c1.6,0,3,1.2,3,3c0,0.1,0,0.3,0,0.4c0,0.2-0.2,0.3-0.3,0.3h-4.1
				c0,0.7,0.6,1.4,1.5,1.4c0.5,0,1-0.2,1.2-0.4c0.2-0.1,0.3-0.1,0.4,0l0.7,0.8c0.1,0.1,0.1,0.3,0,0.4c-0.5,0.5-1.3,0.9-2.4,0.9
				c-1.9,0-3.3-1.5-3.3-3.4C42.6,155.8,43.9,154.3,45.8,154.3z M47,156.9c0-0.6-0.6-1.1-1.2-1.1c-0.6,0-1.2,0.5-1.2,1.1H47z"/>
			<path id="XMLID_9705_" fill="#8A9192" d="M49.8,160.1l0.4-0.9c0.1-0.2,0.2-0.2,0.4-0.1c0,0,0.7,0.4,1.5,0.4
				c0.3,0,0.5-0.1,0.5-0.4c0-0.3-0.2-0.5-1.1-0.8c-1.2-0.5-1.8-1.1-1.8-2.1s0.7-1.9,2.4-1.9c0.9,0,1.6,0.3,2,0.5
				c0.1,0.1,0.2,0.3,0.1,0.4l-0.4,0.8c-0.1,0.1-0.3,0.2-0.4,0.1c0,0-0.7-0.3-1.3-0.3c-0.4,0-0.5,0.2-0.5,0.4c0,0.3,0.3,0.4,0.9,0.6
				c1.2,0.5,2.2,1,2.2,2.3c0,1.1-0.9,2-2.5,2c-1.1,0-1.8-0.3-2.1-0.6C49.8,160.3,49.8,160.2,49.8,160.1z"/>
		</g>
	</g>
	<g id="XMLID_6635_">
		<path id="XMLID_6655_" fill="#EC4F24" d="M166.3,243.5h-20.9c-4.9,0-8.8-3.9-8.8-8.8v-20.9c0-4.9,3.9-8.8,8.8-8.8h20.9
			c4.9,0,8.8,3.9,8.8,8.8v20.9C175.1,239.6,171.2,243.5,166.3,243.5z"/>
		
			<ellipse id="XMLID_6654_" transform="matrix(0.7071 -0.7071 0.7071 0.7071 -112.817 175.761)" fill="#FFFFFF" cx="155.8" cy="224.1" rx="6.6" ry="6.6"/>
		
			<ellipse id="XMLID_6653_" transform="matrix(0.7071 -0.7071 0.7071 0.7071 -112.817 175.761)" fill="#EC4F24" cx="155.8" cy="224.1" rx="4.6" ry="4.6"/>
		
			<rect id="XMLID_6652_" x="148.5" y="226.3" transform="matrix(0.7071 0.7071 -0.7071 0.7071 206.5103 -38.3647)" fill="#FFFFFF" width="2.1" height="7.6"/>
		<g id="XMLID_6648_">
			<circle id="XMLID_6651_" fill="#FFFFFF" cx="153.1" cy="224.1" r="1"/>
			<circle id="XMLID_6650_" fill="#FFFFFF" cx="155.7" cy="224.1" r="1"/>
			<circle id="XMLID_6649_" fill="#FFFFFF" cx="158.3" cy="224.1" r="1"/>
		</g>
		<g id="XMLID_6645_">
			<polygon id="XMLID_6647_" fill="#FFFFFF" points="169.4,227.5 169.4,221.4 172.4,224.5 			"/>
			<rect id="XMLID_6646_" x="164.2" y="223.4" fill="#FFFFFF" width="5.5" height="2.2"/>
		</g>
		<g id="XMLID_6642_">
			<polygon id="XMLID_6644_" fill="#FFFFFF" points="167.7,216.2 163.4,211.9 167.7,211.9 			"/>
			
				<rect id="XMLID_6643_" x="161" y="214.7" transform="matrix(0.7071 -0.7071 0.7071 0.7071 -104.6105 178.9882)" fill="#FFFFFF" width="5.5" height="2.2"/>
		</g>
		<g id="XMLID_6639_">
			<polygon id="XMLID_6641_" fill="#FFFFFF" points="163.3,236.5 167.5,232.2 167.5,236.5 			"/>
			
				<rect id="XMLID_6640_" x="160.9" y="231.5" transform="matrix(0.7071 0.7071 -0.7071 0.7071 212.4026 -47.5817)" fill="#FFFFFF" width="5.5" height="2.2"/>
		</g>
		<g id="XMLID_6636_">
			<polygon id="XMLID_6638_" fill="#FFFFFF" points="144.5,227 144.5,220.9 147.5,224 			"/>
			<rect id="XMLID_6637_" x="139.3" y="222.9" fill="#FFFFFF" width="5.5" height="2.2"/>
		</g>
	</g>
	<g id="XMLID_6614_">
		<path id="XMLID_6634_" fill="#EC4F24" d="M220.8,243.5h-20.9c-4.9,0-8.8-3.9-8.8-8.8v-20.9c0-4.9,3.9-8.8,8.8-8.8h20.9
			c4.9,0,8.8,3.9,8.8,8.8v20.9C229.6,239.6,225.6,243.5,220.8,243.5z"/>
		
			<ellipse id="XMLID_6633_" transform="matrix(0.7071 -0.7071 0.7071 0.7071 -96.8701 214.2604)" fill="#FFFFFF" cx="210.2" cy="224.1" rx="6.6" ry="6.6"/>
		
			<ellipse id="XMLID_6632_" transform="matrix(0.7071 -0.7071 0.7071 0.7071 -96.8701 214.2604)" fill="#EC4F24" cx="210.2" cy="224.1" rx="4.6" ry="4.6"/>
		
			<rect id="XMLID_6631_" x="203" y="226.3" transform="matrix(0.7071 0.7071 -0.7071 0.7071 222.4573 -76.864)" fill="#FFFFFF" width="2.1" height="7.6"/>
		<g id="XMLID_6627_">
			<circle id="XMLID_6630_" fill="#FFFFFF" cx="207.5" cy="224.1" r="1"/>
			<circle id="XMLID_6629_" fill="#FFFFFF" cx="210.2" cy="224.1" r="1"/>
			<circle id="XMLID_6628_" fill="#FFFFFF" cx="212.8" cy="224.1" r="1"/>
		</g>
		<g id="XMLID_6624_">
			<polygon id="XMLID_6626_" fill="#FFFFFF" points="223.9,227.5 223.9,221.4 226.9,224.5 			"/>
			<rect id="XMLID_6625_" x="218.6" y="223.4" fill="#FFFFFF" width="5.5" height="2.2"/>
		</g>
		<g id="XMLID_6621_">
			<polygon id="XMLID_6623_" fill="#FFFFFF" points="222.1,216.2 217.8,211.9 222.1,211.9 			"/>
			
				<rect id="XMLID_6622_" x="215.5" y="214.7" transform="matrix(0.7071 -0.7071 0.7071 0.7071 -88.6636 217.4876)" fill="#FFFFFF" width="5.5" height="2.2"/>
		</g>
		<g id="XMLID_6618_">
			<polygon id="XMLID_6620_" fill="#FFFFFF" points="217.7,236.5 222,232.2 222,236.5 			"/>
			
				<rect id="XMLID_6619_" x="215.3" y="231.5" transform="matrix(0.7071 0.7071 -0.7071 0.7071 228.3496 -86.081)" fill="#FFFFFF" width="5.5" height="2.2"/>
		</g>
		<g id="XMLID_6615_">
			<polygon id="XMLID_6617_" fill="#FFFFFF" points="198.9,227 198.9,220.9 202,224 			"/>
			<rect id="XMLID_6616_" x="193.7" y="222.9" fill="#FFFFFF" width="5.5" height="2.2"/>
		</g>
	</g>
	<g id="XMLID_6593_">
		<path id="XMLID_6613_" fill="#EC4F24" d="M275.2,243.5h-20.9c-4.9,0-8.8-3.9-8.8-8.8v-20.9c0-4.9,3.9-8.8,8.8-8.8h20.9
			c4.9,0,8.8,3.9,8.8,8.8v20.9C284,239.6,280.1,243.5,275.2,243.5z"/>
		
			<ellipse id="XMLID_6612_" transform="matrix(0.7071 -0.7071 0.7071 0.7071 -80.9231 252.7597)" fill="#FFFFFF" cx="264.6" cy="224.1" rx="6.6" ry="6.6"/>
		
			<ellipse id="XMLID_6611_" transform="matrix(0.7071 -0.7071 0.7071 0.7071 -80.9231 252.7597)" fill="#EC4F24" cx="264.6" cy="224.1" rx="4.6" ry="4.6"/>
		
			<rect id="XMLID_6610_" x="257.4" y="226.3" transform="matrix(0.7071 0.7071 -0.7071 0.7071 238.4043 -115.3634)" fill="#FFFFFF" width="2.1" height="7.6"/>
		<g id="XMLID_6606_">
			<circle id="XMLID_6609_" fill="#FFFFFF" cx="262" cy="224.1" r="1"/>
			<circle id="XMLID_6608_" fill="#FFFFFF" cx="264.6" cy="224.1" r="1"/>
			<circle id="XMLID_6607_" fill="#FFFFFF" cx="267.2" cy="224.1" r="1"/>
		</g>
		<g id="XMLID_6603_">
			<polygon id="XMLID_6605_" fill="#FFFFFF" points="278.3,227.5 278.3,221.4 281.3,224.5 			"/>
			<rect id="XMLID_6604_" x="273.1" y="223.4" fill="#FFFFFF" width="5.5" height="2.2"/>
		</g>
		<g id="XMLID_6600_">
			<polygon id="XMLID_6602_" fill="#FFFFFF" points="276.6,216.2 272.3,211.9 276.6,211.9 			"/>
			
				<rect id="XMLID_6601_" x="269.9" y="214.7" transform="matrix(0.7071 -0.7071 0.7071 0.7071 -72.7166 255.9869)" fill="#FFFFFF" width="5.5" height="2.2"/>
		</g>
		<g id="XMLID_6597_">
			<polygon id="XMLID_6599_" fill="#FFFFFF" points="272.1,236.5 276.4,232.2 276.4,236.5 			"/>
			
				<rect id="XMLID_6598_" x="269.8" y="231.5" transform="matrix(0.7071 0.7071 -0.7071 0.7071 244.2965 -124.5804)" fill="#FFFFFF" width="5.5" height="2.2"/>
		</g>
		<g id="XMLID_6594_">
			<polygon id="XMLID_6596_" fill="#FFFFFF" points="253.4,227 253.4,220.9 256.4,224 			"/>
			<rect id="XMLID_6595_" x="248.1" y="222.9" fill="#FFFFFF" width="5.5" height="2.2"/>
		</g>
	</g>
	
		<line id="XMLID_6592_" fill-rule="evenodd" clip-rule="evenodd" fill="none" stroke="#8A9192" stroke-width="1.0439" stroke-miterlimit="10" x1="263.5" y1="61.2" x2="235.3" y2="139.6"/>
	
		<line id="XMLID_6591_" fill-rule="evenodd" clip-rule="evenodd" fill="none" stroke="#8A9192" stroke-width="1.0439" stroke-miterlimit="10" x1="263.5" y1="61.2" x2="168.6" y2="139.6"/>
	
		<line id="XMLID_6590_" fill-rule="evenodd" clip-rule="evenodd" fill="none" stroke="#8A9192" stroke-width="1.0439" stroke-miterlimit="10" x1="263.5" y1="61.2" x2="101.7" y2="140.5"/>
	
		<line id="XMLID_6589_" fill-rule="evenodd" clip-rule="evenodd" fill="none" stroke="#8A9192" stroke-width="1.0439" stroke-miterlimit="10" x1="263.5" y1="61.2" x2="326.2" y2="139.6"/>
	
		<line id="XMLID_6588_" fill-rule="evenodd" clip-rule="evenodd" fill="none" stroke="#8A9192" stroke-width="1.0439" stroke-miterlimit="10" x1="156.4" y1="61.2" x2="183.7" y2="139.6"/>
	
		<line id="XMLID_6587_" fill-rule="evenodd" clip-rule="evenodd" fill="none" stroke="#8A9192" stroke-width="1.0439" stroke-miterlimit="10" x1="156.4" y1="61.2" x2="250.3" y2="139.6"/>
	
		<line id="XMLID_6586_" fill-rule="evenodd" clip-rule="evenodd" fill="none" stroke="#8A9192" stroke-width="1.0439" stroke-miterlimit="10" x1="156.4" y1="61.2" x2="317.3" y2="140.5"/>
	
		<line id="XMLID_6585_" fill-rule="evenodd" clip-rule="evenodd" fill="none" stroke="#8A9192" stroke-width="1.0439" stroke-miterlimit="10" x1="156.4" y1="61.2" x2="92.8" y2="139.6"/>
	
		<line id="XMLID_6584_" fill="none" stroke="#231F20" stroke-width="1.6746" stroke-miterlimit="10" stroke-dasharray="1.6746,5.0238" x1="301" y1="50.4" x2="376.5" y2="50.4"/>
	<path id="XMLID_6583_" fill="none" stroke="#8A9192" stroke-width="2" stroke-miterlimit="10" d="M426,182.9v28.7
		c0,7-5.7,12.7-12.7,12.7H310.9"/>
	
		<line id="XMLID_6582_" fill="none" stroke="#8A9192" stroke-width="2" stroke-miterlimit="10" x1="426" y1="112.5" x2="426" y2="123.5"/>
	
		<line id="XMLID_6581_" fill="none" stroke="#8A9192" stroke-width="2" stroke-miterlimit="10" x1="426" y1="65.4" x2="426" y2="81.5"/>
	<g id="XMLID_10710_">
		<g id="XMLID_15311_">
			<path id="XMLID_15470_" fill="#8A9192" d="M398.7,91.4c0-0.2,0.1-0.3,0.3-0.3h4.6c1.9,0,3.5,1.5,3.5,3.4c0,1.5-1,2.7-2.4,3.2
				l2.2,4.1c0.1,0.2,0,0.5-0.3,0.5h-1.7c-0.1,0-0.2-0.1-0.3-0.1l-2.1-4.2h-1.8v4.1c0,0.2-0.1,0.3-0.3,0.3H399
				c-0.2,0-0.3-0.1-0.3-0.3V91.4z M403.4,96.2c0.8,0,1.6-0.7,1.6-1.6c0-0.8-0.7-1.6-1.6-1.6h-2.6v3.2H403.4z"/>
			<path id="XMLID_15435_" fill="#8A9192" d="M411.1,95.7c1.6,0,3,1.2,3,3c0,0.1,0,0.3,0,0.4c0,0.2-0.2,0.3-0.3,0.3h-4.1
				c0,0.7,0.6,1.4,1.5,1.4c0.5,0,1-0.2,1.2-0.4c0.2-0.1,0.3-0.1,0.4,0l0.7,0.8c0.1,0.1,0.1,0.3,0,0.4c-0.5,0.5-1.3,0.9-2.4,0.9
				c-1.9,0-3.3-1.5-3.3-3.4C407.9,97.3,409.2,95.7,411.1,95.7z M412.2,98.3c0-0.6-0.6-1.1-1.2-1.1c-0.6,0-1.2,0.5-1.2,1.1H412.2z"/>
			<path id="XMLID_15433_" fill="#8A9192" d="M415.1,101.5l0.4-0.9c0.1-0.2,0.2-0.2,0.4-0.1c0,0,0.7,0.4,1.5,0.4
				c0.3,0,0.5-0.1,0.5-0.4c0-0.3-0.2-0.5-1.1-0.8c-1.2-0.5-1.8-1.1-1.8-2.1s0.7-1.9,2.4-1.9c0.9,0,1.6,0.3,2,0.5
				c0.1,0.1,0.2,0.3,0.1,0.4l-0.4,0.8c-0.1,0.1-0.3,0.2-0.4,0.1c0,0-0.7-0.3-1.3-0.3c-0.4,0-0.5,0.2-0.5,0.4c0,0.3,0.3,0.4,0.9,0.6
				c1.2,0.5,2.2,1,2.2,2.3c0,1.1-0.9,2-2.5,2c-1.1,0-1.8-0.3-2.1-0.6C415.1,101.8,415,101.6,415.1,101.5z"/>
			<path id="XMLID_15431_" fill="#8A9192" d="M421.6,97.5h-0.5c-0.2,0-0.3-0.1-0.3-0.3v-1.1c0-0.2,0.1-0.3,0.3-0.3h0.5v-1.8
				c0-0.2,0.1-0.3,0.3-0.3l1.3,0c0.2,0,0.3,0.1,0.3,0.3v1.8h1.4c0.2,0,0.3,0.1,0.3,0.3v1.1c0,0.2-0.1,0.3-0.3,0.3h-1.4v2.6
				c0,0.4,0.2,0.5,0.5,0.5c0.3,0,0.6-0.1,0.8-0.2c0.2-0.1,0.3,0,0.4,0.2l0.3,1c0.1,0.2,0,0.3-0.2,0.4c-0.1,0-1.1,0.4-1.9,0.4
				c-1.2,0-1.8-0.8-1.8-2.1V97.5z"/>
			<path id="XMLID_15428_" fill="#8A9192" d="M429.4,101.8l5-10.8c0-0.1,0.1-0.2,0.3-0.2h0.2c0.2,0,0.2,0.1,0.3,0.2l4.9,10.8
				c0.1,0.2,0,0.4-0.3,0.4h-1.4c-0.2,0-0.4-0.1-0.5-0.3l-0.8-1.7h-4.8l-0.8,1.7c-0.1,0.2-0.2,0.3-0.5,0.3h-1.4
				C429.4,102.3,429.3,102.1,429.4,101.8z M436.3,98.4l-1.6-3.5h0l-1.6,3.5H436.3z"/>
			<path id="XMLID_15314_" fill="#8A9192" d="M441.4,91.4c0-0.2,0.1-0.3,0.3-0.3h3.8c2,0,3.6,1.6,3.6,3.5c0,2-1.6,3.6-3.6,3.6h-2
				v3.8c0,0.2-0.1,0.3-0.3,0.3h-1.5c-0.2,0-0.3-0.1-0.3-0.3V91.4z M445.4,96.2c0.9,0,1.6-0.7,1.6-1.7c0-0.9-0.8-1.6-1.6-1.6h-1.9
				v3.2H445.4z"/>
			<path id="XMLID_15312_" fill="#8A9192" d="M450.9,91.4c0-0.2,0.1-0.3,0.3-0.3h1.5c0.2,0,0.3,0.1,0.3,0.3V102
				c0,0.2-0.1,0.3-0.3,0.3h-1.5c-0.2,0-0.3-0.1-0.3-0.3V91.4z"/>
		</g>
	</g>
	<g id="XMLID_6560_">
		<path id="XMLID_6577_" fill="#57BFFF" stroke="#FFFFFF" stroke-width="2.5377" stroke-miterlimit="10" d="M455.8,61.8h-60
			c-3.3,0-5.9-2.7-5.9-5.9v-13c0-3.3,2.7-5.9,5.9-5.9h60c3.3,0,5.9,2.7,5.9,5.9v13C461.8,59.1,459.1,61.8,455.8,61.8z"/>
		<g id="XMLID_6561_">
			<path id="XMLID_6576_" fill-rule="evenodd" clip-rule="evenodd" fill="#FFFFFF" d="M411.4,45.7h28.2c0.3,0,0.6,0.2,0.6,0.5v6.5
				c0,0.3-0.3,0.5-0.6,0.5h-28.2c-0.3,0-0.6-0.2-0.6-0.5v-6.5C410.9,45.9,411.1,45.7,411.4,45.7L411.4,45.7z"/>
			<path id="XMLID_6575_" fill-rule="evenodd" clip-rule="evenodd" fill="#57BFFF" d="M412.7,47c-0.1,0-0.2,0.1-0.2,0.2v1.4
				c0,0.1,0.1,0.2,0.2,0.2h1.8c0.1,0,0.2-0.1,0.2-0.2v-1.4c0-0.1-0.1-0.2-0.2-0.2H412.7L412.7,47z"/>
			<path id="XMLID_6574_" fill-rule="evenodd" clip-rule="evenodd" fill="#57BFFF" d="M416.2,47c-0.1,0-0.2,0.1-0.2,0.2v1.4
				c0,0.1,0.1,0.2,0.2,0.2h1.8c0.1,0,0.2-0.1,0.2-0.2v-1.4c0-0.1-0.1-0.2-0.2-0.2H416.2L416.2,47z"/>
			<path id="XMLID_6573_" fill-rule="evenodd" clip-rule="evenodd" fill="#57BFFF" d="M419.7,47c-0.1,0-0.2,0.1-0.2,0.2v1.4
				c0,0.1,0.1,0.2,0.2,0.2h1.8c0.1,0,0.2-0.1,0.2-0.2v-1.4c0-0.1-0.1-0.2-0.2-0.2H419.7L419.7,47z"/>
			<path id="XMLID_6572_" fill-rule="evenodd" clip-rule="evenodd" fill="#57BFFF" d="M423.3,47c-0.1,0-0.2,0.1-0.2,0.2v1.4
				c0,0.1,0.1,0.2,0.2,0.2h1.8c0.1,0,0.2-0.1,0.2-0.2v-1.4c0-0.1-0.1-0.2-0.2-0.2H423.3L423.3,47z"/>
			<path id="XMLID_6571_" fill-rule="evenodd" clip-rule="evenodd" fill="#57BFFF" d="M426.8,47c-0.1,0-0.2,0.1-0.2,0.2v1.4
				c0,0.1,0.1,0.2,0.2,0.2h1.8c0.1,0,0.2-0.1,0.2-0.2v-1.4c0-0.1-0.1-0.2-0.2-0.2H426.8L426.8,47z"/>
			<path id="XMLID_6570_" fill-rule="evenodd" clip-rule="evenodd" fill="#57BFFF" d="M430.3,47c-0.1,0-0.2,0.1-0.2,0.2v1.4
				c0,0.1,0.1,0.2,0.2,0.2h1.8c0.1,0,0.2-0.1,0.2-0.2v-1.4c0-0.1-0.1-0.2-0.2-0.2H430.3L430.3,47z"/>
			<path id="XMLID_6569_" fill-rule="evenodd" clip-rule="evenodd" fill="#57BFFF" d="M412.7,49.8c-0.1,0-0.2,0.1-0.2,0.2v1.4
				c0,0.1,0.1,0.2,0.2,0.2h1.8c0.1,0,0.2-0.1,0.2-0.2V50c0-0.1-0.1-0.2-0.2-0.2H412.7L412.7,49.8z"/>
			<path id="XMLID_6568_" fill-rule="evenodd" clip-rule="evenodd" fill="#57BFFF" d="M416.2,49.8c-0.1,0-0.2,0.1-0.2,0.2v1.4
				c0,0.1,0.1,0.2,0.2,0.2h1.8c0.1,0,0.2-0.1,0.2-0.2V50c0-0.1-0.1-0.2-0.2-0.2H416.2L416.2,49.8z"/>
			<path id="XMLID_6567_" fill-rule="evenodd" clip-rule="evenodd" fill="#57BFFF" d="M419.7,49.8c-0.1,0-0.2,0.1-0.2,0.2v1.4
				c0,0.1,0.1,0.2,0.2,0.2h1.8c0.1,0,0.2-0.1,0.2-0.2V50c0-0.1-0.1-0.2-0.2-0.2H419.7L419.7,49.8z"/>
			<path id="XMLID_6566_" fill-rule="evenodd" clip-rule="evenodd" fill="#57BFFF" d="M423.3,49.8c-0.1,0-0.2,0.1-0.2,0.2v1.4
				c0,0.1,0.1,0.2,0.2,0.2h1.8c0.1,0,0.2-0.1,0.2-0.2V50c0-0.1-0.1-0.2-0.2-0.2H423.3L423.3,49.8z"/>
			<path id="XMLID_6565_" fill-rule="evenodd" clip-rule="evenodd" fill="#57BFFF" d="M426.8,49.8c-0.1,0-0.2,0.1-0.2,0.2v1.4
				c0,0.1,0.1,0.2,0.2,0.2h1.8c0.1,0,0.2-0.1,0.2-0.2V50c0-0.1-0.1-0.2-0.2-0.2H426.8L426.8,49.8z"/>
			<path id="XMLID_6564_" fill-rule="evenodd" clip-rule="evenodd" fill="#57BFFF" d="M430.3,49.8c-0.1,0-0.2,0.1-0.2,0.2v1.4
				c0,0.1,0.1,0.2,0.2,0.2h1.8c0.1,0,0.2-0.1,0.2-0.2V50c0-0.1-0.1-0.2-0.2-0.2H430.3L430.3,49.8z"/>
			<circle id="XMLID_6563_" fill-rule="evenodd" clip-rule="evenodd" fill="#57BFFF" cx="437.3" cy="48.2" r="0.8"/>
			<circle id="XMLID_6562_" fill-rule="evenodd" clip-rule="evenodd" fill="#57BFFF" cx="437.3" cy="50.6" r="0.8"/>
		</g>
	</g>
	<g id="XMLID_10679_">
		<g id="XMLID_15633_">
			<path id="XMLID_15796_" fill="#8A9192" d="M375.9,25.2l0.6-1c0.1-0.2,0.4-0.2,0.5-0.1c0.1,0,1.4,1,2.4,1c0.8,0,1.5-0.5,1.5-1.2
				c0-0.8-0.7-1.4-2-1.9c-1.5-0.6-3-1.6-3-3.5c0-1.4,1.1-3.1,3.6-3.1c1.6,0,2.9,0.8,3.2,1.1c0.2,0.1,0.2,0.4,0.1,0.5l-0.6,0.9
				c-0.1,0.2-0.4,0.3-0.6,0.2c-0.1-0.1-1.3-0.9-2.2-0.9c-0.9,0-1.4,0.6-1.4,1.1c0,0.8,0.6,1.3,1.9,1.8c1.6,0.6,3.3,1.6,3.3,3.6
				c0,1.6-1.4,3.2-3.7,3.2c-2,0-3.2-0.9-3.5-1.2C375.8,25.5,375.7,25.4,375.9,25.2z"/>
			<path id="XMLID_15793_" fill="#8A9192" d="M385.2,15.8c0-0.2,0.1-0.3,0.3-0.3h3.8c3.1,0,5.6,2.5,5.6,5.6c0,3.1-2.5,5.6-5.6,5.6
				h-3.8c-0.2,0-0.3-0.1-0.3-0.3V15.8z M389.1,24.8c2.1,0,3.6-1.6,3.6-3.7c0-2.1-1.5-3.6-3.6-3.6h-1.8v7.3H389.1z"/>
			<path id="XMLID_15697_" fill="#8A9192" d="M397,15.7c0-0.2,0.1-0.3,0.3-0.3h0.4l6.7,7.1h0v-6.6c0-0.2,0.1-0.3,0.3-0.3h1.5
				c0.2,0,0.3,0.1,0.3,0.3v10.8c0,0.2-0.1,0.3-0.3,0.3h-0.4l-6.7-7.3h0v6.9c0,0.2-0.1,0.3-0.3,0.3h-1.5c-0.2,0-0.3-0.1-0.3-0.3V15.7
				z"/>
			<path id="XMLID_15695_" fill="#8A9192" d="M417.9,15.4c1.6,0,2.8,0.5,3.9,1.5c0.1,0.1,0.1,0.3,0,0.4l-1,1c-0.1,0.1-0.3,0.1-0.4,0
				c-0.7-0.6-1.6-0.9-2.5-0.9c-2,0-3.6,1.7-3.6,3.7c0,2,1.5,3.7,3.6,3.7c1,0,1.8-0.4,2.4-0.9c0.1-0.1,0.3-0.1,0.4,0l1,1
				c0.1,0.1,0.1,0.3,0,0.4c-1.1,1.1-2.5,1.6-3.9,1.6c-3.2,0-5.8-2.5-5.8-5.7S414.7,15.4,417.9,15.4z"/>
			<path id="XMLID_15692_" fill="#8A9192" d="M425.9,20.2c1.8,0,3.3,1.5,3.3,3.3c0,1.8-1.5,3.4-3.3,3.4c-1.8,0-3.3-1.5-3.3-3.4
				C422.6,21.7,424.1,20.2,425.9,20.2z M425.9,25.2c0.8,0,1.5-0.7,1.5-1.6c0-0.9-0.7-1.6-1.5-1.6c-0.9,0-1.5,0.7-1.5,1.6
				C424.4,24.4,425,25.2,425.9,25.2z"/>
			<path id="XMLID_15690_" fill="#8A9192" d="M430.6,20.6c0-0.2,0.1-0.3,0.3-0.3h0.6c0.1,0,0.2,0.1,0.3,0.2l0.2,0.6
				c0.2-0.3,1-0.9,2.3-0.9c2,0,2.8,1.5,2.8,3.2v3.1c0,0.2-0.1,0.3-0.3,0.3h-1.3c-0.2,0-0.3-0.1-0.3-0.3v-3.2c0-0.8-0.4-1.4-1.2-1.4
				c-0.8,0-1.3,0.6-1.5,1v3.5c0,0.2-0.1,0.3-0.4,0.3h-1.2c-0.2,0-0.3-0.1-0.3-0.3V20.6z"/>
			<path id="XMLID_15688_" fill="#8A9192" d="M439.2,22h-0.5c-0.2,0-0.3-0.1-0.3-0.3v-1.1c0-0.2,0.1-0.3,0.3-0.3h0.5v-1.8
				c0-0.2,0.1-0.3,0.3-0.3l1.3,0c0.2,0,0.3,0.1,0.3,0.3v1.8h1.4c0.2,0,0.3,0.1,0.3,0.3v1.1c0,0.2-0.1,0.3-0.3,0.3h-1.4v2.6
				c0,0.4,0.2,0.5,0.5,0.5c0.3,0,0.6-0.1,0.8-0.2c0.2-0.1,0.3,0,0.4,0.2l0.3,1c0.1,0.2,0,0.3-0.2,0.4c-0.1,0-1.1,0.4-1.9,0.4
				c-1.2,0-1.8-0.8-1.8-2.1V22z"/>
			<path id="XMLID_15686_" fill="#8A9192" d="M444.4,20.6c0-0.2,0.1-0.3,0.3-0.3h0.6c0.1,0,0.2,0.1,0.3,0.2l0.2,0.6
				c0.2-0.3,0.8-1,1.8-1c0.8,0,1.4,0.2,1.2,0.6l-0.6,1c-0.1,0.1-0.2,0.2-0.4,0.1c0,0-0.3-0.1-0.5-0.1c-0.6,0-1,0.4-1.1,0.7v3.9
				c0,0.2-0.1,0.3-0.4,0.3h-1.2c-0.2,0-0.3-0.1-0.3-0.3V20.6z"/>
			<path id="XMLID_15643_" fill="#8A9192" d="M452.6,20.2c1.8,0,3.3,1.5,3.3,3.3c0,1.8-1.5,3.4-3.3,3.4c-1.8,0-3.3-1.5-3.3-3.4
				C449.3,21.7,450.8,20.2,452.6,20.2z M452.6,25.2c0.8,0,1.5-0.7,1.5-1.6c0-0.9-0.7-1.6-1.5-1.6c-0.9,0-1.5,0.7-1.5,1.6
				C451,24.4,451.7,25.2,452.6,25.2z"/>
			<path id="XMLID_15641_" fill="#8A9192" d="M457.3,15.8c0-0.2,0.1-0.3,0.3-0.3h1.3c0.2,0,0.3,0.1,0.3,0.3v10.6
				c0,0.2-0.1,0.3-0.3,0.3h-1.3c-0.2,0-0.3-0.1-0.3-0.3V15.8z"/>
			<path id="XMLID_15639_" fill="#8A9192" d="M461.1,15.8c0-0.2,0.1-0.3,0.3-0.3h1.3c0.2,0,0.3,0.1,0.3,0.3v10.6
				c0,0.2-0.1,0.3-0.3,0.3h-1.3c-0.2,0-0.3-0.1-0.3-0.3V15.8z"/>
			<path id="XMLID_15636_" fill="#8A9192" d="M467.8,20.2c1.6,0,3,1.2,3,3c0,0.1,0,0.3,0,0.4c0,0.2-0.2,0.3-0.3,0.3h-4.1
				c0,0.7,0.6,1.4,1.5,1.4c0.5,0,1-0.2,1.2-0.4c0.2-0.1,0.3-0.1,0.4,0l0.7,0.8c0.1,0.1,0.1,0.3,0,0.4c-0.5,0.5-1.3,0.9-2.4,0.9
				c-1.9,0-3.3-1.5-3.3-3.4C464.5,21.7,465.9,20.2,467.8,20.2z M468.9,22.7c0-0.6-0.6-1.1-1.2-1.1c-0.6,0-1.2,0.5-1.2,1.1H468.9z"/>
			<path id="XMLID_15634_" fill="#8A9192" d="M472.1,20.6c0-0.2,0.1-0.3,0.3-0.3h0.6c0.1,0,0.2,0.1,0.3,0.2l0.2,0.6
				c0.2-0.3,0.8-1,1.8-1c0.8,0,1.4,0.2,1.2,0.6l-0.6,1c-0.1,0.1-0.2,0.2-0.4,0.1c0,0-0.3-0.1-0.5-0.1c-0.6,0-1,0.4-1.1,0.7v3.9
				c0,0.2-0.1,0.3-0.4,0.3h-1.2c-0.2,0-0.3-0.1-0.3-0.3V20.6z"/>
		</g>
	</g>
	
		<use xlink:href="#New_Symbol"  width="29.9" height="29.9" id="XMLID_6556_" x="-14.9" y="-14.9" transform="matrix(1.6741 0 0 -1.6741 425.8408 152.9431)" overflow="visible"/>
</g>
<g id="Misc._Art" display="none">
</g>
</svg>
