<svg xmlns="http://www.w3.org/2000/svg" viewBox="0 0 56.1 56.1"><path fill="#EC4F24" d="M56.1 46.3c0 5.4-4.4 9.8-9.8 9.8H9.8c-5.4 0-9.8-4.4-9.8-9.8V9.8C0 4.4 4.4 0 9.8 0h36.5c5.4 0 9.8 4.4 9.8 9.8v36.5z"/><ellipse transform="rotate(-45 27.817 27.66)" fill="#FFF" cx="27.8" cy="27.7" rx="9.7" ry="9.7"/><ellipse transform="rotate(-45 27.817 27.66)" fill="#EC4F24" cx="27.8" cy="27.7" rx="6.8" ry="6.8"/><path fill="#FFF" d="M21.6 31.41l2.193 2.192-7.92 7.92-2.19-2.192z"/><g fill="#FFF"><circle cx="23.9" cy="27.7" r="1.4"/><circle cx="27.7" cy="27.7" r="1.4"/><circle cx="31.6" cy="27.7" r="1.4"/></g><g fill="#FFF"><path d="M47.8 32.7v-8.9l4.4 4.4"/><path d="M40.1 26.7h8v3.2h-8z"/></g><g fill="#FFF"><path d="M45.2 16.1l-6.3-6.2h6.3"/><path d="M35.57 17.278l5.655-5.656 2.263 2.262-5.657 5.657z"/></g><g fill="#FFF"><path d="M38.8 45.8l6.2-6.2v6.2"/><path d="M37.626 36.13l5.657 5.657-2.263 2.262-5.657-5.658z"/></g><g fill="#FFF"><path d="M11.4 32v-8.9l4.4 4.4"/><path d="M3.7 25.9h8v3.2h-8z"/></g></svg>