<svg xmlns="http://www.w3.org/2000/svg" xmlns:xlink="http://www.w3.org/1999/xlink" viewBox="0 0 539.71 383.57"><defs><style>.cls-1,.cls-11,.cls-12,.cls-14,.cls-16,.cls-17,.cls-19,.cls-23,.cls-25,.cls-3,.cls-35,.cls-38,.cls-39,.cls-4,.cls-40,.cls-41,.cls-42,.cls-43,.cls-44,.cls-45,.cls-46,.cls-48,.cls-49,.cls-5,.cls-50,.cls-51,.cls-52,.cls-53,.cls-6,.cls-60,.cls-62,.cls-7,.cls-91,.cls-93,.cls-94,.cls-95,.cls-96{fill:none;}.cls-15,.cls-2,.cls-27,.cls-30,.cls-31,.cls-32,.cls-33,.cls-99{fill:#fff;}.cls-18,.cls-2,.cls-21,.cls-26,.cls-28,.cls-30,.cls-34,.cls-97{fill-rule:evenodd;}.cls-3,.cls-33,.cls-43,.cls-50,.cls-6{stroke:#989898;}.cls-17,.cls-23,.cls-25,.cls-3,.cls-31,.cls-32,.cls-43,.cls-45,.cls-50,.cls-51,.cls-6{stroke-linejoin:round;}.cls-17,.cls-19,.cls-23,.cls-3,.cls-31{stroke-width:0.72px;}.cls-11,.cls-12,.cls-14,.cls-15,.cls-16,.cls-35,.cls-38,.cls-39,.cls-4,.cls-40,.cls-41,.cls-42,.cls-44,.cls-45,.cls-46,.cls-48,.cls-49,.cls-5,.cls-51,.cls-52,.cls-53,.cls-60,.cls-62,.cls-7{stroke:#495565;}.cls-12,.cls-14,.cls-16,.cls-38,.cls-39,.cls-4,.cls-42,.cls-43,.cls-44,.cls-45,.cls-48,.cls-49,.cls-50,.cls-51,.cls-52,.cls-53,.cls-6,.cls-60,.cls-7,.cls-91,.cls-94,.cls-96{stroke-linecap:round;}.cls-11,.cls-12,.cls-14,.cls-15,.cls-16,.cls-19,.cls-33,.cls-35,.cls-38,.cls-39,.cls-4,.cls-40,.cls-41,.cls-42,.cls-44,.cls-46,.cls-48,.cls-49,.cls-5,.cls-52,.cls-53,.cls-60,.cls-62,.cls-7,.cls-91,.cls-93,.cls-94,.cls-95,.cls-96{stroke-miterlimit:10;}.cls-4,.cls-5,.cls-6{stroke-width:0.64px;}.cls-4,.cls-47,.cls-49,.cls-52,.cls-91,.cls-94,.cls-96{opacity:0.15;}.cls-11,.cls-14,.cls-15,.cls-16,.cls-7{stroke-width:0.72px;}.cls-10,.cls-12,.cls-36,.cls-38,.cls-40,.cls-42,.cls-48,.cls-7,.cls-8{opacity:0.15;}.cls-10,.cls-12,.cls-16,.cls-38,.cls-40,.cls-42,.cls-48,.cls-55,.cls-7,.cls-8,.cls-9{isolation:isolate;}.cls-10,.cls-13,.cls-47,.cls-9{fill:#495565;}.cls-12{stroke-width:0.36px;}.cls-17,.cls-19,.cls-25,.cls-31,.cls-32{stroke:#273243;}.cls-18,.cls-20,.cls-26,.cls-98{fill:#273243;}.cls-20{font-size:7.75px;}.cls-20,.cls-24,.cls-99{font-family:OpenSans-Bold, Open Sans;font-weight:700;}.cls-21,.cls-22{fill:#010101;opacity:0;}.cls-23{stroke:#f04f23;stroke-dasharray:0.72 2.15;}.cls-24{font-size:9.69px;}.cls-24,.cls-29,.cls-34{fill:#f04f23;}.cls-25,.cls-32{stroke-width:1.44px;}.cls-26,.cls-97{opacity:0.27;}.cls-28{fill:#f26322;}.cls-30{opacity:0.3;}.cls-33{stroke-width:0.48px;}.cls-35,.cls-38{stroke-width:0.65px;}.cls-37{fill:#989898;}.cls-39,.cls-40,.cls-41,.cls-42,.cls-43{stroke-width:0.62px;}.cls-44,.cls-46,.cls-48,.cls-49,.cls-50{stroke-width:0.64px;}.cls-45{stroke-width:1.27px;}.cls-51,.cls-52,.cls-53{stroke-width:0.64px;}.cls-54{clip-path:url(#clip-path);}.cls-55,.cls-57{opacity:0.15;}.cls-56{clip-path:url(#clip-path-4);}.cls-58{clip-path:url(#clip-path-5);}.cls-59{clip-path:url(#clip-path-6);}.cls-60,.cls-62{stroke-width:0.71px;}.cls-61{clip-path:url(#clip-path-7);}.cls-63{opacity:0.2;}.cls-64{clip-path:url(#clip-path-8);}.cls-65{opacity:0.1;}.cls-66{clip-path:url(#clip-path-9);}.cls-67{opacity:0.3;}.cls-68{clip-path:url(#clip-path-10);}.cls-69{clip-path:url(#clip-path-11);}.cls-70{clip-path:url(#clip-path-12);}.cls-71{clip-path:url(#clip-path-13);}.cls-72{clip-path:url(#clip-path-14);}.cls-73{clip-path:url(#clip-path-15);}.cls-74{clip-path:url(#clip-path-16);}.cls-75{clip-path:url(#clip-path-17);}.cls-76{clip-path:url(#clip-path-18);}.cls-77{clip-path:url(#clip-path-19);}.cls-78{clip-path:url(#clip-path-20);}.cls-79{clip-path:url(#clip-path-21);}.cls-80{clip-path:url(#clip-path-22);}.cls-81{clip-path:url(#clip-path-23);}.cls-82{clip-path:url(#clip-path-24);}.cls-83{clip-path:url(#clip-path-25);}.cls-84{clip-path:url(#clip-path-26);}.cls-85{clip-path:url(#clip-path-27);}.cls-86{clip-path:url(#clip-path-28);}.cls-87{clip-path:url(#clip-path-29);}.cls-88{clip-path:url(#clip-path-30);}.cls-89{clip-path:url(#clip-path-31);}.cls-90{clip-path:url(#clip-path-32);}.cls-91,.cls-93,.cls-94,.cls-95,.cls-96{stroke:#4a5565;}.cls-91{stroke-width:0.47px;}.cls-92{fill:#4a5565;}.cls-93,.cls-94{stroke-width:0.57px;}.cls-95,.cls-96{stroke-width:0.76px;}.cls-97{fill:#333;}.cls-98{opacity:0.5;}.cls-99{font-size:10px;}.cls-100{fill:#f05024;}</style><clipPath id="clip-path"><rect class="cls-1" x="371.7" y="325.2" width="34.89" height="31.33"/></clipPath><clipPath id="clip-path-4"><rect class="cls-1" x="377.39" y="326.63" width="27.77" height="2.85"/></clipPath><clipPath id="clip-path-5"><rect class="cls-1" x="403.74" y="327.34" width="0.71" height="22.78"/></clipPath><clipPath id="clip-path-6"><rect class="cls-1" x="378.11" y="327.34" width="0.71" height="22.78"/></clipPath><clipPath id="clip-path-7"><rect class="cls-1" x="377.86" y="329.42" width="26.7" height="0.71"/></clipPath><clipPath id="clip-path-8"><rect class="cls-1" x="387.9" y="338.02" width="3.56" height="6.41"/></clipPath><clipPath id="clip-path-9"><rect class="cls-1" x="387.9" y="335.52" width="7.48" height="4.27"/></clipPath><clipPath id="clip-path-10"><rect class="cls-1" x="391.81" y="338.02" width="3.56" height="6.41"/></clipPath><clipPath id="clip-path-11"><rect class="cls-1" x="378.57" y="329.96" width="0.71" height="0.71"/></clipPath><clipPath id="clip-path-12"><rect class="cls-1" x="380" y="329.96" width="0.71" height="0.71"/></clipPath><clipPath id="clip-path-13"><rect class="cls-1" x="379.28" y="330.67" width="0.71" height="0.71"/></clipPath><clipPath id="clip-path-14"><rect class="cls-1" x="378.57" y="331.38" width="0.71" height="0.71"/></clipPath><clipPath id="clip-path-15"><rect class="cls-1" x="402.07" y="349.18" width="0.71" height="0.71"/></clipPath><clipPath id="clip-path-16"><rect class="cls-1" x="403.49" y="349.18" width="0.71" height="0.71"/></clipPath><clipPath id="clip-path-17"><rect class="cls-1" x="403.49" y="347.76" width="0.71" height="0.71"/></clipPath><clipPath id="clip-path-18"><rect class="cls-1" x="402.07" y="347.76" width="0.71" height="0.71"/></clipPath><clipPath id="clip-path-19"><rect class="cls-1" x="400.64" y="349.18" width="0.71" height="0.71"/></clipPath><clipPath id="clip-path-20"><rect class="cls-1" x="403.49" y="346.33" width="0.71" height="0.71"/></clipPath><clipPath id="clip-path-21"><rect class="cls-1" x="402.78" y="348.47" width="0.71" height="0.71"/></clipPath><clipPath id="clip-path-22"><rect class="cls-1" x="374.55" y="332.32" width="28.48" height="20.65"/></clipPath><clipPath id="clip-path-23"><rect class="cls-1" x="375.61" y="335.65" width="0.71" height="0.71"/></clipPath><clipPath id="clip-path-24"><rect class="cls-1" x="377.04" y="335.65" width="0.71" height="0.71"/></clipPath><clipPath id="clip-path-25"><rect class="cls-1" x="376.33" y="336.36" width="0.71" height="0.71"/></clipPath><clipPath id="clip-path-26"><rect class="cls-1" x="375.61" y="337.08" width="0.71" height="0.71"/></clipPath><clipPath id="clip-path-27"><rect class="cls-1" x="373.12" y="337.3" width="21.36" height="17.8"/></clipPath><clipPath id="clip-path-28"><rect class="cls-1" x="373.81" y="338.02" width="0.73" height="4.96"/></clipPath><clipPath id="clip-path-29"><rect class="cls-1" x="374.3" y="340.64" width="0.71" height="0.71"/></clipPath><clipPath id="clip-path-30"><rect class="cls-1" x="375.37" y="339.92" width="0.71" height="0.71"/></clipPath><clipPath id="clip-path-31"><rect class="cls-1" x="374.66" y="340.64" width="0.71" height="0.71"/></clipPath><clipPath id="clip-path-32"><rect class="cls-1" x="374.3" y="342.06" width="0.71" height="0.71"/></clipPath></defs><title>Asset 5</title><g id="Layer_2" data-name="Layer 2"><g id="Layer_1-2" data-name="Layer 1"><polygon class="cls-2" points="320.73 217.5 320.73 217.5 320.74 217.5 471.45 217.5 471.45 217.5 471.45 217.5 471.45 293.35 471.45 293.36 320.73 293.35 320.73 293.35 320.73 217.5"/><polygon class="cls-3" points="320.73 217.5 320.73 217.5 320.74 217.5 471.45 217.5 471.45 217.5 471.45 217.5 471.45 293.35 471.45 293.36 320.73 293.35 320.73 293.35 320.73 217.5"/><polygon class="cls-2" points="96.39 217.73 96.39 217.73 96.4 217.73 315 217.73 315 217.73 315 217.73 315 293.58 315 293.58 96.39 293.58 96.39 293.58 96.39 217.73"/><polygon class="cls-3" points="96.39 217.73 96.39 217.73 96.4 217.73 315 217.73 315 217.73 315 217.73 315 293.58 315 293.58 96.39 293.58 96.39 293.58 96.39 217.73"/><path class="cls-4" d="M501.92,252.88a2.23,2.23,0,1,0-2.22,2.23h21.59a5.18,5.18,0,0,0,.51-2.23,5.09,5.09,0,1,0-10.18,0"/><path class="cls-5" d="M499.88,255.74a2.93,2.93,0,0,1-3-2.67,2.86,2.86,0,0,1,2.86-3v.32a8.58,8.58,0,0,1,16.56-3.17h.29a5.72,5.72,0,0,1,5.72,5.72,5.36,5.36,0,0,1-.19,1.46,1.9,1.9,0,0,1-1.84,1.4H499.88Z"/><line class="cls-4" x1="525.41" y1="258.92" x2="502.1" y2="258.92"/><line class="cls-4" x1="502.83" y1="260.2" x2="498.29" y2="260.2"/><ellipse class="cls-4" cx="520.54" cy="242.07" rx="1.27" ry="2.86"/><ellipse class="cls-4" cx="520.54" cy="242.07" rx="2.86" ry="1.27"/><circle class="cls-6" cx="520.54" cy="242.07" r="2.86"/><line class="cls-7" x1="63.7" y1="261.4" x2="69.12" y2="261.4"/><line class="cls-7" x1="53.58" y1="261.4" x2="58.64" y2="261.4"/><line class="cls-7" x1="61.89" y1="255.26" x2="60.45" y2="255.26"/><g class="cls-8"><polygon class="cls-9" points="62.26 259.52 62.26 260.68 63.7 260.68 63.7 262.85 58.64 262.85 58.64 260.68 60.09 260.68 60.09 259.52 60.38 259.23 61.97 259.23 62.26 259.52"/></g><line class="cls-7" x1="61.89" y1="259.59" x2="60.45" y2="259.59"/><g class="cls-8"><polygon class="cls-9" points="69.48 261.04 68.76 262.49 63.7 262.49 63.7 261.04 69.48 261.04"/></g><g class="cls-8"><polygon class="cls-9" points="52.86 262.49 53.58 261.04 58.64 261.04 58.64 262.49 52.86 262.49"/></g><g class="cls-8"><polyline class="cls-9" points="61.89 254.9 61.89 259.23 60.45 259.23 60.45 254.9"/></g><rect class="cls-10" x="53.1" y="233.75" width="15.9" height="1.45" rx="0.72" ry="0.72"/><rect class="cls-10" x="53.1" y="241.7" width="15.9" height="1.45" rx="0.72" ry="0.72"/><rect class="cls-10" x="53.1" y="249.65" width="15.9" height="1.45" rx="0.72" ry="0.72"/><path class="cls-10" d="M58.16,241.65H55.27v-2.17A1.45,1.45,0,0,1,56.71,238h0a1.45,1.45,0,0,1,1.45,1.44Z"/><path class="cls-10" d="M62.5,241.65H59.61v-2.17A1.44,1.44,0,0,1,61.05,238h0a1.45,1.45,0,0,1,1.45,1.44Z"/><path class="cls-10" d="M66.83,241.65H63.94v-2.17A1.45,1.45,0,0,1,65.39,238h0a1.44,1.44,0,0,1,1.44,1.44Z"/><path class="cls-10" d="M58.16,249.6H55.27v-2.16A1.45,1.45,0,0,1,56.71,246h0a1.45,1.45,0,0,1,1.45,1.45Z"/><path class="cls-10" d="M56.71,254.3H55.27v-.36a.72.72,0,0,1,.72-.72h0a.72.72,0,0,1,.72.72Z"/><path class="cls-10" d="M59.61,254.3H58.16v-.36a.72.72,0,0,1,.72-.72h0a.73.73,0,0,1,.73.72Z"/><path class="cls-10" d="M63.94,254.3H62.5v-.36a.72.72,0,0,1,.72-.72h0a.72.72,0,0,1,.72.72Z"/><path class="cls-10" d="M66.83,254.3H65.39v-.36a.72.72,0,0,1,.72-.72h0a.72.72,0,0,1,.72.72Z"/><path class="cls-10" d="M62.5,249.6H59.61v-2.16A1.44,1.44,0,0,1,61.05,246h0a1.45,1.45,0,0,1,1.45,1.45Z"/><path class="cls-10" d="M66.83,249.6H63.94v-2.16A1.45,1.45,0,0,1,65.39,246h0a1.44,1.44,0,0,1,1.44,1.45Z"/><rect class="cls-11" x="53.82" y="235.2" width="14.46" height="6.51"/><path class="cls-11" d="M58.16,241.65H55.27v-2.89a1.44,1.44,0,0,1,1.44-1.44h0a1.44,1.44,0,0,1,1.45,1.44Z"/><path class="cls-11" d="M62.5,241.65H59.61v-2.89a1.43,1.43,0,0,1,1.44-1.44h0a1.44,1.44,0,0,1,1.45,1.44Z"/><path class="cls-11" d="M66.83,241.65H63.94v-2.89a1.44,1.44,0,0,1,1.45-1.44h0a1.43,1.43,0,0,1,1.44,1.44Z"/><path class="cls-11" d="M58.16,249.6H55.27v-2.89a1.44,1.44,0,0,1,1.44-1.44h0a1.44,1.44,0,0,1,1.45,1.44Z"/><path class="cls-11" d="M56.71,254.3H55.27v-1.08a.72.72,0,0,1,.72-.72h0a.72.72,0,0,1,.72.72Z"/><path class="cls-11" d="M59.61,254.3H58.16v-1.08a.72.72,0,0,1,.72-.72h0a.73.73,0,0,1,.73.72Z"/><path class="cls-11" d="M63.94,254.3H62.5v-1.08a.72.72,0,0,1,.72-.72h0a.72.72,0,0,1,.72.72Z"/><path class="cls-11" d="M66.83,254.3H65.39v-1.08a.72.72,0,0,1,.72-.72h0a.72.72,0,0,1,.72.72Z"/><path class="cls-11" d="M62.5,249.6H59.61v-2.89a1.43,1.43,0,0,1,1.44-1.44h0a1.44,1.44,0,0,1,1.45,1.44Z"/><path class="cls-11" d="M66.83,249.6H63.94v-2.89a1.44,1.44,0,0,1,1.45-1.44h0a1.43,1.43,0,0,1,1.44,1.44Z"/><line class="cls-7" x1="53.82" y1="235.56" x2="68.28" y2="235.56"/><rect class="cls-11" x="53.1" y="233.75" width="15.9" height="1.45" rx="0.72" ry="0.72"/><rect class="cls-11" x="53.82" y="243.15" width="14.46" height="6.51"/><line class="cls-7" x1="53.82" y1="243.51" x2="68.28" y2="243.51"/><line class="cls-12" x1="63.58" y1="244.23" x2="65.03" y2="244.23"/><line class="cls-12" x1="57.8" y1="236.64" x2="59.97" y2="236.64"/><line class="cls-12" x1="58.52" y1="237" x2="58.52" y2="237.37"/><line class="cls-12" x1="64.67" y1="243.87" x2="64.67" y2="244.23"/><rect class="cls-11" x="53.1" y="241.7" width="15.9" height="1.45" rx="0.72" ry="0.72"/><polyline class="cls-11" points="60.33 259.77 53.82 259.77 53.82 251.1 68.28 251.1 68.28 259.77 62.13 259.77"/><line class="cls-7" x1="53.82" y1="251.46" x2="68.28" y2="251.46"/><rect class="cls-11" x="53.1" y="249.65" width="15.9" height="1.45" rx="0.72" ry="0.72"/><rect class="cls-11" x="55.27" y="255.8" width="4.34" height="3.98"/><line class="cls-11" x1="57.44" y1="256.16" x2="57.44" y2="259.77"/><polygon class="cls-13" points="60.33 260.5 54.91 260.5 54.18 259.77 60.33 259.77 60.33 260.5"/><line class="cls-14" x1="56.71" y1="258.33" x2="58.16" y2="258.33"/><rect class="cls-11" x="62.5" y="255.8" width="4.34" height="3.98"/><line class="cls-11" x1="64.67" y1="256.16" x2="64.67" y2="259.77"/><line class="cls-14" x1="63.94" y1="258.33" x2="65.39" y2="258.33"/><polygon class="cls-13" points="67.19 260.5 62.26 260.5 62.26 259.77 67.92 259.77 67.19 260.5"/><circle class="cls-15" cx="61.17" cy="253.63" r="1.45"/><line class="cls-7" x1="58.64" y1="261.04" x2="60.09" y2="261.04"/><line class="cls-7" x1="62.26" y1="261.04" x2="63.7" y2="261.04"/><polygon class="cls-16" points="62.26 259.52 62.26 260.68 63.7 260.68 63.7 262.85 58.64 262.85 58.64 260.68 60.09 260.68 60.09 259.52 60.38 259.23 61.97 259.23 62.26 259.52"/><polygon class="cls-16" points="69.48 261.04 68.76 262.49 63.7 262.49 63.7 261.04 69.48 261.04"/><polygon class="cls-16" points="52.86 262.49 53.58 261.04 58.64 261.04 58.64 262.49 52.86 262.49"/><polyline class="cls-16" points="61.89 254.9 61.89 259.23 60.45 259.23 60.45 254.9"/><line class="cls-17" x1="363.9" y1="191.22" x2="363.9" y2="231.12"/><polygon class="cls-18" points="205.93 230.52 207.12 233.78 208.31 230.52 205.93 230.52"/><polygon class="cls-19" points="205.93 230.52 207.12 233.78 208.31 230.52 205.93 230.52"/><polygon class="cls-18" points="362.71 230.52 363.9 233.78 365.08 230.52 362.71 230.52"/><polygon class="cls-19" points="362.71 230.52 363.9 233.78 365.08 230.52 362.71 230.52"/><polyline class="cls-17" points="503.91 191.44 207.14 191.44 207.14 231.58"/><text class="cls-20" transform="translate(482.79 274.99)">PUBLIC CLOUD</text><path class="cls-2" d="M497.68,255.59h0a1.42,1.42,0,0,1,1.37-1.48,1.3,1.3,0,0,1,1,.43,1.54,1.54,0,0,1,.4,1.05,1.37,1.37,0,1,1-2.73,0Z"/><path class="cls-3" d="M498,255.63h0c-7,0-13.79,4-18.76,11.1s-7.78,16.76-7.78,26.81"/><path class="cls-3" d="M498,255.07h0c-7,0-13.79-4-18.76-11.11s-7.78-16.75-7.78-26.8"/><path class="cls-3" d="M500.38,255.59h0a1.42,1.42,0,0,0-1.36-1.48,1.28,1.28,0,0,0-1,.43,1.54,1.54,0,0,0-.4,1.05,1.37,1.37,0,1,0,2.72,0Z"/><text class="cls-20" transform="translate(33.85 275.68)">ON PREMISES</text><path class="cls-21" d="M69.84,255.71h0c7,0,13.79,4,18.76,11.1s7.77,16.75,7.77,26.81H69.84Z"/><path class="cls-21" d="M69.84,255.71h0c7,0,13.79,4,18.76,11.1s7.77,16.75,7.77,26.81"/><path class="cls-3" d="M69.84,255.71h0c7,0,13.79,4,18.76,11.1s7.77,16.75,7.77,26.81"/><path class="cls-21" d="M69.84,255.14h0c7,0,13.79-4,18.76-11.1s7.77-16.75,7.77-26.81H69.84Z"/><path class="cls-21" d="M69.84,255.14h0c7,0,13.79-4,18.76-11.1s7.77-16.75,7.77-26.81"/><path class="cls-3" d="M69.84,255.14h0c7,0,13.79-4,18.76-11.1s7.77-16.75,7.77-26.81"/><path class="cls-2" d="M67.42,255.67h0a1.43,1.43,0,0,1,1.36-1.49,1.29,1.29,0,0,1,1,.44,1.53,1.53,0,0,1,.4,1,1.36,1.36,0,1,1-2.72,0Z"/><path class="cls-3" d="M67.42,255.67h0a1.43,1.43,0,0,1,1.36-1.49,1.29,1.29,0,0,1,1,.44,1.53,1.53,0,0,1,.4,1,1.36,1.36,0,1,1-2.72,0Z"/><line class="cls-22" x1="86.38" y1="197.54" x2="86.38" y2="202.78"/><text class="cls-20" transform="translate(113.92 281.52)">BARE METAL</text><text class="cls-20" transform="translate(180.86 281.52)">VIRTUALIZED</text><text class="cls-20" transform="translate(246.3 281.52)">CONTAINERS</text><text class="cls-20" transform="translate(337.68 281.52)">VIRTUALIZED</text><text class="cls-20" transform="translate(402.81 281.52)">CONTAINERS</text><line class="cls-23" x1="138.37" y1="193.88" x2="138.37" y2="210.23"/><line class="cls-23" x1="207.41" y1="193.88" x2="207.41" y2="210.23"/><line class="cls-23" x1="271.53" y1="193.88" x2="271.53" y2="210.23"/><line class="cls-23" x1="287.04" y1="150.75" x2="287.04" y2="189.58"/><line class="cls-23" x1="363.81" y1="192.48" x2="363.81" y2="210.23"/><line class="cls-23" x1="429.1" y1="192.48" x2="429.1" y2="210.23"/><text class="cls-24" transform="translate(364.51 380.74)">ELASTICITY</text><text class="cls-24" transform="translate(114.92 8.63)">MULTI-CLOUD</text><text class="cls-24" transform="translate(383.87 8.63)">AUTOMATION</text><text class="cls-24" transform="translate(96.7 380.74)">SEPARATE CONTROL &amp; DATA PLANE</text><path class="cls-2" d="M155.65,341.67h0a25.88,25.88,0,1,1,25.88,25.88A25.88,25.88,0,0,1,155.65,341.67Z"/><path class="cls-25" d="M155.65,341.67h0a25.88,25.88,0,1,1,25.88,25.88A25.88,25.88,0,0,1,155.65,341.67Z"/><path class="cls-26" d="M187.69,333.23a1.33,1.33,0,0,0-.92,2.26l3,3H175.38a1.32,1.32,0,1,0,0,2.64H193a1.37,1.37,0,0,0,1.23-.78,1.4,1.4,0,0,0-.32-1.47l-5.27-5.28A1.22,1.22,0,0,0,187.69,333.23Z"/><path class="cls-26" d="M170.1,342.87a1.35,1.35,0,0,0-1.22.84,1.29,1.29,0,0,0,.31,1.44l5.28,5.27a1.25,1.25,0,0,0,.91.39,1.21,1.21,0,0,0,.91-.43,1.29,1.29,0,0,0,0-1.86l-3-3h14.41a1.32,1.32,0,0,0,0-2.63Z"/><path class="cls-26" d="M175.34,338.51a.43.43,0,0,0-.46.46.42.42,0,0,0,.46.42h14.83a.42.42,0,0,0,.46-.42.42.42,0,0,0-.46-.46Z"/><path class="cls-26" d="M172.65,345.09a.43.43,0,0,0-.3.13.45.45,0,0,0,0,.63l3,3a.37.37,0,0,0,.6,0,.41.41,0,0,0,0-.59l-3-3.06A.41.41,0,0,0,172.65,345.09Z"/><path class="cls-26" d="M188.33,333.46a.41.41,0,0,0-.3.13.44.44,0,0,0,0,.63l5.27,5.27a.44.44,0,0,0,.32.11.47.47,0,0,0,.28-.11.45.45,0,0,0,0-.63l-5.27-5.27A.41.41,0,0,0,188.33,333.46Z"/><path class="cls-26" d="M170.1,342.9a.43.43,0,0,0-.45.46.41.41,0,0,0,.45.42h17.58a.44.44,0,0,0,0-.88Z"/><path class="cls-26" d="M181.53,330.18a11.92,11.92,0,0,0-10.72,8.19.45.45,0,0,0,.24.6h.15a.58.58,0,0,0,.45-.32,10.86,10.86,0,0,1,9.88-7.59.42.42,0,0,0,.42-.46A.41.41,0,0,0,181.53,330.18Z"/><path class="cls-26" d="M192.91,345.12a.49.49,0,0,0-.42.28A11,11,0,0,1,182.06,353h-.53a.47.47,0,0,0-.46.42.47.47,0,0,0,.46.46h.56a11.82,11.82,0,0,0,11.25-8.19.42.42,0,0,0-.25-.56Z"/><path class="cls-26" d="M182.83,346.41a.88.88,0,0,0,0,1.76.88.88,0,0,0,0-1.76Z"/><path class="cls-26" d="M185.46,346.41a.88.88,0,0,0,0,1.76.88.88,0,0,0,0-1.76Z"/><path class="cls-26" d="M188.1,346.41a.88.88,0,1,0,0,1.76.88.88,0,0,0,0-1.76Z"/><path class="cls-26" d="M174.92,335.45a.9.9,0,0,0-.88.88.92.92,0,0,0,.88.88.89.89,0,0,0,.88-.88A.87.87,0,0,0,174.92,335.45Z"/><path class="cls-26" d="M177.56,335.45a.89.89,0,0,0-.88.88.92.92,0,0,0,.88.88.89.89,0,0,0,.88-.88A.87.87,0,0,0,177.56,335.45Z"/><path class="cls-26" d="M180.19,335.45a.9.9,0,0,0-.88.88.92.92,0,0,0,.88.88.89.89,0,0,0,.88-.88A.87.87,0,0,0,180.19,335.45Z"/><path class="cls-18" d="M170.1,342.41a1.74,1.74,0,0,0-1.61,1.12,1.78,1.78,0,0,0,.39,1.93l5.27,5.28a1.62,1.62,0,0,0,1.23.52,1.74,1.74,0,0,0,1.26-.59,1.62,1.62,0,0,0,.53-1.24,1.77,1.77,0,0,0-.53-1.22l-2.28-2.29h13.32a1.75,1.75,0,0,0,1.75-1.75,1.77,1.77,0,0,0-1.75-1.76Zm17.58.95a.87.87,0,0,1,.88.88.9.9,0,0,1-.88.88H172.22l3.76,3.75a.9.9,0,0,1,.27.63.85.85,0,0,1-.27.6.76.76,0,0,1-.6.27.92.92,0,0,1-.64-.27l-5.27-5.27a1,1,0,0,1-.17-.95.89.89,0,0,1,.8-.52Z"/><path class="cls-18" d="M187.66,332.82a1.74,1.74,0,0,0-1.25.53,1.57,1.57,0,0,0-.52,1.22,1.79,1.79,0,0,0,.52,1.24l2.29,2.28H175.38a1.74,1.74,0,0,0-1.76,1.75,1.77,1.77,0,0,0,1.76,1.76H193a1.87,1.87,0,0,0,1.62-1.05,1.79,1.79,0,0,0-.39-1.94l-5.27-5.26A1.73,1.73,0,0,0,187.66,332.82Zm0,.86a.89.89,0,0,1,.63.26l5.27,5.27a1,1,0,0,1,.18,1,.86.86,0,0,1-.78.53H175.38a.89.89,0,0,1-.88-.88.86.86,0,0,1,.88-.87v0h15.46l-3.8-3.76a.91.91,0,0,1,0-1.23A.81.81,0,0,1,187.65,333.68Z"/><polygon class="cls-18" points="0.87 306.72 0.87 306.72 0.86 306.72 0.87 177.63 0.87 177.63 0.87 177.63 25.22 177.63 25.22 177.63 25.22 306.72 25.21 306.72 0.87 306.72"/><path class="cls-27" d="M13.53,233.24l-1.67.57a5.18,5.18,0,0,1-.53.18l-.53.15c.34.08.72.19,1.13.33l1.6.56Zm2.58-.88L14.4,233v2.36l1.71.6V237l-6.18-2.3v-1.1l6.18-2.3Zm0,6.56v1H10.82v1.81H10v-4.62h.86v1.8Zm-2.58,4.89-1.67.57a5.18,5.18,0,0,1-.53.18l-.53.15c.34.08.72.19,1.13.33l1.6.56Zm2.58-.88-1.71.61v2.36l1.71.6v1.06l-6.18-2.3v-1.1l6.18-2.3ZM13,249.12c-1.48,0-2.21.69-2.21,2.07v.87h4.46v-.72A2,2,0,0,0,13,249.12Zm0-1.06a3.07,3.07,0,0,1,2.34.85,3.41,3.41,0,0,1,.8,2.43v1.72H10v-1.9a3.11,3.11,0,0,1,.79-2.28A2.92,2.92,0,0,1,13,248.06Z"/><line class="cls-23" x1="139.5" y1="191.4" x2="428.93" y2="191.4"/><polygon class="cls-17" points="0.87 174.08 0.87 174.08 0.87 174.08 0.87 74.77 0.87 74.77 0.87 74.77 25.22 74.77 25.22 74.77 25.22 174.08 25.21 174.08 0.87 174.08"/><polygon class="cls-18" points="0.87 174.08 0.87 174.08 0.87 174.08 0.87 74.77 0.87 74.77 0.87 74.77 25.22 74.77 25.22 74.77 25.22 174.08 25.21 174.08 0.87 174.08"/><path class="cls-27" d="M16.11,108H10v-1h5.28v-2.6h.87ZM13,114a2.75,2.75,0,0,0,1.73-.46,1.88,1.88,0,0,0,0-2.71,2.82,2.82,0,0,0-1.74-.46,2.7,2.7,0,0,0-1.71.46,1.58,1.58,0,0,0-.59,1.34,1.65,1.65,0,0,0,.59,1.37A2.7,2.7,0,0,0,13,114Zm0-4.69a3.39,3.39,0,0,1,2.34.75,3.16,3.16,0,0,1,0,4.26,3.4,3.4,0,0,1-2.35.75,3.28,3.28,0,0,1-2.34-.76,2.74,2.74,0,0,1-.82-2.14,2.7,2.7,0,0,1,.83-2.11A3.35,3.35,0,0,1,13,109.33Zm.63,10h2.46v1H10v-1.74a2.83,2.83,0,0,1,.44-1.76,1.62,1.62,0,0,1,1.35-.57,1.69,1.69,0,0,1,1.64,1.19l2.72-1.74v1.15l-2.46,1.47Zm-.83,0v-.7a1.61,1.61,0,0,0-.26-1,1,1,0,0,0-.78-.32.82.82,0,0,0-.74.35,1.75,1.75,0,0,0-.23,1v.66ZM16.11,123v1H10.82v1.8H10v-4.62h.86V123Zm0,3.75V128l-4.9,3v0l.27,0c.52,0,1-.06,1.43-.06h3.2v.91H10v-1.22l4.87-3v0l-.7,0-1,0H10v-.92ZM13,137.93a2.81,2.81,0,0,0,1.73-.46,1.88,1.88,0,0,0,0-2.71A2.76,2.76,0,0,0,13,134.3a2.77,2.77,0,0,0-1.71.45,1.6,1.6,0,0,0-.59,1.35,1.65,1.65,0,0,0,.59,1.37A2.77,2.77,0,0,0,13,137.93Zm0-4.7a3.39,3.39,0,0,1,2.34.75,3.18,3.18,0,0,1,0,4.27A3.45,3.45,0,0,1,13,139a3.32,3.32,0,0,1-2.34-.75,3.16,3.16,0,0,1,0-4.26A3.35,3.35,0,0,1,13,133.23Zm-2.29,8.31a1.64,1.64,0,0,0,.62,1.36,2.6,2.6,0,0,0,1.69.49,2.73,2.73,0,0,0,1.72-.47,1.7,1.7,0,0,0,.57-1.38,3.11,3.11,0,0,0-.08-.76,7.78,7.78,0,0,0-.2-.76h.87a4.6,4.6,0,0,1,.27,1.63,2.62,2.62,0,0,1-.82,2.08,3.41,3.41,0,0,1-2.34.72,3.67,3.67,0,0,1-1.67-.35,2.48,2.48,0,0,1-1.11-1,3.17,3.17,0,0,1-.38-1.57,3.88,3.88,0,0,1,.39-1.73l.84.35a5.84,5.84,0,0,0-.26.67A2.43,2.43,0,0,0,10.73,141.54Z"/><path class="cls-26" d="M522.94,194.11l-.42.78a8.6,8.6,0,0,0,3.82.87,8.42,8.42,0,0,0,3.82-.87l-.38-.78a7.67,7.67,0,0,1-3.44.78A7.51,7.51,0,0,1,522.94,194.11Z"/><path class="cls-26" d="M527.43,177.77l-.21.42a10,10,0,0,1-9,5.54v.88a10.75,10.75,0,0,0,9.43-5.51,8.62,8.62,0,0,0,7,3.47v-.88a7.8,7.8,0,0,1-6.53-3.47l0,0Z"/><path class="cls-26" d="M516.17,190.29a7.89,7.89,0,0,1-4.71,1.55,8.21,8.21,0,0,1-4.24-1.23l-.49.73a8.9,8.9,0,0,0,4.7,1.37,8.8,8.8,0,0,0,5.26-1.71Z"/><path class="cls-26" d="M506.59,175.13a.48.48,0,0,0-.39.22.44.44,0,0,0,.15.6l2.94,1.75h7l.63.66.43,1.3a.43.43,0,0,0,.41.32s0,0,.18.07a.41.41,0,0,0,.32-.53l-.5-1.54-1.08-1.09H509.6l-2.77-1.68A.41.41,0,0,0,506.59,175.13Z"/><path class="cls-26" d="M504.2,176.82l-1.43,1.93a.47.47,0,0,0,.07.63.68.68,0,0,0,.28.07.43.43,0,0,0,.35-.17l1.16-1.58h.63a.41.41,0,0,0,.42-.43.42.42,0,0,0-.42-.45Z"/><path class="cls-26" d="M532,186.3a.48.48,0,0,0-.32.13.46.46,0,0,0-.11.32.35.35,0,0,0,.11.28.63.63,0,0,0,.14.1s.14,0,.17,0a1,1,0,0,0,.32-.07s0-.11.07-.14.07-.14.07-.18v-.07c-.07-.06-.07-.06-.07-.1s0,0,0-.1,0,0,0-.08A.42.42,0,0,0,532,186.3Z"/><path class="cls-26" d="M531,187.17c0,.07,0,.07-.11.07s0,0-.06,0,0,0-.11,0,0,.11-.07.14a.38.38,0,0,0,0,.18,1.39,1.39,0,0,0,0,.17s0,.07.07.14a.49.49,0,0,0,.31.11,1,1,0,0,0,.39-.11.36.36,0,0,0,.14-.31.89.89,0,0,0,0-.18s-.07-.1-.11-.14,0,0-.07,0-.07,0-.11,0,0-.07-.07-.07Z"/><path class="cls-26" d="M530.19,185.42l-.17,0s-.07.07-.14.11a.46.46,0,0,0-.1.31.36.36,0,0,0,.42.42.46.46,0,0,0,.31-.1.5.5,0,0,0,.15-.32.56.56,0,0,0-.15-.31A.41.41,0,0,0,530.19,185.42Z"/><path class="cls-26" d="M522.3,186.29a.35.35,0,0,0-.17,0s-.07.07-.14.1a.52.52,0,0,0-.11.32.38.38,0,0,0,.42.42.48.48,0,0,0,.32-.11.5.5,0,0,0,.14-.31.55.55,0,0,0-.14-.32A.45.45,0,0,0,522.3,186.29Z"/><path class="cls-26" d="M523.25,187.17a.55.55,0,0,0-.38.14s0,.07-.07.14a.26.26,0,0,0,0,.18.32.32,0,0,0,.11.27c.07.07.1.07.13.11s.15,0,.18,0a.75.75,0,0,0,.36-.11c.06-.11.13-.17.13-.31s-.07-.14-.07-.18a.33.33,0,0,0-.06-.14s0,0-.11,0,0,0-.07,0S523.32,187.17,523.25,187.17Z"/><path class="cls-26" d="M524.06,185.42a.44.44,0,0,0-.32.14.46.46,0,0,0-.1.31.36.36,0,0,0,.42.42.38.38,0,0,0,.32-.14s0-.07.07-.1.07-.14.07-.18a.61.61,0,0,0-.14-.31s-.11,0-.14-.11A.57.57,0,0,0,524.06,185.42Z"/><path class="cls-26" d="M519.46,174.89a8.83,8.83,0,0,0-2.31,6v5.73a8.06,8.06,0,0,0,.42,2.7l.84-.25a7.34,7.34,0,0,1-.38-2.45v-5.73a7.74,7.74,0,0,1,2.1-5.33Z"/><path class="cls-26" d="M504.73,193.21a1.74,1.74,0,0,0-.88.24l-5.26,3a1.85,1.85,0,0,0-.88,1.54v6.1a1.79,1.79,0,0,0,.88,1.55l5.26,3a1.82,1.82,0,0,0,.88.21,1.93,1.93,0,0,0,.88-.21l5.26-3a1.9,1.9,0,0,0,.88-1.55V198a1.79,1.79,0,0,0-.88-1.54l-5.26-3A1.71,1.71,0,0,0,504.73,193.21Zm0,.87a.84.84,0,0,1,.42.1l5.26,3.06a.79.79,0,0,1,.46.74v6.1a.89.89,0,0,1-.46.73l-5.26,3a.71.71,0,0,1-.43.13.84.84,0,0,1-.45-.13l-5.26-3a.87.87,0,0,1-.42-.73V198a.88.88,0,0,1,.42-.74l5.26-3.06A1,1,0,0,1,504.73,194.08Z"/><path class="cls-26" d="M504.73,193.24v.87a.63.63,0,0,1,.42.14l5.26,3a.8.8,0,0,1,.46.73v6.1a.86.86,0,0,1-.46.74l-5.26,3a.58.58,0,0,1-.42.14v.88a1.93,1.93,0,0,0,.88-.21l5.26-3a1.9,1.9,0,0,0,.88-1.55V198a1.79,1.79,0,0,0-.88-1.54l-5.26-3A2,2,0,0,0,504.73,193.24Z"/><path class="cls-28" d="M505,198.44a.42.42,0,0,0-.39.23l-2.22,4.39a.4.4,0,0,0,.18.56.41.41,0,0,0,.23.07.43.43,0,0,0,.37-.24l1.79-3.58,1.78,3.58c.11.17.21.28.39.28s.14-.07.28-.11.25-.35.18-.56l-2.21-4.39A.4.4,0,0,0,505,198.44Z"/><path class="cls-28" d="M526.37,171.63a8.27,8.27,0,0,0-1.85.21.44.44,0,0,0,.07.87h.1a9.12,9.12,0,0,1,1.65-.15,9.74,9.74,0,0,1,1.69.15h.06a.51.51,0,0,0,.46-.35.45.45,0,0,0-.35-.53A8,8,0,0,0,526.37,171.63Z"/><path class="cls-18" d="M511.43,169a8.8,8.8,0,0,0-8.77,8.77v5.68a8.79,8.79,0,0,0,3.86,7.3,10.36,10.36,0,0,1-.39,2.49l-.31-.17a2.16,2.16,0,0,0-1.1-.29,2,2,0,0,0-1.08.29l-5.26,3a2.3,2.3,0,0,0-1.12,1.9v6.1a2.29,2.29,0,0,0,1.12,1.9l5.26,3a2.49,2.49,0,0,0,1.09.31,2.08,2.08,0,0,0,1.09-.31l5.26-3a2.26,2.26,0,0,0,1.09-1.9v-3.54l5-5a5.08,5.08,0,0,0,4.2,2.66,4.31,4.31,0,0,1-4.13,2.63.42.42,0,0,0-.43.46.41.41,0,0,0,.43.42,5,5,0,0,0,4.45-2.35,4.82,4.82,0,0,0,4.63,3.47,4.89,4.89,0,0,0,4.66-3.47,5,5,0,0,0,4.42,2.35.41.41,0,0,0,.43-.42.45.45,0,0,0-.43-.49c-4.55,0-5-5.33-5-6.49a8.73,8.73,0,0,0,4.74-7.75v-5.73a8.91,8.91,0,0,0-3.93-7.33,4.84,4.84,0,0,0-9.65,0,10.43,10.43,0,0,0-1.75,1.55A8.81,8.81,0,0,0,511.43,169Zm-6.7,24.6a1.28,1.28,0,0,1,.67.17l5.26,3a1.33,1.33,0,0,1,.63,1.16v6.1a1.28,1.28,0,0,1-.63,1.12l-5.26,3a1.41,1.41,0,0,1-.68.18,1.26,1.26,0,0,1-.66-.18l-5.26-3a1.33,1.33,0,0,1-.67-1.12V198a1.39,1.39,0,0,1,.67-1.16l5.26-3A1.2,1.2,0,0,1,504.73,193.63Zm24.8,1.08a12,12,0,0,0,.77,3.3,3.95,3.95,0,0,1-7.89,0,10.12,10.12,0,0,0,.74-3.3,8.07,8.07,0,0,0,3.19.63A8,8,0,0,0,529.53,194.71ZM515.92,191a11.45,11.45,0,0,0,.81,3.64l-4.6,4.6V198a2.13,2.13,0,0,0-1.05-1.9l-4.18-2.42a9.38,9.38,0,0,0,.46-2.45,8.52,8.52,0,0,0,4.07,1A8.77,8.77,0,0,0,515.92,191Zm2.11-1.72a8.76,8.76,0,0,0,4.27,5.05,11.25,11.25,0,0,1-.55,3,4.27,4.27,0,0,1-4-2.67.34.34,0,0,0,0-.1,10.71,10.71,0,0,1-.87-3.9s0-.14-.07-.17A11,11,0,0,0,518,189.28Zm9.82-10.81a8.56,8.56,0,0,0,6.38,3.22v4.85a7.89,7.89,0,1,1-15.78,0v-2.43A11.07,11.07,0,0,0,527.85,178.47Zm-21.12-2.74,2.56,1.54h7.4l.67.67.38,1.27a12.47,12.47,0,0,0-.17,1.64v5.73a6.39,6.39,0,0,0,.17,1.64,7.82,7.82,0,0,1-6.31,3.16,7.91,7.91,0,0,1-7.89-7.9v-4.73l1.09-1.44H506ZM526.34,173a7.13,7.13,0,0,1,2,.28,10.09,10.09,0,0,1-9.85,10v-2.43A7.93,7.93,0,0,1,526.34,173Zm2.84.53a7.9,7.9,0,0,1,5.05,7.36,7.73,7.73,0,0,1-6-3.26A10.71,10.71,0,0,0,529.18,173.49Zm-17.79-3.58a8,8,0,0,1,7.72,6,10.44,10.44,0,0,0-.91,1.76l-.1-.22L517,176.36H509.5L507,174.82v-3.54A7.76,7.76,0,0,1,511.39,169.91Zm-5.26,2.1v3l-.7,1.4h-1.19l-.6.8A7.45,7.45,0,0,1,506.13,172Zm20.21-2.1A3.92,3.92,0,0,1,530.2,173a8.32,8.32,0,0,0-7.72,0A3.92,3.92,0,0,1,526.34,169.91Z"/><text class="cls-24" transform="translate(255.74 163.12)">CONTROLLER</text><path class="cls-29" d="M270.43,123.74V140.1a2.33,2.33,0,0,0,1.18,2l14.17,8.19a2.35,2.35,0,0,0,2.35,0l14.17-8.19a2.32,2.32,0,0,0,1.17-2V123.74a2.35,2.35,0,0,0-1.17-2l-14.17-8.18a2.35,2.35,0,0,0-2.35,0l-14.17,8.18A2.36,2.36,0,0,0,270.43,123.74Z"/><path class="cls-29" d="M286.88,152a1.43,1.43,0,1,1,1.43-1.43A1.43,1.43,0,0,1,286.88,152Z"/><path class="cls-27" d="M286.88,149.42a1.18,1.18,0,1,1-1.18,1.18,1.18,1.18,0,0,1,1.18-1.18m0-.48a1.67,1.67,0,1,0,1.67,1.66,1.66,1.66,0,0,0-1.67-1.66Z"/><path class="cls-30" d="M286.94,127.25a4.55,4.55,0,0,0,0,9.09.52.52,0,0,0,.54-.55.53.53,0,0,0-.54-.59,3.41,3.41,0,1,1,0-6.81.52.52,0,0,0,.54-.55A.53.53,0,0,0,286.94,127.25Z"/><path class="cls-30" d="M286.94,125a.55.55,0,0,0-.59.59.54.54,0,0,0,.59.55,5.68,5.68,0,0,1,0,11.36.54.54,0,0,0-.59.59.53.53,0,0,0,.59.54,6.82,6.82,0,0,0,0-13.63Z"/><path class="cls-2" d="M286.94,127.84a4,4,0,1,0,3.95,4A3.94,3.94,0,0,0,286.94,127.84Zm0,1.14a2.77,2.77,0,0,1,2.81,2.82,2.8,2.8,0,0,1-2.81,2.86,2.85,2.85,0,0,1-2.86-2.86A2.81,2.81,0,0,1,286.94,129Z"/><path class="cls-2" d="M286.94,124.44a7.38,7.38,0,1,0,7.36,7.36A7.36,7.36,0,0,0,286.94,124.44Zm0,1.13a6.25,6.25,0,0,1,0,12.5,6.25,6.25,0,1,1,0-12.5Z"/><path class="cls-2" d="M286.94,119a2.16,2.16,0,0,0-1.86,1l-1.46,2.19a1.27,1.27,0,0,1-1,.52l-.21,0-2.5-.5a1.76,1.76,0,0,0-.46-.06,2.36,2.36,0,0,0-1.58.65,2.16,2.16,0,0,0-.59,2l.5,2.5a1.45,1.45,0,0,1-.5,1.23l-2.18,1.41a2.2,2.2,0,0,0-1,1.86,2.16,2.16,0,0,0,1,1.86l2.18,1.45a1.24,1.24,0,0,1,.5,1.19l-.5,2.49a2.15,2.15,0,0,0,.59,2.05,2.23,2.23,0,0,0,1.62.67,2.77,2.77,0,0,0,.42,0l2.5-.55h.14a1.22,1.22,0,0,1,1,.56l1.46,2.13a2.2,2.2,0,0,0,1.86,1,2.26,2.26,0,0,0,1.86-1l1.41-2.13a1.33,1.33,0,0,1,1-.57l.2,0,2.49.55.38,0a2.53,2.53,0,0,0,1.67-.67,2.15,2.15,0,0,0,.59-2.05l-.5-2.49a1.32,1.32,0,0,1,.5-1.19l2.18-1.45a2.19,2.19,0,0,0,1-1.86,2.22,2.22,0,0,0-1-1.86l-2.18-1.41a1.35,1.35,0,0,1-.5-1.23l.5-2.5a2.16,2.16,0,0,0-.59-2,2.21,2.21,0,0,0-1.55-.66,1.77,1.77,0,0,0-.5.07l-2.49.5h-.14a1.47,1.47,0,0,1-1.09-.5L288.8,120A2.23,2.23,0,0,0,286.94,119Zm0,1.22a1.1,1.1,0,0,1,.95.5l1.41,2.18a2.32,2.32,0,0,0,1.9,1,2.38,2.38,0,0,0,.46,0l2.5-.5a.89.89,0,0,1,.31-.06,1,1,0,0,1,.69.33,1.14,1.14,0,0,1,.27,1l-.5,2.5a2.31,2.31,0,0,0,1,2.36l2.18,1.41a1.12,1.12,0,0,1,.5,1,1.26,1.26,0,0,1-.5,1l-2.18,1.41a2.23,2.23,0,0,0-1,2.32l.5,2.5a.91.91,0,0,1-.27,1,1.08,1.08,0,0,1-.81.33h-.19l-2.5-.55a2.69,2.69,0,0,0-.4,0,2.29,2.29,0,0,0-2,1L287.89,143a1.1,1.1,0,0,1-1.9,0l-1.46-2.13a2.2,2.2,0,0,0-1.86-1.05,1.38,1.38,0,0,0-.45.05l-2.5.55-.28,0a.9.9,0,0,1-.72-.35,1.29,1.29,0,0,1-.32-1l.55-2.5a2.27,2.27,0,0,0-1-2.32l-2.14-1.41a1.15,1.15,0,0,1-.5-1,1.12,1.12,0,0,1,.5-1l2.14-1.41a2.36,2.36,0,0,0,1-2.36l-.55-2.5a1,1,0,0,1,.32-1,1.12,1.12,0,0,1,.75-.3l.25,0,2.5.5a2.38,2.38,0,0,0,.46,0,2.18,2.18,0,0,0,1.85-1l1.46-2.18A1.1,1.1,0,0,1,286.94,120.21Z"/><path class="cls-31" d="M287.35,115.2h0a1.42,1.42,0,0,1-1.48-1.37,1.34,1.34,0,0,1,.43-1,1.54,1.54,0,0,1,1.05-.4,1.37,1.37,0,1,1,0,2.73Z"/><path class="cls-32" d="M122.91,41h0a25.88,25.88,0,1,1,25.88,25.88A25.88,25.88,0,0,1,122.91,41Z"/><text class="cls-24" transform="translate(253.41 8.3)">INTELLIGENCE</text><line class="cls-33" y1="175.91" x2="495.51" y2="175.91"/><rect class="cls-27" x="122.86" y="213.1" width="29.81" height="12.84"/><path class="cls-18" d="M150.9,216.79a2,2,0,0,0-2,1.65h-3.75a.37.37,0,0,0-.39.39.41.41,0,0,0,.39.43h3.75a2.06,2.06,0,0,0,4.08-.43A2.05,2.05,0,0,0,150.9,216.79Zm0,.82a1.23,1.23,0,0,1,1.25,1.22,1.28,1.28,0,0,1-1.25,1.25,1.23,1.23,0,0,1-1.22-1.25A1.2,1.2,0,0,1,150.9,217.61Z"/><path class="cls-18" d="M126.07,215.54a3.29,3.29,0,1,0,3.26,3.72h3.58a.41.41,0,0,0,.4-.43.38.38,0,0,0-.4-.39h-3.58A3.33,3.33,0,0,0,126.07,215.54Zm0,.82a2.47,2.47,0,1,1-2.47,2.47A2.49,2.49,0,0,1,126.07,216.36Z"/><path class="cls-18" d="M147.08,208.5a2,2,0,0,0-1.44.63,2.09,2.09,0,0,0-.24,2.6l-2.4,2.36a.44.44,0,0,0,0,.6c0,.13.14.16.27.16a.29.29,0,0,0,.26-.13l2.4-2.37a2,2,0,0,0,1.15.33,2,2,0,0,0,1.45-.63,2.15,2.15,0,0,0,0-2.92A2.12,2.12,0,0,0,147.08,208.5Zm0,.89a1.05,1.05,0,0,1,.86.36,1.18,1.18,0,0,1,0,1.71,1.23,1.23,0,0,1-.87.35,1.13,1.13,0,0,1-.84-.35,1.16,1.16,0,0,1,0-1.71A1.07,1.07,0,0,1,147.08,209.39Z"/><path class="cls-18" d="M143.25,222.82a.39.39,0,0,0-.28.12.44.44,0,0,0,0,.6l2.37,2.37a2.09,2.09,0,0,0,.26,2.6,2.16,2.16,0,0,0,1.45.62,2.1,2.1,0,0,0,1.45-.62,2.19,2.19,0,0,0,0-2.93,2,2,0,0,0-2.57-.23l-2.4-2.41A.39.39,0,0,0,143.25,222.82Zm3.83,3a1.08,1.08,0,0,1,.86.39,1.18,1.18,0,0,1,0,1.71,1.23,1.23,0,0,1-.87.35,1.13,1.13,0,0,1-.84-.35,1.16,1.16,0,0,1,0-1.71A1.1,1.1,0,0,1,147.08,225.81Z"/><path class="cls-34" d="M139,211.85a1.92,1.92,0,0,0-1,.27l-4.28,2.47a2.14,2.14,0,0,0-1,1.77v4.94a2.12,2.12,0,0,0,1,1.78l4.28,2.47a2,2,0,0,0,1,.29,2,2,0,0,0,1-.29l4.27-2.47a2,2,0,0,0,1-1.78v-4.94a2.09,2.09,0,0,0-1-1.77l-4.27-2.47A2.12,2.12,0,0,0,139,211.85Z"/><path class="cls-34" d="M139,212.68a1.19,1.19,0,0,1,.62.16l4.28,2.47a1.18,1.18,0,0,1,.59,1.05v4.94a1.17,1.17,0,0,1-.59,1l-4.28,2.47a1.23,1.23,0,0,1-.64.17,1.1,1.1,0,0,1-.61-.17l-4.27-2.47a1.18,1.18,0,0,1-.63-1v-4.94a1.19,1.19,0,0,1,.63-1.05l4.27-2.47A1.14,1.14,0,0,1,139,212.68Z"/><path class="cls-2" d="M139.05,216.36a.37.37,0,0,0-.35.2l-2.08,4.11a.41.41,0,0,0,.17.56.54.54,0,0,0,.21.05.37.37,0,0,0,.35-.21l1.68-3.39,1.67,3.39a.39.39,0,0,0,.36.23.44.44,0,0,0,.27-.07.48.48,0,0,0,.16-.56l-2.07-4.11A.44.44,0,0,0,139.05,216.36Z"/><rect class="cls-27" x="191.01" y="212.29" width="29.81" height="12.84"/><path class="cls-18" d="M219.05,216a2.06,2.06,0,0,0-2,1.65h-3.75a.37.37,0,0,0-.39.39.41.41,0,0,0,.39.43H217a2.09,2.09,0,0,0,2,1.65,2.06,2.06,0,1,0,0-4.12Zm0,.83A1.22,1.22,0,0,1,220.3,218a1.27,1.27,0,0,1-1.25,1.25,1.21,1.21,0,0,1-1.22-1.25A1.19,1.19,0,0,1,219.05,216.81Z"/><path class="cls-18" d="M194.22,214.73a3.3,3.3,0,1,0,3.25,3.72h3.59a.41.41,0,0,0,.39-.43.37.37,0,0,0-.39-.39h-3.59A3.33,3.33,0,0,0,194.22,214.73Zm0,.83a2.47,2.47,0,1,1-2.47,2.46A2.48,2.48,0,0,1,194.22,215.56Z"/><path class="cls-18" d="M215.23,207.69a2,2,0,0,0-1.45.63,2.1,2.1,0,0,0-.23,2.6l-2.4,2.37a.42.42,0,0,0,0,.59c0,.13.13.16.27.16a.3.3,0,0,0,.26-.13l2.4-2.37a2,2,0,0,0,1.15.33,2,2,0,0,0,1.45-.62,2.1,2.1,0,0,0-1.45-3.56Zm0,.89a1.05,1.05,0,0,1,.86.36,1.18,1.18,0,0,1,0,1.71,1.23,1.23,0,0,1-.87.35,1.13,1.13,0,0,1-.84-.35,1.16,1.16,0,0,1,0-1.71A1.07,1.07,0,0,1,215.23,208.58Z"/><path class="cls-18" d="M211.4,222a.37.37,0,0,0-.28.13.42.42,0,0,0,0,.59l2.37,2.37a2.09,2.09,0,0,0,.26,2.6,2.16,2.16,0,0,0,1.45.62,2.08,2.08,0,0,0,1.44-.62,2.17,2.17,0,0,0,0-2.93,2,2,0,0,0-1.41-.59,2.08,2.08,0,0,0-1.15.36l-2.4-2.4A.37.37,0,0,0,211.4,222Zm3.83,3a1.08,1.08,0,0,1,.86.39,1.19,1.19,0,0,1,0,1.72,1.22,1.22,0,0,1-.87.34,1.12,1.12,0,0,1-.84-.34,1.17,1.17,0,0,1,0-1.72A1.1,1.1,0,0,1,215.23,225Z"/><path class="cls-34" d="M207.16,211a2,2,0,0,0-1,.27l-4.27,2.47a2.12,2.12,0,0,0-1,1.78v4.93a2.09,2.09,0,0,0,1,1.78l4.27,2.47a1.91,1.91,0,0,0,1,.29,1.86,1.86,0,0,0,1-.29l4.28-2.47a2,2,0,0,0,1-1.78v-4.93a2.12,2.12,0,0,0-1-1.78l-4.28-2.47A2.06,2.06,0,0,0,207.16,211Z"/><path class="cls-34" d="M207.17,211.87a1.13,1.13,0,0,1,.63.17l4.27,2.46a1.18,1.18,0,0,1,.6,1.06v4.93a1.18,1.18,0,0,1-.6,1.06L207.8,224a1.24,1.24,0,0,1-.64.18,1.09,1.09,0,0,1-.61-.18l-4.28-2.46a1.22,1.22,0,0,1-.62-1.06v-4.93a1.22,1.22,0,0,1,.62-1.06l4.28-2.46A1.06,1.06,0,0,1,207.17,211.87Z"/><path class="cls-2" d="M207.19,215.56a.36.36,0,0,0-.34.19l-2.08,4.12a.41.41,0,0,0,.17.56.52.52,0,0,0,.21,0,.37.37,0,0,0,.35-.21l1.67-3.39,1.68,3.39a.38.38,0,0,0,.36.23.51.51,0,0,0,.27-.06.49.49,0,0,0,.16-.56l-2.07-4.12A.44.44,0,0,0,207.19,215.56Z"/><rect class="cls-27" x="256.41" y="212.29" width="29.81" height="12.84"/><path class="cls-18" d="M284.45,216a2.06,2.06,0,0,0-2,1.65h-3.75a.37.37,0,0,0-.39.39.41.41,0,0,0,.39.43h3.75a2.09,2.09,0,0,0,2,1.65,2.06,2.06,0,1,0,0-4.12Zm0,.83A1.22,1.22,0,0,1,285.7,218a1.26,1.26,0,0,1-1.25,1.25,1.22,1.22,0,0,1-1.22-1.25A1.19,1.19,0,0,1,284.45,216.81Z"/><path class="cls-18" d="M259.62,214.73a3.3,3.3,0,1,0,3.26,3.72h3.58a.41.41,0,0,0,.4-.43.38.38,0,0,0-.4-.39h-3.58A3.34,3.34,0,0,0,259.62,214.73Zm0,.83a2.47,2.47,0,1,1-2.47,2.46A2.49,2.49,0,0,1,259.62,215.56Z"/><path class="cls-18" d="M280.63,207.69a2,2,0,0,0-1.44.63,2.08,2.08,0,0,0-.23,2.6l-2.41,2.37a.42.42,0,0,0,0,.59c0,.13.14.16.27.16a.28.28,0,0,0,.26-.13l2.4-2.37a2,2,0,0,0,1.15.33,2,2,0,0,0,1.45-.62,2.1,2.1,0,0,0-1.45-3.56Zm0,.89a1.05,1.05,0,0,1,.86.36,1.18,1.18,0,0,1,0,1.71,1.23,1.23,0,0,1-.87.35,1.13,1.13,0,0,1-.84-.35,1.16,1.16,0,0,1,0-1.71A1.07,1.07,0,0,1,280.63,208.58Z"/><path class="cls-18" d="M276.8,222a.37.37,0,0,0-.28.13.42.42,0,0,0,0,.59l2.37,2.37a2.09,2.09,0,0,0,.26,2.6,2.16,2.16,0,0,0,1.45.62,2.1,2.1,0,0,0,1.45-.62,2.19,2.19,0,0,0,0-2.93,2,2,0,0,0-1.41-.59,2.08,2.08,0,0,0-1.16.36l-2.4-2.4A.37.37,0,0,0,276.8,222Zm3.83,3a1.08,1.08,0,0,1,.86.39,1.19,1.19,0,0,1,0,1.72,1.22,1.22,0,0,1-.87.34,1.12,1.12,0,0,1-.84-.34,1.17,1.17,0,0,1,0-1.72A1.1,1.1,0,0,1,280.63,225Z"/><path class="cls-34" d="M272.56,211a1.92,1.92,0,0,0-1,.27l-4.28,2.47a2.15,2.15,0,0,0-1,1.78v4.93a2.11,2.11,0,0,0,1,1.78l4.28,2.47a1.94,1.94,0,0,0,2,0l4.27-2.47a2,2,0,0,0,1-1.78v-4.93a2.09,2.09,0,0,0-1-1.78l-4.27-2.47A2.12,2.12,0,0,0,272.56,211Z"/><path class="cls-34" d="M272.58,211.87a1.12,1.12,0,0,1,.62.17l4.28,2.46a1.19,1.19,0,0,1,.59,1.06v4.93a1.19,1.19,0,0,1-.59,1.06L273.2,224a1.24,1.24,0,0,1-.64.18A1.11,1.11,0,0,1,272,224l-4.27-2.46a1.21,1.21,0,0,1-.63-1.06v-4.93a1.21,1.21,0,0,1,.63-1.06L272,212A1.07,1.07,0,0,1,272.58,211.87Z"/><path class="cls-2" d="M272.6,215.56a.37.37,0,0,0-.35.19l-2.07,4.12a.41.41,0,0,0,.16.56.52.52,0,0,0,.21,0,.37.37,0,0,0,.35-.21l1.68-3.39,1.67,3.39a.38.38,0,0,0,.37.23.48.48,0,0,0,.26-.06.49.49,0,0,0,.16-.56L273,215.75A.43.43,0,0,0,272.6,215.56Z"/><rect class="cls-27" x="412.72" y="212.29" width="29.81" height="12.84"/><path class="cls-18" d="M440.75,216a2,2,0,0,0-2,1.65H435a.38.38,0,0,0-.4.39.41.41,0,0,0,.4.43h3.75a2.06,2.06,0,1,0,2-2.47Zm0,.83A1.22,1.22,0,0,1,442,218a1.26,1.26,0,0,1-1.25,1.25,1.21,1.21,0,0,1-1.21-1.25A1.18,1.18,0,0,1,440.75,216.81Z"/><path class="cls-18" d="M415.92,214.73a3.3,3.3,0,1,0,3.26,3.72h3.59a.41.41,0,0,0,.39-.43.37.37,0,0,0-.39-.39h-3.59A3.34,3.34,0,0,0,415.92,214.73Zm0,.83a2.47,2.47,0,1,1-2.46,2.46A2.49,2.49,0,0,1,415.92,215.56Z"/><path class="cls-18" d="M436.94,207.69a2,2,0,0,0-1.45.63,2.08,2.08,0,0,0-.23,2.6l-2.4,2.37a.4.4,0,0,0,0,.59c0,.13.13.16.26.16a.31.31,0,0,0,.27-.13l2.4-2.37a2,2,0,0,0,1.15.33,2,2,0,0,0,1.44-.62,2.1,2.1,0,0,0-1.44-3.56Zm0,.89a1,1,0,0,1,.85.36,1.16,1.16,0,0,1,0,1.71,1.23,1.23,0,0,1-.87.35,1.16,1.16,0,0,1-.84-.35,1.18,1.18,0,0,1,0-1.71A1.09,1.09,0,0,1,436.94,208.58Z"/><path class="cls-18" d="M433.11,222a.37.37,0,0,0-.28.13.4.4,0,0,0,0,.59l2.36,2.37a2.1,2.1,0,0,0,.27,2.6,2.15,2.15,0,0,0,1.44.62,2.08,2.08,0,0,0,1.45-.62,2.17,2.17,0,0,0,0-2.93,2,2,0,0,0-1.41-.59,2,2,0,0,0-1.15.36l-2.4-2.4A.4.4,0,0,0,433.11,222Zm3.83,3a1,1,0,0,1,.85.39,1.17,1.17,0,0,1,0,1.72,1.22,1.22,0,0,1-.87.34,1.15,1.15,0,0,1-.84-.34,1.19,1.19,0,0,1,0-1.72A1.12,1.12,0,0,1,436.94,225Z"/><path class="cls-34" d="M428.87,211a2,2,0,0,0-1,.27l-4.27,2.47a2.13,2.13,0,0,0-1.06,1.78v4.93a2.1,2.1,0,0,0,1.06,1.78l4.27,2.47a1.94,1.94,0,0,0,2,0l4.28-2.47a2,2,0,0,0,1-1.78v-4.93a2.12,2.12,0,0,0-1-1.78l-4.28-2.47A2.06,2.06,0,0,0,428.87,211Z"/><path class="cls-34" d="M428.88,211.87a1.13,1.13,0,0,1,.63.17l4.27,2.46a1.19,1.19,0,0,1,.59,1.06v4.93a1.19,1.19,0,0,1-.59,1.06L429.51,224a1.24,1.24,0,0,1-.64.18,1.09,1.09,0,0,1-.61-.18L424,221.55a1.22,1.22,0,0,1-.62-1.06v-4.93a1.22,1.22,0,0,1,.62-1.06l4.28-2.46A1,1,0,0,1,428.88,211.87Z"/><path class="cls-2" d="M428.9,215.56a.39.39,0,0,0-.35.19l-2.07,4.12a.42.42,0,0,0,.16.56.59.59,0,0,0,.21,0,.37.37,0,0,0,.35-.21l1.68-3.39,1.68,3.39a.38.38,0,0,0,.36.23.46.46,0,0,0,.26-.06.49.49,0,0,0,.17-.56l-2.07-4.12A.46.46,0,0,0,428.9,215.56Z"/><rect class="cls-27" x="347.63" y="212.29" width="29.81" height="12.84"/><path class="cls-18" d="M375.67,216a2.06,2.06,0,0,0-2,1.65h-3.75a.37.37,0,0,0-.39.39.41.41,0,0,0,.39.43h3.75a2.09,2.09,0,0,0,2,1.65,2.06,2.06,0,1,0,0-4.12Zm0,.83a1.22,1.22,0,0,1,1.25,1.21,1.27,1.27,0,0,1-1.25,1.25,1.22,1.22,0,0,1-1.22-1.25A1.19,1.19,0,0,1,375.67,216.81Z"/><path class="cls-18" d="M350.84,214.73a3.3,3.3,0,1,0,3.26,3.72h3.58a.41.41,0,0,0,.39-.43.37.37,0,0,0-.39-.39H354.1A3.34,3.34,0,0,0,350.84,214.73Zm0,.83a2.47,2.47,0,1,1-2.47,2.46A2.49,2.49,0,0,1,350.84,215.56Z"/><path class="cls-18" d="M371.85,207.69a2,2,0,0,0-1.44.63,2.09,2.09,0,0,0-.24,2.6l-2.4,2.37a.42.42,0,0,0,0,.59c0,.13.14.16.27.16a.29.29,0,0,0,.26-.13l2.4-2.37a2,2,0,0,0,1.15.33,2,2,0,0,0,1.45-.62,2.1,2.1,0,0,0-1.45-3.56Zm0,.89a1.05,1.05,0,0,1,.86.36,1.18,1.18,0,0,1,0,1.71,1.23,1.23,0,0,1-.87.35,1.13,1.13,0,0,1-.84-.35,1.16,1.16,0,0,1,0-1.71A1.07,1.07,0,0,1,371.85,208.58Z"/><path class="cls-18" d="M368,222a.37.37,0,0,0-.28.13.42.42,0,0,0,0,.59l2.37,2.37a2.09,2.09,0,0,0,.26,2.6,2.16,2.16,0,0,0,1.45.62,2.1,2.1,0,0,0,1.45-.62,2.19,2.19,0,0,0,0-2.93,2,2,0,0,0-1.42-.59,2.08,2.08,0,0,0-1.15.36l-2.4-2.4A.37.37,0,0,0,368,222Zm3.83,3a1.08,1.08,0,0,1,.86.39,1.19,1.19,0,0,1,0,1.72,1.22,1.22,0,0,1-.87.34,1.12,1.12,0,0,1-.84-.34,1.17,1.17,0,0,1,0-1.72A1.1,1.1,0,0,1,371.85,225Z"/><path class="cls-34" d="M363.78,211a1.92,1.92,0,0,0-1,.27l-4.28,2.47a2.15,2.15,0,0,0-1.05,1.78v4.93a2.11,2.11,0,0,0,1.05,1.78l4.28,2.47a1.88,1.88,0,0,0,1,.29,1.91,1.91,0,0,0,1-.29l4.27-2.47a2,2,0,0,0,1-1.78v-4.93a2.09,2.09,0,0,0-1-1.78l-4.27-2.47A2.12,2.12,0,0,0,363.78,211Z"/><path class="cls-34" d="M363.8,211.87a1.12,1.12,0,0,1,.62.17l4.28,2.46a1.19,1.19,0,0,1,.59,1.06v4.93a1.19,1.19,0,0,1-.59,1.06L364.42,224a1.24,1.24,0,0,1-.64.18,1.11,1.11,0,0,1-.61-.18l-4.27-2.46a1.21,1.21,0,0,1-.63-1.06v-4.93a1.21,1.21,0,0,1,.63-1.06l4.27-2.46A1.07,1.07,0,0,1,363.8,211.87Z"/><path class="cls-2" d="M363.82,215.56a.37.37,0,0,0-.35.19l-2.08,4.12a.42.42,0,0,0,.17.56.52.52,0,0,0,.21,0,.37.37,0,0,0,.35-.21l1.68-3.39,1.67,3.39a.38.38,0,0,0,.36.23.49.49,0,0,0,.27-.06.49.49,0,0,0,.16-.56l-2.07-4.12A.43.43,0,0,0,363.82,215.56Z"/><path class="cls-10" d="M138.33,262.83l-1.3-1.29h-12l-1.3,1.29v1.95h14.58v-1.95Z"/><path class="cls-35" d="M138,264.45H124.08V263l1.09-1.1h11.74L138,263Z"/><path class="cls-10" d="M138.33,253.76l-1.3-1.29h-12l-1.3,1.29v2h14.58v-2Z"/><path class="cls-35" d="M138,255.38H124.08v-1.49l1.09-1.1h11.74l1.1,1.1Z"/><path class="cls-10" d="M138.33,244.69,137,243.4h-12l-1.3,1.29v1.95h14.58v-1.95Z"/><g class="cls-36"><polygon class="cls-13" points="153.88 257.97 153.23 258.62 153.23 263.16 153.88 263.81 153.88 257.97"/></g><g class="cls-36"><polygon class="cls-13" points="122.13 257.97 122.13 263.81 122.78 263.16 122.78 258.62 122.13 257.97"/></g><path class="cls-13" d="M148.7,259.27a1.3,1.3,0,1,1-1.3,1.3,1.3,1.3,0,0,1,1.3-1.3m0-.65a1.95,1.95,0,1,0,1.94,1.95,2,2,0,0,0-1.94-1.95Z"/><circle class="cls-37" cx="148.7" cy="260.57" r="0.97"/><path class="cls-38" d="M151.06,260.52a2.27,2.27,0,1,1-4.53,0h-6.48"/><path class="cls-38" d="M125.79,260.52h0"/><path class="cls-38" d="M127.09,260.52h0"/><path class="cls-38" d="M128.39,260.52h0"/><path class="cls-38" d="M129.68,260.52h0"/><path class="cls-38" d="M131,260.52h0"/><path class="cls-38" d="M132.27,260.52h0"/><path class="cls-38" d="M133.57,260.52h0"/><path class="cls-38" d="M134.86,260.52h0"/><path class="cls-38" d="M136.16,260.52h0"/><path class="cls-38" d="M137.46,260.52h0"/><path class="cls-38" d="M125.15,259.87h0"/><path class="cls-38" d="M126.44,259.87h0"/><path class="cls-38" d="M127.74,259.87h0"/><path class="cls-38" d="M129,259.87h0"/><path class="cls-38" d="M130.33,259.87h0"/><path class="cls-38" d="M131.63,259.87h0"/><path class="cls-38" d="M132.92,259.87h0"/><path class="cls-38" d="M134.22,259.87h0"/><path class="cls-38" d="M135.51,259.87h0"/><path class="cls-38" d="M136.81,259.87h0"/><path class="cls-38" d="M138.1,259.87h0"/><path class="cls-38" d="M125.79,259.22h0"/><path class="cls-38" d="M127.09,259.22h0"/><path class="cls-38" d="M128.39,259.22h0"/><path class="cls-38" d="M129.68,259.22h0"/><path class="cls-38" d="M131,259.22h0"/><path class="cls-38" d="M132.27,259.22h0"/><path class="cls-38" d="M133.57,259.22h0"/><path class="cls-38" d="M134.86,259.22h0"/><path class="cls-38" d="M136.16,259.22h0"/><path class="cls-38" d="M137.46,259.22h0"/><line class="cls-38" x1="122.55" y1="264.08" x2="153.65" y2="264.08"/><polygon class="cls-13" points="152.91 265.43 123.1 265.43 122.78 264.78 153.23 264.78 152.91 265.43"/><g class="cls-36"><polygon class="cls-13" points="153.88 248.9 153.23 249.55 153.23 254.09 153.88 254.73 153.88 248.9"/></g><g class="cls-36"><polygon class="cls-13" points="122.13 248.9 122.13 254.73 122.78 254.09 122.78 249.55 122.13 248.9"/></g><path class="cls-13" d="M148.7,250.2a1.3,1.3,0,1,1-1.3,1.29,1.29,1.29,0,0,1,1.3-1.29m0-.65a1.95,1.95,0,1,0,1.94,1.94,2,2,0,0,0-1.94-1.94Z"/><circle class="cls-37" cx="148.7" cy="251.49" r="0.97"/><path class="cls-38" d="M151.06,251.45a2.27,2.27,0,1,1-4.53,0h-6.48"/><path class="cls-38" d="M125.79,251.45h0"/><path class="cls-38" d="M127.09,251.45h0"/><path class="cls-38" d="M128.39,251.45h0"/><path class="cls-38" d="M129.68,251.45h0"/><path class="cls-38" d="M131,251.45h0"/><path class="cls-38" d="M132.27,251.45h0"/><path class="cls-38" d="M133.57,251.45h0"/><path class="cls-38" d="M134.86,251.45h0"/><path class="cls-38" d="M136.16,251.45h0"/><path class="cls-38" d="M137.46,251.45h0"/><path class="cls-38" d="M125.15,250.8h0"/><path class="cls-38" d="M126.44,250.8h0"/><path class="cls-38" d="M127.74,250.8h0"/><path class="cls-38" d="M129,250.8h0"/><path class="cls-38" d="M130.33,250.8h0"/><path class="cls-38" d="M131.63,250.8h0"/><path class="cls-38" d="M132.92,250.8h0"/><path class="cls-38" d="M134.22,250.8h0"/><path class="cls-38" d="M135.51,250.8h0"/><path class="cls-38" d="M136.81,250.8h0"/><path class="cls-38" d="M138.1,250.8h0"/><path class="cls-38" d="M125.79,250.15h0"/><path class="cls-38" d="M127.09,250.15h0"/><path class="cls-38" d="M128.39,250.15h0"/><path class="cls-38" d="M129.68,250.15h0"/><path class="cls-38" d="M131,250.15h0"/><path class="cls-38" d="M132.27,250.15h0"/><path class="cls-38" d="M133.57,250.15h0"/><path class="cls-38" d="M134.86,250.15h0"/><path class="cls-38" d="M136.16,250.15h0"/><path class="cls-38" d="M137.46,250.15h0"/><line class="cls-38" x1="122.55" y1="255.01" x2="153.65" y2="255.01"/><line class="cls-35" x1="122.78" y1="256.03" x2="153.23" y2="256.03"/><g class="cls-36"><polygon class="cls-13" points="153.88 239.83 153.23 240.48 153.23 245.02 153.88 245.66 153.88 239.83"/></g><g class="cls-36"><polygon class="cls-13" points="122.13 239.83 122.13 245.66 122.78 245.02 122.78 240.48 122.13 239.83"/></g><path class="cls-13" d="M148.7,241.13a1.3,1.3,0,1,1-1.3,1.29,1.29,1.29,0,0,1,1.3-1.29m0-.65a1.95,1.95,0,1,0,1.94,1.94,2,2,0,0,0-1.94-1.94Z"/><circle class="cls-37" cx="148.7" cy="242.42" r="0.97"/><path class="cls-38" d="M151.06,242.38a2.27,2.27,0,1,1-4.53,0h-6.48"/><path class="cls-38" d="M125.79,242.38h0"/><path class="cls-38" d="M127.09,242.38h0"/><path class="cls-38" d="M128.39,242.38h0"/><path class="cls-38" d="M129.68,242.38h0"/><path class="cls-38" d="M131,242.38h0"/><path class="cls-38" d="M132.27,242.38h0"/><path class="cls-38" d="M133.57,242.38h0"/><path class="cls-38" d="M134.86,242.38h0"/><path class="cls-38" d="M136.16,242.38h0"/><path class="cls-38" d="M137.46,242.38h0"/><path class="cls-38" d="M125.15,241.73h0"/><path class="cls-38" d="M126.44,241.73h0"/><path class="cls-38" d="M127.74,241.73h0"/><path class="cls-38" d="M129,241.73h0"/><path class="cls-38" d="M130.33,241.73h0"/><path class="cls-38" d="M131.63,241.73h0"/><path class="cls-38" d="M132.92,241.73h0"/><path class="cls-38" d="M134.22,241.73h0"/><path class="cls-38" d="M135.51,241.73h0"/><path class="cls-38" d="M136.81,241.73h0"/><path class="cls-38" d="M138.1,241.73h0"/><path class="cls-38" d="M125.79,241.08h0"/><path class="cls-38" d="M127.09,241.08h0"/><path class="cls-38" d="M128.39,241.08h0"/><path class="cls-38" d="M129.68,241.08h0"/><path class="cls-38" d="M131,241.08h0"/><path class="cls-38" d="M132.27,241.08h0"/><path class="cls-38" d="M133.57,241.08h0"/><path class="cls-38" d="M134.86,241.08h0"/><path class="cls-38" d="M136.16,241.08h0"/><path class="cls-38" d="M137.46,241.08h0"/><line class="cls-38" x1="122.55" y1="245.94" x2="153.65" y2="245.94"/><line class="cls-35" x1="122.78" y1="246.96" x2="153.23" y2="246.96"/><path class="cls-13" d="M153,238.86l.91.91V246H122.13v-6.22l.91-.91H153m.27-.65H122.77l-.19.19-.91.91-.19.19v7.14h33.05V239.5l-.19-.19-.91-.91-.19-.19Z"/><path class="cls-13" d="M153,247.93l.91.91v6.22H122.13v-6.22l.91-.91H153m.27-.65H122.77l-.19.19-.91.91-.19.19v7.14h33.05v-7.14l-.19-.19-.91-.91-.19-.19Z"/><path class="cls-13" d="M153,257l.91.91v6.22H122.13v-6.22L123,257H153m.27-.65H122.77l-.19.19-.91.91-.19.19v7.14h33.05v-7.14l-.19-.19-.91-.91-.19-.19Z"/><path class="cls-35" d="M138,246.31H124.08v-1.49l1.09-1.1h11.74l1.1,1.1Z"/><polygon class="cls-10" points="196.37 245.71 215.67 245.71 215.67 247.57 198.24 247.57 198.24 249.13 196.37 249.13 196.37 245.71"/><g class="cls-36"><polygon class="cls-13" points="196.99 246.33 196.99 263.76 197.62 263.14 197.62 246.95 196.99 246.33"/></g><line class="cls-39" x1="196.68" y1="249.13" x2="198.24" y2="249.13"/><line class="cls-40" x1="197.09" y1="249.71" x2="198.24" y2="249.71"/><polyline class="cls-41" points="198.24 264.07 196.68 264.07 196.68 246.02 215.36 246.02 215.36 247.57"/><polygon class="cls-10" points="194.81 244.15 214.11 244.15 214.11 246.02 196.68 246.02 196.68 247.57 194.81 247.57 194.81 244.15"/><g class="cls-36"><polygon class="cls-13" points="195.44 244.77 195.44 262.2 196.06 261.58 196.06 245.39 195.44 244.77"/></g><line class="cls-39" x1="195.13" y1="247.57" x2="196.68" y2="247.57"/><line class="cls-40" x1="195.53" y1="248.15" x2="196.68" y2="248.15"/><polyline class="cls-41" points="196.68 262.51 195.13 262.51 195.13 244.46 213.8 244.46 213.8 246.02"/><rect class="cls-10" x="197.93" y="247.26" width="19.3" height="3.42"/><g class="cls-36"><polygon class="cls-13" points="216.6 247.88 215.98 248.51 215.98 264.69 216.6 265.31 216.6 247.88"/></g><g class="cls-36"><polygon class="cls-13" points="198.55 247.88 198.55 265.31 199.17 264.69 199.17 248.51 198.55 247.88"/></g><line class="cls-39" x1="198.24" y1="250.69" x2="216.91" y2="250.69"/><line class="cls-40" x1="198.64" y1="251.26" x2="216.7" y2="251.26"/><path class="cls-42" d="M199,251.58h0"/><path class="cls-42" d="M200.25,251.58h0"/><path class="cls-42" d="M199.63,252.2h0"/><path class="cls-42" d="M199,252.82h0"/><polyline class="cls-43" points="206.95 256.29 205.4 259.4 203.84 256.29"/><polyline class="cls-43" points="208.2 259.4 208.2 256.29 209.75 258.78 211.31 256.29 211.31 259.4"/><rect class="cls-41" x="198.24" y="247.57" width="18.68" height="18.05"/><path class="cls-42" d="M214.88,264.65h0"/><path class="cls-42" d="M216.12,264.65h0"/><path class="cls-42" d="M216.12,263.4h0"/><path class="cls-42" d="M214.88,263.4h0"/><path class="cls-42" d="M213.63,264.65h0"/><path class="cls-42" d="M213,264h0"/><path class="cls-42" d="M216.12,262.16h0"/><path class="cls-42" d="M215.5,262.78h0"/><path class="cls-42" d="M215.5,264h0"/><path class="cls-42" d="M214.88,262.16h0"/><path class="cls-42" d="M216.12,260.91h0"/><polyline class="cls-44" points="273.72 243.25 268 241.03 262.59 243.25"/><path class="cls-45" d="M266.72,240.39a1.28,1.28,0,1,0,1.28-1.27v-1"/><polyline class="cls-46" points="267.36 238.64 266.66 238.64 265.77 237.75 265.77 236.73 270.22 236.73 270.22 237.75 269.33 238.64 268.63 238.64"/><polyline class="cls-47" points="267.36 238.64 266.66 238.64 265.77 237.75 265.77 236.73 270.22 236.73 270.22 237.75 269.33 238.64 268.63 238.64"/><polygon class="cls-47" points="277.54 259.15 264.5 259.15 263.54 259.79 263.54 265.83 264.5 266.46 277.54 266.46 278.49 265.83 278.49 259.79 277.54 259.15"/><polygon class="cls-10" points="276.26 266.46 277.54 266.46 278.49 265.83 278.49 259.79 277.54 259.15 276.26 259.15 277.54 259.94 277.54 265.67 276.26 266.46"/><line class="cls-48" x1="269.9" y1="262.65" x2="276.58" y2="262.65"/><polygon class="cls-46" points="277.54 259.15 264.5 259.15 263.54 259.79 263.54 265.83 264.5 266.46 277.54 266.46 278.49 265.83 278.49 259.79 277.54 259.15"/><line class="cls-44" x1="265.13" y1="260.42" x2="265.13" y2="266.46"/><g class="cls-36"><polygon class="cls-13" points="278.17 259.94 278.17 265.67 277.85 265.03 277.85 260.58 278.17 259.94"/></g><g class="cls-36"><polygon class="cls-13" points="263.86 259.94 263.86 265.67 264.18 265.03 264.18 260.58 263.86 259.94"/></g><line class="cls-48" x1="266.82" y1="261.17" x2="266.82" y2="266.26"/><line class="cls-48" x1="268.73" y1="261.17" x2="268.73" y2="266.26"/><line class="cls-48" x1="270.64" y1="261.17" x2="270.64" y2="266.26"/><line class="cls-48" x1="272.54" y1="261.17" x2="272.54" y2="266.26"/><line class="cls-48" x1="274.45" y1="261.17" x2="274.45" y2="266.26"/><line class="cls-48" x1="276.36" y1="261.17" x2="276.36" y2="266.26"/><line class="cls-48" x1="264.6" y1="265.94" x2="277.31" y2="265.94"/><path class="cls-48" d="M276.36,263.72h0"/><path class="cls-48" d="M275.09,263.72h0"/><path class="cls-48" d="M273.82,263.72h0"/><path class="cls-48" d="M270,261.81h0"/><polygon class="cls-47" points="277.54 251.84 264.5 251.84 263.54 252.47 263.54 258.51 264.5 259.15 277.54 259.15 278.49 258.51 278.49 252.47 277.54 251.84"/><polygon class="cls-10" points="276.26 259.15 277.54 259.15 278.49 258.51 278.49 252.47 277.54 251.84 276.26 251.84 277.54 252.63 277.54 258.36 276.26 259.15"/><line class="cls-48" x1="269.9" y1="255.34" x2="276.58" y2="255.34"/><polygon class="cls-46" points="277.54 251.84 264.5 251.84 263.54 252.47 263.54 258.51 264.5 259.15 277.54 259.15 278.49 258.51 278.49 252.47 277.54 251.84"/><line class="cls-49" x1="277.53" y1="252.16" x2="264.5" y2="252.16"/><line class="cls-49" x1="264.5" y1="259.47" x2="277.53" y2="259.47"/><line class="cls-44" x1="265.13" y1="253.11" x2="265.13" y2="259.15"/><g class="cls-36"><polygon class="cls-13" points="278.17 252.63 278.17 258.36 277.85 257.72 277.85 253.27 278.17 252.63"/></g><g class="cls-36"><polygon class="cls-13" points="263.86 252.63 263.86 258.36 264.18 257.72 264.18 253.27 263.86 252.63"/></g><line class="cls-48" x1="266.82" y1="253.86" x2="266.82" y2="258.95"/><line class="cls-48" x1="268.73" y1="253.86" x2="268.73" y2="258.95"/><line class="cls-48" x1="270.64" y1="253.86" x2="270.64" y2="258.95"/><line class="cls-48" x1="272.54" y1="253.86" x2="272.54" y2="258.95"/><line class="cls-48" x1="274.45" y1="253.86" x2="274.45" y2="258.95"/><line class="cls-48" x1="276.36" y1="253.86" x2="276.36" y2="258.95"/><line class="cls-48" x1="264.6" y1="258.63" x2="277.31" y2="258.63"/><path class="cls-48" d="M276.36,256.4h0"/><path class="cls-48" d="M275.09,256.4h0"/><path class="cls-48" d="M273.82,256.4h0"/><path class="cls-48" d="M270,254.5h0"/><polygon class="cls-10" points="273.72 250.57 274.99 250.57 275.94 249.93 275.94 243.89 274.99 243.25 273.72 243.25 274.99 244.05 274.99 249.77 273.72 250.57"/><line class="cls-50" x1="267.36" y1="246.75" x2="274.04" y2="246.75"/><g class="cls-36"><polygon class="cls-13" points="275.63 244.05 275.63 249.77 275.31 249.13 275.31 244.68 275.63 244.05"/></g><g class="cls-36"><polygon class="cls-13" points="261.32 244.05 261.32 249.77 261.64 249.13 261.64 244.68 261.32 244.05"/></g><line class="cls-48" x1="264.28" y1="245.27" x2="264.28" y2="250.36"/><line class="cls-48" x1="266.19" y1="245.27" x2="266.19" y2="250.36"/><line class="cls-48" x1="268.09" y1="245.27" x2="268.09" y2="250.36"/><line class="cls-48" x1="270" y1="245.27" x2="270" y2="250.36"/><line class="cls-48" x1="271.91" y1="245.27" x2="271.91" y2="250.36"/><line class="cls-48" x1="273.82" y1="245.27" x2="273.82" y2="250.36"/><line class="cls-48" x1="262.05" y1="250.04" x2="274.77" y2="250.04"/><path class="cls-48" d="M273.82,247.82h0"/><path class="cls-48" d="M272.54,247.82h0"/><path class="cls-48" d="M271.27,247.82h0"/><path class="cls-48" d="M267.46,245.91h0"/><polygon class="cls-44" points="274.99 243.25 261.95 243.25 261 243.89 261 249.93 261.95 250.57 274.99 250.57 275.94 249.93 275.94 243.89 274.99 243.25"/><line class="cls-44" x1="262.59" y1="244.52" x2="262.59" y2="250.57"/><line class="cls-49" x1="281.67" y1="267.1" x2="261.73" y2="267.1"/><polygon class="cls-10" points="353 245.71 372.29 245.71 372.29 247.57 354.86 247.57 354.86 249.13 353 249.13 353 245.71"/><g class="cls-36"><polygon class="cls-13" points="353.62 246.33 353.62 263.76 354.24 263.14 354.24 246.95 353.62 246.33"/></g><line class="cls-39" x1="353.31" y1="249.13" x2="354.86" y2="249.13"/><line class="cls-40" x1="353.71" y1="249.71" x2="354.86" y2="249.71"/><polyline class="cls-41" points="354.86 264.07 353.31 264.07 353.31 246.02 371.98 246.02 371.98 247.57"/><polygon class="cls-10" points="351.44 244.15 370.74 244.15 370.74 246.02 353.31 246.02 353.31 247.57 351.44 247.57 351.44 244.15"/><g class="cls-36"><polygon class="cls-13" points="352.06 244.77 352.06 262.2 352.68 261.58 352.68 245.39 352.06 244.77"/></g><line class="cls-39" x1="351.75" y1="247.57" x2="353.31" y2="247.57"/><line class="cls-40" x1="352.16" y1="248.15" x2="353.31" y2="248.15"/><polyline class="cls-41" points="353.31 262.51 351.75 262.51 351.75 244.46 370.43 244.46 370.43 246.02"/><rect class="cls-10" x="354.55" y="247.26" width="19.3" height="3.42"/><g class="cls-36"><polygon class="cls-13" points="373.23 247.88 372.61 248.51 372.61 264.69 373.23 265.31 373.23 247.88"/></g><g class="cls-36"><polygon class="cls-13" points="355.17 247.88 355.17 265.31 355.8 264.69 355.8 248.51 355.17 247.88"/></g><line class="cls-39" x1="354.86" y1="250.69" x2="373.54" y2="250.69"/><line class="cls-40" x1="355.27" y1="251.26" x2="373.32" y2="251.26"/><path class="cls-42" d="M355.63,251.58h0"/><path class="cls-42" d="M356.87,251.58h0"/><path class="cls-42" d="M356.25,252.2h0"/><path class="cls-42" d="M355.63,252.82h0"/><polyline class="cls-43" points="363.58 256.29 362.02 259.4 360.47 256.29"/><polyline class="cls-43" points="364.82 259.4 364.82 256.29 366.38 258.78 367.94 256.29 367.94 259.4"/><rect class="cls-41" x="354.86" y="247.57" width="18.68" height="18.05"/><path class="cls-42" d="M371.5,264.65h0"/><path class="cls-42" d="M372.75,264.65h0"/><path class="cls-42" d="M372.75,263.4h0"/><path class="cls-42" d="M371.5,263.4h0"/><path class="cls-42" d="M370.26,264.65h0"/><path class="cls-42" d="M369.64,264h0"/><path class="cls-42" d="M372.75,262.16h0"/><path class="cls-42" d="M372.13,262.78h0"/><path class="cls-42" d="M372.13,264h0"/><path class="cls-42" d="M371.5,262.16h0"/><path class="cls-42" d="M372.75,260.91h0"/><polyline class="cls-44" points="430.11 243.25 424.39 241.03 418.99 243.25"/><path class="cls-45" d="M423.12,240.39a1.27,1.27,0,1,0,1.27-1.27v-1"/><polyline class="cls-46" points="423.75 238.64 423.06 238.64 422.17 237.75 422.17 236.73 426.62 236.73 426.62 237.75 425.73 238.64 425.03 238.64"/><polyline class="cls-47" points="423.75 238.64 423.06 238.64 422.17 237.75 422.17 236.73 426.62 236.73 426.62 237.75 425.73 238.64 425.03 238.64"/><polygon class="cls-47" points="433.93 259.15 420.89 259.15 419.94 259.79 419.94 265.83 420.89 266.46 433.93 266.46 434.88 265.83 434.88 259.79 433.93 259.15"/><polygon class="cls-10" points="432.66 266.46 433.93 266.46 434.88 265.83 434.88 259.79 433.93 259.15 432.66 259.15 433.93 259.94 433.93 265.67 432.66 266.46"/><line class="cls-48" x1="426.3" y1="262.65" x2="432.98" y2="262.65"/><polygon class="cls-46" points="433.93 259.15 420.89 259.15 419.94 259.79 419.94 265.83 420.89 266.46 433.93 266.46 434.88 265.83 434.88 259.79 433.93 259.15"/><line class="cls-44" x1="421.53" y1="260.42" x2="421.53" y2="266.46"/><g class="cls-36"><polygon class="cls-13" points="434.57 259.94 434.57 265.67 434.25 265.03 434.25 260.58 434.57 259.94"/></g><g class="cls-36"><polygon class="cls-13" points="420.26 259.94 420.26 265.67 420.58 265.03 420.58 260.58 420.26 259.94"/></g><line class="cls-48" x1="423.22" y1="261.17" x2="423.22" y2="266.26"/><line class="cls-48" x1="425.12" y1="261.17" x2="425.12" y2="266.26"/><line class="cls-48" x1="427.03" y1="261.17" x2="427.03" y2="266.26"/><line class="cls-48" x1="428.94" y1="261.17" x2="428.94" y2="266.26"/><line class="cls-48" x1="430.85" y1="261.17" x2="430.85" y2="266.26"/><line class="cls-48" x1="432.76" y1="261.17" x2="432.76" y2="266.26"/><line class="cls-48" x1="420.99" y1="265.94" x2="433.71" y2="265.94"/><path class="cls-48" d="M432.76,263.72h0"/><path class="cls-48" d="M431.48,263.72h0"/><path class="cls-48" d="M430.21,263.72h0"/><path class="cls-48" d="M426.4,261.81h0"/><polygon class="cls-47" points="433.93 251.84 420.89 251.84 419.94 252.47 419.94 258.51 420.89 259.15 433.93 259.15 434.88 258.51 434.88 252.47 433.93 251.84"/><polygon class="cls-10" points="432.66 259.15 433.93 259.15 434.88 258.51 434.88 252.47 433.93 251.84 432.66 251.84 433.93 252.63 433.93 258.36 432.66 259.15"/><line class="cls-48" x1="426.3" y1="255.34" x2="432.98" y2="255.34"/><polygon class="cls-46" points="433.93 251.84 420.89 251.84 419.94 252.47 419.94 258.51 420.89 259.15 433.93 259.15 434.88 258.51 434.88 252.47 433.93 251.84"/><line class="cls-49" x1="433.93" y1="252.16" x2="420.89" y2="252.16"/><line class="cls-49" x1="420.89" y1="259.47" x2="433.93" y2="259.47"/><line class="cls-44" x1="421.53" y1="253.11" x2="421.53" y2="259.15"/><g class="cls-36"><polygon class="cls-13" points="434.57 252.63 434.57 258.36 434.25 257.72 434.25 253.27 434.57 252.63"/></g><g class="cls-36"><polygon class="cls-13" points="420.26 252.63 420.26 258.36 420.58 257.72 420.58 253.27 420.26 252.63"/></g><line class="cls-48" x1="423.22" y1="253.86" x2="423.22" y2="258.95"/><line class="cls-48" x1="425.12" y1="253.86" x2="425.12" y2="258.95"/><line class="cls-48" x1="427.03" y1="253.86" x2="427.03" y2="258.95"/><line class="cls-48" x1="428.94" y1="253.86" x2="428.94" y2="258.95"/><line class="cls-48" x1="430.85" y1="253.86" x2="430.85" y2="258.95"/><line class="cls-48" x1="432.76" y1="253.86" x2="432.76" y2="258.95"/><line class="cls-48" x1="420.99" y1="258.63" x2="433.71" y2="258.63"/><path class="cls-48" d="M432.76,256.4h0"/><path class="cls-48" d="M431.48,256.4h0"/><path class="cls-48" d="M430.21,256.4h0"/><path class="cls-48" d="M426.4,254.5h0"/><polygon class="cls-10" points="430.11 250.57 431.39 250.57 432.34 249.93 432.34 243.89 431.39 243.25 430.11 243.25 431.39 244.05 431.39 249.77 430.11 250.57"/><line class="cls-50" x1="423.76" y1="246.75" x2="430.43" y2="246.75"/><g class="cls-36"><polygon class="cls-13" points="432.02 244.05 432.02 249.77 431.7 249.13 431.7 244.68 432.02 244.05"/></g><g class="cls-36"><polygon class="cls-13" points="417.71 244.05 417.71 249.77 418.03 249.13 418.03 244.68 417.71 244.05"/></g><line class="cls-48" x1="420.67" y1="245.27" x2="420.67" y2="250.36"/><line class="cls-48" x1="422.58" y1="245.27" x2="422.58" y2="250.36"/><line class="cls-48" x1="424.49" y1="245.27" x2="424.49" y2="250.36"/><line class="cls-48" x1="426.4" y1="245.27" x2="426.4" y2="250.36"/><line class="cls-48" x1="428.3" y1="245.27" x2="428.3" y2="250.36"/><line class="cls-48" x1="430.21" y1="245.27" x2="430.21" y2="250.36"/><line class="cls-48" x1="418.45" y1="250.04" x2="431.17" y2="250.04"/><path class="cls-48" d="M430.21,247.82h0"/><path class="cls-48" d="M428.94,247.82h0"/><path class="cls-48" d="M427.67,247.82h0"/><path class="cls-48" d="M423.85,245.91h0"/><polygon class="cls-44" points="431.39 243.25 418.35 243.25 417.4 243.89 417.4 249.93 418.35 250.57 431.39 250.57 432.34 249.93 432.34 243.89 431.39 243.25"/><line class="cls-44" x1="418.99" y1="244.52" x2="418.99" y2="250.57"/><line class="cls-49" x1="438.06" y1="267.1" x2="418.13" y2="267.1"/><polyline class="cls-17" points="148.79 66.83 148.79 95.9 417.66 96.06 417.66 66.83"/><line class="cls-17" x1="287.35" y1="67.54" x2="287.35" y2="112.47"/><path class="cls-32" d="M390.91,41.34h0a25.88,25.88,0,1,1,25.88,25.88A25.88,25.88,0,0,1,390.91,41.34Z"/><g class="cls-8"><path class="cls-13" d="M413.93,56.39a1.28,1.28,0,0,1-.9-2.17l.67-.68a12.71,12.71,0,0,1-.63-24.65,1.26,1.26,0,0,1,1.56.88,1.28,1.28,0,0,1-.88,1.57,10.16,10.16,0,0,0,2.72,20,1.28,1.28,0,0,1,.9,2.17L414.83,56A1.28,1.28,0,0,1,413.93,56.39Z"/></g><g class="cls-8"><path class="cls-13" d="M420.17,53.85a1.27,1.27,0,0,1-.34-2.5,10.17,10.17,0,0,0-2.72-20,1.28,1.28,0,0,1-1.18-.78,1.26,1.26,0,0,1,.28-1.39l2.54-2.54a1.27,1.27,0,0,1,1.8,0,1.29,1.29,0,0,1,0,1.8l-.68.67a12.71,12.71,0,0,1,.64,24.66A1.33,1.33,0,0,1,420.17,53.85Z"/></g><circle class="cls-51" cx="416.79" cy="41.13" r="1.91"/><path class="cls-52" d="M416.79,43.36a2.23,2.23,0,1,1,0-4.45"/><circle class="cls-51" cx="416.79" cy="41.13" r="3.81"/><path class="cls-52" d="M416.79,37.64a3.5,3.5,0,0,1,0,7"/><path class="cls-51" d="M417.58,34.7l.8,1.2a.93.93,0,0,0,1,.41l1.41-.28a1,1,0,0,1,1.13,1.12l-.29,1.41a1,1,0,0,0,.41,1l1.2.8a1,1,0,0,1,0,1.59l-1.2.8a1,1,0,0,0-.41,1l.29,1.41a1,1,0,0,1-1.13,1.12L419.36,46a.93.93,0,0,0-1,.41l-.8,1.2a1,1,0,0,1-1.59,0l-.79-1.2a1,1,0,0,0-1-.41l-1.41.28a.94.94,0,0,1-1.12-1.12l.28-1.41a.94.94,0,0,0-.4-1l-1.2-.8a1,1,0,0,1,0-1.59l1.2-.8a.94.94,0,0,0,.4-1l-.28-1.41A.94.94,0,0,1,412.8,36l1.41.28a1,1,0,0,0,1-.41l.79-1.2A1,1,0,0,1,417.58,34.7Z"/><path class="cls-53" d="M413.93,56.39a1.28,1.28,0,0,1-.9-2.17l.67-.68a12.71,12.71,0,0,1-.63-24.65,1.26,1.26,0,0,1,1.56.88,1.28,1.28,0,0,1-.88,1.57,10.16,10.16,0,0,0,2.72,20,1.28,1.28,0,0,1,.9,2.17L414.83,56A1.28,1.28,0,0,1,413.93,56.39Z"/><path class="cls-53" d="M420.17,53.85a1.27,1.27,0,0,1-.34-2.5,10.17,10.17,0,0,0-2.72-20,1.28,1.28,0,0,1-1.18-.78,1.26,1.26,0,0,1,.28-1.39l2.54-2.54a1.27,1.27,0,0,1,1.8,0,1.29,1.29,0,0,1,0,1.8l-.68.67a12.71,12.71,0,0,1,.64,24.66A1.33,1.33,0,0,1,420.17,53.85Z"/><path class="cls-32" d="M364.13,342.41h0A25.88,25.88,0,1,1,390,368.29,25.88,25.88,0,0,1,364.13,342.41Z"/><g id="App_ScaleOut_" data-name="App (ScaleOut)"><g class="cls-54"><g class="cls-54"><g class="cls-54"><g class="cls-55"><g class="cls-56"><rect class="cls-13" x="377.39" y="326.63" width="27.77" height="2.85"/></g></g><g class="cls-57"><g class="cls-58"><polygon class="cls-13" points="404.45 327.34 403.74 328.05 403.74 349.41 404.45 350.12 404.45 327.34"/></g></g><g class="cls-57"><g class="cls-59"><polygon class="cls-13" points="378.11 327.34 378.11 350.12 378.82 349.41 378.82 328.05 378.11 327.34"/></g></g><path class="cls-37" d="M378.82,327.69a.36.36,0,0,0-.36.36.36.36,0,1,0,.71,0,.36.36,0,0,0-.35-.36"/><path class="cls-37" d="M379.89,327.69a.36.36,0,0,0-.36.36.36.36,0,1,0,.71,0,.36.36,0,0,0-.35-.36"/><path class="cls-37" d="M381,327.69a.36.36,0,0,0-.35.36.36.36,0,1,0,.71,0,.36.36,0,0,0-.36-.36"/><line class="cls-60" x1="377.75" y1="329.12" x2="404.81" y2="329.12"/><g class="cls-55"><g class="cls-61"><line class="cls-62" x1="377.86" y1="329.78" x2="404.56" y2="329.78"/></g></g><rect class="cls-62" x="377.75" y="326.98" width="27.05" height="23.49"/><g class="cls-63"><g class="cls-64"><polygon class="cls-13" points="391.46 344.42 387.9 342.29 387.9 338.02 391.46 340.15 391.46 344.42"/></g></g><g class="cls-65"><g class="cls-66"><polygon class="cls-13" points="391.63 339.8 387.9 337.66 391.63 335.52 395.37 337.66 391.63 339.8"/></g></g><g class="cls-67"><g class="cls-68"><polygon class="cls-13" points="395.37 342.29 391.81 344.42 391.81 340.15 395.37 338.02 395.37 342.29"/></g></g><g class="cls-55"><g class="cls-69"><line class="cls-60" x1="378.93" y1="330.31" x2="378.93" y2="330.31"/></g></g><g class="cls-55"><g class="cls-70"><line class="cls-60" x1="380.35" y1="330.31" x2="380.35" y2="330.31"/></g></g><g class="cls-55"><g class="cls-71"><line class="cls-60" x1="379.64" y1="331.02" x2="379.64" y2="331.02"/></g></g><g class="cls-55"><g class="cls-72"><line class="cls-60" x1="378.93" y1="331.74" x2="378.93" y2="331.74"/></g></g><g class="cls-55"><g class="cls-73"><line class="cls-60" x1="402.42" y1="349.54" x2="402.42" y2="349.54"/></g></g><g class="cls-55"><g class="cls-74"><line class="cls-60" x1="403.85" y1="349.54" x2="403.85" y2="349.54"/></g></g><g class="cls-55"><g class="cls-75"><line class="cls-60" x1="403.85" y1="348.11" x2="403.85" y2="348.11"/></g></g><g class="cls-55"><g class="cls-76"><line class="cls-60" x1="402.42" y1="348.11" x2="402.42" y2="348.11"/></g></g><g class="cls-55"><g class="cls-77"><line class="cls-60" x1="401" y1="349.54" x2="401" y2="349.54"/></g></g><g class="cls-55"><g class="cls-78"><line class="cls-60" x1="403.85" y1="346.69" x2="403.85" y2="346.69"/></g></g><g class="cls-55"><g class="cls-79"><line class="cls-60" x1="403.13" y1="348.82" x2="403.13" y2="348.82"/></g></g><polyline class="cls-60" points="402.67 325.56 406.23 325.56 406.23 329.12"/><polyline class="cls-60" points="375.62 356.17 372.06 356.17 372.06 352.61"/><g class="cls-67"><g class="cls-80"><line class="cls-60" x1="374.9" y1="335.17" x2="377.75" y2="335.17"/><path class="cls-37" d="M376,333.39a.36.36,0,1,0,0,.71.36.36,0,1,0,0-.71"/><path class="cls-37" d="M377,333.39a.36.36,0,1,0,.35.35.36.36,0,0,0-.35-.35"/><polyline class="cls-62" points="402.67 350.48 402.67 352.61 374.9 352.61 374.9 332.68 377.75 332.68"/><g class="cls-55"><g class="cls-81"><line class="cls-60" x1="375.97" y1="336.01" x2="375.97" y2="336.01"/></g></g><g class="cls-55"><g class="cls-82"><line class="cls-60" x1="377.39" y1="336.01" x2="377.39" y2="336.01"/></g></g><g class="cls-55"><g class="cls-83"><line class="cls-60" x1="376.68" y1="336.72" x2="376.68" y2="336.72"/></g></g><g class="cls-55"><g class="cls-84"><line class="cls-60" x1="375.97" y1="337.43" x2="375.97" y2="337.43"/></g></g></g></g><g class="cls-57"><g class="cls-85"><g class="cls-86"><path class="cls-37" d="M374.55,338.37a.36.36,0,1,0,0,.71.36.36,0,0,0,0-.71"/><g class="cls-55"><g class="cls-87"><line class="cls-60" x1="374.66" y1="340.99" x2="374.66" y2="340.99"/></g></g><g class="cls-55"><g class="cls-88"><line class="cls-60" x1="375.72" y1="340.28" x2="375.72" y2="340.28"/></g></g><g class="cls-55"><g class="cls-89"><line class="cls-60" x1="375.01" y1="340.99" x2="375.01" y2="340.99"/></g></g><g class="cls-55"><g class="cls-90"><line class="cls-60" x1="374.66" y1="342.42" x2="374.66" y2="342.42"/></g></g></g><line class="cls-62" x1="373.48" y1="339.8" x2="374.55" y2="339.8"/><polyline class="cls-62" points="394.13 352.97 394.13 354.75 373.48 354.75 373.48 337.66 374.55 337.66"/></g></g></g></g></g></g><path class="cls-91" d="M142.05,30.91a.79.79,0,1,0-.79.79l7.63,0a1.75,1.75,0,0,0,.17-.79,1.8,1.8,0,1,0-3.59,0"/><path class="cls-92" d="M144.32,27a3,3,0,0,1,2.81,1.9h.11a2,2,0,0,1,2,2,2.1,2.1,0,0,1-.06.51.67.67,0,0,1-.65.5l-3.06,0h-4.17a1,1,0,0,1-1-.94,1,1,0,0,1,1-1.08,3,3,0,0,1,3-2.93h0m0-.48h0a3.57,3.57,0,0,0-2.47,1,3.28,3.28,0,0,0-1,2,1.45,1.45,0,0,0-.63.4,1.49,1.49,0,0,0,1.12,2.5l4.18,0h3.05a1.18,1.18,0,0,0,1.11-.86,2.65,2.65,0,0,0,.08-.63,2.51,2.51,0,0,0-2.31-2.48,3.47,3.47,0,0,0-3.11-1.91Z"/><path class="cls-93" d="M151.07,40a2.21,2.21,0,0,1-2.23-2A2.15,2.15,0,0,1,151,35.71h0a6.27,6.27,0,0,1,6.45-6.26,6.46,6.46,0,0,1,6,4.06l.22,0a4.32,4.32,0,0,1,4.33,4.3,4.42,4.42,0,0,1-.14,1.1A1.42,1.42,0,0,1,166.49,40L160,40Z"/><path class="cls-94" d="M152.61,37.86a1.68,1.68,0,1,0-1.67,1.68l16.27-.07a3.84,3.84,0,0,0-3.47-5.5,3.84,3.84,0,0,0-3.82,3.85"/><path class="cls-27" d="M133.11,50.88a3.5,3.5,0,0,1-3.53-3.19A3.42,3.42,0,0,1,133,44v.38a10.26,10.26,0,0,1,19.79-3.78l.35,0A6.83,6.83,0,0,1,160,47.46a7.23,7.23,0,0,1-.22,1.75,2.28,2.28,0,0,1-2.2,1.67H133.11Z"/><path class="cls-95" d="M133.11,50.88a3.5,3.5,0,0,1-3.53-3.19A3.42,3.42,0,0,1,133,44v.38a10.26,10.26,0,0,1,19.79-3.78l.35,0A6.83,6.83,0,0,1,160,47.46a7.23,7.23,0,0,1-.22,1.75,2.28,2.28,0,0,1-2.2,1.67H133.11Z"/><path class="cls-96" d="M135.56,47.46a2.66,2.66,0,1,0-2.66,2.66h25.79a6.08,6.08,0,1,0-11.55-2.66"/><line class="cls-96" x1="166.59" y1="54.2" x2="138.75" y2="54.2"/><line class="cls-96" x1="139.62" y1="55.72" x2="134.19" y2="55.72"/><path class="cls-2" d="M261.63,41.34h0a25.88,25.88,0,1,1,25.88,25.88A25.88,25.88,0,0,1,261.63,41.34Z"/><path class="cls-25" d="M261.63,41.34h0a25.88,25.88,0,1,1,25.88,25.88A25.88,25.88,0,0,1,261.63,41.34Z"/><polygon class="cls-26" points="287.13 53.95 287.53 55.11 289.42 55.11 289.82 53.95 287.13 53.95"/><polygon class="cls-26" points="287.13 51.66 287.53 52.82 289.82 52.82 290.19 51.66 287.13 51.66"/><path class="cls-26" d="M286,41.1a.36.36,0,0,0-.4.37V49a.36.36,0,0,0,.4.36.39.39,0,0,0,.36-.36V41.47A.35.35,0,0,0,286,41.1Z"/><path class="cls-26" d="M289.06,43a.37.37,0,0,0-.4.4V49a.36.36,0,0,0,.4.36.39.39,0,0,0,.36-.36V43.39A.36.36,0,0,0,289.06,43Z"/><path class="cls-26" d="M298.15,37.83a.36.36,0,0,0-.36.4,10.39,10.39,0,0,1-7.33,9.89.35.35,0,0,0-.27.46.5.5,0,0,0,.39.27h.07a11.17,11.17,0,0,0,7.9-10.62A.37.37,0,0,0,298.15,37.83Z"/><path class="cls-26" d="M287.53,26.82a11.44,11.44,0,0,0-3.17,22.43h.12a.47.47,0,0,0,.37-.24.36.36,0,0,0-.25-.46,10.69,10.69,0,0,1,2.93-21,.36.36,0,0,0,.37-.37A.36.36,0,0,0,287.53,26.82Z"/><path class="cls-26" d="M287.53,26.05a.37.37,0,0,0-.39.4.36.36,0,0,0,.39.37,11.45,11.45,0,0,1,2.93,22.52.41.41,0,0,0-.27.46.5.5,0,0,0,.39.27s0,0,.06,0l.07,0a12.22,12.22,0,0,0-3.18-24Z"/><path class="cls-26" d="M287.53,29.47a.38.38,0,1,0,0,.76,8,8,0,0,1,8,8,.37.37,0,0,0,.39.4.38.38,0,0,0,.37-.4A8.76,8.76,0,0,0,287.53,29.47Z"/><path class="cls-97" d="M285.61,39.94a.36.36,0,0,0-.37.39.35.35,0,0,0,.37.37h.49L287.56,45a.33.33,0,0,0,.34.24.41.41,0,0,0,.4-.34l.33-2.31h.79a.37.37,0,0,0,.4-.4.36.36,0,0,0-.4-.37H288.3a.39.39,0,0,0-.4.34l-.16,1.06-1-3a.35.35,0,0,0-.34-.28Z"/><path class="cls-18" d="M287.64,27.92q-.37,0-.75,0a10.31,10.31,0,0,0-3.45,19.74,1.09,1.09,0,0,1,.64,1v1.19l1,1H290l1-1V48.73a1.2,1.2,0,0,1,.73-1.07,10.32,10.32,0,0,0,2.9-16.94A10.07,10.07,0,0,0,287.64,27.92Zm-.05.8A9.53,9.53,0,0,1,291.38,47a1.93,1.93,0,0,0-1.19,1.77v.88l-.52.52h-4.28l-.54-.58v-.82a1.9,1.9,0,0,0-1.1-1.77A9.42,9.42,0,0,1,278,37.34a9.55,9.55,0,0,1,8.88-8.6C287.14,28.72,287.37,28.72,287.59,28.72Z"/><path class="cls-18" d="M284.33,51.29l.64,1.9h5.13l.63-1.9Zm5.34.76-.12.37h-4l-.13-.37Z"/><path class="cls-18" d="M284.7,53.58l.67,1.89h4.33l.64-1.89Zm4.57.77-.09.36h-3.29l-.13-.36Z"/><polygon class="cls-18" points="285.61 55.87 286.37 56.63 288.66 56.63 289.42 55.87 285.61 55.87"/><rect class="cls-98" x="316.59" y="117.2" width="81.71" height="30.58"/><text class="cls-99" transform="translate(331.48 129.63)">Customer-<tspan x="1.68" y="12">Managed </tspan></text><rect class="cls-100" x="174.38" y="117.2" width="81.71" height="30.58"/><text class="cls-99" transform="translate(203.68 135.37)">SaaS</text></g></g></svg>