<svg id="Isolation_Mode" data-name="Isolation Mode" xmlns="http://www.w3.org/2000/svg" viewBox="0 0 141.67 141.67"><defs><style>.cls-1{fill:#495565;}.cls-1,.cls-2{opacity:0.15;isolation:isolate;}.cls-2,.cls-3,.cls-4{fill:none;stroke-miterlimit:10;stroke-width:1.96px;}.cls-2,.cls-3{stroke:#495565;}.cls-2,.cls-4{stroke-linecap:round;}.cls-4{stroke:#f04e23;}</style></defs><title>multi-cloud-consistent-icon</title><path class="cls-1" d="M123.33,43a5.89,5.89,0,0,0-7-4.57,7.3,7.3,0,0,0-.91.27A9.8,9.8,0,0,0,96,40.23,10,10,0,0,0,96.39,43Z"/><path class="cls-1" d="M123.33,43a5.89,5.89,0,0,0-7-4.57,7.3,7.3,0,0,0-.91.27A9.8,9.8,0,0,0,96,40.23,10,10,0,0,0,96.39,43Z"/><path class="cls-2" d="M52.13,72.58a6.87,6.87,0,1,0-6.88,6.86h66.58A15.69,15.69,0,1,0,82,72.58"/><path class="cls-3" d="M45.81,81.4a9,9,0,0,1-9.1-8.23,8.82,8.82,0,0,1,8.19-9.39l.61,0v1A26.47,26.47,0,0,1,96.59,55h.88a17.63,17.63,0,0,1,17.65,17.61,17.84,17.84,0,0,1-.59,4.54,5.87,5.87,0,0,1-5.68,4.32h-63Z"/><line class="cls-4" x1="124.54" y1="91.21" x2="52.68" y2="91.21"/><line class="cls-4" x1="54.93" y1="95.13" x2="40.91" y2="95.13"/><line class="cls-4" x1="76.5" y1="86.31" x2="13.46" y2="86.31"/><path class="cls-3" d="M123.33,43a5.89,5.89,0,0,0-7-4.57,7.3,7.3,0,0,0-.91.27A9.8,9.8,0,0,0,96,40.23,10,10,0,0,0,96.39,43Z"/><path class="cls-3" d="M48.28,53A15.69,15.69,0,0,0,28.2,62.16a9.79,9.79,0,0,0-14.74,8.46,8.34,8.34,0,0,0,0,1H36.69"/><path class="cls-1" d="M45.51,63.76v1A26.36,26.36,0,0,1,48.27,53,15.6,15.6,0,0,0,28.2,62.16a9.79,9.79,0,0,0-14.74,8.46,8.34,8.34,0,0,0,0,1H36.75A8.81,8.81,0,0,1,45.51,63.76Z"/></svg>