<?xml version="1.0" encoding="utf-8"?>
<!-- Generator: Adobe Illustrator 18.1.1, SVG Export Plug-In . SVG Version: 6.00 Build 0)  -->
<svg version="1.1" xmlns="http://www.w3.org/2000/svg" xmlns:xlink="http://www.w3.org/1999/xlink" x="0px" y="0px"
	 viewBox="0 0 400 400" enable-background="new 0 0 400 400" xml:space="preserve">
<g id="BG_Color">
	<rect id="XMLID_161_" fill="#3E41FF" width="400" height="400"/>
</g>
<g id="Icons">
	<g id="XMLID_133_">
		<g id="XMLID_146_">
			
				<polyline id="XMLID_148_" fill="none" stroke="#FFFFFF" stroke-width="3.7181" stroke-linecap="round" stroke-linejoin="round" stroke-miterlimit="10" points="
				220.4,146.1 220.4,164.7 239,164.7 			"/>
			
				<path id="XMLID_147_" fill="none" stroke="#FFFFFF" stroke-width="3.7181" stroke-linecap="round" stroke-linejoin="round" stroke-miterlimit="10" d="
				M239,250.2c0,2-1.6,3.7-3.7,3.7h-70.7c-2,0-3.7-1.7-3.7-3.7V149.9c0-2,1.6-3.7,3.7-3.7h55.8c1,0,1.4,0.4,2.1,1.1l15.4,15.2
				c0.7,0.7,1.1,1.3,1.1,2.3V250.2z"/>
		</g>
		
			<rect id="XMLID_145_" x="175.5" y="190.8" fill="none" stroke="#FFFFFF" stroke-width="3.7181" stroke-linecap="round" stroke-linejoin="round" width="15" height="14.7"/>
		
			<rect id="XMLID_144_" x="175.5" y="176" fill="none" stroke="#FFFFFF" stroke-width="3.7181" stroke-linecap="round" stroke-linejoin="round" width="15" height="14.7"/>
		
			<rect id="XMLID_143_" x="175.5" y="205.5" fill="none" stroke="#FFFFFF" stroke-width="3.7181" stroke-linecap="round" stroke-linejoin="round" width="15" height="14.7"/>
		
			<rect id="XMLID_142_" x="175.5" y="220.3" fill="none" stroke="#FFFFFF" stroke-width="3.7181" stroke-linecap="round" stroke-linejoin="round" width="15" height="14.7"/>
		
			<rect id="XMLID_141_" x="190.5" y="190.8" fill="none" stroke="#FFFFFF" stroke-width="3.7181" stroke-linecap="round" stroke-linejoin="round" width="18.5" height="14.7"/>
		
			<rect id="XMLID_140_" x="190.5" y="176" fill="none" stroke="#FFFFFF" stroke-width="3.7181" stroke-linecap="round" stroke-linejoin="round" width="18.5" height="14.7"/>
		
			<rect id="XMLID_139_" x="190.5" y="205.5" fill="none" stroke="#FFFFFF" stroke-width="3.7181" stroke-linecap="round" stroke-linejoin="round" width="18.5" height="14.7"/>
		
			<rect id="XMLID_138_" x="190.5" y="220.3" fill="none" stroke="#FFFFFF" stroke-width="3.7181" stroke-linecap="round" stroke-linejoin="round" width="18.5" height="14.7"/>
		
			<rect id="XMLID_137_" x="209" y="190.8" fill="none" stroke="#FFFFFF" stroke-width="3.7181" stroke-linecap="round" stroke-linejoin="round" width="15.2" height="14.7"/>
		
			<rect id="XMLID_136_" x="209" y="176" fill="none" stroke="#FFFFFF" stroke-width="3.7181" stroke-linecap="round" stroke-linejoin="round" width="15.2" height="14.7"/>
		
			<rect id="XMLID_135_" x="209" y="205.5" fill="none" stroke="#FFFFFF" stroke-width="3.7181" stroke-linecap="round" stroke-linejoin="round" width="15.2" height="14.7"/>
		
			<rect id="XMLID_134_" x="209" y="220.3" fill="none" stroke="#FFFFFF" stroke-width="3.7181" stroke-linecap="round" stroke-linejoin="round" width="15.2" height="14.7"/>
	</g>
</g>
</svg>
