<?xml version="1.0" encoding="utf-8"?>
<!-- Generator: Adobe Illustrator 18.1.1, SVG Export Plug-In . SVG Version: 6.00 Build 0)  -->
<svg version="1.1" xmlns="http://www.w3.org/2000/svg" xmlns:xlink="http://www.w3.org/1999/xlink" x="0px" y="0px"
	 viewBox="0 0 400 400" enable-background="new 0 0 400 400" xml:space="preserve">
<g id="BG_Color">
	<rect id="XMLID_288_" fill="#ECBD1C" width="400" height="400"/>
</g>
<g id="Icons">
	<g id="XMLID_358_">
		<g id="XMLID_367_">
			
				<polyline id="XMLID_369_" fill="none" stroke="#FFFFFF" stroke-width="3.6865" stroke-linecap="round" stroke-linejoin="round" stroke-miterlimit="10" points="
				220.2,146.6 220.2,165 238.7,165 			"/>
			
				<path id="XMLID_368_" fill="none" stroke="#FFFFFF" stroke-width="3.6865" stroke-linecap="round" stroke-linejoin="round" stroke-miterlimit="10" d="
				M238.7,249.7c0,2-1.6,3.7-3.6,3.7H165c-2,0-3.6-1.7-3.6-3.7v-99.4c0-2,1.6-3.7,3.6-3.7h55.3c1,0,1.4,0.4,2.1,1.1l15.3,15.1
				c0.7,0.7,1.1,1.3,1.1,2.3V249.7z"/>
		</g>
		
			<line id="XMLID_366_" fill="none" stroke="#FFFFFF" stroke-width="3.6865" stroke-linecap="round" stroke-linejoin="round" stroke-miterlimit="10" x1="224" y1="220.1" x2="176.1" y2="220.1"/>
		
			<line id="XMLID_365_" fill="none" stroke="#FFFFFF" stroke-width="3.6865" stroke-linecap="round" stroke-linejoin="round" stroke-miterlimit="10" x1="224" y1="234.8" x2="176.1" y2="234.8"/>
		
			<line id="XMLID_364_" fill="none" stroke="#FFFFFF" stroke-width="3.6865" stroke-linecap="round" stroke-linejoin="round" stroke-miterlimit="10" x1="190.4" y1="176.2" x2="176.1" y2="176.2"/>
		
			<line id="XMLID_363_" fill="none" stroke="#FFFFFF" stroke-width="3.6865" stroke-linecap="round" stroke-linejoin="round" stroke-miterlimit="10" x1="190.4" y1="190.9" x2="176.1" y2="190.9"/>
		
			<line id="XMLID_362_" fill="none" stroke="#FFFFFF" stroke-width="3.6865" stroke-linecap="round" stroke-linejoin="round" stroke-miterlimit="10" x1="190.4" y1="205.7" x2="176.1" y2="205.7"/>
		
			<rect id="XMLID_361_" x="201.8" y="176.2" fill="none" stroke="#FFFFFF" stroke-width="3.6865" stroke-linecap="round" stroke-linejoin="round" width="22.1" height="29.5"/>
		
			<line id="XMLID_360_" fill="none" stroke="#FFFFFF" stroke-width="3.6865" stroke-linecap="round" stroke-linejoin="round" x1="201.8" y1="176.2" x2="224" y2="205.7"/>
		
			<line id="XMLID_359_" fill="none" stroke="#FFFFFF" stroke-width="3.6865" stroke-linecap="round" stroke-linejoin="round" x1="224" y1="176.2" x2="201.8" y2="205.7"/>
	</g>
</g>
</svg>
