<svg id="Layer_1" data-name="Layer 1" xmlns="http://www.w3.org/2000/svg" viewBox="0 0 186.52 244.7"><defs><style>.cls-1,.cls-2{fill:none;stroke:#fff;stroke-linecap:round;stroke-miterlimit:10;}.cls-1{stroke-width:6.95px;}.cls-2{stroke-width:6.95px;}.cls-3{fill:#fff;}</style></defs><title>rc_icon_whitepaper</title><rect class="cls-1" x="3.48" y="3.48" width="155.47" height="213.65"/><polyline class="cls-2" points="183.05 27.58 183.05 241.23 27.58 241.23"/><line class="cls-1" x1="24.86" y1="86.05" x2="136.96" y2="86.05"/><line class="cls-1" x1="24.86" y1="33.96" x2="136.96" y2="33.96"/><line class="cls-1" x1="24.86" y1="112.1" x2="136.96" y2="112.1"/><line class="cls-1" x1="108.48" y1="164.2" x2="136.96" y2="164.2"/><line class="cls-1" x1="108.48" y1="190.24" x2="136.96" y2="190.24"/><path class="cls-3" d="M40.93,146v69.67h76.61V146Zm19.91,60.47a.71.71,0,0,1-.66.74H52.07a.71.71,0,0,1-.67-.74V194.08a.71.71,0,0,1,.67-.74h8.11a.71.71,0,0,1,.66.74Zm15.41,0a.71.71,0,0,1-.66.74H67.48a.71.71,0,0,1-.67-.74v-23a.71.71,0,0,1,.67-.74h8.11a.71.71,0,0,1,.66.74Zm15.41,0a.71.71,0,0,1-.67.74h-8.1a.71.71,0,0,1-.67-.74v-18a.71.71,0,0,1,.67-.74H91a.71.71,0,0,1,.67.74Zm15.41,0a.71.71,0,0,1-.67.74H98.3a.71.71,0,0,1-.67-.74v-26a.71.71,0,0,1,.67-.74h8.1a.71.71,0,0,1,.67.74Zm.35-48.13L89.15,175.88a1.3,1.3,0,0,1-1.75.07L73.64,164.62,55.45,182.09a3,3,0,0,1-2.1.84,3,3,0,0,1-2.17-.93h0a3,3,0,0,1,.09-4.27l21.23-20.38a1.33,1.33,0,0,1,1.76-.06L88,168.62,103.23,154a2.83,2.83,0,0,1,2.16-.84,3,3,0,0,1,3,3.08A3,3,0,0,1,107.42,158.36Z" transform="translate(-19.41 -20.32)"/><line class="cls-1" x1="108.48" y1="138.15" x2="136.96" y2="138.15"/><line class="cls-1" x1="24.86" y1="60.01" x2="136.96" y2="60.01"/></svg>