<svg id="Layer_1" data-name="Layer 1" xmlns="http://www.w3.org/2000/svg" viewBox="0 0 444.67 269.67"><defs><style>.cls-1{fill:#ef5024;}.cls-2{fill:#ef4e23;}.cls-26,.cls-3{fill:#fff;}.cls-4{opacity:0.3;}.cls-5{opacity:0.15;}.cls-29,.cls-5,.cls-7{isolation:isolate;}.cls-6{fill:#495465;}.cls-7{opacity:0.35;}.cls-8{opacity:0.15;}.cls-10,.cls-9{fill:none;}.cls-9{stroke:#cccbcb;stroke-linecap:round;stroke-linejoin:round;stroke-width:0.82px;}.cls-10{stroke:#ef4e23;stroke-dasharray:1 3;}.cls-10,.cls-26{stroke-miterlimit:10;}.cls-11{fill:#cccbcb;}.cls-12{fill:#ea4335;}.cls-13{fill:#4285f4;}.cls-14{fill:#34a853;}.cls-15{fill:#fbbc05;}.cls-16{fill:#5f6368;}.cls-17{fill:#cecdca;}.cls-18{fill:#f3b41a;}.cls-19{fill:#dc462f;}.cls-20{fill:#517dbe;}.cls-21{fill:#4f71a8;}.cls-22{fill:#c2432f;}.cls-23{fill:#d09c2a;}.cls-24{fill:#c9c7c5;}.cls-25{fill:#4472b7;}.cls-26{stroke:#4472b7;stroke-width:0.04px;}.cls-27{fill:#dd482f;}.cls-28{fill:#f2af1c;}.cls-29{opacity:0.07;}</style></defs><title>Avi-Vantage-load-balancer-for-Goolge-cloud-load-platform-integration-diagram</title><path class="cls-1" d="M296.2,147.18v17.11a5.76,5.76,0,0,0,2.9,5l14.82,8.56a5.79,5.79,0,0,0,5.78,0l14.82-8.56a5.78,5.78,0,0,0,2.9-5V147.18a5.78,5.78,0,0,0-2.9-5l-14.82-8.56a5.79,5.79,0,0,0-5.78,0l-14.82,8.56A5.76,5.76,0,0,0,296.2,147.18Z"/><path class="cls-2" d="M316.81,179.48a3.39,3.39,0,0,1-1.67-.44l-17.68-10.21a3.34,3.34,0,0,1-1.67-2.89V145.53a3.34,3.34,0,0,1,1.67-2.89l17.68-10.21a3.37,3.37,0,0,1,3.34,0l17.68,10.21a3.35,3.35,0,0,1,1.66,2.89v20.41a3.35,3.35,0,0,1-1.66,2.89L318.48,179A3.42,3.42,0,0,1,316.81,179.48Zm0-46.68a2.46,2.46,0,0,0-1.26.34l-17.68,10.2a2.53,2.53,0,0,0-1.26,2.19v20.41a2.5,2.5,0,0,0,1.26,2.18l17.68,10.21a2.52,2.52,0,0,0,2.52,0l17.68-10.21a2.5,2.5,0,0,0,1.26-2.18V145.53a2.53,2.53,0,0,0-1.26-2.19l-17.68-10.2A2.46,2.46,0,0,0,316.81,132.8Z"/><path class="cls-3" d="M316.81,171.94h0a2.58,2.58,0,0,1-2.17-1.16L312.8,168a1.78,1.78,0,0,0-1.84-.77l-3.26.66a2.6,2.6,0,0,1-3.06-3.07l.65-3.26a1.77,1.77,0,0,0-.76-1.84l-2.77-1.84a2.6,2.6,0,0,1,0-4.33l2.77-1.84a1.78,1.78,0,0,0,.76-1.85l-.65-3.25a2.6,2.6,0,0,1,3.06-3.07l3.26.66a1.79,1.79,0,0,0,1.84-.77l1.84-2.76a2.59,2.59,0,0,1,2.17-1.17h0a2.62,2.62,0,0,1,2.17,1.17l1.84,2.76a1.78,1.78,0,0,0,1.84.77l3.25-.66a2.61,2.61,0,0,1,2.36.71,2.58,2.58,0,0,1,.71,2.36l-.65,3.25a1.78,1.78,0,0,0,.76,1.85l2.76,1.84a2.59,2.59,0,0,1,0,4.33l-2.76,1.84a1.78,1.78,0,0,0-.76,1.85l.65,3.25a2.58,2.58,0,0,1-.71,2.36,2.63,2.63,0,0,1-2.36.71l-3.25-.66a1.79,1.79,0,0,0-1.84.77L319,170.78A2.61,2.61,0,0,1,316.81,171.94Zm-5.49-5.54a2.6,2.6,0,0,1,2.16,1.16l1.84,2.77a1.76,1.76,0,0,0,1.49.8h0a1.76,1.76,0,0,0,1.49-.8l1.84-2.77a2.59,2.59,0,0,1,2.68-1.11l3.26.66a1.79,1.79,0,0,0,2.1-2.11l-.65-3.25a2.59,2.59,0,0,1,1.11-2.69l2.76-1.83a1.8,1.8,0,0,0,0-3l-2.76-1.83a2.59,2.59,0,0,1-1.11-2.69l.65-3.25a1.79,1.79,0,0,0-2.1-2.11l-3.26.66a2.59,2.59,0,0,1-2.68-1.12l-1.84-2.76a1.76,1.76,0,0,0-1.49-.8h0a1.76,1.76,0,0,0-1.49.8l-1.84,2.76A2.59,2.59,0,0,1,310.8,145l-3.26-.66a1.79,1.79,0,0,0-2.11,2.11l.66,3.25a2.6,2.6,0,0,1-1.11,2.69l-2.77,1.83a1.8,1.8,0,0,0,0,3l2.77,1.83a2.59,2.59,0,0,1,1.11,2.69l-.66,3.25a1.79,1.79,0,0,0,2.11,2.11l3.26-.66A3,3,0,0,1,311.32,166.4Z"/><path class="cls-3" d="M316.81,160.54a4.81,4.81,0,1,1,4.8-4.81A4.81,4.81,0,0,1,316.81,160.54Zm0-8.79a4,4,0,1,0,4,4A4,4,0,0,0,316.81,151.75Z"/><g class="cls-4"><path class="cls-3" d="M316.81,161.27a5.54,5.54,0,0,1,0-11.07.41.41,0,0,1,.41.41.42.42,0,0,1-.41.41,4.72,4.72,0,1,0,0,9.43.42.42,0,0,1,.41.41A.41.41,0,0,1,316.81,161.27Z"/></g><path class="cls-3" d="M316.81,164.93a9.2,9.2,0,1,1,9.19-9.2A9.21,9.21,0,0,1,316.81,164.93Zm0-17.58a8.38,8.38,0,1,0,8.38,8.38A8.39,8.39,0,0,0,316.81,147.35Z"/><g class="cls-4"><path class="cls-3" d="M316.81,164.2a.41.41,0,0,1-.41-.41.41.41,0,0,1,.41-.41,7.65,7.65,0,1,0,0-15.29.41.41,0,0,1-.41-.41.41.41,0,0,1,.41-.41,8.47,8.47,0,0,1,0,16.93Z"/></g><g class="cls-5"><polygon class="cls-6" points="340.84 57.02 292.24 57.02 289.57 54.35 343.51 54.35 340.84 57.02"/></g><g class="cls-5"><path class="cls-6" d="M344.05,21.77l-2.14-2.14h-50.2l-2.14,2.14V23.9h54.48V21.77Z"/></g><g class="cls-7"><rect class="cls-6" x="289.57" y="23.1" width="53.94" height="2.67"/></g><path class="cls-1" d="M309.35,37.14v5a3.08,3.08,0,0,0,1.55,2.68l4.31,2.49a3.1,3.1,0,0,0,3.09,0l4.31-2.49a3.08,3.08,0,0,0,1.55-2.68v-5a3.08,3.08,0,0,0-1.55-2.68L318.3,32a3.1,3.1,0,0,0-3.09,0l-4.31,2.49A3.08,3.08,0,0,0,309.35,37.14Z"/><path class="cls-2" d="M316.76,48.37a2.73,2.73,0,0,1-1.34-.35l-5.26-3a2.68,2.68,0,0,1-1.34-2.32V36.59a2.69,2.69,0,0,1,1.33-2.32l5.27-3a2.7,2.7,0,0,1,2.67,0l5.26,3a2.68,2.68,0,0,1,1.34,2.32v6.07A2.68,2.68,0,0,1,323.35,45l-5.26,3A2.73,2.73,0,0,1,316.76,48.37Zm0-16.43a1.67,1.67,0,0,0-.81.22l-5.26,3a1.6,1.6,0,0,0-.8,1.39v6.07a1.61,1.61,0,0,0,.8,1.39l5.26,3a1.6,1.6,0,0,0,1.61,0l5.26-3a1.59,1.59,0,0,0,.8-1.39V36.59a1.58,1.58,0,0,0-.8-1.39l-5.26-3A1.66,1.66,0,0,0,316.76,31.94Z"/><path class="cls-6" d="M331.23,68.23H302.39a.54.54,0,1,1,0-1.07h28.84a.54.54,0,0,1,0,1.07Z"/><rect class="cls-6" x="290.64" y="22.83" width="52.34" height="1.07"/><rect class="cls-6" x="315.74" y="21.23" width="2.14" height="1.07"/><rect class="cls-6" x="290.64" y="53.81" width="52.34" height="1.07"/><g class="cls-5"><path class="cls-6" d="M323.27,58h-3.63V56.94h3.63Zm-9.08,0h-3.63V56.94h3.63Z"/></g><path class="cls-6" d="M303.62,68.23V67.16c6.07,0,6.14-10.15,6.14-10.25h1.07C310.83,57.37,310.74,68.23,303.62,68.23Z"/><path class="cls-6" d="M330,68.23c-7.13,0-7.21-10.86-7.21-11.32h1.07c0,.1.08,10.25,6.14,10.25Z"/><path class="cls-6" d="M316.81,60.11a3.17,3.17,0,0,1-3.21-3.2h1.07a2.14,2.14,0,1,0,4.28,0H320A3.16,3.16,0,0,1,316.81,60.11Z"/><path class="cls-3" d="M319.48,42.33A.54.54,0,0,1,319,42l-2.19-4.38L314.62,42a.54.54,0,0,1-.72.24.53.53,0,0,1-.24-.71l2.67-5.35a.56.56,0,0,1,1,0L320,41.56a.54.54,0,0,1-.48.77Z"/><path class="cls-6" d="M341.28,57H292.22l-2.65-2.66V21.75l2.12-2.12h50.24l2.12,2.12V54.32ZM292.67,56h48.17L343,53.87V22.19l-1.5-1.49H292.13l-1.49,1.49V53.92Z"/><polygon class="cls-6" points="330.16 68.77 303.46 68.77 302.39 67.7 331.23 67.7 330.16 68.77"/><path class="cls-2" d="M292.24,24.17a.54.54,0,1,0,.53.53.53.53,0,0,0-.53-.53Z"/><path class="cls-2" d="M293.84,24.17a.54.54,0,1,0,.54.53.53.53,0,0,0-.54-.53Z"/><path class="cls-2" d="M295.44,24.17a.54.54,0,1,0,.54.53.53.53,0,0,0-.54-.53Z"/><g class="cls-5"><rect class="cls-6" x="290.8" y="25.7" width="52.88" height="1.07"/></g><g class="cls-5"><path class="cls-6" d="M341.81,36.65a.54.54,0,0,1-.54-.54V26H306.56a.54.54,0,0,1-.54-.53.53.53,0,0,1,.54-.53h35.25a.53.53,0,0,1,.53.53V36.11A.54.54,0,0,1,341.81,36.65Z"/></g><g class="cls-5"><path class="cls-6" d="M304.42,26h-1.6a.54.54,0,0,1-.54-.53.53.53,0,0,1,.54-.53h1.6a.53.53,0,0,1,.54.53A.54.54,0,0,1,304.42,26Z"/></g><g class="cls-5"><path class="cls-6" d="M341.81,38.25a.53.53,0,0,1-.38-.16.66.66,0,0,1-.12-.17.75.75,0,0,1,0-.2.71.71,0,0,1,0-.21.55.55,0,0,1,.7-.29.57.57,0,0,1,.18.12.39.39,0,0,1,.11.17.49.49,0,0,1,0,.21.51.51,0,0,1,0,.2.45.45,0,0,1-.11.17.57.57,0,0,1-.18.12A.65.65,0,0,1,341.81,38.25Z"/></g><g class="cls-8"><path class="cls-6" d="M316.76,49.44a2.64,2.64,0,0,1-1.34-.36l-5.26-3a.54.54,0,1,1,.53-.93l5.26,3a1.62,1.62,0,0,0,1.61,0l5.26-3a.54.54,0,0,1,.53.93l-5.26,3A2.63,2.63,0,0,1,316.76,49.44Z"/></g><path class="cls-6" d="M209.6,166.45h-3.29v-5.71h3.29v1h-2.08V163h1.93v1h-1.93v1.47h2.08Z"/><path class="cls-6" d="M215.48,166.45H214.1l-1.33-2.16-1.32,2.16h-1.3l1.89-2.94-1.77-2.77h1.34l1.23,2.06,1.2-2.06h1.31l-1.8,2.84Z"/><path class="cls-6" d="M218.49,166.45h-1.21v-4.7h-1.56v-1H220v1h-1.55Z"/><path class="cls-6" d="M224.29,166.45H221v-5.71h3.29v1h-2.08V163h1.93v1h-1.93v1.47h2.08Z"/><path class="cls-6" d="M226.77,164.26v2.19h-1.21v-5.71h1.66a2.84,2.84,0,0,1,1.72.43,1.68,1.68,0,0,1,.28,2.18,1.81,1.81,0,0,1-.78.62c.86,1.28,1.42,2.11,1.68,2.48h-1.35l-1.36-2.19Zm0-1h.39a1.45,1.45,0,0,0,.84-.19.67.67,0,0,0,.28-.6.62.62,0,0,0-.28-.58,1.67,1.67,0,0,0-.87-.17h-.36Z"/><path class="cls-6" d="M236,166.45h-1.54L232,162.13h0c.05.77.08,1.31.08,1.64v2.68h-1.08v-5.71h1.52l2.48,4.28h0c0-.74-.06-1.27-.06-1.57v-2.71H236Z"/><path class="cls-6" d="M241,166.45l-.42-1.35H238.5l-.41,1.35h-1.31l2-5.73h1.48l2,5.73Zm-.71-2.37c-.38-1.23-.59-1.93-.64-2.09s-.08-.29-.11-.38c-.08.33-.33,1.15-.73,2.47Z"/><path class="cls-6" d="M243.1,166.45v-5.71h1.21v4.71h2.32v1Z"/><path class="cls-6" d="M249.86,166.45v-5.71h1.21v5.71Z"/><path class="cls-6" d="M256.53,162.53a1.77,1.77,0,0,1-.57,1.41,2.51,2.51,0,0,1-1.64.48h-.52v2h-1.21v-5.71h1.82a2.42,2.42,0,0,1,1.58.45A1.64,1.64,0,0,1,256.53,162.53Zm-2.73.9h.4a1.29,1.29,0,0,0,.83-.22.76.76,0,0,0,.28-.64.79.79,0,0,0-.23-.63,1.08,1.08,0,0,0-.73-.2h-.55Z"/><path class="cls-6" d="M196.28,139.87a1.5,1.5,0,0,1-.56,1.22,2.46,2.46,0,0,1-1.55.44,3.57,3.57,0,0,1-1.61-.34v-1.13a5.93,5.93,0,0,0,1,.37,2.91,2.91,0,0,0,.74.1,1.06,1.06,0,0,0,.61-.15.52.52,0,0,0,.21-.45.53.53,0,0,0-.09-.3,1.16,1.16,0,0,0-.28-.25A7.83,7.83,0,0,0,194,139a3.24,3.24,0,0,1-.78-.47,1.64,1.64,0,0,1-.42-.53,1.42,1.42,0,0,1-.16-.7,1.44,1.44,0,0,1,.52-1.19,2.12,2.12,0,0,1,1.42-.44,3.41,3.41,0,0,1,.85.11,7,7,0,0,1,.84.29l-.39.95a5.12,5.12,0,0,0-.76-.27,2.3,2.3,0,0,0-.58-.07.76.76,0,0,0-.53.16.54.54,0,0,0-.18.42.53.53,0,0,0,.07.28.89.89,0,0,0,.24.23,6.76,6.76,0,0,0,.76.4,2.93,2.93,0,0,1,1.1.77A1.47,1.47,0,0,1,196.28,139.87Z"/><path class="cls-6" d="M200.68,141.45h-3.29v-5.71h3.29v1H198.6V138h1.94v1H198.6v1.47h2.08Z"/><path class="cls-6" d="M203.17,139.26v2.19H202v-5.71h1.67a2.86,2.86,0,0,1,1.72.43,1.51,1.51,0,0,1,.56,1.28,1.48,1.48,0,0,1-.28.9,1.88,1.88,0,0,1-.78.62c.86,1.28,1.42,2.11,1.68,2.48h-1.35l-1.36-2.19Zm0-1h.39a1.45,1.45,0,0,0,.84-.19.7.7,0,0,0,.28-.6.64.64,0,0,0-.28-.58,1.67,1.67,0,0,0-.87-.17h-.36Z"/><path class="cls-6" d="M210.57,135.74h1.23l-2,5.71h-1.32l-1.93-5.71h1.22l1.07,3.4c.06.2.12.44.19.7l.12.56a9.53,9.53,0,0,1,.29-1.26Z"/><path class="cls-6" d="M215.88,141.45h-3.29v-5.71h3.29v1H213.8V138h1.94v1H213.8v1.47h2.08Z"/><path class="cls-6" d="M218.37,139.26v2.19h-1.22v-5.71h1.67a2.86,2.86,0,0,1,1.72.43,1.51,1.51,0,0,1,.56,1.28,1.48,1.48,0,0,1-.28.9,1.81,1.81,0,0,1-.78.62c.86,1.28,1.42,2.11,1.68,2.48h-1.35L219,139.26Zm0-1h.39a1.45,1.45,0,0,0,.84-.19.67.67,0,0,0,.28-.6.64.64,0,0,0-.28-.58,1.67,1.67,0,0,0-.87-.17h-.36Z"/><path class="cls-6" d="M227.22,135.74l-2.13,5.71H224l2.13-5.71Z"/><path class="cls-6" d="M235.28,141.45h-1.54l-2.48-4.32h0c.05.77.08,1.31.08,1.64v2.68h-1.08v-5.71h1.52l2.48,4.28h0c0-.74-.06-1.27-.06-1.57v-2.71h1.09Z"/><path class="cls-6" d="M240.09,141.45H236.8v-5.71h3.29v1H238V138H240v1H238v1.47h2.08Z"/><path class="cls-6" d="M243.56,141.45h-1.21v-4.7H240.8v-1h4.32v1h-1.56Z"/><path class="cls-6" d="M251.64,141.45h-1.38l-.78-3-.14-.66c-.07-.33-.11-.56-.12-.67,0,.14-.06.37-.12.68s-.11.53-.14.66l-.77,3h-1.38l-1.45-5.71h1.19l.73,3.12c.12.58.22,1.08.27,1.5,0-.15.06-.38.11-.69s.11-.56.16-.73l.83-3.2h1.15l.83,3.2c0,.15.08.37.14.66s.09.55.12.76c0-.21.07-.46.13-.76s.1-.55.15-.74l.73-3.12h1.19Z"/><path class="cls-6" d="M259.07,138.59a3.09,3.09,0,0,1-.7,2.18,3.05,3.05,0,0,1-4,0,3.12,3.12,0,0,1-.71-2.19,3,3,0,0,1,.71-2.17,2.6,2.6,0,0,1,2-.76,2.64,2.64,0,0,1,2,.76A3.13,3.13,0,0,1,259.07,138.59Zm-4.17,0a2.38,2.38,0,0,0,.37,1.44,1.25,1.25,0,0,0,1.08.49c1,0,1.45-.64,1.45-1.93s-.48-1.93-1.44-1.93a1.28,1.28,0,0,0-1.09.49A2.38,2.38,0,0,0,254.9,138.59Z"/><path class="cls-6" d="M261.55,139.26v2.19h-1.21v-5.71H262a2.84,2.84,0,0,1,1.72.43,1.51,1.51,0,0,1,.56,1.28,1.48,1.48,0,0,1-.28.9,1.81,1.81,0,0,1-.78.62c.86,1.28,1.42,2.11,1.68,2.48h-1.35l-1.36-2.19Zm0-1h.39a1.51,1.51,0,0,0,.85-.19.69.69,0,0,0,.27-.6.64.64,0,0,0-.28-.58,1.67,1.67,0,0,0-.87-.17h-.36Z"/><path class="cls-6" d="M270.29,141.45h-1.37l-1.5-2.4-.51.37v2H265.7v-5.71h1.21v2.62l.47-.67,1.55-1.95h1.35l-2,2.53Z"/><path class="cls-6" d="M200,144.67a1.23,1.23,0,0,0-1.05.51,2.4,2.4,0,0,0-.38,1.43c0,1.28.48,1.92,1.43,1.92a4.61,4.61,0,0,0,1.46-.31v1a4,4,0,0,1-1.57.29,2.41,2.41,0,0,1-1.91-.75,3.22,3.22,0,0,1-.66-2.17,3.45,3.45,0,0,1,.33-1.56,2.27,2.27,0,0,1,.93-1,2.72,2.72,0,0,1,1.42-.36,4,4,0,0,1,1.68.4l-.39,1c-.22-.1-.43-.19-.65-.27A2.1,2.1,0,0,0,200,144.67Z"/><path class="cls-6" d="M207.94,146.59a3.09,3.09,0,0,1-.7,2.18,3.05,3.05,0,0,1-4,0,3.12,3.12,0,0,1-.71-2.19,3,3,0,0,1,.71-2.17,3.05,3.05,0,0,1,4,0A3.09,3.09,0,0,1,207.94,146.59Zm-4.17,0a2.39,2.39,0,0,0,.36,1.44,1.28,1.28,0,0,0,1.09.49c1,0,1.45-.64,1.45-1.93s-.48-1.93-1.44-1.93a1.26,1.26,0,0,0-1.09.49A2.32,2.32,0,0,0,203.77,146.59Z"/><path class="cls-6" d="M214.27,149.45h-1.54l-2.48-4.32h0c0,.77.08,1.31.08,1.64v2.68H209.2v-5.71h1.53l2.48,4.28h0c0-.74-.06-1.27-.06-1.57v-2.71h1.09Z"/><path class="cls-6" d="M217,149.45h-1.19v-5.71h3.27v1H217v1.47h1.94v1H217Z"/><path class="cls-6" d="M220.26,149.45v-5.71h1.21v5.71Z"/><path class="cls-6" d="M225.15,146.25h2.27v3a6.5,6.5,0,0,1-1,.25,6.41,6.41,0,0,1-1,.07,2.53,2.53,0,0,1-2-.76,3.16,3.16,0,0,1-.68-2.18,2.88,2.88,0,0,1,.79-2.15,3,3,0,0,1,2.2-.78,4.3,4.3,0,0,1,1.69.35l-.4,1a2.86,2.86,0,0,0-1.3-.31,1.62,1.62,0,0,0-1.26.53,2.05,2.05,0,0,0-.47,1.41,2.21,2.21,0,0,0,.38,1.42,1.31,1.31,0,0,0,1.11.5,4.11,4.11,0,0,0,.77-.08v-1.19h-1.09Z"/><path class="cls-6" d="M233.51,143.74v3.7a2.14,2.14,0,0,1-.29,1.11,1.8,1.8,0,0,1-.81.73,2.94,2.94,0,0,1-1.27.25,2.45,2.45,0,0,1-1.71-.56,2,2,0,0,1-.61-1.55v-3.68H230v3.5a1.52,1.52,0,0,0,.26,1,1.13,1.13,0,0,0,.88.31,1.1,1.1,0,0,0,.86-.31,1.49,1.49,0,0,0,.27-1v-3.49Z"/><path class="cls-6" d="M236.2,147.26v2.19H235v-5.71h1.66a2.84,2.84,0,0,1,1.72.43,1.68,1.68,0,0,1,.28,2.18,1.81,1.81,0,0,1-.78.62c.86,1.28,1.42,2.11,1.68,2.48H238.2l-1.36-2.19Zm0-1h.39a1.45,1.45,0,0,0,.84-.19.67.67,0,0,0,.28-.6.62.62,0,0,0-.28-.58,1.67,1.67,0,0,0-.87-.17h-.36Z"/><path class="cls-6" d="M243.84,149.45l-.41-1.35h-2.08l-.42,1.35h-1.3l2-5.73h1.48l2,5.73Zm-.7-2.37-.65-2.09c0-.16-.08-.29-.1-.38-.09.33-.33,1.15-.74,2.47Z"/><path class="cls-6" d="M248.15,149.45h-1.21v-4.7h-1.55v-1h4.31v1h-1.55Z"/><path class="cls-6" d="M250.66,149.45v-5.71h1.21v5.71Z"/><path class="cls-6" d="M258.57,146.59a3.09,3.09,0,0,1-.7,2.18,3.05,3.05,0,0,1-4,0,3.12,3.12,0,0,1-.71-2.19,3,3,0,0,1,.71-2.17,3.05,3.05,0,0,1,4,0A3.09,3.09,0,0,1,258.57,146.59Zm-4.17,0a2.32,2.32,0,0,0,.37,1.44,1.25,1.25,0,0,0,1.08.49c1,0,1.45-.64,1.45-1.93s-.48-1.93-1.44-1.93a1.26,1.26,0,0,0-1.09.49A2.38,2.38,0,0,0,254.4,146.59Z"/><path class="cls-6" d="M264.9,149.45h-1.54l-2.48-4.32h0c.05.77.08,1.31.08,1.64v2.68h-1.09v-5.71h1.53l2.48,4.28h0c0-.74-.06-1.27-.06-1.57v-2.71h1.09Z"/><path class="cls-6" d="M95.7,119.86a1.74,1.74,0,0,1-.58,1.41,2.49,2.49,0,0,1-1.64.49H93v2H91.75v-5.71h1.83a2.48,2.48,0,0,1,1.58.44A1.65,1.65,0,0,1,95.7,119.86Zm-2.74.9h.4a1.34,1.34,0,0,0,.84-.22.78.78,0,0,0,.28-.64.79.79,0,0,0-.24-.63,1.12,1.12,0,0,0-.73-.2H93Z"/><path class="cls-6" d="M98.07,121.6v2.19H96.86v-5.71h1.66a2.85,2.85,0,0,1,1.72.42,1.49,1.49,0,0,1,.56,1.29,1.47,1.47,0,0,1-.28.89,1.74,1.74,0,0,1-.78.62l1.68,2.49h-1.34l-1.37-2.19Zm0-1h.39a1.51,1.51,0,0,0,.85-.19.69.69,0,0,0,.27-.6.63.63,0,0,0-.28-.58,1.75,1.75,0,0,0-.87-.17h-.36Z"/><path class="cls-6" d="M107.4,120.92a3.07,3.07,0,0,1-.7,2.18,3,3,0,0,1-4,0,3.7,3.7,0,0,1,0-4.36,2.63,2.63,0,0,1,2-.75,2.6,2.6,0,0,1,2,.75A3.11,3.11,0,0,1,107.4,120.92Zm-4.17,0a2.37,2.37,0,0,0,.37,1.45,1.26,1.26,0,0,0,1.08.48c1,0,1.45-.64,1.45-1.93s-.48-1.93-1.44-1.93a1.29,1.29,0,0,0-1.09.49A2.43,2.43,0,0,0,103.23,120.92Z"/><path class="cls-6" d="M108.07,125.47a2.57,2.57,0,0,1-.72-.09v-1a2.05,2.05,0,0,0,.57.08.62.62,0,0,0,.57-.25,1.3,1.3,0,0,0,.18-.77v-5.35h1.21v5.34a2.24,2.24,0,0,1-.46,1.52A1.71,1.71,0,0,1,108.07,125.47Z"/><path class="cls-6" d="M114.68,123.79h-3.29v-5.71h3.29v1H112.6v1.25h1.94v1H112.6v1.47h2.08Z"/><path class="cls-6" d="M118.38,119a1.22,1.22,0,0,0-1.06.52A2.38,2.38,0,0,0,117,121c0,1.27.47,1.91,1.43,1.91a4.56,4.56,0,0,0,1.46-.3v1a4,4,0,0,1-1.57.3,2.42,2.42,0,0,1-1.91-.76,3.2,3.2,0,0,1-.66-2.17,3.65,3.65,0,0,1,.32-1.56,2.35,2.35,0,0,1,.94-1,2.7,2.7,0,0,1,1.42-.36,3.84,3.84,0,0,1,1.67.41l-.39,1a5.73,5.73,0,0,0-.64-.26A1.85,1.85,0,0,0,118.38,119Z"/><path class="cls-6" d="M123.33,123.79h-1.21v-4.71h-1.55v-1h4.31v1h-1.55Z"/><path class="cls-6" d="M129.21,122.2a1.47,1.47,0,0,1-.55,1.22,2.4,2.4,0,0,1-1.55.45,3.64,3.64,0,0,1-1.62-.35V122.4a6.85,6.85,0,0,0,1,.36,2.94,2.94,0,0,0,.73.11,1,1,0,0,0,.61-.16.5.5,0,0,0,.22-.45.47.47,0,0,0-.1-.3.94.94,0,0,0-.27-.25,7.83,7.83,0,0,0-.74-.39,3.56,3.56,0,0,1-.79-.47,2,2,0,0,1-.42-.53,1.54,1.54,0,0,1-.15-.7,1.47,1.47,0,0,1,.51-1.19,2.15,2.15,0,0,1,1.42-.44,3.35,3.35,0,0,1,.85.11,5.81,5.81,0,0,1,.85.3l-.39.94a5.29,5.29,0,0,0-.76-.26,2.39,2.39,0,0,0-.59-.08.79.79,0,0,0-.52.16.52.52,0,0,0-.19.42.51.51,0,0,0,.08.28.84.84,0,0,0,.23.23,8.56,8.56,0,0,0,.77.4,3.14,3.14,0,0,1,1.1.77A1.48,1.48,0,0,1,129.21,122.2Z"/><path class="cls-6" d="M93.59,170.92a1.25,1.25,0,0,0-1.06.51,2.4,2.4,0,0,0-.37,1.43c0,1.28.48,1.92,1.43,1.92a4.61,4.61,0,0,0,1.46-.31v1a4,4,0,0,1-1.57.29,2.41,2.41,0,0,1-1.91-.75,3.22,3.22,0,0,1-.66-2.17,3.45,3.45,0,0,1,.33-1.56,2.27,2.27,0,0,1,.93-1,2.72,2.72,0,0,1,1.42-.36,3.93,3.93,0,0,1,1.67.4l-.39,1c-.21-.1-.43-.19-.64-.27A2.1,2.1,0,0,0,93.59,170.92Z"/><path class="cls-6" d="M101.53,172.84a3.09,3.09,0,0,1-.71,2.18,3.05,3.05,0,0,1-4,0,3.12,3.12,0,0,1-.7-2.19,3,3,0,0,1,.7-2.17,3.06,3.06,0,0,1,4,0A3.14,3.14,0,0,1,101.53,172.84Zm-4.17,0a2.39,2.39,0,0,0,.36,1.44,1.26,1.26,0,0,0,1.09.49c1,0,1.45-.64,1.45-1.93s-.48-1.93-1.44-1.93a1.25,1.25,0,0,0-1.09.49A2.32,2.32,0,0,0,97.36,172.84Z"/><path class="cls-6" d="M105.21,175.7l-1.38-4.48h0c0,.92.07,1.52.07,1.83v2.65h-1.08V170h1.65l1.35,4.37h0l1.44-4.37h1.65v5.71h-1.13v-3.14c0-.17,0-.61.06-1.33h0l-1.47,4.47Z"/><path class="cls-6" d="M114.36,171.78a1.74,1.74,0,0,1-.58,1.41,2.49,2.49,0,0,1-1.64.48h-.52v2h-1.21V170h1.83a2.42,2.42,0,0,1,1.58.45A1.64,1.64,0,0,1,114.36,171.78Zm-2.74.9h.4a1.32,1.32,0,0,0,.84-.22.79.79,0,0,0,.28-.64.77.77,0,0,0-.24-.63,1,1,0,0,0-.72-.2h-.56Z"/><path class="cls-6" d="M120.17,170v3.7a2.14,2.14,0,0,1-.29,1.11,1.83,1.83,0,0,1-.82.73,2.86,2.86,0,0,1-1.26.25,2.43,2.43,0,0,1-1.71-.56,2,2,0,0,1-.61-1.55V170h1.2v3.5a1.46,1.46,0,0,0,.27,1,1.13,1.13,0,0,0,.88.31,1.1,1.1,0,0,0,.86-.31,1.49,1.49,0,0,0,.27-1V170Z"/><path class="cls-6" d="M123.85,175.7h-1.21V171h-1.56v-1h4.32v1h-1.55Z"/><path class="cls-6" d="M129.65,175.7h-3.29V170h3.29v1h-2.08v1.25h1.93v1h-1.93v1.47h2.08Z"/><path class="cls-6" d="M98.89,184.7H95.6V179h3.29v1H96.81v1.25h1.93v1H96.81v1.47h2.08Z"/><path class="cls-6" d="M105.22,184.7h-1.54l-2.48-4.32h0c0,.77.07,1.31.07,1.64v2.68h-1.08V179h1.52l2.49,4.28h0c0-.74-.06-1.27-.06-1.57V179h1.09Z"/><path class="cls-6" d="M108.91,181.5h2.26v3a6.39,6.39,0,0,1-1,.25,6.63,6.63,0,0,1-1,.07,2.49,2.49,0,0,1-2-.76,3.11,3.11,0,0,1-.68-2.18,2.85,2.85,0,0,1,.79-2.15,3,3,0,0,1,2.19-.78,4.35,4.35,0,0,1,1.7.35l-.41,1a2.83,2.83,0,0,0-1.3-.31,1.59,1.59,0,0,0-1.25.53,2,2,0,0,0-.48,1.41,2.27,2.27,0,0,0,.38,1.42,1.33,1.33,0,0,0,1.11.5,4.11,4.11,0,0,0,.77-.08v-1.19h-1.08Z"/><path class="cls-6" d="M112.61,184.7V179h1.22v5.71Z"/><path class="cls-6" d="M120.41,184.7h-1.54l-2.49-4.32h0c.05.77.07,1.31.07,1.64v2.68h-1.08V179h1.53l2.48,4.28h0c0-.74-.06-1.27-.06-1.57V179h1.09Z"/><path class="cls-6" d="M125.21,184.7h-3.28V179h3.28v1h-2.07v1.25h1.93v1h-1.93v1.47h2.07Z"/><path class="cls-6" d="M106.52,237.5h1.22l-1.94,5.71h-1.32l-1.94-5.71h1.23l1.07,3.4c.06.2.12.44.19.7s.1.46.11.56a10.08,10.08,0,0,1,.3-1.26Z"/><path class="cls-6" d="M112.49,239.28a1.75,1.75,0,0,1-.58,1.41,2.43,2.43,0,0,1-1.64.49h-.52v2h-1.21V237.5h1.83A2.44,2.44,0,0,1,112,238,1.63,1.63,0,0,1,112.49,239.28Zm-2.74.91h.4A1.34,1.34,0,0,0,111,240a.78.78,0,0,0,.27-.64.76.76,0,0,0-.23-.63,1.06,1.06,0,0,0-.73-.21h-.55Z"/><path class="cls-6" d="M116.07,238.43a1.23,1.23,0,0,0-1.06.51,2.4,2.4,0,0,0-.37,1.43c0,1.28.47,1.91,1.43,1.91a4.56,4.56,0,0,0,1.46-.3v1a4.14,4.14,0,0,1-1.57.29,2.41,2.41,0,0,1-1.91-.75,3.22,3.22,0,0,1-.66-2.17,3.59,3.59,0,0,1,.32-1.56,2.35,2.35,0,0,1,.94-1,2.72,2.72,0,0,1,1.42-.36,4,4,0,0,1,1.67.4l-.39,1c-.21-.1-.43-.19-.64-.27A2.1,2.1,0,0,0,116.07,238.43Z"/><path class="cls-6" d="M95.67,252.21H94.13l-2.48-4.32h0c0,.77.08,1.31.08,1.64v2.68H90.61V246.5h1.52l2.48,4.28h0c0-.74-.06-1.27-.06-1.57V246.5h1.09Z"/><path class="cls-6" d="M100.48,252.21H97.19V246.5h3.29v1H98.4v1.26h1.93v1H98.4v1.47h2.08Z"/><path class="cls-6" d="M104,252.21h-1.21v-4.7h-1.55v-1h4.31v1H104Z"/><path class="cls-6" d="M112,252.21h-1.38l-.78-3c0-.1-.08-.32-.14-.66s-.11-.56-.12-.67c0,.14-.06.36-.12.68s-.11.53-.14.66l-.77,3H107.2l-1.46-5.71h1.2l.73,3.12c.12.58.22,1.07.27,1.5,0-.15,0-.38.11-.69s.11-.56.16-.73l.83-3.2h1.15l.83,3.2c0,.15.08.37.13.66s.1.54.13.76c0-.21.07-.46.12-.76s.11-.55.16-.74l.73-3.12h1.19Z"/><path class="cls-6" d="M119.46,249.35a3.09,3.09,0,0,1-.7,2.18,3.05,3.05,0,0,1-4,0,3.72,3.72,0,0,1,0-4.37,2.63,2.63,0,0,1,2-.75,2.6,2.6,0,0,1,2,.76A3.09,3.09,0,0,1,119.46,249.35Zm-4.17,0a2.32,2.32,0,0,0,.37,1.44,1.25,1.25,0,0,0,1.08.49c1,0,1.45-.64,1.45-1.93s-.48-1.93-1.44-1.93a1.26,1.26,0,0,0-1.09.49A2.38,2.38,0,0,0,115.29,249.35Z"/><path class="cls-6" d="M121.93,250v2.19h-1.21V246.5h1.67a2.86,2.86,0,0,1,1.72.43,1.51,1.51,0,0,1,.56,1.28,1.48,1.48,0,0,1-.28.9,1.81,1.81,0,0,1-.78.62c.86,1.28,1.42,2.11,1.68,2.48h-1.35L122.58,250Zm0-1h.4a1.45,1.45,0,0,0,.84-.19.68.68,0,0,0,.28-.61.63.63,0,0,0-.28-.57,1.66,1.66,0,0,0-.87-.18h-.37Z"/><path class="cls-6" d="M130.68,252.21H129.3l-1.49-2.4-.51.36v2h-1.22V246.5h1.22v2.62l.47-.68,1.55-1.94h1.34l-2,2.53Z"/><path class="cls-6" d="M296.68,97.6v2.19h-1.21V94.08h1.66a2.88,2.88,0,0,1,1.73.42,1.52,1.52,0,0,1,.56,1.29,1.54,1.54,0,0,1-.28.89,1.83,1.83,0,0,1-.79.62L300,99.79h-1.34l-1.36-2.19Zm0-1h.39a1.46,1.46,0,0,0,.85-.19.69.69,0,0,0,.27-.6.63.63,0,0,0-.28-.58,1.71,1.71,0,0,0-.86-.17h-.37Z"/><path class="cls-6" d="M304.12,99.79h-3.29V94.08h3.29v1H302v1.25H304v1H302v1.47h2.08Z"/><path class="cls-6" d="M308.76,98.2a1.47,1.47,0,0,1-.55,1.22,2.4,2.4,0,0,1-1.55.45,3.64,3.64,0,0,1-1.62-.35V98.4a6.85,6.85,0,0,0,1,.36,2.94,2.94,0,0,0,.73.11,1,1,0,0,0,.61-.16.5.5,0,0,0,.22-.45.54.54,0,0,0-.1-.3.94.94,0,0,0-.27-.25,7.83,7.83,0,0,0-.74-.39,3.56,3.56,0,0,1-.79-.47,2,2,0,0,1-.42-.53,1.54,1.54,0,0,1-.15-.7,1.47,1.47,0,0,1,.51-1.19A2.13,2.13,0,0,1,307,94a3.35,3.35,0,0,1,.85.11,5.81,5.81,0,0,1,.85.3l-.39.94a5.29,5.29,0,0,0-.76-.26A2.39,2.39,0,0,0,307,95a.84.84,0,0,0-.53.16.54.54,0,0,0-.18.42.51.51,0,0,0,.08.28.72.72,0,0,0,.23.23,8.56,8.56,0,0,0,.77.4,3.14,3.14,0,0,1,1.1.77A1.48,1.48,0,0,1,308.76,98.2Z"/><path class="cls-6" d="M312.08,99.79h-1.21V95.08h-1.55v-1h4.31v1h-1.55Z"/><path class="cls-6" d="M324.56,99.79l-.41-1.36h-2.08l-.42,1.36h-1.3l2-5.74h1.48l2,5.74Zm-.7-2.38-.65-2.09c0-.16-.08-.29-.1-.38-.09.33-.33,1.16-.74,2.47Z"/><path class="cls-6" d="M330.61,95.86a1.77,1.77,0,0,1-.57,1.41,2.53,2.53,0,0,1-1.64.49h-.52v2h-1.21V94.08h1.82a2.48,2.48,0,0,1,1.58.44A1.65,1.65,0,0,1,330.61,95.86Zm-2.73.9h.4a1.29,1.29,0,0,0,.83-.22.75.75,0,0,0,.28-.64.82.82,0,0,0-.23-.63,1.14,1.14,0,0,0-.73-.2h-.55Z"/><path class="cls-6" d="M331.77,99.79V94.08H333v5.71Z"/><path class="cls-6" d="M286.22,192.36,285.8,191h-2.08l-.41,1.36H282l2-5.73h1.48l2,5.73Zm-.71-2.37c-.38-1.24-.6-1.93-.64-2.09s-.09-.29-.11-.39c-.08.34-.33,1.16-.74,2.48Z"/><path class="cls-6" d="M291.58,186.65h1.22l-1.94,5.71h-1.32l-1.94-5.71h1.22l1.08,3.4c.06.2.12.43.18.7a4.14,4.14,0,0,1,.12.56,10.08,10.08,0,0,1,.3-1.26Z"/><path class="cls-6" d="M293.6,192.36v-5.71h1.21v5.71Z"/><path class="cls-6" d="M300.91,187.58a1.25,1.25,0,0,0-1.06.51,2.38,2.38,0,0,0-.37,1.43c0,1.27.48,1.91,1.43,1.91a4.56,4.56,0,0,0,1.46-.3v1a4.14,4.14,0,0,1-1.57.29,2.39,2.39,0,0,1-1.91-.76,3.18,3.18,0,0,1-.66-2.17,3.65,3.65,0,0,1,.32-1.56,2.33,2.33,0,0,1,.94-1,2.72,2.72,0,0,1,1.42-.36,3.82,3.82,0,0,1,1.67.4l-.39,1a5.73,5.73,0,0,0-.64-.26A1.84,1.84,0,0,0,300.91,187.58Z"/><path class="cls-6" d="M308.85,189.5a3.11,3.11,0,0,1-.71,2.18,3.05,3.05,0,0,1-4,0,3.12,3.12,0,0,1-.7-2.19,3.07,3.07,0,0,1,.7-2.18,2.65,2.65,0,0,1,2-.75,2.6,2.6,0,0,1,2,.76A3.12,3.12,0,0,1,308.85,189.5Zm-4.17,0a2.39,2.39,0,0,0,.36,1.44,1.28,1.28,0,0,0,1.09.48c1,0,1.45-.64,1.45-1.92s-.48-1.93-1.45-1.93a1.3,1.3,0,0,0-1.09.48A2.44,2.44,0,0,0,304.68,189.5Z"/><path class="cls-6" d="M315.18,192.36h-1.54L311.15,188h0c.05.76.07,1.31.07,1.63v2.69h-1.08v-5.71h1.53l2.48,4.28h0c0-.74-.05-1.27-.05-1.58v-2.7h1.09Z"/><path class="cls-6" d="M318.9,192.36h-1.21v-4.7h-1.56v-1h4.32v1H318.9Z"/><path class="cls-6" d="M322.62,190.17v2.19h-1.21v-5.71h1.66a2.85,2.85,0,0,1,1.72.42,1.52,1.52,0,0,1,.56,1.29,1.48,1.48,0,0,1-.28.9,1.8,1.8,0,0,1-.78.61q1.29,1.94,1.68,2.49h-1.35l-1.36-2.19Zm0-1H323a1.5,1.5,0,0,0,.85-.2.67.67,0,0,0,.27-.6.63.63,0,0,0-.28-.58,1.75,1.75,0,0,0-.87-.17h-.36Z"/><path class="cls-6" d="M332,189.5a3.11,3.11,0,0,1-.7,2.18,3.05,3.05,0,0,1-4,0,3.12,3.12,0,0,1-.71-2.19,3.08,3.08,0,0,1,.71-2.18,2.63,2.63,0,0,1,2-.75,2.57,2.57,0,0,1,2,.76A3.07,3.07,0,0,1,332,189.5Zm-4.17,0a2.32,2.32,0,0,0,.37,1.44,1.26,1.26,0,0,0,1.08.48c1,0,1.45-.64,1.45-1.92s-.48-1.93-1.44-1.93a1.3,1.3,0,0,0-1.09.48A2.44,2.44,0,0,0,327.78,189.5Z"/><path class="cls-6" d="M333.21,192.36v-5.71h1.22v4.71h2.31v1Z"/><path class="cls-6" d="M337.81,192.36v-5.71H339v4.71h2.31v1Z"/><path class="cls-6" d="M345.7,192.36h-3.29v-5.71h3.29v1h-2.08v1.26h1.94v1h-1.94v1.47h2.08Z"/><path class="cls-6" d="M348.19,190.17v2.19H347v-5.71h1.67a2.87,2.87,0,0,1,1.72.42,1.54,1.54,0,0,1,.56,1.29,1.48,1.48,0,0,1-.28.9,1.8,1.8,0,0,1-.78.61q1.29,1.94,1.68,2.49h-1.35l-1.36-2.19Zm0-1h.39a1.44,1.44,0,0,0,.84-.2.76.76,0,0,0,0-1.18,1.78,1.78,0,0,0-.87-.17h-.36Z"/><path class="cls-6" d="M261.29,250.42a2.64,2.64,0,1,1,2.64-2.64A2.64,2.64,0,0,1,261.29,250.42Zm0-4.5a1.87,1.87,0,1,0,1.87,1.86A1.86,1.86,0,0,0,261.29,245.92Z"/><path class="cls-6" d="M227.29,252.11a4.33,4.33,0,1,1,4.33-4.33A4.33,4.33,0,0,1,227.29,252.11Zm0-7.88a3.56,3.56,0,1,0,3.55,3.55A3.56,3.56,0,0,0,227.29,244.23Z"/><path class="cls-6" d="M236.66,248.17h-5.43a.39.39,0,0,1-.39-.39.4.4,0,0,1,.39-.39h5.43a.39.39,0,0,1,.39.39A.38.38,0,0,1,236.66,248.17Z"/><path class="cls-6" d="M258.84,248.17H253.4a.38.38,0,0,1-.38-.39.39.39,0,0,1,.38-.39h5.44a.4.4,0,0,1,.39.39A.39.39,0,0,1,258.84,248.17Z"/><path class="cls-6" d="M256.06,239.16a2.59,2.59,0,0,1-1.86-.77,2.63,2.63,0,0,1,0-3.74,2.71,2.71,0,0,1,3.73,0,2.63,2.63,0,0,1,0,3.74h0A2.62,2.62,0,0,1,256.06,239.16Zm0-4.5a1.84,1.84,0,0,0-1.86,1.86,1.85,1.85,0,0,0,.54,1.32,1.9,1.9,0,0,0,2.64,0h0a1.86,1.86,0,0,0-1.32-3.18Z"/><path class="cls-6" d="M250.84,242.14a.4.4,0,0,1-.28-.67l3.49-3.49a.39.39,0,0,1,.55.55L251.11,242A.36.36,0,0,1,250.84,242.14Z"/><path class="cls-6" d="M256.06,261.69a2.6,2.6,0,0,1-1.86-.78h0a2.62,2.62,0,0,1,0-3.73,2.69,2.69,0,0,1,3.73,0,2.65,2.65,0,0,1-1.87,4.51Zm0-4.51a1.87,1.87,0,0,0-1.32,3.18h0a1.9,1.9,0,0,0,2.64,0,1.85,1.85,0,0,0,0-2.63A1.82,1.82,0,0,0,256.06,257.18Z"/><path class="cls-6" d="M254.33,257.7a.39.39,0,0,1-.28-.12l-3.49-3.49a.39.39,0,0,1,.55-.55L254.6,257a.39.39,0,0,1,0,.55A.36.36,0,0,1,254.33,257.7Z"/><path class="cls-1" d="M236.91,244.77v6a2.92,2.92,0,0,0,1.45,2.51l5.22,3a2.91,2.91,0,0,0,2.91,0l5.21-3a2.9,2.9,0,0,0,1.45-2.51v-6a2.89,2.89,0,0,0-1.45-2.51l-5.21-3a3,3,0,0,0-2.91,0l-5.22,3A2.91,2.91,0,0,0,236.91,244.77Z"/><path class="cls-2" d="M245,257.2a2.62,2.62,0,0,1-1.32-.36l-5.86-3.38a2.64,2.64,0,0,1-1.32-2.29V244.4a2.63,2.63,0,0,1,1.32-2.29l5.86-3.39a2.65,2.65,0,0,1,2.64,0l5.87,3.39a2.64,2.64,0,0,1,1.32,2.29v6.77a2.64,2.64,0,0,1-1.32,2.29l-5.87,3.38A2.57,2.57,0,0,1,245,257.2Zm0-18.06a1.93,1.93,0,0,0-.93.25l-5.87,3.39a1.88,1.88,0,0,0-.93,1.62v6.77a1.89,1.89,0,0,0,.93,1.62l5.87,3.38a1.87,1.87,0,0,0,1.87,0l5.86-3.38a1.89,1.89,0,0,0,.94-1.62V244.4a1.87,1.87,0,0,0-.94-1.62L246,239.39A1.94,1.94,0,0,0,245,239.14Z"/><path class="cls-3" d="M247.85,251.16a.55.55,0,0,1-.5-.31L245,246.23l-2.31,4.62a.56.56,0,0,1-1-.5l2.82-5.64a.57.57,0,0,1,.5-.31h0a.57.57,0,0,1,.51.31l2.81,5.64a.55.55,0,0,1-.25.75A.54.54,0,0,1,247.85,251.16Z"/><path class="cls-6" d="M310.2,250.42a2.64,2.64,0,1,1,2.64-2.64A2.64,2.64,0,0,1,310.2,250.42Zm0-4.5a1.87,1.87,0,1,0,1.87,1.86A1.86,1.86,0,0,0,310.2,245.92Z"/><path class="cls-6" d="M276.2,252.11a4.33,4.33,0,1,1,4.33-4.33A4.33,4.33,0,0,1,276.2,252.11Zm0-7.88a3.56,3.56,0,1,0,3.55,3.55A3.56,3.56,0,0,0,276.2,244.23Z"/><path class="cls-6" d="M285.57,248.17h-5.43a.39.39,0,0,1-.39-.39.4.4,0,0,1,.39-.39h5.43a.39.39,0,0,1,.39.39A.38.38,0,0,1,285.57,248.17Z"/><path class="cls-6" d="M307.75,248.17h-5.44a.38.38,0,0,1-.38-.39.39.39,0,0,1,.38-.39h5.44a.39.39,0,0,1,.38.39A.38.38,0,0,1,307.75,248.17Z"/><path class="cls-6" d="M305,239.16a2.59,2.59,0,0,1-1.86-.77,2.63,2.63,0,0,1,0-3.74,2.71,2.71,0,0,1,3.73,0,2.66,2.66,0,0,1,0,3.74h0A2.62,2.62,0,0,1,305,239.16Zm0-4.5a1.84,1.84,0,0,0-1.86,1.86,1.85,1.85,0,0,0,.54,1.32,1.9,1.9,0,0,0,2.64,0h0a1.86,1.86,0,0,0-1.32-3.18Z"/><path class="cls-6" d="M299.75,242.14a.4.4,0,0,1-.28-.67L303,238a.39.39,0,1,1,.55.55L300,242A.36.36,0,0,1,299.75,242.14Z"/><path class="cls-6" d="M305,261.69a2.6,2.6,0,0,1-1.86-.78h0a2.62,2.62,0,0,1,0-3.73,2.69,2.69,0,0,1,3.73,0,2.65,2.65,0,0,1-1.87,4.51Zm0-4.51a1.87,1.87,0,0,0-1.32,3.18h0a1.9,1.9,0,0,0,2.64,0,1.85,1.85,0,0,0,0-2.63A1.82,1.82,0,0,0,305,257.18Z"/><path class="cls-6" d="M303.24,257.7a.39.39,0,0,1-.28-.12l-3.49-3.49a.39.39,0,0,1,.55-.55l3.49,3.49a.39.39,0,0,1,0,.55A.36.36,0,0,1,303.24,257.7Z"/><path class="cls-1" d="M285.82,244.77v6a2.92,2.92,0,0,0,1.45,2.51l5.22,3a2.91,2.91,0,0,0,2.91,0l5.21-3a2.9,2.9,0,0,0,1.45-2.51v-6a2.89,2.89,0,0,0-1.45-2.51l-5.21-3a3,3,0,0,0-2.91,0l-5.22,3A2.91,2.91,0,0,0,285.82,244.77Z"/><path class="cls-2" d="M293.94,257.2a2.62,2.62,0,0,1-1.32-.36l-5.86-3.38a2.64,2.64,0,0,1-1.32-2.29V244.4a2.63,2.63,0,0,1,1.32-2.29l5.86-3.39a2.65,2.65,0,0,1,2.64,0l5.87,3.39a2.64,2.64,0,0,1,1.32,2.29v6.77a2.64,2.64,0,0,1-1.32,2.29l-5.87,3.38A2.57,2.57,0,0,1,293.94,257.2Zm0-18.06a1.93,1.93,0,0,0-.93.25l-5.87,3.39a1.88,1.88,0,0,0-.93,1.62v6.77a1.89,1.89,0,0,0,.93,1.62l5.87,3.38a1.87,1.87,0,0,0,1.87,0l5.86-3.38a1.89,1.89,0,0,0,.94-1.62V244.4a1.87,1.87,0,0,0-.94-1.62l-5.86-3.39A1.94,1.94,0,0,0,293.94,239.14Z"/><path class="cls-3" d="M296.76,251.16a.55.55,0,0,1-.5-.31l-2.32-4.62-2.31,4.62a.56.56,0,0,1-1-.5l2.82-5.64a.57.57,0,0,1,.5-.31h0a.57.57,0,0,1,.51.31l2.81,5.64a.55.55,0,0,1-.25.75A.54.54,0,0,1,296.76,251.16Z"/><path class="cls-6" d="M359.11,250.42a2.64,2.64,0,1,1,2.64-2.64A2.64,2.64,0,0,1,359.11,250.42Zm0-4.5a1.87,1.87,0,1,0,1.87,1.86A1.86,1.86,0,0,0,359.11,245.92Z"/><path class="cls-6" d="M325.11,252.11a4.33,4.33,0,1,1,4.33-4.33A4.34,4.34,0,0,1,325.11,252.11Zm0-7.88a3.56,3.56,0,1,0,3.55,3.55A3.56,3.56,0,0,0,325.11,244.23Z"/><path class="cls-6" d="M334.48,248.17h-5.43a.39.39,0,0,1-.39-.39.4.4,0,0,1,.39-.39h5.43a.39.39,0,0,1,.39.39A.38.38,0,0,1,334.48,248.17Z"/><path class="cls-6" d="M356.66,248.17h-5.44a.38.38,0,0,1-.38-.39.39.39,0,0,1,.38-.39h5.44a.39.39,0,0,1,.38.39A.38.38,0,0,1,356.66,248.17Z"/><path class="cls-6" d="M353.88,239.16a2.63,2.63,0,0,1-2.64-2.64,2.68,2.68,0,0,1,.77-1.87,2.73,2.73,0,0,1,3.74,0,2.66,2.66,0,0,1,0,3.74h0A2.62,2.62,0,0,1,353.88,239.16Zm0-4.5a1.87,1.87,0,0,0-1.32,3.18,1.9,1.9,0,0,0,2.64,0h0a1.86,1.86,0,0,0-1.32-3.18Z"/><path class="cls-6" d="M348.66,242.14a.4.4,0,0,1-.28-.67l3.49-3.49a.39.39,0,0,1,.55.55L348.93,242A.37.37,0,0,1,348.66,242.14Z"/><path class="cls-6" d="M353.88,261.69a2.64,2.64,0,0,1-1.87-.78h0a2.64,2.64,0,0,1,0-3.73,2.71,2.71,0,0,1,3.74,0,2.65,2.65,0,0,1-1.87,4.51Zm0-4.51a1.87,1.87,0,0,0-1.32,3.18h0a1.9,1.9,0,0,0,2.64,0,1.85,1.85,0,0,0,0-2.63A1.82,1.82,0,0,0,353.88,257.18Z"/><path class="cls-6" d="M352.15,257.7a.39.39,0,0,1-.28-.12l-3.49-3.49a.39.39,0,1,1,.55-.55l3.49,3.49a.39.39,0,0,1,0,.55A.36.36,0,0,1,352.15,257.7Z"/><path class="cls-1" d="M334.73,244.77v6a2.92,2.92,0,0,0,1.45,2.51l5.22,3a2.89,2.89,0,0,0,2.9,0l5.22-3A2.9,2.9,0,0,0,351,250.8v-6a2.89,2.89,0,0,0-1.45-2.51l-5.22-3a2.94,2.94,0,0,0-2.9,0l-5.22,3A2.91,2.91,0,0,0,334.73,244.77Z"/><path class="cls-2" d="M342.85,257.2a2.62,2.62,0,0,1-1.32-.36l-5.86-3.38a2.65,2.65,0,0,1-1.33-2.29V244.4a2.64,2.64,0,0,1,1.33-2.29l5.86-3.39a2.65,2.65,0,0,1,2.64,0l5.87,3.39a2.64,2.64,0,0,1,1.32,2.29v6.77a2.64,2.64,0,0,1-1.32,2.29l-5.87,3.38A2.57,2.57,0,0,1,342.85,257.2Zm0-18.06a1.93,1.93,0,0,0-.93.25l-5.87,3.39a1.88,1.88,0,0,0-.93,1.62v6.77a1.89,1.89,0,0,0,.93,1.62l5.87,3.38a1.87,1.87,0,0,0,1.87,0l5.86-3.38a1.89,1.89,0,0,0,.94-1.62V244.4a1.87,1.87,0,0,0-.94-1.62l-5.86-3.39A1.94,1.94,0,0,0,342.85,239.14Z"/><path class="cls-3" d="M345.67,251.16a.55.55,0,0,1-.5-.31l-2.32-4.62-2.31,4.62a.56.56,0,0,1-1-.5l2.82-5.64a.56.56,0,0,1,.5-.31h0a.57.57,0,0,1,.51.31l2.81,5.64a.55.55,0,0,1-.25.75A.57.57,0,0,1,345.67,251.16Z"/><path class="cls-6" d="M408,250.42a2.64,2.64,0,1,1,2.64-2.64A2.64,2.64,0,0,1,408,250.42Zm0-4.5a1.87,1.87,0,1,0,1.87,1.86A1.86,1.86,0,0,0,408,245.92Z"/><path class="cls-6" d="M374,252.11a4.33,4.33,0,1,1,4.33-4.33A4.34,4.34,0,0,1,374,252.11Zm0-7.88a3.56,3.56,0,1,0,3.55,3.55A3.56,3.56,0,0,0,374,244.23Z"/><path class="cls-6" d="M383.39,248.17H378a.39.39,0,0,1-.39-.39.4.4,0,0,1,.39-.39h5.43a.39.39,0,0,1,.39.39A.38.38,0,0,1,383.39,248.17Z"/><path class="cls-6" d="M405.57,248.17h-5.44a.39.39,0,0,1-.39-.39.4.4,0,0,1,.39-.39h5.44a.39.39,0,0,1,.38.39A.38.38,0,0,1,405.57,248.17Z"/><path class="cls-6" d="M402.79,239.16a2.63,2.63,0,0,1-2.64-2.64,2.68,2.68,0,0,1,.77-1.87,2.73,2.73,0,0,1,3.74,0,2.66,2.66,0,0,1,0,3.74h0A2.62,2.62,0,0,1,402.79,239.16Zm0-4.5a1.87,1.87,0,0,0-1.32,3.18,1.9,1.9,0,0,0,2.64,0h0a1.86,1.86,0,0,0-1.32-3.18Z"/><path class="cls-6" d="M397.57,242.14a.4.4,0,0,1-.28-.67l3.49-3.49a.39.39,0,0,1,.55.55L397.84,242A.37.37,0,0,1,397.57,242.14Z"/><path class="cls-6" d="M402.79,261.69a2.64,2.64,0,0,1-1.87-.78h0a2.64,2.64,0,0,1,0-3.73,2.71,2.71,0,0,1,3.74,0,2.65,2.65,0,0,1-1.87,4.51Zm0-4.51a1.87,1.87,0,0,0-1.32,3.18h0a1.9,1.9,0,0,0,2.64,0,1.85,1.85,0,0,0,0-2.63A1.82,1.82,0,0,0,402.79,257.18Z"/><path class="cls-6" d="M401.06,257.7a.39.39,0,0,1-.28-.12l-3.49-3.49a.39.39,0,0,1,.55-.55l3.49,3.49a.39.39,0,0,1,0,.55A.36.36,0,0,1,401.06,257.7Z"/><path class="cls-1" d="M383.64,244.77v6a2.92,2.92,0,0,0,1.45,2.51l5.22,3a2.89,2.89,0,0,0,2.9,0l5.22-3a2.9,2.9,0,0,0,1.45-2.51v-6a2.89,2.89,0,0,0-1.45-2.51l-5.22-3a2.94,2.94,0,0,0-2.9,0l-5.22,3A2.91,2.91,0,0,0,383.64,244.77Z"/><path class="cls-2" d="M391.76,257.2a2.62,2.62,0,0,1-1.32-.36l-5.86-3.38a2.65,2.65,0,0,1-1.33-2.29V244.4a2.64,2.64,0,0,1,1.33-2.29l5.86-3.39a2.65,2.65,0,0,1,2.64,0l5.87,3.39a2.64,2.64,0,0,1,1.32,2.29v6.77a2.64,2.64,0,0,1-1.32,2.29l-5.87,3.38A2.57,2.57,0,0,1,391.76,257.2Zm0-18.06a1.93,1.93,0,0,0-.93.25L385,242.78a1.88,1.88,0,0,0-.93,1.62v6.77a1.89,1.89,0,0,0,.93,1.62l5.87,3.38a1.87,1.87,0,0,0,1.87,0l5.86-3.38a1.89,1.89,0,0,0,.94-1.62V244.4a1.87,1.87,0,0,0-.94-1.62l-5.86-3.39A1.94,1.94,0,0,0,391.76,239.14Z"/><path class="cls-3" d="M394.58,251.16a.54.54,0,0,1-.5-.31l-2.32-4.62-2.31,4.62a.56.56,0,0,1-1-.5l2.82-5.64a.56.56,0,0,1,.5-.31h0a.57.57,0,0,1,.51.31l2.81,5.64a.55.55,0,0,1-.25.75A.57.57,0,0,1,394.58,251.16Z"/><line class="cls-9" x1="316.78" y1="199.91" x2="294.78" y2="232.16"/><line class="cls-9" x1="316.78" y1="199.91" x2="338.78" y2="232.16"/><line class="cls-9" x1="316.78" y1="199.91" x2="244.78" y2="232.16"/><line class="cls-9" x1="316.78" y1="199.91" x2="388.78" y2="232.16"/><line class="cls-10" x1="134.97" y1="152.73" x2="283.67" y2="152.73"/><polygon class="cls-2" points="136.76 155.35 127 152.73 136.76 150.12 136.76 155.35"/><polygon class="cls-2" points="281.89 155.35 291.65 152.73 281.89 150.12 281.89 155.35"/><line class="cls-9" x1="316.81" y1="78.94" x2="316.81" y2="117.73"/><polygon class="cls-11" points="314.42 80.57 316.81 71.67 319.19 80.57 314.42 80.57"/><polygon class="cls-11" points="314.42 116.1 316.81 125 319.19 116.1 314.42 116.1"/><path class="cls-12" d="M66.52,52.09h.65L69,50.24l.09-.78a8.28,8.28,0,0,0-11.71.73,8.17,8.17,0,0,0-1.79,3.31,1,1,0,0,1,.65,0L60,52.86s.19-.31.28-.29a4.6,4.6,0,0,1,6.31-.48Z"/><path class="cls-13" d="M71.65,53.5a8.41,8.41,0,0,0-2.51-4l-2.59,2.59a4.62,4.62,0,0,1,1.69,3.66v.46a2.31,2.31,0,0,1,0,4.61H63.63l-.46.46V64l.46.46h4.61a6,6,0,0,0,3.41-11Z"/><path class="cls-14" d="M59,64.44h4.61V60.75H59a2.23,2.23,0,0,1-.95-.21l-.65.2-1.86,1.85-.16.65A5.9,5.9,0,0,0,59,64.44Z"/><path class="cls-15" d="M59,52.47a6,6,0,0,0-3.62,10.75l2.67-2.68a2.3,2.3,0,1,1,3-3l2.68-2.67A6,6,0,0,0,59,52.47Z"/><path class="cls-16" d="M86.56,61.87a5.9,5.9,0,0,1-4.27-1.76,5.85,5.85,0,0,1,0-8.44,5.87,5.87,0,0,1,4.27-1.79,5.72,5.72,0,0,1,4.1,1.65L89.51,52.7a4.15,4.15,0,0,0-3-1.16,4.06,4.06,0,0,0-3,1.29,4.36,4.36,0,0,0,0,6.11,4.34,4.34,0,0,0,6.06.08,3.48,3.48,0,0,0,.89-2H86.58V55.34h5.5a5.76,5.76,0,0,1,.06,1,5.14,5.14,0,0,1-1.42,3.82A5.51,5.51,0,0,1,86.56,61.87Zm12.78-1.11a4,4,0,0,1-5.48,0,3.94,3.94,0,0,1,0-5.5,4,4,0,0,1,5.48,0,3.94,3.94,0,0,1,0,5.5Zm-4.27-1.08a2.1,2.1,0,0,0,3,.1l.09-.1A2.26,2.26,0,0,0,98.78,58a2.3,2.3,0,0,0-.65-1.68,2.14,2.14,0,0,0-3-.06l-.06.06a2.48,2.48,0,0,0,0,3.35Zm12.71,1.08a4,4,0,0,1-5.49,0,3.94,3.94,0,0,1,0-5.5,4,4,0,0,1,5.49,0,3.94,3.94,0,0,1,0,5.5Zm-4.28-1.08a2.1,2.1,0,0,0,3,.1l.09-.1a2.26,2.26,0,0,0,.65-1.67,2.3,2.3,0,0,0-.65-1.68,2.14,2.14,0,0,0-3-.06l-.06.06a2.34,2.34,0,0,0-.65,1.68,2.27,2.27,0,0,0,.66,1.67Zm9.82,5.64a3.35,3.35,0,0,1-2.16-.68,4,4,0,0,1-1.25-1.6l1.47-.61a2.41,2.41,0,0,0,.74,1,1.83,1.83,0,0,0,1.21.41,2,2,0,0,0,1.51-.58,2.35,2.35,0,0,0,.53-1.69V61h-.06a2.45,2.45,0,0,1-2,.87,3.46,3.46,0,0,1-2.59-1.12,3.9,3.9,0,0,1,0-5.45,3.44,3.44,0,0,1,2.59-1.13,2.72,2.72,0,0,1,1.19.26,2.33,2.33,0,0,1,.84.62h.06v-.62H117v6.9a4.06,4.06,0,0,1-1,3A3.6,3.6,0,0,1,113.32,65.32Zm.12-5a1.9,1.9,0,0,0,1.46-.65,2.4,2.4,0,0,0,.59-1.66,2.5,2.5,0,0,0-.59-1.69,1.86,1.86,0,0,0-1.46-.64,2,2,0,0,0-1.52.64,2.4,2.4,0,0,0-.65,1.68,2.33,2.33,0,0,0,.65,1.66A2,2,0,0,0,113.44,60.35Zm6.4-10V61.63h-1.69V50.31Zm4.64,11.56a3.72,3.72,0,0,1-2.73-1.11,4.09,4.09,0,0,1,0-5.52,3.49,3.49,0,0,1,2.59-1.08,3.2,3.2,0,0,1,1.3.25,3.09,3.09,0,0,1,1,.65,4.89,4.89,0,0,1,.65.78,4.49,4.49,0,0,1,.38.76l.17.44-5.18,2.13a2,2,0,0,0,1.87,1.17,2.25,2.25,0,0,0,1.9-1.07l1.29.87a4.1,4.1,0,0,1-1.24,1.18A3.56,3.56,0,0,1,124.48,61.87Zm-2.16-4,3.44-1.44a1.24,1.24,0,0,0-.54-.59,1.69,1.69,0,0,0-.88-.22,2,2,0,0,0-1.4.61A2,2,0,0,0,122.32,57.9Z"/><path class="cls-16" d="M136.65,61.87a5.34,5.34,0,0,1-5.43-5.25v-.21A5.33,5.33,0,0,1,136.43,51h.22a4.81,4.81,0,0,1,3.84,1.71l-.94.9a3.5,3.5,0,0,0-2.9-1.32,3.94,3.94,0,0,0-2.88,1.15,4.47,4.47,0,0,0,0,6,4,4,0,0,0,2.88,1.16,4.13,4.13,0,0,0,3.24-1.52l.93.93A5,5,0,0,1,139,61.36,5.6,5.6,0,0,1,136.65,61.87Z"/><path class="cls-16" d="M143.33,61.63H142V51.17h1.34Z"/><path class="cls-16" d="M145.52,55.34a3.68,3.68,0,0,1,6.32,2.72,3.68,3.68,0,0,1-6.32,2.72,4.08,4.08,0,0,1,0-5.44Zm1,4.6a2.26,2.26,0,0,0,3.19.08l.09-.08a2.91,2.91,0,0,0,0-3.76,2.26,2.26,0,0,0-3.2-.09l-.08.09a2.57,2.57,0,0,0-.7,1.88,2.64,2.64,0,0,0,.7,1.87Z"/><path class="cls-16" d="M159.27,61.63H158v-1h0a2.37,2.37,0,0,1-.94.89,2.58,2.58,0,0,1-1.33.36,2.54,2.54,0,0,1-2-.81,3.29,3.29,0,0,1-.7-2.19V54.48h1.35v4.16c0,1.33.58,2,1.76,2A1.62,1.62,0,0,0,157.4,60a2.4,2.4,0,0,0,.53-1.54v-4h1.34Z"/><path class="cls-16" d="M163.82,61.87a3.18,3.18,0,0,1-2.4-1.1,3.86,3.86,0,0,1-1-2.71,3.91,3.91,0,0,1,1-2.72,3.2,3.2,0,0,1,2.4-1.09,3,3,0,0,1,1.46.35,2.5,2.5,0,0,1,1,.87h.05l-.05-1V51.17h1.34V61.63h-1.3v-1h-.06a2.49,2.49,0,0,1-1,.88A3.17,3.17,0,0,1,163.82,61.87Zm.22-1.23a2.11,2.11,0,0,0,1.61-.7,3.06,3.06,0,0,0,0-3.77,2.18,2.18,0,0,0-3.09-.14.93.93,0,0,0-.14.14,3,3,0,0,0,0,3.76A2.12,2.12,0,0,0,164,60.64Z"/><polygon class="cls-17" points="104.81 107.65 99.48 97.94 104.81 88.23 115.46 88.23 120.79 97.94 115.46 107.65 104.81 107.65"/><path class="cls-18" d="M105.71,106.42,101,97.9l-2.6-4.67A2.36,2.36,0,0,1,98.14,92l-2.72,5a2.48,2.48,0,0,0,0,2.16l6.56,12a2.26,2.26,0,0,0,1.78,1.08h7.81a2,2,0,0,0,.74-.74l2.68-5Z"/><polygon class="cls-19" points="125.23 96.94 118.67 84.97 121.33 89.83 125.23 96.94"/><path class="cls-19" d="M125.23,96.94l-3.9-7.11a2.09,2.09,0,0,0-1.07-.35H115L119.55,98,115,106.42l-2.68,5a2,2,0,0,1-.74.74h5.32a2.26,2.26,0,0,0,1.78-1.08l2.61-4.75,4-7.21A2.48,2.48,0,0,0,125.23,96.94Z"/><path class="cls-20" d="M118.67,85a2.28,2.28,0,0,0-1.78-1.08H103.76A2.28,2.28,0,0,0,102,85l-3.84,7a2.36,2.36,0,0,0,.24,1.26L101,97.9l4.63-8.42h14.65a2.09,2.09,0,0,1,1.07.35Z"/><polygon class="cls-17" points="100.98 97.9 105.71 106.42 114.99 106.42 119.55 97.95 114.98 89.48 105.61 89.48 100.98 97.9"/><path class="cls-21" d="M98.31,91.66l-.17.31a2.36,2.36,0,0,0,.24,1.26L101,97.9l1.38-2.51Z"/><path class="cls-22" d="M121.51,90.15l-.18-.32a2.09,2.09,0,0,0-1.07-.35H115L116.35,92Z"/><path class="cls-23" d="M111.13,112.14h.45a2,2,0,0,0,.74-.74l2.68-5h-2.85Z"/><path class="cls-3" d="M110.31,102.37A4.38,4.38,0,1,1,114.47,98,4.27,4.27,0,0,1,110.31,102.37Z"/><path class="cls-24" d="M110.31,93.69A4.32,4.32,0,1,1,106.22,98a4.21,4.21,0,0,1,4.09-4.31m0-.12A4.44,4.44,0,1,0,114.52,98a4.33,4.33,0,0,0-4.21-4.43Z"/><ellipse class="cls-3" cx="104.1" cy="86.64" rx="0.8" ry="0.84"/><path class="cls-25" d="M104.1,85.86a.78.78,0,1,1-.74.78.76.76,0,0,1,.74-.78m0-.12a.88.88,0,0,0-.86.9.86.86,0,1,0,.86-.9Z"/><path class="cls-26" d="M117.22,86.64a.74.74,0,1,1-.74-.78A.76.76,0,0,1,117.22,86.64Z"/><ellipse class="cls-3" cx="122.72" cy="98" rx="0.8" ry="0.84"/><path class="cls-27" d="M122.72,97.22a.78.78,0,0,1,0,1.56.78.78,0,0,1,0-1.56m0-.13a.91.91,0,1,0,.86.91.88.88,0,0,0-.86-.91Z"/><ellipse class="cls-3" cx="97.85" cy="98" rx="0.8" ry="0.84"/><path class="cls-28" d="M97.85,97.22a.78.78,0,0,1,0,1.56.78.78,0,0,1,0-1.56m0-.13a.91.91,0,1,0,.86.91.89.89,0,0,0-.86-.91Z"/><path class="cls-13" d="M125.11,151.34l-6.23-10.83a2.73,2.73,0,0,0-2.33-1.39H104.1a2.76,2.76,0,0,0-2.34,1.39l-6.23,10.8a2.73,2.73,0,0,0,0,2.71l6.23,10.89a2.81,2.81,0,0,0,2.33,1.44h12.46a2.76,2.76,0,0,0,2.33-1.44l6.23-10.82A2.81,2.81,0,0,0,125.11,151.34Z"/><path class="cls-29" d="M123.32,157.19l-10.24-10.25-.74,1.59-1.6-1.6-.74,1.58-1.57-1.57-.4,1.91-1.4.24-.29,1.25-1.82.43,1.63,1.63-1.61.71,1.61,1.61-1.62.71,10.91,10.91h1.11a2.77,2.77,0,0,0,2.33-1.43Z"/><path class="cls-3" d="M111.7,151.1H109a.3.3,0,0,0-.29.28v2.7a.29.29,0,0,0,.29.29h2.7a.28.28,0,0,0,.28-.29v-2.7a.29.29,0,0,0-.29-.28"/><path class="cls-3" d="M116,150.88a.26.26,0,0,0,.26-.25h0v-.42a.26.26,0,0,0-.26-.26h-1.32v-1.23a.29.29,0,0,0-.28-.29h-1.24v-1.31a.26.26,0,0,0-.25-.26h-.43a.26.26,0,0,0-.24.26v1.32h-1.4v-1.32a.26.26,0,0,0-.26-.26h-.42a.26.26,0,0,0-.26.26h0v1.32H108.5v-1.32a.26.26,0,0,0-.26-.26h-.42a.26.26,0,0,0-.26.26h0v1.32h-1.23a.28.28,0,0,0-.29.28v1.22h-1.31a.26.26,0,0,0-.26.26h0v.42a.25.25,0,0,0,.26.26H106v1.39h-1.31a.25.25,0,0,0-.26.26h0v.42a.25.25,0,0,0,.25.26H106v1.39h-1.31a.26.26,0,0,0-.26.26v.42a.26.26,0,0,0,.26.26H106v1.22a.29.29,0,0,0,.29.29h1.23v1.32a.26.26,0,0,0,.26.26h.42a.26.26,0,0,0,.26-.26V157h1.38v1.32a.26.26,0,0,0,.26.26h.42a.26.26,0,0,0,.26-.26V157h1.4v1.32a.26.26,0,0,0,.25.26h.42a.26.26,0,0,0,.26-.26V157h1.24a.29.29,0,0,0,.27-.29v-1.22H116a.26.26,0,0,0,.26-.26h0v-.42a.26.26,0,0,0-.26-.26h-1.32V153.2H116a.25.25,0,0,0,.26-.25h0v-.42a.26.26,0,0,0-.25-.26h-1.33v-1.38Zm-2.29,5.21H107v-6.7h6.68Z"/><path class="cls-13" d="M125.11,218.28l-6.23-10.82a2.72,2.72,0,0,0-2.33-1.4H104.1a2.75,2.75,0,0,0-2.34,1.4l-6.23,10.8a2.71,2.71,0,0,0,0,2.7l6.23,10.89a2.76,2.76,0,0,0,2.33,1.44h12.46a2.75,2.75,0,0,0,2.33-1.43L125.11,221A2.81,2.81,0,0,0,125.11,218.28Z"/><path class="cls-29" d="M115.92,214.07l-5,2.38-2.37-2.37L104.73,218l2.58,2.58-2.58,4.73,8,8h3.8a2.78,2.78,0,0,0,2.33-1.44l5.41-9.41Z"/><rect class="cls-3" x="106.3" y="217.43" width="1.18" height="4.62"/><rect class="cls-3" x="113.16" y="216.87" width="1.18" height="5.17"/><rect class="cls-3" x="108.04" y="215.65" width="4.56" height="1.18"/><rect class="cls-3" x="108.04" y="222.52" width="4.56" height="1.18"/><rect class="cls-3" x="104.64" y="213.99" width="4.02" height="4.02" rx="0.24" ry="0.24"/><rect class="cls-3" x="111.98" y="213.99" width="4.02" height="4.02" rx="0.24" ry="0.24"/><rect class="cls-3" x="104.64" y="221.33" width="4.02" height="4.02" rx="0.24" ry="0.24"/><rect class="cls-3" x="111.98" y="221.33" width="4.02" height="4.02" rx="0.24" ry="0.24"/><polyline class="cls-10" points="134.97 98 171 98 171 217.33 134.97 217.33"/><polygon class="cls-2" points="136.76 100.61 127 98 136.76 95.39 136.76 100.61"/><polygon class="cls-2" points="136.76 214.72 127 217.33 136.76 219.95 136.76 214.72"/><path class="cls-1" d="M346.83,159.62l-.52-1.7h-2.6l-.52,1.7h-1.63l2.52-7.17h1.85l2.53,7.17Zm-.88-3-.81-2.61a4.58,4.58,0,0,1-.13-.48c-.11.42-.42,1.45-.92,3.09Z"/><path class="cls-1" d="M353.53,152.48h1.52l-2.42,7.14H351l-2.42-7.14h1.52l1.35,4.25c.07.25.15.54.23.88s.13.56.15.69a12.64,12.64,0,0,1,.36-1.57Z"/><path class="cls-1" d="M356.05,159.62v-7.14h1.52v7.14Z"/><path class="cls-1" d="M365.19,153.64a1.53,1.53,0,0,0-1.32.64,3,3,0,0,0-.47,1.79c0,1.59.6,2.39,1.79,2.39a5.64,5.64,0,0,0,1.82-.38v1.27a5.11,5.11,0,0,1-2,.37,3,3,0,0,1-2.38-.95,4,4,0,0,1-.83-2.71,4.44,4.44,0,0,1,.41-1.95,3,3,0,0,1,1.16-1.29,3.53,3.53,0,0,1,1.78-.44,4.85,4.85,0,0,1,2.09.5l-.49,1.23a6.13,6.13,0,0,0-.8-.33A2.29,2.29,0,0,0,365.19,153.64Z"/><path class="cls-1" d="M375.11,156a3.84,3.84,0,0,1-.88,2.72,3.77,3.77,0,0,1-5,0,3.85,3.85,0,0,1-.88-2.73,3.8,3.8,0,0,1,.88-2.72,3.28,3.28,0,0,1,2.52-.94,3.22,3.22,0,0,1,2.52.95A3.88,3.88,0,0,1,375.11,156Zm-5.21,0a2.91,2.91,0,0,0,.46,1.8,1.59,1.59,0,0,0,1.35.61c1.21,0,1.82-.81,1.82-2.41s-.6-2.41-1.81-2.41a1.59,1.59,0,0,0-1.36.61A3,3,0,0,0,369.9,156Z"/><path class="cls-1" d="M383,159.62H381.1l-3.1-5.4H378q.09,1.42.09,2v3.36h-1.35v-7.14h1.91l3.1,5.35h0c-.05-.93-.08-1.59-.08-2v-3.38H383Z"/><path class="cls-1" d="M387.68,159.62h-1.52v-5.88h-1.94v-1.26h5.4v1.26h-1.94Z"/><path class="cls-1" d="M392.33,156.88v2.74h-1.52v-7.14h2.08a3.61,3.61,0,0,1,2.16.53,2.1,2.1,0,0,1,.35,2.73,2.32,2.32,0,0,1-1,.77c1.07,1.6,1.77,2.64,2.1,3.11h-1.68l-1.71-2.74Zm0-1.23h.49a1.89,1.89,0,0,0,1.06-.24.87.87,0,0,0,.34-.75.78.78,0,0,0-.35-.72,2.08,2.08,0,0,0-1.08-.22h-.46Z"/><path class="cls-1" d="M404,156a3.88,3.88,0,0,1-.87,2.72,3.79,3.79,0,0,1-5,0,3.85,3.85,0,0,1-.88-2.73,3.8,3.8,0,0,1,.88-2.72,3.29,3.29,0,0,1,2.53-.94,3.21,3.21,0,0,1,2.51.95A3.88,3.88,0,0,1,404,156Zm-5.21,0a3,3,0,0,0,.46,1.8,1.59,1.59,0,0,0,1.36.61c1.2,0,1.81-.81,1.81-2.41s-.6-2.41-1.8-2.41a1.6,1.6,0,0,0-1.37.61A3,3,0,0,0,398.78,156Z"/><path class="cls-1" d="M405.57,159.62v-7.14h1.52v5.89H410v1.25Z"/><path class="cls-1" d="M411.32,159.62v-7.14h1.52v5.89h2.89v1.25Z"/><path class="cls-1" d="M421.18,159.62h-4.11v-7.14h4.11v1.24h-2.59v1.57H421v1.24h-2.41v1.84h2.59Z"/><path class="cls-1" d="M424.29,156.88v2.74h-1.52v-7.14h2.08A3.61,3.61,0,0,1,427,153a2.1,2.1,0,0,1,.35,2.73,2.32,2.32,0,0,1-1,.77c1.07,1.6,1.77,2.64,2.1,3.11H426.8l-1.71-2.74Zm0-1.23h.49a1.83,1.83,0,0,0,1.05-.24.85.85,0,0,0,.35-.75.78.78,0,0,0-.35-.72,2.08,2.08,0,0,0-1.08-.22h-.46Z"/><path class="cls-1" d="M306.62,15l-.51-1.7H303.5L303,15h-1.63l2.52-7.17h1.85L308.25,15Zm-.87-3-.81-2.61a4.58,4.58,0,0,1-.13-.48q-.17.63-.93,3.09Z"/><path class="cls-1" d="M313.33,7.81h1.52L312.43,15h-1.65l-2.42-7.14h1.52l1.35,4.25c.07.25.15.54.23.88s.13.56.15.69a11,11,0,0,1,.36-1.57Z"/><path class="cls-1" d="M315.85,15V7.81h1.52V15Z"/><path class="cls-1" d="M327.77,7.81v4.62a2.73,2.73,0,0,1-.35,1.39,2.29,2.29,0,0,1-1,.91,3.65,3.65,0,0,1-1.58.32,3,3,0,0,1-2.14-.71,2.52,2.52,0,0,1-.76-1.93V7.81h1.51v4.37a1.87,1.87,0,0,0,.33,1.22,1.41,1.41,0,0,0,1.1.38,1.34,1.34,0,0,0,1.08-.39,1.85,1.85,0,0,0,.33-1.22V7.81Z"/><path class="cls-1" d="M329.62,15V7.81h1.51V15Z"/><polyline class="cls-10" points="283.67 158.17 176.5 158.17 176.5 223.17 134.97 223.17"/><polygon class="cls-2" points="281.89 155.55 291.65 158.17 281.89 160.78 281.89 155.55"/><polygon class="cls-2" points="136.76 220.55 127 223.17 136.76 225.78 136.76 220.55"/></svg>