<svg id="Layer_1" data-name="Layer 1" xmlns="http://www.w3.org/2000/svg" viewBox="0 0 576.01 337.51"><defs><style>.cls-1,.cls-19,.cls-6{fill:#f05024;}.cls-1,.cls-6{stroke:#f04f23;}.cls-1,.cls-17,.cls-3,.cls-5,.cls-6,.cls-7,.cls-8{stroke-linecap:round;}.cls-1,.cls-17,.cls-6,.cls-7,.cls-8{stroke-linejoin:round;}.cls-1,.cls-2,.cls-3{stroke-width:1.25px;}.cls-17,.cls-2,.cls-3,.cls-4,.cls-5,.cls-7,.cls-8,.cls-9{fill:none;}.cls-2,.cls-3,.cls-7{stroke:#fff;}.cls-2,.cls-3,.cls-4,.cls-5,.cls-9{stroke-miterlimit:10;}.cls-3{opacity:0.3;}.cls-4,.cls-5{stroke:#495565;}.cls-7{stroke-width:1.45px;}.cls-17,.cls-8{stroke:#cccbca;}.cls-9{stroke:#f05025;stroke-dasharray:1 3;}.cls-10{opacity:0.15;}.cls-10,.cls-12{isolation:isolate;}.cls-11{fill:#4a5565;}.cls-12{opacity:0.35;}.cls-13{fill:#ef5226;}.cls-14{fill:#f05025;}.cls-15{fill:#fff;}.cls-16{opacity:0.15;}.cls-17{stroke-width:0.82px;}.cls-18{fill:#cccbca;}.cls-20{fill:#3861ad;}</style></defs><title>Azure-Load-Balancer-Integration-Diagram</title><path class="cls-1" d="M375.81,150.25v31.3a4.51,4.51,0,0,0,2.25,3.9l27.11,15.65a4.5,4.5,0,0,0,4.49,0l27.11-15.65a4.5,4.5,0,0,0,2.24-3.9v-31.3a4.5,4.5,0,0,0-2.24-3.89l-27.11-15.65a4.5,4.5,0,0,0-4.49,0l-27.11,15.65A4.51,4.51,0,0,0,375.81,150.25Z"/><path class="cls-2" d="M410.22,143.18l2.82,4.24a3.36,3.36,0,0,0,3.47,1.44l5-1a3.37,3.37,0,0,1,4,4l-1,5a3.37,3.37,0,0,0,1.44,3.47l4.24,2.82a3.36,3.36,0,0,1,0,5.61l-4.24,2.82a3.36,3.36,0,0,0-1.44,3.47l1,5a3.38,3.38,0,0,1-4,4l-5-1a3.36,3.36,0,0,0-3.47,1.44l-2.82,4.24a3.36,3.36,0,0,1-5.61,0l-2.82-4.24a3.37,3.37,0,0,0-3.47-1.44l-5,1a3.37,3.37,0,0,1-4-4l1-5a3.36,3.36,0,0,0-1.44-3.47l-4.24-2.82a3.36,3.36,0,0,1,0-5.61l4.24-2.82a3.37,3.37,0,0,0,1.44-3.47l-1-5a3.37,3.37,0,0,1,4-4l5,1a3.37,3.37,0,0,0,3.47-1.44l2.82-4.24A3.36,3.36,0,0,1,410.22,143.18Z"/><circle class="cls-2" cx="407.41" cy="165.9" r="6.74"/><path class="cls-3" d="M407.41,173.76a7.86,7.86,0,0,1,0-15.72"/><circle class="cls-2" cx="407.41" cy="165.9" r="13.48"/><path class="cls-3" d="M407.41,153.55a12.36,12.36,0,1,1,0,24.71"/><circle class="cls-4" cx="312.9" cy="290.39" r="2.9"/><circle class="cls-4" cx="269.1" cy="290.39" r="5.08"/><line class="cls-5" x1="281.18" y1="290.39" x2="274.18" y2="290.39"/><line class="cls-5" x1="309.74" y1="290.39" x2="302.74" y2="290.39"/><circle class="cls-4" cx="306.17" cy="275.89" r="2.9"/><line class="cls-5" x1="303.93" y1="278.12" x2="299.44" y2="282.62"/><circle class="cls-4" cx="306.17" cy="304.9" r="2.9"/><line class="cls-5" x1="303.93" y1="302.66" x2="299.44" y2="298.17"/><path class="cls-6" d="M281.5,286v8.73a2.92,2.92,0,0,0,1.45,2.51l7.56,4.36a2.89,2.89,0,0,0,2.9,0l7.56-4.36a2.9,2.9,0,0,0,1.45-2.51V286a2.88,2.88,0,0,0-1.45-2.51l-7.56-4.37a2.89,2.89,0,0,0-2.9,0L283,283.52A2.9,2.9,0,0,0,281.5,286Z"/><polyline class="cls-7" points="288.33 294.02 291.96 286.76 295.59 294.02"/><circle class="cls-4" cx="371.65" cy="290.39" r="2.9"/><circle class="cls-4" cx="327.85" cy="290.39" r="5.08"/><line class="cls-5" x1="339.93" y1="290.39" x2="332.93" y2="290.39"/><line class="cls-5" x1="368.49" y1="290.39" x2="361.49" y2="290.39"/><circle class="cls-4" cx="364.92" cy="275.89" r="2.9"/><line class="cls-5" x1="362.68" y1="278.12" x2="358.19" y2="282.62"/><circle class="cls-4" cx="364.92" cy="304.9" r="2.9"/><line class="cls-5" x1="362.68" y1="302.66" x2="358.19" y2="298.17"/><path class="cls-6" d="M340.25,286v8.73a2.92,2.92,0,0,0,1.45,2.51l7.56,4.36a2.89,2.89,0,0,0,2.9,0l7.56-4.36a2.9,2.9,0,0,0,1.45-2.51V286a2.88,2.88,0,0,0-1.45-2.51l-7.56-4.37a2.89,2.89,0,0,0-2.9,0l-7.56,4.37A2.9,2.9,0,0,0,340.25,286Z"/><polyline class="cls-7" points="347.08 294.02 350.71 286.76 354.34 294.02"/><circle class="cls-4" cx="430.4" cy="290.39" r="2.9"/><circle class="cls-4" cx="386.6" cy="290.39" r="5.08"/><line class="cls-5" x1="398.68" y1="290.39" x2="391.68" y2="290.39"/><line class="cls-5" x1="427.24" y1="290.39" x2="420.24" y2="290.39"/><circle class="cls-4" cx="423.67" cy="275.89" r="2.9"/><line class="cls-5" x1="421.43" y1="278.12" x2="416.94" y2="282.62"/><circle class="cls-4" cx="423.67" cy="304.9" r="2.9"/><line class="cls-5" x1="421.43" y1="302.66" x2="416.94" y2="298.17"/><path class="cls-6" d="M399,286v8.73a2.92,2.92,0,0,0,1.45,2.51l7.56,4.36a2.89,2.89,0,0,0,2.9,0l7.56-4.36a2.9,2.9,0,0,0,1.45-2.51V286a2.88,2.88,0,0,0-1.45-2.51l-7.56-4.37a2.89,2.89,0,0,0-2.9,0l-7.56,4.37A2.9,2.9,0,0,0,399,286Z"/><polyline class="cls-7" points="405.83 294.02 409.46 286.76 413.09 294.02"/><circle class="cls-4" cx="489.15" cy="290.39" r="2.9"/><circle class="cls-4" cx="445.35" cy="290.39" r="5.08"/><line class="cls-5" x1="457.43" y1="290.39" x2="450.43" y2="290.39"/><line class="cls-5" x1="485.99" y1="290.39" x2="478.99" y2="290.39"/><circle class="cls-4" cx="482.42" cy="275.89" r="2.9"/><line class="cls-5" x1="480.18" y1="278.12" x2="475.69" y2="282.62"/><circle class="cls-4" cx="482.42" cy="304.9" r="2.9"/><line class="cls-5" x1="480.18" y1="302.66" x2="475.69" y2="298.17"/><path class="cls-6" d="M457.75,286v8.73a2.92,2.92,0,0,0,1.45,2.51l7.56,4.36a2.89,2.89,0,0,0,2.9,0l7.56-4.36a2.9,2.9,0,0,0,1.45-2.51V286a2.88,2.88,0,0,0-1.45-2.51l-7.56-4.37a2.89,2.89,0,0,0-2.9,0l-7.56,4.37A2.9,2.9,0,0,0,457.75,286Z"/><polyline class="cls-7" points="464.58 294.02 468.21 286.76 471.84 294.02"/><circle class="cls-4" cx="547.9" cy="290.39" r="2.9"/><circle class="cls-4" cx="504.1" cy="290.39" r="5.08"/><line class="cls-5" x1="516.18" y1="290.39" x2="509.18" y2="290.39"/><line class="cls-5" x1="544.74" y1="290.39" x2="537.74" y2="290.39"/><circle class="cls-4" cx="541.17" cy="275.89" r="2.9"/><line class="cls-5" x1="538.93" y1="278.12" x2="534.44" y2="282.62"/><circle class="cls-4" cx="541.17" cy="304.9" r="2.9"/><line class="cls-5" x1="538.93" y1="302.66" x2="534.44" y2="298.17"/><path class="cls-6" d="M516.5,286v8.73a2.92,2.92,0,0,0,1.45,2.51l7.56,4.36a2.89,2.89,0,0,0,2.9,0l7.56-4.36a2.9,2.9,0,0,0,1.45-2.51V286a2.88,2.88,0,0,0-1.45-2.51l-7.56-4.37a2.89,2.89,0,0,0-2.9,0L518,283.52A2.9,2.9,0,0,0,516.5,286Z"/><polyline class="cls-7" points="523.33 294.02 526.96 286.76 530.59 294.02"/><line class="cls-8" x1="406.42" y1="203.75" x2="352.08" y2="275.43"/><line class="cls-8" x1="406.42" y1="203.75" x2="462.75" y2="276.1"/><line class="cls-8" x1="406.01" y1="203.75" x2="293.41" y2="274.76"/><line class="cls-8" x1="406.01" y1="203.75" x2="521.41" y2="276.1"/><line class="cls-8" x1="406.42" y1="203.75" x2="406.42" y2="276.76"/><polyline class="cls-9" points="161.85 296.76 232.53 296.76 232.53 175.43 382.79 175.43"/><polyline class="cls-9" points="161.85 193.43 212.12 193.43 212.12 158.76 382.79 158.76"/><polyline class="cls-9" points="161.85 84.1 212.12 84.1 212.12 162.1"/><line class="cls-9" x1="161.19" y1="246.1" x2="232.12" y2="246.1"/><line class="cls-9" x1="161.19" y1="139.43" x2="212.79" y2="139.43"/><g class="cls-10"><polygon class="cls-11" points="431.45 61.13 382.85 61.13 380.17 58.46 434.12 58.46 431.45 61.13"/></g><g class="cls-10"><path class="cls-11" d="M434.65,25.88l-2.13-2.14H382.31l-2.14,2.14V28h54.48V25.88Z"/></g><g class="cls-12"><rect class="cls-11" x="380.17" y="27.22" width="53.94" height="2.67"/></g><path class="cls-13" d="M400,41.26v5a3.11,3.11,0,0,0,1.55,2.68l4.3,2.48a3.07,3.07,0,0,0,3.1,0l4.3-2.48a3.11,3.11,0,0,0,1.55-2.68v-5a3.11,3.11,0,0,0-1.55-2.69l-4.3-2.48a3.12,3.12,0,0,0-3.1,0l-4.3,2.48A3.11,3.11,0,0,0,400,41.26Z"/><path class="cls-14" d="M407.36,52.49a2.63,2.63,0,0,1-1.33-.36l-5.27-3a2.67,2.67,0,0,1-1.33-2.31V40.7a2.67,2.67,0,0,1,1.33-2.31l5.27-3a2.66,2.66,0,0,1,2.67,0l5.26,3a2.68,2.68,0,0,1,1.34,2.31v6.08A2.68,2.68,0,0,1,414,49.09l-5.26,3A2.7,2.7,0,0,1,407.36,52.49Zm0-16.43a1.62,1.62,0,0,0-.8.21l-5.27,3a1.63,1.63,0,0,0-.8,1.39v6.08a1.63,1.63,0,0,0,.8,1.39l5.27,3a1.63,1.63,0,0,0,1.6,0l5.27-3a1.63,1.63,0,0,0,.8-1.39V40.7a1.63,1.63,0,0,0-.8-1.39l-5.27-3A1.62,1.62,0,0,0,407.36,36.06Z"/><path class="cls-11" d="M421.83,72.35H393a.54.54,0,0,1,0-1.07h28.84a.54.54,0,1,1,0,1.07Z"/><rect class="cls-11" x="381.24" y="26.95" width="52.34" height="1.07"/><rect class="cls-11" x="406.35" y="25.35" width="2.14" height="1.07"/><rect class="cls-11" x="381.24" y="57.93" width="52.34" height="1.07"/><g class="cls-10"><path class="cls-11" d="M413.88,62.13h-3.63V61.06h3.63Zm-9.08,0h-3.63V61.06h3.63Z"/></g><path class="cls-11" d="M394.22,72.35V71.28c6.07,0,6.14-10.15,6.14-10.25h1.07C401.43,61.49,401.35,72.35,394.22,72.35Z"/><path class="cls-11" d="M420.61,72.35c-7.13,0-7.21-10.86-7.21-11.32h1.06c0,.1.08,10.25,6.15,10.25Z"/><path class="cls-11" d="M407.41,64.23a3.17,3.17,0,0,1-3.2-3.2h1.07a2.14,2.14,0,0,0,4.27,0h1.07A3.17,3.17,0,0,1,407.41,64.23Z"/><path class="cls-15" d="M410.09,46.44a.52.52,0,0,1-.48-.29l-2.2-4.39-2.19,4.39a.54.54,0,0,1-.72.24.53.53,0,0,1-.23-.72l2.67-5.34a.55.55,0,0,1,.95,0l2.67,5.34a.53.53,0,0,1-.24.72A.46.46,0,0,1,410.09,46.44Z"/><path class="cls-11" d="M431.88,61.13H382.83l-2.66-2.65V25.87l2.13-2.13h50.23l2.12,2.13V58.43Zm-48.61-1.07h48.18L433.59,58V26.31l-1.5-1.5H382.74l-1.5,1.5V58Z"/><polygon class="cls-11" points="420.77 72.88 394.06 72.88 392.99 71.81 421.83 71.81 420.77 72.88"/><path class="cls-14" d="M382.84,28.28a.54.54,0,1,0,.54.54.54.54,0,0,0-.54-.54Z"/><path class="cls-14" d="M384.45,28.28a.54.54,0,1,0,.53.54.54.54,0,0,0-.53-.54Z"/><path class="cls-14" d="M386.05,28.28a.54.54,0,1,0,.53.54.54.54,0,0,0-.53-.54Z"/><g class="cls-10"><rect class="cls-11" x="381.41" y="29.81" width="52.88" height="1.07"/></g><g class="cls-10"><path class="cls-11" d="M432.41,40.76a.53.53,0,0,1-.53-.53V30.08H397.16a.54.54,0,0,1,0-1.07h35.25a.54.54,0,0,1,.54.54V40.23A.54.54,0,0,1,432.41,40.76Z"/></g><g class="cls-10"><path class="cls-11" d="M395,30.08h-1.61a.54.54,0,0,1,0-1.07H395a.54.54,0,0,1,0,1.07Z"/></g><g class="cls-10"><path class="cls-11" d="M432.41,42.36a.52.52,0,0,1-.38-.16.42.42,0,0,1-.11-.17.65.65,0,0,1,0-.2.78.78,0,0,1,0-.21.62.62,0,0,1,.11-.17.56.56,0,0,1,.59-.12.61.61,0,0,1,.29.29.76.76,0,0,1,0,.21.64.64,0,0,1,0,.2.52.52,0,0,1-.12.17.48.48,0,0,1-.17.12A.52.52,0,0,1,432.41,42.36Z"/></g><g class="cls-16"><path class="cls-11" d="M407.36,53.56A2.63,2.63,0,0,1,406,53.2l-5.27-3a.53.53,0,1,1,.53-.92l5.27,3a1.58,1.58,0,0,0,1.6,0l5.27-3a.53.53,0,1,1,.53.92l-5.26,3A2.7,2.7,0,0,1,407.36,53.56Z"/></g><path class="cls-11" d="M261.34,127.77a2,2,0,0,1-.76,1.65,3.35,3.35,0,0,1-2.09.59,5.08,5.08,0,0,1-2.18-.41v-1.22a5.5,5.5,0,0,0,1.14.4,4.69,4.69,0,0,0,1.13.15,1.81,1.81,0,0,0,1.12-.29,1,1,0,0,0,0-1.53,5.17,5.17,0,0,0-1.37-.72,3.64,3.64,0,0,1-1.52-1,2.12,2.12,0,0,1-.44-1.34,1.87,1.87,0,0,1,.7-1.55,2.91,2.91,0,0,1,1.87-.56,5.5,5.5,0,0,1,2.25.49l-.41,1a5,5,0,0,0-1.87-.44,1.42,1.42,0,0,0-.94.27.88.88,0,0,0-.33.72,1.05,1.05,0,0,0,.13.52,1.31,1.31,0,0,0,.43.41,6.64,6.64,0,0,0,1.06.51,6.16,6.16,0,0,1,1.27.67,2.06,2.06,0,0,1,.59.71A2.19,2.19,0,0,1,261.34,127.77Z"/><path class="cls-11" d="M265.43,130a2.87,2.87,0,0,1-2.17-.81,3.07,3.07,0,0,1-.78-2.22,3.38,3.38,0,0,1,.72-2.29,2.5,2.5,0,0,1,2-.83,2.41,2.41,0,0,1,1.85.71,2.72,2.72,0,0,1,.69,2v.68h-4a2,2,0,0,0,.47,1.33,1.61,1.61,0,0,0,1.24.46,4.4,4.4,0,0,0,1-.1,4.45,4.45,0,0,0,1-.33v1a3.77,3.77,0,0,1-.93.31A5.89,5.89,0,0,1,265.43,130Zm-.23-5.2a1.28,1.28,0,0,0-1,.38,1.88,1.88,0,0,0-.43,1.12h2.7a1.65,1.65,0,0,0-.36-1.12A1.21,1.21,0,0,0,265.2,124.81Z"/><path class="cls-11" d="M272.29,123.86a2.76,2.76,0,0,1,.63,0l-.12,1.18a2.1,2.1,0,0,0-.56-.07,1.64,1.64,0,0,0-1.23.5,1.79,1.79,0,0,0-.47,1.28v3.1h-1.26V124h1l.17,1.05h.06a2.4,2.4,0,0,1,.77-.84A1.82,1.82,0,0,1,272.29,123.86Z"/><path class="cls-11" d="M275.49,129.9,273.23,124h1.33l1.21,3.46a7.33,7.33,0,0,1,.38,1.4h0a9.36,9.36,0,0,1,.38-1.4l1.2-3.46h1.35l-2.27,5.94Z"/><path class="cls-11" d="M282.72,130a2.86,2.86,0,0,1-2.16-.81,3.07,3.07,0,0,1-.78-2.22,3.38,3.38,0,0,1,.72-2.29,2.48,2.48,0,0,1,2-.83,2.42,2.42,0,0,1,1.86.71,2.71,2.71,0,0,1,.68,2v.68h-3.95a1.94,1.94,0,0,0,.46,1.33,1.64,1.64,0,0,0,1.24.46,4.53,4.53,0,0,0,2-.43v1a3.7,3.7,0,0,1-.94.31A5.74,5.74,0,0,1,282.72,130Zm-.23-5.2a1.27,1.27,0,0,0-1,.38,1.82,1.82,0,0,0-.43,1.12h2.69a1.6,1.6,0,0,0-.35-1.12A1.23,1.23,0,0,0,282.49,124.81Z"/><path class="cls-11" d="M289.59,123.86a2.81,2.81,0,0,1,.63,0l-.12,1.18a2.1,2.1,0,0,0-.56-.07,1.61,1.61,0,0,0-1.23.5,1.79,1.79,0,0,0-.47,1.28v3.1h-1.26V124h1l.16,1.05h.07a2.31,2.31,0,0,1,.77-.84A1.8,1.8,0,0,1,289.59,123.86Z"/><path class="cls-11" d="M292.74,128.75a18.58,18.58,0,0,1-.94,2.57h-.93c.24-1,.43-1.86.55-2.69h1.24Z"/><path class="cls-11" d="M304.12,129.9h-1.57l-3.86-6.25h-.05l0,.35c.05.66.08,1.27.08,1.82v4.08h-1.17v-7.85h1.56l3.85,6.23h0c0-.09,0-.39,0-.9s0-.92,0-1.21v-4.12h1.17Z"/><path class="cls-11" d="M308.77,130a2.87,2.87,0,0,1-2.17-.81,3.07,3.07,0,0,1-.78-2.22,3.38,3.38,0,0,1,.72-2.29,2.5,2.5,0,0,1,2-.83,2.42,2.42,0,0,1,1.86.71,2.72,2.72,0,0,1,.69,2v.68h-4a1.94,1.94,0,0,0,.46,1.33,1.64,1.64,0,0,0,1.24.46,4.45,4.45,0,0,0,2-.43v1a3.77,3.77,0,0,1-.93.31A5.89,5.89,0,0,1,308.77,130Zm-.24-5.2a1.27,1.27,0,0,0-1,.38,1.82,1.82,0,0,0-.43,1.12h2.69a1.6,1.6,0,0,0-.35-1.12A1.22,1.22,0,0,0,308.53,124.81Z"/><path class="cls-11" d="M314.83,129a3.33,3.33,0,0,0,.93-.14v1a2.56,2.56,0,0,1-.54.15,3.85,3.85,0,0,1-.69.06c-1.19,0-1.79-.63-1.79-1.89v-3.2h-.81v-.56l.87-.46.43-1.26H314V124h1.7v1H314v3.18a.89.89,0,0,0,.23.67A.82.82,0,0,0,314.83,129Z"/><path class="cls-11" d="M321.92,129.9l-.76-2.77q-.15-.43-.51-2h0c-.2,1-.37,1.65-.49,2l-.79,2.76h-1.4L316.26,124h1.29l.75,2.93a17.29,17.29,0,0,1,.37,1.86h0c0-.26.09-.56.17-.9a6.33,6.33,0,0,1,.19-.76L320,124h1.38l.88,3.13c0,.18.12.44.2.81a5.54,5.54,0,0,1,.14.84h.05a16.92,16.92,0,0,1,.37-1.85l.77-2.93H325l-1.68,5.94Z"/><path class="cls-11" d="M331.42,126.92a3.22,3.22,0,0,1-.75,2.27,2.66,2.66,0,0,1-2.08.82,2.87,2.87,0,0,1-1.47-.37,2.56,2.56,0,0,1-1-1.08,3.7,3.7,0,0,1-.35-1.64,3.19,3.19,0,0,1,.75-2.25,2.68,2.68,0,0,1,2.08-.81,2.63,2.63,0,0,1,2.05.83A3.18,3.18,0,0,1,331.42,126.92Zm-4.33,0c0,1.37.51,2.06,1.52,2.06s1.51-.69,1.51-2.06-.51-2-1.52-2a1.29,1.29,0,0,0-1.15.52A2.67,2.67,0,0,0,327.09,126.92Z"/><path class="cls-11" d="M336,123.86a2.76,2.76,0,0,1,.63,0l-.12,1.18a2.1,2.1,0,0,0-.56-.07,1.61,1.61,0,0,0-1.23.5,1.79,1.79,0,0,0-.47,1.28v3.1H333V124h1l.16,1.05h.07a2.31,2.31,0,0,1,.77-.84A1.8,1.8,0,0,1,336,123.86Z"/><path class="cls-11" d="M339.05,126.77l.71-.89,1.8-1.92H343l-2.39,2.56,2.54,3.38h-1.48l-1.91-2.6-.69.57v2h-1.25v-8.35h1.25v4.07l-.06,1.15Z"/><path class="cls-11" d="M266.74,136a2.11,2.11,0,0,0-1.74.78,3.4,3.4,0,0,0-.63,2.17,3.33,3.33,0,0,0,.61,2.18,2.12,2.12,0,0,0,1.76.75,5.15,5.15,0,0,0,1-.1c.31-.07.63-.16,1-.26v1.1a5.73,5.73,0,0,1-2.09.35,3.36,3.36,0,0,1-2.65-1,4.37,4.37,0,0,1-.93-3,4.86,4.86,0,0,1,.45-2.15,3.15,3.15,0,0,1,1.3-1.4,3.89,3.89,0,0,1,2-.49,5.06,5.06,0,0,1,2.23.5l-.47,1.07a8.17,8.17,0,0,0-.84-.33A3.12,3.12,0,0,0,266.74,136Z"/><path class="cls-11" d="M275.62,139.92a3.22,3.22,0,0,1-.75,2.27,2.66,2.66,0,0,1-2.08.82,2.87,2.87,0,0,1-1.47-.37,2.56,2.56,0,0,1-1-1.08,3.7,3.7,0,0,1-.35-1.64,3.23,3.23,0,0,1,.74-2.25,2.7,2.7,0,0,1,2.09-.81,2.59,2.59,0,0,1,2,.83A3.14,3.14,0,0,1,275.62,139.92Zm-4.33,0c0,1.37.51,2.06,1.52,2.06s1.51-.69,1.51-2.06-.51-2-1.52-2a1.29,1.29,0,0,0-1.15.52A2.67,2.67,0,0,0,271.29,139.92Z"/><path class="cls-11" d="M282.4,142.9h-1.26v-3.65a1.59,1.59,0,0,0-.28-1,1.07,1.07,0,0,0-.88-.34,1.39,1.39,0,0,0-1.17.47,2.59,2.59,0,0,0-.37,1.58v3h-1.26V137h1l.17.78h.07a1.73,1.73,0,0,1,.76-.65,2.46,2.46,0,0,1,1.1-.23A1.9,1.9,0,0,1,282.4,139Z"/><path class="cls-11" d="M287.25,137.92H285.8v5h-1.27v-5h-1v-.59l1-.39v-.38A2.17,2.17,0,0,1,285,135a2.05,2.05,0,0,1,1.51-.5,4,4,0,0,1,1.31.22l-.34.95a2.91,2.91,0,0,0-.89-.15.72.72,0,0,0-.62.27,1.35,1.35,0,0,0-.2.8V137h1.45Zm.93-2.53a.7.7,0,0,1,.19-.52.86.86,0,0,1,1.05,0,.7.7,0,0,1,.18.52.72.72,0,0,1-.18.51.72.72,0,0,1-1.24-.51Zm1.34,7.51h-1.26V137h1.26Z"/><path class="cls-11" d="M296.46,137v.7l-1,.18a1.47,1.47,0,0,1,.23.47,1.57,1.57,0,0,1,.1.58,1.78,1.78,0,0,1-.64,1.44,2.64,2.64,0,0,1-1.74.53,2.7,2.7,0,0,1-.52-.05.73.73,0,0,0-.41.6.34.34,0,0,0,.19.3,1.63,1.63,0,0,0,.7.1h1a2.28,2.28,0,0,1,1.49.42,1.47,1.47,0,0,1,.51,1.21,1.76,1.76,0,0,1-.83,1.56,4.39,4.39,0,0,1-2.4.55,3.41,3.41,0,0,1-1.86-.43,1.42,1.42,0,0,1-.64-1.23A1.32,1.32,0,0,1,291,143a1.85,1.85,0,0,1,1-.52.92.92,0,0,1-.42-.34.88.88,0,0,1-.16-.51.83.83,0,0,1,.19-.56,2.11,2.11,0,0,1,.56-.46,1.66,1.66,0,0,1-.75-.64,1.92,1.92,0,0,1-.29-1.05,1.86,1.86,0,0,1,.61-1.5,2.53,2.53,0,0,1,1.74-.53l.53,0a3.71,3.71,0,0,1,.41.07Zm-4.67,6.87a.7.7,0,0,0,.37.63,2.07,2.07,0,0,0,1,.22,3.1,3.1,0,0,0,1.54-.3.88.88,0,0,0,.5-.78.59.59,0,0,0-.27-.55,2.22,2.22,0,0,0-1-.17h-1a1.34,1.34,0,0,0-.86.26A.85.85,0,0,0,291.79,143.83Zm.54-4.94a1.21,1.21,0,0,0,.29.86,1.1,1.1,0,0,0,.83.3c.73,0,1.09-.39,1.09-1.17a1.34,1.34,0,0,0-.27-.9,1.25,1.25,0,0,0-1.65,0A1.31,1.31,0,0,0,292.33,138.89Z"/><path class="cls-11" d="M301.86,142.9l-.18-.78h-.06a1.76,1.76,0,0,1-.75.65,2.51,2.51,0,0,1-1.11.24,2.16,2.16,0,0,1-1.61-.54,2.18,2.18,0,0,1-.53-1.62V137h1.27v3.67a1.57,1.57,0,0,0,.28,1,1,1,0,0,0,.87.34,1.42,1.42,0,0,0,1.17-.47,2.63,2.63,0,0,0,.38-1.6v-3h1.26v5.94Z"/><path class="cls-11" d="M307.78,136.86a2.72,2.72,0,0,1,.62,0l-.12,1.18a2,2,0,0,0-.56-.07,1.61,1.61,0,0,0-1.22.5,1.75,1.75,0,0,0-.48,1.28v3.1h-1.26V137h1l.17,1H306a2.5,2.5,0,0,1,.77-.84A1.83,1.83,0,0,1,307.78,136.86Z"/><path class="cls-11" d="M313.33,142.9l-.25-.82h0a2.45,2.45,0,0,1-.87.73,2.58,2.58,0,0,1-1.12.2,1.9,1.9,0,0,1-1.36-.47,1.77,1.77,0,0,1-.49-1.34,1.55,1.55,0,0,1,.68-1.38,3.78,3.78,0,0,1,2.08-.51l1,0V139a1.26,1.26,0,0,0-.26-.86,1.12,1.12,0,0,0-.83-.28,2.83,2.83,0,0,0-.87.14,7.14,7.14,0,0,0-.81.31l-.41-.9a4.6,4.6,0,0,1,1.06-.38,4.76,4.76,0,0,1,1.09-.13,2.58,2.58,0,0,1,1.71.49,2,2,0,0,1,.57,1.55v4Zm-1.88-.86a1.56,1.56,0,0,0,1.11-.38,1.42,1.42,0,0,0,.41-1.08v-.51l-.76,0a2.59,2.59,0,0,0-1.3.3.9.9,0,0,0-.4.81.83.83,0,0,0,.23.62A1.06,1.06,0,0,0,311.45,142Z"/><path class="cls-11" d="M318.32,142a3.26,3.26,0,0,0,.92-.14v1a2.56,2.56,0,0,1-.54.15,3.82,3.82,0,0,1-.68.06q-1.8,0-1.8-1.89v-3.2h-.81v-.56l.87-.46.43-1.26h.78V137h1.69v1h-1.69v3.18a.89.89,0,0,0,.23.67A.81.81,0,0,0,318.32,142Z"/><path class="cls-11" d="M320.46,135.39a.7.7,0,0,1,.19-.52.86.86,0,0,1,1.05,0,.7.7,0,0,1,.18.52.72.72,0,0,1-.18.51.72.72,0,0,1-1.24-.51Zm1.34,7.51h-1.26V137h1.26Z"/><path class="cls-11" d="M329,139.92a3.22,3.22,0,0,1-.75,2.27,2.66,2.66,0,0,1-2.08.82,2.87,2.87,0,0,1-1.47-.37,2.5,2.5,0,0,1-1-1.08,3.7,3.7,0,0,1-.35-1.64,3.23,3.23,0,0,1,.74-2.25,2.7,2.7,0,0,1,2.09-.81,2.59,2.59,0,0,1,2,.83A3.14,3.14,0,0,1,329,139.92Zm-4.33,0c0,1.37.51,2.06,1.52,2.06s1.51-.69,1.51-2.06-.51-2-1.52-2a1.29,1.29,0,0,0-1.15.52A2.67,2.67,0,0,0,324.66,139.92Z"/><path class="cls-11" d="M335.77,142.9H334.5v-3.65a1.59,1.59,0,0,0-.27-1,1.07,1.07,0,0,0-.88-.34,1.39,1.39,0,0,0-1.17.47,2.59,2.59,0,0,0-.37,1.58v3h-1.26V137h1l.18.78h.07a1.73,1.73,0,0,1,.76-.65,2.45,2.45,0,0,1,1.09-.23,1.9,1.9,0,0,1,2.14,2.17Z"/><path class="cls-11" d="M379,104.77v3.13h-1.29v-7.85h2.22a3.61,3.61,0,0,1,2.25.57,2,2,0,0,1,.73,1.72,2.15,2.15,0,0,1-1.52,2.09l2.22,3.47H382.1l-1.88-3.13Zm0-1.07h.89a2,2,0,0,0,1.3-.33,1.2,1.2,0,0,0,.4-1,1.05,1.05,0,0,0-.43-.95,2.33,2.33,0,0,0-1.31-.29H379Z"/><path class="cls-11" d="M389.25,107.9H384.8v-7.85h4.45v1.09h-3.16v2.13h3v1.08h-3v2.46h3.16Z"/><path class="cls-11" d="M395.58,105.77a2,2,0,0,1-.76,1.65,3.32,3.32,0,0,1-2.08.59,5.12,5.12,0,0,1-2.19-.41v-1.22a5.39,5.39,0,0,0,1.15.4,4.61,4.61,0,0,0,1.12.15,1.82,1.82,0,0,0,1.13-.29,1,1,0,0,0,0-1.53,5.28,5.28,0,0,0-1.38-.72,3.59,3.59,0,0,1-1.51-1,2.06,2.06,0,0,1-.44-1.34,1.9,1.9,0,0,1,.69-1.55,2.94,2.94,0,0,1,1.88-.56,5.46,5.46,0,0,1,2.24.49l-.4,1a5,5,0,0,0-1.87-.44,1.45,1.45,0,0,0-.95.27.9.9,0,0,0-.32.72,1,1,0,0,0,.13.52,1.27,1.27,0,0,0,.42.41,6.87,6.87,0,0,0,1.07.51,6.31,6.31,0,0,1,1.26.67,2,2,0,0,1,.59.71A2,2,0,0,1,395.58,105.77Z"/><path class="cls-11" d="M399.92,107.9h-1.28v-6.75h-2.31v-1.1h5.9v1.1h-2.31Z"/><path class="cls-11" d="M417.32,107.9l-.78-2.18h-3l-.76,2.18h-1.36l2.94-7.88h1.4l2.93,7.88Zm-1.12-3.28-.74-2.14c0-.14-.13-.37-.22-.68s-.16-.53-.2-.67a11.7,11.7,0,0,1-.42,1.44l-.71,2.05Z"/><path class="cls-11" d="M425,102.43a2.28,2.28,0,0,1-.81,1.88,3.51,3.51,0,0,1-2.29.66h-.81v2.93h-1.29v-7.85h2.26a3.45,3.45,0,0,1,2.21.6A2.17,2.17,0,0,1,425,102.43Zm-3.91,1.46h.68a2.44,2.44,0,0,0,1.45-.35,1.46,1.46,0,0,0,.05-2.08,2.08,2.08,0,0,0-1.29-.33h-.89Z"/><path class="cls-11" d="M426.71,107.9v-7.85H428v7.85Z"/><path class="cls-11" d="M170.69,240.9v-7.85H172v7.85Z"/><path class="cls-11" d="M179.36,235.43a2.28,2.28,0,0,1-.81,1.88,3.53,3.53,0,0,1-2.29.66h-.82v2.93h-1.28v-7.85h2.26a3.42,3.42,0,0,1,2.2.6A2.17,2.17,0,0,1,179.36,235.43Zm-3.92,1.46h.68a2.44,2.44,0,0,0,1.45-.35,1.23,1.23,0,0,0,.46-1.07,1.2,1.2,0,0,0-.41-1,2.08,2.08,0,0,0-1.29-.33h-.89Z"/><path class="cls-11" d="M185.91,240.9l-.79-2.18h-3l-.77,2.18H180l2.94-7.88h1.39l2.94,7.88Zm-1.13-3.28-.73-2.14c-.06-.14-.13-.37-.23-.68s-.16-.53-.19-.67a11.87,11.87,0,0,1-.43,1.44l-.7,2.05Z"/><path class="cls-11" d="M191.81,240.9l-2.28-6.55h0c.06,1,.09,1.88.09,2.74v3.81h-1.16v-7.85h1.81l2.18,6.25h0l2.24-6.25h1.82v7.85h-1.24V237c0-.39,0-.9,0-1.52s0-1,.06-1.14h0l-2.36,6.54Z"/><path class="cls-11" d="M201.84,233.05l-2.92,7.85h-1.19l2.92-7.85Z"/><path class="cls-11" d="M209.47,236.9a3.93,3.93,0,0,1-1.08,3,4.37,4.37,0,0,1-3.11,1h-2.2v-7.85h2.43a4,4,0,0,1,2.91,1A3.75,3.75,0,0,1,209.47,236.9Zm-1.36,0c0-1.87-.88-2.81-2.64-2.81h-1.11v5.69h.92C207.17,239.82,208.11,238.86,208.11,236.94Z"/><path class="cls-11" d="M217.8,240.9h-1.57l-3.86-6.25h0l0,.35c.05.66.08,1.27.08,1.82v4.08h-1.17v-7.85h1.56l3.85,6.23h0c0-.09,0-.39,0-.9s0-.92,0-1.21v-4.12h1.17Z"/><path class="cls-11" d="M224.52,238.77a2,2,0,0,1-.76,1.65,3.35,3.35,0,0,1-2.09.59,5,5,0,0,1-2.18-.41v-1.22a5.5,5.5,0,0,0,1.14.4,4.68,4.68,0,0,0,1.12.15,1.82,1.82,0,0,0,1.13-.29,1,1,0,0,0,0-1.53,5.11,5.11,0,0,0-1.38-.72,3.66,3.66,0,0,1-1.51-1,2.12,2.12,0,0,1-.44-1.34,1.87,1.87,0,0,1,.7-1.55,2.91,2.91,0,0,1,1.87-.56,5.54,5.54,0,0,1,2.25.49l-.41,1a5,5,0,0,0-1.87-.44,1.45,1.45,0,0,0-1,.27.9.9,0,0,0-.32.72,1,1,0,0,0,.13.52,1.31,1.31,0,0,0,.43.41,6.64,6.64,0,0,0,1.06.51,6.16,6.16,0,0,1,1.27.67,1.92,1.92,0,0,1,.78,1.63Z"/><path class="cls-11" d="M192.63,291.9l-.78-2.18h-3l-.77,2.18h-1.35l2.93-7.88h1.4L194,291.9Zm-1.12-3.28-.73-2.14c-.06-.14-.13-.37-.23-.68s-.16-.53-.19-.67a11.87,11.87,0,0,1-.43,1.44l-.71,2.05Z"/><path class="cls-11" d="M198,292a2.09,2.09,0,0,1-1.75-.81h-.07c.05.5.07.81.07.91v2.44H195V286h1c0,.11.09.38.18.8h.06a2,2,0,0,1,1.77-.9,2.06,2.06,0,0,1,1.74.8,4.42,4.42,0,0,1,0,4.53A2.08,2.08,0,0,1,198,292Zm-.3-5.12a1.3,1.3,0,0,0-1.1.44,2.26,2.26,0,0,0-.35,1.4v.19a2.74,2.74,0,0,0,.35,1.57,1.26,1.26,0,0,0,1.12.49,1.14,1.14,0,0,0,1-.54,2.84,2.84,0,0,0,.35-1.53,2.64,2.64,0,0,0-.35-1.51A1.17,1.17,0,0,0,197.72,286.89Z"/><path class="cls-11" d="M205,292a2.08,2.08,0,0,1-1.75-.81h-.08c.05.5.08.81.08.91v2.44H202V286h1c0,.11.09.38.18.8h.07a2,2,0,0,1,1.77-.9,2,2,0,0,1,1.73.8,4.42,4.42,0,0,1,0,4.53A2.06,2.06,0,0,1,205,292Zm-.31-5.12a1.3,1.3,0,0,0-1.1.44,2.27,2.27,0,0,0-.34,1.4v.19a2.75,2.75,0,0,0,.34,1.57,1.26,1.26,0,0,0,1.12.49,1.13,1.13,0,0,0,1-.54,2.75,2.75,0,0,0,.36-1.53,2.72,2.72,0,0,0-.35-1.51A1.19,1.19,0,0,0,204.68,286.89Z"/><path class="cls-11" d="M175,307.9l-.79-2.18h-3l-.77,2.18h-1.35l2.94-7.88h1.39l2.94,7.88Zm-1.13-3.28-.73-2.14a6.93,6.93,0,0,1-.22-.68c-.1-.31-.17-.53-.2-.67a11.87,11.87,0,0,1-.43,1.44l-.7,2.05Z"/><path class="cls-11" d="M181.59,307.9l-.18-.78h-.06a1.65,1.65,0,0,1-.75.65,2.45,2.45,0,0,1-1.11.24,2.17,2.17,0,0,1-1.61-.54,2.22,2.22,0,0,1-.53-1.62V302h1.27v3.67a1.63,1.63,0,0,0,.28,1,1.07,1.07,0,0,0,.88.34,1.38,1.38,0,0,0,1.16-.47,2.63,2.63,0,0,0,.38-1.6v-3h1.27v5.94Z"/><path class="cls-11" d="M186.71,307a3.26,3.26,0,0,0,.92-.14v.95a2.56,2.56,0,0,1-.54.15,3.82,3.82,0,0,1-.68.06q-1.8,0-1.8-1.89v-3.2h-.81v-.56l.87-.46.43-1.26h.78V302h1.69v1h-1.69v3.18a.89.89,0,0,0,.23.67A.81.81,0,0,0,186.71,307Z"/><path class="cls-11" d="M194.2,304.92a3.22,3.22,0,0,1-.75,2.27,2.66,2.66,0,0,1-2.08.82,2.87,2.87,0,0,1-1.47-.37,2.63,2.63,0,0,1-1-1.08,3.7,3.7,0,0,1-.35-1.64,3.19,3.19,0,0,1,.75-2.25,2.68,2.68,0,0,1,2.09-.81,2.62,2.62,0,0,1,2,.83A3.18,3.18,0,0,1,194.2,304.92Zm-4.33,0c0,1.37.51,2.06,1.52,2.06s1.51-.69,1.51-2.06-.51-2-1.52-2a1.29,1.29,0,0,0-1.15.52A2.67,2.67,0,0,0,189.87,304.92Z"/><path class="cls-11" d="M195.24,305.49v-1.07H198v1.07Z"/><path class="cls-11" d="M203.4,306.21a1.55,1.55,0,0,1-.64,1.34A3,3,0,0,1,201,308a4.31,4.31,0,0,1-1.91-.36v-1.09a4.72,4.72,0,0,0,2,.48c.78,0,1.17-.23,1.17-.7A.6.6,0,0,0,202,306a1.65,1.65,0,0,0-.43-.31,7.13,7.13,0,0,0-.82-.36,3.92,3.92,0,0,1-1.39-.8,1.47,1.47,0,0,1-.36-1,1.35,1.35,0,0,1,.62-1.18,2.91,2.91,0,0,1,1.67-.42,4.75,4.75,0,0,1,2,.42l-.41,1a4.52,4.52,0,0,0-1.61-.4c-.67,0-1,.19-1,.57a.57.57,0,0,0,.26.48,6.55,6.55,0,0,0,1.13.53,5.07,5.07,0,0,1,1.07.52,1.58,1.58,0,0,1,.5.54A1.72,1.72,0,0,1,203.4,306.21Z"/><path class="cls-11" d="M207.27,308a2.59,2.59,0,0,1-2.05-.79,3.24,3.24,0,0,1-.7-2.25,3.32,3.32,0,0,1,.73-2.31,2.72,2.72,0,0,1,2.12-.8,4,4,0,0,1,1.69.34l-.38,1a3.73,3.73,0,0,0-1.32-.31c-1,0-1.54.68-1.54,2a2.53,2.53,0,0,0,.38,1.51,1.35,1.35,0,0,0,1.13.5,3.21,3.21,0,0,0,1.59-.42v1.1a2.53,2.53,0,0,1-.72.29A5,5,0,0,1,207.27,308Z"/><path class="cls-11" d="M214.15,307.9l-.26-.82h0a2.43,2.43,0,0,1-.86.73,2.61,2.61,0,0,1-1.12.2,1.93,1.93,0,0,1-1.37-.47,1.77,1.77,0,0,1-.49-1.34,1.57,1.57,0,0,1,.68-1.38,3.8,3.8,0,0,1,2.08-.51l1,0V304a1.22,1.22,0,0,0-.27-.86,1.11,1.11,0,0,0-.82-.28,2.84,2.84,0,0,0-.88.14,6.33,6.33,0,0,0-.8.31l-.41-.9a4.29,4.29,0,0,1,1.06-.38,4.67,4.67,0,0,1,1.08-.13,2.55,2.55,0,0,1,1.71.49,1.92,1.92,0,0,1,.58,1.55v4Zm-1.88-.86a1.55,1.55,0,0,0,1.1-.38,1.39,1.39,0,0,0,.42-1.08v-.51l-.77,0a2.54,2.54,0,0,0-1.29.3.91.91,0,0,0-.41.81.8.8,0,0,0,.24.62A1,1,0,0,0,212.27,307Z"/><path class="cls-11" d="M218.18,307.9h-1.26v-8.35h1.26Z"/><path class="cls-11" d="M222.69,308a2.9,2.9,0,0,1-2.17-.81,3.07,3.07,0,0,1-.78-2.22,3.33,3.33,0,0,1,.73-2.29,2.48,2.48,0,0,1,2-.83,2.45,2.45,0,0,1,1.86.71,2.76,2.76,0,0,1,.68,2v.68h-4a2,2,0,0,0,.47,1.33,1.62,1.62,0,0,0,1.24.46,4.34,4.34,0,0,0,1-.1,4.52,4.52,0,0,0,1-.33v1a3.7,3.7,0,0,1-.94.31A5.74,5.74,0,0,1,222.69,308Zm-.23-5.2a1.27,1.27,0,0,0-1,.38,1.82,1.82,0,0,0-.44,1.12h2.7a1.7,1.7,0,0,0-.35-1.12A1.23,1.23,0,0,0,222.46,302.81Z"/><line class="cls-17" x1="407.41" y1="83.06" x2="407.41" y2="121.84"/><polygon class="cls-18" points="405.03 84.68 407.41 75.78 409.8 84.68 405.03 84.68"/><polygon class="cls-18" points="405.03 120.22 407.41 129.12 409.8 120.22 405.03 120.22"/><path class="cls-19" d="M344.83,330.54l-.67-2.21h-3.38l-.68,2.21H338l3.28-9.32h2.4l3.29,9.32Zm-1.14-3.86-1.05-3.4c-.08-.26-.14-.47-.17-.62q-.21.81-1.2,4Z"/><path class="cls-19" d="M353.54,321.26h2l-3.15,9.28h-2.15l-3.15-9.28h2l1.74,5.52c.1.32.2.7.31,1.14s.16.73.19.9a15.31,15.31,0,0,1,.48-2Z"/><path class="cls-19" d="M356.83,330.54v-9.28h2v9.28Z"/><path class="cls-19" d="M370.25,328a2.38,2.38,0,0,1-.91,2,3.93,3.93,0,0,1-2.51.72,5.81,5.81,0,0,1-2.63-.56v-1.82a10.88,10.88,0,0,0,1.59.59A4.87,4.87,0,0,0,367,329a1.65,1.65,0,0,0,1-.25.85.85,0,0,0,.35-.74.81.81,0,0,0-.15-.48,2,2,0,0,0-.45-.41,13.06,13.06,0,0,0-1.2-.63,5.22,5.22,0,0,1-1.28-.77,2.93,2.93,0,0,1-.68-.85,2.47,2.47,0,0,1-.25-1.15,2.37,2.37,0,0,1,.83-1.93,3.49,3.49,0,0,1,2.31-.71,5.67,5.67,0,0,1,1.38.17,9.46,9.46,0,0,1,1.37.49l-.63,1.53a8.82,8.82,0,0,0-1.23-.43,4,4,0,0,0-1-.12,1.27,1.27,0,0,0-.85.26.85.85,0,0,0-.3.68.84.84,0,0,0,.12.45,1.37,1.37,0,0,0,.38.38,12.73,12.73,0,0,0,1.25.65,5,5,0,0,1,1.79,1.25A2.41,2.41,0,0,1,370.25,328Z"/><path class="cls-19" d="M377.4,330.54h-5.34v-9.28h5.34v1.61H374v2h3.14v1.61H374v2.39h3.37Z"/><path class="cls-19" d="M381.44,327v3.56h-2v-9.28h2.7a4.67,4.67,0,0,1,2.8.68,2.75,2.75,0,0,1,.46,3.55,2.89,2.89,0,0,1-1.28,1q2.1,3.13,2.73,4.05H384.7L382.49,327Zm0-1.6h.63a2.42,2.42,0,0,0,1.38-.32,1.08,1.08,0,0,0,.44-1,1,1,0,0,0-.45-.94,2.71,2.71,0,0,0-1.41-.28h-.59Z"/><path class="cls-19" d="M393.48,321.26h2l-3.15,9.28h-2.15L387,321.26h2l1.75,5.52q.13.48.3,1.14c.1.43.17.73.19.9a17.15,17.15,0,0,1,.48-2Z"/><path class="cls-19" d="M396.76,330.54v-9.28h2v9.28Z"/><path class="cls-19" d="M405.14,322.76a2,2,0,0,0-1.72.84,3.83,3.83,0,0,0-.61,2.32c0,2.07.77,3.11,2.33,3.11a7.46,7.46,0,0,0,2.36-.49v1.65a6.51,6.51,0,0,1-2.55.47,3.89,3.89,0,0,1-3.09-1.22,5.19,5.19,0,0,1-1.08-3.53,5.79,5.79,0,0,1,.53-2.54,3.83,3.83,0,0,1,1.51-1.67,4.56,4.56,0,0,1,2.32-.58,6.17,6.17,0,0,1,2.71.66l-.63,1.6c-.35-.17-.7-.31-1.05-.44A3.15,3.15,0,0,0,405.14,322.76Z"/><path class="cls-19" d="M415,330.54h-5.34v-9.28H415v1.61h-3.37v2h3.14v1.61h-3.14v2.39H415Z"/><path class="cls-19" d="M425.87,330.54h-5.34v-9.28h5.34v1.61h-3.38v2h3.15v1.61h-3.15v2.39h3.38Z"/><path class="cls-19" d="M436.17,330.54h-2.5l-4-7h-.05c.08,1.24.12,2.12.12,2.65v4.37h-1.76v-9.28h2.48l4,6.95h0c-.06-1.21-.09-2.06-.09-2.56v-4.39h1.77Z"/><path class="cls-19" d="M442.16,325.33h3.68v4.81a11.33,11.33,0,0,1-1.68.41,12.36,12.36,0,0,1-1.62.11,4.1,4.1,0,0,1-3.21-1.23,5.14,5.14,0,0,1-1.11-3.55,4.67,4.67,0,0,1,1.29-3.5,4.87,4.87,0,0,1,3.56-1.26,6.93,6.93,0,0,1,2.76.57l-.66,1.58a4.62,4.62,0,0,0-2.11-.51,2.61,2.61,0,0,0-2,.86,3.28,3.28,0,0,0-.77,2.3,3.65,3.65,0,0,0,.62,2.31,2.14,2.14,0,0,0,1.8.8,6.81,6.81,0,0,0,1.25-.13V327h-1.76Z"/><path class="cls-19" d="M448.18,330.54v-9.28h2v9.28Z"/><path class="cls-19" d="M460.85,330.54h-2.5l-4-7h-.06c.08,1.24.12,2.12.12,2.65v4.37h-1.76v-9.28h2.49l4,6.95h0c-.06-1.21-.09-2.06-.09-2.56v-4.39h1.77Z"/><path class="cls-19" d="M468.66,330.54h-5.35v-9.28h5.35v1.61h-3.38v2h3.14v1.61h-3.14v2.39h3.38Z"/><path class="cls-19" d="M476.2,328a2.4,2.4,0,0,1-.9,2,4,4,0,0,1-2.52.72,5.81,5.81,0,0,1-2.63-.56v-1.82a11.8,11.8,0,0,0,1.59.59,4.94,4.94,0,0,0,1.19.17,1.65,1.65,0,0,0,1-.25.82.82,0,0,0,.35-.74.81.81,0,0,0-.15-.48,1.66,1.66,0,0,0-.45-.41,13.06,13.06,0,0,0-1.2-.63,5.42,5.42,0,0,1-1.28-.77,2.93,2.93,0,0,1-.68-.85,2.47,2.47,0,0,1-.25-1.15,2.4,2.4,0,0,1,.83-1.93,3.49,3.49,0,0,1,2.31-.71,5.67,5.67,0,0,1,1.38.17,10,10,0,0,1,1.38.49l-.64,1.53a8,8,0,0,0-1.23-.43,3.93,3.93,0,0,0-1-.12,1.3,1.3,0,0,0-.86.26.85.85,0,0,0-.3.68.84.84,0,0,0,.12.45,1.29,1.29,0,0,0,.39.38,11.08,11.08,0,0,0,1.24.65,4.87,4.87,0,0,1,1.79,1.25A2.41,2.41,0,0,1,476.2,328Z"/><path class="cls-19" d="M455,169.87l-.67-2.21h-3.39l-.67,2.21h-2.12l3.27-9.32h2.41l3.29,9.32ZM453.83,166c-.63-2-1-3.13-1.05-3.4a6.23,6.23,0,0,1-.17-.62q-.21.81-1.2,4Z"/><path class="cls-19" d="M463.68,160.59h2l-3.16,9.28h-2.14l-3.15-9.28h2l1.74,5.52q.15.49.3,1.14c.11.44.17.74.2.91a15.19,15.19,0,0,1,.47-2Z"/><path class="cls-19" d="M467,169.87v-9.28h2v9.28Z"/><path class="cls-19" d="M478.85,162.09a2,2,0,0,0-1.72.84,3.83,3.83,0,0,0-.61,2.32c0,2.07.77,3.11,2.33,3.11a7.3,7.3,0,0,0,2.37-.49v1.65a6.6,6.6,0,0,1-2.56.48,3.87,3.87,0,0,1-3.09-1.23,5.19,5.19,0,0,1-1.08-3.53,5.75,5.75,0,0,1,.53-2.53,3.78,3.78,0,0,1,1.51-1.67,4.47,4.47,0,0,1,2.32-.58,6.13,6.13,0,0,1,2.71.65l-.63,1.6a9.28,9.28,0,0,0-1.05-.43A2.92,2.92,0,0,0,478.85,162.09Z"/><path class="cls-19" d="M491.74,165.22a5.06,5.06,0,0,1-1.14,3.54,4.94,4.94,0,0,1-6.55,0,5.08,5.08,0,0,1-1.14-3.56,5,5,0,0,1,1.14-3.53,4.28,4.28,0,0,1,3.29-1.23,4.24,4.24,0,0,1,3.27,1.23A5.06,5.06,0,0,1,491.74,165.22Zm-6.77,0a3.92,3.92,0,0,0,.59,2.34,2.08,2.08,0,0,0,1.77.79c1.56,0,2.35-1,2.35-3.13s-.78-3.14-2.34-3.14a2.05,2.05,0,0,0-1.77.79A3.86,3.86,0,0,0,485,165.22Z"/><path class="cls-19" d="M502,169.87h-2.5l-4-7h-.06c.08,1.24.12,2.12.12,2.65v4.37H493.8v-9.28h2.48l4,6.95h0c-.06-1.21-.09-2.06-.09-2.56v-4.39H502Z"/><path class="cls-19" d="M508.08,169.87h-2v-7.64h-2.52v-1.64h7v1.64h-2.52Z"/><path class="cls-19" d="M514.12,166.31v3.56h-2v-9.28h2.71a4.64,4.64,0,0,1,2.8.69,2.76,2.76,0,0,1,.45,3.55,3.07,3.07,0,0,1-1.27,1q2.08,3.12,2.73,4h-2.19l-2.21-3.56Zm0-1.6h.64a2.45,2.45,0,0,0,1.37-.31,1.12,1.12,0,0,0,.45-1,1,1,0,0,0-.46-.94,2.69,2.69,0,0,0-1.4-.28h-.6Z"/><path class="cls-19" d="M529.29,165.22a5.06,5.06,0,0,1-1.14,3.54,4.94,4.94,0,0,1-6.55,0,5,5,0,0,1-1.15-3.56,4.94,4.94,0,0,1,1.15-3.53,5,5,0,0,1,6.56,0A5.11,5.11,0,0,1,529.29,165.22Zm-6.77,0a3.85,3.85,0,0,0,.59,2.34,2.07,2.07,0,0,0,1.76.79c1.57,0,2.36-1,2.36-3.13s-.78-3.14-2.35-3.14a2.08,2.08,0,0,0-1.77.79A3.86,3.86,0,0,0,522.52,165.22Z"/><path class="cls-19" d="M531.34,169.87v-9.28h2v7.65h3.76v1.63Z"/><path class="cls-19" d="M538.82,169.87v-9.28h2v7.65h3.77v1.63Z"/><path class="cls-19" d="M551.64,169.87h-5.35v-9.28h5.35v1.61h-3.38v2h3.14v1.61h-3.14v2.39h3.38Z"/><path class="cls-19" d="M555.67,166.31v3.56h-2v-9.28h2.71a4.64,4.64,0,0,1,2.8.69,2.76,2.76,0,0,1,.45,3.55,3.07,3.07,0,0,1-1.27,1q2.08,3.12,2.73,4h-2.19l-2.21-3.56Zm0-1.6h.63a2.49,2.49,0,0,0,1.38-.31,1.12,1.12,0,0,0,.45-1,1,1,0,0,0-.46-.94,2.69,2.69,0,0,0-1.4-.28h-.6Z"/><path class="cls-19" d="M394.26,16.54l-.67-2.21H390.2l-.67,2.21h-2.12l3.27-9.32h2.41l3.29,9.32Zm-1.14-3.86c-.63-2-1-3.14-1.05-3.4s-.14-.47-.17-.62q-.21.81-1.2,4Z"/><path class="cls-19" d="M403,7.26h2l-3.16,9.28h-2.14l-3.15-9.28h2l1.74,5.52q.15.48.3,1.14c.11.43.17.73.2.9a14.82,14.82,0,0,1,.47-2Z"/><path class="cls-19" d="M406.26,16.54V7.26h2v9.28Z"/><path class="cls-19" d="M421.75,7.26v6a3.4,3.4,0,0,1-.46,1.8A3,3,0,0,1,420,16.25a4.68,4.68,0,0,1-2.06.41,4,4,0,0,1-2.78-.91,3.25,3.25,0,0,1-1-2.51v-6h2v5.68a2.35,2.35,0,0,0,.44,1.57A1.75,1.75,0,0,0,418,15a1.73,1.73,0,0,0,1.4-.5,2.4,2.4,0,0,0,.44-1.58V7.26Z"/><path class="cls-19" d="M424.15,16.54V7.26h2v9.28Z"/><polygon class="cls-19" points="320.48 171.56 278.69 171.56 278.69 168.41 266.73 174.77 278.69 181.13 278.69 177.98 320.48 177.98 320.48 171.56"/><polygon class="cls-19" points="332.37 159.41 320.41 153.05 320.41 156.19 278.69 156.19 278.69 153.05 266.73 159.41 278.69 165.76 278.69 162.62 320.41 162.62 320.41 165.76 332.37 159.41"/><path id="path7291" class="cls-20" d="M52.9,29.32,47,41.2l10.39,12L38.11,55.43,68,55.74,52.9,29.32Z"/><path id="path7293" class="cls-20" d="M51.74,24.63,38.19,36l-10,17,8.55-.86Z"/><path id="text7295" class="cls-20" d="M79.33,36.63,72.85,52.51h2.2l1.69-4.45H83.9l1.79,4.45h2.19l-6.5-15.88Zm1,1.92h0a7.25,7.25,0,0,0,.26,1.07l2.65,6.77H77.4L80,39.62a5.23,5.23,0,0,0,.28-1.07Zm50.09,2.35a5.27,5.27,0,0,0-4,1.68,6,6,0,0,0-1.59,4.3,6.14,6.14,0,0,0,1.46,4.36,5.25,5.25,0,0,0,4,1.54,7.27,7.27,0,0,0,4.2-1.09V50a6.18,6.18,0,0,1-3.74,1.26,3.85,3.85,0,0,1-2.85-1,4.06,4.06,0,0,1-1.09-2.93h8.52v-.95a5.75,5.75,0,0,0-1.3-4,4.66,4.66,0,0,0-3.66-1.44Zm-8.63.07a3,3,0,0,0-1.9.67,4,4,0,0,0-1.26,1.87h0V41.17h-1.93V52.51h1.93V46.73a4.87,4.87,0,0,1,.83-3,2.53,2.53,0,0,1,2.07-1.1,2.4,2.4,0,0,1,1.46.37V41.12A3.4,3.4,0,0,0,121.76,41Zm-31.92.2v1.55h6.47L89.17,52v.56h9.91V51H92l7.14-9.27v-.52Zm12.22,0V48c0,3.22,1.43,4.83,4.31,4.83a4,4,0,0,0,3.72-2.06h0v1.79h1.93V41.17h-1.93V47.7a3.61,3.61,0,0,1-.92,2.57,3,3,0,0,1-2.32,1q-2.93,0-2.92-3.59V41.17Zm28.29,1.26a2.81,2.81,0,0,1,2.21.88,3.55,3.55,0,0,1,.81,2.44h-6.52a4.12,4.12,0,0,1,1.18-2.4A3.24,3.24,0,0,1,130.35,42.43Z"/><rect class="cls-20" x="13.72" y="63.69" width="148.13" height="45.33"/><path class="cls-15" d="M89.75,90.87V80.16H92V90.87Z"/><path class="cls-15" d="M101.32,90.87l-.78-2.55H96.62l-.78,2.55H93.39l3.79-10.75H100l3.8,10.75ZM100,86.42c-.72-2.31-1.13-3.62-1.22-3.92s-.16-.54-.2-.72c-.16.63-.62,2.17-1.39,4.64Z"/><path class="cls-15" d="M109.68,90.87l-2.59-8.4H107c.1,1.71.14,2.85.14,3.42v5h-2V80.16h3.1l2.54,8.19h0l2.7-8.19h3.1V90.87h-2.13V85.8c0-.24,0-.51,0-.82s0-1.15.1-2.5h-.06l-2.77,8.39Z"/><rect class="cls-20" x="13.72" y="116.51" width="148.13" height="45.33"/><path class="cls-15" d="M91.08,133h2.3l-3.65,10.71H87.24L83.6,133h2.3l2,6.37c.11.38.23.82.35,1.32s.19.85.22,1a19.43,19.43,0,0,1,.56-2.36Z"/><path class="cls-15" d="M104.27,143.69h-2.9l-4.67-8.1h-.07c.1,1.43.14,2.45.14,3.06v5h-2V133h2.87l4.67,8h0c-.07-1.39-.11-2.38-.11-2.95V133h2Z"/><path class="cls-15" d="M113.17,143.69H107V133h6.19v1.86h-3.92v2.35h3.64v1.86h-3.64v2.76h3.92Z"/><path class="cls-15" d="M119.55,143.69h-2.28v-8.82h-2.91V133h8.11v1.89h-2.92Z"/><rect class="cls-20" x="13.72" y="222.15" width="148.13" height="45.33"/><path class="cls-15" d="M71.64,249.32l-.77-2.55H67l-.78,2.55H63.71l3.8-10.75h2.78l3.81,10.75Zm-1.32-4.45c-.72-2.31-1.12-3.62-1.22-3.92s-.15-.54-.19-.72c-.16.63-.62,2.17-1.39,4.64Z"/><path class="cls-15" d="M81,249.32H74.5V248l3.81-5.16H74.73v-1.71h6.13v1.45l-3.7,5H81Z"/><path class="cls-15" d="M88.44,249.32l-.3-1H88a2.34,2.34,0,0,1-1,.89,3.59,3.59,0,0,1-1.5.31,2.9,2.9,0,0,1-2.19-.77,3.12,3.12,0,0,1-.73-2.23v-5.34h2.24v4.79a2.31,2.31,0,0,0,.31,1.33,1.18,1.18,0,0,0,1,.44,1.51,1.51,0,0,0,1.36-.63,3.84,3.84,0,0,0,.42-2.07v-3.86h2.24v8.19Z"/><path class="cls-15" d="M97.1,241a3.22,3.22,0,0,1,.76.07l-.17,2.09a2.52,2.52,0,0,0-.66-.07,2.35,2.35,0,0,0-1.67.55,2,2,0,0,0-.6,1.53v4.17H92.52v-8.19h1.69l.33,1.38h.11a3.08,3.08,0,0,1,1-1.11A2.53,2.53,0,0,1,97.1,241Z"/><path class="cls-15" d="M103.07,249.47a4.27,4.27,0,0,1-3.1-1.09,4.15,4.15,0,0,1-1.12-3.09,4.54,4.54,0,0,1,1-3.19,3.66,3.66,0,0,1,2.85-1.12,3.61,3.61,0,0,1,2.71,1,3.72,3.72,0,0,1,1,2.73v1.08h-5.3a2.19,2.19,0,0,0,.57,1.49,2,2,0,0,0,1.49.54,6.32,6.32,0,0,0,1.4-.16,6.56,6.56,0,0,0,1.38-.49v1.73a5.22,5.22,0,0,1-1.26.44A8.31,8.31,0,0,1,103.07,249.47Zm-.31-6.9a1.43,1.43,0,0,0-1.12.45,2,2,0,0,0-.46,1.28h3.14a1.86,1.86,0,0,0-.43-1.28A1.48,1.48,0,0,0,102.76,242.57Z"/><path class="cls-15" d="M121.25,243.86a5.27,5.27,0,0,1-1.51,4.06,6.21,6.21,0,0,1-4.36,1.4h-3V238.61h3.37A5.72,5.72,0,0,1,119.8,240,5.07,5.07,0,0,1,121.25,243.86Zm-2.36.06q0-3.45-3.06-3.45h-1.22v7h1Q118.89,247.45,118.89,243.92Z"/><path class="cls-15" d="M133,249.32h-2.9l-4.68-8.1h-.06c.09,1.43.14,2.45.14,3.06v5h-2V238.61h2.87l4.67,8h0c-.07-1.39-.11-2.37-.11-2.95v-5.07H133Z"/><path class="cls-15" d="M142.06,246.35a2.74,2.74,0,0,1-1,2.28,4.55,4.55,0,0,1-2.92.84,6.86,6.86,0,0,1-3-.65v-2.11a12.67,12.67,0,0,0,1.84.69,5.49,5.49,0,0,0,1.38.19,2,2,0,0,0,1.15-.28,1,1,0,0,0,.4-.85.91.91,0,0,0-.18-.56,1.8,1.8,0,0,0-.51-.47,11.81,11.81,0,0,0-1.4-.73,6.65,6.65,0,0,1-1.48-.89,3.34,3.34,0,0,1-.78-1,3.07,3.07,0,0,1,.67-3.56,4.05,4.05,0,0,1,2.67-.81,6.43,6.43,0,0,1,1.6.2,11.59,11.59,0,0,1,1.59.55l-.73,1.77a11.07,11.07,0,0,0-1.42-.49,4.82,4.82,0,0,0-1.11-.14,1.46,1.46,0,0,0-1,.3,1,1,0,0,0-.35.78,1,1,0,0,0,.14.53,1.44,1.44,0,0,0,.45.43,12.78,12.78,0,0,0,1.44.75,5.82,5.82,0,0,1,2.07,1.44A2.81,2.81,0,0,1,142.06,246.35Z"/><rect class="cls-20" x="13.72" y="274.96" width="148.13" height="45.33"/><path class="cls-15" d="M74,298.23a2.79,2.79,0,0,1-1,2.29,4.55,4.55,0,0,1-2.92.83,6.83,6.83,0,0,1-3-.64V298.6a12.46,12.46,0,0,0,1.84.68,5.54,5.54,0,0,0,1.38.2,2,2,0,0,0,1.15-.29,1,1,0,0,0,.4-.84,1,1,0,0,0-.18-.57,2,2,0,0,0-.52-.47,12.62,12.62,0,0,0-1.39-.72,6.8,6.8,0,0,1-1.48-.89,3.11,3.11,0,0,1-.78-1,3.05,3.05,0,0,1,.67-3.55,4,4,0,0,1,2.67-.81,6.43,6.43,0,0,1,1.6.19,11.69,11.69,0,0,1,1.59.56l-.73,1.77a9.76,9.76,0,0,0-1.43-.49,4.2,4.2,0,0,0-1.1-.14,1.49,1.49,0,0,0-1,.3,1.05,1.05,0,0,0-.2,1.3,1.53,1.53,0,0,0,.44.44,14.38,14.38,0,0,0,1.45.75,5.64,5.64,0,0,1,2.06,1.44A2.75,2.75,0,0,1,74,298.23Z"/><path class="cls-15" d="M79.06,301.35c-2.56,0-3.84-1.39-3.84-4.19a4.45,4.45,0,0,1,1-3.19,3.89,3.89,0,0,1,3-1.1,5.76,5.76,0,0,1,2.56.55l-.66,1.73c-.36-.14-.68-.26-1-.35a3.18,3.18,0,0,0-.91-.13c-1.17,0-1.75.82-1.75,2.47s.58,2.41,1.75,2.41a3.87,3.87,0,0,0,1.2-.18,4.26,4.26,0,0,0,1.1-.53v1.91a3.39,3.39,0,0,1-1.1.47A6.05,6.05,0,0,1,79.06,301.35Z"/><path class="cls-15" d="M88.69,301.21l-.44-1.11h-.06a3.22,3.22,0,0,1-1.16,1,3.83,3.83,0,0,1-1.56.27,2.55,2.55,0,0,1-1.87-.67,2.6,2.6,0,0,1-.68-1.92,2.15,2.15,0,0,1,.92-1.92,5.4,5.4,0,0,1,2.76-.69l1.42,0v-.36c0-.83-.42-1.24-1.28-1.24a5.77,5.77,0,0,0-2.31.59l-.74-1.51a6.7,6.7,0,0,1,3.14-.74,3.92,3.92,0,0,1,2.54.72,2.65,2.65,0,0,1,.88,2.18v5.46Zm-.67-3.8-.86,0a2.73,2.73,0,0,0-1.46.36,1.09,1.09,0,0,0-.48,1c0,.63.37.94,1.09.94a1.73,1.73,0,0,0,1.25-.45,1.54,1.54,0,0,0,.46-1.18Z"/><path class="cls-15" d="M94.8,301.21H92.56v-11.4H94.8Z"/><path class="cls-15" d="M100.87,301.35a4.25,4.25,0,0,1-3.1-1.09,4.12,4.12,0,0,1-1.12-3.09,4.53,4.53,0,0,1,1-3.18,4.22,4.22,0,0,1,5.57-.14,3.79,3.79,0,0,1,1,2.74v1.08h-5.3a2.14,2.14,0,0,0,.56,1.49,2,2,0,0,0,1.49.53,6.33,6.33,0,0,0,1.4-.15,7.18,7.18,0,0,0,1.38-.49v1.73a5.28,5.28,0,0,1-1.25.43A7.71,7.71,0,0,1,100.87,301.35Zm-.31-6.89a1.43,1.43,0,0,0-1.12.45,2.06,2.06,0,0,0-.46,1.27h3.14a1.84,1.84,0,0,0-.43-1.27A1.48,1.48,0,0,0,100.56,294.46Z"/><path class="cls-15" d="M105.32,298.1v-1.83h4v1.83Z"/><path class="cls-15" d="M116.63,298.78a2.24,2.24,0,0,1-.88,1.92,4.36,4.36,0,0,1-2.63.65,8.33,8.33,0,0,1-1.53-.12,5.57,5.57,0,0,1-1.18-.35V299a7.27,7.27,0,0,0,1.41.49,5.33,5.33,0,0,0,1.38.2c.81,0,1.22-.23,1.22-.7a.58.58,0,0,0-.17-.43,2.22,2.22,0,0,0-.55-.37c-.27-.14-.62-.3-1.06-.49a6.69,6.69,0,0,1-1.4-.73,2,2,0,0,1-.64-.78,2.43,2.43,0,0,1-.21-1.07,2,2,0,0,1,.85-1.69,4.15,4.15,0,0,1,2.41-.59,6.86,6.86,0,0,1,2.89.64l-.68,1.61c-.41-.17-.79-.32-1.15-.43a3.72,3.72,0,0,0-1.1-.17q-1,0-1,.54a.64.64,0,0,0,.32.52,10,10,0,0,0,1.4.65,6.88,6.88,0,0,1,1.41.72,2.33,2.33,0,0,1,.67.78A2.4,2.4,0,0,1,116.63,298.78Z"/><path class="cls-15" d="M122.1,301.35a4.22,4.22,0,0,1-3.1-1.09,4.08,4.08,0,0,1-1.12-3.09,4.52,4.52,0,0,1,1-3.18,4.22,4.22,0,0,1,5.57-.14,3.74,3.74,0,0,1,1,2.74v1.08h-5.3a2.1,2.1,0,0,0,.57,1.49,2,2,0,0,0,1.48.53,6.42,6.42,0,0,0,1.41-.15,7.18,7.18,0,0,0,1.38-.49v1.73a5.2,5.2,0,0,1-1.26.43A7.67,7.67,0,0,1,122.1,301.35Zm-.32-6.89a1.44,1.44,0,0,0-1.12.45,2.06,2.06,0,0,0-.46,1.27h3.15a1.84,1.84,0,0,0-.44-1.27A1.46,1.46,0,0,0,121.78,294.46Z"/><path class="cls-15" d="M130.74,299.58a4.94,4.94,0,0,0,1.41-.26V301a5.06,5.06,0,0,1-2.06.37,2.53,2.53,0,0,1-2-.67,2.93,2.93,0,0,1-.61-2V294.7h-1.08v-.95l1.24-.74.64-1.73h1.44V293h2.3v1.68h-2.3v3.95a.87.87,0,0,0,.27.7A1.06,1.06,0,0,0,130.74,299.58Z"/><path class="cls-15" d="M139.54,298.78a2.24,2.24,0,0,1-.88,1.92,4.33,4.33,0,0,1-2.62.65,8.33,8.33,0,0,1-1.53-.12,5.66,5.66,0,0,1-1.19-.35V299a7.52,7.52,0,0,0,1.41.49,5.33,5.33,0,0,0,1.38.2c.81,0,1.22-.23,1.22-.7a.57.57,0,0,0-.16-.43,2.55,2.55,0,0,0-.56-.37c-.26-.14-.62-.3-1.06-.49a6.57,6.57,0,0,1-1.39-.73,2.08,2.08,0,0,1-.65-.78,2.59,2.59,0,0,1-.2-1.07,1.94,1.94,0,0,1,.85-1.69,4.13,4.13,0,0,1,2.41-.59,6.86,6.86,0,0,1,2.89.64l-.68,1.61c-.41-.17-.8-.32-1.16-.43a3.65,3.65,0,0,0-1.09-.17q-1,0-1,.54a.62.62,0,0,0,.32.52,9.45,9.45,0,0,0,1.4.65,6.88,6.88,0,0,1,1.41.72,2.19,2.19,0,0,1,.66.78A2.4,2.4,0,0,1,139.54,298.78Z"/><rect class="cls-20" x="13.72" y="169.33" width="148.13" height="45.33"/><path class="cls-15" d="M74.37,183.71v3.83H72.24v-10h2.93a5,5,0,0,1,3,.74,2.61,2.61,0,0,1,1,2.25,2.68,2.68,0,0,1-.48,1.57,3.28,3.28,0,0,1-1.38,1.08c1.51,2.24,2.49,3.7,3,4.35H77.9l-2.4-3.83Zm0-1.73h.69a2.67,2.67,0,0,0,1.49-.33A1.2,1.2,0,0,0,77,180.6a1.11,1.11,0,0,0-.49-1,3,3,0,0,0-1.52-.3h-.65Z"/><path class="cls-15" d="M84.83,187.68a4,4,0,0,1-2.9-1,3.87,3.87,0,0,1-1-2.89,4.2,4.2,0,0,1,1-3,3.42,3.42,0,0,1,2.67-1.05,3.36,3.36,0,0,1,2.53.92,3.49,3.49,0,0,1,.91,2.55v1H83a2,2,0,0,0,.53,1.39,1.87,1.87,0,0,0,1.38.5,5.47,5.47,0,0,0,1.31-.15,5.89,5.89,0,0,0,1.29-.46v1.62a4.91,4.91,0,0,1-1.17.41A8.12,8.12,0,0,1,84.83,187.68Zm-.3-6.44a1.33,1.33,0,0,0-1,.42,1.91,1.91,0,0,0-.43,1.19H86a1.69,1.69,0,0,0-.4-1.19A1.37,1.37,0,0,0,84.53,181.24Z"/><path class="cls-15" d="M95,185.27a2.08,2.08,0,0,1-.82,1.79,4.06,4.06,0,0,1-2.45.62,7.27,7.27,0,0,1-1.43-.12,4.85,4.85,0,0,1-1.1-.33v-1.72a6.91,6.91,0,0,0,1.31.46,5.52,5.52,0,0,0,1.29.18c.76,0,1.13-.21,1.13-.65a.54.54,0,0,0-.15-.4,1.91,1.91,0,0,0-.52-.35c-.24-.13-.57-.28-1-.46a6,6,0,0,1-1.3-.68,2,2,0,0,1-.6-.72,2.32,2.32,0,0,1-.19-1,1.84,1.84,0,0,1,.79-1.58,3.9,3.9,0,0,1,2.25-.55,6.43,6.43,0,0,1,2.7.6l-.63,1.5c-.39-.16-.75-.3-1.08-.4a3.24,3.24,0,0,0-1-.16c-.62,0-.93.17-.93.5a.57.57,0,0,0,.3.48,7.7,7.7,0,0,0,1.31.61,5.9,5.9,0,0,1,1.31.68,2,2,0,0,1,.62.72A2.28,2.28,0,0,1,95,185.27Z"/><path class="cls-15" d="M103.61,183.71a4.11,4.11,0,0,1-1,2.92,3.61,3.61,0,0,1-2.76,1.05,3.85,3.85,0,0,1-1.94-.48,3.18,3.18,0,0,1-1.3-1.39,4.64,4.64,0,0,1-.45-2.1,4.08,4.08,0,0,1,1-2.92,3.61,3.61,0,0,1,2.76-1,3.85,3.85,0,0,1,1.94.47,3.16,3.16,0,0,1,1.3,1.38A4.58,4.58,0,0,1,103.61,183.71Zm-5.3,0a3.19,3.19,0,0,0,.37,1.71,1.57,1.57,0,0,0,2.43,0,3.31,3.31,0,0,0,.36-1.72,3.15,3.15,0,0,0-.37-1.71,1.59,1.59,0,0,0-2.42,0A3.15,3.15,0,0,0,98.31,183.71Z"/><path class="cls-15" d="M110.78,187.54l-.28-1h-.11a2.29,2.29,0,0,1-1,.83,3.3,3.3,0,0,1-1.4.29,2.68,2.68,0,0,1-2-.72,2.9,2.9,0,0,1-.69-2.08v-5h2.09v4.46a2.1,2.1,0,0,0,.3,1.24,1.07,1.07,0,0,0,.94.42,1.41,1.41,0,0,0,1.27-.59,3.61,3.61,0,0,0,.39-1.94V179.9h2.09v7.64Z"/><path class="cls-15" d="M118.86,179.76a3.55,3.55,0,0,1,.71.06l-.16,2a2.72,2.72,0,0,0-.62-.07,2.18,2.18,0,0,0-1.56.52,1.85,1.85,0,0,0-.56,1.43v3.89h-2.09V179.9h1.58l.31,1.28h.11a2.79,2.79,0,0,1,1-1A2.37,2.37,0,0,1,118.86,179.76Z"/><path class="cls-15" d="M124.07,187.68c-2.38,0-3.58-1.31-3.58-3.92a4.18,4.18,0,0,1,1-3,3.68,3.68,0,0,1,2.79-1,5.44,5.44,0,0,1,2.39.51l-.62,1.62c-.33-.13-.64-.24-.92-.33a3.12,3.12,0,0,0-.85-.12c-1.09,0-1.63.77-1.63,2.31s.54,2.24,1.63,2.24a3.65,3.65,0,0,0,1.12-.16,4.63,4.63,0,0,0,1-.5v1.78a3.71,3.71,0,0,1-1,.45A5.9,5.9,0,0,1,124.07,187.68Z"/><path class="cls-15" d="M131.66,187.68a4,4,0,0,1-2.9-1,3.87,3.87,0,0,1-1-2.89,4.2,4.2,0,0,1,1-3,3.4,3.4,0,0,1,2.67-1.05,3.36,3.36,0,0,1,2.53.92,3.49,3.49,0,0,1,.91,2.55v1h-4.95a2,2,0,0,0,.53,1.39,1.87,1.87,0,0,0,1.38.5,5.53,5.53,0,0,0,1.31-.15,6.29,6.29,0,0,0,1.29-.46v1.62a4.91,4.91,0,0,1-1.17.41A8.12,8.12,0,0,1,131.66,187.68Zm-.3-6.44a1.33,1.33,0,0,0-1,.42,1.91,1.91,0,0,0-.43,1.19h2.93a1.74,1.74,0,0,0-.4-1.19A1.37,1.37,0,0,0,131.36,181.24Z"/><path class="cls-15" d="M83.07,198.73h4v5.18a10.64,10.64,0,0,1-1.82.44,11.18,11.18,0,0,1-1.75.13A4.46,4.46,0,0,1,80,203.15a5.57,5.57,0,0,1-1.19-3.82,5,5,0,0,1,1.39-3.77,5.25,5.25,0,0,1,3.85-1.36,7.51,7.51,0,0,1,3,.62l-.71,1.69a5.09,5.09,0,0,0-2.28-.54,2.8,2.8,0,0,0-2.21.92,3.54,3.54,0,0,0-.83,2.48,4,4,0,0,0,.67,2.49,2.3,2.3,0,0,0,1.94.85,7,7,0,0,0,1.35-.13v-2.09h-1.9Z"/><path class="cls-15" d="M93.56,196.56a3.44,3.44,0,0,1,.7.06l-.16,1.95a2.63,2.63,0,0,0-.61-.07,2.18,2.18,0,0,0-1.56.52,1.82,1.82,0,0,0-.56,1.43v3.89h-2.1V196.7h1.59l.31,1.28h.1a3,3,0,0,1,1-1A2.43,2.43,0,0,1,93.56,196.56Z"/><path class="cls-15" d="M102.63,200.51a4.12,4.12,0,0,1-1,2.92,3.6,3.6,0,0,1-2.75,1,3.86,3.86,0,0,1-2-.48,3.24,3.24,0,0,1-1.3-1.39,4.64,4.64,0,0,1-.45-2.1,4.12,4.12,0,0,1,1-2.92,3.61,3.61,0,0,1,2.76-1,3.91,3.91,0,0,1,1.95.47,3.19,3.19,0,0,1,1.29,1.38A4.46,4.46,0,0,1,102.63,200.51Zm-5.31,0a3.19,3.19,0,0,0,.38,1.71,1.32,1.32,0,0,0,1.21.58,1.34,1.34,0,0,0,1.21-.57,3.3,3.3,0,0,0,.37-1.72,3.14,3.14,0,0,0-.38-1.71,1.59,1.59,0,0,0-2.42,0A3.24,3.24,0,0,0,97.32,200.51Z"/><path class="cls-15" d="M109.79,204.34l-.28-1h-.11a2.23,2.23,0,0,1-1,.83,3.3,3.3,0,0,1-1.4.29,2.7,2.7,0,0,1-2-.72,2.9,2.9,0,0,1-.69-2.08v-5h2.1v4.46a2.1,2.1,0,0,0,.29,1.24,1.07,1.07,0,0,0,.94.42,1.41,1.41,0,0,0,1.27-.59,3.61,3.61,0,0,0,.39-1.94V196.7h2.09v7.64Z"/><path class="cls-15" d="M117.8,204.48a2.57,2.57,0,0,1-2.12-1h-.11c.08.64.11,1,.11,1.11v3.09h-2.09v-11h1.7l.3,1h.09a2.42,2.42,0,0,1,2.18-1.13,2.5,2.5,0,0,1,2.13,1,4.86,4.86,0,0,1,.76,2.91,5.7,5.7,0,0,1-.36,2.12,3.05,3.05,0,0,1-1,1.38A2.7,2.7,0,0,1,117.8,204.48Zm-.61-6.26a1.33,1.33,0,0,0-1.14.48,2.8,2.8,0,0,0-.37,1.57v.22a3.29,3.29,0,0,0,.37,1.77,1.31,1.31,0,0,0,1.16.53q1.41,0,1.41-2.31a3.28,3.28,0,0,0-.35-1.69A1.17,1.17,0,0,0,117.19,198.22Z"/><path class="cls-15" d="M127.83,202.07a2.08,2.08,0,0,1-.82,1.79,4,4,0,0,1-2.45.62,7.34,7.34,0,0,1-1.43-.12A4.85,4.85,0,0,1,122,204v-1.72a7.44,7.44,0,0,0,1.31.46,5.52,5.52,0,0,0,1.29.18c.76,0,1.14-.22,1.14-.65a.54.54,0,0,0-.15-.4,2.09,2.09,0,0,0-.52-.35c-.25-.13-.58-.28-1-.46a6,6,0,0,1-1.3-.68,2,2,0,0,1-.61-.72,2.48,2.48,0,0,1-.18-1,1.81,1.81,0,0,1,.79-1.58,3.9,3.9,0,0,1,2.25-.55,6.38,6.38,0,0,1,2.69.6l-.63,1.5a10.43,10.43,0,0,0-1.08-.4,3.2,3.2,0,0,0-1-.16c-.62,0-.92.17-.92.5a.55.55,0,0,0,.29.48,8.12,8.12,0,0,0,1.31.61,6,6,0,0,1,1.32.68,2.1,2.1,0,0,1,.62.72A2.29,2.29,0,0,1,127.83,202.07Z"/><path class="cls-15" d="M40.7,192.12c-.06,0-.06,0-.11-.05l-8.38-4.85a.29.29,0,0,1-.11-.22.32.32,0,0,1,.11-.23L40.53,182a.2.2,0,0,1,.23,0l8.37,4.85a.27.27,0,0,1,.12.22.29.29,0,0,1-.12.23l-8.31,4.79c0,.05-.06.05-.12.05"/><path class="cls-15" d="M39.51,203.91c-.06,0-.12,0-.12,0L31,199a.31.31,0,0,1-.12-.23V189.1a.27.27,0,0,1,.12-.22.17.17,0,0,1,.23,0l8.37,4.84a.27.27,0,0,1,.11.23v9.68a.3.3,0,0,1-.11.23s-.06,0-.11,0"/><path class="cls-15" d="M41.9,203.91c-.06,0-.12,0-.12,0a.34.34,0,0,1-.11-.23v-9.57a.34.34,0,0,1,.11-.23L50.16,189a.17.17,0,0,1,.23,0,.32.32,0,0,1,.11.23v9.62a.3.3,0,0,1-.11.23L42,203.91H41.9"/><path class="cls-15" d="M31.93,205a1,1,0,0,1-.4-.12l-3.87-2.28a2.31,2.31,0,0,1-1.14-1.93V186.31a2.25,2.25,0,0,1,1.14-1.93l3.87-2.28a.83.83,0,1,1,.85,1.42l-3.87,2.28a.78.78,0,0,0-.28.51v14.36a.78.78,0,0,0,.28.51l3.87,2.28a.83.83,0,0,1,.29,1.14A1.08,1.08,0,0,1,31.93,205Z"/><path class="cls-15" d="M49.47,182a1,1,0,0,1,.4.12l3.88,2.28a2.34,2.34,0,0,1,1.14,1.93v14.36a2.27,2.27,0,0,1-1.14,1.93l-3.88,2.28a.83.83,0,0,1-1.14-.28.84.84,0,0,1,.29-1.14l3.87-2.28a.75.75,0,0,0,.29-.51V186.31a.75.75,0,0,0-.29-.51L49,183.52a.84.84,0,0,1-.29-1.14A1,1,0,0,1,49.47,182Z"/><g id="paths"><g id="Microsoft_account" data-name="Microsoft account"><path class="cls-15" d="M40.68,75.35V98.91h4.06V88h4.61l3.17,4.44L55.69,88H60.3V98.91h3.94V75.35ZM52.52,86.52a4.32,4.32,0,1,1,4.36-4.32A4.34,4.34,0,0,1,52.52,86.52Z"/></g></g><g id="paths-2" data-name="paths"><g id="Microsoft_account-2" data-name="Microsoft account"><path class="cls-15" d="M24.05,84.5V98.91h2.49V92.23h2.82L31.3,95l1.94-2.72h2.82v6.68h2.4V84.5Zm7.25,6.83A2.64,2.64,0,1,1,34,88.69,2.66,2.66,0,0,1,31.3,91.33Z"/></g></g><path class="cls-15" d="M53.41,246.36a12.54,12.54,0,0,0-2.74-7.83h0l-.1-.1c0-.05,0-.1-.1-.15l-.82-.87h0a12.37,12.37,0,0,0-8.95-3.76h-.1a12.59,12.59,0,0,0-8.85,3.71h0l-.86.92c-.05.05-.05.1-.1.15l-.11,0h0A12.94,12.94,0,0,0,28,246.36a12.52,12.52,0,0,0,2.74,7.83h0l.11.11c.05,0,.05.1.1.15l.81.86h0A12.38,12.38,0,0,0,40.6,259h.1a12.61,12.61,0,0,0,8.95-3.71h0l.82-.91c.05-.05.05-.1.1-.16l.1-.1h0A12.18,12.18,0,0,0,53.41,246.36Zm-5.13-8.29c-.05,0-.1.05-.15.05a.8.8,0,0,1-.26.11c-.2.1-.46.15-.71.25,0,0-.1.05-.15.05-.31.1-.56.15-.87.26h0s-.15.05-.2.05a11.41,11.41,0,0,0-1.68-3.11A10.82,10.82,0,0,1,48.28,238.07Zm-7.68-2.95h0c1.42,0,2.85,1.48,3.86,4a21.35,21.35,0,0,1-3.76.31,23,23,0,0,1-3.86-.31C37.8,236.65,39.23,235.18,40.6,235.12Zm-3.61.67a12.26,12.26,0,0,0-1.63,3.05h-.1c-.3-.11-.61-.16-.86-.26,0,0-.11-.05-.16-.05l-.66-.3a2.72,2.72,0,0,1-.25-.11c0-.05-.1-.05-.21-.1A11.84,11.84,0,0,1,37,235.79Zm-3.87,18.86c.06,0,.11-.05.16-.05s.15,0,.25-.1.46-.15.71-.26c0,0,.11-.05.16-.05.3-.1.56-.15.86-.25h.1A13.22,13.22,0,0,0,37,257,11.63,11.63,0,0,1,33.12,254.65Zm7.53,3h0c-1.42-.05-2.85-1.47-3.81-4a24.15,24.15,0,0,1,3.86-.3,22.91,22.91,0,0,1,3.76.3C43.5,256.13,42,257.6,40.65,257.6Zm3.61-.61a11.2,11.2,0,0,0,1.68-3.1c.05,0,.15.05.2.05h0c.31.1.61.15.87.25.05,0,.1.05.15.05.25.11.46.16.71.26s.15.05.26.1.1.05.2.1A11.92,11.92,0,0,1,44.26,257Zm5.14-3.51h0a1.17,1.17,0,0,1-.41-.1l-.51-.2s-.1-.05-.15-.05a18.91,18.91,0,0,0-1.93-.61c.15-.61.3-1.22.4-1.84H45.28a11.5,11.5,0,0,1-.36,1.53,22.8,22.8,0,0,0-4.22-.36,23.9,23.9,0,0,0-4.32.41c-.15-.51-.25-1-.36-1.58H34.5c.1.67.25,1.28.4,1.89a16.08,16.08,0,0,0-1.78.56c0,.05-.15.05-.2.1s-.35.15-.51.2a.93.93,0,0,0-.35.1h0a11.27,11.27,0,0,1-2.55-6.46h1.28V245.6H29.51a11.13,11.13,0,0,1,2.5-6.36l.05-.05c.1.05.25.1.35.16s.36.15.56.25.1.05.15.05a15.44,15.44,0,0,0,1.84.56,16.78,16.78,0,0,0-.36,1.68h1.52c.11-.46.21-1,.31-1.38a23.44,23.44,0,0,0,4.32.41,28.14,28.14,0,0,0,4.22-.35c.1.4.21.86.31,1.37H46.8c-.1-.56-.2-1.12-.35-1.68a11.8,11.8,0,0,0,1.88-.61c.05,0,.15-.05.2-.05.21,0,.36-.15.56-.2l.36-.16h0A11.46,11.46,0,0,1,52,245.65H50.47v1.48H52A12.14,12.14,0,0,1,49.4,253.48Z"/><path class="cls-15" d="M37.5,246.26a4.21,4.21,0,0,1-.26,1.53,3.58,3.58,0,0,1-.66,1.06,3.4,3.4,0,0,1-1.07.61,5.67,5.67,0,0,1-1.52.21H32.41a.71.71,0,0,1-.3-.1c-.1,0,0-.21,0-.36v-5.75a.35.35,0,0,1,.4-.4h1.68a4.24,4.24,0,0,1,1.48.2,2.67,2.67,0,0,1,1.67,1.63A5.12,5.12,0,0,1,37.5,246.26Zm-1.37.05a4.48,4.48,0,0,0-.11-.86,1.82,1.82,0,0,0-.35-.71,1.4,1.4,0,0,0-.61-.46,2.74,2.74,0,0,0-1-.15h-.66v4.47h.71a2.53,2.53,0,0,0,.92-.15,2,2,0,0,0,.61-.41,1.58,1.58,0,0,0,.35-.71A3.35,3.35,0,0,0,36.13,246.31Z"/><path class="cls-15" d="M44,249.16c0,.1,0,.15,0,.2s-.05.1-.11.16-.1,0-.15.1-.1,0-.2,0h-.56a.7.7,0,0,1-.31,0c-.1,0-.15-.05-.25-.16a1.09,1.09,0,0,1-.2-.25,2.57,2.57,0,0,1-.21-.41l-1.62-3.05a4.32,4.32,0,0,1-.31-.61,2.9,2.9,0,0,1-.25-.61h0a3.12,3.12,0,0,0,.05.71v4.22c0,.06,0,.06-.05.11s0,.05-.11.05-.1,0-.2,0h-.61c-.1,0-.15,0-.2,0s-.05-.05-.1-.05v-6a.46.46,0,0,1,.15-.36.42.42,0,0,1,.35-.1h.72c.15,0,.25,0,.3,0s.15.05.26.1.15.1.2.2a2.31,2.31,0,0,0,.2.36L42,246.21a3.09,3.09,0,0,0,.21.41,3,3,0,0,0,.2.4c0,.16.15.26.2.41a1.77,1.77,0,0,0,.21.41h0v-4.58s0,0,0-.1,0,0,.1,0,.1-.05.2-.05h.61c.11,0,.16,0,.21.05s.05,0,.1,0v6Z"/><path class="cls-15" d="M49.35,247.68a1.67,1.67,0,0,1-.21.92,3,3,0,0,1-.51.66,2.59,2.59,0,0,1-.76.41,3,3,0,0,1-1,.15,2.28,2.28,0,0,1-.61,0l-.51-.15a1.54,1.54,0,0,1-.36-.16.69.69,0,0,1-.2-.15c0-.05,0-.1-.1-.2s-.06-.2-.06-.36v-.25c0-.05,0-.15.06-.15s0-.06,0-.11a.17.17,0,0,1,.1-.05s.1.05.2.1.21.11.36.21a4.54,4.54,0,0,0,.51.2,2.54,2.54,0,0,0,.66.1,1.38,1.38,0,0,0,.45-.05.8.8,0,0,0,.31-.15.5.5,0,0,0,.2-.25A.81.81,0,0,0,48,248a1.29,1.29,0,0,0-.1-.41l-.3-.3-.46-.26a2.4,2.4,0,0,1-.51-.25c-.15-.1-.35-.15-.51-.25a3.55,3.55,0,0,1-.45-.36,1,1,0,0,1-.31-.51,1.53,1.53,0,0,1-.1-.71,1.92,1.92,0,0,1,.15-.81,1.45,1.45,0,0,1,.46-.62,2.35,2.35,0,0,1,.71-.35,2.39,2.39,0,0,1,.86-.1,1.41,1.41,0,0,1,.46.05,1.46,1.46,0,0,1,.46.1,3.28,3.28,0,0,1,.36.15c.1,0,.15.1.2.1s.05,0,.05.11a.15.15,0,0,0,0,.1v.76s0,0,0,.1a.17.17,0,0,1-.1.05.18.18,0,0,1-.15-.05l-.31-.15a3.06,3.06,0,0,0-.41-.15,1.54,1.54,0,0,0-.5,0,.76.76,0,0,0-.36,0,1.09,1.09,0,0,0-.25.15c-.06.05-.11.15-.16.2a.58.58,0,0,0,0,.26.72.72,0,0,0,.1.35l.31.31c.15.1.3.15.46.25a2.24,2.24,0,0,1,.51.26c.15.1.35.15.5.25a2.14,2.14,0,0,1,.46.36,1,1,0,0,1,.31.51C49.3,247.18,49.35,247.38,49.35,247.68Z"/><g id="Virtual_network" data-name="Virtual network"><polygon class="cls-15" points="59.33 141.23 57.07 138.97 49.26 131.16 47.94 132.48 56.78 141.23 47.94 149.97 49.26 151.29 57.07 143.48 59.33 141.23"/><polygon class="cls-15" points="22.08 141.23 24.43 138.97 32.14 131.16 33.46 132.48 24.62 141.23 33.46 149.97 32.14 151.29 24.43 143.48 22.08 141.23"/><path class="cls-15" d="M36.19,141.23a2.29,2.29,0,0,1-2.26,2.25,2.22,2.22,0,0,1-2.26-2.25A2.29,2.29,0,0,1,33.93,139,2.23,2.23,0,0,1,36.19,141.23Z"/><path class="cls-15" d="M40.7,139a2.26,2.26,0,1,1-2.26,2.26A2.29,2.29,0,0,1,40.7,139Z"/><path class="cls-15" d="M47.47,139a2.26,2.26,0,1,1,0,4.51,2.26,2.26,0,0,1,0-4.51Z"/></g><g id="shape1123-1"><path class="cls-15" d="M45.16,300.49l.06,0,3.84-2.22a.09.09,0,0,0,.06-.1.12.12,0,0,0-.06-.1l-3.87-2.22a.08.08,0,0,0-.11,0L41.23,298a.13.13,0,0,0,0,.2l3.87,2.23Zm-.55,5.42h0a.11.11,0,0,0,.06-.11v-4.46a.11.11,0,0,0-.06-.1L40.81,299a.15.15,0,0,0-.13,0,.1.1,0,0,0,0,.1v4.46a.12.12,0,0,0,0,.1l3.87,2.22S44.58,305.91,44.61,305.91Zm1.08,0h.07l3.85-2.23a.11.11,0,0,0,.06-.1v-4.43a.13.13,0,0,0-.06-.11h-.12l-3.85,2.23a.11.11,0,0,0-.06.1v4.43a.09.09,0,0,0,.06.1A.06.06,0,0,0,45.69,305.91Zm-1.62-13.06-2.36-1.37a.13.13,0,0,0-.12,0l-2.37,1.37H35a1.24,1.24,0,0,0-1.19,1.25v8.77H32.11V290.21l18.64,0v2.67Zm3.94,16h6.4a1.36,1.36,0,0,0,1.33-1.24V294.1a1.37,1.37,0,0,0-1.33-1.25h-2v-3.08a1.36,1.36,0,0,0-1.32-1.25H49v-3.08a1.35,1.35,0,0,0-1.33-1.25H28.19a1.25,1.25,0,0,0-1.2,1.25V299a1.23,1.23,0,0,0,1.2,1.24h2.26v3.09a1.24,1.24,0,0,0,1.19,1.24h2.12v3.09A1.23,1.23,0,0,0,35,308.89H42c.72,2.54-.24,2.9-4.47,2.9v1.33H51.93v-1.33C47.71,311.79,47.29,311.43,48,308.89Zm6.23-1.69H35.6V294.55l18.64,0ZM40.61,288.52l-2.36-1.36a.11.11,0,0,0-.11,0l-2.35,1.36H31.64a1.23,1.23,0,0,0-1.19,1.25v8.78H28.66V285.88l18.64,0v2.66Z"/></g></svg>