<svg id="Layer_1" data-name="Layer 1" xmlns="http://www.w3.org/2000/svg" viewBox="0 0 632.01 461.01"><defs><style>.cls-1{fill:#495465;}.cls-2,.cls-27,.cls-28,.cls-29,.cls-30,.cls-32{fill:none;}.cls-2{stroke:#f05025;stroke-dasharray:1 3;}.cls-2,.cls-26,.cls-27,.cls-28,.cls-29,.cls-30{stroke-miterlimit:10;}.cls-3{fill:#f05025;}.cls-4{fill:#4a5565;}.cls-25,.cls-31,.cls-5{fill:#f05024;}.cls-6{fill:#4e4540;}.cls-7{opacity:0.98;}.cls-8{fill:#ed1944;}.cls-26,.cls-9{fill:#fff;}.cls-10{fill:#323027;}.cls-11{fill:#2d9a48;}.cls-12{fill:#a1c33a;}.cls-13{fill:#69a843;}.cls-14{fill:#362822;}.cls-15{fill:#da5b2e;}.cls-16{fill:#dc332e;}.cls-17{fill:#e3c920;}.cls-18{fill:#342b28;}.cls-19{fill:#cc2b2f;}.cls-20{fill:#fbfbfb;}.cls-21{fill:#342a23;}.cls-22{fill:#e67f25;}.cls-23{fill:#bbc2c3;}.cls-24{fill:#ece8e5;}.cls-25,.cls-31{stroke:#f04f23;}.cls-25,.cls-28,.cls-30,.cls-31,.cls-32{stroke-linecap:round;}.cls-25,.cls-31,.cls-32{stroke-linejoin:round;}.cls-25,.cls-27,.cls-28{stroke-width:1.47px;}.cls-26,.cls-27,.cls-28,.cls-32{stroke:#fff;}.cls-26{stroke-width:6.93px;}.cls-28{opacity:0.3;}.cls-29,.cls-30{stroke:#495565;}.cls-29,.cls-30,.cls-31{stroke-width:1.16px;}.cls-32{stroke-width:1.69px;}</style></defs><title>LBaaS-for-Openstack-Avi-Vantage-Diagram</title><path class="cls-1" d="M145.53,113.39v42.94H9.07V113.39H145.53m1.2-1.19H7.87v45.33H146.73V112.2Z"/><path class="cls-1" d="M64.5,139.37H61.61l-4.68-8.1h-.06c.09,1.43.13,2.45.13,3.06v5H55V128.66h2.87l4.67,8h.05c-.07-1.39-.11-2.37-.11-3v-5.07h2Z"/><path class="cls-1" d="M74.5,135.26a4.36,4.36,0,0,1-1.06,3.13,3.85,3.85,0,0,1-3,1.13,4.07,4.07,0,0,1-2.08-.52A3.38,3.38,0,0,1,67,137.52a4.92,4.92,0,0,1-.49-2.26,4.39,4.39,0,0,1,1-3.12,3.88,3.88,0,0,1,3-1.11,4.2,4.2,0,0,1,2.09.51A3.52,3.52,0,0,1,74,133,5,5,0,0,1,74.5,135.26Zm-5.68,0a3.4,3.4,0,0,0,.4,1.84,1.67,1.67,0,0,0,2.59,0,3.43,3.43,0,0,0,.4-1.85,3.3,3.3,0,0,0-.4-1.82,1.42,1.42,0,0,0-1.3-.61,1.41,1.41,0,0,0-1.29.61A3.3,3.3,0,0,0,68.82,135.26Z"/><path class="cls-1" d="M78.31,139.37l-3.13-8.19h2.34l1.59,4.67a7.78,7.78,0,0,1,.33,1.68h0a6.85,6.85,0,0,1,.33-1.68l1.58-4.67h2.34l-3.13,8.19Z"/><path class="cls-1" d="M90.14,139.37l-.44-1.11h0a3.32,3.32,0,0,1-1.17,1,3.66,3.66,0,0,1-1.56.28,2.36,2.36,0,0,1-2.55-2.59,2.18,2.18,0,0,1,.92-1.93,5.31,5.31,0,0,1,2.76-.68l1.43,0v-.35a1.12,1.12,0,0,0-1.28-1.25,6,6,0,0,0-2.32.59l-.74-1.51a6.71,6.71,0,0,1,3.15-.74,3.91,3.91,0,0,1,2.53.72,2.65,2.65,0,0,1,.88,2.19v5.45Zm-.66-3.79-.87,0a2.77,2.77,0,0,0-1.46.35,1.09,1.09,0,0,0-.48,1c0,.63.37.95,1.09.95a1.73,1.73,0,0,0,1.25-.45,1.57,1.57,0,0,0,.47-1.19Z"/><path class="cls-1" d="M145.53,59.71v42.94H9.07V59.71H145.53m1.2-1.2H7.87v45.33H146.73V58.51Z"/><path class="cls-1" d="M63.78,87.41H61.5V82.78H57.25v4.63H55V76.7h2.28v4.19H61.5V76.7h2.28Z"/><path class="cls-1" d="M73.78,83.3a4.35,4.35,0,0,1-1.06,3.12,3.81,3.81,0,0,1-3,1.13A4.14,4.14,0,0,1,67.69,87a3.4,3.4,0,0,1-1.39-1.49,4.85,4.85,0,0,1-.49-2.25,4.36,4.36,0,0,1,1-3.12,3.89,3.89,0,0,1,3-1.12,4.1,4.1,0,0,1,2.09.52,3.39,3.39,0,0,1,1.38,1.47A4.85,4.85,0,0,1,73.78,83.3Zm-5.68,0a3.42,3.42,0,0,0,.4,1.84,1.44,1.44,0,0,0,1.3.62,1.41,1.41,0,0,0,1.29-.62,3.4,3.4,0,0,0,.4-1.84,3.45,3.45,0,0,0-.4-1.83,1.45,1.45,0,0,0-1.3-.61,1.43,1.43,0,0,0-1.29.61A3.31,3.31,0,0,0,68.1,83.3Z"/><path class="cls-1" d="M80.22,79.06a3.94,3.94,0,0,1,.76.07l-.17,2.09a3,3,0,0,0-.66-.07,2.38,2.38,0,0,0-1.68.55,2,2,0,0,0-.59,1.54v4.17H75.63V79.22h1.7l.33,1.37h.11a3.25,3.25,0,0,1,1-1.11A2.53,2.53,0,0,1,80.22,79.06Z"/><path class="cls-1" d="M82.37,77.1c0-.73.41-1.09,1.22-1.09s1.23.36,1.23,1.09a1.07,1.07,0,0,1-.31.81,1.3,1.3,0,0,1-.92.29C82.78,78.2,82.37,77.83,82.37,77.1Zm2.34,10.31H82.47V79.22h2.24Z"/><path class="cls-1" d="M92.78,87.41H86.29V86.09l3.81-5.17H86.52v-1.7h6.13v1.45l-3.7,5h3.83Z"/><path class="cls-1" d="M101.88,83.3a4.35,4.35,0,0,1-1.06,3.12,3.83,3.83,0,0,1-2.95,1.13A4.2,4.2,0,0,1,95.78,87a3.52,3.52,0,0,1-1.39-1.49,5,5,0,0,1-.48-2.25,4.36,4.36,0,0,1,1-3.12,3.89,3.89,0,0,1,3-1.12,4.07,4.07,0,0,1,2.08.52,3.35,3.35,0,0,1,1.39,1.47A4.85,4.85,0,0,1,101.88,83.3Zm-5.68,0a3.42,3.42,0,0,0,.4,1.84,1.43,1.43,0,0,0,1.3.62,1.41,1.41,0,0,0,1.29-.62,3.5,3.5,0,0,0,.39-1.84,3.46,3.46,0,0,0-.39-1.83,1.69,1.69,0,0,0-2.6,0A3.41,3.41,0,0,0,96.2,83.3Z"/><path class="cls-1" d="M111.32,87.41h-2.24V82.62a2.31,2.31,0,0,0-.32-1.33,1.17,1.17,0,0,0-1-.44,1.51,1.51,0,0,0-1.36.63,3.84,3.84,0,0,0-.42,2.07v3.86h-2.24V79.22h1.71l.31,1h.12a2.31,2.31,0,0,1,1-.9,3.44,3.44,0,0,1,1.5-.31,2.89,2.89,0,0,1,2.18.78,3.11,3.11,0,0,1,.74,2.23Z"/><path class="cls-1" d="M145.53,166.21v42.94H9.07V166.21H145.53m1.2-1.2H7.87v45.33H146.73V165Z"/><path class="cls-1" d="M63.61,192.19H61l-2.82-4.51-1,.69v3.82H55V181.48h2.28v4.9l.89-1.26,2.91-3.64h2.53l-3.75,4.74Z"/><path class="cls-1" d="M68.51,192.33a4.23,4.23,0,0,1-3.1-1.09,4.08,4.08,0,0,1-1.12-3.09,4.52,4.52,0,0,1,1-3.18,4.22,4.22,0,0,1,5.57-.14,3.74,3.74,0,0,1,1,2.74v1.08h-5.3a2.15,2.15,0,0,0,.57,1.49,2,2,0,0,0,1.48.53,6.35,6.35,0,0,0,1.41-.15A7.18,7.18,0,0,0,71.4,190v1.73a5.2,5.2,0,0,1-1.26.43A7.61,7.61,0,0,1,68.51,192.33Zm-.32-6.89a1.42,1.42,0,0,0-1.11.45,2.06,2.06,0,0,0-.47,1.27h3.15a1.88,1.88,0,0,0-.43-1.27A1.48,1.48,0,0,0,68.19,185.44Z"/><path class="cls-1" d="M72.51,184H75l1.56,4.61a6.52,6.52,0,0,1,.27,1.42h0a6.4,6.4,0,0,1,.32-1.42L78.67,184h2.4l-3.47,9.24a4.07,4.07,0,0,1-1.37,1.92,3.48,3.48,0,0,1-2.07.63,5.52,5.52,0,0,1-1.14-.12V193.9a4.13,4.13,0,0,0,.89.09,1.62,1.62,0,0,0,1-.36,2.42,2.42,0,0,0,.69-1.1l.13-.4Z"/><path class="cls-1" d="M88,189.76a2.26,2.26,0,0,1-.87,1.92,4.38,4.38,0,0,1-2.63.65,8.33,8.33,0,0,1-1.53-.12,5.66,5.66,0,0,1-1.19-.35V190a7.52,7.52,0,0,0,1.41.49,5.33,5.33,0,0,0,1.38.2c.81,0,1.22-.23,1.22-.7a.57.57,0,0,0-.16-.43,2.32,2.32,0,0,0-.56-.37c-.26-.14-.62-.3-1.06-.49A6.83,6.83,0,0,1,82.6,188a2.08,2.08,0,0,1-.65-.78,2.59,2.59,0,0,1-.2-1.07,1.94,1.94,0,0,1,.85-1.69,4.15,4.15,0,0,1,2.41-.59,6.86,6.86,0,0,1,2.89.64l-.68,1.61c-.41-.17-.8-.32-1.15-.43a3.77,3.77,0,0,0-1.1-.17q-1,0-1,.54a.62.62,0,0,0,.32.52,9.45,9.45,0,0,0,1.4.65,6.88,6.88,0,0,1,1.41.72,2.19,2.19,0,0,1,.66.78A2.4,2.4,0,0,1,88,189.76Z"/><path class="cls-1" d="M93.2,190.56a4.94,4.94,0,0,0,1.41-.26V192a5.06,5.06,0,0,1-2.06.37,2.53,2.53,0,0,1-2-.67,2.94,2.94,0,0,1-.61-2v-3.94H88.9v-1l1.24-.74.65-1.73h1.43V184h2.3v1.68h-2.3v3.94a.88.88,0,0,0,.27.71A1.06,1.06,0,0,0,93.2,190.56Z"/><path class="cls-1" d="M103.74,188.08a4.38,4.38,0,0,1-1.06,3.13,3.86,3.86,0,0,1-3,1.12,4.2,4.2,0,0,1-2.09-.51,3.52,3.52,0,0,1-1.39-1.49,5,5,0,0,1-.48-2.25,4.36,4.36,0,0,1,1-3.12,3.88,3.88,0,0,1,3-1.11,4.16,4.16,0,0,1,2.08.51,3.35,3.35,0,0,1,1.39,1.47A4.85,4.85,0,0,1,103.74,188.08Zm-5.68,0a3.42,3.42,0,0,0,.4,1.84,1.43,1.43,0,0,0,1.3.62,1.41,1.41,0,0,0,1.29-.62,3.47,3.47,0,0,0,.39-1.84,3.4,3.4,0,0,0-.39-1.82,1.44,1.44,0,0,0-1.3-.61,1.45,1.45,0,0,0-1.3.6A3.43,3.43,0,0,0,98.06,188.08Z"/><path class="cls-1" d="M113.18,192.19h-2.24v-4.78a2.29,2.29,0,0,0-.32-1.33,1.15,1.15,0,0,0-1-.45,1.52,1.52,0,0,0-1.36.63,3.88,3.88,0,0,0-.42,2.08v3.85h-2.24V184h1.71l.31,1.05h.12a2.31,2.31,0,0,1,1-.9,3.59,3.59,0,0,1,1.5-.3,2.89,2.89,0,0,1,2.18.77,3.11,3.11,0,0,1,.74,2.23Z"/><path class="cls-1" d="M119.21,192.33a4.26,4.26,0,0,1-3.11-1.09,4.11,4.11,0,0,1-1.11-3.09,4.52,4.52,0,0,1,1-3.18,4.22,4.22,0,0,1,5.57-.14,3.79,3.79,0,0,1,1,2.74v1.08h-5.3a2.14,2.14,0,0,0,.56,1.49,2,2,0,0,0,1.49.53,6.33,6.33,0,0,0,1.4-.15,7.18,7.18,0,0,0,1.38-.49v1.73a5.28,5.28,0,0,1-1.25.43A7.67,7.67,0,0,1,119.21,192.33Zm-.32-6.89a1.43,1.43,0,0,0-1.12.45,2.06,2.06,0,0,0-.46,1.27h3.15a1.84,1.84,0,0,0-.44-1.27A1.46,1.46,0,0,0,118.89,185.44Z"/><path class="cls-1" d="M145.53,219V270H9.07V219H145.53m1.2-1.19H7.87v53.33H146.73V217.83Z"/><path class="cls-1" d="M63.78,242.38H61.07l-4.36-7.57h-.06c.08,1.34.13,2.29.13,2.86v4.71h-1.9v-10h2.68l4.36,7.49h0c-.06-1.3-.1-2.22-.1-2.76v-4.73h1.92Z"/><path class="cls-1" d="M69.61,242.51a4,4,0,0,1-2.9-1,3.86,3.86,0,0,1-1-2.88,4.24,4.24,0,0,1,1-3,3.46,3.46,0,0,1,2.67-1,3.4,3.4,0,0,1,2.53.92,3.48,3.48,0,0,1,.91,2.55v1H67.79a2,2,0,0,0,.53,1.39,1.88,1.88,0,0,0,1.39.5,6.19,6.19,0,0,0,1.31-.14,6.94,6.94,0,0,0,1.29-.46V242a5.15,5.15,0,0,1-1.18.41A7.29,7.29,0,0,1,69.61,242.51Zm-.3-6.44a1.33,1.33,0,0,0-1,.42,2,2,0,0,0-.43,1.2h2.94a1.75,1.75,0,0,0-.41-1.2A1.37,1.37,0,0,0,69.31,236.07Z"/><path class="cls-1" d="M79.87,242.38l-.28-1h-.11a2.19,2.19,0,0,1-1,.82,3.17,3.17,0,0,1-1.41.29,2.7,2.7,0,0,1-2-.72,2.92,2.92,0,0,1-.68-2.07v-5h2.09v4.47a2.12,2.12,0,0,0,.3,1.24,1.08,1.08,0,0,0,.94.41,1.43,1.43,0,0,0,1.27-.58,3.64,3.64,0,0,0,.39-1.94v-3.6h2.09v7.65Z"/><path class="cls-1" d="M86.91,240.85a4.52,4.52,0,0,0,1.31-.24v1.55a4.58,4.58,0,0,1-1.92.35,2.39,2.39,0,0,1-1.83-.63,2.75,2.75,0,0,1-.57-1.9V236.3h-1v-.88l1.15-.7.61-1.61H86v1.62h2.15v1.57H86V240a.84.84,0,0,0,.25.66A1,1,0,0,0,86.91,240.85Z"/><path class="cls-1" d="M94.06,234.59a3.37,3.37,0,0,1,.7.06l-.16,2a2.13,2.13,0,0,0-.61-.07,2.22,2.22,0,0,0-1.56.51,1.83,1.83,0,0,0-.56,1.44v3.89h-2.1v-7.65h1.59l.31,1.29h.1a2.85,2.85,0,0,1,1-1A2.37,2.37,0,0,1,94.06,234.59Z"/><path class="cls-1" d="M103.13,238.54a4.1,4.1,0,0,1-1,2.92,3.6,3.6,0,0,1-2.75,1,3.86,3.86,0,0,1-2-.48,3.21,3.21,0,0,1-1.3-1.38,4.71,4.71,0,0,1-.45-2.11,4.08,4.08,0,0,1,1-2.91,3.61,3.61,0,0,1,2.76-1,3.91,3.91,0,0,1,1.95.48,3.17,3.17,0,0,1,1.29,1.37A4.51,4.51,0,0,1,103.13,238.54Zm-5.31,0a3.2,3.2,0,0,0,.38,1.72,1.55,1.55,0,0,0,2.42,0,3.3,3.3,0,0,0,.37-1.72,3.2,3.2,0,0,0-.37-1.7,1.59,1.59,0,0,0-2.43,0A3.24,3.24,0,0,0,97.82,238.54Z"/><path class="cls-1" d="M111.94,242.38h-2.1v-4.47a2.12,2.12,0,0,0-.29-1.24,1.07,1.07,0,0,0-.94-.41,1.41,1.41,0,0,0-1.27.58,3.64,3.64,0,0,0-.39,1.94v3.6h-2.09v-7.65h1.59l.29,1h.11a2.21,2.21,0,0,1,1-.84,3.26,3.26,0,0,1,1.39-.28,2.69,2.69,0,0,1,2,.72,2.85,2.85,0,0,1,.7,2.08Z"/><polyline class="cls-2" points="125.97 280.5 334 280.5 334 195.93 410.15 195.93"/><polyline class="cls-2" points="148 81 334 81 334 178 410.15 178"/><polyline class="cls-2" points="168.74 360.14 168.74 324.07 541.67 324.07 541.67 360.14"/><polygon class="cls-3" points="171.65 358.16 168.74 369 165.83 358.16 171.65 358.16"/><polygon class="cls-3" points="538.76 358.16 541.67 369 544.57 358.16 538.76 358.16"/><line class="cls-2" x1="146.5" y1="187.27" x2="410.15" y2="187.27"/><polyline class="cls-2" points="147.49 132.6 185 132.6 185 247 146.25 247"/><path class="cls-4" d="M212.08,162a3.08,3.08,0,0,0,1.56.44c.89,0,1.41-.47,1.41-1.15s-.36-1-1.27-1.34c-1.1-.39-1.78-1-1.78-1.91a1.94,1.94,0,0,1,2.18-1.83,3.06,3.06,0,0,1,1.49.33l-.24.71a2.68,2.68,0,0,0-1.28-.32c-.92,0-1.27.55-1.27,1,0,.63.41.94,1.34,1.3,1.14.44,1.72,1,1.72,2s-.77,1.94-2.36,1.94a3.48,3.48,0,0,1-1.72-.43Z"/><path class="cls-4" d="M217.75,160.81a1.55,1.55,0,0,0,1.66,1.68,3.18,3.18,0,0,0,1.34-.25l.15.63a3.92,3.92,0,0,1-1.61.3,2.25,2.25,0,0,1-2.38-2.44,2.35,2.35,0,0,1,2.27-2.61,2.05,2.05,0,0,1,2,2.28,3.32,3.32,0,0,1,0,.41Zm2.58-.63a1.25,1.25,0,0,0-1.22-1.43,1.46,1.46,0,0,0-1.35,1.43Z"/><path class="cls-4" d="M222.37,159.74c0-.57,0-1.06,0-1.51h.77l0,1h0a1.45,1.45,0,0,1,1.34-1.06,1,1,0,0,1,.25,0V159a1.32,1.32,0,0,0-.3,0,1.23,1.23,0,0,0-1.18,1.13,2.48,2.48,0,0,0,0,.41v2.58h-.87Z"/><path class="cls-4" d="M226.33,158.23l.95,2.72a12.45,12.45,0,0,1,.39,1.24h0c.11-.4.25-.8.41-1.24l.94-2.72H230l-1.9,4.84h-.84l-1.84-4.84Z"/><path class="cls-4" d="M231.29,160.81a1.55,1.55,0,0,0,1.66,1.68,3.18,3.18,0,0,0,1.34-.25l.15.63a3.92,3.92,0,0,1-1.61.3,2.25,2.25,0,0,1-2.38-2.44,2.35,2.35,0,0,1,2.27-2.61,2.05,2.05,0,0,1,2,2.28,3.32,3.32,0,0,1,0,.41Zm2.58-.63a1.25,1.25,0,0,0-1.22-1.43,1.46,1.46,0,0,0-1.35,1.43Z"/><path class="cls-4" d="M235.91,159.74c0-.57,0-1.06,0-1.51h.77l0,1h0a1.45,1.45,0,0,1,1.34-1.06,1,1,0,0,1,.25,0V159a1.32,1.32,0,0,0-.3,0,1.23,1.23,0,0,0-1.18,1.13,2.48,2.48,0,0,0,0,.41v2.58h-.87Z"/><path class="cls-4" d="M238.18,164.3a14.39,14.39,0,0,0,.6-2.39l1-.1a12.19,12.19,0,0,1-.95,2.43Z"/><path class="cls-4" d="M244,157.07h-2v-.74h5v.74h-2.06v6H244Z"/><path class="cls-4" d="M247.58,160.81a1.55,1.55,0,0,0,1.66,1.68,3.18,3.18,0,0,0,1.34-.25l.15.63a3.92,3.92,0,0,1-1.61.3,2.25,2.25,0,0,1-2.38-2.44,2.35,2.35,0,0,1,2.27-2.61,2.05,2.05,0,0,1,2,2.28,3.32,3.32,0,0,1,0,.41Zm2.58-.63a1.25,1.25,0,0,0-1.22-1.43,1.46,1.46,0,0,0-1.35,1.43Z"/><path class="cls-4" d="M252.2,159.54c0-.5,0-.91,0-1.31h.78l.05.8h0a1.78,1.78,0,0,1,1.6-.91c.67,0,1.71.4,1.71,2.06v2.89h-.88v-2.79c0-.78-.29-1.43-1.12-1.43a1.25,1.25,0,0,0-1.18.9,1.27,1.27,0,0,0-.06.41v2.91h-.88Z"/><path class="cls-4" d="M260.53,163.07l-.07-.61h0a1.8,1.8,0,0,1-1.48.72,1.38,1.38,0,0,1-1.48-1.39c0-1.17,1-1.81,2.91-1.8v-.1a1,1,0,0,0-1.1-1.12,2.41,2.41,0,0,0-1.26.36l-.2-.58a3,3,0,0,1,1.59-.43c1.48,0,1.84,1,1.84,2v1.81a6.81,6.81,0,0,0,.08,1.16Zm-.13-2.47c-1,0-2,.15-2,1.09a.78.78,0,0,0,.83.84,1.2,1.2,0,0,0,1.17-.81.92.92,0,0,0,0-.28Z"/><path class="cls-4" d="M262.77,159.54c0-.5,0-.91,0-1.31h.78l.05.8h0a1.78,1.78,0,0,1,1.6-.91c.67,0,1.71.4,1.71,2.06v2.89H266v-2.79c0-.78-.29-1.43-1.12-1.43a1.25,1.25,0,0,0-1.18.9,1.27,1.27,0,0,0-.06.41v2.91h-.88Z"/><path class="cls-4" d="M269.44,156.84v1.39h1.26v.67h-1.26v2.61c0,.6.17.94.66.94a2,2,0,0,0,.51-.06l0,.66a2.15,2.15,0,0,1-.78.12,1.22,1.22,0,0,1-.95-.37,1.79,1.79,0,0,1-.34-1.26V158.9h-.75v-.67h.75v-1.16Z"/><path class="cls-4" d="M271.19,164.3a14.39,14.39,0,0,0,.6-2.39l1-.1a12.19,12.19,0,0,1-.95,2.43Z"/><path class="cls-4" d="M278.83,163.07l-.07-.61h0a1.8,1.8,0,0,1-1.48.72,1.38,1.38,0,0,1-1.48-1.39c0-1.17,1-1.81,2.91-1.8v-.1a1,1,0,0,0-1.1-1.12,2.41,2.41,0,0,0-1.26.36l-.2-.58a3,3,0,0,1,1.59-.43c1.48,0,1.84,1,1.84,2v1.81a6.81,6.81,0,0,0,.08,1.16Zm-.13-2.47c-1,0-2.05.15-2.05,1.09a.78.78,0,0,0,.83.84,1.2,1.2,0,0,0,1.17-.81.92.92,0,0,0,.05-.28Z"/><path class="cls-4" d="M281.07,159.54c0-.5,0-.91,0-1.31h.78l.05.8h0a1.78,1.78,0,0,1,1.6-.91c.67,0,1.71.4,1.71,2.06v2.89h-.88v-2.79c0-.78-.29-1.43-1.12-1.43a1.25,1.25,0,0,0-1.18.9,1.27,1.27,0,0,0-.06.41v2.91h-.88Z"/><path class="cls-4" d="M290.9,156v5.84c0,.43,0,.92,0,1.25h-.79l0-.84h0a1.79,1.79,0,0,1-1.65,1,2.21,2.21,0,0,1-2.07-2.46,2.32,2.32,0,0,1,2.17-2.6,1.62,1.62,0,0,1,1.46.74h0V156ZM290,160.2a1.55,1.55,0,0,0,0-.37,1.29,1.29,0,0,0-1.27-1c-.91,0-1.45.8-1.45,1.87s.48,1.79,1.43,1.79a1.32,1.32,0,0,0,1.29-1.05,1.53,1.53,0,0,0,0-.38Z"/><path class="cls-4" d="M204.65,175.07v-6.74h.95l2.16,3.41a19.08,19.08,0,0,1,1.21,2.19h0c-.08-.9-.1-1.72-.1-2.77v-2.82h.82v6.74h-.88l-2.14-3.42a21.39,21.39,0,0,1-1.26-2.25h0c0,.85.07,1.66.07,2.78v2.88Z"/><path class="cls-4" d="M211.79,172.81a1.55,1.55,0,0,0,1.66,1.68,3.18,3.18,0,0,0,1.34-.25l.15.63a3.92,3.92,0,0,1-1.61.3,2.25,2.25,0,0,1-2.38-2.44,2.35,2.35,0,0,1,2.27-2.61,2.05,2.05,0,0,1,2,2.28,3.32,3.32,0,0,1,0,.41Zm2.58-.63a1.25,1.25,0,0,0-1.22-1.43,1.46,1.46,0,0,0-1.35,1.43Z"/><path class="cls-4" d="M217.47,168.84v1.39h1.26v.67h-1.26v2.61c0,.6.17.94.66.94a2,2,0,0,0,.51-.06l0,.66a2.15,2.15,0,0,1-.78.12,1.22,1.22,0,0,1-1-.37,1.79,1.79,0,0,1-.34-1.26V170.9h-.75v-.67h.75v-1.16Z"/><path class="cls-4" d="M220.26,170.23l.64,2.46c.14.54.27,1,.36,1.54h0c.11-.49.27-1,.43-1.53l.79-2.47h.74l.75,2.42c.18.58.32,1.09.43,1.58h0a14.55,14.55,0,0,1,.37-1.57l.69-2.43h.87l-1.56,4.84H224l-.74-2.31a16.13,16.13,0,0,1-.43-1.59h0a14.32,14.32,0,0,1-.44,1.6l-.78,2.3h-.8l-1.46-4.84Z"/><path class="cls-4" d="M231.65,172.61a2.37,2.37,0,0,1-2.41,2.57,2.3,2.3,0,0,1-2.32-2.49,2.36,2.36,0,0,1,2.4-2.57A2.29,2.29,0,0,1,231.65,172.61Zm-3.84,0c0,1.06.61,1.86,1.47,1.86s1.47-.79,1.47-1.88c0-.82-.41-1.86-1.45-1.86S227.81,171.74,227.81,172.66Z"/><path class="cls-4" d="M232.86,171.74c0-.57,0-1.06,0-1.51h.77l0,1h0a1.45,1.45,0,0,1,1.34-1.06,1,1,0,0,1,.25,0V171a1.32,1.32,0,0,0-.3,0,1.23,1.23,0,0,0-1.18,1.13,2.48,2.48,0,0,0,0,.41v2.58h-.87Z"/><path class="cls-4" d="M237.14,172.45h0c.12-.17.29-.38.43-.55l1.42-1.67h1.06l-1.87,2,2.13,2.85h-1.07l-1.67-2.32-.45.5v1.82h-.87V168h.87Z"/><path class="cls-4" d="M248,174.85a4.32,4.32,0,0,1-1.78.32,3.15,3.15,0,0,1-3.33-3.41,3.35,3.35,0,0,1,3.52-3.54,3.61,3.61,0,0,1,1.6.3l-.21.71a3.17,3.17,0,0,0-1.36-.28,2.51,2.51,0,0,0-2.63,2.78,2.45,2.45,0,0,0,2.59,2.71,3.48,3.48,0,0,0,1.42-.28Z"/><path class="cls-4" d="M253.45,172.61a2.37,2.37,0,0,1-2.41,2.57,2.3,2.3,0,0,1-2.32-2.49,2.36,2.36,0,0,1,2.4-2.57A2.29,2.29,0,0,1,253.45,172.61Zm-3.84,0c0,1.06.61,1.86,1.47,1.86s1.47-.79,1.47-1.88c0-.82-.41-1.86-1.45-1.86S249.61,171.74,249.61,172.66Z"/><path class="cls-4" d="M254.66,171.54c0-.5,0-.91,0-1.31h.78l0,.8h0a1.78,1.78,0,0,1,1.6-.91c.67,0,1.71.4,1.71,2.06v2.89h-.88v-2.79c0-.78-.29-1.43-1.12-1.43a1.25,1.25,0,0,0-1.18.9,1.27,1.27,0,0,0-.06.41v2.91h-.88Z"/><path class="cls-4" d="M260.4,175.07V170.9h-.68v-.67h.68V170a1.94,1.94,0,0,1,2.11-2.11,2.33,2.33,0,0,1,1.23.33l-.25.66a1.85,1.85,0,0,0-1-.28c-.93,0-1.2.65-1.2,1.42v.24h2.81v4.84h-.87V170.9h-1.94v4.17Z"/><path class="cls-4" d="M269.81,170.23c0,.35,0,.74,0,1.33v2.81a2.78,2.78,0,0,1-.69,2.21,2.57,2.57,0,0,1-1.76.58,3.12,3.12,0,0,1-1.61-.4l.22-.67a2.73,2.73,0,0,0,1.42.38c.9,0,1.56-.47,1.56-1.69v-.54h0a1.73,1.73,0,0,1-1.54.81,2.16,2.16,0,0,1-2.06-2.36,2.32,2.32,0,0,1,2.18-2.57A1.61,1.61,0,0,1,269,171h0l0-.73Zm-.91,1.91a1.25,1.25,0,0,0,0-.4,1.27,1.27,0,0,0-1.23-.93c-.84,0-1.44.71-1.44,1.83,0,1,.48,1.74,1.43,1.74a1.29,1.29,0,0,0,1.22-.9,1.53,1.53,0,0,0,.07-.47Z"/><path class="cls-4" d="M275.38,173.75c0,.5,0,.94,0,1.32h-.78l-.05-.79h0a1.82,1.82,0,0,1-1.6.9c-.76,0-1.67-.42-1.67-2.12v-2.83h.88v2.68c0,.92.28,1.54,1.08,1.54a1.27,1.27,0,0,0,1.16-.8,1.29,1.29,0,0,0,.08-.45v-3h.88Z"/><path class="cls-4" d="M276.94,171.74c0-.57,0-1.06,0-1.51h.77l0,1h0a1.45,1.45,0,0,1,1.34-1.06,1,1,0,0,1,.25,0V171a1.32,1.32,0,0,0-.3,0,1.23,1.23,0,0,0-1.18,1.13,2.48,2.48,0,0,0,0,.41v2.58h-.87Z"/><path class="cls-4" d="M282.94,175.07l-.07-.61h0a1.8,1.8,0,0,1-1.48.72,1.38,1.38,0,0,1-1.48-1.39c0-1.17,1-1.81,2.91-1.8v-.1a1,1,0,0,0-1.1-1.12,2.41,2.41,0,0,0-1.26.36l-.2-.58a3,3,0,0,1,1.59-.43c1.48,0,1.84,1,1.84,2v1.81a6.81,6.81,0,0,0,.08,1.16Zm-.13-2.47c-1,0-2.05.15-2.05,1.09a.78.78,0,0,0,.83.84,1.2,1.2,0,0,0,1.17-.81.92.92,0,0,0,.05-.28Z"/><path class="cls-4" d="M286.2,168.84v1.39h1.26v.67H286.2v2.61c0,.6.17.94.66.94a2,2,0,0,0,.51-.06l0,.66a2.15,2.15,0,0,1-.78.12,1.22,1.22,0,0,1-.95-.37,1.79,1.79,0,0,1-.34-1.26V170.9h-.75v-.67h.75v-1.16Z"/><path class="cls-4" d="M289.53,168.87a.55.55,0,0,1-1.09,0,.54.54,0,0,1,.55-.55A.52.52,0,0,1,289.53,168.87Zm-1,6.2v-4.84h.88v4.84Z"/><path class="cls-4" d="M295.37,172.61a2.37,2.37,0,0,1-2.41,2.57,2.3,2.3,0,0,1-2.32-2.49,2.36,2.36,0,0,1,2.4-2.57A2.29,2.29,0,0,1,295.37,172.61Zm-3.84,0c0,1.06.61,1.86,1.47,1.86s1.47-.79,1.47-1.88c0-.82-.41-1.86-1.45-1.86S291.53,171.74,291.53,172.66Z"/><path class="cls-4" d="M296.58,171.54c0-.5,0-.91,0-1.31h.78l.05.8h0a1.78,1.78,0,0,1,1.6-.91c.67,0,1.71.4,1.71,2.06v2.89h-.88v-2.79c0-.78-.29-1.43-1.12-1.43a1.25,1.25,0,0,0-1.18.9,1.27,1.27,0,0,0-.06.41v2.91h-.88Z"/><path class="cls-4" d="M207.35,69.07l-2.2-6.74h.94l1,3.32c.29.91.54,1.73.72,2.52h0c.19-.78.47-1.63.77-2.51l1.14-3.33h.93l-2.41,6.74Z"/><path class="cls-4" d="M212.34,62.87a.55.55,0,0,1-1.09,0,.54.54,0,0,1,.55-.55A.52.52,0,0,1,212.34,62.87Zm-1,6.2V64.23h.88v4.84Z"/><path class="cls-4" d="M213.68,68.17a2.31,2.31,0,0,0,1.16.35c.64,0,.94-.32.94-.72s-.25-.65-.9-.89c-.87-.31-1.28-.79-1.28-1.37a1.49,1.49,0,0,1,1.67-1.42,2.42,2.42,0,0,1,1.19.3l-.22.64a1.88,1.88,0,0,0-1-.28c-.52,0-.81.3-.81.66s.29.58.92.82c.84.32,1.27.74,1.27,1.46s-.66,1.45-1.81,1.45a2.76,2.76,0,0,1-1.36-.33Z"/><path class="cls-4" d="M218.84,62.87a.55.55,0,0,1-1.09,0,.54.54,0,0,1,.55-.55A.52.52,0,0,1,218.84,62.87Zm-1,6.2V64.23h.88v4.84Z"/><path class="cls-4" d="M220.26,69.07c0-.33,0-.82,0-1.25V62h.87v3h0a1.8,1.8,0,0,1,1.65-.89,2.17,2.17,0,0,1,2,2.47,2.3,2.3,0,0,1-2.17,2.59,1.72,1.72,0,0,1-1.62-.91h0l0,.8Zm.91-1.94a1.65,1.65,0,0,0,0,.32,1.36,1.36,0,0,0,1.32,1c.92,0,1.47-.75,1.47-1.86s-.5-1.8-1.44-1.8a1.4,1.4,0,0,0-1.34,1.08,1.73,1.73,0,0,0-.05.36Z"/><path class="cls-4" d="M227.07,62.87a.55.55,0,0,1-1.09,0,.54.54,0,0,1,.55-.55A.52.52,0,0,1,227.07,62.87Zm-1,6.2V64.23H227v4.84Z"/><path class="cls-4" d="M228.53,62h.88v7.09h-.88Z"/><path class="cls-4" d="M232,62.87a.55.55,0,0,1-1.09,0,.54.54,0,0,1,.55-.55A.52.52,0,0,1,232,62.87Zm-1,6.2V64.23h.88v4.84Z"/><path class="cls-4" d="M234.49,62.84v1.39h1.26v.67h-1.26v2.61c0,.6.17.94.66.94a2,2,0,0,0,.51-.06l0,.66a2.15,2.15,0,0,1-.78.12,1.22,1.22,0,0,1-.95-.37,1.79,1.79,0,0,1-.34-1.26V64.9h-.75v-.67h.75V63.07Z"/><path class="cls-4" d="M237.25,64.23l1.06,2.86c.11.32.23.7.31,1h0c.09-.29.19-.66.31-1l1-2.84h.93l-1.32,3.45a7.37,7.37,0,0,1-1.66,3,2.38,2.38,0,0,1-1.08.57l-.22-.74a2.33,2.33,0,0,0,.77-.43,2.67,2.67,0,0,0,.74-1,.63.63,0,0,0,.07-.21.77.77,0,0,0-.06-.23l-1.79-4.46Z"/><path class="cls-4" d="M246.64,69.07l-.07-.61h0a1.8,1.8,0,0,1-1.48.72,1.38,1.38,0,0,1-1.48-1.39c0-1.17,1-1.81,2.91-1.8v-.1a1,1,0,0,0-1.1-1.12,2.41,2.41,0,0,0-1.26.36l-.2-.58a3,3,0,0,1,1.59-.43c1.48,0,1.84,1,1.84,2v1.81a6.81,6.81,0,0,0,.08,1.16Zm-.13-2.47c-1,0-2,.15-2,1.09a.78.78,0,0,0,.83.84,1.2,1.2,0,0,0,1.17-.81.92.92,0,0,0,0-.28Z"/><path class="cls-4" d="M248.88,65.54c0-.5,0-.91,0-1.31h.78l0,.8h0a1.78,1.78,0,0,1,1.6-.91c.67,0,1.71.4,1.71,2.06v2.89h-.88V66.28c0-.78-.29-1.43-1.12-1.43a1.25,1.25,0,0,0-1.18.9,1.27,1.27,0,0,0-.06.41v2.91h-.88Z"/><path class="cls-4" d="M258.71,62v5.84c0,.43,0,.92,0,1.25H258l0-.84h0a1.79,1.79,0,0,1-1.65,1,2.21,2.21,0,0,1-2.07-2.46,2.32,2.32,0,0,1,2.17-2.6,1.62,1.62,0,0,1,1.46.74h0V62Zm-.88,4.22a1.55,1.55,0,0,0,0-.37,1.29,1.29,0,0,0-1.27-1c-.91,0-1.45.8-1.45,1.87s.48,1.79,1.43,1.79a1.32,1.32,0,0,0,1.29-1,1.53,1.53,0,0,0,0-.38Z"/><path class="cls-4" d="M263.61,67l-.7,2.12H262l2.29-6.74h1.05l2.3,6.74h-.93L266,67Zm2.21-.68-.66-1.94c-.15-.44-.25-.84-.35-1.23h0c-.1.4-.21.81-.34,1.22l-.66,2Z"/><path class="cls-4" d="M268.68,65.54c0-.5,0-.91,0-1.31h.78l.05.8h0a1.78,1.78,0,0,1,1.6-.91c.67,0,1.71.4,1.71,2.06v2.89h-.88V66.28c0-.78-.29-1.43-1.12-1.43a1.25,1.25,0,0,0-1.18.9,1.27,1.27,0,0,0-.06.41v2.91h-.88Z"/><path class="cls-4" d="M277,69.07l-.07-.61h0a1.8,1.8,0,0,1-1.48.72A1.38,1.38,0,0,1,274,67.79c0-1.17,1-1.81,2.91-1.8v-.1a1,1,0,0,0-1.1-1.12,2.41,2.41,0,0,0-1.26.36l-.2-.58a3,3,0,0,1,1.59-.43c1.48,0,1.84,1,1.84,2v1.81a6.81,6.81,0,0,0,.08,1.16Zm-.13-2.47c-1,0-2.05.15-2.05,1.09a.78.78,0,0,0,.83.84,1.2,1.2,0,0,0,1.17-.81.92.92,0,0,0,.05-.28Z"/><path class="cls-4" d="M279.25,62h.88v7.09h-.88Z"/><path class="cls-4" d="M282,64.23l1.06,2.86c.11.32.23.7.31,1h0c.09-.29.19-.66.31-1l1-2.84h.93l-1.32,3.45a7.37,7.37,0,0,1-1.66,3,2.38,2.38,0,0,1-1.08.57l-.22-.74a2.33,2.33,0,0,0,.77-.43,2.67,2.67,0,0,0,.74-1,.63.63,0,0,0,.07-.21.77.77,0,0,0-.06-.23l-1.79-4.46Z"/><path class="cls-4" d="M287.58,62.84v1.39h1.26v.67h-1.26v2.61c0,.6.17.94.66.94a2,2,0,0,0,.51-.06l0,.66a2.15,2.15,0,0,1-.78.12,1.22,1.22,0,0,1-.95-.37,1.79,1.79,0,0,1-.34-1.26V64.9H286v-.67h.75V63.07Z"/><path class="cls-4" d="M290.91,62.87a.55.55,0,0,1-1.09,0,.54.54,0,0,1,.55-.55A.52.52,0,0,1,290.91,62.87Zm-1,6.2V64.23h.88v4.84Z"/><path class="cls-4" d="M295.82,68.89a3.24,3.24,0,0,1-1.39.28A2.3,2.3,0,0,1,292,66.7a2.46,2.46,0,0,1,2.6-2.57,2.94,2.94,0,0,1,1.22.25l-.2.68a2,2,0,0,0-1-.23,1.82,1.82,0,0,0,0,3.64,2.5,2.5,0,0,0,1.08-.24Z"/><path class="cls-4" d="M296.83,68.17a2.31,2.31,0,0,0,1.16.35c.64,0,.94-.32.94-.72s-.25-.65-.9-.89c-.87-.31-1.28-.79-1.28-1.37a1.49,1.49,0,0,1,1.67-1.42,2.42,2.42,0,0,1,1.19.3l-.22.64a1.88,1.88,0,0,0-1-.28c-.52,0-.81.3-.81.66s.29.58.92.82c.84.32,1.27.74,1.27,1.46s-.66,1.45-1.81,1.45a2.76,2.76,0,0,1-1.36-.33Z"/><path class="cls-4" d="M223.65,248.67h.87v6h2.87v.73h-3.74Z"/><path class="cls-4" d="M232.67,252.94a2.36,2.36,0,0,1-2.4,2.57A2.3,2.3,0,0,1,228,253a2.36,2.36,0,0,1,2.4-2.56A2.29,2.29,0,0,1,232.67,252.94Zm-3.83.06c0,1.05.61,1.85,1.47,1.85s1.46-.79,1.46-1.88c0-.81-.4-1.85-1.44-1.85S228.84,252.08,228.84,253Z"/><path class="cls-4" d="M236.57,255.4l-.07-.61h0a1.8,1.8,0,0,1-1.48.72,1.38,1.38,0,0,1-1.48-1.39c0-1.16,1-1.8,2.91-1.79v-.11a1,1,0,0,0-1.1-1.11,2.41,2.41,0,0,0-1.26.36l-.2-.58a3,3,0,0,1,1.59-.43c1.48,0,1.84,1,1.84,2v1.81a6.81,6.81,0,0,0,.08,1.16Zm-.13-2.47c-1,0-2.05.15-2.05,1.09a.78.78,0,0,0,.83.84,1.2,1.2,0,0,0,1.17-.81.92.92,0,0,0,.05-.28Z"/><path class="cls-4" d="M243,248.31v5.84c0,.43,0,.92,0,1.25h-.78l0-.84h0a1.76,1.76,0,0,1-1.64.95,2.21,2.21,0,0,1-2.07-2.46,2.31,2.31,0,0,1,2.17-2.59,1.59,1.59,0,0,1,1.45.74h0v-2.89Zm-.87,4.23a2.21,2.21,0,0,0,0-.37,1.29,1.29,0,0,0-1.27-1c-.91,0-1.45.8-1.45,1.86s.48,1.79,1.43,1.79a1.32,1.32,0,0,0,1.29-1.05,2.22,2.22,0,0,0,0-.38Z"/><path class="cls-4" d="M246.8,248.76a8.43,8.43,0,0,1,1.59-.14,2.79,2.79,0,0,1,1.85.49,1.43,1.43,0,0,1,.55,1.19,1.59,1.59,0,0,1-1.13,1.48h0a1.76,1.76,0,0,1,1.38,1.69,1.82,1.82,0,0,1-.57,1.35,3.36,3.36,0,0,1-2.32.63,10.17,10.17,0,0,1-1.35-.08Zm.87,2.76h.79c.92,0,1.46-.48,1.46-1.13s-.6-1.1-1.48-1.1a3.73,3.73,0,0,0-.77.06Zm0,3.22a4.65,4.65,0,0,0,.73,0c.9,0,1.72-.33,1.72-1.31s-.78-1.3-1.73-1.3h-.72Z"/><path class="cls-4" d="M255,255.4l-.06-.61h0a1.8,1.8,0,0,1-1.48.72,1.38,1.38,0,0,1-1.48-1.39c0-1.16,1-1.8,2.91-1.79v-.11a1,1,0,0,0-1.1-1.11,2.41,2.41,0,0,0-1.26.36l-.2-.58a3,3,0,0,1,1.59-.43c1.48,0,1.83,1,1.83,2v1.81a8,8,0,0,0,.08,1.16Zm-.13-2.47c-1,0-2,.15-2,1.09a.78.78,0,0,0,.83.84,1.2,1.2,0,0,0,1.17-.81.9.9,0,0,0,0-.28Z"/><path class="cls-4" d="M257.21,248.31h.88v7.09h-.88Z"/><path class="cls-4" d="M262.34,255.4l-.06-.61h0a1.8,1.8,0,0,1-1.48.72,1.38,1.38,0,0,1-1.48-1.39c0-1.16,1-1.8,2.91-1.79v-.11a1,1,0,0,0-1.1-1.11,2.41,2.41,0,0,0-1.26.36l-.2-.58a3,3,0,0,1,1.59-.43c1.48,0,1.83,1,1.83,2v1.81a6.81,6.81,0,0,0,.08,1.16Zm-.13-2.47c-.95,0-2,.15-2,1.09a.78.78,0,0,0,.83.84,1.21,1.21,0,0,0,1.17-.81.9.9,0,0,0,0-.28Z"/><path class="cls-4" d="M264.59,251.88c0-.5,0-.91,0-1.31h.78l.05.8h0a1.78,1.78,0,0,1,1.6-.91c.67,0,1.7.4,1.7,2v2.89h-.88v-2.78c0-.79-.28-1.43-1.11-1.43a1.24,1.24,0,0,0-1.18.89,1.33,1.33,0,0,0-.06.42v2.9h-.88Z"/><path class="cls-4" d="M273.68,255.22a3.24,3.24,0,0,1-1.39.28,2.3,2.3,0,0,1-2.4-2.47,2.46,2.46,0,0,1,2.6-2.56,2.93,2.93,0,0,1,1.21.25l-.2.68a2,2,0,0,0-1-.23,1.67,1.67,0,0,0-1.71,1.83,1.66,1.66,0,0,0,1.68,1.8,2.45,2.45,0,0,0,1.07-.24Z"/><path class="cls-4" d="M275.25,253.14a1.55,1.55,0,0,0,1.66,1.68,3.13,3.13,0,0,0,1.33-.25l.15.63a3.9,3.9,0,0,1-1.6.3,2.25,2.25,0,0,1-2.38-2.44,2.34,2.34,0,0,1,2.26-2.6,2,2,0,0,1,2,2.27,3.16,3.16,0,0,1,0,.41Zm2.57-.63a1.25,1.25,0,0,0-1.21-1.42,1.46,1.46,0,0,0-1.35,1.42Z"/><path class="cls-4" d="M279.87,252.08c0-.57,0-1.06,0-1.51h.77l0,1h0a1.45,1.45,0,0,1,1.34-1.06.83.83,0,0,1,.24,0v.83a1.17,1.17,0,0,0-.29,0,1.23,1.23,0,0,0-1.18,1.13,2.37,2.37,0,0,0,0,.41v2.57h-.87Z"/><path class="cls-4" d="M228.69,267.18a4.32,4.32,0,0,1-1.78.32,3.15,3.15,0,0,1-3.33-3.41,3.35,3.35,0,0,1,3.52-3.53,3.61,3.61,0,0,1,1.6.3l-.21.71a3.17,3.17,0,0,0-1.36-.28,2.51,2.51,0,0,0-2.63,2.78,2.45,2.45,0,0,0,2.59,2.7,3.48,3.48,0,0,0,1.42-.28Z"/><path class="cls-4" d="M234.12,264.94a2.37,2.37,0,0,1-2.41,2.57,2.3,2.3,0,0,1-2.32-2.49,2.36,2.36,0,0,1,2.4-2.56A2.29,2.29,0,0,1,234.12,264.94Zm-3.84.06c0,1.05.61,1.85,1.47,1.85s1.47-.79,1.47-1.88c0-.81-.41-1.85-1.45-1.85S230.28,264.08,230.28,265Z"/><path class="cls-4" d="M235.33,263.88c0-.5,0-.91,0-1.31h.78l.05.8h0a1.78,1.78,0,0,1,1.6-.91c.67,0,1.71.4,1.71,2.05v2.89h-.88v-2.78c0-.79-.29-1.43-1.12-1.43a1.25,1.25,0,0,0-1.18.89,1.33,1.33,0,0,0-.06.42v2.9h-.88Z"/><path class="cls-4" d="M241.07,267.4v-4.16h-.68v-.67h.68v-.26a1.94,1.94,0,0,1,2.11-2.11,2.42,2.42,0,0,1,1.23.32l-.25.67a1.85,1.85,0,0,0-1-.28c-.93,0-1.2.65-1.2,1.42v.24h2.81v4.83h-.87v-4.16h-1.94v4.16Z"/><path class="cls-4" d="M250.48,262.57c0,.35,0,.74,0,1.33v2.8a2.78,2.78,0,0,1-.69,2.21,2.57,2.57,0,0,1-1.76.58,3.12,3.12,0,0,1-1.61-.4l.22-.67a2.73,2.73,0,0,0,1.42.38c.9,0,1.56-.47,1.56-1.69v-.54h0a1.73,1.73,0,0,1-1.54.81A2.16,2.16,0,0,1,246,265a2.32,2.32,0,0,1,2.18-2.56,1.61,1.61,0,0,1,1.51.84h0l0-.73Zm-.91,1.9a1.23,1.23,0,0,0,0-.39,1.27,1.27,0,0,0-1.23-.93c-.84,0-1.44.71-1.44,1.82,0,.95.48,1.74,1.43,1.74a1.29,1.29,0,0,0,1.22-.9,1.53,1.53,0,0,0,.07-.47Z"/><path class="cls-4" d="M256.05,266.08c0,.5,0,.94,0,1.32h-.78l-.05-.79h0a1.82,1.82,0,0,1-1.6.9c-.76,0-1.67-.42-1.67-2.12v-2.82h.88v2.67c0,.92.28,1.54,1.08,1.54a1.27,1.27,0,0,0,1.16-.8,1.29,1.29,0,0,0,.08-.45v-3h.88Z"/><path class="cls-4" d="M257.61,264.08c0-.57,0-1.06,0-1.51h.77l0,.95h0a1.45,1.45,0,0,1,1.34-1.06,1,1,0,0,1,.25,0v.83a1.32,1.32,0,0,0-.3,0,1.23,1.23,0,0,0-1.18,1.13,2.37,2.37,0,0,0,0,.41v2.57h-.87Z"/><path class="cls-4" d="M263.61,267.4l-.07-.61h0a1.8,1.8,0,0,1-1.48.72,1.38,1.38,0,0,1-1.48-1.39c0-1.16,1-1.8,2.91-1.79v-.11a1,1,0,0,0-1.1-1.11,2.41,2.41,0,0,0-1.26.36l-.2-.58a3,3,0,0,1,1.59-.43c1.48,0,1.84,1,1.84,2v1.81a6.81,6.81,0,0,0,.08,1.16Zm-.13-2.47c-1,0-2.05.15-2.05,1.09a.78.78,0,0,0,.83.84,1.2,1.2,0,0,0,1.17-.81.92.92,0,0,0,.05-.28Z"/><path class="cls-4" d="M266.87,261.18v1.39h1.26v.67h-1.26v2.6c0,.6.17.94.66.94a2,2,0,0,0,.51-.06l0,.66a2.15,2.15,0,0,1-.78.12,1.22,1.22,0,0,1-.95-.37,1.79,1.79,0,0,1-.34-1.26v-2.63h-.75v-.67H266v-1.16Z"/><path class="cls-4" d="M270.2,261.21a.55.55,0,0,1-1.09,0,.54.54,0,0,1,.55-.55A.52.52,0,0,1,270.2,261.21Zm-1,6.19v-4.83h.88v4.83Z"/><path class="cls-4" d="M276,264.94a2.37,2.37,0,0,1-2.41,2.57,2.3,2.3,0,0,1-2.32-2.49,2.36,2.36,0,0,1,2.4-2.56A2.29,2.29,0,0,1,276,264.94Zm-3.84.06c0,1.05.61,1.85,1.47,1.85s1.47-.79,1.47-1.88c0-.81-.41-1.85-1.45-1.85S272.2,264.08,272.2,265Z"/><path class="cls-4" d="M277.25,263.88c0-.5,0-.91,0-1.31H278l.05.8h0a1.78,1.78,0,0,1,1.6-.91c.67,0,1.71.4,1.71,2.05v2.89h-.88v-2.78c0-.79-.29-1.43-1.12-1.43a1.25,1.25,0,0,0-1.18.89,1.33,1.33,0,0,0-.06.42v2.9h-.88Z"/><path class="cls-4" d="M189,311.41h-2v-.74h5v.74h-2v6H189Z"/><path class="cls-4" d="M192.49,315.14a1.55,1.55,0,0,0,1.66,1.68,3.18,3.18,0,0,0,1.34-.25l.14.63a3.86,3.86,0,0,1-1.6.3,2.25,2.25,0,0,1-2.38-2.44,2.35,2.35,0,0,1,2.27-2.6,2,2,0,0,1,2,2.27,2.79,2.79,0,0,1,0,.41Zm2.58-.63a1.26,1.26,0,0,0-1.22-1.42,1.46,1.46,0,0,0-1.35,1.42Z"/><path class="cls-4" d="M197.11,313.88c0-.5,0-.91,0-1.31h.78l.05.8h0a1.78,1.78,0,0,1,1.6-.91c.67,0,1.7.4,1.7,2.05v2.89h-.88v-2.78c0-.79-.28-1.43-1.11-1.43a1.25,1.25,0,0,0-1.18.89,1.33,1.33,0,0,0-.06.42v2.9h-.88Z"/><path class="cls-4" d="M205.44,317.4l-.07-.61h0a1.77,1.77,0,0,1-1.47.72,1.38,1.38,0,0,1-1.48-1.39c0-1.16,1-1.8,2.91-1.79v-.11a1,1,0,0,0-1.1-1.11,2.41,2.41,0,0,0-1.26.36l-.2-.58a3,3,0,0,1,1.59-.43c1.47,0,1.84,1,1.84,2v1.81a6.88,6.88,0,0,0,.07,1.16Zm-.13-2.47c-1,0-2.05.15-2.05,1.09a.78.78,0,0,0,.83.84,1.18,1.18,0,0,0,1.16-.81.71.71,0,0,0,.06-.28Z"/><path class="cls-4" d="M207.68,313.88c0-.5,0-.91,0-1.31h.78l.05.8h0a1.77,1.77,0,0,1,1.59-.91c.67,0,1.71.4,1.71,2.05v2.89h-.87v-2.78c0-.79-.3-1.43-1.12-1.43a1.25,1.25,0,0,0-1.18.89,1.33,1.33,0,0,0-.06.42v2.9h-.88Z"/><path class="cls-4" d="M214.35,311.18v1.39h1.26v.67h-1.26v2.6c0,.6.17.94.66.94a2,2,0,0,0,.51-.06l0,.66a2.15,2.15,0,0,1-.78.12,1.22,1.22,0,0,1-.95-.37,1.79,1.79,0,0,1-.34-1.26v-2.63h-.75v-.67h.75v-1.16Z"/><path class="cls-4" d="M219.12,317.4l.26-2h-.82v-.59h.91l.19-1.44h-.86v-.59h.95l.26-1.91h.58l-.25,1.91h1l.25-1.91h.59l-.25,1.91h.82v.59h-.91l-.17,1.44h.85v.59h-.94l-.26,2h-.61l.27-2h-1l-.26,2Zm2-2.55.18-1.44h-1l-.19,1.44Z"/><path class="cls-4" d="M225.62,311.73h0l-1.13.61-.17-.67,1.42-.76h.74v6.49h-.84Z"/><path class="cls-4" d="M364,311.41H361.9v-.74h5v.74h-2.05v6H364Z"/><path class="cls-4" d="M367.49,315.14a1.55,1.55,0,0,0,1.66,1.68,3.18,3.18,0,0,0,1.34-.25l.14.63a3.86,3.86,0,0,1-1.6.3,2.25,2.25,0,0,1-2.38-2.44,2.35,2.35,0,0,1,2.27-2.6,2,2,0,0,1,2,2.27,2.79,2.79,0,0,1,0,.41Zm2.58-.63a1.26,1.26,0,0,0-1.22-1.42,1.46,1.46,0,0,0-1.35,1.42Z"/><path class="cls-4" d="M372.11,313.88c0-.5,0-.91,0-1.31h.78l0,.8h0a1.78,1.78,0,0,1,1.6-.91c.67,0,1.7.4,1.7,2.05v2.89h-.88v-2.78c0-.79-.28-1.43-1.11-1.43a1.25,1.25,0,0,0-1.18.89,1.33,1.33,0,0,0-.06.42v2.9h-.88Z"/><path class="cls-4" d="M380.44,317.4l-.07-.61h0a1.77,1.77,0,0,1-1.47.72,1.38,1.38,0,0,1-1.48-1.39c0-1.16,1-1.8,2.91-1.79v-.11a1,1,0,0,0-1.1-1.11,2.41,2.41,0,0,0-1.26.36l-.2-.58a3,3,0,0,1,1.59-.43c1.47,0,1.84,1,1.84,2v1.81a6.88,6.88,0,0,0,.07,1.16Zm-.13-2.47c-1,0-2.05.15-2.05,1.09a.78.78,0,0,0,.83.84,1.18,1.18,0,0,0,1.16-.81.71.71,0,0,0,.06-.28Z"/><path class="cls-4" d="M382.68,313.88c0-.5,0-.91,0-1.31h.78l.05.8h0a1.77,1.77,0,0,1,1.59-.91c.67,0,1.71.4,1.71,2.05v2.89h-.87v-2.78c0-.79-.3-1.43-1.12-1.43a1.25,1.25,0,0,0-1.18.89,1.33,1.33,0,0,0-.06.42v2.9h-.88Z"/><path class="cls-4" d="M389.35,311.18v1.39h1.26v.67h-1.26v2.6c0,.6.17.94.66.94a2,2,0,0,0,.51-.06l0,.66a2.15,2.15,0,0,1-.78.12,1.22,1.22,0,0,1-.95-.37,1.79,1.79,0,0,1-.34-1.26v-2.63h-.75v-.67h.75v-1.16Z"/><path class="cls-4" d="M394.12,317.4l.26-2h-.82v-.59h.91l.19-1.44h-.86v-.59h.95l.26-1.91h.58l-.25,1.91h1l.25-1.91h.59l-.25,1.91h.82v.59h-.91l-.17,1.44h.85v.59h-.94l-.26,2h-.61l.27-2h-1l-.26,2Zm2-2.55.18-1.44h-1l-.19,1.44Z"/><path class="cls-4" d="M398.71,317.4v-.54l.69-.67c1.66-1.57,2.4-2.41,2.42-3.39a1.16,1.16,0,0,0-1.29-1.27,2.21,2.21,0,0,0-1.38.55l-.28-.62a2.85,2.85,0,0,1,1.84-.66,1.83,1.83,0,0,1,2,1.89c0,1.19-.86,2.16-2.23,3.48l-.52.48v0h2.91v.73Z"/><path class="cls-4" d="M522,311.41H519.9v-.74h5v.74h-2v6H522Z"/><path class="cls-4" d="M525.49,315.14a1.55,1.55,0,0,0,1.66,1.68,3.18,3.18,0,0,0,1.34-.25l.14.63a3.86,3.86,0,0,1-1.6.3,2.25,2.25,0,0,1-2.38-2.44,2.35,2.35,0,0,1,2.27-2.6,2,2,0,0,1,2,2.27,2.79,2.79,0,0,1,0,.41Zm2.58-.63a1.26,1.26,0,0,0-1.22-1.42,1.46,1.46,0,0,0-1.35,1.42Z"/><path class="cls-4" d="M530.11,313.88c0-.5,0-.91,0-1.31h.78l0,.8h0a1.78,1.78,0,0,1,1.6-.91c.67,0,1.7.4,1.7,2.05v2.89h-.88v-2.78c0-.79-.28-1.43-1.11-1.43a1.25,1.25,0,0,0-1.18.89,1.33,1.33,0,0,0-.06.42v2.9h-.88Z"/><path class="cls-4" d="M538.44,317.4l-.07-.61h0a1.77,1.77,0,0,1-1.47.72,1.38,1.38,0,0,1-1.48-1.39c0-1.16,1-1.8,2.91-1.79v-.11a1,1,0,0,0-1.1-1.11,2.41,2.41,0,0,0-1.26.36l-.2-.58a3,3,0,0,1,1.59-.43c1.47,0,1.84,1,1.84,2v1.81a6.88,6.88,0,0,0,.07,1.16Zm-.13-2.47c-1,0-2,.15-2,1.09a.78.78,0,0,0,.83.84,1.18,1.18,0,0,0,1.16-.81.71.71,0,0,0,.06-.28Z"/><path class="cls-4" d="M540.68,313.88c0-.5,0-.91,0-1.31h.78l.05.8h0a1.77,1.77,0,0,1,1.59-.91c.67,0,1.71.4,1.71,2.05v2.89h-.87v-2.78c0-.79-.3-1.43-1.12-1.43a1.25,1.25,0,0,0-1.18.89,1.33,1.33,0,0,0-.06.42v2.9h-.88Z"/><path class="cls-4" d="M547.35,311.18v1.39h1.26v.67h-1.26v2.6c0,.6.17.94.66.94a2,2,0,0,0,.51-.06l0,.66a2.15,2.15,0,0,1-.78.12,1.22,1.22,0,0,1-.95-.37,1.79,1.79,0,0,1-.34-1.26v-2.63h-.75v-.67h.75v-1.16Z"/><path class="cls-4" d="M552.12,317.4l.26-2h-.82v-.59h.91l.19-1.44h-.86v-.59h1l.26-1.91h.58l-.25,1.91h1l.25-1.91h.59l-.25,1.91h.82v.59h-.91l-.17,1.44h.85v.59h-.94l-.26,2h-.61l.27-2h-1l-.26,2Zm2-2.55.18-1.44h-1l-.19,1.44Z"/><path class="cls-4" d="M556.92,316.39a2.94,2.94,0,0,0,1.44.41c1.13,0,1.47-.72,1.47-1.26,0-.91-.83-1.29-1.68-1.29h-.49v-.67h.49c.64,0,1.45-.32,1.45-1.09,0-.52-.33-1-1.14-1a2.39,2.39,0,0,0-1.3.43l-.23-.64a3.09,3.09,0,0,1,1.7-.5c1.28,0,1.85.76,1.85,1.55a1.62,1.62,0,0,1-1.19,1.53v0a1.68,1.68,0,0,1,1.44,1.66c0,1-.81,1.95-2.36,1.95a3.3,3.3,0,0,1-1.69-.44Z"/><polygon class="cls-5" points="279.57 77.85 237.78 77.85 237.78 74.57 225.82 81.19 237.78 87.82 237.78 84.54 279.57 84.54 279.57 77.85"/><polygon class="cls-5" points="225.82 283.41 267.61 283.41 267.61 286.69 279.57 280.06 267.61 273.43 267.61 276.71 225.82 276.71 225.82 283.41"/><polygon class="cls-5" points="285.52 187.55 273.55 180.92 273.55 184.2 231.84 184.2 231.84 180.92 219.88 187.55 231.84 194.17 231.84 190.89 273.55 190.89 273.55 194.17 285.52 187.55"/><path class="cls-6" d="M120.92,44.58a1.3,1.3,0,1,0-1.29,1.3A1.29,1.29,0,0,0,120.92,44.58Zm-1.29,1a1,1,0,1,1,0-2,1,1,0,0,1,0,2Z"/><path class="cls-6" d="M120.11,44.35h0a.39.39,0,0,0-.1-.29.48.48,0,0,0-.35-.12h-.47v1.26h.26v-.41h.16l.24.41h.3l-.27-.47A.37.37,0,0,0,120.11,44.35Zm-.26,0c0,.12-.07.19-.21.19h-.19v-.38h.19a.18.18,0,0,1,.21.19Z"/><path class="cls-6" d="M43.2,40.8v-.17c0-3.06-2-5.29-4.74-5.29s-4.78,2.27-4.78,5.31v.17c0,3.07,2,5.27,4.74,5.27S43.2,43.85,43.2,40.8Zm-7.32,0v-.12c0-1.93,1-3.36,2.54-3.36S41,38.74,41,40.67v.12c0,1.93-1,3.37-2.53,3.37S35.88,42.7,35.88,40.77Z"/><path class="cls-6" d="M53.69,40.84v-.27c0-3.49-1.95-5.23-4-5.23a3.48,3.48,0,0,0-3,1.86V35.54H44.44V48.82h2.21v-4.5a3.52,3.52,0,0,0,3,1.75C51.76,46.07,53.69,44.32,53.69,40.84Zm-7.08,0v-.19c0-2,1.13-3.32,2.46-3.32s2.4,1.27,2.4,3.34v.17c0,2.07-1.06,3.32-2.4,3.32S46.61,42.83,46.61,40.8Z"/><path class="cls-6" d="M63.24,44.49l-1.15-1.36a3.29,3.29,0,0,1-2.38,1.09,2.65,2.65,0,0,1-2.61-2.67h6.47c0-.32,0-.63,0-.76,0-3.11-1.48-5.45-4.29-5.45-2.54,0-4.41,2.23-4.41,5.33v.15c0,3.24,2.07,5.27,4.72,5.27A4.75,4.75,0,0,0,63.24,44.49ZM59.3,37.2c1.29,0,2,1.19,2.15,2.82H57.08C57.23,38.27,58.09,37.2,59.3,37.2Z"/><path class="cls-6" d="M70.06,35.34a3.22,3.22,0,0,0-2.82,1.72V35.54H65V45.88h2.21V39.62c0-1.43.8-2.29,2-2.29s1.85.8,1.85,2.25v6.3h2.2V39C73.24,36.75,72.05,35.34,70.06,35.34Z"/><path class="cls-6" d="M82.13,42.93v0c0-1.62-1.21-2.36-2.81-3.08-1.21-.55-2-.9-2-1.58v0c0-.56.49-1,1.31-1a4.63,4.63,0,0,1,2.45.91L82,36.49a5.89,5.89,0,0,0-3.35-1.11c-1.93,0-3.42,1.17-3.42,3v0c0,1.69,1.29,2.39,2.83,3.06,1.23.52,2,.86,2,1.6v0c0,.64-.53,1.13-1.44,1.13a4.7,4.7,0,0,1-2.85-1.21l-1,1.58a6.14,6.14,0,0,0,3.85,1.44C80.59,46.07,82.13,45,82.13,42.93Z"/><path class="cls-6" d="M89,45.58V43.77a2.55,2.55,0,0,1-1.19.29,1,1,0,0,1-1.11-1.13v-5.5H89V35.54H86.65V32.75h-2.2v2.79H83.32l.36,1.89h.77v6A2.35,2.35,0,0,0,87.12,46,3.64,3.64,0,0,0,89,45.58Z"/><path class="cls-6" d="M97.4,36.47a4.13,4.13,0,0,0-3-1,7.35,7.35,0,0,0-3.42.82L91.57,38a5.74,5.74,0,0,1,2.49-.63,2,2,0,0,1,2.23,2.11v.43a7,7,0,0,0-2.38-.41c-2.19,0-3.67,1.09-3.67,3.31v.1a3,3,0,0,0,3.16,3.16,3.29,3.29,0,0,0,2.87-1.46v1.27h2.16V39.46A4.11,4.11,0,0,0,97.4,36.47ZM96.31,42.4a2.07,2.07,0,0,1-2.25,2,1.57,1.57,0,0,1-1.67-1.63v0c0-1.1.74-1.74,2-1.74a5.08,5.08,0,0,1,1.92.37Z"/><path class="cls-6" d="M107.8,44.53l-1.19-1.46a2.89,2.89,0,0,1-2.11,1c-1.5,0-2.55-1.34-2.55-3.35v-.1c0-2,1-3.34,2.5-3.34a2.76,2.76,0,0,1,2.08,1l1.23-1.62a4.36,4.36,0,0,0-3.31-1.41c-2.71,0-4.72,2.23-4.72,5.31v.19c0,3.09,2,5.25,4.64,5.25A4.31,4.31,0,0,0,107.8,44.53Z"/><polygon class="cls-6" points="114.55 40.51 113 42.17 115.08 45.88 117.63 45.88 114.55 40.51"/><polygon class="cls-6" points="114.92 35.54 111.39 40.08 111.39 31.79 109.19 31.79 109.19 45.88 111.39 45.88 111.39 42.89 117.53 35.54 114.92 35.54"/><g class="cls-7"><path class="cls-8" d="M84.65,6.72H67.06a2,2,0,0,0-2,2v4.73h4.88v-.77A1.09,1.09,0,0,1,71,11.6h9.67a1.09,1.09,0,0,1,1.09,1.09v.77h4.88V8.73A2,2,0,0,0,84.65,6.72Z"/><path class="cls-8" d="M81.78,21.9A1.09,1.09,0,0,1,80.69,23H71a1.09,1.09,0,0,1-1.09-1.09v-.77H65.05v4.73a2,2,0,0,0,2,2H84.65a2,2,0,0,0,2-2V21.13H81.78Z"/><rect class="cls-8" x="65.05" y="14.86" width="4.88" height="4.88"/><rect class="cls-8" x="81.78" y="14.86" width="4.88" height="4.88"/></g><rect class="cls-9" x="29.54" y="257.75" width="95.52" height="34.61"/><path class="cls-1" d="M124.62,258.19v33.73H30V258.19h94.64m.88-.88H29.1V292.8h96.4V257.31Z"/><path class="cls-1" d="M56.51,281.15v-10.7h2.28v8.83h4.36v1.87Z"/><path class="cls-1" d="M65,270.45h3.35a6.4,6.4,0,0,1,3.32.65,2.24,2.24,0,0,1,1,2.06,2.58,2.58,0,0,1-.45,1.57,1.79,1.79,0,0,1-1.2.74v.07a2.42,2.42,0,0,1,1.47.85,2.79,2.79,0,0,1,.45,1.66,2.69,2.69,0,0,1-1.06,2.28,4.6,4.6,0,0,1-2.89.82H65Zm2.28,4.24h1.33A2.44,2.44,0,0,0,70,274.4a1.07,1.07,0,0,0,.41-.94,1,1,0,0,0-.45-.89,3,3,0,0,0-1.43-.26h-1.2Zm0,1.8v2.79h1.49a2.22,2.22,0,0,0,1.39-.36,1.34,1.34,0,0,0,.44-1.1c0-.89-.63-1.33-1.91-1.33Z"/><path class="cls-1" d="M80.17,281.15,79.74,280h-.06a3.36,3.36,0,0,1-1.17,1,3.83,3.83,0,0,1-1.56.27,2.51,2.51,0,0,1-1.86-.67,2.56,2.56,0,0,1-.68-1.92,2.15,2.15,0,0,1,.91-1.92,5.3,5.3,0,0,1,2.76-.69l1.43,0v-.36a1.12,1.12,0,0,0-1.28-1.25,5.73,5.73,0,0,0-2.31.6l-.75-1.51a6.65,6.65,0,0,1,3.15-.74,3.94,3.94,0,0,1,2.54.72,2.65,2.65,0,0,1,.88,2.18v5.45Zm-.66-3.79-.87,0a2.8,2.8,0,0,0-1.45.35,1.1,1.1,0,0,0-.48,1c0,.63.36.95,1.09.95a1.7,1.7,0,0,0,1.24-.45,1.57,1.57,0,0,0,.47-1.19Z"/><path class="cls-1" d="M89.27,281.15,88.83,280h-.06a3.25,3.25,0,0,1-1.16,1,3.85,3.85,0,0,1-1.57.27,2.53,2.53,0,0,1-1.86-.67,2.6,2.6,0,0,1-.68-1.92,2.15,2.15,0,0,1,.92-1.92,5.3,5.3,0,0,1,2.76-.69l1.42,0v-.36a1.12,1.12,0,0,0-1.28-1.25,5.81,5.81,0,0,0-2.31.6l-.74-1.51a6.58,6.58,0,0,1,3.14-.74,3.92,3.92,0,0,1,2.54.72,2.62,2.62,0,0,1,.88,2.18v5.45Zm-.67-3.79-.86,0a2.84,2.84,0,0,0-1.46.35,1.1,1.1,0,0,0-.48,1c0,.63.37.95,1.09.95a1.73,1.73,0,0,0,1.25-.45A1.57,1.57,0,0,0,88.6,278Z"/><path class="cls-1" d="M98.87,278.72a2.26,2.26,0,0,1-.87,1.92,4.38,4.38,0,0,1-2.63.66,8.33,8.33,0,0,1-1.53-.12,5.67,5.67,0,0,1-1.19-.36V279a7.52,7.52,0,0,0,1.41.49,5.81,5.81,0,0,0,1.38.2c.81,0,1.22-.24,1.22-.7a.57.57,0,0,0-.16-.43,2.3,2.3,0,0,0-.56-.38c-.26-.14-.62-.3-1.06-.48a6.77,6.77,0,0,1-1.39-.74,2.05,2.05,0,0,1-.65-.77,2.62,2.62,0,0,1-.2-1.07,1.94,1.94,0,0,1,.85-1.69,4.12,4.12,0,0,1,2.41-.6,6.87,6.87,0,0,1,2.89.65l-.68,1.61a11.26,11.26,0,0,0-1.15-.43,3.46,3.46,0,0,0-1.1-.17c-.66,0-1,.18-1,.53a.61.61,0,0,0,.32.52,7.7,7.7,0,0,0,1.4.65,6.82,6.82,0,0,1,1.41.73,2,2,0,0,1,.66.78A2.38,2.38,0,0,1,98.87,278.72Z"/><path class="cls-10" d="M34.93,142.64l-1.6,1.17-1.81-1.33-2,2.8c-.62.87-1.23,1.75-1.85,2.64-2.79-2.49-2.52-5.5.52-9.21l-2.31-8H19.1a6.34,6.34,0,0,1,4.63-4.84c2.42-.67,4.47.17,6.65,2.08v-7a4.56,4.56,0,0,1,4.74,1.83c1.16,1.37,1,3.09,1.3,4.9,2.34-1.8,4.73-2.71,7.5-1.48a6.65,6.65,0,0,1,3.65,4.37c-2.37.42-4.65,0-6.79.24l-2.37,8.14a7.1,7.1,0,0,1,2.14,5.15,6.72,6.72,0,0,1-1.69,4c-.72-1-1.35-1.81-2-2.67S35.64,143.65,34.93,142.64Zm-.06-17.19c-.28-2-1-2.83-3.17-3.42v3l-.18,1.65,1.79-.56,1.89.5Zm3.85,16-1.17-1.81-1.8,2.11,1.32,1.73,1.7,2.51A4.08,4.08,0,0,0,38.72,141.49Zm-11.18,0c-1,2.16-1,2.59.14,4.42l1.55-2.4,1.49-1.95L29,139.43Zm0-14.11c-2.93-1.24-5.79-.31-6.42,2.13H24.5a4.54,4.54,0,0,0,4.34-1.41ZM32,136.77h2.59L36,134.28,34.63,132H32l-1.34,2.35Zm13.71-7.25c-1.76-3.16-5.51-3.61-7.72-1.14l2.08,1.14Zm-13.87,8.56-1,1.74,2.53,2.55,2.39-2.5-1.13-1.79Zm-1.13-9.31,1.26,2h2.63l1.25-2-2.59-1.54Zm-3.3,1.58.29,3.4h1.93l1.24-2.41-1.26-2.14Zm9.48-1.17-1.19,2.24,1.34,2.45,1.93-.21v-3.4Zm-8.68,5.91a8.26,8.26,0,0,0,1.92,3.74l.8-1.57-1.18-2.17Zm8.39,3.7a8.37,8.37,0,0,0,1.66-3.69H36.92l-1.29,2.25Z"/><path class="cls-11" d="M32,136.77l-1.39-2.41L32,132h2.64L36,134.28l-1.39,2.49Z"/><path class="cls-12" d="M45.75,129.52H40.11L38,128.38C40.24,125.91,44,126.36,45.75,129.52Z"/><path class="cls-11" d="M31.88,138.08h2.83l1.13,1.79-2.39,2.5-2.53-2.55Z"/><path class="cls-11" d="M30.75,128.77l2.55-1.58,2.59,1.54-1.25,2H32Z"/><path class="cls-12" d="M24.5,129.53H21.13c.63-2.44,3.49-3.37,6.42-2.13Z"/><path class="cls-11" d="M27.45,130.35l2.2-1.15,1.26,2.14-1.24,2.41H27.74Z"/><path class="cls-11" d="M36.93,129.18,39,130.26v3.4l-1.93.21-1.34-2.45Z"/><path class="cls-13" d="M27.54,141.51,29,139.43l1.77,2.15-1.49,1.95Z"/><path class="cls-13" d="M37.07,143.52l-1.32-1.73,1.8-2.11,1.17,1.81Z"/><path class="cls-12" d="M31.7,125.08v-3c2.21.59,2.89,1.37,3.17,3.42Zm1.48-.89,0-.58-1,.16.05.42Z"/><path class="cls-12" d="M27.54,141.51l1.69,2-1.55,2.4C26.55,144.1,26.55,143.67,27.54,141.51Z"/><path class="cls-11" d="M28.25,135.09h1.54L31,137.26l-.8,1.57A8.26,8.26,0,0,1,28.25,135.09Z"/><path class="cls-11" d="M36.64,138.79l-1-1.44,1.29-2.25H38.3A8.37,8.37,0,0,1,36.64,138.79Z"/><path class="cls-12" d="M37.07,143.52l1.65-2a4.08,4.08,0,0,1,.05,4.54Z"/><path class="cls-13" d="M24.5,129.53l3.05-2.13,1.29.72A4.54,4.54,0,0,1,24.5,129.53Z"/><path class="cls-13" d="M31.7,125.08l3.17.37.33,1.22-1.89-.5-1.79.56Z"/><path class="cls-10" d="M33.18,124.19h-.94l-.05-.42,1-.16Z"/><path class="cls-14" d="M30.28,202.73v-6.81l-5,4.93-.37-.24,2.57-6.42-6.29,2.53-.28-.37,4.79-4.88H18.88l-.09-.47L25,188.29l-6.23-2.66,0-.32h6.31l.27-.47-4.5-4.63.25-.35,6.31,2.54L25,176.05l.36-.27,4.87,4.83v-6.82l.5-.12,2.7,6.27,2.67-6.19h.36v6.29l.47.2,4.58-4.42.35.17-2.47,6.37,6.28-2.51.29.35-4.87,4.95h6.78l.11.46-6.14,2.67,6.08,2.65-.06.34H41.63l-.27.4,4.5,4.72-.18.34-6.33-2.5,2.47,6.32-.45.34-4.23-4.79-.58.32v6.38l-.46.08-2.71-6.21-2.65,6.17Zm10.62-9.37.1.07-.13,0-1.3-1.63-.74-1.22,3.36-.43-1.67-.88-3.37.65,2,2.88Zm-5.62-14,0-.15v.16l-1.05,2,.79,2.94,2.78-1.68.78-1.86-.39-.19-1.47,1.61-1.17.73-.25-1.54Zm0,15.62.31-1.46,1,.7,1.48,1.58.39-.23-.89-1.9-2.56-1.38-.81,2.31c-.25,1.1.23,1.9,1.2,2.92Zm-8.83-7.49,3-1-1.73-2.66L25.87,183l-.18.34,1.57,1.46.95,1.37-1.72.19H24.64l-.07.32ZM30,182.18l-1.5-1.56-.29.28.83,1.78,2.7,1.68.91-2.92-.83-2.18-.31.07v2.12l-.22,1.68Zm10.69,5.15,1.72-.65-.1-.28H40.08l-1.42-.24,1-1.41,1.5-1.39-.23-.36-2.07,1-1.56,2.86Zm-14.2,1.83-1.92.66.11.51,1.85-.16,1.6.38-.8,1.16-1.53,1.41.27.37,1.75-.82L29.55,190ZM28.56,195l-.39.94.21.12.6-.65,2.29-2,.2,1.57v2.22l.37,0,.79-2.23-.89-2.61C30.3,193.05,28.73,193.12,28.56,195Zm7-6.7c-.34-1.46-1.18-2.35-2.6-1.87a2.85,2.85,0,0,0-1.45,1.84c-.26,1.06.54,1.8,1.56,2C34.4,190.51,35.15,189.73,35.51,188.31Zm1.11.82,1.67-.88-1.58-.69Zm-1.42-3.67,1,1.15.7-1.92Zm-3.63,5.67-1-1.15-.74,2Zm1.14.28.54,1.79C34,192.31,34.45,191.72,32.71,191.41Zm-3-6.73,1,1.88.92-1.09ZM35.19,191,37,192l-.81-1.89Zm-1-6-.81-1.79-.68,1.79Zm-5.75,3.23,1.75.76L30,187.5Z"/><path class="cls-15" d="M39.16,192.76l-2-2.88,3.37-.65L40,190l2.16.12-3.36.43.74,1.22Z"/><path class="cls-15" d="M31.47,195l-.2-1.57-2.29,2-.42-.41c.17-1.89,1.74-2,3.18-2.58l.89,2.61Z"/><path class="cls-15" d="M27.29,191.71l.8-1.16-1.6-.38,0-1,3.1.79-1.77,2.72Z"/><path class="cls-15" d="M37.83,182.69l-2.78,1.68-.79-2.94h1.07l.25,1.54,1.17-.73Z"/><path class="cls-15" d="M39.66,184.75l-1,1.41,1.42.24.57.93-3.35-.49L38.86,184Z"/><path class="cls-15" d="M32.61,181.44l-.91,2.92L29,182.68l1-.5,1.29.95.22-1.68Z"/><path class="cls-15" d="M27.73,183.91l1.73,2.66-3,1V186.4l1.72-.19-.95-1.37Z"/><path class="cls-15" d="M36.68,194.26l-1-.7L35.32,195l-1-.38.81-2.31,2.56,1.38Z"/><path class="cls-16" d="M34.29,194.64l1,.38.17,2.54C34.52,196.54,34,195.74,34.29,194.64Z"/><path class="cls-16" d="M35.33,181.44H34.26l1.05-2h0Z"/><path class="cls-16" d="M39.66,184.75l-.8-.77,2.07-1,.23.36Z"/><path class="cls-16" d="M26.45,189.16l0,1-1.85.16-.11-.51Z"/><path class="cls-16" d="M32.61,181.44H31.47v-2.12l.31-.07Z"/><path class="cls-16" d="M31.47,195l1.16,0-.79,2.23-.37,0Z"/><path class="cls-16" d="M30,182.18l-1,.5-.83-1.78.29-.28Z"/><path class="cls-16" d="M37.83,182.69l-1.08-.44,1.47-1.61.39.19Z"/><path class="cls-17" d="M36.62,189.13l.09-1.57,1.58.69Z"/><path class="cls-17" d="M35.2,185.46l1.72-.77-.7,1.92Z"/><path class="cls-17" d="M31.57,191.13l-1.7.8.74-2Z"/><path class="cls-17" d="M32.71,191.41c1.74.31,1.27.9.54,1.79Z"/><path class="cls-16" d="M27.29,191.71l.49,1-1.75.82-.27-.37Z"/><path class="cls-16" d="M39.16,192.76l.41-1,1.3,1.63,0,0Z"/><path class="cls-17" d="M29.72,184.68l1.88.79-.92,1.09Z"/><path class="cls-16" d="M40.65,187.33l-.57-.93h2.19l.1.28Z"/><path class="cls-16" d="M36.68,194.26l1-.55.89,1.9-.39.23Z"/><path class="cls-17" d="M35.19,191l1-1L37,192Z"/><path class="cls-16" d="M27.73,183.91l-.47.93-1.57-1.46.18-.34Z"/><path class="cls-17" d="M34.16,185.07H32.67l.68-1.79Z"/><path class="cls-16" d="M42.19,190.11,40,190l.49-.76Z"/><path class="cls-16" d="M26.49,186.4v1.13l-1.92-.81.07-.32Z"/><path class="cls-17" d="M28.41,188.3l1.63-.8.12,1.56Z"/><path class="cls-16" d="M28.56,195l.42.41-.6.65-.21-.12Z"/><path class="cls-16" d="M40.87,193.39l.13,0-.1-.07Z"/><polygon class="cls-15" points="35.27 179.4 35.31 179.41 35.31 179.25 35.27 179.4"/><path class="cls-18" d="M46,231c.5.66.61,1.14,0,1.41a2.31,2.31,0,0,0-1.36,2,26.34,26.34,0,0,0,.05,9.37,1.79,1.79,0,0,0,1,1.55c.55.25.92.62.5,1.35-.21,0-.48.06-.61,0a2.65,2.65,0,0,0-2.92-.21,25.41,25.41,0,0,0-7.52,4.4c-.7.6-1.29,1.14-1.15,2.18a1,1,0,0,1-.54.82c-.56.1-.78-.35-.69-.85.19-1-.45-1.6-1.15-2.18A25.08,25.08,0,0,0,24,246.37a2.36,2.36,0,0,0-2.61.21c-.15.13-.41.11-.59.15-.43-.42-.53-.92,0-1.12,1.69-.64,1.52-2.19,1.69-3.47a23.57,23.57,0,0,0-.24-7.9c-.16-.83-.37-1.46-1.18-1.79s-.7-.75-.36-1.28c.17,0,.32-.09.38,0a3.15,3.15,0,0,0,3.4.22A25.45,25.45,0,0,0,31,227.6c1.71-1.36,1.69-1.38,1.92-3.38a1.55,1.55,0,0,1,.43-.14,3.29,3.29,0,0,1,.57,0,1.79,1.79,0,0,1,.13.59,2.33,2.33,0,0,0,1,2.25,26.15,26.15,0,0,0,7,4.22C43.46,231.73,44.7,232.14,46,231Zm-9.29,1.94-3.32-2.26-3.07,2.16a6.31,6.31,0,0,0,1.41,3.62c1.65-.89,1.69-.89,3.57,0ZM30.24,245c.9.63,1.72,1.19,2.51,1.77a1,1,0,0,0,1.35,0c.79-.58,1.61-1.13,2.49-1.74L36,243a8.19,8.19,0,0,1-2.58.91,8.05,8.05,0,0,1-2.57-.94Zm-4.68-11.33a27.14,27.14,0,0,0,7.23-4.25l-.09-1.36c-.16,0-.23,0-.27,0a35.09,35.09,0,0,1-7.92,4.57c-.05,0-.05.18-.08.33Zm-2.12.33a32.26,32.26,0,0,1,0,9.71,1.67,1.67,0,0,0,1.64-1.95c-.06-1.92-.07-3.84,0-5.76C25.17,234.88,24.65,234.32,23.44,234Zm19-1.12-8.27-4.77v1.7l6.15,3.43A1.51,1.51,0,0,0,42.39,232.92Zm.78,10.79V234.1a1.78,1.78,0,0,0-1.48,2.07c0,1.93,0,3.87,0,5.8A1.55,1.55,0,0,0,43.17,243.71ZM42.33,245c-1-.82-1-.83-1.9-.45A27.36,27.36,0,0,0,34,248.37l.09,1.35Zm-17.9,0,8.25,4.78c.13-1.4.16-1.46-1-2.17-1.68-1-3.43-1.94-5.12-2.94A1.53,1.53,0,0,0,24.43,244.93Zm2.05-3.5L29.86,239l-3.38-2.52ZM37,238.94l3.35,2.44v-4.92Zm-3.53.71a1.45,1.45,0,0,0-1.61,1.46,1.63,1.63,0,0,0,1.58,1.55A1.67,1.67,0,0,0,35,241.14,1.47,1.47,0,0,0,33.42,239.65Zm-6.54-5.12A6.55,6.55,0,0,0,31,237.81l-2.12-4.26Zm8.88,3.38a7,7,0,0,0,4.16-3.39l-2-1Zm-8.92,5.43,2.15,1,1.86-4.24A7.15,7.15,0,0,0,26.84,243.34Zm13.22,0c-1.15-1.41-2.06-2.63-4-3.08l1.79,4.12Zm-6-6c-.52-.32-1-.47-1.26.12a.85.85,0,0,0,.37.76C33.81,238.39,34,238,34.07,237.28Z"/><path class="cls-19" d="M33.42,239.65A1.47,1.47,0,0,1,35,241.14a1.67,1.67,0,0,1-1.62,1.52,1.63,1.63,0,0,1-1.58-1.55A1.45,1.45,0,0,1,33.42,239.65Z"/><path class="cls-19" d="M34.07,237.28c-.07.67-.26,1.11-.89.88a.85.85,0,0,1-.37-.76C33.07,236.81,33.55,237,34.07,237.28Z"/><path class="cls-20" d="M32.58,66c5.62,0,11.25,0,16.87,0,.51,0,.61.09.61.6q0,13.94,0,27.87c0,.51-.1.6-.61.6Q32.58,95,15.7,95c-.51,0-.61-.09-.6-.6q0-13.93,0-27.87c0-.51.09-.6.6-.6C21.32,66,27,66,32.58,66Z"/><path class="cls-21" d="M42.79,94.24c-1.11,0-2.22,0-3.33,0a1,1,0,0,1-1.18-.73c-.14-.46-.87-.94,0-1.45.11-.07.05-.37.15-.51.93-1.44.93-1.66-.24-2.7-.37-.32-.86-.51-1.2-.85a5.24,5.24,0,0,1-.71-1.07,1.27,1.27,0,0,0-1.71-.49,11.22,11.22,0,0,1-2.8.82c-.76.19-1.79.44-1.33,1.7-.81,1.15,0,2.61-.76,3.81-.21.33.07,1.18-.12,1.27a4.42,4.42,0,0,1-1.68.19c-1.63,0-3.26,0-4.9,0a1.92,1.92,0,0,1-1.57-1.16,1.6,1.6,0,0,1,.73-1.94c.39-.18.48-.34.44-.67-.14-1.18-.29-2.36-.44-3.54,0-.05-.09-.09-.13-.14-1.23-1.37-1.75-3.21-3.35-4.39a4.9,4.9,0,0,1-2-3.77A10.51,10.51,0,0,1,17.25,75c.39-1.21.6-2.49,1-3.72a4.11,4.11,0,0,1,1.89-2.07,2.61,2.61,0,0,1,1.73,0c.69.14.76.76.73,1.37.77.17,0,1.06.73,1.39a4,4,0,0,0,2.4.31,1.83,1.83,0,0,0,1-.81A1.82,1.82,0,0,1,29,70.75a2.57,2.57,0,0,1,1.43,2.07,3.53,3.53,0,0,1,0,1.17,2.15,2.15,0,0,0,.94,2.17,4.1,4.1,0,0,0,2.91.28,1.11,1.11,0,0,0,.45-.77c-.07-1.15.82-1.78,1.38-2.57a3.54,3.54,0,0,1,2.61-1.21,8.43,8.43,0,0,1,3,.3,5.87,5.87,0,0,1,2.67,2.46,1.52,1.52,0,0,1,.17.71,10.12,10.12,0,0,0,.06,2.53,4.38,4.38,0,0,0,1.32,1.79,2,2,0,0,1,.6,1.73,11.33,11.33,0,0,1-.59,4.26,2.71,2.71,0,0,0,.44,3.19,2.49,2.49,0,0,1,.51,1.53c0,1.24,0,2.47,0,3.71l-3.66.14C43.06,94.25,42.93,94.24,42.79,94.24Z"/><path class="cls-22" d="M43.76,89.53c-.82-.89-1.64-1.78-2.47-2.66a4.33,4.33,0,0,1-1.5-2.51c-.12-1-.43-1.06-1.52-1.11C36,83.93,33.71,85,31.2,84.43a13.33,13.33,0,0,0,0-1.55.66.66,0,0,0-.46-.39,2,2,0,0,0-.69.17c.16.55-.3.93-.38,1.39-.19,1.16-.26,2.34-.42,3.51-.09.66-.25,1.32-.38,2-.4.66-.89.91-1.57.39a4.93,4.93,0,0,0-.4-.39c-.13-1.21-.22-2.44-.41-3.64a1.84,1.84,0,0,0-.62-1c-.19-.15-.61,0-.93,0-.31-1.26.71-1.84,1.34-2.62,1.12-1.39,1-1.93-.74-2.39s-2.68-1.8-4.21-2.34a2.9,2.9,0,0,1-.48-1.67s0-.13,0-.13l-.05.09c-.14.68.26,1.24.33,1.87-1.11,1.51-2,.56-2.88-.26-.19-1.93,1-3,2.43-4a2.56,2.56,0,0,1,2.16-.28c.77.18,1.5.53,2.27.68a3.35,3.35,0,0,1,2.95,3.38c0,.59,0,1.18,0,1.77,0,.37-.11.78.54.77s.63-.18.66-.67a14.75,14.75,0,0,1,.38-2.19c.11-.51.29-.12.48,0A4.71,4.71,0,0,1,32,79.79c0,.18,0,.48.06.54a1.21,1.21,0,0,0,.7.16c.14,0,.39-.17.4-.28,0-.58,0-1.18,0-1.76a1.76,1.76,0,0,1,.2-.66,3.94,3.94,0,0,1,1.06.27.74.74,0,0,1,.3.45c.26,1,1.13,1.5,1.61,2.28C37,81.86,38.13,81.74,39,82s1.75-.35,2.58-.71a3,3,0,0,0,1-2.88c-.07-.15-.43-.25-.64-.22a1.85,1.85,0,0,1-1.86-.76.8.8,0,0,1,.38-1.21c.45-.07.92,0,1.37,0,.15,0,.33-.31.36-.5s.08-.62-.42-.66c-1.78-.16-2.48.29-3.1,2a.69.69,0,0,1-.37.32.35.35,0,0,1-.33-.12,2.9,2.9,0,0,1-.26-2.66c.82-1.62,1.8-2,3.51-1.14,1.88.94,2.53,2.32,2.15,4.55-.57.34-.17.57.09.83s.54.56.83.83a3.4,3.4,0,0,1,.84,4,18,18,0,0,1-.9,3c-.14.23.13.69.19,1s.1.74.15,1.12C44.88,89.6,44.58,89.83,43.76,89.53Z"/><path class="cls-20" d="M21.39,77.37a3.3,3.3,0,0,1,2.83,1.48,1.49,1.49,0,0,0,1.56.46,1.68,1.68,0,0,1,1.64.74,1.46,1.46,0,0,1,0,1.72,12.58,12.58,0,0,1-1.1,1.09,5.14,5.14,0,0,0-1.36,2v.4c-1.48.51-1.82-.67-2.35-1.57-.06-.28.13-.59-.29-.81a22.8,22.8,0,0,1-2.12-.93c-1.64-1-1.81-2.69-2.28-4.25,0-.06.24-.19.37-.29a3.62,3.62,0,0,1,1.37.43c.8.72,1.06.16,1.38-.43A.23.23,0,0,1,21.39,77.37Z"/><path class="cls-23" d="M31.2,84.43c1.45-.2,2.87-.59,4.31-.87a23.78,23.78,0,0,1,2.76-.31c-.06.28.17.64-.3.79l-5.65,1.82a5.72,5.72,0,0,1-.72.14c-.52.07-.92,0-.79-.68C30.88,85,30.55,84.5,31.2,84.43Z"/><path class="cls-24" d="M43.76,89.53c.64.12.91-.14.79-.78,1.34,1,1.27,2.45,1.15,3.89a.62.62,0,0,1-.45.41c-.78,0-1.56,0-2.34,0a.48.48,0,0,1-.3-.36c0-.14.19-.4.26-.39.89.16.94-.35.9-1S43.76,90.12,43.76,89.53Z"/><path class="cls-22" d="M40.62,89.53c-1-1-2.06-1.9-3.06-2.88-.61-.58-.61-.83-.11-1.21s.71-.3,1.22.34c.89,1.14,1.82,2.24,2.74,3.36C41.41,89.8,41.08,89.79,40.62,89.53Z"/><path class="cls-24" d="M27.28,89.92a2.1,2.1,0,0,0,1.57-.39c-.13,1-.25,2.09-.41,3.13a.66.66,0,0,1-.48.39,17.75,17.75,0,0,1-1.93,0c-.11,0-.25-.22-.31-.37s.07-.31.11-.31c1.68,0,1.47-1.18,1.45-2.25Z"/><path class="cls-24" d="M40.62,89.53c.3-.06.75.2.79-.39.92-.2.91.66,1.14,1.13s.17.88-.58.9c-.19,0-.43.56-.55.89-.38,1-.66,1.18-1.68,1a.46.46,0,0,1-.27-.39c0-.13.21-.38.28-.36.92.18.9-.4.88-1S40.62,90.11,40.62,89.53Z"/><path class="cls-23" d="M37.48,78.94a4.15,4.15,0,0,1,1.37.43,1.57,1.57,0,0,0,1,.36c.27,0,.71-.17.72.35s-.52.41-.84.41a4.22,4.22,0,0,1-2.39-.35c-.41-.25-.23-.53-.29-.81S37.13,78.85,37.48,78.94Z"/><path class="cls-23" d="M22.57,83.65c.5.44,1,.9,1.53,1.3a2.55,2.55,0,0,0,.82.27,5.08,5.08,0,0,1,0,.78c0,.11-.18.31-.26.3a4.22,4.22,0,0,1-2.42-1.67C22.13,84.39,22.44,84,22.57,83.65Z"/><path class="cls-24" d="M25.31,89.14c.6,1,.54,1.37-.15,2a10.3,10.3,0,0,0-1,1.17,7.72,7.72,0,0,1,0-1.36,2.17,2.17,0,0,0-.4-1.39A1.56,1.56,0,0,1,25.31,89.14Z"/><path class="cls-22" d="M28.85,73.74l-.12.8-.83-.67c-.1-.08-.17-.19-.27-.27-.46-.36-.49-.71,0-1.09a7.27,7.27,0,0,1,.57-.54.8.8,0,0,1,.51,0c.07,0,.15.2.15.32C28.86,72.63,28.85,73,28.85,73.74Z"/><path class="cls-22" d="M21.49,71.08c-.14.29-.21.69-.39.76-.49.18-.94.65-1.53.36a.35.35,0,0,1-.13-.31,7,7,0,0,1,.8-1.38,1,1,0,0,1,.85-.17C21.27,70.4,21.35,70.8,21.49,71.08Z"/><path class="cls-22" d="M25.31,89.14c-.15.13-.29.35-.46.37a6.74,6.74,0,0,1-1.1,0,9,9,0,0,1,0-1.16c0-.27.18-.76.26-.76a2.13,2.13,0,0,1,1,.3C25.51,88.2,25.26,88.72,25.31,89.14Z"/><path class="cls-24" d="M37.48,78.94l-.39.39c-1.48-.51-1.16-1.76-1.17-2.87,0-.08.14-.17.21-.25a.92.92,0,0,1,.14.14l1.21,2.39A.67.67,0,0,1,37.48,78.94Z"/><path class="cls-24" d="M23.36,92.28c.4,0,.66-.07.76,0a.57.57,0,0,1,0,.54,1.38,1.38,0,0,1-1.51,0,.58.58,0,0,1,.06-.49A3.28,3.28,0,0,1,23.36,92.28Z"/><path class="cls-23" d="M26.88,89.53l.4.39Z"/><path class="cls-21" d="M25.71,76.58a1.87,1.87,0,0,1,0,.75,1.64,1.64,0,0,1-.68.78c-.15.07-.53-.22-.73-.42-.41-.42,0-.65.25-.92,0,0,0-.13,0-.19A.85.85,0,0,1,25.71,76.58Z"/><path class="cls-21" d="M21.39,77.37H21c-.8-.22-.8-.83-.8-1.48s.46-.45.8-.49A2.73,2.73,0,0,1,21.39,77.37Z"/><path class="cls-24" d="M25.71,76.58H24.53c.17-.39-.46-1.09.49-1.18C26.13,75.3,25.58,76.13,25.71,76.58Z"/><path class="cls-24" d="M21.18,75.4c0-.08-.16-.22-.17-.37,0-.5.35-.44.63-.4a.77.77,0,0,1,.52.34C22.28,75.29,22,75.41,21.18,75.4Z"/><path class="cls-21" d="M22.66,81.68a6.17,6.17,0,0,1-1.37-.41c-.48-.24-1.08-.58-.39-1.3.17-.18.1-.61.09-.92s.22-.56.6-.51l.92.14c-.1.27-.21.54-.3.81-.21.68,0,1,.81,1a3.74,3.74,0,0,0,.58,0c.43,0,.56.16.55.57s0,.65-.49.62C23.47,81.67,23.27,81.68,22.66,81.68Z"/><path class="cls-25" d="M425.21,141.34v36.72a5.27,5.27,0,0,0,2.64,4.56L459.65,201a5.28,5.28,0,0,0,5.27,0l31.8-18.36a5.26,5.26,0,0,0,2.63-4.56V141.34a5.26,5.26,0,0,0-2.63-4.56l-31.8-18.36a5.28,5.28,0,0,0-5.27,0l-31.8,18.36A5.27,5.27,0,0,0,425.21,141.34Z"/><path class="cls-26" d="M490.16,149.61l-31.8-18.36a6,6,0,0,0-6,0l-31.8,18.36a6,6,0,0,0-3,5.2v36.72a6,6,0,0,0,3,5.2l31.8,18.35a6,6,0,0,0,6,0l31.8-18.35a6,6,0,0,0,3-5.2V154.81A6,6,0,0,0,490.16,149.61Z"/><path class="cls-25" d="M417.71,154.33v36.72a5.27,5.27,0,0,0,2.63,4.57L452.14,214a5.28,5.28,0,0,0,5.27,0l31.8-18.36a5.27,5.27,0,0,0,2.63-4.57V154.33a5.26,5.26,0,0,0-2.63-4.56l-31.8-18.36a5.28,5.28,0,0,0-5.27,0l-31.8,18.36A5.26,5.26,0,0,0,417.71,154.33Z"/><path class="cls-26" d="M482.66,162.61l-31.8-18.36a6,6,0,0,0-6,0l-31.8,18.36a6,6,0,0,0-3,5.19v36.72a6,6,0,0,0,3,5.2l31.8,18.36a6,6,0,0,0,6,0l31.8-18.36a6,6,0,0,0,3-5.2V167.8A6,6,0,0,0,482.66,162.61Z"/><path class="cls-25" d="M410.83,167.61v36.72a5.27,5.27,0,0,0,2.64,4.56l31.8,18.36a5.28,5.28,0,0,0,5.27,0l31.8-18.36a5.26,5.26,0,0,0,2.63-4.56V167.61a5.26,5.26,0,0,0-2.63-4.56l-31.8-18.36a5.28,5.28,0,0,0-5.27,0l-31.8,18.36A5.27,5.27,0,0,0,410.83,167.61Z"/><path class="cls-27" d="M451.2,159.31l3.3,5a4,4,0,0,0,4.07,1.68l5.86-1.18a4,4,0,0,1,4.65,4.66l-1.18,5.85a3.93,3.93,0,0,0,1.69,4.07l5,3.31a3.94,3.94,0,0,1,0,6.58l-5,3.31a3.94,3.94,0,0,0-1.69,4.07l1.18,5.85a4,4,0,0,1-4.65,4.66L458.57,206a4,4,0,0,0-4.07,1.69l-3.3,5a4,4,0,0,1-6.59,0l-3.3-5a4,4,0,0,0-4.08-1.69l-5.85,1.18a4,4,0,0,1-4.66-4.66l1.19-5.85a4,4,0,0,0-1.69-4.07l-5-3.31a4,4,0,0,1,0-6.58l5-3.31a4,4,0,0,0,1.69-4.07l-1.19-5.85a4,4,0,0,1,4.66-4.66l5.85,1.18a4,4,0,0,0,4.08-1.68l3.3-5A4,4,0,0,1,451.2,159.31Z"/><circle class="cls-27" cx="447.9" cy="185.97" r="7.9"/><path class="cls-28" d="M447.9,195.19a9.22,9.22,0,1,1,0-18.44"/><circle class="cls-27" cx="447.9" cy="185.97" r="15.81"/><path class="cls-28" d="M447.9,171.48a14.49,14.49,0,0,1,0,29"/><path class="cls-5" d="M515,175.59l-.68-2.21h-3.38l-.67,2.21h-2.12l3.27-9.32h2.41l3.29,9.32Zm-1.15-3.86-1.05-3.4c-.08-.26-.13-.47-.17-.62q-.21.81-1.2,4Z"/><path class="cls-5" d="M523.7,166.31h2l-3.15,9.28h-2.15l-3.14-9.28h2l1.75,5.52c.09.32.2.7.3,1.14s.17.73.19.9a17.15,17.15,0,0,1,.48-2Z"/><path class="cls-5" d="M527,175.59v-9.28h2v9.28Z"/><path class="cls-5" d="M538.86,167.81a2,2,0,0,0-1.72.83,4,4,0,0,0-.6,2.33c0,2.07.77,3.1,2.32,3.1a7.42,7.42,0,0,0,2.37-.48v1.65a6.7,6.7,0,0,1-2.55.47,3.9,3.9,0,0,1-3.1-1.23,5.2,5.2,0,0,1-1.07-3.52,5.79,5.79,0,0,1,.53-2.54,3.83,3.83,0,0,1,1.51-1.67,4.55,4.55,0,0,1,2.31-.58,6.18,6.18,0,0,1,2.72.66l-.63,1.6c-.35-.17-.7-.31-1.05-.44A3.21,3.21,0,0,0,538.86,167.81Z"/><path class="cls-5" d="M551.76,170.93a5,5,0,0,1-1.14,3.54,4.94,4.94,0,0,1-6.55,0,6,6,0,0,1,0-7.09,4.29,4.29,0,0,1,3.28-1.22,4.25,4.25,0,0,1,3.28,1.23A5.07,5.07,0,0,1,551.76,170.93Zm-6.77,0a3.81,3.81,0,0,0,.59,2.34,2,2,0,0,0,1.76.79c1.57,0,2.36-1,2.36-3.13s-.78-3.13-2.35-3.13a2.08,2.08,0,0,0-1.77.79A3.9,3.9,0,0,0,545,170.93Z"/><path class="cls-5" d="M562.05,175.59h-2.51l-4-7h-.06c.08,1.25.12,2.13.12,2.66v4.37h-1.76v-9.28h2.48l4,6.95h0c-.06-1.21-.1-2.06-.1-2.56v-4.39h1.78Z"/><path class="cls-5" d="M568.09,175.59h-2v-7.65H563.6v-1.63h7v1.63h-2.52Z"/><path class="cls-5" d="M574.14,172v3.57h-2v-9.28h2.7a4.6,4.6,0,0,1,2.8.68,2.75,2.75,0,0,1,.46,3.55,2.89,2.89,0,0,1-1.28,1q2.1,3.14,2.73,4.05H577.4L575.19,172Zm0-1.59h.63a2.42,2.42,0,0,0,1.38-.32,1.08,1.08,0,0,0,.44-1,1,1,0,0,0-.45-.94,2.71,2.71,0,0,0-1.41-.28h-.59Z"/><path class="cls-5" d="M589.31,170.93a5,5,0,0,1-1.15,3.54,4.94,4.94,0,0,1-6.55,0,5,5,0,0,1-1.14-3.55,5,5,0,0,1,1.15-3.54,4.28,4.28,0,0,1,3.28-1.22,4.21,4.21,0,0,1,3.27,1.23A5,5,0,0,1,589.31,170.93Zm-6.78,0a3.88,3.88,0,0,0,.59,2.34,2.06,2.06,0,0,0,1.77.79c1.57,0,2.35-1,2.35-3.13s-.78-3.13-2.34-3.13a2.08,2.08,0,0,0-1.77.79A3.83,3.83,0,0,0,582.53,170.93Z"/><path class="cls-5" d="M591.36,175.59v-9.28h2V174h3.76v1.63Z"/><path class="cls-5" d="M598.83,175.59v-9.28h2V174h3.77v1.63Z"/><path class="cls-5" d="M611.65,175.59h-5.34v-9.28h5.34v1.61h-3.37v2h3.14v1.62h-3.14V174h3.37Z"/><path class="cls-5" d="M615.69,172v3.57h-2v-9.28h2.7a4.62,4.62,0,0,1,2.8.68,2.75,2.75,0,0,1,.46,3.55,3,3,0,0,1-1.28,1q2.1,3.14,2.73,4.05H619L616.73,172Zm0-1.59h.63a2.42,2.42,0,0,0,1.38-.32,1.1,1.1,0,0,0,.44-1,1,1,0,0,0-.45-.94,2.71,2.71,0,0,0-1.41-.28h-.59Z"/><path class="cls-5" d="M541.35,181.81a2,2,0,0,0-1.72.83A3.89,3.89,0,0,0,539,185c0,2.07.78,3.1,2.33,3.1a7.52,7.52,0,0,0,2.37-.48v1.65a6.7,6.7,0,0,1-2.55.47,3.9,3.9,0,0,1-3.1-1.23A5.15,5.15,0,0,1,537,185a5.79,5.79,0,0,1,.52-2.54,3.91,3.91,0,0,1,1.52-1.67,4.55,4.55,0,0,1,2.31-.58,6.22,6.22,0,0,1,2.72.66l-.64,1.6a10.44,10.44,0,0,0-1-.44A3.21,3.21,0,0,0,541.35,181.81Z"/><path class="cls-5" d="M545.82,189.59v-9.28h2V188h3.76v1.63Z"/><path class="cls-5" d="M560.85,180.31v6a3.4,3.4,0,0,1-.46,1.8,3,3,0,0,1-1.33,1.19,4.82,4.82,0,0,1-2.06.41,4,4,0,0,1-2.78-.91,3.28,3.28,0,0,1-1-2.52v-6h2V186a2.36,2.36,0,0,0,.43,1.57,2.24,2.24,0,0,0,2.82,0,2.41,2.41,0,0,0,.44-1.59v-5.66Z"/><path class="cls-5" d="M568.73,187a2.4,2.4,0,0,1-.9,2,4,4,0,0,1-2.52.72,5.81,5.81,0,0,1-2.63-.56v-1.82a13.36,13.36,0,0,0,1.59.59,4.94,4.94,0,0,0,1.19.17,1.68,1.68,0,0,0,1-.25.84.84,0,0,0,.34-.74.81.81,0,0,0-.15-.48,1.66,1.66,0,0,0-.45-.41,11.79,11.79,0,0,0-1.2-.63,5.78,5.78,0,0,1-1.28-.77A2.85,2.85,0,0,1,563,184a2.52,2.52,0,0,1-.25-1.14,2.4,2.4,0,0,1,.83-1.93,3.49,3.49,0,0,1,2.31-.71,5.55,5.55,0,0,1,1.38.17,10,10,0,0,1,1.38.49l-.64,1.52a9,9,0,0,0-1.23-.42,3.93,3.93,0,0,0-1-.12,1.3,1.3,0,0,0-.86.26.85.85,0,0,0-.3.68.84.84,0,0,0,.12.45,1.42,1.42,0,0,0,.39.38,12.55,12.55,0,0,0,1.25.65,4.9,4.9,0,0,1,1.78,1.25A2.41,2.41,0,0,1,568.73,187Z"/><path class="cls-5" d="M574.12,189.59h-2v-7.65h-2.52v-1.63h7v1.63h-2.52Z"/><path class="cls-5" d="M583.55,189.59H578.2v-9.28h5.35v1.61h-3.38v2h3.14v1.62h-3.14V188h3.38Z"/><path class="cls-5" d="M587.58,186v3.57h-2v-9.28h2.71a4.64,4.64,0,0,1,2.8.68,2.48,2.48,0,0,1,.9,2.1,2.45,2.45,0,0,1-.45,1.45,2.92,2.92,0,0,1-1.27,1q2.09,3.14,2.73,4.05h-2.19L588.63,186Zm0-1.59h.63a2.38,2.38,0,0,0,1.38-.32,1.09,1.09,0,0,0,.45-1,1,1,0,0,0-.46-.94,2.69,2.69,0,0,0-1.4-.28h-.6Z"/><path class="cls-4" d="M532.29,194.65a6.59,6.59,0,0,0-1.26,4.09,6.68,6.68,0,0,0,1.26,4h-.69a6.41,6.41,0,0,1-1.31-4,6.6,6.6,0,0,1,1.31-4.09Z"/><path class="cls-4" d="M533.35,201.59v-6.74h.95l2.16,3.41a19.08,19.08,0,0,1,1.21,2.19h0c-.08-.9-.1-1.72-.1-2.77v-2.82h.82v6.74h-.88l-2.14-3.42a21.39,21.39,0,0,1-1.26-2.25h0c0,.85.07,1.66.07,2.78v2.88Z"/><path class="cls-4" d="M544.38,199.13A2.37,2.37,0,0,1,542,201.7a2.3,2.3,0,0,1-2.32-2.49,2.36,2.36,0,0,1,2.4-2.57A2.29,2.29,0,0,1,544.38,199.13Zm-3.84.05c0,1.06.61,1.86,1.47,1.86s1.47-.79,1.47-1.88c0-.82-.41-1.86-1.45-1.86S540.54,198.26,540.54,199.18Z"/><path class="cls-4" d="M545.86,196.75l.95,2.72a12.45,12.45,0,0,1,.39,1.24h0c.11-.4.25-.8.41-1.24l.94-2.72h.92l-1.9,4.84h-.84l-1.84-4.84Z"/><path class="cls-4" d="M553.07,201.59,553,201h0a1.8,1.8,0,0,1-1.48.72,1.38,1.38,0,0,1-1.48-1.39c0-1.17,1-1.81,2.91-1.8v-.1a1,1,0,0,0-1.1-1.12,2.41,2.41,0,0,0-1.26.36l-.2-.58a3,3,0,0,1,1.59-.43c1.48,0,1.84,1,1.84,2v1.81a6.81,6.81,0,0,0,.08,1.16Zm-.13-2.47c-1,0-2.05.15-2.05,1.09a.78.78,0,0,0,.83.84,1.2,1.2,0,0,0,1.17-.81.92.92,0,0,0,.05-.28Z"/><path class="cls-4" d="M558.43,194.85v6.74h-.87v-6.74Z"/><path class="cls-4" d="M560.12,198.06c0-.5,0-.91,0-1.31h.78l0,.8h0a1.78,1.78,0,0,1,1.6-.91c.67,0,1.71.4,1.71,2.06v2.89h-.88V198.8c0-.78-.29-1.43-1.12-1.43a1.25,1.25,0,0,0-1.18.9,1.27,1.27,0,0,0-.06.41v2.91h-.88Z"/><path class="cls-4" d="M565.65,200.69a2.31,2.31,0,0,0,1.16.35c.64,0,.94-.32.94-.72s-.25-.65-.9-.89c-.87-.31-1.28-.79-1.28-1.37a1.49,1.49,0,0,1,1.67-1.42,2.42,2.42,0,0,1,1.19.3l-.22.64a1.88,1.88,0,0,0-1-.28c-.52,0-.81.3-.81.66s.29.58.92.82c.84.32,1.27.74,1.27,1.46s-.66,1.45-1.81,1.45a2.76,2.76,0,0,1-1.36-.33Z"/><path class="cls-4" d="M570.89,195.36v1.39h1.26v.67h-1.26V200c0,.6.17.94.66.94a2,2,0,0,0,.51-.06l0,.66a2.15,2.15,0,0,1-.78.12,1.22,1.22,0,0,1-1-.37,1.79,1.79,0,0,1-.34-1.26v-2.64h-.75v-.67H570v-1.16Z"/><path class="cls-4" d="M575.92,201.59l-.07-.61h0a1.8,1.8,0,0,1-1.48.72,1.38,1.38,0,0,1-1.48-1.39c0-1.17,1-1.81,2.91-1.8v-.1a1,1,0,0,0-1.1-1.12,2.41,2.41,0,0,0-1.26.36l-.2-.58a3,3,0,0,1,1.59-.43c1.48,0,1.84,1,1.84,2v1.81a6.81,6.81,0,0,0,.08,1.16Zm-.13-2.47c-1,0-2,.15-2,1.09a.78.78,0,0,0,.83.84,1.2,1.2,0,0,0,1.17-.81.92.92,0,0,0,0-.28Z"/><path class="cls-4" d="M578.16,198.06c0-.5,0-.91,0-1.31h.78l.05.8h0a1.78,1.78,0,0,1,1.6-.91c.67,0,1.71.4,1.71,2.06v2.89h-.88V198.8c0-.78-.29-1.43-1.12-1.43a1.25,1.25,0,0,0-1.18.9,1.27,1.27,0,0,0-.06.41v2.91h-.88Z"/><path class="cls-4" d="M587.26,201.41a3.24,3.24,0,0,1-1.39.28,2.3,2.3,0,0,1-2.41-2.47,2.46,2.46,0,0,1,2.6-2.57,2.94,2.94,0,0,1,1.22.25l-.2.68a2,2,0,0,0-1-.23,1.82,1.82,0,0,0,0,3.64,2.5,2.5,0,0,0,1.08-.24Z"/><path class="cls-4" d="M588.82,199.33a1.55,1.55,0,0,0,1.66,1.68,3.18,3.18,0,0,0,1.34-.25l.15.63a3.92,3.92,0,0,1-1.61.3,2.25,2.25,0,0,1-2.38-2.44,2.35,2.35,0,0,1,2.27-2.61,2.05,2.05,0,0,1,2,2.28,3.32,3.32,0,0,1,0,.41Zm2.58-.63a1.25,1.25,0,0,0-1.22-1.43,1.46,1.46,0,0,0-1.35,1.43Z"/><path class="cls-4" d="M593.32,200.69a2.31,2.31,0,0,0,1.16.35c.64,0,.94-.32.94-.72s-.25-.65-.9-.89c-.87-.31-1.28-.79-1.28-1.37a1.49,1.49,0,0,1,1.67-1.42,2.42,2.42,0,0,1,1.19.3l-.22.64a1.88,1.88,0,0,0-1-.28c-.52,0-.81.3-.81.66s.29.58.92.82c.84.32,1.27.74,1.27,1.46s-.66,1.45-1.81,1.45a2.76,2.76,0,0,1-1.36-.33Z"/><path class="cls-4" d="M597,202.79a6.71,6.71,0,0,0,1.26-4.08,6.63,6.63,0,0,0-1.26-4.06h.68a6.37,6.37,0,0,1,1.31,4.07,6.46,6.46,0,0,1-1.31,4.07Z"/><path class="cls-5" d="M292.62,421.59l-.67-2.21h-3.38l-.68,2.21h-2.12l3.28-9.32h2.4l3.29,9.32Zm-1.14-3.86-1.05-3.4c-.08-.26-.14-.47-.17-.62q-.21.81-1.2,4Z"/><path class="cls-5" d="M301.33,412.31h2l-3.15,9.28H298l-3.15-9.28h2l1.74,5.52c.1.32.2.7.31,1.14s.16.73.19.9a15.31,15.31,0,0,1,.48-2Z"/><path class="cls-5" d="M304.62,421.59v-9.28h2v9.28Z"/><path class="cls-5" d="M318,419a2.38,2.38,0,0,1-.91,2,3.93,3.93,0,0,1-2.51.72,5.78,5.78,0,0,1-2.63-.56v-1.82a10.88,10.88,0,0,0,1.59.59,4.87,4.87,0,0,0,1.19.17,1.65,1.65,0,0,0,1-.25.85.85,0,0,0,.35-.74.81.81,0,0,0-.15-.48,2,2,0,0,0-.45-.41,12.33,12.33,0,0,0-1.21-.63,5.67,5.67,0,0,1-1.27-.77,2.93,2.93,0,0,1-.68-.85,2.47,2.47,0,0,1-.25-1.15,2.37,2.37,0,0,1,.83-1.93,3.49,3.49,0,0,1,2.31-.71,5.67,5.67,0,0,1,1.38.17,9.9,9.9,0,0,1,1.37.49l-.63,1.53a8.82,8.82,0,0,0-1.23-.43,4,4,0,0,0-1-.12,1.27,1.27,0,0,0-.85.26.85.85,0,0,0-.3.68.84.84,0,0,0,.12.45,1.37,1.37,0,0,0,.38.38,12.73,12.73,0,0,0,1.25.65,4.81,4.81,0,0,1,1.78,1.25A2.36,2.36,0,0,1,318,419Z"/><path class="cls-5" d="M325.19,421.59h-5.34v-9.28h5.34v1.61h-3.37v2H325v1.61h-3.14V420h3.37Z"/><path class="cls-5" d="M329.23,418v3.56h-2v-9.28H330a4.69,4.69,0,0,1,2.8.68,2.75,2.75,0,0,1,.46,3.55,3,3,0,0,1-1.28,1q2.1,3.13,2.73,4h-2.18L330.27,418Zm0-1.6h.63a2.42,2.42,0,0,0,1.38-.32,1.08,1.08,0,0,0,.44-1,1,1,0,0,0-.45-.94,2.71,2.71,0,0,0-1.41-.28h-.59Z"/><path class="cls-5" d="M341.27,412.31h2l-3.15,9.28H338l-3.15-9.28h2l1.75,5.52q.13.48.3,1.14c.1.43.17.73.19.9a17.15,17.15,0,0,1,.48-2Z"/><path class="cls-5" d="M344.55,421.59v-9.28h2v9.28Z"/><path class="cls-5" d="M352.93,413.81a2,2,0,0,0-1.72.83,3.89,3.89,0,0,0-.61,2.33c0,2.07.77,3.11,2.33,3.11a7.46,7.46,0,0,0,2.36-.49v1.65a6.7,6.7,0,0,1-2.55.47,3.9,3.9,0,0,1-3.1-1.23,5.2,5.2,0,0,1-1.07-3.52,5.79,5.79,0,0,1,.53-2.54,3.83,3.83,0,0,1,1.51-1.67,4.56,4.56,0,0,1,2.32-.58,6.17,6.17,0,0,1,2.71.66l-.63,1.6c-.35-.17-.7-.31-1.05-.44A3.19,3.19,0,0,0,352.93,413.81Z"/><path class="cls-5" d="M362.74,421.59H357.4v-9.28h5.34v1.61h-3.37v2h3.14v1.61h-3.14V420h3.37Z"/><path class="cls-5" d="M373.66,421.59h-5.34v-9.28h5.34v1.61h-3.38v2h3.15v1.61h-3.15V420h3.38Z"/><path class="cls-5" d="M384,421.59h-2.5l-4-7h-.06c.08,1.24.12,2.12.12,2.65v4.37h-1.75v-9.28h2.48l4,6.95h0c-.06-1.21-.09-2.06-.09-2.56v-4.39H384Z"/><path class="cls-5" d="M390,416.38h3.68v4.81a11.15,11.15,0,0,1-1.69.41,12.09,12.09,0,0,1-1.61.11,4.1,4.1,0,0,1-3.21-1.23,5.14,5.14,0,0,1-1.11-3.55,4.67,4.67,0,0,1,1.29-3.5,4.85,4.85,0,0,1,3.56-1.26,7,7,0,0,1,2.76.57l-.66,1.58a4.62,4.62,0,0,0-2.11-.51,2.61,2.61,0,0,0-2,.86A3.28,3.28,0,0,0,388,417a3.65,3.65,0,0,0,.62,2.31,2.14,2.14,0,0,0,1.8.8,6.81,6.81,0,0,0,1.25-.13V418H390Z"/><path class="cls-5" d="M396,421.59v-9.28h2v9.28Z"/><path class="cls-5" d="M408.64,421.59h-2.51l-4-7H402c.08,1.24.12,2.12.12,2.65v4.37H400.4v-9.28h2.48l4,6.95h0c-.06-1.21-.1-2.06-.1-2.56v-4.39h1.78Z"/><path class="cls-5" d="M416.45,421.59H411.1v-9.28h5.35v1.61h-3.38v2h3.14v1.61h-3.14V420h3.38Z"/><path class="cls-5" d="M424,419a2.38,2.38,0,0,1-.91,2,3.93,3.93,0,0,1-2.51.72,5.81,5.81,0,0,1-2.63-.56v-1.82a11.8,11.8,0,0,0,1.59.59,4.87,4.87,0,0,0,1.19.17,1.65,1.65,0,0,0,1-.25.82.82,0,0,0,.35-.74.81.81,0,0,0-.15-.48,1.66,1.66,0,0,0-.45-.41,13.06,13.06,0,0,0-1.2-.63,5.78,5.78,0,0,1-1.28-.77,2.93,2.93,0,0,1-.68-.85,2.47,2.47,0,0,1-.25-1.15,2.4,2.4,0,0,1,.83-1.93,3.49,3.49,0,0,1,2.31-.71,5.67,5.67,0,0,1,1.38.17,10,10,0,0,1,1.38.49l-.64,1.53a8,8,0,0,0-1.23-.43,3.93,3.93,0,0,0-.95-.12,1.28,1.28,0,0,0-.86.26.85.85,0,0,0-.3.68.84.84,0,0,0,.12.45,1.29,1.29,0,0,0,.39.38,11.08,11.08,0,0,0,1.24.65,4.87,4.87,0,0,1,1.79,1.25A2.41,2.41,0,0,1,424,419Z"/><path class="cls-4" d="M299.91,426.65a6.59,6.59,0,0,0-1.26,4.09,6.68,6.68,0,0,0,1.26,4.05h-.69a6.41,6.41,0,0,1-1.31-4.05,6.6,6.6,0,0,1,1.31-4.09Z"/><path class="cls-4" d="M301,426.94a12.46,12.46,0,0,1,1.85-.14,3.86,3.86,0,0,1,2.73.84,3.1,3.1,0,0,1,.95,2.42,3.56,3.56,0,0,1-1,2.62,4.15,4.15,0,0,1-3,1,14,14,0,0,1-1.58-.08Zm.87,6a5.49,5.49,0,0,0,.88.05,2.59,2.59,0,0,0,2.87-2.86,2.4,2.4,0,0,0-2.73-2.6,4.94,4.94,0,0,0-1,.09Z"/><path class="cls-4" d="M308.68,427.39a.55.55,0,0,1-1.09,0,.54.54,0,0,1,.55-.55A.52.52,0,0,1,308.68,427.39Zm-1,6.2v-4.84h.88v4.84Z"/><path class="cls-4" d="M310,432.69a2.31,2.31,0,0,0,1.16.35c.64,0,.94-.32.94-.72s-.25-.65-.9-.89c-.87-.31-1.28-.79-1.28-1.37a1.49,1.49,0,0,1,1.67-1.42,2.42,2.42,0,0,1,1.19.3l-.22.64a1.88,1.88,0,0,0-1-.28c-.52,0-.81.3-.81.66s.29.58.92.82c.84.32,1.27.74,1.27,1.46s-.66,1.45-1.81,1.45a2.76,2.76,0,0,1-1.36-.33Z"/><path class="cls-4" d="M315.26,427.36v1.39h1.26v.67h-1.26V432c0,.6.17.94.66.94a2,2,0,0,0,.51-.06l0,.66a2.15,2.15,0,0,1-.78.12,1.22,1.22,0,0,1-.95-.37,1.79,1.79,0,0,1-.34-1.26v-2.64h-.75v-.67h.75v-1.16Z"/><path class="cls-4" d="M317.61,430.26c0-.57,0-1.06,0-1.51h.77l0,.95h0a1.45,1.45,0,0,1,1.34-1.06,1,1,0,0,1,.25,0v.83a1.32,1.32,0,0,0-.3,0,1.23,1.23,0,0,0-1.18,1.13,2.48,2.48,0,0,0,0,.41v2.58h-.87Z"/><path class="cls-4" d="M322,427.39a.55.55,0,0,1-1.09,0,.54.54,0,0,1,.55-.55A.52.52,0,0,1,322,427.39Zm-1,6.2v-4.84h.88v4.84Z"/><path class="cls-4" d="M323.42,433.59c0-.33,0-.82,0-1.25v-5.85h.87v3h0a1.8,1.8,0,0,1,1.65-.89,2.17,2.17,0,0,1,2,2.47,2.3,2.3,0,0,1-2.17,2.59,1.72,1.72,0,0,1-1.62-.91h0l0,.8Zm.91-1.94a1.65,1.65,0,0,0,0,.32,1.36,1.36,0,0,0,1.32,1c.92,0,1.47-.75,1.47-1.86s-.5-1.8-1.44-1.8a1.4,1.4,0,0,0-1.34,1.08,1.73,1.73,0,0,0-.05.36Z"/><path class="cls-4" d="M333.3,432.27c0,.5,0,.94,0,1.32h-.78l-.05-.79h0a1.82,1.82,0,0,1-1.6.9c-.76,0-1.67-.42-1.67-2.12v-2.83h.88v2.68c0,.92.28,1.54,1.08,1.54a1.27,1.27,0,0,0,1.16-.8,1.29,1.29,0,0,0,.08-.45v-3h.88Z"/><path class="cls-4" d="M335.92,427.36v1.39h1.26v.67h-1.26V432c0,.6.17.94.66.94a2,2,0,0,0,.51-.06l0,.66a2.15,2.15,0,0,1-.78.12,1.22,1.22,0,0,1-1-.37,1.79,1.79,0,0,1-.34-1.26v-2.64h-.75v-.67h.75v-1.16Z"/><path class="cls-4" d="M338.7,431.33a1.55,1.55,0,0,0,1.66,1.68,3.18,3.18,0,0,0,1.34-.25l.15.63a3.92,3.92,0,0,1-1.61.3,2.25,2.25,0,0,1-2.38-2.44,2.35,2.35,0,0,1,2.27-2.61,2.05,2.05,0,0,1,2,2.28,3.32,3.32,0,0,1,0,.41Zm2.58-.63a1.25,1.25,0,0,0-1.22-1.43,1.46,1.46,0,0,0-1.35,1.43Z"/><path class="cls-4" d="M347.5,426.49v5.85c0,.43,0,.92,0,1.25h-.79l0-.84h0a1.79,1.79,0,0,1-1.65.95,2.21,2.21,0,0,1-2.07-2.46,2.32,2.32,0,0,1,2.17-2.6,1.62,1.62,0,0,1,1.46.74h0v-2.89Zm-.88,4.23a1.55,1.55,0,0,0,0-.37,1.29,1.29,0,0,0-1.27-1c-.91,0-1.45.8-1.45,1.87s.48,1.79,1.43,1.79a1.32,1.32,0,0,0,1.29-1.05,1.53,1.53,0,0,0,0-.38Z"/><path class="cls-4" d="M351.31,426.85h.87v6h2.88v.73h-3.75Z"/><path class="cls-4" d="M360.34,431.13a2.37,2.37,0,0,1-2.41,2.57,2.3,2.3,0,0,1-2.32-2.49,2.36,2.36,0,0,1,2.4-2.57A2.29,2.29,0,0,1,360.34,431.13Zm-3.84.05c0,1.06.61,1.86,1.47,1.86s1.47-.79,1.47-1.88c0-.82-.41-1.86-1.45-1.86S356.5,430.26,356.5,431.18Z"/><path class="cls-4" d="M364.23,433.59l-.07-.61h0a1.8,1.8,0,0,1-1.48.72,1.38,1.38,0,0,1-1.48-1.39c0-1.17,1-1.81,2.91-1.8v-.1a1,1,0,0,0-1.1-1.12,2.41,2.41,0,0,0-1.26.36l-.2-.58a3,3,0,0,1,1.59-.43c1.48,0,1.84,1,1.84,2v1.81a6.81,6.81,0,0,0,.08,1.16Zm-.13-2.47c-1,0-2.05.15-2.05,1.09a.78.78,0,0,0,.83.84,1.2,1.2,0,0,0,1.17-.81.92.92,0,0,0,.05-.28Z"/><path class="cls-4" d="M370.65,426.49v5.85c0,.43,0,.92,0,1.25h-.79l0-.84h0a1.79,1.79,0,0,1-1.65.95,2.21,2.21,0,0,1-2.07-2.46,2.32,2.32,0,0,1,2.17-2.6,1.62,1.62,0,0,1,1.46.74h0v-2.89Zm-.88,4.23a1.55,1.55,0,0,0,0-.37,1.29,1.29,0,0,0-1.27-1c-.91,0-1.45.8-1.45,1.87s.48,1.79,1.43,1.79a1.32,1.32,0,0,0,1.29-1.05,1.53,1.53,0,0,0,0-.38Z"/><path class="cls-4" d="M374.46,426.94a8.43,8.43,0,0,1,1.59-.14,2.79,2.79,0,0,1,1.85.49,1.41,1.41,0,0,1,.56,1.19,1.6,1.6,0,0,1-1.14,1.48v0a1.74,1.74,0,0,1,1.39,1.69,1.82,1.82,0,0,1-.57,1.35,3.39,3.39,0,0,1-2.33.63,10.17,10.17,0,0,1-1.35-.08Zm.87,2.76h.79c.92,0,1.46-.48,1.46-1.13s-.6-1.1-1.48-1.1a3.73,3.73,0,0,0-.77.06Zm0,3.23a4.65,4.65,0,0,0,.73,0c.9,0,1.73-.33,1.73-1.31s-.79-1.3-1.74-1.3h-.72Z"/><path class="cls-4" d="M382.63,433.59l-.07-.61h0a1.8,1.8,0,0,1-1.48.72,1.38,1.38,0,0,1-1.48-1.39c0-1.17,1-1.81,2.91-1.8v-.1a1,1,0,0,0-1.1-1.12,2.41,2.41,0,0,0-1.26.36l-.2-.58a3,3,0,0,1,1.59-.43c1.48,0,1.84,1,1.84,2v1.81a6.81,6.81,0,0,0,.08,1.16Zm-.13-2.47c-1,0-2.05.15-2.05,1.09a.78.78,0,0,0,.83.84,1.2,1.2,0,0,0,1.17-.81.92.92,0,0,0,.05-.28Z"/><path class="cls-4" d="M384.87,426.49h.88v7.1h-.88Z"/><path class="cls-4" d="M390,433.59l-.07-.61h0a1.8,1.8,0,0,1-1.48.72,1.38,1.38,0,0,1-1.48-1.39c0-1.17,1-1.81,2.91-1.8v-.1a1,1,0,0,0-1.1-1.12,2.41,2.41,0,0,0-1.26.36l-.2-.58a3,3,0,0,1,1.59-.43c1.48,0,1.84,1,1.84,2v1.81a6.81,6.81,0,0,0,.08,1.16Zm-.13-2.47c-1,0-2.05.15-2.05,1.09a.78.78,0,0,0,.83.84,1.2,1.2,0,0,0,1.17-.81.92.92,0,0,0,.05-.28Z"/><path class="cls-4" d="M392.25,430.06c0-.5,0-.91,0-1.31H393l.05.8h0a1.78,1.78,0,0,1,1.6-.91c.67,0,1.71.4,1.71,2.06v2.89h-.88V430.8c0-.78-.29-1.43-1.12-1.43a1.25,1.25,0,0,0-1.18.9,1.27,1.27,0,0,0-.06.41v2.91h-.88Z"/><path class="cls-4" d="M401.35,433.41a3.24,3.24,0,0,1-1.39.28,2.3,2.3,0,0,1-2.41-2.47,2.46,2.46,0,0,1,2.6-2.57,2.94,2.94,0,0,1,1.22.25l-.2.68a2,2,0,0,0-1-.23,1.82,1.82,0,0,0,0,3.64,2.5,2.5,0,0,0,1.08-.24Z"/><path class="cls-4" d="M402.91,431.33a1.55,1.55,0,0,0,1.66,1.68,3.18,3.18,0,0,0,1.34-.25l.15.63a3.92,3.92,0,0,1-1.61.3,2.25,2.25,0,0,1-2.38-2.44,2.35,2.35,0,0,1,2.27-2.61,2,2,0,0,1,2,2.28,3.81,3.81,0,0,1,0,.41Zm2.58-.63a1.25,1.25,0,0,0-1.22-1.43,1.46,1.46,0,0,0-1.35,1.43Z"/><path class="cls-4" d="M407.53,430.26c0-.57,0-1.06,0-1.51h.77l0,.95h0a1.45,1.45,0,0,1,1.34-1.06,1,1,0,0,1,.25,0v.83a1.32,1.32,0,0,0-.3,0,1.23,1.23,0,0,0-1.18,1.13,2.48,2.48,0,0,0,0,.41v2.58h-.87Z"/><path class="cls-4" d="M410.37,434.79a6.71,6.71,0,0,0,1.26-4.08,6.63,6.63,0,0,0-1.26-4.06h.68a6.37,6.37,0,0,1,1.31,4.07,6.44,6.44,0,0,1-1.31,4.07Z"/><path class="cls-4" d="M322.8,438.65a6.59,6.59,0,0,0-1.26,4.09,6.68,6.68,0,0,0,1.26,4.05h-.69a6.41,6.41,0,0,1-1.31-4.05,6.6,6.6,0,0,1,1.31-4.09Z"/><path class="cls-4" d="M323.86,445.59v-6.74h.95l2.16,3.41a19.08,19.08,0,0,1,1.21,2.19h0c-.08-.9-.1-1.72-.1-2.77v-2.82h.82v6.74H328l-2.14-3.42a21.39,21.39,0,0,1-1.26-2.25h0c.05.85.07,1.66.07,2.78v2.88Z"/><path class="cls-4" d="M334.89,443.13a2.37,2.37,0,0,1-2.41,2.57,2.3,2.3,0,0,1-2.32-2.49,2.36,2.36,0,0,1,2.4-2.57A2.29,2.29,0,0,1,334.89,443.13Zm-3.84.05c0,1.06.61,1.86,1.47,1.86s1.47-.79,1.47-1.88c0-.82-.41-1.86-1.45-1.86S331.05,442.26,331.05,443.18Z"/><path class="cls-4" d="M336.37,440.75l.95,2.72a12.45,12.45,0,0,1,.39,1.24h0c.11-.4.25-.8.41-1.24l.94-2.72H340l-1.9,4.84h-.84l-1.84-4.84Z"/><path class="cls-4" d="M343.58,445.59l-.07-.61h0a1.8,1.8,0,0,1-1.48.72,1.38,1.38,0,0,1-1.48-1.39c0-1.17,1-1.81,2.91-1.8v-.1a1,1,0,0,0-1.1-1.12,2.41,2.41,0,0,0-1.26.36l-.2-.58a3,3,0,0,1,1.59-.43c1.48,0,1.84,1,1.84,2v1.81a6.81,6.81,0,0,0,.08,1.16Zm-.13-2.47c-1,0-2.05.15-2.05,1.09a.78.78,0,0,0,.83.84,1.2,1.2,0,0,0,1.17-.81.92.92,0,0,0,.05-.28Z"/><path class="cls-4" d="M348.94,438.85v6.74h-.87v-6.74Z"/><path class="cls-4" d="M350.63,442.06c0-.5,0-.91,0-1.31h.78l.05.8h0a1.78,1.78,0,0,1,1.6-.91c.67,0,1.71.4,1.71,2.06v2.89h-.88V442.8c0-.78-.29-1.43-1.12-1.43a1.25,1.25,0,0,0-1.18.9,1.27,1.27,0,0,0-.06.41v2.91h-.88Z"/><path class="cls-4" d="M356.16,444.69a2.31,2.31,0,0,0,1.16.35c.64,0,.94-.32.94-.72s-.25-.65-.9-.89c-.87-.31-1.28-.79-1.28-1.37a1.49,1.49,0,0,1,1.67-1.42,2.42,2.42,0,0,1,1.19.3l-.22.64a1.88,1.88,0,0,0-1-.28c-.52,0-.81.3-.81.66s.29.58.92.82c.84.32,1.27.74,1.27,1.46s-.66,1.45-1.81,1.45a2.76,2.76,0,0,1-1.36-.33Z"/><path class="cls-4" d="M361.4,439.36v1.39h1.26v.67H361.4V444c0,.6.17.94.66.94a2,2,0,0,0,.51-.06l0,.66a2.15,2.15,0,0,1-.78.12,1.22,1.22,0,0,1-.95-.37,1.79,1.79,0,0,1-.34-1.26v-2.64h-.75v-.67h.75v-1.16Z"/><path class="cls-4" d="M366.43,445.59l-.07-.61h0a1.8,1.8,0,0,1-1.48.72,1.38,1.38,0,0,1-1.48-1.39c0-1.17,1-1.81,2.91-1.8v-.1a1,1,0,0,0-1.1-1.12,2.41,2.41,0,0,0-1.26.36l-.2-.58a3,3,0,0,1,1.59-.43c1.48,0,1.84,1,1.84,2v1.81a6.81,6.81,0,0,0,.08,1.16Zm-.13-2.47c-1,0-2.05.15-2.05,1.09a.78.78,0,0,0,.83.84,1.2,1.2,0,0,0,1.17-.81.92.92,0,0,0,.05-.28Z"/><path class="cls-4" d="M368.67,442.06c0-.5,0-.91,0-1.31h.78l0,.8h0a1.78,1.78,0,0,1,1.6-.91c.67,0,1.71.4,1.71,2.06v2.89h-.88V442.8c0-.78-.29-1.43-1.12-1.43a1.25,1.25,0,0,0-1.18.9,1.27,1.27,0,0,0-.06.41v2.91h-.88Z"/><path class="cls-4" d="M377.77,445.41a3.24,3.24,0,0,1-1.39.28,2.3,2.3,0,0,1-2.41-2.47,2.46,2.46,0,0,1,2.6-2.57,2.94,2.94,0,0,1,1.22.25l-.2.68a2,2,0,0,0-1-.23,1.82,1.82,0,0,0,0,3.64,2.5,2.5,0,0,0,1.08-.24Z"/><path class="cls-4" d="M379.33,443.33A1.55,1.55,0,0,0,381,445a3.18,3.18,0,0,0,1.34-.25l.15.63a3.92,3.92,0,0,1-1.61.3,2.25,2.25,0,0,1-2.38-2.44,2.35,2.35,0,0,1,2.27-2.61,2.05,2.05,0,0,1,2,2.28,3.32,3.32,0,0,1,0,.41Zm2.58-.63a1.25,1.25,0,0,0-1.22-1.43,1.46,1.46,0,0,0-1.35,1.43Z"/><path class="cls-4" d="M383.83,444.69A2.31,2.31,0,0,0,385,445c.64,0,.94-.32.94-.72s-.25-.65-.9-.89c-.87-.31-1.28-.79-1.28-1.37a1.49,1.49,0,0,1,1.67-1.42,2.42,2.42,0,0,1,1.19.3l-.22.64a1.88,1.88,0,0,0-1-.28c-.52,0-.81.3-.81.66s.29.58.92.82c.84.32,1.27.74,1.27,1.46s-.66,1.45-1.81,1.45a2.76,2.76,0,0,1-1.36-.33Z"/><path class="cls-4" d="M387.48,446.79a6.71,6.71,0,0,0,1.26-4.08,6.63,6.63,0,0,0-1.26-4.06h.68a6.37,6.37,0,0,1,1.31,4.07,6.44,6.44,0,0,1-1.31,4.07Z"/><line class="cls-2" x1="449.2" y1="237.74" x2="449.2" y2="325"/><polygon class="cls-3" points="446.29 239.72 449.2 228.88 452.1 239.72 446.29 239.72"/><line class="cls-2" x1="348.21" y1="323.88" x2="348.21" y2="360.14"/><polygon class="cls-3" points="345.31 358.16 348.21 369 351.12 358.16 345.31 358.16"/><line class="cls-2" x1="422.21" y1="323.88" x2="422.21" y2="360.14"/><polygon class="cls-3" points="419.31 358.16 422.21 369 425.12 358.16 419.31 358.16"/><circle class="cls-29" cx="372.86" cy="380.49" r="3.37"/><circle class="cls-29" cx="322" cy="380.49" r="5.9"/><line class="cls-30" x1="336.02" y1="380.49" x2="327.9" y2="380.49"/><line class="cls-30" x1="369.19" y1="380.49" x2="361.06" y2="380.49"/><circle class="cls-29" cx="365.04" cy="363.64" r="3.37"/><line class="cls-30" x1="362.44" y1="366.24" x2="357.22" y2="371.46"/><circle class="cls-29" cx="365.04" cy="397.33" r="3.37"/><line class="cls-30" x1="362.44" y1="394.74" x2="357.22" y2="389.52"/><path class="cls-31" d="M336.4,375.42v10.14a3.39,3.39,0,0,0,1.68,2.92l8.78,5.06a3.38,3.38,0,0,0,3.37,0l8.77-5.06a3.38,3.38,0,0,0,1.69-2.92V375.42A3.36,3.36,0,0,0,359,372.5l-8.77-5.06a3.33,3.33,0,0,0-3.37,0l-8.78,5.06A3.38,3.38,0,0,0,336.4,375.42Z"/><polyline class="cls-32" points="344.33 384.7 348.54 376.27 352.76 384.7"/><circle class="cls-29" cx="446.93" cy="380.49" r="3.37"/><circle class="cls-29" cx="396.06" cy="380.49" r="5.9"/><line class="cls-30" x1="410.09" y1="380.49" x2="401.96" y2="380.49"/><line class="cls-30" x1="443.26" y1="380.49" x2="435.13" y2="380.49"/><circle class="cls-29" cx="439.11" cy="363.64" r="3.37"/><line class="cls-30" x1="436.51" y1="366.24" x2="431.29" y2="371.46"/><circle class="cls-29" cx="439.11" cy="397.33" r="3.37"/><line class="cls-30" x1="436.51" y1="394.74" x2="431.29" y2="389.52"/><path class="cls-31" d="M410.46,375.42v10.14a3.38,3.38,0,0,0,1.69,2.92l8.77,5.06a3.38,3.38,0,0,0,3.37,0l8.78-5.06a3.4,3.4,0,0,0,1.69-2.92V375.42a3.39,3.39,0,0,0-1.69-2.92l-8.78-5.06a3.33,3.33,0,0,0-3.37,0l-8.77,5.06A3.36,3.36,0,0,0,410.46,375.42Z"/><polyline class="cls-32" points="418.39 384.7 422.61 376.27 426.82 384.7"/><circle class="cls-29" cx="563.86" cy="380.49" r="3.37"/><circle class="cls-29" cx="513" cy="380.49" r="5.9"/><line class="cls-30" x1="527.02" y1="380.49" x2="518.9" y2="380.49"/><line class="cls-30" x1="560.19" y1="380.49" x2="552.06" y2="380.49"/><circle class="cls-29" cx="556.04" cy="363.64" r="3.37"/><line class="cls-30" x1="553.44" y1="366.24" x2="548.22" y2="371.46"/><circle class="cls-29" cx="556.04" cy="397.33" r="3.37"/><line class="cls-30" x1="553.44" y1="394.74" x2="548.22" y2="389.52"/><path class="cls-31" d="M527.4,375.42v10.14a3.39,3.39,0,0,0,1.68,2.92l8.78,5.06a3.38,3.38,0,0,0,3.37,0l8.77-5.06a3.38,3.38,0,0,0,1.69-2.92V375.42A3.36,3.36,0,0,0,550,372.5l-8.77-5.06a3.33,3.33,0,0,0-3.37,0l-8.78,5.06A3.38,3.38,0,0,0,527.4,375.42Z"/><polyline class="cls-32" points="535.33 384.7 539.54 376.27 543.76 384.7"/><line class="cls-2" x1="240.62" y1="323.88" x2="240.62" y2="360.14"/><polygon class="cls-3" points="237.71 358.16 240.62 369 243.52 358.16 237.71 358.16"/><circle class="cls-29" cx="193.69" cy="380.49" r="3.37"/><circle class="cls-29" cx="142.82" cy="380.49" r="5.9"/><line class="cls-30" x1="156.85" y1="380.49" x2="148.72" y2="380.49"/><line class="cls-30" x1="190.02" y1="380.49" x2="181.89" y2="380.49"/><circle class="cls-29" cx="185.87" cy="363.64" r="3.37"/><line class="cls-30" x1="183.27" y1="366.24" x2="178.05" y2="371.46"/><circle class="cls-29" cx="185.87" cy="397.33" r="3.37"/><line class="cls-30" x1="183.27" y1="394.74" x2="178.05" y2="389.52"/><path class="cls-31" d="M157.22,375.42v10.14a3.4,3.4,0,0,0,1.69,2.92l8.77,5.06a3.4,3.4,0,0,0,3.38,0l8.77-5.06a3.4,3.4,0,0,0,1.69-2.92V375.42a3.39,3.39,0,0,0-1.69-2.92l-8.77-5.06a3.35,3.35,0,0,0-3.38,0l-8.77,5.06A3.39,3.39,0,0,0,157.22,375.42Z"/><polyline class="cls-32" points="165.16 384.7 169.37 376.27 173.58 384.7"/><circle class="cls-29" cx="265.86" cy="380.49" r="3.37"/><circle class="cls-29" cx="215" cy="380.49" r="5.9"/><line class="cls-30" x1="229.02" y1="380.49" x2="220.9" y2="380.49"/><line class="cls-30" x1="262.19" y1="380.49" x2="254.06" y2="380.49"/><circle class="cls-29" cx="258.04" cy="363.64" r="3.37"/><line class="cls-30" x1="255.44" y1="366.24" x2="250.22" y2="371.46"/><circle class="cls-29" cx="258.04" cy="397.33" r="3.37"/><line class="cls-30" x1="255.44" y1="394.74" x2="250.22" y2="389.52"/><path class="cls-31" d="M229.39,375.42v10.14a3.4,3.4,0,0,0,1.69,2.92l8.78,5.06a3.38,3.38,0,0,0,3.37,0l8.77-5.06a3.38,3.38,0,0,0,1.69-2.92V375.42A3.36,3.36,0,0,0,252,372.5l-8.77-5.06a3.33,3.33,0,0,0-3.37,0l-8.78,5.06A3.39,3.39,0,0,0,229.39,375.42Z"/><polyline class="cls-32" points="237.33 384.7 241.54 376.27 245.76 384.7"/></svg>