<?xml version="1.0" encoding="utf-8"?>
<!-- Generator: Adobe Illustrator 26.0.1, SVG Export Plug-In . SVG Version: 6.00 Build 0)  -->
<svg version="1.1" id="Layer_1" xmlns="http://www.w3.org/2000/svg" xmlns:xlink="http://www.w3.org/1999/xlink" x="0px" y="0px"
	 viewBox="0 0 842 413.9" style="enable-background:new 0 0 842 413.9;" xml:space="preserve">
<style type="text/css">
	.st0{fill-rule:evenodd;clip-rule:evenodd;fill-opacity:0;}
	.st1{fill:none;stroke:#D9D9D9;stroke-width:2;stroke-miterlimit:10;}
	.st2{fill:#717074;}
	.st3{fill:#B5B5B5;}
	.st4{fill-rule:evenodd;clip-rule:evenodd;fill:url(#SVGID_1_);}
	.st5{fill-rule:evenodd;clip-rule:evenodd;fill:#FFFFFF;}
	.st6{fill:none;stroke:#D9D9D9;stroke-width:3;stroke-miterlimit:10;}
	.st7{fill-rule:evenodd;clip-rule:evenodd;fill:#717074;}
	.st8{fill:#FFFFFF;}
	.st9{fill:none;stroke:#717074;stroke-width:2.6667;stroke-miterlimit:10;stroke-dasharray:2.6667,8;}
	.st10{fill:none;stroke:#7F35B2;stroke-width:3;stroke-linejoin:round;stroke-miterlimit:10;}
	.st11{fill:none;stroke:#00C1D5;stroke-width:3;stroke-linejoin:round;stroke-miterlimit:10;}
	.st12{fill:#727074;}
	.st13{fill:#FF4B00;}
	.st14{fill:none;stroke:#FFFFFF;stroke-width:1.4906;stroke-miterlimit:10;}
	
		.st15{opacity:0.3;fill:none;stroke:#FFFFFF;stroke-width:1.4906;stroke-linecap:round;stroke-miterlimit:10;enable-background:new    ;}
	.st16{fill-rule:evenodd;clip-rule:evenodd;fill:#727074;}
	.st17{fill:none;stroke:#495565;stroke-miterlimit:10;}
	.st18{fill:none;stroke:#495565;stroke-linecap:round;stroke-miterlimit:10;}
	.st19{fill:none;stroke:#FFFFFF;stroke-width:1.0663;stroke-linecap:round;stroke-linejoin:round;}
	.st20{fill:#252F3E;}
	.st21{fill-rule:evenodd;clip-rule:evenodd;fill:#F7981D;}
	.st22{fill:#3760AC;}
	.st23{fill:#E94435;}
	.st24{fill:#547DBE;}
	.st25{fill:#34A751;}
	.st26{fill:#F8BB15;}
	.st27{fill:#057DB7;}
</style>
<path class="st0" d="M831.8,287.9H27.5"/>
<path class="st1" d="M831.8,287.9H27.5"/>
<path class="st2" d="M252.5,84.4l4.4-11.5h1.6l4.7,11.5h-1.7l-1.3-3.5h-4.8l-1.2,3.5H252.5z M255.9,79.7h3.9l-1.2-3.2
	c-0.4-1-0.6-1.8-0.8-2.4c-0.1,0.7-0.3,1.5-0.6,2.2L255.9,79.7z M266.3,84.4l-3.2-8.3h1.5l1.8,5c0.2,0.5,0.4,1.1,0.5,1.7
	c0.1-0.4,0.3-1,0.5-1.6l1.8-5.1h1.4l-3.1,8.3H266.3z M272,74.5v-1.6h1.4v1.6H272z M272,84.4v-8.3h1.4v8.3H272z M280.2,84.4V72.9h4.3
	c0.8,0,1.3,0,1.7,0.1c0.6,0.1,1,0.3,1.4,0.5c0.4,0.3,0.7,0.6,0.9,1.1c0.2,0.5,0.4,1,0.4,1.6c0,1-0.3,1.8-0.9,2.5s-1.7,1-3.4,1h-2.9
	v4.7C281.7,84.4,280.2,84.4,280.2,84.4z M281.7,78.4h3c1,0,1.7-0.2,2.1-0.5c0.4-0.4,0.6-0.9,0.6-1.5c0-0.5-0.1-0.9-0.4-1.2
	c-0.2-0.3-0.6-0.6-1-0.7c-0.3-0.1-0.7-0.1-1.4-0.1h-2.9L281.7,78.4L281.7,78.4z M298.4,72.9h1.5v6.6c0,1.2-0.1,2.1-0.4,2.8
	c-0.3,0.7-0.7,1.2-1.4,1.7c-0.7,0.4-1.6,0.6-2.7,0.6s-2-0.2-2.6-0.6c-0.7-0.4-1.2-0.9-1.5-1.6s-0.4-1.7-0.4-2.9v-6.6h1.5v6.6
	c0,1,0.1,1.7,0.3,2.2c0.2,0.5,0.5,0.8,1,1.1c0.5,0.2,1,0.4,1.7,0.4c1.1,0,1.9-0.2,2.4-0.8c0.5-0.5,0.7-1.5,0.7-2.9v-6.6H298.4z
	 M302.4,84.4V72.9h1.5V83h5.6v1.4H302.4z M310.8,80.7l1.4-0.1c0.1,0.6,0.2,1,0.5,1.4c0.2,0.4,0.6,0.7,1.2,0.9
	c0.5,0.2,1.1,0.3,1.8,0.3c0.6,0,1.1-0.1,1.5-0.2c0.4-0.2,0.8-0.4,1-0.7c0.2-0.3,0.3-0.6,0.3-1s-0.1-0.7-0.3-0.9
	c-0.2-0.3-0.6-0.5-1-0.7c-0.3-0.1-1-0.3-2-0.5c-1.1-0.3-1.8-0.5-2.2-0.7c-0.5-0.3-0.9-0.6-1.2-1.1c-0.3-0.4-0.4-0.9-0.4-1.4
	c0-0.6,0.2-1.1,0.5-1.6s0.8-0.9,1.4-1.2c0.6-0.3,1.3-0.4,2.1-0.4c0.9,0,1.6,0.1,2.2,0.4s1.1,0.7,1.5,1.2s0.5,1.1,0.6,1.8l-1.5,0.1
	c-0.1-0.7-0.3-1.3-0.8-1.6c-0.4-0.4-1.1-0.6-2-0.6s-1.6,0.2-2,0.5s-0.6,0.7-0.6,1.2c0,0.4,0.1,0.7,0.4,1s1.1,0.5,2.3,0.8
	c1.2,0.3,2.1,0.5,2.5,0.7c0.7,0.3,1.2,0.7,1.5,1.2s0.5,1,0.5,1.6s-0.2,1.2-0.5,1.7s-0.8,1-1.5,1.3s-1.4,0.5-2.2,0.5
	c-1,0-1.9-0.2-2.6-0.5s-1.3-0.8-1.7-1.4C311,82.2,310.8,81.5,310.8,80.7z M322,84.4V72.9h8.3v1.3h-6.8v3.5h6.3V79h-6.3v4h7v1.4H322z
	"/>
<path class="st3" d="M30,315.4v-9.5h3.3c0.7,0,1.3,0,1.7,0.1c0.5,0.1,1,0.4,1.4,0.7c0.5,0.4,0.9,1,1.1,1.6c0.2,0.7,0.4,1.4,0.4,2.2
	c0,0.7-0.1,1.4-0.3,1.9c-0.2,0.6-0.4,1-0.7,1.4s-0.5,0.7-0.9,0.9s-0.7,0.4-1.1,0.5c-0.4,0.1-0.9,0.2-1.5,0.2L30,315.4L30,315.4z
	 M31.3,314.2h2c0.6,0,1.1-0.1,1.5-0.2s0.7-0.3,0.9-0.5c0.3-0.3,0.5-0.7,0.7-1.2s0.2-1.1,0.2-1.8c0-1-0.2-1.8-0.5-2.3
	s-0.7-0.9-1.2-1.1c-0.3-0.1-0.9-0.2-1.6-0.2h-2C31.3,306.9,31.3,314.2,31.3,314.2z M44,314.5c-0.4,0.4-0.9,0.6-1.3,0.8
	c-0.4,0.1-0.8,0.2-1.3,0.2c-0.8,0-1.3-0.2-1.8-0.5c-0.4-0.4-0.6-0.9-0.6-1.4c0-0.3,0.1-0.6,0.2-0.9c0.2-0.3,0.4-0.5,0.6-0.7
	s0.5-0.3,0.8-0.4c0.2-0.1,0.6-0.1,1-0.2c0.9-0.1,1.6-0.2,2.1-0.4c0-0.2,0-0.3,0-0.3c0-0.5-0.1-0.8-0.3-1c-0.3-0.3-0.8-0.4-1.3-0.4
	s-0.9,0.1-1.2,0.3c-0.3,0.2-0.5,0.5-0.6,1l-1.1-0.2c0.1-0.5,0.3-0.9,0.5-1.2c0.2-0.3,0.6-0.5,1-0.7s1-0.2,1.6-0.2s1.1,0.1,1.4,0.2
	c0.4,0.1,0.6,0.3,0.8,0.5s0.3,0.5,0.4,0.8c0,0.2,0,0.6,0,1.1v1.6c0,1.1,0,1.8,0.1,2.1c0.1,0.3,0.2,0.6,0.3,0.8h-1.2
	C44.1,315.1,44,314.8,44,314.5z M43.9,311.9c-0.4,0.2-1.1,0.3-1.9,0.4c-0.5,0.1-0.8,0.2-1,0.2c-0.2,0.1-0.4,0.2-0.5,0.4
	c-0.1,0.2-0.2,0.3-0.2,0.5c0,0.3,0.1,0.6,0.3,0.8c0.2,0.2,0.6,0.3,1,0.3s0.8-0.1,1.2-0.3c0.4-0.2,0.6-0.5,0.8-0.8
	c0.1-0.3,0.2-0.7,0.2-1.2v-0.3H43.9z M49.5,314.3l0.2,1c-0.3,0.1-0.6,0.1-0.9,0.1c-0.4,0-0.8-0.1-1-0.2s-0.4-0.3-0.5-0.5
	s-0.1-0.7-0.1-1.4v-4h-0.9v-0.9h0.9v-1.7l1.2-0.7v2.4h1.2v0.9h-1.2v4c0,0.3,0,0.5,0,0.6s0.1,0.2,0.2,0.2c0.1,0.1,0.2,0.1,0.4,0.1
	C49.1,314.4,49.3,314.3,49.5,314.3z M55.1,314.5c-0.4,0.4-0.9,0.6-1.3,0.8c-0.4,0.1-0.8,0.2-1.3,0.2c-0.8,0-1.3-0.2-1.8-0.5
	c-0.4-0.4-0.6-0.9-0.6-1.4c0-0.3,0.1-0.6,0.2-0.9c0.2-0.3,0.4-0.5,0.6-0.7s0.5-0.3,0.8-0.4c0.2-0.1,0.6-0.1,1-0.2
	c0.9-0.1,1.6-0.2,2.1-0.4c0-0.2,0-0.3,0-0.3c0-0.5-0.1-0.8-0.3-1c-0.3-0.3-0.8-0.4-1.3-0.4s-0.9,0.1-1.2,0.3c-0.3,0.2-0.5,0.5-0.6,1
	l-1.1-0.2c0.1-0.5,0.3-0.9,0.5-1.2s0.6-0.5,1-0.7s1-0.2,1.6-0.2s1.1,0.1,1.4,0.2c0.4,0.1,0.6,0.3,0.8,0.5s0.3,0.5,0.4,0.8
	c0,0.2,0,0.6,0,1.1v1.6c0,1.1,0,1.8,0.1,2.1s0.2,0.6,0.3,0.8h-1.2C55.2,315.1,55.2,314.8,55.1,314.5z M55,311.9
	c-0.4,0.2-1.1,0.3-1.9,0.4c-0.5,0.1-0.8,0.2-1,0.2c-0.2,0.1-0.4,0.2-0.5,0.4c-0.1,0.2-0.2,0.3-0.2,0.5c0,0.3,0.1,0.6,0.3,0.8
	c0.2,0.2,0.6,0.3,1,0.3s0.8-0.1,1.2-0.3s0.6-0.5,0.8-0.8c0.1-0.3,0.2-0.7,0.2-1.2v-0.3H55z M61.9,315.4v-9.5h3.6
	c0.6,0,1.1,0,1.5,0.1c0.5,0.1,0.9,0.2,1.2,0.5c0.3,0.2,0.6,0.5,0.8,0.9c0.2,0.4,0.3,0.8,0.3,1.3c0,0.8-0.3,1.5-0.8,2.1
	s-1.4,0.8-2.8,0.8h-2.4v3.9L61.9,315.4L61.9,315.4z M63.1,310.4h2.5c0.8,0,1.4-0.2,1.8-0.5c0.3-0.3,0.5-0.7,0.5-1.3
	c0-0.4-0.1-0.8-0.3-1c-0.2-0.3-0.5-0.5-0.8-0.6c-0.2-0.1-0.6-0.1-1.2-0.1h-2.4L63.1,310.4L63.1,310.4z M70.6,315.4v-9.5h1.2v9.5
	H70.6z M78.1,314.5c-0.4,0.4-0.9,0.6-1.3,0.8c-0.4,0.1-0.8,0.2-1.3,0.2c-0.8,0-1.3-0.2-1.8-0.5c-0.4-0.4-0.6-0.9-0.6-1.4
	c0-0.3,0.1-0.6,0.2-0.9c0.2-0.3,0.4-0.5,0.6-0.7s0.5-0.3,0.8-0.4c0.2-0.1,0.6-0.1,1-0.2c0.9-0.1,1.6-0.2,2.1-0.4c0-0.2,0-0.3,0-0.3
	c0-0.5-0.1-0.8-0.3-1c-0.3-0.3-0.8-0.4-1.3-0.4s-0.9,0.1-1.2,0.3c-0.3,0.2-0.5,0.5-0.6,1l-1.1-0.2c0.1-0.5,0.3-0.9,0.5-1.2
	s0.6-0.5,1-0.7s1-0.2,1.6-0.2s1.1,0.1,1.4,0.2c0.4,0.1,0.6,0.3,0.8,0.5c0.2,0.2,0.3,0.5,0.4,0.8c0,0.2,0,0.6,0,1.1v1.6
	c0,1.1,0,1.8,0.1,2.1s0.2,0.6,0.3,0.8h-1.2C78.2,315.1,78.1,314.8,78.1,314.5z M78,311.9c-0.4,0.2-1.1,0.3-1.9,0.4
	c-0.5,0.1-0.8,0.2-1,0.2c-0.2,0.1-0.4,0.2-0.5,0.4c-0.1,0.2-0.2,0.3-0.2,0.5c0,0.3,0.1,0.6,0.3,0.8c0.2,0.2,0.6,0.3,1,0.3
	s0.8-0.1,1.2-0.3s0.6-0.5,0.8-0.8c0.1-0.3,0.2-0.7,0.2-1.2L78,311.9L78,311.9z M81,315.4v-6.9h1v1c0.5-0.8,1.2-1.1,2.2-1.1
	c0.4,0,0.8,0.1,1.2,0.2s0.6,0.3,0.8,0.6c0.2,0.2,0.3,0.5,0.4,0.9c0,0.2,0.1,0.6,0.1,1.1v4.2h-1.2v-4.2c0-0.5,0-0.8-0.1-1.1
	c-0.1-0.2-0.3-0.4-0.5-0.6c-0.2-0.1-0.5-0.2-0.8-0.2c-0.5,0-0.9,0.2-1.3,0.5s-0.5,0.9-0.5,1.8v3.8L81,315.4L81,315.4z M93.1,313.1
	l1.2,0.1c-0.2,0.7-0.5,1.3-1.1,1.7c-0.5,0.4-1.2,0.6-2,0.6c-1,0-1.8-0.3-2.4-0.9S88,313.1,88,312c0-1.2,0.3-2.1,0.9-2.7s1.4-1,2.3-1
	s1.7,0.3,2.3,0.9s0.9,1.5,0.9,2.7c0,0.1,0,0.2,0,0.3h-5.2c0,0.8,0.3,1.3,0.6,1.8c0.4,0.4,0.9,0.6,1.4,0.6c0.4,0,0.8-0.1,1.1-0.3
	C92.7,314,93,313.6,93.1,313.1z M89.3,311.2h3.9c-0.1-0.6-0.2-1-0.4-1.3c-0.4-0.5-0.9-0.7-1.5-0.7c-0.5,0-1,0.2-1.4,0.5
	C89.5,310.2,89.3,310.6,89.3,311.2z"/>
<path class="st3" d="M36.8,265.3l1.3,0.3c-0.3,1-0.7,1.8-1.4,2.4c-0.7,0.5-1.5,0.8-2.5,0.8s-1.9-0.2-2.5-0.6c-0.6-0.4-1.1-1-1.5-1.8
	c-0.3-0.8-0.5-1.6-0.5-2.6s0.2-1.9,0.6-2.6s0.9-1.3,1.6-1.7c0.7-0.4,1.5-0.6,2.3-0.6c0.9,0,1.7,0.2,2.4,0.7s1.1,1.2,1.4,2l-1.2,0.3
	c-0.2-0.7-0.5-1.2-1-1.5c-0.4-0.3-0.9-0.5-1.6-0.5c-0.7,0-1.3,0.2-1.8,0.5c-0.5,0.4-0.8,0.8-1,1.4s-0.3,1.2-0.3,1.8
	c0,0.8,0.1,1.5,0.3,2.1c0.2,0.6,0.6,1.1,1.1,1.4s1,0.4,1.6,0.4c0.7,0,1.3-0.2,1.8-0.6C36.3,266.7,36.7,266.1,36.8,265.3z
	 M39.1,265.2c0-1.3,0.4-2.2,1.1-2.8c0.6-0.5,1.3-0.8,2.2-0.8s1.7,0.3,2.3,0.9s0.9,1.5,0.9,2.6c0,0.9-0.1,1.6-0.4,2.1
	c-0.3,0.5-0.6,0.9-1.2,1.2c-0.5,0.3-1.1,0.4-1.7,0.4c-1,0-1.8-0.3-2.4-0.9C39.3,267.3,39.1,266.4,39.1,265.2z M40.3,265.2
	c0,0.9,0.2,1.5,0.6,2c0.4,0.4,0.9,0.7,1.5,0.7s1.1-0.2,1.5-0.7c0.4-0.4,0.6-1.1,0.6-2s-0.2-1.5-0.6-1.9c-0.4-0.4-0.9-0.7-1.4-0.7
	c-0.6,0-1.1,0.2-1.5,0.7C40.4,263.7,40.3,264.3,40.3,265.2z M46.9,268.7v-6.9H48v1c0.5-0.8,1.2-1.1,2.2-1.1c0.4,0,0.8,0.1,1.2,0.2
	s0.6,0.3,0.8,0.6c0.2,0.2,0.3,0.5,0.4,0.9c0,0.2,0.1,0.6,0.1,1.1v4.2h-1.2v-4.2c0-0.5,0-0.8-0.1-1.1c-0.1-0.2-0.3-0.4-0.5-0.6
	c-0.2-0.1-0.5-0.2-0.8-0.2c-0.5,0-0.9,0.2-1.3,0.5c-0.4,0.3-0.5,0.9-0.5,1.8v3.8L46.9,268.7L46.9,268.7z M56.9,267.6l0.2,1
	c-0.3,0.1-0.6,0.1-0.9,0.1c-0.4,0-0.8-0.1-1-0.2s-0.4-0.3-0.5-0.5s-0.1-0.7-0.1-1.4v-4h-0.9v-0.9h0.9V260l1.2-0.7v2.4H57v0.9h-1.2v4
	c0,0.3,0,0.5,0,0.6s0.1,0.2,0.2,0.2c0.1,0.1,0.2,0.1,0.4,0.1C56.5,267.7,56.7,267.6,56.9,267.6z M58,268.7v-6.9h1.1v1
	c0.3-0.5,0.5-0.8,0.7-1s0.5-0.2,0.8-0.2c0.4,0,0.8,0.1,1.2,0.4l-0.4,1.1c-0.3-0.2-0.6-0.2-0.9-0.2c-0.3,0-0.5,0.1-0.7,0.2
	c-0.2,0.2-0.3,0.4-0.4,0.6c-0.1,0.4-0.2,0.9-0.2,1.4v3.6H58z M62,265.2c0-1.3,0.4-2.2,1.1-2.8c0.6-0.5,1.3-0.8,2.2-0.8
	c0.9,0,1.7,0.3,2.3,0.9c0.6,0.6,0.9,1.5,0.9,2.6c0,0.9-0.1,1.6-0.4,2.1s-0.6,0.9-1.2,1.2c-0.5,0.3-1.1,0.4-1.7,0.4
	c-1,0-1.8-0.3-2.4-0.9C62.3,267.3,62,266.4,62,265.2z M63.2,265.2c0,0.9,0.2,1.5,0.6,2c0.4,0.4,0.9,0.7,1.5,0.7
	c0.6,0,1.1-0.2,1.5-0.7c0.4-0.4,0.6-1.1,0.6-2s-0.2-1.5-0.6-1.9s-0.9-0.7-1.4-0.7c-0.6,0-1.1,0.2-1.5,0.7
	C63.4,263.7,63.2,264.3,63.2,265.2z M69.9,268.7v-9.5H71v9.5H69.9z M76.7,268.7v-9.5h3.6c0.6,0,1.1,0,1.5,0.1
	c0.5,0.1,0.9,0.2,1.2,0.5c0.3,0.2,0.6,0.5,0.8,0.9c0.2,0.4,0.3,0.8,0.3,1.3c0,0.8-0.3,1.5-0.8,2.1s-1.4,0.8-2.8,0.8H78v3.9
	L76.7,268.7L76.7,268.7z M78,263.7h2.5c0.8,0,1.4-0.2,1.8-0.5c0.3-0.3,0.5-0.7,0.5-1.3c0-0.4-0.1-0.8-0.3-1
	c-0.2-0.3-0.5-0.5-0.8-0.6c-0.2-0.1-0.6-0.1-1.2-0.1H78V263.7z M85.4,268.7v-9.5h1.2v9.5H85.4z M92.9,267.8
	c-0.4,0.4-0.9,0.6-1.3,0.8c-0.4,0.1-0.8,0.2-1.3,0.2c-0.8,0-1.3-0.2-1.8-0.5c-0.4-0.4-0.6-0.9-0.6-1.4c0-0.3,0.1-0.6,0.2-0.9
	c0.2-0.3,0.4-0.5,0.6-0.7s0.5-0.3,0.8-0.4c0.2-0.1,0.6-0.1,1-0.2c0.9-0.1,1.6-0.2,2.1-0.4c0-0.2,0-0.3,0-0.3c0-0.5-0.1-0.8-0.3-1
	c-0.3-0.3-0.8-0.4-1.3-0.4s-0.9,0.1-1.2,0.3c-0.3,0.2-0.5,0.5-0.6,1l-1.1-0.2c0.1-0.5,0.3-0.9,0.5-1.2c0.2-0.3,0.6-0.5,1-0.7
	s1-0.2,1.6-0.2s1.1,0.1,1.4,0.2c0.4,0.1,0.6,0.3,0.8,0.5c0.2,0.2,0.3,0.5,0.4,0.8c0,0.2,0,0.6,0,1.1v1.6c0,1.1,0,1.8,0.1,2.1
	c0.1,0.3,0.2,0.6,0.3,0.8H93C93,268.4,92.9,268.1,92.9,267.8z M92.8,265.2c-0.4,0.2-1.1,0.3-1.9,0.4c-0.5,0.1-0.8,0.2-1,0.2
	c-0.2,0.1-0.4,0.2-0.5,0.4c-0.1,0.2-0.2,0.3-0.2,0.5c0,0.3,0.1,0.6,0.3,0.8c0.2,0.2,0.6,0.3,1,0.3s0.8-0.1,1.2-0.3
	c0.4-0.2,0.6-0.5,0.8-0.8c0.1-0.3,0.2-0.7,0.2-1.2L92.8,265.2L92.8,265.2z M95.8,268.7v-6.9h1.1v1c0.5-0.8,1.2-1.1,2.2-1.1
	c0.4,0,0.8,0.1,1.2,0.2c0.4,0.1,0.6,0.3,0.8,0.6c0.2,0.2,0.3,0.5,0.4,0.9c0,0.2,0.1,0.6,0.1,1.1v4.2h-1.2v-4.2c0-0.5,0-0.8-0.1-1.1
	c-0.1-0.2-0.3-0.4-0.5-0.6c-0.2-0.1-0.5-0.2-0.8-0.2c-0.5,0-0.9,0.2-1.3,0.5S97,264,97,264.9v3.8L95.8,268.7L95.8,268.7z
	 M107.9,266.4l1.2,0.1c-0.2,0.7-0.5,1.3-1.1,1.7c-0.5,0.4-1.2,0.6-2,0.6c-1,0-1.8-0.3-2.4-0.9s-0.9-1.5-0.9-2.6
	c0-1.2,0.3-2.1,0.9-2.7s1.4-1,2.3-1s1.7,0.3,2.3,0.9s0.9,1.5,0.9,2.7c0,0.1,0,0.2,0,0.3H104c0,0.8,0.3,1.3,0.6,1.8
	c0.4,0.4,0.9,0.6,1.4,0.6c0.4,0,0.8-0.1,1.1-0.3C107.5,267.3,107.8,266.9,107.9,266.4z M104.1,264.5h3.9c-0.1-0.6-0.2-1-0.4-1.3
	c-0.4-0.5-0.9-0.7-1.5-0.7c-0.5,0-1,0.2-1.4,0.5C104.3,263.4,104.1,263.9,104.1,264.5z"/>
<linearGradient id="SVGID_1_" gradientUnits="userSpaceOnUse" x1="448.433" y1="-108.215" x2="448.433" y2="-99.7572" gradientTransform="matrix(8.4538 0 0 8.4538 -3264.7629 1070.4276)">
	<stop  offset="0" style="stop-color:#F2F2F2"/>
	<stop  offset="0.37" style="stop-color:#F2F2F2"/>
	<stop  offset="1" style="stop-color:#BFBFBF"/>
</linearGradient>
<path class="st4" d="M255.8,227.1l270.4-71.5l0,0l270.4,71.5H255.8z"/>
<path class="st5" d="M258.9,225.8h536.3v166.3H258.9V225.8z"/>
<path class="st6" d="M258.9,225.8h536.3v166.3H258.9V225.8z"/>
<path class="st7" d="M478.7,278.7c-1-11.2-9.5-20-19.9-20.3h-0.5c-8.5,0-15.8,5.7-18.9,13.8c-2.2-1.1-4.6-1.6-7.1-1.7h-0.4
	c-8.3,0-15.4,5.9-17,13.9c-1.1-0.3-2.3-0.5-3.4-0.5H411c-7.5,0-13.7,6-13.9,13.5c-0.2,7.7,6.8,14.7,14.5,14.9h1.6
	c9.2,0,53-0.2,62.1-0.2h1.9c7.8,0,14.2-7.3,14.4-16.5C492,286.9,486.2,279.4,478.7,278.7z M411.7,310c-6.3-0.2-12.2-6.2-12.1-12.4
	c0.2-6.2,5.2-11.1,11.4-11.2h0.3c0.9,0,1.9,0.1,2.8,0.4l2.5,0.7l0.6-2.6c1.5-6.9,7.5-11.9,14.6-12h0.4c2.1,0,4.2,0.5,6,1.4l2,1V310
	c-11.7,0-22.9,0.1-27,0.1L411.7,310z"/>
<path class="st8" d="M452.3,300.5l-3.7-9.5h1.4l2.5,6.9c0.2,0.6,0.4,1.1,0.5,1.6c0.1-0.5,0.3-1,0.5-1.6l2.6-6.9h1.3l-3.7,9.5H452.3z
	 M458.4,300.5V291h1.9l2.2,6.8c0.2,0.6,0.4,1.1,0.5,1.4c0.1-0.3,0.3-0.9,0.5-1.5l2.3-6.6h1.7v9.5h-1.2v-8l-2.8,8h-1.1l-2.8-8.1v8.1
	L458.4,300.5L458.4,300.5z M476.3,297.2l1.3,0.3c-0.3,1-0.7,1.8-1.4,2.4s-1.5,0.8-2.5,0.8s-1.9-0.2-2.5-0.6s-1.1-1-1.5-1.8
	c-0.3-0.8-0.5-1.6-0.5-2.6s0.2-1.9,0.6-2.6s0.9-1.3,1.6-1.7c0.7-0.4,1.5-0.6,2.3-0.6c0.9,0,1.7,0.2,2.4,0.7c0.7,0.5,1.1,1.2,1.4,2
	l-1.2,0.3c-0.2-0.7-0.5-1.2-1-1.5c-0.4-0.3-0.9-0.5-1.6-0.5s-1.3,0.2-1.8,0.5c-0.5,0.4-0.8,0.8-1,1.4s-0.3,1.2-0.3,1.8
	c0,0.8,0.1,1.5,0.3,2.1c0.2,0.6,0.6,1.1,1.1,1.4s1,0.4,1.6,0.4c0.7,0,1.3-0.2,1.8-0.6S476.2,298,476.3,297.2z"/>
<path class="st7" d="M590.5,260.2h0.4c9,0.2,16.4,7.9,17.4,17.9l0.2,2l2,0.2c6.2,0.6,11,6.9,10.8,14.5s-5.5,13.9-11.9,13.9h-1.9
	c-4.5,0-17.8,0-30.7,0.1s-26.4,0.1-31,0.1h-1.6c-6.3-0.2-12.1-6.1-12-12.3c0.2-6.1,5.1-11,11.3-11.1h0.3c0.9,0,1.9,0.1,2.8,0.4
	l2.5,0.7l0.5-2.6c1.5-6.9,7.5-11.8,14.5-11.9h0.4c2.1,0,4.1,0.5,6,1.4l2.4,1.2l1-2.5C576.9,265,583.3,260.2,590.5,260.2
	 M590.5,257.8c-8.4,0-15.7,5.6-18.8,13.7c-2.2-1.1-4.6-1.6-7-1.7h-0.4c-8.2,0-15.2,5.8-16.9,13.8c-1.1-0.3-2.3-0.5-3.4-0.5h-0.3
	c-7.5,0-13.5,6-13.7,13.4c-0.2,7.6,6.8,14.6,14.4,14.8h1.6c9.2,0,52.6-0.2,61.6-0.2h1.9c7.7,0,14.1-7.3,14.3-16.4
	c0.2-8.9-5.6-16.3-13-17c-1-11.1-9.4-19.9-19.8-20.1L590.5,257.8z"/>
<path class="st2" d="M283.5,370.6c0-1.6,0.4-2.8,1.3-3.7c0.9-0.9,2-1.3,3.3-1.3c0.9,0,1.7,0.2,2.4,0.6c0.7,0.4,1.2,1,1.6,1.8
	s0.6,1.6,0.6,2.6s-0.2,1.8-0.6,2.6c-0.4,0.8-0.9,1.3-1.7,1.7c-0.7,0.4-1.5,0.6-2.3,0.6c-0.9,0-1.7-0.2-2.4-0.6
	c-0.7-0.4-1.2-1-1.6-1.8C283.7,372.2,283.5,371.5,283.5,370.6z M284.8,370.6c0,1.1,0.3,2.1,0.9,2.7c0.6,0.7,1.4,1,2.3,1
	s1.7-0.3,2.3-1c0.6-0.7,0.9-1.6,0.9-2.8c0-0.8-0.1-1.4-0.4-2s-0.6-1-1.2-1.3c-0.5-0.3-1.1-0.5-1.7-0.5c-0.9,0-1.7,0.3-2.3,0.9
	C285.1,368.2,284.8,369.2,284.8,370.6z M294.1,375.3v-6.9h1.1v1c0.5-0.8,1.2-1.1,2.2-1.1c0.4,0,0.8,0.1,1.2,0.2
	c0.4,0.1,0.6,0.3,0.8,0.6c0.2,0.2,0.3,0.5,0.4,0.9c0,0.2,0.1,0.6,0.1,1.1v4.2h-1.2v-4.2c0-0.5,0-0.8-0.1-1.1
	c-0.1-0.2-0.3-0.4-0.5-0.6c-0.2-0.1-0.5-0.2-0.8-0.2c-0.5,0-0.9,0.2-1.3,0.5s-0.5,0.9-0.5,1.8v3.8L294.1,375.3L294.1,375.3z
	 M301.1,372.4v-1.2h3.6v1.2H301.1z M306,377.9v-9.6h1.1v0.9c0.2-0.4,0.5-0.6,0.8-0.8c0.3-0.2,0.7-0.3,1.2-0.3c0.6,0,1.1,0.2,1.5,0.5
	c0.5,0.3,0.8,0.7,1,1.3c0.2,0.6,0.3,1.2,0.3,1.8c0,0.7-0.1,1.3-0.4,1.9c-0.2,0.6-0.6,1-1.1,1.3s-1,0.5-1.5,0.5c-0.4,0-0.7-0.1-1-0.2
	c-0.3-0.2-0.6-0.4-0.8-0.6v3.4L306,377.9L306,377.9z M307,371.8c0,0.9,0.2,1.6,0.5,2c0.4,0.4,0.8,0.6,1.3,0.6s1-0.2,1.3-0.7
	s0.6-1.1,0.6-2s-0.2-1.5-0.5-2c-0.4-0.4-0.8-0.7-1.3-0.7s-0.9,0.2-1.3,0.7C307.2,370.3,307,371,307,371.8z M313.4,375.3v-6.9h1.1v1
	c0.3-0.5,0.5-0.8,0.7-1s0.5-0.2,0.8-0.2c0.4,0,0.8,0.1,1.2,0.4l-0.4,1.1c-0.3-0.2-0.6-0.2-0.9-0.2s-0.5,0.1-0.7,0.2
	c-0.2,0.2-0.3,0.4-0.4,0.6c-0.1,0.4-0.2,0.9-0.2,1.4v3.6H313.4z M322.5,373l1.2,0.1c-0.2,0.7-0.5,1.3-1.1,1.7
	c-0.5,0.4-1.2,0.6-2,0.6c-1,0-1.8-0.3-2.4-0.9s-0.9-1.5-0.9-2.6c0-1.2,0.3-2.1,0.9-2.7s1.4-1,2.3-1s1.7,0.3,2.3,0.9
	c0.6,0.6,0.9,1.5,0.9,2.7c0,0.1,0,0.2,0,0.3h-5.2c0,0.8,0.3,1.3,0.6,1.8c0.4,0.4,0.9,0.6,1.4,0.6c0.4,0,0.8-0.1,1.1-0.3
	C322.1,373.9,322.4,373.5,322.5,373z M318.7,371.1h3.9c-0.1-0.6-0.2-1-0.4-1.3c-0.4-0.5-0.9-0.7-1.5-0.7c-0.5,0-1,0.2-1.4,0.5
	C318.9,370.1,318.7,370.5,318.7,371.1z M325.2,375.3v-6.9h1v1c0.2-0.3,0.5-0.6,0.9-0.8c0.4-0.2,0.8-0.3,1.2-0.3
	c0.5,0,0.9,0.1,1.3,0.3c0.3,0.2,0.6,0.5,0.7,0.9c0.6-0.8,1.3-1.2,2.1-1.2c0.7,0,1.2,0.2,1.6,0.6s0.6,1,0.6,1.7v4.8h-1.2V371
	c0-0.5,0-0.8-0.1-1s-0.2-0.4-0.4-0.5c-0.2-0.1-0.4-0.2-0.7-0.2c-0.5,0-0.9,0.2-1.2,0.5c-0.3,0.3-0.5,0.8-0.5,1.5v4h-1.2v-4.5
	c0-0.5-0.1-0.9-0.3-1.2c-0.2-0.3-0.5-0.4-0.9-0.4c-0.3,0-0.6,0.1-0.9,0.3c-0.3,0.2-0.5,0.4-0.6,0.8c-0.1,0.3-0.2,0.8-0.2,1.5v3.6
	L325.2,375.3L325.2,375.3z M335.5,375.4l2.8-9.9h0.9l-2.8,9.9H335.5z M339.7,372.2l1.2-0.1c0.1,0.5,0.2,0.9,0.4,1.2
	c0.2,0.3,0.5,0.5,1,0.7c0.4,0.2,0.9,0.3,1.5,0.3c0.5,0,0.9-0.1,1.3-0.2s0.7-0.3,0.8-0.6c0.2-0.2,0.3-0.5,0.3-0.8s-0.1-0.6-0.3-0.8
	c-0.2-0.2-0.4-0.4-0.8-0.6c-0.3-0.1-0.8-0.3-1.7-0.5c-0.9-0.2-1.5-0.4-1.8-0.6c-0.4-0.2-0.8-0.5-1-0.9s-0.3-0.8-0.3-1.2
	c0-0.5,0.1-0.9,0.4-1.3s0.7-0.7,1.2-1c0.5-0.2,1.1-0.3,1.8-0.3c0.7,0,1.3,0.1,1.9,0.3c0.5,0.2,1,0.6,1.2,1c0.3,0.4,0.4,0.9,0.5,1.5
	l-1.2,0.1c-0.1-0.6-0.3-1.1-0.7-1.4c-0.4-0.3-0.9-0.5-1.7-0.5c-0.8,0-1.3,0.1-1.7,0.4c-0.3,0.3-0.5,0.6-0.5,1c0,0.3,0.1,0.6,0.4,0.8
	c0.2,0.2,0.9,0.4,1.9,0.7c1,0.2,1.7,0.4,2.1,0.6c0.6,0.3,1,0.6,1.2,1c0.3,0.4,0.4,0.8,0.4,1.4c0,0.5-0.1,1-0.4,1.4s-0.7,0.8-1.2,1
	s-1.2,0.4-1.8,0.4c-0.9,0-1.6-0.1-2.2-0.4c-0.6-0.2-1-0.6-1.4-1.1C339.9,373.4,339.8,372.8,339.7,372.2z M349.1,375.3v-9.5h3.3
	c0.7,0,1.3,0,1.7,0.1c0.5,0.1,1,0.4,1.4,0.7c0.5,0.4,0.9,1,1.1,1.6c0.2,0.7,0.4,1.4,0.4,2.2c0,0.7-0.1,1.4-0.3,1.9
	c-0.2,0.6-0.4,1-0.7,1.4c-0.3,0.4-0.5,0.7-0.9,0.9c-0.3,0.2-0.7,0.4-1.1,0.5s-0.9,0.2-1.5,0.2L349.1,375.3L349.1,375.3z
	 M350.3,374.1h2c0.6,0,1.1-0.1,1.5-0.2s0.7-0.3,0.9-0.5c0.3-0.3,0.5-0.7,0.7-1.2s0.2-1.1,0.2-1.8c0-1-0.2-1.8-0.5-2.3
	s-0.7-0.9-1.2-1.1c-0.3-0.1-0.9-0.2-1.6-0.2h-2V374.1z M358.7,375.3v-9.5h3.3c0.7,0,1.3,0,1.7,0.1c0.5,0.1,1,0.4,1.4,0.7
	c0.5,0.4,0.9,1,1.1,1.6c0.2,0.7,0.4,1.4,0.4,2.2c0,0.7-0.1,1.4-0.3,1.9c-0.2,0.6-0.4,1-0.7,1.4c-0.3,0.4-0.5,0.7-0.9,0.9
	c-0.3,0.2-0.7,0.4-1.1,0.5s-0.9,0.2-1.5,0.2L358.7,375.3L358.7,375.3z M360,374.1h2c0.6,0,1.1-0.1,1.5-0.2s0.7-0.3,0.9-0.5
	c0.3-0.3,0.5-0.7,0.7-1.2s0.2-1.1,0.2-1.8c0-1-0.2-1.8-0.5-2.3s-0.7-0.9-1.2-1.1c-0.3-0.1-0.9-0.2-1.6-0.2h-2V374.1z M375.1,371.9
	l1.3,0.3c-0.3,1-0.7,1.8-1.4,2.4c-0.7,0.5-1.5,0.8-2.5,0.8s-1.9-0.2-2.5-0.6s-1.1-1-1.5-1.8c-0.3-0.8-0.5-1.6-0.5-2.6
	s0.2-1.9,0.6-2.6s0.9-1.3,1.6-1.7c0.7-0.4,1.5-0.6,2.3-0.6c0.9,0,1.7,0.2,2.4,0.7c0.7,0.5,1.1,1.2,1.4,2l-1.2,0.3
	c-0.2-0.7-0.5-1.2-1-1.5c-0.4-0.3-0.9-0.5-1.6-0.5s-1.3,0.2-1.8,0.5c-0.5,0.4-0.8,0.8-1,1.4s-0.3,1.2-0.3,1.8c0,0.8,0.1,1.5,0.3,2.1
	c0.2,0.6,0.6,1.1,1.1,1.4s1,0.4,1.6,0.4c0.7,0,1.3-0.2,1.8-0.6S375,372.7,375.1,371.9z"/>
<path class="st2" d="M412.8,375.3l-3.7-9.5h1.4l2.5,6.9c0.2,0.6,0.4,1.1,0.5,1.6c0.1-0.5,0.3-1,0.5-1.6l2.6-6.9h1.3l-3.7,9.5H412.8z
	 M418.9,375.3v-9.5h1.9l2.2,6.8c0.2,0.6,0.4,1.1,0.5,1.4c0.1-0.3,0.3-0.9,0.5-1.5l2.3-6.6h1.7v9.5h-1.2v-8l-2.8,8h-1.1l-2.8-8.1v8.1
	L418.9,375.3L418.9,375.3z M436.8,371.9l1.3,0.3c-0.3,1-0.7,1.8-1.4,2.4c-0.7,0.5-1.5,0.8-2.5,0.8s-1.9-0.2-2.5-0.6s-1.1-1-1.5-1.8
	c-0.3-0.8-0.5-1.6-0.5-2.6s0.2-1.9,0.6-2.6s0.9-1.3,1.6-1.7c0.7-0.4,1.5-0.6,2.3-0.6c0.9,0,1.7,0.2,2.4,0.7c0.7,0.5,1.1,1.2,1.4,2
	l-1.2,0.3c-0.2-0.7-0.5-1.2-1-1.5c-0.4-0.3-0.9-0.5-1.6-0.5s-1.3,0.2-1.8,0.5c-0.5,0.4-0.8,0.8-1,1.4s-0.3,1.2-0.3,1.8
	c0,0.8,0.1,1.5,0.3,2.1c0.2,0.6,0.6,1.1,1.1,1.4s1,0.4,1.6,0.4c0.7,0,1.3-0.2,1.8-0.6C436.3,373.3,436.7,372.7,436.8,371.9z
	 M442.8,371.8c0-1.3,0.4-2.2,1.1-2.8c0.6-0.5,1.3-0.8,2.2-0.8c0.9,0,1.7,0.3,2.3,0.9c0.6,0.6,0.9,1.5,0.9,2.6c0,0.9-0.1,1.6-0.4,2.1
	s-0.6,0.9-1.2,1.2c-0.5,0.3-1.1,0.4-1.7,0.4c-1,0-1.8-0.3-2.4-0.9C443.1,373.9,442.8,373,442.8,371.8z M444,371.8
	c0,0.9,0.2,1.5,0.6,2c0.4,0.4,0.9,0.7,1.5,0.7s1.1-0.2,1.5-0.7c0.4-0.4,0.6-1.1,0.6-2s-0.2-1.5-0.6-1.9s-0.9-0.7-1.4-0.7
	c-0.6,0-1.1,0.2-1.5,0.7C444.2,370.3,444,370.9,444,371.8z M450.6,375.3v-6.9h1.1v1c0.5-0.8,1.2-1.1,2.2-1.1c0.4,0,0.8,0.1,1.2,0.2
	c0.4,0.1,0.6,0.3,0.8,0.6c0.2,0.2,0.3,0.5,0.4,0.9c0,0.2,0.1,0.6,0.1,1.1v4.2h-1.2v-4.2c0-0.5,0-0.8-0.1-1.1
	c-0.1-0.2-0.3-0.4-0.5-0.6c-0.2-0.1-0.5-0.2-0.8-0.2c-0.5,0-0.9,0.2-1.3,0.5s-0.5,0.9-0.5,1.8v3.8L450.6,375.3L450.6,375.3z
	 M460.1,375.3l3.7-9.5h1.4l3.9,9.5h-1.4l-1.1-2.9h-4l-1,2.9H460.1z M462.9,371.3h3.2l-1-2.6c-0.3-0.8-0.5-1.5-0.7-2
	c-0.1,0.6-0.3,1.2-0.5,1.8L462.9,371.3z M471.2,375.3l-2.5-9.5h1.3l1.5,6.3c0.2,0.7,0.3,1.3,0.4,2c0.2-1,0.4-1.6,0.4-1.8l1.8-6.5
	h1.5l1.4,4.8c0.3,1.2,0.6,2.3,0.7,3.4c0.1-0.6,0.3-1.3,0.5-2.1l1.5-6.1h1.3l-2.6,9.5h-1.2l-2-7.3c-0.2-0.6-0.3-1-0.3-1.1
	c-0.1,0.4-0.2,0.8-0.3,1.1l-2,7.3L471.2,375.3L471.2,375.3z M481.7,372.2l1.2-0.1c0.1,0.5,0.2,0.9,0.4,1.2c0.2,0.3,0.5,0.5,1,0.7
	c0.4,0.2,0.9,0.3,1.5,0.3c0.5,0,0.9-0.1,1.3-0.2s0.7-0.3,0.8-0.6c0.2-0.2,0.3-0.5,0.3-0.8s-0.1-0.6-0.3-0.8
	c-0.2-0.2-0.4-0.4-0.8-0.6c-0.3-0.1-0.8-0.3-1.7-0.5c-0.9-0.2-1.5-0.4-1.8-0.6c-0.4-0.2-0.8-0.5-1-0.9s-0.3-0.8-0.3-1.2
	c0-0.5,0.1-0.9,0.4-1.3s0.7-0.7,1.2-1c0.5-0.2,1.1-0.3,1.8-0.3c0.7,0,1.3,0.1,1.9,0.3c0.5,0.2,1,0.6,1.2,1c0.3,0.4,0.4,0.9,0.5,1.5
	l-1.2,0.1c-0.1-0.6-0.3-1.1-0.7-1.4c-0.4-0.3-0.9-0.5-1.7-0.5c-0.8,0-1.3,0.1-1.7,0.4c-0.3,0.3-0.5,0.6-0.5,1c0,0.3,0.1,0.6,0.4,0.8
	c0.2,0.2,0.9,0.4,1.9,0.7c1,0.2,1.7,0.4,2.1,0.6c0.6,0.3,1,0.6,1.2,1c0.3,0.4,0.4,0.8,0.4,1.4c0,0.5-0.1,1-0.4,1.4s-0.7,0.8-1.2,1
	s-1.2,0.4-1.8,0.4c-0.9,0-1.6-0.1-2.2-0.4c-0.6-0.2-1-0.6-1.4-1.1C481.9,373.4,481.7,372.8,481.7,372.2z"/>
<path class="st2" d="M542.2,375.3v-9.5h3.6c0.6,0,1.1,0,1.5,0.1c0.5,0.1,0.9,0.2,1.2,0.5c0.3,0.2,0.6,0.5,0.8,0.9s0.3,0.8,0.3,1.3
	c0,0.8-0.3,1.5-0.8,2.1s-1.4,0.8-2.8,0.8h-2.4v3.9L542.2,375.3L542.2,375.3z M543.5,370.3h2.5c0.8,0,1.4-0.2,1.8-0.5
	c0.3-0.3,0.5-0.7,0.5-1.3c0-0.4-0.1-0.8-0.3-1c-0.2-0.3-0.5-0.5-0.8-0.6c-0.2-0.1-0.6-0.1-1.2-0.1h-2.4L543.5,370.3L543.5,370.3z
	 M555.5,375.3v-1c-0.5,0.8-1.3,1.2-2.2,1.2c-0.4,0-0.8-0.1-1.1-0.2c-0.4-0.2-0.6-0.3-0.8-0.6c-0.2-0.2-0.3-0.5-0.4-0.9
	c0-0.2-0.1-0.6-0.1-1.1v-4.3h1.2v3.8c0,0.6,0,1,0.1,1.2c0.1,0.3,0.2,0.6,0.5,0.7c0.2,0.2,0.5,0.2,0.9,0.2c0.3,0,0.7-0.1,1-0.3
	c0.3-0.2,0.5-0.4,0.7-0.7s0.2-0.8,0.2-1.3v-3.7h1.2v6.9L555.5,375.3L555.5,375.3z M559.4,375.3h-1.1v-9.5h1.2v3.4
	c0.5-0.6,1.1-0.9,1.9-0.9c0.4,0,0.8,0.1,1.2,0.3c0.4,0.2,0.7,0.4,0.9,0.7c0.2,0.3,0.4,0.7,0.6,1.1s0.2,0.9,0.2,1.4
	c0,1.2-0.3,2.1-0.9,2.8c-0.6,0.6-1.3,1-2.1,1s-1.5-0.3-1.9-1L559.4,375.3L559.4,375.3z M559.4,371.8c0,0.8,0.1,1.4,0.3,1.8
	c0.4,0.6,0.9,0.9,1.5,0.9c0.5,0,1-0.2,1.3-0.7c0.4-0.4,0.6-1.1,0.6-2s-0.2-1.6-0.5-2c-0.4-0.4-0.8-0.7-1.3-0.7s-1,0.2-1.3,0.7
	C559.6,370.3,559.4,370.9,559.4,371.8z M565.8,375.3v-9.5h1.2v9.5H565.8z M568.7,367.1v-1.4h1.2v1.4H568.7z M568.7,375.3v-6.9h1.2
	v6.9H568.7z M576.2,372.7l1.2,0.2c-0.1,0.8-0.4,1.4-1,1.9c-0.5,0.4-1.2,0.7-1.9,0.7c-0.9,0-1.7-0.3-2.3-0.9s-0.9-1.5-0.9-2.7
	c0-0.8,0.1-1.4,0.4-2s0.6-1,1.1-1.2c0.5-0.3,1.1-0.4,1.7-0.4c0.8,0,1.4,0.2,1.8,0.6c0.5,0.4,0.8,0.9,0.9,1.6l-1.1,0.2
	c-0.1-0.5-0.3-0.8-0.6-1s-0.6-0.4-1-0.4c-0.6,0-1.1,0.2-1.5,0.6s-0.5,1.1-0.5,2s0.2,1.6,0.5,2c0.4,0.4,0.8,0.6,1.4,0.6
	c0.5,0,0.8-0.1,1.1-0.4C575.9,373.7,576.1,373.3,576.2,372.7z M589,371.9l1.3,0.3c-0.3,1-0.7,1.8-1.4,2.4c-0.7,0.5-1.5,0.8-2.5,0.8
	s-1.9-0.2-2.5-0.6s-1.1-1-1.5-1.8c-0.3-0.8-0.5-1.6-0.5-2.6s0.2-1.9,0.6-2.6c0.4-0.7,0.9-1.3,1.6-1.7c0.7-0.4,1.5-0.6,2.3-0.6
	c0.9,0,1.7,0.2,2.4,0.7s1.1,1.2,1.4,2l-1.2,0.3c-0.2-0.7-0.5-1.2-1-1.5c-0.4-0.3-0.9-0.5-1.6-0.5c-0.7,0-1.3,0.2-1.8,0.5
	c-0.5,0.4-0.8,0.8-1,1.4s-0.3,1.2-0.3,1.8c0,0.8,0.1,1.5,0.3,2.1s0.6,1.1,1.1,1.4s1,0.4,1.6,0.4c0.7,0,1.3-0.2,1.8-0.6
	C588.5,373.3,588.8,372.7,589,371.9z M591.7,375.3v-9.5h1.2v9.5H591.7z M594.2,371.8c0-1.3,0.4-2.2,1.1-2.8c0.6-0.5,1.3-0.8,2.2-0.8
	s1.7,0.3,2.3,0.9s0.9,1.5,0.9,2.6c0,0.9-0.1,1.6-0.4,2.1c-0.3,0.5-0.6,0.9-1.2,1.2c-0.5,0.3-1.1,0.4-1.7,0.4c-1,0-1.8-0.3-2.4-0.9
	C594.5,373.9,594.2,373,594.2,371.8z M595.4,371.8c0,0.9,0.2,1.5,0.6,2c0.4,0.4,0.9,0.7,1.5,0.7s1.1-0.2,1.5-0.7
	c0.4-0.4,0.6-1.1,0.6-2s-0.2-1.5-0.6-1.9c-0.4-0.4-0.9-0.7-1.4-0.7c-0.6,0-1.1,0.2-1.5,0.7C595.6,370.3,595.4,370.9,595.4,371.8z
	 M606.6,375.3v-1c-0.5,0.8-1.3,1.2-2.2,1.2c-0.4,0-0.8-0.1-1.1-0.2s-0.6-0.3-0.8-0.6c-0.2-0.2-0.3-0.5-0.4-0.9
	c0-0.2-0.1-0.6-0.1-1.1v-4.3h1.2v3.8c0,0.6,0,1,0.1,1.2c0.1,0.3,0.2,0.6,0.5,0.7c0.2,0.2,0.5,0.2,0.9,0.2c0.3,0,0.7-0.1,1-0.3
	c0.3-0.2,0.5-0.4,0.7-0.7s0.2-0.8,0.2-1.3v-3.7h1.2v6.9L606.6,375.3L606.6,375.3z M614,375.3v-0.9c-0.4,0.7-1.1,1-1.9,1
	c-0.5,0-1-0.2-1.5-0.5s-0.8-0.7-1.1-1.3c-0.2-0.6-0.4-1.2-0.4-1.9c0-0.7,0.1-1.3,0.3-1.9s0.6-1,1-1.3c0.5-0.3,1-0.5,1.5-0.5
	c0.4,0,0.8,0.1,1.1,0.3c0.3,0.2,0.6,0.4,0.8,0.7v-3.4h1.2v9.5h-1V375.3z M610.3,371.8c0,0.9,0.2,1.5,0.6,2s0.8,0.7,1.3,0.7
	s0.9-0.2,1.3-0.6c0.4-0.4,0.5-1.1,0.5-1.9c0-0.9-0.2-1.6-0.5-2.1c-0.4-0.4-0.8-0.7-1.3-0.7s-1,0.2-1.3,0.6
	C610.4,370.2,610.3,370.9,610.3,371.8z"/>
<path class="st2" d="M664,362.7l-3.7-9.5h1.4l2.5,6.9c0.2,0.6,0.4,1.1,0.5,1.6c0.1-0.5,0.3-1,0.5-1.6l2.6-6.9h1.3l-3.7,9.5H664z
	 M670.1,362.7v-9.5h1.9l2.2,6.8c0.2,0.6,0.4,1.1,0.5,1.4c0.1-0.3,0.3-0.9,0.5-1.5l2.3-6.6h1.7v9.5H678v-8l-2.8,8h-1.1l-2.8-8.1v8.1
	L670.1,362.7L670.1,362.7z M682.4,362.7l-2.1-6.9h1.2l1.1,4l0.4,1.5c0-0.1,0.1-0.5,0.4-1.4l1.1-4h1.2l1,4l0.3,1.3l0.4-1.3l1.2-4h1.1
	l-2.2,6.9h-1.2l-1.1-4.1l-0.3-1.2l-1.4,5.3L682.4,362.7L682.4,362.7z M695.3,361.9c-0.4,0.4-0.9,0.6-1.3,0.8
	c-0.4,0.1-0.8,0.2-1.3,0.2c-0.8,0-1.3-0.2-1.8-0.5c-0.4-0.4-0.6-0.9-0.6-1.4c0-0.3,0.1-0.6,0.2-0.9c0.2-0.3,0.4-0.5,0.6-0.7
	s0.5-0.3,0.8-0.4c0.2-0.1,0.6-0.1,1-0.2c0.9-0.1,1.6-0.2,2.1-0.4c0-0.2,0-0.3,0-0.3c0-0.5-0.1-0.8-0.3-1c-0.3-0.3-0.8-0.4-1.3-0.4
	s-0.9,0.1-1.2,0.3c-0.3,0.2-0.5,0.5-0.6,1l-1.1-0.2c0.1-0.5,0.3-0.9,0.5-1.2c0.2-0.3,0.6-0.5,1-0.7s1-0.2,1.6-0.2s1.1,0.1,1.4,0.2
	c0.4,0.1,0.6,0.3,0.8,0.5s0.3,0.5,0.4,0.8c0,0.2,0,0.6,0,1.1v1.6c0,1.1,0,1.8,0.1,2.1c0.1,0.3,0.2,0.6,0.3,0.8h-1.2
	C695.4,362.5,695.3,362.2,695.3,361.9z M695.2,359.3c-0.4,0.2-1.1,0.3-1.9,0.4c-0.5,0.1-0.8,0.2-1,0.2c-0.2,0.1-0.4,0.2-0.5,0.4
	c-0.1,0.2-0.2,0.3-0.2,0.5c0,0.3,0.1,0.6,0.3,0.8c0.2,0.2,0.6,0.3,1,0.3s0.8-0.1,1.2-0.3c0.4-0.2,0.6-0.5,0.8-0.8
	c0.1-0.3,0.2-0.7,0.2-1.2v-0.3H695.2z M698.2,362.7v-6.9h1.1v1c0.3-0.5,0.5-0.8,0.7-1s0.5-0.2,0.8-0.2c0.4,0,0.8,0.1,1.2,0.4
	l-0.4,1.1c-0.3-0.2-0.6-0.2-0.9-0.2c-0.3,0-0.5,0.1-0.7,0.2c-0.2,0.2-0.3,0.4-0.4,0.6c-0.1,0.4-0.2,0.9-0.2,1.4v3.6H698.2z
	 M707.3,360.5l1.2,0.1c-0.2,0.7-0.5,1.3-1.1,1.7c-0.5,0.4-1.2,0.6-2,0.6c-1,0-1.8-0.3-2.4-0.9c-0.6-0.6-0.9-1.5-0.9-2.6
	c0-1.2,0.3-2.1,0.9-2.7c0.6-0.6,1.4-1,2.3-1c0.9,0,1.7,0.3,2.3,0.9s0.9,1.5,0.9,2.7c0,0.1,0,0.2,0,0.3h-5.2c0,0.8,0.3,1.3,0.6,1.8
	c0.4,0.4,0.9,0.6,1.4,0.6c0.4,0,0.8-0.1,1.1-0.3C706.9,361.4,707.2,361,707.3,360.5z M703.5,358.6h3.9c-0.1-0.6-0.2-1-0.4-1.3
	c-0.4-0.5-0.9-0.7-1.5-0.7c-0.5,0-1,0.2-1.4,0.5C703.7,357.5,703.5,358,703.5,358.6z M720.7,359.4l1.3,0.3c-0.3,1-0.7,1.8-1.4,2.4
	s-1.5,0.8-2.5,0.8s-1.9-0.2-2.5-0.6s-1.1-1-1.5-1.8c-0.3-0.8-0.5-1.6-0.5-2.6s0.2-1.9,0.6-2.6c0.4-0.7,0.9-1.3,1.6-1.7
	c0.7-0.4,1.5-0.6,2.3-0.6c0.9,0,1.7,0.2,2.4,0.7s1.1,1.2,1.4,2l-1.2,0.3c-0.2-0.7-0.5-1.2-1-1.5c-0.4-0.3-0.9-0.5-1.6-0.5
	c-0.7,0-1.3,0.2-1.8,0.5c-0.5,0.4-0.8,0.8-1,1.4s-0.3,1.2-0.3,1.8c0,0.8,0.1,1.5,0.3,2.1s0.6,1.1,1.1,1.4s1,0.4,1.6,0.4
	c0.7,0,1.3-0.2,1.8-0.6C720.2,360.8,720.5,360.2,720.7,359.4z M723.3,362.7v-9.5h1.2v9.5H723.3z M725.9,359.3c0-1.3,0.4-2.2,1.1-2.8
	c0.6-0.5,1.3-0.8,2.2-0.8s1.7,0.3,2.3,0.9s0.9,1.5,0.9,2.6c0,0.9-0.1,1.6-0.4,2.1c-0.3,0.5-0.6,0.9-1.2,1.2
	c-0.5,0.3-1.1,0.4-1.7,0.4c-1,0-1.8-0.3-2.4-0.9C726.2,361.4,725.9,360.5,725.9,359.3z M727.1,359.3c0,0.9,0.2,1.5,0.6,2
	c0.4,0.4,0.9,0.7,1.5,0.7s1.1-0.2,1.5-0.7c0.4-0.4,0.6-1.1,0.6-2s-0.2-1.5-0.6-1.9c-0.4-0.4-0.9-0.7-1.4-0.7c-0.6,0-1.1,0.2-1.5,0.7
	C727.3,357.7,727.1,358.4,727.1,359.3z M738.3,362.7v-1c-0.5,0.8-1.3,1.2-2.2,1.2c-0.4,0-0.8-0.1-1.1-0.2c-0.4-0.2-0.6-0.3-0.8-0.6
	c-0.2-0.2-0.3-0.5-0.4-0.9c0-0.2-0.1-0.6-0.1-1.1v-4.3h1.2v3.8c0,0.6,0,1,0.1,1.2c0.1,0.3,0.2,0.6,0.5,0.7c0.2,0.2,0.5,0.2,0.9,0.2
	c0.3,0,0.7-0.1,1-0.3s0.5-0.4,0.7-0.7s0.2-0.8,0.2-1.3v-3.7h1.2v6.9L738.3,362.7L738.3,362.7z M745.6,362.7v-0.9
	c-0.4,0.7-1.1,1-1.9,1c-0.5,0-1-0.2-1.5-0.5s-0.8-0.7-1.1-1.3c-0.2-0.6-0.4-1.2-0.4-1.9c0-0.7,0.1-1.3,0.3-1.9s0.6-1,1-1.3
	c0.5-0.3,1-0.5,1.5-0.5c0.4,0,0.8,0.1,1.1,0.3c0.3,0.2,0.6,0.4,0.8,0.7V353h1.2v9.5h-1V362.7z M741.9,359.3c0,0.9,0.2,1.5,0.6,2
	s0.8,0.7,1.3,0.7s0.9-0.2,1.3-0.6s0.5-1.1,0.5-1.9c0-0.9-0.2-1.6-0.5-2.1c-0.4-0.4-0.8-0.7-1.3-0.7s-1,0.2-1.3,0.6
	C742.1,357.7,741.9,358.4,741.9,359.3z M751.8,359.3c0-1.3,0.4-2.2,1.1-2.8c0.6-0.5,1.3-0.8,2.2-0.8s1.7,0.3,2.3,0.9
	s0.9,1.5,0.9,2.6c0,0.9-0.1,1.6-0.4,2.1c-0.3,0.5-0.6,0.9-1.2,1.2c-0.5,0.3-1.1,0.4-1.7,0.4c-1,0-1.8-0.3-2.4-0.9
	C752.1,361.4,751.8,360.5,751.8,359.3z M753,359.3c0,0.9,0.2,1.5,0.6,2c0.4,0.4,0.9,0.7,1.5,0.7s1.1-0.2,1.5-0.7
	c0.4-0.4,0.6-1.1,0.6-2s-0.2-1.5-0.6-1.9c-0.4-0.4-0.9-0.7-1.4-0.7c-0.6,0-1.1,0.2-1.5,0.7C753.2,357.7,753,358.4,753,359.3z
	 M759.7,362.7v-6.9h1.1v1c0.5-0.8,1.2-1.1,2.2-1.1c0.4,0,0.8,0.1,1.2,0.2s0.6,0.3,0.8,0.6c0.2,0.2,0.3,0.5,0.4,0.9
	c0,0.2,0.1,0.6,0.1,1.1v4.2h-1.2v-4.2c0-0.5,0-0.8-0.1-1.1c-0.1-0.2-0.3-0.4-0.5-0.6c-0.2-0.1-0.5-0.2-0.8-0.2
	c-0.5,0-0.9,0.2-1.3,0.5c-0.4,0.3-0.5,0.9-0.5,1.8v3.8L759.7,362.7L759.7,362.7z"/>
<path class="st2" d="M675.4,378.7v-9.5h1.3v3.9h5v-3.9h1.3v9.5h-1.3v-4.5h-5v4.5H675.4z M684.8,381.4l-0.1-1.1
	c0.2,0.1,0.5,0.1,0.7,0.1c0.3,0,0.5,0,0.6-0.1c0.2-0.1,0.3-0.2,0.4-0.4c0.1-0.1,0.2-0.4,0.4-0.9c0-0.1,0.1-0.2,0.1-0.3l-2.6-6.9h1.3
	l1.4,4c0.2,0.5,0.4,1,0.5,1.6c0.1-0.5,0.3-1.1,0.5-1.6l1.5-4h1.2l-2.6,7c-0.3,0.8-0.5,1.3-0.7,1.6c-0.2,0.4-0.4,0.7-0.7,0.8
	c-0.3,0.2-0.6,0.3-1,0.3C685.3,381.6,685.1,381.5,684.8,381.4z M691.5,381.4v-9.6h1.1v0.9c0.2-0.4,0.5-0.6,0.8-0.8
	c0.3-0.2,0.7-0.3,1.2-0.3c0.6,0,1.1,0.2,1.5,0.5c0.5,0.3,0.8,0.7,1,1.3s0.3,1.2,0.3,1.8c0,0.7-0.1,1.3-0.4,1.9
	c-0.2,0.6-0.6,1-1.1,1.3s-1,0.5-1.5,0.5c-0.4,0-0.7-0.1-1-0.2s-0.6-0.4-0.8-0.6v3.4L691.5,381.4L691.5,381.4z M692.6,375.3
	c0,0.9,0.2,1.6,0.5,2c0.4,0.4,0.8,0.6,1.3,0.6s1-0.2,1.3-0.7s0.6-1.1,0.6-2s-0.2-1.5-0.5-2c-0.4-0.4-0.8-0.7-1.3-0.7
	s-0.9,0.2-1.3,0.7S692.6,374.4,692.6,375.3z M703.7,376.5l1.2,0.1c-0.2,0.7-0.5,1.3-1.1,1.7c-0.5,0.4-1.2,0.6-2,0.6
	c-1,0-1.8-0.3-2.4-0.9s-0.9-1.5-0.9-2.6c0-1.2,0.3-2.1,0.9-2.7c0.6-0.6,1.4-1,2.3-1c0.9,0,1.7,0.3,2.3,0.9s0.9,1.5,0.9,2.7
	c0,0.1,0,0.2,0,0.3h-5.2c0,0.8,0.3,1.3,0.6,1.8c0.4,0.4,0.9,0.6,1.4,0.6c0.4,0,0.8-0.1,1.1-0.3C703.2,377.4,703.5,377,703.7,376.5z
	 M699.8,374.6h3.9c-0.1-0.6-0.2-1-0.4-1.3c-0.4-0.5-0.9-0.7-1.5-0.7c-0.5,0-1,0.2-1.4,0.5C700.1,373.5,699.9,374,699.8,374.6z
	 M706.3,378.7v-6.9h1.1v1c0.3-0.5,0.5-0.8,0.7-1s0.5-0.2,0.8-0.2c0.4,0,0.8,0.1,1.2,0.4l-0.4,1.1c-0.3-0.2-0.6-0.2-0.9-0.2
	c-0.3,0-0.5,0.1-0.7,0.2c-0.2,0.2-0.3,0.4-0.4,0.6c-0.1,0.4-0.2,0.9-0.2,1.4v3.6H706.3z M710.3,376.7l1.2-0.2
	c0.1,0.5,0.3,0.8,0.5,1.1c0.3,0.2,0.7,0.4,1.2,0.4s0.9-0.1,1.2-0.3c0.3-0.2,0.4-0.5,0.4-0.8s-0.1-0.5-0.4-0.6
	c-0.2-0.1-0.6-0.2-1.2-0.4c-0.9-0.2-1.5-0.4-1.8-0.6s-0.6-0.4-0.8-0.7c-0.2-0.3-0.2-0.6-0.2-0.9s0.1-0.6,0.2-0.8
	c0.1-0.3,0.3-0.5,0.6-0.7c0.2-0.1,0.4-0.2,0.8-0.3s0.7-0.1,1-0.1c0.5,0,1,0.1,1.4,0.2s0.7,0.4,0.9,0.6c0.2,0.3,0.3,0.6,0.4,1.1
	l-1.1,0.2c-0.1-0.4-0.2-0.6-0.5-0.8c-0.2-0.2-0.6-0.3-1.1-0.3s-0.9,0.1-1.2,0.3c-0.2,0.2-0.3,0.4-0.3,0.6s0,0.3,0.1,0.4
	s0.3,0.2,0.5,0.3c0.1,0,0.5,0.1,1,0.3c0.8,0.2,1.4,0.4,1.7,0.5s0.6,0.3,0.8,0.6s0.3,0.6,0.3,1s-0.1,0.8-0.3,1.1
	c-0.2,0.3-0.6,0.6-1,0.8c-0.4,0.2-0.9,0.3-1.5,0.3c-0.9,0-1.6-0.2-2-0.6S710.4,377.4,710.3,376.7z M722,376.2l1.2,0.2
	c-0.1,0.8-0.4,1.4-1,1.9c-0.5,0.4-1.2,0.7-1.9,0.7c-0.9,0-1.7-0.3-2.3-0.9s-0.9-1.5-0.9-2.7c0-0.8,0.1-1.4,0.4-2s0.6-1,1.1-1.2
	c0.5-0.3,1.1-0.4,1.7-0.4c0.8,0,1.4,0.2,1.8,0.6c0.5,0.4,0.8,0.9,0.9,1.6l-1.1,0.2c-0.1-0.5-0.3-0.8-0.6-1s-0.6-0.4-1-0.4
	c-0.6,0-1.1,0.2-1.5,0.6s-0.5,1.1-0.5,2s0.2,1.6,0.5,2c0.4,0.4,0.8,0.6,1.4,0.6c0.5,0,0.8-0.1,1.1-0.4
	C721.7,377.2,721.9,376.8,722,376.2z M728.6,377.9c-0.4,0.4-0.9,0.6-1.3,0.8c-0.4,0.1-0.8,0.2-1.3,0.2c-0.8,0-1.3-0.2-1.8-0.5
	c-0.4-0.4-0.6-0.9-0.6-1.4c0-0.3,0.1-0.6,0.2-0.9c0.2-0.3,0.4-0.5,0.6-0.7s0.5-0.3,0.8-0.4c0.2-0.1,0.6-0.1,1-0.2
	c0.9-0.1,1.6-0.2,2.1-0.4c0-0.2,0-0.3,0-0.3c0-0.5-0.1-0.8-0.3-1c-0.3-0.3-0.8-0.4-1.3-0.4s-0.9,0.1-1.2,0.3c-0.3,0.2-0.5,0.5-0.6,1
	l-1.1-0.2c0.1-0.5,0.3-0.9,0.5-1.2c0.2-0.3,0.6-0.5,1-0.7s1-0.2,1.6-0.2s1.1,0.1,1.4,0.2c0.4,0.1,0.6,0.3,0.8,0.5s0.3,0.5,0.4,0.8
	c0,0.2,0,0.6,0,1.1v1.6c0,1.1,0,1.8,0.1,2.1c0.1,0.3,0.2,0.6,0.3,0.8h-1.2C728.7,378.5,728.7,378.2,728.6,377.9z M728.5,375.3
	c-0.4,0.2-1.1,0.3-1.9,0.4c-0.5,0.1-0.8,0.2-1,0.2c-0.2,0.1-0.4,0.2-0.5,0.4c-0.1,0.2-0.2,0.3-0.2,0.5c0,0.3,0.1,0.6,0.3,0.8
	c0.2,0.2,0.6,0.3,1,0.3s0.8-0.1,1.2-0.3c0.4-0.2,0.6-0.5,0.8-0.8c0.1-0.3,0.2-0.7,0.2-1.2v-0.3H728.5z M731.5,378.7v-9.5h1.2v9.5
	H731.5z M739.2,376.5l1.2,0.1c-0.2,0.7-0.5,1.3-1.1,1.7c-0.5,0.4-1.2,0.6-2,0.6c-1,0-1.8-0.3-2.4-0.9s-0.9-1.5-0.9-2.6
	c0-1.2,0.3-2.1,0.9-2.7c0.6-0.6,1.4-1,2.3-1c0.9,0,1.7,0.3,2.3,0.9s0.9,1.5,0.9,2.7c0,0.1,0,0.2,0,0.3h-5.2c0,0.8,0.3,1.3,0.6,1.8
	c0.4,0.4,0.9,0.6,1.4,0.6c0.4,0,0.8-0.1,1.1-0.3C738.8,377.4,739,377,739.2,376.5z M735.4,374.6h3.9c-0.1-0.6-0.2-1-0.4-1.3
	c-0.4-0.5-0.9-0.7-1.5-0.7c-0.5,0-1,0.2-1.4,0.5C735.6,373.5,735.4,374,735.4,374.6z M741.9,378.7v-6.9h1.1v1c0.3-0.5,0.5-0.8,0.7-1
	s0.5-0.2,0.8-0.2c0.4,0,0.8,0.1,1.2,0.4l-0.4,1.1c-0.3-0.2-0.6-0.2-0.9-0.2c-0.3,0-0.5,0.1-0.7,0.2c-0.2,0.2-0.3,0.4-0.4,0.6
	c-0.1,0.4-0.2,0.9-0.2,1.4v3.6H741.9z M745.9,376.7l1.2-0.2c0.1,0.5,0.3,0.8,0.5,1.1c0.3,0.2,0.7,0.4,1.2,0.4s0.9-0.1,1.2-0.3
	c0.3-0.2,0.4-0.5,0.4-0.8s-0.1-0.5-0.4-0.6c-0.2-0.1-0.6-0.2-1.2-0.4c-0.9-0.2-1.5-0.4-1.8-0.6s-0.6-0.4-0.8-0.7
	c-0.2-0.3-0.2-0.6-0.2-0.9s0.1-0.6,0.2-0.8c0.1-0.3,0.3-0.5,0.6-0.7c0.2-0.1,0.4-0.2,0.8-0.3s0.7-0.1,1-0.1c0.5,0,1,0.1,1.4,0.2
	s0.7,0.4,0.9,0.6c0.2,0.3,0.3,0.6,0.4,1.1l-1.1,0.2c-0.1-0.4-0.2-0.6-0.5-0.8c-0.2-0.2-0.6-0.3-1.1-0.3s-0.9,0.1-1.2,0.3
	c-0.2,0.2-0.3,0.4-0.3,0.6s0,0.3,0.1,0.4s0.3,0.2,0.5,0.3c0.1,0,0.5,0.1,1,0.3c0.8,0.2,1.4,0.4,1.7,0.5s0.6,0.3,0.8,0.6
	s0.3,0.6,0.3,1s-0.1,0.8-0.3,1.1c-0.2,0.3-0.6,0.6-1,0.8c-0.4,0.2-0.9,0.3-1.5,0.3c-0.9,0-1.6-0.2-2-0.6S746,377.4,745.9,376.7z"/>
<path class="st7" d="M747.1,320.3l-11.9-11.9H732l13.5,13.5l-2.3,2.2l8.3,2.2l-2.2-8.3L747.1,320.3z"/>
<path class="st7" d="M669.9,243.1l2.3-2.3l-8.5-2.3l2.3,8.5l2.3-2.3l21.3,21.4c0.8-0.3,1.7-0.5,2.6-0.7L669.9,243.1z"/>
<path class="st7" d="M747,244.7l2.3,2.3l2.2-8.5l-8.5,2.3l2.3,2.3l-14,14c0.6,0.4,1.3,0.9,1.8,1.4L747,244.7z"/>
<path class="st7" d="M668.2,320.3L666,318l-2.2,8.3l8.3-2.2l-2.2-2.2l13.4-13.3H680L668.2,320.3z"/>
<path class="st7" d="M720.3,258.3h0.4c8.4,0.2,15.4,7.4,16.2,16.7l0.2,1.9l1.9,0.2c5.8,0.6,10.3,6.5,10.1,13.6s-5.1,13-11.1,13h-1.8
	c-4.2,0-16.6,0-28.7,0.1c-12.1,0.1-24.7,0.1-29,0.1H677c-5.9-0.2-11.3-5.8-11.2-11.5c0.1-5.8,4.8-10.4,10.6-10.4h0.3
	c0.9,0,1.8,0.1,2.6,0.4l2.4,0.7l0.5-2.4c1.4-6.4,7-11,13.5-11.1h0.3c1.9,0,3.9,0.5,5.6,1.3l2.3,1.1l0.9-2.3
	C707.6,262.8,713.7,258.3,720.3,258.3 M720.3,256c-7.9,0-14.6,5.3-17.6,12.8c-2-1-4.3-1.5-6.6-1.6h-0.4c-7.7,0-14.3,5.4-15.8,12.9
	c-1-0.3-2.1-0.4-3.2-0.5h-0.3c-7,0-12.7,5.6-12.9,12.6c-0.2,7.1,6.3,13.7,13.4,13.9h1.5c8.6,0,49.2-0.2,57.7-0.2h1.8
	c7.2,0,13.2-6.8,13.4-15.3c0.2-8.3-5.2-15.3-12.2-15.9c-0.9-10.4-8.8-18.6-18.5-18.8L720.3,256z"/>
<path class="st0" d="M488.4,127.3l-155.7-0.4"/>
<path class="st9" d="M488.4,127.3l-155.7-0.4"/>
<path class="st0" d="M388.1,41.2h138.7v141.3H388.1V41.2z"/>
<path class="st10" d="M388.1,41.2h138.7v141.3H388.1V41.2z"/>
<path class="st0" d="M526.7,41.2h138.7v141.3H526.7V41.2z"/>
<path class="st11" d="M526.7,41.2h138.7v141.3H526.7V41.2z"/>
<path class="st2" d="M498.8,204.4l2.6,0.8c-0.4,1.5-1.1,2.5-2,3.2s-2.1,1.1-3.5,1.1c-1.8,0-3.2-0.6-4.4-1.8c-1.1-1.2-1.7-2.9-1.7-5
	c0-2.2,0.6-3.9,1.7-5.2c1.1-1.2,2.7-1.8,4.5-1.8c1.6,0,3,0.5,4,1.4c0.6,0.6,1.1,1.4,1.4,2.5l-2.7,0.6c-0.2-0.7-0.5-1.2-1-1.6
	c-0.5-0.4-1.1-0.6-1.8-0.6c-1,0-1.8,0.4-2.4,1.1c-0.6,0.7-0.9,1.9-0.9,3.4c0,1.7,0.3,2.9,0.9,3.6c0.6,0.7,1.4,1.1,2.4,1.1
	c0.7,0,1.3-0.2,1.8-0.7C498.2,206.1,498.6,205.4,498.8,204.4z M503.2,204.3c0-0.9,0.2-1.7,0.6-2.5s1-1.4,1.8-1.8
	c0.8-0.4,1.6-0.6,2.6-0.6c1.5,0,2.7,0.5,3.6,1.4s1.4,2.2,1.4,3.6c0,1.5-0.5,2.7-1.4,3.6c-0.9,1-2.1,1.4-3.6,1.4
	c-0.9,0-1.7-0.2-2.5-0.6c-0.8-0.4-1.4-1-1.8-1.8C503.4,206.4,503.2,205.4,503.2,204.3z M505.8,204.4c0,1,0.2,1.7,0.7,2.2
	s1,0.8,1.7,0.8s1.2-0.2,1.7-0.8c0.5-0.5,0.7-1.3,0.7-2.2s-0.2-1.7-0.7-2.2c-0.4-0.5-1-0.8-1.7-0.8s-1.2,0.3-1.7,0.8
	S505.8,203.5,505.8,204.4z M523.9,209.3h-2.6v-4.9c0-1-0.1-1.7-0.2-2c-0.1-0.3-0.3-0.6-0.5-0.7c-0.2-0.2-0.5-0.3-0.9-0.3
	s-0.8,0.1-1.2,0.4c-0.4,0.2-0.6,0.6-0.7,1c-0.1,0.4-0.2,1.1-0.2,2.2v4.4h-2.5v-9.7h2.4v1.4c0.8-1.1,1.9-1.6,3.2-1.6
	c0.6,0,1.1,0.1,1.5,0.3c0.5,0.2,0.8,0.5,1.1,0.8c0.2,0.3,0.4,0.7,0.5,1.1c0.1,0.4,0.1,1,0.1,1.7L523.9,209.3L523.9,209.3z
	 M531,199.6v2h-1.8v3.9c0,0.8,0,1.3,0,1.4c0,0.1,0.1,0.2,0.2,0.3c0.1,0.1,0.3,0.1,0.4,0.1c0.2,0,0.6-0.1,1-0.2l0.2,2
	c-0.6,0.2-1.3,0.4-2,0.4c-0.5,0-0.9-0.1-1.3-0.2c-0.4-0.2-0.6-0.4-0.8-0.6c-0.2-0.2-0.3-0.6-0.3-1c-0.1-0.3-0.1-0.9-0.1-1.8v-4.2
	h-1.2v-2h1.2v-1.9l2.6-1.5v3.4L531,199.6L531,199.6z M535.2,209.3h-2.6v-9.7h2.4v1.4c0.4-0.7,0.8-1.1,1.1-1.3s0.7-0.3,1.1-0.3
	c0.6,0,1.1,0.2,1.7,0.5l-0.8,2.2c-0.4-0.3-0.8-0.4-1.2-0.4s-0.7,0.1-0.9,0.3s-0.4,0.6-0.6,1.1c-0.1,0.5-0.2,1.6-0.2,3.2V209.3z
	 M539.4,204.3c0-0.9,0.2-1.7,0.6-2.5c0.4-0.8,1-1.4,1.8-1.8c0.8-0.4,1.6-0.6,2.6-0.6c1.5,0,2.7,0.5,3.6,1.4c0.9,0.9,1.4,2.2,1.4,3.6
	c0,1.5-0.5,2.7-1.4,3.6c-0.9,1-2.1,1.4-3.6,1.4c-0.9,0-1.7-0.2-2.5-0.6c-0.8-0.4-1.4-1-1.8-1.8C539.6,206.4,539.4,205.4,539.4,204.3
	z M542,204.4c0,1,0.2,1.7,0.7,2.2s1,0.8,1.7,0.8s1.2-0.2,1.7-0.8c0.5-0.5,0.7-1.3,0.7-2.2s-0.2-1.7-0.7-2.2c-0.4-0.5-1-0.8-1.7-0.8
	s-1.2,0.3-1.7,0.8C542.3,202.7,542,203.5,542,204.4z M551.4,209.3v-13.4h2.6v13.4H551.4z M556.6,209.3v-13.4h2.6v13.4H556.6z
	 M567.4,206.2l2.5,0.4c-0.3,0.9-0.8,1.7-1.5,2.1c-0.7,0.5-1.6,0.7-2.7,0.7c-1.7,0-2.9-0.6-3.7-1.7c-0.6-0.9-1-2-1-3.3
	c0-1.6,0.4-2.9,1.2-3.8c0.8-0.9,1.9-1.4,3.2-1.4c1.4,0,2.6,0.5,3.4,1.4c0.8,0.9,1.2,2.4,1.2,4.4h-6.4c0,0.8,0.2,1.4,0.6,1.8
	c0.4,0.4,0.9,0.6,1.5,0.6c0.4,0,0.7-0.1,1-0.3C567,207,567.2,206.7,567.4,206.2z M567.5,203.6c0-0.7-0.2-1.3-0.6-1.7
	c-0.4-0.4-0.8-0.6-1.3-0.6c-0.6,0-1,0.2-1.4,0.6s-0.5,1-0.5,1.7H567.5z M574.6,209.3H572v-9.7h2.4v1.4c0.4-0.7,0.8-1.1,1.1-1.3
	s0.7-0.3,1.1-0.3c0.6,0,1.1,0.2,1.7,0.5l-0.8,2.2c-0.4-0.3-0.8-0.4-1.2-0.4s-0.7,0.1-0.9,0.3c-0.3,0.2-0.4,0.6-0.6,1.1
	c-0.1,0.5-0.2,1.6-0.2,3.2V209.3z"/>
<path class="st2" d="M461.2,61.3l1.3,0.3c-0.3,1-0.7,1.8-1.4,2.4c-0.7,0.5-1.5,0.8-2.5,0.8s-1.9-0.2-2.5-0.6s-1.1-1-1.5-1.8
	c-0.3-0.8-0.5-1.6-0.5-2.6s0.2-1.9,0.6-2.6c0.4-0.7,0.9-1.3,1.6-1.7s1.5-0.6,2.3-0.6c0.9,0,1.7,0.2,2.4,0.7c0.7,0.5,1.1,1.2,1.4,2
	l-1.2,0.3c-0.2-0.7-0.5-1.2-1-1.5c-0.4-0.3-0.9-0.5-1.6-0.5s-1.3,0.2-1.8,0.5c-0.5,0.4-0.8,0.8-1,1.4c-0.2,0.6-0.3,1.2-0.3,1.8
	c0,0.8,0.1,1.5,0.3,2.1c0.2,0.6,0.6,1.1,1.1,1.4c0.5,0.3,1,0.4,1.6,0.4c0.7,0,1.3-0.2,1.8-0.6C460.7,62.7,461.1,62.1,461.2,61.3z
	 M468.4,64.7v-1c-0.5,0.8-1.3,1.2-2.2,1.2c-0.4,0-0.8-0.1-1.1-0.2c-0.4-0.2-0.6-0.3-0.8-0.6c-0.2-0.2-0.3-0.5-0.4-0.9
	c0-0.2-0.1-0.6-0.1-1.1v-4.3h1.2v3.8c0,0.6,0,1,0.1,1.2c0.1,0.3,0.2,0.6,0.5,0.7c0.2,0.2,0.5,0.2,0.9,0.2c0.3,0,0.7-0.1,1-0.3
	s0.5-0.4,0.7-0.7s0.2-0.8,0.2-1.3v-3.7h1.2v6.9L468.4,64.7L468.4,64.7z M470.8,62.6l1.2-0.2c0.1,0.5,0.3,0.8,0.5,1.1
	c0.3,0.2,0.7,0.4,1.2,0.4s0.9-0.1,1.2-0.3c0.3-0.2,0.4-0.5,0.4-0.8s-0.1-0.5-0.4-0.6c-0.2-0.1-0.6-0.2-1.2-0.4
	c-0.9-0.2-1.5-0.4-1.8-0.6c-0.3-0.2-0.6-0.4-0.8-0.7c-0.2-0.3-0.2-0.6-0.2-0.9c0-0.3,0.1-0.6,0.2-0.8c0.1-0.3,0.3-0.5,0.6-0.7
	c0.2-0.1,0.4-0.2,0.8-0.3s0.7-0.1,1-0.1c0.5,0,1,0.1,1.4,0.2s0.7,0.4,0.9,0.6c0.2,0.3,0.3,0.6,0.4,1.1l-1.1,0.2
	c-0.1-0.4-0.2-0.6-0.5-0.8c-0.2-0.2-0.6-0.3-1.1-0.3s-0.9,0.1-1.2,0.3c-0.2,0.2-0.3,0.4-0.3,0.6c0,0.2,0,0.3,0.1,0.4
	c0.1,0.1,0.3,0.2,0.5,0.3c0.1,0,0.5,0.1,1,0.3c0.8,0.2,1.4,0.4,1.7,0.5c0.3,0.1,0.6,0.3,0.8,0.6c0.2,0.3,0.3,0.6,0.3,1
	s-0.1,0.8-0.3,1.1c-0.2,0.3-0.6,0.6-1,0.8c-0.4,0.2-0.9,0.3-1.5,0.3c-0.9,0-1.6-0.2-2-0.6S471,63.3,470.8,62.6z M480.5,63.6l0.2,1
	c-0.3,0.1-0.6,0.1-0.9,0.1c-0.4,0-0.8-0.1-1-0.2s-0.4-0.3-0.5-0.5s-0.1-0.7-0.1-1.4v-4h-0.9v-0.9h0.9V56l1.2-0.7v2.4h1.2v0.9h-1.2v4
	c0,0.3,0,0.5,0,0.6s0.1,0.2,0.2,0.2c0.1,0.1,0.2,0.1,0.4,0.1C480.2,63.7,480.3,63.6,480.5,63.6z M481.2,61.2c0-1.3,0.4-2.2,1.1-2.8
	c0.6-0.5,1.3-0.8,2.2-0.8c0.9,0,1.7,0.3,2.3,0.9c0.6,0.6,0.9,1.5,0.9,2.6c0,0.9-0.1,1.6-0.4,2.1s-0.6,0.9-1.2,1.2
	c-0.5,0.3-1.1,0.4-1.7,0.4c-1,0-1.8-0.3-2.4-0.9C481.5,63.3,481.2,62.4,481.2,61.2z M482.4,61.2c0,0.9,0.2,1.5,0.6,2
	c0.4,0.4,0.9,0.7,1.5,0.7s1.1-0.2,1.5-0.7c0.4-0.4,0.6-1.1,0.6-2s-0.2-1.5-0.6-1.9s-0.9-0.7-1.4-0.7c-0.6,0-1.1,0.2-1.5,0.7
	C482.6,59.7,482.4,60.3,482.4,61.2z M489.1,64.7v-6.9h1v1c0.2-0.3,0.5-0.6,0.9-0.8s0.8-0.3,1.2-0.3c0.5,0,0.9,0.1,1.3,0.3
	c0.3,0.2,0.6,0.5,0.7,0.9c0.6-0.8,1.3-1.2,2.1-1.2c0.7,0,1.2,0.2,1.6,0.6c0.4,0.4,0.6,1,0.6,1.7v4.8h-1.2v-4.4c0-0.5,0-0.8-0.1-1
	s-0.2-0.4-0.4-0.5c-0.2-0.1-0.4-0.2-0.7-0.2c-0.5,0-0.9,0.2-1.2,0.5c-0.3,0.3-0.5,0.8-0.5,1.5v4h-1.2v-4.5c0-0.5-0.1-0.9-0.3-1.2
	c-0.2-0.3-0.5-0.4-0.9-0.4c-0.3,0-0.6,0.1-0.9,0.3s-0.5,0.4-0.6,0.8c-0.1,0.3-0.2,0.8-0.2,1.5v3.6L489.1,64.7L489.1,64.7z
	 M504.9,62.4l1.2,0.1c-0.2,0.7-0.5,1.3-1.1,1.7c-0.5,0.4-1.2,0.6-2,0.6c-1,0-1.8-0.3-2.4-0.9s-0.9-1.5-0.9-2.6
	c0-1.2,0.3-2.1,0.9-2.7c0.6-0.6,1.4-1,2.3-1s1.7,0.3,2.3,0.9c0.6,0.6,0.9,1.5,0.9,2.7c0,0.1,0,0.2,0,0.3H501c0,0.8,0.3,1.3,0.6,1.8
	c0.4,0.4,0.9,0.6,1.4,0.6c0.4,0,0.8-0.1,1.1-0.3C504.5,63.3,504.7,62.9,504.9,62.4z M501.1,60.5h3.9c-0.1-0.6-0.2-1-0.4-1.3
	c-0.4-0.5-0.9-0.7-1.5-0.7c-0.5,0-1,0.2-1.4,0.5C501.3,59.4,501.1,59.9,501.1,60.5z M507.6,64.7v-6.9h1.1v1c0.3-0.5,0.5-0.8,0.7-1
	s0.5-0.2,0.8-0.2c0.4,0,0.8,0.1,1.2,0.4l-0.4,1.1c-0.3-0.2-0.6-0.2-0.9-0.2s-0.5,0.1-0.7,0.2c-0.2,0.2-0.3,0.4-0.4,0.6
	c-0.1,0.4-0.2,0.9-0.2,1.4v3.6H507.6z M511.6,61.8v-1.2h3.6v1.2H511.6z"/>
<path class="st2" d="M454.3,80.7v-6.9h1v1c0.2-0.3,0.5-0.6,0.9-0.8c0.4-0.2,0.8-0.3,1.2-0.3c0.5,0,0.9,0.1,1.3,0.3
	c0.3,0.2,0.6,0.5,0.7,0.9c0.6-0.8,1.3-1.2,2.1-1.2c0.7,0,1.2,0.2,1.6,0.6s0.6,1,0.6,1.7v4.8h-1.2v-4.4c0-0.5,0-0.8-0.1-1
	s-0.2-0.4-0.4-0.5c-0.2-0.1-0.4-0.2-0.7-0.2c-0.5,0-0.9,0.2-1.2,0.5c-0.3,0.3-0.5,0.8-0.5,1.5v4h-1.2v-4.5c0-0.5-0.1-0.9-0.3-1.2
	c-0.2-0.3-0.5-0.4-0.9-0.4c-0.3,0-0.6,0.1-0.9,0.3c-0.3,0.2-0.5,0.4-0.6,0.8c-0.1,0.3-0.2,0.8-0.2,1.5v3.6h-1.2V80.7z M469.9,79.8
	c-0.4,0.4-0.9,0.6-1.3,0.8c-0.4,0.1-0.8,0.2-1.3,0.2c-0.8,0-1.3-0.2-1.8-0.5c-0.4-0.4-0.6-0.9-0.6-1.4c0-0.3,0.1-0.6,0.2-0.9
	c0.2-0.3,0.4-0.5,0.6-0.7s0.5-0.3,0.8-0.4c0.2-0.1,0.6-0.1,1-0.2c0.9-0.1,1.6-0.2,2.1-0.4c0-0.2,0-0.3,0-0.3c0-0.5-0.1-0.8-0.3-1
	c-0.3-0.3-0.8-0.4-1.3-0.4s-0.9,0.1-1.2,0.3c-0.3,0.2-0.5,0.5-0.6,1l-1.1-0.2c0.1-0.5,0.3-0.9,0.5-1.2c0.2-0.3,0.6-0.5,1-0.7
	s1-0.2,1.6-0.2s1.1,0.1,1.4,0.2c0.4,0.1,0.6,0.3,0.8,0.5c0.2,0.2,0.3,0.5,0.4,0.8c0,0.2,0,0.6,0,1.1v1.6c0,1.1,0,1.8,0.1,2.1
	c0.1,0.3,0.2,0.6,0.3,0.8H470C470,80.4,469.9,80.1,469.9,79.8z M469.8,77.2c-0.4,0.2-1.1,0.3-1.9,0.4c-0.5,0.1-0.8,0.2-1,0.2
	c-0.2,0.1-0.4,0.2-0.5,0.4c-0.1,0.2-0.2,0.3-0.2,0.5c0,0.3,0.1,0.6,0.3,0.8c0.2,0.2,0.6,0.3,1,0.3s0.8-0.1,1.2-0.3
	c0.4-0.2,0.6-0.5,0.8-0.8c0.1-0.3,0.2-0.7,0.2-1.2v-0.3H469.8z M472.8,80.7v-6.9h1.1v1c0.5-0.8,1.2-1.1,2.2-1.1
	c0.4,0,0.8,0.1,1.2,0.2c0.4,0.1,0.6,0.3,0.8,0.6c0.2,0.2,0.3,0.5,0.4,0.9c0,0.2,0.1,0.6,0.1,1.1v4.2h-1.2v-4.2c0-0.5,0-0.8-0.1-1.1
	c-0.1-0.2-0.3-0.4-0.5-0.6c-0.2-0.1-0.5-0.2-0.8-0.2c-0.5,0-0.9,0.2-1.3,0.5s-0.5,0.9-0.5,1.8v3.8C474.2,80.7,472.8,80.7,472.8,80.7
	z M484.7,79.8c-0.4,0.4-0.9,0.6-1.3,0.8c-0.4,0.1-0.8,0.2-1.3,0.2c-0.8,0-1.3-0.2-1.8-0.5c-0.4-0.4-0.6-0.9-0.6-1.4
	c0-0.3,0.1-0.6,0.2-0.9c0.2-0.3,0.4-0.5,0.6-0.7s0.5-0.3,0.8-0.4c0.2-0.1,0.6-0.1,1-0.2c0.9-0.1,1.6-0.2,2.1-0.4c0-0.2,0-0.3,0-0.3
	c0-0.5-0.1-0.8-0.3-1c-0.3-0.3-0.8-0.4-1.3-0.4s-0.9,0.1-1.2,0.3c-0.3,0.2-0.5,0.5-0.6,1l-1.1-0.2c0.1-0.5,0.3-0.9,0.5-1.2
	c0.2-0.3,0.6-0.5,1-0.7s1-0.2,1.6-0.2s1.1,0.1,1.4,0.2c0.4,0.1,0.6,0.3,0.8,0.5c0.2,0.2,0.3,0.5,0.4,0.8c0,0.2,0,0.6,0,1.1v1.6
	c0,1.1,0,1.8,0.1,2.1c0.1,0.3,0.2,0.6,0.3,0.8h-1.2C484.8,80.4,484.7,80.1,484.7,79.8z M484.6,77.2c-0.4,0.2-1.1,0.3-1.9,0.4
	c-0.5,0.1-0.8,0.2-1,0.2c-0.2,0.1-0.4,0.2-0.5,0.4c-0.1,0.2-0.2,0.3-0.2,0.5c0,0.3,0.1,0.6,0.3,0.8c0.2,0.2,0.6,0.3,1,0.3
	s0.8-0.1,1.2-0.3c0.4-0.2,0.6-0.5,0.8-0.8c0.1-0.3,0.2-0.7,0.2-1.2v-0.3H484.6z M487.4,81.2l1.1,0.2c0.1,0.4,0.2,0.6,0.4,0.8
	c0.3,0.2,0.7,0.3,1.2,0.3s1-0.1,1.2-0.3c0.3-0.2,0.5-0.5,0.6-0.9c0.1-0.2,0.1-0.7,0.1-1.5c-0.5,0.6-1.1,0.9-1.9,0.9
	c-1,0-1.7-0.3-2.2-1s-0.8-1.5-0.8-2.5c0-0.7,0.1-1.3,0.4-1.8c0.2-0.6,0.6-1,1-1.3c0.5-0.3,1-0.5,1.6-0.5c0.8,0,1.5,0.3,2,1v-0.8h1.1
	v6c0,1.1-0.1,1.8-0.3,2.3c-0.2,0.5-0.6,0.8-1,1.1c-0.5,0.3-1.1,0.4-1.8,0.4c-0.8,0-1.5-0.2-2-0.6C487.6,82.5,487.4,82,487.4,81.2z
	 M488.4,77.1c0,0.9,0.2,1.6,0.5,2c0.4,0.4,0.8,0.6,1.4,0.6c0.5,0,1-0.2,1.3-0.6c0.4-0.4,0.5-1.1,0.5-2c0-0.8-0.2-1.5-0.6-1.9
	s-0.8-0.6-1.4-0.6c-0.5,0-0.9,0.2-1.3,0.6C488.6,75.6,488.4,76.2,488.4,77.1z M499.8,78.4l1.2,0.1c-0.2,0.7-0.5,1.3-1.1,1.7
	c-0.5,0.4-1.2,0.6-2,0.6c-1,0-1.8-0.3-2.4-0.9s-0.9-1.5-0.9-2.6c0-1.2,0.3-2.1,0.9-2.7s1.4-1,2.3-1s1.7,0.3,2.3,0.9
	c0.6,0.6,0.9,1.5,0.9,2.7c0,0.1,0,0.2,0,0.3h-5.2c0,0.8,0.3,1.3,0.6,1.8c0.4,0.4,0.9,0.6,1.4,0.6c0.4,0,0.8-0.1,1.1-0.3
	C499.3,79.3,499.6,78.9,499.8,78.4z M495.9,76.5h3.9c-0.1-0.6-0.2-1-0.4-1.3c-0.4-0.5-0.9-0.7-1.5-0.7c-0.5,0-1,0.2-1.4,0.5
	C496.2,75.4,496,75.9,495.9,76.5z M506.9,80.7v-0.9c-0.4,0.7-1.1,1-1.9,1c-0.5,0-1-0.2-1.5-0.5s-0.8-0.7-1.1-1.3
	c-0.2-0.6-0.4-1.2-0.4-1.9c0-0.7,0.1-1.3,0.3-1.9c0.2-0.6,0.6-1,1-1.3c0.5-0.3,1-0.5,1.5-0.5c0.4,0,0.8,0.1,1.1,0.3
	c0.3,0.2,0.6,0.4,0.8,0.7V71h1.2v9.5h-1V80.7z M503.2,77.2c0,0.9,0.2,1.5,0.6,2s0.8,0.7,1.3,0.7s0.9-0.2,1.3-0.6s0.5-1.1,0.5-1.9
	c0-0.9-0.2-1.6-0.5-2.1c-0.4-0.4-0.8-0.7-1.3-0.7s-1,0.2-1.3,0.6C503.4,75.6,503.2,76.3,503.2,77.2z"/>
<path class="st2" d="M576.7,88.7v-9.5h1.3V83h5v-3.9h1.3v9.5H583v-4.5h-5v4.5L576.7,88.7L576.7,88.7z M585.7,85.2
	c0-1.3,0.4-2.2,1.1-2.8c0.6-0.5,1.3-0.8,2.2-0.8s1.7,0.3,2.3,0.9s0.9,1.5,0.9,2.6c0,0.9-0.1,1.6-0.4,2.1c-0.3,0.5-0.6,0.9-1.2,1.2
	s-1.1,0.4-1.7,0.4c-1,0-1.8-0.3-2.4-0.9C586,87.3,585.7,86.4,585.7,85.2z M586.9,85.2c0,0.9,0.2,1.5,0.6,2c0.4,0.4,0.9,0.7,1.5,0.7
	s1.1-0.2,1.5-0.7c0.4-0.4,0.6-1.1,0.6-2s-0.2-1.5-0.6-1.9c-0.4-0.4-0.9-0.7-1.4-0.7c-0.6,0-1.1,0.2-1.5,0.7
	C587.1,83.7,586.9,84.3,586.9,85.2z M593.1,86.6l1.2-0.2c0.1,0.5,0.3,0.8,0.5,1.1c0.3,0.2,0.7,0.4,1.2,0.4s0.9-0.1,1.2-0.3
	c0.3-0.2,0.4-0.5,0.4-0.8s-0.1-0.5-0.4-0.6c-0.2-0.1-0.6-0.2-1.2-0.4c-0.9-0.2-1.5-0.4-1.8-0.6s-0.6-0.4-0.8-0.7
	c-0.2-0.3-0.2-0.6-0.2-0.9s0.1-0.6,0.2-0.8c0.1-0.3,0.3-0.5,0.6-0.7c0.2-0.1,0.4-0.2,0.8-0.3s0.7-0.1,1-0.1c0.5,0,1,0.1,1.4,0.2
	s0.7,0.4,0.9,0.6c0.2,0.3,0.3,0.6,0.4,1.1l-1.1,0.2c-0.1-0.4-0.2-0.6-0.5-0.8c-0.2-0.2-0.6-0.3-1.1-0.3s-0.9,0.1-1.2,0.3
	c-0.2,0.2-0.3,0.4-0.3,0.6s0,0.3,0.1,0.4s0.3,0.2,0.5,0.3c0.1,0,0.5,0.1,1,0.3c0.8,0.2,1.4,0.4,1.7,0.5s0.6,0.3,0.8,0.6
	c0.2,0.3,0.3,0.6,0.3,1s-0.1,0.8-0.3,1.1c-0.2,0.3-0.6,0.6-1,0.8c-0.4,0.2-0.9,0.3-1.5,0.3c-0.9,0-1.6-0.2-2-0.6
	S593.2,87.3,593.1,86.6z M602.8,87.6l0.2,1c-0.3,0.1-0.6,0.1-0.9,0.1c-0.4,0-0.8-0.1-1-0.2s-0.4-0.3-0.5-0.5s-0.1-0.7-0.1-1.4v-4
	h-0.9v-0.9h0.9V80l1.2-0.7v2.4h1.2v0.9h-1.2v4c0,0.3,0,0.5,0,0.6s0.1,0.2,0.2,0.2c0.1,0.1,0.2,0.1,0.4,0.1
	C602.4,87.7,602.5,87.6,602.8,87.6z M608.6,86.4l1.2,0.1c-0.2,0.7-0.5,1.3-1.1,1.7c-0.5,0.4-1.2,0.6-2,0.6c-1,0-1.8-0.3-2.4-0.9
	c-0.6-0.6-0.9-1.5-0.9-2.6c0-1.2,0.3-2.1,0.9-2.7c0.6-0.6,1.4-1,2.3-1c0.9,0,1.7,0.3,2.3,0.9s0.9,1.5,0.9,2.7c0,0.1,0,0.2,0,0.3
	h-5.2c0,0.8,0.3,1.3,0.6,1.8c0.4,0.4,0.9,0.6,1.4,0.6c0.4,0,0.8-0.1,1.1-0.3C608.2,87.3,608.5,86.9,608.6,86.4z M604.8,84.5h3.9
	c-0.1-0.6-0.2-1-0.4-1.3c-0.4-0.5-0.9-0.7-1.5-0.7c-0.5,0-1,0.2-1.4,0.5C605,83.4,604.8,83.9,604.8,84.5z M615.8,88.7v-0.9
	c-0.4,0.7-1.1,1-1.9,1c-0.5,0-1-0.2-1.5-0.5s-0.8-0.7-1.1-1.3c-0.2-0.6-0.4-1.2-0.4-1.9c0-0.7,0.1-1.3,0.3-1.9s0.6-1,1-1.3
	c0.5-0.3,1-0.5,1.5-0.5c0.4,0,0.8,0.1,1.1,0.3c0.3,0.2,0.6,0.4,0.8,0.7V79h1.2v9.5h-1V88.7z M612.1,85.2c0,0.9,0.2,1.5,0.6,2
	s0.8,0.7,1.3,0.7s0.9-0.2,1.3-0.6c0.4-0.4,0.5-1.1,0.5-1.9c0-0.9-0.2-1.6-0.5-2.1c-0.4-0.4-0.8-0.7-1.3-0.7s-1,0.2-1.3,0.6
	C612.3,83.6,612.1,84.3,612.1,85.2z"/>
<path class="st2" d="M712.6,277v-1h2.5v2.3c-0.2,0.2-0.6,0.4-1,0.6c-0.5,0.2-0.9,0.3-1.4,0.3c-0.6,0-1.1-0.1-1.6-0.4
	c-0.4-0.2-0.8-0.6-1-1.1c-0.2-0.5-0.3-1-0.3-1.5c0-0.6,0.1-1.1,0.4-1.6c0.2-0.5,0.6-0.8,1.1-1.1c0.4-0.2,0.8-0.3,1.4-0.3
	c0.7,0,1.3,0.2,1.7,0.5s0.7,0.7,0.8,1.2l-1.2,0.2c-0.1-0.3-0.2-0.5-0.5-0.7c-0.2-0.2-0.5-0.2-0.8-0.2c-0.5,0-0.9,0.2-1.2,0.5
	c-0.3,0.3-0.4,0.8-0.4,1.4c0,0.7,0.2,1.2,0.5,1.5c0.3,0.3,0.7,0.5,1.2,0.5c0.2,0,0.5,0,0.7-0.1c0.2-0.1,0.5-0.2,0.6-0.3V277H712.6z
	 M719.8,277l1.1,0.4c-0.2,0.6-0.5,1.1-0.9,1.4s-0.9,0.5-1.5,0.5c-0.8,0-1.4-0.3-1.9-0.8s-0.7-1.2-0.7-2.1c0-1,0.2-1.7,0.7-2.2
	s1.2-0.8,2-0.8c0.7,0,1.3,0.2,1.7,0.6c0.3,0.2,0.5,0.6,0.6,1l-1.2,0.3c-0.1-0.3-0.2-0.5-0.4-0.7c-0.2-0.2-0.5-0.3-0.8-0.3
	c-0.4,0-0.8,0.2-1,0.5c-0.3,0.3-0.4,0.8-0.4,1.5s0.1,1.2,0.4,1.6c0.3,0.3,0.6,0.5,1,0.5c0.3,0,0.6-0.1,0.8-0.3
	C719.6,277.7,719.7,277.4,719.8,277z M723.3,279.1l-2-5.7h1.2l1.5,4.2l1.4-4.2h1.2l-2,5.7H723.3z M727.2,279.1v-5.7h4.2v1h-3.1v1.3
	h2.9v1h-2.9v1.6h3.2v1h-4.3V279.1z"/>
<path class="st2" d="M719.6,293.5h-1.3l-0.5-1.3h-2.3l-0.5,1.3h-1.2l2.2-5.7h1.2L719.6,293.5z M717.5,291.3l-0.8-2.1l-0.8,2.1H717.5
	z M721.1,293.5l-2-5.7h1.2l1.5,4.2l1.4-4.2h1.2l-2,5.7H721.1z M724.7,291.7l1.1-0.1c0.1,0.4,0.2,0.7,0.4,0.8
	c0.2,0.2,0.5,0.3,0.8,0.3c0.4,0,0.6-0.1,0.8-0.2c0.2-0.2,0.3-0.3,0.3-0.6c0-0.1,0-0.2-0.1-0.3c-0.1-0.1-0.2-0.2-0.4-0.2
	c-0.1,0-0.4-0.1-0.9-0.2c-0.6-0.1-1-0.3-1.3-0.6c-0.4-0.3-0.5-0.7-0.5-1.2c0-0.3,0.1-0.6,0.2-0.8c0.2-0.2,0.4-0.4,0.7-0.6
	c0.3-0.1,0.7-0.2,1.1-0.2c0.7,0,1.3,0.2,1.6,0.5c0.4,0.3,0.6,0.7,0.6,1.2h-1.2c-0.1-0.3-0.2-0.5-0.3-0.6c-0.2-0.1-0.4-0.2-0.7-0.2
	s-0.6,0.1-0.8,0.2c-0.1,0.1-0.2,0.2-0.2,0.3c0,0.1,0.1,0.3,0.2,0.4c0.1,0.1,0.5,0.2,1.1,0.4c0.6,0.1,1,0.3,1.2,0.4
	c0.3,0.1,0.5,0.3,0.6,0.6c0.2,0.2,0.2,0.5,0.2,0.9c0,0.3-0.1,0.6-0.3,0.9s-0.4,0.5-0.8,0.6c-0.3,0.1-0.8,0.2-1.2,0.2
	c-0.7,0-1.3-0.2-1.7-0.5C725,292.8,724.7,292.3,724.7,291.7z"/>
<g>
	<path class="st12" d="M322.1,120.9h-0.4v-0.4c-1.1-12.2-10.3-21.6-21.4-21.8c-0.2,0-0.4,0-0.5,0c-8.9,0-16.8,5.8-20.3,14.9
		l-0.2,0.5l-0.5-0.3c-2.3-1.1-4.9-1.7-7.6-1.8c-0.2,0-0.3,0-0.5,0l0,0c-4.3,0-8.5,1.5-11.8,4.2c-3.3,2.7-5.6,6.5-6.5,10.7l-0.1,0.6
		l-0.5-0.2c-1.1-0.3-2.4-0.5-3.6-0.5c-0.1,0-0.2,0-0.4,0c-3.9,0-7.5,1.5-10.3,4.2s-4.4,6.4-4.4,10.2c-0.2,8.1,7.2,15.7,15.4,15.9
		c0.2,0,0.8,0,1.8,0c5.1,0,20-0.1,34.3-0.1c14.3-0.1,29-0.1,34-0.1c1,0,1.6,0,1.8,0c0.1,0,0.2,0,0.3,0c8.3,0,15.1-7.9,15.4-17.6
		C336.3,129.7,330.2,121.6,322.1,120.9z M334.4,139.2c-0.2,8.8-6.3,16-13.7,16c-0.1,0-0.2,0-0.3,0c-0.2,0-0.8,0-1.8,0
		c-4.9,0-19.5,0.1-33.5,0.1h-0.5c-14.4,0.1-29.3,0.1-34.3,0.1c-1,0-1.5,0-1.7,0c-7.3-0.2-14-7.1-13.8-14.2c0.2-7.1,6-12.8,13-12.8
		c0.1,0,0.2,0,0.3,0c1.1,0,2.2,0.2,3.2,0.5l2.3,0.6l0.5-2.3c1.7-7.9,8.7-13.6,16.6-13.6l0,0c0.1,0,0.3,0,0.4,0
		c2.5,0.1,4.8,0.6,6.9,1.6l2.2,1l0.9-2.2c3.2-8.4,10.6-13.8,18.8-13.8c0.2,0,0.3,0,0.5,0c10.2,0.2,18.7,9,19.8,20.3l0.2,1.8l1.8,0.2
		C329.1,123.2,334.6,130.5,334.4,139.2z"/>
	<circle class="st13" cx="295.7" cy="133.5" r="19.2"/>
	<path class="st8" d="M306.1,124.7c-1.7-0.5-3.4-1.1-5-1.8c-1.6-0.7-3.2-1.5-4.6-2.4l-0.8-0.5l-0.7,0.5c-1.5,0.9-3,1.8-4.6,2.4
		c-1.6,0.7-3.3,1.3-5,1.8l-1.1,0.3v7c0,10.6,10.6,14.7,11,14.9l0.5,0.2l0.5-0.2l0.3-0.1l0,0c0.8-0.3,3.3-1.4,5.7-3.6
		c3.4-3.1,5.1-6.8,5.1-11.2v-7L306.1,124.7z M295.8,121.5c1.5,1,3.1,1.8,4.8,2.5c1.7,0.8,3.4,1.4,5.2,1.9h0.1v6
		c0,9.8-9.7,13.5-10.1,13.7h-0.1l0,0c-0.4-0.2-10.2-4-10.2-13.7v-6h0.1c1.8-0.5,3.5-1.1,5.2-1.8c1.7-0.7,3.3-1.6,4.8-2.5
		L295.8,121.5L295.8,121.5z"/>
	<path class="st8" d="M297.4,141.7L297.4,141.7c-0.3,0-0.5-0.2-0.6-0.5l-2.1-11.9l-1.6,8.1c-0.1,0.3-0.3,0.5-0.5,0.5l0,0
		c-0.3,0-0.5-0.2-0.6-0.4l-0.8-3.2h-6v-1.1h6.5c0.3,0,0.5,0.2,0.6,0.4l0.3,1.1l1.7-8.5c0.1-0.3,0.3-0.5,0.6-0.5l0,0
		c0.3,0,0.5,0.2,0.6,0.5l2.1,12l1.8-8.6c0.1-0.3,0.3-0.4,0.5-0.5c0.3,0,0.5,0.2,0.6,0.4l0.9,3.3h5v1.1H301c-0.3,0-0.5-0.2-0.6-0.4
		L300,132l-2,9.2C297.9,141.5,297.7,141.7,297.4,141.7z"/>
</g>
<g id="Layer_2_1_">
	<g id="Layer_1-2">
		<path class="st13" d="M562.6,103l-32.3-18.7c-1.9-1.1-4.2-1.1-6.1,0L491.9,103c-1.9,1.1-3,3.1-3,5.3v37.3c0,2.2,1.2,4.2,3,5.3
			l32.3,18.6c0.9,0.5,2,0.8,3.1,0.8s2.1-0.3,3-0.8l32.3-18.6c1.9-1.1,3.1-3.1,3-5.3v-37.3C565.7,106.1,564.5,104.1,562.6,103z"/>
		<path class="st14" d="M530.6,99.8l3.4,5.1c0.9,1.3,2.5,2,4.1,1.7l6-1.2c2.2-0.4,4.3,1,4.7,3.1c0.1,0.5,0.1,1.1,0,1.6l-1.2,5.9
			c-0.3,1.6,0.3,3.3,1.7,4.2l5.1,3.3c1.8,1.2,2.3,3.7,1.1,5.6c-0.3,0.4-0.7,0.8-1.1,1.1l-5.1,3.4c-1.4,0.9-2,2.5-1.7,4.1l1.2,6
			c0.4,2.2-1,4.3-3.1,4.7c-0.5,0.1-1.1,0.1-1.6,0l-6-1.2c-1.6-0.3-3.2,0.4-4.1,1.7l-3.4,5.1c-1.2,1.8-3.7,2.3-5.6,1.1
			c-0.4-0.3-0.8-0.7-1.1-1.1l-3.4-5.1c-0.9-1.4-2.5-2-4.1-1.7l-5.9,1.2c-2.2,0.4-4.3-1-4.7-3.1c-0.1-0.5-0.1-1.1,0-1.6l1.2-6
			c0.3-1.6-0.4-3.2-1.7-4.1l-5.1-3.4c-1.8-1.2-2.4-3.7-1.1-5.6c0.3-0.4,0.7-0.8,1.1-1.1l5.1-3.3c1.4-0.9,2.1-2.6,1.7-4.2l-1.2-5.9
			c-0.4-2.2,0.9-4.3,3.1-4.7c0.5-0.1,1.1-0.1,1.6,0l5.9,1.2c1.6,0.3,3.2-0.4,4.1-1.7l3.3-5.1c1.2-1.8,3.7-2.4,5.6-1.1
			C529.9,99,530.3,99.4,530.6,99.8z"/>
		<circle class="st14" cx="527.3" cy="126.9" r="8"/>
		<path class="st15" d="M527.3,136.3c-5.2,0-9.4-4.2-9.4-9.4c0-5.2,4.2-9.4,9.4-9.4"/>
		
			<ellipse transform="matrix(0.2298 -0.9732 0.9732 0.2298 282.646 610.9385)" class="st14" cx="527.3" cy="126.9" rx="16.1" ry="16.1"/>
		<path class="st15" d="M527.3,112.2c8.1,0,14.7,6.6,14.7,14.7s-6.6,14.7-14.7,14.7"/>
	</g>
</g>
<path class="st16" d="M411,78.2c-5.2,0-10.5,2.2-14.9,6.6c-0.3,0.3-0.6,0.6-0.9,0.9c-0.4,0.5-0.7,1.2-0.7,2v4.7
	c0,1.5,1.2,2.8,2.7,2.8h27.6c1.5,0,2.7-1.2,2.7-2.8v-4.7c0-0.7-0.2-1.4-0.7-2C422.2,80.8,416.6,78.2,411,78.2z M411,79.5
	c5.4,0,10.6,2.5,14.8,7.1c0.2,0.3,0.4,0.7,0.4,1.1v4.7c0,0.8-0.6,1.5-1.4,1.5h-27.6c-0.8,0-1.4-0.7-1.4-1.5v-4.7
	c0-0.4,0.1-0.8,0.4-1.1c0.2-0.3,0.5-0.6,0.8-0.9C401.1,81.6,405.9,79.5,411,79.5"/>
<path class="st16" d="M411.4,59.2c-5,0-9,4-9,9s4,9,9,9s9-4,9-9C420.4,63.3,416.4,59.2,411.4,59.2z M411.4,60.4
	c4.3,0,7.8,3.5,7.8,7.8s-3.5,7.8-7.8,7.8s-7.8-3.5-7.8-7.8S407.2,60.4,411.4,60.4"/>
<polygon class="st16" points="414.4,54.2 414.4,57.4 415.7,57.4 415.7,55.5 440.2,55.5 440.2,86 429.4,86 429.4,87.2 441.4,87.2 
	441.4,54.2 "/>
<path class="st16" d="M431.2,79.2h-3.1l-0.7-2c-0.3-0.1-0.6-0.2-0.9-0.4l-1.9,0.9l-2.1-2.3l0.9-1.9c-0.2-0.4-0.4-0.8-0.5-1.2
	l1.2-0.5c0.2,0.5,0.4,0.9,0.6,1.2l0.2,0.3l-0.8,1.7l1,1l1.7-0.8l0.3,0.2c0.4,0.3,0.8,0.4,1.2,0.5l0.3,0.1l0.7,1.7h1.4l0.7-1.7
	l0.3-0.1c0.5-0.1,0.9-0.3,1.2-0.5l0.3-0.2l1.7,0.8l1-1l-0.8-1.8L435,73c0.2-0.3,0.4-0.7,0.5-1.2l0.1-0.3l1.7-0.7v-1.4l-1.8-0.6
	l-0.1-0.3c-0.1-0.4-0.3-0.8-0.5-1.2l-0.2-0.3l0.8-1.7l-1-1l-1.7,0.8l-0.3-0.2c-0.3-0.2-0.8-0.4-1.2-0.6l-0.3-0.1l-0.6-1.7H429
	l-0.6,1.7l-0.3,0.1c-0.6,0.2-0.9,0.4-1.3,0.6l-0.3,0.2l-1.7-0.8l-1,1l0.8,1.7l-0.2,0.3c-0.2,0.4-0.4,0.8-0.6,1.3l-1.2-0.5
	c0.2-0.5,0.4-0.8,0.5-1.2l-0.9-2l2.2-2.2l1.9,0.9c0.3-0.2,0.6-0.3,0.9-0.4l0.8-2h3.1l0.7,2c0.3,0.1,0.6,0.3,0.9,0.4l1.9-0.9l2.2,2.2
	l-0.9,2c0.2,0.3,0.3,0.6,0.4,0.9l1.9,0.7v3.2l-1.9,0.8c-0.1,0.3-0.2,0.6-0.4,0.9l0.9,1.9l-2.2,2.3l-1.9-0.9
	c-0.3,0.2-0.7,0.3-0.9,0.4L431.2,79.2z"/>
<path class="st16" d="M429.4,67.5c-1.5,0-2.7,1.2-2.7,2.7s1.2,2.7,2.7,2.7s2.7-1.2,2.7-2.7S430.9,67.5,429.4,67.5z M429.4,74.2
	c-2.2,0-4-1.8-4-4s1.8-4,4-4s4,1.8,4,4C433.4,72.4,431.6,74.2,429.4,74.2z"/>
<g>
	<path class="st2" d="M592.5,71.3l-4.4-12.4c-0.1-0.2-0.1-0.4-0.1-0.6c0-0.5,0.4-1,1.1-1c0.6,0,0.9,0.4,1.1,0.9l3.6,10.7l3.6-10.7
		c0.2-0.5,0.5-0.9,1.1-0.9h0.1c0.6,0,0.9,0.4,1.1,0.9l3.6,10.7l3.7-10.7c0.1-0.5,0.4-0.9,1-0.9s1.1,0.5,1.1,1c0,0.2-0.1,0.4-0.1,0.6
		l-4.4,12.4c-0.2,0.6-0.7,1-1.2,1h-0.1c-0.6,0-1-0.3-1.2-1l-3.6-10.5L595,71.3c-0.2,0.6-0.6,1-1.2,1h-0.1
		C593.2,72.3,592.8,71.9,592.5,71.3"/>
	<path class="st2" d="M624.3,58.3c0-0.6,0.5-1.1,1.1-1.1s1.1,0.5,1.1,1.1v2.5c1.1-2.4,3.4-3.6,4.9-3.6c0.6,0,1.1,0.5,1.1,1.1
		s-0.4,1-0.9,1.1c-2.8,0.3-5.1,2.5-5.1,6.7v5c0,0.6-0.4,1.1-1.1,1.1c-0.6,0-1.1-0.5-1.1-1.1V58.3"/>
	<path class="st2" d="M639.3,72.4c-3.9,0-7-3.1-7-7.6v-0.1c0-4.2,2.9-7.6,6.8-7.6c4.2,0,6.5,3.5,6.5,7.4c0,0.6-0.5,1-1,1h-10.2
		c0.3,3.1,2.4,4.9,5,4.9c1.7,0,3-0.7,4.1-1.7c0.2-0.1,0.4-0.3,0.6-0.3c0.5,0,0.9,0.4,0.9,0.9c0,0.3-0.1,0.5-0.3,0.7
		C643.3,71.5,641.7,72.4,639.3,72.4 M643.5,64c-0.2-2.6-1.7-4.9-4.5-4.9c-2.5,0-4.3,2.1-4.6,4.9H643.5z"/>
	<path class="st2" d="M609.1,67.8L609.1,67.8c0-3.1,2.5-4.8,6.1-4.8c1.8,0,3.1,0.3,4.4,0.6v-0.5c0-2.6-1.6-4-4.3-4
		c-1.4,0-2.3,0.2-3.3,0.7c-0.1,0.1-0.3,0.1-0.4,0.1c-0.5,0-0.9-0.4-0.9-0.9s0.2-0.7,0.6-0.9c1.4-0.6,2.5-0.8,4.3-0.8
		c2,0,3.6,0.5,4.6,1.6c1,1,1.5,2.4,1.5,4.3v8.1c0,0.6-0.4,1.1-1,1.1s-1-0.5-1-1V70c-1,1.3-2.7,2.5-5.2,2.5
		C611.8,72.4,609.1,70.8,609.1,67.8 M619.7,66.7v-1.4c-1.1-0.3-2.5-0.6-4.2-0.6c-2.7,0-4.2,1.2-4.2,3v0.1c0,1.8,1.7,2.9,3.6,2.9
		C617.5,70.6,619.7,69,619.7,66.7"/>
	<path class="st2" d="M553.7,58.1c-0.5-1.1-1.6-1.5-2.7-1c-1.1,0.5-1.5,1.7-1,2.8l4.5,10.1c0.7,1.6,1.5,2.4,2.9,2.4
		c1.5,0,2.2-0.9,2.9-2.4c0,0,4-8.8,4-8.9c0-0.1,0.2-0.4,0.6-0.4c0.3,0,0.6,0.3,0.6,0.7V70c0,1.3,0.7,2.4,2.1,2.4
		c1.4,0,2.1-1.1,2.1-2.4v-7.1c0-1.4,1-2.2,2.3-2.2s2.2,0.9,2.2,2.2V70c0,1.3,0.7,2.4,2.1,2.4s2.1-1.1,2.1-2.4v-7.1
		c0-1.4,1-2.2,2.3-2.2s2.2,0.9,2.2,2.2V70c0,1.3,0.7,2.4,2.1,2.4c1.4,0,2.1-1.1,2.1-2.4v-8c0-3-2.3-5-5.1-5s-4.5,2-4.5,2
		c-0.9-1.2-2.2-2-4.4-2c-2.3,0-4.3,2-4.3,2c-0.9-1.2-2.5-2-3.8-2c-2,0-3.6,0.9-4.6,3.2l-2.9,7L553.7,58.1"/>
	<path class="st2" d="M645.7,59L645.7,59c0-1,0.8-1.8,1.8-1.8s1.8,0.8,1.8,1.8l0,0c0,1-0.8,1.8-1.8,1.8S645.7,60,645.7,59 M648.9,59
		L648.9,59c0-0.8-0.6-1.5-1.4-1.5c-0.8,0-1.4,0.7-1.4,1.5l0,0c0,0.8,0.6,1.5,1.4,1.5C648.3,60.5,648.9,59.8,648.9,59"/>
	<path class="st2" d="M646.8,58.3c0-0.1,0.1-0.2,0.2-0.2h0.6c0.2,0,0.4,0.1,0.5,0.2c0.1,0.1,0.1,0.2,0.1,0.4l0,0
		c0,0.3-0.1,0.4-0.3,0.5l0.3,0.3l0.1,0.1c0,0.1-0.1,0.2-0.2,0.2c-0.1,0-0.1,0-0.2-0.1l-0.4-0.5h-0.3v0.4c0,0.1-0.1,0.2-0.2,0.2
		s-0.2-0.1-0.2-0.2L646.8,58.3L646.8,58.3z M647.6,58.9c0.2,0,0.3-0.1,0.3-0.2l0,0c0-0.2-0.1-0.3-0.3-0.3h-0.4v0.5H647.6z"/>
</g>
<g id="Layer_2_00000118377230796888037620000010970465029131371938_">
	<g id="Layer_1-2_00000111171589386752860540000000868499209692226972_">
		<circle class="st17" cx="349" cy="332.7" r="2.1"/>
		<circle class="st17" cx="316.9" cy="332.7" r="3.7"/>
		<line class="st18" x1="325.7" y1="332.7" x2="320.6" y2="332.7"/>
		<line class="st18" x1="346.7" y1="332.7" x2="341.6" y2="332.7"/>
		<circle class="st17" cx="344.1" cy="322" r="2.1"/>
		<line class="st18" x1="342.4" y1="323.6" x2="339.1" y2="326.9"/>
		<circle class="st17" cx="344.1" cy="343.3" r="2.1"/>
		<line class="st18" x1="342.4" y1="341.7" x2="339.1" y2="338.4"/>
		<path class="st13" d="M340.5,327.3l-5.6-3.2c-0.8-0.5-1.7-0.5-2.5,0l-5.5,3.2c-0.8,0.4-1.2,1.3-1.3,2.1l0,0v6.4
			c0,0.9,0.5,1.7,1.3,2.2l5.6,3.2c0.4,0.2,0.8,0.3,1.2,0.3s0.9-0.1,1.3-0.3l5.6-3.2c0.8-0.4,1.3-1.3,1.3-2.2v-6.4
			C341.7,328.6,341.2,327.7,340.5,327.3z"/>
		<polyline class="st19" points="331,335.3 333.6,330 336.3,335.3 		"/>
	</g>
</g>
<g id="Layer_2_00000147222472028787221750000017976397670202222736_">
	<g id="Layer_1-2_00000109025305437727753470000000832240458258535566_">
		<circle class="st17" cx="463.3" cy="332.7" r="2.1"/>
		<circle class="st17" cx="431.1" cy="332.7" r="3.7"/>
		<line class="st18" x1="440" y1="332.7" x2="434.9" y2="332.7"/>
		<line class="st18" x1="461" y1="332.7" x2="455.8" y2="332.7"/>
		<circle class="st17" cx="458.3" cy="322" r="2.1"/>
		<line class="st18" x1="456.7" y1="323.6" x2="453.4" y2="326.9"/>
		<circle class="st17" cx="458.3" cy="343.3" r="2.1"/>
		<line class="st18" x1="456.7" y1="341.7" x2="453.4" y2="338.4"/>
		<path class="st13" d="M454.7,327.3l-5.6-3.2c-0.8-0.5-1.7-0.5-2.5,0l-5.5,3.2c-0.8,0.4-1.2,1.3-1.3,2.1l0,0v6.4
			c0,0.9,0.5,1.7,1.3,2.2l5.6,3.2c0.4,0.2,0.8,0.3,1.2,0.3s0.9-0.1,1.3-0.3l5.6-3.2c0.8-0.4,1.3-1.3,1.3-2.2v-6.4
			C456,328.6,455.5,327.7,454.7,327.3z"/>
		<polyline class="st19" points="445.2,335.3 447.9,330 450.6,335.3 		"/>
	</g>
</g>
<g id="Layer_2_00000098904334637073087990000001512699350850645144_">
	<g id="Layer_1-2_00000181072483524062075320000008923142862091621253_">
		<circle class="st17" cx="595.2" cy="332.7" r="2.1"/>
		<circle class="st17" cx="563" cy="332.7" r="3.7"/>
		<line class="st18" x1="571.9" y1="332.7" x2="566.8" y2="332.7"/>
		<line class="st18" x1="592.9" y1="332.7" x2="587.8" y2="332.7"/>
		<circle class="st17" cx="590.3" cy="322" r="2.1"/>
		<line class="st18" x1="588.6" y1="323.6" x2="585.3" y2="326.9"/>
		<circle class="st17" cx="590.3" cy="343.3" r="2.1"/>
		<line class="st18" x1="588.6" y1="341.7" x2="585.3" y2="338.4"/>
		<path class="st13" d="M586.7,327.3l-5.6-3.2c-0.8-0.5-1.7-0.5-2.5,0l-5.5,3.2c-0.8,0.4-1.2,1.3-1.3,2.1l0,0v6.4
			c0,0.9,0.5,1.7,1.3,2.2l5.6,3.2c0.4,0.2,0.8,0.3,1.2,0.3s0.9-0.1,1.3-0.3l5.6-3.2c0.8-0.4,1.3-1.3,1.3-2.2v-6.4
			C587.9,328.6,587.4,327.7,586.7,327.3z"/>
		<polyline class="st19" points="577.2,335.3 579.8,330 582.5,335.3 		"/>
	</g>
</g>
<g id="Layer_2_00000135680008693091334530000006428652380329154731_">
	<g id="Layer_1-2_00000048496505492818012320000009713165794536210321_">
		<circle class="st17" cx="723.2" cy="332.7" r="2.1"/>
		<circle class="st17" cx="691" cy="332.7" r="3.7"/>
		<line class="st18" x1="699.9" y1="332.7" x2="694.8" y2="332.7"/>
		<line class="st18" x1="720.9" y1="332.7" x2="715.7" y2="332.7"/>
		<circle class="st17" cx="718.3" cy="322" r="2.1"/>
		<line class="st18" x1="716.6" y1="323.6" x2="713.3" y2="326.9"/>
		<circle class="st17" cx="718.3" cy="343.3" r="2.1"/>
		<line class="st18" x1="716.6" y1="341.7" x2="713.3" y2="338.4"/>
		<path class="st13" d="M714.6,327.3l-5.6-3.2c-0.8-0.5-1.7-0.5-2.5,0l-5.5,3.2c-0.8,0.4-1.2,1.3-1.3,2.1l0,0v6.4
			c0,0.9,0.5,1.7,1.3,2.2l5.6,3.2c0.4,0.2,0.8,0.3,1.2,0.3s0.9-0.1,1.3-0.3l5.6-3.2c0.8-0.4,1.3-1.3,1.3-2.2v-6.4
			C715.9,328.6,715.4,327.7,714.6,327.3z"/>
		<polyline class="st19" points="705.2,335.3 707.8,330 710.5,335.3 		"/>
	</g>
</g>
<g>
	<path class="st20" d="M417.6,294.9c0,0.3,0,0.5,0.1,0.7c0.1,0.2,0.1,0.4,0.3,0.6c0,0.1,0.1,0.1,0.1,0.2c0,0.1,0,0.2-0.2,0.2
		l-0.5,0.3c-0.1,0-0.1,0.1-0.2,0.1c-0.1,0-0.2,0-0.2-0.1c-0.1-0.1-0.2-0.2-0.3-0.4c-0.1-0.1-0.2-0.3-0.2-0.5
		c-0.6,0.7-1.4,1.1-2.3,1.1c-0.7,0-1.2-0.2-1.6-0.6s-0.6-0.9-0.6-1.5c0-0.7,0.2-1.2,0.7-1.6c0.5-0.4,1.1-0.6,2-0.6
		c0.3,0,0.5,0,0.8,0.1c0.3,0,0.6,0.1,0.9,0.2v-0.6c0-0.6-0.1-1-0.4-1.3c-0.3-0.2-0.7-0.4-1.3-0.4c-0.3,0-0.6,0-0.9,0.1
		c-0.3,0.1-0.6,0.2-0.9,0.3c-0.1,0.1-0.2,0.1-0.3,0.1c-0.1,0-0.1,0-0.1,0c-0.1,0-0.2-0.1-0.2-0.2v-0.4c0-0.1,0-0.2,0.1-0.3
		c0-0.1,0.1-0.1,0.2-0.2c0.3-0.1,0.6-0.3,1-0.4c0.4-0.1,0.8-0.2,1.2-0.2c0.9,0,1.6,0.2,2.1,0.6c0.4,0.4,0.7,1.1,0.7,2L417.6,294.9
		L417.6,294.9z M414.4,296.1c0.3,0,0.5,0,0.8-0.1c0.3-0.1,0.5-0.3,0.8-0.5c0.1-0.2,0.2-0.3,0.3-0.5c0-0.2,0.1-0.4,0.1-0.7v-0.3
		c-0.2-0.1-0.5-0.1-0.7-0.1c-0.3,0-0.5,0-0.7,0c-0.5,0-0.9,0.1-1.2,0.3c-0.3,0.2-0.4,0.5-0.4,0.9c0,0.4,0.1,0.7,0.3,0.8
		C413.7,296,414,296.1,414.4,296.1z M420.8,297c-0.1,0-0.2,0-0.3-0.1c-0.1,0-0.1-0.2-0.2-0.3l-1.9-6.2c0-0.2-0.1-0.3-0.1-0.3
		c0-0.1,0.1-0.2,0.2-0.2h0.8c0.2,0,0.3,0,0.3,0.1c0.1,0,0.1,0.2,0.2,0.3l1.3,5.3l1.2-5.3c0-0.2,0.1-0.3,0.2-0.3
		c0.1,0,0.2-0.1,0.3-0.1h0.6c0.2,0,0.3,0,0.3,0.1c0.1,0,0.1,0.2,0.2,0.3l1.3,5.3l1.4-5.3c0-0.2,0.1-0.3,0.2-0.3
		c0.1,0,0.2-0.1,0.3-0.1h0.7c0.1,0,0.2,0.1,0.2,0.2c0,0,0,0.1,0,0.1s0,0.1-0.1,0.2l-1.9,6.2c0,0.2-0.1,0.3-0.2,0.3
		c-0.1,0-0.2,0.1-0.3,0.1h-0.7c-0.2,0-0.3,0-0.3-0.1c-0.1-0.1-0.1-0.2-0.2-0.3l-1.2-5.1l-1.2,5.1c0,0.2-0.1,0.3-0.2,0.3
		c-0.1,0.1-0.2,0.1-0.3,0.1H420.8z M431,297.2c-0.4,0-0.8,0-1.2-0.1c-0.4-0.1-0.7-0.2-0.9-0.3c-0.1-0.1-0.2-0.2-0.2-0.2
		c0-0.1,0-0.2,0-0.2v-0.4c0-0.2,0.1-0.2,0.2-0.2c0,0,0.1,0,0.1,0c0,0,0.1,0,0.2,0.1c0.3,0.1,0.6,0.2,0.9,0.3
		c0.3,0.1,0.6,0.1,0.9,0.1c0.5,0,0.9-0.1,1.2-0.3c0.3-0.2,0.4-0.4,0.4-0.8c0-0.2-0.1-0.4-0.2-0.6c-0.1-0.2-0.4-0.3-0.8-0.4l-1.2-0.4
		c-0.6-0.2-1-0.5-1.3-0.8c-0.3-0.4-0.4-0.7-0.4-1.2c0-0.3,0.1-0.6,0.2-0.9c0.1-0.3,0.3-0.5,0.6-0.7c0.2-0.2,0.5-0.3,0.8-0.4
		c0.3-0.1,0.7-0.1,1-0.1c0.2,0,0.4,0,0.5,0c0.2,0,0.4,0.1,0.5,0.1c0.2,0,0.3,0.1,0.5,0.1c0.1,0,0.3,0.1,0.3,0.1
		c0.1,0.1,0.2,0.1,0.2,0.2c0,0.1,0.1,0.2,0.1,0.3v0.4c0,0.2-0.1,0.3-0.2,0.3c-0.1,0-0.2,0-0.3-0.1c-0.5-0.2-1-0.3-1.5-0.3
		c-0.5,0-0.8,0.1-1.1,0.2c-0.2,0.2-0.4,0.4-0.4,0.7c0,0.2,0.1,0.4,0.2,0.6c0.2,0.2,0.5,0.3,0.9,0.4l1.1,0.4c0.6,0.2,1,0.4,1.2,0.8
		c0.2,0.3,0.4,0.7,0.4,1.1c0,0.3-0.1,0.7-0.2,0.9c-0.1,0.3-0.3,0.5-0.6,0.7c-0.2,0.2-0.5,0.3-0.9,0.4
		C431.8,297.1,431.4,297.2,431,297.2z"/>
	<g>
		<path class="st21" d="M432.5,301c-2.6,1.9-6.4,3-9.7,3c-4.6,0-8.7-1.7-11.8-4.5c-0.2-0.2,0-0.5,0.3-0.4c3.4,2,7.5,3.1,11.9,3.1
			c2.9,0,6.1-0.6,9-1.8C432.6,300.2,432.9,300.7,432.5,301z"/>
		<path class="st21" d="M433.6,299.8c-0.3-0.4-2.2-0.2-3.1-0.1c-0.3,0-0.3-0.2-0.1-0.4c1.5-1.1,4-0.7,4.2-0.4c0.3,0.4-0.1,2.8-1.5,4
			c-0.2,0.2-0.4,0.1-0.3-0.2C433.2,302,433.9,300.2,433.6,299.8z"/>
	</g>
</g>
<g>
	<path class="st20" d="M549.9,295.6c0,0.2,0,0.4,0.1,0.6c0.1,0.1,0.1,0.3,0.2,0.5c0,0.1,0,0.1,0,0.2c0,0.1,0,0.1-0.1,0.2l-0.4,0.3
		c-0.1,0-0.1,0.1-0.2,0.1c-0.1,0-0.1,0-0.2-0.1c-0.1-0.1-0.2-0.2-0.2-0.3c-0.1-0.1-0.1-0.2-0.2-0.4c-0.5,0.6-1.2,0.9-2,0.9
		c-0.6,0-1-0.2-1.3-0.5c-0.3-0.3-0.5-0.7-0.5-1.3c0-0.6,0.2-1,0.6-1.4c0.4-0.3,0.9-0.5,1.6-0.5c0.2,0,0.5,0,0.7,0.1s0.5,0.1,0.8,0.1
		v-0.5c0-0.5-0.1-0.9-0.3-1.1c-0.2-0.2-0.6-0.3-1.1-0.3c-0.2,0-0.5,0-0.7,0.1c-0.2,0.1-0.5,0.1-0.7,0.2c-0.1,0-0.2,0.1-0.2,0.1
		s-0.1,0-0.1,0c-0.1,0-0.1-0.1-0.1-0.2V292c0-0.1,0-0.2,0-0.2s0.1-0.1,0.2-0.1c0.2-0.1,0.5-0.2,0.8-0.3c0.3-0.1,0.7-0.1,1-0.1
		c0.8,0,1.4,0.2,1.7,0.5c0.4,0.4,0.6,0.9,0.6,1.6L549.9,295.6L549.9,295.6z M547.2,296.6c0.2,0,0.4,0,0.7-0.1
		c0.2-0.1,0.5-0.2,0.6-0.4c0.1-0.1,0.2-0.3,0.2-0.4s0.1-0.4,0.1-0.6v-0.3c-0.2,0-0.4-0.1-0.6-0.1c-0.2,0-0.4,0-0.6,0
		c-0.4,0-0.8,0.1-1,0.3c-0.2,0.2-0.3,0.4-0.3,0.8c0,0.3,0.1,0.5,0.2,0.7C546.6,296.5,546.9,296.6,547.2,296.6z M552.5,297.3
		c-0.1,0-0.2,0-0.3-0.1c-0.1,0-0.1-0.1-0.1-0.3l-1.6-5.2c0-0.1-0.1-0.2-0.1-0.3c0-0.1,0.1-0.2,0.2-0.2h0.7c0.1,0,0.2,0,0.3,0.1
		c0.1,0,0.1,0.1,0.1,0.3l1.1,4.4l1-4.4c0-0.1,0.1-0.2,0.1-0.3c0.1,0,0.1-0.1,0.3-0.1h0.5c0.1,0,0.2,0,0.3,0.1c0.1,0,0.1,0.1,0.1,0.3
		l1.1,4.5l1.2-4.5c0-0.1,0.1-0.2,0.1-0.3c0.1,0,0.1-0.1,0.3-0.1h0.6c0.1,0,0.2,0.1,0.2,0.2c0,0,0,0.1,0,0.1s0,0.1,0,0.2l-1.6,5.2
		c0,0.1-0.1,0.2-0.1,0.3s-0.1,0.1-0.3,0.1H556c-0.1,0-0.2,0-0.3-0.1c-0.1,0-0.1-0.1-0.1-0.3l-1-4.3l-1,4.3c0,0.1-0.1,0.2-0.1,0.3
		s-0.1,0.1-0.3,0.1H552.5z M561.1,297.5c-0.3,0-0.7,0-1-0.1c-0.3-0.1-0.6-0.2-0.8-0.3c-0.1-0.1-0.2-0.1-0.2-0.2c0-0.1,0-0.1,0-0.2
		v-0.3c0-0.1,0.1-0.2,0.2-0.2c0,0,0.1,0,0.1,0c0,0,0.1,0,0.2,0.1c0.2,0.1,0.5,0.2,0.7,0.2c0.3,0.1,0.5,0.1,0.8,0.1
		c0.4,0,0.7-0.1,1-0.2c0.2-0.1,0.3-0.4,0.3-0.6c0-0.2-0.1-0.3-0.2-0.5c-0.1-0.1-0.3-0.2-0.7-0.3l-1-0.3c-0.5-0.2-0.8-0.4-1.1-0.7
		c-0.2-0.3-0.3-0.6-0.3-1c0-0.3,0.1-0.5,0.2-0.7s0.3-0.4,0.5-0.5c0.2-0.2,0.4-0.3,0.7-0.3c0.3-0.1,0.5-0.1,0.8-0.1
		c0.1,0,0.3,0,0.4,0c0.2,0,0.3,0,0.4,0.1c0.1,0,0.3,0.1,0.4,0.1s0.2,0.1,0.3,0.1c0.1,0.1,0.2,0.1,0.2,0.2c0,0.1,0.1,0.1,0.1,0.2v0.3
		c0,0.1-0.1,0.2-0.2,0.2c-0.1,0-0.1,0-0.3-0.1c-0.4-0.2-0.8-0.3-1.3-0.3c-0.4,0-0.7,0.1-0.9,0.2c-0.2,0.1-0.3,0.3-0.3,0.6
		c0,0.2,0.1,0.3,0.2,0.5c0.1,0.1,0.4,0.3,0.7,0.4l0.9,0.3c0.5,0.2,0.8,0.4,1,0.6s0.3,0.6,0.3,0.9c0,0.3-0.1,0.5-0.2,0.8
		c-0.1,0.2-0.3,0.4-0.5,0.6c-0.2,0.2-0.5,0.3-0.7,0.4C561.8,297.4,561.4,297.5,561.1,297.5z"/>
	<g>
		<path class="st21" d="M562.4,300.7c-2.2,1.6-5.4,2.5-8.1,2.5c-3.8,0-7.3-1.4-9.9-3.8c-0.2-0.2,0-0.4,0.2-0.3
			c2.8,1.6,6.3,2.6,9.9,2.6c2.4,0,5.1-0.5,7.6-1.5C562.4,300.1,562.7,300.5,562.4,300.7z"/>
		<path class="st21" d="M563.3,299.7c-0.3-0.4-1.9-0.2-2.6-0.1c-0.2,0-0.2-0.2-0.1-0.3c1.3-0.9,3.3-0.6,3.6-0.3
			c0.2,0.3-0.1,2.4-1.2,3.3c-0.2,0.2-0.4,0.1-0.3-0.1C563,301.5,563.5,300,563.3,299.7z"/>
	</g>
</g>
<g>
	<path id="path7291" class="st22" d="M581.4,291.8l-2,4.1l3.6,4.2l-6.7,0.8l10.3,0.1L581.4,291.8L581.4,291.8z"/>
	<path id="path7293" class="st22" d="M580.9,290.2l-4.7,3.9l-3.5,5.9l3-0.3L580.9,290.2z"/>
	<path id="text7295" class="st22" d="M590.5,294.3l-2.2,5.5h0.8l0.6-1.5h2.5l0.6,1.5h0.8l-2.2-5.5H590.5L590.5,294.3z M590.8,295
		L590.8,295c0,0.2,0.1,0.3,0.1,0.4l0.9,2.3h-2l0.9-2.3C590.8,295.2,590.8,295.1,590.8,295L590.8,295z M608.1,295.8
		c-0.5,0-1,0.2-1.4,0.6c-0.4,0.4-0.5,0.9-0.5,1.5c0,0.6,0.2,1.1,0.5,1.5c0.3,0.4,0.8,0.5,1.4,0.5c0.6,0,1.1-0.1,1.5-0.4v-0.6
		c-0.4,0.3-0.8,0.4-1.3,0.4c-0.4,0-0.7-0.1-1-0.4s-0.4-0.6-0.4-1h2.9v-0.3c0-0.6-0.1-1.1-0.4-1.4
		C609.1,295.9,608.7,295.8,608.1,295.8L608.1,295.8z M605.2,295.8c-0.2,0-0.5,0.1-0.7,0.2c-0.2,0.2-0.3,0.4-0.4,0.6h0v-0.8h-0.7v3.9
		h0.7v-2c0-0.4,0.1-0.8,0.3-1c0.2-0.3,0.4-0.4,0.7-0.4c0.2,0,0.4,0,0.5,0.1v-0.7C605.5,295.8,605.3,295.8,605.2,295.8z M594.1,295.9
		v0.5h2.2l-2.5,3.2v0.2h3.4v-0.5h-2.4l2.5-3.2v-0.2L594.1,295.9L594.1,295.9z M598.3,295.9v2.3c0,1.1,0.5,1.7,1.5,1.7
		c0.6,0,1-0.2,1.3-0.7h0v0.6h0.7v-3.9h-0.7v2.3c0,0.4-0.1,0.7-0.3,0.9c-0.2,0.2-0.5,0.3-0.8,0.3c-0.7,0-1-0.4-1-1.2v-2.2H598.3
		L598.3,295.9z M608.1,296.3c0.3,0,0.6,0.1,0.8,0.3c0.2,0.2,0.3,0.5,0.3,0.8h-2.3c0.1-0.3,0.2-0.6,0.4-0.8
		C607.5,296.4,607.8,296.3,608.1,296.3z"/>
</g>
<g>
	<path class="st23" d="M593.8,273.7h0.6l1.6-1.6l0.1-0.7c-3-2.7-7.6-2.4-10.3,0.6c-0.7,0.8-1.3,1.8-1.6,2.9c0.2-0.1,0.4-0.1,0.6,0
		l3.2-0.5c0,0,0.2-0.3,0.3-0.3C589.8,272.6,592.2,272.4,593.8,273.7L593.8,273.7z"/>
	<path class="st24" d="M598.3,275c-0.4-1.4-1.1-2.6-2.2-3.5l-2.3,2.3c1,0.8,1.5,2,1.5,3.2v0.4c1.1,0,2,0.9,2,2s-0.9,2-2,2h-4
		l-0.4,0.4v2.4l0.4,0.4h4c2.9,0,5.3-2.3,5.3-5.2C600.7,277.6,599.8,275.9,598.3,275z"/>
	<path class="st25" d="M587.2,284.6h4v-3.2h-4c-0.3,0-0.6-0.1-0.8-0.2l-0.6,0.2l-1.6,1.6l-0.1,0.6
		C585,284.2,586.1,284.6,587.2,284.6z"/>
	<path class="st26" d="M587.2,274.1c-2.9,0-5.2,2.4-5.2,5.3c0,1.6,0.8,3.2,2.1,4.1l2.3-2.3c-1-0.5-1.5-1.7-1-2.7
		c0.5-1,1.7-1.5,2.7-1c0.4,0.2,0.8,0.6,1,1l2.3-2.3C590.4,274.8,588.9,274,587.2,274.1z"/>
</g>
<g id="layer1_1_" transform="translate(-318.33375,-439.74274)">
	<g id="g3460" transform="matrix(4.579965,0,0,-4.579965,468.34291,456.8459)">
		<path id="path3462" class="st27" d="M118.7-57.8c-0.5,0-1-0.2-1.3-0.5c-0.3-0.3-0.5-0.8-0.5-1.3c0-0.5,0.2-1,0.5-1.3
			c0.3-0.3,0.8-0.5,1.3-0.5c0.5,0,1,0.2,1.3,0.5c0.3,0.3,0.5,0.8,0.5,1.3c0,0.5-0.2,1-0.5,1.3C119.6-58,119.2-57.8,118.7-57.8
			 M118.7-57.6c1.1,0,2-0.9,2-2c0-1.1-0.9-2-2-2c-1.1,0-2,0.9-2,2C116.6-58.5,117.5-57.6,118.7-57.6"/>
	</g>
	<g id="g3464" transform="matrix(4.579965,0,0,-4.579965,397.87238,588.54693)">
		<path id="path3466" class="st27" d="M133.1-30.8c0,0.1-0.1,0.2-0.2,0.2h-0.1V-31h0.1C133-31,133.1-31,133.1-30.8 M134.3-31
			l-0.5-0.4l-0.5,0.4c-0.1-0.2-0.2-0.3-0.4-0.3h-0.4v0.9h0.4c0.2,0,0.4-0.1,0.4-0.3l0.5,0.4l0.2-0.1l-0.4-0.3l0.1-0.1l0.4,0.3
			l0.2-0.1l-0.4-0.3l0.1-0.1l0.4,0.3v0.3h0.3V-31h0.3v-0.3h-0.6V-31z M135.3-31h0.3v-0.3H135v0.9h0.3V-31z"/>
	</g>
</g>
</svg>
