<?xml version="1.0" encoding="utf-8"?>
<!-- Generator: Adobe Illustrator 26.0.1, SVG Export Plug-In . SVG Version: 6.00 Build 0)  -->
<svg version="1.1" id="Layer_1" xmlns="http://www.w3.org/2000/svg" xmlns:xlink="http://www.w3.org/1999/xlink" x="0px" y="0px"
	 viewBox="0 0 100 100" style="enable-background:new 0 0 100 100;" xml:space="preserve">
<style type="text/css">
	.st0{fill-rule:evenodd;clip-rule:evenodd;fill:#0091DA;}
	.st1{fill-rule:evenodd;clip-rule:evenodd;fill:#1D428A;}
	.st2{fill:#0091DA;}
	.st3{fill:#1D428A;}
</style>
<g>
	<path class="st0" d="M54.1,73c-10,0-18.2-8.7-18.2-19.3c0-0.4,0.3-0.7,0.7-0.7c0.4,0,0.7,0.3,0.7,0.7c0,9.8,7.5,17.7,16.8,17.7
		c0.4,0,0.7,0.3,0.7,0.7C54.8,72.5,54.5,73,54.1,73z"/>
	<path class="st1" d="M74.1,37.6c-0.2,0-0.4-0.1-0.5-0.2l-3.2-3.2c-0.3-0.3-0.3-0.8,0-1.1c0.3-0.3,0.8-0.3,1.1,0l3.2,3.2
		c0.3,0.3,0.3,0.7,0,1c0,0,0,0,0,0C74.5,37.6,74.3,37.6,74.1,37.6z"/>
	<path class="st0" d="M56.5,53.1c-0.2,0-0.4-0.1-0.5-0.2c-0.3-0.3-0.3-0.7,0-1c0,0,0,0,0,0l9.3-9.3c0.3-0.3,0.7-0.3,1,0c0,0,0,0,0,0
		c0.3,0.3,0.3,0.7,0.1,1c0,0,0,0,0,0L57,52.9C56.9,53,56.7,53.1,56.5,53.1z"/>
	<polygon class="st1" points="58.1,31.7 58.1,29.2 56.6,29.2 56.6,31.6 	"/>
	<path class="st1" d="M59.3,22.3h-8.5c-1.6,0-3,1.2-3.1,2.9c0,0,0,0,0,0.1c0,1.6,1.2,2.9,2.8,2.9c0,0,0.1,0,0.1,0h1.4v3.5l1.4-0.1
		v-3.4h6.3c1.5,0,2.7-1.3,2.7-2.9c0,0,0,0,0-0.1C62.3,23.6,60.9,22.3,59.3,22.3C59.3,22.3,59.3,22.3,59.3,22.3z M59.7,26.7h-9.2
		c-0.8,0-1.4-0.7-1.3-1.5c0-0.8,0.8-1.5,1.6-1.5c0,0,0,0,0,0h8.5c0.9,0,1.6,0.6,1.6,1.5C60.9,26,60.4,26.6,59.7,26.7z"/>
	<rect x="27.7" y="68.3" class="st2" width="2.4" height="1.2"/>
	<rect x="32.8" y="68.3" class="st3" width="4.3" height="1.2"/>
	<rect x="27.7" y="52.9" class="st2" width="4.3" height="1.2"/>
	<rect x="33.1" y="39.2" class="st3" width="4.3" height="1.2"/>
	<rect x="27.7" y="39.2" class="st2" width="2.4" height="1.2"/>
	<rect x="24.1" y="39.2" class="st2" width="1.2" height="1.2"/>
	<rect x="24.1" y="68.3" class="st2" width="1.2" height="1.2"/>
	<rect x="21.8" y="52.9" class="st2" width="2.4" height="1.2"/>
	<path class="st1" d="M54.8,52.9c-0.8,0-1.5,0.7-1.5,1.5c0,0.8,0.7,1.5,1.5,1.5c0.8,0,1.5-0.7,1.5-1.5c0,0,0,0,0,0
		C56.3,53.5,55.7,52.8,54.8,52.9C54.9,52.8,54.8,52.8,54.8,52.9z M54.8,57.3c-1.6,0.1-3-1.2-3.1-2.8c-0.1-1.6,1.2-3,2.8-3.1
		c0.1,0,0.2,0,0.3,0c1.6-0.1,2.9,1.2,2.9,2.8c0,0,0,0.1,0,0.1C57.8,55.9,56.5,57.2,54.8,57.3C54.8,57.2,54.8,57.2,54.8,57.3
		L54.8,57.3z"/>
	<rect x="33.1" y="39.2" class="st2" width="4.3" height="1.4"/>
	<rect x="27.7" y="39.2" class="st2" width="2.4" height="1.4"/>
	<rect x="24.1" y="39.2" class="st2" width="1.2" height="1.4"/>
	<rect x="27.7" y="68.3" class="st2" width="2.4" height="1.4"/>
	<rect x="32.8" y="68.3" class="st2" width="4.3" height="1.4"/>
	<rect x="24.1" y="68.3" class="st2" width="1.2" height="1.4"/>
	<rect x="27.7" y="52.9" class="st2" width="4.3" height="1.4"/>
	<rect x="21.8" y="52.9" class="st2" width="2.4" height="1.4"/>
	<path class="st3" d="M54.8,32.3c12.1,0,22,9.8,22,22s-9.8,22-22,22c-12.1,0-22-9.8-22-22c0,0,0,0,0,0
		C32.9,42.2,42.7,32.3,54.8,32.3 M54.8,30.9c-12.9,0-23.4,10.5-23.4,23.4s10.5,23.4,23.4,23.4c12.9,0,23.4-10.5,23.4-23.4
		c0,0,0,0,0,0C78.2,41.4,67.7,30.9,54.8,30.9z"/>
</g>
</svg>
