<?xml version="1.0" encoding="utf-8"?>
<!-- Generator: Adobe Illustrator 26.0.1, SVG Export Plug-In . SVG Version: 6.00 Build 0)  -->
<svg version="1.1" id="Layer_1" xmlns="http://www.w3.org/2000/svg" xmlns:xlink="http://www.w3.org/1999/xlink" x="0px" y="0px"
	 viewBox="0 0 100 100" style="enable-background:new 0 0 100 100;" xml:space="preserve">
<style type="text/css">
	.st0{fill-rule:evenodd;clip-rule:evenodd;fill:#0091DA;}
	.st1{fill-rule:evenodd;clip-rule:evenodd;fill:#1D428A;}
	.st2{fill:#0091DA;}
	.st3{fill:#1D428A;}
</style>
<g>
	<polygon class="st1" points="72.9,37.5 78.4,34.2 72.9,30.9 72.9,33.3 61.5,33.3 61.5,35.1 72.9,35.1 	"/>
	<polygon class="st1" points="65.1,68.6 60.2,68.6 60.2,70.3 65.1,70.3 65.1,72.7 70.6,69.5 65.1,66.2 	"/>
	<polygon class="st1" points="81,52.5 75.6,49.2 75.6,51.6 65.4,51.6 65.4,53.3 75.6,53.3 75.6,55.7 	"/>
	<rect x="21" y="33.3" class="st3" width="19.6" height="1.7"/>
	<rect x="21" y="68.6" class="st3" width="19.6" height="1.7"/>
	<rect x="21" y="51.6" class="st3" width="30" height="1.7"/>
	<path class="st0" d="M61.5,54.2c0.3-0.6,0.5-1.4,0.5-2.1c-0.1-0.6-0.3-1.2-0.7-1.8c-0.4-0.5-0.9-0.9-1.4-1.2
		c-0.6-0.3-1.2-0.4-1.8-0.3c-1.7,0.1-3.1,1.3-3.3,3c-0.1,0.7-0.1,1.5,0.2,2.2c0.3,0.7,0.8,1.3,1.5,1.7c0.9,0.5,2,0.6,2.9,0.2
		C60.2,55.7,61,55.1,61.5,54.2z M64.1,53.4l-0.6,0.2c-0.2,0.1-0.4,0.1-0.6,0.1c-0.1,0.2-0.2,0.4-0.3,0.6c-0.1,0.2-0.2,0.4-0.3,0.6
		c0,0.1,0.1,0.2,0.3,0.5c0.1,0.2,0.2,0.3,0.3,0.5c-0.4,0.5-0.8,0.9-1.3,1.3c-0.4-0.2-0.7-0.4-1.1-0.6c-0.3,0.2-0.7,0.4-1.1,0.5
		c-0.1,0.2-0.2,0.4-0.2,0.6c0,0.2-0.1,0.4-0.2,0.6h-1.8c-0.1-0.2-0.1-0.4-0.2-0.6c0-0.2-0.1-0.4-0.2-0.6c-0.7-0.3-1.1-0.5-1.1-0.5
		c-0.2,0.1-0.4,0.2-0.6,0.3c-0.2,0.2-0.4,0.3-0.5,0.3c-0.5-0.4-0.9-0.8-1.3-1.2c0.2-0.4,0.3-0.7,0.6-1.1c-0.1-0.2-0.2-0.4-0.3-0.6
		c-0.1-0.2-0.2-0.4-0.2-0.7c-0.2,0-0.4-0.1-0.6-0.1l-0.6-0.1v-1.8l0.6-0.2c0.2-0.1,0.4-0.1,0.6-0.1c0.1-0.1,0.1-0.3,0.3-0.6
		c0.1-0.2,0.2-0.4,0.3-0.6c-0.2-0.4-0.4-0.7-0.6-1c0.4-0.5,0.8-1,1.3-1.4c0.4,0.2,0.7,0.4,1.1,0.6c0.4-0.2,0.8-0.3,1.2-0.5
		c0-0.1,0.1-0.3,0.2-0.6c0.1-0.3,0.1-0.5,0.2-0.6h1.8c0.1,0.2,0.2,0.6,0.3,1.2l0.6,0.2c0.2,0.1,0.4,0.2,0.5,0.3
		c0.2-0.1,0.4-0.2,0.6-0.3c0.3-0.1,0.4-0.3,0.5-0.3c0.3,0.2,0.5,0.4,0.7,0.6c0.3,0.3,0.5,0.5,0.7,0.7c-0.3,0.5-0.5,0.8-0.6,1.1
		c0.1,0.4,0.3,0.8,0.5,1.2c0.2,0,0.4,0.1,0.6,0.1c0.3,0.1,0.5,0.1,0.6,0.2L64.1,53.4z"/>
	<path class="st0" d="M56.4,36.7c0.5-0.9,0.7-2,0.7-3c-0.1-0.9-0.4-1.8-1-2.5c-0.5-0.7-1.2-1.3-2.1-1.7c-2-0.9-4.3-0.6-5.9,0.9
		c-0.8,0.8-1.3,1.8-1.5,2.8c-0.2,1.1-0.1,2.2,0.3,3.2c0.4,1,1.2,1.9,2.2,2.4c1.3,0.7,2.8,0.8,4.2,0.4C54.6,38.8,55.7,37.9,56.4,36.7
		z M60.1,35.6l-0.8,0.2c-0.3,0.1-0.6,0.1-0.8,0.2c-0.1,0.3-0.3,0.6-0.4,0.9c-0.1,0.3-0.2,0.6-0.4,0.8c0.1,0.1,0.2,0.3,0.4,0.7
		c0.1,0.3,0.3,0.5,0.5,0.7c-0.6,0.7-1.2,1.4-1.9,2c-0.5-0.3-1.1-0.6-1.6-0.9c-0.5,0.3-1.1,0.5-1.6,0.7c-0.1,0.3-0.3,0.6-0.3,0.9
		c-0.1,0.3-0.2,0.6-0.3,0.9h-2.6c-0.1-0.3-0.2-0.6-0.3-0.8c-0.1-0.3-0.1-0.6-0.2-0.9c-1-0.5-1.6-0.7-1.6-0.7
		c-0.3,0.1-0.6,0.2-0.8,0.4c-0.2,0.2-0.5,0.3-0.7,0.4c-0.7-0.6-1.3-1.2-1.9-1.8c0.2-0.5,0.5-1,0.8-1.5c0-0.1-0.1-0.4-0.4-0.8
		c-0.1-0.3-0.2-0.6-0.3-0.9c-0.3,0-0.6-0.1-0.9-0.2c-0.3-0.1-0.6-0.2-0.8-0.2v-2.7l0.8-0.2c0.3-0.1,0.6-0.1,0.8-0.2
		c0.1-0.3,0.3-0.6,0.4-0.9c0.1-0.3,0.3-0.6,0.4-0.8c-0.3-0.5-0.6-1-0.9-1.5c0.6-0.7,1.2-1.3,1.9-2c0.5,0.3,1.1,0.6,1.6,0.9
		c0.5-0.3,1.1-0.5,1.7-0.7c0.1-0.3,0.2-0.6,0.3-0.9c0.1-0.4,0.2-0.7,0.2-0.9H53c0.2,0.6,0.4,1.1,0.5,1.7c0.1,0.1,0.4,0.2,0.8,0.3
		c0.3,0.1,0.5,0.2,0.8,0.4c0.3-0.1,0.5-0.2,0.8-0.4c0.2-0.2,0.5-0.3,0.7-0.4c0.4,0.2,0.7,0.6,1,0.9c0.3,0.3,0.6,0.6,1,0.9
		c-0.3,0.5-0.6,1.1-0.9,1.5c0.2,0.6,0.4,1.2,0.7,1.8c0.3,0,0.6,0.1,0.9,0.2c0.3,0.1,0.6,0.2,0.8,0.2L60.1,35.6z"/>
	<path class="st0" d="M54.3,71.6c0.4-0.8,0.6-1.7,0.5-2.5c-0.1-0.8-0.4-1.5-0.8-2.1c-0.4-0.6-1.1-1.1-1.8-1.5
		c-2.1-1.1-4.7-0.3-5.8,1.9c-0.2,0.4-0.4,0.9-0.4,1.3c-0.2,0.9-0.1,1.9,0.3,2.7c0.4,0.9,1,1.6,1.8,2.1c1.1,0.6,2.4,0.7,3.6,0.3
		C52.8,73.4,53.8,72.6,54.3,71.6z M57.5,70.6l-0.7,0.2c-0.2,0.1-0.5,0.1-0.7,0.2c-0.1,0.2-0.2,0.5-0.3,0.7c-0.1,0.3-0.2,0.5-0.4,0.7
		l0.4,0.6c0.1,0.2,0.3,0.4,0.4,0.6c-0.5,0.6-1,1.1-1.6,1.6c-0.4-0.2-0.9-0.5-1.3-0.7c-0.4,0.3-0.9,0.5-1.4,0.6
		c-0.1,0.2-0.2,0.5-0.3,0.7c-0.1,0.3-0.1,0.5-0.2,0.7h-2.2c-0.1-0.2-0.2-0.5-0.2-0.7c-0.1-0.2-0.1-0.5-0.2-0.7
		c-0.5-0.2-0.9-0.4-1.4-0.6c-0.2,0.1-0.4,0.2-0.7,0.3c-0.2,0.1-0.4,0.3-0.7,0.4c-0.6-0.5-1.1-1-1.6-1.5c0.2-0.5,0.4-0.9,0.7-1.3
		c0-0.1-0.1-0.3-0.3-0.7c-0.1-0.3-0.2-0.5-0.2-0.8c-0.2,0-0.5-0.1-0.7-0.2c-0.2-0.1-0.5-0.1-0.7-0.2v-2.2l0.7-0.2
		c0.2-0.1,0.5-0.1,0.7-0.2c0.1-0.1,0.2-0.4,0.3-0.7c0.1-0.3,0.2-0.5,0.4-0.7c-0.2-0.4-0.5-0.9-0.7-1.3c0.5-0.6,1-1.1,1.6-1.6
		c0.5,0.2,0.9,0.5,1.3,0.7c0.5-0.2,1-0.4,1.5-0.5c0-0.1,0.1-0.3,0.2-0.7c0.1-0.3,0.2-0.6,0.2-0.7h2.2c0.2,0.5,0.3,1,0.4,1.5l0.7,0.3
		c0.2,0.1,0.4,0.2,0.7,0.3c0.2-0.1,0.4-0.2,0.6-0.3c0.2-0.1,0.4-0.3,0.7-0.4c0.3,0.2,0.6,0.5,0.8,0.7c0.3,0.3,0.5,0.5,0.8,0.7
		c-0.2,0.4-0.5,0.9-0.7,1.3c0.2,0.5,0.3,1,0.6,1.5c0.3,0,0.6,0.1,0.8,0.2c0.3,0.1,0.6,0.2,0.7,0.2L57.5,70.6z"/>
</g>
</svg>
