<svg xmlns="http://www.w3.org/2000/svg" xmlns:xlink="http://www.w3.org/1999/xlink" viewBox="0 0 1001.12 682.35"><defs><style>.cls-1{fill:url(#linear-gradient);}.cls-2,.cls-3{fill:#1d428a;}.cls-3,.cls-4,.cls-7,.cls-8{fill-rule:evenodd;}.cls-4,.cls-5{fill:#0091da;}.cls-6{fill:#fff;}.cls-7,.cls-8{fill:none;stroke-miterlimit:10;}.cls-7{stroke-width:4.14px;stroke:url(#linear-gradient-2);}.cls-8{stroke-width:4.14px;stroke:url(#linear-gradient-3);}</style><linearGradient id="linear-gradient" x1="500.56" y1="628.63" x2="500.56" gradientUnits="userSpaceOnUse"><stop offset="0" stop-color="#0091da"/><stop offset="1" stop-color="#1d428a"/></linearGradient><linearGradient id="linear-gradient-2" x1="326.02" y1="651.25" x2="110.13" y2="651.25" gradientUnits="userSpaceOnUse"><stop offset="0" stop-color="#0091da"/><stop offset="0.63" stop-color="#018ed7"/><stop offset="1" stop-color="#1d428a"/></linearGradient><linearGradient id="linear-gradient-3" x1="979.92" y1="651.25" x2="764.03" y2="651.25" gradientTransform="matrix(-1, 0, 0, 1, 1662.41, 0)" xlink:href="#linear-gradient-2"/></defs><g id="Layer_2" data-name="Layer 2"><g id="Layer_2-2" data-name="Layer 2"><path class="cls-1" d="M630.78,69c95.49,2.25,172.63,82.4,181.71,183.86,68.6,6.51,121.66,74.18,119.57,155.5-1.82,82.94-60.69,149.53-131.74,149.53H782.78c-83.22,0-482.7,1.72-566.75,1.72h-14.9C131.36,557.73,67.4,493.94,69,424.1c1.91-68.2,57.87-122.61,126.47-123h3.09a127.89,127.89,0,0,1,31.25,4.43c15.18-73.41,80-126.19,155.36-126.49h3.91a157.51,157.51,0,0,1,64.51,15.35C482.33,120.7,549,69.11,626.24,69.11l4.54-.09m.14-69-1.5,0L625.5.11c-52,.16-102,16.93-144.78,48.52a266.79,266.79,0,0,0-61.43,63.88,227.48,227.48,0,0,0-28.68-2.43h-5.68A228.41,228.41,0,0,0,191.14,218.74q-4.17,6.78-7.84,13.8A195.85,195.85,0,0,0,.06,422.17v.32a187.73,187.73,0,0,0,15.8,79.41,209.68,209.68,0,0,0,43.26,63.83A214.46,214.46,0,0,0,121.74,610a195.74,195.74,0,0,0,77.52,18.57l.94,0H216c42.25,0,165.56-.44,284.82-.86,118.26-.42,240.55-.86,281.93-.86h17.54a182.81,182.81,0,0,0,80.42-18.62,201.17,201.17,0,0,0,63.16-48.4c35.58-40.34,55.87-93.54,57.14-149.83,1.39-55-15.54-108.15-47.68-149.7a202.92,202.92,0,0,0-58.12-51.44,191.37,191.37,0,0,0-22.75-11.35c-12.42-46.23-36.18-88.47-69.18-122.13C757.12,28.33,696.43,1.55,632.42,0l-1.5,0Z"/><path class="cls-2" d="M934.11,377h.07l-.83-4.69-.59-3.31h-.06c-6.13-31-20.71-59.72-41.31-81.06-21.14-21.9-47.09-35.23-75.24-38.68-10.72-103-89.85-182-185.29-184.24h-.08l-4.55.09c-75.57,0-143.74,48.49-174.77,123.92a160.32,160.32,0,0,0-62.36-14h-3.93a163.08,163.08,0,0,0-158.36,125.6,131.75,131.75,0,0,0-28.23-3.54h-3.11A131.23,131.23,0,0,0,79,369h0l-1.09,2.27,0,0L75,377h.18A129.06,129.06,0,0,0,65,424v4.88c.61,33.32,16,67.22,42.13,93s60.23,40.86,93.86,41.77h15c21.51,0,65-.11,136.69-.35h4l143.33-.5,140.35-.49h4c73-.24,117-.36,138.35-.36H800.3c35.55,0,69.23-16,94.84-45s40-67.4,40.9-108.42A181.64,181.64,0,0,0,934.11,377ZM352.71,555.28c-71.69.24-115.18.35-136.69.35H201.17c-31.61-.87-63.83-15.26-88.4-39.47S73.59,460,73,428.8v-4.64A121,121,0,0,1,84,377h83.13a46,46,0,0,0,91.57,0h94.06Zm287.7-1L500,554.77l-139.32.49V377h94.05a46,46,0,0,0,91.57,0h94.08Zm0-185.28H538.5v4a38,38,0,1,1-75.91,0v-4H250.82v4a38,38,0,1,1-75.91,0v-4H88a123.3,123.3,0,0,1,107.52-63.87h3a123.83,123.83,0,0,1,30.27,4.29l4.11,1.11.86-4.16A154.66,154.66,0,0,1,287.47,218a156.25,156.25,0,0,1,97.72-34.93H389a152.46,152.46,0,0,1,62.87,15l3.89,1.86,1.56-4c29-74.58,95.34-122.77,169-122.77l4.45-.09c92.33,2.23,168.73,79.69,177.73,180.22l.3,3.31,3.31.32c27.49,2.6,52.92,15.27,73.54,36.63,19.2,19.89,32.91,46.55,38.93,75.5H826.21v4a38,38,0,1,1-75.91,0v-4H640.41ZM928,408.29c-.85,39.15-14.67,75.84-38.9,103.31-24.07,27.29-55.61,42.31-88.84,42.31H782.77c-21,0-63.73.11-134.36.35V377h94.06A46,46,0,0,0,834,377h92A173.66,173.66,0,0,1,928,408.29Z"/><path class="cls-3" d="M643.28,330.67H590.61a3.45,3.45,0,0,1-3.46-3.42,3.5,3.5,0,0,1,1.57-2.93,87.07,87.07,0,0,1,12.5-5.73l2.87-21.77,4.26.57-3.21,24.33-1.14.46c-2,.76-6.69,2.61-10,4.18h46c-3.28-1.57-8-3.45-10-4.18l-1.27-.46-2.45-24.41,4.27-.42,2.08,21.72a81.5,81.5,0,0,1,12.53,5.75,3.47,3.47,0,0,1-1.92,6.31Z"/><path class="cls-3" d="M689.22,189.46H543.91a7.91,7.91,0,0,0-8.11,7.68v87.28a8,8,0,0,0,8.15,7.73H689.6a8.22,8.22,0,0,0,8.43-8V197.82A8.6,8.6,0,0,0,689.22,189.46Zm0,4.27a4.31,4.31,0,0,1,4.49,4.09v86.31a3.94,3.94,0,0,1-4.11,3.73H544a3.66,3.66,0,0,1-3.83-3.42V197.16a3.64,3.64,0,0,1,3.79-3.43H689.22"/><rect class="cls-2" x="553.31" y="279.32" width="128.38" height="3.5"/><path class="cls-4" d="M628.06,253a16,16,0,0,0,5.2-7.76,14.85,14.85,0,0,0,0-8.15,16.13,16.13,0,0,0-4.14-7,16.64,16.64,0,0,0-18-3.86,15.31,15.31,0,0,0-7.32,6.39,16.82,16.82,0,0,0-2.46,9.36,14.41,14.41,0,0,0,3.6,9.18,16.11,16.11,0,0,0,11.65,5.51A15.49,15.49,0,0,0,628.13,253Zm12.12.82c-.43,0-1.28-.14-2.56-.24a20.56,20.56,0,0,1-2.6-.35,18.71,18.71,0,0,0-2,2,7.25,7.25,0,0,1-2.16,1.85c0,.31.2,1.18.43,2.61a21.9,21.9,0,0,0,.54,2.53,81.66,81.66,0,0,1-7.5,3.41,35.67,35.67,0,0,1-3.46-4.21,15.79,15.79,0,0,1-5.4,0,10,10,0,0,0-1.85,2.16,14.63,14.63,0,0,1-1.73,2.27l-7.48-2.68a12.58,12.58,0,0,1,.17-2.67,22.06,22.06,0,0,0,.26-2.69c-2.51-2.4-3.81-3.64-3.89-3.79a11,11,0,0,0-2.75.22,23,23,0,0,1-2.6.39,57.93,57.93,0,0,1-3.46-7.08,34.51,34.51,0,0,1,4-3.4c0-.31,0-1.24-.12-2.79a11.23,11.23,0,0,1,.21-2.95,19.19,19.19,0,0,1-2.23-1.54c-1-.77-1.74-1.28-2.17-1.54l2.93-7.55c.43,0,1.28.13,2.56.24a17.37,17.37,0,0,1,2.59.37c.39-.32,1.06-1,2.06-2a14.77,14.77,0,0,1,2.13-1.9,26.19,26.19,0,0,0-1-5.11,81,81,0,0,1,7.55-3.4,29.6,29.6,0,0,1,3.46,4.2,29.21,29.21,0,0,1,5.61,0c.21-.25.78-1,1.73-2.28a25.07,25.07,0,0,1,1.73-2.23l7.34,2.78c0,.76-.14,2.55-.43,5.36.24.23.91.85,2,1.83a8.82,8.82,0,0,1,1.83,2,8.88,8.88,0,0,0,2.72-.24,21.51,21.51,0,0,1,2.63-.43,15,15,0,0,1,1.9,3.53,32.52,32.52,0,0,0,1.74,3.62c-1.91,1.6-3.33,2.74-4.28,3.41a49.79,49.79,0,0,0,0,5.73,13.41,13.41,0,0,1,2.32,1.48c1,.77,1.73,1.28,2.16,1.53Z"/><rect class="cls-5" x="199.96" y="449.32" width="22.27" height="1.78"/><rect class="cls-5" x="232.92" y="449.32" width="21.38" height="1.78"/><rect class="cls-5" x="234.7" y="464.46" width="1.78" height="8.91"/><rect class="cls-5" x="225.79" y="464.46" width="2.67" height="8.91"/><rect class="cls-5" x="217.78" y="464.46" width="1.78" height="8.91"/><rect class="cls-5" x="208.87" y="464.46" width="1.78" height="8.91"/><rect class="cls-5" x="199.96" y="464.46" width="2.67" height="8.91"/><rect class="cls-5" x="234.7" y="483.17" width="1.78" height="8.91"/><rect class="cls-5" x="243.61" y="464.46" width="1.78" height="8.91"/><rect class="cls-5" x="243.61" y="483.17" width="1.78" height="8.91"/><rect class="cls-5" x="251.62" y="464.46" width="2.67" height="8.91"/><rect class="cls-5" x="251.62" y="483.17" width="2.67" height="8.91"/><rect class="cls-5" x="225.79" y="483.17" width="2.67" height="8.91"/><rect class="cls-5" x="217.78" y="483.17" width="1.78" height="8.91"/><rect class="cls-5" x="208.87" y="483.17" width="1.78" height="8.91"/><rect class="cls-5" x="199.96" y="483.17" width="2.67" height="8.91"/><path class="cls-3" d="M258.59,456.41h-59v2.4h59V497h-64.7v-53.2h64.7Zm2.15,40.65V441.7h-7.42v-3.07H231.76v3.07h-40v55.36h-6.47v2.14h81.95v-2.14Z"/><path class="cls-4" d="M473.27,496.73c-6.26-.17-12-6.14-11.91-12.29a11.37,11.37,0,0,1,11.23-11.07h.29a11.23,11.23,0,0,1,2.77.4l2.51.7.55-2.57a14.91,14.91,0,0,1,14.42-11.85h.36a14.59,14.59,0,0,1,6,1.43l2,1v34.19c-11.5,0-22.62.08-26.63.08Zm66.12-31c-1-11.09-9.33-19.85-19.67-20.1h-.5c-8.36,0-15.58,5.64-18.69,13.7a16.9,16.9,0,0,0-7-1.68h-.42a17.25,17.25,0,0,0-16.82,13.83,13.8,13.8,0,0,0-3.38-.49h-.34a13.8,13.8,0,0,0-13.69,13.43c-.18,7.64,6.75,14.61,14.3,14.82h1.6c9.1,0,52.35-.19,61.36-.19h1.9c7.69,0,14.06-7.28,14.26-16.34C552.56,473.78,546.82,466.4,539.39,465.69Z"/><path class="cls-3" d="M519.7,445.6c-8.42,0-15.7,5.64-18.84,13.69a17.16,17.16,0,0,0-7-1.67h-.42a17.36,17.36,0,0,0-17,13.82A13.57,13.57,0,0,0,473,471h-.34a13.86,13.86,0,0,0-13.79,13.44c-.19,7.63,6.79,14.6,14.42,14.81h1.61c9.19,0,52.78-.19,61.86-.19h1.92c7.74,0,14.17-7.27,14.38-16.34.21-8.88-5.58-16.28-13.06-17-1-11.08-9.4-19.84-19.83-20.09Zm0,2.47h.45c9,.22,16.5,7.9,17.41,17.85l.19,2,2,.2c6.26.59,11,6.91,10.82,14.48s-5.52,13.92-11.9,13.92h-1.92c-4.54,0-17.85,0-30.79.09s-26.47.1-31.07.1h-1.55c-6.32-.17-12.15-6.14-12-12.28a11.38,11.38,0,0,1,11.31-11.08H473a11,11,0,0,1,2.8.4l2.53.7.55-2.57a15,15,0,0,1,14.54-11.85h.35a14.8,14.8,0,0,1,6,1.44l2.42,1.17,1-2.5c2.85-7.34,9.32-12.1,16.51-12.1"/><path class="cls-3" d="M778.34,445.6c-8.38,0-15.64,5.64-18.76,13.69a17,17,0,0,0-7-1.67h-.43a17.3,17.3,0,0,0-16.88,13.82,13.49,13.49,0,0,0-3.4-.49h-.34a13.82,13.82,0,0,0-13.73,13.44c-.19,7.63,6.76,14.6,14.36,14.81h1.6c9.15,0,52.57-.19,61.6-.19h1.92c7.71,0,14.11-7.27,14.32-16.34.22-8.88-5.55-16.28-13-17-1-11.08-9.36-19.84-19.75-20.09Zm0,2.47h.44c9,.22,16.44,7.9,17.34,17.85l.19,2,2,.2c6.23.59,11,6.91,10.77,14.48s-5.49,13.92-11.85,13.92h-1.92c-4.51,0-17.77,0-30.66.09s-26.35.1-30.94.1H732.2c-6.29-.17-12.09-6.14-11.94-12.28a11.35,11.35,0,0,1,11.26-11.08h.29a10.86,10.86,0,0,1,2.78.4l2.53.7.55-2.57a15,15,0,0,1,14.47-11.85h.36a14.7,14.7,0,0,1,6,1.44l2.41,1.17,1-2.5c2.83-7.34,9.28-12.1,16.44-12.1"/><path class="cls-6" d="M246.82,603.39H232.58l-2.44,5.72h-4.48l11.8-27.48h4.48l11.8,27.48h-4.48Zm-1.52-3.52-5.6-13-5.6,13Z"/><path class="cls-6" d="M283.86,581.63,272,609.11h-4.44l-11.84-27.48h4.48l9.6,22.32,9.56-22.32Z"/><path class="cls-6" d="M288.94,581.63h4v27.48h-4Z"/><path class="cls-6" d="M309.22,581.63h4.48l6.76,21,6.88-21h4.44l6.88,21,6.76-21h4.48l-9,27.48h-4l-7.24-21.88-7.28,21.88h-4Z"/><path class="cls-6" d="M355.18,581.63h4v27.48h-4Z"/><path class="cls-6" d="M373.42,585.39h-9v-3.76h22.08v3.76h-9v23.72h-4Z"/><path class="cls-6" d="M414.66,581.63v27.48h-4V597h-15v12.12h-4V581.63h4v11.6h15v-11.6Z"/><path class="cls-6" d="M439,607.65a14.8,14.8,0,0,1-5.24-5.22,13.73,13.73,0,0,1,0-14.14,15,15,0,0,1,5.24-5.2,13.65,13.65,0,0,1,7-1.94,14.09,14.09,0,0,1,10.16,4.32l-2.84,2.72a10.54,10.54,0,0,0-3.34-2.44,9.46,9.46,0,0,0-9,.56,10.7,10.7,0,0,0-3.72,3.84,10.52,10.52,0,0,0,0,10.42,10.6,10.6,0,0,0,3.72,3.86,9.43,9.43,0,0,0,5,1.44,9.28,9.28,0,0,0,4-.88,10.39,10.39,0,0,0,3.34-2.44l2.84,2.72a14.43,14.43,0,0,1-4.64,3.18,13.78,13.78,0,0,1-5.52,1.14A13.56,13.56,0,0,1,439,607.65Z"/><path class="cls-6" d="M480.29,605.35v3.76h-18.6V581.63h4v23.72Z"/><path class="cls-6" d="M490.69,607.65a14.8,14.8,0,0,1-5.24-5.22,13.73,13.73,0,0,1,0-14.14,15,15,0,0,1,5.24-5.2,13.82,13.82,0,0,1,14.12,0,14.69,14.69,0,0,1,5.22,5.2,13.85,13.85,0,0,1,0,14.14,14.51,14.51,0,0,1-5.22,5.22,13.82,13.82,0,0,1-14.12,0Zm12.06-3.22a10.6,10.6,0,0,0,3.72-3.86,10.52,10.52,0,0,0,0-10.42,10.7,10.7,0,0,0-3.72-3.84,9.47,9.47,0,0,0-10,0,10.7,10.7,0,0,0-3.72,3.84,10.52,10.52,0,0,0,0,10.42,10.6,10.6,0,0,0,3.72,3.86,9.47,9.47,0,0,0,10,0Z"/><path class="cls-6" d="M523.19,608.05a10.74,10.74,0,0,1-4.2-4.28,12.72,12.72,0,0,1-1.5-6.22V581.63h4v15.84a9.49,9.49,0,0,0,1,4.36,7.41,7.41,0,0,0,2.76,3,7.61,7.61,0,0,0,4,1.08,7.47,7.47,0,0,0,4-1.08,7.3,7.3,0,0,0,2.74-3,9.36,9.36,0,0,0,1-4.36V581.63h4.08v15.92a12.52,12.52,0,0,1-1.52,6.22,10.87,10.87,0,0,1-4.2,4.28,11.92,11.92,0,0,1-6.08,1.54A12.08,12.08,0,0,1,523.19,608.05Z"/><path class="cls-6" d="M548.53,581.63H558a17,17,0,0,1,7.84,1.76,13.32,13.32,0,0,1,5.38,4.88,13.41,13.41,0,0,1-5.38,19.08,16.86,16.86,0,0,1-7.84,1.76h-9.48Zm9.72,23.8a11.83,11.83,0,0,0,5.58-1.28,9.41,9.41,0,0,0,3.84-3.58,10.52,10.52,0,0,0,0-10.42,9.57,9.57,0,0,0-3.84-3.56,12,12,0,0,0-5.58-1.28h-5.68v20.12Z"/><path class="cls-6" d="M588,605.15l2.4-3a12.83,12.83,0,0,0,9,3.84,6.55,6.55,0,0,0,4.24-1.22,3.66,3.66,0,0,0,1.52-3,3.13,3.13,0,0,0-1.58-2.82,18.56,18.56,0,0,0-5.3-1.82,26,26,0,0,1-5.1-1.64,7.81,7.81,0,0,1-3.1-2.44,6.39,6.39,0,0,1-1.12-3.88,7.27,7.27,0,0,1,1.24-4.12,8.5,8.5,0,0,1,3.42-2.88,11.32,11.32,0,0,1,4.9-1,14.5,14.5,0,0,1,5.46,1,15.43,15.43,0,0,1,4.54,2.88l-2.32,3a13.94,13.94,0,0,0-3.78-2.48,10.25,10.25,0,0,0-4.1-.88,6.33,6.33,0,0,0-2.68.56,4.76,4.76,0,0,0-1.88,1.52,3.49,3.49,0,0,0-.68,2,2.86,2.86,0,0,0,.76,2,5.8,5.8,0,0,0,2.18,1.34,33.55,33.55,0,0,0,3.94,1.14,18.87,18.87,0,0,1,6.94,2.84,6.11,6.11,0,0,1,2.34,5.2,7.62,7.62,0,0,1-1.16,4.2,7.75,7.75,0,0,1-3.42,2.9,12.6,12.6,0,0,1-5.42,1.06A15.52,15.52,0,0,1,588,605.15Z"/><path class="cls-6" d="M619.41,585.39v7.84H634V597H619.41v8.36h16.12v3.76h-20.2V581.63h20.2v3.76Z"/><path class="cls-6" d="M661.39,596.35a9.8,9.8,0,0,1-5.74,3l6.84,9.76h-4.64l-6.72-9.56h-5.24v9.56h-4V581.63h11.56a11.65,11.65,0,0,1,5.18,1.14,9,9,0,0,1,3.68,3.2,8.6,8.6,0,0,1-.88,10.38Zm-15.5-.56h6.92a7.73,7.73,0,0,0,4.84-1.4,4.84,4.84,0,0,0,0-7.6,7.79,7.79,0,0,0-4.84-1.4h-6.92Z"/><path class="cls-6" d="M694.69,581.63l-11.84,27.48h-4.44l-11.84-27.48h4.48l9.6,22.32,9.56-22.32Z"/><path class="cls-6" d="M699.77,581.63h4v27.48h-4Z"/><path class="cls-6" d="M717.21,607.65a14.72,14.72,0,0,1-5.24-5.22,13.73,13.73,0,0,1,0-14.14,14.91,14.91,0,0,1,5.24-5.2,13.65,13.65,0,0,1,7-1.94,13.87,13.87,0,0,1,5.56,1.14,14,14,0,0,1,4.6,3.18l-2.84,2.72a10.54,10.54,0,0,0-3.34-2.44,9.46,9.46,0,0,0-9,.56,10.7,10.7,0,0,0-3.72,3.84,10.52,10.52,0,0,0,0,10.42,10.6,10.6,0,0,0,3.72,3.86,9.46,9.46,0,0,0,9,.56,10.39,10.39,0,0,0,3.34-2.44l2.84,2.72a14.43,14.43,0,0,1-4.64,3.18,13.78,13.78,0,0,1-5.52,1.14A13.56,13.56,0,0,1,717.21,607.65Z"/><path class="cls-6" d="M744,585.39v7.84h14.56V597H744v8.36h16.12v3.76h-20.2V581.63h20.2v3.76Z"/><path class="cls-6" d="M764.05,605.15l2.4-3a12.81,12.81,0,0,0,9,3.84,6.57,6.57,0,0,0,4.24-1.22,3.69,3.69,0,0,0,1.52-3,3.15,3.15,0,0,0-1.58-2.82,18.56,18.56,0,0,0-5.3-1.82,26,26,0,0,1-5.1-1.64,7.81,7.81,0,0,1-3.1-2.44,6.33,6.33,0,0,1-1.12-3.88,7.19,7.19,0,0,1,1.24-4.12,8.5,8.5,0,0,1,3.42-2.88,11.29,11.29,0,0,1,4.9-1,14.5,14.5,0,0,1,5.46,1,15.56,15.56,0,0,1,4.54,2.88l-2.32,3a13.94,13.94,0,0,0-3.78-2.48,10.29,10.29,0,0,0-4.1-.88,6.3,6.3,0,0,0-2.68.56,4.69,4.69,0,0,0-1.88,1.52,3.49,3.49,0,0,0-.68,2,2.82,2.82,0,0,0,.76,2,5.72,5.72,0,0,0,2.18,1.34,33.55,33.55,0,0,0,3.94,1.14,18.87,18.87,0,0,1,6.94,2.84,6.11,6.11,0,0,1,2.34,5.2,7.5,7.5,0,0,1-4.58,7.1,12.63,12.63,0,0,1-5.42,1.06A15.49,15.49,0,0,1,764.05,605.15Z"/><path class="cls-5" d="M539.73,146.81A11.35,11.35,0,0,1,536,144.5l2.05-2.49a9.26,9.26,0,0,0,6.32,2.6,4.25,4.25,0,0,0,2.64-.73,2.21,2.21,0,0,0,1-1.82,1.76,1.76,0,0,0-.46-1.27,3.62,3.62,0,0,0-1.38-.84,18.78,18.78,0,0,0-2.61-.74,21.89,21.89,0,0,1-3.67-1.17,5.59,5.59,0,0,1-2.24-1.7,4.58,4.58,0,0,1-.81-2.82,5.26,5.26,0,0,1,.88-3,5.8,5.8,0,0,1,2.45-2.07,8.13,8.13,0,0,1,3.56-.74,10.76,10.76,0,0,1,7.27,2.68l-1.9,2.55a9.57,9.57,0,0,0-2.66-1.66,7.24,7.24,0,0,0-2.83-.58,3.57,3.57,0,0,0-2.33.73,2.17,2.17,0,0,0-.91,1.76,1.76,1.76,0,0,0,.46,1.26,3.28,3.28,0,0,0,1.4.84,23.43,23.43,0,0,0,2.59.73,13.68,13.68,0,0,1,5,2,4.3,4.3,0,0,1,1.68,3.69,5.38,5.38,0,0,1-3.33,5.13,9.25,9.25,0,0,1-3.89.75A12.61,12.61,0,0,1,539.73,146.81Z"/><path class="cls-5" d="M555.46,128.06h3.47V147.3h-3.47Z"/><path class="cls-5" d="M564.25,128.06h3.47l6.35,11.73,6.33-11.73h3.5V147.3h-3.5V134.45l-6.33,11.73-6.35-11.73V147.3h-3.47Z"/><path class="cls-5" d="M589.19,128.06h8.38a8.19,8.19,0,0,1,3.66.81,6.24,6.24,0,0,1,2.59,2.27,6.28,6.28,0,0,1,0,6.61,6.24,6.24,0,0,1-2.59,2.27,8.19,8.19,0,0,1-3.66.81h-4.9v6.47h-3.48Zm8,9.55a4.65,4.65,0,0,0,2.92-.85,3,3,0,0,0,0-4.62,4.65,4.65,0,0,0-2.92-.86h-4.48v6.33Z"/><path class="cls-5" d="M621.93,144.11v3.19H608.57V128.06H612v16.05Z"/><path class="cls-5" d="M625.4,128.06h3.47V147.3H625.4Z"/><path class="cls-5" d="M637.69,131.25v4.88h9.91v3.19h-9.91v8h-3.5V128.06h14.48v3.19Z"/><path class="cls-5" d="M652.42,128.06h3.47V147.3h-3.47Z"/><path class="cls-5" d="M664.71,131.25v4.65h9.91v3.19h-9.91v5h11v3.19H661.21V128.06h14.48v3.19Z"/><path class="cls-5" d="M679.91,128.06h6.75a12.36,12.36,0,0,1,5.6,1.23,9.42,9.42,0,0,1,3.85,3.42,9.56,9.56,0,0,1,0,9.93,9.51,9.51,0,0,1-3.85,3.43,12.36,12.36,0,0,1-5.6,1.23h-6.75ZM687,144.13a7.59,7.59,0,0,0,3.58-.82,6.17,6.17,0,0,0,2.45-2.3,6.78,6.78,0,0,0,0-6.68,6.2,6.2,0,0,0-2.45-2.28,7.59,7.59,0,0,0-3.58-.82h-3.65v12.9Z"/><path class="cls-5" d="M552.39,174.28a10.38,10.38,0,0,1-3.7-3.66,9.63,9.63,0,0,1,0-9.9,10.41,10.41,0,0,1,3.7-3.64,10,10,0,0,1,9-.53,10.46,10.46,0,0,1,3.32,2.28l-2.49,2.33a6.56,6.56,0,0,0-2.17-1.65,6,6,0,0,0-2.62-.59,6.06,6.06,0,0,0-3.23.92,7,7,0,0,0-2.4,2.48,6.79,6.79,0,0,0,0,6.72,7,7,0,0,0,2.4,2.48,6.06,6.06,0,0,0,3.23.92,6,6,0,0,0,2.62-.59,6.88,6.88,0,0,0,2.2-1.65l2.46,2.3a10,10,0,0,1-12.29,1.78Z"/><path class="cls-5" d="M572.1,174.28a10.38,10.38,0,0,1-3.7-3.66,9.63,9.63,0,0,1,0-9.9,10.41,10.41,0,0,1,3.7-3.64,10,10,0,0,1,10,0,10.44,10.44,0,0,1,3.71,3.64,9.51,9.51,0,0,1,0,9.9,10.41,10.41,0,0,1-3.71,3.66,10,10,0,0,1-10,0Zm8.26-2.76a6.85,6.85,0,0,0,0-11.68,6.18,6.18,0,0,0-3.25-.92,6.08,6.08,0,0,0-3.23.92,7,7,0,0,0-2.4,2.48,6.79,6.79,0,0,0,0,6.72,7,7,0,0,0,2.4,2.48,6.08,6.08,0,0,0,3.23.92A6.18,6.18,0,0,0,580.36,171.52Z"/><path class="cls-5" d="M591.28,156.06h3.47l10.17,13.53V156.06h3.47V175.3h-3.47l-10.17-13.53V175.3h-3.47Z"/><path class="cls-5" d="M618,159.25h-6.16v-3.19h15.79v3.19h-6.13V175.3H618Z"/><path class="cls-5" d="M645.29,166.41a6.82,6.82,0,0,1-3.78,2.2l4.71,6.69h-4l-4.54-6.47h-3.08v6.47h-3.47V156.06h8.37a8.21,8.21,0,0,1,3.67.81,6.3,6.3,0,0,1,2.59,2.27,6.24,6.24,0,0,1-.49,7.27Zm-10.67-.8h4.48a4.66,4.66,0,0,0,2.93-.85,3,3,0,0,0,0-4.62,4.66,4.66,0,0,0-2.93-.86h-4.48Z"/><path class="cls-5" d="M654.56,174.28a10.38,10.38,0,0,1-3.7-3.66,9.63,9.63,0,0,1,0-9.9,10.41,10.41,0,0,1,3.7-3.64,10,10,0,0,1,10,0,10.44,10.44,0,0,1,3.71,3.64,9.51,9.51,0,0,1,0,9.9,10.41,10.41,0,0,1-3.71,3.66,10,10,0,0,1-10,0Zm8.26-2.76a6.85,6.85,0,0,0,0-11.68,6.18,6.18,0,0,0-3.25-.92,6.08,6.08,0,0,0-3.23.92,7,7,0,0,0-2.4,2.48,6.79,6.79,0,0,0,0,6.72,7,7,0,0,0,2.4,2.48,6.08,6.08,0,0,0,3.23.92A6.18,6.18,0,0,0,662.82,171.52Z"/><path class="cls-5" d="M687.1,172.11v3.19H673.74V156.06h3.47v16.05Z"/><path class="cls-5" d="M337.8,666v4.87h9.91V674H337.8v8h-3.5V662.78h14.48V666Z"/><path class="cls-5" d="M365.88,678.83V682H352.53V662.78H356v16.05Z"/><path class="cls-5" d="M372.86,666v4.64h9.91v3.19h-9.91v5h11V682H369.36V662.78h14.47V666Z"/><path class="cls-5" d="M397.44,672.39l7.14,9.63h-4.14l-5.07-6.83-5.1,6.83h-4.09l7.14-9.6-7.14-9.64h4.15l5.07,6.84,5.09-6.84h4.09Z"/><path class="cls-5" d="M408,662.78h3.48V682H408Z"/><path class="cls-5" d="M416.82,662.78h9.43a6.75,6.75,0,0,1,2.94.62,4.69,4.69,0,0,1,2,1.72,4.44,4.44,0,0,1,.72,2.48,4.59,4.59,0,0,1-2.72,4.25,6.91,6.91,0,0,1,2.61,2.09,4.95,4.95,0,0,1,.14,5.54,5.35,5.35,0,0,1-2.19,1.87,7.18,7.18,0,0,1-3.16.67h-9.77Zm8.56,7.87a3.25,3.25,0,0,0,2.12-.68,2.26,2.26,0,0,0,0-3.48,3.25,3.25,0,0,0-2.12-.68h-5.09v4.84Zm.54,8.35a3.48,3.48,0,0,0,2.31-.77,2.51,2.51,0,0,0,.91-2,2.48,2.48,0,0,0-.91-2,3.43,3.43,0,0,0-2.31-.77h-5.63V679Z"/><path class="cls-5" d="M450.19,678.83V682H436.84V662.78h3.47v16.05Z"/><path class="cls-5" d="M457.16,666v4.64h9.92v3.19h-9.92v5h11V682H453.66V662.78h14.48V666Z"/><path class="cls-5" d="M480,662.78h6.75a12.24,12.24,0,0,1,5.6,1.24,9.47,9.47,0,0,1,3.85,3.41,9.62,9.62,0,0,1,0,9.93,9.44,9.44,0,0,1-3.85,3.43,12.36,12.36,0,0,1-5.6,1.23H480Zm7.11,16.07a7.6,7.6,0,0,0,3.59-.82,6.17,6.17,0,0,0,2.45-2.3,6.76,6.76,0,0,0,0-6.67,6.15,6.15,0,0,0-2.45-2.29,7.6,7.6,0,0,0-3.59-.82h-3.64v12.9Z"/><path class="cls-5" d="M505.16,666v4.64h9.91v3.19h-9.91v5h11V682H501.66V662.78h14.47V666Z"/><path class="cls-5" d="M520.36,662.78h8.37a8.11,8.11,0,0,1,3.67.82,6.34,6.34,0,0,1,2.59,2.26,6.28,6.28,0,0,1,0,6.61,6.36,6.36,0,0,1-2.59,2.27,8.24,8.24,0,0,1-3.67.81h-4.9V682h-3.47Zm7.95,9.55a4.68,4.68,0,0,0,2.93-.85,3,3,0,0,0,0-4.62,4.68,4.68,0,0,0-2.93-.86h-4.48v6.33Z"/><path class="cls-5" d="M553.09,678.83V682H539.73V662.78h3.48v16.05Z"/><path class="cls-5" d="M560.37,681a10.38,10.38,0,0,1-3.7-3.66,9.63,9.63,0,0,1,0-9.9,10.3,10.3,0,0,1,3.7-3.63,9.91,9.91,0,0,1,10,0,10.33,10.33,0,0,1,3.71,3.63,9.51,9.51,0,0,1,0,9.9,10.41,10.41,0,0,1-3.71,3.66,10,10,0,0,1-10,0Zm8.26-2.76A6.82,6.82,0,0,0,571,669a6.77,6.77,0,0,0-2.39-2.48,6.18,6.18,0,0,0-3.25-.92,6.08,6.08,0,0,0-3.23.92,7,7,0,0,0-2.4,2.48,6.79,6.79,0,0,0,0,6.72,7,7,0,0,0,2.4,2.48,6.08,6.08,0,0,0,3.23.92A6.18,6.18,0,0,0,568.63,678.24Z"/><path class="cls-5" d="M585.09,674.8l-7.61-12h4.11l5.3,8.71,5.37-8.71h4l-7.59,12V682h-3.56Z"/><path class="cls-5" d="M599.49,662.78H603l6.35,11.74,6.33-11.74h3.5V682h-3.5V669.17l-6.33,11.73L603,669.17V682h-3.47Z"/><path class="cls-5" d="M627.93,666v4.64h9.92v3.19h-9.92v5h11V682H624.43V662.78h14.48V666Z"/><path class="cls-5" d="M643.14,662.78h3.47l10.16,13.53V662.78h3.48V682h-3.48L646.61,668.5V682h-3.47Z"/><path class="cls-5" d="M669.88,666h-6.16v-3.2h15.79V666h-6.13v16h-3.5Z"/><path class="cls-2" d="M181.94,528.31a8.73,8.73,0,0,1-3.16-3.14,8.21,8.21,0,0,1,0-8.48,8.83,8.83,0,0,1,3.16-3.12,8.55,8.55,0,0,1,8.6,0,9,9,0,0,1,3.17,3.12,8.15,8.15,0,0,1,0,8.48,8.91,8.91,0,0,1-3.17,3.14,8.55,8.55,0,0,1-8.6,0Zm7.08-2.37a5.87,5.87,0,0,0,2.81-5,5.65,5.65,0,0,0-.76-2.87,5.74,5.74,0,0,0-2-2.13,5.3,5.3,0,0,0-2.78-.79,5.24,5.24,0,0,0-2.77.79,5.9,5.9,0,0,0-2.05,2.13,5.77,5.77,0,0,0,0,5.76,5.87,5.87,0,0,0,2.05,2.12,5.15,5.15,0,0,0,2.77.79A5.21,5.21,0,0,0,189,525.94Z"/><path class="cls-2" d="M207.1,517.1a4.26,4.26,0,0,1,1.64,1.7,5.2,5.2,0,0,1,.59,2.49v7.89h-2.86v-7.32a3,3,0,0,0-.72-2.07,2.38,2.38,0,0,0-1.87-.81,3.13,3.13,0,0,0-2.15.78,2.47,2.47,0,0,0-.87,1.91v7.51h-2.93V516.77h2.93v1.68a4.15,4.15,0,0,1,1.59-1.42,5,5,0,0,1,4.65.07Z"/><path class="cls-2" d="M212.69,521.31h6.45v2.57h-6.45Z"/><path class="cls-2" d="M232.92,517.31a5.71,5.71,0,0,1,2,2.31,7.53,7.53,0,0,1,.73,3.35,7.67,7.67,0,0,1-.73,3.36,5.65,5.65,0,0,1-2,2.31,5.36,5.36,0,0,1-2.93.83,5.14,5.14,0,0,1-4.3-2.21v6h-2.92V516.77h2.92v1.92a5.34,5.34,0,0,1,1.85-1.63,5.26,5.26,0,0,1,2.45-.57A5.35,5.35,0,0,1,232.92,517.31Zm-1.15,8.54a4.2,4.2,0,0,0,1-2.88,4.12,4.12,0,0,0-1-2.87A3.31,3.31,0,0,0,229.2,519a3.19,3.19,0,0,0-2.52,1.12,4.16,4.16,0,0,0-1,2.87,4.23,4.23,0,0,0,1,2.88A3.19,3.19,0,0,0,229.2,527,3.31,3.31,0,0,0,231.77,525.85Z"/><path class="cls-2" d="M243.19,517.19a5.06,5.06,0,0,1,2.66-.7V519a4.67,4.67,0,0,0-3.21,1.08,3.61,3.61,0,0,0-1.23,2.86v6.26h-2.92V516.77h2.92v2.36A4.63,4.63,0,0,1,243.19,517.19Z"/><path class="cls-2" d="M255.94,526.76a4.46,4.46,0,0,0,1.55-.94l1.68,1.73a5.75,5.75,0,0,1-2.23,1.38,8,8,0,0,1-2.81.54,6.58,6.58,0,0,1-3.27-.84,6.34,6.34,0,0,1-2.38-2.33,6.93,6.93,0,0,1,0-6.67,6.12,6.12,0,0,1,2.3-2.3,6.37,6.37,0,0,1,3.22-.84,5.47,5.47,0,0,1,4.47,2,8.24,8.24,0,0,1,1.62,5.38h-9.62a4,4,0,0,0,1.21,2.39,3.38,3.38,0,0,0,2.39.9A5.41,5.41,0,0,0,255.94,526.76Zm-4.23-7.09a3.84,3.84,0,0,0-1.25,2.22h6.77a3.88,3.88,0,0,0-1-2.21,3,3,0,0,0-2.2-.84A3.34,3.34,0,0,0,251.71,519.67Z"/><path class="cls-2" d="M279.35,517.1a4.3,4.3,0,0,1,1.63,1.7,5.2,5.2,0,0,1,.59,2.49v7.89h-2.86v-7.41a3,3,0,0,0-.67-2,2.19,2.19,0,0,0-1.73-.78,2.77,2.77,0,0,0-2,.73,2.47,2.47,0,0,0-.77,1.86v7.61h-2.83v-7.41a3,3,0,0,0-.68-2,2.22,2.22,0,0,0-1.74-.78,2.76,2.76,0,0,0-1.95.73,2.47,2.47,0,0,0-.76,1.86v7.61h-2.93V516.77h2.93v1.68A3.63,3.63,0,0,1,267,517a4,4,0,0,1,2.06-.52,4.36,4.36,0,0,1,2.59.79,4.28,4.28,0,0,1,1.61,2.16,3.53,3.53,0,0,1,1.29-2.15,3.84,3.84,0,0,1,2.48-.8A4.49,4.49,0,0,1,279.35,517.1Z"/><path class="cls-2" d="M444.36,512.69v16.49h-3v-7h-8.23v7h-3V512.69h3v6.72h8.23v-6.72Z"/><path class="cls-2" d="M449.1,533.33a4.61,4.61,0,0,1-1.28-.48l.62-2.11a3.29,3.29,0,0,0,1.59.46,1.68,1.68,0,0,0,1.58-.82l.53-1.1-5.26-12.51H450L453.6,526l3.41-9.27h3l-5.25,13.28q-1.36,3.41-4.25,3.45A6,6,0,0,1,449.1,533.33Z"/><path class="cls-2" d="M472.42,517.31a5.81,5.81,0,0,1,2,2.31,7.4,7.4,0,0,1,.74,3.35,7.54,7.54,0,0,1-.74,3.36,5.74,5.74,0,0,1-2,2.31,5.36,5.36,0,0,1-2.93.83,5.22,5.22,0,0,1-2.54-.62,5,5,0,0,1-1.85-1.78v2.11h-2.93V512.41h2.93v6.45a5.07,5.07,0,0,1,4.39-2.37A5.35,5.35,0,0,1,472.42,517.31Zm-1.13,8.54a4.2,4.2,0,0,0,1-2.88,4.12,4.12,0,0,0-1-2.87A3.31,3.31,0,0,0,468.7,519a3.18,3.18,0,0,0-2.52,1.12,4.16,4.16,0,0,0-1,2.87,4.62,4.62,0,0,0,.45,2.06,3.41,3.41,0,0,0,1.25,1.43,3.52,3.52,0,0,0,4.4-.61Z"/><path class="cls-2" d="M482.69,517.19a5.06,5.06,0,0,1,2.66-.7V519a4.67,4.67,0,0,0-3.21,1.08,3.61,3.61,0,0,0-1.23,2.86v6.26H478V516.77h2.92v2.36A4.63,4.63,0,0,1,482.69,517.19Z"/><path class="cls-2" d="M488.29,514.4a1.67,1.67,0,0,1-.49-1.18,1.67,1.67,0,0,1,1.68-1.65,1.59,1.59,0,0,1,1.17.49,1.61,1.61,0,0,1,.49,1.16,1.67,1.67,0,0,1-.49,1.18,1.6,1.6,0,0,1-1.17.5A1.63,1.63,0,0,1,488.29,514.4Zm-.27,2.37H491v12.41H488Z"/><path class="cls-2" d="M506.69,512.41v16.77h-2.93v-2a5,5,0,0,1-1.83,1.67,5.26,5.26,0,0,1-2.46.59,5.39,5.39,0,0,1-2.94-.83,5.47,5.47,0,0,1-2-2.31,7.54,7.54,0,0,1-.74-3.36,7.4,7.4,0,0,1,.74-3.35,5.53,5.53,0,0,1,2-2.31,5.38,5.38,0,0,1,2.94-.82,5.25,5.25,0,0,1,2.46.58,5.08,5.08,0,0,1,1.83,1.65v-6.31Zm-3.94,13.44a4.23,4.23,0,0,0,1-2.88,4.16,4.16,0,0,0-1-2.87,3.18,3.18,0,0,0-2.52-1.12,3.27,3.27,0,0,0-2.56,1.12,4.07,4.07,0,0,0-1,2.87,4.15,4.15,0,0,0,1,2.88,3.27,3.27,0,0,0,2.56,1.12A3.18,3.18,0,0,0,502.75,525.85Z"/><path class="cls-2" d="M520.61,528.31a8.83,8.83,0,0,1-3.17-3.14,8.27,8.27,0,0,1,0-8.48,8.94,8.94,0,0,1,3.17-3.12,8.55,8.55,0,0,1,7.69-.46,9.23,9.23,0,0,1,2.85,2l-2.14,2a5.53,5.53,0,0,0-1.86-1.41,5.13,5.13,0,0,0-2.24-.51,5.27,5.27,0,0,0-2.78.79,6,6,0,0,0-2,2.13,5.77,5.77,0,0,0,0,5.76,6,6,0,0,0,2,2.12,5.18,5.18,0,0,0,2.78.79,5.12,5.12,0,0,0,2.24-.5,5.88,5.88,0,0,0,1.88-1.42l2.12,2a8.57,8.57,0,0,1-10.54,1.53Z"/><path class="cls-2" d="M533.79,512.41h2.92v16.77h-2.92Z"/><path class="cls-2" d="M542.74,528.59a6.53,6.53,0,0,1-2.44-2.37,6.22,6.22,0,0,1-.9-3.25,6.14,6.14,0,0,1,.9-3.24,6.71,6.71,0,0,1,11.51,0,6.22,6.22,0,0,1,.89,3.24,6.31,6.31,0,0,1-.89,3.25,6.71,6.71,0,0,1-9.07,2.37Zm5.21-2.16a4.06,4.06,0,0,0,1.89-3.46,4.15,4.15,0,0,0-.5-2,4,4,0,0,0-1.38-1.45,3.54,3.54,0,0,0-1.89-.54,3.47,3.47,0,0,0-1.89.54A4,4,0,0,0,542.8,521a4.11,4.11,0,0,0,0,4,3.88,3.88,0,0,0,1.38,1.46,3.56,3.56,0,0,0,3.77,0Z"/><path class="cls-2" d="M566.55,516.77v12.41h-2.93V527.5a4.23,4.23,0,0,1-1.61,1.43,4.8,4.8,0,0,1-2.26.54,4.58,4.58,0,0,1-2.38-.61,4.35,4.35,0,0,1-1.64-1.71,5.13,5.13,0,0,1-.58-2.48v-7.9H558v7.32a3,3,0,0,0,.72,2.08,2.39,2.39,0,0,0,1.87.8,3.11,3.11,0,0,0,2.15-.78,2.43,2.43,0,0,0,.88-1.9v-7.52Z"/><path class="cls-2" d="M582.29,512.41v16.77h-2.93v-2a4.91,4.91,0,0,1-1.84,1.67,5.2,5.2,0,0,1-2.46.59,5.38,5.38,0,0,1-2.93-.83,5.47,5.47,0,0,1-2-2.31,7.54,7.54,0,0,1-.74-3.36,7.4,7.4,0,0,1,.74-3.35,5.53,5.53,0,0,1,2-2.31,5.37,5.37,0,0,1,2.93-.82,5.19,5.19,0,0,1,2.46.58,5,5,0,0,1,1.84,1.65v-6.31Zm-3.94,13.44a4.23,4.23,0,0,0,1-2.88,4.16,4.16,0,0,0-1-2.87,3.18,3.18,0,0,0-2.52-1.12,3.31,3.31,0,0,0-2.57,1.12,4.11,4.11,0,0,0-1,2.87,4.19,4.19,0,0,0,1,2.88,3.31,3.31,0,0,0,2.57,1.12A3.18,3.18,0,0,0,578.35,525.85Z"/><path class="cls-2" d="M692.58,512.69h7.18a7.06,7.06,0,0,1,3.14.7,5.32,5.32,0,0,1,2.22,1.94,5.37,5.37,0,0,1,0,5.67,5.32,5.32,0,0,1-2.22,1.94,6.93,6.93,0,0,1-3.14.7h-4.2v5.54h-3Zm6.82,8.19a4.07,4.07,0,0,0,2.51-.73,2.37,2.37,0,0,0,.94-2,2.35,2.35,0,0,0-.94-2,4,4,0,0,0-2.51-.74h-3.84v5.43Z"/><path class="cls-2" d="M719.87,516.77v12.41h-2.93V527.5a4.16,4.16,0,0,1-1.61,1.43,4.76,4.76,0,0,1-2.25.54,4.62,4.62,0,0,1-2.39-.61,4.26,4.26,0,0,1-1.63-1.71,5.14,5.14,0,0,1-.59-2.48v-7.9h2.86v7.32a3,3,0,0,0,.72,2.08,2.37,2.37,0,0,0,1.87.8,3.13,3.13,0,0,0,2.15-.78,2.45,2.45,0,0,0,.87-1.9v-7.52Z"/><path class="cls-2" d="M733.77,517.31a5.81,5.81,0,0,1,2,2.31,7.4,7.4,0,0,1,.74,3.35,7.54,7.54,0,0,1-.74,3.36,5.74,5.74,0,0,1-2,2.31,5.36,5.36,0,0,1-2.93.83,5.26,5.26,0,0,1-2.55-.62,5.05,5.05,0,0,1-1.84-1.78v2.11h-2.93V512.41h2.93v6.45a5.07,5.07,0,0,1,4.39-2.37A5.35,5.35,0,0,1,733.77,517.31Zm-1.13,8.54a4.2,4.2,0,0,0,1-2.88,4.12,4.12,0,0,0-1-2.87,3.32,3.32,0,0,0-2.59-1.12,3.18,3.18,0,0,0-2.52,1.12,4.16,4.16,0,0,0-1,2.87A4.62,4.62,0,0,0,727,525a3.46,3.46,0,0,0,1.24,1.43,3.53,3.53,0,0,0,4.41-.61Z"/><path class="cls-2" d="M739.33,512.41h2.93v16.77h-2.93Z"/><path class="cls-2" d="M746.19,514.4a1.64,1.64,0,0,1-.5-1.18,1.67,1.67,0,0,1,3.34,0,1.63,1.63,0,0,1-.49,1.18,1.63,1.63,0,0,1-2.35,0Zm-.28,2.37h2.93v12.41h-2.93Z"/><path class="cls-2" d="M754.87,528.58a6.87,6.87,0,0,1-2.43-2.39,6.1,6.1,0,0,1,0-6.44,7,7,0,0,1,2.44-2.38,6.55,6.55,0,0,1,3.32-.88,6.23,6.23,0,0,1,2.59.54,6.91,6.91,0,0,1,2.11,1.47l-2,1.73a3.82,3.82,0,0,0-2.76-1.25,3.47,3.47,0,0,0-1.87.54,3.88,3.88,0,0,0-1.37,1.47,4.1,4.1,0,0,0-.5,2,4.18,4.18,0,0,0,.5,2,3.85,3.85,0,0,0,1.37,1.46,3.47,3.47,0,0,0,1.87.54,3.68,3.68,0,0,0,1.55-.34,4.08,4.08,0,0,0,1.29-1l2,1.7a6.73,6.73,0,0,1-2.16,1.54,6.27,6.27,0,0,1-2.64.55A6.48,6.48,0,0,1,754.87,528.58Z"/><path class="cls-2" d="M775.57,528.31a8.83,8.83,0,0,1-3.17-3.14,8.27,8.27,0,0,1,0-8.48,8.94,8.94,0,0,1,3.17-3.12,8.55,8.55,0,0,1,7.69-.46,9.23,9.23,0,0,1,2.85,2l-2.14,2a5.53,5.53,0,0,0-1.86-1.41,5.13,5.13,0,0,0-2.24-.51,5.24,5.24,0,0,0-2.77.79,5.9,5.9,0,0,0-2.05,2.13,5.77,5.77,0,0,0,0,5.76,5.87,5.87,0,0,0,2.05,2.12,5.26,5.26,0,0,0,5,.29,6,6,0,0,0,1.89-1.42l2.11,2a8.57,8.57,0,0,1-10.54,1.53Z"/><path class="cls-2" d="M788.75,512.41h2.93v16.77h-2.93Z"/><path class="cls-2" d="M797.7,528.59a6.61,6.61,0,0,1-2.44-2.37,6.22,6.22,0,0,1-.9-3.25,6.14,6.14,0,0,1,.9-3.24,6.71,6.71,0,0,1,5.78-3.24,6.62,6.62,0,0,1,5.73,3.24,6.22,6.22,0,0,1,.89,3.24,6.31,6.31,0,0,1-.89,3.25,6.65,6.65,0,0,1-5.73,3.25A6.57,6.57,0,0,1,797.7,528.59Zm5.21-2.16a4.08,4.08,0,0,0,0-6.91,3.58,3.58,0,0,0-3.78,0,4,4,0,0,0-1.38,1.45,4.11,4.11,0,0,0,0,4,3.88,3.88,0,0,0,1.38,1.46,3.53,3.53,0,0,0,1.9.54A3.47,3.47,0,0,0,802.91,526.43Z"/><path class="cls-2" d="M821.51,516.77v12.41h-2.93V527.5a4.16,4.16,0,0,1-1.61,1.43,4.79,4.79,0,0,1-2.25.54,4.59,4.59,0,0,1-2.39-.61,4.26,4.26,0,0,1-1.63-1.71,5,5,0,0,1-.59-2.48v-7.9H813v7.32a3,3,0,0,0,.72,2.08,2.39,2.39,0,0,0,1.88.8,3.1,3.1,0,0,0,2.14-.78,2.43,2.43,0,0,0,.88-1.9v-7.52Z"/><path class="cls-2" d="M837.25,512.41v16.77h-2.93v-2a5,5,0,0,1-1.83,1.67,5.26,5.26,0,0,1-2.46.59,5.39,5.39,0,0,1-2.94-.83,5.6,5.6,0,0,1-2-2.31,7.53,7.53,0,0,1-.73-3.36,7.4,7.4,0,0,1,.73-3.35,5.66,5.66,0,0,1,2-2.31,5.38,5.38,0,0,1,2.94-.82,5.25,5.25,0,0,1,2.46.58,5.08,5.08,0,0,1,1.83,1.65v-6.31Zm-3.93,13.44a4.28,4.28,0,0,0,1-2.88,4.2,4.2,0,0,0-1-2.87A3.2,3.2,0,0,0,830.8,519a3.29,3.29,0,0,0-2.57,1.12,4.12,4.12,0,0,0-1,2.87,4.2,4.2,0,0,0,1,2.88A3.29,3.29,0,0,0,830.8,527,3.2,3.2,0,0,0,833.32,525.85Z"/><polyline class="cls-7" points="112.2 627.77 112.2 672.66 326.02 672.66"/><polyline class="cls-8" points="896.3 627.77 896.3 672.66 682.49 672.66"/></g></g></svg>