<svg xmlns="http://www.w3.org/2000/svg" viewBox="0 0 141.67 141.67"><defs><style>.cls-1,.cls-9{fill:#fff;}.cls-2{opacity:0.2;}.cls-3{fill:#273341;}.cls-4{fill:#e6e7e8;}.cls-5{fill:#f04f23;}.cls-10,.cls-11,.cls-13,.cls-14,.cls-6,.cls-7,.cls-8{fill:none;}.cls-10,.cls-11,.cls-13,.cls-6,.cls-7,.cls-8,.cls-9{stroke:#4a5666;}.cls-10,.cls-11,.cls-14,.cls-6,.cls-7,.cls-8,.cls-9{stroke-linecap:round;}.cls-11,.cls-13,.cls-14,.cls-6{stroke-linejoin:round;}.cls-10,.cls-11,.cls-13,.cls-14,.cls-6,.cls-7,.cls-9{stroke-width:2.34px;}.cls-10,.cls-7,.cls-8,.cls-9{stroke-miterlimit:10;}.cls-11,.cls-12,.cls-13,.cls-14,.cls-7,.cls-8{opacity:0.15;isolation:isolate;}.cls-8{stroke-width:1.17px;}.cls-12{fill:#4a5666;}.cls-14{stroke:#fff;}</style></defs><title>Asset 33</title><g id="Layer_2" data-name="Layer 2"><g id="Layer_1-2" data-name="Layer 1"><circle class="cls-1" cx="70.83" cy="70.83" r="70.83"/><g class="cls-2"><path class="cls-3" d="M70.83,4A66.84,66.84,0,1,1,4,70.83,66.91,66.91,0,0,1,70.83,4m0-4a70.84,70.84,0,1,0,70.84,70.83A70.83,70.83,0,0,0,70.83,0Z"/></g><g id="Layer_1-2-2" data-name="Layer 1-2"><path class="cls-1" d="M66.44,82.47H33.54L31.2,80a42.08,42.08,0,0,1,84,0l-2.32,2.48H80.45"/><path class="cls-1" d="M76.69,87.22a5.85,5.85,0,1,1-8.49-8l.22-.23c2.29-2.28,32.24-24,32.24-24S79,84.93,76.69,87.22Z"/><path class="cls-4" d="M100.66,55S79,85,76.66,87.22a5.84,5.84,0,0,1-8.27,0"/><path class="cls-5" d="M72.85,49A33.48,33.48,0,0,0,39.37,82.47h.4a30.4,30.4,0,0,1,47.66-21.9l6.08-4.43A33.34,33.34,0,0,0,72.85,49Z"/><path class="cls-6" d="M66.44,82.47H33.54L31.2,80a42.08,42.08,0,0,1,84,0l-2.32,2.48H80.45"/><line class="cls-6" x1="68.42" y1="87.15" x2="33.46" y2="87.15"/><line class="cls-7" x1="111.68" y1="88.32" x2="34.63" y2="88.32"/><line class="cls-6" x1="112.95" y1="87.15" x2="76.69" y2="87.15"/><path class="cls-8" d="M37,82.47a36.24,36.24,0,0,1,72.48,0"/><circle class="cls-9" cx="72.85" cy="82.47" r="2.34"/><path class="cls-7" d="M104.2,52.15C103.29,53.38,79.84,85.72,77.51,88a7,7,0,0,1-9.9,0h0"/><path class="cls-10" d="M76.69,87.22a5.85,5.85,0,1,1-8.49-8l.22-.23c2.29-2.28,32.24-24,32.24-24S79,84.93,76.69,87.22Z"/><circle class="cls-9" cx="72.85" cy="82.47" r="2.34"/><path class="cls-11" d="M75.29,80a3.54,3.54,0,0,1-5,5"/><circle class="cls-9" cx="72.85" cy="82.47" r="2.34"/><circle class="cls-12" cx="72.85" cy="82.47" r="2.34"/><path class="cls-11" d="M32.53,81.41a40.33,40.33,0,0,1,80.65,1.06"/><path class="cls-13" d="M72.85,42.14a40.33,40.33,0,0,1,40.33,40.33"/><path class="cls-14" d="M26.46,76.58A46.78,46.78,0,0,1,72.85,35.71"/><path class="cls-7" d="M72.85,43.15h0"/><path class="cls-7" d="M83.14,44.5h0"/><path class="cls-7" d="M92.72,48.47h0"/><path class="cls-7" d="M101,54.79h0"/><path class="cls-7" d="M107.29,63h0"/><path class="cls-7" d="M111.29,72.61h0"/><path class="cls-7" d="M34.46,72.61h0"/><path class="cls-7" d="M38.43,63h0"/><path class="cls-7" d="M44.75,54.79h0"/><path class="cls-7" d="M53,48.47h0"/><path class="cls-7" d="M62.56,44.5h0"/><path class="cls-14" d="M36.48,46.1a51.45,51.45,0,0,1,72.74,0"/><line class="cls-14" x1="75.85" y1="35.86" x2="75.85" y2="35.86"/></g></g></g></svg>