<svg width="142" height="142" viewBox="0 0 142 142" fill="none" xmlns="http://www.w3.org/2000/svg">
<rect width="142" height="142" fill="white"/>
<path d="M71.0312 98.4601C70.7148 98.4572 70.4121 98.3304 70.1884 98.1069C69.9646 97.8834 69.8377 97.581 69.8348 97.265C69.8556 96.9548 69.9883 96.6627 70.2083 96.4429C70.4283 96.2231 70.7207 96.0905 71.0312 96.0698C75.9729 96.072 80.8042 94.61 84.914 91.8688C89.0238 89.1276 92.2274 85.2303 94.1195 80.67C96.0116 76.1096 96.5073 71.0912 95.5437 66.2494C94.5802 61.4076 92.2008 56.9601 88.7065 53.4695C85.2121 49.9788 80.7599 47.6019 75.9131 46.6394C71.0662 45.6768 66.0425 46.172 61.4774 48.0621C56.9122 49.9522 53.0109 53.1524 50.2668 57.2579C47.5227 61.3634 46.0592 66.1897 46.0614 71.1262C46.0585 71.4423 45.9315 71.7446 45.7077 71.9681C45.484 72.1916 45.1814 72.3185 44.8649 72.3213C44.5525 72.3032 44.2574 72.1717 44.0351 71.9517C43.8128 71.7316 43.6785 71.4381 43.6574 71.1262C43.6355 65.6892 45.2307 60.3683 48.2406 55.8384C51.2505 51.3085 55.5394 47.7737 60.5634 45.6824C65.5874 43.5912 71.12 43.0377 76.4593 44.0922C81.7986 45.1467 86.7041 47.7617 90.5534 51.6055C94.4028 55.4492 97.0225 60.3485 98.0803 65.6818C99.1381 71.0151 98.5863 76.5421 96.4948 81.5616C94.4034 86.5812 90.8666 90.867 86.3332 93.8756C81.7997 96.8842 76.4738 98.4798 71.0312 98.4601V98.4601Z" fill="#0091DA"/>
<path d="M78.7194 118.424H62.8446L62.5455 117.716C61.8812 116.143 61.3765 114.508 61.0389 112.835C60.7385 111.453 60.3688 110.086 59.9311 108.741C54.7355 106.45 52.7414 105.543 51.9438 105.144C50.6624 105.642 49.4248 106.245 48.2437 106.948C46.2497 108.143 44.8539 108.94 44.0452 109.338L43.447 109.637L42.8155 109.305C41.5194 108.409 38.0187 105.211 32.3246 99.3454L31.8261 98.8474L32.0256 98.1502C32.225 97.4531 32.8232 95.937 36.3238 89.9722C36.1244 89.3746 35.5262 88.1684 34.5292 85.9772C33.8802 84.5338 33.3791 83.0285 33.0337 81.4843C31.8262 81.2851 30.53 80.9863 29.0345 80.5879C26.8189 79.9903 25.3344 79.5919 24.5368 79.3927L23.5398 79.1935V62.439L24.5368 62.2398C25.2347 62.0406 26.6306 61.6422 28.8351 61.0447C30.176 60.6159 31.5457 60.2831 32.9339 60.0487C33.3327 59.2519 33.931 57.8354 34.7286 55.9541C35.2968 54.5123 35.963 53.111 36.7226 51.76C35.4631 49.2386 33.9801 46.835 32.2914 44.5779L31.5935 43.8807L32.1917 43.0839C33.1001 41.7892 36.49 38.1926 42.6826 32.3053L43.2808 31.7077L44.0784 32.1061C46.8839 33.4421 49.5902 34.9769 52.1765 36.6986C54.8255 35.4388 57.5613 34.37 60.3631 33.5004C60.5625 32.8033 60.8616 31.6081 61.4709 29.3063C61.9694 27.3143 62.479 25.7208 62.8778 24.426L63.1769 23.5186H79.1514L79.4505 24.3264C80.4662 27.232 81.3351 30.1868 82.0539 33.1795C82.6521 33.4783 83.8485 33.8767 86.053 34.6735C87.4804 35.2001 88.8502 35.8712 90.1408 36.6765C91.3346 36.1959 92.4745 35.5913 93.5417 34.8727C94.9086 33.9629 96.3459 33.1636 97.84 32.4823L98.4382 32.2831L98.9367 32.5819C101.067 33.9614 102.985 35.6426 104.631 37.5729C107.024 39.9632 108.719 41.6674 109.727 42.4642L110.524 43.1614L110.225 44.0578C108.22 47.6543 106.725 50.3435 105.628 52.0366C107.422 57.2268 108.22 59.5286 108.619 60.4249C110.075 60.646 111.512 60.9789 112.917 61.4209C115.133 62.0185 116.617 62.4169 117.415 62.6161L118.412 62.8153V79.4813L117.415 79.6804C116.916 79.78 115.72 80.0788 113.117 80.8756C111.621 81.274 110.225 81.6724 109.018 81.8716C108.719 82.5799 108.12 83.775 107.323 85.9662C106.817 87.4342 106.148 88.841 105.329 90.1603C105.728 90.8575 106.437 92.0527 107.323 93.5466C108.029 94.8697 108.832 96.1384 109.727 97.3424L110.325 98.0396L109.826 98.8364C108.918 100.131 105.528 103.728 99.4352 109.615L98.837 110.213L98.0394 109.814C95.2551 108.499 92.5805 106.963 90.0411 105.222C87.5199 106.684 84.7941 107.762 81.9541 108.42C81.3525 109.691 80.9169 111.033 80.658 112.415C80.3291 114.198 79.7899 115.937 79.0517 117.594L78.7194 118.424ZM64.5395 115.945H77.1574C77.6048 114.636 77.9747 113.302 78.2652 111.95C78.6552 110.159 79.2576 108.42 80.0598 106.771L80.37 106.273L80.8685 106.173C83.8766 105.553 86.75 104.403 89.3543 102.776L90.0522 102.378L90.7501 102.776C93.1256 104.452 95.6338 105.933 98.2499 107.203C101.361 104.296 104.319 101.23 107.112 98.0175C106.514 97.1211 105.816 96.0255 105.118 94.6975C103.512 91.8977 102.903 90.9018 102.714 90.603L102.216 89.8062L102.914 89.109C103.883 87.899 104.599 86.5065 105.019 85.0145C105.6 83.2854 106.341 81.6145 107.234 80.0235L107.533 79.5255L108.131 79.4259C109.625 79.1738 111.105 78.8414 112.563 78.43C114.058 78.0316 115.255 77.6332 116.063 77.434V64.94C115.155 64.7298 113.959 64.3314 112.363 63.933C111 63.4841 109.592 63.1836 108.165 63.0366C106.968 63.3354 106.968 63.3354 103.169 52.4572L102.969 51.8596L103.368 51.3616C104.376 49.8676 105.872 47.3777 107.799 43.9803C106.691 42.9843 105.207 41.59 103.202 39.4874C101.81 37.9463 100.275 36.5419 98.6155 35.2932C97.8068 35.7026 96.71 36.3998 95.2145 37.2962C93.7458 38.2857 92.1413 39.0573 90.451 39.5869L89.8528 39.7861L89.3543 39.3878C88.1197 38.5424 86.7739 37.872 85.3551 37.3958C82.7628 36.3998 81.2673 35.8022 80.6691 35.603L80.1706 35.3928L79.9601 34.4964C78.8523 30.4129 78.0658 27.6131 77.5672 26.1192H65.038C64.7389 27.2258 64.3401 28.5095 63.9302 30.0145C63.4317 31.9069 62.8224 34.2972 62.5344 34.9944L62.3239 35.8022H61.4266C61.1275 35.8022 59.7316 36.101 52.5642 39.1886L51.8663 39.4874L51.3678 39.1886C48.9992 37.5014 46.4901 36.0204 43.868 34.762C38.473 40.0517 35.9804 42.6523 34.8837 43.8475C36.5219 46.2423 38.0021 48.7412 39.3149 51.3284L39.7137 52.0256L39.3149 52.6231C38.4492 53.9853 37.7077 55.4223 37.0993 56.9169C36.4651 58.5603 35.725 60.1609 34.8837 61.7087L34.5846 62.2066L33.8867 62.4058C32.3925 62.6566 30.9132 62.9891 29.4554 63.4018C27.9599 63.8002 26.7524 64.1986 25.9548 64.3978V77.0799C26.8521 77.2791 28.0596 77.6774 29.6548 78.0758C31.1685 78.4892 32.7031 78.8217 34.2522 79.0718L35.1495 79.1714L35.2493 80.0678C35.528 81.7254 36.0311 83.3374 36.7448 84.8595C37.4906 86.3879 38.1562 87.9541 38.7388 89.5517L38.9493 90.0497L38.6391 90.5476C36.0469 95.0406 34.9501 97.1321 34.5513 98.0285C39.8466 103.418 42.3059 105.709 43.5356 106.716C44.6767 106.141 45.7861 105.506 46.859 104.812C48.339 103.885 49.9136 103.117 51.5561 102.521L52.1543 102.322L52.6528 102.621C52.8522 102.721 54.248 103.418 61.338 106.516L61.8365 106.716L62.0359 107.214C62.597 108.808 63.0341 110.443 63.3431 112.105C63.6687 113.407 64.0682 114.689 64.5395 115.945V115.945Z" fill="#1D428A"/>
</svg>
