<svg width="99" height="99" viewBox="0 0 99 99" fill="none" xmlns="http://www.w3.org/2000/svg">
<path d="M48.6981 69.9704C48.4536 69.9682 48.2197 69.8701 48.0468 69.6972C47.8739 69.5243 47.7758 69.2904 47.7736 69.0459C47.7896 68.806 47.8922 68.5801 48.0622 68.41C48.2322 68.24 48.4582 68.1375 48.6981 68.1214C52.5167 68.1231 56.25 66.9922 59.4257 64.8718C62.6015 62.7513 65.077 59.7366 66.5391 56.209C68.0012 52.6814 68.3842 48.7994 67.6396 45.0541C66.8951 41.3088 65.0564 37.8685 62.3563 35.1683C59.6561 32.4682 56.2158 30.6295 52.4705 29.8849C48.7252 29.1404 44.8432 29.5234 41.3156 30.9855C37.788 32.4476 34.7733 34.9231 32.6528 38.0988C30.5324 41.2746 29.4015 45.0079 29.4032 48.8265C29.4009 49.071 29.3028 49.3049 29.1299 49.4778C28.957 49.6507 28.7232 49.7488 28.4787 49.751C28.2372 49.737 28.0092 49.6353 27.8374 49.4651C27.6656 49.2949 27.5619 49.0678 27.5456 48.8265C27.5287 44.6208 28.7613 40.5049 31.0871 37.0008C33.4129 33.4967 36.7272 30.7624 40.6093 29.1447C44.4915 27.527 48.7667 27.0989 52.8925 27.9146C57.0184 28.7303 60.809 30.7531 63.7835 33.7264C66.758 36.6997 68.7823 40.4895 69.5997 44.615C70.4171 48.7406 69.9907 53.0159 68.3746 56.8987C66.7585 60.7816 64.0255 64.0969 60.5224 66.4241C57.0192 68.7514 52.9038 69.9857 48.6981 69.9704V69.9704Z" fill="#0091DA"/>
<path d="M54.6389 85.4132H42.3719L42.1408 84.8653C41.6276 83.649 41.2375 82.3843 40.9766 81.0902C40.7445 80.0208 40.4588 78.9637 40.1206 77.9229C36.1058 76.1509 34.5649 75.449 33.9486 75.1408C32.9585 75.5257 32.0021 75.9924 31.0895 76.5361C29.5486 77.4606 28.47 78.077 27.8451 78.3852L27.3829 78.6163L26.8949 78.3595C25.8934 77.6661 23.1883 75.1922 18.7883 70.6552L18.4031 70.27L18.5572 69.7307C18.7113 69.1914 19.1735 68.0186 21.8786 63.4046C21.7245 62.9424 21.2622 62.0093 20.4918 60.3144C19.9903 59.1978 19.6032 58.0334 19.3362 56.8389C18.4031 56.6848 17.4015 56.4537 16.2459 56.1455C14.5338 55.6832 13.3868 55.3751 12.7704 55.221L12 55.0669V42.1066L12.7704 41.9525C13.3097 41.7984 14.3883 41.4902 16.0918 41.028C17.128 40.6963 18.1864 40.4389 19.2591 40.2576C19.5673 39.6412 20.0296 38.5455 20.6459 37.0902C21.085 35.9749 21.5998 34.891 22.1868 33.8459C21.2135 31.8955 20.0675 30.0362 18.7626 28.2903L18.2233 27.751L18.6856 27.1346C19.3875 26.1331 22.007 23.351 26.7922 18.7969L27.2545 18.3346L27.8708 18.6428C30.0387 19.6763 32.1299 20.8635 34.1284 22.1953C36.1754 21.2208 38.2894 20.394 40.4544 19.7214C40.6085 19.1821 40.8397 18.2576 41.3105 16.477C41.6957 14.9362 42.0894 13.7035 42.3976 12.702L42.6288 12H54.9727L55.2039 12.6249C55.9887 14.8725 56.6601 17.1581 57.2155 19.4732C57.6778 19.7043 58.6023 20.0124 60.3058 20.6288C61.4088 21.0361 62.4672 21.5553 63.4645 22.1782C64.387 21.8065 65.2679 21.3388 66.0926 20.7829C67.1487 20.0791 68.2594 19.4608 69.414 18.9339L69.8762 18.7798L70.2614 19.0109C71.9073 20.0779 73.3894 21.3784 74.6614 22.8716C76.5104 24.7206 77.8202 26.0389 78.5992 26.6552L79.2155 27.1945L78.9844 27.8879C77.435 30.67 76.2793 32.7502 75.4319 34.0599C76.8186 38.0747 77.4349 39.8552 77.7431 40.5486C78.8684 40.7196 79.9789 40.9772 81.0645 41.319C82.7766 41.7813 83.9237 42.0895 84.54 42.2436L85.3104 42.3976V55.2895L84.54 55.4435C84.1548 55.5206 83.2303 55.7517 81.2186 56.3681C80.063 56.6762 78.9844 56.9844 78.0513 57.1385C77.8202 57.6863 77.3579 58.6109 76.7416 60.3058C76.3506 61.4414 75.8338 62.5296 75.2007 63.5501C75.5089 64.0894 76.0568 65.014 76.7416 66.1696C77.2871 67.193 77.908 68.1745 78.5992 69.1058L79.0614 69.6451L78.6762 70.2614C77.9742 71.263 75.3548 74.0451 70.6466 78.5992L70.1844 79.0614L69.568 78.7533C67.4165 77.7356 65.3497 76.5477 63.3875 75.2007C61.4393 76.3319 59.333 77.1657 57.1385 77.6746C56.6736 78.6576 56.337 79.6962 56.1369 80.7649C55.8828 82.1446 55.4661 83.4894 54.8957 84.7711L54.6389 85.4132ZM43.6817 83.4957H53.4319C53.7776 82.4833 54.0634 81.4514 54.2879 80.4054C54.5893 79.0196 55.0548 77.6747 55.6747 76.3992L55.9143 76.0139L56.2996 75.9369C58.624 75.4572 60.8444 74.5673 62.8568 73.3089L63.3961 73.0007L63.9353 73.3089C65.771 74.6057 67.7092 75.7508 69.7307 76.733C72.1347 74.4846 74.4205 72.113 76.5789 69.628C76.1167 68.9346 75.5774 68.0871 75.0381 67.0599C73.7968 64.8941 73.326 64.1237 73.1805 63.8926L72.7953 63.2762L73.3346 62.7369C74.0837 61.8009 74.6368 60.7238 74.961 59.5696C75.4101 58.2321 75.9833 56.9396 76.6731 55.7089L76.9042 55.3237L77.3665 55.2467C78.5209 55.0517 79.6639 54.7945 80.7906 54.4762C81.9462 54.1681 82.8707 53.8599 83.4956 53.7058V44.0412C82.7937 43.8786 81.8692 43.5704 80.6365 43.2622C79.5832 42.915 78.4954 42.6825 77.3921 42.5688C76.4676 42.8 76.4676 42.8 73.5315 34.3852L73.3774 33.9229L73.6855 33.5377C74.4645 32.3821 75.6202 30.456 77.1097 27.828C76.2536 27.0576 75.1066 25.979 73.5571 24.3525C72.482 23.1605 71.2953 22.0741 70.0132 21.1082C69.3883 21.4249 68.5408 21.9642 67.3851 22.6576C66.2502 23.423 65.0104 24.0198 63.7042 24.4296L63.242 24.5836L62.8568 24.2755C61.9028 23.6215 60.8628 23.103 59.7665 22.7346C57.7634 21.9642 56.6077 21.5019 56.1455 21.3478L55.7603 21.1852L55.5976 20.4918C54.7416 17.3331 54.1338 15.1673 53.7486 14.0117H44.0669C43.8358 14.8677 43.5276 15.8607 43.2109 17.0249C42.8256 18.4887 42.3548 20.3377 42.1323 20.877L41.9696 21.5019H41.2762C41.0451 21.5019 39.9665 21.7331 34.428 24.1214L33.8887 24.3525L33.5035 24.1214C31.6733 22.8163 29.7344 21.6707 27.7082 20.6973C23.5393 24.7891 21.6132 26.8008 20.7657 27.7253C22.0316 29.5778 23.1754 31.5108 24.1899 33.512L24.498 34.0514L24.1899 34.5136C23.5209 35.5673 22.9479 36.6789 22.4778 37.835C21.9878 39.1062 21.4159 40.3443 20.7657 41.5416L20.5346 41.9268L19.9953 42.0809C18.8407 42.2749 17.6976 42.5321 16.5712 42.8513C15.4156 43.1595 14.4825 43.4677 13.8661 43.6218V53.4319C14.5595 53.586 15.4926 53.8941 16.7253 54.2023C17.8949 54.5221 19.0808 54.7793 20.2778 54.9727L20.9712 55.0498L21.0482 55.7432C21.2636 57.0254 21.6524 58.2723 22.2039 59.4498C22.7802 60.632 23.2945 61.8435 23.7447 63.0793L23.9074 63.4646L23.6677 63.8498C21.6646 67.3252 20.8171 68.9431 20.5089 69.6365C24.6008 73.8054 26.5011 75.5774 27.4513 76.3564C28.3331 75.9119 29.1904 75.4204 30.0194 74.884C31.1631 74.1664 32.3798 73.5724 33.649 73.112L34.1113 72.9579L34.4965 73.1891C34.6506 73.2661 35.7292 73.8054 41.2078 76.2023L41.593 76.3564L41.7471 76.7416C42.1807 77.9749 42.5184 79.2399 42.7572 80.5252C43.0088 81.5321 43.3175 82.5238 43.6817 83.4957V83.4957Z" fill="#1D428A"/>
</svg>
