<svg width="142" height="142" viewBox="0 0 142 142" fill="none" xmlns="http://www.w3.org/2000/svg">
<path fill-rule="evenodd" clip-rule="evenodd" d="M70.7917 45.0984C42.0534 45.0984 18.5294 68.5023 17.673 97.8709H123.91C123.032 68.5131 99.53 45.1526 70.7917 45.0984ZM14.616 100.988V99.4188C14.8545 67.7013 40.2105 42.1973 71.247 42.4463C101.676 42.6952 126.382 67.6688 126.967 98.7368V99.3755C127.011 99.8978 127.011 100.423 126.967 100.945C126.967 101.021 58.3793 100.675 16.1553 100.945L14.616 100.988Z" fill="#1D428A"/>
<path fill-rule="evenodd" clip-rule="evenodd" d="M59.355 57.071C59.0091 57.0905 58.6656 57.0019 58.3723 56.8176C58.079 56.6333 57.8503 56.3625 57.7181 56.0426L56.3088 51.7126C56.2242 51.5363 56.1802 51.3434 56.1799 51.1479C56.1797 50.9524 56.2233 50.7594 56.3075 50.5829C56.3917 50.4064 56.5144 50.251 56.6665 50.1281C56.8187 50.0051 56.9965 49.9177 57.1869 49.8723C57.5843 49.714 58.0245 49.6988 58.432 49.8291C58.8394 49.9595 59.1888 50.2273 59.4201 50.5868C59.4925 50.7091 59.5369 50.8459 59.5502 50.9873L60.992 55.3174C61.0395 55.5089 61.0455 55.7083 61.0097 55.9023C60.9738 56.0963 60.8968 56.2805 60.7839 56.4424C60.671 56.6043 60.5248 56.7403 60.355 56.8413C60.1853 56.9422 59.9959 57.0058 59.7995 57.0277C59.6543 57.0639 59.5045 57.0785 59.355 57.071Z" fill="#0091DA"/>
<path fill-rule="evenodd" clip-rule="evenodd" d="M40.3407 69.2818C40.1743 69.2732 40.0127 69.2231 39.8707 69.1361C39.7287 69.0491 39.6107 68.928 39.5276 68.7838L36.9367 64.8976C36.7191 64.5325 36.6042 64.1155 36.6042 63.6906C36.6042 63.2657 36.7191 62.8487 36.9367 62.4836V62.4836C37.0127 62.3333 37.1289 62.207 37.2724 62.1187C37.416 62.0305 37.5812 61.9838 37.7498 61.9838C37.9184 61.9838 38.0836 62.0305 38.2272 62.1187C38.3707 62.207 38.4869 62.3333 38.5628 62.4836L41.1537 66.3698C41.3721 66.7386 41.4874 67.1592 41.4874 67.5876C41.4874 68.0161 41.3721 68.4367 41.1537 68.8055C41.0695 68.947 40.9508 69.0649 40.8086 69.1482C40.6664 69.2315 40.5055 69.2774 40.3407 69.2818V69.2818Z" fill="#0091DA"/>
<path fill-rule="evenodd" clip-rule="evenodd" d="M113.775 88.7994C113.353 88.753 112.967 88.5431 112.7 88.215C112.432 87.887 112.304 87.4671 112.344 87.0457C112.33 86.6915 112.427 86.3419 112.621 86.0452C112.816 85.7485 113.097 85.5194 113.428 85.3895L117.926 83.9606C118.128 83.9253 118.335 83.9321 118.534 83.9806C118.733 84.029 118.92 84.1181 119.083 84.2421C119.246 84.3662 119.381 84.5225 119.481 84.7013C119.58 84.8801 119.642 85.0776 119.661 85.2813C119.75 85.6776 119.702 86.0924 119.525 86.458C119.348 86.8237 119.052 87.1186 118.685 87.2947L114.176 88.7345C114.047 88.7812 113.911 88.8032 113.775 88.7994Z" fill="#0091DA"/>
<path fill-rule="evenodd" clip-rule="evenodd" d="M30.2047 83.9065H29.8361L25.4999 82.4234C25.1057 82.2514 24.7869 81.9434 24.6017 81.5557C24.4165 81.168 24.3775 80.7267 24.4917 80.3126C24.5128 80.115 24.5755 79.9242 24.6757 79.7527C24.776 79.5811 24.9114 79.4327 25.0732 79.3171C25.235 79.2016 25.4195 79.1215 25.6144 79.0823C25.8094 79.043 26.0105 79.0454 26.2045 79.0893L30.6274 80.4966C31.0287 80.6543 31.3593 80.9515 31.5585 81.3335C31.7577 81.7154 31.8121 82.1563 31.7115 82.575C31.6661 82.9278 31.4979 83.2535 31.2363 83.4949C30.9747 83.7364 30.6364 83.8782 30.2806 83.8957L30.2047 83.9065Z" fill="#0091DA"/>
<path fill-rule="evenodd" clip-rule="evenodd" d="M101.839 69.2818C101.615 69.2841 101.393 69.2412 101.186 69.1557C100.98 69.0701 100.792 68.9436 100.636 68.7838C100.317 68.4651 100.137 68.0329 100.137 67.5822C100.137 67.1315 100.317 66.6993 100.636 66.3806V66.3806L104.506 62.4836C104.666 62.3235 104.856 62.1965 105.065 62.1099C105.275 62.0233 105.499 61.9787 105.725 61.9787C105.952 61.9787 106.176 62.0233 106.386 62.1099C106.595 62.1965 106.785 62.3235 106.945 62.4836C107.264 62.8023 107.443 63.2345 107.443 63.6852C107.443 64.1358 107.264 64.568 106.945 64.8868V64.8868L103.053 68.773C102.895 68.934 102.706 69.062 102.497 69.1493C102.289 69.2367 102.065 69.2817 101.839 69.2818Z" fill="#0091DA"/>
<path fill-rule="evenodd" clip-rule="evenodd" d="M82.3151 57.071H81.8598C81.6563 57.0435 81.461 56.9736 81.2863 56.8658C81.1117 56.758 80.9618 56.6147 80.8462 56.4452C80.7307 56.2757 80.6522 56.0839 80.6157 55.8821C80.5793 55.6803 80.5858 55.4732 80.6348 55.2741L82.12 50.7708C82.3101 50.3819 82.6328 50.0734 83.0302 49.9008C83.4276 49.7282 83.8736 49.7028 84.2881 49.829C84.6667 49.9025 85.0009 50.1223 85.2182 50.4406C85.4354 50.7588 85.518 51.1498 85.448 51.5286L84.0388 55.9777C83.9056 56.3195 83.6666 56.61 83.3565 56.8067C83.0465 57.0034 82.6816 57.096 82.3151 57.071Z" fill="#0091DA"/>
<path fill-rule="evenodd" clip-rule="evenodd" d="M102.435 84.9782C102.175 84.2637 101.633 83.7982 101.178 83.8956L73.5127 92.2418C72.5651 91.7763 71.5226 91.5355 70.4665 91.5382C69.5497 91.5367 68.6416 91.7157 67.7941 92.0647C66.9465 92.4137 66.1761 92.926 65.5268 93.5724C64.8775 94.2187 64.3621 94.9864 64.0099 95.8317C63.6578 96.677 63.4758 97.5832 63.4744 98.4987H77.5671C77.5661 97.8869 77.4785 97.2783 77.3069 96.6909L102.186 86.4937C102.565 86.3962 102.717 85.6926 102.435 84.9782Z" fill="#0091DA"/>
</svg>
