<svg width="142" height="142" viewBox="0 0 142 142" fill="none" xmlns="http://www.w3.org/2000/svg">
<g clip-path="url(#clip0_64_1482)">
<path fill-rule="evenodd" clip-rule="evenodd" d="M101.395 33H40.5239C39.7979 32.9976 39.0785 33.1408 38.4072 33.4214C37.736 33.702 37.126 34.1145 36.6126 34.635C36.0992 35.1556 35.6924 35.7739 35.4157 36.4545C35.1389 37.1351 34.9977 37.8645 35 38.6006V100.399C34.9977 101.135 35.1389 101.865 35.4157 102.545C35.6924 103.226 36.0992 103.844 36.6126 104.365C37.126 104.886 37.736 105.298 38.4072 105.579C39.0785 105.859 39.7979 106.002 40.5239 106H101.476C102.202 106.002 102.922 105.859 103.593 105.579C104.264 105.298 104.874 104.886 105.387 104.365C105.901 103.844 106.308 103.226 106.584 102.545C106.861 101.865 107.002 101.135 107 100.399V38.6006C106.988 37.1047 106.391 35.6748 105.34 34.6247C104.289 33.5746 102.871 32.9903 101.395 33ZM101.395 34.9155C102.35 34.9155 103.265 35.3 103.94 35.9842C104.615 36.6685 104.994 37.5965 104.994 38.5642V100.363C104.994 101.331 104.615 102.259 103.94 102.943C103.265 103.627 102.35 104.011 101.395 104.011H40.5239C39.5695 104.011 38.6542 103.627 37.9793 102.943C37.3044 102.259 36.9253 101.331 36.9253 100.363V38.6006C36.9253 37.633 37.3044 36.7049 37.9793 36.0207C38.6542 35.3364 39.5695 34.952 40.5239 34.952H101.395" fill="#1D428A"/>
<path d="M53.3891 51.6354H50.3213V60.9576H53.3891V51.6354Z" fill="#0091DA"/>
<path d="M56.448 51.6354H54.9186V60.9576H56.448V51.6354Z" fill="#0091DA"/>
<path d="M61.0453 51.6354H57.9774V60.9576H61.0453V51.6354Z" fill="#0091DA"/>
<path fill-rule="evenodd" clip-rule="evenodd" d="M47.7213 63.7397H63.6363V48.8533H47.7213V63.7397ZM65.6335 65.6188H45.724V46.9743H65.6335V65.6188Z" fill="#0091DA"/>
<path d="M84.0227 51.6354H80.9548V60.9576H84.0227V51.6354Z" fill="#0091DA"/>
<path d="M87.0816 51.6354H85.5521V60.9576H87.0816V51.6354Z" fill="#0091DA"/>
<path d="M91.6877 51.6354H88.6199V60.9576H91.6877V51.6354Z" fill="#0091DA"/>
<path fill-rule="evenodd" clip-rule="evenodd" d="M78.3638 63.7397H94.2788V48.8533H78.3638V63.7397ZM96.2761 65.6188H76.3575V46.9743H96.2761V65.6188Z" fill="#0091DA"/>
<path d="M53.3891 81.1528H50.3213V90.4751H53.3891V81.1528Z" fill="#0091DA"/>
<path d="M56.448 81.1528H54.9186V90.4751H56.448V81.1528Z" fill="#0091DA"/>
<path d="M61.0453 81.1528H57.9774V90.4751H61.0453V81.1528Z" fill="#0091DA"/>
<path fill-rule="evenodd" clip-rule="evenodd" d="M47.7213 93.093H63.6363V76.9752H47.7213V93.093ZM65.6335 95.1271H45.724V74.9319H65.6335V95.1271Z" fill="#0091DA"/>
<path d="M84.0227 81.1528H80.9548V90.4751H84.0227V81.1528Z" fill="#0091DA"/>
<path d="M87.0816 81.1528H85.5521V90.4751H87.0816V81.1528Z" fill="#0091DA"/>
<path d="M91.6877 81.1528H88.6199V90.4751H91.6877V81.1528Z" fill="#0091DA"/>
<path fill-rule="evenodd" clip-rule="evenodd" d="M78.3638 93.093H94.2788V76.9752H78.3638V93.093ZM96.2761 95.1271H76.3575V74.9319H96.2761V95.1271Z" fill="#0091DA"/>
</g>
<defs>
<clipPath id="clip0_64_1482">
<rect width="72" height="73" fill="white" transform="translate(35 33)"/>
</clipPath>
</defs>
</svg>
