<svg width="142" height="142" viewBox="0 0 142 142" fill="none" xmlns="http://www.w3.org/2000/svg">
<path fill-rule="evenodd" clip-rule="evenodd" d="M108.653 81.3336C108.653 79.9618 107.639 79.2698 105.761 78.7383V84.003C107.714 83.7805 108.653 82.6312 108.653 81.3336ZM104.167 76.3903V71.484C103.524 71.5579 102.929 71.8608 102.491 72.3374C102.053 72.814 101.801 73.4323 101.781 74.0792C101.707 75.2285 102.572 75.8341 104.167 76.3655V76.3903ZM105.761 85.5602V86.9319H104.167V85.486C102.41 85.2706 100.791 84.4279 99.6064 83.1132L100.62 81.7414C101.562 82.7771 102.801 83.4977 104.167 83.8053V78.2316C101.633 77.5396 100.113 76.5509 100.113 74.104C100.135 73.0144 100.562 71.9721 101.312 71.1813C102.062 70.3904 103.08 69.9078 104.167 69.8279V68.4562H105.835V69.8279C107.432 70.05 108.908 70.8031 110.025 71.9659L109.011 73.3377C108.151 72.4349 107.048 71.7998 105.835 71.5087V76.8475C108.504 77.5396 110.383 78.6148 110.383 81.21C110.321 83.4716 108.752 85.3006 105.761 85.5354V85.5602Z" fill="#0091DA"/>
<path fill-rule="evenodd" clip-rule="evenodd" d="M59.9485 76.1801L40.1751 56.4067C40.101 56.3326 40.0268 56.3326 39.9526 56.2584V58.8784L58.4902 77.4777L56.7477 79.3809L63.6066 81.21L61.7899 74.3016L59.9485 76.1801Z" fill="#0091DA"/>
<path fill-rule="evenodd" clip-rule="evenodd" d="M82.1193 52.5139L64.521 34.9032H61.7775L80.7476 53.8733L78.9185 55.7147L85.7774 57.5314L83.9484 50.6725L82.1193 52.5139Z" fill="#0091DA"/>
<path fill-rule="evenodd" clip-rule="evenodd" d="M81.279 74.833L40.1133 33.6673L38.6674 34.9649L79.9072 76.2048L78.0782 78.0338L84.9371 79.8629L83.1081 73.004L81.279 74.833Z" fill="#0091DA"/>
<path fill-rule="evenodd" clip-rule="evenodd" d="M110.383 65.9227V33H38V105.395H110.383V90.454H108.48V103.566H39.9032V34.9032H108.48V65.9227H110.383Z" fill="#1D428A"/>
</svg>
