<?xml version="1.0" encoding="utf-8"?>
<!-- Generator: Adobe Illustrator 26.0.2, SVG Export Plug-In . SVG Version: 6.00 Build 0)  -->
<svg version="1.1" id="Layer_1" xmlns="http://www.w3.org/2000/svg" xmlns:xlink="http://www.w3.org/1999/xlink" x="0px" y="0px"
	 viewBox="0 0 427.5 195.5" style="enable-background:new 0 0 427.5 195.5;" xml:space="preserve">
<style type="text/css">
	.st0{fill:#263243;}
	.st1{fill:#EF5226;}
	.st2{fill:#F05025;}
	.st3{fill:#FFFFFF;}
	.st4{opacity:0.3;}
	.st5{fill:#4A5565;}
	.st6{fill:none;stroke:#CCCBCA;stroke-width:0.82;stroke-linecap:round;stroke-linejoin:round;}
	.st7{fill:none;stroke:#F05025;stroke-miterlimit:10;stroke-dasharray:1,3;}
	.st8{fill:#231F20;}
	.st9{fill:#486BB3;}
	.st10{fill:none;stroke:#FFFFFF;stroke-width:1.000000e-02;}
</style>
<path class="st0" d="M215.5,116.5V165H126v-48.5H215.5 M216.4,115.5H125V166h91.4V115.5z"/>
<path class="st0" d="M101.5,51.4v49.1H18.3V51.4H101.5 M102.6,50.3H17.2v51.3h85.4V50.3z"/>
<path class="st0" d="M310.6,116.5V165h-89.5v-48.5H310.6 M311.6,115.5h-91.5V166h91.5V115.5z"/>
<path class="st1" d="M246.6,30.5v15.6c0,1.9,1,3.6,2.6,4.6l13.5,7.8c1.6,0.9,3.7,0.9,5.3,0l13.5-7.8c1.6-0.9,2.6-2.7,2.6-4.6V30.5
	c0-1.9-1-3.6-2.6-4.6l-13.5-7.8c-1.6-0.9-3.7-0.9-5.3,0l-13.5,7.8C247.7,26.8,246.6,28.6,246.6,30.5z"/>
<path class="st2" d="M265.5,60c-0.5,0-1.1-0.1-1.5-0.4l-16.2-9.3c-0.9-0.5-1.5-1.6-1.5-2.6V29c0-1.1,0.6-2.1,1.5-2.6L264,17
	c0.9-0.5,2.1-0.5,3,0l16.2,9.3c1,0.6,1.5,1.6,1.5,2.7v18.6c0,1.1-0.6,2.1-1.5,2.6L267,59.6C266.5,59.8,266,60,265.5,60z M265.5,17.3
	c-0.4,0-0.8,0.1-1.2,0.3L248.2,27c-0.7,0.4-1.2,1.2-1.2,2v18.6c0,0.8,0.4,1.6,1.2,2l16.1,9.3c0.7,0.4,1.6,0.4,2.3,0l16.1-9.3
	c0.7-0.4,1.2-1.2,1.2-2V29c0-0.8-0.4-1.6-1.2-2l-16.1-9.3C266.3,17.5,265.9,17.3,265.5,17.3L265.5,17.3z"/>
<path class="st3" d="M265.5,53.1L265.5,53.1c-0.8,0-1.6-0.4-2-1.1l-1.7-2.5c-0.4-0.6-1-0.8-1.7-0.7l-3,0.6c-1.3,0.3-2.5-0.6-2.8-1.9
	c-0.1-0.3-0.1-0.6,0-0.9l0.6-3c0.1-0.7-0.1-1.3-0.7-1.7l-2.5-1.7c-1.1-0.7-1.4-2.2-0.7-3.3c0.2-0.3,0.4-0.5,0.7-0.7l2.5-1.7
	c0.6-0.4,0.8-1,0.7-1.7l-0.6-3c-0.3-1.3,0.6-2.5,1.9-2.8c0.3-0.1,0.6-0.1,0.9,0l3,0.6c0.7,0.1,1.3-0.1,1.7-0.7l1.7-2.5
	c0.4-0.7,1.2-1.1,2-1.1l0,0c0.8,0,1.6,0.4,2,1.1l1.7,2.5c0.4,0.6,1,0.8,1.7,0.7l3-0.6c1.3-0.3,2.5,0.6,2.8,1.9
	c0.1,0.3,0.1,0.6,0,0.9l-0.6,3c-0.1,0.7,0.1,1.3,0.7,1.7l2.5,1.7c1.1,0.7,1.4,2.2,0.7,3.3c-0.2,0.3-0.4,0.5-0.7,0.7l-2.5,1.7
	c-0.6,0.4-0.8,1-0.7,1.7l0.6,3c0.3,1.3-0.6,2.5-1.9,2.8c-0.3,0.1-0.6,0.1-0.9,0l-3-0.6c-0.6-0.1-1.3,0.1-1.7,0.7l-1.7,2.5
	C267,52.7,266.3,53.1,265.5,53.1z M260.5,48c0.8,0,1.6,0.4,2,1.1l1.7,2.5c0.3,0.5,0.8,0.7,1.4,0.7l0,0c0.5,0,1.1-0.3,1.4-0.7
	l1.7-2.5c0.5-0.8,1.5-1.2,2.5-1l3,0.6c0.9,0.2,1.7-0.4,1.9-1.3c0-0.2,0-0.4,0-0.7l-0.6-3c-0.2-0.9,0.2-1.9,1-2.5l2.5-1.7
	c0.8-0.5,1-1.5,0.5-2.3c-0.1-0.2-0.3-0.3-0.5-0.5l-2.5-1.7c-0.8-0.5-1.2-1.5-1-2.5l0.6-3c0.1-0.5-0.1-1.1-0.5-1.5
	c-0.4-0.4-0.9-0.6-1.5-0.5l-3,0.6c-0.9,0.2-1.9-0.2-2.5-1l-1.7-2.5c-0.3-0.5-0.8-0.7-1.4-0.7l0,0c-0.6,0-1.1,0.3-1.4,0.7l-1.7,2.5
	c-0.5,0.8-1.5,1.2-2.5,1l-3-0.6c-0.9-0.2-1.8,0.4-1.9,1.3c0,0.2,0,0.4,0,0.6l0.6,3c0.2,0.9-0.2,1.9-1,2.5l-2.5,1.7
	c-0.8,0.5-1,1.5-0.5,2.3c0.1,0.2,0.3,0.3,0.5,0.5l2.5,1.7c0.8,0.5,1.2,1.5,1,2.5l-0.6,3c-0.2,0.9,0.4,1.7,1.3,1.9c0.2,0,0.4,0,0.6,0
	l3-0.6C260.2,48,260.3,48,260.5,48L260.5,48z"/>
<path class="st3" d="M265.5,42.7c-2.4,0-4.4-2-4.4-4.4s2-4.4,4.4-4.4s4.4,2,4.4,4.4c0,0,0,0,0,0C269.9,40.7,267.9,42.7,265.5,42.7z
	 M265.5,34.7c-2,0-3.6,1.6-3.6,3.6s1.6,3.6,3.6,3.6s3.6-1.6,3.6-3.6C269.1,36.3,267.5,34.7,265.5,34.7
	C265.5,34.6,265.5,34.6,265.5,34.7L265.5,34.7z"/>
<g class="st4">
	<path class="st3" d="M265.5,43.3c-2.8,0-5.1-2.3-5.1-5.1c0-2.8,2.3-5.1,5.1-5.1c0.2,0,0.3,0.2,0.3,0.4c0,0.2-0.2,0.3-0.3,0.3
		c-2.4,0-4.3,1.9-4.3,4.3c0,2.4,1.9,4.3,4.3,4.3c0,0,0,0,0,0c0.2,0,0.3,0.2,0.3,0.4C265.8,43.2,265.7,43.3,265.5,43.3z"/>
</g>
<path class="st3" d="M265.5,46.7c-4.6,0-8.4-3.8-8.4-8.4s3.8-8.4,8.4-8.4c4.6,0,8.4,3.8,8.4,8.4c0,0,0,0,0,0
	C273.9,42.9,270.1,46.7,265.5,46.7z M265.5,30.6c-4.2,0-7.7,3.4-7.7,7.6c0,4.2,3.4,7.7,7.6,7.7s7.7-3.4,7.7-7.6c0,0,0,0,0,0
	C273.1,34.1,269.7,30.6,265.5,30.6z"/>
<g class="st4">
	<path class="st3" d="M265.5,46c-0.2,0-0.4-0.2-0.4-0.4c0-0.2,0.2-0.4,0.4-0.4c3.9,0,7-3.1,7-7s-3.1-7-7-7c-0.2,0-0.4-0.1-0.4-0.3
		c0-0.2,0.1-0.4,0.3-0.4c0,0,0.1,0,0.1,0c4.3,0.2,7.6,3.7,7.5,8C272.8,42.6,269.5,45.8,265.5,46L265.5,46z"/>
</g>
<path class="st5" d="M234.9,71.8l-0.4-1.4h-2.1l-0.4,1.4h-1.3l2-5.7h1.5l2,5.7H234.9z M234.2,69.5l-0.6-2.1c0-0.1-0.1-0.3-0.1-0.4
	c-0.1,0.3-0.3,1.2-0.7,2.5L234.2,69.5z"/>
<path class="st5" d="M240.2,66.1h1.2l-1.9,5.7h-1.3l-1.9-5.7h1.2l1.1,3.4c0.1,0.2,0.1,0.4,0.2,0.7s0.1,0.4,0.1,0.6
	c0.1-0.4,0.2-0.8,0.3-1.3L240.2,66.1z"/>
<path class="st5" d="M242.3,71.8v-5.7h1.2v5.7H242.3z"/>
<path class="st5" d="M249.6,67.1c-0.4,0-0.8,0.2-1.1,0.5c-0.3,0.4-0.4,0.9-0.4,1.4c0,1.3,0.5,1.9,1.4,1.9c0.5,0,1-0.1,1.4-0.3v1
	c-0.5,0.2-1,0.3-1.6,0.3c-0.7,0-1.4-0.2-1.9-0.8c-0.5-0.6-0.7-1.4-0.7-2.2c0-0.5,0.1-1.1,0.3-1.6c0.2-0.4,0.5-0.8,0.9-1
	c0.4-0.2,0.9-0.4,1.4-0.4c0.6,0,1.2,0.1,1.7,0.4l-0.4,1c-0.2-0.1-0.4-0.2-0.6-0.3C250,67.1,249.8,67.1,249.6,67.1z"/>
<path class="st5" d="M257.5,69c0.1,0.8-0.2,1.6-0.7,2.2c-1.1,1-2.9,1-4,0c-0.5-0.6-0.8-1.4-0.7-2.2c-0.1-0.8,0.2-1.6,0.7-2.2
	c0.5-0.5,1.3-0.8,2-0.8c0.7,0,1.5,0.2,2,0.8C257.3,67.4,257.6,68.2,257.5,69z M253.3,69c0,0.5,0.1,1,0.4,1.4
	c0.3,0.3,0.7,0.5,1.1,0.5c1,0,1.5-0.6,1.5-1.9s-0.5-2-1.4-2c-0.4,0-0.8,0.2-1.1,0.5C253.4,67.9,253.3,68.5,253.3,69L253.3,69z"/>
<path class="st5" d="M263.9,71.8h-1.5l-2.5-4.3l0,0c0,0.8,0.1,1.3,0.1,1.6v2.7h-1.1v-5.7h1.5l2.5,4.3l0,0c0-0.7-0.1-1.3-0.1-1.6
	v-2.7h1.1L263.9,71.8z"/>
<path class="st5" d="M267.6,71.8h-1.2v-4.7h-1.5v-1h4.3v1h-1.5L267.6,71.8z"/>
<path class="st5" d="M271.3,69.6v2.2h-1.2v-5.7h1.7c0.6,0,1.2,0.1,1.7,0.4c0.4,0.3,0.6,0.8,0.6,1.3c0,0.3-0.1,0.6-0.3,0.9
	c-0.2,0.3-0.5,0.5-0.8,0.6c0.9,1.3,1.4,2.1,1.7,2.5h-1.4l-1.4-2.2H271.3z M271.3,68.6h0.4c0.3,0,0.6,0,0.9-0.2
	c0.2-0.1,0.3-0.4,0.3-0.6c0-0.2-0.1-0.4-0.3-0.6c-0.3-0.1-0.6-0.2-0.9-0.2h-0.4L271.3,68.6z"/>
<path class="st5" d="M280.6,69c0,0.8-0.2,1.6-0.7,2.2c-1.1,1-2.9,1-4,0c-0.5-0.6-0.8-1.4-0.7-2.2c-0.1-0.8,0.2-1.6,0.7-2.2
	c0.5-0.5,1.3-0.8,2-0.8c0.7,0,1.5,0.2,2,0.8C280.4,67.4,280.7,68.2,280.6,69z M276.5,69c0,0.5,0.1,1,0.4,1.4
	c0.3,0.3,0.7,0.5,1.1,0.5c1,0,1.5-0.6,1.5-1.9s-0.5-2-1.4-2c-0.4,0-0.8,0.2-1.1,0.5C276.5,67.9,276.4,68.5,276.5,69z"/>
<path class="st5" d="M281.9,71.8v-5.7h1.2v4.7h2.3v1H281.9z"/>
<path class="st5" d="M286.5,71.8v-5.7h1.2v4.7h2.3v1H286.5z"/>
<path class="st5" d="M294.4,71.8h-3.3v-5.7h3.3v1h-2.1v1.3h1.9v1h-1.9v1.5h2.1L294.4,71.8z"/>
<path class="st5" d="M296.9,69.6v2.2h-1.2v-5.7h1.7c0.6,0,1.2,0.1,1.7,0.4c0.6,0.6,0.7,1.5,0.3,2.2c-0.2,0.3-0.5,0.5-0.8,0.6
	c0.9,1.3,1.4,2.1,1.7,2.5h-1.3l-1.4-2.2H296.9z M296.9,68.6h0.4c0.3,0,0.6,0,0.9-0.2c0.2-0.1,0.3-0.4,0.3-0.6c0-0.2-0.1-0.4-0.3-0.6
	c-0.3-0.1-0.6-0.2-0.9-0.2h-0.4L296.9,68.6z"/>
<path class="st5" d="M187.6,143.5c-1.5,0-2.6-1.2-2.6-2.6s1.2-2.6,2.6-2.6c1.5,0,2.6,1.2,2.6,2.6l0,0
	C190.2,142.3,189,143.5,187.6,143.5z M187.6,139c-1,0-1.9,0.8-1.9,1.9c0,1,0.8,1.9,1.9,1.9c1,0,1.9-0.8,1.9-1.9c0,0,0,0,0,0
	C189.5,139.9,188.6,139,187.6,139C187.6,139,187.6,139,187.6,139L187.6,139z"/>
<path class="st5" d="M153.6,145.2c-2.4,0-4.3-1.9-4.3-4.3s1.9-4.3,4.3-4.3s4.3,1.9,4.3,4.3S156,145.2,153.6,145.2L153.6,145.2z
	 M153.6,137.3c-2,0-3.6,1.6-3.6,3.5c0,2,1.6,3.6,3.5,3.6c2,0,3.6-1.6,3.6-3.5c0,0,0,0,0,0C157.1,138.9,155.5,137.3,153.6,137.3z"/>
<path class="st5" d="M163,141.3h-5.4c-0.2,0-0.4-0.1-0.4-0.3c0-0.2,0.1-0.4,0.3-0.4c0,0,0.1,0,0.1,0h5.4c0.2,0,0.4,0.2,0.3,0.4
	C163.3,141.1,163.2,141.2,163,141.3z"/>
<path class="st5" d="M185.1,141.3h-5.4c-0.2,0-0.4-0.2-0.3-0.4c0-0.2,0.2-0.3,0.3-0.3h5.4c0.2,0,0.4,0.1,0.4,0.3
	c0,0.2-0.1,0.4-0.3,0.4C185.2,141.3,185.2,141.3,185.1,141.3z"/>
<path class="st5" d="M182.4,132.3c-1.5,0-2.6-1.2-2.6-2.6c0-0.7,0.3-1.4,0.8-1.9c1-1,2.7-1,3.7,0c1,1,1,2.7,0,3.7c0,0,0,0,0,0l0,0
	C183.7,132,183.1,132.3,182.4,132.3z M182.4,127.8c-1,0-1.9,0.8-1.9,1.9c0,0.5,0.2,1,0.6,1.3c0.7,0.7,1.9,0.7,2.6,0l0,0
	c0.4-0.3,0.6-0.8,0.6-1.3C184.2,128.6,183.4,127.8,182.4,127.8L182.4,127.8z"/>
<path class="st5" d="M177.1,135.2c-0.1,0-0.2,0-0.3-0.1c-0.2-0.2-0.2-0.4,0-0.6l3.5-3.5c0.2-0.2,0.4-0.2,0.6,0
	c0.2,0.1,0.2,0.4,0,0.5c0,0,0,0,0,0l-3.5,3.5C177.3,135.2,177.2,135.2,177.1,135.2z"/>
<path class="st5" d="M182.4,154.8c-0.7,0-1.4-0.3-1.9-0.8l0,0c-1-1-1-2.7,0-3.7c0,0,0,0,0,0c1-1,2.7-1,3.7,0c1,1,1,2.7,0,3.7
	c0,0,0,0,0,0C183.7,154.5,183.1,154.8,182.4,154.8z M182.4,150.3c-0.5,0-1,0.2-1.3,0.6c-0.7,0.7-0.7,1.9,0,2.6c0,0,0,0,0,0l0,0
	c0.7,0.7,1.9,0.7,2.6,0c0.7-0.7,0.7-1.9,0-2.6c0,0,0,0,0,0C183.3,150.5,182.9,150.3,182.4,150.3z"/>
<path class="st5" d="M180.6,150.8c-0.1,0-0.2,0-0.3-0.1l-3.5-3.5c-0.1-0.2-0.1-0.4,0-0.6c0.1-0.1,0.4-0.1,0.5,0l3.5,3.5
	c0.2,0.1,0.2,0.4,0,0.5c0,0,0,0,0,0C180.8,150.8,180.7,150.8,180.6,150.8z"/>
<path class="st1" d="M163.2,137.9v6c0,1,0.6,2,1.5,2.5l5.2,3c0.9,0.5,2,0.5,2.9,0l5.2-3c0.9-0.5,1.5-1.5,1.5-2.5v-6
	c0-1-0.6-2-1.5-2.5l-5.2-3c-0.9-0.5-2-0.5-2.9,0l-5.2,3C163.8,135.9,163.2,136.8,163.2,137.9z"/>
<path class="st2" d="M171.3,150.3c-0.5,0-0.9-0.1-1.3-0.3l-5.9-3.4c-0.8-0.5-1.3-1.3-1.3-2.3v-6.8c0-0.9,0.5-1.8,1.3-2.3l5.9-3.4
	c0.8-0.5,1.8-0.5,2.6,0l5.9,3.4c0.8,0.5,1.3,1.3,1.3,2.3v6.8c0,0.9-0.5,1.8-1.3,2.3l-5.8,3.4C172.2,150.2,171.8,150.3,171.3,150.3z
	 M171.3,132.2c-0.3,0-0.6,0.1-0.9,0.2l-5.9,3.4c-0.6,0.3-0.9,1-0.9,1.6v6.8c0,0.7,0.4,1.3,0.9,1.6l5.9,3.4c0.6,0.3,1.3,0.3,1.9,0
	l5.9-3.4c0.6-0.3,0.9-1,0.9-1.6v-6.8c0-0.7-0.4-1.3-0.9-1.6l-5.9-3.4C172,132.3,171.7,132.2,171.3,132.2z"/>
<path class="st3" d="M174.1,144.3c-0.2,0-0.4-0.1-0.5-0.3l-2.3-4.6L169,144c-0.2,0.3-0.5,0.3-0.8,0.1c-0.2-0.1-0.3-0.4-0.2-0.6
	l2.8-5.6c0.1-0.2,0.3-0.3,0.5-0.3l0,0c0.2,0,0.4,0.1,0.5,0.3l2.8,5.6c0.1,0.3,0,0.6-0.3,0.8C174.3,144.3,174.2,144.3,174.1,144.3z"
	/>
<path class="st5" d="M281.6,145.7c-1.5,0-2.7-1.2-2.7-2.6c0-1.5,1.2-2.7,2.6-2.7c1.5,0,2.7,1.2,2.7,2.6c0,0,0,0,0,0
	C284.2,144.5,283.1,145.7,281.6,145.7z M281.6,141.2c-1,0-1.9,0.8-1.9,1.9c0,1,0.8,1.9,1.9,1.9c1,0,1.9-0.8,1.9-1.9c0,0,0,0,0,0
	C283.5,142,282.6,141.2,281.6,141.2C281.6,141.2,281.6,141.2,281.6,141.2z"/>
<path class="st5" d="M247.6,147.4c-2.4,0-4.3-1.9-4.3-4.3s1.9-4.3,4.3-4.3s4.3,1.9,4.3,4.3S250,147.4,247.6,147.4L247.6,147.4z
	 M247.6,139.5c-2,0-3.6,1.6-3.6,3.6c0,2,1.6,3.6,3.6,3.6c2,0,3.6-1.6,3.6-3.6c0,0,0,0,0,0C251.1,141.1,249.6,139.5,247.6,139.5z"/>
<path class="st5" d="M257,143.4h-5.4c-0.2,0-0.4-0.2-0.4-0.4c0-0.2,0.2-0.4,0.4-0.4h5.4c0.2,0,0.4,0.2,0.4,0.4v0
	C257.4,143.2,257.2,143.4,257,143.4C257,143.4,257,143.4,257,143.4z"/>
<path class="st5" d="M279.1,143.4h-5.4c-0.2,0-0.4-0.2-0.4-0.4c0,0,0,0,0,0c0-0.2,0.2-0.4,0.4-0.4h5.4c0.2,0,0.4,0.2,0.4,0.4
	C279.5,143.2,279.4,143.4,279.1,143.4L279.1,143.4z"/>
<path class="st5" d="M276.4,134.4c-0.7,0-1.4-0.3-1.9-0.8c-1-1-1-2.7,0-3.7c0,0,0,0,0,0c1-1,2.7-1,3.7,0c1,1,1,2.7,0,3.7
	c0,0,0,0,0,0l0,0C277.7,134.1,277.1,134.4,276.4,134.4z M276.4,129.9c-1,0-1.8,0.8-1.9,1.8c0,0,0,0,0,0c0,0.5,0.2,1,0.5,1.3
	c0.7,0.7,1.9,0.7,2.6,0l0,0c0.7-0.7,0.7-1.9,0-2.6C277.3,130.1,276.9,129.9,276.4,129.9L276.4,129.9z"/>
<path class="st5" d="M271.1,137.4c-0.2,0-0.4-0.2-0.4-0.4c0-0.1,0-0.2,0.1-0.3l3.5-3.5c0.2-0.1,0.4-0.1,0.5,0c0.1,0.1,0.1,0.4,0,0.5
	l-3.5,3.5C271.4,137.3,271.3,137.4,271.1,137.4z"/>
<path class="st5" d="M276.4,156.9c-0.7,0-1.4-0.3-1.9-0.8l0,0c-1-1-1-2.7,0-3.7c0,0,0,0,0,0c1-1,2.7-1,3.7,0c1,1,1,2.7,0,3.7
	C277.7,156.7,277.1,156.9,276.4,156.9L276.4,156.9z M276.4,152.4c-1,0-1.9,0.9-1.9,1.9c0,0.5,0.2,0.9,0.5,1.3l0,0
	c0.7,0.7,1.9,0.7,2.6,0c0.7-0.7,0.7-1.9,0-2.6c0,0,0,0,0,0C277.3,152.6,276.9,152.4,276.4,152.4L276.4,152.4z"/>
<path class="st5" d="M274.6,153c-0.1,0-0.2,0-0.3-0.1l-3.5-3.5c-0.2-0.1-0.2-0.4,0-0.5c0.1-0.2,0.4-0.2,0.5,0c0,0,0,0,0,0l3.5,3.5
	c0.2,0.2,0.2,0.4,0,0.6C274.8,153,274.7,153,274.6,153z"/>
<path class="st1" d="M257.2,140v6c0,1,0.6,2,1.5,2.5l5.2,3c0.9,0.5,2,0.5,2.9,0l5.2-3c0.9-0.5,1.4-1.5,1.5-2.5v-6c0-1-0.6-2-1.5-2.5
	l-5.2-3c-0.9-0.5-2-0.5-2.9,0l-5.2,3C257.8,138,257.2,139,257.2,140z"/>
<path class="st2" d="M265.3,152.4c-0.5,0-0.9-0.1-1.3-0.4l-5.9-3.4c-0.8-0.5-1.3-1.3-1.3-2.3v-6.8c0-0.9,0.5-1.8,1.3-2.3l5.8-3.4
	c0.8-0.5,1.8-0.5,2.6,0l5.9,3.4c0.8,0.5,1.3,1.3,1.3,2.3v6.8c0,0.9-0.5,1.8-1.3,2.3l-5.9,3.4C266.2,152.3,265.8,152.5,265.3,152.4z
	 M265.3,134.4c-0.3,0-0.6,0.1-0.9,0.2l-5.9,3.4c-0.6,0.3-0.9,1-0.9,1.6v6.8c0,0.7,0.4,1.3,0.9,1.6l5.9,3.4c0.6,0.3,1.3,0.3,1.9,0
	l5.9-3.4c0.6-0.3,0.9-1,0.9-1.6v-6.8c0-0.7-0.4-1.3-0.9-1.6l-5.9-3.4C266,134.5,265.7,134.4,265.3,134.4z"/>
<path class="st3" d="M268.2,146.4c-0.2,0-0.4-0.1-0.5-0.3l-2.3-4.6l-2.3,4.6c-0.2,0.3-0.5,0.4-0.8,0.2c-0.2-0.1-0.3-0.4-0.2-0.7
	l2.8-5.6c0.1-0.2,0.3-0.3,0.5-0.3l0,0c0.2,0,0.4,0.1,0.5,0.3l2.8,5.6c0.1,0.3,0,0.6-0.2,0.7c0,0,0,0,0,0
	C268.3,146.4,268.2,146.4,268.2,146.4z"/>
<line class="st6" x1="265.3" y1="75" x2="181.7" y2="136"/>
<path class="st0" d="M405.8,116.5V165h-89.4v-48.5H405.8 M406.8,115.5h-91.4V166h91.4V115.5z"/>
<path class="st5" d="M377.9,143.7c-1.5,0-2.7-1.2-2.7-2.6c0-1.5,1.2-2.7,2.6-2.7c1.5,0,2.7,1.2,2.7,2.6c0,0,0,0,0,0
	C380.6,142.5,379.4,143.7,377.9,143.7z M377.9,139.2c-1,0-1.9,0.8-1.9,1.9c0,1,0.8,1.9,1.9,1.9c1,0,1.9-0.8,1.9-1.9c0,0,0,0,0,0
	C379.8,140,379,139.2,377.9,139.2z"/>
<path class="st5" d="M343.9,145.4c-2.4,0-4.3-1.9-4.3-4.3s1.9-4.3,4.3-4.3c2.4,0,4.3,1.9,4.3,4.3v0
	C348.2,143.4,346.3,145.4,343.9,145.4z M343.9,137.5c-2,0-3.6,1.6-3.6,3.6c0,2,1.6,3.6,3.6,3.6c2,0,3.6-1.6,3.6-3.6c0,0,0,0,0,0
	C347.5,139.1,345.9,137.5,343.9,137.5C343.9,137.5,343.9,137.5,343.9,137.5z"/>
<path class="st5" d="M353.3,141.4h-5.4c-0.2,0-0.4-0.2-0.4-0.4c0,0,0,0,0,0c0-0.2,0.2-0.4,0.4-0.4l0,0h5.4c0.2,0,0.4,0.2,0.4,0.4
	C353.7,141.2,353.5,141.4,353.3,141.4L353.3,141.4z"/>
<path class="st5" d="M375.5,141.4H370c-0.2,0-0.4-0.2-0.4-0.4c0,0,0,0,0,0c0-0.2,0.2-0.4,0.4-0.4l0,0h5.4c0.2,0,0.4,0.2,0.4,0.4v0
	C375.8,141.2,375.7,141.4,375.5,141.4z"/>
<path class="st5" d="M372.7,132.4c-1.5,0-2.6-1.2-2.6-2.6c0-0.7,0.3-1.4,0.8-1.9c1.1-1,2.7-1,3.7,0c1,1,1,2.7,0,3.7l0,0
	C374.1,132.1,373.4,132.4,372.7,132.4z M372.7,127.9c-0.5,0-1,0.2-1.3,0.5c-0.7,0.7-0.7,1.9,0,2.6c0,0,0,0,0,0
	c0.7,0.7,1.9,0.7,2.6,0l0,0c0.7-0.7,0.7-1.9,0-2.6C373.7,128.1,373.2,127.9,372.7,127.9z"/>
<path class="st5" d="M367.5,135.4c-0.1,0-0.2,0-0.3-0.1c-0.2-0.2-0.2-0.4,0-0.6l3.5-3.5c0.1-0.2,0.4-0.2,0.5,0
	c0.2,0.1,0.2,0.4,0,0.6c0,0,0,0,0,0l-3.5,3.5C367.7,135.3,367.6,135.4,367.5,135.4z"/>
<path class="st5" d="M372.7,154.9c-0.7,0-1.4-0.3-1.9-0.8l0,0c-1-1-1-2.7,0-3.7c1-1,2.7-1,3.7,0c1,1,1,2.7,0,3.7
	C374.1,154.7,373.4,154.9,372.7,154.9z M372.7,150.4c-0.5,0-1,0.2-1.3,0.6c-0.7,0.7-0.7,1.9,0,2.6c0,0,0,0,0,0l0,0
	c0.7,0.7,1.9,0.7,2.6,0c0.7-0.7,0.7-1.9,0-2.6C373.6,150.6,373.2,150.4,372.7,150.4L372.7,150.4z"/>
<path class="st5" d="M371,151c-0.1,0-0.2,0-0.3-0.1l-3.5-3.5c-0.1-0.2-0.1-0.4,0-0.6c0.1-0.1,0.4-0.1,0.5,0l3.5,3.5
	c0.1,0.2,0.1,0.4,0,0.6C371.2,151,371.1,151,371,151z"/>
<path class="st1" d="M353.5,138v6c0,1,0.6,2,1.5,2.5l5.2,3c0.9,0.5,2,0.5,2.9,0l5.2-3c0.9-0.5,1.4-1.5,1.5-2.5v-6c0-1-0.6-2-1.5-2.5
	l-5.2-3c-0.9-0.5-2-0.5-2.9,0l-5.2,3C354.1,136,353.5,137,353.5,138z"/>
<path class="st2" d="M361.7,150.4c-0.5,0-0.9-0.1-1.3-0.4l-5.9-3.4c-0.8-0.5-1.3-1.3-1.3-2.3v-6.8c0-0.9,0.5-1.8,1.3-2.3l5.9-3.4
	c0.8-0.5,1.8-0.5,2.6,0l5.9,3.4c0.8,0.5,1.3,1.3,1.3,2.3v6.8c0,0.9-0.5,1.8-1.3,2.3l-5.9,3.4C362.6,150.3,362.1,150.4,361.7,150.4z
	 M361.7,132.4c-0.3,0-0.6,0.1-0.9,0.2l-5.9,3.4c-0.6,0.3-0.9,1-0.9,1.6v6.8c0,0.7,0.4,1.3,0.9,1.6l5.9,3.4c0.6,0.3,1.3,0.3,1.9,0
	l5.9-3.4c0.6-0.3,0.9-1,0.9-1.6v-6.8c0-0.7-0.4-1.3-0.9-1.6l-5.9-3.4C362.3,132.5,362,132.4,361.7,132.4z"/>
<path class="st3" d="M364.5,144.4c-0.2,0-0.4-0.1-0.5-0.3l-2.3-4.6l-2.3,4.6c-0.1,0.3-0.5,0.4-0.8,0.2c-0.3-0.1-0.4-0.5-0.3-0.7
	c0,0,0,0,0,0l2.8-5.6c0.1-0.2,0.3-0.3,0.5-0.3l0,0c0.2,0,0.4,0.1,0.5,0.3l2.8,5.6c0.1,0.3,0,0.6-0.2,0.8
	C364.7,144.4,364.6,144.4,364.5,144.4z"/>
<line class="st6" x1="265.7" y1="75" x2="351.7" y2="136"/>
<line class="st6" x1="265.6" y1="75" x2="265.6" y2="131.3"/>
<path class="st0" d="M131.9,174.8h-1.6l-2.5-4.3l0,0c0.1,0.8,0.1,1.3,0.1,1.6v2.7h-1.1v-5.7h1.5l2.5,4.3l0,0c0-0.8-0.1-1.3-0.1-1.6
	v-2.7h1.1L131.9,174.8z"/>
<path class="st0" d="M138.5,172c0.1,0.8-0.2,1.6-0.7,2.2c-1.2,1-2.9,1-4.1,0c-0.5-0.6-0.8-1.4-0.7-2.2c-0.1-0.8,0.2-1.6,0.7-2.2
	c0.5-0.5,1.3-0.8,2-0.8c0.7,0,1.5,0.2,2,0.8C138.3,170.4,138.6,171.2,138.5,172z M134.4,172c0,0.5,0.1,1,0.4,1.4
	c0.3,0.3,0.7,0.5,1.1,0.5c1,0,1.5-0.6,1.5-1.9s-0.5-1.9-1.4-1.9c-0.4,0-0.8,0.2-1.1,0.5C134.5,171,134.3,171.5,134.4,172z"/>
<path class="st0" d="M144.5,171.9c0.1,0.8-0.2,1.6-0.8,2.2c-0.7,0.5-1.5,0.8-2.3,0.8h-1.6v-5.7h1.8c0.8-0.1,1.6,0.2,2.2,0.7
	C144.3,170.4,144.5,171.2,144.5,171.9z M143.2,171.9c0-1.2-0.5-1.8-1.6-1.8H141v3.7h0.5C142.6,173.8,143.2,173.2,143.2,171.9
	L143.2,171.9z"/>
<path class="st0" d="M149,174.8h-3.3v-5.7h3.3v1h-2.1v1.3h1.9v1h-1.9v1.5h2.1V174.8z"/>
<path class="st0" d="M229.9,174.8h-1.6l-2.5-4.3l0,0c0.1,0.8,0.1,1.3,0.1,1.6v2.7h-1.1v-5.7h1.5l2.5,4.3l0,0c0-0.8-0.1-1.3-0.1-1.6
	v-2.7h1.1L229.9,174.8z"/>
<path class="st0" d="M236.5,172c0.1,0.8-0.2,1.6-0.7,2.2c-1.2,1-2.9,1-4.1,0c-0.5-0.6-0.8-1.4-0.7-2.2c-0.1-0.8,0.2-1.6,0.7-2.2
	c0.5-0.5,1.3-0.8,2-0.8c0.7,0,1.5,0.2,2,0.8C236.3,170.4,236.6,171.2,236.5,172z M232.4,172c0,0.5,0.1,1,0.4,1.4
	c0.3,0.3,0.7,0.5,1.1,0.5c1,0,1.5-0.6,1.5-1.9s-0.5-1.9-1.4-1.9c-0.4,0-0.8,0.2-1.1,0.5C232.5,171,232.3,171.5,232.4,172z"/>
<path class="st0" d="M242.5,171.9c0.1,0.8-0.2,1.6-0.8,2.2c-0.7,0.5-1.5,0.8-2.3,0.8h-1.6v-5.7h1.8c0.8-0.1,1.6,0.2,2.2,0.7
	C242.3,170.4,242.5,171.2,242.5,171.9z M241.2,171.9c0-1.2-0.5-1.8-1.6-1.8H239v3.7h0.5C240.6,173.8,241.2,173.2,241.2,171.9
	L241.2,171.9z"/>
<path class="st0" d="M247,174.8h-3.3v-5.7h3.3v1h-2.1v1.3h1.9v1h-1.9v1.5h2.1V174.8z"/>
<path class="st0" d="M323.9,174.8h-1.5l-2.5-4.3l0,0c0,0.8,0.1,1.3,0.1,1.6v2.7h-1.1v-5.7h1.5l2.5,4.3l0,0c0-0.8-0.1-1.3-0.1-1.6
	v-2.7h1.1L323.9,174.8z"/>
<path class="st0" d="M330.5,172c0.1,0.8-0.2,1.6-0.7,2.2c-1.2,1-2.8,1-4,0c-0.5-0.6-0.8-1.4-0.7-2.2c-0.1-0.8,0.2-1.6,0.7-2.2
	c0.5-0.5,1.3-0.8,2-0.8c0.7,0,1.5,0.2,2,0.8C330.3,170.4,330.6,171.2,330.5,172z M326.4,172c0,0.5,0.1,1,0.4,1.4
	c0.3,0.3,0.7,0.5,1.1,0.5c1,0,1.5-0.6,1.5-1.9s-0.5-1.9-1.5-1.9c-0.4,0-0.8,0.2-1.1,0.5C326.5,171,326.3,171.5,326.4,172L326.4,172z
	"/>
<path class="st0" d="M336.5,171.9c0.1,0.8-0.2,1.6-0.8,2.2c-0.7,0.5-1.5,0.8-2.3,0.8h-1.6v-5.7h1.8c0.8-0.1,1.6,0.2,2.2,0.7
	C336.3,170.4,336.5,171.2,336.5,171.9z M335.2,171.9c0-1.2-0.5-1.8-1.6-1.8H333v3.7h0.5C334.6,173.8,335.2,173.2,335.2,171.9
	L335.2,171.9z"/>
<path class="st0" d="M341,174.8h-3.3v-5.7h3.3v1h-2.1v1.3h1.9v1h-1.9v1.5h2.1V174.8z"/>
<polyline class="st7" points="61,110.7 61,141.3 115.7,141.3 "/>
<polygon class="st2" points="58.4,112.5 61,102.7 63.6,112.5 "/>
<polygon class="st2" points="113.9,143.9 123.7,141.3 113.9,138.7 "/>
<path class="st8" d="M36.4,42.1l0.4-0.5l0.4-0.5l0.4-0.5l0.3-0.4h1.7c-0.3,0.4-0.7,0.8-1,1.1s-0.7,0.7-1,1.1
	c0.2,0.2,0.4,0.4,0.6,0.6c0.2,0.2,0.4,0.5,0.6,0.7s0.4,0.5,0.5,0.8s0.3,0.5,0.4,0.7H38c-0.1-0.2-0.2-0.3-0.3-0.5s-0.3-0.4-0.4-0.6
	c-0.1-0.2-0.3-0.4-0.5-0.6c-0.1-0.2-0.3-0.3-0.5-0.5v2.2H35v-7.1l1.4-0.2L36.4,42.1z"/>
<path class="st8" d="M44.5,45.1c-0.3,0.1-0.6,0.1-0.9,0.2c-0.4,0.1-0.8,0.1-1.2,0.1c-0.3,0-0.7-0.1-1-0.2c-0.3-0.1-0.5-0.3-0.7-0.5
	c-0.2-0.2-0.3-0.5-0.3-0.7c-0.1-0.3-0.1-0.6-0.1-0.9v-2.8h1.4v2.6c0,0.3,0,0.7,0.2,1c0.2,0.2,0.4,0.3,0.7,0.3h0.3h0.3v-3.9h1.4
	L44.5,45.1z"/>
<path class="st8" d="M50.5,42.8c0,0.4-0.1,0.7-0.2,1.1c-0.1,0.3-0.3,0.6-0.5,0.8c-0.2,0.2-0.5,0.4-0.8,0.5c-0.3,0.1-0.7,0.2-1.1,0.2
	h-0.5c-0.2,0-0.4,0-0.5-0.1c-0.2,0-0.3,0-0.5-0.1l-0.4-0.1v-6.9l1.4-0.2v2.5c0.2-0.1,0.3-0.1,0.5-0.2c0.2,0,0.4,0,0.5,0
	c0.3,0,0.6,0.1,0.9,0.2c0.3,0.1,0.5,0.3,0.7,0.5c0.2,0.2,0.3,0.5,0.4,0.8C50.4,42.1,50.5,42.4,50.5,42.8z M49,42.8
	c0-0.9-0.3-1.4-1-1.4c-0.1,0-0.3,0-0.4,0.1c-0.1,0-0.2,0.1-0.3,0.1v2.5h0.3h0.3c0.3,0,0.7-0.1,0.9-0.4C48.9,43.4,49,43.1,49,42.8
	L49,42.8z"/>
<path class="st8" d="M51.3,42.8c0-0.4,0.1-0.8,0.2-1.2c0.1-0.3,0.3-0.6,0.5-0.8c0.2-0.2,0.5-0.4,0.8-0.5c0.3-0.1,0.6-0.2,0.9-0.2
	c0.6,0,1.2,0.2,1.7,0.6c0.4,0.5,0.7,1.2,0.6,1.9c0,0.1,0,0.2,0,0.3c0,0.1,0,0.2,0,0.2h-3.2c0,0.3,0.2,0.5,0.4,0.7
	c0.3,0.2,0.6,0.3,1,0.2c0.3,0,0.5,0,0.8-0.1c0.2,0,0.4-0.1,0.6-0.2l0.2,1.1l-0.3,0.1L55,45.3l-0.5,0.1c-0.2,0-0.3,0-0.5,0
	c-0.4,0-0.8-0.1-1.2-0.2c-0.3-0.1-0.6-0.3-0.8-0.5c-0.2-0.2-0.4-0.5-0.5-0.8C51.4,43.5,51.3,43.1,51.3,42.8z M54.6,42.2
	c0-0.1,0-0.2-0.1-0.3c0-0.1-0.1-0.2-0.2-0.3c-0.2-0.2-0.4-0.3-0.7-0.3c-0.1,0-0.3,0-0.4,0.1c-0.1,0-0.2,0.1-0.3,0.2
	c-0.1,0.1-0.1,0.2-0.2,0.3c0,0.1-0.1,0.2-0.1,0.3H54.6z"/>
<path class="st8" d="M60,41.5l-0.4-0.1c-0.2,0-0.4,0-0.5,0h-0.3l-0.3,0.1v3.8H57v-4.7c0.2-0.1,0.5-0.2,0.9-0.2
	c0.4-0.1,0.8-0.1,1.1-0.1h0.3h0.3c0.2,0,0.4,0.1,0.6,0.1L60,41.5z"/>
<path class="st8" d="M61,40.5c0.3-0.1,0.6-0.1,0.9-0.2c0.4-0.1,0.8-0.1,1.2-0.1c0.4,0,0.7,0,1.1,0.2c0.3,0.1,0.5,0.3,0.7,0.5
	c0.2,0.2,0.3,0.5,0.3,0.7c0.1,0.3,0.1,0.6,0.1,0.9v2.8h-1.4v-2.6c0-0.3,0-0.7-0.2-1c-0.2-0.2-0.4-0.3-0.7-0.3h-0.3h-0.3v3.8H61V40.5
	z"/>
<path class="st8" d="M66.3,42.8c0-0.4,0.1-0.8,0.2-1.2c0.1-0.3,0.3-0.6,0.5-0.8c0.2-0.2,0.5-0.4,0.8-0.5c0.3-0.1,0.6-0.2,0.9-0.2
	c0.6,0,1.2,0.2,1.7,0.6c0.4,0.5,0.7,1.2,0.6,1.9c0,0.1,0,0.2,0,0.3c0,0.1,0,0.2,0,0.2h-3.2c0,0.3,0.2,0.5,0.4,0.7
	c0.3,0.2,0.6,0.3,1,0.2c0.3,0,0.5,0,0.8-0.1c0.2,0,0.4-0.1,0.6-0.2l0.2,1.1l-0.3,0.1c-0.1,0-0.3,0.1-0.4,0.1l-0.5,0.1
	c-0.2,0-0.4,0-0.5,0c-0.4,0-0.8-0.1-1.2-0.2c-0.3-0.1-0.6-0.3-0.8-0.5c-0.2-0.2-0.4-0.5-0.5-0.8C66.4,43.5,66.3,43.1,66.3,42.8z
	 M69.6,42.2c0-0.1,0-0.2-0.1-0.3c0-0.1-0.1-0.2-0.2-0.3c-0.1-0.1-0.2-0.2-0.3-0.2c-0.1-0.1-0.3-0.1-0.4-0.1c-0.1,0-0.3,0-0.4,0.1
	c-0.1,0-0.2,0.1-0.3,0.2c-0.1,0.1-0.1,0.2-0.2,0.3c0,0.1-0.1,0.2-0.1,0.3L69.6,42.2z"/>
<path class="st8" d="M72,39l1.4-0.2v1.5h1.7v1.2h-1.7v1.7c0,0.2,0,0.5,0.2,0.7c0.1,0.2,0.4,0.3,0.6,0.3c0.2,0,0.3,0,0.5,0
	c0.1,0,0.3-0.1,0.4-0.1l0.2,1.1c-0.2,0.1-0.4,0.1-0.6,0.2c-0.2,0.1-0.5,0.1-0.8,0.1c-0.3,0-0.7,0-1-0.2c-0.2-0.1-0.4-0.2-0.6-0.4
	c-0.2-0.2-0.3-0.4-0.3-0.7c0-0.3,0-0.6,0-0.9V39z"/>
<path class="st8" d="M75.8,42.8c0-0.4,0.1-0.8,0.2-1.2c0.1-0.3,0.3-0.6,0.5-0.8c0.2-0.2,0.5-0.4,0.8-0.5c0.3-0.1,0.6-0.2,0.9-0.2
	c0.6,0,1.2,0.2,1.7,0.6c0.4,0.6,0.7,1.4,0.6,2.2c0,0.1,0,0.2,0,0.2h-3.2c0,0.3,0.2,0.5,0.4,0.7c0.3,0.2,0.6,0.3,1,0.2
	c0.3,0,0.5,0,0.8-0.1c0.2,0,0.4-0.1,0.6-0.2l0.2,1.1l-0.3,0.1l-0.4,0.1L79,45.3c-0.2,0-0.4,0-0.5,0c-0.4,0-0.8-0.1-1.2-0.2
	c-0.3-0.1-0.6-0.3-0.8-0.5c-0.2-0.2-0.4-0.5-0.5-0.8C75.9,43.5,75.8,43.1,75.8,42.8z M79.1,42.2c0-0.1,0-0.2-0.1-0.3
	c0-0.1-0.1-0.2-0.2-0.3c-0.1-0.1-0.2-0.2-0.3-0.2c-0.1-0.1-0.3-0.1-0.4-0.1c-0.1,0-0.3,0-0.4,0.1c-0.1,0-0.2,0.1-0.3,0.2
	c-0.1,0.1-0.1,0.2-0.2,0.3c0,0.1-0.1,0.2-0.1,0.3L79.1,42.2z"/>
<path class="st8" d="M83,44.2c0.2,0,0.4,0,0.6-0.1c0.1-0.1,0.2-0.2,0.2-0.3c0-0.1-0.1-0.2-0.2-0.3c-0.2-0.1-0.4-0.2-0.6-0.3
	c-0.2-0.1-0.4-0.2-0.6-0.2c-0.2-0.1-0.3-0.2-0.4-0.3c-0.1-0.1-0.2-0.3-0.3-0.4c-0.1-0.2-0.1-0.4-0.1-0.6c0-0.4,0.2-0.8,0.5-1.1
	c0.4-0.3,0.9-0.4,1.4-0.4c0.3,0,0.6,0,0.9,0.1c0.2,0,0.4,0.1,0.7,0.2l-0.2,1.1l-0.5-0.2c-0.2,0-0.4-0.1-0.7-0.1
	c-0.4,0-0.7,0.1-0.7,0.4c0,0,0,0.1,0,0.2c0,0.1,0.1,0.1,0.1,0.1C83,42,83.1,42,83.2,42c0.1,0.1,0.2,0.1,0.4,0.2
	c0.3,0.1,0.5,0.2,0.8,0.3c0.2,0.1,0.3,0.2,0.5,0.3c0.1,0.1,0.2,0.3,0.2,0.4c0.1,0.2,0.1,0.4,0.1,0.5c0,0.5-0.2,0.9-0.6,1.1
	c-0.5,0.3-1,0.4-1.6,0.4c-0.4,0-0.7,0-1.1-0.1c-0.2-0.1-0.4-0.1-0.6-0.2l0.2-1.1c0.2,0.1,0.5,0.2,0.7,0.2
	C82.5,44.2,82.7,44.2,83,44.2z"/>
<path class="st9" d="M59.9,8.1c-0.3,0-0.5,0.1-0.7,0.2L49,13.1c-0.5,0.3-0.9,0.7-1,1.3l-2.5,10.9c-0.1,0.5,0,1,0.3,1.5l0.1,0.1
	l7,8.7c0.4,0.4,0.9,0.7,1.5,0.7h11.2c0.6,0,1.1-0.3,1.5-0.7l7-8.7c0.4-0.5,0.5-1.1,0.4-1.6L72,14.4c-0.1-0.6-0.5-1-1-1.3L60.8,8.3
	C60.5,8.2,60.2,8.1,59.9,8.1z"/>
<path class="st3" d="M60,25.6c0.1,0,0.2,0,0.2,0c0.1,0,0.2,0.1,0.2,0.2l0,0l1.5,2.8c-0.2,0.1-0.4,0.1-0.6,0.2
	c-1.1,0.3-2.3,0.2-3.4-0.2l1.5-2.8l0,0C59.6,25.7,59.8,25.6,60,25.6z M57.4,24.3c0.2,0,0.5,0.2,0.5,0.4c0,0.1,0,0.2,0,0.3l0,0
	l-1.3,3c-1.2-0.7-2-1.9-2.5-3.1l3.1-0.5L57.4,24.3L57.4,24.3z M62.7,24.3c0,0,0.1,0,0.1,0l0,0l3.1,0.5c-0.5,1.3-1.4,2.4-2.6,3.2
	l-1.2-3l0,0c-0.1-0.3,0-0.6,0.3-0.7C62.5,24.3,62.5,24.3,62.7,24.3L62.7,24.3z M59.5,21.7h1l0.6,0.8l-0.2,1L60,23.8l-0.9-0.4l-0.2-1
	L59.5,21.7z M65.4,19.4c0.4,0.6,0.6,1.2,0.8,1.9c0.1,0.7,0.2,1.3,0.1,2l-3.1-0.9l0,0c-0.3-0.1-0.4-0.4-0.4-0.6
	c0-0.1,0.1-0.2,0.2-0.3l0,0L65.4,19.4z M54.7,19.4l2.3,2.1l0,0c0.2,0.2,0.2,0.5,0.1,0.7c-0.1,0.1-0.2,0.2-0.3,0.2l0,0l-3,0.9
	C53.6,22,53.9,20.6,54.7,19.4L54.7,19.4z M60.8,16.5c1.4,0.2,2.6,0.8,3.6,1.8l-2.6,1.8l0,0c-0.2,0.2-0.6,0.1-0.7-0.1
	C61,19.9,61,19.8,61,19.7l0,0L60.8,16.5z M59.3,16.5L59,19.7l0,0c0,0.3-0.2,0.5-0.5,0.5c-0.1,0-0.2,0-0.3-0.1l0,0l-2.6-1.9
	c0.8-0.8,1.9-1.4,3-1.6C58.8,16.5,59,16.5,59.3,16.5L59.3,16.5z M60,11.8c-0.3,0-0.6,0.3-0.6,0.7l0,0v0.2c0,0.2,0,0.4,0.1,0.6
	c0.1,0.4,0.1,0.7,0.1,1.1c0,0.1-0.1,0.2-0.2,0.3v0.3c-0.4,0-0.7,0.1-1.1,0.2c-1.5,0.3-2.9,1.1-4,2.3L54,17.1c-0.1,0-0.2,0-0.4,0
	c-0.3-0.2-0.6-0.5-0.8-0.7c-0.1-0.1-0.2-0.3-0.4-0.4l-0.1-0.1c-0.1-0.1-0.3-0.1-0.4-0.2c-0.2,0-0.4,0.1-0.5,0.2
	c-0.2,0.3-0.1,0.7,0.2,0.9l0,0c0,0,0.1,0.1,0.1,0.1c0.2,0.1,0.3,0.2,0.5,0.3c0.3,0.2,0.6,0.4,0.9,0.6c0.1,0.1,0.1,0.2,0.1,0.4
	l0.2,0.2c-1.1,1.6-1.5,3.6-1.2,5.5l-0.3,0.1c-0.1,0.1-0.2,0.2-0.3,0.3c-0.4,0.1-0.7,0.1-1.1,0.2c-0.2,0-0.4,0-0.6,0h-0.2l0,0
	c-0.3,0.1-0.6,0.4-0.5,0.7c0.1,0.3,0.4,0.5,0.8,0.4l0,0h0.2c0.2-0.1,0.4-0.1,0.5-0.2c0.4-0.2,0.7-0.3,1.1-0.4c0.1,0,0.2,0.1,0.3,0.1
	h0.3c0.6,1.8,1.9,3.4,3.5,4.3l-0.1,0.3c0.1,0.1,0.1,0.2,0,0.3c-0.2,0.4-0.3,0.7-0.5,1c-0.1,0.2-0.2,0.3-0.3,0.5c0,0,0,0.1-0.1,0.2
	c-0.2,0.3,0,0.7,0.3,0.9c0.3,0.1,0.7,0,0.8-0.3c0,0,0,0,0,0l0,0l0.1-0.2c0.1-0.2,0.1-0.4,0.2-0.5c0.1-0.4,0.3-0.7,0.5-1.1
	c0.1-0.1,0.1-0.1,0.2-0.1l0.1-0.2c1.5,0.6,3,0.7,4.5,0.3c0.3-0.1,0.7-0.2,1-0.3l0.1,0.2c0.1,0,0.2,0.1,0.3,0.2
	c0.2,0.3,0.3,0.7,0.4,1c0.1,0.2,0.1,0.4,0.2,0.5s0.1,0.1,0.1,0.2c0.1,0.3,0.5,0.5,0.9,0.4c0.3-0.1,0.5-0.5,0.3-0.9
	c0-0.1,0-0.1-0.1-0.2c-0.1-0.2-0.2-0.3-0.3-0.5c-0.2-0.3-0.4-0.7-0.5-1c0-0.1,0-0.2,0-0.4c0,0-0.1-0.2-0.1-0.2
	c1.7-1,2.9-2.5,3.5-4.4h0.2c0.1-0.1,0.2-0.1,0.3-0.1c0.4,0.1,0.7,0.2,1.1,0.3c0.2,0.1,0.4,0.1,0.5,0.2h0.2l0,0
	c0.3,0.1,0.7-0.1,0.8-0.5c0.1-0.3-0.2-0.7-0.5-0.7h-0.2c-0.2,0-0.4,0-0.6,0c-0.4,0-0.7-0.1-1.1-0.2c-0.1,0-0.2-0.2-0.3-0.3l-0.2-0.1
	c0.1-0.9,0.1-1.8-0.1-2.7c-0.2-0.9-0.6-1.8-1.1-2.6l0.2-0.2c0-0.1,0-0.2,0.1-0.3c0.3-0.2,0.6-0.5,0.9-0.6c0.2-0.1,0.3-0.2,0.5-0.3
	l0.1-0.1c0.3-0.2,0.4-0.5,0.2-0.8c-0.2-0.3-0.5-0.4-0.8-0.2c-0.1,0-0.1,0.1-0.2,0.1c0,0-0.1,0.1-0.1,0.1c-0.1,0.1-0.3,0.3-0.4,0.4
	c-0.3,0.3-0.5,0.5-0.8,0.7c-0.1,0-0.2,0-0.4,0l-0.2,0.2c-1.3-1.4-3.1-2.2-5-2.4c0-0.1,0-0.2,0-0.3c-0.1-0.1-0.2-0.2-0.2-0.3
	c0-0.4,0-0.7,0.1-1.1c0-0.2,0.1-0.4,0.1-0.6v-0.2C60.6,12.1,60.3,11.8,60,11.8z"/>
<path class="st10" d="M60,25.6c0.1,0,0.2,0,0.2,0c0.1,0,0.2,0.1,0.2,0.2l0,0l1.5,2.8c-0.2,0.1-0.4,0.1-0.6,0.2
	c-1.1,0.3-2.3,0.2-3.4-0.2l1.5-2.8l0,0C59.6,25.7,59.8,25.6,60,25.6z M57.4,24.3c0.2,0,0.5,0.2,0.5,0.4c0,0.1,0,0.2,0,0.3l0,0
	l-1.3,3c-1.2-0.7-2-1.9-2.5-3.1l3.1-0.5L57.4,24.3L57.4,24.3z M62.7,24.3c0,0,0.1,0,0.1,0l0,0l3.1,0.5c-0.5,1.3-1.4,2.4-2.6,3.2
	l-1.2-3l0,0c-0.1-0.3,0-0.6,0.3-0.7C62.5,24.3,62.5,24.3,62.7,24.3L62.7,24.3z M59.5,21.7h1l0.6,0.8l-0.2,1L60,23.8l-0.9-0.4l-0.2-1
	L59.5,21.7z M65.4,19.4c0.4,0.6,0.6,1.2,0.8,1.9c0.1,0.7,0.2,1.3,0.1,2l-3.1-0.9l0,0c-0.3-0.1-0.4-0.4-0.4-0.6
	c0-0.1,0.1-0.2,0.2-0.3l0,0L65.4,19.4z M54.7,19.4l2.3,2.1l0,0c0.2,0.2,0.2,0.5,0.1,0.7c-0.1,0.1-0.2,0.2-0.3,0.2l0,0l-3,0.9
	C53.6,22,53.9,20.6,54.7,19.4L54.7,19.4z M60.8,16.5c1.4,0.2,2.6,0.8,3.6,1.8l-2.6,1.8l0,0c-0.2,0.2-0.6,0.1-0.7-0.1
	C61,19.9,61,19.8,61,19.7l0,0L60.8,16.5z M59.3,16.5L59,19.7l0,0c0,0.3-0.2,0.5-0.5,0.5c-0.1,0-0.2,0-0.3-0.1l0,0l-2.6-1.9
	c0.8-0.8,1.9-1.4,3-1.6C58.8,16.5,59,16.5,59.3,16.5L59.3,16.5z M60,11.8c-0.3,0-0.6,0.3-0.6,0.7l0,0v0.2c0,0.2,0,0.4,0.1,0.6
	c0.1,0.4,0.1,0.7,0.1,1.1c0,0.1-0.1,0.2-0.2,0.3v0.3c-0.4,0-0.7,0.1-1.1,0.2c-1.5,0.3-2.9,1.1-4,2.3L54,17.1c-0.1,0-0.2,0-0.4,0
	c-0.3-0.2-0.6-0.5-0.8-0.7c-0.1-0.1-0.2-0.3-0.4-0.4l-0.1-0.1c-0.1-0.1-0.3-0.1-0.4-0.2c-0.2,0-0.4,0.1-0.5,0.2
	c-0.2,0.3-0.1,0.7,0.2,0.9l0,0c0,0,0.1,0.1,0.1,0.1c0.2,0.1,0.3,0.2,0.5,0.3c0.3,0.2,0.6,0.4,0.9,0.6c0.1,0.1,0.1,0.2,0.1,0.4
	l0.2,0.2c-1.1,1.6-1.5,3.6-1.2,5.5l-0.3,0.1c-0.1,0.1-0.2,0.2-0.3,0.3c-0.4,0.1-0.7,0.1-1.1,0.2c-0.2,0-0.4,0-0.6,0h-0.2l0,0
	c-0.3,0.1-0.6,0.4-0.5,0.7c0.1,0.3,0.4,0.5,0.8,0.4l0,0h0.2c0.2-0.1,0.4-0.1,0.5-0.2c0.4-0.2,0.7-0.3,1.1-0.4c0.1,0,0.2,0.1,0.3,0.1
	h0.3c0.6,1.8,1.9,3.4,3.5,4.3l-0.1,0.3c0.1,0.1,0.1,0.2,0,0.3c-0.2,0.4-0.3,0.7-0.5,1c-0.1,0.2-0.2,0.3-0.3,0.5c0,0,0,0.1-0.1,0.2
	c-0.2,0.3,0,0.7,0.3,0.9c0.3,0.1,0.7,0,0.8-0.3c0,0,0,0,0,0l0,0l0.1-0.2c0.1-0.2,0.1-0.4,0.2-0.5c0.1-0.4,0.3-0.7,0.5-1.1
	c0.1-0.1,0.1-0.1,0.2-0.1l0.1-0.2c1.5,0.6,3,0.7,4.5,0.3c0.3-0.1,0.7-0.2,1-0.3l0.1,0.2c0.1,0,0.2,0.1,0.3,0.2
	c0.2,0.3,0.3,0.7,0.4,1c0.1,0.2,0.1,0.4,0.2,0.5s0.1,0.1,0.1,0.2c0.1,0.3,0.5,0.5,0.9,0.4c0.3-0.1,0.5-0.5,0.3-0.9
	c0-0.1,0-0.1-0.1-0.2c-0.1-0.2-0.2-0.3-0.3-0.5c-0.2-0.3-0.4-0.7-0.5-1c0-0.1,0-0.2,0-0.4c0,0-0.1-0.2-0.1-0.2
	c1.7-1,2.9-2.5,3.5-4.4h0.2c0.1-0.1,0.2-0.1,0.3-0.1c0.4,0.1,0.7,0.2,1.1,0.3c0.2,0.1,0.4,0.1,0.5,0.2h0.2l0,0
	c0.3,0.1,0.7-0.1,0.8-0.5c0.1-0.3-0.2-0.7-0.5-0.7h-0.2c-0.2,0-0.4,0-0.6,0c-0.4,0-0.7-0.1-1.1-0.2c-0.1,0-0.2-0.2-0.3-0.3l-0.2-0.1
	c0.1-0.9,0.1-1.8-0.1-2.7c-0.2-0.9-0.6-1.8-1.1-2.6l0.2-0.2c0-0.1,0-0.2,0.1-0.3c0.3-0.2,0.6-0.5,0.9-0.6c0.2-0.1,0.3-0.2,0.5-0.3
	l0.1-0.1c0.3-0.2,0.4-0.5,0.2-0.8c-0.2-0.3-0.5-0.4-0.8-0.2c-0.1,0-0.1,0.1-0.2,0.1c0,0-0.1,0.1-0.1,0.1c-0.1,0.1-0.3,0.3-0.4,0.4
	c-0.3,0.3-0.5,0.5-0.8,0.7c-0.1,0-0.2,0-0.4,0l-0.2,0.2c-1.3-1.4-3.1-2.2-5-2.4c0-0.1,0-0.2,0-0.3c-0.1-0.1-0.2-0.2-0.2-0.3
	c0-0.4,0-0.7,0.1-1.1c0-0.2,0.1-0.4,0.1-0.6v-0.2C60.6,12.1,60.3,11.8,60,11.8z"/>
<g>
	<path class="st0" d="M40.2,77.1v2.6h-1.5v-7.4h2.9c0.6,0,1,0.1,1.5,0.3c0.4,0.2,0.7,0.5,1,0.9c0.2,0.4,0.3,0.8,0.3,1.3
		c0,0.7-0.2,1.3-0.7,1.7c-0.5,0.4-1.2,0.6-2.1,0.6H40.2z M40.2,75.9h1.4c0.4,0,0.7-0.1,0.9-0.3c0.2-0.2,0.3-0.5,0.3-0.8
		c0-0.4-0.1-0.7-0.3-0.9c-0.2-0.2-0.5-0.3-0.9-0.3h-1.4V75.9z"/>
	<path class="st0" d="M48.1,77h-1.2v2.7h-1.5v-7.4h2.8c0.9,0,1.6,0.2,2,0.6c0.5,0.4,0.7,0.9,0.7,1.7c0,0.5-0.1,0.9-0.3,1.3
		c-0.2,0.3-0.6,0.6-1,0.8l1.6,3v0.1h-1.6L48.1,77z M46.9,75.8h1.2c0.4,0,0.7-0.1,0.9-0.3c0.2-0.2,0.3-0.5,0.3-0.8
		c0-0.4-0.1-0.6-0.3-0.8c-0.2-0.2-0.5-0.3-0.9-0.3h-1.2V75.8z"/>
	<path class="st0" d="M53.7,79.7h-1.5v-7.4h1.5V79.7z"/>
	<path class="st0" d="M57.1,72.3l1.9,5.4l1.9-5.4h2v7.4h-1.5v-2l0.2-3.5l-2,5.5h-1l-2-5.5l0.2,3.5v2h-1.5v-7.4H57.1z"/>
	<path class="st0" d="M68.4,78.2h-2.7l-0.5,1.5h-1.6l2.8-7.4h1.4l2.8,7.4h-1.6L68.4,78.2z M66.1,76.9H68l-0.9-2.8L66.1,76.9z"/>
	<path class="st0" d="M74,77h-1.2v2.7h-1.5v-7.4H74c0.9,0,1.6,0.2,2,0.6c0.5,0.4,0.7,0.9,0.7,1.7c0,0.5-0.1,0.9-0.3,1.3
		c-0.2,0.3-0.6,0.6-1,0.8l1.6,3v0.1h-1.6L74,77z M72.8,75.8H74c0.4,0,0.7-0.1,0.9-0.3c0.2-0.2,0.3-0.5,0.3-0.8
		c0-0.4-0.1-0.6-0.3-0.8c-0.2-0.2-0.5-0.3-0.9-0.3h-1.2V75.8z"/>
	<path class="st0" d="M80.2,75.6l1.5-3.3h1.7L81,77v2.7h-1.6V77L77,72.3h1.7L80.2,75.6z"/>
</g>
</svg>
