<svg width="60" height="60" viewBox="0 0 60 60" fill="none" xmlns="http://www.w3.org/2000/svg">
<path d="M30 58.3333C45.648 58.3333 58.3333 45.6481 58.3333 30C58.3333 14.3519 45.648 1.66667 30 1.66667C14.3519 1.66667 1.66663 14.3519 1.66663 30C1.66663 45.6481 14.3519 58.3333 30 58.3333Z" fill="white"/>
<path d="M30 60C13.4 60 0 46.6 0 30C0 13.4 13.4 0 30 0C46.6 0 60 13.4 60 30C60 46.5333 46.5333 60 30 60ZM30 3.33333C15.2667 3.33333 3.33333 15.2667 3.33333 30C3.33333 44.7333 15.2667 56.6667 30 56.6667C44.7333 56.6667 56.6667 44.7333 56.6667 30C56.6667 15.2667 44.7333 3.33333 30 3.33333Z" fill="#F04E23"/>
<path d="M10.357 8L8 10.357L48.7761 51.1331L51.1331 48.7761L10.357 8Z" fill="#F04E23"/>
<path fill-rule="evenodd" clip-rule="evenodd" d="M37.4 40.9333L36.2667 42.1333L35.8 42L28.5334 34.8C28.4 34.6 28.1334 34.6 27.9334 34.8C27.8 35 27.8 35.2667 27.9334 35.4L35.2667 42.8L36.4667 43.0667L38.1334 41.4L37.4 40.9333Z" fill="#4B5665"/>
<path fill-rule="evenodd" clip-rule="evenodd" d="M28 34.2L30.8 31.3333L31.9333 31.9333L33.0667 33.1333L33.4667 32.3333L32.4667 31.2667L31 30.4667C31 30.1333 30.8667 29.8667 30.6667 29.6L29.9333 28.8C29.4667 28.2667 28.6 28.2667 28.1333 28.7333L27.3333 29.6L18.7333 20.9333V19.1333L15.9333 17.3333L14.5333 18.8L15.9333 21.2C16 21.4 16.2667 21.4667 16.4667 21.3333C16.6667 21.2 16.7333 20.9333 16.6 20.7333L15.5333 18.8667L16 18.3333L17.8667 19.5333V21.2L26.6667 30.2L25.4667 31.4C25 31.9333 25 32.7333 25.4667 33.2667L26.1333 33.9333L26.7333 33.3333L26.0667 32.6667C25.8667 32.4667 25.8667 32.2 26.0667 32L28.6667 29.4C28.8 29.2 29.1333 29.2 29.2667 29.4667L30 30.2667C30.0667 30.4 30.1333 30.4667 30.1333 30.6C30.1333 30.7333 30.1333 30.8667 30 30.9333L27.3333 33.6C27.2 33.8 27.2 34.0667 27.3333 34.2C27.6 34.4 27.8667 34.4 28 34.2Z" fill="#4B5665"/>
<path fill-rule="evenodd" clip-rule="evenodd" d="M40.1333 37.6667C39.9333 37.6667 39.7333 37.4667 39.7333 37.2667C39.7333 37.0667 39.9333 36.8667 40.1333 36.8667C41.3333 36.8667 42.3333 35.8667 42.3333 34.6667C42.3333 33.4667 41.4 32.4667 40.1333 32.4667C38.9333 32.4667 37.9333 33.4667 37.9333 34.6667C37.9333 34.9333 37.7333 35.0667 37.5333 35.0667C37.3333 35.0667 37.1333 34.8667 37.1333 34.6667C37.1333 33 38.5333 31.6667 40.1333 31.6667C41.8 31.6667 43.1333 33.0667 43.1333 34.6667C43.1333 36.2667 41.8 37.6667 40.1333 37.6667Z" fill="#4B5665"/>
<path fill-rule="evenodd" clip-rule="evenodd" d="M39.4667 38.4C39.4667 38.4 39.6667 38.4667 40.4 38.5333L40.5333 38.6L40.6 38.7333C40.6667 38.8667 40.7333 39 40.8667 39.2667C40.8667 39.3333 40.9333 39.4 40.9333 39.4667L41.8 39.2C41.8 39.1333 41.8 39.0667 41.8 39C41.8 38.6667 41.8 38.4667 41.8 38.3333V38.1333L41.9333 38C42.1333 37.8667 42.4 37.6667 42.6 37.4L42.7333 37.2L43 37.2667C43.2 37.3333 43.4667 37.4 43.6667 37.4667C43.8667 37.0667 44 36.8 44.0667 36.6C44 36.5333 44 36.4667 43.9333 36.4667C43.7333 36.2667 43.6667 36.1333 43.6 36.1333L43.4 35.9333L43.5333 35.6C43.5333 35.6 43.5333 35.4667 43.6 35.2C43.6 34.8 43.6667 34.6 43.6667 34.5333L43.7333 34.3333L43.8667 34.2667C43.9333 34.2 44.0667 34.1333 44.2 34.0667C44.2667 34 44.2667 34 44.3333 33.9333L44.0667 33C44 33 43.9333 33 43.8667 33C43.7333 33 43.6 33 43.5333 33.0667C43.2667 33.2 43.0667 32.9333 42.8667 32.6667C42.8 32.4667 42.6 32.2667 42.4 31.9333L42.2667 31.7333L42.3333 31.5333C42.3333 31.4 42.4 31.1333 42.4667 30.8667C42.3333 30.8 42.2 30.7333 42.0667 30.6C42.2 30.7333 42.0667 30.6667 42 30.6667C42 30.7333 41.9333 30.8 41.8667 30.8667C41.7333 31.0667 41.6 31.2 41.4 31.3333L41.3333 31.4L41.1333 31.3333C41.1333 31.2667 41 31.2667 40.7333 31.2667C40.4667 31.2 40.2667 31.2 40.2 31.2L40 31.1333L39.9333 30.9333C39.8 30.6 39.6667 30.4667 39.6 30.3333L38.7333 30.6C38.7333 30.6667 38.7333 30.7333 38.7333 30.8C38.7333 31.1333 38.7333 31.3333 38.7333 31.4V31.7333L38.4667 31.8667C38.4667 31.8667 38.3333 32 37.7333 32.4667L37.5333 32.6667L37.3333 32.5333C37.2 32.4667 36.9333 32.4 36.6667 32.3333C36.4667 32.7333 36.3333 33 36.2667 33.2C36.4 33.3333 36.5333 33.4667 36.8 33.7333L36.9333 33.9333L36.8667 34.2C36.8667 34.2667 36.8 34.4 36.8 34.6667C36.8 35.0667 36.7333 35.2 36.7333 35.2667L36.6667 35.5333L36.4667 35.6667C36.4 35.7333 36.2667 35.8 36.1333 35.8667C36.0667 35.9333 36.0667 35.9333 36 36L36.2667 36.9333C36.3333 36.9333 36.4 36.9333 36.4667 36.9333C36.6667 36.9333 36.8 36.8667 36.9333 36.8667L37.2 36.8L37.3333 37.1333C37.4 37.2667 37.4667 37.4 37.6 37.5333C37.8667 37.8667 37.9333 37.9333 37.9333 38L38 38.2V38.4C37.9333 38.7333 37.8667 38.9333 37.8667 39.1333C38.2667 39.4 38.5333 39.5333 38.6667 39.6C38.6667 39.5333 38.7333 39.4667 38.8 39.4667C38.9333 39.2667 39.1333 39.1333 39.2667 39L39.4 38.8667H39.4667V38.4ZM40.8 40.3333L40.6 40.1333C40.5333 40 40.4 39.8667 40.2667 39.6C40.2 39.4667 40.2 39.4 40.1333 39.3333C39.8 39.2667 39.6 39.2667 39.4667 39.2C39.4 39.2667 39.3333 39.3333 39.2667 39.4C39.1333 39.6 39 39.7333 38.8667 39.8L38.6667 40L38.4667 39.9333C38.3333 39.8667 38.0667 39.7333 37.0667 39.2L36.8667 39.0667V38.8C36.8667 38.6667 36.8667 38.4667 37 37.8667C37 37.8 36.9333 37.7333 36.8 37.6C36.7333 37.4667 36.6667 37.4 36.6 37.2667C36.5333 37.2667 36.4 37.2667 36.3333 37.2667C36.0667 37.2667 35.9333 37.2667 35.8667 37.2667L35.5333 37.3333L34.9333 35.1333L35.2 34.9333C35.2667 34.8667 35.4 34.8 35.6 34.6667C35.6667 34.6 35.8 34.5333 35.8667 34.4667C35.8667 34.4 35.8667 34.2667 35.8667 34.1333C35.8667 34 35.8667 33.8667 35.9333 33.7333C35.6 33.4 35.4667 33.2667 35.4667 33.2667L35.1333 33.3333L35.2 33C35.2 32.8667 35.3333 32.6 35.9333 31.4667L36.0667 31.2L36.3333 31.2667C36.6667 31.3333 36.9333 31.4 37.2 31.4667C37.4 31.2667 37.6 31.1333 37.7333 31.0667C37.7333 31 37.7333 30.8667 37.7333 30.7333C37.7333 30.4667 37.7333 30.3333 37.7333 30.1333V29.8L39.7333 29.2L39.8667 29.4667C39.9333 29.5333 40 29.7333 40.3333 30.2C40.4 30.2 40.5333 30.2 40.6 30.2667C40.7333 30.2667 40.8667 30.3333 41 30.3333C41 30.2667 41.0667 30.2 41.1333 30.1333C41.3333 29.9333 41.4667 29.8 41.5333 29.6667L41.6667 29.5333L41.8667 29.6C42.0667 29.6667 42.3333 29.8 42.6667 30C43 30.2 43.2 30.3333 43.2667 30.3333L43.6 30.4667L43.5333 30.8C43.4667 31.2 43.4 31.4667 43.3333 31.6667C43.5333 31.9333 43.6 32.1333 43.7333 32.2C43.8 32.2 43.9333 32.2 44.0667 32.2C44.2667 32.2 44.4667 32.2 44.5333 32.2L44.8667 32.1333L45.4667 34.3333L45.2 34.5333C45.1333 34.6 45 34.6667 44.8 34.8C44.7333 34.8667 44.6 34.9333 44.5333 35C44.5333 35.0667 44.5333 35.2 44.5333 35.3333C44.5333 35.4667 44.5333 35.6 44.5333 35.7333C44.6 35.8 44.6 35.8667 44.7333 35.9333C44.8667 36.0667 44.9333 36.2 45.0667 36.2667L45.2667 36.4667L45.4667 36.6667C45.4667 36.8 45.3333 37.0667 44.7333 38.1333L44.6 38.4L44.3333 38.3333C44.0667 38.2667 43.8 38.2 43.5333 38.1333C43.4 38.3333 43.2 38.4667 43 38.6C43 38.6667 43 38.7333 43 38.8667C43 39.2667 43 39.4667 43 39.5333V39.8L40.8 40.3333Z" fill="#4B5665"/>
<path fill-rule="evenodd" clip-rule="evenodd" d="M39.8667 19.6667L39.6667 19.0667L37.4667 21.2667L36.2667 20.9333L35.9334 19.7333L38.1334 17.5333L37.4667 17.3333C35.8667 16.7333 34.0667 17.0667 32.8667 18.2667C31.7334 19.4 31.3334 21.1333 31.8667 22.6L26.8667 27.5333L27.4667 28.1333L32.8667 22.8L32.8 22.5333C32.2667 21.2667 32.6 19.8 33.5334 18.8C34.3334 18 35.4667 17.6667 36.6 17.8667L35 19.4667L35.5334 21.6L37.6667 22.1333L39.2667 20.5333C39.4667 21.6 39.1334 22.8 38.3334 23.6C37.3334 24.6 35.8667 24.8667 34.6 24.3333L34.3334 24.2667L30.6 28L31.1334 28.6L34.5334 25.2C36.0667 25.7333 37.7334 25.3333 38.9334 24.2C40.1334 23.0667 40.4667 21.2667 39.8667 19.6667Z" fill="#4B5665"/>
<path fill-rule="evenodd" clip-rule="evenodd" d="M24.8667 33.6667L21.4667 37.1333L21.5333 37.4C22.0667 38.6667 21.7333 40.1333 20.8 41.2C20 42 18.8667 42.3333 17.7333 42.1333L19.3333 40.5333L18.8 38.4L16.6667 37.8L15.0667 39.3333C14.8667 38.2 15.2 37.0667 16 36.2C17 35.2 18.4667 34.9333 19.7333 35.4667L20 35.6L25.2667 30.2667L24.6667 29.6667L19.7333 34.6667C18.2 34.1333 16.5333 34.5333 15.4 35.6667C14.2 36.8667 13.8 38.7333 14.4667 40.3333L14.6667 40.9333L16.8667 38.7333L18.0667 39.0667L18.4 40.2667L16.2 42.4667L16.8 42.6667C17.3333 42.8667 17.8667 43 18.4 43C19.4667 43 20.6 42.6 21.4 41.7333C22.5333 40.5333 22.9333 38.8667 22.4 37.3333L25.4667 34.2667L24.8667 33.6667Z" fill="#4B5665"/>
</svg>
