<svg width="60" height="60" viewBox="0 0 60 60" fill="none" xmlns="http://www.w3.org/2000/svg">
<path d="M30.0001 58.3333C45.6481 58.3333 58.3334 45.6481 58.3334 30C58.3334 14.3519 45.6481 1.66667 30.0001 1.66667C14.352 1.66667 1.66675 14.3519 1.66675 30C1.66675 45.6481 14.352 58.3333 30.0001 58.3333Z" fill="white"/>
<path d="M30 60C13.4 60 0 46.6 0 30C0 13.4 13.4 0 30 0C46.6 0 60 13.4 60 30C60 46.5333 46.5333 60 30 60ZM30 3.33333C15.2667 3.33333 3.33333 15.2667 3.33333 30C3.33333 44.7333 15.2667 56.6667 30 56.6667C44.7333 56.6667 56.6667 44.7333 56.6667 30C56.6667 15.2667 44.7333 3.33333 30 3.33333Z" fill="#F04E23"/>
<path d="M10.7755 7.07354L8.41846 9.43054L49.1946 50.2066L51.5516 47.8496L10.7755 7.07354Z" fill="#F04E23"/>
<path fill-rule="evenodd" clip-rule="evenodd" d="M34.5999 21C31.7999 21 29.3332 22.8667 28.2666 25.6C27.5332 25.2667 26.7332 25.0667 25.8666 25.0667H25.7332C22.9999 25.0667 20.5999 27 19.9999 29.7333C19.5999 29.6 19.2666 29.6 18.8666 29.6H18.7332C16.1999 29.6 14.1999 31.6 14.0666 34.1333C13.9999 36.6667 16.3332 39.0667 18.9332 39.1333H19.4666C22.5332 39.1333 37.1999 39.0667 40.2666 39.0667H40.9332C43.5332 39.0667 45.6666 36.6 45.7999 33.6C45.8666 30.6 43.9332 28.1333 41.3999 27.8667C41.0666 24.1333 38.2666 21.2 34.7332 21.1333L34.5999 21ZM34.5999 21.8H34.7332C37.7332 21.8667 40.2666 24.4667 40.5999 27.8L40.6666 28.4667L41.3332 28.5333C43.4666 28.7333 45.0666 30.8667 44.9999 33.4C44.9332 35.9333 43.1332 38.0667 40.9999 38.0667H40.3332C38.7999 38.0667 34.3332 38.0667 29.9999 38.0667C25.6666 38.0667 21.1332 38.0667 19.5332 38.0667H18.9999C16.8666 38 14.9332 36 14.9332 33.9333C14.9999 31.8667 16.6666 30.2 18.7332 30.2H18.7999C19.1332 30.2 19.4666 30.2667 19.7332 30.3333L20.6666 30.6667L20.8666 29.8C21.3332 27.4667 23.3999 25.8667 25.7332 25.8H25.8666C26.5999 25.8 27.2666 26 27.8666 26.2667L28.6666 26.6667L28.9999 25.8C29.9999 23.4 32.1999 21.8 34.5999 21.8Z" fill="#4B5665"/>
</svg>
