<svg width="60" height="60" viewBox="0 0 60 60" fill="none" xmlns="http://www.w3.org/2000/svg">
<path d="M30.0001 58.3333C45.6481 58.3333 58.3334 45.6481 58.3334 30C58.3334 14.3519 45.6481 1.66666 30.0001 1.66666C14.352 1.66666 1.66675 14.3519 1.66675 30C1.66675 45.6481 14.352 58.3333 30.0001 58.3333Z" fill="white"/>
<path d="M30 60C13.4 60 0 46.6 0 30C0 13.4 13.4 0 30 0C46.6 0 60 13.4 60 30C60 46.5333 46.5333 60 30 60ZM30 3.33333C15.2667 3.33333 3.33333 15.2667 3.33333 30C3.33333 44.7333 15.2667 56.6667 30 56.6667C44.7333 56.6667 56.6667 44.7333 56.6667 30C56.6667 15.2667 44.7333 3.33333 30 3.33333Z" fill="#F04E23"/>
<path d="M10.7808 7.05813L8.42383 9.41513L49.1999 50.1912L51.5569 47.8342L10.7808 7.05813Z" fill="#F04E23"/>
<path fill-rule="evenodd" clip-rule="evenodd" d="M24.8666 45H44.8666V15H24.5333L15.1999 25.4V34.7333L24.8666 45ZM45.6666 45.8667H24.5333L14.3333 35V25.0667L24.1333 14.1333H45.6666V45.8667Z" fill="#4B5665"/>
<path fill-rule="evenodd" clip-rule="evenodd" d="M31.6665 20.6667C31.6665 22.0667 30.5332 23.2 29.1332 23.2C27.7332 23.2 26.5999 22.0667 26.5999 20.6667C26.5999 19.2667 27.7332 18.2 29.1332 18.2C30.5332 18.1333 31.6665 19.2667 31.6665 20.6667Z" fill="#4B5665"/>
<path fill-rule="evenodd" clip-rule="evenodd" d="M31.6665 30.6667C31.6665 32.0667 30.5332 33.2 29.1332 33.2C27.7332 33.2 26.5999 32.0667 26.5999 30.6667C26.5999 29.2667 27.7332 28.1333 29.1332 28.1333C30.5332 28.1333 31.6665 29.2667 31.6665 30.6667Z" fill="#4B5665"/>
<path fill-rule="evenodd" clip-rule="evenodd" d="M22 30.6667C22 32.0667 20.8667 33.1333 19.5333 33.1333C18.1333 33.1333 17 32 17 30.6667C17 29.2667 18.1333 28.1333 19.5333 28.1333C20.8667 28.1333 22 29.2667 22 30.6667Z" fill="#4B5665"/>
<path fill-rule="evenodd" clip-rule="evenodd" d="M31.6665 40.3333C31.6665 41.7333 30.5332 42.8667 29.1332 42.8667C27.7332 42.8667 26.5999 41.7333 26.5999 40.3333C26.5999 38.9333 27.7332 37.8667 29.1332 37.8667C30.5332 37.8 31.6665 38.9333 31.6665 40.3333Z" fill="#4B5665"/>
<path d="M26.3786 23.6135L22.5603 27.4318L23.126 27.9975L26.9443 24.1791L26.3786 23.6135Z" fill="#4B5665"/>
<path d="M23.116 33.4968L22.5503 34.0625L26.3686 37.8808L26.9343 37.3151L23.116 33.4968Z" fill="#4B5665"/>
<path d="M26.3333 30.1333H23.3333V30.8H26.3333V30.1333Z" fill="#4B5665"/>
<path fill-rule="evenodd" clip-rule="evenodd" d="M39.1333 23.1333L43 20.8L39.1333 18.4667V19.9333H33V21.6667H39.1333V23.1333Z" fill="#4B5665"/>
<path fill-rule="evenodd" clip-rule="evenodd" d="M39.1333 29.6H33V31.3333H39.1333V32.8L43 30.4667L39.1333 28.1333V29.6Z" fill="#4B5665"/>
<path fill-rule="evenodd" clip-rule="evenodd" d="M39.1333 39.5333H33V41.1333H39.1333V42.4667L43 40.3333L39.1333 38.1333V39.5333Z" fill="#4B5665"/>
</svg>
