<svg width="142" height="142" viewBox="0 0 142 142" fill="none" xmlns="http://www.w3.org/2000/svg">
<rect width="142" height="142" fill="white"/>
<path d="M21.7494 77.6537H23.2652C24.1533 76.5003 25.1799 75.459 26.322 74.5529H20.7642C17.3536 74.4273 14.0694 71.1633 14.1957 67.8992C14.2446 66.328 14.9029 64.8365 16.033 63.7367C17.1631 62.637 18.6773 62.0142 20.2589 61.9988H20.3852C20.8989 62.0208 21.4079 62.1051 21.901 62.2498L25.1852 63.1286L25.9431 59.8646C26.3437 57.9808 27.3723 56.2865 28.8624 55.0562C30.3525 53.8258 32.2169 53.1314 34.1536 53.0853H34.4063C35.5866 53.069 36.7545 53.327 37.8168 53.8386L40.8484 55.3451L42.1115 52.2066C42.7761 50.1768 44.0547 48.4004 45.7729 47.1197C47.491 45.839 49.5649 45.1165 51.7115 45.0507H51.9642C57.2694 45.1762 61.5642 49.6957 62.1957 55.5962L62.322 56.4749C63.1499 55.4234 64.0808 54.4562 65.101 53.5875C63.7115 47.0594 58.5326 42.1633 52.0905 42.0377H51.7115C46.0273 42.0377 41.2273 45.804 39.0799 51.2022C37.6401 50.4471 36.0342 50.0589 34.4063 50.0724H34.1536C31.4893 50.0752 28.9067 50.9868 26.8374 52.6549C24.7682 54.323 23.3377 56.6464 22.7852 59.2369C22.0388 59.0504 21.2784 58.9245 20.5115 58.8602H20.2589C17.837 58.8665 15.5143 59.8169 13.79 61.5071C12.0657 63.1974 11.0775 65.4925 11.0378 67.8992C11.0876 70.4499 12.1038 72.8881 13.8835 74.7267C15.6631 76.5653 18.0752 77.6688 20.6378 77.8169C20.9935 77.6886 21.3716 77.633 21.7494 77.6537V77.6537Z" fill="#0091DA"/>
<path d="M123.585 64.0953C122.954 57.8182 118.28 52.9221 112.343 52.671H112.091C109.715 52.7218 107.412 53.4952 105.492 54.8869C103.572 56.2786 102.128 58.2218 101.354 60.4546C100.167 59.8989 98.8756 59.5994 97.5642 59.5758C98.1736 60.6568 98.681 61.7915 99.08 62.9654C99.3326 63.0909 99.7116 63.0909 99.9642 63.2165L102.996 64.723L104.259 61.5844C104.811 59.9637 105.841 58.5458 107.215 57.5156C108.59 56.4855 110.245 55.8909 111.964 55.8095H112.217C116.385 55.9351 119.922 59.5758 120.427 64.3463L120.68 66.9827L123.333 67.2338C125.985 67.4849 128.006 70.2468 127.88 73.6364C127.754 77.026 125.606 79.7879 122.827 79.7879H111.838C112.078 80.8215 112.246 81.8701 112.343 82.9264H122.827C127.248 82.9264 130.912 78.7836 131.038 73.6364C131.164 68.4892 127.728 64.5095 123.585 64.0953Z" fill="#0091DA"/>
<path d="M78.8441 54.4663H79.2231C86.9284 54.5918 93.3704 61.2455 94.1283 69.9078L94.381 72.5442L97.0336 72.7953C102.213 73.2975 106.255 78.6957 106.002 84.9728C105.876 91.5009 101.455 96.7736 96.1494 96.7736H94.381C90.2126 96.7736 78.0862 96.7736 66.3389 96.8992C54.5915 97.0247 42.3389 97.0247 38.1705 97.0247H36.781C31.4757 96.8992 26.6757 91.8775 26.802 86.8559C26.864 84.4231 27.8726 82.1088 29.6157 80.3998C31.3589 78.6907 33.7009 77.7199 36.1494 77.6914H36.402C37.1763 77.6835 37.9459 77.811 38.6757 78.068L41.9599 78.9468L42.7178 75.6827C43.3304 72.8621 44.889 70.332 47.1382 68.5072C49.3873 66.6824 52.1935 65.6712 55.0968 65.6394H55.3494C57.1081 65.6682 58.8367 66.0977 60.402 66.8949L63.4336 68.4013L64.6968 65.2628C67.0968 58.4836 72.6547 54.4663 78.8441 54.4663V54.4663ZM78.8441 51.3278C71.1389 51.3278 64.5705 56.4749 61.6652 63.7563C59.6557 62.7887 57.4559 62.2743 55.2231 62.2498H54.8441C51.2106 62.247 47.6885 63.4967 44.8784 65.786C42.0682 68.0753 40.1439 71.2624 39.4336 74.8039C38.401 74.5476 37.3401 74.4211 36.2757 74.4273H36.0231C32.7478 74.4202 29.601 75.693 27.2616 77.9711C24.9221 80.2493 23.5775 83.3502 23.5178 86.6048C23.6079 90.075 25.0098 93.3842 27.4442 95.8735C29.8786 98.3628 33.167 99.8495 36.6547 100.038H38.1705C46.5073 100.038 86.1705 99.9122 94.381 99.9122H96.0231C103.097 99.9122 108.907 93.2585 109.034 85.0983C109.16 76.9381 103.981 70.2845 97.1599 69.6568C96.2757 59.6135 88.5705 51.7044 79.0968 51.4533C79.0968 51.3278 78.9705 51.3278 78.8441 51.3278V51.3278Z" fill="#1D428A"/>
</svg>
