<svg width="341" height="122" viewBox="0 0 341 122" fill="none" xmlns="http://www.w3.org/2000/svg">
<path d="M82.33 57.45L87.03 62.23H62.02V64.52H86.99L82.34 69.18L83.95 70.79L91.41 63.32L83.95 55.84L82.33 57.45Z" fill="#218FCF"/>
<path d="M188.96 63.32L181.5 55.84L179.88 57.45L184.58 62.23H159.57V64.52H184.54L179.89 69.18L181.5 70.79L188.96 63.32Z" fill="#218FCF"/>
<path d="M277.05 45.08H263.55V80.58H277.05" stroke="#7E8C93" stroke-width="0.75" stroke-miterlimit="10" stroke-dasharray="2 1"/>
<path d="M231.7 63.08H263.55" stroke="#7E8C93" stroke-width="0.75" stroke-miterlimit="10" stroke-dasharray="2 1"/>
<path d="M263.89 56.63H278.05" stroke="#7E8C93" stroke-width="0.75" stroke-miterlimit="10" stroke-dasharray="2 1"/>
<path d="M263.89 68.74H278.05" stroke="#7E8C93" stroke-width="0.75" stroke-miterlimit="10" stroke-dasharray="2 1"/>
<path d="M23.65 36.37V37.53H26.13V38.33H23.65V39.58H26.4V40.38H22.78V35.57H26.4V36.37H23.65Z" fill="#495565"/>
<path d="M30.0599 36.85C30.2649 36.9667 30.4316 37.1404 30.5399 37.35C30.6592 37.5708 30.7178 37.8192 30.7099 38.07V40.38H29.8799V38.24C29.8891 38.0205 29.814 37.8058 29.6699 37.64C29.6037 37.5619 29.5208 37.4998 29.4273 37.4583C29.3338 37.4167 29.2322 37.3968 29.1299 37.4C28.8984 37.3947 28.6735 37.4768 28.4999 37.63C28.4183 37.6987 28.3527 37.7844 28.3078 37.8812C28.2629 37.9779 28.2397 38.0833 28.2399 38.19V40.38H27.3899V36.76H28.2399V37.25C28.3618 37.0754 28.5227 36.9316 28.7099 36.83C28.9111 36.7267 29.1337 36.6719 29.3599 36.67C29.6053 36.6653 29.8473 36.7275 30.0599 36.85Z" fill="#495565"/>
<path d="M35.2999 35.48V40.38H34.4499V39.8C34.316 40.0078 34.1297 40.1768 33.9099 40.29C33.6866 40.4025 33.4399 40.4607 33.1899 40.46C32.8893 40.4635 32.5942 40.3802 32.3399 40.22C32.0781 40.0564 31.8696 39.8201 31.7399 39.54C31.6016 39.2335 31.53 38.9012 31.53 38.565C31.53 38.2288 31.6016 37.8964 31.7399 37.59C31.8698 37.3126 32.0784 37.0796 32.3399 36.92C32.5716 36.7694 32.8393 36.6836 33.1153 36.6712C33.3914 36.6589 33.6657 36.7206 33.9099 36.85C34.1293 36.9592 34.3157 37.1249 34.4499 37.33V35.48H35.2999ZM34.1499 39.4C34.3487 39.1664 34.4522 38.8665 34.4399 38.56C34.4517 38.2566 34.3481 37.96 34.1499 37.73C34.061 37.6235 33.9491 37.5385 33.8227 37.4813C33.6963 37.4242 33.5586 37.3964 33.4199 37.4C33.2781 37.3948 33.1369 37.4218 33.007 37.479C32.8771 37.5361 32.7619 37.6219 32.6699 37.73C32.4644 37.9563 32.3566 38.2546 32.3699 38.56C32.3561 38.8684 32.4638 39.17 32.6699 39.4C32.7619 39.508 32.8771 39.5938 33.007 39.651C33.1369 39.7082 33.2781 39.7352 33.4199 39.73C33.5586 39.7336 33.6963 39.7058 33.8227 39.6486C33.9491 39.5915 34.061 39.5065 34.1499 39.4Z" fill="#495565"/>
<path d="M39.4599 40.19C39.142 40.0108 38.8792 39.7479 38.6999 39.43C38.5172 39.0925 38.4242 38.7138 38.4299 38.33V35.57H39.2999V38.3C39.2998 38.5456 39.3544 38.7882 39.4599 39.01C39.5594 39.2128 39.715 39.3828 39.9082 39.4998C40.1014 39.6168 40.3241 39.6759 40.5499 39.67C40.7778 39.6717 41.0021 39.6131 41.1999 39.5C41.3884 39.3797 41.5405 39.2103 41.6399 39.01C41.7504 38.7899 41.8053 38.5462 41.7999 38.3V35.57H42.6699V38.33C42.6757 38.7138 42.5827 39.0925 42.3999 39.43C42.2234 39.7466 41.9642 40.0093 41.6499 40.19C41.313 40.374 40.9338 40.4671 40.5499 40.46C40.1693 40.4667 39.7935 40.3736 39.4599 40.19Z" fill="#495565"/>
<path d="M44.23 40.32C43.9604 40.2273 43.7072 40.0922 43.48 39.92L43.85 39.36C44.0398 39.4991 44.2486 39.6102 44.47 39.69C44.6682 39.7643 44.8783 39.8016 45.09 39.8C45.2478 39.8117 45.4053 39.7732 45.54 39.69C45.5914 39.6592 45.6334 39.615 45.6616 39.5622C45.6898 39.5093 45.703 39.4498 45.7 39.39C45.7016 39.3293 45.6855 39.2695 45.6535 39.218C45.6215 39.1664 45.5751 39.1254 45.52 39.1C45.3349 39.0089 45.1404 38.9385 44.94 38.89C44.6942 38.8284 44.4536 38.7481 44.22 38.65C44.0554 38.5801 43.9111 38.4701 43.8 38.33C43.6953 38.1773 43.6427 37.995 43.65 37.81C43.6478 37.6009 43.7069 37.3958 43.82 37.22C43.9423 37.0431 44.1122 36.9044 44.31 36.82C44.5318 36.7156 44.7749 36.6642 45.02 36.67C45.2616 36.6716 45.5013 36.7121 45.73 36.79C45.9668 36.8659 46.1921 36.9735 46.4 37.11L46.07 37.68C45.9014 37.5714 45.72 37.484 45.53 37.42C45.366 37.3627 45.1937 37.3323 45.02 37.33C44.8765 37.3222 44.7338 37.357 44.61 37.43C44.5608 37.4607 44.5203 37.5034 44.4923 37.5542C44.4643 37.605 44.4497 37.662 44.45 37.72C44.4459 37.7559 44.451 37.7922 44.4651 37.8255C44.4791 37.8588 44.5014 37.8879 44.53 37.91C44.5916 37.9656 44.6627 38.0096 44.74 38.04L45.22 38.19C45.4447 38.2525 45.6651 38.3293 45.88 38.42C46.051 38.4883 46.1998 38.6025 46.31 38.75C46.4355 38.9089 46.4994 39.1077 46.49 39.31C46.4975 39.4711 46.466 39.6316 46.3981 39.7779C46.3302 39.9241 46.2279 40.0518 46.1 40.15C45.8116 40.364 45.4589 40.4733 45.1 40.46C44.8043 40.4606 44.5105 40.4133 44.23 40.32Z" fill="#495565"/>
<path d="M49.51 39.67C49.6919 39.6189 49.8596 39.5265 50 39.4L50.5 39.9C50.3123 40.0805 50.0869 40.2172 49.84 40.3C49.5793 40.405 49.301 40.4593 49.02 40.46C48.688 40.4626 48.3609 40.38 48.07 40.22C47.7845 40.0575 47.5466 39.8231 47.38 39.54C47.2031 39.2369 47.1131 38.8909 47.12 38.54C47.108 38.1899 47.1946 37.8434 47.37 37.54C47.5266 37.2587 47.7587 37.0267 48.04 36.87C48.3262 36.7061 48.6502 36.6199 48.98 36.62C49.2267 36.6098 49.4725 36.6569 49.698 36.7575C49.9236 36.8581 50.1228 37.0096 50.28 37.2C50.62 37.65 50.7868 38.2072 50.75 38.77H47.95C47.9784 39.0351 48.1029 39.2806 48.3 39.46C48.4894 39.6375 48.7405 39.7343 49 39.73C49.1721 39.738 49.3444 39.7177 49.51 39.67ZM48.28 37.6C48.0871 37.7689 47.9567 37.9979 47.91 38.25H49.91C49.8796 38.0085 49.7707 37.7836 49.6 37.61C49.5173 37.5251 49.4175 37.4588 49.3071 37.4157C49.1967 37.3726 49.0783 37.3536 48.96 37.36C48.7114 37.3527 48.4689 37.4382 48.28 37.6Z" fill="#495565"/>
<path d="M52.92 36.88C53.1553 36.7386 53.4255 36.6658 53.7001 36.67V37.4C53.3577 37.3854 53.0223 37.4996 52.76 37.72C52.639 37.8204 52.5434 37.9478 52.4808 38.092C52.4183 38.2362 52.3906 38.3931 52.4001 38.55V40.38H51.55V36.76H52.4001V37.44C52.5181 37.2088 52.6981 37.0149 52.92 36.88Z" fill="#495565"/>
<path d="M55 40.32C54.7304 40.2273 54.4772 40.0923 54.25 39.92L54.61 39.36C54.8011 39.4971 55.0096 39.608 55.23 39.69C55.4284 39.7635 55.6384 39.8007 55.85 39.8C56.0078 39.8118 56.1654 39.7733 56.3 39.69C56.3525 39.6597 56.396 39.6159 56.4259 39.5632C56.4557 39.5104 56.471 39.4507 56.47 39.39C56.4708 39.3283 56.4532 39.2677 56.4193 39.216C56.3855 39.1643 56.337 39.1239 56.28 39.1C56.0957 39.0073 55.901 38.9368 55.7 38.89C55.457 38.8302 55.2195 38.7499 54.99 38.65C54.8255 38.5801 54.6811 38.4701 54.57 38.33C54.4583 38.1803 54.4018 37.9966 54.41 37.81C54.4063 37.5993 54.4693 37.3928 54.59 37.22C54.7062 37.0415 54.8734 36.9021 55.07 36.82C55.2922 36.7167 55.535 36.6654 55.78 36.67C56.0217 36.67 56.2617 36.7106 56.49 36.79C56.7299 36.8659 56.9586 36.9735 57.17 37.11L56.83 37.68C56.6649 37.5716 56.4868 37.4843 56.3 37.42C56.1325 37.3627 55.957 37.3323 55.78 37.33C55.6366 37.324 55.4945 37.3587 55.37 37.43C55.3221 37.462 55.2825 37.5051 55.2547 37.5555C55.2268 37.606 55.2115 37.6624 55.21 37.72C55.2084 37.7557 55.2147 37.7912 55.2286 37.8241C55.2424 37.8569 55.2634 37.8863 55.29 37.91C55.3538 37.9677 55.4287 38.0119 55.51 38.04L55.98 38.19C56.2052 38.2509 56.4258 38.3278 56.64 38.42C56.8125 38.4906 56.964 38.6042 57.08 38.75C57.2055 38.9089 57.2695 39.1078 57.26 39.31C57.2664 39.472 57.2333 39.6331 57.1636 39.7794C57.094 39.9257 56.9898 40.0529 56.86 40.15C56.572 40.3647 56.219 40.4742 55.86 40.46C55.5677 40.4595 55.2774 40.4123 55 40.32Z" fill="#495565"/>
<path d="M188.21 24.57H189.21L190.21 28.01L191.35 24.57H192.29L193.42 28L194.42 24.56H195.42L193.9 29.37H193L191.79 25.8L190.58 29.37H189.72L188.21 24.57Z" fill="#495565"/>
<path d="M198.38 28.67C198.548 28.6134 198.701 28.5213 198.83 28.4L199.33 28.9C199.142 29.0805 198.917 29.2172 198.67 29.3C198.409 29.405 198.131 29.4593 197.85 29.46C197.518 29.4626 197.191 29.38 196.9 29.22C196.614 29.0575 196.376 28.8231 196.21 28.54C196.033 28.2369 195.943 27.8909 195.95 27.54C195.938 27.1898 196.024 26.8434 196.2 26.54C196.356 26.2587 196.588 26.0267 196.87 25.87C197.156 25.7061 197.48 25.6199 197.81 25.62C198.057 25.6098 198.302 25.6569 198.528 25.7575C198.753 25.8581 198.953 26.0096 199.11 26.2C199.45 26.65 199.617 27.2072 199.58 27.77H196.78C196.808 28.0351 196.933 28.2806 197.13 28.46C197.319 28.6375 197.57 28.7343 197.83 28.73C198.015 28.7425 198.201 28.7222 198.38 28.67ZM197.15 26.6C196.957 26.7689 196.827 26.9979 196.78 27.25H198.78C198.749 27.0085 198.641 26.7836 198.47 26.61C198.387 26.5251 198.287 26.4588 198.177 26.4157C198.067 26.3726 197.948 26.3536 197.83 26.36C197.581 26.3527 197.339 26.4382 197.15 26.6Z" fill="#495565"/>
<path d="M203.41 25.92C203.666 26.0832 203.87 26.3155 204 26.59C204.145 26.8946 204.22 27.2277 204.22 27.565C204.22 27.9023 204.145 28.2354 204 28.54C203.871 28.8172 203.666 29.0528 203.41 29.22C203.152 29.3805 202.854 29.4638 202.55 29.46C202.292 29.4633 202.037 29.4014 201.81 29.28C201.587 29.1581 201.4 28.9786 201.27 28.76V29.38H200.42V24.48H201.27V26.37C201.403 26.1563 201.589 25.9806 201.81 25.86C202.037 25.7367 202.291 25.6714 202.55 25.67C202.855 25.6651 203.155 25.7522 203.41 25.92ZM203.08 28.4C203.279 28.1664 203.382 27.8665 203.37 27.56C203.382 27.2566 203.278 26.96 203.08 26.73C202.984 26.6239 202.867 26.5395 202.736 26.4826C202.605 26.4256 202.463 26.3975 202.32 26.4C202.181 26.3964 202.044 26.4242 201.917 26.4813C201.791 26.5385 201.679 26.6235 201.59 26.73C201.392 26.96 201.288 27.2566 201.3 27.56C201.294 27.7707 201.339 27.9798 201.43 28.17C201.514 28.3347 201.637 28.4757 201.79 28.58C201.949 28.6786 202.133 28.7306 202.32 28.73C202.463 28.7325 202.605 28.7043 202.736 28.6474C202.867 28.5905 202.984 28.5061 203.08 28.4Z" fill="#495565"/>
<path d="M210.37 28.47H208.07L207.7 29.38H206.7L208.7 24.57H209.7L211.7 29.38H210.7L210.37 28.47ZM210.07 27.75L209.22 25.75L208.38 27.75H210.07Z" fill="#495565"/>
<path d="M215.45 25.92C215.708 26.0802 215.914 26.3133 216.04 26.59C216.185 26.8946 216.26 27.2277 216.26 27.565C216.26 27.9023 216.185 28.2354 216.04 28.54C215.914 28.8194 215.709 29.0558 215.45 29.22C215.196 29.3819 214.901 29.4653 214.6 29.46C214.349 29.4657 214.102 29.4072 213.88 29.29C213.668 29.1783 213.486 29.017 213.35 28.82V30.58H212.49V25.76H213.35V26.32C213.483 26.1177 213.666 25.9526 213.88 25.84C214.103 25.7275 214.35 25.6693 214.6 25.67C214.902 25.664 215.199 25.7513 215.45 25.92ZM215.12 28.4C215.319 28.1664 215.422 27.8665 215.41 27.56C215.422 27.2566 215.318 26.9601 215.12 26.73C215.025 26.6252 214.91 26.5416 214.78 26.4847C214.651 26.4278 214.511 26.399 214.37 26.4C214.23 26.3964 214.091 26.4241 213.963 26.4812C213.835 26.5383 213.721 26.6233 213.63 26.73C213.435 26.961 213.334 27.2578 213.35 27.56C213.335 27.8652 213.435 28.165 213.63 28.4C213.721 28.5067 213.835 28.5918 213.963 28.6489C214.091 28.706 214.23 28.7337 214.37 28.73C214.511 28.7311 214.651 28.7023 214.78 28.6454C214.91 28.5885 215.025 28.5049 215.12 28.4Z" fill="#495565"/>
<path d="M220.11 25.92C220.366 26.0832 220.57 26.3155 220.7 26.59C220.838 26.8964 220.91 27.2288 220.91 27.565C220.91 27.9012 220.838 28.2335 220.7 28.54C220.571 28.8173 220.366 29.0528 220.11 29.22C219.853 29.3815 219.554 29.4649 219.25 29.46C219.002 29.4666 218.758 29.408 218.54 29.29C218.327 29.1758 218.142 29.0152 218 28.82V30.58H217.15V25.76H218V26.32C218.139 26.1194 218.324 25.9549 218.54 25.84C218.759 25.7265 219.003 25.6681 219.25 25.67C219.555 25.6638 219.855 25.751 220.11 25.92ZM219.77 28.4C219.976 28.17 220.084 27.8685 220.07 27.56C220.083 27.2546 219.975 26.9563 219.77 26.73C219.678 26.6219 219.563 26.5361 219.433 26.479C219.303 26.4218 219.162 26.3948 219.02 26.4C218.881 26.3964 218.744 26.4242 218.617 26.4814C218.491 26.5385 218.379 26.6235 218.29 26.73C218.092 26.96 217.988 27.2566 218 27.56C217.988 27.8665 218.091 28.1664 218.29 28.4C218.379 28.5065 218.491 28.5915 218.617 28.6486C218.744 28.7058 218.881 28.7336 219.02 28.73C219.162 28.7352 219.303 28.7082 219.433 28.651C219.563 28.5939 219.678 28.508 219.77 28.4Z" fill="#495565"/>
<path d="M221.8 24.48H222.66V29.38H221.8V24.48Z" fill="#495565"/>
<path d="M223.87 25.07C223.824 25.0245 223.787 24.9699 223.763 24.9097C223.739 24.8494 223.728 24.7848 223.73 24.72C223.728 24.6567 223.74 24.5936 223.764 24.535C223.788 24.4765 223.824 24.4236 223.87 24.38C223.964 24.2895 224.09 24.2392 224.22 24.24C224.347 24.24 224.469 24.2906 224.559 24.3806C224.649 24.4706 224.7 24.5927 224.7 24.72C224.699 24.8501 224.649 24.9749 224.56 25.07C224.469 25.159 224.347 25.2092 224.22 25.21C224.09 25.2108 223.964 25.1605 223.87 25.07ZM223.79 25.76H224.64V29.38H223.79V25.76Z" fill="#495565"/>
<path d="M226.47 29.2C226.179 29.0332 225.935 28.7959 225.76 28.51C225.582 28.2073 225.492 27.861 225.5 27.51C225.501 27.1822 225.591 26.8608 225.76 26.58C225.94 26.2919 226.187 26.0517 226.48 25.88C226.738 25.7282 227.029 25.64 227.328 25.6226C227.627 25.6052 227.926 25.6592 228.2 25.78C228.43 25.8869 228.639 26.0324 228.82 26.21L228.24 26.72C228.14 26.6055 228.018 26.5135 227.88 26.45C227.743 26.3836 227.592 26.3494 227.44 26.35C227.245 26.3486 227.054 26.4042 226.89 26.51C226.72 26.6148 226.582 26.7634 226.49 26.94C226.392 27.1139 226.34 27.3103 226.34 27.51C226.338 27.7163 226.39 27.9195 226.49 28.1C226.585 28.2748 226.723 28.4227 226.89 28.53C227.04 28.6193 227.209 28.6705 227.384 28.6792C227.558 28.6879 227.732 28.6539 227.89 28.58C228.03 28.516 228.156 28.4241 228.26 28.31L228.84 28.8C228.657 28.9848 228.444 29.137 228.21 29.25C227.968 29.3585 227.705 29.4131 227.44 29.41C227.104 29.4258 226.769 29.3534 226.47 29.2Z" fill="#495565"/>
<path d="M232.17 26.09C232.309 26.2385 232.416 26.4132 232.487 26.6038C232.557 26.7943 232.589 26.997 232.58 27.2V29.38H231.75V29C231.613 29.1633 231.438 29.2904 231.24 29.37C231.044 29.4658 230.828 29.5138 230.61 29.51C230.376 29.5121 230.144 29.4644 229.93 29.37C229.733 29.2842 229.565 29.1414 229.45 28.96C229.327 28.7844 229.264 28.5741 229.27 28.36C229.268 28.1342 229.338 27.9136 229.47 27.73C229.604 27.5436 229.788 27.3982 230 27.31C230.231 27.1997 230.484 27.1449 230.74 27.15C231.081 27.1587 231.419 27.2229 231.74 27.34V27.2C231.748 26.9838 231.672 26.7728 231.53 26.61C231.441 26.525 231.336 26.4597 231.221 26.4184C231.105 26.377 230.982 26.3605 230.86 26.37C230.509 26.3844 230.167 26.4803 229.86 26.65L229.56 26.05C230.006 25.8175 230.498 25.6877 231 25.67C231.213 25.6549 231.428 25.6844 231.629 25.7567C231.831 25.829 232.015 25.9425 232.17 26.09ZM231.41 28.68C231.495 28.6353 231.569 28.5728 231.628 28.4969C231.686 28.421 231.728 28.3334 231.75 28.24V27.83C231.465 27.7415 231.168 27.6977 230.87 27.7C230.671 27.692 230.475 27.7481 230.31 27.86C230.241 27.9063 230.185 27.969 230.147 28.0423C230.109 28.1156 230.089 28.1973 230.09 28.28C230.088 28.3579 230.106 28.435 230.14 28.5047C230.175 28.5744 230.227 28.6346 230.29 28.68C230.437 28.7902 230.617 28.8467 230.8 28.84C231.013 28.838 231.223 28.783 231.41 28.68Z" fill="#495565"/>
<path d="M235.58 29.17C235.472 29.2588 235.35 29.3297 235.22 29.38C235.087 29.4367 234.944 29.4639 234.8 29.46C234.665 29.4635 234.531 29.4395 234.405 29.3897C234.28 29.3399 234.166 29.2651 234.07 29.17C233.974 29.071 233.9 28.9533 233.852 28.8243C233.804 28.6952 233.783 28.5576 233.79 28.42V26.42H233.26V25.71H233.79V24.71H234.61V25.71H235.43V26.42H234.61V28.26C234.606 28.3706 234.645 28.4784 234.72 28.56C234.751 28.5988 234.791 28.6299 234.836 28.6507C234.881 28.6716 234.93 28.6816 234.98 28.68C235.043 28.6905 235.107 28.6905 235.17 28.68C235.231 28.6611 235.286 28.6266 235.33 28.58L235.58 29.17Z" fill="#495565"/>
<path d="M236.43 25.07C236.383 25.0246 236.345 24.9703 236.32 24.9102C236.294 24.8501 236.28 24.7854 236.28 24.72C236.28 24.656 236.293 24.5927 236.319 24.5342C236.345 24.4756 236.383 24.4231 236.43 24.38C236.475 24.3353 236.528 24.2998 236.586 24.2755C236.644 24.2513 236.707 24.2388 236.77 24.2388C236.833 24.2388 236.896 24.2513 236.954 24.2755C237.012 24.2998 237.065 24.3353 237.11 24.38C237.157 24.4231 237.195 24.4756 237.221 24.5342C237.247 24.5927 237.26 24.656 237.26 24.72C237.26 24.7854 237.246 24.8501 237.22 24.9102C237.195 24.9703 237.157 25.0246 237.11 25.07C237.065 25.1148 237.012 25.1503 236.954 25.1745C236.896 25.1987 236.833 25.2112 236.77 25.2112C236.707 25.2112 236.644 25.1987 236.586 25.1745C236.528 25.1503 236.475 25.1148 236.43 25.07ZM236.35 25.76H237.2V29.38H236.35V25.76Z" fill="#495565"/>
<path d="M239 29.21C238.705 29.0437 238.46 28.8021 238.29 28.51C238.12 28.2241 238.03 27.8976 238.03 27.565C238.03 27.2324 238.12 26.906 238.29 26.62C238.461 26.3307 238.706 26.0924 239 25.93C239.295 25.7597 239.629 25.6701 239.97 25.6701C240.31 25.6701 240.645 25.7597 240.94 25.93C241.231 26.0931 241.473 26.3314 241.64 26.62C241.81 26.906 241.899 27.2324 241.899 27.565C241.899 27.8976 241.81 28.2241 241.64 28.51C241.473 28.8017 241.232 29.0434 240.94 29.21C240.643 29.3746 240.309 29.461 239.97 29.461C239.63 29.461 239.297 29.3746 239 29.21ZM240.52 28.58C240.687 28.4727 240.825 28.3248 240.92 28.15C241.02 27.9695 241.071 27.7663 241.07 27.56C241.093 27.3704 241.069 27.1782 241 27C240.907 26.8262 240.769 26.6809 240.6 26.58C240.437 26.4725 240.245 26.4152 240.05 26.4152C239.854 26.4152 239.663 26.4725 239.5 26.58C239.333 26.6835 239.195 26.8281 239.1 27C239 27.1771 238.949 27.3769 238.95 27.58C238.948 27.7863 239 27.9895 239.1 28.17C239.195 28.3448 239.332 28.4927 239.5 28.6C239.666 28.6986 239.856 28.7506 240.05 28.7506C240.243 28.7506 240.433 28.6986 240.6 28.6L240.52 28.58Z" fill="#495565"/>
<path d="M245.47 25.85C245.671 25.9724 245.836 26.1447 245.95 26.35C246.065 26.5725 246.123 26.8197 246.12 27.07V29.38H245.29V27.24C245.299 27.0205 245.224 26.8058 245.08 26.64C245.011 26.5622 244.927 26.5005 244.832 26.459C244.737 26.4176 244.634 26.3974 244.53 26.4C244.299 26.3946 244.074 26.4768 243.9 26.63C243.82 26.6992 243.756 26.7852 243.712 26.882C243.669 26.9788 243.648 27.084 243.65 27.19V29.38H242.79V25.76H243.65V26.25C243.768 26.0755 243.926 25.9316 244.11 25.83C244.314 25.7255 244.541 25.6707 244.77 25.67C245.015 25.6667 245.257 25.7289 245.47 25.85Z" fill="#495565"/>
<path d="M205 33.77V35H207.47V35.8H205V37.8H204.12V33H207.74V33.8L205 33.77Z" fill="#495565"/>
<path d="M208.73 33.47C208.683 33.4247 208.645 33.3703 208.62 33.3102C208.594 33.2501 208.58 33.1854 208.58 33.12C208.58 33.056 208.593 32.9928 208.619 32.9342C208.645 32.8757 208.683 32.8232 208.73 32.78C208.775 32.7353 208.828 32.6998 208.886 32.6756C208.944 32.6513 209.007 32.6389 209.07 32.6389C209.133 32.6389 209.196 32.6513 209.254 32.6756C209.312 32.6998 209.365 32.7353 209.41 32.78C209.457 32.8232 209.495 32.8757 209.521 32.9342C209.547 32.9928 209.56 33.056 209.56 33.12C209.56 33.1854 209.546 33.2501 209.52 33.3102C209.495 33.3703 209.457 33.4247 209.41 33.47C209.365 33.5148 209.312 33.5503 209.254 33.5745C209.196 33.5987 209.133 33.6112 209.07 33.6112C209.007 33.6112 208.944 33.5987 208.886 33.5745C208.828 33.5503 208.775 33.5148 208.73 33.47ZM208.65 34.16H209.5V37.78H208.65V34.16Z" fill="#495565"/>
<path d="M212 34.28C212.231 34.1373 212.498 34.0644 212.77 34.07V34.8C212.431 34.7859 212.099 34.9002 211.84 35.12C211.719 35.2203 211.623 35.3478 211.561 35.492C211.498 35.6362 211.47 35.7931 211.48 35.95V37.78H210.62V34.16H211.48V34.84C211.595 34.6065 211.775 34.4118 212 34.28Z" fill="#495565"/>
<path d="M215.79 37.07C215.96 37.0112 216.116 36.9195 216.25 36.8L216.74 37.3C216.556 37.4803 216.334 37.617 216.09 37.7C215.829 37.804 215.551 37.8583 215.27 37.86C214.921 37.8685 214.577 37.7858 214.27 37.62C213.984 37.4575 213.747 37.223 213.58 36.94C213.403 36.6369 213.313 36.2909 213.32 35.94C213.314 35.5905 213.401 35.2457 213.57 34.94C213.729 34.6608 213.961 34.4295 214.24 34.27C214.526 34.1069 214.85 34.0208 215.18 34.02C215.427 34.0098 215.672 34.0568 215.898 34.1574C216.124 34.2581 216.323 34.4095 216.48 34.6C216.823 35.049 216.993 35.6061 216.96 36.17H214.15C214.183 36.4335 214.307 36.6773 214.5 36.86C214.691 37.0338 214.942 37.127 215.2 37.12C215.398 37.1422 215.598 37.1252 215.79 37.07ZM214.56 35C214.367 35.1673 214.239 35.3976 214.2 35.65H216.2C216.171 35.4071 216.066 35.1796 215.9 35C215.815 34.9193 215.714 34.8565 215.604 34.8153C215.494 34.7741 215.377 34.7553 215.26 34.76C215.004 34.7475 214.754 34.8334 214.56 35Z" fill="#495565"/>
<path d="M217.41 34.16H218.26L219.02 36.63L219.82 34.16H220.54L221.34 36.63L222.1 34.16H223L221.78 37.78H221L220.23 35.3L219.46 37.78H218.68L217.41 34.16Z" fill="#495565"/>
<path d="M226.25 34.49C226.389 34.6386 226.496 34.8132 226.567 35.0038C226.637 35.1944 226.669 35.397 226.66 35.6V37.78H225.83V37.35C225.695 37.5109 225.523 37.6376 225.33 37.72C225.133 37.8138 224.918 37.8616 224.7 37.86C224.463 37.8629 224.227 37.8152 224.01 37.72C223.813 37.6342 223.646 37.4914 223.53 37.31C223.407 37.1345 223.344 36.9241 223.35 36.71C223.347 36.484 223.417 36.263 223.55 36.08C223.687 35.8961 223.87 35.7512 224.08 35.66C224.311 35.5497 224.564 35.4949 224.82 35.5C225.162 35.5039 225.5 35.5682 225.82 35.69V35.6C225.829 35.3836 225.753 35.1723 225.61 35.01C225.522 34.925 225.416 34.8597 225.301 34.8184C225.185 34.777 225.062 34.7605 224.94 34.77C224.589 34.7794 224.245 34.8756 223.94 35.05L223.64 34.45C224.089 34.2161 224.584 34.0862 225.09 34.07C225.302 34.0557 225.514 34.0856 225.714 34.1579C225.914 34.2302 226.096 34.3433 226.25 34.49ZM225.49 37.08C225.575 37.0353 225.649 36.9729 225.708 36.897C225.766 36.8211 225.808 36.7334 225.83 36.64V36.23C225.545 36.1407 225.248 36.0969 224.95 36.1C224.754 36.0905 224.56 36.1468 224.4 36.26C224.33 36.3059 224.273 36.3681 224.233 36.4413C224.193 36.5146 224.171 36.5965 224.17 36.68C224.168 36.7579 224.186 36.835 224.221 36.9047C224.255 36.9744 224.307 37.0346 224.37 37.08C224.52 37.1917 224.703 37.2482 224.89 37.24C225.1 37.238 225.307 37.183 225.49 37.08Z" fill="#495565"/>
<path d="M227.72 32.88H228.57V37.78H227.72V32.88Z" fill="#495565"/>
<path d="M229.71 32.88H230.56V37.78H229.71V32.88Z" fill="#495565"/>
<path fill-rule="evenodd" clip-rule="evenodd" d="M48.79 49.22C47.7358 49.2354 46.7115 49.5733 45.8551 50.1883C44.9988 50.8033 44.3513 51.6659 44 52.66C44.2634 52.8426 44.514 53.0431 44.75 53.26C44.9004 52.7143 45.1586 52.2043 45.5093 51.76C45.8601 51.3156 46.2962 50.946 46.792 50.673C47.2879 50.3999 47.8333 50.2289 48.3963 50.17C48.9593 50.1111 49.5284 50.1655 50.07 50.33C51.1692 50.6988 52.081 51.4821 52.6115 52.513C53.1419 53.544 53.249 54.7413 52.91 55.85C52.7596 56.3968 52.5011 56.908 52.1497 57.3531C51.7983 57.7982 51.3612 58.1683 50.8643 58.4415C50.3673 58.7147 49.8206 58.8854 49.2564 58.9436C48.6923 59.0017 48.1223 58.9461 47.58 58.78L47.23 58.65V59C47.2452 59.2231 47.2452 59.447 47.23 59.67C47.8824 59.8807 48.5704 59.9586 49.2534 59.8989C49.9363 59.8392 50.6004 59.6432 51.2064 59.3225C51.8123 59.0018 52.3478 58.5629 52.7813 58.0318C53.2147 57.5006 53.5373 56.888 53.73 56.23C54.157 54.8967 54.0494 53.4497 53.4301 52.1941C52.8107 50.9385 51.7279 49.9726 50.41 49.5C49.8996 49.3335 49.3668 49.2459 48.83 49.24L48.79 49.22Z" fill="#218FCF"/>
<path fill-rule="evenodd" clip-rule="evenodd" d="M31.9999 59V58.79C31.5806 58.9294 31.1417 59.0003 30.6999 59C29.5302 59 28.4085 58.5354 27.5815 57.7083C26.7545 56.8813 26.2899 55.7596 26.2899 54.59C26.2899 53.4204 26.7545 52.2987 27.5815 51.4717C28.4085 50.6446 29.5302 50.18 30.6999 50.18C31.5858 50.1914 32.4463 50.4774 33.1628 50.9986C33.8793 51.5199 34.4163 52.2506 34.6999 53.09C34.9434 52.8889 35.2007 52.7051 35.4699 52.54C35.2245 51.8997 34.853 51.3152 34.3775 50.8212C33.9019 50.3272 33.332 49.9338 32.7015 49.6643C32.071 49.3947 31.3928 49.2546 30.7071 49.2521C30.0214 49.2497 29.3423 49.385 28.7099 49.65C27.426 50.225 26.4166 51.2776 25.8957 52.5844C25.3748 53.8912 25.3835 55.3495 25.9199 56.65C26.2954 57.6121 26.9504 58.4397 27.8006 59.0261C28.6508 59.6125 29.6571 59.9308 30.6899 59.94C31.1401 59.9421 31.5882 59.8781 32.0199 59.75C31.9999 59.47 31.9999 59.22 31.9999 59Z" fill="#218FCF"/>
<path fill-rule="evenodd" clip-rule="evenodd" d="M57.1099 64.57C56.0378 63.3874 54.719 62.4547 53.2468 61.8378C51.7746 61.2209 50.1848 60.9349 48.5899 61C47.9206 61.0043 47.2524 61.0544 46.5899 61.15C46.477 61.4941 46.3366 61.8285 46.1699 62.15C46.961 61.9987 47.7645 61.9217 48.5699 61.92C50.0067 61.8535 51.4408 62.1008 52.7723 62.6448C54.1038 63.1888 55.3008 64.0164 56.2799 65.07V74.26H57.2199V64.69L57.1099 64.57Z" fill="#218FCF"/>
<path fill-rule="evenodd" clip-rule="evenodd" d="M32.54 61.09C32.0289 61.0285 31.5146 60.9985 31 61C29.3849 60.9321 27.7744 61.2151 26.2793 61.8297C24.7843 62.4443 23.4403 63.3758 22.34 64.56L22.2 64.7V74.27H23.1399V65.08C24.148 64.0198 25.3729 63.1895 26.7311 62.6459C28.0893 62.1023 29.5488 61.8581 31.01 61.93C31.6392 61.9315 32.2675 61.9783 32.8899 62.07C32.7462 61.7536 32.6292 61.4258 32.54 61.09Z" fill="#218FCF"/>
<path fill-rule="evenodd" clip-rule="evenodd" d="M39.74 53.28C38.6111 53.28 37.5075 53.6147 36.5688 54.2416C35.63 54.8686 34.8981 55.7598 34.4656 56.8026C34.0332 57.8454 33.9195 58.993 34.139 60.1003C34.3585 61.2077 34.9014 62.2251 35.6989 63.0241C36.4965 63.823 37.513 64.3676 38.6199 64.5891C39.7269 64.8105 40.8747 64.6989 41.9182 64.2682C42.9618 63.8376 43.8542 63.1073 44.4829 62.1696C45.1115 61.2319 45.448 60.1289 45.45 59C45.4474 57.4874 44.8446 56.0376 43.7741 54.9689C42.7035 53.9002 41.2527 53.3 39.74 53.3V53.28ZM39.74 54.2C40.6918 54.1881 41.6257 54.4595 42.4229 54.9796C43.2201 55.4998 43.8447 56.2452 44.2172 57.1212C44.5897 57.9972 44.6934 58.9641 44.515 59.8991C44.3366 60.8342 43.8843 61.695 43.2154 62.3724C42.5466 63.0497 41.6915 63.5128 40.7587 63.7029C39.826 63.8931 38.8579 63.8016 37.9773 63.4401C37.0967 63.0786 36.3435 62.4635 35.8133 61.6729C35.2832 60.8823 35.0001 59.9519 35 59C35 57.7287 35.5044 56.5093 36.4024 55.6094C37.3004 54.7096 38.5187 54.2027 39.79 54.2" fill="#1E4489"/>
<path fill-rule="evenodd" clip-rule="evenodd" d="M39.9999 67.07C38.3587 67.027 36.7277 67.3399 35.2189 67.9873C33.7102 68.6346 32.3596 69.601 31.2599 70.82V79.28C31.2612 79.5535 31.3644 79.8167 31.5493 80.0182C31.7342 80.2197 31.9875 80.3451 32.2599 80.37H47.5599C47.8281 80.335 48.0755 80.2065 48.2584 80.0071C48.4413 79.8078 48.548 79.5503 48.5599 79.28V70.86C47.4798 69.6619 46.1591 68.705 44.6841 68.0519C43.2091 67.3989 41.613 67.0643 39.9999 67.07ZM39.9999 66.16C41.8025 66.1568 43.5842 66.5461 45.2213 67.3007C46.8583 68.0553 48.3115 69.1573 49.4799 70.53V79.28C49.4632 79.7966 49.2539 80.2884 48.893 80.6585C48.5322 81.0286 48.0459 81.2503 47.5299 81.28H32.2999C31.7781 81.267 31.2822 81.0505 30.9179 80.6768C30.5535 80.3032 30.3497 79.8019 30.3499 79.28V70.51C31.5349 69.1145 33.0157 68.0001 34.6847 67.2478C36.3538 66.4954 38.1694 66.1238 39.9999 66.16Z" fill="#1E4489"/>
<path fill-rule="evenodd" clip-rule="evenodd" d="M130.08 49.26C127.854 49.3196 125.699 50.0532 123.899 51.3638C122.1 52.6743 120.74 54.5002 120 56.6C118.819 56.0334 117.53 55.7265 116.22 55.7H116C113.863 55.7032 111.792 56.4414 110.135 57.7907C108.478 59.1399 107.336 61.0181 106.9 63.11C106.3 62.9488 105.682 62.8615 105.06 62.85H104.88C102.954 62.8569 101.106 63.6115 99.7251 64.9547C98.3445 66.2979 97.5396 68.1248 97.48 70.05C97.5318 72.0996 98.3524 74.0547 99.7788 75.5274C101.205 77.0001 103.133 77.8827 105.18 78H106.05C110.98 78 134.38 77.9 139.25 77.9H140.25C144.41 77.9 147.86 74 147.97 69.14C148.08 64.28 144.97 60.41 140.97 60.03C140.44 54.09 135.97 49.39 130.33 49.26H130.08ZM130.08 50.58H130.32C135.16 50.7 139.18 54.81 139.67 60.15L139.77 61.24L140.86 61.35C144.22 61.66 146.77 65.05 146.67 69.11C146.57 73.17 143.67 76.58 140.28 76.58H139.28C136.85 76.58 129.7 76.58 122.75 76.58C115.8 76.58 108.55 76.64 106.08 76.64H105.24C103.542 76.5325 101.943 75.7994 100.754 74.5823C99.5644 73.3652 98.8683 71.7504 98.8 70.05C98.844 68.4661 99.5017 66.9612 100.634 65.853C101.767 64.7447 103.285 64.1198 104.87 64.11H105C105.507 64.1195 106.01 64.19 106.5 64.32L107.86 64.7L108.15 63.32C108.545 61.5313 109.538 59.9306 110.965 58.7818C112.392 57.633 114.168 57.0045 116 57H116.19C117.312 57.0298 118.415 57.292 119.43 57.77L120.72 58.4L121.26 57.06C121.903 55.2065 123.095 53.5927 124.678 52.4334C126.261 51.2741 128.159 50.6241 130.12 50.57" fill="#1E4489"/>
<path fill-rule="evenodd" clip-rule="evenodd" d="M313.16 40H277.05V49.77H313.16V40ZM312.09 41.09V48.68H278.09V41.07H312.09" fill="#1E4489"/>
<path d="M309.75 43.38H308.48V46.35H309.75V43.38Z" fill="#1E4489"/>
<path d="M307.63 43.38H306.36V46.35H307.63V43.38Z" fill="#1E4489"/>
<path d="M305.51 43.38H304.24V46.35H305.51V43.38Z" fill="#1E4489"/>
<path d="M303.38 43.38H302.11V46.35H303.38V43.38Z" fill="#1E4489"/>
<path d="M301.26 43.38H299.99V46.35H301.26V43.38Z" fill="#1E4489"/>
<path d="M299.14 43.38H297.87V46.35H299.14V43.38Z" fill="#1E4489"/>
<path d="M297.01 43.38H295.74V46.35H297.01V43.38Z" fill="#1E4489"/>
<path d="M294.89 43.38H293.62V46.35H294.89V43.38Z" fill="#1E4489"/>
<path fill-rule="evenodd" clip-rule="evenodd" d="M282.15 44.87C282.148 45.0792 282.084 45.2831 281.967 45.4561C281.849 45.6291 281.683 45.7634 281.489 45.8421C281.295 45.9208 281.082 45.9404 280.877 45.8984C280.672 45.8564 280.484 45.7546 280.337 45.606C280.19 45.4574 280.09 45.2685 280.05 45.0631C280.01 44.8578 280.031 44.6452 280.112 44.4521C280.192 44.259 280.328 44.094 280.502 43.978C280.676 43.8619 280.881 43.8 281.09 43.8C281.372 43.8026 281.642 43.9165 281.84 44.1169C282.039 44.3173 282.15 44.5879 282.15 44.87Z" fill="#218FCF"/>
<path fill-rule="evenodd" clip-rule="evenodd" d="M313.16 52H277.05V61.3H313.16V52ZM312.09 53V60.27H278.09V53H312.09Z" fill="#1E4489"/>
<path d="M309.75 54.93H308.48V58.33H309.75V54.93Z" fill="#1E4489"/>
<path d="M307.63 54.93H306.36V58.33H307.63V54.93Z" fill="#1E4489"/>
<path d="M305.51 54.93H304.24V58.33H305.51V54.93Z" fill="#1E4489"/>
<path d="M303.38 54.93H302.11V58.33H303.38V54.93Z" fill="#1E4489"/>
<path d="M301.26 54.93H299.99V58.33H301.26V54.93Z" fill="#1E4489"/>
<path d="M299.14 54.93H297.87V58.33H299.14V54.93Z" fill="#1E4489"/>
<path d="M297.01 54.93H295.74V58.33H297.01V54.93Z" fill="#1E4489"/>
<path d="M294.89 54.93H293.62V58.33H294.89V54.93Z" fill="#1E4489"/>
<path fill-rule="evenodd" clip-rule="evenodd" d="M282.15 56.41C282.15 56.6197 282.088 56.8246 281.971 56.9989C281.855 57.1733 281.689 57.3091 281.496 57.3894C281.302 57.4696 281.089 57.4906 280.883 57.4497C280.678 57.4088 280.489 57.3078 280.34 57.1596C280.192 57.0113 280.091 56.8225 280.05 56.6168C280.009 56.4112 280.03 56.1981 280.111 56.0044C280.191 55.8107 280.327 55.6452 280.501 55.5287C280.675 55.4122 280.88 55.35 281.09 55.35C281.37 55.3526 281.638 55.4652 281.837 55.6634C282.035 55.8616 282.147 56.1297 282.15 56.41Z" fill="#218FCF"/>
<path fill-rule="evenodd" clip-rule="evenodd" d="M313.16 63.5H277.05V73.27H313.16V63.5ZM312.09 64.59V72.19H278.09V64.59H312.09Z" fill="#1E4489"/>
<path d="M309.75 66.9H308.48V69.87H309.75V66.9Z" fill="#1E4489"/>
<path d="M307.63 66.9H306.36V69.87H307.63V66.9Z" fill="#1E4489"/>
<path d="M305.51 66.9H304.24V69.87H305.51V66.9Z" fill="#1E4489"/>
<path d="M303.38 66.9H302.11V69.87H303.38V66.9Z" fill="#1E4489"/>
<path d="M301.26 66.9H299.99V69.87H301.26V66.9Z" fill="#1E4489"/>
<path d="M299.14 66.9H297.87V69.87H299.14V66.9Z" fill="#1E4489"/>
<path d="M297.01 66.9H295.74V69.87H297.01V66.9Z" fill="#1E4489"/>
<path d="M294.89 66.9H293.62V69.87H294.89V66.9Z" fill="#1E4489"/>
<path fill-rule="evenodd" clip-rule="evenodd" d="M282.15 68.39C282.15 68.5997 282.088 68.8046 281.971 68.9789C281.855 69.1532 281.689 69.2891 281.496 69.3693C281.302 69.4496 281.089 69.4705 280.883 69.4296C280.678 69.3887 280.489 69.2878 280.34 69.1395C280.192 68.9913 280.091 68.8024 280.05 68.5968C280.009 68.3912 280.03 68.1781 280.111 67.9844C280.191 67.7907 280.327 67.6251 280.501 67.5087C280.675 67.3922 280.88 67.33 281.09 67.33C281.371 67.33 281.641 67.4417 281.84 67.6405C282.038 67.8393 282.15 68.1089 282.15 68.39Z" fill="#218FCF"/>
<path fill-rule="evenodd" clip-rule="evenodd" d="M313.16 75.27H277.05V85H313.16V75.27ZM312.09 76.35V84H278.09V76.4H312.09" fill="#1E4489"/>
<path d="M309.75 78.66H308.48V81.63H309.75V78.66Z" fill="#1E4489"/>
<path d="M307.63 78.66H306.36V81.63H307.63V78.66Z" fill="#1E4489"/>
<path d="M305.51 78.66H304.24V81.63H305.51V78.66Z" fill="#1E4489"/>
<path d="M303.38 78.66H302.11V81.63H303.38V78.66Z" fill="#1E4489"/>
<path d="M301.26 78.66H299.99V81.63H301.26V78.66Z" fill="#1E4489"/>
<path d="M299.14 78.66H297.87V81.63H299.14V78.66Z" fill="#1E4489"/>
<path d="M297.01 78.66H295.74V81.63H297.01V78.66Z" fill="#1E4489"/>
<path d="M294.89 78.66H293.62V81.63H294.89V78.66Z" fill="#1E4489"/>
<path fill-rule="evenodd" clip-rule="evenodd" d="M282.15 80.15C282.15 80.3597 282.088 80.5646 281.971 80.7389C281.855 80.9133 281.689 81.0491 281.496 81.1293C281.302 81.2096 281.089 81.2306 280.883 81.1897C280.678 81.1488 280.489 81.0478 280.34 80.8996C280.192 80.7513 280.091 80.5624 280.05 80.3568C280.009 80.1512 280.03 79.9381 280.111 79.7444C280.191 79.5507 280.327 79.3851 280.501 79.2687C280.675 79.1522 280.88 79.09 281.09 79.09C281.371 79.09 281.641 79.2017 281.84 79.4005C282.038 79.5993 282.15 79.8689 282.15 80.15Z" fill="#218FCF"/>
<path d="M272.75 28.86H273.75L274.75 32.31L275.9 28.86H276.84L278 32.31L279 28.86H279.95L278.43 33.67H277.57L276.36 30.1L275.15 33.67H274.28L272.75 28.86Z" fill="#495565"/>
<path d="M282.92 33C283.087 32.9413 283.24 32.8495 283.37 32.73L283.86 33.23C283.679 33.4159 283.456 33.5564 283.21 33.64C282.947 33.7371 282.67 33.7878 282.39 33.79C282.058 33.7926 281.731 33.71 281.44 33.55C281.149 33.3909 280.907 33.1559 280.74 32.87C280.567 32.5659 280.48 32.22 280.49 31.87C280.481 31.5215 280.564 31.1767 280.73 30.87C280.896 30.5925 281.13 30.3618 281.41 30.2C281.693 30.0391 282.014 29.9563 282.34 29.96C282.588 29.9478 282.834 29.9929 283.062 30.0918C283.289 30.1906 283.49 30.3406 283.65 30.53C283.984 30.9831 284.15 31.5381 284.12 32.1H281.31C281.349 32.367 281.475 32.6133 281.67 32.8C281.859 32.9714 282.105 33.0644 282.36 33.06C282.549 33.0735 282.738 33.0532 282.92 33ZM281.69 30.93C281.499 31.1008 281.37 31.329 281.32 31.58H283.32C283.283 31.3405 283.175 31.1175 283.01 30.94C282.926 30.8571 282.826 30.7921 282.716 30.7492C282.606 30.7062 282.488 30.6861 282.37 30.69C282.127 30.6714 281.885 30.7426 281.69 30.89V30.93Z" fill="#495565"/>
<path d="M287.94 30.21C288.199 30.3727 288.407 30.6048 288.54 30.88C288.691 31.1915 288.766 31.5341 288.76 31.88C288.765 32.2259 288.69 32.5682 288.54 32.88C288.407 33.1552 288.199 33.3874 287.94 33.55C287.686 33.7118 287.391 33.7953 287.09 33.79C286.832 33.7947 286.577 33.7327 286.35 33.61C286.127 33.4882 285.94 33.3086 285.81 33.09V33.71H285V28.78H285.85V30.66C285.983 30.4463 286.169 30.2706 286.39 30.15C286.638 30.0224 286.914 29.9609 287.193 29.9714C287.471 29.9819 287.743 30.0641 287.98 30.21H287.94ZM287.61 32.7C287.803 32.4628 287.909 32.1661 287.909 31.86C287.909 31.554 287.803 31.2573 287.61 31.02C287.516 30.9153 287.401 30.8315 287.273 30.7741C287.145 30.7167 287.006 30.6871 286.865 30.6871C286.724 30.6871 286.585 30.7167 286.457 30.7741C286.329 30.8315 286.214 30.9153 286.12 31.02C285.926 31.256 285.827 31.5551 285.84 31.86C285.836 32.0675 285.88 32.273 285.97 32.46C286.045 32.6333 286.17 32.7798 286.33 32.88C286.489 32.9787 286.673 33.0306 286.86 33.03C287.002 33.0352 287.143 33.0082 287.273 32.9511C287.403 32.8939 287.518 32.8081 287.61 32.7Z" fill="#495565"/>
<path d="M292.29 33.55C291.947 33.4154 291.632 33.2188 291.36 32.97L291.87 32.35C292.295 32.7589 292.86 32.9912 293.45 33C293.684 33.0131 293.915 32.9499 294.11 32.82C294.184 32.7684 294.245 32.6996 294.286 32.6195C294.328 32.5394 294.35 32.4503 294.35 32.36C294.352 32.3013 294.343 32.2428 294.322 32.1879C294.302 32.1329 294.27 32.0826 294.23 32.04C294.134 31.9454 294.018 31.8736 293.89 31.83C293.678 31.753 293.461 31.6928 293.24 31.65C292.926 31.5782 292.618 31.4812 292.32 31.36C292.099 31.2676 291.906 31.1194 291.76 30.93C291.616 30.7261 291.545 30.4792 291.56 30.23C291.555 29.9633 291.631 29.7015 291.78 29.48C291.932 29.2542 292.143 29.0743 292.39 28.96C292.67 28.8361 292.974 28.7747 293.28 28.78C293.949 28.7702 294.597 29.009 295.1 29.45L294.62 30.09C294.425 29.9144 294.202 29.7725 293.96 29.67C293.735 29.5757 293.494 29.5281 293.25 29.53C293.041 29.5201 292.836 29.5838 292.67 29.71C292.599 29.759 292.54 29.8247 292.5 29.9014C292.46 29.9781 292.439 30.0634 292.44 30.15C292.436 30.2635 292.475 30.3742 292.55 30.46C292.646 30.5591 292.767 30.6314 292.9 30.67C293.113 30.745 293.33 30.8084 293.55 30.86C293.997 30.9364 294.423 31.1068 294.8 31.36C294.941 31.4662 295.053 31.606 295.127 31.7667C295.2 31.9273 295.232 32.1038 295.22 32.28C295.215 32.5357 295.139 32.785 295 33C294.852 33.2335 294.636 33.4152 294.38 33.52C294.066 33.6603 293.723 33.7253 293.38 33.71C293.01 33.7211 292.641 33.6669 292.29 33.55Z" fill="#495565"/>
<path d="M298.32 33C298.487 32.9413 298.64 32.8495 298.77 32.73L299.26 33.23C299.079 33.4159 298.856 33.5564 298.61 33.64C298.347 33.7371 298.07 33.7878 297.79 33.79C297.441 33.8014 297.096 33.7185 296.79 33.55C296.499 33.3909 296.257 33.1559 296.09 32.87C295.916 32.5659 295.83 32.22 295.84 31.87C295.831 31.5215 295.914 31.1767 296.08 30.87C296.246 30.5925 296.48 30.3618 296.76 30.2C297.043 30.0391 297.364 29.9563 297.69 29.96C297.937 29.9478 298.184 29.9929 298.412 30.0918C298.639 30.1906 298.84 30.3406 299 30.53C299.334 30.9831 299.5 31.5381 299.47 32.1H296.66C296.699 32.367 296.825 32.6133 297.02 32.8C297.208 32.9714 297.455 33.0644 297.71 33.06C297.915 33.0798 298.122 33.0594 298.32 33ZM297.09 30.93C296.899 31.1008 296.769 31.329 296.72 31.58H298.72C298.683 31.3405 298.575 31.1175 298.41 30.94C298.326 30.8571 298.226 30.7921 298.116 30.7492C298.006 30.7062 297.888 30.6861 297.77 30.69C297.526 30.6714 297.285 30.7426 297.09 30.89V30.93Z" fill="#495565"/>
<path d="M301.73 30.17C301.964 30.0362 302.23 29.9671 302.5 29.97V30.7C302.162 30.6822 301.83 30.7929 301.57 31.01C301.452 31.1128 301.358 31.2406 301.296 31.3842C301.234 31.5278 301.204 31.6836 301.21 31.84V33.67H300.35V30.05H301.21V30.74C301.321 30.5018 301.503 30.303 301.73 30.17Z" fill="#495565"/>
<path d="M302.9 30.05H303.81L304.86 32.68L305.86 30.05H306.77L305.23 33.67H304.44L302.9 30.05Z" fill="#495565"/>
<path d="M309.64 33C309.805 32.9387 309.958 32.8472 310.09 32.73L310.58 33.23C310.398 33.4159 310.176 33.5564 309.93 33.64C309.667 33.737 309.39 33.7878 309.11 33.79C308.778 33.7926 308.451 33.71 308.16 33.55C307.867 33.3938 307.624 33.1581 307.46 32.87C307.286 32.5659 307.2 32.2199 307.21 31.87C307.198 31.5398 307.277 31.2127 307.437 30.9237C307.598 30.6348 307.834 30.395 308.12 30.23C308.407 30.0704 308.731 29.9878 309.06 29.99C309.307 29.9778 309.554 30.0229 309.782 30.1217C310.009 30.2206 310.21 30.3706 310.37 30.56C310.704 31.0131 310.87 31.568 310.84 32.13H308C308.038 32.3969 308.165 32.6433 308.36 32.83C308.548 33.0014 308.795 33.0944 309.05 33.09C309.25 33.0975 309.451 33.067 309.64 33ZM308.4 30.93C308.216 31.1044 308.09 31.3314 308.04 31.58H310.04C310.011 31.3401 309.906 31.1158 309.74 30.94C309.655 30.8575 309.555 30.7929 309.445 30.7499C309.335 30.707 309.218 30.6866 309.1 30.69C308.85 30.6663 308.6 30.7377 308.4 30.89V30.93Z" fill="#495565"/>
<path d="M313 30.17C313.238 30.0362 313.507 29.9672 313.78 29.97V30.7C313.439 30.6826 313.104 30.7931 312.84 31.01C312.725 31.115 312.635 31.2435 312.574 31.3868C312.514 31.53 312.485 31.6846 312.49 31.84V33.67H311.63V30.05H312.49V30.74C312.601 30.5045 312.778 30.3064 313 30.17Z" fill="#495565"/>
<path d="M315.08 33.61C314.811 33.5207 314.558 33.389 314.33 33.22L314.7 32.66C314.89 32.7959 315.099 32.9037 315.32 32.98C315.518 33.0573 315.728 33.0979 315.94 33.1C316.099 33.1088 316.256 33.0667 316.39 32.98C316.441 32.9492 316.483 32.9051 316.511 32.8522C316.54 32.7994 316.553 32.7398 316.55 32.68C316.552 32.6194 316.535 32.5596 316.503 32.508C316.471 32.4565 316.425 32.4154 316.37 32.39C316.184 32.303 315.99 32.236 315.79 32.19C315.542 32.1302 315.301 32.0465 315.07 31.94C314.905 31.8701 314.761 31.7601 314.65 31.62C314.545 31.4673 314.493 31.285 314.5 31.1C314.499 30.8912 314.558 30.6866 314.67 30.51C314.795 30.3359 314.964 30.1979 315.16 30.11C315.384 30.0138 315.626 29.9661 315.87 29.97C316.111 29.9731 316.35 30.0102 316.58 30.08C316.815 30.1601 317.04 30.2675 317.25 30.4L316.92 30.98C316.752 30.8684 316.57 30.7777 316.38 30.71C316.216 30.6527 316.044 30.6223 315.87 30.62C315.725 30.6105 315.581 30.6492 315.46 30.73C315.41 30.76 315.369 30.8026 315.341 30.8535C315.313 30.9044 315.299 30.9619 315.3 31.02C315.297 31.0558 315.302 31.0918 315.316 31.125C315.33 31.1581 315.352 31.1873 315.38 31.21C315.445 31.2584 315.515 31.2987 315.59 31.33L316.07 31.49C316.294 31.5512 316.514 31.6247 316.73 31.71C316.899 31.7817 317.047 31.8952 317.16 32.04C317.287 32.202 317.351 32.4045 317.34 32.61C317.346 32.7694 317.313 32.928 317.246 33.0724C317.178 33.2167 317.076 33.3428 316.95 33.44C316.661 33.654 316.309 33.7633 315.95 33.75C315.654 33.7559 315.359 33.7084 315.08 33.61Z" fill="#495565"/>
<path fill-rule="evenodd" clip-rule="evenodd" d="M203.29 59.56H204.13L205.96 64.84L207.67 59.56H208.51L210.22 64.84L212.05 59.56H212.89L210.64 66.09H209.92L208.09 60.55L206.26 66.09H205.54L203.29 59.56Z" fill="#218FCF"/>
<path fill-rule="evenodd" clip-rule="evenodd" d="M217.67 63.93L216.15 60.51L214.63 63.93H217.67ZM217.97 64.61H214.33L213.68 66.09H212.89L215.73 59.56H216.53L219.41 66.09H218.62L217.97 64.61Z" fill="#218FCF"/>
<path fill-rule="evenodd" clip-rule="evenodd" d="M221.76 60.29V62.43H225.53V63.11H221.76V66.09H220.95V59.56H225.94V60.25H221.76V60.29Z" fill="#218FCF"/>
<path fill-rule="evenodd" clip-rule="evenodd" d="M214.42 45.55C210.995 45.5143 207.636 46.4974 204.771 48.3743C201.906 50.2512 199.663 52.9374 198.328 56.0916C196.992 59.2458 196.624 62.7257 197.27 66.0895C197.917 69.4532 199.548 72.549 201.957 74.9837C204.367 77.4184 207.445 79.0822 210.802 79.7636C214.159 80.4451 217.643 80.1136 220.811 78.8111C223.979 77.5087 226.688 75.2942 228.595 72.4487C230.502 69.6033 231.52 66.2553 231.52 62.83C231.539 58.2725 229.749 53.8937 226.543 50.6542C223.337 47.4147 218.977 45.5791 214.42 45.55ZM214.42 81.06C210.804 81.0977 207.259 80.0598 204.234 78.0781C201.209 76.0965 198.842 73.2605 197.433 69.9305C196.023 66.6005 195.635 62.9267 196.318 59.3758C197.001 55.8249 198.724 52.5571 201.269 49.9875C203.813 47.418 207.063 45.6626 210.607 44.9444C214.151 44.2262 217.829 44.5776 221.172 45.9539C224.516 47.3302 227.376 49.6694 229.387 52.6742C231.399 55.6791 232.472 59.214 232.47 62.83C232.491 67.6403 230.602 72.2622 227.218 75.6804C223.833 79.0987 219.23 81.0336 214.42 81.06Z" fill="#1E4489"/>
</svg>
