<?xml version="1.0" encoding="utf-8"?>
<!-- Generator: Adobe Illustrator 26.0.1, SVG Export Plug-In . SVG Version: 6.00 Build 0)  -->
<svg version="1.1" id="Layer_1" xmlns="http://www.w3.org/2000/svg" xmlns:xlink="http://www.w3.org/1999/xlink" x="0px" y="0px"
	 viewBox="0 0 607 562" style="enable-background:new 0 0 607 562;" xml:space="preserve">
<style type="text/css">
	.st0{display:none;}
	.st1{fill:#4A5565;}
	.st2{fill:#495565;}
	.st3{fill:none;stroke:#F05024;stroke-width:0.75;stroke-linejoin:round;stroke-dasharray:1,3;}
	.st4{fill:#F05024;}
	.st5{fill:none;stroke:#CCCCCB;stroke-width:0.8207;stroke-linecap:round;stroke-linejoin:round;}
	.st6{fill:#CCCCCB;}
	.st7{fill:none;stroke:#495565;stroke-miterlimit:10;}
	.st8{fill:none;stroke:#495565;stroke-linecap:round;stroke-miterlimit:10;}
	.st9{fill:#F05024;stroke:#F04F23;stroke-linecap:round;stroke-linejoin:round;stroke-miterlimit:10;}
	.st10{fill:none;stroke:#FFFFFF;stroke-width:1.4514;stroke-linecap:round;stroke-linejoin:round;stroke-miterlimit:10;}
	.st11{fill:none;stroke:#CCCCCB;stroke-width:0.75;stroke-linecap:round;stroke-linejoin:round;}
	.st12{fill-rule:evenodd;clip-rule:evenodd;fill:#1E4489;}
	.st13{fill-rule:evenodd;clip-rule:evenodd;fill:#2690CF;}
	.st14{fill-rule:evenodd;clip-rule:evenodd;fill:#2690CF;stroke:#2890CF;stroke-width:0.2462;stroke-miterlimit:10;}
	.st15{fill:none;stroke:#1D4588;stroke-miterlimit:10;}
	.st16{fill-rule:evenodd;clip-rule:evenodd;fill:#2890CF;}
	.st17{fill:#F04F23;}
	.st18{fill:none;stroke:#FFFFFF;stroke-width:1.2383;stroke-miterlimit:10;}
	
		.st19{opacity:0.3;fill:none;stroke:#FFFFFF;stroke-width:1.2383;stroke-linecap:round;stroke-miterlimit:10;enable-background:new    ;}
</style>
<g id="RVA4Cj.tif" class="st0">
	
		<image style="display:inline;overflow:visible;" width="418" height="222" id="Layer_0_1_" xlink:href="6BCDA3889753A672.html"  transform="matrix(1.8071 0 0 1.8071 3128.49 22.9916)">
	</image>
</g>
<g>
	<path class="st1" d="M241.7,361.3h-4.6l-0.8,1.8h-1.9l4-9.6h1.9l4,9.6h-1.9L241.7,361.3z M241.1,359.9l-1.7-4l-1.7,4H241.1z"/>
	<path class="st1" d="M255,353.5l-4,9.6H249l-4-9.6h1.9l3.1,7.3l3.1-7.3H255z"/>
	<path class="st1" d="M256.5,353.5h1.7v9.6h-1.7V353.5z"/>
	<path class="st1" d="M266.4,362.7c-0.8-0.5-1.4-1.1-1.8-1.8c-0.5-0.8-0.7-1.6-0.7-2.5c0-0.9,0.2-1.7,0.7-2.5
		c0.5-0.8,1.1-1.4,1.8-1.8c0.8-0.5,1.6-0.7,2.5-0.7c0.7,0,1.4,0.1,2,0.4c0.6,0.3,1.2,0.7,1.7,1.1l-1.2,1.2c-0.3-0.4-0.7-0.6-1.1-0.8
		c-0.4-0.2-0.9-0.3-1.3-0.3c-0.6,0-1.1,0.2-1.6,0.5c-0.5,0.3-0.9,0.7-1.2,1.2c-0.3,0.5-0.4,1.1-0.4,1.7c0,0.6,0.1,1.2,0.4,1.7
		c0.3,0.5,0.7,0.9,1.2,1.2c0.5,0.3,1,0.5,1.6,0.5c0.5,0,0.9-0.1,1.3-0.3c0.4-0.2,0.8-0.5,1.1-0.8l1.2,1.1c-0.5,0.5-1,0.9-1.6,1.2
		c-0.6,0.3-1.3,0.4-2,0.4C268,363.3,267.1,363.1,266.4,362.7z"/>
	<path class="st1" d="M276.1,362.7c-0.8-0.5-1.4-1.1-1.8-1.8c-0.5-0.8-0.7-1.6-0.7-2.5c0-0.9,0.2-1.7,0.7-2.5
		c0.5-0.8,1.1-1.4,1.8-1.8c0.8-0.5,1.6-0.7,2.5-0.7s1.7,0.2,2.5,0.7c0.8,0.5,1.4,1.1,1.9,1.8s0.7,1.6,0.7,2.5c0,0.9-0.2,1.7-0.7,2.5
		s-1.1,1.4-1.9,1.8c-0.8,0.5-1.6,0.7-2.5,0.7S276.9,363.1,276.1,362.7z M280.2,361.3c0.5-0.3,0.9-0.7,1.2-1.2
		c0.3-0.5,0.4-1.1,0.4-1.7c0-0.6-0.1-1.2-0.4-1.7c-0.3-0.5-0.7-0.9-1.2-1.2c-0.5-0.3-1-0.5-1.6-0.5c-0.6,0-1.1,0.2-1.6,0.5
		c-0.5,0.3-0.9,0.7-1.2,1.2c-0.3,0.5-0.4,1.1-0.4,1.7c0,0.6,0.1,1.2,0.4,1.7c0.3,0.5,0.7,0.9,1.2,1.2c0.5,0.3,1,0.5,1.6,0.5
		C279.2,361.7,279.7,361.6,280.2,361.3z"/>
	<path class="st1" d="M285.5,353.5h1.7l5.1,6.8v-6.8h1.7v9.6h-1.7l-5.1-6.8v6.8h-1.7V353.5z"/>
	<path class="st1" d="M298.8,355.1h-3.1v-1.6h7.9v1.6h-3.1v8h-1.8V355.1z"/>
	<path class="st1" d="M312.3,358.7c-0.5,0.6-1.1,0.9-1.9,1.1l2.4,3.3h-2l-2.3-3.2h-1.5v3.2h-1.7v-9.6h4.2c0.7,0,1.3,0.1,1.8,0.4
		c0.5,0.3,1,0.6,1.3,1.1c0.3,0.5,0.5,1,0.5,1.7C313,357.5,312.7,358.2,312.3,358.7z M306.9,358.3h2.2c0.6,0,1.1-0.1,1.5-0.4
		c0.4-0.3,0.6-0.7,0.6-1.2s-0.2-0.9-0.6-1.2c-0.4-0.3-0.9-0.4-1.5-0.4h-2.2V358.3z"/>
	<path class="st1" d="M316.7,362.7c-0.8-0.5-1.4-1.1-1.8-1.8s-0.7-1.6-0.7-2.5c0-0.9,0.2-1.7,0.7-2.5s1.1-1.4,1.8-1.8
		c0.8-0.5,1.6-0.7,2.5-0.7c0.9,0,1.7,0.2,2.5,0.7c0.8,0.5,1.4,1.1,1.9,1.8s0.7,1.6,0.7,2.5c0,0.9-0.2,1.7-0.7,2.5s-1.1,1.4-1.9,1.8
		c-0.8,0.5-1.6,0.7-2.5,0.7C318.4,363.3,317.5,363.1,316.7,362.7z M320.9,361.3c0.5-0.3,0.9-0.7,1.2-1.2c0.3-0.5,0.4-1.1,0.4-1.7
		c0-0.6-0.1-1.2-0.4-1.7c-0.3-0.5-0.7-0.9-1.2-1.2c-0.5-0.3-1-0.5-1.6-0.5c-0.6,0-1.1,0.2-1.6,0.5c-0.5,0.3-0.9,0.7-1.2,1.2
		c-0.3,0.5-0.4,1.1-0.4,1.7c0,0.6,0.1,1.2,0.4,1.7c0.3,0.5,0.7,0.9,1.2,1.2c0.5,0.3,1,0.5,1.6,0.5
		C319.8,361.7,320.4,361.6,320.9,361.3z"/>
	<path class="st1" d="M332.9,361.6v1.6h-6.7v-9.6h1.7v8H332.9z"/>
	<path class="st1" d="M341.1,361.6v1.6h-6.7v-9.6h1.7v8H341.1z"/>
	<path class="st1" d="M344.5,355.1v2.3h5v1.6h-5v2.5h5.5v1.6h-7.2v-9.6h7.2v1.6H344.5z"/>
	<path class="st1" d="M359,358.7c-0.5,0.6-1.1,0.9-1.9,1.1l2.4,3.3h-2l-2.3-3.2h-1.5v3.2H352v-9.6h4.2c0.7,0,1.3,0.1,1.8,0.4
		s1,0.6,1.3,1.1s0.5,1,0.5,1.7C359.7,357.5,359.5,358.2,359,358.7z M353.7,358.3h2.2c0.6,0,1.1-0.1,1.5-0.4c0.4-0.3,0.6-0.7,0.6-1.2
		s-0.2-0.9-0.6-1.2c-0.4-0.3-0.9-0.4-1.5-0.4h-2.2V358.3z"/>
</g>
<g>
	<path class="st2" d="M87.2,361h-5.4l-1,2.2h-1.2l4.2-9.6h1.2l4.2,9.6h-1.2L87.2,361z M86.7,359.9l-2.2-5.1l-2.2,5.1H86.7z"/>
	<path class="st2" d="M91.1,353.5H95c0.7,0,1.3,0.1,1.8,0.4c0.5,0.3,1,0.6,1.3,1.1s0.5,1,0.5,1.6s-0.2,1.1-0.5,1.6
		c-0.3,0.5-0.7,0.8-1.3,1.1c-0.5,0.3-1.1,0.4-1.8,0.4h-2.8v3.5h-1.1V353.5z M94.8,358.7c0.8,0,1.4-0.2,1.9-0.5
		c0.5-0.4,0.7-0.9,0.7-1.5s-0.2-1.1-0.7-1.5c-0.5-0.4-1.1-0.5-1.9-0.5h-2.6v4.1H94.8z"/>
	<path class="st2" d="M100.5,353.5h3.9c0.7,0,1.3,0.1,1.8,0.4c0.5,0.3,1,0.6,1.3,1.1s0.5,1,0.5,1.6s-0.2,1.1-0.5,1.6
		c-0.3,0.5-0.7,0.8-1.3,1.1c-0.5,0.3-1.1,0.4-1.8,0.4h-2.8v3.5h-1.1V353.5z M104.2,358.7c0.8,0,1.4-0.2,1.9-0.5
		c0.5-0.4,0.7-0.9,0.7-1.5s-0.2-1.1-0.7-1.5c-0.5-0.4-1.1-0.5-1.9-0.5h-2.6v4.1H104.2z"/>
	<path class="st2" d="M113.7,353.5h3.2c1,0,1.9,0.2,2.7,0.6c0.8,0.4,1.4,1,1.8,1.7c0.4,0.7,0.7,1.6,0.7,2.5c0,0.9-0.2,1.8-0.7,2.5
		s-1.1,1.3-1.8,1.7c-0.8,0.4-1.7,0.6-2.7,0.6h-3.2V353.5z M116.9,362.2c0.8,0,1.5-0.2,2.1-0.5c0.6-0.3,1.1-0.8,1.5-1.4
		c0.4-0.6,0.5-1.2,0.5-2c0-0.7-0.2-1.4-0.5-2s-0.8-1-1.5-1.4c-0.6-0.3-1.3-0.5-2.1-0.5h-2.2v7.6H116.9z"/>
	<path class="st2" d="M125.4,354.6v3.2h5.2v1h-5.2v3.3h5.8v1h-6.9v-9.6h6.9v1H125.4z"/>
	<path class="st2" d="M141.9,353.5l-4.2,9.6h-1.2l-4.2-9.6h1.2l3.7,8.3l3.6-8.3H141.9z"/>
	<path class="st2" d="M144.7,354.6v3.2h5.2v1h-5.2v3.3h5.8v1h-6.9v-9.6h6.9v1H144.7z"/>
	<path class="st2" d="M159,362.1v1h-6.3v-9.6h1.1v8.6H159z"/>
	<path class="st2" d="M162.5,362.7c-0.8-0.5-1.4-1.1-1.8-1.8c-0.4-0.8-0.7-1.6-0.7-2.5c0-0.9,0.2-1.7,0.7-2.5
		c0.4-0.8,1.1-1.4,1.8-1.8c0.8-0.5,1.6-0.7,2.4-0.7c0.9,0,1.7,0.2,2.4,0.7c0.8,0.5,1.4,1.1,1.8,1.8c0.4,0.8,0.7,1.6,0.7,2.5
		c0,0.9-0.2,1.7-0.7,2.5c-0.4,0.8-1,1.4-1.8,1.8c-0.8,0.5-1.6,0.7-2.4,0.7C164.1,363.3,163.3,363.1,162.5,362.7z M166.8,361.8
		c0.6-0.4,1-0.8,1.4-1.5s0.5-1.3,0.5-2c0-0.7-0.2-1.4-0.5-2s-0.8-1.1-1.4-1.5s-1.2-0.5-1.9-0.5s-1.3,0.2-1.9,0.5
		c-0.6,0.4-1,0.8-1.4,1.5s-0.5,1.3-0.5,2c0,0.7,0.2,1.4,0.5,2s0.8,1.1,1.4,1.5c0.6,0.4,1.2,0.5,1.9,0.5S166.3,362.1,166.8,361.8z"/>
	<path class="st2" d="M172,353.5h3.9c0.7,0,1.3,0.1,1.8,0.4c0.5,0.3,1,0.6,1.3,1.1s0.5,1,0.5,1.6s-0.2,1.1-0.5,1.6
		c-0.3,0.5-0.7,0.8-1.3,1.1c-0.5,0.3-1.1,0.4-1.8,0.4h-2.8v3.5H172V353.5z M175.7,358.7c0.8,0,1.4-0.2,1.9-0.5
		c0.5-0.4,0.7-0.9,0.7-1.5s-0.2-1.1-0.7-1.5c-0.5-0.4-1.1-0.5-1.9-0.5h-2.6v4.1H175.7z"/>
	<path class="st2" d="M182.6,354.6v3.2h5.2v1h-5.2v3.3h5.8v1h-6.9v-9.6h6.9v1H182.6z"/>
	<path class="st2" d="M197.6,358.1c-0.3,0.4-0.6,0.8-1.1,1.1c-0.5,0.3-1,0.5-1.5,0.5l2.5,3.5h-1.2l-2.4-3.5h-2.1v3.5h-1.1v-9.6h3.9
		c0.7,0,1.3,0.1,1.8,0.4c0.5,0.3,1,0.6,1.3,1.1s0.5,1,0.5,1.6C198,357.2,197.9,357.6,197.6,358.1z M191.7,358.7h2.6
		c0.8,0,1.4-0.2,1.9-0.5c0.5-0.4,0.7-0.9,0.7-1.5s-0.2-1.1-0.7-1.5c-0.5-0.4-1.1-0.5-1.9-0.5h-2.6V358.7z"/>
	<path class="st2" d="M199.2,361.8l0.7-0.9c0.4,0.4,0.9,0.8,1.4,1c0.5,0.2,1.1,0.4,1.7,0.4c0.5,0,0.9-0.1,1.2-0.2
		c0.3-0.2,0.6-0.4,0.8-0.6c0.2-0.3,0.3-0.5,0.3-0.8c0-0.5-0.2-0.9-0.6-1.1c-0.4-0.3-1.1-0.5-2-0.7c-0.7-0.2-1.3-0.4-1.7-0.6
		c-0.5-0.2-0.8-0.5-1-0.8c-0.2-0.3-0.4-0.8-0.4-1.3c0-0.5,0.1-1,0.4-1.4c0.3-0.4,0.7-0.7,1.2-1c0.5-0.2,1-0.4,1.6-0.4
		c0.7,0,1.3,0.1,1.8,0.4c0.5,0.2,1.1,0.6,1.5,1l-0.7,0.9c-0.4-0.4-0.8-0.7-1.3-0.9s-0.9-0.3-1.4-0.3c-0.4,0-0.7,0.1-1,0.2
		c-0.3,0.1-0.6,0.4-0.7,0.6s-0.3,0.5-0.3,0.8c0,0.5,0.2,0.8,0.6,1c0.4,0.2,1.1,0.5,2,0.7c1,0.2,1.8,0.6,2.3,1s0.8,1,0.8,1.8
		c0,0.5-0.1,1-0.4,1.4s-0.6,0.8-1.2,1c-0.5,0.2-1.1,0.4-1.8,0.4C201.5,363.3,200.2,362.8,199.2,361.8z"/>
</g>
<g>
	<g>
		<path class="st2" d="M266,408.5c-0.3,0.4-0.6,0.8-1.1,1.1c-0.5,0.3-1,0.5-1.5,0.5l2.5,3.5h-1.2l-2.4-3.5H260v3.5h-1.1v-9.6h3.9
			c0.7,0,1.3,0.1,1.8,0.4c0.5,0.3,1,0.6,1.3,1.1s0.5,1,0.5,1.6C266.4,407.5,266.3,408,266,408.5z M260,409.1h2.6
			c0.8,0,1.4-0.2,1.9-0.5c0.5-0.4,0.7-0.9,0.7-1.5s-0.2-1.1-0.7-1.5c-0.5-0.4-1.1-0.5-1.9-0.5H260V409.1z"/>
		<path class="st2" d="M269.6,405v3.2h5.2v1h-5.2v3.3h5.8v1h-6.9v-9.6h6.9v1H269.6z"/>
		<path class="st2" d="M276.7,412.2l0.7-0.9c0.4,0.4,0.9,0.8,1.4,1c0.5,0.2,1.1,0.4,1.7,0.4c0.5,0,0.9-0.1,1.2-0.2
			c0.3-0.2,0.6-0.4,0.8-0.6c0.2-0.3,0.3-0.5,0.3-0.8c0-0.5-0.2-0.9-0.6-1.1s-1.1-0.5-2-0.7c-0.7-0.2-1.3-0.4-1.7-0.6
			c-0.5-0.2-0.8-0.5-1-0.8c-0.2-0.3-0.4-0.8-0.4-1.3c0-0.5,0.1-1,0.4-1.4c0.3-0.4,0.7-0.7,1.2-1c0.5-0.2,1-0.4,1.6-0.4
			c0.7,0,1.3,0.1,1.8,0.4c0.5,0.2,1.1,0.6,1.5,1l-0.7,0.9c-0.4-0.4-0.8-0.7-1.3-0.9s-0.9-0.3-1.4-0.3c-0.4,0-0.7,0.1-1,0.2
			c-0.3,0.1-0.6,0.4-0.7,0.6s-0.3,0.5-0.3,0.8c0,0.5,0.2,0.8,0.6,1c0.4,0.2,1.1,0.5,2,0.7c1,0.2,1.8,0.6,2.3,1s0.8,1,0.8,1.8
			c0,0.5-0.1,1-0.4,1.4s-0.6,0.8-1.2,1c-0.5,0.2-1.1,0.4-1.8,0.4C279,413.7,277.7,413.2,276.7,412.2z"/>
		<path class="st2" d="M288,405h-3.2v-1h7.6v1h-3.2v8.6H288V405z"/>
		<path class="st2" d="M311.6,411.4h-5.4l-1,2.2H304l4.2-9.6h1.2l4.2,9.6h-1.2L311.6,411.4z M311.1,410.3l-2.2-5.1l-2.2,5.1H311.1z"
			/>
		<path class="st2" d="M315.5,403.9h3.9c0.7,0,1.3,0.1,1.8,0.4c0.5,0.3,1,0.6,1.3,1.1s0.5,1,0.5,1.6s-0.2,1.1-0.5,1.6
			c-0.3,0.5-0.7,0.8-1.3,1.1c-0.5,0.3-1.1,0.4-1.8,0.4h-2.8v3.5h-1.1V403.9z M319.2,409.1c0.8,0,1.4-0.2,1.9-0.5
			c0.5-0.4,0.7-0.9,0.7-1.5s-0.2-1.1-0.7-1.5c-0.5-0.4-1.1-0.5-1.9-0.5h-2.6v4.1H319.2z"/>
		<path class="st2" d="M324.9,403.9h1.1v9.6h-1.1V403.9z"/>
	</g>
</g>
<g id="XMLID_506_">
	<g>
		<line class="st3" x1="110.1" y1="193.1" x2="254.9" y2="280.9"/>
		<g>
			<polygon class="st4" points="110.2,195.5 105,190 112.3,192.1 			"/>
		</g>
		<g>
			<polygon class="st4" points="252.7,281.9 260,284 254.8,278.5 			"/>
		</g>
	</g>
</g>
<g id="XMLID_24_">
	<g>
		<line class="st3" x1="485.9" y1="193.1" x2="341.1" y2="280.9"/>
		<g>
			<polygon class="st4" points="483.7,192.1 491,190 485.8,195.5 			"/>
		</g>
		<g>
			<polygon class="st4" points="341.2,278.5 336,284 343.3,281.9 			"/>
		</g>
	</g>
</g>
<g>
	<g>
		<path class="st2" d="M206.7,303c-0.3,0.4-0.6,0.8-1.1,1.1c-0.5,0.3-1,0.5-1.5,0.5l2.4,3.5h-1.2l-2.4-3.5h-2.1v3.5h-1.1v-9.6h3.9
			c0.7,0,1.3,0.1,1.8,0.4c0.5,0.3,1,0.6,1.3,1.1s0.5,1,0.5,1.6C207,302.1,206.9,302.6,206.7,303z M200.7,303.6h2.6
			c0.8,0,1.4-0.2,1.9-0.5c0.5-0.4,0.7-0.9,0.7-1.5s-0.2-1.1-0.7-1.5c-0.5-0.4-1.1-0.5-1.9-0.5h-2.6V303.6z"/>
		<path class="st2" d="M210.2,299.5v3.2h5.2v1h-5.2v3.3h5.8v1h-6.9v-9.6h6.9v1H210.2z"/>
		<path class="st2" d="M217.3,306.7l0.7-0.9c0.4,0.4,0.9,0.8,1.4,1c0.5,0.2,1.1,0.4,1.7,0.4c0.5,0,0.9-0.1,1.2-0.2
			c0.3-0.2,0.6-0.4,0.8-0.6c0.2-0.3,0.3-0.5,0.3-0.8c0-0.5-0.2-0.9-0.6-1.1c-0.4-0.3-1.1-0.5-2-0.7c-0.7-0.2-1.3-0.4-1.7-0.6
			c-0.5-0.2-0.8-0.5-1.1-0.8c-0.2-0.3-0.4-0.8-0.4-1.3c0-0.5,0.1-1,0.4-1.4c0.3-0.4,0.7-0.7,1.2-1c0.5-0.2,1-0.4,1.6-0.4
			c0.7,0,1.3,0.1,1.8,0.4c0.5,0.2,1.1,0.6,1.5,1l-0.7,0.9c-0.4-0.4-0.8-0.7-1.3-0.9s-0.9-0.3-1.4-0.3c-0.4,0-0.7,0.1-1,0.2
			c-0.3,0.1-0.6,0.4-0.7,0.6c-0.2,0.3-0.3,0.5-0.3,0.8c0,0.5,0.2,0.8,0.6,1c0.4,0.2,1.1,0.5,2,0.7c1,0.2,1.8,0.6,2.3,1
			c0.5,0.4,0.8,1,0.8,1.8c0,0.5-0.1,1-0.4,1.4c-0.3,0.4-0.6,0.8-1.2,1c-0.5,0.2-1.1,0.4-1.8,0.4
			C219.6,308.2,218.3,307.7,217.3,306.7z"/>
		<path class="st2" d="M228.7,299.5h-3.2v-1h7.6v1h-3.2v8.6h-1.1V299.5z"/>
		<path class="st2" d="M211.7,322.7h-5.4l-1,2.2h-1.2l4.2-9.6h1.2l4.2,9.6h-1.2L211.7,322.7z M211.2,321.7l-2.2-5.1l-2.2,5.1H211.2z
			"/>
		<path class="st2" d="M215.6,315.3h3.9c0.7,0,1.3,0.1,1.8,0.4c0.5,0.3,1,0.6,1.3,1.1s0.5,1,0.5,1.6s-0.2,1.1-0.5,1.6
			c-0.3,0.5-0.7,0.8-1.3,1.1c-0.5,0.3-1.1,0.4-1.8,0.4h-2.8v3.5h-1.1V315.3z M219.3,320.4c0.8,0,1.4-0.2,1.9-0.5
			c0.5-0.4,0.7-0.9,0.7-1.5s-0.2-1.1-0.7-1.5c-0.5-0.4-1.1-0.5-1.9-0.5h-2.6v4.1H219.3z"/>
		<path class="st2" d="M225,315.3h1.1v9.6H225V315.3z"/>
	</g>
</g>
<g id="XMLID_120_">
	<g>
		<line class="st5" x1="182.1" y1="311.9" x2="249.2" y2="311.9"/>
		<g>
			<polygon class="st6" points="183.5,314.1 175.5,311.9 183.5,309.8 			"/>
		</g>
		<g>
			<polygon class="st6" points="247.7,314.1 255.8,311.9 247.7,309.8 			"/>
		</g>
	</g>
</g>
<g id="XMLID_7_">
	<g>
		<line class="st5" x1="297.3" y1="379.4" x2="297.3" y2="446.5"/>
		<g>
			<polygon class="st6" points="295.2,380.9 297.3,372.8 299.5,380.9 			"/>
		</g>
		<g>
			<polygon class="st6" points="295.2,445.1 297.3,453.1 299.5,445.1 			"/>
		</g>
	</g>
</g>
<g id="XMLID_67_">
	<g>
		<line class="st5" x1="182.1" y1="488.6" x2="249.2" y2="488.6"/>
		<g>
			<polygon class="st6" points="183.5,490.7 175.5,488.6 183.5,486.4 			"/>
		</g>
		<g>
			<polygon class="st6" points="247.7,490.7 255.8,488.6 247.7,486.4 			"/>
		</g>
	</g>
</g>
<g id="XMLID_60_">
	<g>
		<line class="st3" x1="297.2" y1="208.8" x2="297.2" y2="260.9"/>
		<g>
			<polygon class="st4" points="295.3,210.2 297.2,202.8 299.2,210.2 			"/>
		</g>
		<g>
			<polygon class="st4" points="295.3,259.6 297.2,266.9 299.2,259.6 			"/>
		</g>
	</g>
</g>
<line id="XMLID_162_" class="st7" x1="190.3" y1="56" x2="190.3" y2="177"/>
<line id="XMLID_187_" class="st7" x1="405.9" y1="56" x2="405.9" y2="177"/>
<g>
	<g>
		<path class="st2" d="M112.7,526.7h1.1v9.6h-1.1V526.7z"/>
		<path class="st2" d="M118.7,527.7h-3.2v-1h7.6v1h-3.2v8.6h-1.1V527.7z"/>
		<path class="st2" d="M134.8,534.1h-5.4l-1,2.2h-1.2l4.2-9.6h1.2l4.2,9.6h-1.2L134.8,534.1z M134.4,533.1l-2.2-5.1l-2.2,5.1H134.4z
			"/>
		<path class="st2" d="M138.7,526.7h3.2c1,0,1.9,0.2,2.7,0.6c0.8,0.4,1.4,1,1.8,1.7c0.4,0.7,0.7,1.6,0.7,2.5c0,0.9-0.2,1.8-0.7,2.5
			c-0.4,0.7-1.1,1.3-1.8,1.7c-0.8,0.4-1.7,0.6-2.7,0.6h-3.2V526.7z M142,535.3c0.8,0,1.5-0.2,2.1-0.5c0.6-0.3,1.1-0.8,1.5-1.4
			c0.4-0.6,0.5-1.2,0.5-2c0-0.7-0.2-1.4-0.5-2c-0.3-0.6-0.8-1-1.5-1.4c-0.6-0.3-1.3-0.5-2.1-0.5h-2.2v7.6H142z"/>
		<path class="st2" d="M149.4,526.7h1.1l3.6,6.7l3.6-6.7h1.1v9.6h-1.1V529l-3.6,6.7l-3.6-6.7v7.3h-1.1V526.7z"/>
		<path class="st2" d="M161.6,526.7h1.1v9.6h-1.1V526.7z"/>
		<path class="st2" d="M165.6,526.7h1.1l6,7.8v-7.8h1.1v9.6h-1.1l-6-7.8v7.8h-1.1V526.7z"/>
	</g>
</g>
<g>
	<path class="st1" d="M255.6,534.5H251l-0.8,1.8h-1.9l4-9.6h1.9l4,9.6h-1.9L255.6,534.5z M255,533.1l-1.7-4l-1.7,4H255z"/>
	<path class="st1" d="M268.8,526.7l-4,9.6h-1.9l-4-9.6h1.9l3.1,7.3l3.1-7.3H268.8z"/>
	<path class="st1" d="M270.4,526.7h1.7v9.6h-1.7V526.7z"/>
	<path class="st1" d="M280.2,535.8c-0.8-0.5-1.4-1.1-1.8-1.8s-0.7-1.6-0.7-2.5c0-0.9,0.2-1.7,0.7-2.5s1.1-1.4,1.8-1.8
		c0.8-0.5,1.6-0.7,2.5-0.7c0.7,0,1.4,0.1,2,0.4s1.2,0.7,1.7,1.1l-1.2,1.2c-0.3-0.4-0.7-0.6-1.1-0.8c-0.4-0.2-0.9-0.3-1.3-0.3
		c-0.6,0-1.1,0.2-1.6,0.5c-0.5,0.3-0.9,0.7-1.2,1.2c-0.3,0.5-0.4,1.1-0.4,1.7c0,0.6,0.1,1.2,0.4,1.7c0.3,0.5,0.7,0.9,1.2,1.2
		c0.5,0.3,1,0.5,1.6,0.5c0.5,0,0.9-0.1,1.3-0.3c0.4-0.2,0.8-0.5,1.1-0.8l1.2,1.1c-0.5,0.5-1,0.9-1.6,1.2s-1.3,0.4-2,0.4
		C281.8,536.5,281,536.2,280.2,535.8z"/>
	<path class="st1" d="M289.9,535.8c-0.8-0.5-1.4-1.1-1.8-1.8s-0.7-1.6-0.7-2.5c0-0.9,0.2-1.7,0.7-2.5s1.1-1.4,1.8-1.8
		c0.8-0.5,1.6-0.7,2.5-0.7c0.9,0,1.7,0.2,2.5,0.7c0.8,0.5,1.4,1.1,1.9,1.8c0.5,0.8,0.7,1.6,0.7,2.5c0,0.9-0.2,1.7-0.7,2.5
		c-0.5,0.8-1.1,1.4-1.9,1.8c-0.8,0.5-1.6,0.7-2.5,0.7C291.5,536.5,290.7,536.2,289.9,535.8z M294.1,534.4c0.5-0.3,0.9-0.7,1.2-1.2
		c0.3-0.5,0.4-1.1,0.4-1.7c0-0.6-0.1-1.2-0.4-1.7c-0.3-0.5-0.7-0.9-1.2-1.2c-0.5-0.3-1-0.5-1.6-0.5c-0.6,0-1.1,0.2-1.6,0.5
		c-0.5,0.3-0.9,0.7-1.2,1.2c-0.3,0.5-0.4,1.1-0.4,1.7c0,0.6,0.1,1.2,0.4,1.7c0.3,0.5,0.7,0.9,1.2,1.2c0.5,0.3,1,0.5,1.6,0.5
		C293,534.9,293.6,534.7,294.1,534.4z"/>
	<path class="st1" d="M299.4,526.7h1.7l5.1,6.8v-6.8h1.7v9.6h-1.7l-5.1-6.8v6.8h-1.7V526.7z"/>
	<path class="st1" d="M311.5,536.1c-0.7-0.3-1.3-0.7-1.9-1.2l1-1.2c1,0.9,2,1.3,3.2,1.3c0.6,0,1-0.1,1.3-0.4
		c0.3-0.2,0.5-0.5,0.5-0.9c0-0.3-0.1-0.5-0.2-0.6s-0.4-0.3-0.7-0.4c-0.3-0.1-0.7-0.2-1.3-0.4c-0.7-0.2-1.4-0.4-1.8-0.6
		c-0.5-0.2-0.8-0.5-1.1-0.9c-0.3-0.4-0.4-0.8-0.4-1.4c0-0.6,0.1-1,0.4-1.5s0.7-0.8,1.2-1c0.5-0.2,1.1-0.4,1.8-0.4
		c1.4,0,2.6,0.4,3.6,1.3l-1,1.3c-0.4-0.4-0.9-0.6-1.3-0.8s-0.9-0.3-1.4-0.3c-0.5,0-0.9,0.1-1.2,0.4c-0.3,0.2-0.5,0.5-0.5,0.9
		c0,0.3,0.1,0.5,0.2,0.6c0.2,0.2,0.4,0.3,0.7,0.4c0.3,0.1,0.7,0.2,1.3,0.4c1.1,0.3,1.9,0.6,2.5,1c0.6,0.4,0.8,1,0.8,1.8
		c0,0.6-0.1,1.1-0.4,1.5c-0.3,0.4-0.7,0.8-1.2,1c-0.5,0.2-1.2,0.4-1.9,0.4C313,536.5,312.2,536.3,311.5,536.1z"/>
	<path class="st1" d="M321.1,535.8c-0.8-0.5-1.4-1.1-1.8-1.8s-0.7-1.6-0.7-2.5c0-0.9,0.2-1.7,0.7-2.5s1.1-1.4,1.8-1.8
		c0.8-0.5,1.6-0.7,2.5-0.7c0.9,0,1.7,0.2,2.5,0.7c0.8,0.5,1.4,1.1,1.9,1.8c0.5,0.8,0.7,1.6,0.7,2.5c0,0.9-0.2,1.7-0.7,2.5
		c-0.5,0.8-1.1,1.4-1.9,1.8c-0.8,0.5-1.6,0.7-2.5,0.7C322.8,536.5,321.9,536.2,321.1,535.8z M325.3,534.4c0.5-0.3,0.9-0.7,1.2-1.2
		c0.3-0.5,0.4-1.1,0.4-1.7c0-0.6-0.1-1.2-0.4-1.7c-0.3-0.5-0.7-0.9-1.2-1.2c-0.5-0.3-1-0.5-1.6-0.5c-0.6,0-1.1,0.2-1.6,0.5
		c-0.5,0.3-0.9,0.7-1.2,1.2c-0.3,0.5-0.4,1.1-0.4,1.7c0,0.6,0.1,1.2,0.4,1.7c0.3,0.5,0.7,0.9,1.2,1.2c0.5,0.3,1,0.5,1.6,0.5
		C324.2,534.9,324.8,534.7,325.3,534.4z"/>
	<path class="st1" d="M337.3,534.7v1.6h-6.7v-9.6h1.7v8H337.3z"/>
	<path class="st1" d="M340.6,528.3v2.3h5v1.6h-5v2.5h5.5v1.6h-7.2v-9.6h7.2v1.6H340.6z"/>
</g>
<g>
	<circle class="st7" cx="104.3" cy="170.9" r="2.9"/>
	<circle class="st7" cx="60.5" cy="170.9" r="5.1"/>
	<line class="st8" x1="72.6" y1="170.9" x2="65.6" y2="170.9"/>
	<line class="st8" x1="101.1" y1="170.9" x2="94.1" y2="170.9"/>
	<circle class="st7" cx="97.6" cy="156.4" r="2.9"/>
	<line class="st8" x1="95.3" y1="158.7" x2="90.8" y2="163.2"/>
	<circle class="st7" cx="97.6" cy="185.4" r="2.9"/>
	<line class="st8" x1="95.3" y1="183.2" x2="90.8" y2="178.7"/>
	<path class="st9" d="M72.9,166.6v8.7c0,1,0.6,2,1.5,2.5l7.6,4.4c0.9,0.5,2,0.5,2.9,0l7.6-4.4c0.9-0.5,1.5-1.5,1.5-2.5v-8.7
		c0-1-0.6-2-1.5-2.5l-7.6-4.4c-0.9-0.5-2-0.5-2.9,0l-7.6,4.4C73.5,164.6,72.9,165.5,72.9,166.6z"/>
	<polyline class="st10" points="79.7,174.6 83.4,167.3 87,174.6 	"/>
</g>
<g>
	<circle class="st7" cx="317.8" cy="170.9" r="2.9"/>
	<circle class="st7" cx="274" cy="170.9" r="5.1"/>
	<line class="st8" x1="286.1" y1="170.9" x2="279.1" y2="170.9"/>
	<line class="st8" x1="314.6" y1="170.9" x2="307.6" y2="170.9"/>
	<circle class="st7" cx="311.1" cy="156.4" r="2.9"/>
	<line class="st8" x1="308.8" y1="158.7" x2="304.3" y2="163.2"/>
	<circle class="st7" cx="311.1" cy="185.4" r="2.9"/>
	<line class="st8" x1="308.8" y1="183.2" x2="304.3" y2="178.7"/>
	<path class="st9" d="M286.4,166.6v8.7c0,1,0.6,2,1.5,2.5l7.6,4.4c0.9,0.5,2,0.5,2.9,0l7.6-4.4c0.9-0.5,1.5-1.5,1.5-2.5v-8.7
		c0-1-0.6-2-1.5-2.5l-7.6-4.4c-0.9-0.5-2-0.5-2.9,0l-7.6,4.4C287,164.6,286.4,165.5,286.4,166.6z"/>
	<polyline class="st10" points="293.2,174.6 296.9,167.3 300.5,174.6 	"/>
</g>
<g>
	<circle class="st7" cx="538.8" cy="170.9" r="2.9"/>
	<circle class="st7" cx="495" cy="170.9" r="5.1"/>
	<line class="st8" x1="507.1" y1="170.9" x2="500.1" y2="170.9"/>
	<line class="st8" x1="535.7" y1="170.9" x2="528.7" y2="170.9"/>
	<circle class="st7" cx="532.1" cy="156.4" r="2.9"/>
	<line class="st8" x1="529.9" y1="158.7" x2="525.4" y2="163.2"/>
	<circle class="st7" cx="532.1" cy="185.4" r="2.9"/>
	<line class="st8" x1="529.9" y1="183.2" x2="525.4" y2="178.7"/>
	<path class="st9" d="M507.4,166.6v8.7c0,1,0.6,2,1.5,2.5l7.6,4.4c0.9,0.5,2,0.5,2.9,0l7.6-4.4c0.9-0.5,1.5-1.5,1.5-2.5v-8.7
		c0-1-0.6-2-1.5-2.5l-7.6-4.4c-0.9-0.5-2-0.5-2.9,0l-7.6,4.4C508,164.6,507.4,165.5,507.4,166.6z"/>
	<polyline class="st10" points="514.3,174.6 517.9,167.3 521.5,174.6 	"/>
</g>
<g>
	<path class="st2" d="M68.3,30.6H72c1.2,0,2.2,0.2,3.1,0.7c0.9,0.5,1.6,1.1,2.1,2c0.5,0.8,0.8,1.8,0.8,2.8s-0.3,2-0.8,2.8
		c-0.5,0.8-1.2,1.5-2.1,2c-0.9,0.5-1.9,0.7-3.1,0.7h-3.7V30.6z M72,40.4c0.9,0,1.7-0.2,2.4-0.6c0.7-0.4,1.3-0.9,1.7-1.6
		s0.6-1.4,0.6-2.3s-0.2-1.6-0.6-2.2s-1-1.2-1.7-1.5s-1.5-0.6-2.4-0.6h-2.5v8.7H72z"/>
	<path class="st2" d="M81.7,31.7v3.6h6v1.2h-6v3.8h6.6v1.2h-7.9v-11h7.9v1.2H81.7z"/>
	<path class="st2" d="M100.5,30.6l-4.8,11h-1.4l-4.8-11h1.4L95,40l4.2-9.5H100.5z"/>
</g>
<g>
	<path class="st2" d="M281.9,31.7h-3.7v-1.2h8.6v1.2h-3.7v9.8h-1.2V31.7z"/>
	<path class="st2" d="M290.1,31.7v3.6h6v1.2h-6v3.8h6.6v1.2h-7.9v-11h7.9v1.2H290.1z"/>
	<path class="st2" d="M298.2,40l0.8-1c0.5,0.5,1,0.9,1.6,1.2s1.2,0.4,2,0.4c0.5,0,1-0.1,1.4-0.3c0.4-0.2,0.7-0.4,0.9-0.7
		c0.2-0.3,0.3-0.6,0.3-1c0-0.6-0.2-1-0.7-1.3c-0.5-0.3-1.2-0.6-2.3-0.8c-0.8-0.2-1.5-0.4-2-0.6c-0.5-0.2-0.9-0.6-1.2-1
		c-0.3-0.4-0.4-0.9-0.4-1.5c0-0.6,0.2-1.1,0.5-1.6c0.3-0.5,0.8-0.9,1.3-1.1c0.6-0.3,1.2-0.4,1.9-0.4c0.8,0,1.5,0.1,2.1,0.4
		c0.6,0.3,1.2,0.7,1.8,1.2l-0.8,1c-0.5-0.4-1-0.8-1.5-1c-0.5-0.2-1.1-0.4-1.6-0.4c-0.4,0-0.8,0.1-1.2,0.3c-0.4,0.2-0.6,0.4-0.8,0.7
		c-0.2,0.3-0.3,0.6-0.3,0.9c0,0.5,0.2,0.9,0.7,1.2c0.5,0.3,1.2,0.5,2.3,0.8c1.2,0.3,2.1,0.7,2.7,1.1s0.9,1.2,0.9,2.1
		c0,0.6-0.1,1.1-0.4,1.6c-0.3,0.5-0.7,0.9-1.3,1.1c-0.6,0.3-1.3,0.4-2.1,0.4C300.9,41.7,299.4,41.1,298.2,40z"/>
	<path class="st2" d="M311.2,31.7h-3.7v-1.2h8.6v1.2h-3.7v9.8h-1.2V31.7z"/>
</g>
<g>
	<path class="st2" d="M496.5,30.6h4.5c0.7,0,1.4,0.1,2,0.4c0.6,0.3,1.1,0.7,1.5,1.3c0.4,0.5,0.5,1.1,0.5,1.8s-0.2,1.3-0.5,1.8
		c-0.4,0.5-0.8,1-1.5,1.3c-0.6,0.3-1.3,0.4-2,0.4h-3.2v4h-1.2V30.6z M500.8,36.4c0.9,0,1.6-0.2,2.2-0.6c0.5-0.4,0.8-1,0.8-1.7
		s-0.3-1.3-0.8-1.7c-0.5-0.4-1.3-0.6-2.2-0.6h-3v4.7H500.8z"/>
	<path class="st2" d="M515.4,35.7c-0.3,0.5-0.7,0.9-1.2,1.2s-1.1,0.5-1.8,0.6l2.8,4h-1.4l-2.8-4h-2.4v4h-1.2v-11h4.5
		c0.7,0,1.4,0.1,2,0.4c0.6,0.3,1.1,0.7,1.5,1.3c0.4,0.5,0.5,1.1,0.5,1.8C515.9,34.7,515.7,35.2,515.4,35.7z M508.6,36.4h3
		c0.9,0,1.6-0.2,2.2-0.6c0.5-0.4,0.8-1,0.8-1.7s-0.3-1.3-0.8-1.7c-0.5-0.4-1.3-0.6-2.2-0.6h-3V36.4z"/>
	<path class="st2" d="M520.2,41c-0.9-0.5-1.6-1.2-2.1-2.1c-0.5-0.9-0.8-1.8-0.8-2.8s0.3-2,0.8-2.8c0.5-0.9,1.2-1.6,2.1-2.1
		c0.9-0.5,1.8-0.8,2.8-0.8c1,0,1.9,0.3,2.8,0.8c0.9,0.5,1.5,1.2,2.1,2.1c0.5,0.9,0.8,1.8,0.8,2.8s-0.3,2-0.8,2.8
		c-0.5,0.9-1.2,1.6-2.1,2.1c-0.9,0.5-1.8,0.8-2.8,0.8C522,41.7,521.1,41.5,520.2,41z M525.2,40c0.7-0.4,1.2-1,1.6-1.7
		c0.4-0.7,0.6-1.4,0.6-2.3c0-0.8-0.2-1.5-0.6-2.2c-0.4-0.7-0.9-1.3-1.6-1.7c-0.7-0.4-1.4-0.6-2.2-0.6c-0.8,0-1.5,0.2-2.2,0.6
		c-0.7,0.4-1.2,1-1.6,1.7s-0.6,1.4-0.6,2.2c0,0.8,0.2,1.6,0.6,2.3s0.9,1.2,1.6,1.7c0.7,0.4,1.4,0.6,2.2,0.6
		C523.8,40.6,524.5,40.4,525.2,40z"/>
	<path class="st2" d="M531.1,30.6h3.7c1.2,0,2.2,0.2,3.1,0.7c0.9,0.5,1.6,1.1,2.1,2c0.5,0.8,0.8,1.8,0.8,2.8s-0.3,2-0.8,2.8
		c-0.5,0.8-1.2,1.5-2.1,2c-0.9,0.5-1.9,0.7-3.1,0.7h-3.7V30.6z M534.8,40.4c0.9,0,1.7-0.2,2.4-0.6c0.7-0.4,1.3-0.9,1.7-1.6
		c0.4-0.7,0.6-1.4,0.6-2.3s-0.2-1.6-0.6-2.2c-0.4-0.7-1-1.2-1.7-1.5c-0.7-0.4-1.5-0.6-2.4-0.6h-2.5v8.7H534.8z"/>
</g>
<g>
	<g>
		<g>
			<line class="st11" x1="83.7" y1="105.8" x2="83.7" y2="145"/>
			<g>
				<polygon class="st6" points="81.7,107.1 83.7,99.8 85.7,107.1 				"/>
			</g>
			<g>
				<polygon class="st6" points="81.7,143.7 83.7,151 85.7,143.7 				"/>
			</g>
		</g>
	</g>
	<path class="st12" d="M37.4,64.6c-8.7,0-14.1-1.8-14.1-3.1s5.3-3.1,14.1-3.1c8.7,0,14.1,1.8,14.1,3.1
		C51.5,62.8,46.1,64.6,37.4,64.6z M52.5,61.5c0-2.7-7.6-4.1-15.1-4.1c-7.5,0-15.1,1.4-15.1,4.1c0,2.7,7.6,4.1,15.1,4.1
		c5.8,0,11.7-0.9,14.1-2.5v7.2c-0.1,0.1-0.1,0.2-0.1,0.3c0,1.3-5.3,3.1-14.1,3.1c-8.7,0-14.1-1.8-14.1-3.1v-4.9
		c0-0.3-0.2-0.5-0.5-0.5c-0.3,0-0.5,0.2-0.5,0.5v4.9c0,2.7,7.6,4.1,15.1,4.1c5.9,0,11.9-0.9,14.1-2.6v7.5c-0.1,0.1-0.1,0.2-0.1,0.3
		c0,1.3-5.3,3.1-14.1,3.1c-8.7,0-14.1-1.8-14.1-3.1v-4.8c0-0.3-0.2-0.5-0.5-0.5c-0.3,0-0.5,0.2-0.5,0.5v4.8c0,2.7,7.6,4.1,15.1,4.1
		c5.9,0,11.9-0.9,14.1-2.6V89c-0.1,0.1-0.1,0.2-0.1,0.3c0,1.3-5.3,3.1-14.1,3.1c-8.7,0-14.1-1.8-14.1-3.1v-4.8
		c0-0.3-0.2-0.5-0.5-0.5c-0.3,0-0.5,0.2-0.5,0.5v4.8c0,2.7,7.6,4.1,15.1,4.1c7.2,0,14.5-1.3,15-3.8h0.1V61.9h0
		C52.5,61.8,52.5,61.6,52.5,61.5z"/>
	<g>
		<g>
			<path class="st12" d="M158.1,60.7h-44.2v29.5h44.2V60.7z M156.9,61.8V89H115V61.8H156.9"/>
			<rect x="116.6" y="66.2" class="st12" width="36.8" height="1.1"/>
			<path class="st12" d="M118.4,65.3c-0.5,0-0.9-0.3-0.9-0.9c0-0.6,0.4-0.9,0.9-0.9c0.5,0,0.9,0.4,0.9,0.9
				C119.4,64.9,119,65.3,118.4,65.3z"/>
			<path class="st12" d="M121.4,65.3c-0.5,0-0.9-0.3-0.9-0.9c0-0.6,0.4-0.9,0.9-0.9c0.5,0,0.9,0.4,0.9,0.9
				C122.4,64.9,122,65.3,121.4,65.3z"/>
			<path class="st12" d="M124.4,65.3c-0.5,0-0.9-0.3-0.9-0.9c0-0.6,0.4-0.9,0.9-0.9c0.5,0,0.9,0.4,0.9,0.9
				C125.3,64.9,125,65.3,124.4,65.3z"/>
		</g>
		<g>
			<path class="st13" d="M133.1,78.2l-0.8-1.6l-0.8,1.6H133.1z M133.3,78.5h-1.9l-0.3,0.7h-0.4l1.5-3.1h0.4l1.5,3.1h-0.4L133.3,78.5
				z"/>
			<path class="st13" d="M136.1,77.8c0.6,0,1-0.2,1-0.7c0-0.4-0.4-0.7-1-0.7h-1v1.3L136.1,77.8z M134.8,76.1h1.4
				c0.7,0,1.3,0.4,1.3,1c0,0.6-0.6,1-1.3,1h-1v1.1h-0.4L134.8,76.1z"/>
			<path class="st13" d="M139.6,77.8c0.6,0,1-0.2,1-0.7c0-0.4-0.4-0.7-1-0.7h-1v1.3L139.6,77.8z M138.2,76.1h1.4
				c0.7,0,1.3,0.4,1.3,1c0,0.6-0.6,1-1.3,1h-1v1.1h-0.4L138.2,76.1z"/>
			<path class="st14" d="M142.8,69.9h-13.7c-0.7,0-1.2,0.6-1.2,1.2v13.7c0,0.7,0.6,1.2,1.2,1.2h13.7c0.7,0,1.2-0.5,1.2-1.2V71.1
				C144.1,70.5,143.5,69.9,142.8,69.9z M142.8,70.3c0.4,0,0.8,0.4,0.8,0.8v13.7c0,0.4-0.4,0.8-0.8,0.8h-13.7c-0.4,0-0.8-0.4-0.8-0.8
				V71.1c0-0.4,0.4-0.8,0.8-0.8H142.8"/>
		</g>
	</g>
	<g>
		<g>
			<line class="st15" x1="83.7" y1="91.6" x2="83.7" y2="59.3"/>
			<g>
				<line class="st15" x1="67.1" y1="75.4" x2="100.3" y2="75.4"/>
				<g>
					<ellipse class="st15" cx="83.7" cy="75.3" rx="9.3" ry="16.2"/>
					<ellipse class="st15" cx="83.7" cy="75.3" rx="16.2" ry="9.3"/>
				</g>
			</g>
		</g>
		<circle class="st15" cx="83.8" cy="75.4" r="16.2"/>
	</g>
</g>
<g>
	<g>
		<g>
			<line class="st11" x1="297.1" y1="105.8" x2="297.1" y2="145"/>
			<g>
				<polygon class="st6" points="295.1,107.1 297.1,99.8 299,107.1 				"/>
			</g>
			<g>
				<polygon class="st6" points="295.1,143.7 297.1,151 299,143.7 				"/>
			</g>
		</g>
	</g>
	<path class="st12" d="M250.8,64.6c-8.7,0-14.1-1.8-14.1-3.1s5.3-3.1,14.1-3.1c8.7,0,14.1,1.8,14.1,3.1
		C264.8,62.8,259.5,64.6,250.8,64.6z M265.9,61.5c0-2.7-7.6-4.1-15.1-4.1c-7.5,0-15.1,1.4-15.1,4.1c0,2.7,7.6,4.1,15.1,4.1
		c5.8,0,11.7-0.9,14.1-2.5v7.2c-0.1,0.1-0.1,0.2-0.1,0.3c0,1.3-5.3,3.1-14.1,3.1c-8.7,0-14.1-1.8-14.1-3.1v-4.9
		c0-0.3-0.2-0.5-0.5-0.5c-0.3,0-0.5,0.2-0.5,0.5v4.9c0,2.7,7.6,4.1,15.1,4.1c5.9,0,11.9-0.9,14.1-2.6v7.5c-0.1,0.1-0.1,0.2-0.1,0.3
		c0,1.3-5.3,3.1-14.1,3.1c-8.7,0-14.1-1.8-14.1-3.1v-4.8c0-0.3-0.2-0.5-0.5-0.5c-0.3,0-0.5,0.2-0.5,0.5v4.8c0,2.7,7.6,4.1,15.1,4.1
		c5.9,0,11.9-0.9,14.1-2.6V89c-0.1,0.1-0.1,0.2-0.1,0.3c0,1.3-5.3,3.1-14.1,3.1c-8.7,0-14.1-1.8-14.1-3.1v-4.8
		c0-0.3-0.2-0.5-0.5-0.5c-0.3,0-0.5,0.2-0.5,0.5v4.8c0,2.7,7.6,4.1,15.1,4.1c7.2,0,14.5-1.3,15-3.8h0.1V61.9h0
		C265.8,61.8,265.9,61.6,265.9,61.5z"/>
	<g>
		<g>
			<path class="st12" d="M371.4,60.7h-44.2v29.5h44.2V60.7z M370.3,61.8V89h-41.9V61.8H370.3"/>
			<rect x="330" y="66.2" class="st12" width="36.8" height="1.1"/>
			<path class="st12" d="M331.8,65.3c-0.5,0-0.9-0.3-0.9-0.9c0-0.6,0.4-0.9,0.9-0.9c0.5,0,0.9,0.4,0.9,0.9
				C332.7,64.9,332.4,65.3,331.8,65.3z"/>
			<path class="st12" d="M334.8,65.3c-0.5,0-0.9-0.3-0.9-0.9c0-0.6,0.4-0.9,0.9-0.9c0.5,0,0.9,0.4,0.9,0.9
				C335.7,64.9,335.4,65.3,334.8,65.3z"/>
			<path class="st12" d="M337.7,65.3c-0.5,0-0.9-0.3-0.9-0.9c0-0.6,0.4-0.9,0.9-0.9c0.5,0,0.9,0.4,0.9,0.9
				C338.7,64.9,338.3,65.3,337.7,65.3z"/>
		</g>
		<g>
			<path class="st13" d="M346.5,78.2l-0.8-1.6l-0.8,1.6H346.5z M346.7,78.5h-1.9l-0.3,0.7H344l1.5-3.1h0.4l1.5,3.1H347L346.7,78.5z"
				/>
			<path class="st13" d="M349.5,77.8c0.6,0,1-0.2,1-0.7c0-0.4-0.4-0.7-1-0.7h-1v1.3L349.5,77.8z M348.1,76.1h1.4
				c0.7,0,1.3,0.4,1.3,1c0,0.6-0.6,1-1.3,1h-1v1.1h-0.4L348.1,76.1z"/>
			<path class="st13" d="M352.9,77.8c0.6,0,1-0.2,1-0.7c0-0.4-0.4-0.7-1-0.7h-1v1.3L352.9,77.8z M351.6,76.1h1.4
				c0.7,0,1.3,0.4,1.3,1c0,0.6-0.6,1-1.3,1h-1v1.1h-0.4L351.6,76.1z"/>
			<path class="st14" d="M356.2,69.9h-13.7c-0.7,0-1.2,0.6-1.2,1.2v13.7c0,0.7,0.6,1.2,1.2,1.2h13.7c0.7,0,1.2-0.5,1.2-1.2V71.1
				C357.4,70.5,356.9,69.9,356.2,69.9z M356.2,70.3c0.4,0,0.8,0.4,0.8,0.8v13.7c0,0.4-0.4,0.8-0.8,0.8h-13.7c-0.4,0-0.8-0.4-0.8-0.8
				V71.1c0-0.4,0.4-0.8,0.8-0.8H356.2"/>
		</g>
	</g>
	<g>
		<g>
			<line class="st15" x1="297.1" y1="91.6" x2="297.1" y2="59.3"/>
			<g>
				<line class="st15" x1="280.5" y1="75.4" x2="313.7" y2="75.4"/>
				<g>
					<ellipse class="st15" cx="297.1" cy="75.3" rx="9.3" ry="16.2"/>
					<ellipse class="st15" cx="297.1" cy="75.3" rx="16.2" ry="9.3"/>
				</g>
			</g>
		</g>
		<circle class="st15" cx="297.2" cy="75.4" r="16.2"/>
	</g>
</g>
<g>
	<g>
		<g>
			<line class="st11" x1="518" y1="105.8" x2="518" y2="145"/>
			<g>
				<polygon class="st6" points="516.1,107.1 518,99.8 520,107.1 				"/>
			</g>
			<g>
				<polygon class="st6" points="516.1,143.7 518,151 520,143.7 				"/>
			</g>
		</g>
	</g>
	<path class="st12" d="M471.8,64.6c-8.7,0-14.1-1.8-14.1-3.1s5.3-3.1,14.1-3.1c8.7,0,14.1,1.8,14.1,3.1
		C485.8,62.8,480.5,64.6,471.8,64.6z M486.8,61.5c0-2.7-7.6-4.1-15.1-4.1s-15.1,1.4-15.1,4.1c0,2.7,7.6,4.1,15.1,4.1
		c5.8,0,11.7-0.9,14.1-2.5v7.2c-0.1,0.1-0.1,0.2-0.1,0.3c0,1.3-5.3,3.1-14.1,3.1c-8.7,0-14.1-1.8-14.1-3.1v-4.9
		c0-0.3-0.2-0.5-0.5-0.5c-0.3,0-0.5,0.2-0.5,0.5v4.9c0,2.7,7.6,4.1,15.1,4.1c5.9,0,11.9-0.9,14.1-2.6v7.5c-0.1,0.1-0.1,0.2-0.1,0.3
		c0,1.3-5.3,3.1-14.1,3.1c-8.7,0-14.1-1.8-14.1-3.1v-4.8c0-0.3-0.2-0.5-0.5-0.5c-0.3,0-0.5,0.2-0.5,0.5v4.8c0,2.7,7.6,4.1,15.1,4.1
		c5.9,0,11.9-0.9,14.1-2.6V89c-0.1,0.1-0.1,0.2-0.1,0.3c0,1.3-5.3,3.1-14.1,3.1c-8.7,0-14.1-1.8-14.1-3.1v-4.8
		c0-0.3-0.2-0.5-0.5-0.5c-0.3,0-0.5,0.2-0.5,0.5v4.8c0,2.7,7.6,4.1,15.1,4.1c7.2,0,14.5-1.3,15-3.8h0.1V61.9h0
		C486.8,61.8,486.8,61.6,486.8,61.5z"/>
	<g>
		<g>
			<path class="st12" d="M592.4,60.7h-44.2v29.5h44.2V60.7z M591.2,61.8V89h-41.9V61.8H591.2"/>
			<rect x="551" y="66.2" class="st12" width="36.8" height="1.1"/>
			<path class="st12" d="M552.8,65.3c-0.5,0-0.9-0.3-0.9-0.9c0-0.6,0.4-0.9,0.9-0.9c0.5,0,0.9,0.4,0.9,0.9
				C553.7,64.9,553.3,65.3,552.8,65.3z"/>
			<path class="st12" d="M555.7,65.3c-0.5,0-0.9-0.3-0.9-0.9c0-0.6,0.4-0.9,0.9-0.9c0.5,0,0.9,0.4,0.9,0.9
				C556.7,64.9,556.4,65.3,555.7,65.3z"/>
			<path class="st12" d="M558.7,65.3c-0.5,0-0.9-0.3-0.9-0.9c0-0.6,0.4-0.9,0.9-0.9c0.5,0,0.9,0.4,0.9,0.9
				C559.6,64.9,559.3,65.3,558.7,65.3z"/>
		</g>
		<g>
			<path class="st13" d="M567.5,78.2l-0.8-1.6l-0.8,1.6H567.5z M567.6,78.5h-1.9l-0.3,0.7H565l1.5-3.1h0.4l1.5,3.1H568L567.6,78.5z"
				/>
			<path class="st13" d="M570.5,77.8c0.6,0,1-0.2,1-0.7c0-0.4-0.4-0.7-1-0.7h-1v1.3L570.5,77.8z M569.1,76.1h1.4
				c0.7,0,1.3,0.4,1.3,1c0,0.6-0.6,1-1.3,1h-1v1.1h-0.4L569.1,76.1z"/>
			<path class="st13" d="M573.9,77.8c0.6,0,1-0.2,1-0.7c0-0.4-0.4-0.7-1-0.7h-1v1.3L573.9,77.8z M572.6,76.1h1.4
				c0.7,0,1.3,0.4,1.3,1c0,0.6-0.6,1-1.3,1h-1v1.1h-0.4L572.6,76.1z"/>
			<path class="st14" d="M577.2,69.9h-13.7c-0.7,0-1.2,0.6-1.2,1.2v13.7c0,0.7,0.6,1.2,1.2,1.2h13.7c0.7,0,1.2-0.5,1.2-1.2V71.1
				C578.4,70.5,577.9,69.9,577.2,69.9z M577.2,70.3c0.4,0,0.8,0.4,0.8,0.8v13.7c0,0.4-0.4,0.8-0.8,0.8h-13.7c-0.4,0-0.8-0.4-0.8-0.8
				V71.1c0-0.4,0.4-0.8,0.8-0.8H577.2"/>
		</g>
	</g>
	<g>
		<g>
			<line class="st15" x1="518" y1="91.6" x2="518" y2="59.3"/>
			<g>
				<line class="st15" x1="501.4" y1="75.4" x2="534.6" y2="75.4"/>
				<g>
					<ellipse class="st15" cx="518" cy="75.3" rx="9.3" ry="16.2"/>
					<ellipse class="st15" cx="518" cy="75.3" rx="16.2" ry="9.3"/>
				</g>
			</g>
		</g>
		<circle class="st15" cx="518.2" cy="75.4" r="16.2"/>
	</g>
</g>
<g>
	<polygon class="st12" points="139.3,291.4 139.3,294.8 140.7,294.8 140.7,292.7 167.7,292.7 167.7,326.4 155.8,326.4 155.8,327.8 
		169.1,327.8 169.1,291.4 	"/>
	<path class="st12" d="M135.4,317.9c-5.8,0-11.6,2.4-16.5,7.3c-0.3,0.3-0.7,0.7-1,1c-0.5,0.6-0.8,1.3-0.8,2.2v5.2
		c0,1.7,1.3,3.1,3,3.1h30.5c1.7,0,3-1.4,3-3.1v-5.2c0-0.8-0.3-1.5-0.8-2.2C147.8,320.7,141.7,317.9,135.4,317.9z M135.4,319.2
		c6,0,11.7,2.8,16.3,7.9c0.3,0.3,0.4,0.8,0.4,1.2v5.2c0,0.9-0.7,1.7-1.6,1.7h-30.4c-0.9,0-1.6-0.8-1.6-1.7v-5.2
		c0-0.4,0.2-0.9,0.4-1.2c0.3-0.3,0.6-0.7,0.9-1C124.5,321.6,129.9,319.2,135.4,319.2"/>
	<path class="st12" d="M135.4,296.9c-5.8,0-10.5,4.4-10.5,9.9s4.7,9.9,10.5,9.9c5.8,0,10.5-4.4,10.5-9.9S141.2,296.9,135.4,296.9z
		 M135.4,298.2c5,0,9.1,3.9,9.1,8.6s-4.1,8.6-9.1,8.6c-5,0-9.1-3.9-9.1-8.6S130.5,298.2,135.4,298.2"/>
	<polygon class="st16" points="147,309.2 147,307.8 152.5,304.6 152.5,306.1 148.2,308.5 152.5,310.8 152.5,312.3 	"/>
	<polygon class="st12" points="157.6,302.4 159.1,302.4 155.2,314.5 153.6,314.5 	"/>
	<polygon class="st16" points="160.3,310.7 164.6,308.4 160.3,306.1 160.3,304.6 165.8,307.8 165.8,309.2 160.3,312.3 	"/>
</g>
<g>
	<path class="st12" d="M135.4,496.5c-5.8,0-11.6,2.4-16.5,7.3c-0.3,0.3-0.7,0.7-1,1c-0.5,0.6-0.8,1.3-0.8,2.2v5.2
		c0,1.7,1.3,3.1,3,3.1h30.5c1.7,0,3-1.4,3-3.1V507c0-0.8-0.3-1.5-0.8-2.2C147.8,499.3,141.7,496.5,135.4,496.5z M135.4,497.9
		c5.9,0,11.7,2.8,16.3,7.9c0.3,0.3,0.4,0.8,0.4,1.2v5.2c0,0.9-0.7,1.7-1.6,1.7h-30.4c-0.9,0-1.6-0.8-1.6-1.7V507
		c0-0.4,0.2-0.9,0.4-1.2c0.3-0.3,0.6-0.7,0.9-1C124.5,500.3,129.9,497.9,135.4,497.9"/>
	<path class="st12" d="M136,475.6c-5.5,0-9.9,4.4-9.9,9.9c0,5.5,4.4,9.9,9.9,9.9c5.5,0,9.9-4.4,9.9-9.9
		C145.9,480,141.5,475.6,136,475.6z M136,476.9c4.8,0,8.6,3.9,8.6,8.6c0,4.8-3.9,8.6-8.6,8.6c-4.8,0-8.6-3.9-8.6-8.6
		C127.4,480.7,131.3,476.9,136,476.9"/>
	<polygon class="st12" points="139.3,470.1 139.3,473.5 140.7,473.5 140.7,471.4 167.7,471.4 167.7,505.1 155.8,505.1 155.8,506.5 
		169.1,506.5 169.1,470.1 	"/>
	<path class="st16" d="M157.8,497.6h-3.4l-0.8-2.2c-0.3-0.1-0.7-0.2-1-0.4l-2.1,1l-2.3-2.5l0.9-2.1c-0.2-0.4-0.4-0.9-0.6-1.3
		l1.3-0.5c0.2,0.5,0.4,1,0.6,1.4l0.2,0.3l-0.9,1.9l1.1,1.1l1.8-0.9l0.3,0.2c0.4,0.3,0.9,0.5,1.3,0.6l0.3,0.1l0.7,1.9h1.5l0.7-1.9
		l0.3-0.1c0.5-0.1,1-0.3,1.3-0.5l0.3-0.2l1.9,0.9l1.1-1.1l-0.8-2l0.2-0.3c0.2-0.3,0.4-0.8,0.5-1.3l0.1-0.3l1.8-0.7v-1.5l-2-0.6
		l-0.1-0.3c-0.1-0.5-0.3-0.9-0.6-1.4l-0.2-0.3l0.8-1.9l-1.1-1.1l-1.9,0.9l-0.3-0.2c-0.3-0.2-0.8-0.5-1.3-0.6l-0.3-0.1l-0.7-1.9h-1.5
		l-0.7,1.9l-0.3,0.1c-0.6,0.2-1,0.4-1.4,0.6l-0.3,0.2l-1.8-0.9l-1.1,1.1l0.8,1.9l-0.2,0.3c-0.2,0.4-0.4,0.9-0.6,1.4l-1.3-0.5
		c0.2-0.5,0.4-0.9,0.6-1.3l-0.9-2.2l2.4-2.5l2.1,1c0.3-0.2,0.6-0.3,1-0.5l0.8-2.2h3.4l0.8,2.2c0.3,0.1,0.7,0.3,1,0.5l2.1-1l2.5,2.4
		l-0.9,2.2c0.2,0.3,0.3,0.7,0.4,1l2.1,0.8v3.5l-2.1,0.9c-0.1,0.3-0.2,0.7-0.4,1l0.9,2.1l-2.5,2.5l-2.1-1c-0.3,0.2-0.7,0.3-1,0.4
		L157.8,497.6z"/>
	<path class="st16" d="M155.8,484.7c-1.6,0-3,1.4-3,3c0,1.6,1.4,3,3,3s3-1.4,3-3C158.8,486,157.5,484.7,155.8,484.7z M155.8,492.1
		c-2.4,0-4.4-2-4.4-4.4c0-2.4,2-4.4,4.4-4.4s4.4,2,4.4,4.4C160.2,490.1,158.3,492.1,155.8,492.1z"/>
</g>
<g>
	<path class="st12" d="M307.2,517h-19.7c-0.6,0-1-0.4-1.2-0.9c-0.2-0.6,0.1-1.2,0.5-1.5c1-0.7,3.6-1.8,4.7-2.2l1.1-8.4l1.6,0.2
		l-1.2,9.4l-0.4,0.2c-0.8,0.3-2.5,1-3.7,1.6H306c-1.2-0.6-3-1.3-3.7-1.6l-0.4-0.2l-0.9-9.4l1.6-0.1l0.8,8.4c1.1,0.5,3.7,1.5,4.7,2.2
		c0.4,0.3,0.6,0.9,0.5,1.5C308.2,516.6,307.7,517,307.2,517z"/>
	<path class="st12" d="M324.8,465.7h-55.3c-1.7,0-3.1,1.2-3.1,2.7v31.3c0,1.5,1.4,2.7,3.1,2.7H325c1.8,0,3.2-1.3,3.2-2.9v-30.9
		C328.3,467.1,326.8,465.7,324.8,465.7z M324.8,467.4c0.9,0,1.7,0.6,1.7,1.3v30.9c0,0.7-0.7,1.2-1.6,1.2h-55.3
		c-0.8,0-1.4-0.5-1.4-1.1v-31.3c0-0.6,0.7-1.1,1.4-1.1L324.8,467.4"/>
	<rect x="271.7" y="495.9" class="st12" width="49.9" height="1.3"/>
	<path class="st12" d="M283.3,493.3c-3,0-5.9-1.2-8.2-3.5c-4.5-4.6-4.5-12.1,0-16.7c4.5-4.6,11.8-4.6,16.3,0l-1.2,1.2
		c-3.8-3.9-10.2-3.9-14,0c-3.8,3.9-3.8,10.4,0,14.4c3.8,3.9,10.2,3.9,14,0l1.2,1.2C289.2,492.2,286.3,493.3,283.3,493.3z"/>
	<path class="st16" d="M283.9,481.5l6.6,6.7c3.2-3.9,3.2-9.5,0-13.4L283.9,481.5z M290.5,490.7l-9-9.2l9-9.2l0.6,0.6
		c2.2,2.3,3.5,5.3,3.5,8.6c0,3.2-1.2,6.3-3.5,8.6L290.5,490.7z"/>
	<rect x="312.4" y="477.6" class="st12" width="3.9" height="1.3"/>
	<path class="st12" d="M311.7,478.9h-3.9c-0.4,0-0.7-0.3-0.7-0.7c0-0.3,0.4-0.7,0.7-0.7h3.9c0.4,0,0.7,0.3,0.7,0.7
		C312.4,478.5,312.1,478.9,311.7,478.9z"/>
	<rect x="311.1" y="485.4" class="st12" width="1.3" height="1.3"/>
	<path class="st12" d="M311.7,486.8h-3.8c-0.4,0-0.7-0.3-0.7-0.7c0-0.3,0.4-0.7,0.7-0.7h3.8c0.4,0,0.7,0.3,0.7,0.7
		C312.4,486.4,312.1,486.8,311.7,486.8z"/>
	<rect x="319" y="485.4" class="st12" width="1.3" height="1.3"/>
	<path class="st12" d="M320.9,486.8h-1.2c-0.4,0-0.7-0.3-0.7-0.7c0-0.3,0.4-0.7,0.7-0.7h1.2c0.4,0,0.7,0.3,0.7,0.7
		C321.6,486.4,321.3,486.8,320.9,486.8z"/>
	<path class="st16" d="M321.6,478.2c0,1.1-0.9,2-2,2c-1.1,0-2-0.9-2-2c0-1.1,0.9-2,2-2C320.8,476.2,321.6,477.1,321.6,478.2z"/>
	<path class="st16" d="M317.7,486.1c0,1.1-0.9,2-2,2c-1.1,0-2-0.9-2-2c0-1.1,0.9-2,2-2C316.8,484.1,317.7,485,317.7,486.1z"/>
</g>
<g id="Layer_2_1_">
	<g id="Layer_1-2">
		<path class="st17" d="M325.7,289.4l-26.8-15.5c-1.6-0.9-3.5-0.9-5.1,0L267,289.4c-1.6,0.9-2.5,2.6-2.5,4.4v31c0,1.8,1,3.5,2.5,4.4
			l26.8,15.5c0.8,0.5,1.7,0.7,2.5,0.7c0.9,0,1.8-0.2,2.5-0.7l26.9-15.5c1.6-0.9,2.5-2.6,2.5-4.4v-31
			C328.3,291.9,327.3,290.3,325.7,289.4z"/>
		<path class="st18" d="M299.1,286.7l2.8,4.2c0.7,1.1,2.1,1.7,3.4,1.4l4.9-1c1.8-0.4,3.6,0.8,3.9,2.6c0.1,0.4,0.1,0.9,0,1.3l-1,4.9
			c-0.3,1.3,0.3,2.7,1.4,3.5l4.2,2.8c1.5,1,1.9,3.1,0.9,4.6c-0.2,0.4-0.6,0.7-0.9,0.9l-4.2,2.8c-1.1,0.8-1.7,2.1-1.4,3.4l1,4.9
			c0.4,1.8-0.8,3.6-2.6,3.9c-0.4,0.1-0.9,0.1-1.3,0l-4.9-1c-1.3-0.3-2.7,0.3-3.4,1.4l-2.8,4.2c-1,1.5-3.1,1.9-4.6,0.9
			c-0.4-0.2-0.7-0.6-0.9-0.9l-2.8-4.2c-0.8-1.1-2.1-1.7-3.4-1.4l-4.9,1c-1.8,0.4-3.6-0.8-3.9-2.6c-0.1-0.4-0.1-0.9,0-1.3l1-4.9
			c0.3-1.3-0.3-2.7-1.4-3.4l-4.2-2.8c-1.5-1-2-3.1-0.9-4.6c0.2-0.4,0.6-0.7,0.9-0.9l4.2-2.7c1.1-0.8,1.7-2.1,1.4-3.5l-1-4.9
			c-0.4-1.8,0.8-3.6,2.6-3.9c0.4-0.1,0.9-0.1,1.3,0l4.9,1c1.3,0.3,2.7-0.3,3.4-1.4l2.8-4.2c1-1.5,3.1-2,4.6-0.9
			C298.6,286,298.9,286.4,299.1,286.7z"/>
		<circle class="st18" cx="296.4" cy="309.2" r="6.7"/>
		<path class="st19" d="M296.4,317c-4.3,0-7.8-3.5-7.8-7.8s3.5-7.8,7.8-7.8"/>
		<circle class="st18" cx="296.4" cy="309.2" r="13.3"/>
		<path class="st19" d="M296.4,297c6.7,0,12.2,5.5,12.2,12.2c0,6.7-5.5,12.2-12.2,12.2"/>
	</g>
</g>
</svg>
