<svg width="60" height="60" viewBox="0 0 60 60" fill="none" xmlns="http://www.w3.org/2000/svg">
<path d="M29.9998 58.3334C45.6479 58.3334 58.3332 45.6481 58.3332 30C58.3332 14.352 45.6479 1.66669 29.9998 1.66669C14.3518 1.66669 1.6665 14.352 1.6665 30C1.6665 45.6481 14.3518 58.3334 29.9998 58.3334Z" fill="white"/>
<path d="M30 60C13.4 60 0 46.6 0 30C0 13.4 13.4 0 30 0C46.6 0 60 13.4 60 30C60 46.5333 46.5333 60 30 60ZM30 3.33333C15.2667 3.33333 3.33333 15.2667 3.33333 30C3.33333 44.7333 15.2667 56.6667 30 56.6667C44.7333 56.6667 56.6667 44.7333 56.6667 30C56.6667 15.2667 44.7333 3.33333 30 3.33333Z" fill="#F04E23"/>
<path d="M10.7755 7.07354L8.41846 9.43054L49.1946 50.2066L51.5516 47.8496L10.7755 7.07354Z" fill="#F04E23"/>
<path fill-rule="evenodd" clip-rule="evenodd" d="M42.6114 29.8386C42.6114 30.4491 42.088 30.9724 41.5647 30.9724C40.9542 30.9724 40.4309 30.4491 40.4309 29.8386C40.4309 29.2281 40.9542 28.792 41.5647 28.792C42.088 28.792 42.6114 29.2281 42.6114 29.8386Z" fill="#4B5665"/>
<path fill-rule="evenodd" clip-rule="evenodd" d="M46.9722 29.8386C46.9722 30.4491 46.4489 30.9724 45.9256 30.9724C45.3151 30.9724 44.7917 30.4491 44.7917 29.8386C44.7917 29.2281 45.3151 28.792 45.9256 28.792C46.4489 28.792 46.9722 29.2281 46.9722 29.8386Z" fill="#4B5665"/>
<path fill-rule="evenodd" clip-rule="evenodd" d="M51.3332 24.4311H9.81738V35.3333H51.2459V24.4311H51.3332ZM50.1993 25.4777V34.1995H10.9512V25.4777H50.1993Z" fill="#4B5665"/>
<path d="M14.1783 28.2687H13.3062V29.1409H14.1783V28.2687Z" fill="#4B5665"/>
<path d="M14.1783 30.5364H13.3062V31.4086H14.1783V30.5364Z" fill="#4B5665"/>
<path d="M16.4459 28.2687H15.5737V29.1409H16.4459V28.2687Z" fill="#4B5665"/>
<path d="M16.4459 30.5364H15.5737V31.4086H16.4459V30.5364Z" fill="#4B5665"/>
<path d="M18.5392 28.2687H17.667V29.1409H18.5392V28.2687Z" fill="#4B5665"/>
<path d="M18.5392 30.5364H17.667V31.4086H18.5392V30.5364Z" fill="#4B5665"/>
<path d="M20.8068 28.2687H19.9346V29.1409H20.8068V28.2687Z" fill="#4B5665"/>
<path d="M20.8068 30.5364H19.9346V31.4086H20.8068V30.5364Z" fill="#4B5665"/>
<path d="M22.9 28.2687H22.0278V29.1409H22.9V28.2687Z" fill="#4B5665"/>
<path d="M22.9 30.5364H22.0278V31.4086H22.9V30.5364Z" fill="#4B5665"/>
<path d="M25.1678 28.2687H24.2957V29.1409H25.1678V28.2687Z" fill="#4B5665"/>
<path d="M25.1678 30.5364H24.2957V31.4086H25.1678V30.5364Z" fill="#4B5665"/>
<path d="M27.2611 28.2687H26.3889V29.1409H27.2611V28.2687Z" fill="#4B5665"/>
<path d="M27.2611 30.5364H26.3889V31.4086H27.2611V30.5364Z" fill="#4B5665"/>
</svg>
