<svg width="60" height="60" viewBox="0 0 60 60" fill="none" xmlns="http://www.w3.org/2000/svg">
<path d="M30 58.3334C45.648 58.3334 58.3333 45.6481 58.3333 30C58.3333 14.352 45.648 1.66669 30 1.66669C14.3519 1.66669 1.66663 14.352 1.66663 30C1.66663 45.6481 14.3519 58.3334 30 58.3334Z" fill="white"/>
<path d="M30 60C13.4 60 0 46.6 0 30C0 13.4 13.4 0 30 0C46.6 0 60 13.4 60 30C60 46.5333 46.5333 60 30 60ZM30 3.33333C15.2667 3.33333 3.33333 15.2667 3.33333 30C3.33333 44.7333 15.2667 56.6667 30 56.6667C44.7333 56.6667 56.6667 44.7333 56.6667 30C56.6667 15.2667 44.7333 3.33333 30 3.33333Z" fill="#F04E23"/>
<path d="M10.7753 7.07354L8.41833 9.43054L49.1944 50.2066L51.5514 47.8496L10.7753 7.07354Z" fill="#F04E23"/>
<path fill-rule="evenodd" clip-rule="evenodd" d="M40.9333 21.4C40.6 17.8667 37.8 15.0667 34.3333 15C34.2667 15 34.2667 15 34.2 15C31.4 15 29 16.8 27.9333 19.4C27.2 19.0667 26.4667 18.8667 25.6 18.8667C25.6 18.8667 25.5333 18.8667 25.4667 18.8667C22.6667 18.8667 20.4 20.7333 19.8 23.2667C19.4667 23.2 19.0667 23.1333 18.6667 23.1333H18.6C16.1333 23.1333 14.0667 25.0667 14 27.4667C14 28.6667 14.5333 29.8667 15.4 30.6667V29.3333C15 28.7333 14.8 28.0667 14.8 27.4C14.8 25.4667 16.5333 23.8667 18.5333 23.8667H18.6C18.9333 23.8667 19.2 23.8667 19.5333 24L20.3333 24.2L20.5333 23.4C21 21.2 23.0667 19.6 25.4 19.6C25.4 19.6 25.4667 19.6 25.5333 19.6C26.2667 19.6 26.9333 19.7333 27.5333 20.0667L28.3333 20.4L28.6667 19.6C29.6 17.2667 31.8 15.7333 34.2 15.7333C34.2 15.7333 34.2667 15.7333 34.3333 15.7333C37.3333 15.8 39.8 18.2667 40.1333 21.4L40.2 22.0667L40.8667 22.1333C42.9333 22.3333 44.5333 24.3333 44.4667 26.7333C44.4667 27.8667 44.0667 28.9333 43.4 29.6667V30.8667C44.5333 29.9333 45.2667 28.4 45.3333 26.7333C45.3333 23.9333 43.4 21.6 40.9333 21.4Z" fill="#4B5665"/>
<path fill-rule="evenodd" clip-rule="evenodd" d="M16.9333 30.0667H41.8667V32.5333H18.2667V33.3333H41.8667V41.7333H16.9333V30.0667ZM42.6667 41.8V29.2H22.8V28.2667H16.1333V29.1333V41.7333H14V42.6H44.9333V41.7333H42.6667V41.8Z" fill="#4B5665"/>
<path d="M20.6001 35.3333H18.2667V36.3333H20.6001V35.3333Z" fill="#4B5665"/>
<path d="M20.6001 38.6667H18.2667V39.6667H20.6001V38.6667Z" fill="#4B5665"/>
<path d="M25.6001 35.3333H23.2667V36.3333H25.6001V35.3333Z" fill="#4B5665"/>
<path d="M25.6001 38.6667H23.2667V39.6667H25.6001V38.6667Z" fill="#4B5665"/>
<path d="M30.6001 35.3333H28.2667V36.3333H30.6001V35.3333Z" fill="#4B5665"/>
<path d="M30.6001 38.6667H28.2667V39.6667H30.6001V38.6667Z" fill="#4B5665"/>
<path d="M35.6001 35.3333H33.2667V36.3333H35.6001V35.3333Z" fill="#4B5665"/>
<path d="M35.6001 38.6667H33.2667V39.6667H35.6001V38.6667Z" fill="#4B5665"/>
<path d="M40.6001 35.3333H38.2667V36.3333H40.6001V35.3333Z" fill="#4B5665"/>
<path d="M40.6001 38.6667H38.2667V39.6667H40.6001V38.6667Z" fill="#4B5665"/>
</svg>
