<?xml version="1.0" encoding="utf-8"?>
<!-- Generator: Adobe Illustrator 26.0.2, SVG Export Plug-In . SVG Version: 6.00 Build 0)  -->
<svg version="1.1" id="Layer_1" xmlns="http://www.w3.org/2000/svg" xmlns:xlink="http://www.w3.org/1999/xlink" x="0px" y="0px"
	 viewBox="0 0 1920 1078.4" style="enable-background:new 0 0 1920 1078.4;" xml:space="preserve">
<style type="text/css">
	.st0{clip-path:url(#SVGID_00000109715579062673016900000013490270565775091647_);}
	.st1{fill:url(#SVGID_00000070825474998935279920000007109418698580369830_);}
	.st2{fill:url(#SVGID_00000002367111176466474510000003153238205123106184_);}
	.st3{fill:none;}
	.st4{opacity:0.3;fill:#FFFFFF;enable-background:new    ;}
	.st5{fill:#FFFFFF;}
	.st6{fill-rule:evenodd;clip-rule:evenodd;fill:#FFFFFF;}
</style>
<g id="Layer_2_00000041273862223324540670000014064004471321742992_">
	<g id="Intro">
		<g>
			<defs>
				<rect id="SVGID_1_" width="1920" height="1078.4"/>
			</defs>
			<clipPath id="SVGID_00000039115331010554791030000009513101082151191709_">
				<use xlink:href="#SVGID_1_"  style="overflow:visible;"/>
			</clipPath>
			<g style="clip-path:url(#SVGID_00000039115331010554791030000009513101082151191709_);">
				
					<linearGradient id="SVGID_00000070803154654246014460000005199263749494526649_" gradientUnits="userSpaceOnUse" x1="262.7701" y1="215.1499" x2="1422.8199" y2="1375.2001" gradientTransform="matrix(1 0 0 -1 0 1086)">
					<stop  offset="0" style="stop-color:#00C1D5"/>
					<stop  offset="0.17" style="stop-color:#01BDD3"/>
					<stop  offset="0.35" style="stop-color:#04B0CB"/>
					<stop  offset="0.53" style="stop-color:#099CBF"/>
					<stop  offset="0.72" style="stop-color:#0F7FAE"/>
					<stop  offset="0.9" style="stop-color:#185A98"/>
					<stop  offset="1" style="stop-color:#1D428A"/>
				</linearGradient>
				<polygon style="fill:url(#SVGID_00000070803154654246014460000005199263749494526649_);" points="0,1080 1187.2,1080 2267.2,0 
					0,0 				"/>
				
					<linearGradient id="SVGID_00000129189117266116540940000017257622691532763286_" gradientUnits="userSpaceOnUse" x1="8063.2446" y1="-878.3647" x2="8698.5254" y2="-243.0847" gradientTransform="matrix(-1 0 0 1 9937.9697 1267.8799)">
					<stop  offset="0" style="stop-color:#78BE20"/>
					<stop  offset="0.17" style="stop-color:#78BE20;stop-opacity:0.98"/>
					<stop  offset="0.34" style="stop-color:#78BE20;stop-opacity:0.91"/>
					<stop  offset="0.52" style="stop-color:#78BE20;stop-opacity:0.8"/>
					<stop  offset="0.7" style="stop-color:#78BE20;stop-opacity:0.65"/>
					<stop  offset="0.88" style="stop-color:#78BE20;stop-opacity:0.46"/>
					<stop  offset="1" style="stop-color:#78BE20;stop-opacity:0.3"/>
				</linearGradient>
				<polygon style="fill:url(#SVGID_00000129189117266116540940000017257622691532763286_);" points="2099,328.7 1772.1,328.7 
					1015.1,1085.7 1342,1085.7 				"/>
				<rect class="st3" width="1920" height="1078.4"/>
			</g>
		</g>
		<circle class="st4" cx="749.1" cy="658.3" r="243.1"/>
		<path class="st5" d="M554.2,240.9c-0.7-13.2-1.5-29-1.4-40.7h-0.4c-3.2,11.1-7.1,22.8-11.9,35.8l-16.7,45.8h-9.2l-15.3-44.9
			c-4.5-13.3-8.3-25.5-10.9-36.7h-0.3c-0.3,11.8-1,27.6-1.8,41.7l-2.5,40.5h-11.6l6.6-94.4h15.5l16.1,45.6c3.9,11.6,7.1,22,9.5,31.8
			h0.4c2.4-9.5,5.7-19.9,9.9-31.8l16.8-45.6h15.5l5.9,94.4h-11.9L554.2,240.9z"/>
		<path class="st5" d="M602.2,195.6c0.1,4.2-2.9,7.6-7.8,7.6c-4,0.1-7.4-3.2-7.4-7.2c0-0.1,0-0.2,0-0.3c-0.1-4.1,3.2-7.6,7.3-7.7
			c0.1,0,0.3,0,0.4,0C599.3,187.9,602.2,191.2,602.2,195.6z M588.5,282.4v-67.8h12.3v67.8H588.5z"/>
		<path class="st5" d="M679.7,214.6c-0.3,4.9-0.6,10.4-0.6,18.6v39.3c0,15.5-3.1,25.1-9.7,30.9c-6.6,6.2-16.1,8.1-24.6,8.1
			c-8.1,0-17.1-2-22.5-5.6l3.1-9.4c6,3.6,12.9,5.4,19.9,5.3c12.6,0,21.8-6.6,21.8-23.7v-7.6h-0.3c-3.8,6.3-11.1,11.3-21.6,11.3
			c-16.8,0-28.8-14.3-28.8-33c0-23,15-36,30.5-36c11.8,0,18.2,6.2,21.1,11.8h0.3l0.6-10.2L679.7,214.6z M666.9,241.4
			c0.1-1.9-0.2-3.8-0.7-5.6c-2.2-7.1-8.3-13-17.2-13c-11.8,0-20.2,9.9-20.2,25.6c0,13.3,6.7,24.4,20,24.4c7.8,0,14.7-5.1,17.1-12.6
			c0.7-2.1,1-4.3,1-6.6L666.9,241.4z"/>
		<path class="st5" d="M698.7,235.8c0-8-0.1-14.8-0.6-21.1h10.8l0.4,13.3h0.6c3.1-9.1,10.5-14.8,18.8-14.8c1.2,0,2.4,0.1,3.5,0.4
			v11.6c-1.4-0.3-2.8-0.4-4.2-0.4c-8.7,0-14.8,6.6-16.5,15.8c-0.3,1.9-0.5,3.8-0.6,5.7v36.1h-12.2V235.8z"/>
		<path class="st5" d="M781.3,282.4l-1-8.5h-0.4c-4.9,6.5-12.6,10.3-20.7,10.1c-13.7,0-20.7-9.7-20.7-19.5
			c0-16.4,14.6-25.3,40.7-25.2v-1.4c0-5.6-1.5-15.7-15.4-15.7c-6.2,0-12.3,1.7-17.6,5l-2.8-8.1c5.6-3.6,13.7-6,22.3-6
			c20.7,0,25.8,14.1,25.8,27.7v25.3c-0.1,5.4,0.3,10.9,1.1,16.2L781.3,282.4z M779.5,247.8c-13.4-0.3-28.7,2.1-28.7,15.3
			c0,8,5.3,11.8,11.6,11.8c7.3,0.2,14-4.4,16.4-11.3c0.4-1.3,0.7-2.6,0.7-3.9V247.8z"/>
		<path class="st5" d="M825.5,195.2v19.5h17.6v9.4h-17.6v36.5c0,8.4,2.4,13.2,9.2,13.2c2.4,0,4.8-0.2,7.1-0.8l0.6,9.2
			c-3.5,1.2-7.2,1.8-10.9,1.7c-5.7,0-10.4-1.8-13.3-5.2c-3.5-3.6-4.8-9.7-4.8-17.6v-37H803v-9.4h10.5v-16.2L825.5,195.2z"/>
		<path class="st5" d="M870.8,195.6c0.1,4.2-2.9,7.6-7.8,7.6c-4,0.1-7.4-3.2-7.4-7.2c0-0.1,0-0.2,0-0.3c-0.1-4.1,3.2-7.6,7.3-7.7
			c0.1,0,0.3,0,0.4,0C867.8,187.9,870.8,191.2,870.8,195.6z M857,282.4v-67.8h12.3v67.8H857z"/>
		<path class="st5" d="M951.1,247.9c0,25.1-17.4,36-33.7,36c-18.3,0-32.5-13.4-32.5-34.9c0-22.7,14.8-36,33.6-36
			C938,213.1,951.1,227.2,951.1,247.9z M897.4,248.6c0,14.8,8.5,26,20.6,26c11.8,0,20.6-11.1,20.6-26.3c0-11.5-5.7-26-20.3-26
			S897.4,235.8,897.4,248.6z"/>
		<path class="st5" d="M966.7,233c0-7-0.1-12.7-0.6-18.3H977l0.7,11.2h0.3c3.4-6.4,11.2-12.7,22.4-12.7c9.4,0,23.9,5.6,23.9,28.8
			v40.5H1012v-39.1c0-10.9-4.1-20-15.7-20c-7.7,0.1-14.4,5.2-16.5,12.6c-0.6,1.9-0.9,3.8-0.8,5.7v40.7h-12.3V233z"/>
		<polygon class="st6" points="736.8,733.6 708.8,733.6 708.8,725.1 727.2,725.1 727.2,709.1 736.8,709.1 		"/>
		<path class="st6" d="M654.3,733.6h-33v-7h33V733.6z M698.3,733.6h-33v-7h33V733.6z"/>
		<polygon class="st6" points="610.8,733.6 582.8,733.6 582.8,709.1 592.5,709.1 592.5,725.1 610.8,725.1 		"/>
		<path class="st6" d="M593.3,652.6h-10.5V618h10.5V652.6z M593.3,698.6h-10.5V664h10.5V698.6z"/>
		<polygon class="st6" points="592.5,607.5 582.8,607.5 582.8,583 610.8,583 610.8,591.5 592.5,591.5 		"/>
		<path class="st6" d="M654.3,590h-33v-7h33V590z M698.3,590h-33v-7h33V590z"/>
		<polygon class="st6" points="736.8,607.5 727.2,607.5 727.2,591.5 708.8,591.5 708.8,583 736.8,583 		"/>
		<path class="st6" d="M736.8,644.7h-10.5V618h10.5V644.7z M736.8,698.6h-10.5v-27h10.5V698.6z"/>
		<polygon class="st6" points="764.8,583 764.8,645.5 773.5,645.5 773.5,591.7 906.7,591.7 906.7,724.9 773.5,724.9 773.5,671.4 
			764.8,671.4 764.8,733.6 915.4,733.6 915.4,583 		"/>
		<path class="st6" d="M679.5,678.9h-39v-41.1h39V678.9z M866.4,658.3l-28.1-17.2v12.6H688.2v-25.2h-56.3V688h56.3v-25.2h150.1v12.6
			L866.4,658.3z"/>
	</g>
</g>
</svg>
