<svg xmlns="http://www.w3.org/2000/svg" viewBox="0 0 52.21 75.97"><defs><style>.a{fill:#495565;}.b{opacity:0.15;}.c,.d{opacity:0.15;}.c{isolation:isolate;}.e{fill:#f05024;stroke:#f04f23;stroke-linecap:round;stroke-linejoin:round;stroke-width:1.08px;}</style></defs><title>icon-stacked-containers</title><path class="a" d="M32,17.53a.66.66,0,0,1-.28-.05L17.93,12.14,5,17.47a.78.78,0,0,1-1-.42.79.79,0,0,1,.43-1l13.53-5.57L32.23,16a.78.78,0,0,1-.28,1.5Z"/><path class="a" d="M17.92,14.42a4.68,4.68,0,0,1-4.67-4.68,1.56,1.56,0,1,1,3.11,0,1.56,1.56,0,1,0,1.56-1.56,1.56,1.56,0,0,1-1.56-1.56V4.29a1.56,1.56,0,1,1,3.12,0v1a4.68,4.68,0,0,1-1.56,9.09Z"/><polygon class="a" points="21.52 6.23 19.48 6.23 19.48 4.67 20.87 4.67 22.6 2.95 22.6 1.56 13.25 1.56 13.25 2.95 14.97 4.67 16.36 4.67 16.36 6.23 14.33 6.23 11.69 3.6 11.69 0 24.16 0 24.16 3.6 21.52 6.23"/><g class="b"><polyline class="a" points="16.36 5.45 14.65 5.45 12.47 3.27 12.47 0.78 23.38 0.78 23.38 3.27 21.2 5.45 19.48 5.45"/></g><g class="b"><polygon class="a" points="41.3 55.72 9.35 55.72 7.01 57.27 7.01 72.08 9.35 73.64 41.3 73.64 43.64 72.08 43.64 57.27 41.3 55.72"/></g><g class="c"><polygon class="a" points="38.18 73.64 41.3 73.64 43.64 72.08 43.64 57.27 41.3 55.72 38.18 55.72 41.3 57.66 41.3 71.69 38.18 73.64"/></g><g class="c"><path class="a" d="M39,65.07H22.6a.78.78,0,0,1,0-1.56H39a.78.78,0,1,1,0,1.56Z"/></g><path class="a" d="M41.54,74.42H9.11L6.23,72.5V56.86l2.88-1.92H41.54l2.88,1.92V72.5ZM9.59,72.86H41.06l1.8-1.2v-14l-1.8-1.2H9.59l-1.8,1.2v14Z"/><path class="a" d="M10.91,74.42a.78.78,0,0,1-.78-.78V58.83a.78.78,0,0,1,1.56,0V73.64A.78.78,0,0,1,10.91,74.42Z"/><g class="d"><polygon class="a" points="42.86 57.66 42.86 71.69 42.08 70.13 42.08 59.22 42.86 57.66"/></g><g class="d"><polygon class="a" points="7.79 57.66 7.79 71.69 8.57 70.13 8.57 59.22 7.79 57.66"/></g><g class="c"><path class="a" d="M15,73.92a.78.78,0,0,1-.78-.78V60.67a.78.78,0,0,1,1.56,0V73.14A.78.78,0,0,1,15,73.92Z"/></g><g class="c"><path class="a" d="M19.72,73.92a.78.78,0,0,1-.78-.78V60.67a.78.78,0,1,1,1.56,0V73.14A.78.78,0,0,1,19.72,73.92Z"/></g><g class="c"><path class="a" d="M24.39,73.92a.77.77,0,0,1-.77-.78V60.67a.78.78,0,1,1,1.55,0V73.14A.77.77,0,0,1,24.39,73.92Z"/></g><g class="c"><path class="a" d="M29.07,73.92a.78.78,0,0,1-.78-.78V60.67a.78.78,0,0,1,1.56,0V73.14A.78.78,0,0,1,29.07,73.92Z"/></g><g class="c"><path class="a" d="M33.75,73.92a.77.77,0,0,1-.78-.78V60.67a.78.78,0,1,1,1.55,0V73.14A.77.77,0,0,1,33.75,73.92Z"/></g><g class="c"><path class="a" d="M38.42,73.92a.78.78,0,0,1-.78-.78V60.67a.78.78,0,0,1,1.56,0V73.14A.78.78,0,0,1,38.42,73.92Z"/></g><g class="c"><path class="a" d="M40.76,73.14H9.59a.78.78,0,1,1,0-1.56H40.76a.78.78,0,1,1,0,1.56Z"/></g><g class="c"><path class="a" d="M38.42,67.68a.75.75,0,0,1-.77-.77.73.73,0,0,1,.06-.3.71.71,0,0,1,.16-.26.87.87,0,0,1,.26-.16.78.78,0,0,1,.84.16.89.89,0,0,1,.24.56.79.79,0,0,1-.24.55.74.74,0,0,1-.25.17A.94.94,0,0,1,38.42,67.68Z"/></g><g class="c"><path class="a" d="M35.31,67.68a.94.94,0,0,1-.3-.05.74.74,0,0,1-.25-.17.78.78,0,0,1-.23-.55.75.75,0,0,1,.23-.55.62.62,0,0,1,.25-.17.78.78,0,0,1,.6,0,.7.7,0,0,1,.25.17.78.78,0,0,1,.22.55.82.82,0,0,1-.22.55.85.85,0,0,1-.25.17A1,1,0,0,1,35.31,67.68Z"/></g><g class="c"><path class="a" d="M32.19,67.68a.8.8,0,0,1-.55-.22.78.78,0,0,1,0-1.11.8.8,0,0,1,1.1,0,.79.79,0,0,1,.23.56.72.72,0,0,1-.06.29.9.9,0,0,1-.17.26.85.85,0,0,1-.25.17A1,1,0,0,1,32.19,67.68Z"/></g><g class="c"><path class="a" d="M22.84,63a.8.8,0,0,1-.3-.06.81.81,0,0,1-.42-.42.8.8,0,0,1-.06-.3.76.76,0,0,1,.23-.55.85.85,0,0,1,.25-.17.78.78,0,0,1,.6,0,.85.85,0,0,1,.25.17.76.76,0,0,1,.23.55.8.8,0,0,1-.06.3.85.85,0,0,1-.17.25.7.7,0,0,1-.25.17A.8.8,0,0,1,22.84,63Z"/></g><g class="b"><polygon class="a" points="41.3 37.79 9.35 37.79 7.01 39.35 7.01 54.16 9.35 55.72 41.3 55.72 43.64 54.16 43.64 39.35 41.3 37.79"/></g><g class="c"><polygon class="a" points="38.18 55.72 41.3 55.72 43.64 54.16 43.64 39.35 41.3 37.79 38.18 37.79 41.3 39.74 41.3 53.77 38.18 55.72"/></g><g class="c"><path class="a" d="M39,47.14H22.6a.78.78,0,0,1,0-1.56H39a.78.78,0,0,1,0,1.56Z"/></g><path class="a" d="M41.54,56.49H9.11L6.23,54.57V38.93L9.11,37H41.54l2.88,1.92V54.57ZM9.59,54.94H41.06l1.8-1.2v-14l-1.8-1.2H9.59l-1.8,1.2v14Z"/><g class="b"><path class="a" d="M41.3,39.35H9.35a.78.78,0,1,1,0-1.56H41.3a.78.78,0,0,1,0,1.56Z"/></g><g class="b"><path class="a" d="M41.3,57.27H9.35a.78.78,0,1,1,0-1.56H41.3a.78.78,0,0,1,0,1.56Z"/></g><path class="a" d="M10.91,56.49a.77.77,0,0,1-.78-.78V40.91a.78.78,0,0,1,1.56,0v14.8A.77.77,0,0,1,10.91,56.49Z"/><g class="d"><polygon class="a" points="42.86 39.74 42.86 53.77 42.08 52.21 42.08 41.3 42.86 39.74"/></g><g class="d"><polygon class="a" points="7.79 39.74 7.79 53.77 8.57 52.21 8.57 41.3 7.79 39.74"/></g><g class="c"><path class="a" d="M15,56a.78.78,0,0,1-.78-.78V42.75a.78.78,0,1,1,1.56,0V55.22A.78.78,0,0,1,15,56Z"/></g><g class="c"><path class="a" d="M19.72,56a.78.78,0,0,1-.78-.78V42.75a.78.78,0,0,1,1.56,0V55.22A.78.78,0,0,1,19.72,56Z"/></g><g class="c"><path class="a" d="M24.39,56a.77.77,0,0,1-.77-.78V42.75a.78.78,0,1,1,1.55,0V55.22A.77.77,0,0,1,24.39,56Z"/></g><g class="c"><path class="a" d="M29.07,56a.78.78,0,0,1-.78-.78V42.75a.78.78,0,0,1,1.56,0V55.22A.78.78,0,0,1,29.07,56Z"/></g><g class="c"><path class="a" d="M33.75,56a.77.77,0,0,1-.78-.78V42.75a.78.78,0,1,1,1.55,0V55.22A.77.77,0,0,1,33.75,56Z"/></g><g class="c"><path class="a" d="M38.42,56a.78.78,0,0,1-.78-.78V42.75a.78.78,0,0,1,1.56,0V55.22A.78.78,0,0,1,38.42,56Z"/></g><g class="c"><path class="a" d="M40.76,55.22H9.59a.78.78,0,1,1,0-1.56H40.76a.78.78,0,0,1,0,1.56Z"/></g><g class="c"><path class="a" d="M38.42,49.76a.77.77,0,0,1-.77-.78.82.82,0,0,1,.22-.55.79.79,0,0,1,.85-.17.74.74,0,0,1,.25.17.79.79,0,0,1,.24.55.76.76,0,0,1-.24.55.62.62,0,0,1-.25.17A.73.73,0,0,1,38.42,49.76Z"/></g><g class="c"><path class="a" d="M35.31,49.76a.75.75,0,0,1-.55-.23.62.62,0,0,1-.17-.25.73.73,0,0,1-.06-.3.78.78,0,0,1,.23-.55.8.8,0,0,1,1.1,0,.82.82,0,0,1,.22.55.73.73,0,0,1,0,.3.74.74,0,0,1-.17.25A.76.76,0,0,1,35.31,49.76Z"/></g><g class="c"><path class="a" d="M32.19,49.76a.76.76,0,0,1-.55-.23.75.75,0,0,1-.23-.55.78.78,0,0,1,.23-.55.8.8,0,0,1,1.1,0A.78.78,0,0,1,33,49a.75.75,0,0,1-.23.55.7.7,0,0,1-.25.17A.8.8,0,0,1,32.19,49.76Z"/></g><g class="c"><path class="a" d="M22.84,45.09a.76.76,0,0,1-.55-.23.85.85,0,0,1-.17-.25.78.78,0,0,1,0-.6.74.74,0,0,1,.17-.25.85.85,0,0,1,.25-.17.79.79,0,0,1,.85.17.85.85,0,0,1,.17.25.78.78,0,0,1,0,.6.81.81,0,0,1-.42.42A.8.8,0,0,1,22.84,45.09Z"/></g><g class="c"><polygon class="a" points="31.95 34.68 35.06 34.68 37.4 33.12 37.4 18.31 35.06 16.75 31.95 16.75 35.06 18.7 35.06 32.73 31.95 34.68"/></g><path class="e" d="M32.73,26.1H16.36a.78.78,0,0,1-.78-.78.77.77,0,0,1,.78-.77H32.73a.77.77,0,0,1,.78.77A.78.78,0,0,1,32.73,26.1Z"/><g class="d"><polygon class="a" points="36.62 18.7 36.62 32.73 35.84 31.17 35.84 20.26 36.62 18.7"/></g><g class="d"><polygon class="a" points="1.56 18.7 1.56 32.73 2.34 31.17 2.34 20.26 1.56 18.7"/></g><g class="c"><path class="a" d="M8.81,35A.78.78,0,0,1,8,34.18V21.71a.78.78,0,0,1,1.56,0V34.18A.78.78,0,0,1,8.81,35Z"/></g><g class="c"><path class="a" d="M13.49,35a.77.77,0,0,1-.78-.78V21.71a.78.78,0,1,1,1.55,0V34.18A.77.77,0,0,1,13.49,35Z"/></g><g class="c"><path class="a" d="M18.16,35a.78.78,0,0,1-.78-.78V21.71a.78.78,0,0,1,1.56,0V34.18A.78.78,0,0,1,18.16,35Z"/></g><g class="c"><path class="a" d="M22.84,35a.78.78,0,0,1-.78-.78V21.71a.78.78,0,0,1,1.56,0V34.18A.78.78,0,0,1,22.84,35Z"/></g><g class="c"><path class="a" d="M27.51,35a.78.78,0,0,1-.78-.78V21.71a.78.78,0,0,1,1.56,0V34.18A.78.78,0,0,1,27.51,35Z"/></g><g class="c"><path class="a" d="M32.19,35a.78.78,0,0,1-.78-.78V21.71a.78.78,0,1,1,1.56,0V34.18A.78.78,0,0,1,32.19,35Z"/></g><g class="c"><path class="a" d="M34.52,34.18H3.36a.78.78,0,1,1,0-1.56H34.52a.78.78,0,1,1,0,1.56Z"/></g><g class="c"><path class="a" d="M32.19,28.72a.8.8,0,0,1-.55-.22.78.78,0,0,1,0-1.11.8.8,0,0,1,1.1,0,.78.78,0,0,1,.23.55.73.73,0,0,1-.06.3.9.9,0,0,1-.17.26A.78.78,0,0,1,32.19,28.72Z"/></g><g class="c"><path class="a" d="M29.07,28.72a1,1,0,0,1-.3,0,.85.85,0,0,1-.25-.17.79.79,0,0,1-.23-.56.72.72,0,0,1,.06-.29.9.9,0,0,1,.17-.26.8.8,0,0,1,1.1,0,.73.73,0,0,1,.17.26.72.72,0,0,1,.06.29.79.79,0,0,1-.23.56.74.74,0,0,1-.25.17A.94.94,0,0,1,29.07,28.72Z"/></g><g class="c"><path class="a" d="M26,28.72a.78.78,0,0,1-.55-1.33.81.81,0,0,1,.84-.17.78.78,0,0,1,.26.17.81.81,0,0,1,0,1.11A.8.8,0,0,1,26,28.72Z"/></g><g class="c"><path class="a" d="M16.61,24.05a.73.73,0,0,1-.3-.06.74.74,0,0,1-.25-.17.7.7,0,0,1-.17-.25.8.8,0,0,1-.06-.3.75.75,0,0,1,.23-.55.78.78,0,0,1,.85-.17,1,1,0,0,1,.25.17.78.78,0,0,1,.17.85.85.85,0,0,1-.17.25.9.9,0,0,1-.26.17A.72.72,0,0,1,16.61,24.05Z"/></g><path class="a" d="M35.3,35.45H2.88L0,33.53V17.89L2.88,16H35.3l2.88,1.92V33.53ZM3.35,33.9H34.83l1.79-1.2v-14l-1.79-1.2H3.35l-1.79,1.2v14Z"/><path class="a" d="M4.67,35.45a.76.76,0,0,1-.77-.77V19.87a.78.78,0,1,1,1.55,0V34.68A.77.77,0,0,1,4.67,35.45Z"/><g class="b"><path class="a" d="M51.43,76H2.58a.77.77,0,0,1-.78-.77.78.78,0,0,1,.78-.78H51.43a.78.78,0,0,1,.78.78A.77.77,0,0,1,51.43,76Z"/></g></svg>