<svg id="el_d91csjsvk" data-name="Layer 1" xmlns="http://www.w3.org/2000/svg" xmlns:xlink="http://www.w3.org/1999/xlink" viewBox="0 0 280 413"><style>@-webkit-keyframes kf_el_IDphu1tzCu_an_ZAOkDeJMO{0%{-webkit-transform: translate(47.33499884605408px, 215.16950225830078px) scale(1, 1) translate(-47.33499884605408px, -215.16950225830078px);transform: translate(47.33499884605408px, 215.16950225830078px) scale(1, 1) translate(-47.33499884605408px, -215.16950225830078px);}23.33%{-webkit-transform: translate(47.33499884605408px, 215.16950225830078px) scale(1.1, 1.1) translate(-47.33499884605408px, -215.16950225830078px);transform: translate(47.33499884605408px, 215.16950225830078px) scale(1.1, 1.1) translate(-47.33499884605408px, -215.16950225830078px);}48.33%{-webkit-transform: translate(47.33499884605408px, 215.16950225830078px) scale(0.95, 0.95) translate(-47.33499884605408px, -215.16950225830078px);transform: translate(47.33499884605408px, 215.16950225830078px) scale(0.95, 0.95) translate(-47.33499884605408px, -215.16950225830078px);}73.33%{-webkit-transform: translate(47.33499884605408px, 215.16950225830078px) scale(1.1, 1.1) translate(-47.33499884605408px, -215.16950225830078px);transform: translate(47.33499884605408px, 215.16950225830078px) scale(1.1, 1.1) translate(-47.33499884605408px, -215.16950225830078px);}100%{-webkit-transform: translate(47.33499884605408px, 215.16950225830078px) scale(1, 1) translate(-47.33499884605408px, -215.16950225830078px);transform: translate(47.33499884605408px, 215.16950225830078px) scale(1, 1) translate(-47.33499884605408px, -215.16950225830078px);}}@keyframes kf_el_IDphu1tzCu_an_ZAOkDeJMO{0%{-webkit-transform: translate(47.33499884605408px, 215.16950225830078px) scale(1, 1) translate(-47.33499884605408px, -215.16950225830078px);transform: translate(47.33499884605408px, 215.16950225830078px) scale(1, 1) translate(-47.33499884605408px, -215.16950225830078px);}23.33%{-webkit-transform: translate(47.33499884605408px, 215.16950225830078px) scale(1.1, 1.1) translate(-47.33499884605408px, -215.16950225830078px);transform: translate(47.33499884605408px, 215.16950225830078px) scale(1.1, 1.1) translate(-47.33499884605408px, -215.16950225830078px);}48.33%{-webkit-transform: translate(47.33499884605408px, 215.16950225830078px) scale(0.95, 0.95) translate(-47.33499884605408px, -215.16950225830078px);transform: translate(47.33499884605408px, 215.16950225830078px) scale(0.95, 0.95) translate(-47.33499884605408px, -215.16950225830078px);}73.33%{-webkit-transform: translate(47.33499884605408px, 215.16950225830078px) scale(1.1, 1.1) translate(-47.33499884605408px, -215.16950225830078px);transform: translate(47.33499884605408px, 215.16950225830078px) scale(1.1, 1.1) translate(-47.33499884605408px, -215.16950225830078px);}100%{-webkit-transform: translate(47.33499884605408px, 215.16950225830078px) scale(1, 1) translate(-47.33499884605408px, -215.16950225830078px);transform: translate(47.33499884605408px, 215.16950225830078px) scale(1, 1) translate(-47.33499884605408px, -215.16950225830078px);}}@-webkit-keyframes kf_el_Jnzlhq8z3c_an_ZgqFo_p0R{0%{-webkit-transform: translate(185.39900970458984px, 21.820752143859863px) scale(1, 1) translate(-185.39900970458984px, -21.820752143859863px);transform: translate(185.39900970458984px, 21.820752143859863px) scale(1, 1) translate(-185.39900970458984px, -21.820752143859863px);}26.67%{-webkit-transform: translate(185.39900970458984px, 21.820752143859863px) scale(1.15, 1.15) translate(-185.39900970458984px, -21.820752143859863px);transform: translate(185.39900970458984px, 21.820752143859863px) scale(1.15, 1.15) translate(-185.39900970458984px, -21.820752143859863px);}53.33%{-webkit-transform: translate(185.39900970458984px, 21.820752143859863px) scale(0.9, 0.9) translate(-185.39900970458984px, -21.820752143859863px);transform: translate(185.39900970458984px, 21.820752143859863px) scale(0.9, 0.9) translate(-185.39900970458984px, -21.820752143859863px);}80%{-webkit-transform: translate(185.39900970458984px, 21.820752143859863px) scale(1.15, 1.15) translate(-185.39900970458984px, -21.820752143859863px);transform: translate(185.39900970458984px, 21.820752143859863px) scale(1.15, 1.15) translate(-185.39900970458984px, -21.820752143859863px);}100%{-webkit-transform: translate(185.39900970458984px, 21.820752143859863px) scale(1, 1) translate(-185.39900970458984px, -21.820752143859863px);transform: translate(185.39900970458984px, 21.820752143859863px) scale(1, 1) translate(-185.39900970458984px, -21.820752143859863px);}}@keyframes kf_el_Jnzlhq8z3c_an_ZgqFo_p0R{0%{-webkit-transform: translate(185.39900970458984px, 21.820752143859863px) scale(1, 1) translate(-185.39900970458984px, -21.820752143859863px);transform: translate(185.39900970458984px, 21.820752143859863px) scale(1, 1) translate(-185.39900970458984px, -21.820752143859863px);}26.67%{-webkit-transform: translate(185.39900970458984px, 21.820752143859863px) scale(1.15, 1.15) translate(-185.39900970458984px, -21.820752143859863px);transform: translate(185.39900970458984px, 21.820752143859863px) scale(1.15, 1.15) translate(-185.39900970458984px, -21.820752143859863px);}53.33%{-webkit-transform: translate(185.39900970458984px, 21.820752143859863px) scale(0.9, 0.9) translate(-185.39900970458984px, -21.820752143859863px);transform: translate(185.39900970458984px, 21.820752143859863px) scale(0.9, 0.9) translate(-185.39900970458984px, -21.820752143859863px);}80%{-webkit-transform: translate(185.39900970458984px, 21.820752143859863px) scale(1.15, 1.15) translate(-185.39900970458984px, -21.820752143859863px);transform: translate(185.39900970458984px, 21.820752143859863px) scale(1.15, 1.15) translate(-185.39900970458984px, -21.820752143859863px);}100%{-webkit-transform: translate(185.39900970458984px, 21.820752143859863px) scale(1, 1) translate(-185.39900970458984px, -21.820752143859863px);transform: translate(185.39900970458984px, 21.820752143859863px) scale(1, 1) translate(-185.39900970458984px, -21.820752143859863px);}}@-webkit-keyframes kf_el_9WPas5xQF2_an_E23ewH97Jm{0%{stroke-dasharray: 112.9, 10;}100%{stroke-dasharray: 112.9, 10;}}@keyframes kf_el_9WPas5xQF2_an_E23ewH97Jm{0%{stroke-dasharray: 112.9, 10;}100%{stroke-dasharray: 112.9, 10;}}@-webkit-keyframes kf_el_9WPas5xQF2_an_YXnOOiQga{0%{stroke-dashoffset: 112.9;}50%{stroke-dashoffset: 0;}100%{stroke-dashoffset: -112.9;}}@keyframes kf_el_9WPas5xQF2_an_YXnOOiQga{0%{stroke-dashoffset: 112.9;}50%{stroke-dashoffset: 0;}100%{stroke-dashoffset: -112.9;}}@-webkit-keyframes kf_el_2SGf0IDbcdg_an_TOg1XUmrDb{0%{stroke-dasharray: 70.94, 10;}100%{stroke-dasharray: 70.94, 10;}}@keyframes kf_el_2SGf0IDbcdg_an_TOg1XUmrDb{0%{stroke-dasharray: 70.94, 10;}100%{stroke-dasharray: 70.94, 10;}}@-webkit-keyframes kf_el_2SGf0IDbcdg_an_SYvPDXMti{0%{stroke-dashoffset: -70.94;}50%{stroke-dashoffset: 0;}100%{stroke-dashoffset: 70.94;}}@keyframes kf_el_2SGf0IDbcdg_an_SYvPDXMti{0%{stroke-dashoffset: -70.94;}50%{stroke-dashoffset: 0;}100%{stroke-dashoffset: 70.94;}}@-webkit-keyframes kf_el_WRhbFKUkyU_an_ZCuptN8evm{0%{stroke-dasharray: 160.65, 10;}100%{stroke-dasharray: 160.65, 10;}}@keyframes kf_el_WRhbFKUkyU_an_ZCuptN8evm{0%{stroke-dasharray: 160.65, 10;}100%{stroke-dasharray: 160.65, 10;}}@-webkit-keyframes kf_el_WRhbFKUkyU_an_B5VuCFKQe{0%{stroke-dashoffset: 160.65;}50%{stroke-dashoffset: 0;}100%{stroke-dashoffset: -160.65;}}@keyframes kf_el_WRhbFKUkyU_an_B5VuCFKQe{0%{stroke-dashoffset: 160.65;}50%{stroke-dashoffset: 0;}100%{stroke-dashoffset: -160.65;}}#el_d91csjsvk *{-webkit-animation-duration: 2s;animation-duration: 2s;-webkit-animation-iteration-count: infinite;animation-iteration-count: infinite;-webkit-animation-timing-function: cubic-bezier(0, 0, 1, 1);animation-timing-function: cubic-bezier(0, 0, 1, 1);}#el_XnBUA4w0j8{fill: none;stroke: #fff;stroke-opacity: 0.25;stroke-width: 1.5px;}#el_WRhbFKUkyU{fill: none;stroke: #aa468e;stroke-linecap: round;stroke-width: 1.5px;-webkit-animation-fill-mode: backwards, backwards;animation-fill-mode: backwards, backwards;stroke-dashoffset: 160.65;-webkit-animation-name: kf_el_WRhbFKUkyU_an_B5VuCFKQe, kf_el_WRhbFKUkyU_an_ZCuptN8evm;animation-name: kf_el_WRhbFKUkyU_an_B5VuCFKQe, kf_el_WRhbFKUkyU_an_ZCuptN8evm;-webkit-animation-timing-function: cubic-bezier(0.42, 0, 0.58, 1), cubic-bezier(0, 0, 1, 1);animation-timing-function: cubic-bezier(0.42, 0, 0.58, 1), cubic-bezier(0, 0, 1, 1);stroke-dasharray: 160.65, 10;}#el_avyYnonKdU{fill: #263243;fill-opacity: 0.6499999761581421;opacity: 0.5;isolation: isolate;}#el_9WPas5xQF2{fill: none;stroke: #007daa;stroke-linecap: round;stroke-width: 1.5px;-webkit-animation-fill-mode: backwards, backwards;animation-fill-mode: backwards, backwards;stroke-dashoffset: 112.9;-webkit-animation-name: kf_el_9WPas5xQF2_an_YXnOOiQga, kf_el_9WPas5xQF2_an_E23ewH97Jm;animation-name: kf_el_9WPas5xQF2_an_YXnOOiQga, kf_el_9WPas5xQF2_an_E23ewH97Jm;-webkit-animation-timing-function: cubic-bezier(0.42, 0, 0.58, 1), cubic-bezier(0, 0, 1, 1);animation-timing-function: cubic-bezier(0.42, 0, 0.58, 1), cubic-bezier(0, 0, 1, 1);stroke-dasharray: 112.9, 10;}#el_YNPHii8Rp2{fill: #f1f3f7;}#el_97SwEaGOOh{fill: #f1f3f7;}#el_oV72l-xmmh{fill: #f1f3f7;}#el_vw7twBQ-K6{fill: #fff;}#el_uDzJFunI-a{fill: #f1f3f7;}#el_Pk_1o45QQZ{fill: #f1f3f7;}#el_l5YQLlJ8QP{fill: #f1f3f7;}#el_dYZq7ORkoO{fill: #f1f3f7;}#el_Z-GdGDtN8j{fill: #fff;}#el_4SzGSBBk7K4{fill: #263243;fill-opacity: 0.6499999761581421;opacity: 0.699999988079071;isolation: isolate;}#el_2SGf0IDbcdg{fill: none;stroke: #f3cc0d;stroke-linecap: round;stroke-width: 1.5px;-webkit-animation-fill-mode: backwards, backwards;animation-fill-mode: backwards, backwards;stroke-dashoffset: -70.94;-webkit-animation-name: kf_el_2SGf0IDbcdg_an_SYvPDXMti, kf_el_2SGf0IDbcdg_an_TOg1XUmrDb;animation-name: kf_el_2SGf0IDbcdg_an_SYvPDXMti, kf_el_2SGf0IDbcdg_an_TOg1XUmrDb;-webkit-animation-timing-function: cubic-bezier(0.42, 0, 0.58, 1), cubic-bezier(0, 0, 1, 1);animation-timing-function: cubic-bezier(0.42, 0, 0.58, 1), cubic-bezier(0, 0, 1, 1);stroke-dasharray: 70.94, 10;}#el_NPvpG8RMO8H{fill: #263243;fill-opacity: 0.6499999761581421;opacity: 0.5;isolation: isolate;}#el_SVVa7_O0MuX{fill: #e0221c;}#el_ur0Lck2sSlp{fill: #9c1814;}#el_28nxsUEfBoT{fill: #f5d63d;}#el__Gpei0meJ9u{fill: #f3cc0d;}#el_RKVaFwsByop{fill: #c5d647;}#el_Rh8fbN5-iVa{fill: #9bab26;}#el_a4Megdy9d9Q{fill: #e2e6ea;}#el_kJd6iletFV2{fill: #c5d647;}#el_gxA8wcyO7nT{fill: #9bab26;}#el_PiTIalmANVs{fill: #f1f3f7;}#el_KLiXiV6bJm2{fill: #e2e6ea;}#el_NoLePumzH7K{fill: #d1d5d9;}#el_6h8sBtzk1iJ{fill: #d1d5d9;}#el_9Wm1cWcnj61{fill: #9c1814;}#el_M1ktjhn4voL{fill: #9c1814;}#el_QJ6tHtPOb6W{fill: #367a84;}#el_LDniY7YwaDp{fill: #e2e6ea;}#el__aFX9xmhRKG{fill: #459ba8;}#el_P5IslGQHvG9{fill: #f1f3f7;}#el_UzI_I80CJsZ{fill: #0a5366;}#el_cqXl9M5gKUl{fill: #e2e6ea;}#el_sYZYQqX4cmU{fill: #007daa;}#el_GeiTmlsnVv-{fill: #f1f3f7;}#el__5arYeMZ8v8{fill: #367a84;}#el_l_JUi7wvABX{fill: url(#radial-gradient);}#el_PZiuTyCpcVe{fill: #9c1814;}#el_Mxe_iuQ529y{fill: #e0221c;}#el_OSAXYWjwVgc{fill: #367a84;}#el_40h4Zv5p6MI{fill: url(#radial-gradient-2);}#el_2ebZzQb1AlQ{fill: #f3cc0d;}#el_KkGSgGWf4N0{fill: #f5d63d;}#el_jOrUxwRbXwV{fill: #367a84;}#el_rkXzWhk5fJz{fill: url(#radial-gradient-3);}#el_WW4RTSBnE_E{fill: #9bab26;}#el_fVXw6GU7HW8{fill: #c5d647;}#el_aMLc28FWaXM{fill: #efc29b;fill-rule: evenodd;}#el_9P250nXRqQW{fill: #efc29b;fill-rule: evenodd;}#el_-5J-YPv2mUK{fill: #78c5d6;}#el_GWbwo0pJBwN{fill: #efc29b;fill-rule: evenodd;}#el_MLT_C6s8u8k{fill: #efc29b;fill-rule: evenodd;}#el_ewAQrkpQ6Mw{fill: #efc29b;fill-rule: evenodd;}#el_qN_SuyX066J{fill: #efc29b;fill-rule: evenodd;}#el_tb1QO3-LUCe{fill: #efc29b;fill-rule: evenodd;}#el_SJTtRG086Gr{fill: #efc29b;fill-rule: evenodd;}#el_JgO7vAHOJVU{fill: #efc29b;fill-rule: evenodd;}#el_Wlb-_bLPgzn{fill: #efc29b;fill-rule: evenodd;}#el_yu4EGYEFznA{fill: #efc29b;fill-rule: evenodd;}#el_34kcs70xlqd{fill: #efc29b;fill-rule: evenodd;}#el_WPsvMcsAkTl{fill: #efc29b;fill-rule: evenodd;}#el_t6hTXUJ_h8o{fill: #efc29b;fill-rule: evenodd;}#el_dgQirW0DZiN{fill: #efc29b;fill-rule: evenodd;}#el_JcMNTWdq0uC{fill: #efc29b;fill-rule: evenodd;}#el_3Pxr24_CLwR{fill: #efc29b;fill-rule: evenodd;}#el_uOHttz9aMVo{fill: #efc29b;fill-rule: evenodd;}#el_DCSR_C8mXdF{fill-rule: evenodd;}#el_DummibH7Yg7{fill: #333;fill-rule: evenodd;}#el_sgrgBugwFTI{fill-rule: evenodd;}#el_uiy4KbU583o{fill: #333;fill-rule: evenodd;}#el_RNuD56ReYUo{fill: #36444f;fill-rule: evenodd;}#el_PBTGGmRlCsB{fill: none;stroke: #1f1f21;}#el_HCQokeoY7UF{fill: #ff5817;fill-rule: evenodd;}#el_7LNJSpEIBBA{fill: #1c2329;fill-rule: evenodd;}#el_U_nxPxheYFT{fill: #36444f;fill-rule: evenodd;}#el_t_bSNVb5wcR{fill: none;stroke: #1f1f21;}#el_qYoeEGKRAQa{fill: #ff5817;fill-rule: evenodd;}#el_Uhw6PRaGHNL{fill: #1c2329;fill-rule: evenodd;}#el_FWqwITnWYWG{fill-rule: evenodd;}#el_Fsh1YmHtLRl{fill: #333;fill-rule: evenodd;}#el_tS-mtvvfULY{fill-rule: evenodd;}#el_ytLAYjIjOHg{fill: #333;fill-rule: evenodd;}#el_mmIfatpDkDT{fill: #283e4f;fill-rule: evenodd;}#el_XIpcbUiT4lF{fill: #283e4f;fill-rule: evenodd;}#el_s2nkG6adaIo{fill-rule: evenodd;}#el_SMRIhCtp0jk{fill: #333;fill-rule: evenodd;}#el_Q3dAnrECfmq{fill: #283e4f;fill-rule: evenodd;}#el_Vx5pkkmhsQJ{fill-rule: evenodd;}#el_F1ACVIG7EKy{fill: #333;fill-rule: evenodd;}#el_3PKqtx8UwEU{fill: #283e4f;fill-rule: evenodd;}#el_fL9GjuH1cXN{fill: none;stroke: #000;}#el_J9lZ_shqZZa{fill: #333;fill-rule: evenodd;}#el_4bCSZhnHVl7{fill-rule: evenodd;}#el_V2Zt3K9HdB9{fill: #333;fill-rule: evenodd;}#el_2xNiS1SSmvE{fill: #efc29b;fill-rule: evenodd;}#el_XQUDSpfHImk{fill: #efc29b;fill-rule: evenodd;}#el_0Xspfa14nbp{fill: #efc29b;fill-rule: evenodd;}#el__TBt-_nlcY0{fill: #efc29b;fill-rule: evenodd;}#el_gLuUJCduQoL{fill: #706b5f;fill-rule: evenodd;}#el_Ko38J66pDp2{fill: #c3d9e6;fill-rule: evenodd;}#el_Am2JOZzf8Mh{fill-rule: evenodd;}#el_w9ovxqttmLc{fill: #efc29b;fill-rule: evenodd;}#el_vYxBY6QtHbJ{fill: #efc29b;fill-rule: evenodd;}#el_GcBzQP388Z7{fill: #706b5f;fill-rule: evenodd;}#el_IkMEiLk6_bn{fill: #706b5f;fill-rule: evenodd;}#el_nkhx0HbX76N{fill: #706b5f;fill-rule: evenodd;}#el_4JbYzyZhU7w{fill-rule: evenodd;}#el_T68bnJUPiKM{fill: #fff;fill-rule: evenodd;}#el_3msZyYHdkbr{fill-rule: evenodd;}#el_l-ekJrIHpD1{fill: #d1d5d9;}#el_pn6kcS0nVz2{fill: #e13c87;}#el_pn6kcS0nVz2_an_Pmkec68_k{-webkit-transform: translate(205.04481506347656px, 279.5478057861328px) rotate(540deg) translate(-205.04481506347656px, -279.5478057861328px);transform: translate(205.04481506347656px, 279.5478057861328px) rotate(540deg) translate(-205.04481506347656px, -279.5478057861328px);}#el_Jnzlhq8z3c_an_ZgqFo_p0R{-webkit-animation-fill-mode: backwards;animation-fill-mode: backwards;-webkit-transform: translate(185.39900970458984px, 21.820752143859863px) scale(1, 1) translate(-185.39900970458984px, -21.820752143859863px);transform: translate(185.39900970458984px, 21.820752143859863px) scale(1, 1) translate(-185.39900970458984px, -21.820752143859863px);-webkit-animation-name: kf_el_Jnzlhq8z3c_an_ZgqFo_p0R;animation-name: kf_el_Jnzlhq8z3c_an_ZgqFo_p0R;-webkit-animation-timing-function: cubic-bezier(0.42, 0, 0.58, 1);animation-timing-function: cubic-bezier(0.42, 0, 0.58, 1);}#el_IDphu1tzCu_an_ZAOkDeJMO{-webkit-animation-fill-mode: backwards;animation-fill-mode: backwards;-webkit-transform: translate(47.33499884605408px, 215.16950225830078px) scale(1, 1) translate(-47.33499884605408px, -215.16950225830078px);transform: translate(47.33499884605408px, 215.16950225830078px) scale(1, 1) translate(-47.33499884605408px, -215.16950225830078px);-webkit-animation-name: kf_el_IDphu1tzCu_an_ZAOkDeJMO;animation-name: kf_el_IDphu1tzCu_an_ZAOkDeJMO;-webkit-animation-timing-function: cubic-bezier(0, 0, 1, 1);animation-timing-function: cubic-bezier(0, 0, 1, 1);}</style>
  <defs>
    <radialGradient id="radial-gradient" cx="-1612.43" cy="-193.36" r="0.55" gradientTransform="translate(-1992.52 26122.78) rotate(87.88) scale(15.98)" gradientUnits="userSpaceOnUse">
      <stop offset="0" stop-color="#fff" stop-opacity="0.45"/>
      <stop offset="1" stop-color="#fff" stop-opacity="0"/>
    </radialGradient>
    <radialGradient id="radial-gradient-2" cx="-1612.17" cy="-192.88" r="0.55" gradientTransform="translate(-1972.52 26110.78) rotate(87.88) scale(15.98)" xlink:href="#radial-gradient"/>
    <radialGradient id="radial-gradient-3" cx="-1611.9" cy="-192.4" r="0.55" gradientTransform="translate(-1952.52 26098.78) rotate(87.88) scale(15.98)" xlink:href="#radial-gradient"/>
  </defs>
  <title>software-defined-application-services-cloud-cleaned</title>
  <path id="el_XnBUA4w0j8" d="M249.09,382.7,45.34,266.89a12.5,12.5,0,0,1,0-21.67L140.58,191"/>
  <path id="el_WRhbFKUkyU" d="M189.05,25.35l28.5-16.44a3.12,3.12,0,0,1,4.68,2.71v70A18.74,18.74,0,0,1,213,97.81l-27.37,16"/>
  <polygon id="el_avyYnonKdU" points="276.77 323.43 265.62 317.04 112.75 405.36 124.01 411.75 276.77 323.43"/>
  <path id="el_9WPas5xQF2" d="M56.46,226.09V296.4a9.38,9.38,0,0,0,13.92,8.2l20.27-11.14"/>
  <g id="el_Jnzlhq8z3c_an_ZgqFo_p0R" data-animator-group="true" data-animator-type="2"><g id="el_Jnzlhq8z3c">
    <path id="el_YNPHii8Rp2" d="M212.33,35.6,169,10.58c1.15-5.77,5.76-7.92,11.25-4.73a13.77,13.77,0,0,1,1.57,1c2.59-5.24,8.13-6.7,14.5-3,8.88,5.13,16.07,18.27,16.07,29.33A23.88,23.88,0,0,1,212.33,35.6Z"/>
    <polygon points="177.79 7.66 185.38 3.08 187.17 11.1 177.79 11.1 177.79 7.66" id="el_97SwEaGOOh"/>
    <polygon points="172.68 5.01 212.25 35.47 201.7 41.83 161.62 11.54 172.68 5.01" id="el_oV72l-xmmh"/>
    <path d="M201.7,41.85l-43.3-25c1.16-5.78,5.77-7.93,11.26-4.74a15.24,15.24,0,0,1,1.57,1c2.59-5.24,8.13-6.7,14.5-3,8.87,5.13,16.07,18.26,16.07,29.32C201.8,40.26,201.77,41.06,201.7,41.85Z" id="el_vw7twBQ-K6"/>
  </g></g>
  <g id="el_IDphu1tzCu_an_ZAOkDeJMO" data-animator-group="true" data-animator-type="2"><g id="el_IDphu1tzCu" data-name="cloud">
    <polygon points="7.81 235.73 22.03 233.59 14.77 249.43 3.93 243.24 7.81 235.73" id="el_uDzJFunI-a"/>
    <polygon points="48.33 186.57 60.8 182.57 71.89 189.31 60.23 195.97 48.33 186.57" id="el_Pk_1o45QQZ"/>
    <polygon points="63.34 197.21 75.81 193.2 86.91 199.94 75.24 206.6 63.34 197.21" id="el_l5YQLlJ8QP"/>
    <path d="M4.22,243.37a14.68,14.68,0,0,1-.12-1.87c0-7.12,4.51-15.48,10.07-18.68a7.63,7.63,0,0,1,5.16-1.14c2.86-15.4,12.67-31.18,24.32-37.86,11.26-6.47,20.77-2.5,24,8.68,6-2,10.84.86,12.64,7.16Z" id="el_dYZq7ORkoO"/>
    <path d="M14.67,249.63a16.79,16.79,0,0,1-.11-1.88c0-7.12,4.51-15.48,10.07-18.67a7.54,7.54,0,0,1,5.15-1.15c2.87-15.4,12.67-31.17,24.32-37.85,11.26-6.47,20.77-2.51,24,8.67,6-2,10.83.86,12.64,7.17Z" id="el_Z-GdGDtN8j"/>
  </g></g>
  <ellipse id="el_4SzGSBBk7K4" cx="250.97" cy="386.46" rx="15.01" ry="9.38"/>
  <path id="el_2SGf0IDbcdg" d="M91.27,220.2l12.65,7.4a6.25,6.25,0,0,0,9.41-5.4V179.05"/>
  <polygon id="el_NPvpG8RMO8H" data-name="shadow" points="196.15 269.94 184.99 276.34 80.85 216.2 92.11 209.81 196.15 269.94"/>
  <g id="el_gc2STq0dzKf">
    <g id="el_6NvMcy9_O4v">
      <path id="el_SVVa7_O0MuX" d="M214.54,114.16a1.19,1.19,0,0,0,.51-1.09,4.53,4.53,0,0,0-2.15-3.41c-.75-.45-1.42-.46-1.8-.09l-1,.67.78,1.09a4.94,4.94,0,0,0,1.83,2.5l.76,1Z"/>
      <path id="el_ur0Lck2sSlp" d="M211.83,114.66a4.53,4.53,0,0,1-2.14-3.39c0-1.18,1-1.57,2.14-.87a4.56,4.56,0,0,1,2.15,3.42C214,115,213,115.36,211.83,114.66Z"/>
    </g>
    <path d="M208.28,110.41a1.15,1.15,0,0,0,.51-1.09,4.52,4.52,0,0,0-2.14-3.41c-.76-.45-1.43-.46-1.81-.09l-1,.67.79,1.09a4.87,4.87,0,0,0,1.83,2.5l.76,1Z" id="el_28nxsUEfBoT"/>
    <path d="M205.58,110.91a4.59,4.59,0,0,1-2.15-3.39c0-1.18,1-1.57,2.15-.87a4.53,4.53,0,0,1,2.14,3.42C207.72,111.22,206.76,111.61,205.58,110.91Z" id="el__Gpei0meJ9u"/>
    <path d="M202,106.66a1.17,1.17,0,0,0,.51-1.09,4.5,4.5,0,0,0-2.14-3.41c-.76-.46-1.43-.46-1.81-.09l-1,.67.79,1.09a5,5,0,0,0,1.82,2.5l.76,1Z" id="el_RKVaFwsByop"/>
    <path d="M199.33,107.16a4.54,4.54,0,0,1-2.15-3.39c0-1.18,1-1.57,2.15-.87a4.54,4.54,0,0,1,2.14,3.41C201.47,107.47,200.51,107.86,199.33,107.16Z" id="el_Rh8fbN5-iVa"/>
    <polygon points="81.48 72.65 189.84 136.28 189.84 223.59 81.48 159.97 81.48 72.65" id="el_a4Megdy9d9Q"/>
    <polygon points="200.98 117.05 91.87 54.3 81.47 59.77 189.68 123.56 189.68 136.47 200.98 129.95 200.98 117.05" id="el_kJd6iletFV2"/>
    <polygon points="81.48 59.77 189.68 123.56 189.68 136.47 81.48 72.67 81.48 59.77" id="el_gxA8wcyO7nT"/>
    <polygon points="200.98 129.9 189.68 136.4 189.68 223.5 200.98 217 200.98 129.9" id="el_PiTIalmANVs"/>
    <polygon points="200.98 179.93 189.68 186.43 189.68 223.5 200.98 217 200.98 179.93" id="el_KLiXiV6bJm2"/>
  </g>
  <g id="el_0rsv_8GwIEH">
    <g id="el_po6S-psv295">
      <path d="M145.57,167.41a22.69,22.69,0,0,1-11.3-3.58c-11.87-7.06-21.52-22.5-21.52-34.42,0-5.47,2-9.63,5.68-11.71,4.38-2.49,10.62-1.7,17.12,2.16h0c11.86,7.07,21.52,22.5,21.52,34.39,0,5.47-2,9.63-5.69,11.72A11.64,11.64,0,0,1,145.57,167.41Zm-21.34-48.65a9.1,9.1,0,0,0-4.57,1.12c-2.84,1.62-4.41,5-4.41,9.53,0,11.14,9.11,25.61,20.3,32.27,5.69,3.38,11,4.15,14.59,2.11,2.85-1.62,4.42-5,4.42-9.54,0-11.11-9.1-25.57-20.29-32.24A20.3,20.3,0,0,0,124.23,118.76Z" id="el_NoLePumzH7K"/>
      <path d="M134,150.67a3.87,3.87,0,0,1,1.83,2.91c0,1-.82,1.33-1.83.73a3.82,3.82,0,0,1-1.83-2.89C132.14,150.39,133,150.05,134,150.67Zm-.3-24.54.56.28a1.87,1.87,0,0,1,1,1.67v18.71a.85.85,0,0,1-.85.87h0a.77.77,0,0,1-.39-.11l-.21-.11a1.88,1.88,0,0,1-1-1.67v-19.1a.63.63,0,0,1,.63-.62.55.55,0,0,1,.28.06Z" id="el_6h8sBtzk1iJ"/>
    </g>
    <g id="el_h6BBRl6Z2Jy">
      <path d="M133.06,173.66a22.69,22.69,0,0,1-11.3-3.58c-11.86-7.06-21.52-22.49-21.52-34.42,0-5.46,2-9.62,5.68-11.7,4.38-2.49,10.62-1.71,17.12,2.16h0c11.87,7.07,21.52,22.49,21.52,34.39,0,5.47-2,9.63-5.69,11.71A11.64,11.64,0,0,1,133.06,173.66ZM111.73,125a9.24,9.24,0,0,0-4.58,1.11c-2.84,1.62-4.41,5-4.41,9.53,0,11.14,9.11,25.62,20.3,32.27,5.69,3.38,11,4.16,14.59,2.12,2.86-1.62,4.43-5,4.43-9.54,0-11.11-9.11-25.58-20.3-32.24A20.27,20.27,0,0,0,111.73,125Z" id="el_9Wm1cWcnj61"/>
    </g>
    <path id="el_M1ktjhn4voL" d="M121.46,156.93a3.85,3.85,0,0,1,1.83,2.9c0,1-.82,1.33-1.83.74a3.85,3.85,0,0,1-1.83-2.9C119.63,156.65,120.45,156.3,121.46,156.93Zm-.3-24.55.56.28a1.9,1.9,0,0,1,1,1.68v18.71a.86.86,0,0,1-.86.86h0a.73.73,0,0,1-.38-.11l-.22-.1a1.91,1.91,0,0,1-1-1.68V132.93a.63.63,0,0,1,.63-.63.67.67,0,0,1,.28.06Z"/>
  </g>
  <g id="el_z4fSiWZtJWv">
    <g id="el_L7B5WJ1ImDS">
      <polygon points="112.75 243.86 124.01 250.25 124.01 274.64 112.75 268.25 112.75 243.86" id="el_QJ6tHtPOb6W"/>
      <polygon points="112.75 268.25 124.01 274.64 124.01 376.28 112.75 369.88 112.75 268.25" id="el_LDniY7YwaDp"/>
      <polygon points="276.77 162.08 265.62 155.68 112.75 244 124.01 250.4 124.01 274.79 276.77 186.47 276.77 162.08" id="el__aFX9xmhRKG"/>
      <polygon points="276.77 186.32 124.01 274.64 124.01 376.47 276.77 288.15 276.77 186.32" id="el_P5IslGQHvG9"/>
    </g>
    <polygon points="112.75 243.86 124.01 250.25 124.01 274.64 112.75 268.25 112.75 243.86" id="el_UzI_I80CJsZ"/>
    <polygon points="112.75 268.25 124.01 274.64 124.01 376.28 112.75 369.88 112.75 268.25" id="el_cqXl9M5gKUl"/>
    <polygon points="276.77 162.08 265.62 155.68 112.75 244 124.01 250.4 124.01 274.79 276.77 186.47 276.77 162.08" id="el_sYZYQqX4cmU"/>
    <polygon points="276.77 186.32 124.01 274.64 124.01 376.47 276.77 288.15 276.77 186.32" id="el_GeiTmlsnVv-"/>
    <path d="M137.14,260.12a8,8,0,0,0,3.75-6c0-2.07-1.68-2.75-3.75-1.52a8,8,0,0,0-3.75,6C133.39,260.67,135.07,261.37,137.14,260.12Z" id="el__5arYeMZ8v8"/>
    <path d="M134.91,261.11a2.06,2.06,0,0,1-.9-1.88,8,8,0,0,1,3.76-6c1.35-.81,2.53-.8,3.19-.12l3,2.44-5.92,8.1Z" id="el_l_JUi7wvABX"/>
    <path d="M138,263.61a2,2,0,0,1-.9-1.87,8,8,0,0,1,3.75-6c1.34-.79,2.5-.8,3.17-.15l1.76,1.17-1.39,1.88a8.56,8.56,0,0,1-3.19,4.38l-1.34,1.84Z" id="el_PZiuTyCpcVe"/>
    <path d="M142.77,264.5a8,8,0,0,0,3.75-6c0-2.07-1.68-2.76-3.75-1.52a7.93,7.93,0,0,0-3.75,6C139,265,140.7,265.75,142.77,264.5Z" id="el_Mxe_iuQ529y"/>
    <path d="M149.65,252.62a8,8,0,0,0,3.75-6c0-2.07-1.68-2.76-3.75-1.53a8,8,0,0,0-3.75,6C145.9,253.16,147.58,253.87,149.65,252.62Z" id="el_OSAXYWjwVgc"/>
    <path d="M147.42,253.61a2.07,2.07,0,0,1-.9-1.88,8,8,0,0,1,3.75-6c1.36-.8,2.54-.79,3.2-.11l3.05,2.44-5.92,8.1Z" id="el_40h4Zv5p6MI"/>
    <path d="M150.55,256.11a2,2,0,0,1-.9-1.88,8,8,0,0,1,3.75-6c1.33-.79,2.5-.79,3.17-.14l1.75,1.17-1.38,1.87a8.52,8.52,0,0,1-3.19,4.38l-1.34,1.84Z" id="el_2ebZzQb1AlQ"/>
    <path d="M155.28,257c2.07-1.26,3.75-3.91,3.75-6s-1.68-2.76-3.75-1.53a8,8,0,0,0-3.75,6C151.53,257.54,153.21,258.25,155.28,257Z" id="el_KkGSgGWf4N0"/>
    <path d="M162.16,245.11a8,8,0,0,0,3.75-6c0-2.07-1.68-2.75-3.75-1.52a8,8,0,0,0-3.76,6C158.4,245.66,160.09,246.36,162.16,245.11Z" id="el_jOrUxwRbXwV"/>
    <path d="M159.92,246.1a2.07,2.07,0,0,1-.89-1.88,7.93,7.93,0,0,1,3.75-6c1.35-.81,2.54-.8,3.2-.12l3,2.44-5.91,8.1Z" id="el_rkXzWhk5fJz"/>
    <path d="M163.06,248.6a2,2,0,0,1-.9-1.87,8,8,0,0,1,3.75-6c1.33-.79,2.5-.8,3.16-.15l1.76,1.17-1.39,1.88a8.5,8.5,0,0,1-3.19,4.38l-1.33,1.84Z" id="el_WW4RTSBnE_E"/>
    <path d="M167.79,249.49a8,8,0,0,0,3.75-6c0-2.07-1.68-2.76-3.75-1.52a8,8,0,0,0-3.76,6C164,250,165.72,250.74,167.79,249.49Z" id="el_fVXw6GU7HW8"/>
  </g>
  <g id="el_dvdK_T6zrT1">
    <path id="el_aMLc28FWaXM" d="M235.44,327.35c0-1.12-3.26-.05-2.78.7.63,1,2.78-.52,2.78-.7"/>
    <path id="el_9P250nXRqQW" d="M235.7,327.55c.17-1.11-3.21-.52-2.85.29.48,1,2.82-.11,2.85-.29"/>
    <polygon points="238.44 318.29 230.88 320.63 230.64 321.27 235.33 330.56 243.46 328.22 238.44 318.29" id="el_iU_66Lwe0pF"/>
    <polygon points="238.38 319 231.23 321.04 235.36 329.27 242.51 327.23 238.38 319" id="el_-5J-YPv2mUK"/>
    <path id="el_GWbwo0pJBwN" d="M245.56,330.5c-2.9-.43-8-.88-9.13-1.48s-1.94-.36-2.31.45c-.18.39.57,1,1.78,1.74a53.81,53.81,0,0,0,5.2,2.62c3,1.34,7.1,2.59,8.71,1.25a1.66,1.66,0,0,0,.52-.73c.86-2.19-1.87-3.44-4.77-3.87"/>
    <path id="el_MLT_C6s8u8k" d="M236.06,331l-.16.2a53.81,53.81,0,0,0,5.2,2.62c3,1.34,7.1,2.59,8.71,1.25.14-.32.22-.52.22-.52a4.84,4.84,0,0,1-3.49.29c-2.28-.49-10.48-3.86-10.48-3.86"/>
    <path id="el_ewAQrkpQ6Mw" d="M233.14,330c-.86.23.62,2.5,1.12,1.94s-1-2-1.12-1.94"/>
    <path id="el_qN_SuyX066J" d="M233.06,330.06a2.84,2.84,0,0,0,1.09,2c-.52.21-1.75-1.67-1.09-2"/>
    <path id="el_tb1QO3-LUCe" d="M233,329.61c-.81.78,2.25,2.35,2.45,1.48.25-1.12-2.32-1.61-2.45-1.48"/>
    <path id="el_SJTtRG086Gr" d="M232.93,329.7a3.65,3.65,0,0,0,2.44,1.54c-.45.55-3-.78-2.44-1.54"/>
    <path id="el_JgO7vAHOJVU" d="M232.89,328.74c-.81.78,2.25,2.35,2.45,1.48.25-1.11-2.32-1.6-2.45-1.48"/>
    <path id="el_Wlb-_bLPgzn" d="M232.83,328.83a3.59,3.59,0,0,0,2.44,1.54c-.45.56-3-.78-2.44-1.54"/>
    <path id="el_yu4EGYEFznA" d="M235.8,328.29a8.14,8.14,0,0,1,1.73.5c.73.44.92,1.77-.12,2-1.3.25-1.6-1.54-1.61-2.47"/>
    <path id="el_34kcs70xlqd" d="M235.79,328.39c-.15-1.43,1.05-.52,1.6-.07s1.14,1.22.5,1.88c-1.31,1.32-2-.91-2.1-1.8"/>
    <path id="el_WPsvMcsAkTl" d="M236.35,327.52l-1.61-1.25c-.33.58.22,1.47.69,1.82s1.67,0,.92-.59"/>
    <path id="el_t6hTXUJ_h8o" d="M234.83,327.07a1,1,0,0,1-.09-.77c-.38.72.48,2,1.11,2a6.48,6.48,0,0,1-1-1.2"/>
    <path id="el_dgQirW0DZiN" d="M232.77,327.54c-.91.65,1.88,2.65,2.21,1.82.41-1.07-2.06-1.92-2.21-1.82"/>
    <path id="el_JcMNTWdq0uC" d="M232.7,327.62a3.59,3.59,0,0,0,2.2,1.87c-.53.49-2.85-1.2-2.2-1.87"/>
    <path id="el_3Pxr24_CLwR" d="M233.91,332c1,.51,2.43.07,3.43-.36a1.78,1.78,0,0,0-.25-3.27,4.06,4.06,0,0,0-2.2.25c-.67.18-.5,0-.7.63-.28.88-.05,1.87-.28,2.77"/>
    <path id="el_uOHttz9aMVo" d="M233.91,332c1.14.57,2.85,0,3.9-.59-.82.07-1.61.37-2.44.39a6.5,6.5,0,0,1-1.46.2"/>
    <g id="el_Q0lA_d9CZr6">
      <path id="el_DCSR_C8mXdF" d="M256.48,318.07c1.25,3.66,3.65,12.29,6.54,11.25s1.29-4.42.94-6.91c-.63-4.42-1.76-13.92-5.5-13.34C256,309.41,255.26,314.41,256.48,318.07Z"/>
    </g>
    <path id="el_DummibH7Yg7" d="M256.48,318.07c.8,2.35,2.08,6.79,3.67,9.38a20.08,20.08,0,0,0,1.22-2.17,1.27,1.27,0,0,0,0-1.25c-.93-1.51-1.71-9.85-2.88-14.94-2.42.38-3.21,5.37-2,9"/>
    <path id="el_sgrgBugwFTI" d="M264.14,328.57c-3.76,6.22-4.35,7.5-6.41,10.07-1,.52-5-1.34-4.76-3,1.25-1.61,4.89-8.86,6.22-10.08s6.45.49,4.95,3"/>
    <path id="el_uiy4KbU583o" d="M257.73,338.64l.71-.91a36,36,0,0,1,.18-6.05c.53-3.38,2.25-5.13,2.76-6.42a2.72,2.72,0,0,0-2.19.32c-1.33,1.22-5,8.47-6.22,10.08-.19,1.65,3.76,3.5,4.76,3"/>
    <path id="el_RNuD56ReYUo" d="M257.85,383.48c-2-1.69-1.26-1.87-2.45-2.62a10.75,10.75,0,0,0-4-1.37c-.68,0-1.87.41-1.6.94a6.9,6.9,0,0,0,2.23,2.39A12,12,0,0,1,255,384c.13.09.28.67.37.77.78.84,1.56,1.48,3,1a1.65,1.65,0,0,0,.85-.52,1.19,1.19,0,0,0,0-.7c-.16-.31-.63-.41-1.32-1"/>
    <path id="el_PBTGGmRlCsB" d="M257.43,384.42v-13"/>
    <path id="el_HCQokeoY7UF" d="M251.87,379.49a15.38,15.38,0,0,0,2.95.17c1-.12-1-7.74-1-7.74a2.87,2.87,0,0,1,2.37-1,4.26,4.26,0,0,1,2.73,1.25s-.71,4.64-.73,6.57.9,4.24.81,4.93,0,1.32-1.06,1.32-2.46-2.06-3.54-2.37-2.11-.19-2.79-.93-2.06-1.44-1.53-1.75a.87.87,0,0,1,1,.18s-.82-.63-.15-.63h1"/>
    <path id="el_7LNJSpEIBBA" d="M258.94,381.93a.58.58,0,0,1-.36.36,3.2,3.2,0,0,1-2.7-.92c-.84-.76-1-1.39-.56-1.71-1.54-.14-3.33-.62-3.92-.62s-1.88.39-1.61.93a6.88,6.88,0,0,0,2.23,2.38c.78.32,2.5.63,3.27,1.48s1.59,2,3,1.42a1.89,1.89,0,0,0,.83-.46,5.06,5.06,0,0,0-.21-2.84"/>
    <path id="el_U_nxPxheYFT" d="M248.18,390.6c-.15-.05-.21-.51-.36-.54-2.94-.41-2.77-.1-4.3-.49a9.18,9.18,0,0,1-3.6-1.69,1.62,1.62,0,0,1,0-.62c.07-.35.4-.34,1.05-.35a20.62,20.62,0,0,1,4.61.44,9.93,9.93,0,0,0,3.47,1.31c1.35.12,3.07-.09,3.35.5a1.34,1.34,0,0,1,0,.69c-.4,1-.85,1.61-4.19.75"/>
    <path id="el_t_bSNVb5wcR" d="M250.56,389.78v-13"/>
    <path id="el_qYoeEGKRAQa" d="M252.14,388.37c-.25-1.55-1-5-.25-7.14a23,23,0,0,0,.69-2.72c.22-1.14-1.48-2-2.5-2s-2.22.76-2.11,1.81c.23,2.19.54,5.67.23,6.08-.46.63-.3,1.22-4.19,2.22Z"/>
    <path id="el_Uhw6PRaGHNL" d="M251.89,386.82c-.36.44-1.69.62-3.09.42s-2.5-.83-2.26-1.33a.22.22,0,0,1,.05-.08,48.24,48.24,0,0,1-5.63.63c-1,0-1.19.81-1,1.19a8.31,8.31,0,0,0,3.52,1.75c1.6.41,1.68-.06,5.08.47,2.68.41,3.39.49,3.79-.47a3.12,3.12,0,0,0-.48-2.55"/>
    <path id="el_FWqwITnWYWG" d="M253.25,331.08c7.11,0,7.22,5.68,7.25,9.88,0,.83,0,2.82-.07,4.26-.17,4.81-.62,12-.93,15.27-.41,4.21-4.32,5.75-6,1.14s-3.91-19.52-2.93-24a16.85,16.85,0,0,1,2.67-6.57"/>
    <path id="el_Fsh1YmHtLRl" d="M253.51,361.63a4,4,0,0,0,2.26,2.7v-.13a42.63,42.63,0,0,0-.83-7.64c-.48-2.69-1.11-6-1.74-11.26-.69-5.79-.3-9.5,4.38-12.24l.18-.1a9.58,9.58,0,0,0-4.38-.88s-1.81,1.11-2.79,5.57,1.25,19.39,2.93,24"/>
    <path id="el_tS-mtvvfULY" d="M254.21,356.89c2.92-.42,4.49.3,5.29,3.6,1.74,7.21-.75,15.84-.1,23.14a9.18,9.18,0,0,1-5.31-1.8c-2.54-1.92-.62-3.47-.62-3.47s.42-15.06-.15-17.28a5.64,5.64,0,0,1,.84-4.19"/>
    <path id="el_ytLAYjIjOHg" d="M254.09,381.83c.3.22.62.43.94.62l.1-.77c0-.38.08-.79.13-1.21,0-.19.49-12.37.49-15.8v-.47a40.85,40.85,0,0,0-.79-7.39,5.53,5.53,0,0,0-.77.09,5.52,5.52,0,0,0-.84,4.18c.56,2.23.14,17.29.14,17.29s-1.94,1.55.63,3.46"/>
    <path id="el_mmIfatpDkDT" d="M246.26,338.84c7.11,0,8.84,6.45,7.14,9.64s-.63,14.57-1,18.76-4.32,5.74-6,1.15-3.51-19.59-2.54-24.06,2.4-5.51,2.4-5.51"/>
    <path id="el_XIpcbUiT4lF" d="M246.26,338.84c7.11,0,8.84,6.45,7.14,9.64s-.63,14.57-1,18.76-4.32,5.74-6,1.15-3.51-19.59-2.54-24.06,2.4-5.51,2.4-5.51"/>
    <path id="el_s2nkG6adaIo" d="M246.26,338.84c7.11,0,8.84,6.45,7.14,9.64s-.63,14.57-1,18.76-4.32,5.74-6,1.15-3.51-19.59-2.54-24.06,2.4-5.51,2.4-5.51"/>
    <path id="el_SMRIhCtp0jk" d="M246.4,368.4c.66,1.81,1.66,2.66,2.66,2.79-.06-5.85-1.32-8.39-2.57-18.9-.7-5.79-.3-9.51,4.38-12.24a8.41,8.41,0,0,0-4.61-1.21s-1.42,1.05-2.4,5.51.86,19.45,2.54,24"/>
    <path id="el_Q3dAnrECfmq" d="M247.09,363.66c2.93-.42,4.49.29,5.3,3.6,1.37,5.62-.14,22.34-.14,22.34s-2,.47-4.56-1.44-1.29-3-1.29-3,.41-15.06-.14-17.29a5.56,5.56,0,0,1,.83-4.18"/>
    <path id="el_Vx5pkkmhsQJ" d="M247.09,363.66c2.93-.42,4.49.29,5.3,3.6,1.37,5.62-.14,22.34-.14,22.34s-2,.47-4.56-1.44-1.29-3-1.29-3,.41-15.06-.14-17.29a5.56,5.56,0,0,1,.83-4.18"/>
    <path id="el_F1ACVIG7EKy" d="M247.69,388.16a8.79,8.79,0,0,0,.74.5c0-.38.1-.79.15-1.21,0-.19,1,.7,1,.51s-1-1.29-1-1.52a145.4,145.4,0,0,0,.48-14.79v-.46a42.63,42.63,0,0,0-.83-7.64,11,11,0,0,0-1.14.1,5.59,5.59,0,0,0-.83,4.19c.56,2.23.14,17.29.14,17.29s-1.25,1.11,1.29,3"/>
    <g id="el_xdA3lvpkLEF">
      <path id="el_3PKqtx8UwEU" d="M247.84,344.18l8.54-4.93"/>
      <path id="el_fL9GjuH1cXN" d="M247.84,344.18l8.54-4.93"/>
    </g>
    <path id="el_J9lZ_shqZZa" d="M260.57,340.34a15.78,15.78,0,0,1,.07,2.38c-.4,3-9,7.4-13.18,6.52-4.78-1-.25-10.32-.25-10.32Z"/>
    <path id="el_4bCSZhnHVl7" d="M244.29,316.48c1.2-1.87,3.75-2.84,5.48-4,4-2.65,7.67-4.06,9.29-3.68,2.33.55,4.72,2.88,2.23,10.79-1.13,3.59-2.67,5.86-2.46,10.23.14,3,2.34,7.45,2.14,12.31-.4,3-11.05,9.07-14.54,6.68-2.39-1.63-2.84-1.8-2.84-3.93,0-.81.43-4.64.58-5.47,1.16-6.25,0-8.75-.58-13.13s-.54-7.9.7-9.81"/>
    <path id="el_V2Zt3K9HdB9" d="M249.26,317c1.61,3.62,3.6,11.46,3.35,15.78-.36,6.22-.29,14.64.25,15.6-2,.63-3.56,1.25-5,.89-3.53-.84-4.26-2-4.26-4.43,0-.81.44-4.64.59-5.46,1.16-6.26,0-8.76-.59-13.14s-.53-7.9.71-9.81c.46-.73,2.5-2.24,5,.56"/>
    <path id="el_2xNiS1SSmvE" d="M249.32,308.28c.32,2.08.7,3.45.79,4s.11.71.66.89a5.23,5.23,0,0,0,2.12.13,3.24,3.24,0,0,0,1.88-1c1.08-1.19.67-1.59.69-2.28,0-1.5-.12-2.45-.19-4-1.91.77-4,1.46-5.93,2.22"/>
    <path id="el_XQUDSpfHImk" d="M249.32,308.28c.32,2.08.7,3.45.79,4s.11.72.66.9a5.06,5.06,0,0,0,2.12.12c.31,0,0-1,0-1.7-.1-1.25,3-3.62,3.45-5.89-.88.36-6.08,2.2-7,2.56"/>
    <path id="el_0Xspfa14nbp" d="M247,302.33a5.39,5.39,0,0,1,5.93-4.66,5.09,5.09,0,0,1,4.29,5.9c-.32,2.68-1.69,2.63-2.69,4.62-.54.35-3.37,1.53-3.91,1.8a4.71,4.71,0,0,1-2.58.08c-.75-.18-.89-1.65-1-2.26a12.72,12.72,0,0,1,0-4.22,5.23,5.23,0,0,1,0-1.25"/>
    <path id="el__TBt-_nlcY0" d="M253,297.65a5.37,5.37,0,0,0-4.76,2,10.11,10.11,0,0,0-.74,2.46,13.16,13.16,0,0,0,.26,2.11c0,.54-.41.63-.58,1.71a10.51,10.51,0,0,0,.4,3.7.85.85,0,0,0,.53.47,4.62,4.62,0,0,0,2.58-.08c.54-.27,3.37-1.45,3.91-1.8,1-2,2.37-1.94,2.69-4.62a5.09,5.09,0,0,0-4.29-5.9"/>
    <path id="el_gLuUJCduQoL" d="M248.41,297.37a2,2,0,0,0-.25,1.25,3,3,0,0,1,.37-1.08c-.15-.73,2.76-.5,3.66-.34,2.8.5,4.58,1.44,5.27,4.38.79,3.4-1.88,6.72-1.88,6.72s-.69,2-2,1.32a10.11,10.11,0,0,1-2.67-2.85s.94-1.36.51-2.13-.94-.86-1.21-.31a2.47,2.47,0,0,0-.13.89l-.9-.62s.46-2-.53-2.7c-2-1.3-.94-4-.22-4.53"/>
    <path id="el_Ko38J66pDp2" d="M255.49,310.3c-.15,1.8-5.77,1.73-5.77,1.73l-1.78,1.51s.82,1.15,4.16.74c3.18-.4,4.53-2.15,4-3.09s-.63-.92-.63-.92"/>
    <path id="el_Am2JOZzf8Mh" d="M250.07,313.28c1.8.05,4.92.19,5.75-1.64.23-.52-.29-1.25-.29-1.25l-.05-.28c.38,0,1.12,1.11,1.25,1.65.27,1.28-.85,2.69-4,3.08a13.46,13.46,0,0,1-5.88-.56l.79-.58a6.65,6.65,0,0,1,2.5-.39"/>
    <path id="el_w9ovxqttmLc" d="M250.92,304a.93.93,0,0,0-.63.13,1,1,0,0,1,.15,1.4l-.15.15c.76.73-.14,1.4-.21,1.47a.75.75,0,0,0,.29.09.62.62,0,0,0,.71-.4l.55-2c.11-.39-.24-.79-.75-.84"/>
    <path id="el_vYxBY6QtHbJ" d="M250.78,305.78c.66,1.15-.38,1.39-.67,1.39a.75.75,0,0,0,.29.09.64.64,0,0,0,.72-.4l.54-2c.11-.39-.24-.78-.74-.84a1.09,1.09,0,0,0-.51.07h.14c.48.05,1.71.38.23,1.68"/>
    <path id="el_GcBzQP388Z7" d="M251.77,306.7c1.67-1.1,3-.51,4-1.75a4.42,4.42,0,0,0,1-3.91,3.49,3.49,0,0,1,.83,1.21c.34,3.13-2,6.06-2,6.06s-.68,2-2,1.31a8.39,8.39,0,0,1-2.3-2.3,1.18,1.18,0,0,1,.5-.62"/>
    <path id="el_IkMEiLk6_bn" d="M248.67,299.92a3.08,3.08,0,0,0,.49,1.62,2.58,2.58,0,0,0,.32.53,6.2,6.2,0,0,1-.2-1.06,2,2,0,0,0,.37.63,5.95,5.95,0,0,1-.1-3,2.55,2.55,0,0,0-.24.39l.06-.31a2.57,2.57,0,0,0-.4.95,8.25,8.25,0,0,1,.13-1.49,3.13,3.13,0,0,0-.43,1.74"/>
    <path id="el_nkhx0HbX76N" d="M249.5,300.05a2.91,2.91,0,0,0,.47,1.56,7.86,7.86,0,0,1-.1-3.13,2.92,2.92,0,0,0-.37,1.59"/>
    <path id="el_4JbYzyZhU7w" d="M246.78,316.07c-1.71.07-3.26,0-3.53,2.76a33.48,33.48,0,0,0,.57,6,70.89,70.89,0,0,1,1.55,7.78,3,3,0,0,0,3.44,2.57l.12,0c3-.75,1.92-2.7,1.84-5.21-.14-4.47-.21-14-4-13.87"/>
    <path id="el_T68bnJUPiKM" d="M239.18,333.3c-1.55-.52-2.17-.76-2.17-.76a2.94,2.94,0,0,1-.07-1.83c.32-1.62,1.16-1.8,1.16-1.8l2.69.91Z"/>
    <path id="el_3msZyYHdkbr" d="M247.25,335.92c-7-2.11-5.94-1.2-9.09-2.19-.85-.77-.69-4.47.92-4.9,1.95.58,8.9,1.25,10.51,2.05s1.39,6.17-2.34,5"/>
  </g>
  <g id="el_AE8Ghp4sGkQ">
    <g id="el_-k7DPa86gBk">
      <path id="el_l-ekJrIHpD1" d="M187.56,267.27l-.63.9-6.57-.54-7.23,18.17,6.34.53-.17,1a36.33,36.33,0,0,0-.54,6.07,27.13,27.13,0,0,0,.36,4.5l.13.79-6.12,7.44,7.23,10,5.86-7.13.62.27a14.29,14.29,0,0,0,8.42.83L196,310v7.46l14.44-8.19v-7.49l.75-.71a54.6,54.6,0,0,0,8.42-10.38l.63-.95,5.86.48L233.28,272l-6.12-.5.13-.93a33.7,33.7,0,0,0,.36-4.91,26.33,26.33,0,0,0-.54-5.46l-.17-.8,6.34-7.71-7.22-10-6.6,8-.63-.22a14.44,14.44,0,0,0-7.68-.53l-.75.14v-8.69L196,248.6v8.71l-.75.72A54.62,54.62,0,0,0,187.56,267.27Zm-.82-2a59.16,59.16,0,0,1,7-8.46v-6.93a4.81,4.81,0,0,1,2.23-3.76l14.44-8.19c1.25-.69,2.22-.14,2.22,1.25v6.94a15.93,15.93,0,0,1,7,.49l5.26-6.41c1.07-1.29,2.42-1.65,3-.81l7.22,10c.62.85.25,2.58-.81,3.88l-4.95,6a29.7,29.7,0,0,1,.43,5.16,35.64,35.64,0,0,1-.27,4.38l4.79.4c1.06.09,1.42,1.41.81,2.95L228,290.36c-.62,1.55-2,2.73-3,2.64l-4.47-.38a59.49,59.49,0,0,1-7.82,9.65V308a4.8,4.8,0,0,1-2.22,3.75L196,319.91c-1.25.69-2.23.13-2.23-1.26V313a15.4,15.4,0,0,1-7.84-.76l-4.46,5.44c-1.07,1.3-2.43,1.65-3,.81l-7.22-10c-.62-.85-.25-2.58.81-3.88l4.79-5.82a28.19,28.19,0,0,1-.27-4.11A38,38,0,0,1,177,289l-5-.41c-1.06-.09-1.42-1.41-.81-2.95l7.22-18.18c.62-1.54,2-2.72,3-2.63Zm16.95,29c-7.67,4.38-13.89.89-13.89-7.75S196,267.35,203.69,263s13.89-.87,13.89,7.76-6.22,19.17-13.89,23.51Zm0-2.5c6.44-3.65,11.67-12.51,11.67-19.75s-5.23-10.17-11.67-6.52S192,278,192,285.24s5.22,10.18,11.67,6.52Z"/>
    </g>
    <g id="el_dn-MSSsJJWP">
      <path id="el_pn6kcS0nVz2" d="M189.43,267.9l-.62.9-6.58-.55L175,286.43l6.34.52-.17,1a36.45,36.45,0,0,0-.54,6.08,27.12,27.12,0,0,0,.35,4.5l.14.78L175,306.75l7.22,10,5.86-7.13.63.27a14.13,14.13,0,0,0,8.42.83l.75-.13v7.46l14.44-8.2v-7.48l.75-.71a55.36,55.36,0,0,0,8.42-10.39l.62-.95,5.86.48,7.18-18.17-6.12-.51.13-.93a36.47,36.47,0,0,0,.36-4.9,25.77,25.77,0,0,0-.55-5.47l-.16-.79,6.34-7.72-7.23-10-6.6,8-.62-.21a14.55,14.55,0,0,0-7.68-.54l-.75.14V241l-14.44,8.2v8.71l-.75.71A53.89,53.89,0,0,0,189.43,267.9Zm-.82-2a59.9,59.9,0,0,1,7-8.46v-6.94a4.78,4.78,0,0,1,2.22-3.75l14.44-8.19c1.25-.7,2.22-.14,2.22,1.25v6.94a15.77,15.77,0,0,1,7,.49l5.27-6.41c1.06-1.3,2.42-1.66,3-.81l7.22,10c.62.85.25,2.58-.82,3.87l-4.94,6a29.7,29.7,0,0,1,.43,5.16,37.56,37.56,0,0,1-.27,4.37l4.78.4c1.07.09,1.43,1.41.82,3L229.86,291c-.63,1.54-2,2.72-3,2.64l-4.47-.38a60,60,0,0,1-7.83,9.65v5.69a4.78,4.78,0,0,1-2.22,3.75l-14.44,8.19c-1.25.69-2.22.14-2.22-1.25v-5.69a15.6,15.6,0,0,1-7.84-.76l-4.47,5.44c-1.06,1.29-2.42,1.65-3,.8l-7.21-10c-.63-.85-.25-2.59.81-3.88l4.78-5.82a29.85,29.85,0,0,1-.26-4.11,37.81,37.81,0,0,1,.43-5.63l-5-.41c-1.06-.09-1.43-1.41-.81-3l7.21-18.17c.63-1.54,2-2.73,3-2.64Zm17,29c-7.68,4.38-13.89.88-13.89-7.76s6.21-19.16,13.89-23.51,13.88-.88,13.88,7.76-6.22,19.16-13.88,23.51Zm0-2.5c6.44-3.66,11.66-12.51,11.66-19.75s-5.22-10.17-11.66-6.52-11.67,12.51-11.67,19.75,5.22,10.18,11.67,6.52Z"/>
    </g>
  </g>
</svg>