<svg id="el_zWEiv6BWY" data-name="Layer 1" xmlns="http://www.w3.org/2000/svg" xmlns:xlink="http://www.w3.org/1999/xlink" viewBox="0 0 600 521"><style>@-webkit-keyframes kf_el_q5cE5j4I1BB_an_oCTqT-aou{6.67%{opacity: 1;}8%{opacity: 0;}11.33%{opacity: 0;}12%{opacity: 1;}39.33%{opacity: 1;}40.67%{opacity: 0;}60%{opacity: 0;}61.33%{opacity: 1;}0%{opacity: 1;}100%{opacity: 1;}}@keyframes kf_el_q5cE5j4I1BB_an_oCTqT-aou{6.67%{opacity: 1;}8%{opacity: 0;}11.33%{opacity: 0;}12%{opacity: 1;}39.33%{opacity: 1;}40.67%{opacity: 0;}60%{opacity: 0;}61.33%{opacity: 1;}0%{opacity: 1;}100%{opacity: 1;}}@-webkit-keyframes kf_el_wLo5MhxAidy_an_NUYyUDbgJ{9.33%{opacity: 1;}10.67%{opacity: 0;}16.67%{opacity: 0;}18%{opacity: 1;}24%{opacity: 1;}25.33%{opacity: 0;}36.67%{opacity: 0;}38%{opacity: 1;}65.33%{opacity: 1;}66.67%{opacity: 0;}92.67%{opacity: 0;}94%{opacity: 1;}0%{opacity: 1;}100%{opacity: 1;}}@keyframes kf_el_wLo5MhxAidy_an_NUYyUDbgJ{9.33%{opacity: 1;}10.67%{opacity: 0;}16.67%{opacity: 0;}18%{opacity: 1;}24%{opacity: 1;}25.33%{opacity: 0;}36.67%{opacity: 0;}38%{opacity: 1;}65.33%{opacity: 1;}66.67%{opacity: 0;}92.67%{opacity: 0;}94%{opacity: 1;}0%{opacity: 1;}100%{opacity: 1;}}@-webkit-keyframes kf_el_0RsLqnKEqUW_an_e3d8m8nr3{12%{opacity: 1;}13.33%{opacity: 0;}33.33%{opacity: 0;}34.67%{opacity: 1;}44%{opacity: 1;}45.33%{opacity: 0;}57.33%{opacity: 0;}58.67%{opacity: 1;}74.67%{opacity: 1;}76%{opacity: 0;}87.33%{opacity: 0;}88.67%{opacity: 1;}0%{opacity: 1;}100%{opacity: 1;}}@keyframes kf_el_0RsLqnKEqUW_an_e3d8m8nr3{12%{opacity: 1;}13.33%{opacity: 0;}33.33%{opacity: 0;}34.67%{opacity: 1;}44%{opacity: 1;}45.33%{opacity: 0;}57.33%{opacity: 0;}58.67%{opacity: 1;}74.67%{opacity: 1;}76%{opacity: 0;}87.33%{opacity: 0;}88.67%{opacity: 1;}0%{opacity: 1;}100%{opacity: 1;}}@-webkit-keyframes kf_el_KOrFxc_mG1O_an_cv56XkzTM{0%{opacity: 0;}11.33%{opacity: 0;}12.67%{opacity: 1;}22.67%{opacity: 1;}24.67%{opacity: 0;}42%{opacity: 0;}43.33%{opacity: 1;}52.67%{opacity: 1;}54%{opacity: 0;}62%{opacity: 0;}63.33%{opacity: 1;}76.67%{opacity: 1;}78%{opacity: 0;}82%{opacity: 0;}83.33%{opacity: 1;}98.67%{opacity: 1;}100%{opacity: 0;}}@keyframes kf_el_KOrFxc_mG1O_an_cv56XkzTM{0%{opacity: 0;}11.33%{opacity: 0;}12.67%{opacity: 1;}22.67%{opacity: 1;}24.67%{opacity: 0;}42%{opacity: 0;}43.33%{opacity: 1;}52.67%{opacity: 1;}54%{opacity: 0;}62%{opacity: 0;}63.33%{opacity: 1;}76.67%{opacity: 1;}78%{opacity: 0;}82%{opacity: 0;}83.33%{opacity: 1;}98.67%{opacity: 1;}100%{opacity: 0;}}@-webkit-keyframes kf_el_T6N9nOHA48A_an_uztrcI1zZ{0%{opacity: 0;}4.67%{opacity: 0;}6%{opacity: 1;}18%{opacity: 0;}20%{opacity: 1;}30%{opacity: 1;}32%{opacity: 0;}72%{opacity: 0;}73.33%{opacity: 1;}95.33%{opacity: 1;}96%{opacity: 0;}100%{opacity: 0;}}@keyframes kf_el_T6N9nOHA48A_an_uztrcI1zZ{0%{opacity: 0;}4.67%{opacity: 0;}6%{opacity: 1;}18%{opacity: 0;}20%{opacity: 1;}30%{opacity: 1;}32%{opacity: 0;}72%{opacity: 0;}73.33%{opacity: 1;}95.33%{opacity: 1;}96%{opacity: 0;}100%{opacity: 0;}}@-webkit-keyframes kf_el_E53RPHs82vY_an_fxxQsScLv{0%{opacity: 0;}1.33%{opacity: 1;}6.67%{opacity: 1;}8%{opacity: 0;}14.67%{opacity: 0;}16.67%{opacity: 1;}36.67%{opacity: 1;}38%{opacity: 0;}60%{opacity: 0;}61.33%{opacity: 1;}81.33%{opacity: 1;}82.67%{opacity: 0;}100%{opacity: 0;}}@keyframes kf_el_E53RPHs82vY_an_fxxQsScLv{0%{opacity: 0;}1.33%{opacity: 1;}6.67%{opacity: 1;}8%{opacity: 0;}14.67%{opacity: 0;}16.67%{opacity: 1;}36.67%{opacity: 1;}38%{opacity: 0;}60%{opacity: 0;}61.33%{opacity: 1;}81.33%{opacity: 1;}82.67%{opacity: 0;}100%{opacity: 0;}}@-webkit-keyframes kf_el_ADPcBzHB84U_an_vc9vdXUyt{0%{stroke-dashoffset: -163.61;}100%{stroke-dashoffset: 0;}}@keyframes kf_el_ADPcBzHB84U_an_vc9vdXUyt{0%{stroke-dashoffset: -163.61;}100%{stroke-dashoffset: 0;}}@-webkit-keyframes kf_el_ADPcBzHB84U_an_FPSwgWdmiM{0%{stroke-dasharray: 10, 4;}50%{stroke-dasharray: 163.61, 4;}100%{stroke-dasharray: 10, 4;}}@keyframes kf_el_ADPcBzHB84U_an_FPSwgWdmiM{0%{stroke-dasharray: 10, 4;}50%{stroke-dasharray: 163.61, 4;}100%{stroke-dasharray: 10, 4;}}#el_zWEiv6BWY *{-webkit-animation-duration: 5s;animation-duration: 5s;-webkit-animation-iteration-count: infinite;animation-iteration-count: infinite;-webkit-animation-timing-function: cubic-bezier(0, 0, 1, 1);animation-timing-function: cubic-bezier(0, 0, 1, 1);}#el_STp41MZQPI{fill: url(#linear-gradient);}#el_SjLmELZoBZ{fill: url(#linear-gradient-2);}#el_kv6u2lKscr{fill: url(#linear-gradient-3);}#el_YeuW3oiR3x{fill: url(#linear-gradient-4);}#el_21t2GR3h_w{fill: none;stroke: #007daa;stroke-miterlimit: 10;stroke-width: 2px;}#el_1Sa7cJ3XUk{fill: none;stroke: #007daa;stroke-miterlimit: 10;stroke-width: 2px;}#el_IzA2b3G-So{fill: none;stroke: #007daa;stroke-miterlimit: 10;stroke-width: 2px;}#el_fdSxP_RaZU{fill: none;stroke: #007daa;stroke-miterlimit: 10;stroke-width: 2px;}#el_wlo3J0E8A9{fill: none;stroke: #007daa;stroke-miterlimit: 10;stroke-width: 2px;}#el_gMUYx2s8ib{fill: #263243;fill-opacity: 0.6499999761581421;}#el_ze3obIZdhn{fill: url(#linear-gradient-5);}#el_Edx-KAEREi{fill: #007daa;}#el_Lb0J_dDkVq{fill: url(#linear-gradient-6);}#el_1O0lTGHHx1X{fill: #152132;}#el_PfQetS8FVbh{fill: #152132;}#el_ziMJLUn6pic{fill: #007daa;}#el_iyDjvGCVN0d{fill: #007daa;}#el_lYwwlKrYX5f{fill: #007daa;}#el_cjfP9hR-zc2{fill: #425674;}#el_oJl7JwQNo5B{fill: none;stroke: #263243;stroke-linecap: round;stroke-width: 2px;stroke-dasharray: 0,4;}#el_W3agrVn9uJi{fill: none;stroke: #263243;stroke-linecap: round;stroke-width: 2px;stroke-dasharray: 0,4;}#el_oTgDz8e5FnO{fill: none;stroke: #263243;stroke-linecap: round;stroke-width: 2px;stroke-dasharray: 0,4;}#el_Hn9M11runMT{fill: none;stroke: #263243;stroke-linecap: round;stroke-width: 2px;stroke-dasharray: 0,4;}#el_kFzHQoTvmMg{fill: #9c1814;}#el_T6N9nOHA48A{fill: #9c1814;-webkit-animation-fill-mode: backwards;animation-fill-mode: backwards;opacity: 0;-webkit-animation-name: kf_el_T6N9nOHA48A_an_uztrcI1zZ;animation-name: kf_el_T6N9nOHA48A_an_uztrcI1zZ;-webkit-animation-timing-function: cubic-bezier(0, 0, 1, 1);animation-timing-function: cubic-bezier(0, 0, 1, 1);}#el_I7adxg_PFTH{fill: #9c1814;}#el_eDwxGK3gX6J{fill: #9c1814;}#el_KOrFxc_mG1O{fill: #9c1814;-webkit-animation-fill-mode: backwards;animation-fill-mode: backwards;opacity: 0;-webkit-animation-name: kf_el_KOrFxc_mG1O_an_cv56XkzTM;animation-name: kf_el_KOrFxc_mG1O_an_cv56XkzTM;-webkit-animation-timing-function: cubic-bezier(0, 0, 1, 1);animation-timing-function: cubic-bezier(0, 0, 1, 1);}#el_E53RPHs82vY{fill: #9c1814;-webkit-animation-fill-mode: backwards;animation-fill-mode: backwards;opacity: 0;-webkit-animation-name: kf_el_E53RPHs82vY_an_fxxQsScLv;animation-name: kf_el_E53RPHs82vY_an_fxxQsScLv;-webkit-animation-timing-function: cubic-bezier(0, 0, 1, 1);animation-timing-function: cubic-bezier(0, 0, 1, 1);}#el_ICc1LO-TWZj{fill: #9c1814;}#el_Kb4Dt4oV4bU{fill: #9c1814;}#el_zHe9GE0nXMO{fill: #9c1814;}#el_Jus0WOhm-3Q{fill: #9c1814;}#el_kpbHDi3PHNX{fill: #9c1814;}#el_RIBQ5IQFtYG{fill: #9c1814;}#el_0RsLqnKEqUW{fill: #9c1814;-webkit-animation-fill-mode: backwards;animation-fill-mode: backwards;opacity: 1;-webkit-animation-name: kf_el_0RsLqnKEqUW_an_e3d8m8nr3;animation-name: kf_el_0RsLqnKEqUW_an_e3d8m8nr3;-webkit-animation-timing-function: cubic-bezier(0, 0, 1, 1);animation-timing-function: cubic-bezier(0, 0, 1, 1);}#el__i30SKHjAzB{fill: #9c1814;}#el_VCx55iu4MMY{fill: #9c1814;}#el_qUszwkVRvjc{fill: #9c1814;}#el_q5cE5j4I1BB{fill: #9c1814;-webkit-animation-fill-mode: backwards;animation-fill-mode: backwards;opacity: 1;-webkit-animation-name: kf_el_q5cE5j4I1BB_an_oCTqT-aou;animation-name: kf_el_q5cE5j4I1BB_an_oCTqT-aou;-webkit-animation-timing-function: cubic-bezier(0, 0, 1, 1);animation-timing-function: cubic-bezier(0, 0, 1, 1);}#el_Un0hI66oDef{fill: #9c1814;}#el_mbKP7-tAfAE{fill: #9c1814;}#el_wvQXFWScH4e{fill: #9c1814;}#el_-M_QV7T_WT2{fill: #9c1814;}#el_hpIIird1wOm{fill: #9c1814;}#el_WvStg-0rtzD{fill: #9c1814;}#el_uU_chkkC96e{fill: #9c1814;}#el_07kSE97QGwu{fill: #9c1814;}#el_wLo5MhxAidy{fill: #9c1814;-webkit-animation-fill-mode: backwards;animation-fill-mode: backwards;opacity: 1;-webkit-animation-name: kf_el_wLo5MhxAidy_an_NUYyUDbgJ;animation-name: kf_el_wLo5MhxAidy_an_NUYyUDbgJ;-webkit-animation-timing-function: cubic-bezier(0, 0, 1, 1);animation-timing-function: cubic-bezier(0, 0, 1, 1);}#el_kNJw9aeOMnK{fill: #9c1814;}#el_Di2_MSYAuoc{fill: #9c1814;}#el_JJf9Hvwlab3{fill: #9c1814;}#el_o84dfeFjYeS{fill: #9c1814;}#el_VwBUybNLHvO{fill: #9c1814;}#el_YQF1A8u46Sk{fill: #9c1814;}#el_LWrIWCK6kGM{fill: #9c1814;}#el_LDYL2JZvfO0{fill: #9c1814;}#el_EJEaRztYck0{fill: #9c1814;}#el_4mEjWlnzQrW{fill: #263243;}#el_mh72UJanewq{fill: #263243;}#el_-J7AW7EAX7T{fill: #263243;}#el_JWKJmRZXw5O{fill: #152132;}#el_FFav_97CCyJ{fill: #263243;}#el_N5HU3cn5L8-{fill: #546f94;}#el_VI-fG2VoW0V{fill: none;stroke: #9c1814;stroke-linecap: round;stroke-width: 2px;}#el_FpTQT70D9gD{fill: none;stroke: #263243;stroke-linecap: round;stroke-width: 2px;stroke-dasharray: 0,4;}#el_AKo4jPx8HSo{fill: none;stroke: #263243;stroke-linecap: round;stroke-width: 2px;stroke-dasharray: 0,4;}#el_rpcUCtPHNIK{fill: none;stroke: #263243;stroke-linecap: round;stroke-width: 2px;stroke-dasharray: 0,4;}#el_T8CcW47c8bc{fill: none;stroke: #263243;stroke-linecap: round;stroke-width: 2px;stroke-dasharray: 0,4;}#el_F32r_ILcJjx{fill: none;stroke: #263243;stroke-linecap: round;stroke-width: 2px;stroke-dasharray: 0,4;}#el_EbyB8evRNl0{fill: none;stroke: #263243;stroke-linecap: round;stroke-width: 2px;stroke-dasharray: 0,4;}#el_8LLE1P78eQD{fill: #495565;opacity: 0.3499999940395355;isolation: isolate;}#el_XnhPVRbwIuR{fill: #182330;opacity: 0.15000000596046448;isolation: isolate;}#el_yHnT789iRwu{fill: #82a3c4;}#el_3AdAncypSsH{fill: #82a3c4;}#el_SYLVALqb4B-{fill: #82a3c4;}#el_LUlu0_Z19G2{fill: #82a3c4;}#el_E-CeqYOexev{fill: #82a3c4;}#el_8NQTLLvJ-IN{fill: #82a3c4;}#el_NFRbkNZQr4N{fill: #82a3c4;}#el_D8dxCK4FH3M{fill: #82a3c4;}#el_kw6H8SoMVFY{fill: #82a3c4;}#el_0lxegsSZmFl{fill: #367a84;}#el_uWJeXChGAtv{fill: #111;}#el_xiQ_YGla8p-{fill: #e0221c;}#el_ADPcBzHB84U{fill: none;stroke: #e0221c;stroke-width: 3px;-webkit-animation-fill-mode: backwards, backwards;animation-fill-mode: backwards, backwards;-webkit-animation-name: kf_el_ADPcBzHB84U_an_FPSwgWdmiM, kf_el_ADPcBzHB84U_an_vc9vdXUyt;animation-name: kf_el_ADPcBzHB84U_an_FPSwgWdmiM, kf_el_ADPcBzHB84U_an_vc9vdXUyt;-webkit-animation-timing-function: cubic-bezier(0.42, 0, 0.58, 1), cubic-bezier(0, 0, 1, 1);animation-timing-function: cubic-bezier(0.42, 0, 0.58, 1), cubic-bezier(0, 0, 1, 1);stroke-dasharray: 10, 4;stroke-dashoffset: -163.61;}#el_dY5B3e3rCxb{fill: #e0221c;fill-rule: evenodd;}#el_ADPcBzHB84U_an__erYwOeci{-webkit-transform: translate(379.5400085449219px, 279.52000427246094px) rotate(720deg) translate(-379.5400085449219px, -279.52000427246094px);transform: translate(379.5400085449219px, 279.52000427246094px) rotate(720deg) translate(-379.5400085449219px, -279.52000427246094px);}#el_YeuW3oiR3x_an_pIorA_1W7{-webkit-transform: translate(488.0050048828125px, 349.0399932861328px) scale(1, 0.5) translate(-488.0050048828125px, -349.0399932861328px);transform: translate(488.0050048828125px, 349.0399932861328px) scale(1, 0.5) translate(-488.0050048828125px, -349.0399932861328px);}</style>
  <defs>
    <linearGradient id="linear-gradient" x1="367.78" y1="223.18" x2="604" y2="223.18" gradientTransform="matrix(1, 0, 0, -1, 0, 524)" gradientUnits="userSpaceOnUse">
      <stop offset="0.17" stop-color="#007daa"/>
      <stop offset="0.7" stop-color="#007daa" stop-opacity="0"/>
    </linearGradient>
    <linearGradient id="linear-gradient-2" x1="371.51" y1="205.1" x2="604" y2="205.1" gradientTransform="matrix(1, 0, 0, -1, 0, 524)" gradientUnits="userSpaceOnUse">
      <stop offset="0.17" stop-color="#c5d647"/>
      <stop offset="0.7" stop-color="#c5d647" stop-opacity="0"/>
    </linearGradient>
    <linearGradient id="linear-gradient-3" x1="369.77" y1="191.61" x2="604" y2="191.61" gradientTransform="matrix(1, 0, 0, -1, 0, 524)" gradientUnits="userSpaceOnUse">
      <stop offset="0.17" stop-color="#aa468e"/>
      <stop offset="0.68" stop-color="#aa468e" stop-opacity="0"/>
      <stop offset="0.7" stop-color="#aa468e" stop-opacity="0"/>
    </linearGradient>
    <linearGradient id="linear-gradient-4" x1="372.01" y1="174.96" x2="604" y2="174.96" gradientTransform="matrix(1, 0, 0, -1, 0, 524)" gradientUnits="userSpaceOnUse">
      <stop offset="0.17" stop-color="#f28c33"/>
      <stop offset="0.7" stop-color="#f28c33" stop-opacity="0"/>
    </linearGradient>
    <linearGradient id="linear-gradient-5" x1="291.74" y1="268.12" x2="432.44" y2="523.8" gradientTransform="translate(0 -75.99)" gradientUnits="userSpaceOnUse">
      <stop offset="0" stop-color="#007daa"/>
      <stop offset="1" stop-color="#0bf"/>
    </linearGradient>
    <linearGradient id="linear-gradient-6" x1="218.77" y1="176.47" x2="417.2" y2="299.53" gradientTransform="translate(0 -75.99)" gradientUnits="userSpaceOnUse">
      <stop offset="0.2" stop-color="#007daa"/>
      <stop offset="0.74" stop-color="#0bf"/>
    </linearGradient>
  </defs>
  <title>server-with-trail-clean</title>
  <polygon id="el_STp41MZQPI" points="604 225 367.78 360.17 377.23 376.65 604 246.9 604 225"/>
  <polygon id="el_SjLmELZoBZ" data-name="tail" points="604 250.65 371.51 383.67 373.5 387.14 604 255.26 604 250.65"/>
  <polygon id="el_kv6u2lKscr" data-name="tail" points="604 260.61 369.77 394.64 375.24 404.18 604 273.29 604 260.61"/>
  <polygon id="el_YeuW3oiR3x" data-name="tail" points="604 281.8 372.01 414.54 373 416.28 604 284.11 604 281.8"/>
  <path id="el_21t2GR3h_w" d="M187.13,413,23.71,317.14"/>
  <path id="el_1Sa7cJ3XUk" data-name="bg-path" d="M187.13,156.89,1.5,48.31"/>
  <path id="el_IzA2b3G-So" data-name="bg-path" d="M311.1,86.61,164.17.86"/>
  <polyline id="el_fdSxP_RaZU" data-name="bg-path" points="83.73 130.59 83.73 97.08 231.81 17.82"/>
  <polyline id="el_wlo3J0E8A9" data-name="bg-path" points="99.44 360.55 99.44 104.24 224.25 37.04"/>
  <g id="el_qjilEfVoib">
    <polygon id="el_gMUYx2s8ib" points="420.04 451.76 309.77 386.96 186.54 458.03 297.9 521.9 420.04 451.76"/>
    <polygon points="420.04 149.76 309.77 84.96 186.54 156.03 297.9 219.9 297.9 478.84 420.04 407.71 420.04 149.76" id="el_ze3obIZdhn"/>
    <polygon points="186.54 155.96 298.69 220.1 298.69 479.04 186.54 413.9 186.54 155.96" id="el_Edx-KAEREi"/>
    <polygon points="195.56 176.61 285.55 226.96 285.55 453.76 196.54 402.15 195.56 176.61" id="el_CS_iHHuZNA"/>
    <polygon points="420.04 149.76 309.77 84.96 186.54 156.03 297.9 219.9 420.04 149.76" id="el_Lb0J_dDkVq"/>
  </g>
  <g id="el_nrWA5LPiVBt">
    <polygon points="197.54 202.96 282.55 252.37 282.55 306.37 197.54 256.96 197.54 202.96" id="el_1O0lTGHHx1X"/>
    <polygon points="197.54 302.96 282.55 352.37 282.55 406.37 197.54 356.96 197.54 302.96" id="el_PfQetS8FVbh"/>
    <polygon points="197.54 258.96 282.55 308.37 282.55 328.37 197.54 278.96 197.54 258.96" id="el_ziMJLUn6pic"/>
    <polygon points="197.54 358.96 282.55 408.37 282.55 428.37 197.54 378.96 197.54 358.96" id="el_iyDjvGCVN0d"/>
    <polygon points="197.54 380.96 282.55 430.37 282.55 450.37 197.54 400.96 197.54 380.96" id="el_lYwwlKrYX5f"/>
    <polygon points="197.54 280.96 282.55 330.37 282.55 350.37 197.54 300.96 197.54 280.96" id="el_cjfP9hR-zc2"/>
    <path id="el_oJl7JwQNo5B" d="M200.54,365l34.12,19.81"/>
    <path d="M200.54,369l34.12,19.81" id="el_W3agrVn9uJi"/>
    <path d="M200.54,373l34.12,19.81" id="el_oTgDz8e5FnO"/>
    <path d="M200.54,377l34.12,19.81" id="el_Hn9M11runMT"/>
    <g id="el_YZU3klsUQyL">
      <path id="el_kFzHQoTvmMg" d="M272.46,295.36a1.5,1.5,0,0,1-.54-2.05h0a1.5,1.5,0,0,1,2.05-.54h0a1.5,1.5,0,0,1,.54,2.05h0a1.5,1.5,0,0,1-1.3.75h0A1.5,1.5,0,0,1,272.46,295.36Z"/>
      <path id="el_T6N9nOHA48A" data-name="dot" d="M265.54,291.35a1.5,1.5,0,0,1-.54-2.05h0a1.5,1.5,0,0,1,2.05-.55h0a1.49,1.49,0,0,1,.54,2.05h0a1.5,1.5,0,0,1-1.3.75h0A1.59,1.59,0,0,1,265.54,291.35Z"/>
      <path id="el_I7adxg_PFTH" data-name="dot" d="M258.62,287.33a1.5,1.5,0,0,1-.54-2.05h0a1.5,1.5,0,0,1,2.05-.55h0a1.5,1.5,0,0,1,.54,2.06h0a1.48,1.48,0,0,1-1.29.74h0A1.49,1.49,0,0,1,258.62,287.33Z"/>
      <path id="el_eDwxGK3gX6J" data-name="dot" d="M251.71,283.31a1.5,1.5,0,0,1-.55-2.05h0a1.5,1.5,0,0,1,2.05-.54h0a1.5,1.5,0,0,1,.55,2h0a1.5,1.5,0,0,1-1.3.75h0A1.44,1.44,0,0,1,251.71,283.31Z"/>
      <path id="el_KOrFxc_mG1O" data-name="dot" d="M244.79,279.3a1.51,1.51,0,0,1-.55-2.05h0a1.51,1.51,0,0,1,2-.55h0a1.51,1.51,0,0,1,.55,2.05h0a1.51,1.51,0,0,1-1.3.75h0A1.43,1.43,0,0,1,244.79,279.3Z"/>
      <path id="el_E53RPHs82vY" data-name="dot" d="M272.46,289.36a1.49,1.49,0,0,1-.54-2.05h0a1.5,1.5,0,0,1,2.05-.54h0a1.5,1.5,0,0,1,.54,2.05h0a1.5,1.5,0,0,1-1.3.75h0A1.5,1.5,0,0,1,272.46,289.36Z"/>
      <path id="el_ICc1LO-TWZj" data-name="dot" d="M265.54,285.35a1.5,1.5,0,0,1-.54-2.05h0a1.5,1.5,0,0,1,2.05-.55h0a1.49,1.49,0,0,1,.54,2.05h0a1.5,1.5,0,0,1-1.3.75h0A1.59,1.59,0,0,1,265.54,285.35Z"/>
      <path id="el_Kb4Dt4oV4bU" data-name="dot" d="M258.62,281.33a1.5,1.5,0,0,1-.54-2.05h0a1.5,1.5,0,0,1,2.05-.55h0a1.5,1.5,0,0,1,.54,2.06h0a1.48,1.48,0,0,1-1.29.74h0A1.49,1.49,0,0,1,258.62,281.33Z"/>
      <path id="el_zHe9GE0nXMO" data-name="dot" d="M251.71,277.31a1.5,1.5,0,0,1-.55-2.05h0a1.5,1.5,0,0,1,2.05-.54h0a1.5,1.5,0,0,1,.55,2h0a1.51,1.51,0,0,1-1.3.75h0A1.44,1.44,0,0,1,251.71,277.31Z"/>
      <path id="el_Jus0WOhm-3Q" data-name="dot" d="M244.79,273.3a1.51,1.51,0,0,1-.55-2.05h0a1.51,1.51,0,0,1,2-.55h0a1.51,1.51,0,0,1,.55,2.05h0a1.51,1.51,0,0,1-1.3.75h0A1.53,1.53,0,0,1,244.79,273.3Z"/>
      <path id="el_kpbHDi3PHNX" data-name="dot" d="M272.46,283.36a1.5,1.5,0,0,1-.54-2.05h0a1.5,1.5,0,0,1,2.05-.54h0a1.5,1.5,0,0,1,.54,2.05h0a1.5,1.5,0,0,1-1.3.75h0A1.5,1.5,0,0,1,272.46,283.36Z"/>
      <path id="el_RIBQ5IQFtYG" data-name="dot" d="M265.54,279.35a1.5,1.5,0,0,1-.54-2.05h0a1.5,1.5,0,0,1,2.05-.55h0a1.5,1.5,0,0,1,.54,2.05h0a1.5,1.5,0,0,1-1.3.75h0A1.59,1.59,0,0,1,265.54,279.35Z"/>
      <path id="el_0RsLqnKEqUW" data-name="dot" d="M258.62,275.33a1.5,1.5,0,0,1-.54-2.05h0a1.5,1.5,0,0,1,2.05-.55h0a1.5,1.5,0,0,1,.54,2.06h0a1.48,1.48,0,0,1-1.3.74h0A1.48,1.48,0,0,1,258.62,275.33Z"/>
      <path id="el__i30SKHjAzB" data-name="dot" d="M251.71,271.31a1.5,1.5,0,0,1-.55-2.05h0a1.5,1.5,0,0,1,2.05-.54h0a1.5,1.5,0,0,1,.55,2h0a1.51,1.51,0,0,1-1.3.75h0A1.44,1.44,0,0,1,251.71,271.31Z"/>
      <path id="el_VCx55iu4MMY" data-name="dot" d="M244.79,267.3a1.51,1.51,0,0,1-.55-2.05h0a1.51,1.51,0,0,1,2-.55h0a1.51,1.51,0,0,1,.55,2.05h0a1.5,1.5,0,0,1-1.3.75h0A1.43,1.43,0,0,1,244.79,267.3Z"/>
      <path id="el_qUszwkVRvjc" data-name="dot" d="M272.46,277.36a1.49,1.49,0,0,1-.54-2.05h0a1.5,1.5,0,0,1,2.05-.54h0a1.5,1.5,0,0,1,.54,2.05h0a1.5,1.5,0,0,1-1.3.75h0A1.5,1.5,0,0,1,272.46,277.36Z"/>
      <path id="el_q5cE5j4I1BB" data-name="dot" d="M265.54,273.35a1.5,1.5,0,0,1-.54-2.05h0a1.5,1.5,0,0,1,2.05-.55h0a1.49,1.49,0,0,1,.54,2.05h0a1.5,1.5,0,0,1-1.3.75h0A1.59,1.59,0,0,1,265.54,273.35Z"/>
      <path id="el_Un0hI66oDef" data-name="dot" d="M258.62,269.33a1.5,1.5,0,0,1-.54-2.05h0a1.5,1.5,0,0,1,2.05-.55h0a1.5,1.5,0,0,1,.54,2.06h0a1.48,1.48,0,0,1-1.3.74h0A1.48,1.48,0,0,1,258.62,269.33Z"/>
      <path id="el_mbKP7-tAfAE" data-name="dot" d="M251.71,265.31a1.5,1.5,0,0,1-.55-2.05h0a1.5,1.5,0,0,1,2.05-.54h0a1.5,1.5,0,0,1,.55,2h0a1.51,1.51,0,0,1-1.3.75h0A1.44,1.44,0,0,1,251.71,265.31Z"/>
      <path id="el_wvQXFWScH4e" data-name="dot" d="M244.79,261.3a1.51,1.51,0,0,1-.55-2.05h0a1.51,1.51,0,0,1,2-.55h0a1.51,1.51,0,0,1,.55,2.05h0a1.5,1.5,0,0,1-1.3.75h0A1.53,1.53,0,0,1,244.79,261.3Z"/>
      <path id="el_-M_QV7T_WT2" data-name="dot" d="M272.46,270.36a1.49,1.49,0,0,1-.54-2.05h0a1.5,1.5,0,0,1,2.05-.54h0a1.5,1.5,0,0,1,.54,2.05h0a1.5,1.5,0,0,1-1.3.75h0A1.5,1.5,0,0,1,272.46,270.36Z"/>
      <path id="el_hpIIird1wOm" data-name="dot" d="M265.54,266.35a1.5,1.5,0,0,1-.54-2.05h0a1.5,1.5,0,0,1,2.05-.55h0a1.49,1.49,0,0,1,.54,2.05h0a1.5,1.5,0,0,1-1.3.75h0A1.59,1.59,0,0,1,265.54,266.35Z"/>
      <path id="el_WvStg-0rtzD" data-name="dot" d="M258.62,262.33a1.5,1.5,0,0,1-.54-2.05h0a1.49,1.49,0,0,1,2.05-.54h0a1.49,1.49,0,0,1,.54,2.05h0a1.48,1.48,0,0,1-1.29.74h0A1.49,1.49,0,0,1,258.62,262.33Z"/>
      <path id="el_uU_chkkC96e" data-name="dot" d="M251.71,258.31a1.49,1.49,0,0,1-.55-2.05h0a1.5,1.5,0,0,1,2.05-.54h0a1.5,1.5,0,0,1,.55,2h0a1.51,1.51,0,0,1-1.3.75h0A1.44,1.44,0,0,1,251.71,258.31Z"/>
      <path id="el_07kSE97QGwu" data-name="dot" d="M244.79,254.3a1.51,1.51,0,0,1-.55-2.05h0a1.51,1.51,0,0,1,2-.55h0a1.51,1.51,0,0,1,.55,2.05h0a1.5,1.5,0,0,1-1.3.75h0A1.53,1.53,0,0,1,244.79,254.3Z"/>
      <path id="el_wLo5MhxAidy" data-name="dot" d="M272.46,263.36a1.5,1.5,0,0,1-.54-2.05h0a1.5,1.5,0,0,1,2.05-.54h0a1.5,1.5,0,0,1,.54,2.05h0a1.5,1.5,0,0,1-1.3.75h0A1.5,1.5,0,0,1,272.46,263.36Z"/>
      <path id="el_kNJw9aeOMnK" data-name="dot" d="M265.54,259.35a1.5,1.5,0,0,1-.54-2.05h0a1.5,1.5,0,0,1,2.05-.55h0a1.49,1.49,0,0,1,.54,2.05h0a1.5,1.5,0,0,1-1.3.75h0A1.59,1.59,0,0,1,265.54,259.35Z"/>
      <path id="el_Di2_MSYAuoc" data-name="dot" d="M258.62,255.33a1.5,1.5,0,0,1-.54-2.05h0a1.49,1.49,0,0,1,2.05-.54h0a1.49,1.49,0,0,1,.54,2h0a1.48,1.48,0,0,1-1.29.74h0A1.49,1.49,0,0,1,258.62,255.33Z"/>
      <path id="el_JJf9Hvwlab3" data-name="dot" d="M251.71,251.31a1.5,1.5,0,0,1-.55-2.05h0a1.5,1.5,0,0,1,2.05-.54h0a1.5,1.5,0,0,1,.55,2.05h0a1.51,1.51,0,0,1-1.3.75h0A1.44,1.44,0,0,1,251.71,251.31Z"/>
      <path id="el_o84dfeFjYeS" data-name="dot" d="M244.79,247.3a1.51,1.51,0,0,1-.55-2.05h0a1.51,1.51,0,0,1,2-.55h0a1.51,1.51,0,0,1,.55,2.05h0a1.5,1.5,0,0,1-1.3.75h0A1.43,1.43,0,0,1,244.79,247.3Z"/>
      <path id="el_VwBUybNLHvO" data-name="dot" d="M272.46,257.36a1.49,1.49,0,0,1-.54-2.05h0a1.5,1.5,0,0,1,2.05-.54h0a1.5,1.5,0,0,1,.54,2h0a1.5,1.5,0,0,1-1.3.75h0A1.5,1.5,0,0,1,272.46,257.36Z"/>
      <path id="el_YQF1A8u46Sk" data-name="dot" d="M265.54,253.35a1.49,1.49,0,0,1-.54-2h0a1.5,1.5,0,0,1,2.05-.55h0a1.49,1.49,0,0,1,.54,2.05h0a1.5,1.5,0,0,1-1.3.75h0A1.59,1.59,0,0,1,265.54,253.35Z"/>
      <path id="el_LWrIWCK6kGM" data-name="dot" d="M258.62,249.33a1.5,1.5,0,0,1-.54-2.05h0a1.49,1.49,0,0,1,2.05-.54h0a1.49,1.49,0,0,1,.54,2h0a1.48,1.48,0,0,1-1.29.74h0A1.49,1.49,0,0,1,258.62,249.33Z"/>
      <path id="el_LDYL2JZvfO0" data-name="dot" d="M251.7,245.31a1.5,1.5,0,0,1-.54-2.05h0a1.5,1.5,0,0,1,2.05-.54h0a1.49,1.49,0,0,1,.54,2.05h0a1.49,1.49,0,0,1-1.29.75h0A1.5,1.5,0,0,1,251.7,245.31Z"/>
      <path id="el_EJEaRztYck0" data-name="dot" d="M244.79,241.3a1.51,1.51,0,0,1-.55-2.05h0a1.51,1.51,0,0,1,2-.55h0a1.51,1.51,0,0,1,.55,2.05h0a1.5,1.5,0,0,1-1.3.75h0A1.43,1.43,0,0,1,244.79,241.3Z"/>
    </g>
    <polygon points="200.54 307.96 209.04 312.83 209.04 360.73 200.54 355.54 200.54 307.96" id="el_4mEjWlnzQrW"/>
    <polygon points="210.54 313.96 219.04 318.83 219.04 366.73 210.54 361.54 210.54 313.96" id="el_mh72UJanewq"/>
    <polygon points="270.55 348.96 279.05 353.83 279.05 401.73 270.55 396.54 270.55 348.96" id="el_-J7AW7EAX7T"/>
    <g id="el_8wzsyy7HV-S">
      <polygon points="282.95 229.27 282.95 250.47 177.56 310.06 92.55 260.03 92.55 237.94 282.95 229.27" id="el_JWKJmRZXw5O"/>
      <path id="el_FFav_97CCyJ" d="M177.54,310.05v-76l105-4.8v21.2L177.54,310Z"/>
      <polygon points="195.66 178.7 283.04 229.21 177.63 288.79 92.63 238.77 195.66 178.7" id="el_N5HU3cn5L8-"/>
      <polyline id="el_VI-fG2VoW0V" points="170.1 297.96 170.1 284.29 176.47 279.86"/>
      <path d="M131.54,267l34.12,19.81" id="el_FpTQT70D9gD"/>
      <path d="M131.54,271l34.12,19.81" id="el_AKo4jPx8HSo"/>
      <path d="M131.54,275l34.12,19.81" id="el_rpcUCtPHNIK"/>
      <path d="M97.54,255l11,6.68" id="el_T8CcW47c8bc"/>
      <path d="M97.54,251l11,6.68" id="el_F32r_ILcJjx"/>
      <path d="M97.54,247l11,6.68" id="el_EbyB8evRNl0"/>
    </g>
    <g id="el_0vIuZ2mO2GK" data-name="Layer 2-2">
      <g id="el__2cRd7MWiMk" data-name="Layer 1-2-3">
        <path d="M176.89,243.78c-5.62-3.31-6.72-9.3-2.46-13.37s12.3-4.69,17.92-1.37,6.73,9.3,2.46,13.38h0C190.53,246.48,182.52,247.09,176.89,243.78ZM191.34,230c-4.88-2.87-11.84-2.35-15.54,1.18s-2.76,8.73,2.12,11.6,11.83,2.36,15.54-1.17S196.21,232.9,191.34,230Z" id="el_8LLE1P78eQD"/>
        <path d="M176.89,243.78a.56.56,0,0,1-.38-.68.78.78,0,0,1,.11-.2,1,1,0,0,1,1.18-.17l.12.07c4.88,2.88,11.83,2.36,15.54-1.17s2.75-8.73-2.12-11.61a.56.56,0,0,1-.38-.68.78.78,0,0,1,.11-.2,1,1,0,0,1,1.17-.17l.12.08c5.63,3.31,6.72,9.3,2.45,13.37S182.52,247.1,176.89,243.78Z" id="el_XnhPVRbwIuR"/>
        <path d="M203,251.46c-2-1.18-2.37-3.29-.86-4.73a5.55,5.55,0,0,1,6.33-.48c2,1.17,2.38,3.29.87,4.73h0A5.62,5.62,0,0,1,203,251.46Zm4.45-4.23a3.45,3.45,0,0,0-3.95.3,1.77,1.77,0,0,0-.07,2.52,1.85,1.85,0,0,0,.61.42,3.47,3.47,0,0,0,3.94-.3,1.77,1.77,0,0,0,.1-2.5A1.75,1.75,0,0,0,207.45,247.23Z" id="el_yHnT789iRwu"/>
        <path d="M157.19,227c-3.2-1.89-3.82-5.29-1.39-7.61s7-2.66,10.19-.77,3.82,5.29,1.39,7.61S160.39,228.9,157.19,227Zm7.77-7.4a6.87,6.87,0,0,0-7.81.6c-1.86,1.77-1.38,4.39,1.08,5.83s6,1.18,7.81-.6,1.38-4.38-1-5.82Z" id="el_3AdAncypSsH"/>
        <path d="M173.23,230.48l-7-4.15a.51.51,0,0,1-.06-.89,1.07,1.07,0,0,1,1.08-.09l7,4.15a.53.53,0,0,1,.22.72.55.55,0,0,1-.16.18A1.07,1.07,0,0,1,173.23,230.48Z" id="el_SYLVALqb4B-"/>
        <path d="M202,247.48l-7-4.17a.54.54,0,0,1-.2-.72.5.5,0,0,1,.15-.17,1.07,1.07,0,0,1,1.08-.08l7.06,4.16a.53.53,0,0,1,.21.72.55.55,0,0,1-.16.18A1.09,1.09,0,0,1,202,247.48Z" id="el_LUlu0_Z19G2"/>
        <path d="M207.31,236.89c-2-1.18-2.32-3.3-.8-4.72a5.59,5.59,0,0,1,6.32-.44c2,1.19,2.33,3.3.81,4.72a4.87,4.87,0,0,1-3,1.2A5.79,5.79,0,0,1,207.31,236.89Zm4.44-4.23a3.46,3.46,0,0,0-3.94.31,1.79,1.79,0,0,0-.06,2.53,1.85,1.85,0,0,0,.61.42,3.64,3.64,0,0,0,2.07.45,3,3,0,0,0,1.89-.74,1.77,1.77,0,0,0,.07-2.52,1.85,1.85,0,0,0-.61-.42Z" id="el_E-CeqYOexev"/>
        <path d="M197.59,235.68a.64.64,0,0,1-.32-.43c-.06-.34.26-.65.72-.69h0l8-.6a.86.86,0,0,1,.95.56c.06.35-.26.66-.72.69h0l-8,.61A1.07,1.07,0,0,1,197.59,235.68Z" id="el_8NQTLLvJ-IN"/>
        <path d="M185.09,258.06c-2-1.18-2.37-3.29-.86-4.73a5.55,5.55,0,0,1,6.33-.48c2,1.17,2.38,3.29.87,4.73a4.83,4.83,0,0,1-3,1.22A5.89,5.89,0,0,1,185.09,258.06Zm4.44-4.23a3.49,3.49,0,0,0-3.95.3,1.79,1.79,0,0,0-.06,2.53,1.85,1.85,0,0,0,.61.42,3.47,3.47,0,0,0,3.94-.3,1.72,1.72,0,0,0,.55-1.54,2.13,2.13,0,0,0-1.07-1.43Z" id="el_NFRbkNZQr4N"/>
        <path d="M186.79,253a.65.65,0,0,1-.33-.43l-1.08-5.95c-.07-.34.25-.65.72-.69h0a.85.85,0,0,1,1,.54h0l1.09,5.95a.71.71,0,0,1-.77.65,1,1,0,0,1-.56-.12Z" id="el_D8dxCK4FH3M"/>
        <path d="M176.34,244.31c-6-3.56-7.2-10-2.63-14.34s13.18-5,19.21-1.45,7.2,10,2.62,14.33S182.37,247.86,176.34,244.31Zm15.55-14.81c-5.27-3.13-12.8-2.58-16.83,1.24s-3,9.43,2.25,12.56,12.8,2.57,16.83-1.24h0C198.15,238.2,197.13,232.61,191.89,229.5Z" id="el_kw6H8SoMVFY"/>
      </g>
    </g>
  </g>
  <g id="el_E13iSAAxzoq">
    <g id="el_2rmXx8oXyq5">
      <polygon points="310.55 266.96 430.55 195.96 430.55 284.96 310.55 355.96 310.55 266.96" id="el_0lxegsSZmFl"/>
      <polygon points="315.56 256.96 317.55 257.96 317.55 358.96 315.81 357.96 315.56 256.96" id="el_gvD62bVEAww"/>
      <path d="M317.54,258l-2-1,120-71,2,1V288l-120,71Z" id="el_uWJeXChGAtv"/>
    </g>
    <polygon id="el_xiQ_YGla8p-" points="318.55 258.96 436.55 189.96 436.55 204.96 318.55 273.96 318.55 258.96"/>
    <path id="el_ADPcBzHB84U" d="M379.54,305.91c12.71-7.34,23-25.11,23-39.68s-10.29-20.44-23-13.1-23,25.11-23,39.68S366.84,313.25,379.54,305.91Z"/>
    <path id="el_dY5B3e3rCxb" d="M369.92,293.54l-1.65,1V283.92c0-.89,0-1.74.08-2.56l-.48.74-2.43,3.47-.9-.62,3.95-5.45,1.43-.88Zm12.42-15.05a15.49,15.49,0,0,1-1.22,6.51,9.33,9.33,0,0,1-3.73,4.18c-1.6,1-2.82,1.08-3.66.28s-1.25-2.44-1.25-5a15.68,15.68,0,0,1,1.21-6.52,9.47,9.47,0,0,1,3.7-4.15c1.62-1,2.85-1.08,3.69-.28s1.26,2.49,1.26,5Zm-8.15,5c0,2.16.25,3.59.76,4.27s1.33.67,2.44,0a5.67,5.67,0,0,0,2.45-3,14.23,14.23,0,0,0,.76-5.18c0-2.14-.25-3.55-.76-4.24s-1.32-.69-2.45,0a6,6,0,0,0-2.44,3,14.83,14.83,0,0,0-.76,5.12Zm19.72-12a15.5,15.5,0,0,1-1.22,6.52,9.33,9.33,0,0,1-3.73,4.18c-1.6,1-2.82,1.08-3.66.28s-1.25-2.45-1.25-5a15.73,15.73,0,0,1,1.21-6.53,9.45,9.45,0,0,1,3.7-4.14c1.62-1,2.85-1.08,3.69-.28s1.26,2.48,1.26,4.91Zm-8.15,5c0,2.17.25,3.59.76,4.27s1.33.68,2.44,0a5.79,5.79,0,0,0,2.45-3,14.23,14.23,0,0,0,.76-5.18c0-2.14-.25-3.56-.76-4.24s-1.32-.69-2.45,0a6,6,0,0,0-2.44,3,14.73,14.73,0,0,0-.76,5.06Z"/>
  </g>
</svg>