<svg width="57" height="54" viewBox="0 0 57 54" fill="none" xmlns="http://www.w3.org/2000/svg">
<path fill-rule="evenodd" clip-rule="evenodd" d="M35.4666 6.9369C35.0866 6.9369 34.7066 6.9369 34.3266 7.05084V6.36721C34.3266 4.88602 33.0599 3.74664 31.4133 3.74664C30.9066 3.74664 30.5266 3.86058 30.1466 3.97451V3.51876C30.2733 2.03757 28.8799 0.898193 27.3599 0.898193C25.7133 0.898193 24.4466 2.03757 24.4466 3.51876V3.6327C24.0666 3.51876 23.5599 3.40483 22.9266 3.40483C21.2799 3.40483 20.2666 4.43027 20.2666 5.91146L20.5199 18.5586L19.6333 16.0519L19.5066 15.938C18.8733 15.1404 17.8599 14.6847 16.8466 15.0265C15.5799 15.3683 14.9466 16.5077 15.0733 17.6471C15.1999 18.6725 15.5799 20.3816 15.9599 22.5464C16.3399 24.3694 16.5933 25.2809 16.7199 25.7366L16.9733 29.4966C16.9733 29.6105 17.0999 29.7245 17.2266 29.8384L19.8866 32.8008L21.1533 32.0032L18.6199 29.2687L18.3666 25.5088C18.3666 25.3948 18.2399 25.2809 18.2399 25.2809C17.9866 24.4833 16.9733 19.584 16.7199 17.5331C16.5933 16.8495 17.0999 16.5077 17.4799 16.3937C17.7333 16.3937 17.9866 16.3937 18.2399 16.6216L19.2533 19.6979C19.7599 22.4324 20.0133 22.6603 20.7733 22.6603C21.1533 22.6603 21.5333 22.5464 21.7866 22.3185C22.4199 21.7488 22.4199 20.4955 22.2933 20.0397L21.9133 5.79752C21.9133 4.88602 22.5466 4.77208 22.9266 4.77208C23.9399 4.77208 24.1933 4.99995 24.3199 5.91146H24.4466V16.5077C24.4466 16.8495 24.8266 17.1913 25.2066 17.1913C25.5866 17.1913 25.9666 16.8495 25.9666 16.5077V3.51876C25.9666 2.83514 26.5999 2.26545 27.3599 2.26545C28.1199 2.26545 28.7533 2.83514 28.7533 3.51876V16.5077C28.7533 16.8495 29.1333 17.1913 29.5133 17.1913C29.8933 17.1913 30.2733 16.8495 30.2733 16.5077V7.27871C30.2733 7.27871 30.2733 7.27871 30.2733 7.16477V6.36721C30.2733 5.68358 30.9066 5.11389 31.5399 5.11389C32.1733 5.11389 32.8066 5.68358 32.8066 6.36721V17.4192C32.8066 17.761 33.1866 18.1028 33.5666 18.1028C34.0733 18.1028 34.3266 17.761 34.3266 17.4192V9.32959H34.4533C34.4533 8.87384 34.7066 8.19021 35.4666 8.19021C35.9733 8.19021 36.4799 9.10172 36.4799 9.89928V17.8749L36.3533 25.5088V27.7875L35.4666 29.9523L33.5666 31.7753L34.7066 32.6868L36.7333 30.8638C36.8599 30.8638 36.8599 30.7499 36.8599 30.636L38.1266 28.2433C38.2533 28.1293 38.2533 28.1293 38.2533 28.0154L38.3799 18.6725V10.0132C37.9999 8.53203 37.1133 6.9369 35.4666 6.9369Z" fill="#0091DA"/>
<path fill-rule="evenodd" clip-rule="evenodd" d="M55.2263 21.9768C55.0997 21.9768 54.973 21.9768 54.8463 21.9768V21.8628C54.8463 20.7234 53.9597 19.8119 52.693 19.8119C52.5663 19.8119 52.313 19.8119 52.1863 19.8119C52.1863 18.7865 51.173 17.875 50.033 17.875C48.893 17.875 48.0064 18.6726 47.8797 19.5841C47.753 19.5841 47.4997 19.4701 47.2464 19.4701C46.1064 19.4701 45.3464 20.2677 45.3464 21.2931V27.7876C44.8397 27.2179 43.953 26.99 43.193 27.3318C42.3064 27.5597 41.9264 28.3573 42.053 29.2688C42.1797 29.7245 42.3064 30.5221 42.433 31.4336C42.813 33.2566 42.9397 34.1681 43.0664 34.7378V36.9026C43.0664 37.0166 43.0664 37.2444 43.193 37.3584L44.9664 39.4093L46.233 38.6117L44.5864 36.6747V34.7378C44.5864 34.6239 44.5864 34.5099 44.5864 34.5099C44.4597 34.1681 44.2064 32.459 43.953 31.2057C43.8264 30.2942 43.6997 29.4967 43.573 29.0409C43.573 28.927 43.573 28.813 43.6997 28.6991C43.8264 28.6991 43.953 28.6991 44.0797 28.6991C44.0797 28.6991 44.333 29.2688 45.3464 32.3451V32.8009C45.3464 33.1427 45.5997 33.4845 46.1064 33.4845C46.613 33.4845 46.8664 33.1427 46.8664 32.8009V30.9779L46.7397 21.521C46.7397 21.1792 46.8664 21.0653 47.1197 21.0653C47.4997 21.0653 47.6264 21.0653 47.753 21.635V28.5852C47.753 28.927 48.133 29.2688 48.513 29.2688C48.893 29.2688 49.273 28.927 49.273 28.5852V19.9259C49.273 19.5841 49.5264 19.3562 49.9064 19.3562C50.2864 19.3562 50.5397 19.5841 50.5397 19.9259V28.5852C50.5397 28.927 50.9197 29.2688 51.2997 29.2688C51.6797 29.2688 52.0597 28.927 52.0597 28.5852V22.5465V22.0907C52.0597 21.7489 52.313 21.521 52.5663 21.521C52.8197 21.521 53.073 21.7489 53.073 22.0907V29.3827C53.073 29.7245 53.453 30.0663 53.833 30.0663C54.213 30.0663 54.593 29.7245 54.593 29.3827V23.9137C54.593 23.458 54.8463 23.458 54.973 23.458C54.973 23.458 55.353 23.7998 55.353 24.3695V29.7245V34.8517V36.219L54.7197 37.4723L53.5797 38.6117L54.7197 39.5232L55.9863 38.2699C55.9863 38.2699 56.113 38.1559 56.113 38.042L56.873 36.5608C56.873 36.4469 56.873 36.4469 56.873 36.3329V30.1803V24.3695C57.1263 23.2301 56.493 21.9768 55.2263 21.9768Z" fill="#0091DA"/>
<path fill-rule="evenodd" clip-rule="evenodd" d="M44.713 45.3341C44.4597 45.4481 44.2063 45.7901 44.333 46.018C44.4597 46.246 44.8397 46.4739 45.093 46.3599C45.3464 46.246 45.5997 45.904 45.473 45.6761C45.3464 45.4481 45.093 45.2202 44.713 45.3341Z" fill="#0091DA"/>
<path fill-rule="evenodd" clip-rule="evenodd" d="M54.7201 40.7766H44.2068C42.9401 40.7766 41.9268 41.6881 41.9268 42.7136V47.0432C41.9268 47.6129 42.3068 48.1826 42.8134 48.5244V53.3098H44.3334V48.9802H51.5534V47.6129H44.2068C43.8268 47.6129 43.5734 47.385 43.5734 47.0432V42.7136C43.5734 42.3717 43.9534 42.1439 44.2068 42.1439H54.7201C55.1001 42.1439 55.3534 42.3717 55.3534 42.7136V47.0432C55.3534 47.385 54.9734 47.6129 54.7201 47.6129H53.0734V48.9802H54.2134V53.3098H55.8601V48.7523C56.6201 48.4105 57.0001 47.8408 57.0001 47.0432V42.7136C57.0001 41.6881 55.9867 40.7766 54.7201 40.7766Z" fill="#1D428A"/>
<path fill-rule="evenodd" clip-rule="evenodd" d="M22.4199 39.6371C21.7866 39.7511 21.4066 40.0931 21.6599 40.3211C21.9133 40.5492 22.5466 40.7772 23.3066 40.6632C23.9399 40.5492 24.3199 40.2071 24.0666 39.9791C23.8133 39.7511 23.0533 39.5231 22.4199 39.6371Z" fill="#0091DA"/>
<path fill-rule="evenodd" clip-rule="evenodd" d="M36.7333 36.333C36.7333 35.0797 35.5933 33.9403 34.1999 33.9403H21.5333C20.14 33.9403 19 34.9657 19 36.333V42.0299C19 42.5996 19.2533 43.0553 19.6333 43.5111V53.3097H21.1533V44.3086C21.28 44.3086 21.4067 44.3086 21.5333 44.3086H31.4133V43.0553H21.5333C21.0267 43.0553 20.52 42.5996 20.52 42.1438V36.4469C20.52 35.9912 21.0267 35.5354 21.5333 35.5354H34.1999C34.7066 35.5354 35.2133 35.9912 35.2133 36.4469V42.1438C35.2133 42.5996 34.7066 43.0553 34.1999 43.0553H33.1866V44.4226H34.1999C34.3266 44.4226 34.4533 44.4226 34.5799 44.4226V53.3097H36.0999V43.625C36.4799 43.1692 36.8599 42.5996 36.8599 42.0299V36.333H36.7333Z" fill="#1D428A"/>
<path fill-rule="evenodd" clip-rule="evenodd" d="M2.91345 48.7522C2.66012 48.8662 2.40678 49.2082 2.53345 49.4362C2.66012 49.6642 3.04012 49.8921 3.29346 49.7782C3.54679 49.6642 3.80013 49.3222 3.67346 49.0942C3.67346 48.8662 3.29346 48.6383 2.91345 48.7522Z" fill="#0091DA"/>
<path fill-rule="evenodd" clip-rule="evenodd" d="M10.64 45.3341H2.02667C0.886667 45.3341 0 46.1317 0 47.0432V50.6891C0 51.1449 0.253333 51.7146 0.76 52.0564V53.1958H2.40667V52.5121H7.47333V51.031H2.02667C1.77333 51.031 1.64667 50.917 1.64667 50.6891V47.0432C1.64667 46.8153 1.9 46.7014 2.02667 46.7014H10.64C10.8933 46.7014 11.02 46.8153 11.02 47.0432V50.6891C11.02 50.917 10.7667 51.031 10.64 51.031H9.37333V52.3982H10.1333V53.3097H11.78V52.2843C12.4133 51.9424 12.7933 51.4867 12.7933 50.8031V47.1571C12.54 46.1317 11.6533 45.3341 10.64 45.3341Z" fill="#1D428A"/>
<path fill-rule="evenodd" clip-rule="evenodd" d="M15.8333 37.5863C14.9466 36.7887 13.5533 36.7887 12.6666 37.4723L12.0333 37.9281V36.5608V35.3075V30.2943C12.0333 29.3828 11.02 28.4713 9.87997 28.4713C9.62664 28.4713 9.49997 28.4713 9.3733 28.4713C9.11997 27.6737 8.35997 27.104 7.21998 27.104C6.07998 27.104 5.31998 27.7876 5.19332 28.6991C4.93998 28.6991 4.81332 28.6991 4.68665 28.6991C3.54666 28.6991 2.65999 29.4967 2.65999 30.5221C2.53332 30.5221 2.40666 30.5221 2.15333 30.5221C1.01333 30.5221 0.126666 31.3197 0.126666 32.3451V37.3584L0 41.9159C0 42.7135 0.633331 44.5365 1.52 45.2201L2.65999 44.1947C2.15333 43.8528 1.64666 42.4856 1.64666 41.9159L1.77333 37.3584V32.3451C1.77333 32.1173 2.02666 32.0033 2.27999 32.0033C2.53333 32.0033 2.78666 32.1173 2.78666 32.3451V37.2445C2.78666 37.5863 3.16666 37.9281 3.54666 37.9281C3.92665 37.9281 4.30665 37.5863 4.30665 37.2445V30.5221C4.30665 30.2943 4.55999 30.1803 4.81332 30.1803C5.06665 30.1803 5.31998 30.2943 5.31998 30.5221V30.9779V36.333C5.31998 36.6748 5.69998 37.0166 6.07998 37.0166C6.45998 37.0166 6.83998 36.6748 6.83998 36.333V28.8131C6.83998 28.5852 7.09331 28.4713 7.34664 28.4713C7.59998 28.4713 7.85331 28.5852 7.85331 28.8131V36.333C7.85331 36.6748 8.23331 37.0166 8.61331 37.0166C8.9933 37.0166 9.3733 36.6748 9.3733 36.333V30.0664C9.49997 29.9524 9.62664 29.8385 9.87997 29.8385C10.1333 29.8385 10.5133 30.0664 10.5133 30.1803V35.1936V36.4469V41.0044L13.8066 38.2699C14.06 38.042 14.5666 38.042 14.82 38.2699C14.9466 38.3838 15.0733 38.4978 15.0733 38.6117C15.0733 38.7256 14.9466 38.8396 14.82 38.9535L11.5266 42.5995L11.4 42.7135C11.4 42.7135 11.2733 43.0553 11.1466 43.3971L10.5133 43.9668L11.78 44.8783L12.4133 44.1947L12.54 44.0807C12.54 44.1947 12.6666 43.7389 12.6666 43.625L15.7066 40.3208C16.2133 39.979 16.3399 39.5232 16.4666 38.9535C16.3399 38.4978 16.2133 37.9281 15.8333 37.5863Z" fill="#0091DA"/>
</svg>
