<svg width="72" height="44" viewBox="0 0 72 44" fill="none" xmlns="http://www.w3.org/2000/svg">
<path fill-rule="evenodd" clip-rule="evenodd" d="M7.83428 35.6079V2.87602C7.83428 2.19126 8.44571 1.64344 9.05714 1.64344H62.4042C63.0156 1.64344 63.627 2.19126 63.627 2.87602V35.6079H65.6142V2.87602C65.6142 1.36953 64.2384 0 62.4042 0H9.20999C7.37571 0 6 1.36953 6 2.87602V35.6079H7.83428Z" fill="#1D428A"/>
<path fill-rule="evenodd" clip-rule="evenodd" d="M14.0628 35.6079V7.25843H59.3084V35.6079H61.1427V5.47803H12.2285V35.6079H14.0628Z" fill="#1D428A"/>
<path fill-rule="evenodd" clip-rule="evenodd" d="M70.3141 36.9775H45.3985L43.8699 38.2101C43.4113 38.6209 42.7999 38.7579 42.0356 38.7579C41.8828 38.7579 41.577 38.7579 41.4242 38.7579H31.3356C31.0299 38.7579 30.7242 38.7579 30.4185 38.7579C29.8071 38.7579 29.3485 38.6209 28.8899 38.2101L26.9028 36.9775H1.52857C0.611427 36.9775 0 37.6623 0 38.6209V42.3186C0 43.1403 0.611427 43.8251 1.52857 43.8251H70.3141C71.2313 43.8251 71.8427 43.1403 71.8427 42.1817V38.484C71.8427 37.6623 71.2313 36.9775 70.3141 36.9775ZM70.0084 38.7579V42.1817H1.83428V38.7579H26.1385L27.3614 39.5796C28.4314 40.5383 29.6542 40.5383 30.1128 40.5383C30.2656 40.5383 30.4185 40.5383 30.5714 40.5383C30.7242 40.5383 30.7242 40.5383 30.8771 40.5383H41.2713C41.2713 40.5383 41.4242 40.5383 41.577 40.5383C41.7299 40.5383 41.7299 40.5383 41.8828 40.5383C42.4942 40.5383 43.8699 40.5383 44.9399 39.4427L45.857 38.7579H70.0084Z" fill="#1D428A"/>
<path fill-rule="evenodd" clip-rule="evenodd" d="M35.4683 12.7239C32.4044 12.7239 29.8512 15.1831 29.8512 18.4108C29.8512 21.4848 32.4044 24.0976 35.4683 24.0976C38.5322 24.0976 41.0854 21.6385 41.0854 18.4108C41.0854 15.1831 38.5322 12.7239 35.4683 12.7239ZM35.4683 25.942C31.2129 25.942 27.8086 22.4069 27.8086 18.2571C27.8086 14.1072 31.2129 10.5721 35.4683 10.5721C39.7237 10.5721 43.128 14.1072 43.128 18.2571C43.128 22.5606 39.7237 25.942 35.4683 25.942Z" fill="#0091DA"/>
<path fill-rule="evenodd" clip-rule="evenodd" d="M49.9366 35.1641H47.894V32.2437C44.4897 29.4771 40.0641 27.9401 35.4683 27.9401C30.8725 27.9401 26.4469 29.4771 23.0426 32.2437V35.1641H21V31.4752L21.3404 31.1678C25.2554 27.7864 30.1916 25.942 35.4683 25.942C40.745 25.942 45.6812 27.7864 49.5962 31.1678L49.9366 31.4752V35.1641Z" fill="#0091DA"/>
</svg>
