<svg width="58" height="50" viewBox="0 0 58 50" fill="none" xmlns="http://www.w3.org/2000/svg">
<path fill-rule="evenodd" clip-rule="evenodd" d="M12.0119 28.1277H10.7535V30.481H8.23676C8.00796 30.2764 7.66477 30.0718 7.43597 30.0718C6.86398 30.0718 6.29199 30.481 6.29199 31.095C6.29199 31.6066 6.74958 32.1182 7.43597 32.1182C7.77917 32.1182 8.12236 32.0158 8.23676 31.7089H12.0119V28.1277Z" fill="#0091DA"/>
<path fill-rule="evenodd" clip-rule="evenodd" d="M47.4753 30.0717C47.1321 30.0717 46.7889 30.2763 46.5601 30.481H43.8146V28.1277H42.3274V31.8111H46.5601C46.7889 32.118 47.1321 32.2203 47.4753 32.2203C48.0473 32.2203 48.6193 31.7088 48.6193 31.1972C48.6193 30.5833 48.0473 30.0717 47.4753 30.0717Z" fill="#0091DA"/>
<path fill-rule="evenodd" clip-rule="evenodd" d="M28.0277 30.2763V28.1277H26.3117V30.2763C25.9685 30.481 25.7397 30.7879 25.7397 31.0949C25.7397 31.7088 26.3117 32.2203 27.2269 32.2203C28.0277 32.2203 28.5997 31.7088 28.5997 31.0949C28.4853 30.7879 28.3709 30.481 28.0277 30.2763Z" fill="#0091DA"/>
<path fill-rule="evenodd" clip-rule="evenodd" d="M1.25838 43.0659H14.2998V40.6103H1.25838V43.0659ZM15.4438 44.1914H0V39.5872H15.4438V44.1914Z" fill="#1D428A"/>
<path d="M10.8679 41.1227H10.2959V42.6581H10.8679V41.1227Z" fill="#0091DA"/>
<path d="M12.0119 41.1227H11.4399V42.6581H12.0119V41.1227Z" fill="#0091DA"/>
<path d="M13.1557 41.1227H12.5837V42.6581H13.1557V41.1227Z" fill="#0091DA"/>
<path d="M3.43185 42.3511C3.74776 42.3511 4.00385 42.1219 4.00385 41.8392C4.00385 41.5566 3.74776 41.3274 3.43185 41.3274C3.11595 41.3274 2.85986 41.5566 2.85986 41.8392C2.85986 42.1219 3.11595 42.3511 3.43185 42.3511Z" fill="#0091DA"/>
<path fill-rule="evenodd" clip-rule="evenodd" d="M1.25838 48.3865H14.2998V45.9309H1.25838V48.3865ZM15.4438 49.512H0V44.9077H15.4438V49.512Z" fill="#1D428A"/>
<path d="M10.8679 46.4432H10.2959V47.9786H10.8679V46.4432Z" fill="#0091DA"/>
<path d="M12.0119 46.4432H11.4399V47.9786H12.0119V46.4432Z" fill="#0091DA"/>
<path d="M13.1557 46.4432H12.5837V47.9786H13.1557V46.4432Z" fill="#0091DA"/>
<path d="M3.43185 47.6716C3.74776 47.6716 4.00385 47.4425 4.00385 47.1598C4.00385 46.8771 3.74776 46.6479 3.43185 46.6479C3.11595 46.6479 2.85986 46.8771 2.85986 47.1598C2.85986 47.4425 3.11595 47.6716 3.43185 47.6716Z" fill="#0091DA"/>
<path fill-rule="evenodd" clip-rule="evenodd" d="M1.25838 37.7454H14.2998V35.2899H1.25838V37.7454ZM15.4438 38.8708H0V34.2667H15.4438V38.8708Z" fill="#1D428A"/>
<path d="M10.8679 35.8022H10.2959V37.3378H10.8679V35.8022Z" fill="#0091DA"/>
<path d="M12.0119 35.8022H11.4399V37.3378H12.0119V35.8022Z" fill="#0091DA"/>
<path d="M13.1557 35.8022H12.5837V37.3378H13.1557V35.8022Z" fill="#0091DA"/>
<path d="M3.43185 37.0306C3.74776 37.0306 4.00385 36.8015 4.00385 36.5188C4.00385 36.2361 3.74776 36.007 3.43185 36.007C3.11595 36.007 2.85986 36.2361 2.85986 36.5188C2.85986 36.8015 3.11595 37.0306 3.43185 37.0306Z" fill="#0091DA"/>
<path fill-rule="evenodd" clip-rule="evenodd" d="M35.2344 0.502197C30.4297 0.502197 26.3113 3.46939 24.481 7.6644C23.2226 7.15281 21.9642 6.84586 20.477 6.74354C20.477 6.74354 20.3626 6.74354 20.2482 6.74354C15.4435 6.74354 11.554 9.81306 10.5244 14.0081C9.95239 13.9057 9.266 13.8034 8.57961 13.8034H8.46521C4.23248 13.8034 0.686128 16.9753 0.571729 20.8633C0.457331 24.8537 4.46127 28.5371 8.80841 28.6394C8.92281 28.6394 9.266 28.6394 9.72359 28.6394C14.9859 28.6394 39.8104 28.5371 45.0727 28.5371C45.5303 28.5371 45.8735 28.5371 45.9879 28.5371H46.1023C50.5638 28.5371 54.2245 24.7514 54.3389 20.0448C54.4533 15.4405 51.1358 11.5524 46.903 11.1432C46.3311 5.3111 41.5263 0.706831 35.5776 0.604514C35.4632 0.502197 35.3488 0.502197 35.2344 0.502197ZM35.2344 1.83232C35.2344 1.83232 35.3488 1.83232 35.4632 1.83232C40.6111 1.93464 44.8439 5.925 45.4159 11.1432L45.5303 12.2687L46.6742 12.371C50.2206 12.6779 52.9662 15.9521 52.8518 19.9424C52.7374 23.9328 49.6486 27.207 46.1023 27.207H45.9879C45.8735 27.207 45.5303 27.207 45.0727 27.207C42.4415 27.207 34.8912 27.207 27.4553 27.3093C20.0194 27.3093 12.3548 27.4116 9.72359 27.4116C9.266 27.4116 8.92281 27.4116 8.80841 27.4116C5.14766 27.3093 1.83011 24.2398 1.94451 20.9656C1.94451 17.7938 4.91887 15.1335 8.35081 15.1335H8.46521C9.0372 15.1335 9.4948 15.2359 10.0668 15.3382L11.554 15.7474L11.8972 14.4173C12.698 10.8362 16.2443 8.17598 20.2482 8.17598C20.2482 8.17598 20.3626 8.17598 20.477 8.17598C21.7354 8.2783 22.8794 8.48293 23.909 8.8922L25.2818 9.5061L25.8538 8.17598C27.4553 4.28793 31.1161 1.83232 35.2344 1.83232Z" fill="#1D428A"/>
<path d="M21.0491 34.2667V49.3073H35.5777V47.9771H22.5363V35.6992H36.2641V49.2049H37.8656V34.2667H21.0491Z" fill="#1D428A"/>
<path d="M27.3412 42.1452L26.6548 40.8151H25.854L26.998 43.066H27.57L28.714 40.8151H27.9132L27.3412 42.1452Z" fill="#0091DA"/>
<path d="M32.0315 41.3269C31.9171 41.2246 31.8027 41.02 31.6883 41.02C31.5739 40.9177 31.3451 40.9177 31.2307 40.9177C31.0019 40.9177 30.7731 41.02 30.6587 41.02L30.5443 41.1223L30.4299 41.02C30.0867 40.8154 29.7436 40.8154 29.5148 40.9177H28.8284V43.1687H29.5148V41.8385C29.5148 41.7362 29.5148 41.6339 29.6292 41.6339C29.7436 41.5316 29.9723 41.5316 30.0867 41.6339C30.2011 41.7362 30.2011 41.8385 30.2011 41.9408V43.271H30.8875V41.9408C30.8875 41.8385 30.8875 41.7362 31.0019 41.7362C31.1163 41.6339 31.3451 41.6339 31.4595 41.7362C31.5739 41.8385 31.5739 41.9408 31.5739 42.0432V43.3733H32.2603V42.0432C32.1459 41.5316 32.1459 41.4293 32.0315 41.3269Z" fill="#0091DA"/>
<path d="M47.4753 37.9501H46.1025V45.1122H47.4753V37.9501Z" fill="#0091DA"/>
<path d="M50.7927 37.9501H49.4199V45.1122H50.7927V37.9501Z" fill="#0091DA"/>
<path d="M54.1106 37.9501H52.7378V45.1122H54.1106V37.9501Z" fill="#0091DA"/>
<path fill-rule="evenodd" clip-rule="evenodd" d="M43.7002 47.7725H56.3984V35.9038H43.7002V47.7725ZM58 49.205H42.0986V34.369H58V49.205Z" fill="#1D428A"/>
</svg>
