<svg width="99" height="99" viewBox="0 0 99 99" fill="none" xmlns="http://www.w3.org/2000/svg">
<g clip-path="url(#clip0_49_95)">
<path fill-rule="evenodd" clip-rule="evenodd" d="M40.5283 20.1536C36.4968 20.1536 32.5557 21.3491 29.2036 23.5889C25.8514 25.8287 23.2388 29.0123 21.6959 32.737C20.1531 36.4617 19.7494 40.5602 20.536 44.5143C21.3225 48.4684 23.2639 52.1005 26.1146 54.9513C28.9654 57.802 32.5975 59.7434 36.5516 60.53C40.5057 61.3165 44.6043 60.9128 48.329 59.37C52.0537 57.8272 55.2372 55.2145 57.477 51.8624C59.7169 48.5102 60.9124 44.5692 60.9124 40.5376C60.9073 35.133 58.7581 29.9511 54.9365 26.1294C51.1148 22.3078 45.933 20.1586 40.5283 20.1536ZM40.5283 22.2724C44.1405 22.2742 47.6709 23.3471 50.6734 25.3552C53.6758 27.3634 56.0155 30.2167 57.3965 33.5544C58.7775 36.892 59.1378 40.5643 58.432 44.1068C57.7261 47.6492 55.9858 50.9029 53.431 53.4564C50.8762 56.0099 47.6216 57.7486 44.0788 58.4526C40.5359 59.1566 36.8639 58.7943 33.5269 57.4116C30.1899 56.0288 27.3378 53.6877 25.3312 50.6842C23.3246 47.6807 22.2536 44.1497 22.2536 40.5376C22.2636 35.6948 24.1925 31.0533 27.6178 27.6298C31.0431 24.2063 35.6855 22.2799 40.5283 22.2724Z" fill="#0091DA"/>
<path fill-rule="evenodd" clip-rule="evenodd" d="M83.6233 83.4529C83.263 83.9018 82.8124 84.2702 82.3008 84.5342C81.7892 84.7981 81.2279 84.9518 80.6532 84.9852L61.2813 65.3484C60.8928 64.9312 60.6391 64.4067 60.553 63.8432C60.467 63.2796 60.5526 62.7033 60.7988 62.1891L58.5476 59.8433C53.5409 64.3262 46.9838 66.6806 40.2691 66.4065C33.5543 66.1324 27.2109 63.2514 22.5863 58.3755C17.9616 53.4995 15.4199 47.0126 15.5012 40.2928C15.5825 33.5729 18.2802 27.1495 23.0215 22.3868C27.7628 17.6241 34.174 14.8973 40.8934 14.7857C47.6128 14.6741 54.111 17.1864 59.0079 21.7891C63.9047 26.3917 66.8143 32.722 67.1187 39.4354C67.423 46.1489 65.0983 52.7166 60.6381 57.7434L63.2866 60.4109C63.4233 60.3926 63.5591 60.3673 63.6933 60.3352C64.0654 60.3195 64.4366 60.3831 64.7823 60.5217C65.128 60.6603 65.4404 60.8708 65.6986 61.1392L85.0705 80.7854C84.8495 81.7933 84.3477 82.7181 83.6233 83.4529ZM86.8393 79.8963L86.7637 79.6503L67.0701 59.6825C66.6196 59.2265 66.0792 58.8691 65.4833 58.633C64.8873 58.3969 64.2487 58.2872 63.6081 58.311C63.2865 58.311 63.0501 58.3961 62.7285 58.3961C66.1039 54.2122 68.226 49.1582 68.849 43.8187C69.4721 38.4792 68.5708 33.0724 66.2494 28.2238C63.928 23.3751 60.2813 19.2827 55.7312 16.42C51.1811 13.5573 45.9135 12.0413 40.5378 12.0473C35.977 12.0507 31.4839 13.1505 27.4371 15.2539C23.3903 17.3573 19.9085 20.4027 17.285 24.1334C14.6616 27.8641 12.9734 32.1709 12.3628 36.6906C11.7522 41.2103 12.2371 45.8106 13.7766 50.1037C15.316 54.3969 17.865 58.257 21.2086 61.3588C24.5522 64.4606 28.5924 66.7132 32.9888 67.9267C37.3852 69.1402 42.0089 69.279 46.4702 68.3315C50.9315 67.384 55.0996 65.3779 58.6233 62.4824C58.4578 63.2411 58.4817 64.0289 58.6929 64.7762C58.904 65.5235 59.296 66.2073 59.834 66.7673L79.4519 86.6311L79.6127 86.7919L79.8492 86.8675C80.1561 86.9638 80.4739 87.021 80.7951 87.0378C82.4463 86.8986 83.976 86.1134 85.0516 84.8528C86.6785 83.2826 87.3217 81.4286 86.8393 79.8963Z" fill="#1D428A"/>
</g>
<defs>
<clipPath id="clip0_49_95">
<rect width="75" height="75" fill="white" transform="translate(12 12)"/>
</clipPath>
</defs>
</svg>
