<svg width="786" height="373" viewBox="0 0 786 373" fill="none" xmlns="http://www.w3.org/2000/svg">
<path d="M569.418 252.947C547.862 299.73 496.836 336.881 437.441 336.881C374.147 336.881 320.369 294.685 301.565 243.545" stroke="#717074" stroke-width="1.14663" stroke-miterlimit="10" stroke-dasharray="1.69 1.69"/>
<path d="M565.291 253.75L573.202 243.545L571.482 256.273L565.291 253.75Z" fill="#717074"/>
<path d="M301.106 122.919L301.45 122.116" stroke="#EF4E23" stroke-width="1.14663" stroke-miterlimit="10"/>
<path d="M303.514 117.53C328.74 64.6701 380.338 33.9403 437.326 33.9403C497.983 33.9403 552.219 73.1552 570.794 116.039" stroke="#717074" stroke-width="1.14663" stroke-miterlimit="10" stroke-dasharray="1.71 1.71"/>
<path d="M571.826 118.333L572.17 119.135" stroke="#EF4E23" stroke-width="1.14663" stroke-miterlimit="10"/>
<path d="M305.119 122.116L297.322 132.436L298.928 119.594L305.119 122.116Z" fill="#717074"/>
<path d="M144.247 177.499H243.086" stroke="#717074" stroke-width="1.14663" stroke-miterlimit="10"/>
<path d="M146.081 180.136L136.105 177.499L146.081 174.747V180.136Z" fill="#717074"/>
<path d="M241.252 180.136L251.228 177.499L241.252 174.747V180.136Z" fill="#717074"/>
<path d="M166.377 176.811V96.3173H141.036" stroke="#717074" stroke-width="1.14663" stroke-miterlimit="10"/>
<path d="M145.966 93.6799L136.105 96.3172L145.966 98.9545V93.6799Z" fill="#717074"/>
<path d="M243.086 200.432H166.032V277.256H140.119" stroke="#7E8C93" stroke-width="1.14663" stroke-miterlimit="10"/>
<path d="M241.252 197.68L251.228 200.432L241.252 203.069V197.68Z" fill="#717074"/>
<path d="M145.966 274.504L136.105 277.256L145.966 279.893V274.504Z" fill="#717074"/>
<path d="M166.032 277.256V330.46H137.252" stroke="#717074" stroke-width="1.14663" stroke-miterlimit="10"/>
<path d="M145.966 327.823L136.105 330.46L145.966 333.212V327.823Z" fill="#717074"/>
<path fill-rule="evenodd" clip-rule="evenodd" d="M109.962 212.93H88.6348C87.8321 212.93 87.2588 212.242 87.2588 211.554C87.2588 211.095 87.4881 210.637 87.9468 210.293C89.5521 209.375 91.272 208.573 92.992 207.885L94.1386 198.826L95.8585 199.056L94.5972 209.261L94.1386 209.49C93.3359 209.834 91.3867 210.637 90.1254 211.21H108.701C107.325 210.522 105.49 209.719 104.688 209.49L104.229 209.261L103.197 199.056L104.917 198.826L105.72 207.885C107.44 208.573 109.159 209.375 110.765 210.293C111.223 210.637 111.453 211.325 111.338 211.898C111.109 212.471 110.535 212.93 109.962 212.93Z" fill="#1D428A"/>
<path fill-rule="evenodd" clip-rule="evenodd" d="M128.996 154.91H69.3714C67.5368 154.91 66.0461 156.286 66.0461 158.121V194.24C66.0461 196.074 67.5368 197.45 69.3714 197.45H129.111C130.946 197.45 132.551 195.96 132.551 194.125V158.465C132.551 156.401 130.946 154.796 128.996 154.91ZM128.996 156.63C129.914 156.63 130.831 157.318 130.831 158.35V194.011C130.831 194.928 130.028 195.616 129.111 195.501H69.3714C68.5687 195.501 67.8808 194.928 67.7661 194.125V158.006C67.7661 157.204 68.4541 156.516 69.3714 156.63H128.996Z" fill="#1D428A"/>
<path d="M125.556 191.717H73.1551V193.093H125.556V191.717Z" fill="#1D428A"/>
<path fill-rule="evenodd" clip-rule="evenodd" d="M103.656 180.709C104.688 179.907 105.376 178.76 105.834 177.499C106.178 176.352 106.178 175.206 105.834 174.174C105.49 173.142 104.917 172.11 104.114 171.307C102.165 169.358 99.2984 168.784 96.6612 169.702C95.3999 170.275 94.3679 171.192 93.6799 172.339C92.992 173.486 92.648 174.862 92.648 176.123C92.648 177.499 93.2213 178.875 94.1386 179.907C95.3999 181.283 97.1198 182.085 98.9545 182.2C100.674 182.429 102.394 181.856 103.656 180.709ZM108.701 181.053C108.472 181.053 108.128 181.053 107.669 180.939C107.325 180.939 106.981 180.824 106.637 180.824C106.293 181.053 106.064 181.397 105.834 181.627C105.605 181.971 105.261 182.2 104.917 182.429C104.917 182.544 105.032 182.888 105.146 183.461C105.146 183.805 105.261 184.149 105.376 184.493C104.344 184.952 103.312 185.525 102.28 185.869C101.706 185.296 101.248 184.723 100.904 184.149C100.216 184.264 99.4131 184.264 98.7251 184.149C98.3811 184.379 98.1518 184.723 97.9225 185.067C97.6932 185.411 97.4638 185.755 97.2345 185.984L94.1386 184.837C94.1386 184.493 94.1386 184.149 94.2533 183.691C94.3679 183.347 94.3679 183.003 94.3679 182.544C93.336 181.512 92.7626 181.053 92.7626 180.939C92.4186 180.939 91.96 180.939 91.616 181.053C91.272 181.168 90.928 181.168 90.584 181.168C90.0107 180.251 89.5521 179.219 89.2081 178.301C89.7814 177.843 90.24 177.384 90.928 176.926C90.928 176.811 90.928 176.467 90.928 175.779C90.928 175.32 90.928 174.976 91.0427 174.518C90.6987 174.288 90.3547 174.059 90.1254 173.83C89.6667 173.486 89.4374 173.256 89.2081 173.256L90.4694 170.16C90.6987 170.16 91.0427 170.16 91.5013 170.275C91.8453 170.275 92.1893 170.39 92.5333 170.39C92.648 170.275 92.992 169.931 93.3359 169.587C93.5653 169.243 93.9093 169.014 94.2533 168.784C94.1386 168.096 94.0239 167.408 93.9093 166.72C94.9412 166.147 95.9732 165.689 97.0052 165.345C97.5785 165.918 98.0372 166.491 98.3811 167.064C99.1838 166.95 99.8718 166.95 100.674 167.064C100.789 166.95 101.018 166.606 101.362 166.147C101.592 165.803 101.821 165.459 102.05 165.23L105.032 166.376C105.032 166.72 105.032 167.408 104.802 168.555C104.917 168.67 105.146 168.899 105.605 169.358C105.949 169.587 106.178 169.816 106.408 170.16C106.752 170.16 107.21 170.16 107.554 170.046C107.898 169.931 108.242 169.931 108.586 169.816C108.93 170.275 109.159 170.734 109.389 171.307C109.618 171.766 109.847 172.339 110.077 172.798C109.274 173.486 108.701 173.944 108.357 174.174C108.357 174.976 108.357 175.779 108.357 176.467C108.701 176.582 109.045 176.811 109.274 177.04C109.733 177.384 109.962 177.613 110.191 177.613L108.701 181.053Z" fill="#208FCE"/>
<path fill-rule="evenodd" clip-rule="evenodd" d="M109.045 251.457C103.082 251.457 97.9225 255.47 95.7439 261.089C94.1386 260.286 92.5333 259.942 90.8133 259.942H90.4693C84.6215 259.942 79.691 264.07 78.4297 269.688C77.627 269.459 76.8244 269.344 76.0218 269.344H75.7924C70.5179 269.344 66.1607 273.587 66.046 278.861C65.9314 284.251 70.8619 289.181 76.2511 289.296H77.3977C83.9335 289.296 114.778 289.181 121.199 289.181H122.575C128.079 289.181 132.551 284.021 132.78 277.6C132.895 271.294 128.882 266.134 123.492 265.56C122.804 257.763 116.842 251.571 109.503 251.342L109.045 251.457ZM109.045 253.177H109.389C115.81 253.291 121.084 258.795 121.658 265.79L121.772 267.28L123.263 267.395C127.735 267.854 131.06 272.326 130.946 277.6C130.831 282.989 127.047 287.461 122.575 287.461H121.084C117.874 287.461 108.471 287.461 99.2984 287.576C90.1253 287.69 80.6083 287.69 77.283 287.69H76.1364C71.6645 287.576 67.5367 283.333 67.6513 278.976C67.766 274.619 71.3205 271.179 75.6778 271.179H75.9071C76.5951 271.179 77.283 271.294 77.8564 271.408L79.691 271.867L80.035 270.032C81.0669 265.216 85.3095 261.662 90.3547 261.662H90.584C92.0746 261.662 93.5652 262.006 94.8265 262.694L96.5465 263.496L97.2345 261.777C99.2984 256.502 103.885 253.177 109.045 253.177Z" fill="#1D428A"/>
<path fill-rule="evenodd" clip-rule="evenodd" d="M77.1685 340.894H76.0218C71.0913 340.78 66.6194 336.193 66.7341 331.263C66.8488 326.447 70.7473 322.548 75.5632 322.548H75.7925C76.4805 322.548 77.2831 322.663 77.9711 322.892L78.8884 323.122L79.1177 322.204C80.2644 316.93 84.8509 313.146 90.2401 313.031H90.4694C92.0747 313.031 93.68 313.49 95.056 314.178L95.8586 314.637L96.2026 313.719C98.3812 308.101 103.197 304.546 108.701 304.546H109.045C115.81 304.661 121.429 310.509 122.117 318.076L122.231 318.764L122.919 318.879C127.85 319.338 131.519 324.268 131.29 330.116C131.175 336.079 127.047 340.894 122.002 340.894H120.741C117.53 340.894 108.357 340.894 99.0692 341.009C89.7814 340.894 80.379 340.894 77.1685 340.894Z" fill="#1D428A"/>
<path fill-rule="evenodd" clip-rule="evenodd" d="M109.045 303.743C103.082 303.743 97.9225 307.757 95.7439 313.375C94.1386 312.687 92.5333 312.228 90.8133 312.228H90.4693C84.6215 312.228 79.691 316.356 78.4297 321.975C77.627 321.745 76.8244 321.631 76.0218 321.631H75.7924C70.5179 321.631 66.1607 325.873 66.046 331.148C65.9314 336.537 70.8619 341.468 76.2511 341.582H77.3977C83.9335 341.582 114.778 341.468 121.199 341.468H122.575C128.079 341.468 132.665 336.308 132.78 329.887C132.895 323.58 128.882 318.42 123.492 317.847C122.804 310.05 116.842 303.858 109.503 303.629L109.045 303.743ZM109.045 305.463H109.389C115.81 305.578 121.084 311.082 121.658 318.076L121.772 319.567L123.263 319.682C127.735 320.14 131.06 324.612 130.946 329.887C130.831 335.276 127.047 339.748 122.575 339.748H121.084C117.874 339.748 108.471 339.748 99.2984 339.862C90.1253 339.977 80.6083 339.977 77.283 339.977H76.1364C71.6645 339.862 67.5367 335.62 67.6513 331.263C67.766 326.905 71.3205 323.465 75.6778 323.465H75.9071C76.5951 323.465 77.283 323.58 77.8564 323.695L79.691 324.153L80.035 322.319C81.0669 317.503 85.3095 313.948 90.3547 313.948H90.584C92.0746 313.948 93.5652 314.292 94.8265 314.98L96.5465 315.783L97.2345 314.063C99.4131 308.789 104 305.463 109.045 305.463Z" fill="#1D428A"/>
<path fill-rule="evenodd" clip-rule="evenodd" d="M94.1387 67.5367V71.894H95.8586V69.2567H129.57V112.141H114.663V113.861H131.29V67.5367H94.1387Z" fill="#208FCE"/>
<path fill-rule="evenodd" clip-rule="evenodd" d="M89.2081 101.936C81.8696 101.936 74.5312 104.917 68.2247 110.879C67.766 111.338 67.422 111.682 66.9634 112.141C66.2754 112.829 65.9314 113.746 65.9314 114.778V121.199C65.9314 123.263 67.6513 124.983 69.7153 124.983H108.472C110.535 124.983 112.255 123.263 112.255 121.199V114.778C112.255 113.861 111.911 112.829 111.223 112.141C105.032 105.376 97.1198 101.936 89.2081 101.936ZM89.2081 103.656C96.7759 103.656 104.114 107.096 109.962 113.402C110.306 113.861 110.535 114.319 110.535 114.893V121.314C110.535 122.46 109.618 123.378 108.472 123.378H69.83C68.6833 123.378 67.766 122.46 67.766 121.314V114.893C67.766 114.319 67.9953 113.746 68.3393 113.402C68.6833 112.943 69.142 112.599 69.486 112.141C75.3338 106.522 82.0989 103.656 89.2081 103.656Z" fill="#1D428A"/>
<path fill-rule="evenodd" clip-rule="evenodd" d="M88.8641 73.8431C81.6403 73.8431 75.9071 79.8056 75.9071 87.1441C75.9071 94.4825 81.7549 100.445 88.8641 100.445C96.0879 100.445 101.821 94.4825 101.821 87.1441C101.821 79.8056 95.9732 73.8431 88.8641 73.8431ZM88.8641 75.6778C95.0559 75.6778 100.101 80.8376 100.101 87.2588C100.101 93.6799 95.0559 98.8398 88.8641 98.8398C82.6722 98.8398 77.6271 93.6799 77.6271 87.2588C77.6271 80.8376 82.6722 75.6778 88.8641 75.6778Z" fill="#1D428A"/>
<path fill-rule="evenodd" clip-rule="evenodd" d="M103.197 89.5521V87.7174L110.994 83.7042V85.5388L104.917 88.5201L110.994 91.5013V93.5653L103.197 89.5521Z" fill="#208FCE"/>
<path fill-rule="evenodd" clip-rule="evenodd" d="M116.727 80.8376H118.677L113.631 96.3172H111.682L116.727 80.8376Z" fill="#208FCE"/>
<path fill-rule="evenodd" clip-rule="evenodd" d="M120.053 91.5013L125.556 88.5201L120.053 85.5388V83.7042L127.047 87.7174V89.5521L120.053 93.5653V91.5013Z" fill="#208FCE"/>
<path d="M20.1543 256.354H23.5827C24.1331 256.354 24.6338 256.465 25.0848 256.686C25.5358 256.908 25.8875 257.218 26.1397 257.615C26.3996 258.013 26.5296 258.464 26.5296 258.968C26.5296 259.473 26.3996 259.924 26.1397 260.321C25.8875 260.719 25.5358 261.028 25.0848 261.25C24.6338 261.472 24.1331 261.582 23.5827 261.582H21.5761V264.231H20.1543V256.354ZM23.4107 260.264C23.9076 260.264 24.3051 260.149 24.6032 259.92C24.909 259.683 25.0619 259.366 25.0619 258.968C25.0619 258.571 24.909 258.257 24.6032 258.028C24.3051 257.791 23.9076 257.672 23.4107 257.672H21.5761V260.264H23.4107ZM33.1959 258.303V264.231H31.797V263.428C31.6136 263.711 31.3575 263.941 31.0288 264.116C30.7001 264.285 30.3408 264.369 29.9509 264.369C29.5229 264.369 29.1407 264.273 28.8043 264.082C28.4756 263.883 28.2157 263.612 28.0246 263.268C27.8411 262.916 27.7494 262.519 27.7494 262.075V258.303H29.1139V261.8C29.1139 262.205 29.2286 262.538 29.4579 262.798C29.6872 263.05 29.9853 263.176 30.3523 263.176C30.7574 263.176 31.0976 263.054 31.3728 262.809C31.6556 262.557 31.797 262.251 31.797 261.892V258.303H33.1959ZM38.4385 258.165C38.9583 258.165 39.4246 258.299 39.8373 258.567C40.2501 258.827 40.575 259.194 40.812 259.667C41.049 260.134 41.1674 260.665 41.1674 261.261C41.1674 261.858 41.049 262.393 40.812 262.867C40.575 263.341 40.2501 263.711 39.8373 263.979C39.4246 264.239 38.9583 264.369 38.4385 264.369C37.9874 264.369 37.5823 264.269 37.223 264.071C36.8637 263.872 36.5694 263.589 36.3401 263.222V264.231H34.9412V256.216H36.3401V259.301C36.5694 258.941 36.8637 258.662 37.223 258.464C37.5899 258.265 37.9951 258.165 38.4385 258.165ZM38.0601 263.176C38.5646 263.176 38.9774 262.997 39.2984 262.637C39.6195 262.278 39.78 261.819 39.78 261.261C39.78 260.703 39.6195 260.248 39.2984 259.897C38.9774 259.538 38.5646 259.358 38.0601 259.358C37.5708 259.358 37.1695 259.538 36.8561 259.897C36.5427 260.248 36.386 260.703 36.386 261.261C36.386 261.628 36.4548 261.957 36.5924 262.247C36.7376 262.538 36.9364 262.767 37.1886 262.935C37.4485 263.096 37.739 263.176 38.0601 263.176ZM42.4996 256.216H43.8985V264.231H42.4996V256.216ZM45.6461 258.303H47.045V264.231H45.6461V258.303ZM46.3456 257.409C46.1239 257.409 45.9328 257.328 45.7723 257.168C45.6194 257.007 45.5429 256.82 45.5429 256.606C45.5429 256.392 45.6194 256.208 45.7723 256.056C45.9328 255.895 46.1239 255.815 46.3456 255.815C46.5596 255.815 46.7431 255.895 46.896 256.056C47.0565 256.208 47.1367 256.392 47.1367 256.606C47.1367 256.82 47.0565 257.007 46.896 257.168C46.7431 257.328 46.5596 257.409 46.3456 257.409ZM51.5102 264.369C50.9445 264.369 50.417 264.227 49.9278 263.944C49.4462 263.662 49.0602 263.283 48.7697 262.809C48.4792 262.328 48.334 261.812 48.334 261.261C48.334 260.711 48.4792 260.199 48.7697 259.725C49.0602 259.251 49.4501 258.872 49.9393 258.59C50.4285 258.307 50.956 258.165 51.5216 258.165C51.965 258.165 52.3778 258.253 52.76 258.429C53.1422 258.597 53.4786 258.83 53.769 259.129L52.8288 259.954C52.6683 259.771 52.4695 259.625 52.2326 259.518C51.9956 259.411 51.7548 259.358 51.5102 259.358C51.1891 259.358 50.891 259.446 50.6158 259.622C50.3406 259.79 50.1227 260.023 49.9622 260.321C49.8017 260.612 49.7214 260.925 49.7214 261.261C49.7214 261.605 49.8017 261.926 49.9622 262.224C50.1227 262.515 50.3406 262.748 50.6158 262.924C50.891 263.092 51.1891 263.176 51.5102 263.176C51.7624 263.176 52.007 263.123 52.244 263.016C52.4886 262.901 52.695 262.748 52.8632 262.557L53.8034 263.371C53.5053 263.685 53.1613 263.929 52.7715 264.105C52.3816 264.281 51.9612 264.369 51.5102 264.369Z" fill="#464547"/>
<path d="M24.798 278.128C24.0642 278.128 23.38 277.945 22.7455 277.578C22.1111 277.203 21.6065 276.703 21.232 276.076C20.8574 275.449 20.6701 274.773 20.6701 274.046C20.6701 273.32 20.8574 272.647 21.232 272.028C21.6065 271.401 22.1111 270.905 22.7455 270.538C23.38 270.163 24.0642 269.976 24.798 269.976C25.3637 269.976 25.9026 270.09 26.4148 270.32C26.9346 270.541 27.3894 270.851 27.7792 271.249L26.7587 272.2C26.5065 271.91 26.2084 271.684 25.8644 271.524C25.528 271.363 25.1726 271.283 24.798 271.283C24.3241 271.283 23.8807 271.409 23.4679 271.661C23.0628 271.914 22.7379 272.254 22.4933 272.682C22.2487 273.102 22.1263 273.557 22.1263 274.046C22.1263 274.543 22.2487 275.006 22.4933 275.434C22.7379 275.854 23.0628 276.191 23.4679 276.443C23.8807 276.695 24.3241 276.821 24.798 276.821C25.1726 276.821 25.528 276.741 25.8644 276.58C26.2084 276.42 26.5103 276.194 26.7702 275.904L27.7792 276.844C27.397 277.249 26.946 277.566 26.4262 277.796C25.9141 278.017 25.3713 278.128 24.798 278.128ZM29.0417 269.976H30.4406V277.991H29.0417V269.976ZM34.9172 278.128C34.3439 278.128 33.8126 277.991 33.3234 277.716C32.8342 277.433 32.4443 277.054 32.1538 276.58C31.871 276.099 31.7296 275.579 31.7296 275.021C31.7296 274.463 31.871 273.947 32.1538 273.473C32.4443 272.999 32.8342 272.624 33.3234 272.349C33.8126 272.066 34.3439 271.925 34.9172 271.925C35.4905 271.925 36.018 272.066 36.4996 272.349C36.9888 272.624 37.3748 272.999 37.6577 273.473C37.9405 273.947 38.0819 274.463 38.0819 275.021C38.0819 275.579 37.9405 276.099 37.6577 276.58C37.3748 277.054 36.9888 277.433 36.4996 277.716C36.018 277.991 35.4905 278.128 34.9172 278.128ZM34.9172 276.936C35.2383 276.936 35.5364 276.852 35.8116 276.684C36.0868 276.508 36.3046 276.275 36.4652 275.984C36.6334 275.686 36.7174 275.365 36.7174 275.021C36.7174 274.677 36.6372 274.36 36.4766 274.069C36.3161 273.779 36.0944 273.549 35.8116 273.381C35.5364 273.205 35.2383 273.118 34.9172 273.118C34.5885 273.118 34.2866 273.205 34.0114 273.381C33.7362 273.549 33.5145 273.779 33.3463 274.069C33.1858 274.36 33.1055 274.677 33.1055 275.021C33.1055 275.365 33.1858 275.686 33.3463 275.984C33.5145 276.275 33.7362 276.508 34.0114 276.684C34.2866 276.852 34.5885 276.936 34.9172 276.936ZM44.6975 272.063V277.991H43.2986V277.188C43.1151 277.471 42.859 277.7 42.5303 277.876C42.2016 278.044 41.8424 278.128 41.4525 278.128C41.0244 278.128 40.6422 278.033 40.3059 277.842C39.9772 277.643 39.7173 277.372 39.5262 277.028C39.3427 276.676 39.251 276.278 39.251 275.835V272.063H40.6155V275.56C40.6155 275.965 40.7301 276.298 40.9594 276.557C41.1888 276.81 41.4869 276.936 41.8538 276.936C42.259 276.936 42.5991 276.814 42.8743 276.569C43.1572 276.317 43.2986 276.011 43.2986 275.652V272.063H44.6975ZM52.2218 269.976V277.991H50.8229V277.05C50.5936 277.394 50.2993 277.662 49.94 277.853C49.5884 278.037 49.1985 278.128 48.7704 278.128C48.2506 278.128 47.7805 277.998 47.3601 277.738C46.9473 277.471 46.6224 277.1 46.3854 276.626C46.1561 276.152 46.0415 275.617 46.0415 275.021C46.0415 274.425 46.1561 273.893 46.3854 273.427C46.6224 272.953 46.9473 272.586 47.3601 272.326C47.7805 272.059 48.2506 271.925 48.7704 271.925C49.1985 271.925 49.5884 272.021 49.94 272.212C50.2993 272.395 50.5936 272.655 50.8229 272.991V269.976H52.2218ZM49.1374 276.936C49.6266 276.936 50.0279 276.756 50.3413 276.397C50.6547 276.038 50.8114 275.579 50.8114 275.021C50.8114 274.463 50.6547 274.008 50.3413 273.656C50.0279 273.297 49.6266 273.118 49.1374 273.118C48.6405 273.118 48.2315 273.297 47.9105 273.656C47.5894 274.008 47.4289 274.463 47.4289 275.021C47.4289 275.579 47.5894 276.038 47.9105 276.397C48.2315 276.756 48.6405 276.936 49.1374 276.936Z" fill="#464547"/>
<path d="M17.5742 308.639H21.0026C21.553 308.639 22.0537 308.75 22.5047 308.971C22.9557 309.193 23.3073 309.503 23.5596 309.9C23.8195 310.298 23.9494 310.749 23.9494 311.253C23.9494 311.758 23.8195 312.209 23.5596 312.606C23.3073 313.004 22.9557 313.313 22.5047 313.535C22.0537 313.757 21.553 313.867 21.0026 313.867H18.996V316.516H17.5742V308.639ZM20.8306 312.549C21.3275 312.549 21.725 312.434 22.0231 312.205C22.3289 311.968 22.4818 311.651 22.4818 311.253C22.4818 310.856 22.3289 310.542 22.0231 310.313C21.725 310.076 21.3275 309.957 20.8306 309.957H18.996V312.549H20.8306ZM26.6943 311.712C26.8854 311.322 27.1682 311.016 27.5428 310.794C27.9174 310.565 28.3416 310.45 28.8156 310.45V311.643C28.1811 311.643 27.6689 311.815 27.2791 312.159C26.8892 312.503 26.6943 312.958 26.6943 313.523V316.516H25.2954V310.588H26.6943V311.712ZM30.088 310.588H31.4869V316.516H30.088V310.588ZM30.7874 309.694C30.5657 309.694 30.3746 309.613 30.2141 309.453C30.0612 309.292 29.9848 309.105 29.9848 308.891C29.9848 308.677 30.0612 308.493 30.2141 308.341C30.3746 308.18 30.5657 308.1 30.7874 308.1C31.0015 308.1 31.1849 308.18 31.3378 308.341C31.4983 308.493 31.5786 308.677 31.5786 308.891C31.5786 309.105 31.4983 309.292 31.3378 309.453C31.1849 309.613 31.0015 309.694 30.7874 309.694ZM32.4892 310.588H33.9798L35.6998 314.899L37.3853 310.588H38.8645L36.3533 316.516H35.0462L32.4892 310.588ZM42.2482 310.45C43.0279 310.45 43.6433 310.68 44.0943 311.138C44.5529 311.589 44.7823 312.193 44.7823 312.95V316.516H43.4178V315.817C43.2037 316.077 42.9285 316.283 42.5922 316.436C42.2558 316.581 41.9119 316.654 41.5602 316.654C41.1398 316.654 40.7614 316.577 40.4251 316.424C40.0964 316.264 39.8364 316.042 39.6453 315.759C39.4542 315.469 39.3587 315.136 39.3587 314.762C39.3587 314.38 39.4657 314.039 39.6797 313.741C39.8938 313.443 40.1843 313.21 40.5512 313.042C40.9181 312.874 41.3233 312.79 41.7666 312.79C42.2941 312.79 42.8445 312.893 43.4178 313.099V312.95C43.4178 312.56 43.2993 312.239 43.0623 311.987C42.833 311.727 42.4699 311.597 41.973 311.597C41.4991 311.597 40.964 311.746 40.3677 312.044L39.8861 311.07C40.727 310.657 41.5144 310.45 42.2482 310.45ZM41.8698 315.633C42.2291 315.633 42.5578 315.545 42.8559 315.369C43.1617 315.194 43.349 314.957 43.4178 314.659V313.982C42.9591 313.837 42.4775 313.764 41.973 313.764C41.6137 313.764 41.3118 313.856 41.0672 314.039C40.8226 314.215 40.7002 314.441 40.7002 314.716C40.7002 314.991 40.8111 315.213 41.0328 315.381C41.2545 315.549 41.5335 315.633 41.8698 315.633ZM49.579 316.184C49.4109 316.329 49.2121 316.443 48.9828 316.528C48.7611 316.612 48.5356 316.654 48.3063 316.654C47.8171 316.654 47.4157 316.493 47.1023 316.172C46.7965 315.851 46.6437 315.442 46.6437 314.945V311.746H45.7837V310.588H46.6437V308.96H47.9967V310.588H49.3383V311.746H47.9967V314.773C47.9967 314.972 48.054 315.136 48.1687 315.266C48.2833 315.396 48.4248 315.461 48.5929 315.461C48.7076 315.461 48.8146 315.442 48.914 315.404C49.021 315.366 49.1089 315.312 49.1777 315.243L49.579 316.184ZM53.3624 315.53C53.6605 315.53 53.9625 315.473 54.2682 315.358C54.574 315.243 54.8224 315.094 55.0136 314.911L55.8162 315.736C55.5639 316.004 55.2085 316.226 54.7498 316.401C54.2912 316.57 53.844 316.654 53.4083 316.654C52.8426 316.654 52.319 316.52 51.8374 316.252C51.3634 315.985 50.985 315.614 50.7022 315.14C50.427 314.666 50.2894 314.131 50.2894 313.535C50.2894 312.946 50.4232 312.419 50.6907 311.953C50.9583 311.486 51.3252 311.119 51.7915 310.852C52.2578 310.584 52.77 310.45 53.328 310.45C54.2377 310.45 54.9486 310.764 55.4607 311.391C55.9805 312.017 56.2404 312.874 56.2404 313.959H51.6424C51.7189 314.433 51.91 314.815 52.2158 315.106C52.5292 315.389 52.9114 315.53 53.3624 315.53ZM53.3395 311.574C52.919 311.574 52.5559 311.708 52.2502 311.975C51.9444 312.235 51.7456 312.587 51.6539 313.03H54.8874C54.8186 312.595 54.6505 312.243 54.3829 311.975C54.123 311.708 53.7752 311.574 53.3395 311.574Z" fill="#464547"/>
<path d="M24.7407 330.413C24.0069 330.413 23.3227 330.23 22.6883 329.863C22.0538 329.488 21.5493 328.988 21.1747 328.361C20.8002 327.734 20.6129 327.058 20.6129 326.331C20.6129 325.605 20.8002 324.932 21.1747 324.313C21.5493 323.686 22.0538 323.19 22.6883 322.823C23.3227 322.448 24.0069 322.261 24.7407 322.261C25.3064 322.261 25.8453 322.375 26.3575 322.605C26.8773 322.826 27.3321 323.136 27.722 323.534L26.7015 324.485C26.4492 324.195 26.1511 323.969 25.8071 323.809C25.4708 323.648 25.1153 323.568 24.7407 323.568C24.2668 323.568 23.8234 323.694 23.4107 323.946C23.0055 324.199 22.6806 324.539 22.436 324.967C22.1914 325.387 22.0691 325.842 22.0691 326.331C22.0691 326.828 22.1914 327.291 22.436 327.719C22.6806 328.139 23.0055 328.476 23.4107 328.728C23.8234 328.98 24.2668 329.106 24.7407 329.106C25.1153 329.106 25.4708 329.026 25.8071 328.865C26.1511 328.705 26.4531 328.479 26.713 328.189L27.722 329.129C27.3398 329.534 26.8888 329.852 26.369 330.081C25.8568 330.303 25.3141 330.413 24.7407 330.413ZM28.9845 322.261H30.3834V330.276H28.9845V322.261ZM34.86 330.413C34.2867 330.413 33.7554 330.276 33.2662 330.001C32.7769 329.718 32.3871 329.339 32.0966 328.865C31.8137 328.384 31.6723 327.864 31.6723 327.306C31.6723 326.748 31.8137 326.232 32.0966 325.758C32.3871 325.284 32.7769 324.91 33.2662 324.634C33.7554 324.351 34.2867 324.21 34.86 324.21C35.4333 324.21 35.9607 324.351 36.4423 324.634C36.9316 324.91 37.3176 325.284 37.6004 325.758C37.8833 326.232 38.0247 326.748 38.0247 327.306C38.0247 327.864 37.8833 328.384 37.6004 328.865C37.3176 329.339 36.9316 329.718 36.4423 330.001C35.9607 330.276 35.4333 330.413 34.86 330.413ZM34.86 329.221C35.181 329.221 35.4792 329.137 35.7543 328.969C36.0295 328.793 36.2474 328.56 36.4079 328.269C36.5761 327.971 36.6602 327.65 36.6602 327.306C36.6602 326.962 36.5799 326.645 36.4194 326.354C36.2589 326.064 36.0372 325.834 35.7543 325.666C35.4792 325.49 35.181 325.403 34.86 325.403C34.5313 325.403 34.2293 325.49 33.9541 325.666C33.6789 325.834 33.4573 326.064 33.2891 326.354C33.1286 326.645 33.0483 326.962 33.0483 327.306C33.0483 327.65 33.1286 327.971 33.2891 328.269C33.4573 328.56 33.6789 328.793 33.9541 328.969C34.2293 329.137 34.5313 329.221 34.86 329.221ZM44.6402 324.348V330.276H43.2413V329.473C43.0579 329.756 42.8018 329.985 42.4731 330.161C42.1444 330.329 41.7851 330.413 41.3952 330.413C40.9672 330.413 40.585 330.318 40.2486 330.127C39.9199 329.928 39.66 329.657 39.4689 329.313C39.2854 328.961 39.1937 328.563 39.1937 328.12V324.348H40.5582V327.845C40.5582 328.25 40.6729 328.583 40.9022 328.842C41.1315 329.095 41.4296 329.221 41.7966 329.221C42.2017 329.221 42.5419 329.099 42.8171 328.854C43.0999 328.602 43.2413 328.296 43.2413 327.937V324.348H44.6402ZM52.1646 322.261V330.276H50.7657V329.336C50.5363 329.68 50.242 329.947 49.8828 330.138C49.5311 330.322 49.1413 330.413 48.7132 330.413C48.1934 330.413 47.7233 330.283 47.3028 330.023C46.89 329.756 46.5652 329.385 46.3282 328.911C46.0989 328.437 45.9842 327.902 45.9842 327.306C45.9842 326.71 46.0989 326.178 46.3282 325.712C46.5652 325.238 46.89 324.871 47.3028 324.611C47.7233 324.344 48.1934 324.21 48.7132 324.21C49.1413 324.21 49.5311 324.306 49.8828 324.497C50.242 324.68 50.5363 324.94 50.7657 325.276V322.261H52.1646ZM49.0801 329.221C49.5693 329.221 49.9707 329.041 50.2841 328.682C50.5975 328.323 50.7542 327.864 50.7542 327.306C50.7542 326.748 50.5975 326.293 50.2841 325.941C49.9707 325.582 49.5693 325.403 49.0801 325.403C48.5832 325.403 48.1743 325.582 47.8532 325.941C47.5322 326.293 47.3716 326.748 47.3716 327.306C47.3716 327.864 47.5322 328.323 47.8532 328.682C48.1743 329.041 48.5832 329.221 49.0801 329.221Z" fill="#464547"/>
<path d="M24.2752 172.134H20.5142L19.8951 173.624H18.3012L21.5921 165.747H23.1859L26.4767 173.624H24.8944L24.2752 172.134ZM23.7822 170.964L22.3947 167.65L21.0073 170.964H23.7822ZM33.4104 165.609V173.624H32.0115V172.684C31.7822 173.028 31.4879 173.295 31.1286 173.487C30.777 173.67 30.3871 173.762 29.959 173.762C29.4392 173.762 28.9691 173.632 28.5487 173.372C28.1359 173.104 27.811 172.734 27.574 172.26C27.3447 171.786 27.23 171.251 27.23 170.654C27.23 170.058 27.3447 169.527 27.574 169.061C27.811 168.587 28.1359 168.22 28.5487 167.96C28.9691 167.692 29.4392 167.558 29.959 167.558C30.3871 167.558 30.777 167.654 31.1286 167.845C31.4879 168.029 31.7822 168.288 32.0115 168.625V165.609H33.4104ZM30.3259 172.569C30.8152 172.569 31.2165 172.39 31.5299 172.03C31.8433 171.671 32 171.212 32 170.654C32 170.096 31.8433 169.642 31.5299 169.29C31.2165 168.931 30.8152 168.751 30.3259 168.751C29.8291 168.751 29.4201 168.931 29.099 169.29C28.778 169.642 28.6175 170.096 28.6175 170.654C28.6175 171.212 28.778 171.671 29.099 172.03C29.4201 172.39 29.8291 172.569 30.3259 172.569ZM42.013 167.558C42.4182 167.558 42.7851 167.658 43.1138 167.857C43.4501 168.048 43.71 168.319 43.8935 168.671C44.0846 169.015 44.1801 169.408 44.1801 169.852V173.624H42.8157V170.081C42.8157 169.691 42.7086 169.374 42.4946 169.129C42.2806 168.877 42.0054 168.751 41.669 168.751C41.2868 168.751 40.9734 168.869 40.7288 169.106C40.4842 169.336 40.3619 169.63 40.3619 169.989V173.624H39.0088V170.081C39.0088 169.691 38.898 169.374 38.6763 169.129C38.4623 168.877 38.1871 168.751 37.8507 168.751C37.4762 168.751 37.1666 168.869 36.922 169.106C36.6773 169.336 36.555 169.63 36.555 169.989V173.624H35.1561V167.696H36.555V168.499C36.7079 168.208 36.9296 167.979 37.2201 167.811C37.5106 167.643 37.8393 167.558 38.2062 167.558C38.6725 167.558 39.0853 167.685 39.4445 167.937C39.8038 168.189 40.0599 168.533 40.2128 168.969C40.2969 168.541 40.4995 168.201 40.8205 167.948C41.1492 167.688 41.5467 167.558 42.013 167.558ZM45.7827 167.696H47.1815V173.624H45.7827V167.696ZM46.4821 166.802C46.2604 166.802 46.0693 166.721 45.9088 166.561C45.7559 166.4 45.6795 166.213 45.6795 165.999C45.6795 165.785 45.7559 165.602 45.9088 165.449C46.0693 165.288 46.2604 165.208 46.4821 165.208C46.6961 165.208 46.8796 165.288 47.0325 165.449C47.193 165.602 47.2733 165.785 47.2733 165.999C47.2733 166.213 47.193 166.4 47.0325 166.561C46.8796 166.721 46.6961 166.802 46.4821 166.802ZM52.1627 167.558C52.5908 167.558 52.973 167.658 53.3093 167.857C53.6457 168.048 53.9056 168.319 54.089 168.671C54.2801 169.015 54.3757 169.408 54.3757 169.852V173.624H53.0112V170.127C53.0112 169.722 52.8965 169.393 52.6672 169.141C52.4379 168.881 52.1398 168.751 51.7728 168.751C51.3677 168.751 51.0237 168.877 50.7409 169.129C50.4657 169.374 50.3281 169.676 50.3281 170.035V173.624H48.9292V167.696H50.3281V168.499C50.5115 168.216 50.7638 167.99 51.0849 167.822C51.4136 167.646 51.7728 167.558 52.1627 167.558Z" fill="#464547"/>
<path d="M18.7025 187.521C17.9687 187.521 17.2845 187.338 16.6501 186.971C16.0156 186.596 15.5111 186.096 15.1365 185.469C14.7619 184.842 14.5747 184.166 14.5747 183.439C14.5747 182.713 14.7619 182.04 15.1365 181.421C15.5111 180.794 16.0156 180.298 16.6501 179.931C17.2845 179.556 17.9687 179.369 18.7025 179.369C19.2682 179.369 19.8071 179.483 20.3193 179.713C20.8391 179.934 21.2939 180.244 21.6838 180.642L20.6633 181.593C20.411 181.303 20.1129 181.077 19.7689 180.917C19.4326 180.756 19.0771 180.676 18.7025 180.676C18.2286 180.676 17.7852 180.802 17.3724 181.054C16.9673 181.307 16.6424 181.647 16.3978 182.075C16.1532 182.495 16.0309 182.95 16.0309 183.439C16.0309 183.936 16.1532 184.399 16.3978 184.827C16.6424 185.247 16.9673 185.584 17.3724 185.836C17.7852 186.088 18.2286 186.214 18.7025 186.214C19.0771 186.214 19.4326 186.134 19.7689 185.973C20.1129 185.813 20.4148 185.587 20.6748 185.297L21.6838 186.237C21.3016 186.642 20.8506 186.96 20.3308 187.189C19.8186 187.411 19.2759 187.521 18.7025 187.521ZM25.6752 187.521C25.1019 187.521 24.5706 187.384 24.0814 187.109C23.5922 186.826 23.2023 186.447 22.9119 185.973C22.629 185.492 22.4876 184.972 22.4876 184.414C22.4876 183.856 22.629 183.34 22.9119 182.866C23.2023 182.392 23.5922 182.018 24.0814 181.742C24.5706 181.46 25.1019 181.318 25.6752 181.318C26.2486 181.318 26.776 181.46 27.2576 181.742C27.7468 182.018 28.1329 182.392 28.4157 182.866C28.6985 183.34 28.8399 183.856 28.8399 184.414C28.8399 184.972 28.6985 185.492 28.4157 185.973C28.1329 186.447 27.7468 186.826 27.2576 187.109C26.776 187.384 26.2486 187.521 25.6752 187.521ZM25.6752 186.329C25.9963 186.329 26.2944 186.245 26.5696 186.077C26.8448 185.901 27.0627 185.668 27.2232 185.377C27.3914 185.079 27.4755 184.758 27.4755 184.414C27.4755 184.07 27.3952 183.753 27.2347 183.462C27.0741 183.172 26.8525 182.942 26.5696 182.774C26.2944 182.599 25.9963 182.511 25.6752 182.511C25.3465 182.511 25.0446 182.599 24.7694 182.774C24.4942 182.942 24.2725 183.172 24.1044 183.462C23.9438 183.753 23.8636 184.07 23.8636 184.414C23.8636 184.758 23.9438 185.079 24.1044 185.377C24.2725 185.668 24.4942 185.901 24.7694 186.077C25.0446 186.245 25.3465 186.329 25.6752 186.329ZM33.3686 181.318C33.7967 181.318 34.1789 181.417 34.5152 181.616C34.8516 181.807 35.1115 182.079 35.295 182.43C35.4861 182.774 35.5816 183.168 35.5816 183.611V187.384H34.2171V183.887C34.2171 183.481 34.1025 183.153 33.8731 182.9C33.6438 182.641 33.3457 182.511 32.9788 182.511C32.5736 182.511 32.2296 182.637 31.9468 182.889C31.6716 183.134 31.534 183.436 31.534 183.795V187.384H30.1351V181.456H31.534V182.258C31.7175 181.975 31.9697 181.75 32.2908 181.582C32.6195 181.406 32.9788 181.318 33.3686 181.318ZM39.2533 187.521C38.7946 187.521 38.336 187.445 37.8773 187.292C37.4187 187.132 37.0097 186.914 36.6504 186.638L37.2467 185.721C37.5677 185.95 37.9041 186.13 38.2557 186.26C38.615 186.382 38.9551 186.444 39.2762 186.444C39.5896 186.444 39.8342 186.382 40.01 186.26C40.1935 186.138 40.2852 185.973 40.2852 185.767C40.2852 185.553 40.182 185.392 39.9756 185.285C39.7769 185.178 39.4635 185.068 39.0354 184.953C38.5462 184.823 38.1525 184.693 37.8544 184.563C37.5639 184.425 37.3346 184.246 37.1664 184.024C37.0059 183.802 36.9256 183.52 36.9256 183.176C36.9256 182.816 37.0173 182.495 37.2008 182.212C37.3919 181.93 37.6556 181.712 37.992 181.559C38.336 181.398 38.7258 181.318 39.1615 181.318C39.5514 181.318 39.9412 181.383 40.3311 181.513C40.721 181.635 41.0879 181.807 41.4319 182.029L40.8815 182.969C40.5986 182.786 40.3082 182.644 40.01 182.545C39.7119 182.438 39.4291 182.384 39.1615 182.384C38.894 182.384 38.6723 182.446 38.4965 182.568C38.3207 182.683 38.2328 182.839 38.2328 183.038C38.2328 183.168 38.2748 183.271 38.3589 183.348C38.443 183.424 38.5615 183.493 38.7143 183.554C38.8672 183.608 39.1271 183.692 39.4941 183.806C39.9298 183.929 40.2891 184.051 40.5719 184.173C40.8547 184.296 41.0917 184.475 41.2828 184.712C41.4816 184.949 41.5809 185.259 41.5809 185.641C41.5809 186.207 41.3669 186.661 40.9388 187.005C40.5107 187.349 39.9489 187.521 39.2533 187.521ZM45.5958 187.521C45.0224 187.521 44.4912 187.384 44.0019 187.109C43.5127 186.826 43.1229 186.447 42.8324 185.973C42.5495 185.492 42.4081 184.972 42.4081 184.414C42.4081 183.856 42.5495 183.34 42.8324 182.866C43.1229 182.392 43.5127 182.018 44.0019 181.742C44.4912 181.46 45.0224 181.318 45.5958 181.318C46.1691 181.318 46.6965 181.46 47.1781 181.742C47.6673 182.018 48.0534 182.392 48.3362 182.866C48.6191 183.34 48.7605 183.856 48.7605 184.414C48.7605 184.972 48.6191 185.492 48.3362 185.973C48.0534 186.447 47.6673 186.826 47.1781 187.109C46.6965 187.384 46.1691 187.521 45.5958 187.521ZM45.5958 186.329C45.9168 186.329 46.2149 186.245 46.4901 186.077C46.7653 185.901 46.9832 185.668 47.1437 185.377C47.3119 185.079 47.396 184.758 47.396 184.414C47.396 184.07 47.3157 183.753 47.1552 183.462C46.9947 183.172 46.773 182.942 46.4901 182.774C46.2149 182.599 45.9168 182.511 45.5958 182.511C45.2671 182.511 44.9651 182.599 44.6899 182.774C44.4147 182.942 44.193 183.172 44.0249 183.462C43.8643 183.753 43.7841 184.07 43.7841 184.414C43.7841 184.758 43.8643 185.079 44.0249 185.377C44.193 185.668 44.4147 185.901 44.6899 186.077C44.9651 186.245 45.2671 186.329 45.5958 186.329ZM50.0556 179.369H51.4545V187.384H50.0556V179.369ZM55.8394 186.398C56.1375 186.398 56.4395 186.34 56.7453 186.226C57.051 186.111 57.2995 185.962 57.4906 185.779L58.2932 186.604C58.0409 186.872 57.6855 187.093 57.2268 187.269C56.7682 187.437 56.321 187.521 55.8853 187.521C55.3196 187.521 54.796 187.388 54.3144 187.12C53.8404 186.853 53.4621 186.482 53.1792 186.008C52.904 185.534 52.7664 184.999 52.7664 184.403C52.7664 183.814 52.9002 183.286 53.1678 182.82C53.4353 182.354 53.8022 181.987 54.2685 181.719C54.7348 181.452 55.247 181.318 55.805 181.318C56.7147 181.318 57.4256 181.632 57.9378 182.258C58.4576 182.885 58.7175 183.741 58.7175 184.827H54.1195C54.1959 185.301 54.387 185.683 54.6928 185.973C55.0062 186.256 55.3884 186.398 55.8394 186.398ZM55.8165 182.442C55.396 182.442 55.0329 182.576 54.7272 182.843C54.4214 183.103 54.2227 183.455 54.1309 183.898H57.3644C57.2956 183.462 57.1275 183.111 56.8599 182.843C56.6 182.576 56.2522 182.442 55.8165 182.442Z" fill="#464547"/>
<path d="M15.2064 89.1751H17.9698C18.8259 89.1751 19.5903 89.3433 20.263 89.6796C20.9357 90.016 21.4593 90.4823 21.8339 91.0785C22.2161 91.6748 22.4072 92.3513 22.4072 93.1081C22.4072 93.8648 22.2161 94.5452 21.8339 95.1491C21.4593 95.7453 20.9357 96.2116 20.263 96.548C19.5903 96.8843 18.8259 97.0525 17.9698 97.0525H15.2064V89.1751ZM18.1188 95.7568C18.6692 95.7568 19.1584 95.646 19.5865 95.4243C20.0146 95.1949 20.3471 94.8815 20.5841 94.484C20.8287 94.0789 20.951 93.6202 20.951 93.1081C20.951 92.5959 20.8287 92.1411 20.5841 91.7436C20.3471 91.3461 20.0146 91.0365 19.5865 90.8148C19.1584 90.5855 18.6692 90.4708 18.1188 90.4708H16.6282V95.7568H18.1188ZM26.4943 96.0664C26.7924 96.0664 27.0943 96.0091 27.4001 95.8944C27.7059 95.7797 27.9543 95.6307 28.1454 95.4472L28.9481 96.2728C28.6958 96.5403 28.3403 96.762 27.8817 96.9378C27.423 97.106 26.9758 97.1901 26.5401 97.1901C25.9745 97.1901 25.4508 97.0563 24.9692 96.7888C24.4953 96.5212 24.1169 96.1505 23.8341 95.6765C23.5589 95.2026 23.4213 94.6675 23.4213 94.0712C23.4213 93.4826 23.5551 92.9552 23.8226 92.4889C24.0902 92.0226 24.4571 91.6557 24.9234 91.3881C25.3897 91.1206 25.9018 90.9868 26.4599 90.9868C27.3695 90.9868 28.0804 91.3002 28.5926 91.927C29.1124 92.5539 29.3723 93.41 29.3723 94.4955H24.7743C24.8508 94.9694 25.0419 95.3516 25.3476 95.6421C25.661 95.925 26.0433 96.0664 26.4943 96.0664ZM26.4713 92.1105C26.0509 92.1105 25.6878 92.2443 25.382 92.5118C25.0763 92.7717 24.8775 93.1234 24.7858 93.5667H28.0193C27.9505 93.131 27.7823 92.7794 27.5148 92.5118C27.2549 92.2443 26.907 92.1105 26.4713 92.1105ZM29.875 91.1244H31.3657L33.0856 95.4357L34.7712 91.1244H36.2503L33.7392 97.0525H32.432L29.875 91.1244ZM41.0903 97.1901C40.3564 97.1901 39.6723 97.0066 39.0378 96.6397C38.4033 96.2651 37.8988 95.7644 37.5243 95.1376C37.1497 94.5108 36.9624 93.8343 36.9624 93.1081C36.9624 92.3819 37.1497 91.7092 37.5243 91.09C37.8988 90.4632 38.4033 89.9663 39.0378 89.5994C39.6723 89.2248 40.3564 89.0375 41.0903 89.0375C41.8241 89.0375 42.5083 89.2248 43.1428 89.5994C43.7772 89.9663 44.2817 90.4632 44.6563 91.09C45.0385 91.7092 45.2296 92.3819 45.2296 93.1081C45.2296 93.8343 45.0385 94.5108 44.6563 95.1376C44.2817 95.7644 43.7772 96.2651 43.1428 96.6397C42.5083 97.0066 41.8241 97.1901 41.0903 97.1901ZM41.0903 95.8829C41.5642 95.8829 42.0076 95.7568 42.4204 95.5045C42.8332 95.2523 43.158 94.9159 43.395 94.4955C43.6396 94.0674 43.7619 93.6049 43.7619 93.1081C43.7619 92.6188 43.6396 92.164 43.395 91.7436C43.158 91.3155 42.8332 90.9753 42.4204 90.7231C42.0076 90.4708 41.5642 90.3447 41.0903 90.3447C40.6163 90.3447 40.173 90.4708 39.7602 90.7231C39.355 90.9753 39.0302 91.3155 38.7855 91.7436C38.5409 92.164 38.4186 92.6188 38.4186 93.1081C38.4186 93.6049 38.5409 94.0674 38.7855 94.4955C39.0302 94.9159 39.355 95.2523 39.7602 95.5045C40.173 95.7568 40.6163 95.8829 41.0903 95.8829ZM50.1291 90.9868C50.6489 90.9868 51.1152 91.1206 51.528 91.3881C51.9408 91.648 52.2618 92.0149 52.4911 92.4889C52.7281 92.9552 52.8466 93.4865 52.8466 94.0827C52.8466 94.679 52.7281 95.2141 52.4911 95.688C52.2618 96.1619 51.9408 96.5327 51.528 96.8002C51.1152 97.0601 50.6489 97.1901 50.1291 97.1901C49.701 97.1901 49.3111 97.0984 48.9595 96.9149C48.6079 96.7314 48.3136 96.4715 48.0766 96.1352V99.0247H46.6777V91.1244H48.0766V92.0417C48.3136 91.7054 48.6079 91.4455 48.9595 91.262C49.3111 91.0785 49.701 90.9868 50.1291 90.9868ZM49.7507 95.9976C50.2476 95.9976 50.6565 95.8179 50.9776 95.4587C51.2986 95.0994 51.4592 94.6407 51.4592 94.0827C51.4592 93.5247 51.2986 93.0698 50.9776 92.7182C50.6565 92.3589 50.2476 92.1793 49.7507 92.1793C49.2615 92.1793 48.8601 92.3589 48.5467 92.7182C48.2333 93.0698 48.0766 93.5247 48.0766 94.0827C48.0766 94.6407 48.2333 95.0994 48.5467 95.4587C48.8601 95.8179 49.2615 95.9976 49.7507 95.9976ZM56.2438 97.1901C55.7851 97.1901 55.3265 97.1136 54.8678 96.9608C54.4091 96.8002 54.0002 96.5824 53.6409 96.3072L54.2372 95.3899C54.5582 95.6192 54.8946 95.7988 55.2462 95.9288C55.6055 96.0511 55.9456 96.1123 56.2667 96.1123C56.5801 96.1123 56.8247 96.0511 57.0005 95.9288C57.184 95.8065 57.2757 95.6421 57.2757 95.4357C57.2757 95.2217 57.1725 95.0612 56.9661 94.9542C56.7674 94.8471 56.454 94.7363 56.0259 94.6216C55.5367 94.4917 55.143 94.3617 54.8449 94.2318C54.5544 94.0942 54.3251 93.9145 54.1569 93.6929C53.9964 93.4712 53.9161 93.1883 53.9161 92.8443C53.9161 92.4851 54.0078 92.164 54.1913 91.8812C54.3824 91.5983 54.6461 91.3805 54.9825 91.2276C55.3265 91.0671 55.7163 90.9868 56.152 90.9868C56.5419 90.9868 56.9317 91.0518 57.3216 91.1817C57.7115 91.304 58.0784 91.476 58.4224 91.6977L57.872 92.6379C57.5891 92.4545 57.2987 92.3131 57.0005 92.2137C56.7024 92.1067 56.4196 92.0532 56.152 92.0532C55.8845 92.0532 55.6628 92.1143 55.487 92.2366C55.3112 92.3513 55.2233 92.508 55.2233 92.7067C55.2233 92.8367 55.2653 92.9399 55.3494 93.0163C55.4335 93.0928 55.552 93.1616 55.7048 93.2227C55.8577 93.2762 56.1176 93.3603 56.4846 93.475C56.9203 93.5973 57.2796 93.7196 57.5624 93.8419C57.8452 93.9642 58.0822 94.1439 58.2733 94.3808C58.4721 94.6178 58.5714 94.9274 58.5714 95.3096C58.5714 95.8753 58.3574 96.3301 57.9293 96.6741C57.5012 97.0181 56.9394 97.1901 56.2438 97.1901Z" fill="#464547"/>
<path d="M184.306 164.087C184.306 164.714 184.111 165.256 183.721 165.715C183.331 166.166 182.815 166.464 182.173 166.61L184.099 169.35H182.471L180.613 166.701H179.352V169.35H177.93V161.473H181.359C181.909 161.473 182.41 161.583 182.861 161.805C183.312 162.027 183.664 162.336 183.916 162.734C184.176 163.131 184.306 163.582 184.306 164.087ZM179.352 165.383H181.187C181.684 165.383 182.081 165.268 182.379 165.039C182.685 164.802 182.838 164.484 182.838 164.087C182.838 163.689 182.685 163.376 182.379 163.147C182.081 162.91 181.684 162.791 181.187 162.791H179.352V165.383ZM187.392 162.78V164.683H191.451V165.99H187.392V168.043H191.887V169.35H185.959V161.473H191.887V162.78H187.392ZM196.347 169.476C195.682 169.476 195.063 169.369 194.49 169.155C193.924 168.933 193.419 168.616 192.976 168.203L193.813 167.183C194.6 167.894 195.464 168.249 196.405 168.249C196.863 168.249 197.222 168.15 197.482 167.951C197.742 167.752 197.872 167.504 197.872 167.206C197.872 166.992 197.807 166.82 197.677 166.69C197.555 166.552 197.368 166.438 197.115 166.346C196.871 166.246 196.515 166.143 196.049 166.036C195.438 165.891 194.937 165.734 194.547 165.566C194.157 165.39 193.851 165.157 193.63 164.867C193.408 164.569 193.297 164.182 193.297 163.709C193.297 163.258 193.416 162.852 193.653 162.493C193.897 162.126 194.234 161.843 194.662 161.645C195.09 161.438 195.575 161.335 196.118 161.335C197.257 161.335 198.251 161.702 199.099 162.436L198.319 163.479C197.975 163.181 197.612 162.956 197.23 162.803C196.848 162.642 196.462 162.562 196.072 162.562C195.682 162.562 195.361 162.661 195.109 162.86C194.864 163.059 194.742 163.3 194.742 163.582C194.742 163.789 194.803 163.961 194.925 164.098C195.055 164.236 195.246 164.351 195.499 164.442C195.759 164.534 196.114 164.633 196.565 164.741C197.475 164.947 198.159 165.222 198.618 165.566C199.076 165.902 199.306 166.403 199.306 167.068C199.306 167.542 199.187 167.963 198.95 168.329C198.721 168.689 198.384 168.972 197.941 169.178C197.498 169.377 196.966 169.476 196.347 169.476ZM202.696 162.78H200.173V161.473H206.64V162.78H204.129V169.35H202.696V162.78ZM216.381 167.859H212.62L212.001 169.35H210.407L213.698 161.473H215.292L218.582 169.35H217L216.381 167.859ZM215.888 166.69L214.5 163.376L213.113 166.69H215.888ZM219.955 161.473H223.383C223.934 161.473 224.434 161.583 224.885 161.805C225.336 162.027 225.688 162.336 225.94 162.734C226.2 163.131 226.33 163.582 226.33 164.087C226.33 164.591 226.2 165.042 225.94 165.44C225.688 165.837 225.336 166.147 224.885 166.369C224.434 166.59 223.934 166.701 223.383 166.701H221.377V169.35H219.955V161.473ZM223.211 165.383C223.708 165.383 224.106 165.268 224.404 165.039C224.71 164.802 224.863 164.484 224.863 164.087C224.863 163.689 224.71 163.376 224.404 163.147C224.106 162.91 223.708 162.791 223.211 162.791H221.377V165.383H223.211ZM227.894 161.473H229.316V169.35H227.894V161.473Z" fill="#464547"/>
<path d="M191.827 211.466C191.094 211.466 190.409 211.282 189.775 210.915C189.141 210.541 188.636 210.04 188.261 209.413C187.887 208.786 187.7 208.11 187.7 207.384C187.7 206.658 187.887 205.985 188.261 205.366C188.636 204.739 189.141 204.242 189.775 203.875C190.409 203.5 191.094 203.313 191.827 203.313C192.393 203.313 192.932 203.428 193.444 203.657C193.964 203.879 194.419 204.188 194.809 204.586L193.788 205.538C193.536 205.247 193.238 205.022 192.894 204.861C192.558 204.701 192.202 204.62 191.827 204.62C191.354 204.62 190.91 204.746 190.497 204.999C190.092 205.251 189.767 205.591 189.523 206.019C189.278 206.44 189.156 206.894 189.156 207.384C189.156 207.881 189.278 208.343 189.523 208.771C189.767 209.192 190.092 209.528 190.497 209.78C190.91 210.032 191.354 210.159 191.827 210.159C192.202 210.159 192.558 210.078 192.894 209.918C193.238 209.757 193.54 209.532 193.8 209.241L194.809 210.181C194.427 210.587 193.976 210.904 193.456 211.133C192.944 211.355 192.401 211.466 191.827 211.466ZM196.071 203.313H197.47V211.328H196.071V203.313ZM201.947 211.466C201.373 211.466 200.842 211.328 200.353 211.053C199.864 210.77 199.474 210.392 199.183 209.918C198.9 209.436 198.759 208.916 198.759 208.358C198.759 207.8 198.9 207.284 199.183 206.81C199.474 206.336 199.864 205.962 200.353 205.687C200.842 205.404 201.373 205.262 201.947 205.262C202.52 205.262 203.047 205.404 203.529 205.687C204.018 205.962 204.404 206.336 204.687 206.81C204.97 207.284 205.111 207.8 205.111 208.358C205.111 208.916 204.97 209.436 204.687 209.918C204.404 210.392 204.018 210.77 203.529 211.053C203.047 211.328 202.52 211.466 201.947 211.466ZM201.947 210.273C202.268 210.273 202.566 210.189 202.841 210.021C203.116 209.845 203.334 209.612 203.495 209.322C203.663 209.023 203.747 208.702 203.747 208.358C203.747 208.014 203.667 207.697 203.506 207.407C203.346 207.116 203.124 206.887 202.841 206.719C202.566 206.543 202.268 206.455 201.947 206.455C201.618 206.455 201.316 206.543 201.041 206.719C200.766 206.887 200.544 207.116 200.376 207.407C200.215 207.697 200.135 208.014 200.135 208.358C200.135 208.702 200.215 209.023 200.376 209.322C200.544 209.612 200.766 209.845 201.041 210.021C201.316 210.189 201.618 210.273 201.947 210.273ZM211.727 205.4V211.328H210.328V210.525C210.145 210.808 209.889 211.038 209.56 211.213C209.231 211.382 208.872 211.466 208.482 211.466C208.054 211.466 207.672 211.37 207.335 211.179C207.007 210.98 206.747 210.709 206.556 210.365C206.372 210.013 206.28 209.616 206.28 209.172V205.4H207.645V208.897C207.645 209.302 207.76 209.635 207.989 209.895C208.218 210.147 208.516 210.273 208.883 210.273C209.288 210.273 209.629 210.151 209.904 209.906C210.187 209.654 210.328 209.348 210.328 208.989V205.4H211.727ZM219.251 203.313V211.328H217.852V210.388C217.623 210.732 217.329 210.999 216.969 211.191C216.618 211.374 216.228 211.466 215.8 211.466C215.28 211.466 214.81 211.336 214.39 211.076C213.977 210.808 213.652 210.438 213.415 209.964C213.186 209.49 213.071 208.955 213.071 208.358C213.071 207.762 213.186 207.231 213.415 206.765C213.652 206.291 213.977 205.924 214.39 205.664C214.81 205.396 215.28 205.262 215.8 205.262C216.228 205.262 216.618 205.358 216.969 205.549C217.329 205.733 217.623 205.992 217.852 206.329V203.313H219.251ZM216.167 210.273C216.656 210.273 217.057 210.094 217.371 209.734C217.684 209.375 217.841 208.916 217.841 208.358C217.841 207.8 217.684 207.345 217.371 206.994C217.057 206.635 216.656 206.455 216.167 206.455C215.67 206.455 215.261 206.635 214.94 206.994C214.619 207.345 214.458 207.8 214.458 208.358C214.458 208.916 214.619 209.375 214.94 209.734C215.261 210.094 215.67 210.273 216.167 210.273Z" fill="#464547"/>
<path d="M176.233 225.225C175.5 225.225 174.815 225.042 174.181 224.675C173.546 224.3 173.042 223.8 172.667 223.173C172.293 222.546 172.105 221.869 172.105 221.143C172.105 220.417 172.293 219.744 172.667 219.125C173.042 218.498 173.546 218.001 174.181 217.635C174.815 217.26 175.5 217.073 176.233 217.073C176.799 217.073 177.338 217.187 177.85 217.417C178.37 217.638 178.825 217.948 179.215 218.345L178.194 219.297C177.942 219.007 177.644 218.781 177.3 218.621C176.963 218.46 176.608 218.38 176.233 218.38C175.759 218.38 175.316 218.506 174.903 218.758C174.498 219.01 174.173 219.351 173.929 219.779C173.684 220.199 173.562 220.654 173.562 221.143C173.562 221.64 173.684 222.103 173.929 222.531C174.173 222.951 174.498 223.287 174.903 223.54C175.316 223.792 175.759 223.918 176.233 223.918C176.608 223.918 176.963 223.838 177.3 223.677C177.644 223.517 177.946 223.291 178.206 223.001L179.215 223.941C178.832 224.346 178.381 224.663 177.862 224.893C177.349 225.114 176.807 225.225 176.233 225.225ZM183.206 225.225C182.633 225.225 182.101 225.088 181.612 224.812C181.123 224.53 180.733 224.151 180.443 223.677C180.16 223.196 180.018 222.676 180.018 222.118C180.018 221.56 180.16 221.044 180.443 220.57C180.733 220.096 181.123 219.721 181.612 219.446C182.101 219.163 182.633 219.022 183.206 219.022C183.779 219.022 184.307 219.163 184.788 219.446C185.278 219.721 185.664 220.096 185.947 220.57C186.229 221.044 186.371 221.56 186.371 222.118C186.371 222.676 186.229 223.196 185.947 223.677C185.664 224.151 185.278 224.53 184.788 224.812C184.307 225.088 183.779 225.225 183.206 225.225ZM183.206 224.033C183.527 224.033 183.825 223.949 184.1 223.78C184.376 223.605 184.593 223.372 184.754 223.081C184.922 222.783 185.006 222.462 185.006 222.118C185.006 221.774 184.926 221.457 184.765 221.166C184.605 220.876 184.383 220.646 184.1 220.478C183.825 220.302 183.527 220.214 183.206 220.214C182.877 220.214 182.575 220.302 182.3 220.478C182.025 220.646 181.803 220.876 181.635 221.166C181.475 221.457 181.394 221.774 181.394 222.118C181.394 222.462 181.475 222.783 181.635 223.081C181.803 223.372 182.025 223.605 182.3 223.78C182.575 223.949 182.877 224.033 183.206 224.033ZM190.899 219.022C191.328 219.022 191.71 219.121 192.046 219.32C192.382 219.511 192.642 219.783 192.826 220.134C193.017 220.478 193.112 220.872 193.112 221.315V225.088H191.748V221.59C191.748 221.185 191.633 220.857 191.404 220.604C191.175 220.344 190.877 220.214 190.51 220.214C190.104 220.214 189.76 220.341 189.478 220.593C189.202 220.837 189.065 221.139 189.065 221.499V225.088H187.666V219.16H189.065V219.962C189.248 219.679 189.501 219.454 189.822 219.286C190.15 219.11 190.51 219.022 190.899 219.022ZM197.965 219.022C198.393 219.022 198.775 219.121 199.112 219.32C199.448 219.511 199.708 219.783 199.891 220.134C200.083 220.478 200.178 220.872 200.178 221.315V225.088H198.814V221.59C198.814 221.185 198.699 220.857 198.47 220.604C198.24 220.344 197.942 220.214 197.575 220.214C197.17 220.214 196.826 220.341 196.543 220.593C196.268 220.837 196.131 221.139 196.131 221.499V225.088H194.732V219.16H196.131V219.962C196.314 219.679 196.566 219.454 196.887 219.286C197.216 219.11 197.575 219.022 197.965 219.022ZM204.435 224.102C204.733 224.102 205.035 224.044 205.34 223.93C205.646 223.815 205.895 223.666 206.086 223.482L206.888 224.308C206.636 224.575 206.281 224.797 205.822 224.973C205.363 225.141 204.916 225.225 204.48 225.225C203.915 225.225 203.391 225.091 202.91 224.824C202.436 224.556 202.057 224.186 201.774 223.712C201.499 223.238 201.362 222.703 201.362 222.106C201.362 221.518 201.495 220.99 201.763 220.524C202.03 220.058 202.397 219.691 202.864 219.423C203.33 219.156 203.842 219.022 204.4 219.022C205.31 219.022 206.021 219.335 206.533 219.962C207.053 220.589 207.313 221.445 207.313 222.531H202.715C202.791 223.005 202.982 223.387 203.288 223.677C203.601 223.96 203.984 224.102 204.435 224.102ZM204.412 220.146C203.991 220.146 203.628 220.279 203.322 220.547C203.017 220.807 202.818 221.159 202.726 221.602H205.96C205.891 221.166 205.723 220.815 205.455 220.547C205.195 220.279 204.847 220.146 204.412 220.146ZM211.278 225.225C210.712 225.225 210.185 225.084 209.696 224.801C209.214 224.518 208.828 224.14 208.538 223.666C208.247 223.184 208.102 222.668 208.102 222.118C208.102 221.567 208.247 221.055 208.538 220.581C208.828 220.107 209.218 219.729 209.707 219.446C210.197 219.163 210.724 219.022 211.29 219.022C211.733 219.022 212.146 219.11 212.528 219.286C212.91 219.454 213.247 219.687 213.537 219.985L212.597 220.811C212.436 220.627 212.238 220.482 212.001 220.375C211.764 220.268 211.523 220.214 211.278 220.214C210.957 220.214 210.659 220.302 210.384 220.478C210.109 220.646 209.891 220.88 209.73 221.178C209.57 221.468 209.489 221.782 209.489 222.118C209.489 222.462 209.57 222.783 209.73 223.081C209.891 223.372 210.109 223.605 210.384 223.78C210.659 223.949 210.957 224.033 211.278 224.033C211.53 224.033 211.775 223.979 212.012 223.872C212.257 223.758 212.463 223.605 212.631 223.414L213.571 224.228C213.273 224.541 212.929 224.786 212.539 224.962C212.15 225.137 211.729 225.225 211.278 225.225ZM217.862 224.755C217.694 224.9 217.495 225.015 217.266 225.099C217.044 225.183 216.818 225.225 216.589 225.225C216.1 225.225 215.699 225.065 215.385 224.744C215.079 224.423 214.927 224.014 214.927 223.517V220.318H214.067V219.16H214.927V217.531H216.28V219.16H217.621V220.318H216.28V223.345C216.28 223.544 216.337 223.708 216.452 223.838C216.566 223.968 216.708 224.033 216.876 224.033C216.99 224.033 217.097 224.014 217.197 223.975C217.304 223.937 217.392 223.884 217.461 223.815L217.862 224.755ZM221.737 225.225C221.164 225.225 220.632 225.088 220.143 224.812C219.654 224.53 219.264 224.151 218.974 223.677C218.691 223.196 218.549 222.676 218.549 222.118C218.549 221.56 218.691 221.044 218.974 220.57C219.264 220.096 219.654 219.721 220.143 219.446C220.632 219.163 221.164 219.022 221.737 219.022C222.31 219.022 222.838 219.163 223.319 219.446C223.809 219.721 224.195 220.096 224.477 220.57C224.76 221.044 224.902 221.56 224.902 222.118C224.902 222.676 224.76 223.196 224.477 223.677C224.195 224.151 223.809 224.53 223.319 224.812C222.838 225.088 222.31 225.225 221.737 225.225ZM221.737 224.033C222.058 224.033 222.356 223.949 222.631 223.78C222.907 223.605 223.124 223.372 223.285 223.081C223.453 222.783 223.537 222.462 223.537 222.118C223.537 221.774 223.457 221.457 223.296 221.166C223.136 220.876 222.914 220.646 222.631 220.478C222.356 220.302 222.058 220.214 221.737 220.214C221.408 220.214 221.106 220.302 220.831 220.478C220.556 220.646 220.334 220.876 220.166 221.166C220.006 221.457 219.925 221.774 219.925 222.118C219.925 222.462 220.006 222.783 220.166 223.081C220.334 223.372 220.556 223.605 220.831 223.78C221.106 223.949 221.408 224.033 221.737 224.033ZM227.596 220.283C227.787 219.893 228.07 219.588 228.444 219.366C228.819 219.137 229.243 219.022 229.717 219.022V220.214C229.083 220.214 228.57 220.386 228.181 220.73C227.791 221.074 227.596 221.529 227.596 222.095V225.088H226.197V219.16H227.596V220.283ZM233.042 225.225C232.583 225.225 232.125 225.149 231.666 224.996C231.207 224.835 230.798 224.618 230.439 224.342L231.035 223.425C231.356 223.654 231.693 223.834 232.044 223.964C232.404 224.086 232.744 224.147 233.065 224.147C233.378 224.147 233.623 224.086 233.799 223.964C233.982 223.842 234.074 223.677 234.074 223.471C234.074 223.257 233.971 223.096 233.764 222.989C233.566 222.882 233.252 222.771 232.824 222.657C232.335 222.527 231.941 222.397 231.643 222.267C231.353 222.129 231.123 221.95 230.955 221.728C230.795 221.506 230.714 221.223 230.714 220.88C230.714 220.52 230.806 220.199 230.989 219.916C231.181 219.633 231.444 219.416 231.781 219.263C232.125 219.102 232.514 219.022 232.95 219.022C233.34 219.022 233.73 219.087 234.12 219.217C234.51 219.339 234.877 219.511 235.221 219.733L234.67 220.673C234.387 220.49 234.097 220.348 233.799 220.249C233.501 220.142 233.218 220.088 232.95 220.088C232.683 220.088 232.461 220.149 232.285 220.272C232.109 220.386 232.021 220.543 232.021 220.742C232.021 220.872 232.063 220.975 232.148 221.051C232.232 221.128 232.35 221.197 232.503 221.258C232.656 221.311 232.916 221.395 233.283 221.51C233.718 221.632 234.078 221.755 234.361 221.877C234.643 221.999 234.88 222.179 235.071 222.416C235.27 222.653 235.37 222.963 235.37 223.345C235.37 223.91 235.156 224.365 234.727 224.709C234.299 225.053 233.738 225.225 233.042 225.225Z" fill="#464547"/>
<path d="M414.737 354.238C413.71 354.238 412.752 353.981 411.864 353.468C410.976 352.943 410.269 352.242 409.745 351.365C409.221 350.487 408.958 349.54 408.958 348.523C408.958 347.507 409.221 346.565 409.745 345.698C410.269 344.82 410.976 344.125 411.864 343.611C412.752 343.087 413.71 342.824 414.737 342.824C415.529 342.824 416.284 342.985 417.001 343.306C417.729 343.616 418.365 344.05 418.911 344.606L417.482 345.939C417.129 345.532 416.712 345.216 416.23 344.992C415.759 344.767 415.262 344.654 414.737 344.654C414.074 344.654 413.453 344.831 412.875 345.184C412.308 345.537 411.853 346.014 411.511 346.613C411.168 347.202 410.997 347.838 410.997 348.523C410.997 349.219 411.168 349.866 411.511 350.466C411.853 351.054 412.308 351.525 412.875 351.878C413.453 352.231 414.074 352.408 414.737 352.408C415.262 352.408 415.759 352.296 416.23 352.071C416.712 351.846 417.135 351.53 417.499 351.124L418.911 352.44C418.376 353.007 417.745 353.451 417.017 353.773C416.3 354.083 415.54 354.238 414.737 354.238ZM424.499 354.238C423.697 354.238 422.953 354.045 422.268 353.66C421.583 353.264 421.037 352.734 420.63 352.071C420.235 351.397 420.037 350.669 420.037 349.888C420.037 349.106 420.235 348.384 420.63 347.721C421.037 347.057 421.583 346.533 422.268 346.147C422.953 345.751 423.697 345.553 424.499 345.553C425.302 345.553 426.04 345.751 426.715 346.147C427.399 346.533 427.94 347.057 428.336 347.721C428.732 348.384 428.93 349.106 428.93 349.888C428.93 350.669 428.732 351.397 428.336 352.071C427.94 352.734 427.399 353.264 426.715 353.66C426.04 354.045 425.302 354.238 424.499 354.238ZM424.499 352.569C424.949 352.569 425.366 352.451 425.751 352.215C426.137 351.969 426.442 351.643 426.666 351.236C426.902 350.819 427.02 350.369 427.02 349.888C427.02 349.406 426.907 348.962 426.682 348.555C426.458 348.149 426.147 347.828 425.751 347.592C425.366 347.346 424.949 347.223 424.499 347.223C424.039 347.223 423.616 347.346 423.231 347.592C422.846 347.828 422.535 348.149 422.3 348.555C422.075 348.962 421.963 349.406 421.963 349.888C421.963 350.369 422.075 350.819 422.3 351.236C422.535 351.643 422.846 351.969 423.231 352.215C423.616 352.451 424.039 352.569 424.499 352.569ZM435.27 345.553C435.869 345.553 436.404 345.693 436.875 345.971C437.346 346.238 437.71 346.618 437.967 347.111C438.234 347.592 438.368 348.143 438.368 348.764V354.045H436.458V349.149C436.458 348.582 436.297 348.122 435.976 347.769C435.655 347.405 435.238 347.223 434.724 347.223C434.157 347.223 433.675 347.4 433.279 347.753C432.894 348.095 432.701 348.518 432.701 349.021V354.045H430.743V345.746H432.701V346.87C432.958 346.474 433.311 346.158 433.761 345.923C434.221 345.677 434.724 345.553 435.27 345.553ZM445.082 353.58C444.846 353.783 444.568 353.944 444.247 354.061C443.937 354.179 443.621 354.238 443.3 354.238C442.615 354.238 442.053 354.013 441.614 353.564C441.186 353.114 440.972 352.542 440.972 351.846V347.367H439.768V345.746H440.972V343.467H442.866V345.746H444.745V347.367H442.866V351.605C442.866 351.884 442.947 352.114 443.107 352.296C443.268 352.478 443.466 352.569 443.701 352.569C443.862 352.569 444.011 352.542 444.151 352.488C444.3 352.435 444.423 352.36 444.52 352.264L445.082 353.58ZM448.645 347.319C448.912 346.773 449.308 346.345 449.833 346.035C450.357 345.714 450.951 345.553 451.614 345.553V347.223C450.726 347.223 450.009 347.464 449.463 347.945C448.918 348.427 448.645 349.064 448.645 349.856V354.045H446.686V345.746H448.645V347.319ZM457.216 354.238C456.414 354.238 455.67 354.045 454.985 353.66C454.3 353.264 453.754 352.734 453.348 352.071C452.952 351.397 452.754 350.669 452.754 349.888C452.754 349.106 452.952 348.384 453.348 347.721C453.754 347.057 454.3 346.533 454.985 346.147C455.67 345.751 456.414 345.553 457.216 345.553C458.019 345.553 458.757 345.751 459.432 346.147C460.117 346.533 460.657 347.057 461.053 347.721C461.449 348.384 461.647 349.106 461.647 349.888C461.647 350.669 461.449 351.397 461.053 352.071C460.657 352.734 460.117 353.264 459.432 353.66C458.757 354.045 458.019 354.238 457.216 354.238ZM457.216 352.569C457.666 352.569 458.083 352.451 458.468 352.215C458.854 351.969 459.159 351.643 459.383 351.236C459.619 350.819 459.737 350.369 459.737 349.888C459.737 349.406 459.624 348.962 459.4 348.555C459.175 348.149 458.864 347.828 458.468 347.592C458.083 347.346 457.666 347.223 457.216 347.223C456.756 347.223 456.333 347.346 455.948 347.592C455.563 347.828 455.253 348.149 455.017 348.555C454.792 348.962 454.68 349.406 454.68 349.888C454.68 350.369 454.792 350.819 455.017 351.236C455.253 351.643 455.563 351.969 455.948 352.215C456.333 352.451 456.756 352.569 457.216 352.569ZM463.46 342.824H465.419V354.045H463.46V342.824Z" fill="#464547"/>
<path d="M387.513 18.7149H382.248L381.381 20.8018H379.149L383.757 9.77343H385.988L390.595 20.8018H388.38L387.513 18.7149ZM386.823 17.0775L384.88 12.4382L382.938 17.0775H386.823ZM397.043 12.3098C397.771 12.3098 398.424 12.4971 399.002 12.8716C399.58 13.2355 400.029 13.7492 400.35 14.4127C400.682 15.0655 400.848 15.8093 400.848 16.6441C400.848 17.4788 400.682 18.2279 400.35 18.8915C400.029 19.555 399.58 20.074 399.002 20.4486C398.424 20.8125 397.771 20.9944 397.043 20.9944C396.444 20.9944 395.898 20.866 395.406 20.6091C394.914 20.3523 394.502 19.9884 394.17 19.5175V23.5629H392.212V12.5024H394.17V13.7867C394.502 13.3158 394.914 12.9519 395.406 12.6951C395.898 12.4382 396.444 12.3098 397.043 12.3098ZM396.514 19.3249C397.209 19.3249 397.782 19.0734 398.231 18.5704C398.681 18.0674 398.906 17.4253 398.906 16.6441C398.906 15.8628 398.681 15.2261 398.231 14.7338C397.782 14.2308 397.209 13.9793 396.514 13.9793C395.829 13.9793 395.267 14.2308 394.828 14.7338C394.389 15.2261 394.17 15.8628 394.17 16.6441C394.17 17.4253 394.389 18.0674 394.828 18.5704C395.267 19.0734 395.829 19.3249 396.514 19.3249ZM407.562 12.3098C408.29 12.3098 408.943 12.4971 409.521 12.8716C410.099 13.2355 410.548 13.7492 410.869 14.4127C411.201 15.0655 411.367 15.8093 411.367 16.6441C411.367 17.4788 411.201 18.2279 410.869 18.8915C410.548 19.555 410.099 20.074 409.521 20.4486C408.943 20.8125 408.29 20.9944 407.562 20.9944C406.963 20.9944 406.417 20.866 405.925 20.6091C405.433 20.3523 405.021 19.9884 404.689 19.5175V23.5629H402.731V12.5024H404.689V13.7867C405.021 13.3158 405.433 12.9519 405.925 12.6951C406.417 12.4382 406.963 12.3098 407.562 12.3098ZM407.033 19.3249C407.728 19.3249 408.301 19.0734 408.75 18.5704C409.2 18.0674 409.425 17.4253 409.425 16.6441C409.425 15.8628 409.2 15.2261 408.75 14.7338C408.301 14.2308 407.728 13.9793 407.033 13.9793C406.348 13.9793 405.786 14.2308 405.347 14.7338C404.908 15.2261 404.689 15.8628 404.689 16.6441C404.689 17.4253 404.908 18.0674 405.347 18.5704C405.786 19.0734 406.348 19.3249 407.033 19.3249ZM420.416 11.6035H416.885V9.77343H425.938V11.6035H422.423V20.8018H420.416V11.6035ZM431.333 19.4212C431.75 19.4212 432.173 19.3409 432.601 19.1804C433.029 19.0199 433.377 18.8112 433.644 18.5544L434.768 19.7102C434.415 20.0847 433.917 20.3951 433.275 20.6412C432.633 20.8767 432.007 20.9944 431.397 20.9944C430.605 20.9944 429.872 20.8071 429.198 20.4325C428.534 20.058 428.005 19.5389 427.609 18.8754C427.223 18.2119 427.031 17.4628 427.031 16.628C427.031 15.804 427.218 15.0655 427.593 14.4127C427.967 13.7599 428.481 13.2462 429.134 12.8716C429.786 12.4971 430.503 12.3098 431.285 12.3098C432.558 12.3098 433.554 12.7486 434.271 13.6261C434.998 14.5037 435.362 15.7023 435.362 17.222H428.925C429.032 17.8855 429.3 18.4206 429.728 18.8273C430.166 19.2232 430.701 19.4212 431.333 19.4212ZM431.301 13.883C430.712 13.883 430.204 14.0703 429.776 14.4448C429.348 14.8087 429.069 15.301 428.941 15.9217H433.468C433.372 15.3117 433.136 14.8194 432.762 14.4448C432.398 14.0703 431.911 13.883 431.301 13.883ZM437.109 9.5808H439.068V20.8018H437.109V9.5808ZM445.207 19.4212C445.624 19.4212 446.047 19.3409 446.475 19.1804C446.903 19.0199 447.251 18.8112 447.518 18.5544L448.642 19.7102C448.289 20.0847 447.791 20.3951 447.149 20.6412C446.507 20.8767 445.881 20.9944 445.271 20.9944C444.479 20.9944 443.746 20.8071 443.072 20.4325C442.408 20.058 441.878 19.5389 441.482 18.8754C441.097 18.2119 440.905 17.4628 440.905 16.628C440.905 15.804 441.092 15.0655 441.466 14.4127C441.841 13.7599 442.355 13.2462 443.007 12.8716C443.66 12.4971 444.377 12.3098 445.159 12.3098C446.432 12.3098 447.427 12.7486 448.144 13.6261C448.872 14.5037 449.236 15.7023 449.236 17.222H442.799C442.906 17.8855 443.173 18.4206 443.601 18.8273C444.04 19.2232 444.575 19.4212 445.207 19.4212ZM445.175 13.883C444.586 13.883 444.078 14.0703 443.65 14.4448C443.221 14.8087 442.943 15.301 442.815 15.9217H447.342C447.245 15.3117 447.01 14.8194 446.635 14.4448C446.272 14.0703 445.785 13.883 445.175 13.883ZM460.583 12.3098C461.15 12.3098 461.664 12.4489 462.124 12.7272C462.595 12.9947 462.959 13.3746 463.216 13.8669C463.483 14.3485 463.617 14.8997 463.617 15.5204V20.8018H461.707V15.8414C461.707 15.2956 461.557 14.8515 461.257 14.509C460.957 14.1559 460.572 13.9793 460.101 13.9793C459.566 13.9793 459.127 14.1452 458.785 14.4769C458.442 14.798 458.271 15.21 458.271 15.713V20.8018H456.377V15.8414C456.377 15.2956 456.222 14.8515 455.911 14.509C455.612 14.1559 455.227 13.9793 454.756 13.9793C454.231 13.9793 453.798 14.1452 453.455 14.4769C453.113 14.798 452.942 15.21 452.942 15.713V20.8018H450.983V12.5024H452.942V13.6261C453.156 13.2195 453.466 12.8984 453.873 12.663C454.279 12.4275 454.74 12.3098 455.253 12.3098C455.906 12.3098 456.484 12.4864 456.987 12.8395C457.49 13.1927 457.848 13.6743 458.063 14.2843C458.18 13.685 458.464 13.2087 458.913 12.8556C459.374 12.4917 459.93 12.3098 460.583 12.3098ZM469.553 19.4212C469.97 19.4212 470.393 19.3409 470.821 19.1804C471.249 19.0199 471.597 18.8112 471.864 18.5544L472.988 19.7102C472.635 20.0847 472.137 20.3951 471.495 20.6412C470.853 20.8767 470.227 20.9944 469.617 20.9944C468.825 20.9944 468.092 20.8071 467.417 20.4325C466.754 20.058 466.224 19.5389 465.828 18.8754C465.443 18.2119 465.25 17.4628 465.25 16.628C465.25 15.804 465.438 15.0655 465.812 14.4127C466.187 13.7599 466.7 13.2462 467.353 12.8716C468.006 12.4971 468.723 12.3098 469.504 12.3098C470.778 12.3098 471.773 12.7486 472.49 13.6261C473.218 14.5037 473.582 15.7023 473.582 17.222H467.145C467.252 17.8855 467.519 18.4206 467.947 18.8273C468.386 19.2232 468.921 19.4212 469.553 19.4212ZM469.52 13.883C468.932 13.883 468.423 14.0703 467.995 14.4448C467.567 14.8087 467.289 15.301 467.161 15.9217H471.688C471.591 15.3117 471.356 14.8194 470.981 14.4448C470.617 14.0703 470.13 13.883 469.52 13.883ZM479.776 20.3362C479.54 20.5396 479.262 20.7001 478.941 20.8178C478.631 20.9355 478.315 20.9944 477.994 20.9944C477.309 20.9944 476.747 20.7697 476.308 20.3202C475.88 19.8707 475.666 19.2981 475.666 18.6025V14.1238H474.462V12.5024H475.666V10.2229H477.56V12.5024H479.439V14.1238H477.56V18.3617C477.56 18.64 477.641 18.8701 477.801 19.052C477.962 19.2339 478.16 19.3249 478.395 19.3249C478.556 19.3249 478.705 19.2981 478.845 19.2446C478.994 19.1911 479.118 19.1162 479.214 19.0199L479.776 20.3362ZM483.339 14.0756C483.606 13.5298 484.002 13.1017 484.527 12.7914C485.051 12.4703 485.645 12.3098 486.308 12.3098V13.9793C485.42 13.9793 484.703 14.2201 484.157 14.7017C483.612 15.1833 483.339 15.82 483.339 16.612V20.8018H481.38V12.5024H483.339V14.0756ZM489.486 23.6913C489.176 23.6913 488.855 23.6538 488.523 23.5789C488.202 23.504 487.919 23.397 487.672 23.2578L488.09 21.8452C488.464 22.0485 488.818 22.1502 489.149 22.1502C489.642 22.1502 489.995 21.9683 490.209 21.6044L490.562 20.866L487.046 12.5024H489.117L491.541 18.6988L493.821 12.5024H495.843L492.328 21.3797C491.718 22.8993 490.771 23.6699 489.486 23.6913Z" fill="#464547"/>
<path d="M361.521 186.025H356.256L355.389 188.112H353.157L357.764 177.084H359.996L364.603 188.112H362.388L361.521 186.025ZM360.831 184.388L358.888 179.748L356.946 184.388H360.831ZM376.863 177.084L372.255 188.112H370.024L365.417 177.084H367.632L371.148 185.447L374.647 177.084H376.863ZM378.799 177.084H380.79V188.112H378.799V177.084ZM393.293 188.305C392.266 188.305 391.308 188.048 390.42 187.534C389.532 187.01 388.825 186.309 388.301 185.431C387.776 184.554 387.514 183.606 387.514 182.59C387.514 181.573 387.776 180.631 388.301 179.764C388.825 178.887 389.532 178.191 390.42 177.678C391.308 177.153 392.266 176.891 393.293 176.891C394.085 176.891 394.84 177.052 395.557 177.373C396.284 177.683 396.921 178.116 397.467 178.673L396.038 180.005C395.685 179.599 395.268 179.283 394.786 179.058C394.315 178.833 393.818 178.721 393.293 178.721C392.63 178.721 392.009 178.898 391.431 179.251C390.864 179.604 390.409 180.08 390.067 180.679C389.724 181.268 389.553 181.905 389.553 182.59C389.553 183.285 389.724 183.933 390.067 184.532C390.409 185.121 390.864 185.592 391.431 185.945C392.009 186.298 392.63 186.475 393.293 186.475C393.818 186.475 394.315 186.362 394.786 186.137C395.268 185.913 395.69 185.597 396.054 185.19L397.467 186.507C396.932 187.074 396.3 187.518 395.573 187.839C394.856 188.149 394.096 188.305 393.293 188.305ZM404.596 188.305C403.569 188.305 402.611 188.048 401.723 187.534C400.834 187.01 400.128 186.309 399.604 185.431C399.079 184.554 398.817 183.606 398.817 182.59C398.817 181.573 399.079 180.631 399.604 179.764C400.128 178.887 400.834 178.191 401.723 177.678C402.611 177.153 403.569 176.891 404.596 176.891C405.623 176.891 406.581 177.153 407.47 177.678C408.358 178.191 409.064 178.887 409.589 179.764C410.124 180.631 410.391 181.573 410.391 182.59C410.391 183.606 410.124 184.554 409.589 185.431C409.064 186.309 408.358 187.01 407.47 187.534C406.581 188.048 405.623 188.305 404.596 188.305ZM404.596 186.475C405.26 186.475 405.88 186.298 406.458 185.945C407.036 185.592 407.491 185.121 407.823 184.532C408.165 183.933 408.336 183.285 408.336 182.59C408.336 181.905 408.165 181.268 407.823 180.679C407.491 180.08 407.036 179.604 406.458 179.251C405.88 178.898 405.26 178.721 404.596 178.721C403.933 178.721 403.312 178.898 402.734 179.251C402.167 179.604 401.712 180.08 401.369 180.679C401.027 181.268 400.856 181.905 400.856 182.59C400.856 183.285 401.027 183.933 401.369 184.532C401.712 185.121 402.167 185.592 402.734 185.945C403.312 186.298 403.933 186.475 404.596 186.475ZM412.723 177.084H414.714L420.541 184.837V177.084H422.532V188.112H420.541L414.714 180.358V188.112H412.723V177.084ZM428.05 178.914H424.519V177.084H433.573V178.914H430.057V188.112H428.05V178.914ZM444.505 180.744C444.505 181.621 444.233 182.381 443.687 183.023C443.141 183.655 442.419 184.072 441.52 184.275L444.216 188.112H441.937L439.336 184.404H437.571V188.112H435.58V177.084H440.38C441.15 177.084 441.851 177.239 442.483 177.549C443.114 177.86 443.606 178.293 443.96 178.849C444.323 179.406 444.505 180.037 444.505 180.744ZM437.571 182.558H440.139C440.835 182.558 441.391 182.397 441.809 182.076C442.237 181.744 442.451 181.3 442.451 180.744C442.451 180.187 442.237 179.748 441.809 179.427C441.391 179.096 440.835 178.93 440.139 178.93H437.571V182.558ZM451.877 188.305C450.849 188.305 449.892 188.048 449.003 187.534C448.115 187.01 447.409 186.309 446.884 185.431C446.36 184.554 446.098 183.606 446.098 182.59C446.098 181.573 446.36 180.631 446.884 179.764C447.409 178.887 448.115 178.191 449.003 177.678C449.892 177.153 450.849 176.891 451.877 176.891C452.904 176.891 453.862 177.153 454.75 177.678C455.639 178.191 456.345 178.887 456.869 179.764C457.404 180.631 457.672 181.573 457.672 182.59C457.672 183.606 457.404 184.554 456.869 185.431C456.345 186.309 455.639 187.01 454.75 187.534C453.862 188.048 452.904 188.305 451.877 188.305ZM451.877 186.475C452.54 186.475 453.161 186.298 453.739 185.945C454.317 185.592 454.772 185.121 455.103 184.532C455.446 183.933 455.617 183.285 455.617 182.59C455.617 181.905 455.446 181.268 455.103 180.679C454.772 180.08 454.317 179.604 453.739 179.251C453.161 178.898 452.54 178.721 451.877 178.721C451.213 178.721 450.593 178.898 450.015 179.251C449.447 179.604 448.993 180.08 448.65 180.679C448.308 181.268 448.137 181.905 448.137 182.59C448.137 183.285 448.308 183.933 448.65 184.532C448.993 185.121 449.447 185.592 450.015 185.945C450.593 186.298 451.213 186.475 451.877 186.475ZM467.661 186.282V188.112H460.004V177.084H461.995V186.282H467.661ZM477.303 186.282V188.112H469.645V177.084H471.636V186.282H477.303ZM481.293 178.914V181.578H486.976V183.408H481.293V186.282H487.586V188.112H479.286V177.084H487.586V178.914H481.293ZM498.935 180.744C498.935 181.621 498.662 182.381 498.116 183.023C497.57 183.655 496.848 184.072 495.949 184.275L498.646 188.112H496.366L493.766 184.404H492V188.112H490.009V177.084H494.809C495.58 177.084 496.281 177.239 496.912 177.549C497.543 177.86 498.036 178.293 498.389 178.849C498.753 179.406 498.935 180.037 498.935 180.744ZM492 182.558H494.568C495.264 182.558 495.82 182.397 496.238 182.076C496.666 181.744 496.88 181.3 496.88 180.744C496.88 180.187 496.666 179.748 496.238 179.427C495.82 179.096 495.264 178.93 494.568 178.93H492V182.558Z" fill="#464547"/>
<path d="M691.439 166.671H686.174L685.307 168.758H683.076L687.683 157.729H689.914L694.522 168.758H692.306L691.439 166.671ZM690.749 165.034L688.807 160.394L686.864 165.034H690.749ZM706.781 157.729L702.174 168.758H699.943L695.335 157.729H697.551L701.066 166.093L704.566 157.729H706.781ZM708.718 157.729H710.708V168.758H708.718V157.729Z" fill="#464547"/>
<path d="M628.624 188.198C627.693 188.198 626.826 188.048 626.024 187.748C625.232 187.438 624.526 186.994 623.905 186.416L625.077 184.987C626.179 185.983 627.388 186.48 628.705 186.48C629.347 186.48 629.85 186.341 630.214 186.063C630.578 185.785 630.759 185.437 630.759 185.019C630.759 184.72 630.668 184.479 630.487 184.297C630.315 184.104 630.053 183.944 629.7 183.815C629.357 183.676 628.86 183.532 628.207 183.382C627.351 183.179 626.65 182.959 626.104 182.724C625.558 182.478 625.13 182.151 624.82 181.745C624.51 181.327 624.354 180.787 624.354 180.123C624.354 179.492 624.52 178.925 624.852 178.422C625.194 177.908 625.665 177.512 626.265 177.234C626.864 176.945 627.544 176.8 628.303 176.8C629.898 176.8 631.289 177.314 632.477 178.341L631.386 179.802C630.904 179.385 630.396 179.069 629.86 178.855C629.325 178.63 628.785 178.518 628.239 178.518C627.693 178.518 627.244 178.657 626.891 178.935C626.548 179.214 626.377 179.551 626.377 179.947C626.377 180.236 626.463 180.476 626.634 180.669C626.816 180.862 627.083 181.022 627.437 181.151C627.8 181.279 628.298 181.418 628.929 181.568C630.203 181.857 631.161 182.242 631.803 182.724C632.445 183.195 632.766 183.896 632.766 184.827C632.766 185.49 632.6 186.079 632.268 186.593C631.947 187.096 631.476 187.491 630.856 187.78C630.235 188.059 629.491 188.198 628.624 188.198ZM637.047 178.823V181.488H642.73V183.318H637.047V186.191H643.34V188.021H635.041V176.993H643.34V178.823H637.047ZM654.689 180.653C654.689 181.531 654.416 182.29 653.87 182.932C653.324 183.564 652.602 183.981 651.703 184.185L654.4 188.021H652.12L649.52 184.313H647.754V188.021H645.763V176.993H650.563C651.334 176.993 652.035 177.148 652.666 177.458C653.298 177.769 653.79 178.202 654.143 178.759C654.507 179.315 654.689 179.947 654.689 180.653ZM647.754 182.467H650.323C651.018 182.467 651.575 182.306 651.992 181.985C652.42 181.654 652.634 181.209 652.634 180.653C652.634 180.096 652.42 179.658 651.992 179.337C651.575 179.005 651.018 178.839 650.323 178.839H647.754V182.467ZM667.342 176.993L662.735 188.021H660.503L655.896 176.993H658.111L661.627 185.356L665.126 176.993H667.342ZM669.278 176.993H671.269V188.021H669.278V176.993ZM679.383 188.214C678.356 188.214 677.398 187.957 676.51 187.443C675.621 186.919 674.915 186.218 674.391 185.34C673.866 184.463 673.604 183.516 673.604 182.499C673.604 181.482 673.866 180.541 674.391 179.674C674.915 178.796 675.621 178.101 676.51 177.587C677.398 177.062 678.356 176.8 679.383 176.8C680.175 176.8 680.929 176.961 681.646 177.282C682.374 177.592 683.011 178.026 683.557 178.582L682.128 179.915C681.775 179.508 681.357 179.192 680.876 178.967C680.405 178.743 679.907 178.63 679.383 178.63C678.719 178.63 678.099 178.807 677.521 179.16C676.954 179.513 676.499 179.989 676.156 180.589C675.814 181.177 675.643 181.814 675.643 182.499C675.643 183.195 675.814 183.842 676.156 184.441C676.499 185.03 676.954 185.501 677.521 185.854C678.099 186.207 678.719 186.384 679.383 186.384C679.907 186.384 680.405 186.271 680.876 186.047C681.357 185.822 681.78 185.506 682.144 185.1L683.557 186.416C683.022 186.983 682.39 187.427 681.662 187.748C680.945 188.059 680.186 188.214 679.383 188.214ZM687.636 178.823V181.488H693.318V183.318H687.636V186.191H693.929V188.021H685.629V176.993H693.929V178.823H687.636ZM702.748 178.823V181.488H708.431V183.318H702.748V186.191H709.041V188.021H700.741V176.993H709.041V178.823H702.748ZM711.464 176.993H713.455L719.282 184.746V176.993H721.273V188.021H719.282L713.455 180.268V188.021H711.464V176.993ZM729.087 181.953H733.806V186.416C733.271 186.972 732.608 187.411 731.816 187.732C731.024 188.053 730.221 188.214 729.408 188.214C728.38 188.214 727.417 187.957 726.518 187.443C725.63 186.919 724.918 186.218 724.383 185.34C723.859 184.463 723.597 183.516 723.597 182.499C723.597 181.482 723.859 180.541 724.383 179.674C724.918 178.796 725.63 178.101 726.518 177.587C727.417 177.062 728.38 176.8 729.408 176.8C730.221 176.8 731.024 176.961 731.816 177.282C732.608 177.603 733.271 178.036 733.806 178.582L732.378 179.915C732.035 179.519 731.591 179.208 731.045 178.983C730.499 178.748 729.954 178.63 729.408 178.63C728.744 178.63 728.118 178.807 727.53 179.16C726.952 179.513 726.492 179.989 726.149 180.589C725.807 181.177 725.635 181.814 725.635 182.499C725.635 183.195 725.807 183.842 726.149 184.441C726.492 185.03 726.952 185.501 727.53 185.854C728.118 186.207 728.744 186.384 729.408 186.384C729.825 186.384 730.248 186.314 730.676 186.175C731.115 186.036 731.505 185.843 731.848 185.597V183.591H729.087V181.953ZM736.39 176.993H738.381V188.021H736.39V176.993ZM741.438 176.993H743.429L749.256 184.746V176.993H751.246V188.021H749.256L743.429 180.268V188.021H741.438V176.993ZM756.299 178.823V181.488H761.982V183.318H756.299V186.191H762.592V188.021H754.293V176.993H762.592V178.823H756.299ZM768.836 188.198C767.905 188.198 767.038 188.048 766.236 187.748C765.444 187.438 764.737 186.994 764.117 186.416L765.289 184.987C766.391 185.983 767.6 186.48 768.917 186.48C769.559 186.48 770.062 186.341 770.425 186.063C770.789 185.785 770.971 185.437 770.971 185.019C770.971 184.72 770.88 184.479 770.698 184.297C770.527 184.104 770.265 183.944 769.912 183.815C769.569 183.676 769.072 183.532 768.419 183.382C767.563 183.179 766.862 182.959 766.316 182.724C765.77 182.478 765.342 182.151 765.032 181.745C764.721 181.327 764.566 180.787 764.566 180.123C764.566 179.492 764.732 178.925 765.064 178.422C765.406 177.908 765.877 177.512 766.476 177.234C767.076 176.945 767.755 176.8 768.515 176.8C770.11 176.8 771.501 177.314 772.689 178.341L771.597 179.802C771.116 179.385 770.607 179.069 770.072 178.855C769.537 178.63 768.997 178.518 768.451 178.518C767.905 178.518 767.456 178.657 767.103 178.935C766.76 179.214 766.589 179.551 766.589 179.947C766.589 180.236 766.674 180.476 766.846 180.669C767.028 180.862 767.295 181.022 767.648 181.151C768.012 181.279 768.51 181.418 769.141 181.568C770.415 181.857 771.373 182.242 772.015 182.724C772.657 183.195 772.978 183.896 772.978 184.827C772.978 185.49 772.812 186.079 772.48 186.593C772.159 187.096 771.688 187.491 771.068 187.78C770.447 188.059 769.703 188.198 768.836 188.198Z" fill="#464547"/>
<path d="M634.887 210.014C633.764 209.158 632.897 208.13 632.287 206.932C631.677 205.733 631.372 204.433 631.372 203.031C631.372 201.629 631.677 200.329 632.287 199.13C632.897 197.931 633.764 196.904 634.887 196.048L635.883 197.107C635.016 197.996 634.374 198.911 633.956 199.852C633.55 200.783 633.346 201.843 633.346 203.031C633.346 204.219 633.55 205.278 633.956 206.209C634.374 207.14 635.016 208.05 635.883 208.938L634.887 210.014ZM645.474 205.455V207.285H637.817V196.256H639.808V205.455H645.474ZM650.974 207.477C650.171 207.477 649.428 207.285 648.743 206.9C648.058 206.504 647.512 205.974 647.105 205.31C646.709 204.636 646.511 203.908 646.511 203.127C646.511 202.346 646.709 201.623 647.105 200.96C647.512 200.296 648.058 199.772 648.743 199.387C649.428 198.991 650.171 198.793 650.974 198.793C651.777 198.793 652.515 198.991 653.189 199.387C653.874 199.772 654.415 200.296 654.811 200.96C655.207 201.623 655.405 202.346 655.405 203.127C655.405 203.908 655.207 204.636 654.811 205.31C654.415 205.974 653.874 206.504 653.189 206.9C652.515 207.285 651.777 207.477 650.974 207.477ZM650.974 205.808C651.423 205.808 651.841 205.69 652.226 205.455C652.611 205.209 652.916 204.882 653.141 204.476C653.377 204.058 653.494 203.609 653.494 203.127C653.494 202.646 653.382 202.201 653.157 201.795C652.932 201.388 652.622 201.067 652.226 200.832C651.841 200.585 651.423 200.462 650.974 200.462C650.514 200.462 650.091 200.585 649.706 200.832C649.321 201.067 649.01 201.388 648.775 201.795C648.55 202.201 648.438 202.646 648.438 203.127C648.438 203.609 648.55 204.058 648.775 204.476C649.01 204.882 649.321 205.209 649.706 205.455C650.091 205.69 650.514 205.808 650.974 205.808ZM660.541 198.793C661.632 198.793 662.494 199.114 663.125 199.756C663.767 200.387 664.088 201.233 664.088 202.292V207.285H662.178V206.306C661.878 206.669 661.493 206.958 661.022 207.172C660.551 207.376 660.07 207.477 659.578 207.477C658.989 207.477 658.459 207.37 657.988 207.156C657.528 206.932 657.164 206.621 656.897 206.225C656.629 205.819 656.495 205.353 656.495 204.829C656.495 204.294 656.645 203.817 656.945 203.4C657.245 202.983 657.651 202.656 658.165 202.421C658.679 202.185 659.246 202.068 659.867 202.068C660.605 202.068 661.375 202.212 662.178 202.501V202.292C662.178 201.747 662.012 201.297 661.68 200.944C661.359 200.58 660.851 200.398 660.155 200.398C659.492 200.398 658.743 200.607 657.908 201.024L657.234 199.66C658.411 199.082 659.513 198.793 660.541 198.793ZM660.011 206.049C660.514 206.049 660.974 205.926 661.392 205.68C661.82 205.433 662.082 205.102 662.178 204.684V203.737C661.536 203.534 660.862 203.432 660.155 203.432C659.652 203.432 659.23 203.561 658.887 203.817C658.545 204.064 658.374 204.379 658.374 204.764C658.374 205.15 658.529 205.46 658.839 205.696C659.149 205.931 659.54 206.049 660.011 206.049ZM674.448 196.064V207.285H672.489V205.968C672.168 206.45 671.756 206.825 671.253 207.092C670.761 207.349 670.215 207.477 669.616 207.477C668.888 207.477 668.23 207.295 667.642 206.932C667.064 206.557 666.609 206.038 666.277 205.374C665.956 204.711 665.795 203.962 665.795 203.127C665.795 202.292 665.956 201.549 666.277 200.896C666.609 200.232 667.064 199.719 667.642 199.355C668.23 198.98 668.888 198.793 669.616 198.793C670.215 198.793 670.761 198.927 671.253 199.194C671.756 199.451 672.168 199.815 672.489 200.286V196.064H674.448ZM670.13 205.808C670.815 205.808 671.376 205.556 671.815 205.053C672.254 204.55 672.473 203.908 672.473 203.127C672.473 202.346 672.254 201.709 671.815 201.217C671.376 200.714 670.815 200.462 670.13 200.462C669.434 200.462 668.862 200.714 668.412 201.217C667.963 201.709 667.738 202.346 667.738 203.127C667.738 203.908 667.963 204.55 668.412 205.053C668.862 205.556 669.434 205.808 670.13 205.808ZM681.586 196.256H686.996C687.628 196.256 688.19 196.374 688.682 196.61C689.174 196.845 689.554 197.177 689.822 197.605C690.1 198.022 690.239 198.493 690.239 199.018C690.239 200.088 689.72 200.901 688.682 201.458C689.324 201.768 689.822 202.169 690.175 202.662C690.528 203.143 690.704 203.684 690.704 204.283C690.704 204.861 690.555 205.38 690.255 205.84C689.955 206.29 689.538 206.643 689.003 206.9C688.468 207.156 687.863 207.285 687.189 207.285H681.586V196.256ZM686.499 200.767C686.991 200.767 687.392 200.639 687.703 200.382C688.024 200.115 688.184 199.783 688.184 199.387C688.184 198.98 688.024 198.648 687.703 198.391C687.392 198.124 686.991 197.99 686.499 197.99H683.577V200.767H686.499ZM686.804 205.551C687.339 205.551 687.777 205.407 688.12 205.118C688.473 204.818 688.65 204.438 688.65 203.978C688.65 203.518 688.473 203.143 688.12 202.854C687.777 202.555 687.339 202.405 686.804 202.405H683.577V205.551H686.804ZM696.08 198.793C697.171 198.793 698.033 199.114 698.664 199.756C699.306 200.387 699.627 201.233 699.627 202.292V207.285H697.717V206.306C697.417 206.669 697.032 206.958 696.561 207.172C696.09 207.376 695.609 207.477 695.117 207.477C694.528 207.477 693.998 207.37 693.527 207.156C693.067 206.932 692.703 206.621 692.436 206.225C692.168 205.819 692.034 205.353 692.034 204.829C692.034 204.294 692.184 203.817 692.484 203.4C692.783 202.983 693.19 202.656 693.704 202.421C694.218 202.185 694.785 202.068 695.405 202.068C696.144 202.068 696.914 202.212 697.717 202.501V202.292C697.717 201.747 697.551 201.297 697.219 200.944C696.898 200.58 696.39 200.398 695.694 200.398C695.031 200.398 694.282 200.607 693.447 201.024L692.773 199.66C693.95 199.082 695.052 198.793 696.08 198.793ZM695.55 206.049C696.053 206.049 696.513 205.926 696.93 205.68C697.359 205.433 697.621 205.102 697.717 204.684V203.737C697.075 203.534 696.401 203.432 695.694 203.432C695.191 203.432 694.769 203.561 694.426 203.817C694.084 204.064 693.913 204.379 693.913 204.764C693.913 205.15 694.068 205.46 694.378 205.696C694.688 205.931 695.079 206.049 695.55 206.049ZM701.896 196.064H703.855V207.285H701.896V196.064ZM709.624 198.793C710.716 198.793 711.577 199.114 712.209 199.756C712.851 200.387 713.172 201.233 713.172 202.292V207.285H711.262V206.306C710.962 206.669 710.577 206.958 710.106 207.172C709.635 207.376 709.153 207.477 708.661 207.477C708.073 207.477 707.543 207.37 707.072 207.156C706.612 206.932 706.248 206.621 705.98 206.225C705.713 205.819 705.579 205.353 705.579 204.829C705.579 204.294 705.729 203.817 706.028 203.4C706.328 202.983 706.735 202.656 707.248 202.421C707.762 202.185 708.329 202.068 708.95 202.068C709.688 202.068 710.459 202.212 711.262 202.501V202.292C711.262 201.747 711.096 201.297 710.764 200.944C710.443 200.58 709.935 200.398 709.239 200.398C708.575 200.398 707.826 200.607 706.992 201.024L706.317 199.66C707.495 199.082 708.597 198.793 709.624 198.793ZM709.095 206.049C709.598 206.049 710.058 205.926 710.475 205.68C710.903 205.433 711.165 205.102 711.262 204.684V203.737C710.62 203.534 709.945 203.432 709.239 203.432C708.736 203.432 708.313 203.561 707.971 203.817C707.628 204.064 707.457 204.379 707.457 204.764C707.457 205.15 707.612 205.46 707.923 205.696C708.233 205.931 708.624 206.049 709.095 206.049ZM719.968 198.793C720.567 198.793 721.102 198.932 721.573 199.21C722.044 199.478 722.408 199.858 722.665 200.35C722.932 200.832 723.066 201.383 723.066 202.003V207.285H721.156V202.389C721.156 201.821 720.995 201.361 720.674 201.008C720.353 200.644 719.936 200.462 719.422 200.462C718.855 200.462 718.373 200.639 717.977 200.992C717.592 201.335 717.399 201.757 717.399 202.26V207.285H715.441V198.985H717.399V200.109C717.656 199.713 718.009 199.397 718.459 199.162C718.919 198.916 719.422 198.793 719.968 198.793ZM729.137 207.477C728.345 207.477 727.607 207.279 726.922 206.883C726.248 206.487 725.707 205.958 725.301 205.294C724.894 204.62 724.691 203.898 724.691 203.127C724.691 202.357 724.894 201.64 725.301 200.976C725.707 200.312 726.253 199.783 726.938 199.387C727.623 198.991 728.361 198.793 729.153 198.793C729.774 198.793 730.352 198.916 730.887 199.162C731.422 199.397 731.893 199.724 732.3 200.141L730.983 201.297C730.759 201.04 730.48 200.837 730.149 200.687C729.817 200.537 729.48 200.462 729.137 200.462C728.688 200.462 728.27 200.585 727.885 200.832C727.5 201.067 727.195 201.393 726.97 201.811C726.745 202.217 726.633 202.656 726.633 203.127C726.633 203.609 726.745 204.058 726.97 204.476C727.195 204.882 727.5 205.209 727.885 205.455C728.27 205.69 728.688 205.808 729.137 205.808C729.49 205.808 729.833 205.733 730.165 205.583C730.507 205.423 730.796 205.209 731.032 204.941L732.348 206.081C731.931 206.52 731.449 206.862 730.903 207.108C730.357 207.354 729.769 207.477 729.137 207.477ZM737.6 205.904C738.017 205.904 738.44 205.824 738.868 205.663C739.296 205.503 739.644 205.294 739.912 205.037L741.035 206.193C740.682 206.568 740.185 206.878 739.542 207.124C738.9 207.36 738.274 207.477 737.664 207.477C736.872 207.477 736.139 207.29 735.465 206.916C734.802 206.541 734.272 206.022 733.876 205.358C733.491 204.695 733.298 203.946 733.298 203.111C733.298 202.287 733.485 201.549 733.86 200.896C734.234 200.243 734.748 199.729 735.401 199.355C736.054 198.98 736.771 198.793 737.552 198.793C738.825 198.793 739.821 199.232 740.538 200.109C741.265 200.987 741.629 202.185 741.629 203.705H735.192C735.299 204.369 735.567 204.904 735.995 205.31C736.434 205.706 736.969 205.904 737.6 205.904ZM737.568 200.366C736.979 200.366 736.471 200.553 736.043 200.928C735.615 201.292 735.337 201.784 735.208 202.405H739.735C739.639 201.795 739.403 201.302 739.029 200.928C738.665 200.553 738.178 200.366 737.568 200.366ZM745.335 200.559C745.603 200.013 745.999 199.585 746.523 199.274C747.047 198.953 747.641 198.793 748.305 198.793V200.462C747.417 200.462 746.7 200.703 746.154 201.185C745.608 201.666 745.335 202.303 745.335 203.095V207.285H743.377V198.985H745.335V200.559ZM752.96 207.477C752.318 207.477 751.675 207.37 751.033 207.156C750.391 206.932 749.819 206.627 749.316 206.241L750.15 204.957C750.6 205.278 751.071 205.53 751.563 205.712C752.066 205.883 752.542 205.968 752.992 205.968C753.431 205.968 753.773 205.883 754.019 205.712C754.276 205.54 754.404 205.31 754.404 205.021C754.404 204.722 754.26 204.497 753.971 204.347C753.693 204.197 753.254 204.042 752.655 203.882C751.97 203.7 751.419 203.518 751.001 203.336C750.595 203.143 750.273 202.892 750.038 202.581C749.813 202.271 749.701 201.875 749.701 201.393C749.701 200.89 749.829 200.441 750.086 200.045C750.354 199.649 750.723 199.344 751.194 199.13C751.675 198.905 752.221 198.793 752.831 198.793C753.377 198.793 753.923 198.884 754.469 199.066C755.014 199.237 755.528 199.478 756.01 199.788L755.239 201.104C754.843 200.848 754.437 200.65 754.019 200.51C753.602 200.361 753.206 200.286 752.831 200.286C752.457 200.286 752.146 200.371 751.9 200.543C751.654 200.703 751.531 200.923 751.531 201.201C751.531 201.383 751.59 201.527 751.708 201.634C751.825 201.741 751.991 201.838 752.205 201.923C752.419 201.998 752.783 202.116 753.297 202.276C753.907 202.448 754.41 202.619 754.806 202.79C755.202 202.961 755.533 203.213 755.801 203.544C756.079 203.876 756.218 204.31 756.218 204.845C756.218 205.637 755.919 206.273 755.319 206.755C754.72 207.237 753.934 207.477 752.96 207.477ZM757.216 208.938C758.083 208.05 758.72 207.14 759.126 206.209C759.544 205.278 759.752 204.219 759.752 203.031C759.752 201.843 759.544 200.783 759.126 199.852C758.72 198.911 758.083 197.996 757.216 197.107L758.227 196.048C759.351 196.904 760.218 197.931 760.828 199.13C761.438 200.329 761.743 201.629 761.743 203.031C761.743 204.433 761.438 205.733 760.828 206.932C760.218 208.13 759.351 209.158 758.227 210.014L757.216 208.938Z" fill="#464547"/>
<path d="M255.814 165.345V207.885C255.814 210.063 256.961 212.127 258.91 213.159L295.717 234.487C297.551 235.633 299.959 235.633 301.794 234.487L338.601 213.159C340.436 212.013 341.697 210.063 341.697 207.885V165.345C341.697 163.166 340.55 161.102 338.601 160.07L301.794 138.743C299.959 137.596 297.551 137.596 295.717 138.743L258.91 160.07C256.961 161.102 255.814 163.166 255.814 165.345Z" fill="#EF5024" stroke="#EF4E23" stroke-width="1.69702" stroke-linecap="round" stroke-linejoin="round"/>
<path d="M302.597 155.713L306.381 161.446C307.413 163.051 309.247 163.739 311.082 163.395L317.847 162.019C320.37 161.561 322.777 163.166 323.236 165.574C323.351 166.147 323.351 166.835 323.236 167.409L321.86 174.174C321.516 176.008 322.319 177.843 323.809 178.875L329.543 182.659C331.607 184.035 332.18 186.901 330.804 188.965C330.46 189.424 330.001 189.883 329.543 190.227L323.809 194.01C322.204 195.042 321.516 196.877 321.86 198.712L323.236 205.477C323.695 207.999 322.09 210.407 319.682 210.866C319.108 210.981 318.42 210.981 317.847 210.866L311.082 209.49C309.247 209.146 307.413 209.949 306.381 211.439L302.597 217.172C301.221 219.236 298.354 219.81 296.29 218.434C295.832 218.09 295.373 217.631 295.029 217.172L291.245 211.439C290.213 209.834 288.378 209.146 286.544 209.49L279.779 210.866C277.256 211.325 274.848 209.719 274.39 207.311C274.275 206.738 274.275 206.05 274.39 205.477L275.766 198.712C276.109 196.877 275.307 195.042 273.816 194.01L268.083 190.227C266.019 188.851 265.446 185.984 266.822 183.92C267.166 183.461 267.624 183.003 268.083 182.659L273.816 178.875C275.422 177.843 276.109 176.008 275.766 174.174L274.39 167.409C273.931 164.886 275.536 162.478 277.944 162.019C278.517 161.905 279.205 161.905 279.779 162.019L286.544 163.395C288.378 163.739 290.213 162.937 291.245 161.446L295.029 155.713C296.405 153.649 299.271 152.961 301.335 154.337C301.794 154.796 302.253 155.14 302.597 155.713Z" stroke="white" stroke-width="1.69702" stroke-miterlimit="10"/>
<path d="M298.698 195.73C303.764 195.73 307.871 191.623 307.871 186.557C307.871 181.491 303.764 177.384 298.698 177.384C293.632 177.384 289.525 181.491 289.525 186.557C289.525 191.623 293.632 195.73 298.698 195.73Z" stroke="white" stroke-width="1.69702" stroke-miterlimit="10"/>
<path opacity="0.3" d="M298.813 197.336C292.965 197.565 287.92 192.864 287.805 187.016C287.576 181.168 292.277 176.123 298.125 176.008C298.354 176.008 298.583 176.008 298.813 176.008" stroke="white" stroke-width="1.69702" stroke-miterlimit="10" stroke-linecap="round"/>
<path d="M316.811 189.56C318.434 179.558 311.642 170.135 301.641 168.511C291.639 166.888 282.215 173.68 280.592 183.682C278.969 193.683 285.761 203.107 295.763 204.73C305.764 206.354 315.188 199.561 316.811 189.56Z" stroke="white" stroke-width="1.69702" stroke-miterlimit="10"/>
<path opacity="0.3" d="M298.813 169.817C308.101 170.046 315.439 177.728 315.21 187.016C314.98 195.96 307.757 203.184 298.813 203.413" stroke="white" stroke-width="1.69702" stroke-miterlimit="10" stroke-linecap="round"/>
<path d="M616.316 146.311C617.772 146.311 618.953 145.13 618.953 143.673C618.953 142.217 617.772 141.036 616.316 141.036C614.859 141.036 613.678 142.217 613.678 143.673C613.678 145.13 614.859 146.311 616.316 146.311Z" stroke="#495465" stroke-width="1.14663" stroke-miterlimit="10"/>
<path d="M575.725 148.375C578.321 148.375 580.426 146.27 580.426 143.673C580.426 141.077 578.321 138.972 575.725 138.972C573.128 138.972 571.024 141.077 571.024 143.673C571.024 146.27 573.128 148.375 575.725 148.375Z" stroke="#495465" stroke-width="1.14663" stroke-miterlimit="10"/>
<path d="M586.847 143.673H580.426" stroke="#495465" stroke-width="1.14663" stroke-miterlimit="10" stroke-linecap="round"/>
<path d="M613.335 143.673H606.913" stroke="#495465" stroke-width="1.14663" stroke-miterlimit="10" stroke-linecap="round"/>
<path d="M610.009 132.895C611.466 132.895 612.646 131.714 612.646 130.258C612.646 128.801 611.466 127.62 610.009 127.62C608.553 127.62 607.372 128.801 607.372 130.258C607.372 131.714 608.553 132.895 610.009 132.895Z" stroke="#495465" stroke-width="1.14663" stroke-miterlimit="10"/>
<path d="M607.945 132.322L603.817 136.45" stroke="#495465" stroke-width="1.14663" stroke-miterlimit="10" stroke-linecap="round"/>
<path d="M610.009 159.726C611.466 159.726 612.646 158.545 612.646 157.089C612.646 155.632 611.466 154.452 610.009 154.452C608.553 154.452 607.372 155.632 607.372 157.089C607.372 158.545 608.553 159.726 610.009 159.726Z" stroke="#495465" stroke-width="1.14663" stroke-miterlimit="10"/>
<path d="M607.945 155.025L603.817 150.897" stroke="#495465" stroke-width="1.14663" stroke-miterlimit="10" stroke-linecap="round"/>
<path d="M587.191 139.66V147.687C587.191 148.604 587.765 149.521 588.567 149.98L595.562 153.993C596.364 154.452 597.396 154.452 598.199 153.993L605.193 149.98C605.996 149.521 606.569 148.604 606.569 147.687V139.66C606.569 138.743 605.996 137.826 605.193 137.367L598.199 133.354C597.396 132.895 596.364 132.895 595.562 133.354L588.567 137.367C587.65 137.826 587.191 138.628 587.191 139.66Z" fill="#EF5024" stroke="#EF4E23" stroke-width="1.14663" stroke-linecap="round" stroke-linejoin="round"/>
<path d="M593.498 146.999L596.823 140.233L600.263 146.999" stroke="white" stroke-width="1.14663" stroke-linecap="round" stroke-linejoin="round"/>
<path d="M616.316 189.194C617.772 189.194 618.953 188.014 618.953 186.557C618.953 185.101 617.772 183.92 616.316 183.92C614.859 183.92 613.678 185.101 613.678 186.557C613.678 188.014 614.859 189.194 616.316 189.194Z" stroke="#495465" stroke-width="1.14663" stroke-miterlimit="10"/>
<path d="M575.725 191.258C578.321 191.258 580.426 189.154 580.426 186.557C580.426 183.961 578.321 181.856 575.725 181.856C573.128 181.856 571.024 183.961 571.024 186.557C571.024 189.154 573.128 191.258 575.725 191.258Z" stroke="#495465" stroke-width="1.14663" stroke-miterlimit="10"/>
<path d="M586.847 186.557H580.426" stroke="#495465" stroke-width="1.14663" stroke-miterlimit="10" stroke-linecap="round"/>
<path d="M613.335 186.557H606.913" stroke="#495465" stroke-width="1.14663" stroke-miterlimit="10" stroke-linecap="round"/>
<path d="M610.009 175.779C611.466 175.779 612.646 174.598 612.646 173.142C612.646 171.685 611.466 170.505 610.009 170.505C608.553 170.505 607.372 171.685 607.372 173.142C607.372 174.598 608.553 175.779 610.009 175.779Z" stroke="#495465" stroke-width="1.14663" stroke-miterlimit="10"/>
<path d="M607.945 175.206L603.817 179.333" stroke="#495465" stroke-width="1.14663" stroke-miterlimit="10" stroke-linecap="round"/>
<path d="M610.009 202.725C611.466 202.725 612.646 201.544 612.646 200.088C612.646 198.631 611.466 197.45 610.009 197.45C608.553 197.45 607.372 198.631 607.372 200.088C607.372 201.544 608.553 202.725 610.009 202.725Z" stroke="#495465" stroke-width="1.14663" stroke-miterlimit="10"/>
<path d="M607.945 197.909L603.817 193.781" stroke="#495465" stroke-width="1.14663" stroke-miterlimit="10" stroke-linecap="round"/>
<path d="M607.945 241.128L603.817 237" stroke="#495465" stroke-width="1.14663" stroke-miterlimit="10" stroke-linecap="round"/>
<path d="M587.191 182.544V190.57C587.191 191.488 587.765 192.405 588.567 192.864L595.562 196.877C596.364 197.336 597.396 197.336 598.199 196.877L605.193 192.864C605.996 192.405 606.569 191.488 606.569 190.57V182.544C606.569 181.627 605.996 180.709 605.193 180.251L598.199 176.238C597.396 175.779 596.364 175.779 595.562 176.238L588.567 180.251C587.65 180.709 587.191 181.627 587.191 182.544Z" fill="#EF5024" stroke="#EF4E23" stroke-width="1.14663" stroke-linecap="round" stroke-linejoin="round"/>
<path d="M593.498 189.997L596.823 183.232L600.263 189.997" stroke="white" stroke-width="1.14663" stroke-linecap="round" stroke-linejoin="round"/>
<path d="M616.316 232.193C617.772 232.193 618.953 231.013 618.953 229.556C618.953 228.1 617.772 226.919 616.316 226.919C614.859 226.919 613.678 228.1 613.678 229.556C613.678 231.013 614.859 232.193 616.316 232.193Z" stroke="#495465" stroke-width="1.14663" stroke-miterlimit="10"/>
<path d="M575.725 234.257C578.321 234.257 580.426 232.152 580.426 229.556C580.426 226.96 578.321 224.855 575.725 224.855C573.128 224.855 571.024 226.96 571.024 229.556C571.024 232.152 573.128 234.257 575.725 234.257Z" stroke="#495465" stroke-width="1.14663" stroke-miterlimit="10"/>
<path d="M586.847 229.556H580.426" stroke="#495465" stroke-width="1.14663" stroke-miterlimit="10" stroke-linecap="round"/>
<path d="M613.335 229.556H606.913" stroke="#495465" stroke-width="1.14663" stroke-miterlimit="10" stroke-linecap="round"/>
<path d="M610.009 218.778C611.466 218.778 612.646 217.597 612.646 216.14C612.646 214.684 611.466 213.503 610.009 213.503C608.553 213.503 607.372 214.684 607.372 216.14C607.372 217.597 608.553 218.778 610.009 218.778Z" stroke="#495465" stroke-width="1.14663" stroke-miterlimit="10"/>
<path d="M607.945 218.204L603.817 222.332" stroke="#495465" stroke-width="1.14663" stroke-miterlimit="10" stroke-linecap="round"/>
<path d="M610.009 245.609C611.466 245.609 612.646 244.428 612.646 242.972C612.646 241.515 611.466 240.334 610.009 240.334C608.553 240.334 607.372 241.515 607.372 242.972C607.372 244.428 608.553 245.609 610.009 245.609Z" stroke="#495465" stroke-width="1.14663" stroke-miterlimit="10"/>
<path d="M587.191 225.543V233.684C587.191 234.601 587.765 235.519 588.567 235.977L595.562 239.99C596.364 240.449 597.396 240.449 598.199 239.99L605.193 235.977C605.996 235.519 606.569 234.601 606.569 233.684V225.543C606.569 224.626 605.996 223.708 605.193 223.25L598.199 219.236C597.396 218.778 596.364 218.778 595.562 219.236L588.567 223.25C587.65 223.708 587.191 224.511 587.191 225.543Z" fill="#EF5024" stroke="#EF4E23" stroke-width="1.14663" stroke-linecap="round" stroke-linejoin="round"/>
<path d="M593.498 232.881L596.823 226.116L600.263 232.881" stroke="white" stroke-width="1.14663" stroke-linecap="round" stroke-linejoin="round"/>
</svg>
