<svg width="341" height="122" viewBox="0 0 341 122" fill="none" xmlns="http://www.w3.org/2000/svg">
<path fill-rule="evenodd" clip-rule="evenodd" d="M305.67 42.12H269.57V51.89H305.67V42.12ZM304.61 43.21V50.81H270.61V43.21H304.61Z" fill="#1E4489"/>
<path d="M302.27 45.52H301V48.49H302.27V45.52Z" fill="#1E4489"/>
<path d="M300.14 45.52H298.87V48.49H300.14V45.52Z" fill="#1E4489"/>
<path d="M298.02 45.52H296.75V48.49H298.02V45.52Z" fill="#1E4489"/>
<path d="M295.9 45.52H294.63V48.49H295.9V45.52Z" fill="#1E4489"/>
<path d="M293.77 45.52H292.5V48.49H293.77V45.52Z" fill="#1E4489"/>
<path d="M291.65 45.52H290.38V48.49H291.65V45.52Z" fill="#1E4489"/>
<path d="M289.52 45.52H288.25V48.49H289.52V45.52Z" fill="#1E4489"/>
<path d="M287.4 45.52H286.13V48.49H287.4V45.52Z" fill="#1E4489"/>
<path fill-rule="evenodd" clip-rule="evenodd" d="M274.66 47.0001C274.672 47.2119 274.62 47.4224 274.511 47.6044C274.402 47.7864 274.241 47.9316 274.049 48.0211C273.857 48.1106 273.642 48.1403 273.433 48.1065C273.223 48.0726 273.029 47.9767 272.874 47.8311C272.72 47.6855 272.613 47.497 272.567 47.2899C272.521 47.0828 272.538 46.8667 272.616 46.6695C272.694 46.4723 272.83 46.3031 273.005 46.1837C273.181 46.0644 273.388 46.0004 273.6 46.0001C273.872 45.9972 274.134 46.0997 274.332 46.2862C274.529 46.4727 274.647 46.7286 274.66 47.0001Z" fill="#218FCF"/>
<path fill-rule="evenodd" clip-rule="evenodd" d="M305.67 54.1H269.57V63.44H305.67V54.1ZM304.61 55.1V62.4H270.61V55.14H304.61" fill="#1E4489"/>
<path d="M302.27 57.0699H301V60.4699H302.27V57.0699Z" fill="#1E4489"/>
<path d="M300.14 57.0699H298.87V60.4699H300.14V57.0699Z" fill="#1E4489"/>
<path d="M298.02 57.0699H296.75V60.4699H298.02V57.0699Z" fill="#1E4489"/>
<path d="M295.9 57.0699H294.63V60.4699H295.9V57.0699Z" fill="#1E4489"/>
<path d="M293.77 57.0699H292.5V60.4699H293.77V57.0699Z" fill="#1E4489"/>
<path d="M291.65 57.0699H290.38V60.4699H291.65V57.0699Z" fill="#1E4489"/>
<path d="M289.52 57.0699H288.25V60.4699H289.52V57.0699Z" fill="#1E4489"/>
<path d="M287.4 57.0699H286.13V60.4699H287.4V57.0699Z" fill="#1E4489"/>
<path fill-rule="evenodd" clip-rule="evenodd" d="M274.66 58.56C274.66 58.7696 274.598 58.9746 274.481 59.1489C274.365 59.3232 274.199 59.4591 274.006 59.5393C273.812 59.6195 273.599 59.6405 273.393 59.5996C273.188 59.5587 272.999 59.4578 272.851 59.3095C272.702 59.1613 272.601 58.9724 272.56 58.7668C272.52 58.5612 272.541 58.348 272.621 58.1544C272.701 57.9607 272.837 57.7951 273.011 57.6786C273.185 57.5622 273.39 57.5 273.6 57.5C273.881 57.5 274.151 57.6117 274.35 57.8105C274.548 58.0093 274.66 58.2789 274.66 58.56Z" fill="#218FCF"/>
<path fill-rule="evenodd" clip-rule="evenodd" d="M305.67 65.65H269.57V75.42H305.67V65.65ZM304.61 66.73V74.33H270.61V66.73H304.61Z" fill="#1E4489"/>
<path d="M302.27 69.05H301V72.02H302.27V69.05Z" fill="#1E4489"/>
<path d="M300.14 69.05H298.87V72.02H300.14V69.05Z" fill="#1E4489"/>
<path d="M298.02 69.05H296.75V72.02H298.02V69.05Z" fill="#1E4489"/>
<path d="M295.9 69.05H294.63V72.02H295.9V69.05Z" fill="#1E4489"/>
<path d="M293.77 69.05H292.5V72.02H293.77V69.05Z" fill="#1E4489"/>
<path d="M291.65 69.05H290.38V72.02H291.65V69.05Z" fill="#1E4489"/>
<path d="M289.52 69.05H288.25V72.02H289.52V69.05Z" fill="#1E4489"/>
<path d="M287.4 69.05H286.13V72.02H287.4V69.05Z" fill="#1E4489"/>
<path fill-rule="evenodd" clip-rule="evenodd" d="M274.66 70.53C274.66 70.7397 274.598 70.9446 274.481 71.1189C274.365 71.2932 274.199 71.4291 274.006 71.5093C273.812 71.5896 273.599 71.6106 273.393 71.5697C273.188 71.5288 272.999 71.4278 272.851 71.2796C272.702 71.1313 272.601 70.9424 272.56 70.7368C272.52 70.5312 272.541 70.3181 272.621 70.1244C272.701 69.9307 272.837 69.7651 273.011 69.6487C273.185 69.5322 273.39 69.47 273.6 69.47C273.74 69.4687 273.878 69.4952 274.007 69.548C274.136 69.6008 274.254 69.6788 274.353 69.7775C274.451 69.8762 274.529 69.9936 274.582 70.1228C274.635 70.252 274.661 70.3904 274.66 70.53Z" fill="#218FCF"/>
<path fill-rule="evenodd" clip-rule="evenodd" d="M305.67 77.41H269.57V87.18H305.67V77.41ZM304.61 78.5V86.09H270.61V78.5H304.61Z" fill="#1E4489"/>
<path d="M302.27 80.8101H301V83.7801H302.27V80.8101Z" fill="#1E4489"/>
<path d="M300.14 80.8101H298.87V83.7801H300.14V80.8101Z" fill="#1E4489"/>
<path d="M298.02 80.8101H296.75V83.7801H298.02V80.8101Z" fill="#1E4489"/>
<path d="M295.9 80.8101H294.63V83.7801H295.9V80.8101Z" fill="#1E4489"/>
<path d="M293.77 80.8101H292.5V83.7801H293.77V80.8101Z" fill="#1E4489"/>
<path d="M291.65 80.8101H290.38V83.7801H291.65V80.8101Z" fill="#1E4489"/>
<path d="M289.52 80.8101H288.25V83.7801H289.52V80.8101Z" fill="#1E4489"/>
<path d="M287.4 80.8101H286.13V83.7801H287.4V80.8101Z" fill="#1E4489"/>
<path fill-rule="evenodd" clip-rule="evenodd" d="M274.66 82.29C274.66 82.4996 274.598 82.7046 274.481 82.8789C274.365 83.0532 274.199 83.1891 274.006 83.2693C273.812 83.3495 273.599 83.3705 273.393 83.3296C273.188 83.2887 272.999 83.1878 272.851 83.0395C272.702 82.8913 272.601 82.7024 272.56 82.4968C272.52 82.2912 272.541 82.078 272.621 81.8843C272.701 81.6906 272.837 81.5251 273.011 81.4086C273.185 81.2921 273.39 81.23 273.6 81.23C273.881 81.23 274.151 81.3417 274.35 81.5404C274.548 81.7392 274.66 82.0088 274.66 82.29Z" fill="#218FCF"/>
<path d="M267.4 20.84H269.09C269.574 20.8351 270.053 20.9411 270.49 21.15C270.895 21.3354 271.242 21.6296 271.49 22C271.719 22.375 271.84 22.8057 271.84 23.245C271.84 23.6843 271.719 24.115 271.49 24.49C271.244 24.8629 270.897 25.1579 270.49 25.34C270.055 25.555 269.575 25.6614 269.09 25.65H267.4V20.84ZM269.18 24.84C269.493 24.8451 269.802 24.773 270.08 24.63C270.332 24.5007 270.544 24.3032 270.69 24.06C270.841 23.8063 270.917 23.5151 270.91 23.22C270.917 22.9281 270.84 22.6402 270.69 22.39C270.541 22.1494 270.33 21.9527 270.08 21.82C269.802 21.677 269.493 21.6049 269.18 21.61H268.27V24.84H269.18Z" fill="#495565"/>
<path d="M275.33 22.36C275.472 22.5067 275.582 22.6808 275.654 22.8717C275.727 23.0626 275.759 23.2661 275.75 23.47V25.65H274.91V25.22C274.775 25.3839 274.604 25.5141 274.41 25.6C274.212 25.689 273.997 25.7366 273.78 25.74C273.541 25.7449 273.305 25.6935 273.09 25.59C272.897 25.5022 272.731 25.364 272.61 25.19C272.489 25.0096 272.427 24.7969 272.43 24.58C272.425 24.3568 272.496 24.1386 272.63 23.96C272.766 23.773 272.949 23.6248 273.16 23.53C273.393 23.4285 273.645 23.3774 273.9 23.38C274.242 23.383 274.581 23.4474 274.9 23.57V23.47C274.906 23.2541 274.831 23.0438 274.69 22.88C274.6 22.7978 274.494 22.735 274.379 22.6955C274.264 22.6559 274.141 22.6404 274.02 22.65C273.67 22.6606 273.328 22.7531 273.02 22.92L272.73 22.33C273.186 22.1031 273.69 21.9899 274.2 22C274.609 21.9677 275.015 22.0969 275.33 22.36ZM274.57 25C274.654 24.9574 274.729 24.8969 274.787 24.8226C274.846 24.7483 274.888 24.6621 274.91 24.57V24.1C274.613 24.0228 274.306 23.9891 274 24C273.803 23.9949 273.61 24.0547 273.45 24.17C273.38 24.2136 273.323 24.274 273.283 24.3456C273.242 24.4173 273.221 24.4979 273.22 24.58C273.218 24.6605 273.236 24.7402 273.273 24.8118C273.309 24.8835 273.363 24.9448 273.43 24.99C273.578 25.096 273.758 25.1488 273.94 25.14C274.159 25.1562 274.378 25.1075 274.57 25Z" fill="#495565"/>
<path d="M278.74 25.45C278.635 25.5429 278.513 25.6143 278.38 25.66C278.246 25.7106 278.103 25.7377 277.96 25.74C277.824 25.7421 277.69 25.7166 277.564 25.6651C277.439 25.6135 277.325 25.5369 277.23 25.44C277.134 25.341 277.06 25.2233 277.012 25.0942C276.963 24.9652 276.942 24.8276 276.95 24.69V22.69H276.42V22H277V21H277.83V22H278.65V22.71H277.83V24.56C277.825 24.6689 277.861 24.7758 277.93 24.86C277.962 24.8977 278.002 24.928 278.047 24.9487C278.092 24.9694 278.14 24.9801 278.19 24.98C278.256 24.995 278.324 24.995 278.39 24.98C278.452 24.9624 278.507 24.9278 278.55 24.88L278.74 25.45Z" fill="#495565"/>
<path d="M282.09 22.36C282.232 22.5067 282.342 22.6809 282.414 22.8717C282.487 23.0626 282.519 23.2662 282.51 23.47V25.65H281.67V25.22C281.537 25.3862 281.366 25.5168 281.17 25.6C280.963 25.6958 280.738 25.7455 280.51 25.7455C280.282 25.7455 280.057 25.6958 279.85 25.6C279.657 25.5122 279.491 25.3741 279.37 25.2C279.257 25.0168 279.198 24.8053 279.2 24.59C279.193 24.368 279.26 24.1498 279.39 23.97C279.526 23.783 279.709 23.6348 279.92 23.54C280.157 23.4386 280.412 23.3875 280.67 23.39C281.012 23.3919 281.351 23.4563 281.67 23.58V23.48C281.679 23.3648 281.661 23.2492 281.619 23.1416C281.577 23.034 281.512 22.9372 281.427 22.8585C281.343 22.7797 281.241 22.721 281.131 22.6866C281.021 22.6523 280.904 22.6432 280.79 22.66C280.44 22.6717 280.098 22.7642 279.79 22.93L279.5 22.34C279.964 22.1049 280.48 21.9881 281 22C281.396 21.9761 281.786 22.1049 282.09 22.36ZM281.34 25C281.422 24.9553 281.494 24.8939 281.55 24.8199C281.607 24.7458 281.648 24.6607 281.67 24.57V24.1C281.384 24.0149 281.088 23.9711 280.79 23.97C280.593 23.9649 280.4 24.0247 280.24 24.14C280.172 24.1841 280.115 24.2449 280.077 24.3166C280.039 24.3883 280.019 24.4686 280.02 24.55C280.016 24.6297 280.032 24.7092 280.067 24.7809C280.102 24.8526 280.155 24.9143 280.22 24.96C280.368 25.066 280.548 25.1188 280.73 25.11C280.94 25.1284 281.15 25.0904 281.34 25Z" fill="#495565"/>
<path d="M286.63 25.4C286.251 25.1756 285.934 24.8592 285.71 24.48C285.481 24.1089 285.359 23.6813 285.359 23.245C285.359 22.8088 285.481 22.3812 285.71 22.01C285.932 21.6315 286.249 21.3178 286.63 21.1C287.008 20.8752 287.44 20.7577 287.88 20.76C288.22 20.7591 288.556 20.8269 288.869 20.9592C289.181 21.0915 289.464 21.2857 289.7 21.53L289.08 22.12C288.933 21.9423 288.749 21.7989 288.54 21.7C288.332 21.6087 288.107 21.561 287.88 21.56C287.596 21.5557 287.318 21.6357 287.08 21.79C286.83 21.9417 286.623 22.1552 286.48 22.41C286.33 22.6609 286.25 22.9477 286.25 23.24C286.249 23.5389 286.329 23.8324 286.48 24.09C286.626 24.3428 286.832 24.5557 287.08 24.71C287.297 24.845 287.545 24.9232 287.8 24.9371C288.055 24.9511 288.31 24.9005 288.54 24.79C288.747 24.6891 288.934 24.55 289.09 24.38L289.7 24.95C289.471 25.199 289.191 25.3967 288.88 25.53C288.565 25.6704 288.225 25.742 287.88 25.74C287.441 25.7376 287.01 25.6204 286.63 25.4Z" fill="#495565"/>
<path d="M292.71 24.9401C292.875 24.8788 293.028 24.7872 293.16 24.6701L293.65 25.1801C293.465 25.3593 293.243 25.4959 293 25.5801C292.738 25.6803 292.46 25.7345 292.18 25.7401C291.847 25.737 291.521 25.6511 291.23 25.4901C290.937 25.3339 290.694 25.0982 290.53 24.8101C290.355 24.5065 290.268 24.1602 290.28 23.8101C290.268 23.4798 290.347 23.1527 290.507 22.8638C290.668 22.5749 290.904 22.3351 291.19 22.1701C291.477 22.0105 291.801 21.9278 292.13 21.9301C292.377 21.9178 292.624 21.9629 292.852 22.0618C293.079 22.1607 293.28 22.3106 293.44 22.5001C293.774 22.9532 293.94 23.5081 293.91 24.0701H291.1C291.139 24.337 291.265 24.5834 291.46 24.7701C291.648 24.9415 291.895 25.0344 292.15 25.0301C292.34 25.0339 292.53 25.0034 292.71 24.9401ZM291.47 22.8801C291.284 23.0488 291.157 23.2734 291.11 23.5201H293.11C293.081 23.2801 292.976 23.0558 292.81 22.8801C292.726 22.7971 292.626 22.7322 292.516 22.6892C292.406 22.6462 292.288 22.6261 292.17 22.6301C291.913 22.6204 291.662 22.7099 291.47 22.8801Z" fill="#495565"/>
<path d="M297.42 22.13C297.62 22.2486 297.786 22.4175 297.9 22.62C298.014 22.8465 298.072 23.0967 298.07 23.35V25.65H297.24V23.52C297.249 23.2976 297.174 23.0799 297.03 22.91C296.961 22.8336 296.876 22.7733 296.781 22.7335C296.686 22.6938 296.583 22.6755 296.48 22.68C296.25 22.6709 296.025 22.7496 295.85 22.9C295.77 22.9696 295.707 23.0558 295.663 23.1525C295.62 23.2492 295.599 23.3541 295.6 23.46V25.65H294.74V22H295.6V22.49C295.716 22.3162 295.874 22.1751 296.06 22.08C296.263 21.9709 296.49 21.9158 296.72 21.92C296.968 21.9258 297.21 21.9984 297.42 22.13Z" fill="#495565"/>
<path d="M301.06 25.45C300.955 25.5429 300.833 25.6143 300.7 25.66C300.569 25.7115 300.43 25.7386 300.29 25.74C300.154 25.7421 300.02 25.7166 299.894 25.6651C299.769 25.6135 299.655 25.5369 299.56 25.44C299.462 25.3419 299.386 25.2245 299.336 25.0954C299.286 24.9663 299.264 24.8283 299.27 24.69V22.69H298.75V22H299.27V21H300.1V22H300.92V22.71H300.1V24.56C300.095 24.6689 300.131 24.7758 300.2 24.86C300.232 24.8977 300.272 24.928 300.317 24.9487C300.362 24.9694 300.411 24.9801 300.46 24.98C300.526 24.995 300.594 24.995 300.66 24.98C300.723 24.9654 300.779 24.9302 300.82 24.88L301.06 25.45Z" fill="#495565"/>
<path d="M304 24.94C304.167 24.8813 304.32 24.7895 304.45 24.67L304.94 25.18C304.755 25.3593 304.533 25.4958 304.29 25.58C304.028 25.6803 303.751 25.7344 303.47 25.74C303.121 25.7455 302.776 25.6593 302.47 25.49C302.179 25.3309 301.938 25.0959 301.77 24.81C301.595 24.5065 301.509 24.1601 301.52 23.81C301.512 23.4615 301.594 23.1167 301.76 22.81C301.926 22.5325 302.16 22.3019 302.44 22.14C302.723 21.9791 303.044 21.8963 303.37 21.9C303.618 21.8878 303.865 21.9329 304.092 22.0318C304.319 22.1306 304.52 22.2806 304.68 22.47C305.014 22.9231 305.18 23.4781 305.15 24.04H302.34C302.379 24.307 302.505 24.5533 302.7 24.74C302.889 24.9114 303.135 25.0044 303.39 25C303.595 25.0198 303.803 24.9994 304 24.94ZM302.77 22.88C302.578 23.0453 302.447 23.271 302.4 23.52H304.4C304.363 23.2805 304.255 23.0575 304.09 22.88C304.006 22.7971 303.906 22.7322 303.796 22.6892C303.686 22.6462 303.568 22.6261 303.45 22.63C303.326 22.6235 303.201 22.6423 303.084 22.6853C302.968 22.7282 302.861 22.7945 302.77 22.88Z" fill="#495565"/>
<path d="M307.41 22.15C307.644 22.0162 307.91 21.9472 308.18 21.95V22.68C307.842 22.6622 307.51 22.7729 307.25 22.99C307.132 23.0928 307.038 23.2207 306.976 23.3643C306.914 23.5079 306.884 23.6636 306.89 23.82V25.65H306V22H306.85V22.69C306.98 22.4593 307.175 22.2717 307.41 22.15Z" fill="#495565"/>
<path d="M263.24 33.9C262.977 33.3703 262.84 32.7867 262.84 32.195C262.84 31.6034 262.977 31.0198 263.24 30.49C263.507 29.9616 263.894 29.5028 264.37 29.15L264.8 29.61C264.456 29.9593 264.176 30.3653 263.97 30.81C263.61 31.6983 263.61 32.6917 263.97 33.58C264.176 34.0216 264.457 34.4242 264.8 34.77L264.37 35.24C263.894 34.8873 263.507 34.4284 263.24 33.9Z" fill="#495565"/>
<path d="M265.26 29.24H266.26L267.26 32.69L268.4 29.24H269.34L270.48 32.69L271.48 29.24H272.48L270.96 34.05H270.09L268.88 30.48L267.67 34.05H266.81L265.26 29.24Z" fill="#495565"/>
<path d="M275.43 33.34C275.6 33.2813 275.756 33.1895 275.89 33.07L276.38 33.57C276.193 33.7539 275.968 33.8939 275.72 33.98C275.461 34.0764 275.187 34.1271 274.91 34.13C274.562 34.1386 274.217 34.0558 273.91 33.89C273.622 33.7307 273.384 33.4955 273.22 33.21C273.043 32.9069 272.953 32.5609 272.96 32.21C272.948 31.8599 273.035 31.5134 273.21 31.21C273.37 30.9309 273.601 30.6995 273.88 30.54C274.167 30.3792 274.491 30.2964 274.82 30.3C275.066 30.2879 275.312 30.333 275.537 30.4319C275.763 30.5308 275.962 30.6808 276.12 30.87C276.458 31.3208 276.625 31.8775 276.59 32.44H273.79C273.821 32.7071 273.945 32.9548 274.14 33.14C274.331 33.3138 274.582 33.407 274.84 33.4C275.039 33.4175 275.239 33.3971 275.43 33.34ZM274.2 31.28C274.008 31.4454 273.877 31.671 273.83 31.92H275.83C275.802 31.6778 275.693 31.4523 275.52 31.28C275.436 31.1971 275.336 31.1322 275.226 31.0892C275.116 31.0462 274.998 31.0261 274.88 31.03C274.63 31.0255 274.388 31.1146 274.2 31.28Z" fill="#495565"/>
<path d="M280.46 30.59C280.716 30.7533 280.92 30.9856 281.05 31.26C281.205 31.5698 281.281 31.9136 281.27 32.26C281.28 32.6064 281.204 32.9498 281.05 33.26C280.922 33.5358 280.717 33.7685 280.46 33.93C280.203 34.0916 279.904 34.1749 279.6 34.17C279.342 34.1734 279.088 34.1114 278.86 33.99C278.637 33.8682 278.45 33.6886 278.32 33.47V34.09H277.47V29.16H278.32V31C278.453 30.7863 278.639 30.6106 278.86 30.49C279.088 30.3698 279.342 30.308 279.6 30.31C279.908 30.3181 280.206 30.4154 280.46 30.59ZM280.13 33.08C280.318 32.8405 280.42 32.5447 280.42 32.24C280.42 31.9354 280.318 31.6396 280.13 31.4C280.033 31.2957 279.916 31.2132 279.784 31.158C279.653 31.1029 279.512 31.0763 279.37 31.08C279.232 31.0745 279.095 31.1004 278.968 31.1559C278.842 31.2113 278.729 31.2948 278.64 31.4C278.443 31.6346 278.34 31.9338 278.35 32.24C278.346 32.4475 278.39 32.653 278.48 32.84C278.561 33.0094 278.685 33.1544 278.84 33.26C278.999 33.3587 279.183 33.4106 279.37 33.41C279.513 33.4125 279.655 33.3844 279.786 33.3274C279.917 33.2705 280.034 33.1862 280.13 33.08Z" fill="#495565"/>
<path d="M284.8 33.93C284.455 33.7998 284.139 33.6027 283.87 33.35L284.38 32.73C284.809 33.1404 285.377 33.3727 285.97 33.38C286.201 33.397 286.431 33.3334 286.62 33.2C286.694 33.1483 286.755 33.0795 286.797 32.9994C286.838 32.9193 286.86 32.8303 286.86 32.74C286.864 32.6235 286.824 32.5097 286.75 32.42C286.649 32.3266 286.53 32.2551 286.4 32.21C286.189 32.133 285.971 32.0728 285.75 32.03C285.437 31.9568 285.129 31.8599 284.83 31.74C284.611 31.645 284.418 31.4972 284.27 31.31C284.13 31.1041 284.06 30.8587 284.07 30.61C284.065 30.3433 284.142 30.0815 284.29 29.86C284.445 29.6365 284.655 29.4572 284.9 29.34C285.18 29.2161 285.484 29.1547 285.79 29.16C286.459 29.1483 287.108 29.3872 287.61 29.83L287.13 30.47C286.935 30.2944 286.712 30.1524 286.47 30.05C286.246 29.9546 286.004 29.9069 285.76 29.91C285.552 29.9001 285.346 29.9638 285.18 30.09C285.11 30.1401 285.053 30.2061 285.013 30.2825C284.973 30.359 284.951 30.4437 284.95 30.53C284.947 30.5871 284.957 30.6443 284.977 30.6977C284.998 30.7511 285.03 30.7995 285.07 30.84C285.163 30.9432 285.285 31.0163 285.42 31.05C285.63 31.1251 285.843 31.1885 286.06 31.24C286.511 31.3165 286.94 31.4868 287.32 31.74C287.461 31.8462 287.574 31.986 287.647 32.1466C287.72 32.3073 287.752 32.4838 287.74 32.66C287.747 32.9299 287.67 33.1954 287.52 33.42C287.372 33.6535 287.156 33.8352 286.9 33.94C286.586 34.0802 286.244 34.1453 285.9 34.13C285.525 34.1286 285.152 34.0609 284.8 33.93Z" fill="#495565"/>
<path d="M290.83 33.34C291 33.2813 291.156 33.1895 291.29 33.07L291.78 33.57C291.593 33.7539 291.368 33.8939 291.12 33.98C290.861 34.0764 290.587 34.1271 290.31 34.13C289.961 34.1386 289.617 34.0558 289.31 33.89C289.022 33.7307 288.784 33.4955 288.62 33.21C288.443 32.9069 288.353 32.5609 288.36 32.21C288.348 31.8599 288.435 31.5134 288.61 31.21C288.769 30.9309 289.001 30.6995 289.28 30.54C289.567 30.3792 289.891 30.2964 290.22 30.3C290.466 30.2879 290.712 30.333 290.937 30.4319C291.163 30.5308 291.362 30.6808 291.52 30.87C291.858 31.3208 292.025 31.8775 291.99 32.44H289.19C289.221 32.7071 289.345 32.9548 289.54 33.14C289.731 33.3138 289.982 33.407 290.24 33.4C290.439 33.4175 290.639 33.3971 290.83 33.34ZM289.6 31.28C289.408 31.4454 289.277 31.671 289.23 31.92H291.23C291.198 31.6791 291.089 31.4549 290.92 31.28C290.836 31.1971 290.736 31.1322 290.626 31.0892C290.516 31.0462 290.398 31.0261 290.28 31.03C290.156 31.0247 290.032 31.044 289.915 31.0869C289.798 31.1298 289.691 31.1955 289.6 31.28Z" fill="#495565"/>
<path d="M294.24 30.5501C294.478 30.4163 294.747 30.3473 295.02 30.3501V31.0801C294.679 31.0626 294.344 31.1732 294.08 31.3901C293.962 31.4928 293.868 31.6207 293.806 31.7643C293.744 31.9079 293.714 32.0636 293.72 32.2201V34.0501H292.87V30.4301H293.72V31.1201C293.835 30.8838 294.015 30.6859 294.24 30.5501Z" fill="#495565"/>
<path d="M295.41 30.4301H296.32L297.37 33.0601L298.37 30.4301H299.27L297.74 34.0501H297L295.41 30.4301Z" fill="#495565"/>
<path d="M302.15 33.3401C302.318 33.2835 302.471 33.1914 302.6 33.0701L303.09 33.5701C302.909 33.756 302.686 33.8965 302.44 33.9801C302.177 34.0771 301.9 34.1279 301.62 34.1301C301.288 34.1327 300.961 34.05 300.67 33.8901C300.382 33.7307 300.144 33.4955 299.98 33.2101C299.799 32.9088 299.708 32.5615 299.72 32.2101C299.711 31.8615 299.794 31.5168 299.96 31.2101C300.126 30.9325 300.36 30.7019 300.64 30.5401C300.923 30.3791 301.244 30.2963 301.57 30.3001C301.818 30.2878 302.064 30.3329 302.292 30.4318C302.519 30.5307 302.72 30.6806 302.88 30.8701C303.218 31.3208 303.385 31.8775 303.35 32.4401H300.55C300.581 32.7071 300.705 32.9548 300.9 33.1401C301.091 33.3139 301.342 33.407 301.6 33.4001C301.785 33.4126 301.972 33.3922 302.15 33.3401ZM300.92 31.2801C300.728 31.4454 300.597 31.671 300.55 31.9201H302.55C302.513 31.6805 302.405 31.4575 302.24 31.2801C302.156 31.1971 302.056 31.1322 301.946 31.0892C301.836 31.0462 301.718 31.0261 301.6 31.0301C301.476 31.0235 301.351 31.0423 301.234 31.0853C301.117 31.1283 301.011 31.1945 300.92 31.2801Z" fill="#495565"/>
<path d="M305.56 30.55C305.795 30.4175 306.06 30.3485 306.33 30.35V31.08C305.992 31.0622 305.66 31.1729 305.4 31.39C305.282 31.4928 305.188 31.6206 305.126 31.7642C305.064 31.9078 305.034 32.0636 305.04 32.22V34.05H304.19V30.43H305V31.12C305.125 30.8782 305.32 30.6796 305.56 30.55Z" fill="#495565"/>
<path d="M307.59 34C307.323 33.9128 307.073 33.781 306.85 33.61L307.21 33.05C307.401 33.1839 307.61 33.2916 307.83 33.37C308.028 33.4464 308.238 33.4871 308.45 33.49C308.609 33.4988 308.767 33.4567 308.9 33.37C308.951 33.3392 308.994 33.295 309.022 33.2422C309.05 33.1893 309.063 33.1298 309.06 33.07C309.062 33.0093 309.046 32.9495 309.014 32.898C308.982 32.8464 308.935 32.8054 308.88 32.78C308.695 32.6914 308.5 32.6243 308.3 32.58C308.053 32.5202 307.811 32.4365 307.58 32.33C307.416 32.2601 307.271 32.1501 307.16 32.01C307.055 31.8573 307.003 31.675 307.01 31.49C307.006 31.2793 307.069 31.0728 307.19 30.9C307.309 30.7242 307.476 30.5856 307.67 30.5C307.895 30.4047 308.136 30.357 308.38 30.36C308.621 30.3623 308.86 30.3993 309.09 30.47C309.325 30.5501 309.55 30.6575 309.76 30.79L309.43 31.37C309.265 31.2585 309.087 31.1678 308.9 31.1C308.732 31.0434 308.557 31.0131 308.38 31.01C308.235 31.0005 308.091 31.0392 307.97 31.12C307.922 31.1514 307.882 31.1943 307.854 31.2449C307.826 31.2955 307.811 31.3522 307.81 31.41C307.81 31.4454 307.817 31.4806 307.83 31.5133C307.844 31.5459 307.865 31.5755 307.89 31.6C307.957 31.6505 308.031 31.691 308.11 31.72L308.58 31.88C308.805 31.9381 309.025 32.0116 309.24 32.1C309.408 32.1776 309.558 32.2901 309.68 32.43C309.807 32.5919 309.871 32.7945 309.86 33C309.865 33.1603 309.831 33.3194 309.761 33.4638C309.692 33.6083 309.588 33.7339 309.46 33.83C309.172 34.044 308.819 34.1533 308.46 34.14C308.164 34.1459 307.869 34.0984 307.59 34Z" fill="#495565"/>
<path d="M310.36 34.77C310.709 34.4271 310.994 34.024 311.2 33.58C311.56 32.6917 311.56 31.6983 311.2 30.81C310.994 30.3628 310.71 29.9564 310.36 29.61L310.8 29.15C311.276 29.5028 311.662 29.9616 311.93 30.49C312.193 31.0198 312.33 31.6034 312.33 32.195C312.33 32.7867 312.193 33.3703 311.93 33.9C311.662 34.4284 311.276 34.8873 310.8 35.24L310.36 34.77Z" fill="#495565"/>
<path d="M133.17 18.48V23.29H132.29V21.24H129.89V23.29H129V18.48H129.87V20.48H132.27V18.48H133.17Z" fill="#495565"/>
<path d="M137 20C137.142 20.1467 137.252 20.3208 137.325 20.5117C137.397 20.7025 137.429 20.9061 137.42 21.11V23.29H136.59V22.86C136.454 23.0263 136.278 23.1568 136.08 23.24C135.882 23.328 135.667 23.3724 135.45 23.37C135.212 23.3758 134.977 23.3279 134.76 23.23C134.566 23.1386 134.401 22.997 134.28 22.82C134.166 22.641 134.106 22.4323 134.11 22.22C134.106 21.9968 134.176 21.7785 134.31 21.6C134.441 21.408 134.625 21.2585 134.84 21.17C135.073 21.0676 135.326 21.0165 135.58 21.02C135.921 21.0251 136.259 21.0859 136.58 21.2V21.11C136.587 20.892 136.508 20.6801 136.36 20.52C136.272 20.4381 136.168 20.3754 136.054 20.3358C135.941 20.2962 135.82 20.2806 135.7 20.29C135.35 20.3006 135.008 20.3931 134.7 20.56L134.4 19.97C134.843 19.7318 135.337 19.6016 135.84 19.59C136.051 19.5749 136.263 19.6035 136.463 19.6741C136.662 19.7446 136.845 19.8556 137 20ZM136.25 22.59C136.333 22.5458 136.407 22.4848 136.465 22.4107C136.524 22.3367 136.566 22.2513 136.59 22.16V21.74C136.305 21.6515 136.008 21.6076 135.71 21.61C135.512 21.6065 135.317 21.6622 135.15 21.77C135.081 21.8163 135.025 21.8789 134.987 21.9522C134.949 22.0255 134.929 22.1072 134.93 22.19C134.929 22.2691 134.947 22.3474 134.982 22.4186C135.016 22.4897 135.067 22.5518 135.13 22.6C135.28 22.7032 135.458 22.7558 135.64 22.75C135.854 22.753 136.065 22.6976 136.25 22.59Z" fill="#495565"/>
<path d="M139.85 19.79C140.088 19.6563 140.357 19.5873 140.63 19.59V20.32C140.289 20.3026 139.954 20.4132 139.69 20.63C139.572 20.7328 139.478 20.8607 139.416 21.0043C139.354 21.1479 139.324 21.3036 139.33 21.46V23.29H138.48V19.67H139.33V20.36C139.445 20.1238 139.625 19.9259 139.85 19.79Z" fill="#495565"/>
<path d="M145 18.4V23.29H144.15V22.72C144.016 22.9251 143.829 23.0908 143.61 23.2C143.389 23.3193 143.141 23.378 142.89 23.37C142.587 23.3712 142.29 23.2864 142.033 23.1253C141.776 22.9642 141.571 22.7335 141.44 22.46C141.294 22.1473 141.222 21.8051 141.23 21.46C141.221 21.1149 141.293 20.7724 141.44 20.46C141.571 20.1866 141.776 19.9559 142.033 19.7948C142.29 19.6337 142.587 19.5488 142.89 19.55C143.141 19.5421 143.389 19.6007 143.61 19.72C143.829 19.8292 144.016 19.9949 144.15 20.2V18.4H145ZM143.85 22.32C144.038 22.0805 144.14 21.7846 144.14 21.48C144.14 21.1754 144.038 20.8796 143.85 20.64C143.761 20.5348 143.648 20.4513 143.522 20.3958C143.395 20.3404 143.258 20.3145 143.12 20.32C142.98 20.3177 142.84 20.345 142.711 20.4001C142.582 20.4552 142.466 20.537 142.37 20.64C142.182 20.8796 142.08 21.1754 142.08 21.48C142.08 21.7846 142.182 22.0805 142.37 22.32C142.465 22.4249 142.58 22.5085 142.71 22.5654C142.839 22.6222 142.979 22.6511 143.12 22.65C143.259 22.6536 143.396 22.6258 143.523 22.5687C143.649 22.5115 143.761 22.4265 143.85 22.32Z" fill="#495565"/>
<path d="M145.71 19.67H146.57L147.33 22.14L148.13 19.67H148.84L149.65 22.14L150.4 19.67H151.26L150 23.29H149.23L148.46 20.81L147.69 23.29H146.91L145.71 19.67Z" fill="#495565"/>
<path d="M154.55 20C154.692 20.1468 154.802 20.3209 154.874 20.5117C154.947 20.7026 154.979 20.9062 154.97 21.1101V23.2901H154.14V22.8601C154.003 23.0264 153.828 23.1568 153.63 23.24C153.432 23.3281 153.217 23.3725 153 23.3701C152.762 23.3759 152.526 23.328 152.31 23.23C152.116 23.1387 151.951 22.9971 151.83 22.82C151.716 22.6411 151.656 22.4324 151.66 22.22C151.653 21.998 151.72 21.7799 151.85 21.6C151.985 21.4077 152.172 21.2584 152.39 21.17C152.623 21.0677 152.875 21.0166 153.13 21.02C153.471 21.0252 153.809 21.086 154.13 21.2001V21.1101C154.137 20.8921 154.058 20.6802 153.91 20.52C153.821 20.4369 153.715 20.3734 153.599 20.3338C153.484 20.2941 153.362 20.2792 153.24 20.2901C152.89 20.3018 152.548 20.3942 152.24 20.56L152 20C152.443 19.7605 152.937 19.6302 153.44 19.6201C153.846 19.5953 154.245 19.7319 154.55 20ZM153.8 22.59C153.966 22.4972 154.088 22.3426 154.14 22.16V21.74C153.852 21.6507 153.552 21.6068 153.25 21.6101C153.055 21.6086 152.864 21.6642 152.7 21.7701C152.631 21.8164 152.575 21.879 152.537 21.9523C152.499 22.0256 152.479 22.1073 152.48 22.1901C152.477 22.2696 152.493 22.3488 152.528 22.4203C152.563 22.4919 152.615 22.5537 152.68 22.6C152.83 22.7033 153.008 22.7559 153.19 22.75C153.404 22.753 153.615 22.6977 153.8 22.59Z" fill="#495565"/>
<path d="M157.4 19.79C157.638 19.6563 157.907 19.5873 158.18 19.59V20.32C157.839 20.3026 157.504 20.4132 157.24 20.63C157.122 20.7328 157.028 20.8607 156.966 21.0043C156.904 21.1479 156.874 21.3036 156.88 21.46V23.29H156V19.67H156.85V20.36C156.973 20.1197 157.164 19.9213 157.4 19.79Z" fill="#495565"/>
<path d="M161.19 22.58C161.355 22.5188 161.508 22.4272 161.64 22.31L162.13 22.81C161.949 22.996 161.726 23.1364 161.48 23.22C161.217 23.3171 160.94 23.3678 160.66 23.37C160.311 23.3786 159.967 23.2958 159.66 23.13C159.372 22.9707 159.134 22.7355 158.97 22.45C158.797 22.1459 158.71 21.8 158.72 21.45C158.711 21.1015 158.794 20.7568 158.96 20.45C159.122 20.1729 159.353 19.9422 159.63 19.78C159.917 19.6205 160.241 19.5378 160.57 19.54C160.818 19.5278 161.064 19.5729 161.292 19.6718C161.519 19.7706 161.72 19.9206 161.88 20.11C162.214 20.5632 162.38 21.1181 162.35 21.68H159.54C159.579 21.947 159.705 22.1934 159.9 22.38C160.088 22.5514 160.335 22.6444 160.59 22.64C160.792 22.6573 160.995 22.637 161.19 22.58ZM160 20.51C159.816 20.6844 159.69 20.9114 159.64 21.16H161.64C161.611 20.9201 161.506 20.6958 161.34 20.52C161.256 20.4376 161.155 20.3729 161.045 20.33C160.935 20.287 160.818 20.2667 160.7 20.27C160.445 20.2576 160.194 20.3435 160 20.51Z" fill="#495565"/>
<path d="M168.49 22.38H166.2L165.82 23.29H164.82L166.82 18.48H167.82L169.82 23.29H168.82L168.49 22.38ZM168.19 21.67L167.34 19.67L166.5 21.67H168.19Z" fill="#495565"/>
<path d="M173.58 19.83C173.834 19.996 174.037 20.2275 174.17 20.5C174.317 20.8123 174.389 21.1548 174.38 21.5C174.388 21.845 174.316 22.1873 174.17 22.5C174.037 22.7724 173.834 23.004 173.58 23.17C173.322 23.3305 173.024 23.4138 172.72 23.41C172.474 23.4153 172.23 23.3604 172.01 23.25C171.793 23.1374 171.607 22.9724 171.47 22.77V24.53H170.61V19.67H171.47V20.23C171.608 20.0304 171.793 19.8687 172.01 19.76C172.228 19.642 172.473 19.5833 172.72 19.59C173.024 19.5862 173.322 19.6695 173.58 19.83ZM173.24 22.32C173.428 22.0804 173.531 21.7846 173.531 21.48C173.531 21.1754 173.428 20.8796 173.24 20.64C173.145 20.537 173.028 20.4552 172.899 20.4001C172.77 20.3449 172.631 20.3176 172.49 20.32C172.351 20.3151 172.212 20.3413 172.084 20.3966C171.956 20.452 171.842 20.5351 171.75 20.64C171.568 20.8823 171.47 21.1771 171.47 21.48C171.47 21.7829 171.568 22.0777 171.75 22.32C171.844 22.4236 171.958 22.5065 172.085 22.5633C172.213 22.6201 172.351 22.6497 172.49 22.65C172.631 22.6511 172.771 22.6222 172.9 22.5653C173.03 22.5085 173.145 22.4248 173.24 22.32Z" fill="#495565"/>
<path d="M178.23 19.83C178.486 19.9932 178.69 20.2255 178.82 20.5C178.967 20.8123 179.039 21.1548 179.03 21.5C179.038 21.845 178.966 22.1873 178.82 22.5C178.69 22.7745 178.486 23.0067 178.23 23.17C177.995 23.312 177.729 23.3936 177.455 23.4076C177.181 23.4216 176.908 23.3674 176.66 23.25C176.447 23.1321 176.262 22.9681 176.12 22.77V24.53H175.27V19.67H176.12V20.23C176.262 20.0348 176.447 19.8741 176.66 19.76C176.881 19.642 177.129 19.5834 177.38 19.59C177.681 19.5864 177.976 19.6698 178.23 19.83ZM177.89 22.32C178.083 22.0827 178.189 21.786 178.189 21.48C178.189 21.1739 178.083 20.8772 177.89 20.64C177.796 20.5369 177.682 20.4545 177.555 20.3981C177.427 20.3417 177.289 20.3126 177.15 20.3126C177.011 20.3126 176.873 20.3417 176.745 20.3981C176.618 20.4545 176.504 20.5369 176.41 20.64C176.222 20.8795 176.12 21.1753 176.12 21.48C176.12 21.7846 176.222 22.0804 176.41 22.32C176.504 22.4231 176.618 22.5055 176.745 22.5619C176.873 22.6182 177.011 22.6474 177.15 22.6474C177.289 22.6474 177.427 22.6182 177.555 22.5619C177.682 22.5055 177.796 22.4231 177.89 22.32Z" fill="#495565"/>
<path d="M179.92 18.4H180.78V23.29H179.92V18.4Z" fill="#495565"/>
<path d="M182 19C181.911 18.9091 181.861 18.7872 181.86 18.66C181.859 18.5967 181.87 18.5339 181.895 18.4754C181.919 18.4169 181.954 18.364 182 18.32C182.045 18.2719 182.099 18.2338 182.159 18.2079C182.219 18.1821 182.284 18.1692 182.35 18.17C182.477 18.175 182.598 18.2286 182.687 18.3197C182.776 18.4108 182.828 18.5325 182.83 18.66C182.829 18.7872 182.779 18.9091 182.69 19C182.647 19.0472 182.594 19.085 182.536 19.1108C182.477 19.1366 182.414 19.15 182.35 19.15C182.284 19.1508 182.219 19.1378 182.159 19.112C182.099 19.0862 182.045 19.048 182 19ZM181.92 19.69H182.78V23.31H181.92V19.69Z" fill="#495565"/>
<path d="M184.6 23.12C184.308 22.9504 184.064 22.7096 183.89 22.42C183.713 22.1383 183.62 21.8125 183.62 21.48C183.618 21.1473 183.712 20.8211 183.89 20.54C184.061 20.2507 184.306 20.0125 184.6 19.85C184.901 19.6691 185.249 19.5788 185.6 19.59C185.858 19.5875 186.113 19.6386 186.35 19.74C186.583 19.8457 186.793 19.9951 186.97 20.18L186.39 20.68C186.29 20.5662 186.167 20.4743 186.03 20.41C185.891 20.3514 185.741 20.3208 185.59 20.32C185.396 20.3189 185.206 20.3708 185.04 20.47C184.872 20.5774 184.735 20.7253 184.64 20.9C184.548 21.0795 184.5 21.2783 184.5 21.48C184.5 21.6818 184.548 21.8806 184.64 22.06C184.735 22.2348 184.872 22.3827 185.04 22.49C185.187 22.5855 185.358 22.6404 185.533 22.6492C185.709 22.658 185.884 22.6203 186.04 22.54C186.182 22.4799 186.309 22.3875 186.41 22.27L186.99 22.77C186.809 22.9598 186.592 23.1108 186.352 23.214C186.111 23.3171 185.852 23.3702 185.59 23.37C185.243 23.3807 184.9 23.2941 184.6 23.12Z" fill="#495565"/>
<path d="M190.29 20C190.429 20.1485 190.536 20.3232 190.607 20.5138C190.677 20.7044 190.709 20.907 190.7 21.11V23.29H189.87V22.86C189.735 23.024 189.564 23.1541 189.37 23.24C189.171 23.3261 188.957 23.3703 188.74 23.37C188.502 23.378 188.266 23.33 188.05 23.23C187.853 23.1442 187.686 23.0014 187.57 22.82C187.447 22.6445 187.384 22.4341 187.39 22.22C187.386 21.9968 187.456 21.7786 187.59 21.6C187.723 21.4103 187.907 21.2614 188.12 21.17C188.353 21.0677 188.605 21.0165 188.86 21.02C189.201 21.0252 189.539 21.086 189.86 21.2V21.11C189.866 20.8941 189.791 20.6838 189.65 20.52C189.559 20.4388 189.453 20.3767 189.338 20.3371C189.223 20.2976 189.101 20.2816 188.98 20.29C188.63 20.3007 188.288 20.3931 187.98 20.56L187.68 19.97C188.127 19.7314 188.624 19.6012 189.13 19.59C189.341 19.5767 189.553 19.6062 189.752 19.6767C189.951 19.7471 190.134 19.8571 190.29 20ZM189.53 22.59C189.615 22.5474 189.689 22.4869 189.748 22.4126C189.806 22.3383 189.848 22.2521 189.87 22.16V21.74C189.585 21.6507 189.288 21.6069 188.99 21.61C188.795 21.6048 188.602 21.6608 188.44 21.77C188.37 21.8158 188.313 21.8781 188.273 21.9513C188.233 22.0246 188.211 22.1065 188.21 22.19C188.209 22.2692 188.227 22.3475 188.262 22.4186C188.296 22.4898 188.347 22.5519 188.41 22.6C188.563 22.7047 188.745 22.7573 188.93 22.75C189.141 22.7527 189.348 22.6974 189.53 22.59Z" fill="#495565"/>
<path d="M193.7 23.09C193.595 23.183 193.472 23.2543 193.34 23.3C193.205 23.3476 193.063 23.3713 192.92 23.37C192.785 23.3735 192.651 23.3496 192.525 23.2997C192.4 23.2499 192.286 23.1752 192.19 23.08C192.094 22.9811 192.02 22.8633 191.972 22.7343C191.923 22.6052 191.902 22.4676 191.91 22.33V20.38H191.38V19.67H191.91V18.67H192.73V19.67H193.55V20.38H192.73V22.23C192.728 22.3403 192.767 22.4474 192.84 22.53C192.871 22.5689 192.911 22.5999 192.956 22.6207C193.001 22.6416 193.05 22.6516 193.1 22.65C193.166 22.6595 193.234 22.6595 193.3 22.65C193.359 22.6323 193.411 22.5975 193.45 22.55L193.7 23.09Z" fill="#495565"/>
<path d="M194.55 19C194.504 18.9563 194.468 18.9035 194.444 18.8449C194.42 18.7863 194.408 18.7233 194.41 18.66C194.406 18.5964 194.417 18.5327 194.441 18.4738C194.465 18.4149 194.502 18.3623 194.55 18.32C194.595 18.2719 194.649 18.2338 194.709 18.2079C194.769 18.1821 194.834 18.1692 194.9 18.17C195.027 18.175 195.148 18.2286 195.237 18.3197C195.326 18.4108 195.378 18.5325 195.38 18.66C195.379 18.7872 195.329 18.9091 195.24 19C195.197 19.0472 195.144 19.085 195.086 19.1108C195.027 19.1366 194.964 19.15 194.9 19.15C194.834 19.1508 194.769 19.1378 194.709 19.112C194.649 19.0862 194.595 19.048 194.55 19ZM194.47 19.69H195.32V23.31H194.47V19.69Z" fill="#495565"/>
<path d="M197.15 23.12C196.856 22.9575 196.611 22.7193 196.44 22.43C196.266 22.1438 196.176 21.8147 196.18 21.4799C196.175 21.1451 196.265 20.8156 196.44 20.53C196.611 20.2406 196.856 20.0024 197.15 19.84C197.454 19.667 197.8 19.5806 198.15 19.59C198.5 19.5795 198.846 19.6661 199.15 19.84C199.441 20.0068 199.685 20.2441 199.86 20.53C200.03 20.8175 200.12 21.1457 200.12 21.4799C200.119 21.814 200.029 22.1418 199.86 22.43C199.685 22.7158 199.441 22.9531 199.15 23.12C198.846 23.2938 198.5 23.3804 198.15 23.37C197.8 23.3793 197.454 23.2929 197.15 23.12ZM198.67 22.49C198.837 22.3826 198.975 22.2347 199.07 22.0599C199.169 21.8829 199.221 21.683 199.22 21.4799C199.221 21.2781 199.173 21.079 199.08 20.9C198.981 20.7248 198.84 20.577 198.67 20.4699C198.503 20.3714 198.313 20.3194 198.12 20.3194C197.926 20.3194 197.736 20.3714 197.57 20.4699C197.402 20.5773 197.265 20.7252 197.17 20.9C197.069 21.0765 197.017 21.2767 197.02 21.4799C197.019 21.683 197.07 21.8829 197.17 22.0599C197.265 22.2347 197.402 22.3826 197.57 22.49C197.733 22.5975 197.924 22.6548 198.12 22.6548C198.315 22.6548 198.507 22.5975 198.67 22.49Z" fill="#495565"/>
<path d="M203.59 19.77C203.796 19.8802 203.964 20.0512 204.07 20.26C204.184 20.4864 204.242 20.7366 204.24 20.99V23.29H203.41V21.16C203.419 20.9375 203.344 20.7199 203.2 20.55C203.132 20.4724 203.047 20.4113 202.951 20.3715C202.856 20.3316 202.753 20.314 202.65 20.32C202.423 20.3134 202.202 20.3919 202.03 20.54C201.948 20.6087 201.883 20.6944 201.838 20.7911C201.793 20.8879 201.77 20.9933 201.77 21.1V23.29H200.92V19.67H201.77V20.16C201.889 19.983 202.051 19.8386 202.24 19.74C202.441 19.6376 202.664 19.5861 202.89 19.59C203.135 19.5852 203.377 19.6475 203.59 19.77Z" fill="#495565"/>
<path d="M134.12 26.88H135.81C136.295 26.8686 136.775 26.975 137.21 27.19C137.618 27.3721 137.965 27.667 138.21 28.04C138.443 28.4115 138.564 28.8417 138.56 29.28C138.563 29.7182 138.442 30.1484 138.21 30.5202C137.978 30.8921 137.645 31.1903 137.25 31.38C136.815 31.595 136.335 31.7013 135.85 31.69H134.16L134.12 26.88ZM135.9 30.88C136.213 30.8864 136.522 30.8142 136.8 30.67C137.058 30.5376 137.273 30.3348 137.419 30.0852C137.566 29.8356 137.639 29.5495 137.63 29.26C137.637 28.968 137.561 28.6802 137.41 28.43C137.261 28.1893 137.05 27.9926 136.8 27.86C136.522 27.7158 136.213 27.6436 135.9 27.65H135V30.9L135.9 30.88Z" fill="#495565"/>
<path d="M141.63 31C141.8 30.9412 141.956 30.8494 142.09 30.73L142.58 31.23C142.399 31.4159 142.176 31.5564 141.93 31.64C141.667 31.737 141.39 31.7878 141.11 31.79C140.761 31.7985 140.417 31.7158 140.11 31.55C139.822 31.3906 139.583 31.1554 139.42 30.87C139.247 30.5658 139.16 30.2199 139.17 29.87C139.161 29.5214 139.244 29.1767 139.41 28.87C139.572 28.5928 139.803 28.3621 140.08 28.2C140.367 28.0404 140.691 27.9577 141.02 27.96C141.267 27.9478 141.514 27.9928 141.742 28.0917C141.969 28.1906 142.17 28.3406 142.33 28.53C142.664 28.9831 142.83 29.538 142.8 30.1H140C140.039 30.3645 140.162 30.6097 140.35 30.8C140.541 30.9738 140.792 31.0669 141.05 31.06C141.245 31.0771 141.442 31.0567 141.63 31ZM140.4 28.93C140.212 29.1013 140.085 29.3297 140.04 29.58H142.04C142.011 29.34 141.906 29.1157 141.74 28.94C141.657 28.8555 141.557 28.7896 141.447 28.7465C141.336 28.7034 141.218 28.6842 141.1 28.69C140.847 28.672 140.597 28.7506 140.4 28.91V28.93Z" fill="#495565"/>
<path d="M143.67 26.8H144.53V31.6901H143.67V26.8Z" fill="#495565"/>
<path d="M145.74 27.38C145.694 27.3363 145.658 27.2835 145.634 27.2249C145.609 27.1663 145.598 27.1033 145.6 27.04C145.596 26.9764 145.606 26.9127 145.631 26.8538C145.655 26.7949 145.692 26.7423 145.74 26.7C145.785 26.6519 145.839 26.6138 145.899 26.5879C145.959 26.5621 146.024 26.5492 146.09 26.55C146.217 26.555 146.338 26.6086 146.427 26.6997C146.516 26.7908 146.567 26.9125 146.57 27.04C146.569 27.1672 146.519 27.2891 146.43 27.38C146.387 27.4272 146.334 27.465 146.276 27.4908C146.217 27.5167 146.154 27.53 146.09 27.53C146.024 27.5308 145.959 27.5178 145.899 27.492C145.839 27.4662 145.785 27.428 145.74 27.38ZM145.66 28.07H146.51V31.69H145.66V28.07Z" fill="#495565"/>
<path d="M147.19 28.0699H148.1L149.15 30.6999L150.15 28.0699H151.05L149.52 31.6899H148.72L147.19 28.0699Z" fill="#495565"/>
<path d="M153.93 31C154.1 30.9412 154.256 30.8494 154.39 30.73L154.88 31.23C154.697 31.4136 154.475 31.5537 154.23 31.64C153.967 31.7362 153.69 31.787 153.41 31.79C153.062 31.7985 152.717 31.7158 152.41 31.55C152.122 31.3906 151.884 31.1554 151.72 30.87C151.543 30.5668 151.453 30.2208 151.46 29.87C151.455 29.5205 151.541 29.1757 151.71 28.87C151.872 28.5928 152.103 28.3621 152.38 28.2C152.668 28.0404 152.991 27.9577 153.32 27.96C153.566 27.9478 153.812 27.9929 154.037 28.0918C154.263 28.1908 154.462 28.3407 154.62 28.53C154.961 28.9798 155.131 29.5363 155.1 30.1H152.29C152.325 30.3658 152.448 30.6123 152.64 30.8C152.831 30.9738 153.082 31.0669 153.34 31.06C153.539 31.0784 153.739 31.058 153.93 31ZM152.7 28.93C152.509 29.0988 152.382 29.3284 152.34 29.58H154.34C154.311 29.34 154.206 29.1157 154.04 28.94C153.957 28.8555 153.857 28.7896 153.747 28.7465C153.637 28.7034 153.518 28.6842 153.4 28.69C153.147 28.6719 152.897 28.7506 152.7 28.91V28.93Z" fill="#495565"/>
<path d="M157.34 28.1899C157.578 28.0562 157.847 27.9872 158.12 27.9899V28.7099C157.778 28.6953 157.442 28.8095 157.18 29.0299C157.062 29.1327 156.968 29.2606 156.906 29.4042C156.844 29.5478 156.814 29.7035 156.82 29.8599V31.6899H156V28.0699H156.85V28.7599C156.957 28.5277 157.126 28.3301 157.34 28.1899Z" fill="#495565"/>
<path d="M159.16 32.8999C159.027 32.8717 158.899 32.8245 158.78 32.7599L158.97 32.1399C159.109 32.2257 159.267 32.2739 159.43 32.2799C159.521 32.287 159.613 32.2683 159.694 32.2258C159.776 32.1834 159.843 32.119 159.89 32.0399L160.04 31.7199L158.51 28.0699H159.41L160.47 30.7699L161.47 28.0699H162.36L160.82 31.9399C160.748 32.2158 160.59 32.4615 160.369 32.6413C160.148 32.8212 159.875 32.9258 159.59 32.9399C159.446 32.9422 159.301 32.9288 159.16 32.8999Z" fill="#495565"/>
<path d="M166.11 31.43C165.726 31.2125 165.406 30.8989 165.18 30.52C164.957 30.1465 164.84 29.7198 164.84 29.285C164.84 28.8501 164.957 28.4234 165.18 28.05C165.406 27.671 165.726 27.3574 166.11 27.14C166.487 26.9127 166.92 26.795 167.36 26.8C167.703 26.8002 168.043 26.8682 168.36 27C168.669 27.138 168.95 27.3312 169.19 27.57L168.57 28.15C168.414 27.98 168.228 27.8409 168.02 27.74C167.818 27.6398 167.596 27.5884 167.37 27.59C167.082 27.589 166.801 27.6724 166.56 27.83C166.31 27.9816 166.103 28.1951 165.96 28.45C165.812 28.7012 165.736 28.9883 165.74 29.28C165.736 29.5779 165.812 29.8715 165.96 30.13C166.107 30.3798 166.313 30.5894 166.56 30.74C166.801 30.8975 167.082 30.9809 167.37 30.98C167.596 30.9815 167.818 30.9301 168.02 30.83C168.228 30.729 168.414 30.5899 168.57 30.42L169.19 30.99C168.959 31.2368 168.68 31.4341 168.37 31.57C168.053 31.7015 167.713 31.7694 167.37 31.77C166.927 31.7768 166.49 31.659 166.11 31.43Z" fill="#495565"/>
<path d="M170.71 31.52C170.419 31.3531 170.175 31.1159 170 30.83C169.831 30.5419 169.741 30.2141 169.74 29.88C169.74 29.5457 169.83 29.2176 170 28.93C170.175 28.6441 170.419 28.4069 170.71 28.24C171.014 28.0675 171.36 27.9811 171.71 27.99C172.046 27.9887 172.376 28.0746 172.669 28.2394C172.962 28.4042 173.207 28.6421 173.38 28.93C173.55 29.2176 173.64 29.5457 173.64 29.88C173.632 30.3857 173.425 30.8679 173.064 31.2218C172.702 31.5757 172.216 31.7727 171.71 31.77C171.36 31.7789 171.014 31.6925 170.71 31.52ZM172.23 30.89C172.397 30.7827 172.535 30.6348 172.63 30.46C172.729 30.283 172.781 30.0831 172.78 29.88C172.781 29.6782 172.733 29.4791 172.64 29.3C172.541 29.1248 172.4 28.977 172.23 28.87C172.068 28.7689 171.881 28.7137 171.69 28.71C171.492 28.711 171.298 28.7664 171.13 28.87C170.963 28.9773 170.825 29.1252 170.73 29.3C170.629 29.4765 170.577 29.6768 170.58 29.88C170.579 30.0831 170.63 30.283 170.73 30.46C170.825 30.6348 170.963 30.7827 171.13 30.89C171.298 30.9936 171.492 31.049 171.69 31.05C171.881 31.0463 172.068 30.9911 172.23 30.89Z" fill="#495565"/>
<path d="M177.15 28.17C177.357 28.2802 177.524 28.4512 177.63 28.66C177.749 28.8844 177.808 29.136 177.8 29.39V31.69H177V29.55C177.007 29.3308 176.932 29.1168 176.79 28.95C176.722 28.8711 176.638 28.8086 176.542 28.767C176.447 28.7255 176.344 28.706 176.24 28.71C176.012 28.7062 175.791 28.7883 175.62 28.94C175.538 29.0086 175.473 29.0944 175.428 29.1911C175.383 29.2879 175.36 29.3933 175.36 29.5V31.69H174.51V28.07H175.36V28.56C175.479 28.383 175.641 28.2386 175.83 28.14C176.032 28.0387 176.254 27.9873 176.48 27.99C176.715 27.9906 176.946 28.0526 177.15 28.17Z" fill="#495565"/>
<path d="M180.8 31.4899C180.695 31.5829 180.573 31.6542 180.44 31.6999C180.305 31.7475 180.163 31.7712 180.02 31.7699C179.885 31.7734 179.751 31.7495 179.625 31.6996C179.5 31.6498 179.386 31.5751 179.29 31.4799C179.194 31.381 179.12 31.2633 179.072 31.1342C179.023 31.0051 179.002 30.8675 179.01 30.7299V28.7799H178.48V28.0699H179V27.0699H179.82V28.0699H180.64V28.7799H179.82V30.6299C179.818 30.7402 179.857 30.8473 179.93 30.9299C179.961 30.9688 180.001 30.9998 180.046 31.0207C180.091 31.0415 180.14 31.0515 180.19 31.0499C180.256 31.0594 180.324 31.0594 180.39 31.0499C180.447 31.0285 180.498 30.9943 180.54 30.9499L180.8 31.4899Z" fill="#495565"/>
<path d="M182.94 28.1899C183.178 28.0562 183.447 27.9872 183.72 27.9899V28.7099C183.378 28.6953 183.042 28.8095 182.78 29.0299C182.662 29.1327 182.568 29.2606 182.506 29.4042C182.444 29.5478 182.414 29.7035 182.42 29.8599V31.6899H181.57V28.0699H182.42V28.7599C182.535 28.5237 182.715 28.3258 182.94 28.1899Z" fill="#495565"/>
<path d="M185.26 31.52C184.966 31.3576 184.721 31.1193 184.55 30.83C184.373 30.5447 184.28 30.2156 184.28 29.88C184.279 29.5442 184.372 29.2148 184.55 28.93C184.721 28.6407 184.966 28.4024 185.26 28.24C185.557 28.0754 185.891 27.989 186.23 27.989C186.569 27.989 186.903 28.0754 187.2 28.24C187.491 28.4031 187.733 28.6414 187.9 28.93C188.075 29.2157 188.165 29.5451 188.16 29.88C188.164 30.2147 188.074 30.5439 187.9 30.83C187.733 31.1186 187.491 31.3569 187.2 31.52C186.903 31.6846 186.569 31.771 186.23 31.771C185.891 31.771 185.557 31.6846 185.26 31.52ZM186.78 30.89C186.945 30.7799 187.082 30.6326 187.18 30.46C187.28 30.2829 187.331 30.0831 187.33 29.88C187.333 29.6767 187.281 29.4765 187.18 29.3C187.085 29.1252 186.947 28.9773 186.78 28.87C186.617 28.7625 186.426 28.7051 186.23 28.7051C186.035 28.7051 185.843 28.7625 185.68 28.87C185.513 28.9773 185.375 29.1252 185.28 29.3C185.172 29.4738 185.116 29.6753 185.12 29.88C185.117 30.0846 185.173 30.2857 185.28 30.46C185.375 30.6347 185.513 30.7827 185.68 30.89C185.843 30.9975 186.035 31.0548 186.23 31.0548C186.426 31.0548 186.617 30.9975 186.78 30.89Z" fill="#495565"/>
<path d="M189 26.8H189.86V31.6901H189V26.8Z" fill="#495565"/>
<path d="M191 26.8H191.86V31.6901H191V26.8Z" fill="#495565"/>
<path d="M195.16 31C195.33 30.9412 195.486 30.8494 195.62 30.73L196.11 31.23C195.927 31.4136 195.705 31.5537 195.46 31.64C195.197 31.7362 194.92 31.787 194.64 31.79C194.292 31.7985 193.947 31.7158 193.64 31.55C193.352 31.3906 193.114 31.1554 192.95 30.87C192.773 30.5668 192.683 30.2208 192.69 29.87C192.685 29.5205 192.771 29.1757 192.94 28.87C193.102 28.5928 193.333 28.3621 193.61 28.2C193.898 28.0404 194.221 27.9577 194.55 27.96C194.796 27.9478 195.042 27.9929 195.267 28.0918C195.493 28.1908 195.692 28.3407 195.85 28.53C196.191 28.9798 196.361 29.5363 196.33 30.1H193.52C193.555 30.3658 193.678 30.6123 193.87 30.8C194.061 30.9738 194.312 31.0669 194.57 31.06C194.769 31.0784 194.969 31.058 195.16 31ZM193.93 28.93C193.739 29.0988 193.612 29.3284 193.57 29.58H195.57C195.541 29.34 195.436 29.1157 195.27 28.94C195.187 28.8555 195.087 28.7896 194.977 28.7465C194.866 28.7034 194.748 28.6842 194.63 28.69C194.377 28.6719 194.127 28.7506 193.93 28.91V28.93Z" fill="#495565"/>
<path d="M198.57 28.1899C198.808 28.0562 199.077 27.9872 199.35 27.9899V28.7099C199.008 28.6953 198.672 28.8095 198.41 29.0299C198.292 29.1327 198.198 29.2606 198.136 29.4042C198.074 29.5478 198.044 29.7035 198.05 29.8599V31.6899H197.2V28.0699H198.05V28.7599C198.165 28.5237 198.345 28.3258 198.57 28.1899Z" fill="#495565"/>
<path d="M132.65 39.9399C132.387 39.4102 132.25 38.8266 132.25 38.2349C132.25 37.6433 132.387 37.0597 132.65 36.5299C132.921 36.0037 133.307 35.5456 133.78 35.1899L134.22 35.6499C133.873 35.9947 133.589 36.3974 133.38 36.8399C133.02 37.7316 133.02 38.7283 133.38 39.6199C133.586 40.0639 133.871 40.467 134.22 40.8099L133.78 41.2799C133.307 40.9243 132.921 40.4662 132.65 39.9399Z" fill="#495565"/>
<path d="M137.58 36.8C137.722 36.9467 137.832 37.1208 137.904 37.3117C137.977 37.5025 138.009 37.7061 138 37.91V40.09H137.17V39.66C137.032 39.8244 136.857 39.9544 136.66 40.04C136.451 40.1291 136.227 40.175 136 40.175C135.773 40.175 135.549 40.1291 135.34 40.04C135.146 39.9486 134.981 39.807 134.86 39.63C134.746 39.451 134.686 39.2423 134.69 39.03C134.683 38.8079 134.75 38.5898 134.88 38.41C135.015 38.2176 135.202 38.0683 135.42 37.98C135.652 37.8742 135.905 37.8196 136.16 37.82C136.501 37.8287 136.839 37.8928 137.16 38.01V37.92C137.164 37.7026 137.085 37.4918 136.94 37.33C136.852 37.2452 136.746 37.1806 136.63 37.1409C136.515 37.1012 136.392 37.0872 136.27 37.1C135.92 37.1117 135.578 37.2041 135.27 37.37L134.98 36.77C135.425 36.5377 135.918 36.4111 136.42 36.4C136.63 36.3842 136.842 36.4115 137.041 36.4803C137.241 36.5491 137.424 36.6579 137.58 36.8ZM136.83 39.39C136.996 39.2971 137.118 39.1425 137.17 38.96V38.54C136.882 38.4506 136.582 38.4068 136.28 38.41C136.084 38.402 135.891 38.4582 135.73 38.57C135.661 38.6163 135.605 38.6789 135.567 38.7522C135.529 38.8255 135.509 38.9072 135.51 38.99C135.507 39.0695 135.523 39.1487 135.558 39.2202C135.593 39.2918 135.645 39.3536 135.71 39.4C135.858 39.5059 136.038 39.5588 136.22 39.55C136.434 39.553 136.645 39.4977 136.83 39.39Z" fill="#495565"/>
<path d="M139.06 35.2H139.91V38.2L141.47 36.49H142.47L141 38.09L142.45 40.09H141.45L140.45 38.65L139.94 39.18V40.09H139.09L139.06 35.2Z" fill="#495565"/>
<path d="M145.74 36.8C145.882 36.9467 145.992 37.1208 146.064 37.3117C146.137 37.5026 146.169 37.7062 146.16 37.91V40.09H145.33V39.66C145.194 39.8263 145.018 39.9568 144.82 40.04C144.622 40.1281 144.407 40.1724 144.19 40.17C143.952 40.1758 143.717 40.128 143.5 40.03C143.306 39.9386 143.141 39.7971 143.02 39.62C142.906 39.4411 142.846 39.2324 142.85 39.02C142.846 38.7968 142.916 38.5786 143.05 38.4C143.181 38.208 143.365 38.0585 143.58 37.97C143.812 37.8642 144.065 37.8097 144.32 37.81C144.661 37.8187 144.999 37.8829 145.32 38V37.91C145.324 37.802 145.307 37.6943 145.269 37.593C145.231 37.4918 145.174 37.399 145.1 37.32C145.013 37.236 144.909 37.1719 144.795 37.1321C144.681 37.0924 144.56 37.078 144.44 37.09C144.09 37.1006 143.748 37.1931 143.44 37.36L143.14 36.76C143.586 36.5291 144.078 36.4025 144.58 36.39C144.791 36.375 145.003 36.4036 145.203 36.4741C145.402 36.5447 145.585 36.6556 145.74 36.8ZM145 39.39C145.083 39.3459 145.157 39.2848 145.215 39.2108C145.274 39.1368 145.316 39.0514 145.34 38.96V38.54C145.055 38.4515 144.758 38.4077 144.46 38.41C144.261 38.402 144.065 38.4581 143.9 38.57C143.831 38.6163 143.775 38.679 143.737 38.7523C143.699 38.8256 143.679 38.9073 143.68 38.99C143.679 39.0692 143.697 39.1475 143.732 39.2186C143.766 39.2898 143.817 39.3519 143.88 39.4C144.03 39.5033 144.208 39.5558 144.39 39.55C144.604 39.553 144.815 39.4977 145 39.39Z" fill="#495565"/>
<path d="M152.67 39.29V40.09H149.33V35.28H150.2V39.28L152.67 39.29Z" fill="#495565"/>
<path d="M154.17 39.92C153.876 39.7575 153.631 39.5193 153.46 39.23C153.286 38.9438 153.196 38.6147 153.2 38.28C153.185 37.9282 153.276 37.58 153.46 37.28C153.631 36.9907 153.876 36.7524 154.17 36.59C154.467 36.4254 154.801 36.339 155.14 36.339C155.479 36.339 155.813 36.4254 156.11 36.59C156.401 36.753 156.643 36.9914 156.81 37.28C156.994 37.58 157.085 37.9282 157.07 38.28C157.074 38.6147 156.984 38.9438 156.81 39.23C156.643 39.5186 156.401 39.7569 156.11 39.92C155.813 40.0846 155.479 40.1709 155.14 40.1709C154.801 40.1709 154.467 40.0846 154.17 39.92ZM155.69 39.29C155.857 39.1826 155.995 39.0347 156.09 38.86C156.19 38.6829 156.241 38.483 156.24 38.28C156.243 38.0767 156.191 37.8765 156.09 37.7C155.998 37.523 155.86 37.3744 155.69 37.27C155.527 37.1624 155.336 37.1051 155.14 37.1051C154.945 37.1051 154.753 37.1624 154.59 37.27C154.423 37.3773 154.285 37.5252 154.19 37.7C154.089 37.8765 154.037 38.0767 154.04 38.28C154.039 38.483 154.091 38.6829 154.19 38.86C154.285 39.0347 154.423 39.1826 154.59 39.29C154.753 39.3975 154.945 39.4548 155.14 39.4548C155.336 39.4548 155.527 39.3975 155.69 39.29Z" fill="#495565"/>
<path d="M160.51 36.8C160.652 36.9467 160.762 37.1208 160.835 37.3117C160.907 37.5026 160.939 37.7062 160.93 37.91V40.09H160.1V39.66C159.964 39.8263 159.788 39.9568 159.59 40.04C159.392 40.1281 159.177 40.1724 158.96 40.17C158.722 40.1758 158.487 40.128 158.27 40.03C158.076 39.9386 157.911 39.7971 157.79 39.62C157.676 39.4411 157.617 39.2324 157.62 39.02C157.616 38.7968 157.686 38.5786 157.82 38.4C157.951 38.208 158.135 38.0585 158.35 37.97C158.582 37.8642 158.835 37.8097 159.09 37.81C159.431 37.8187 159.769 37.8829 160.09 38V37.91C160.094 37.802 160.077 37.6943 160.039 37.593C160.001 37.4918 159.944 37.399 159.87 37.32C159.783 37.236 159.679 37.1719 159.565 37.1321C159.451 37.0924 159.33 37.078 159.21 37.09C158.86 37.1006 158.518 37.1931 158.21 37.36L157.91 36.76C158.356 36.53 158.848 36.4036 159.35 36.39C159.561 36.375 159.773 36.4036 159.973 36.4741C160.172 36.5447 160.355 36.6556 160.51 36.8ZM159.76 39.39C159.843 39.3459 159.917 39.2848 159.975 39.2108C160.034 39.1368 160.076 39.0514 160.1 38.96V38.54C159.815 38.4515 159.518 38.4077 159.22 38.41C159.021 38.402 158.825 38.4581 158.66 38.57C158.592 38.6163 158.536 38.679 158.497 38.7523C158.459 38.8256 158.439 38.9073 158.44 38.99C158.439 39.0692 158.457 39.1475 158.492 39.2186C158.526 39.2898 158.577 39.3519 158.64 39.4C158.79 39.5033 158.968 39.5558 159.15 39.55C159.364 39.553 159.575 39.4977 159.76 39.39Z" fill="#495565"/>
<path d="M165.52 35.2V40.09H164.66V39.52C164.527 39.7223 164.345 39.8874 164.13 40C163.909 40.1171 163.661 40.1756 163.41 40.1699C163.106 40.1749 162.808 40.0915 162.55 39.93C162.293 39.7684 162.088 39.5357 161.96 39.2599C161.806 38.9497 161.73 38.6063 161.74 38.2599C161.729 37.9135 161.805 37.5697 161.96 37.2599C162.088 36.9842 162.293 36.7515 162.55 36.5899C162.808 36.4284 163.106 36.345 163.41 36.3499C163.661 36.3443 163.909 36.4028 164.13 36.52C164.345 36.6325 164.527 36.7976 164.66 37V35.2H165.52ZM164.37 39.1199C164.552 38.8776 164.65 38.5829 164.65 38.2799C164.65 37.977 164.552 37.6823 164.37 37.4399C164.279 37.3332 164.166 37.2482 164.037 37.1911C163.909 37.134 163.77 37.1063 163.63 37.11C163.489 37.1089 163.349 37.1377 163.22 37.1946C163.09 37.2515 162.975 37.3351 162.88 37.4399C162.692 37.6795 162.59 37.9753 162.59 38.2799C162.59 38.5846 162.692 38.8804 162.88 39.1199C162.975 39.2248 163.09 39.3084 163.22 39.3653C163.349 39.4222 163.489 39.451 163.63 39.45C163.77 39.4536 163.909 39.4259 164.037 39.3688C164.166 39.3117 164.279 39.2267 164.37 39.1199Z" fill="#495565"/>
<path d="M168.76 35.2801H171.12C171.375 35.2756 171.627 35.3268 171.86 35.4301C172.06 35.5288 172.232 35.6767 172.36 35.8601C172.449 36.001 172.508 36.1595 172.531 36.3248C172.554 36.4902 172.541 36.6585 172.494 36.8186C172.447 36.9787 172.365 37.1268 172.256 37.253C172.147 37.3791 172.012 37.4804 171.86 37.5501C172.116 37.6668 172.34 37.8455 172.51 38.0701C172.66 38.2763 172.741 38.525 172.74 38.7801C172.742 39.0214 172.672 39.2579 172.54 39.4601C172.404 39.6585 172.218 39.8172 172 39.9201C171.752 40.0339 171.483 40.092 171.21 40.0901H168.76V35.2801ZM170.91 37.2801C171.098 37.2871 171.282 37.2268 171.43 37.1101C171.496 37.0593 171.549 36.9942 171.585 36.9196C171.622 36.845 171.64 36.763 171.64 36.6801C171.642 36.5954 171.624 36.5114 171.587 36.435C171.551 36.3586 171.497 36.2918 171.43 36.2401C171.285 36.119 171.099 36.0582 170.91 36.0701H169.63V37.2801H170.91ZM171.04 39.3601C171.25 39.3679 171.456 39.3005 171.62 39.1701C171.692 39.1106 171.749 39.0355 171.787 38.9506C171.825 38.8656 171.843 38.7731 171.84 38.6801C171.843 38.5855 171.825 38.4915 171.787 38.405C171.749 38.3184 171.692 38.2415 171.62 38.1801C171.441 38.0487 171.221 37.985 171 38.0001H169.59V39.3701L171.04 39.3601Z" fill="#495565"/>
<path d="M176.28 36.8C176.422 36.9467 176.532 37.1208 176.604 37.3117C176.677 37.5025 176.709 37.7061 176.7 37.91V40.09H175.87V39.66C175.733 39.8263 175.558 39.9568 175.36 40.04C175.162 40.1281 174.947 40.1724 174.73 40.17C174.477 40.1727 174.226 40.1144 174 40C173.807 39.911 173.644 39.7687 173.53 39.59C173.407 39.4144 173.344 39.2041 173.35 38.99C173.346 38.7668 173.416 38.5485 173.55 38.37C173.681 38.178 173.865 38.0285 174.08 37.94C174.312 37.8342 174.565 37.7796 174.82 37.78C175.161 37.7887 175.499 37.8528 175.82 37.97V37.88C175.824 37.772 175.807 37.6643 175.769 37.563C175.731 37.4618 175.674 37.369 175.6 37.29C175.513 37.2059 175.409 37.1418 175.295 37.1021C175.181 37.0624 175.06 37.048 174.94 37.06C174.59 37.0706 174.248 37.1631 173.94 37.33L173.64 36.73C174.086 36.5 174.578 36.3735 175.08 36.36C175.3 36.3431 175.521 36.3737 175.728 36.4496C175.935 36.5255 176.123 36.645 176.28 36.8ZM175.53 39.39C175.613 39.3458 175.687 39.2848 175.745 39.2107C175.804 39.1367 175.846 39.0513 175.87 38.96V38.54C175.585 38.4515 175.288 38.4076 174.99 38.41C174.791 38.402 174.595 38.4581 174.43 38.57C174.361 38.6163 174.305 38.6789 174.267 38.7522C174.229 38.8255 174.209 38.9072 174.21 38.99C174.209 39.0691 174.227 39.1474 174.262 39.2186C174.296 39.2897 174.347 39.3518 174.41 39.4C174.56 39.5032 174.738 39.5558 174.92 39.55C175.134 39.553 175.345 39.4977 175.53 39.39Z" fill="#495565"/>
<path d="M177.76 35.2H178.61V40.09H177.76V35.2Z" fill="#495565"/>
<path d="M182.33 36.7999C182.469 36.9485 182.576 37.1231 182.647 37.3137C182.717 37.5043 182.749 37.707 182.74 37.9099V40.0899H181.91V39.6599C181.775 39.8239 181.604 39.954 181.41 40.0399C181.211 40.126 180.997 40.1703 180.78 40.1699C180.542 40.1779 180.306 40.13 180.09 40.0299C179.893 39.9441 179.726 39.8014 179.61 39.6199C179.487 39.4444 179.424 39.2341 179.43 39.0199C179.426 38.7967 179.496 38.5785 179.63 38.3999C179.763 38.2102 179.947 38.0613 180.16 37.9699C180.392 37.8642 180.645 37.8096 180.9 37.8099C181.241 37.8186 181.579 37.8828 181.9 37.9999V37.9099C181.908 37.6937 181.833 37.4827 181.69 37.3199C181.601 37.2368 181.495 37.1733 181.38 37.1337C181.264 37.094 181.142 37.0791 181.02 37.0899C180.67 37.1006 180.328 37.1931 180.02 37.3599L179.72 36.7599C180.169 36.5289 180.665 36.4024 181.17 36.3899C181.381 36.3767 181.593 36.4061 181.792 36.4766C181.991 36.547 182.174 36.657 182.33 36.7999ZM181.57 39.3899C181.653 39.3458 181.727 39.2848 181.785 39.2107C181.844 39.1367 181.886 39.0513 181.91 38.9599V38.5399C181.625 38.4507 181.328 38.4068 181.03 38.4099C180.831 38.4019 180.635 38.458 180.47 38.5699C180.402 38.6163 180.346 38.6789 180.307 38.7522C180.269 38.8255 180.249 38.9072 180.25 38.9899C180.249 39.0691 180.267 39.1474 180.302 39.2186C180.336 39.2897 180.387 39.3518 180.45 39.3999C180.6 39.5032 180.778 39.5558 180.96 39.5499C181.174 39.554 181.385 39.4986 181.57 39.3899Z" fill="#495565"/>
<path d="M186.47 36.57C186.677 36.6801 186.844 36.8512 186.95 37.06C187.069 37.2844 187.128 37.536 187.12 37.79V40.09H186.29V38C186.297 37.7808 186.222 37.5668 186.08 37.4C186.014 37.3219 185.931 37.2598 185.837 37.2182C185.744 37.1767 185.642 37.1568 185.54 37.16C185.309 37.1546 185.084 37.2368 184.91 37.39C184.828 37.4586 184.763 37.5444 184.718 37.6411C184.673 37.7379 184.65 37.8433 184.65 37.95V40.14H183.8V36.47H184.65V37C184.772 36.8253 184.933 36.6815 185.12 36.58C185.322 36.4798 185.545 36.4284 185.77 36.43C186.012 36.413 186.254 36.4613 186.47 36.57Z" fill="#495565"/>
<path d="M188.88 39.91C188.586 39.7475 188.341 39.5093 188.17 39.22C187.993 38.9382 187.9 38.6124 187.9 38.28C187.898 37.9473 187.992 37.621 188.17 37.34C188.341 37.0507 188.586 36.8124 188.88 36.65C189.181 36.469 189.529 36.3788 189.88 36.39C190.138 36.3875 190.393 36.4386 190.63 36.54C190.861 36.6445 191.071 36.7902 191.25 36.97L190.68 37.48C190.576 37.3659 190.45 37.274 190.31 37.21C190.171 37.1474 190.022 37.1134 189.87 37.11C189.675 37.1123 189.485 37.1676 189.32 37.27C189.155 37.3776 189.021 37.5256 188.93 37.7C188.832 37.8776 188.78 38.0771 188.78 38.28C188.78 38.4828 188.832 38.6824 188.93 38.86C189.021 39.0343 189.155 39.1823 189.32 39.29C189.468 39.3855 189.638 39.4404 189.813 39.4491C189.989 39.4579 190.164 39.4203 190.32 39.34C190.464 39.2769 190.593 39.185 190.7 39.07L191.27 39.56C191.096 39.7554 190.881 39.9092 190.64 40.01C190.398 40.1194 190.135 40.174 189.87 40.17C189.522 40.1821 189.177 40.0917 188.88 39.91Z" fill="#495565"/>
<path d="M194.15 39.38C194.32 39.3212 194.476 39.2295 194.61 39.11L195.1 39.61C194.917 39.7937 194.695 39.9338 194.45 40.02C194.187 40.1163 193.91 40.167 193.63 40.17C193.281 40.1785 192.937 40.0958 192.63 39.93C192.342 39.7706 192.103 39.5355 191.94 39.25C191.763 38.9469 191.673 38.6009 191.68 38.25C191.673 38.003 191.716 37.7571 191.807 37.5273C191.898 37.2974 192.034 37.0883 192.208 36.9127C192.382 36.737 192.59 36.5983 192.819 36.5051C193.047 36.4118 193.293 36.3658 193.54 36.37C193.786 36.3578 194.031 36.4029 194.257 36.5019C194.483 36.6008 194.682 36.7508 194.84 36.94C195.181 37.3898 195.351 37.9463 195.32 38.51H192.51C192.545 38.7759 192.668 39.0223 192.86 39.21C193.051 39.3838 193.302 39.477 193.56 39.47C193.761 39.4788 193.961 39.4482 194.15 39.38ZM192.92 37.31C192.729 37.4789 192.602 37.7084 192.56 37.96H194.56C194.531 37.7201 194.426 37.4958 194.26 37.32C194.175 37.2358 194.073 37.1701 193.961 37.1271C193.849 37.0841 193.73 37.0646 193.61 37.07C193.358 37.0601 193.111 37.1458 192.92 37.31Z" fill="#495565"/>
<path d="M197.56 36.59C197.798 36.4562 198.067 36.3872 198.34 36.39V37.11C197.998 37.0953 197.662 37.2095 197.4 37.43C197.282 37.5327 197.188 37.6606 197.126 37.8042C197.064 37.9478 197.034 38.1035 197.04 38.26V40.09H196.19V36.47H197V37.16C197.125 36.9182 197.32 36.7196 197.56 36.59Z" fill="#495565"/>
<path d="M198.83 40.8099C199.179 40.467 199.464 40.0639 199.67 39.6199C200.03 38.7283 200.03 37.7316 199.67 36.8399C199.462 36.3974 199.177 35.9947 198.83 35.6499L199.28 35.1899C199.753 35.5456 200.139 36.0037 200.41 36.5299C200.673 37.0597 200.811 37.6433 200.811 38.2349C200.811 38.8266 200.673 39.4102 200.41 39.9399C200.139 40.4662 199.753 40.9243 199.28 41.2799L198.83 40.8099Z" fill="#495565"/>
<path d="M28.12 30.4601H25.83L25.45 31.3701H24.45L26.45 26.5601H27.45L29.45 31.3701H28.45L28.12 30.4601ZM27.82 29.7501L26.9799 27.7501L26.1299 29.7501H27.82Z" fill="#495565"/>
<path d="M33.21 27.9099C33.4635 28.076 33.6674 28.3075 33.8 28.5799C33.9472 28.8923 34.0191 29.2348 34.01 29.5799C34.018 29.925 33.9461 30.2672 33.8 30.5799C33.6674 30.8524 33.4635 31.0839 33.21 31.2499C32.953 31.4134 32.6546 31.5002 32.35 31.4999C32.103 31.5018 31.8593 31.4434 31.64 31.3299C31.4206 31.2207 31.2342 31.0551 31.1 30.8499V32.6199H30.25V27.7499H31.1V28.3099C31.2376 28.1103 31.4233 27.9487 31.64 27.8399C31.8576 27.7219 32.1025 27.6633 32.35 27.6699C32.6537 27.6662 32.9521 27.7494 33.21 27.9099ZM32.87 30.3999C33.0581 30.1604 33.1604 29.8646 33.1604 29.5599C33.1604 29.2553 33.0581 28.9595 32.87 28.7199C32.7745 28.6169 32.6583 28.5352 32.5291 28.48C32.3999 28.4249 32.2605 28.3976 32.12 28.3999C31.982 28.3944 31.8446 28.4203 31.7181 28.4758C31.5916 28.5312 31.4794 28.6147 31.39 28.7199C31.2018 28.9595 31.0996 29.2553 31.0996 29.5599C31.0996 29.8646 31.2018 30.1604 31.39 30.3999C31.4789 30.5064 31.5908 30.5914 31.7172 30.6486C31.8436 30.7057 31.9813 30.7335 32.12 30.7299C32.2612 30.731 32.4011 30.7022 32.5303 30.6453C32.6596 30.5884 32.7754 30.5048 32.87 30.3999Z" fill="#495565"/>
<path d="M37.8599 27.91C38.1158 28.0733 38.3203 28.3056 38.4499 28.58C38.6005 28.8916 38.6759 29.2341 38.6699 29.58C38.6748 29.9259 38.5995 30.2682 38.4499 30.58C38.3203 30.8545 38.1158 31.0868 37.8599 31.25C37.6064 31.4133 37.3114 31.5 37.0099 31.5C36.7599 31.5008 36.5132 31.4425 36.2899 31.33C36.0744 31.2151 35.8893 31.0506 35.7499 30.8501V32.62H34.8999V27.75H35.7499V28.31C35.8923 28.1148 36.0769 27.9542 36.2899 27.84C36.5115 27.7229 36.7593 27.6644 37.0099 27.67C37.3104 27.6665 37.6056 27.7498 37.8599 27.91ZM37.5299 30.4C37.718 30.1605 37.8203 29.8647 37.8203 29.56C37.8203 29.2554 37.718 28.9596 37.5299 28.72C37.4344 28.617 37.3182 28.5353 37.189 28.4801C37.0598 28.425 36.9204 28.3977 36.7799 28.4C36.6404 28.3944 36.5015 28.4203 36.3734 28.4757C36.2453 28.5311 36.1313 28.6146 36.0399 28.72C35.8518 28.9596 35.7495 29.2554 35.7495 29.56C35.7495 29.8647 35.8518 30.1605 36.0399 30.4C36.1308 30.5068 36.2445 30.5918 36.3725 30.6489C36.5006 30.706 36.6398 30.7337 36.7799 30.73C36.9211 30.7311 37.061 30.7023 37.1903 30.6454C37.3195 30.5885 37.4353 30.5049 37.5299 30.4Z" fill="#495565"/>
<path d="M39.5601 26.48H40.4101V31.37H39.5601V26.48Z" fill="#495565"/>
<path d="M41.62 27.06C41.5309 26.9692 41.4807 26.8472 41.48 26.72C41.4798 26.6569 41.4921 26.5944 41.5161 26.5361C41.5402 26.4777 41.5754 26.4247 41.62 26.38C41.6646 26.332 41.7188 26.2938 41.7791 26.268C41.8394 26.2421 41.9044 26.2292 41.97 26.23C42.034 26.23 42.0973 26.2433 42.1558 26.2692C42.2143 26.295 42.2669 26.3327 42.31 26.38C42.3545 26.4247 42.3898 26.4777 42.4138 26.5361C42.4378 26.5944 42.4501 26.6569 42.45 26.72C42.4492 26.8472 42.399 26.9692 42.31 27.06C42.2669 27.1073 42.2143 27.145 42.1558 27.1709C42.0973 27.1967 42.034 27.21 41.97 27.21C41.9044 27.2108 41.8394 27.1979 41.7791 27.172C41.7188 27.1462 41.6646 27.1081 41.62 27.06ZM41.54 27.75H42.4V31.37H41.54V27.75Z" fill="#495565"/>
<path d="M44.23 31.2C43.9381 31.0303 43.6938 30.7895 43.52 30.5C43.3435 30.2182 43.25 29.8925 43.25 29.56C43.2483 29.2273 43.342 28.9011 43.52 28.62C43.6908 28.3307 43.936 28.0924 44.23 27.93C44.5315 27.7491 44.8786 27.6588 45.23 27.67C45.4889 27.6659 45.7454 27.7206 45.98 27.83C46.2152 27.9271 46.4267 28.0738 46.6 28.26L46.03 28.76C45.9262 28.6459 45.8004 28.554 45.66 28.49C45.5209 28.4306 45.3713 28.4 45.22 28.4C45.0264 28.3988 44.8362 28.4507 44.67 28.55C44.5054 28.6576 44.3711 28.8057 44.28 28.98C44.182 29.1576 44.1305 29.3571 44.1305 29.56C44.1305 29.7629 44.182 29.9624 44.28 30.14C44.3711 30.3143 44.5054 30.4624 44.67 30.57C44.8338 30.6758 45.025 30.7314 45.22 30.73C45.375 30.7256 45.5277 30.6916 45.67 30.63C45.8144 30.5634 45.9437 30.4682 46.05 30.35L46.62 30.85C46.4433 31.0394 46.2287 31.1893 45.99 31.29C45.749 31.4026 45.4861 31.4606 45.22 31.46C44.8723 31.4671 44.5294 31.377 44.23 31.2Z" fill="#495565"/>
<path d="M49.9199 28.08C50.0605 28.2272 50.1693 28.4017 50.2399 28.5926C50.3104 28.7835 50.341 28.9868 50.33 29.19V31.37H49.5V30.94C49.3652 31.104 49.194 31.2341 49 31.32C48.8016 31.409 48.5873 31.4566 48.3699 31.46C48.1314 31.4649 47.895 31.4135 47.68 31.31C47.4869 31.2223 47.3211 31.0841 47.2 30.91C47.0724 30.732 47.0026 30.519 47 30.3C46.9955 30.0768 47.0659 29.8586 47.2 29.68C47.3362 29.493 47.5189 29.3448 47.73 29.25C47.9633 29.1486 48.2155 29.0975 48.47 29.1C48.812 29.1031 49.1507 29.1674 49.47 29.29V29.19C49.4756 28.9741 49.4008 28.7638 49.2599 28.6C49.17 28.5179 49.0641 28.4551 48.9488 28.4155C48.8336 28.3759 48.7114 28.3605 48.59 28.37C48.2401 28.3807 47.8976 28.4731 47.59 28.64L47.3 28.05C47.7428 27.8104 48.2365 27.6802 48.74 27.67C48.9542 27.654 49.1695 27.6821 49.3725 27.7526C49.5755 27.8231 49.7618 27.9346 49.9199 28.08ZM49.16 30.67C49.2445 30.6274 49.3188 30.5669 49.3775 30.4926C49.4362 30.4184 49.478 30.3321 49.5 30.24V29.82C49.2142 29.7356 48.9179 29.6918 48.6199 29.69C48.4229 29.685 48.2297 29.7447 48.07 29.86C48.0003 29.9036 47.9428 29.964 47.9026 30.0356C47.8624 30.1073 47.8408 30.1879 47.84 30.27C47.8378 30.3505 47.8559 30.4302 47.8926 30.5019C47.9292 30.5735 47.9834 30.6348 48.05 30.68C48.1982 30.786 48.3779 30.8388 48.56 30.83C48.771 30.8343 48.979 30.7789 49.16 30.67Z" fill="#495565"/>
<path d="M53.33 31.17C53.2249 31.2629 53.1026 31.3343 52.97 31.38C52.8356 31.4306 52.6936 31.4577 52.55 31.46C52.4143 31.4621 52.2797 31.4366 52.1542 31.3851C52.0287 31.3335 51.915 31.2569 51.82 31.16C51.7242 31.061 51.6499 30.9433 51.6017 30.8142C51.5535 30.6852 51.5325 30.5476 51.54 30.41V28.46H51V27.75H51.53V26.75H52.35V27.75H53.17V28.46H52.35V30.31C52.3478 30.4203 52.387 30.5273 52.46 30.61C52.492 30.6477 52.5318 30.678 52.5768 30.6987C52.6217 30.7194 52.6705 30.7301 52.72 30.73C52.7858 30.745 52.8542 30.745 52.92 30.73C52.9807 30.7103 53.0357 30.6759 53.08 30.63L53.33 31.17Z" fill="#495565"/>
<path d="M54.18 27.06C54.091 26.9692 54.0408 26.8472 54.04 26.72C54.0399 26.6569 54.0522 26.5944 54.0762 26.5361C54.1002 26.4777 54.1355 26.4247 54.18 26.38C54.2247 26.332 54.2789 26.2938 54.3392 26.268C54.3994 26.2421 54.4645 26.2292 54.53 26.23C54.594 26.23 54.6573 26.2433 54.7159 26.2692C54.7744 26.295 54.8269 26.3327 54.87 26.38C54.9146 26.4247 54.9499 26.4777 54.9739 26.5361C54.9979 26.5944 55.0102 26.6569 55.01 26.72C55.0093 26.8472 54.9591 26.9692 54.87 27.06C54.8269 27.1073 54.7744 27.145 54.7159 27.1709C54.6573 27.1967 54.594 27.21 54.53 27.21C54.4645 27.2108 54.3994 27.1979 54.3392 27.172C54.2789 27.1462 54.2247 27.1081 54.18 27.06ZM54.1 27.75H55V31.37H54.1V27.75Z" fill="#495565"/>
<path d="M56.7801 31.2C56.4893 31.0332 56.2452 30.7959 56.0701 30.51C55.9003 30.2222 55.8108 29.8942 55.8108 29.56C55.8108 29.2259 55.9003 28.8978 56.0701 28.61C56.2452 28.3242 56.4893 28.0869 56.7801 27.92C57.0844 27.7471 57.4302 27.6607 57.7801 27.67C58.1301 27.6596 58.4761 27.7461 58.7801 27.92C59.0708 28.0869 59.315 28.3242 59.4901 28.61C59.6598 28.8978 59.7494 29.2259 59.7494 29.56C59.7494 29.8942 59.6598 30.2222 59.4901 30.51C59.315 30.7959 59.0708 31.0332 58.7801 31.2C58.4772 31.3774 58.131 31.4674 57.7801 31.46C57.4293 31.4659 57.0836 31.376 56.7801 31.2ZM58.3001 30.57C58.4675 30.4627 58.6051 30.3148 58.7001 30.14C58.7996 29.963 58.8513 29.7631 58.8501 29.56C58.8513 29.3582 58.8033 29.1591 58.7101 28.98C58.6113 28.8048 58.4704 28.6571 58.3001 28.55C58.1335 28.4515 57.9436 28.3995 57.7501 28.3995C57.5566 28.3995 57.3666 28.4515 57.2001 28.55C57.0326 28.6574 56.895 28.8053 56.8001 28.98C56.6993 29.1565 56.6475 29.3568 56.6501 29.56C56.6489 29.7631 56.7006 29.963 56.8001 30.14C56.895 30.3148 57.0326 30.4627 57.2001 30.57C57.3634 30.6776 57.5546 30.7349 57.7501 30.7349C57.9456 30.7349 58.1368 30.6776 58.3001 30.57Z" fill="#495565"/>
<path d="M63.22 27.85C63.4246 27.9627 63.5916 28.1331 63.7 28.34C63.8184 28.5647 63.8769 28.8161 63.87 29.07V31.37H63V29.24C63.0088 29.0175 62.9338 28.7999 62.79 28.63C62.7218 28.5524 62.6369 28.4913 62.5416 28.4515C62.4463 28.4116 62.3431 28.394 62.24 28.4C62.0131 28.3934 61.792 28.4719 61.62 28.62C61.5389 28.6891 61.4737 28.7749 61.4288 28.8716C61.3839 28.9682 61.3605 29.0734 61.36 29.18V31.37H60.51V27.75H61.36V28.24C61.4771 28.0636 61.6394 27.922 61.83 27.83C62.0292 27.7212 62.2531 27.6661 62.48 27.67C62.7388 27.6577 62.9957 27.7202 63.22 27.85Z" fill="#495565"/>
<path d="M12.6401 39.52C12.2587 39.2984 11.9417 38.9814 11.7201 38.6C11.4908 38.2289 11.3694 37.8013 11.3694 37.365C11.3694 36.9288 11.4908 36.5012 11.7201 36.13C11.9437 35.7526 12.2609 35.4393 12.6411 35.2203C13.0212 35.0013 13.4514 34.8841 13.8901 34.88C14.2297 34.8791 14.5659 34.9468 14.8787 35.0792C15.1915 35.2115 15.4742 35.4057 15.7101 35.65L15.0901 36.24C14.9429 36.0623 14.7586 35.9189 14.5501 35.82C14.3434 35.7242 14.1178 35.6763 13.8901 35.68C13.6033 35.6755 13.3216 35.7555 13.0801 35.91C12.8354 36.065 12.6327 36.2779 12.4901 36.53C12.3399 36.7809 12.2604 37.0677 12.2601 37.36C12.2593 37.6588 12.3387 37.9524 12.4901 38.21C12.6356 38.46 12.8376 38.6723 13.0801 38.83C13.3237 38.98 13.604 39.0596 13.8901 39.06C14.1185 39.0603 14.3441 39.009 14.5501 38.91C14.7575 38.809 14.9441 38.6699 15.1001 38.5L15.7101 39.07C15.4781 39.32 15.1962 39.5186 14.8827 39.6529C14.5693 39.7873 14.2311 39.8544 13.8901 39.85C13.4517 39.851 13.0208 39.7373 12.6401 39.52Z" fill="#495565"/>
<path d="M16.55 34.88H17.41V39.77H16.55V34.88Z" fill="#495565"/>
<path d="M18.62 35.46C18.531 35.3692 18.4807 35.2472 18.48 35.12C18.4798 35.0569 18.4921 34.9944 18.5161 34.9361C18.5402 34.8778 18.5754 34.8247 18.62 34.78C18.6646 34.732 18.7188 34.6938 18.7791 34.668C18.8394 34.6422 18.9044 34.6292 18.97 34.63C19.034 34.63 19.0973 34.6433 19.1558 34.6692C19.2143 34.695 19.2669 34.7328 19.31 34.78C19.3545 34.8247 19.3898 34.8778 19.4138 34.9361C19.4379 34.9944 19.4501 35.0569 19.45 35.12C19.4492 35.2472 19.399 35.3692 19.31 35.46C19.2669 35.5073 19.2143 35.5451 19.1558 35.5709C19.0973 35.5967 19.034 35.6101 18.97 35.61C18.9044 35.6108 18.8394 35.5979 18.7791 35.5721C18.7188 35.5462 18.6646 35.5081 18.62 35.46ZM18.54 36.15H19.4V39.77H18.54V36.15Z" fill="#495565"/>
<path d="M22.6899 39.06C22.8596 39.0013 23.0159 38.9095 23.1499 38.79L23.6399 39.29C23.4567 39.4737 23.2346 39.6138 22.9899 39.7C22.7271 39.7963 22.4498 39.8471 22.1699 39.85C21.8214 39.8586 21.4766 39.7758 21.1699 39.61C20.8821 39.4507 20.6435 39.2155 20.4799 38.93C20.303 38.6269 20.2131 38.2809 20.2199 37.93C20.2131 37.683 20.2565 37.4371 20.3473 37.2073C20.4381 36.9775 20.5745 36.7684 20.7483 36.5927C20.9221 36.417 21.1297 36.2784 21.3586 36.1851C21.5875 36.0918 21.8328 36.0459 22.0799 36.05C22.326 36.0379 22.5715 36.083 22.7971 36.1819C23.0227 36.2808 23.2222 36.4308 23.3799 36.62C23.7211 37.0699 23.8912 37.6263 23.8599 38.19H21.0899C21.1251 38.4559 21.2483 38.7024 21.4399 38.89C21.6309 39.0638 21.8818 39.157 22.1399 39.15C22.3272 39.1537 22.5136 39.1232 22.6899 39.06ZM21.4599 37C21.2668 37.1631 21.139 37.3903 21.0999 37.64H23.0999C23.0709 37.4001 22.9658 37.1758 22.7999 37C22.625 36.8338 22.3912 36.7439 22.1499 36.75C21.8966 36.7429 21.6499 36.8323 21.4599 37Z" fill="#495565"/>
<path d="M27.4 36.2501C27.6046 36.3627 27.7715 36.5331 27.88 36.7401C27.9983 36.9648 28.0569 37.2162 28.05 37.4701V39.7701H27.22V37.6401C27.2338 37.4061 27.1547 37.1761 27 37.0001C26.9318 36.9225 26.8468 36.8614 26.7515 36.8216C26.6562 36.7817 26.5531 36.7641 26.45 36.7701C26.2231 36.7635 26.002 36.842 25.83 36.9901C25.7489 37.0592 25.6837 37.145 25.6388 37.2416C25.5939 37.3383 25.5704 37.4435 25.57 37.5501V39.7401H24.72V36.1501H25.57V36.6401C25.687 36.4637 25.8494 36.3221 26.04 36.2301C26.2391 36.1213 26.4631 36.0662 26.69 36.0701C26.9387 36.0635 27.1844 36.1258 27.4 36.2501Z" fill="#495565"/>
<path d="M31.05 39.57C30.9449 39.6629 30.8226 39.7342 30.69 39.78C30.5551 39.8275 30.413 39.8512 30.27 39.85C30.135 39.8534 30.0008 39.8295 29.8753 39.7797C29.7499 39.7298 29.6358 39.6551 29.54 39.56C29.4442 39.461 29.3698 39.3433 29.3217 39.2142C29.2735 39.0852 29.2525 38.9475 29.26 38.81V36.81H28.73V36.1H29.26V35.1H30.08V36.1H30.9V36.81H30.08V38.66C30.0778 38.7702 30.117 38.8773 30.19 38.96C30.222 38.9977 30.2618 39.028 30.3067 39.0487C30.3516 39.0694 30.4005 39.0801 30.45 39.08C30.5163 39.0894 30.5836 39.0894 30.65 39.08C30.7107 39.0602 30.7656 39.0259 30.81 38.98L31.05 39.57Z" fill="#495565"/>
<path d="M32.23 39.71C31.9609 39.6207 31.7077 39.489 31.48 39.32L31.85 38.76C32.0402 38.896 32.249 39.0038 32.47 39.08C32.6677 39.1573 32.8777 39.198 33.09 39.2C33.2489 39.2088 33.4065 39.1668 33.54 39.08C33.5914 39.0493 33.6334 39.0051 33.6616 38.9522C33.6898 38.8994 33.703 38.8399 33.7 38.78C33.7016 38.7194 33.6855 38.6596 33.6535 38.608C33.6215 38.5565 33.5751 38.5155 33.52 38.49C33.3343 38.4031 33.1398 38.336 32.94 38.29C32.6942 38.2284 32.4536 38.1482 32.22 38.05C32.0548 37.9766 31.9104 37.8632 31.8 37.72C31.6953 37.5674 31.6427 37.385 31.65 37.2C31.6495 36.9912 31.7085 36.7866 31.82 36.61C31.9453 36.436 32.1143 36.298 32.31 36.21C32.5341 36.1138 32.7761 36.0661 33.02 36.07C33.2606 36.0732 33.4997 36.1102 33.73 36.18C33.965 36.2602 34.1899 36.3676 34.4 36.5L34.07 37.08C33.904 36.9704 33.7262 36.8799 33.54 36.81C33.3723 36.7535 33.1969 36.7231 33.02 36.72C32.8754 36.7153 32.7327 36.7536 32.61 36.83C32.5601 36.86 32.5191 36.9026 32.491 36.9535C32.4629 37.0044 32.4487 37.0619 32.45 37.12C32.4497 37.1555 32.4566 37.1906 32.4703 37.2233C32.4841 37.256 32.5044 37.2855 32.53 37.31C32.5949 37.3584 32.6654 37.3987 32.74 37.43L33.22 37.59C33.4448 37.6481 33.6653 37.7216 33.88 37.81C34.0483 37.8877 34.1983 38.0001 34.32 38.14C34.4396 38.3053 34.4996 38.5063 34.49 38.71C34.4959 38.8695 34.4636 39.028 34.3957 39.1724C34.3279 39.3168 34.2265 39.4428 34.1 39.54C33.8116 39.754 33.4589 39.8634 33.1 39.85C32.8039 39.8559 32.5092 39.8085 32.23 39.71Z" fill="#495565"/>
<path d="M39.2501 34.5699H40.1701L37.7401 40.2899H36.8301L39.2501 34.5699Z" fill="#495565"/>
<path d="M43.7899 35.76V36.92H46.2699V37.72H43.7899V39H46.5299V39.8H42.9199V35H46.5299V35.8L43.7899 35.76Z" fill="#495565"/>
<path d="M50.2 36.25C50.4046 36.3627 50.5716 36.5331 50.68 36.74C50.7984 36.9647 50.8569 37.2161 50.85 37.47V39.77H50V37.64C50.0088 37.4175 49.9338 37.1999 49.79 37.03C49.7218 36.9524 49.6369 36.8913 49.5416 36.8515C49.4463 36.8116 49.3431 36.794 49.24 36.8C49.0131 36.7934 48.792 36.8719 48.62 37.02C48.5389 37.0891 48.4737 37.1749 48.4288 37.2716C48.3839 37.3682 48.3605 37.4734 48.36 37.58V39.77H47.51V36.15H48.36V36.64C48.4771 36.4636 48.6394 36.322 48.83 36.23C49.0292 36.1212 49.2531 36.0661 49.48 36.07C49.7321 36.0615 49.9815 36.1239 50.2 36.25Z" fill="#495565"/>
<path d="M55.44 34.88V39.77H54.58V39.2C54.4493 39.4044 54.2663 39.5701 54.05 39.68C53.8284 39.7971 53.5805 39.8556 53.33 39.85C53.0261 39.8549 52.7274 39.7715 52.47 39.61C52.2126 39.4485 52.0077 39.2157 51.88 38.94C51.7338 38.6273 51.662 38.2851 51.67 37.94C51.6609 37.5948 51.7328 37.2524 51.88 36.94C52.0077 36.6643 52.2126 36.4315 52.47 36.27C52.7274 36.1085 53.0261 36.0251 53.33 36.03C53.5805 36.0244 53.8284 36.0829 54.05 36.2C54.2663 36.3099 54.4493 36.4756 54.58 36.68V34.88H55.44ZM54.29 38.8C54.4781 38.5604 54.5804 38.2646 54.5804 37.96C54.5804 37.6554 54.4781 37.3596 54.29 37.12C54.1962 37.0169 54.082 36.9345 53.9545 36.8781C53.8271 36.8217 53.6893 36.7926 53.55 36.7926C53.4106 36.7926 53.2728 36.8217 53.1454 36.8781C53.0179 36.9345 52.9037 37.0169 52.81 37.12C52.6167 37.3573 52.5111 37.654 52.5111 37.96C52.5111 38.266 52.6167 38.5627 52.81 38.8C52.9037 38.9031 53.0179 38.9855 53.1454 39.0419C53.2728 39.0983 53.4106 39.1274 53.55 39.1274C53.6893 39.1274 53.8271 39.0983 53.9545 39.0419C54.082 38.9855 54.1962 38.9031 54.29 38.8Z" fill="#495565"/>
<path d="M59.6 39.58C59.277 39.4075 59.0125 39.143 58.84 38.82C58.6559 38.483 58.5629 38.1039 58.57 37.72V35H59.44V37.73C59.4398 37.9756 59.4944 38.2182 59.6 38.44C59.7029 38.641 59.8584 38.8103 60.05 38.93C60.2422 39.0476 60.4646 39.1067 60.69 39.1C60.9185 39.1069 61.1441 39.0479 61.34 38.93C61.526 38.8068 61.6774 38.6381 61.78 38.44C61.8904 38.2199 61.9453 37.9762 61.94 37.73V35H62.81V37.76C62.817 38.1439 62.724 38.523 62.54 38.86C62.3682 39.1802 62.1078 39.444 61.79 39.62C61.4525 39.8027 61.0737 39.8957 60.69 39.89C60.3056 39.8846 59.9296 39.7776 59.6 39.58Z" fill="#495565"/>
<path d="M64.3701 39.71C64.101 39.6207 63.8478 39.489 63.6201 39.32L63.9801 38.76C64.1727 38.892 64.381 38.9995 64.6001 39.08C64.7983 39.1556 65.0081 39.1962 65.2201 39.2C65.3823 39.2102 65.5436 39.1682 65.6801 39.08C65.7301 39.0477 65.771 39.0032 65.799 38.9507C65.827 38.8982 65.8411 38.8395 65.8401 38.78C65.8424 38.7179 65.8253 38.6567 65.7912 38.6048C65.7572 38.5528 65.7079 38.5127 65.6501 38.49C65.4687 38.4011 65.2773 38.3339 65.0801 38.29C64.8344 38.2284 64.5937 38.1481 64.3601 38.05C64.1949 37.9765 64.0506 37.8631 63.9401 37.72C63.8355 37.5673 63.7829 37.385 63.7901 37.2C63.7896 36.9912 63.8486 36.7865 63.9601 36.61C64.0816 36.4363 64.2473 36.2982 64.4401 36.21C64.6649 36.1157 64.9064 36.0681 65.1501 36.07C65.3941 36.0723 65.6366 36.1093 65.8701 36.18C66.1052 36.2601 66.33 36.3675 66.5401 36.5L66.2001 37.08C66.0353 36.9685 65.8573 36.8778 65.6701 36.81C65.5028 36.752 65.3272 36.7216 65.1501 36.72C65.0087 36.7154 64.8693 36.7538 64.7501 36.83C64.7003 36.86 64.6592 36.9025 64.6311 36.9535C64.603 37.0044 64.5889 37.0618 64.5901 37.12C64.5879 37.1548 64.593 37.1897 64.605 37.2224C64.6171 37.2551 64.6358 37.285 64.6601 37.31L64.8801 37.43L65.3601 37.59C65.5812 37.6495 65.7983 37.723 66.0101 37.81C66.18 37.8851 66.3305 37.9979 66.4501 38.14C66.5771 38.3019 66.6411 38.5045 66.6301 38.71C66.636 38.8694 66.6037 39.028 66.5359 39.1723C66.468 39.3167 66.3666 39.4428 66.2401 39.54C65.951 39.7526 65.5988 39.8617 65.2401 39.85C64.9441 39.8559 64.6494 39.8084 64.3701 39.71Z" fill="#495565"/>
<path d="M69.65 39.06C69.8167 39.0013 69.9697 38.9095 70.1 38.79L70.59 39.29C70.4086 39.476 70.1859 39.6164 69.94 39.7C69.6774 39.7971 69.3999 39.8478 69.12 39.85C68.7711 39.8615 68.4257 39.7785 68.12 39.61C67.8146 39.4547 67.559 39.2167 67.3822 38.9233C67.2054 38.6298 67.1146 38.2926 67.12 37.95C67.1115 37.6015 67.1942 37.2568 67.36 36.95C67.5259 36.6725 67.76 36.4419 68.04 36.28C68.3233 36.1191 68.6442 36.0363 68.97 36.04C69.2175 36.0278 69.4645 36.0729 69.6917 36.1718C69.9189 36.2706 70.1202 36.4206 70.28 36.61C70.6137 37.0632 70.7798 37.6181 70.75 38.18H68C68.0386 38.447 68.1653 38.6934 68.36 38.88C68.551 39.0538 68.8018 39.147 69.06 39.14C69.2599 39.151 69.4602 39.1239 69.65 39.06ZM68.42 37C68.2278 37.1653 68.0973 37.391 68.05 37.64H70.05C70.0131 37.4005 69.9051 37.1775 69.74 37C69.6559 36.9171 69.5557 36.8522 69.4457 36.8092C69.3357 36.7662 69.218 36.7461 69.1 36.75C68.9756 36.7435 68.8512 36.7623 68.7343 36.8053C68.6174 36.8483 68.5105 36.9145 68.42 37Z" fill="#495565"/>
<path d="M73.0599 36.27C73.2943 36.1362 73.5601 36.0672 73.8299 36.07V36.8C73.4919 36.7822 73.1597 36.8929 72.8999 37.11C72.7819 37.2128 72.6882 37.3407 72.626 37.4843C72.5637 37.6279 72.5343 37.7836 72.5399 37.94V39.77H71.6899V36.15H72.5399V36.84C72.6546 36.6038 72.8352 36.4059 73.0599 36.27Z" fill="#495565"/>
<path d="M75.0901 39.71C74.821 39.6207 74.5678 39.489 74.3401 39.32L74.7101 38.76C74.9003 38.896 75.1091 39.0038 75.3301 39.08C75.5278 39.1573 75.7379 39.198 75.9501 39.2C76.109 39.2088 76.2666 39.1668 76.4001 39.08C76.4515 39.0493 76.4935 39.0051 76.5217 38.9522C76.5499 38.8994 76.5632 38.8399 76.5601 38.78C76.5618 38.7194 76.5456 38.6596 76.5136 38.608C76.4816 38.5565 76.4352 38.5155 76.3801 38.49C76.1944 38.4031 76 38.336 75.8001 38.29C75.5544 38.2284 75.3137 38.1482 75.0801 38.05C74.9149 37.9766 74.7706 37.8632 74.6601 37.72C74.5554 37.5674 74.5028 37.385 74.5101 37.2C74.5096 36.9912 74.5686 36.7866 74.6801 36.61C74.8054 36.436 74.9744 36.298 75.1701 36.21C75.3942 36.1138 75.6362 36.0661 75.8801 36.07C76.1208 36.0723 76.36 36.1094 76.5901 36.18C76.8252 36.2602 77.05 36.3676 77.2601 36.5L76.9301 37.08C76.7641 36.9704 76.5863 36.8799 76.4001 36.81C76.2324 36.7535 76.057 36.7231 75.8801 36.72C75.7355 36.7153 75.5928 36.7536 75.4701 36.83C75.4202 36.86 75.3792 36.9026 75.3511 36.9535C75.323 37.0044 75.3088 37.0619 75.3101 37.12C75.3098 37.1555 75.3167 37.1906 75.3305 37.2233C75.3442 37.256 75.3645 37.2855 75.3901 37.31C75.455 37.3584 75.5255 37.3987 75.6001 37.43L76.0801 37.59C76.3049 37.6481 76.5254 37.7216 76.7401 37.81C76.9085 37.8877 77.0584 38.0001 77.1801 38.14C77.2997 38.3053 77.3597 38.5063 77.3501 38.71C77.356 38.8695 77.3237 39.028 77.2558 39.1724C77.188 39.3168 77.0866 39.4428 76.9601 39.54C76.6717 39.754 76.319 39.8634 75.9601 39.85C75.664 39.8559 75.3694 39.8085 75.0901 39.71Z" fill="#495565"/>
<path d="M245.78 58.83L250.47 63.62H212.68L213.41 65.9H250.44L245.78 70.56L247.39 72.18L254.86 64.71L247.39 57.22L245.78 58.83Z" fill="#218FCF"/>
<path d="M218.66 70.7L213.96 65.92H238.97V63.64H214L218.65 58.97L217.04 57.36L209.58 64.83L217.04 72.32L218.66 70.7Z" fill="#218FCF"/>
<path d="M116.31 58.83L121.01 63.62H83.21L83.95 65.9H120.97L116.31 70.56L117.93 72.18L125.39 64.71L117.93 57.22L116.31 58.83Z" fill="#218FCF"/>
<path d="M89.1901 70.7L84.4901 65.92H109.5V63.64H84.5301L89.1901 58.97L87.5701 57.36L80.1101 64.83L87.5701 72.32L89.1901 70.7Z" fill="#218FCF"/>
<path fill-rule="evenodd" clip-rule="evenodd" d="M181.06 65.86C181.06 66.1567 180.972 66.4467 180.807 66.6933C180.642 66.94 180.408 67.1323 180.134 67.2458C179.86 67.3593 179.558 67.389 179.267 67.3312C178.976 67.2733 178.709 67.1304 178.499 66.9206C178.29 66.7109 178.147 66.4436 178.089 66.1526C178.031 65.8616 178.061 65.56 178.174 65.286C178.288 65.0119 178.48 64.7776 178.727 64.6128C178.973 64.448 179.263 64.36 179.56 64.36C179.958 64.36 180.339 64.518 180.621 64.7993C180.902 65.0806 181.06 65.4622 181.06 65.86Z" fill="#218FCF"/>
<path fill-rule="evenodd" clip-rule="evenodd" d="M186.06 65.86C186.06 66.1567 185.972 66.4467 185.807 66.6933C185.642 66.94 185.408 67.1323 185.134 67.2458C184.86 67.3593 184.558 67.389 184.267 67.3312C183.976 67.2733 183.709 67.1304 183.499 66.9206C183.29 66.7109 183.147 66.4436 183.089 66.1526C183.031 65.8616 183.061 65.56 183.174 65.286C183.288 65.0119 183.48 64.7776 183.727 64.6128C183.973 64.448 184.263 64.36 184.56 64.36C184.958 64.36 185.339 64.518 185.621 64.7993C185.902 65.0806 186.06 65.4622 186.06 65.86Z" fill="#218FCF"/>
<path fill-rule="evenodd" clip-rule="evenodd" d="M190.06 59.36H143.06V72.36H190.06V59.36ZM188.82 60.66V71.06H144.3V60.66H188.82Z" fill="#1E4489"/>
<path d="M148.06 63.36H146.06V65.36H148.06V63.36Z" fill="#1E4489"/>
<path d="M148.06 66.36H146.06V68.36H148.06V66.36Z" fill="#1E4489"/>
<path d="M150.96 63.36H148.96V65.36H150.96V63.36Z" fill="#1E4489"/>
<path d="M150.96 66.36H148.96V68.36H150.96V66.36Z" fill="#1E4489"/>
<path d="M153.86 63.36H151.86V65.36H153.86V63.36Z" fill="#1E4489"/>
<path d="M153.86 66.36H151.86V68.36H153.86V66.36Z" fill="#1E4489"/>
<path d="M156.75 63.36H154.75V65.36H156.75V63.36Z" fill="#1E4489"/>
<path d="M156.75 66.36H154.75V68.36H156.75V66.36Z" fill="#1E4489"/>
<path d="M159.65 63.36H157.65V65.36H159.65V63.36Z" fill="#1E4489"/>
<path d="M159.65 66.36H157.65V68.36H159.65V66.36Z" fill="#1E4489"/>
<path d="M162.55 63.36H160.55V65.36H162.55V63.36Z" fill="#1E4489"/>
<path d="M162.55 66.36H160.55V68.36H162.55V66.36Z" fill="#1E4489"/>
<path fill-rule="evenodd" clip-rule="evenodd" d="M47.24 81.42C46.2824 80.8617 45.2787 80.3867 44.24 80L43.75 74.67H42.75L43.31 80.75L43.59 80.88C44.08 81.09 45.25 81.55 46.01 81.93H35C35.77 81.55 36.94 81.05 37.42 80.88L37.7 80.75L38.47 74.67H37.47L36.8 80C35.7647 80.3951 34.7617 80.8698 33.8 81.42C33.6462 81.5302 33.5321 81.687 33.4745 81.8671C33.4168 82.0472 33.4188 82.2411 33.48 82.42C33.5315 82.5859 33.6333 82.7318 33.7712 82.8374C33.9091 82.9431 34.0764 83.0034 34.25 83.01H46.75C46.9275 83.0002 47.0978 82.9362 47.2378 82.8266C47.3779 82.717 47.481 82.5672 47.5333 82.3972C47.5856 82.2273 47.5846 82.0454 47.5303 81.876C47.4761 81.7067 47.3713 81.558 47.23 81.45L47.24 81.42Z" fill="#1E4489"/>
<path fill-rule="evenodd" clip-rule="evenodd" d="M59 70.92C59 71.1853 58.8946 71.4396 58.7071 71.6272C58.5196 71.8147 58.2652 71.92 58 71.92H23C22.8733 71.9282 22.7462 71.9105 22.6265 71.8682C22.5068 71.8259 22.3968 71.7597 22.3034 71.6738C22.2099 71.5878 22.1349 71.4837 22.0827 71.368C22.0306 71.2522 22.0024 71.127 22 71V48.42C21.9919 48.2941 22.0092 48.1679 22.0509 48.0488C22.0926 47.9297 22.1579 47.8203 22.2428 47.727C22.3277 47.6337 22.4306 47.5584 22.5452 47.5057C22.6598 47.4529 22.7839 47.4238 22.91 47.42H57.91C58.0571 47.4214 58.2025 47.4516 58.3379 47.5091C58.4732 47.5666 58.596 47.6502 58.699 47.7551C58.8021 47.8601 58.8835 47.9843 58.9386 48.1207C58.9937 48.2571 59.0213 48.403 59.02 48.55V70.92H59ZM57.93 46.42H22.93C22.4118 46.4382 21.9209 46.6569 21.5608 47.03C21.2008 47.4031 20.9997 47.9015 21 48.42V71C21 71.5305 21.2107 72.0392 21.5858 72.4143C21.9609 72.7893 22.4696 73 23 73H58C58.2704 73.0003 58.538 72.9458 58.7867 72.8397C59.0354 72.7336 59.2601 72.5782 59.447 72.3828C59.634 72.1874 59.7793 71.9562 59.8744 71.7031C59.9694 71.4499 60.0122 71.1802 60 70.91V48.59C60.0108 48.0302 59.8007 47.4886 59.4152 47.0824C59.0296 46.6763 58.4997 46.4383 57.94 46.42H57.93Z" fill="#1E4489"/>
<path d="M56.7099 69.6801H25.1399V70.5101H56.7099V69.6801Z" fill="#1E4489"/>
<path fill-rule="evenodd" clip-rule="evenodd" d="M37.6401 58.73L36.8401 57.07L36.0001 58.73H37.6401ZM37.8001 59.07H35.8701L35.5201 59.78H35.0801L36.6201 56.63H37.0501L38.5901 59.78H38.1501L37.8001 59.07Z" fill="#218FCF"/>
<path fill-rule="evenodd" clip-rule="evenodd" d="M40.68 58.31C41.27 58.31 41.68 58.06 41.68 57.64C41.68 57.22 41.28 56.97 40.68 56.97H39.68V58.31H40.68ZM39.29 56.63H40.75C41.5 56.63 42.09 57.05 42.09 57.63C42.09 58.21 41.5 58.63 40.75 58.63H39.75V59.76H39.34L39.29 56.63Z" fill="#218FCF"/>
<path fill-rule="evenodd" clip-rule="evenodd" d="M44.18 58.31C44.77 58.31 45.18 58.06 45.18 57.64C45.18 57.22 44.78 56.97 44.18 56.97H43.18V58.31H44.18ZM42.79 56.63H44.25C45 56.63 45.59 57.05 45.59 57.63C45.59 58.21 45 58.63 44.25 58.63H43.25V59.76H42.84L42.79 56.63Z" fill="#218FCF"/>
<path fill-rule="evenodd" clip-rule="evenodd" d="M47.48 50.33H33.54C33.2067 50.3326 32.8877 50.4662 32.652 50.7019C32.4162 50.9376 32.2826 51.2566 32.28 51.59V65.53C32.2827 65.8624 32.4166 66.1803 32.6526 66.4145C32.8886 66.6486 33.2076 66.78 33.54 66.78H47.48C47.8125 66.78 48.1315 66.6486 48.3675 66.4145C48.6035 66.1803 48.7374 65.8624 48.74 65.53V51.59C48.74 51.2558 48.6073 50.9353 48.371 50.699C48.1347 50.4627 47.8142 50.33 47.48 50.33ZM47.48 50.77C47.6975 50.77 47.9061 50.8563 48.0599 51.0101C48.2136 51.1639 48.3 51.3725 48.3 51.59V65.53C48.3 65.7474 48.2136 65.956 48.0599 66.1098C47.9061 66.2636 47.6975 66.35 47.48 66.35H33.54C33.3226 66.35 33.114 66.2636 32.9602 66.1098C32.8064 65.956 32.72 65.7474 32.72 65.53V51.59C32.72 51.3725 32.8064 51.1639 32.9602 51.0101C33.114 50.8563 33.3226 50.77 33.54 50.77H47.48Z" fill="#218FCF"/>
</svg>
