<svg width="142" height="142" viewBox="0 0 142 142" fill="none" xmlns="http://www.w3.org/2000/svg">
<rect width="142" height="142" fill="white"/>
<g clip-path="url(#clip0_46_56)">
<path d="M105.301 42.2651C105.475 42.2843 105.652 42.2644 105.818 42.2068C105.983 42.1493 106.133 42.0556 106.257 41.9327C106.381 41.8099 106.474 41.6611 106.531 41.4975C106.588 41.3339 106.607 41.1597 106.586 40.9879C106.598 40.8188 106.572 40.6491 106.511 40.4904C106.451 40.3317 106.357 40.1876 106.235 40.0677C106.113 39.9478 105.967 39.8549 105.806 39.7952C105.645 39.7355 105.473 39.7104 105.301 39.7216C105.123 39.7196 104.946 39.7541 104.782 39.8231C104.618 39.8921 104.47 39.9939 104.348 40.1222C104.226 40.2505 104.133 40.4024 104.074 40.5682C104.015 40.734 103.991 40.9101 104.005 41.0854C104.01 41.247 104.049 41.4058 104.117 41.5528C104.185 41.6998 104.283 41.832 104.403 41.9417C104.524 42.0514 104.665 42.1365 104.819 42.192C104.973 42.2475 105.137 42.2724 105.301 42.2651V42.2651Z" fill="#0091DA"/>
<path d="M100.094 42.2651C100.269 42.2843 100.446 42.2644 100.611 42.2068C100.777 42.1493 100.927 42.0556 101.05 41.9327C101.174 41.8099 101.268 41.6611 101.325 41.4975C101.382 41.3339 101.401 41.1597 101.38 40.9879C101.391 40.8188 101.366 40.6491 101.305 40.4904C101.244 40.3317 101.15 40.1876 101.028 40.0677C100.907 39.9478 100.76 39.8549 100.599 39.7952C100.438 39.7355 100.266 39.7104 100.094 39.7216C99.9161 39.7196 99.7393 39.7541 99.5752 39.8231C99.4112 39.8921 99.2635 39.9939 99.1416 40.1222C99.0196 40.2505 98.9261 40.4024 98.867 40.5682C98.8079 40.734 98.7845 40.9101 98.7983 41.0854C98.7977 41.2488 98.8316 41.4106 98.8978 41.5605C98.9641 41.7104 99.0613 41.8451 99.1831 41.956C99.305 42.0669 99.4489 42.1517 99.6058 42.2049C99.7627 42.2581 99.9291 42.2786 100.094 42.2651Z" fill="#0091DA"/>
<path d="M94.9753 42.2651C95.1498 42.2843 95.3264 42.2644 95.492 42.2068C95.6575 42.1493 95.8077 42.0556 95.9313 41.9327C96.0549 41.8099 96.1488 41.6611 96.2058 41.4975C96.2628 41.3339 96.2815 41.1597 96.2606 40.9879C96.2719 40.8188 96.2464 40.6491 96.1858 40.4904C96.1252 40.3317 96.031 40.1876 95.9093 40.0677C95.7876 39.9478 95.6413 39.8549 95.4802 39.7952C95.3192 39.7355 95.147 39.7104 94.9753 39.7216C94.797 39.7196 94.6201 39.7541 94.4561 39.8231C94.292 39.8921 94.1443 39.9939 94.0224 40.1222C93.9005 40.2505 93.807 40.4024 93.7479 40.5682C93.6888 40.734 93.6654 40.9101 93.6791 41.0854C93.6785 41.2488 93.7124 41.4106 93.7787 41.5605C93.845 41.7104 93.9421 41.8451 94.064 41.956C94.1859 42.0669 94.3298 42.1517 94.4867 42.2049C94.6436 42.2581 94.81 42.2786 94.9753 42.2651V42.2651Z" fill="#0091DA"/>
<path fill-rule="evenodd" clip-rule="evenodd" d="M88.703 62.3321V60.0591H39.1284V54.3442H36.8215V86.1225H39.1284V80.4942H56.4515V78.2212H39.1284V71.4131H70.2704V69.1402H39.1284V62.3321H88.703Z" fill="#0091DA"/>
<path d="M87.5057 92.9306H32.3068V35.273H110.64V46.9842H36.9095V49.2571H110.64V76.9549C111.42 77.0831 112.191 77.2639 112.947 77.496V33H30V95.2035H87.5057V92.9306Z" fill="#1D428A"/>
<path d="M116.726 83.4057C116.798 83.2007 116.827 82.9836 116.813 82.7671C116.813 79.401 109.629 77.864 102.896 77.864C96.1618 77.864 88.9888 79.3144 88.9888 82.6697C88.9888 86.0251 96.1728 87.5728 102.896 87.5728C107.235 87.5728 111.749 86.9451 114.419 85.5813V92.0755C114.339 92.2093 114.308 92.3658 114.331 92.5192C114.331 92.9738 111.475 94.684 102.896 94.684C95.4368 94.684 91.3835 92.8656 91.2846 92.0538L91.1967 88.8717C91.1967 88.5846 91.081 88.3093 90.875 88.1063C90.669 87.9033 90.3896 87.7893 90.0982 87.7893C89.9453 87.7887 89.7939 87.8196 89.6537 87.88C89.5135 87.9403 89.3877 88.0289 89.2843 88.14C89.1809 88.251 89.1022 88.3821 89.0532 88.5249C89.0042 88.6677 88.986 88.819 88.9997 88.9691V92.0647C88.9997 95.42 96.1838 96.9678 102.907 96.9678C105.774 96.9678 111.299 96.7838 114.43 95.236V100.962C114.36 101.103 114.341 101.263 114.375 101.416C114.375 101.871 111.519 103.581 102.94 103.581C95.4808 103.581 91.4274 101.763 91.3285 100.951L91.2407 97.7687C91.2407 97.4817 91.1249 97.2064 90.9189 97.0034C90.7129 96.8004 90.4335 96.6864 90.1422 96.6864C89.9892 96.6857 89.8378 96.7166 89.6976 96.777C89.5575 96.8374 89.4317 96.9259 89.3283 97.037C89.2248 97.1481 89.1461 97.2792 89.0971 97.422C89.0481 97.5647 89.0299 97.716 89.0437 97.8661L89.1315 101.048C89.1315 104.414 96.3157 105.951 103.049 105.951C105.905 105.951 111.431 105.767 114.572 104.23V109.945C114.485 110.08 114.45 110.242 114.474 110.4C114.474 110.855 111.618 112.565 103.049 112.565C95.5797 112.565 91.5262 110.746 91.4384 109.924L91.3395 106.752C91.3395 106.465 91.2238 106.19 91.0178 105.987C90.8118 105.784 90.5324 105.67 90.241 105.67C90.0881 105.669 89.9367 105.7 89.7965 105.761C89.6564 105.821 89.5305 105.91 89.4271 106.021C89.3237 106.132 89.245 106.263 89.196 106.406C89.147 106.548 89.1288 106.7 89.1425 106.85L89.2304 110.032C89.2304 113.387 96.4255 114.935 103.148 114.935C107.026 114.935 115.495 114.567 116.704 111.298H116.978V83.4057H116.726ZM102.896 85.3107C95.4368 85.3107 91.3835 83.4923 91.2846 82.6697C91.3835 81.8579 95.338 80.0396 102.896 80.0396C110.453 80.0396 114.419 81.8579 114.518 82.6697C114.375 83.4923 110.453 85.3107 102.896 85.3107Z" fill="#0091DA"/>
<path d="M116.726 83.3083C116.798 83.1033 116.827 82.8862 116.813 82.6697C116.813 79.3144 109.629 77.7666 102.896 77.7666C96.1618 77.7666 88.9888 79.3144 88.9888 82.6697C88.9888 86.025 96.1728 87.5728 102.896 87.5728C107.235 87.5728 111.749 86.9451 114.419 85.5813V92.0755C114.339 92.2092 114.308 92.3658 114.331 92.5192C114.331 92.9738 111.475 94.684 102.896 94.684C95.4368 94.684 91.3835 92.8656 91.2846 92.0538L91.1967 88.8717C91.1967 88.5846 91.081 88.3093 90.875 88.1063C90.669 87.9033 90.3896 87.7893 90.0982 87.7893C89.9453 87.7887 89.7939 87.8196 89.6537 87.8799C89.5135 87.9403 89.3877 88.0289 89.2843 88.1399C89.1809 88.251 89.1022 88.3821 89.0532 88.5249C89.0042 88.6677 88.986 88.819 88.9997 88.9691L89.0876 92.1512C89.0876 95.5066 96.2717 97.0543 103.005 97.0543C105.861 97.0543 111.387 96.8703 114.529 95.3334V101.048C114.44 101.183 114.405 101.345 114.43 101.503C114.43 101.957 111.574 103.668 103.005 103.668C95.5357 103.668 91.4823 101.86 91.3944 101.037L91.3066 97.8337C91.3066 97.5466 91.1908 97.2713 90.9848 97.0683C90.7788 96.8653 90.4994 96.7513 90.2081 96.7513C90.0551 96.7507 89.9037 96.7815 89.7636 96.8419C89.6234 96.9023 89.4976 96.9909 89.3942 97.1019C89.2908 97.213 89.212 97.3441 89.163 97.4869C89.114 97.6297 89.0958 97.781 89.1096 97.9311L89.1975 101.113C89.1975 104.469 96.3925 106.016 103.115 106.016C105.971 106.016 111.508 105.832 114.638 104.285V110.01C114.558 110.148 114.527 110.308 114.55 110.465C114.55 110.919 111.683 112.63 103.115 112.63C95.7444 112.63 91.5922 110.811 91.5043 109.999L91.4164 106.817C91.4164 106.53 91.3007 106.255 91.0947 106.052C90.8887 105.849 90.6093 105.735 90.3179 105.735C90.165 105.734 90.0135 105.765 89.8734 105.826C89.7332 105.886 89.6074 105.975 89.504 106.086C89.4006 106.197 89.3219 106.328 89.2729 106.471C89.2239 106.613 89.2057 106.765 89.2194 106.915L89.3183 110.097C89.3183 113.463 96.5024 115 103.236 115C107.103 115 115.583 114.643 116.78 111.374H117.055V83.3083H116.726ZM102.896 85.3107C95.4368 85.3107 91.3835 83.4923 91.2846 82.6697C91.3835 81.8579 95.338 80.0396 102.896 80.0396C110.453 80.0396 114.419 81.8579 114.518 82.6697C114.375 83.4923 110.453 85.3107 102.896 85.3107V85.3107Z" fill="#1D428A"/>
</g>
<defs>
<clipPath id="clip0_46_56">
<rect width="87" height="82" fill="white" transform="translate(30 33)"/>
</clipPath>
</defs>
</svg>
