<?xml version="1.0" encoding="utf-8"?>
<!-- Generator: Adobe Illustrator 26.0.1, SVG Export Plug-In . SVG Version: 6.00 Build 0)  -->
<svg version="1.1" id="Layer_1" xmlns="http://www.w3.org/2000/svg" xmlns:xlink="http://www.w3.org/1999/xlink" x="0px" y="0px"
	 viewBox="0 0 593 291.7" style="enable-background:new 0 0 593 291.7;" xml:space="preserve">
<style type="text/css">
	.st0{fill:none;stroke:#228FCE;stroke-miterlimit:10;}
	.st1{fill:none;stroke:#F04E23;stroke-miterlimit:10;stroke-dasharray:1,3;}
	.st2{fill:#F04E23;}
	.st3{fill:#FFFFFF;stroke:#F04F23;stroke-width:1.11;stroke-miterlimit:10;}
	.st4{fill:none;stroke:#293241;stroke-miterlimit:10;}
	.st5{fill:#293241;}
	.st6{enable-background:new    ;}
	.st7{fill:#495565;}
	.st8{fill:none;stroke:#EB5225;stroke-miterlimit:10;}
	.st9{fill:#FFFFFF;}
	.st10{fill:none;stroke:#F04E23;stroke-miterlimit:10;}
	.st11{fill:#F05024;stroke:#F04F23;stroke-width:0.94;stroke-linecap:round;stroke-linejoin:round;}
	.st12{fill:none;stroke:#FFFFFF;stroke-width:0.94;stroke-miterlimit:10;}
	
		.st13{opacity:0.3;fill:none;stroke:#FFFFFF;stroke-width:0.94;stroke-linecap:round;stroke-miterlimit:10;enable-background:new    ;}
	.st14{fill:none;stroke:#495565;stroke-miterlimit:10;}
	.st15{fill:none;stroke:#495565;stroke-linecap:round;stroke-miterlimit:10;}
	.st16{fill:#F05024;stroke:#F04F23;stroke-linecap:round;stroke-linejoin:round;}
	.st17{fill:none;stroke:#FFFFFF;stroke-linecap:round;stroke-linejoin:round;}
	.st18{fill:#F04F23;}
	.st19{fill:#FFFFFF;stroke:#1E4487;stroke-width:1.7;stroke-miterlimit:10;}
	.st20{fill-rule:evenodd;clip-rule:evenodd;fill:#208FCE;}
	.st21{fill-rule:evenodd;clip-rule:evenodd;fill:#1D428A;}
</style>
<polyline id="_Path_" class="st0" points="300.9,148.9 249.1,72.8 120.4,151.2 74.4,239.9 19.1,267.9 "/>
<g id="_Group_">
	<path class="st1" d="M263.9,59.2c36.8-35.6,95.5-34.6,131.1,2.2c7.8,8,14,17.4,18.5,27.7"/>
	<polygon class="st2" points="410.3,88.4 416.3,96.6 415.2,86.5 	"/>
</g>
<g id="_Group_2">
	<path class="st1" d="M414.4,161c-19.5,47.4-73.6,70-121,50.6c-24.6-10.1-43.7-30.3-52.4-55.5"/>
	<polygon class="st2" points="244,157 238.6,148.5 239,158.6 	"/>
</g>
<circle id="_Path_2" class="st3" cx="75" cy="238.8" r="3.6"/>
<circle id="_Path_3" class="st3" cx="120.3" cy="151.5" r="3.6"/>
<circle id="_Path_4" class="st3" cx="249.3" cy="73.5" r="3.6"/>
<circle id="_Path_5" class="st3" cx="301.1" cy="148.8" r="3.6"/>
<g id="_Group_3">
	<line class="st4" x1="17.6" y1="268.6" x2="17.6" y2="8.9"/>
	<polygon class="st5" points="20.5,10.8 17.6,0 14.7,10.8 	"/>
</g>
<g id="_Group_4">
	<line class="st4" x1="17.2" y1="269.3" x2="324.5" y2="269.3"/>
	<polygon class="st5" points="322.5,272.2 333.4,269.3 322.5,266.4 	"/>
</g>
<g id="_Group_5">
	<g class="st6">
		<path class="st7" d="M66.5,61.9h-2v-1h5.1v1h-2v5.2h-1.1V61.9z"/>
		<path class="st7" d="M75.2,64.2c-0.3,0.4-0.7,0.6-1.2,0.7l1.5,2.2h-1.3L72.8,65h-1v2.1h-1.1v-6.2h2.7c0.4,0,0.8,0.1,1.2,0.3
			s0.6,0.4,0.8,0.7c0.2,0.3,0.3,0.7,0.3,1.1C75.7,63.4,75.5,63.8,75.2,64.2z M71.8,63.9h1.4c0.4,0,0.7-0.1,0.9-0.3
			c0.2-0.2,0.4-0.4,0.4-0.7c0-0.3-0.1-0.6-0.4-0.7c-0.2-0.2-0.6-0.3-0.9-0.3h-1.4V63.9z"/>
		<path class="st7" d="M81,65.9h-3l-0.5,1.2h-1.3l2.6-6.2h1.3l2.6,6.2h-1.2L81,65.9z M80.7,65l-1.1-2.6L78.5,65H80.7z"/>
		<path class="st7" d="M85,61.9v1.6h3.2v1H85v2.6h-1.1v-6.2h4.7v1H85z"/>
		<path class="st7" d="M90.8,61.9v1.6H94v1h-3.2v2.6h-1.1v-6.2h4.7v1H90.8z"/>
		<path class="st7" d="M95.6,60.9h1.1v6.2h-1.1V60.9z"/>
		<path class="st7" d="M99.6,66.7c-0.5-0.3-0.9-0.7-1.2-1.2S98,64.5,98,64c0-0.6,0.1-1.1,0.4-1.6s0.7-0.9,1.2-1.2s1-0.4,1.6-0.4
			c0.4,0,0.9,0.1,1.3,0.3c0.4,0.2,0.8,0.4,1.1,0.7l-0.8,0.7c-0.2-0.2-0.4-0.4-0.7-0.5c-0.3-0.1-0.5-0.2-0.8-0.2
			c-0.4,0-0.7,0.1-1,0.3s-0.6,0.5-0.8,0.8s-0.3,0.7-0.3,1.1c0,0.4,0.1,0.8,0.3,1.1s0.4,0.6,0.8,0.8s0.7,0.3,1,0.3
			c0.3,0,0.6-0.1,0.8-0.2c0.3-0.1,0.5-0.3,0.7-0.5l0.8,0.7c-0.3,0.3-0.7,0.6-1.1,0.7s-0.8,0.3-1.3,0.3
			C100.7,67.2,100.1,67,99.6,66.7z"/>
	</g>
	<g class="st6">
		<path class="st7" d="M53.9,72.9h-2v-1H57v1h-2v5.2h-1.1V72.9z"/>
		<path class="st7" d="M63.5,71.9v6.2h-1.1v-2.6h-3.1v2.6h-1.1v-6.2h1.1v2.5h3.1v-2.5H63.5z"/>
		<path class="st7" d="M69.7,75.2c-0.3,0.4-0.7,0.6-1.2,0.7l1.5,2.2h-1.3L67.3,76h-1v2.1h-1.1v-6.2h2.7c0.4,0,0.8,0.1,1.2,0.3
			s0.6,0.4,0.8,0.7c0.2,0.3,0.3,0.7,0.3,1.1C70.2,74.4,70,74.8,69.7,75.2z M66.3,74.9h1.4c0.4,0,0.7-0.1,0.9-0.3
			c0.2-0.2,0.4-0.4,0.4-0.7c0-0.3-0.1-0.6-0.4-0.7c-0.2-0.2-0.6-0.3-0.9-0.3h-1.4V74.9z"/>
		<path class="st7" d="M72.6,72.9v1.5h3.2v1h-3.2V77h3.5v1h-4.7v-6.2h4.7v1H72.6z"/>
		<path class="st7" d="M78.2,77.9c-0.4-0.2-0.8-0.4-1.2-0.7l0.7-0.8c0.6,0.6,1.3,0.8,2,0.8c0.4,0,0.6-0.1,0.8-0.2
			c0.2-0.2,0.3-0.4,0.3-0.6c0-0.2-0.1-0.3-0.1-0.4c-0.1-0.1-0.2-0.2-0.4-0.3s-0.5-0.2-0.8-0.2c-0.5-0.1-0.9-0.2-1.2-0.4
			c-0.3-0.1-0.5-0.3-0.7-0.5c-0.2-0.2-0.3-0.5-0.3-0.9c0-0.4,0.1-0.7,0.3-1s0.5-0.5,0.8-0.7c0.3-0.2,0.7-0.2,1.1-0.2
			c0.9,0,1.7,0.3,2.3,0.9l-0.6,0.8c-0.3-0.2-0.6-0.4-0.9-0.5c-0.3-0.1-0.6-0.2-0.9-0.2s-0.6,0.1-0.8,0.2s-0.3,0.3-0.3,0.6
			c0,0.2,0,0.3,0.1,0.4c0.1,0.1,0.2,0.2,0.4,0.3c0.2,0.1,0.5,0.1,0.8,0.2c0.7,0.2,1.3,0.4,1.6,0.6c0.4,0.3,0.5,0.7,0.5,1.2
			c0,0.4-0.1,0.7-0.3,1s-0.4,0.5-0.8,0.7s-0.8,0.2-1.2,0.2C79.1,78.2,78.6,78.1,78.2,77.9z"/>
		<path class="st7" d="M88.6,71.9v6.2h-1.1v-2.6h-3.1v2.6h-1.1v-6.2h1.1v2.5h3.1v-2.5H88.6z"/>
		<path class="st7" d="M91.5,77.7c-0.5-0.3-0.9-0.7-1.2-1.2s-0.4-1-0.4-1.6c0-0.6,0.1-1.1,0.4-1.6s0.7-0.9,1.2-1.2s1-0.4,1.6-0.4
			c0.6,0,1.1,0.1,1.6,0.4s0.9,0.7,1.2,1.2s0.4,1,0.4,1.6c0,0.6-0.1,1.1-0.4,1.6s-0.7,0.9-1.2,1.2s-1,0.4-1.6,0.4
			C92.5,78.2,92,78,91.5,77.7z M94.1,76.8c0.3-0.2,0.6-0.5,0.8-0.8c0.2-0.3,0.3-0.7,0.3-1.1c0-0.4-0.1-0.7-0.3-1.1
			c-0.2-0.3-0.4-0.6-0.8-0.8c-0.3-0.2-0.7-0.3-1-0.3c-0.4,0-0.7,0.1-1,0.3s-0.6,0.5-0.8,0.8S91,74.6,91,75c0,0.4,0.1,0.8,0.3,1.1
			s0.4,0.6,0.8,0.8s0.7,0.3,1,0.3C93.5,77.1,93.8,77,94.1,76.8z"/>
		<path class="st7" d="M101.9,77v1h-4.3v-6.2h1.1V77H101.9z"/>
		<path class="st7" d="M103.1,71.9h2.2c0.7,0,1.3,0.1,1.8,0.4c0.5,0.3,0.9,0.6,1.2,1.1c0.3,0.5,0.4,1,0.4,1.6c0,0.6-0.1,1.1-0.4,1.6
			c-0.3,0.5-0.7,0.8-1.2,1.1c-0.5,0.3-1.1,0.4-1.8,0.4h-2.2V71.9z M105.3,77c0.4,0,0.8-0.1,1.2-0.3s0.6-0.4,0.8-0.7
			c0.2-0.3,0.3-0.7,0.3-1.1c0-0.4-0.1-0.8-0.3-1.1c-0.2-0.3-0.5-0.6-0.8-0.7s-0.7-0.3-1.2-0.3h-1.2V77H105.3z"/>
		<path class="st7" d="M110.7,77.9c-0.4-0.2-0.8-0.4-1.2-0.7l0.7-0.8c0.6,0.6,1.3,0.8,2,0.8c0.4,0,0.6-0.1,0.8-0.2
			c0.2-0.2,0.3-0.4,0.3-0.6c0-0.2,0-0.3-0.1-0.4c-0.1-0.1-0.2-0.2-0.4-0.3s-0.5-0.2-0.8-0.2c-0.5-0.1-0.9-0.2-1.2-0.4
			s-0.5-0.3-0.7-0.5c-0.2-0.2-0.3-0.5-0.3-0.9c0-0.4,0.1-0.7,0.3-1c0.2-0.3,0.5-0.5,0.8-0.7c0.3-0.2,0.7-0.2,1.1-0.2
			c0.9,0,1.7,0.3,2.3,0.9l-0.6,0.8c-0.3-0.2-0.6-0.4-0.9-0.5c-0.3-0.1-0.6-0.2-0.9-0.2c-0.3,0-0.6,0.1-0.8,0.2s-0.3,0.3-0.3,0.6
			c0,0.2,0,0.3,0.1,0.4c0.1,0.1,0.2,0.2,0.5,0.3c0.2,0.1,0.5,0.1,0.8,0.2c0.7,0.2,1.3,0.4,1.6,0.6c0.4,0.3,0.5,0.7,0.5,1.2
			c0,0.4-0.1,0.7-0.3,1c-0.2,0.3-0.4,0.5-0.8,0.7s-0.8,0.2-1.3,0.2C111.6,78.2,111.1,78.1,110.7,77.9z"/>
	</g>
</g>
<line id="_Path_6" class="st8" x1="112.3" y1="136.9" x2="84.8" y2="81.5"/>
<g id="_Group_6">
	<g class="st6">
		<path class="st7" d="M285,23.1c-0.3,0.4-0.7,0.6-1.2,0.7l1.5,2.2H284l-1.5-2.1h-1V26h-1.1v-6.2h2.7c0.4,0,0.8,0.1,1.2,0.3
			s0.6,0.4,0.8,0.7c0.2,0.3,0.3,0.7,0.3,1.1C285.4,22.3,285.3,22.8,285,23.1z M281.5,22.9h1.4c0.4,0,0.7-0.1,0.9-0.3
			c0.2-0.2,0.4-0.4,0.4-0.7c0-0.3-0.1-0.6-0.4-0.7c-0.2-0.2-0.6-0.3-0.9-0.3h-1.4V22.9z"/>
		<path class="st7" d="M287.8,20.8v1.5h3.2v1h-3.2V25h3.5v1h-4.7v-6.2h4.7v1H287.8z"/>
		<path class="st7" d="M296.8,24.8h-3l-0.5,1.2h-1.3l2.6-6.2h1.3l2.6,6.2h-1.2L296.8,24.8z M296.4,23.9l-1.1-2.6l-1.1,2.6H296.4z"/>
		<path class="st7" d="M303.9,25v1h-4.3v-6.2h1.1V25H303.9z"/>
		<path class="st7" d="M308.9,20.8h-2v-1h5.1v1h-2V26h-1.1V20.8z"/>
		<path class="st7" d="M313.1,19.8h1.1V26h-1.1V19.8z"/>
		<path class="st7" d="M315.9,19.8h1.1l2,3.8l2-3.8h1.1V26h-1.1v-4.1l-2,3.8l-2-3.8V26h-1.1V19.8z"/>
		<path class="st7" d="M325,20.8v1.5h3.2v1H325V25h3.5v1h-4.7v-6.2h4.7v1H325z"/>
		<path class="st7" d="M333.8,20.8h-2v-1h5.1v1h-2V26h-1.1V20.8z"/>
		<path class="st7" d="M339.1,20.8v1.5h3.2v1h-3.2V25h3.5v1H338v-6.2h4.7v1H339.1z"/>
		<path class="st7" d="M348.3,25v1H344v-6.2h1.1V25H348.3z"/>
		<path class="st7" d="M350.5,20.8v1.5h3.2v1h-3.2V25h3.5v1h-4.7v-6.2h4.7v1H350.5z"/>
		<path class="st7" d="M355.4,19.8h1.1l2,3.8l2-3.8h1.1V26h-1.1v-4.1l-2,3.8l-2-3.8V26h-1.1V19.8z"/>
		<path class="st7" d="M364.6,20.8v1.5h3.2v1h-3.2V25h3.5v1h-4.7v-6.2h4.7v1H364.6z"/>
		<path class="st7" d="M370.8,20.8h-2v-1h5.1v1h-2V26h-1.1V20.8z"/>
		<path class="st7" d="M379.6,23.1c-0.3,0.4-0.7,0.6-1.2,0.7l1.5,2.2h-1.3l-1.5-2.1h-1V26h-1.1v-6.2h2.7c0.4,0,0.8,0.1,1.2,0.3
			c0.4,0.2,0.6,0.4,0.8,0.7c0.2,0.3,0.3,0.7,0.3,1.1C380.1,22.3,379.9,22.8,379.6,23.1z M376.2,22.9h1.4c0.4,0,0.7-0.1,0.9-0.3
			c0.2-0.2,0.4-0.4,0.4-0.7c0-0.3-0.1-0.6-0.4-0.7c-0.2-0.2-0.6-0.3-0.9-0.3h-1.4V22.9z"/>
		<path class="st7" d="M383.2,23.7l-2.4-3.9h1.3l1.7,2.8l1.7-2.8h1.3l-2.4,3.9V26h-1.1V23.7z"/>
	</g>
</g>
<g id="_Group_7">
	<g class="st6">
		<path class="st7" d="M250.4,232.9h-3l-0.5,1.2h-1.3l2.6-6.2h1.3l2.6,6.2h-1.2L250.4,232.9z M250,232l-1.1-2.6l-1.1,2.6H250z"/>
		<path class="st7" d="M254.4,233.8c-0.4-0.2-0.7-0.6-1-1c-0.2-0.4-0.4-0.9-0.4-1.4v-3.5h1.1v3.5c0,0.3,0.1,0.6,0.2,0.9
			c0.1,0.3,0.3,0.5,0.6,0.6c0.2,0.1,0.5,0.2,0.8,0.2c0.3,0,0.6-0.1,0.8-0.2c0.2-0.2,0.4-0.4,0.6-0.6c0.1-0.3,0.2-0.6,0.2-0.9v-3.5
			h1.1v3.5c0,0.5-0.1,1-0.3,1.4s-0.6,0.7-1,1c-0.4,0.2-0.9,0.4-1.4,0.4C255.3,234.2,254.8,234.1,254.4,233.8z"/>
		<path class="st7" d="M261.5,228.9h-2v-1h5.1v1h-2v5.2h-1.1V228.9z"/>
		<path class="st7" d="M266.9,233.8c-0.5-0.3-0.9-0.7-1.2-1.2s-0.4-1-0.4-1.6c0-0.6,0.1-1.1,0.4-1.6s0.7-0.9,1.2-1.2s1-0.4,1.6-0.4
			s1.1,0.1,1.6,0.4c0.5,0.3,0.9,0.7,1.2,1.2s0.4,1,0.4,1.6c0,0.6-0.2,1.1-0.4,1.6s-0.7,0.9-1.2,1.2c-0.5,0.3-1,0.4-1.6,0.4
			S267.4,234,266.9,233.8z M269.6,232.9c0.3-0.2,0.6-0.5,0.8-0.8c0.2-0.3,0.3-0.7,0.3-1.1c0-0.4-0.1-0.7-0.3-1.1
			c-0.2-0.3-0.4-0.6-0.8-0.8c-0.3-0.2-0.7-0.3-1-0.3s-0.7,0.1-1,0.3s-0.6,0.5-0.8,0.8s-0.3,0.7-0.3,1.1c0,0.4,0.1,0.8,0.3,1.1
			s0.4,0.6,0.8,0.8s0.7,0.3,1,0.3S269.2,233.1,269.6,232.9z"/>
		<path class="st7" d="M273.8,233.9c-0.4-0.2-0.8-0.4-1.2-0.7l0.7-0.8c0.6,0.6,1.3,0.8,2,0.8c0.4,0,0.6-0.1,0.8-0.2
			c0.2-0.2,0.3-0.4,0.3-0.6c0-0.2,0-0.3-0.1-0.4c-0.1-0.1-0.2-0.2-0.4-0.3s-0.5-0.2-0.8-0.2c-0.5-0.1-0.9-0.2-1.2-0.4
			s-0.5-0.3-0.7-0.5c-0.2-0.2-0.3-0.5-0.3-0.9c0-0.4,0.1-0.7,0.3-1c0.2-0.3,0.5-0.5,0.8-0.7c0.3-0.2,0.7-0.2,1.1-0.2
			c0.9,0,1.7,0.3,2.3,0.9l-0.6,0.8c-0.3-0.2-0.6-0.4-0.9-0.5c-0.3-0.1-0.6-0.2-0.9-0.2c-0.3,0-0.6,0.1-0.8,0.2s-0.3,0.3-0.3,0.6
			c0,0.2,0,0.3,0.1,0.4c0.1,0.1,0.2,0.2,0.5,0.3c0.2,0.1,0.5,0.1,0.8,0.2c0.7,0.2,1.3,0.4,1.6,0.6c0.4,0.3,0.5,0.7,0.5,1.2
			c0,0.4-0.1,0.7-0.3,1c-0.2,0.3-0.4,0.5-0.8,0.7s-0.8,0.2-1.3,0.2C274.7,234.2,274.2,234.1,273.8,233.9z"/>
		<path class="st7" d="M280,233.8c-0.5-0.3-0.9-0.7-1.2-1.2s-0.4-1-0.4-1.6c0-0.6,0.1-1.1,0.4-1.6s0.7-0.9,1.2-1.2s1-0.4,1.6-0.4
			c0.4,0,0.9,0.1,1.3,0.3c0.4,0.2,0.8,0.4,1.1,0.7l-0.8,0.7c-0.2-0.2-0.4-0.4-0.7-0.5c-0.3-0.1-0.5-0.2-0.8-0.2
			c-0.4,0-0.7,0.1-1,0.3s-0.6,0.5-0.8,0.8s-0.3,0.7-0.3,1.1c0,0.4,0.1,0.8,0.3,1.1s0.4,0.6,0.8,0.8s0.7,0.3,1,0.3
			c0.3,0,0.6-0.1,0.8-0.2c0.3-0.1,0.5-0.3,0.7-0.5l0.8,0.7c-0.3,0.3-0.7,0.6-1.1,0.7s-0.8,0.3-1.3,0.3
			C281.1,234.2,280.5,234,280,233.8z"/>
		<path class="st7" d="M289.2,232.9h-3l-0.5,1.2h-1.3l2.6-6.2h1.3l2.6,6.2h-1.2L289.2,232.9z M288.8,232l-1.1-2.6l-1.1,2.6H288.8z"
			/>
		<path class="st7" d="M296.3,233.1v1H292v-6.2h1.1v5.2H296.3z"/>
		<path class="st7" d="M298.6,228.9v1.5h3.2v1h-3.2v1.6h3.5v1h-4.7v-6.2h4.7v1H298.6z"/>
		<path class="st7" d="M310.2,233.1v1h-4.3v-6.2h1.1v5.2H310.2z"/>
		<path class="st7" d="M312.5,233.8c-0.5-0.3-0.9-0.7-1.2-1.2s-0.4-1-0.4-1.6c0-0.6,0.1-1.1,0.4-1.6s0.7-0.9,1.2-1.2s1-0.4,1.6-0.4
			c0.6,0,1.1,0.1,1.6,0.4s0.9,0.7,1.2,1.2s0.4,1,0.4,1.6c0,0.6-0.1,1.1-0.4,1.6s-0.7,0.9-1.2,1.2s-1,0.4-1.6,0.4
			C313.6,234.2,313,234,312.5,233.8z M315.2,232.9c0.3-0.2,0.6-0.5,0.8-0.8c0.2-0.3,0.3-0.7,0.3-1.1c0-0.4-0.1-0.7-0.3-1.1
			c-0.2-0.3-0.4-0.6-0.8-0.8c-0.3-0.2-0.7-0.3-1-0.3c-0.4,0-0.7,0.1-1,0.3s-0.6,0.5-0.8,0.8s-0.3,0.7-0.3,1.1c0,0.4,0.1,0.8,0.3,1.1
			s0.4,0.6,0.8,0.8s0.7,0.3,1,0.3C314.5,233.2,314.9,233.1,315.2,232.9z"/>
		<path class="st7" d="M322.8,232.9h-3l-0.5,1.2h-1.3l2.6-6.2h1.3l2.6,6.2h-1.2L322.8,232.9z M322.4,232l-1.1-2.6l-1.1,2.6H322.4z"
			/>
		<path class="st7" d="M325.6,227.9h2.2c0.7,0,1.3,0.1,1.8,0.4c0.5,0.3,0.9,0.6,1.2,1.1c0.3,0.5,0.4,1,0.4,1.6
			c0,0.6-0.1,1.1-0.4,1.6c-0.3,0.5-0.7,0.8-1.2,1.1c-0.5,0.3-1.1,0.4-1.8,0.4h-2.2V227.9z M327.8,233.1c0.4,0,0.8-0.1,1.2-0.3
			s0.6-0.4,0.8-0.7c0.2-0.3,0.3-0.7,0.3-1.1c0-0.4-0.1-0.8-0.3-1.1c-0.2-0.3-0.5-0.6-0.8-0.7s-0.7-0.3-1.2-0.3h-1.2v4.1H327.8z"/>
		<path class="st7" d="M335,227.9h3c0.4,0,0.7,0.1,0.9,0.2c0.3,0.1,0.5,0.3,0.6,0.6c0.2,0.2,0.2,0.5,0.2,0.8c0,0.6-0.3,1.1-0.9,1.4
			c0.4,0.2,0.6,0.4,0.8,0.7c0.2,0.3,0.3,0.6,0.3,0.9c0,0.3-0.1,0.6-0.3,0.9s-0.4,0.5-0.7,0.6c-0.3,0.1-0.6,0.2-1,0.2H335V227.9z
			 M337.7,230.4c0.3,0,0.5-0.1,0.7-0.2c0.2-0.1,0.3-0.3,0.3-0.6c0-0.2-0.1-0.4-0.3-0.6c-0.2-0.1-0.4-0.2-0.7-0.2h-1.6v1.6H337.7z
			 M337.9,233.1c0.3,0,0.5-0.1,0.7-0.2s0.3-0.4,0.3-0.6c0-0.3-0.1-0.5-0.3-0.6s-0.4-0.2-0.7-0.2h-1.8v1.8H337.9z"/>
		<path class="st7" d="M345.5,232.9h-3l-0.5,1.2h-1.3l2.6-6.2h1.3l2.6,6.2H346L345.5,232.9z M345.1,232l-1.1-2.6l-1.1,2.6H345.1z"/>
		<path class="st7" d="M352.6,233.1v1h-4.3v-6.2h1.1v5.2H352.6z"/>
		<path class="st7" d="M357.7,232.9h-3l-0.5,1.2h-1.3l2.6-6.2h1.3l2.6,6.2h-1.2L357.7,232.9z M357.4,232l-1.1-2.6l-1.1,2.6H357.4z"
			/>
		<path class="st7" d="M360.6,227.9h1.1l3.3,4.3v-4.3h1.1v6.2h-1.1l-3.3-4.3v4.3h-1.1V227.9z"/>
		<path class="st7" d="M369,233.8c-0.5-0.3-0.9-0.7-1.2-1.2s-0.4-1-0.4-1.6c0-0.6,0.1-1.1,0.4-1.6s0.7-0.9,1.2-1.2s1-0.4,1.6-0.4
			c0.4,0,0.9,0.1,1.3,0.3c0.4,0.2,0.8,0.4,1.1,0.7l-0.8,0.7c-0.2-0.2-0.4-0.4-0.7-0.5c-0.3-0.1-0.5-0.2-0.8-0.2
			c-0.4,0-0.7,0.1-1,0.3s-0.6,0.5-0.8,0.8s-0.3,0.7-0.3,1.1c0,0.4,0.1,0.8,0.3,1.1s0.4,0.6,0.8,0.8s0.7,0.3,1,0.3
			c0.3,0,0.6-0.1,0.8-0.2c0.3-0.1,0.5-0.3,0.7-0.5l0.8,0.7c-0.3,0.3-0.7,0.6-1.1,0.7s-0.8,0.3-1.3,0.3
			C370,234.2,369.5,234,369,233.8z"/>
		<path class="st7" d="M375.2,228.9v1.5h3.2v1h-3.2v1.6h3.5v1h-4.7v-6.2h4.7v1H375.2z"/>
		<path class="st7" d="M384.7,231.2c-0.3,0.4-0.7,0.6-1.2,0.7l1.5,2.2h-1.3l-1.5-2.1h-1v2.1h-1.1v-6.2h2.7c0.4,0,0.8,0.1,1.2,0.3
			c0.4,0.2,0.6,0.4,0.8,0.7c0.2,0.3,0.3,0.7,0.3,1.1C385.1,230.4,385,230.9,384.7,231.2z M381.2,231h1.4c0.4,0,0.7-0.1,0.9-0.3
			c0.2-0.2,0.4-0.4,0.4-0.7c0-0.3-0.1-0.6-0.4-0.7c-0.2-0.2-0.6-0.3-0.9-0.3h-1.4V231z"/>
		<path class="st7" d="M387.1,233.9c-0.4-0.2-0.8-0.4-1.2-0.7l0.7-0.8c0.6,0.6,1.3,0.8,2,0.8c0.4,0,0.6-0.1,0.8-0.2
			c0.2-0.2,0.3-0.4,0.3-0.6c0-0.2,0-0.3-0.1-0.4c-0.1-0.1-0.2-0.2-0.4-0.3s-0.5-0.2-0.8-0.2c-0.5-0.1-0.9-0.2-1.2-0.4
			s-0.5-0.3-0.7-0.5c-0.2-0.2-0.3-0.5-0.3-0.9c0-0.4,0.1-0.7,0.3-1c0.2-0.3,0.5-0.5,0.8-0.7c0.3-0.2,0.7-0.2,1.1-0.2
			c0.9,0,1.7,0.3,2.3,0.9l-0.6,0.8c-0.3-0.2-0.6-0.4-0.9-0.5c-0.3-0.1-0.6-0.2-0.9-0.2c-0.3,0-0.6,0.1-0.8,0.2s-0.3,0.3-0.3,0.6
			c0,0.2,0,0.3,0.1,0.4c0.1,0.1,0.2,0.2,0.5,0.3c0.2,0.1,0.5,0.1,0.8,0.2c0.7,0.2,1.3,0.4,1.6,0.6c0.4,0.3,0.5,0.7,0.5,1.2
			c0,0.4-0.1,0.7-0.3,1c-0.2,0.3-0.4,0.5-0.8,0.7s-0.8,0.2-1.3,0.2C388,234.2,387.5,234.1,387.1,233.9z"/>
	</g>
</g>
<g id="_Group_8">
	<g class="st6">
		<path class="st7" d="M478.3,125.2c-0.3,0.4-0.7,0.6-1.2,0.7l1.5,2.2h-1.3l-1.5-2.1h-1v2.1h-1.1v-6.2h2.7c0.4,0,0.8,0.1,1.2,0.3
			c0.4,0.2,0.6,0.4,0.8,0.7c0.2,0.3,0.3,0.7,0.3,1.1C478.8,124.4,478.6,124.8,478.3,125.2z M474.9,124.9h1.4c0.4,0,0.7-0.1,0.9-0.3
			c0.2-0.2,0.4-0.4,0.4-0.7c0-0.3-0.1-0.6-0.4-0.7c-0.2-0.2-0.6-0.3-0.9-0.3h-1.4V124.9z"/>
		<path class="st7" d="M481.2,122.9v1.5h3.2v1h-3.2v1.6h3.5v1h-4.7v-6.2h4.7v1H481.2z"/>
		<path class="st7" d="M486.8,127.9c-0.4-0.2-0.8-0.4-1.2-0.7l0.7-0.8c0.6,0.6,1.3,0.8,2,0.8c0.4,0,0.6-0.1,0.8-0.2
			c0.2-0.2,0.3-0.4,0.3-0.6c0-0.2,0-0.3-0.1-0.4c-0.1-0.1-0.2-0.2-0.4-0.3c-0.2-0.1-0.5-0.2-0.8-0.2c-0.5-0.1-0.9-0.2-1.2-0.4
			c-0.3-0.1-0.5-0.3-0.7-0.5s-0.3-0.5-0.3-0.9c0-0.4,0.1-0.7,0.3-1s0.5-0.5,0.8-0.7c0.3-0.2,0.7-0.2,1.1-0.2c0.9,0,1.7,0.3,2.3,0.9
			l-0.6,0.8c-0.3-0.2-0.6-0.4-0.9-0.5s-0.6-0.2-0.9-0.2s-0.6,0.1-0.8,0.2c-0.2,0.2-0.3,0.3-0.3,0.6c0,0.2,0,0.3,0.1,0.4
			s0.2,0.2,0.5,0.3c0.2,0.1,0.5,0.1,0.8,0.2c0.7,0.2,1.3,0.4,1.6,0.6c0.4,0.3,0.5,0.7,0.5,1.2c0,0.4-0.1,0.7-0.3,1
			c-0.2,0.3-0.4,0.5-0.8,0.7s-0.8,0.2-1.3,0.2C487.7,128.1,487.2,128,486.8,127.9z"/>
		<path class="st7" d="M493.2,122.9h-2v-1h5.1v1h-2v5.2h-1.1V122.9z"/>
	</g>
	<g class="st6">
		<path class="st7" d="M481.3,139.9h-3l-0.5,1.2h-1.3l2.6-6.2h1.3l2.6,6.2h-1.2L481.3,139.9z M480.9,138.9l-1.1-2.6l-1.1,2.6H480.9z
			"/>
		<path class="st7" d="M484.1,134.8h2.7c0.4,0,0.8,0.1,1.2,0.3c0.4,0.2,0.6,0.4,0.8,0.7c0.2,0.3,0.3,0.7,0.3,1.1
			c0,0.4-0.1,0.8-0.3,1.1c-0.2,0.3-0.5,0.6-0.8,0.7c-0.4,0.2-0.7,0.3-1.2,0.3h-1.6v2.1h-1.1V134.8z M486.7,137.9
			c0.4,0,0.7-0.1,0.9-0.3c0.2-0.2,0.4-0.4,0.4-0.7c0-0.3-0.1-0.6-0.4-0.7c-0.2-0.2-0.6-0.3-0.9-0.3h-1.4v2H486.7z"/>
		<path class="st7" d="M490.3,134.8h1.1v6.2h-1.1V134.8z"/>
	</g>
</g>
<g id="_Group_9">
	<g class="st6">
		<path class="st7" d="M4,166.4v3.1H2.4v-7.9H4v3.1h8v1.8H4z"/>
		<path class="st7" d="M7.6,152.7c0.6,0.5,0.9,1.1,1.1,1.9l3.3-2.4v2l-3.2,2.3v1.5H12v1.7H2.4v-4.2c0-0.7,0.1-1.3,0.4-1.8
			c0.3-0.5,0.6-1,1.1-1.3c0.5-0.3,1-0.5,1.7-0.5C6.3,152,7,152.3,7.6,152.7z M7.2,158.1v-2.2c0-0.6-0.1-1.1-0.4-1.5
			c-0.3-0.4-0.7-0.6-1.2-0.6s-0.9,0.2-1.2,0.6c-0.3,0.4-0.4,0.9-0.4,1.5v2.2H7.2z"/>
		<path class="st7" d="M10.2,143.7v4.6l1.8,0.8v1.9l-9.6-4V145l9.6-4v1.9L10.2,143.7z M8.8,144.3l-4,1.7l4,1.7V144.3z"/>
		<path class="st7" d="M4,137.6h2.4v-5H8v5h4v1.8H2.4v-7.2H4V137.6z"/>
		<path class="st7" d="M4,128.5h2.4v-5H8v5h4v1.8H2.4V123H4V128.5z"/>
		<path class="st7" d="M2.4,121.1v-1.7H12v1.7H2.4z"/>
		<path class="st7" d="M11.5,114.8c-0.5,0.8-1.1,1.4-1.8,1.8s-1.6,0.7-2.5,0.7c-0.9,0-1.7-0.2-2.5-0.7s-1.4-1.1-1.8-1.8
			c-0.5-0.8-0.7-1.6-0.7-2.5c0-0.7,0.1-1.4,0.4-2s0.7-1.2,1.1-1.7l1.2,1.2c-0.4,0.3-0.6,0.7-0.8,1.1c-0.2,0.4-0.3,0.9-0.3,1.3
			c0,0.6,0.2,1.1,0.5,1.6c0.3,0.5,0.7,0.9,1.2,1.2c0.5,0.3,1.1,0.4,1.7,0.4c0.6,0,1.2-0.1,1.7-0.4c0.5-0.3,0.9-0.7,1.2-1.2
			c0.3-0.5,0.5-1,0.5-1.6c0-0.5-0.1-0.9-0.3-1.3c-0.2-0.4-0.5-0.8-0.8-1.1l1.1-1.2c0.5,0.5,0.9,1,1.2,1.6s0.4,1.3,0.4,2
			C12.2,113.2,11.9,114,11.5,114.8z"/>
	</g>
</g>
<g id="_Group_10">
	<g class="st6">
		<path class="st7" d="M55.1,188.8h-2v-1h5.1v1h-2v5.2h-1.1V188.8z"/>
		<path class="st7" d="M63.9,191.1c-0.3,0.4-0.7,0.6-1.2,0.7l1.5,2.2h-1.3l-1.5-2.1h-1v2.1h-1.1v-6.2H62c0.4,0,0.8,0.1,1.2,0.3
			s0.6,0.4,0.8,0.7c0.2,0.3,0.3,0.7,0.3,1.1C64.3,190.4,64.2,190.8,63.9,191.1z M60.4,190.9h1.4c0.4,0,0.7-0.1,0.9-0.3
			c0.2-0.2,0.4-0.4,0.4-0.7c0-0.3-0.1-0.6-0.4-0.7c-0.2-0.2-0.6-0.3-0.9-0.3h-1.4V190.9z"/>
		<path class="st7" d="M69.7,192.8h-3l-0.5,1.2H65l2.6-6.2h1.3l2.6,6.2h-1.2L69.7,192.8z M69.3,191.9l-1.1-2.6l-1.1,2.6H69.3z"/>
		<path class="st7" d="M73.6,188.8v1.6h3.2v1h-3.2v2.6h-1.1v-6.2h4.7v1H73.6z"/>
		<path class="st7" d="M79.5,188.8v1.6h3.2v1h-3.2v2.6h-1.1v-6.2H83v1H79.5z"/>
		<path class="st7" d="M84.2,187.8h1.1v6.2h-1.1V187.8z"/>
		<path class="st7" d="M88.3,193.7c-0.5-0.3-0.9-0.7-1.2-1.2s-0.4-1-0.4-1.6c0-0.6,0.1-1.1,0.4-1.6s0.7-0.9,1.2-1.2s1-0.4,1.6-0.4
			c0.4,0,0.9,0.1,1.3,0.3c0.4,0.2,0.8,0.4,1.1,0.7l-0.8,0.7c-0.2-0.2-0.4-0.4-0.7-0.5c-0.3-0.1-0.5-0.2-0.8-0.2
			c-0.4,0-0.7,0.1-1,0.3s-0.6,0.5-0.8,0.8s-0.3,0.7-0.3,1.1c0,0.4,0.1,0.8,0.3,1.1s0.4,0.6,0.8,0.8s0.7,0.3,1,0.3
			c0.3,0,0.6-0.1,0.8-0.2c0.3-0.1,0.5-0.3,0.7-0.5l0.8,0.7c-0.3,0.3-0.7,0.6-1.1,0.7s-0.8,0.3-1.3,0.3
			C89.3,194.1,88.8,194,88.3,193.7z"/>
	</g>
</g>
<g id="_Group_11">
	<g class="st6">
		<path class="st7" d="M529.1,169.2h-3l-0.5,1.2h-1.3l2.6-6.2h1.3l2.6,6.2h-1.2L529.1,169.2z M528.7,168.3l-1.1-2.6l-1.1,2.6H528.7z
			"/>
		<path class="st7" d="M533.1,170.1c-0.4-0.2-0.7-0.6-1-1s-0.4-0.9-0.4-1.4v-3.5h1.1v3.5c0,0.3,0.1,0.6,0.2,0.9
			c0.1,0.3,0.3,0.5,0.6,0.6c0.2,0.1,0.5,0.2,0.8,0.2c0.3,0,0.6-0.1,0.8-0.2c0.2-0.2,0.4-0.4,0.6-0.6c0.1-0.3,0.2-0.6,0.2-0.9v-3.5
			h1.1v3.5c0,0.5-0.1,1-0.3,1.4c-0.2,0.4-0.6,0.7-1,1c-0.4,0.2-0.9,0.4-1.4,0.4C534,170.5,533.5,170.4,533.1,170.1z"/>
		<path class="st7" d="M540.2,165.2h-2v-1h5.1v1h-2v5.2h-1.1V165.2z"/>
		<path class="st7" d="M545.6,170c-0.5-0.3-0.9-0.7-1.2-1.2s-0.4-1-0.4-1.6c0-0.6,0.1-1.1,0.4-1.6s0.7-0.9,1.2-1.2s1-0.4,1.6-0.4
			s1.1,0.1,1.6,0.4s0.9,0.7,1.2,1.2s0.4,1,0.4,1.6c0,0.6-0.2,1.1-0.4,1.6s-0.7,0.9-1.2,1.2s-1,0.4-1.6,0.4S546.1,170.3,545.6,170z
			 M548.3,169.2c0.3-0.2,0.6-0.5,0.8-0.8s0.3-0.7,0.3-1.1c0-0.4-0.1-0.7-0.3-1.1s-0.4-0.6-0.8-0.8c-0.3-0.2-0.7-0.3-1-0.3
			s-0.7,0.1-1,0.3c-0.3,0.2-0.6,0.5-0.8,0.8c-0.2,0.3-0.3,0.7-0.3,1.1c0,0.4,0.1,0.8,0.3,1.1c0.2,0.3,0.4,0.6,0.8,0.8
			c0.3,0.2,0.7,0.3,1,0.3S548,169.4,548.3,169.2z"/>
		<path class="st7" d="M551.8,164.2h1.1l2,3.8l2-3.8h1.1v6.2H557v-4.1l-2,3.8l-2-3.8v4.1h-1.1V164.2z"/>
		<path class="st7" d="M563.9,169.2h-3l-0.5,1.2h-1.3l2.6-6.2h1.3l2.6,6.2h-1.2L563.9,169.2z M563.5,168.3l-1.1-2.6l-1.1,2.6H563.5z
			"/>
		<path class="st7" d="M568.1,165.2h-2v-1h5.1v1h-2v5.2h-1.1V165.2z"/>
		<path class="st7" d="M572.3,164.2h1.1v6.2h-1.1V164.2z"/>
		<path class="st7" d="M576.3,170c-0.5-0.3-0.9-0.7-1.2-1.2s-0.4-1-0.4-1.6c0-0.6,0.1-1.1,0.4-1.6s0.7-0.9,1.2-1.2s1-0.4,1.6-0.4
			c0.6,0,1.1,0.1,1.6,0.4s0.9,0.7,1.2,1.2s0.4,1,0.4,1.6c0,0.6-0.1,1.1-0.4,1.6s-0.7,0.9-1.2,1.2s-1,0.4-1.6,0.4
			C577.4,170.5,576.8,170.3,576.3,170z M579,169.2c0.3-0.2,0.6-0.5,0.8-0.8c0.2-0.3,0.3-0.7,0.3-1.1c0-0.4-0.1-0.7-0.3-1.1
			c-0.2-0.3-0.4-0.6-0.8-0.8c-0.3-0.2-0.7-0.3-1-0.3c-0.4,0-0.7,0.1-1,0.3s-0.6,0.5-0.8,0.8s-0.3,0.7-0.3,1.1c0,0.4,0.1,0.8,0.3,1.1
			s0.4,0.6,0.8,0.8s0.7,0.3,1,0.3C578.3,169.5,578.7,169.4,579,169.2z"/>
		<path class="st7" d="M582.5,164.2h1.1l3.3,4.3v-4.3h1.1v6.2h-1.1l-3.3-4.3v4.3h-1.1V164.2z"/>
	</g>
</g>
<g id="_Group_12">
	<g class="st6">
		<path class="st7" d="M147.7,279.6h-3.1V278h7.9v1.6h-3.1v8h-1.8V279.6z"/>
		<path class="st7" d="M154.3,278h1.7v9.6h-1.7V278z"/>
		<path class="st7" d="M158.7,278h1.7l3.2,5.9l3.2-5.9h1.8v9.6h-1.8v-6.4l-3.2,5.9l-3.2-5.9v6.4h-1.7V278z"/>
		<path class="st7" d="M172.9,279.6v2.3h5v1.6h-5v2.5h5.5v1.6h-7.2V278h7.2v1.6H172.9z"/>
	</g>
</g>
<g id="_Group_13">
	<path id="_Compound_Path_" class="st9" d="M406.1,127.6v-2.7h-2.6c-0.2-0.9-0.5-1.8-1-2.6l1.9-1.9l-1.9-1.9l-1.8,1.8
		c-0.8-0.5-1.7-0.9-2.6-1.1v-2.6h-2.7v2.6c-0.9,0.2-1.8,0.5-2.6,1.1l-1.8-1.8l-1.9,1.9l1.8,1.8c-0.5,0.8-0.9,1.7-1.1,2.6h-2.6v2.7
		h2.6c0.2,0.9,0.6,1.8,1.1,2.6l-1.9,1.8l1.9,1.9l1.9-1.9c0.8,0.5,1.6,0.8,2.5,1v2.7h2.7v-2.7c0.9-0.2,1.8-0.5,2.5-1.1l1.9,1.9
		l1.9-1.9l-1.9-1.9c0.5-0.8,0.9-1.6,1.1-2.5L406.1,127.6z M396.5,130.5c-2.4,0-4.3-1.9-4.3-4.3c0-2.4,1.9-4.3,4.3-4.3
		s4.3,1.9,4.3,4.3C400.9,128.6,398.9,130.5,396.5,130.5L396.5,130.5z"/>
	<path id="_Compound_Path_2" class="st9" d="M426.1,140v-3h-2.9c-0.2-1-0.6-2-1.1-2.8l2-2L422,130l-2,2c-0.9-0.6-1.8-1-2.8-1.2V128
		h-3v2.8c-1,0.2-2,0.6-2.9,1.2l-2-2l-2.1,2.1l2,2c-0.6,0.9-1,1.9-1.2,2.9h-2.8v3h2.8c0.2,1,0.6,2,1.2,2.8l-2,2l2.1,2.1l2.1-2.1
		c0.8,0.6,1.8,0.9,2.8,1.1v3h3v-3c1-0.2,1.9-0.6,2.8-1.1l2,2.1l2.1-2.1l-2.1-2.1c0.6-0.8,1-1.8,1.2-2.8h2.9V140z M415.6,143.2
		c-2.6,0-4.8-2.1-4.8-4.8c0-2.6,2.1-4.8,4.8-4.8c2.6,0,4.8,2.1,4.8,4.8l0,0C420.4,141.1,418.2,143.2,415.6,143.2L415.6,143.2z"/>
</g>
<g id="_Group_14">
	<line class="st10" x1="438.7" y1="131" x2="522" y2="131"/>
	<polygon class="st2" points="520,133.9 530.8,131 520,128.1 	"/>
</g>
<path class="st11" d="M391.3,119.4v23.5c0,1.2,0.6,2.3,1.7,2.9l20.3,11.8c1,0.6,2.3,0.6,3.4,0l20.4-11.8c1-0.6,1.7-1.7,1.7-2.9
	v-23.5c0-1.2-0.6-2.3-1.7-2.9l-20.4-11.7c-1-0.6-2.3-0.6-3.4,0L393,116.5C392,117.1,391.3,118.2,391.3,119.4z"/>
<path class="st12" d="M417.2,114.1l2.1,3.2c0.6,0.9,1.6,1.3,2.6,1.1l3.8-0.8c1.4-0.3,2.7,0.6,3,1.9c0.1,0.3,0.1,0.7,0,1.1l-0.8,3.7
	c-0.2,1,0.2,2,1.1,2.6l3.2,2.1c1.2,0.8,1.5,2.3,0.7,3.5c-0.2,0.3-0.4,0.5-0.7,0.7l-3.2,2.1c-0.9,0.6-1.3,1.6-1.1,2.6l0.8,3.8
	c0.3,1.4-0.6,2.7-1.9,3c-0.3,0.1-0.7,0.1-1.1,0l-3.8-0.8c-1-0.2-2,0.2-2.6,1.1l-2.1,3.2c-0.8,1.2-2.3,1.5-3.5,0.7
	c-0.3-0.2-0.5-0.4-0.7-0.7l-2.1-3.2c-0.6-0.9-1.6-1.3-2.6-1.1l-3.8,0.8c-1.4,0.3-2.7-0.6-3-1.9c-0.1-0.4-0.1-0.7,0-1.1l0.8-3.8
	c0.2-1-0.2-2-1.1-2.6l-3.2-2.1c-1.2-0.8-1.5-2.3-0.7-3.5c0.2-0.3,0.4-0.5,0.7-0.7l3.2-2.1c0.9-0.6,1.3-1.6,1.1-2.6l-0.8-3.7
	c-0.3-1.4,0.6-2.7,1.9-3c0.4-0.1,0.7-0.1,1.1,0l3.8,0.8c1,0.2,2-0.2,2.6-1.1l2.1-3.2c0.8-1.2,2.4-1.4,3.5-0.6
	C416.8,113.6,417,113.8,417.2,114.1z"/>
<circle class="st12" cx="415.1" cy="131.1" r="5.1"/>
<path class="st13" d="M415.1,137c-3.3,0-5.9-2.6-5.9-5.9c0-3.3,2.6-5.9,5.9-5.9l0,0"/>
<circle class="st12" cx="415.1" cy="131.1" r="10.1"/>
<path class="st13" d="M415.1,121.9c5.1,0,9.3,4.2,9.3,9.3c0,5.1-4.1,9.3-9.3,9.3"/>
<circle class="st14" cx="91.4" cy="237.7" r="2.4"/>
<circle class="st14" cx="56" cy="237.7" r="4.1"/>
<line class="st15" x1="65.8" y1="237.7" x2="60.1" y2="237.7"/>
<line class="st15" x1="88.8" y1="237.7" x2="83.2" y2="237.7"/>
<circle class="st14" cx="86" cy="226" r="2.4"/>
<line class="st15" x1="84.2" y1="227.8" x2="80.5" y2="231.4"/>
<circle class="st14" cx="86" cy="249.4" r="2.4"/>
<line class="st15" x1="84.2" y1="247.6" x2="80.5" y2="244"/>
<path class="st16" d="M66,234.2v7c0,0.8,0.5,1.6,1.2,2l6.1,3.5c0.7,0.4,1.6,0.4,2.3,0l6.1-3.5c0.7-0.4,1.2-1.2,1.2-2v-7
	c0-0.8-0.5-1.6-1.2-2l-6.1-3.5c-0.7-0.4-1.6-0.4-2.3,0l-6.1,3.5C66.5,232.6,66,233.4,66,234.2z"/>
<polyline class="st17" points="71.6,240.6 74.5,234.8 77.4,240.6 "/>
<path class="st18" d="M239.2,73.3v-7c0-1.4,0.7-2.6,1.9-3.3l6.1-3.5c0.5-0.3,1.1-0.5,1.7-0.5l-1.6-0.9c-0.9-0.5-2-0.5-2.9,0
	l-6.1,3.5c-0.9,0.5-1.4,1.4-1.4,2.4v7c0,1,0.5,2,1.4,2.5l0.9,0.5C239.3,73.7,239.2,73.5,239.2,73.3z"/>
<path class="st18" d="M236.4,71.2v-7.1c0-1.4,0.7-2.6,1.9-3.3l6.1-3.5c0.5-0.3,1.1-0.5,1.8-0.5l-1.6-1c-0.9-0.5-2-0.5-2.9,0
	l-6.1,3.5c-0.9,0.5-1.4,1.4-1.4,2.5v7.1c0,1,0.6,2,1.4,2.5l0.9,0.5C236.4,71.6,236.4,71.4,236.4,71.2z"/>
<circle class="st14" cx="265.8" cy="69.7" r="2.4"/>
<circle class="st14" cx="230.4" cy="69.7" r="4.1"/>
<line class="st15" x1="240.2" y1="69.7" x2="234.5" y2="69.7"/>
<line class="st15" x1="263.2" y1="69.7" x2="257.6" y2="69.7"/>
<circle class="st14" cx="260.4" cy="58" r="2.4"/>
<line class="st15" x1="258.5" y1="59.8" x2="254.9" y2="63.4"/>
<circle class="st14" cx="260.4" cy="81.4" r="2.4"/>
<line class="st15" x1="258.5" y1="79.6" x2="254.9" y2="75.9"/>
<path class="st16" d="M240.4,66.2v7c0,0.8,0.5,1.6,1.2,2l6.1,3.5c0.7,0.4,1.6,0.4,2.4,0l6.1-3.5c0.7-0.4,1.2-1.2,1.2-2v-7
	c0-0.8-0.5-1.6-1.2-2l-6.1-3.6c-0.7-0.4-1.6-0.4-2.4,0l-6.1,3.5C240.8,64.5,240.4,65.3,240.4,66.2z"/>
<polyline class="st17" points="245.9,72.6 248.9,66.7 251.8,72.6 "/>
<path class="st18" d="M110.2,154.1v-7c0-1.4,0.7-2.6,1.9-3.3l6.1-3.5c0.5-0.3,1.1-0.5,1.7-0.5l-1.6-0.9c-0.9-0.5-2-0.5-2.8,0
	l-6.1,3.5c-0.9,0.5-1.4,1.5-1.4,2.5v7c0,1,0.5,2,1.4,2.5l0.9,0.5C110.2,154.6,110.2,154.4,110.2,154.1z"/>
<circle class="st14" cx="136.8" cy="150.5" r="2.4"/>
<circle class="st14" cx="101.4" cy="150.5" r="4.1"/>
<line class="st15" x1="111.2" y1="150.5" x2="105.5" y2="150.5"/>
<line class="st15" x1="134.2" y1="150.5" x2="128.6" y2="150.5"/>
<circle class="st14" cx="131.4" cy="138.8" r="2.4"/>
<line class="st15" x1="129.5" y1="140.6" x2="125.9" y2="144.2"/>
<circle class="st14" cx="131.4" cy="162.2" r="2.4"/>
<line class="st15" x1="129.5" y1="160.4" x2="125.9" y2="156.8"/>
<path class="st16" d="M111.4,147v7c0,0.8,0.5,1.6,1.2,2l6.1,3.5c0.7,0.4,1.6,0.4,2.3,0l6.1-3.5c0.7-0.4,1.2-1.2,1.2-2v-7
	c0-0.8-0.5-1.6-1.2-2l-6.2-3.6c-0.7-0.4-1.6-0.4-2.3,0l-6.1,3.5C111.8,145.4,111.4,146.2,111.4,147z"/>
<polyline class="st17" points="116.9,153.4 119.9,147.6 122.8,153.4 "/>
<path class="st18" d="M291.7,154.5v-7.1c0-1.4,0.7-2.6,1.9-3.3l6.1-3.5c0.5-0.3,1.1-0.5,1.7-0.5l-1.6-0.9c-0.9-0.5-2-0.5-2.9,0
	l-6.1,3.5c-0.9,0.5-1.4,1.4-1.4,2.5v7.1c0,1,0.5,2,1.4,2.5l0.9,0.5C291.7,154.9,291.7,154.7,291.7,154.5z"/>
<circle class="st14" cx="318.3" cy="150.8" r="2.4"/>
<circle class="st14" cx="282.9" cy="150.8" r="4.1"/>
<line class="st15" x1="292.6" y1="150.8" x2="287" y2="150.8"/>
<line class="st15" x1="315.7" y1="150.8" x2="310" y2="150.8"/>
<circle class="st14" cx="312.8" cy="139.1" r="2.4"/>
<line class="st15" x1="311" y1="140.9" x2="307.4" y2="144.6"/>
<circle class="st14" cx="312.8" cy="162.6" r="2.4"/>
<line class="st15" x1="311" y1="160.8" x2="307.4" y2="157.1"/>
<path class="st16" d="M292.9,147.3v7.1c0,0.8,0.5,1.6,1.2,2l6.1,3.5c0.7,0.4,1.6,0.4,2.4,0l6.1-3.5c0.7-0.4,1.2-1.2,1.2-2v-7.1
	c0-0.8-0.5-1.6-1.2-2l-6.1-3.5c-0.7-0.4-1.6-0.4-2.4,0l-6.1,3.5C293.3,145.7,292.9,146.5,292.9,147.3z"/>
<polyline class="st17" points="298.4,153.8 301.3,147.9 304.3,153.8 "/>
<path class="st19" d="M531.7,130.5L531.7,130.5c0-14.9,12-26.9,26.9-26.9s26.9,12,26.9,26.9s-12,26.9-26.9,26.9
	S531.7,145.4,531.7,130.5L531.7,130.5z"/>
<g>
	<path class="st20" d="M558.6,140.5c-0.2,0-0.4-0.2-0.4-0.5s0.2-0.5,0.4-0.5c4.9,0,8.9-4.1,8.9-9.1s-4-9.1-8.9-9.1s-8.9,4.1-8.9,9.1
		c0,0.3-0.2,0.5-0.4,0.5s-0.4-0.2-0.4-0.5c0-5.5,4.4-10,9.8-10c5.4,0,9.8,4.5,9.8,10C568.4,136,564,140.5,558.6,140.5z"/>
	<path class="st21" d="M556.2,146.9h4.5c0.2-0.5,0.3-1,0.4-1.5c0.1-0.7,0.3-1.3,0.7-1.9l0.1-0.2h0.2c1.1-0.2,2.1-0.7,3.1-1.2
		l0.2-0.1l0.2,0.2c0.9,0.6,1.8,1.1,2.7,1.6c2-2,2.8-2.9,3.2-3.3c-0.2-0.3-0.5-0.7-0.7-1.2c-0.6-1-0.8-1.4-0.9-1.5l-0.2-0.3l0.2-0.3
		c0.4-0.4,0.6-0.9,0.8-1.5s0.5-1.2,0.8-1.8l0.1-0.2h0.2c0.5-0.1,1.1-0.2,1.6-0.4s1-0.3,1.3-0.4v-4.6c-0.3-0.1-0.8-0.2-1.3-0.4
		c-0.5-0.2-1-0.3-1.5-0.4c-0.4,0.1-0.5,0.1-1.8-3.9l-0.1-0.2l0.1-0.2c0.4-0.6,0.9-1.5,1.6-2.7c-0.4-0.4-0.9-0.9-1.6-1.6
		c-0.5-0.6-1.1-1.1-1.7-1.5c-0.3,0.1-0.7,0.4-1.2,0.7c-0.5,0.4-1.1,0.6-1.7,0.8l-0.2,0.1l-0.1-0.1c-0.4-0.3-0.9-0.6-1.4-0.7
		c-0.9-0.4-1.5-0.6-1.7-0.7l-0.2-0.1l-0.1-0.2c-0.4-1.5-0.7-2.5-0.9-3.1h-4.5c-0.1,0.4-0.2,0.9-0.4,1.4c-0.2,0.7-0.4,1.6-0.5,1.8
		l-0.1,0.3h-0.3c-0.1,0-0.6,0.1-3.2,1.3l-0.2,0.1l-0.2-0.1c-0.9-0.6-1.8-1.1-2.7-1.6c-2,1.9-2.8,2.9-3.2,3.3
		c0.6,0.9,1.1,1.8,1.6,2.7l0.1,0.2l-0.2,0.2c-0.3,0.5-0.6,1-0.8,1.6c-0.4,0.9-0.6,1.5-0.8,1.8l-0.1,0.2h-0.2
		c-0.5,0.1-1.1,0.2-1.6,0.4c-0.5,0.2-1,0.3-1.3,0.4v4.6c0.3,0.1,0.8,0.2,1.3,0.4s1.1,0.3,1.7,0.4h0.3l0.1,0.3
		c0.1,0.6,0.3,1.2,0.5,1.7c0.6,1.3,0.7,1.6,0.7,1.7l0.1,0.2l-0.1,0.2c-0.9,1.6-1.3,2.4-1.5,2.7c1.9,2,2.8,2.8,3.2,3.2
		c0.3-0.1,0.7-0.4,1.2-0.7s1.1-0.6,1.7-0.8l0.2-0.1l0.2,0.1c0.1,0,0.6,0.3,3.1,1.4l0.2,0.1l0.1,0.2c0.2,0.6,0.4,1.2,0.5,1.8
		C556,146,556.1,146.5,556.2,146.9z M561.4,147.8h-5.7l-0.1-0.3c-0.2-0.6-0.4-1.2-0.5-1.8c-0.2-0.7-0.3-1.2-0.4-1.5
		c-1.9-0.8-2.6-1.2-2.9-1.3c-0.5,0.2-0.9,0.4-1.3,0.7c-0.5,0.3-1,0.6-1.5,0.9l-0.2,0.1l-0.2-0.1c-0.5-0.3-1.7-1.5-3.8-3.6l-0.2-0.2
		l0.1-0.3c0.1-0.2,0.3-0.8,1.6-3c-0.1-0.2-0.3-0.7-0.6-1.5c-0.2-0.5-0.4-1.1-0.5-1.7c-0.4-0.1-0.9-0.2-1.5-0.3
		c-0.8-0.2-1.3-0.4-1.6-0.4l-0.4-0.1v-6.1l0.4-0.1c0.3-0.1,0.8-0.2,1.6-0.4c0.5-0.2,1-0.3,1.5-0.4c0.2-0.3,0.4-0.8,0.7-1.5
		c0.2-0.5,0.4-1,0.7-1.5c-0.9-1.7-1.4-2.3-1.6-2.6l-0.2-0.3l0.2-0.3c0.3-0.5,1.6-1.8,3.8-3.9l0.2-0.2l0.3,0.1c1,0.5,2,1,2.9,1.7
		c1-0.5,1.9-0.8,3-1.2c0.1-0.3,0.2-0.7,0.4-1.5c0.2-0.7,0.4-1.3,0.5-1.8l0.1-0.3h5.8l0.1,0.3c0.2,0.5,0.5,1.5,0.9,3.2
		c0.2,0.1,0.7,0.3,1.4,0.6c0.5,0.2,1,0.4,1.5,0.7c0.4-0.2,0.9-0.4,1.2-0.7c0.5-0.3,1-0.6,1.6-0.9l0.2-0.1l0.2,0.1
		c0.8,0.5,1.5,1.1,2.1,1.8c0.6,0.6,1.2,1.2,1.8,1.8l0.3,0.2l-0.2,0.3c-0.7,1.3-1.3,2.3-1.7,2.9c0.7,1.9,1,2.7,1.1,3.1
		c0.5,0.1,1.1,0.2,1.6,0.4c0.8,0.2,1.3,0.4,1.6,0.4l0.4,0.1v6.1l-0.4,0.1c-0.2,0-0.6,0.2-1.6,0.4c-0.5,0.1-1,0.3-1.5,0.4
		c-0.2,0.5-0.4,1-0.6,1.5c-0.2,0.5-0.4,1.1-0.7,1.5c0.2,0.3,0.4,0.7,0.7,1.2s0.5,0.9,0.9,1.4l0.2,0.3l-0.2,0.3
		c-0.3,0.5-1.6,1.8-3.8,3.9l-0.2,0.2l-0.3-0.1c-1-0.5-2-1-2.9-1.7c-0.9,0.5-1.9,0.9-2.9,1.2c-0.2,0.5-0.4,1-0.5,1.5
		c-0.1,0.7-0.3,1.3-0.6,1.9L561.4,147.8z"/>
</g>
</svg>
