<?xml version="1.0" encoding="utf-8"?>
<!-- Generator: Adobe Illustrator 26.0.1, SVG Export Plug-In . SVG Version: 6.00 Build 0)  -->
<svg version="1.1" id="Layer_1" xmlns="http://www.w3.org/2000/svg" xmlns:xlink="http://www.w3.org/1999/xlink" x="0px" y="0px"
	 viewBox="0 0 400 221.3" style="enable-background:new 0 0 400 221.3;" xml:space="preserve">
<style type="text/css">
	.st0{fill:none;stroke:#495565;stroke-width:0.77;stroke-linecap:round;stroke-miterlimit:10;}
	.st1{fill:#495565;}
	.st2{fill:#FFFFFF;}
	.st3{fill:#F05024;}
	.st4{fill:#F04F23;}
	.st5{opacity:0.3;}
	.st6{fill:none;stroke:#CCCCCB;stroke-width:0.75;stroke-linecap:round;stroke-linejoin:round;}
	.st7{fill:#CCCCCB;}
	.st8{opacity:0.15;}
	.st9{fill:none;stroke:#F04E23;stroke-width:0.89;stroke-linejoin:round;stroke-dasharray:1.19,3.58;}
	.st10{fill:#F04E23;}
	.st11{fill:none;stroke:#495565;stroke-width:0.77;stroke-miterlimit:10;}
	.st12{fill:#F05024;stroke:#F04F23;stroke-width:0.77;stroke-linecap:round;stroke-linejoin:round;}
	.st13{fill:none;stroke:#FFFFFF;stroke-width:1.11;stroke-linecap:round;stroke-linejoin:round;}
	.st14{enable-background:new    ;}
	.st15{fill-rule:evenodd;clip-rule:evenodd;fill:#208FCE;}
	.st16{fill-rule:evenodd;clip-rule:evenodd;fill:#1D428A;}
	.st17{fill-rule:evenodd;clip-rule:evenodd;fill:#1E4489;}
	.st18{fill-rule:evenodd;clip-rule:evenodd;fill:#2890CF;}
</style>
<line class="st0" x1="319.2" y1="143.9" x2="319.2" y2="58.8"/>
<polygon class="st1" points="321.2,142.5 319.2,150 317.2,142.5 "/>
<polygon class="st1" points="321.2,60.2 319.2,52.7 317.2,60.2 "/>
<rect x="313.6" y="90.3" class="st2" width="10.5" height="23.5"/>
<path class="st3" d="M159.9,91.8v23.9c0,1.4,0.7,2.6,1.9,3.3l20.7,11.9c1.2,0.7,2.6,0.7,3.8,0L207,119c1.2-0.7,1.9-1.9,1.9-3.3V91.8
	c0-1.4-0.7-2.6-1.9-3.3l-20.7-11.9c-1.2-0.7-2.6-0.7-3.8,0l-20.7,11.9C160.6,89.2,159.9,90.5,159.9,91.8z"/>
<path class="st4" d="M184.4,132c-0.7,0-1.4-0.2-2-0.5l-21-12.1c-1.2-0.7-2-2-2-3.4V91.6c0-1.4,0.8-2.7,2-3.4l21-12.1
	c1.2-0.7,2.8-0.7,4,0l21,12.1c1.2,0.7,2,2,2,3.4v24.2c0,1.4-0.8,2.7-2,3.4l-21,12.1C185.7,131.8,185.1,132,184.4,132z M184.4,76.5
	c-0.5,0-1,0.1-1.5,0.4l-21,12.1c-0.9,0.5-1.5,1.5-1.5,2.6v24.2c0,1.1,0.6,2.1,1.5,2.6l21,12.1c0.9,0.5,2.1,0.5,3,0l21-12.1
	c0.9-0.5,1.5-1.5,1.5-2.6V91.6c0-1.1-0.6-2.1-1.5-2.6l-21-12.1C185.4,76.6,184.9,76.5,184.4,76.5L184.4,76.5z"/>
<path class="st2" d="M184.4,123c-1,0-2-0.5-2.6-1.4l-2.2-3.3c-0.5-0.7-1.3-1.1-2.2-0.9l-3.9,0.8c-1.7,0.3-3.3-0.7-3.6-2.4
	c-0.1-0.4-0.1-0.8,0-1.2l0.8-3.9c0.2-0.8-0.2-1.7-0.9-2.2l-3.3-2.2c-1.4-0.9-1.8-2.9-0.9-4.3c0.2-0.3,0.5-0.6,0.9-0.9l3.3-2.2
	c0.7-0.5,1.1-1.3,0.9-2.2l-0.8-3.9c-0.3-1.7,0.7-3.3,2.4-3.6c0.4-0.1,0.8-0.1,1.2,0l3.9,0.8c0.8,0.2,1.7-0.2,2.2-0.9l2.2-3.3
	c0.9-1.4,2.8-1.8,4.3-0.9c0.4,0.2,0.7,0.5,0.9,0.9l2.2,3.3c0.5,0.7,1.3,1.1,2.2,0.9l3.9-0.8c1.7-0.3,3.3,0.7,3.6,2.4
	c0.1,0.4,0.1,0.8,0,1.2l-0.8,3.9c-0.2,0.9,0.2,1.7,1,2.2l3.3,2.2c1.4,0.9,1.8,2.8,0.9,4.3c-0.2,0.4-0.5,0.7-0.9,0.9l-3.3,2.2
	c-0.7,0.5-1.1,1.3-0.9,2.2l0.8,3.9c0.3,1.7-0.7,3.3-2.4,3.6c-0.4,0.1-0.8,0.1-1.2,0l-3.9-0.8c-0.8-0.2-1.7,0.2-2.2,0.9l-2.2,3.3
	C186.4,122.5,185.4,123,184.4,123z M177.8,116.4c1,0,2,0.5,2.6,1.4l2.2,3.3c0.7,1,2,1.2,3,0.6c0.2-0.2,0.4-0.4,0.6-0.6l2.2-3.3
	c0.7-1,2-1.6,3.2-1.3l3.9,0.8c1.1,0.2,2.3-0.5,2.5-1.7c0.1-0.3,0.1-0.6,0-0.8l-0.8-3.9c-0.3-1.2,0.3-2.5,1.3-3.2l3.3-2.2
	c1-0.7,1.2-2,0.6-3c-0.2-0.2-0.4-0.4-0.6-0.6l-3.3-2.2c-1-0.7-1.6-2-1.3-3.2l0.8-3.9c0.2-1.1-0.5-2.3-1.7-2.5
	c-0.3-0.1-0.6-0.1-0.8,0l-3.9,0.8c-1.2,0.3-2.5-0.3-3.2-1.3l-2.2-3.3c-0.7-1-2-1.2-3-0.6c-0.2,0.2-0.4,0.4-0.6,0.6l-2.2,3.3
	c-0.7,1-2,1.6-3.2,1.3l-3.9-0.8c-1.1-0.2-2.3,0.5-2.5,1.7c-0.1,0.3-0.1,0.6,0,0.8l0.8,3.9c0.3,1.2-0.3,2.5-1.3,3.2L167,102
	c-1,0.7-1.2,2-0.6,3c0.2,0.2,0.4,0.4,0.6,0.6l3.3,2.2c1,0.7,1.6,2,1.3,3.2l-0.8,3.9c-0.2,0.7,0.1,1.4,0.6,1.9s1.2,0.7,1.9,0.6
	l3.9-0.8C177.4,116.5,177.6,116.4,177.8,116.4L177.8,116.4z"/>
<path class="st2" d="M184.4,109.5c-3.2,0-5.7-2.6-5.7-5.7c0-3.2,2.6-5.7,5.7-5.7s5.7,2.6,5.7,5.7l0,0
	C190.1,106.9,187.5,109.5,184.4,109.5z M184.4,99c-2.6,0-4.7,2.1-4.7,4.7s2.1,4.7,4.7,4.7c2.6,0,4.7-2.1,4.7-4.7
	C189.1,101.1,187,99,184.4,99L184.4,99L184.4,99z"/>
<g class="st5">
	<path class="st2" d="M184.4,110.3c-3.6-0.1-6.5-3.2-6.3-6.8c0.1-3.4,2.9-6.2,6.3-6.3c0.3,0,0.5,0.2,0.5,0.5s-0.2,0.5-0.5,0.5
		c-3.1,0.1-5.5,2.7-5.4,5.8c0.1,2.9,2.5,5.2,5.4,5.4c0.3,0,0.5,0.2,0.5,0.5S184.6,110.4,184.4,110.3L184.4,110.3z"/>
</g>
<path class="st2" d="M184.4,114.7c-6,0-10.9-4.9-10.9-10.9s4.9-10.9,10.9-10.9s10.9,4.9,10.9,10.9l0,0
	C195.3,109.8,190.4,114.7,184.4,114.7z M184.4,93.8c-5.5,0-10,4.5-10,10s4.5,10,10,10s10-4.5,10-10S189.9,93.8,184.4,93.8z"/>
<g class="st5">
	<path class="st2" d="M184.4,113.8c-0.3,0-0.5-0.2-0.5-0.5s0.2-0.5,0.5-0.5c5,0.2,9.2-3.8,9.4-8.8s-3.8-9.2-8.8-9.4
		c-0.2,0-0.4,0-0.6,0c-0.3,0-0.5-0.2-0.5-0.5s0.2-0.5,0.5-0.5c5.6-0.2,10.2,4.2,10.4,9.7c0.2,5.6-4.2,10.2-9.7,10.4
		C184.8,113.8,184.6,113.8,184.4,113.8z"/>
</g>
<g id="_Group_">
	<line class="st6" x1="148.8" y1="103" x2="84.7" y2="103"/>
	<polygon class="st7" points="147.5,101 154.9,103 147.5,105 	"/>
	<polygon class="st7" points="87.8,101 80.5,103 87.8,105 	"/>
</g>
<g class="st8">
	<path class="st1" d="M70.5,100.9c-0.1,0-0.3-0.1-0.4-0.2s-0.2-0.2-0.2-0.4c0-0.1,0-0.1,0-0.2S70,100,70,99.9
		c0.1-0.2,0.4-0.2,0.6-0.1c0.1,0.1,0.2,0.2,0.3,0.3c0,0.1,0,0.1,0,0.2s-0.1,0.3-0.2,0.4C70.7,100.8,70.6,100.9,70.5,100.9z"/>
</g>
<line class="st9" x1="220.7" y1="103" x2="284" y2="103"/>
<polygon class="st10" points="222.4,105.6 212.8,103 222.4,100.4 "/>
<polygon class="st10" points="282.2,105.6 292,103 282.2,100.4 "/>
<rect x="296.9" y="98.1" class="st2" width="42.2" height="8.3"/>
<circle class="st11" cx="335.5" cy="102.3" r="2.2"/>
<circle class="st11" cx="301.9" cy="102.3" r="3.9"/>
<line class="st0" x1="311.2" y1="102.3" x2="305.8" y2="102.3"/>
<line class="st0" x1="333.1" y1="102.3" x2="327.7" y2="102.3"/>
<circle class="st11" cx="330.3" cy="91.1" r="2.2"/>
<line class="st0" x1="328.6" y1="92.8" x2="325.2" y2="96.3"/>
<circle class="st11" cx="330.3" cy="113.4" r="2.2"/>
<line class="st0" x1="328.6" y1="111.7" x2="325.2" y2="108.2"/>
<path class="st12" d="M311.4,98.9v6.7c0,0.8,0.4,1.5,1.1,1.9l5.8,3.3c0.7,0.4,1.5,0.4,2.2,0l5.8-3.3c0.7-0.4,1.1-1.1,1.1-1.9v-6.7
	c0-0.8-0.4-1.5-1.1-1.9l-5.8-3.3c-0.7-0.4-1.5-0.4-2.2,0l-5.8,3.3C311.8,97.4,311.4,98.1,311.4,98.9z"/>
<polyline class="st13" points="316.6,105.1 319.4,99.5 322.2,105.1 "/>
<g class="st14">
	<path class="st1" d="M9.7,68.9H5.8l-0.6,1.6H3.5l3.4-8.2h1.7l3.4,8.2h-1.7L9.7,68.9z M9.2,67.6l-1.5-3.5l-1.5,3.5H9.2z"/>
	<path class="st1" d="M21.2,62.2l-3.4,8.2h-1.7l-3.4-8.2h1.7l2.6,6.3l2.6-6.3H21.2z"/>
	<path class="st1" d="M22.7,62.2h1.5v8.2h-1.5V62.2z"/>
	<path class="st1" d="M31.3,70c-0.7-0.4-1.2-0.9-1.6-1.6c-0.4-0.7-0.6-1.4-0.6-2.1s0.2-1.5,0.6-2.1c0.4-0.7,0.9-1.2,1.6-1.6
		c0.7-0.4,1.4-0.6,2.1-0.6c0.6,0,1.2,0.1,1.7,0.4c0.5,0.2,1,0.6,1.4,1l-1.1,1c-0.3-0.3-0.6-0.5-0.9-0.7c-0.4-0.2-0.7-0.3-1.1-0.3
		c-0.5,0-1,0.1-1.4,0.4c-0.4,0.3-0.8,0.6-1,1.1c-0.3,0.4-0.4,0.9-0.4,1.4c0,0.5,0.1,1,0.4,1.4c0.3,0.4,0.6,0.8,1,1.1
		c0.4,0.3,0.9,0.4,1.4,0.4c0.4,0,0.8-0.1,1.1-0.3c0.4-0.2,0.7-0.4,0.9-0.7l1.1,1c-0.4,0.4-0.9,0.8-1.4,1c-0.5,0.2-1.1,0.4-1.7,0.4
		C32.7,70.6,32,70.4,31.3,70z"/>
	<path class="st1" d="M39.8,70c-0.7-0.4-1.2-0.9-1.6-1.6c-0.4-0.7-0.6-1.4-0.6-2.1s0.2-1.5,0.6-2.1c0.4-0.7,0.9-1.2,1.6-1.6
		c0.7-0.4,1.4-0.6,2.1-0.6c0.8,0,1.5,0.2,2.1,0.6c0.7,0.4,1.2,0.9,1.6,1.6c0.4,0.7,0.6,1.4,0.6,2.1s-0.2,1.5-0.6,2.1
		c-0.4,0.7-0.9,1.2-1.6,1.6c-0.7,0.4-1.4,0.6-2.1,0.6C41.2,70.6,40.5,70.4,39.8,70z M43.3,68.8c0.4-0.3,0.8-0.6,1-1.1
		c0.3-0.4,0.4-0.9,0.4-1.4c0-0.5-0.1-1-0.4-1.4c-0.3-0.4-0.6-0.8-1-1.1c-0.4-0.3-0.9-0.4-1.4-0.4s-1,0.1-1.4,0.4
		c-0.4,0.3-0.8,0.6-1,1.1c-0.3,0.4-0.4,0.9-0.4,1.4c0,0.5,0.1,1,0.4,1.4c0.3,0.4,0.6,0.8,1,1.1c0.4,0.3,0.9,0.4,1.4,0.4
		S42.9,69.1,43.3,68.8z"/>
	<path class="st1" d="M48,62.2h1.5l4.4,5.8v-5.8h1.5v8.2h-1.5l-4.4-5.8v5.8H48V62.2z"/>
	<path class="st1" d="M58.5,70.2c-0.6-0.2-1.1-0.6-1.6-1l0.9-1.1c0.8,0.7,1.7,1.1,2.7,1.1c0.5,0,0.9-0.1,1.1-0.3
		c0.3-0.2,0.4-0.5,0.4-0.8c0-0.2-0.1-0.4-0.2-0.5c-0.1-0.1-0.3-0.3-0.6-0.4c-0.3-0.1-0.6-0.2-1.1-0.3c-0.6-0.2-1.2-0.3-1.6-0.5
		c-0.4-0.2-0.7-0.4-1-0.7c-0.2-0.3-0.3-0.7-0.3-1.2c0-0.5,0.1-0.9,0.4-1.3s0.6-0.7,1.1-0.9c0.4-0.2,1-0.3,1.5-0.3
		c1.2,0,2.2,0.4,3.1,1.2l-0.8,1.1c-0.4-0.3-0.7-0.6-1.1-0.7c-0.4-0.2-0.8-0.2-1.2-0.2s-0.7,0.1-1,0.3s-0.4,0.5-0.4,0.8
		c0,0.2,0.1,0.4,0.2,0.5c0.1,0.1,0.3,0.3,0.6,0.4c0.3,0.1,0.6,0.2,1.1,0.3c1,0.2,1.7,0.5,2.1,0.9c0.5,0.4,0.7,0.9,0.7,1.6
		c0,0.5-0.1,0.9-0.4,1.3s-0.6,0.7-1.1,0.9c-0.5,0.2-1,0.3-1.7,0.3C59.8,70.6,59.1,70.4,58.5,70.2z"/>
	<path class="st1" d="M66.9,70c-0.7-0.4-1.2-0.9-1.6-1.6c-0.4-0.7-0.6-1.4-0.6-2.1s0.2-1.5,0.6-2.1c0.4-0.7,0.9-1.2,1.6-1.6
		c0.7-0.4,1.4-0.6,2.1-0.6c0.8,0,1.5,0.2,2.1,0.6c0.7,0.4,1.2,0.9,1.6,1.6c0.4,0.7,0.6,1.4,0.6,2.1s-0.2,1.5-0.6,2.1
		c-0.4,0.7-0.9,1.2-1.6,1.6c-0.7,0.4-1.4,0.6-2.1,0.6C68.3,70.6,67.6,70.4,66.9,70z M70.4,68.8c0.4-0.3,0.8-0.6,1-1.1
		c0.3-0.4,0.4-0.9,0.4-1.4c0-0.5-0.1-1-0.4-1.4c-0.3-0.4-0.6-0.8-1-1.1c-0.4-0.3-0.9-0.4-1.4-0.4s-1,0.1-1.4,0.4
		c-0.4,0.3-0.8,0.6-1,1.1c-0.3,0.4-0.4,0.9-0.4,1.4c0,0.5,0.1,1,0.4,1.4c0.3,0.4,0.6,0.8,1,1.1c0.4,0.3,0.9,0.4,1.4,0.4
		S70,69.1,70.4,68.8z"/>
	<path class="st1" d="M80.9,69.1v1.4h-5.7v-8.2h1.5v6.9H80.9z"/>
	<path class="st1" d="M83.8,63.5v2h4.2v1.4h-4.2v2.1h4.7v1.4h-6.2v-8.2h6.2v1.4H83.8z"/>
</g>
<g>
	<path class="st15" d="M331.6,4.7c-2.9,0-5.5,1.9-6.5,4.7c0.4,0.2,0.7,0.5,1,0.8c0.9-3.2,4.2-4.9,7.2-4s4.8,4.3,3.8,7.5
		c-0.9,3.2-4.2,4.9-7.2,4c-0.2-0.1-0.3-0.1-0.5-0.2c0,0.1,0,0.3,0,0.4c0,0.3,0,0.6,0,0.9c3.7,1.2,7.6-0.9,8.8-4.7
		c1.2-3.8-0.8-7.9-4.5-9.1C333,4.8,332.3,4.7,331.6,4.7L331.6,4.7z"/>
	<path class="st15" d="M308.8,17.9c0-0.1,0-0.2,0-0.3c-0.6,0.2-1.2,0.3-1.8,0.3c-3.2,0-5.8-2.7-5.8-6s2.6-6,5.8-6
		c2.4,0,4.6,1.6,5.4,4c0.3-0.3,0.7-0.5,1-0.8c-1.5-3.7-5.6-5.4-9.2-3.9s-5.3,5.8-3.8,9.5c1.1,2.7,3.6,4.5,6.5,4.5
		c0.6,0,1.2-0.1,1.8-0.3C308.8,18.6,308.8,18.2,308.8,17.9z"/>
	<path class="st15" d="M342.9,25.5c-3.4-3.4-6.8-4.8-11.6-4.8c-0.9,0-1.8,0.1-2.7,0.2c-0.2,0.5-0.3,0.9-0.6,1.4
		c1.1-0.2,2.2-0.3,3.3-0.3c3.7,0,6.9,0.7,10.5,4.3v12.5h1.3v-13L342.9,25.5z"/>
	<path class="st15" d="M309.5,20.8c-0.7-0.1-1.4-0.1-2-0.1c-4.9,0-8.4,1.4-11.8,4.8l-0.2,0.2v13h1.3V26.2c3.1-3,6.2-4.3,10.7-4.3
		c0.9,0,1.7,0.1,2.5,0.2C309.8,21.7,309.7,21.2,309.5,20.8z"/>
	<path class="st16" d="M319.3,10.2c-4.3,0-7.8,3.5-7.8,7.7c0,4.3,3.5,7.7,7.8,7.7s7.7-3.5,7.7-7.7C327.1,13.6,323.6,10.2,319.3,10.2
		L319.3,10.2L319.3,10.2z M319.3,11.4c3.6,0,6.5,2.9,6.5,6.5s-2.9,6.5-6.5,6.5s-6.5-2.9-6.5-6.5S315.7,11.4,319.3,11.4"/>
	<path class="st16" d="M319.7,28.9c-4.8,0-9.2,1.9-11.9,5.1v11.5c0,0.8,0.6,1.4,1.4,1.5h20.7c0.8-0.1,1.4-0.7,1.4-1.5V34
		C328.4,30.8,324.1,28.9,319.7,28.9 M319.7,27.7c4.4,0,9.1,1.6,12.9,5.9v11.9c0,1.4-1.2,2.6-2.6,2.7h-20.7c-1.5-0.1-2.6-1.3-2.6-2.7
		V33.6C309.8,29.4,315.2,27.7,319.7,27.7"/>
</g>
<g class="st14">
	<path class="st1" d="M136,68.9H132l-0.6,1.6h-1.7l3.4-8.2h1.7l3.4,8.2h-1.7L136,68.9z M135.5,67.6l-1.5-3.5l-1.5,3.5H135.5z"/>
	<path class="st1" d="M147.4,62.2l-3.4,8.2h-1.7l-3.4-8.2h1.7l2.6,6.3l2.6-6.3H147.4z"/>
	<path class="st1" d="M148.9,62.2h1.5v8.2h-1.5V62.2z"/>
	<path class="st1" d="M157.6,70c-0.7-0.4-1.2-0.9-1.6-1.6c-0.4-0.7-0.6-1.4-0.6-2.1s0.2-1.5,0.6-2.1c0.4-0.7,0.9-1.2,1.6-1.6
		c0.7-0.4,1.4-0.6,2.1-0.6c0.6,0,1.2,0.1,1.7,0.4c0.5,0.2,1,0.6,1.4,1l-1.1,1c-0.3-0.3-0.6-0.5-0.9-0.7c-0.4-0.2-0.7-0.3-1.1-0.3
		c-0.5,0-1,0.1-1.4,0.4c-0.4,0.3-0.8,0.6-1,1.1c-0.3,0.4-0.4,0.9-0.4,1.4c0,0.5,0.1,1,0.4,1.4c0.3,0.4,0.6,0.8,1,1.1
		c0.4,0.3,0.9,0.4,1.4,0.4c0.4,0,0.8-0.1,1.1-0.3c0.4-0.2,0.7-0.4,0.9-0.7l1.1,1c-0.4,0.4-0.9,0.8-1.4,1c-0.5,0.2-1.1,0.4-1.7,0.4
		C159,70.6,158.2,70.4,157.6,70z"/>
	<path class="st1" d="M166,70c-0.7-0.4-1.2-0.9-1.6-1.6c-0.4-0.7-0.6-1.4-0.6-2.1s0.2-1.5,0.6-2.1c0.4-0.7,0.9-1.2,1.6-1.6
		c0.7-0.4,1.4-0.6,2.1-0.6c0.8,0,1.5,0.2,2.1,0.6c0.7,0.4,1.2,0.9,1.6,1.6c0.4,0.7,0.6,1.4,0.6,2.1s-0.2,1.5-0.6,2.1
		c-0.4,0.7-0.9,1.2-1.6,1.6c-0.7,0.4-1.4,0.6-2.1,0.6C167.4,70.6,166.7,70.4,166,70z M169.6,68.8c0.4-0.3,0.8-0.6,1-1.1
		c0.3-0.4,0.4-0.9,0.4-1.4c0-0.5-0.1-1-0.4-1.4c-0.3-0.4-0.6-0.8-1-1.1c-0.4-0.3-0.9-0.4-1.4-0.4s-1,0.1-1.4,0.4
		c-0.4,0.3-0.8,0.6-1,1.1c-0.3,0.4-0.4,0.9-0.4,1.4c0,0.5,0.1,1,0.4,1.4c0.3,0.4,0.6,0.8,1,1.1c0.4,0.3,0.9,0.4,1.4,0.4
		S169.1,69.1,169.6,68.8z"/>
	<path class="st1" d="M174.2,62.2h1.5l4.4,5.8v-5.8h1.5v8.2h-1.5l-4.4-5.8v5.8h-1.5V62.2z"/>
	<path class="st1" d="M185.7,63.5h-2.6v-1.4h6.8v1.4h-2.6v6.9h-1.5V63.5z"/>
	<path class="st1" d="M197.4,66.6c-0.4,0.5-0.9,0.8-1.6,0.9l2,2.9h-1.7l-1.9-2.8h-1.3v2.8h-1.5v-8.2h3.6c0.6,0,1.1,0.1,1.6,0.3
		c0.5,0.2,0.8,0.6,1.1,1c0.3,0.4,0.4,0.9,0.4,1.4C198,65.6,197.8,66.1,197.4,66.6z M192.8,66.3h1.9c0.5,0,0.9-0.1,1.3-0.4
		c0.3-0.2,0.5-0.6,0.5-1s-0.2-0.7-0.5-1c-0.3-0.2-0.7-0.4-1.3-0.4h-1.9V66.3z"/>
	<path class="st1" d="M201.4,70c-0.7-0.4-1.2-0.9-1.6-1.6c-0.4-0.7-0.6-1.4-0.6-2.1s0.2-1.5,0.6-2.1c0.4-0.7,0.9-1.2,1.6-1.6
		c0.7-0.4,1.4-0.6,2.1-0.6c0.8,0,1.5,0.2,2.1,0.6c0.7,0.4,1.2,0.9,1.6,1.6c0.4,0.7,0.6,1.4,0.6,2.1s-0.2,1.5-0.6,2.1
		c-0.4,0.7-0.9,1.2-1.6,1.6c-0.7,0.4-1.4,0.6-2.1,0.6C202.7,70.6,202,70.4,201.4,70z M204.9,68.8c0.4-0.3,0.8-0.6,1-1.1
		c0.3-0.4,0.4-0.9,0.4-1.4c0-0.5-0.1-1-0.4-1.4c-0.3-0.4-0.6-0.8-1-1.1c-0.4-0.3-0.9-0.4-1.4-0.4s-1,0.1-1.4,0.4
		c-0.4,0.3-0.8,0.6-1,1.1c-0.3,0.4-0.4,0.9-0.4,1.4c0,0.5,0.1,1,0.4,1.4c0.3,0.4,0.6,0.8,1,1.1c0.4,0.3,0.9,0.4,1.4,0.4
		S204.5,69.1,204.9,68.8z"/>
	<path class="st1" d="M215.3,69.1v1.4h-5.7v-8.2h1.5v6.9H215.3z"/>
	<path class="st1" d="M222.5,69.1v1.4h-5.7v-8.2h1.5v6.9H222.5z"/>
	<path class="st1" d="M225.5,63.5v2h4.2v1.4h-4.2v2.1h4.7v1.4H224v-8.2h6.2v1.4H225.5z"/>
	<path class="st1" d="M238.1,66.6c-0.4,0.5-0.9,0.8-1.6,0.9l2,2.9h-1.7l-1.9-2.8h-1.3v2.8H232v-8.2h3.6c0.6,0,1.1,0.1,1.6,0.3
		c0.5,0.2,0.8,0.6,1.1,1c0.3,0.4,0.4,0.9,0.4,1.4C238.7,65.6,238.5,66.1,238.1,66.6z M233.5,66.3h1.9c0.5,0,0.9-0.1,1.3-0.4
		c0.3-0.2,0.5-0.6,0.5-1s-0.2-0.7-0.5-1c-0.3-0.2-0.7-0.4-1.3-0.4h-1.9V66.3z"/>
</g>
<g class="st14">
	<path class="st1" d="M366.7,89.7h-3.9l-0.6,1.6h-1.7l3.4-8.2h1.7l3.4,8.2h-1.7L366.7,89.7z M366.2,88.4l-1.5-3.5l-1.5,3.5H366.2z"
		/>
	<path class="st1" d="M378.2,83l-3.4,8.2h-1.7l-3.4-8.2h1.7l2.6,6.3l2.6-6.3H378.2z"/>
	<path class="st1" d="M379.6,83h1.5v8.2h-1.5V83z"/>
</g>
<g class="st14">
	<path class="st1" d="M346.5,105.4c-0.6-0.2-1.1-0.6-1.6-1l0.9-1.1c0.8,0.7,1.7,1.1,2.7,1.1c0.5,0,0.9-0.1,1.1-0.3
		c0.3-0.2,0.4-0.5,0.4-0.8c0-0.2-0.1-0.4-0.2-0.5s-0.3-0.3-0.6-0.4c-0.3-0.1-0.6-0.2-1.1-0.3c-0.6-0.2-1.2-0.3-1.6-0.5
		c-0.4-0.2-0.7-0.4-1-0.7c-0.2-0.3-0.3-0.7-0.3-1.2c0-0.5,0.1-0.9,0.4-1.3s0.6-0.7,1-0.9s1-0.3,1.5-0.3c1.2,0,2.2,0.4,3.1,1.2
		l-0.8,1.1c-0.4-0.3-0.7-0.6-1.1-0.7c-0.4-0.2-0.8-0.2-1.2-0.2s-0.7,0.1-1,0.3s-0.4,0.5-0.4,0.8c0,0.2,0.1,0.4,0.2,0.5
		c0.1,0.1,0.3,0.3,0.6,0.4c0.3,0.1,0.6,0.2,1.1,0.3c1,0.2,1.7,0.5,2.1,0.9c0.5,0.4,0.7,0.9,0.7,1.6c0,0.5-0.1,0.9-0.4,1.3
		c-0.2,0.4-0.6,0.7-1.1,0.9c-0.5,0.2-1,0.3-1.7,0.3C347.8,105.7,347.1,105.6,346.5,105.4z"/>
	<path class="st1" d="M354.8,98.7v2h4.2v1.4h-4.2v2.1h4.7v1.4h-6.2v-8.2h6.2v1.4H354.8z"/>
	<path class="st1" d="M367.3,101.8c-0.4,0.5-0.9,0.8-1.6,0.9l2,2.9H366l-1.9-2.8h-1.3v2.8h-1.5v-8.2h3.6c0.6,0,1.1,0.1,1.6,0.3
		c0.5,0.2,0.8,0.6,1.1,1s0.4,0.9,0.4,1.4C367.9,100.8,367.7,101.3,367.3,101.8z M362.8,101.5h1.9c0.5,0,0.9-0.1,1.3-0.4
		c0.3-0.2,0.5-0.6,0.5-1s-0.2-0.7-0.5-1c-0.3-0.2-0.7-0.4-1.3-0.4h-1.9V101.5z"/>
	<path class="st1" d="M377.4,97.4l-3.4,8.2h-1.7l-3.4-8.2h1.7l2.6,6.3l2.6-6.3H377.4z"/>
	<path class="st1" d="M378.8,97.4h1.5v8.2h-1.5V97.4z"/>
	<path class="st1" d="M384.2,105.2c-0.7-0.4-1.2-0.9-1.6-1.6c-0.4-0.7-0.6-1.4-0.6-2.1s0.2-1.5,0.6-2.1c0.4-0.7,0.9-1.2,1.6-1.6
		c0.7-0.4,1.4-0.6,2.1-0.6c0.6,0,1.2,0.1,1.7,0.4c0.5,0.2,1,0.6,1.4,1l-1.1,1c-0.3-0.3-0.6-0.5-0.9-0.7c-0.4-0.2-0.7-0.3-1.1-0.3
		c-0.5,0-1,0.1-1.4,0.4c-0.4,0.3-0.8,0.6-1,1.1c-0.3,0.4-0.4,0.9-0.4,1.4c0,0.5,0.1,1,0.4,1.4c0.3,0.4,0.6,0.8,1,1.1
		c0.4,0.3,0.9,0.4,1.4,0.4c0.4,0,0.8-0.1,1.1-0.3c0.4-0.2,0.7-0.4,0.9-0.7l1.1,1c-0.4,0.4-0.9,0.8-1.4,1c-0.5,0.2-1.1,0.4-1.7,0.4
		C385.6,105.8,384.9,105.6,384.2,105.2z"/>
	<path class="st1" d="M392.6,98.7v2h4.2v1.4h-4.2v2.1h4.7v1.4h-6.2v-8.2h6.2v1.4H392.6z"/>
</g>
<g class="st14">
	<path class="st1" d="M346,113.1v2h4.2v1.4H346v2.1h4.7v1.4h-6.2v-8.2h6.2v1.4H346z"/>
	<path class="st1" d="M352.5,111.8h1.5l4.4,5.8v-5.8h1.5v8.2h-1.5l-4.4-5.8v5.8h-1.5V111.8z"/>
	<path class="st1" d="M365.7,115.5h3.5v3.3c-0.4,0.4-0.9,0.7-1.5,1c-0.6,0.2-1.2,0.4-1.8,0.4c-0.8,0-1.5-0.2-2.2-0.6
		c-0.7-0.4-1.2-0.9-1.6-1.6c-0.4-0.7-0.6-1.4-0.6-2.1s0.2-1.5,0.6-2.1c0.4-0.7,0.9-1.2,1.6-1.6c0.7-0.4,1.4-0.6,2.2-0.6
		c0.6,0,1.2,0.1,1.8,0.4c0.6,0.2,1.1,0.6,1.5,1l-1.1,1c-0.3-0.3-0.6-0.5-1-0.7s-0.8-0.3-1.2-0.3c-0.5,0-1,0.1-1.4,0.4
		c-0.4,0.3-0.8,0.6-1,1.1c-0.3,0.4-0.4,0.9-0.4,1.4c0,0.5,0.1,1,0.4,1.4c0.3,0.4,0.6,0.8,1,1.1c0.4,0.3,0.9,0.4,1.4,0.4
		c0.3,0,0.6-0.1,1-0.2c0.3-0.1,0.6-0.2,0.9-0.4v-1.5h-2.1V115.5z"/>
	<path class="st1" d="M371.2,111.8h1.5v8.2h-1.5V111.8z"/>
	<path class="st1" d="M374.9,111.8h1.5l4.4,5.8v-5.8h1.5v8.2h-1.5l-4.4-5.8v5.8h-1.5V111.8z"/>
	<path class="st1" d="M386,113.1v2h4.2v1.4H386v2.1h4.7v1.4h-6.2v-8.2h6.2v1.4H386z"/>
	<path class="st1" d="M393.5,119.8c-0.6-0.2-1.1-0.6-1.6-1l0.9-1.1c0.8,0.7,1.7,1.1,2.7,1.1c0.5,0,0.9-0.1,1.1-0.3
		c0.3-0.2,0.4-0.5,0.4-0.8c0-0.2-0.1-0.4-0.2-0.5c-0.1-0.1-0.3-0.3-0.6-0.4c-0.3-0.1-0.6-0.2-1.1-0.3c-0.6-0.2-1.2-0.3-1.6-0.5
		c-0.4-0.2-0.7-0.4-1-0.7c-0.2-0.3-0.3-0.7-0.3-1.2c0-0.5,0.1-0.9,0.4-1.3s0.6-0.7,1.1-0.9c0.4-0.2,1-0.3,1.5-0.3
		c1.2,0,2.2,0.4,3.1,1.2l-0.8,1.1c-0.4-0.3-0.7-0.6-1.1-0.7c-0.4-0.2-0.8-0.2-1.2-0.2s-0.7,0.1-1,0.3s-0.4,0.5-0.4,0.8
		c0,0.2,0.1,0.4,0.2,0.5c0.1,0.1,0.3,0.3,0.6,0.4c0.3,0.1,0.6,0.2,1.1,0.3c1,0.2,1.7,0.5,2.1,0.9c0.5,0.4,0.7,0.9,0.7,1.6
		c0,0.5-0.1,0.9-0.4,1.3s-0.6,0.7-1.1,0.9c-0.5,0.2-1,0.3-1.7,0.3C394.7,120.1,394.1,120,393.5,119.8z"/>
</g>
<g class="st14">
	<path class="st1" d="M108.2,96.1c-0.4,0.5-0.9,0.8-1.6,0.9l2,2.9h-1.7l-1.9-2.8h-1.3v2.8h-1.5v-8.2h3.6c0.6,0,1.1,0.1,1.6,0.3
		c0.5,0.2,0.8,0.6,1.1,1c0.3,0.4,0.4,0.9,0.4,1.4C108.8,95,108.6,95.6,108.2,96.1z M103.6,95.7h1.9c0.5,0,0.9-0.1,1.3-0.4
		c0.3-0.2,0.5-0.6,0.5-1s-0.2-0.7-0.5-1c-0.3-0.2-0.7-0.4-1.3-0.4h-1.9V95.7z"/>
	<path class="st1" d="M112.1,93v2h4.2v1.4h-4.2v2.1h4.7v1.4h-6.2v-8.2h6.2V93H112.1z"/>
	<path class="st1" d="M119.5,99.7c-0.6-0.2-1.1-0.6-1.6-1l0.9-1.1c0.8,0.7,1.7,1.1,2.7,1.1c0.5,0,0.9-0.1,1.1-0.3s0.4-0.5,0.4-0.8
		c0-0.2-0.1-0.4-0.2-0.5s-0.3-0.3-0.6-0.4c-0.3-0.1-0.6-0.2-1.1-0.3c-0.6-0.2-1.2-0.3-1.6-0.5c-0.4-0.2-0.7-0.4-1-0.7
		c-0.2-0.3-0.3-0.7-0.3-1.2c0-0.5,0.1-0.9,0.4-1.3s0.6-0.7,1-0.9s1-0.3,1.5-0.3c1.2,0,2.2,0.4,3.1,1.2l-0.8,1.1
		c-0.4-0.3-0.7-0.6-1.1-0.7c-0.4-0.2-0.8-0.2-1.2-0.2s-0.7,0.1-1,0.3c-0.3,0.2-0.4,0.5-0.4,0.8c0,0.2,0.1,0.4,0.2,0.5
		c0.1,0.1,0.3,0.3,0.6,0.4c0.3,0.1,0.6,0.2,1.1,0.3c1,0.2,1.7,0.5,2.1,0.9c0.5,0.4,0.7,0.9,0.7,1.6c0,0.5-0.1,0.9-0.4,1.3
		c-0.2,0.4-0.6,0.7-1.1,0.9c-0.5,0.2-1,0.3-1.7,0.3C120.7,100,120.1,99.9,119.5,99.7z"/>
	<path class="st1" d="M128.1,93h-2.6v-1.4h6.8V93h-2.6v6.9h-1.5V93z"/>
</g>
<g class="st14">
	<path class="st1" d="M112.8,112.7h-3.9l-0.6,1.6h-1.7l3.4-8.2h1.7l3.4,8.2h-1.7L112.8,112.7z M112.3,111.5l-1.5-3.5l-1.5,3.5H112.3
		z"/>
	<path class="st1" d="M116.5,106h3.6c0.6,0,1.1,0.1,1.6,0.3c0.5,0.2,0.8,0.6,1.1,1c0.3,0.4,0.4,0.9,0.4,1.4c0,0.5-0.1,1-0.4,1.4
		c-0.3,0.4-0.6,0.7-1.1,1c-0.5,0.2-1,0.3-1.6,0.3H118v2.8h-1.5V106z M119.9,110.1c0.5,0,0.9-0.1,1.3-0.4c0.3-0.2,0.5-0.6,0.5-1
		s-0.2-0.7-0.5-1c-0.3-0.2-0.7-0.4-1.3-0.4H118v2.7H119.9z"/>
	<path class="st1" d="M124.8,106h1.5v8.2h-1.5V106z"/>
</g>
<g>
	<polygon class="st15" points="308,164.9 308.8,164.9 310.4,169.7 312,164.9 312.7,164.9 314.2,169.7 315.8,164.9 316.6,164.9 
		314.6,170.8 314,170.8 312.3,165.8 310.7,170.8 310,170.8 	"/>
	<polygon class="st15" points="319,165.6 319,167.5 322.1,167.5 322.1,168.2 319,168.2 319,170.2 322.5,170.2 322.5,170.8 
		318.4,170.8 318.4,164.9 322.5,164.9 322.5,165.6 	"/>
	<path class="st15" d="M327.2,170.2c0.3,0,0.6-0.1,0.9-0.3c0.2-0.2,0.3-0.5,0.3-0.8s-0.1-0.6-0.3-0.8c-0.2-0.2-0.5-0.3-0.9-0.3h-1.9
		v2.2L327.2,170.2L327.2,170.2z M327,167.4c0.3,0,0.6-0.1,0.8-0.3c0.2-0.2,0.3-0.4,0.3-0.7s-0.1-0.5-0.3-0.7
		c-0.2-0.2-0.5-0.3-0.8-0.3h-1.8v1.9h1.8V167.4z M324.6,164.9h2.6c0.3,0,0.6,0.1,0.8,0.2c0.2,0.1,0.4,0.3,0.6,0.5
		c0.1,0.2,0.2,0.5,0.2,0.8s-0.1,0.5-0.2,0.7s-0.3,0.4-0.6,0.6c0.3,0.2,0.6,0.4,0.8,0.7c0.2,0.3,0.3,0.6,0.3,0.9
		c0,0.3-0.1,0.6-0.2,0.8s-0.3,0.4-0.6,0.6c-0.3,0.1-0.6,0.2-0.9,0.2h-2.7L324.6,164.9L324.6,164.9z"/>
	<path class="st16" d="M330.7,154.6H307c-1.2,0-2.2,0.9-2.2,2.2v23.7c0,1.2,0.9,2.2,2.2,2.2h23.7c1.2,0,2.2-0.9,2.2-2.2v-23.8
		C332.8,155.5,331.9,154.6,330.7,154.6z M330.7,155.3c0.8,0,1.4,0.6,1.4,1.4v23.7c0,0.8-0.6,1.4-1.4,1.4H307c-0.8,0-1.4-0.6-1.4-1.4
		v-23.8c0-0.8,0.6-1.4,1.4-1.4L330.7,155.3"/>
</g>
<path class="st15" d="M299.2,202.9l-1.3-3.1l-1.4,3.1H299.2z M299.4,203.5h-3.3l-0.6,1.3h-0.7l2.6-5.9h0.7l2.6,5.9H300L299.4,203.5z
	"/>
<path class="st15" d="M304.5,202.1c0.9,0,1.6-0.5,1.6-1.3s-0.6-1.3-1.6-1.3h-1.6v2.5h1.6V202.1z M302.2,198.9h2.3
	c1.2,0,2.1,0.8,2.1,1.9c0,1.1-0.9,1.9-2.1,1.9h-1.7v2.1h-0.6L302.2,198.9L302.2,198.9z"/>
<path class="st15" d="M310.4,202.1c0.9,0,1.6-0.5,1.6-1.3s-0.6-1.3-1.6-1.3h-1.6v2.5h1.6V202.1z M308.2,198.9h2.3
	c1.2,0,2.1,0.8,2.1,1.9c0,1.1-0.9,1.9-2.1,1.9h-1.7v2.1h-0.6L308.2,198.9L308.2,198.9z"/>
<path class="st16" d="M315.8,188.3h-23.5c-1.2,0-2.1,1-2.1,2.1v23.8c0,1.2,0.9,2.1,2.1,2.1h23.5c1.2,0,2.1-1,2.1-2.1v-23.8
	C317.9,189.3,316.9,188.3,315.8,188.3z M315.8,189c0.8,0,1.4,0.6,1.4,1.4v23.8c0,0.8-0.6,1.4-1.4,1.4h-23.5c-0.8,0-1.4-0.6-1.4-1.4
	v-23.8c0-0.8,0.6-1.4,1.4-1.4H315.8"/>
<path class="st16" d="M337.8,194.2c-6.3,0-10.2-1.3-10.2-2.2s3.9-2.2,10.2-2.2c6.3,0,10.2,1.3,10.2,2.2S344.1,194.2,337.8,194.2z
	 M348.7,192c0-1.9-5.5-2.9-10.9-2.9s-10.9,1-10.9,2.9s5.5,2.9,10.9,2.9c4.2,0,8.5-0.6,10.2-1.8v5.1c0,0.1-0.1,0.1-0.1,0.2
	c0,0.9-3.9,2.2-10.2,2.2c-6.3,0-10.2-1.3-10.2-2.2v-3.5c0-0.2-0.2-0.4-0.4-0.4c-0.2,0-0.4,0.2-0.4,0.4v3.5c0,1.9,5.5,2.9,10.9,2.9
	c4.3,0,8.6-0.6,10.2-1.9v5.4c0,0.1-0.1,0.1-0.1,0.2c0,0.9-3.9,2.2-10.2,2.2c-6.3,0-10.2-1.3-10.2-2.2v-3.4c0-0.2-0.2-0.4-0.4-0.4
	c-0.2,0-0.4,0.2-0.4,0.4v3.4c0,1.9,5.5,2.9,10.9,2.9c4.3,0,8.6-0.6,10.2-1.9v5.4c0,0.1-0.1,0.1-0.1,0.2c0,0.9-3.9,2.2-10.2,2.2
	c-6.3,0-10.2-1.3-10.2-2.2v-3.4c0-0.2-0.2-0.4-0.4-0.4c-0.2,0-0.4,0.2-0.4,0.4v3.4c0,1.9,5.5,2.9,10.9,2.9c5.2,0,10.5-0.9,10.9-2.7
	h0.1V192l0,0C348.6,192.1,348.7,192.1,348.7,192z"/>
<g>
	<path class="st17" d="M56.1,132.1H36.4c-0.6,0-1-0.4-1.2-0.9c-0.2-0.6,0.1-1.2,0.5-1.5c1-0.7,3.6-1.8,4.7-2.2l1.1-8.4l1.6,0.2
		l-1.2,9.4l-0.4,0.2c-0.8,0.3-2.5,1-3.7,1.6h17.1c-1.2-0.6-3-1.3-3.7-1.6l-0.4-0.2l-0.9-9.4l1.6-0.1l0.8,8.4
		c1.1,0.5,3.7,1.5,4.7,2.2c0.4,0.3,0.6,0.9,0.5,1.5C57.1,131.7,56.6,132.1,56.1,132.1z"/>
	<path class="st17" d="M73.7,80.9H18.4c-1.7,0-3.1,1.2-3.1,2.7v31.3c0,1.5,1.4,2.7,3.1,2.7h55.5c1.8,0,3.2-1.3,3.2-2.9V83.8
		C77.2,82.2,75.7,80.9,73.7,80.9z M73.7,82.5c0.9,0,1.7,0.6,1.7,1.3v30.9c0,0.7-0.7,1.2-1.6,1.2H18.5c-0.8,0-1.4-0.5-1.4-1.1V83.5
		c0-0.6,0.7-1.1,1.4-1.1L73.7,82.5"/>
	<rect x="20.6" y="111" class="st17" width="49.9" height="1.3"/>
	<path class="st17" d="M32.2,108.4c-3,0-5.9-1.2-8.2-3.5c-4.5-4.6-4.5-12.1,0-16.7s11.8-4.6,16.3,0l-1.2,1.2c-3.8-3.9-10.2-3.9-14,0
		s-3.8,10.4,0,14.4c3.8,3.9,10.2,3.9,14,0l1.2,1.2C38.1,107.4,35.2,108.4,32.2,108.4z"/>
	<path class="st18" d="M32.8,96.6l6.6,6.7c3.2-3.9,3.2-9.5,0-13.4L32.8,96.6z M39.4,105.9l-9-9.2l9-9.2L40,88
		c2.2,2.3,3.5,5.3,3.5,8.6c0,3.2-1.2,6.3-3.5,8.6L39.4,105.9z"/>
	<rect x="61.3" y="92.8" class="st17" width="3.9" height="1.3"/>
	<path class="st17" d="M60.6,94h-3.9c-0.4,0-0.7-0.3-0.7-0.7c0-0.3,0.4-0.7,0.7-0.7h3.9c0.4,0,0.7,0.3,0.7,0.7
		C61.3,93.6,61,94,60.6,94z"/>
	<rect x="60" y="100.5" class="st17" width="1.3" height="1.3"/>
	<path class="st17" d="M60.6,101.9h-3.8c-0.4,0-0.7-0.3-0.7-0.7c0-0.3,0.4-0.7,0.7-0.7h3.8c0.4,0,0.7,0.3,0.7,0.7
		C61.3,101.5,61,101.9,60.6,101.9z"/>
	<rect x="67.9" y="100.5" class="st17" width="1.3" height="1.3"/>
	<path class="st17" d="M69.8,101.9h-1.2c-0.4,0-0.7-0.3-0.7-0.7c0-0.3,0.4-0.7,0.7-0.7h1.2c0.4,0,0.7,0.3,0.7,0.7
		C70.5,101.5,70.2,101.9,69.8,101.9z"/>
	<path class="st18" d="M70.5,93.4c0,1.1-0.9,2-2,2s-2-0.9-2-2s0.9-2,2-2C69.7,91.4,70.5,92.2,70.5,93.4z"/>
	<path class="st18" d="M66.6,101.2c0,1.1-0.9,2-2,2s-2-0.9-2-2s0.9-2,2-2C65.7,99.2,66.6,100.1,66.6,101.2z"/>
</g>
</svg>
