<svg width="142" height="142" viewBox="0 0 142 142" fill="none" xmlns="http://www.w3.org/2000/svg">
<rect width="142" height="142" fill="white"/>
<path d="M71.213 92.7538C66.7363 92.7538 62.3601 91.4141 58.6378 88.904C54.9156 86.394 52.0145 82.8264 50.3013 78.6524C48.5882 74.4784 48.1399 69.8854 49.0133 65.4542C49.8867 61.0231 52.0424 56.9529 55.2079 53.7582C58.3734 50.5636 62.4065 48.388 66.7972 47.5066C71.1879 46.6252 75.7389 47.0775 79.8748 48.8065C84.0108 50.5354 87.5458 53.4633 90.0329 57.2198C92.52 60.9763 93.8476 65.3928 93.8476 69.9107C93.8379 75.9661 91.4501 81.7706 87.2074 86.0524C82.9646 90.3342 77.2131 92.744 71.213 92.7538V92.7538ZM71.213 49.6536C67.2334 49.6536 63.3432 50.8446 60.0343 53.0759C56.7254 55.3072 54.1465 58.4786 52.6236 62.1891C51.1007 65.8996 50.7022 69.9825 51.4786 73.9215C52.255 77.8606 54.1713 81.4788 56.9853 84.3187C59.7993 87.1586 63.3845 89.0926 67.2876 89.8761C71.1907 90.6596 75.2363 90.2575 78.9129 88.7206C82.5895 87.1836 85.7321 84.5809 87.943 81.2416C90.1539 77.9022 91.334 73.9762 91.334 69.96C91.3308 64.5708 89.2114 59.4027 85.4401 55.5874C81.6687 51.7721 76.5529 49.6207 71.213 49.6044V49.6536Z" fill="#1D428A"/>
<path d="M78.3632 79.9594C78.1915 79.9696 78.0198 79.938 77.8627 79.8673C77.7055 79.7966 77.5675 79.6888 77.4603 79.553L68.9189 70.6251V61.3771C68.9189 61.0505 69.0475 60.7372 69.2763 60.5063C69.5051 60.2754 69.8155 60.1456 70.1391 60.1456C70.4562 60.166 70.7549 60.3022 70.9795 60.5289C71.2042 60.7556 71.3392 61.0571 71.3593 61.3771V69.603L79.2052 77.829C79.331 77.9444 79.4315 78.0851 79.5003 78.242C79.5691 78.399 79.6047 78.5687 79.6047 78.7403C79.6047 78.9119 79.5691 79.0816 79.5003 79.2385C79.4315 79.3954 79.331 79.5361 79.2052 79.6515C78.9532 79.8211 78.6644 79.9267 78.3632 79.9594V79.9594Z" fill="#0091DA"/>
<path d="M72.6283 102.901L72.5307 100.364C73.3474 100.349 74.1624 100.283 74.9711 100.167L75.2761 102.704C74.3979 102.82 73.5139 102.886 72.6283 102.901V102.901ZM67.3937 102.704C66.5166 102.617 65.6449 102.481 64.7825 102.297L65.2827 99.7607C66.0887 99.9388 66.9032 100.074 67.7231 100.167L67.3937 102.704ZM80.3765 101.583L79.6688 99.1203C80.4579 98.8991 81.2322 98.6277 81.9872 98.3076L82.8901 100.647C82.0888 101.051 81.2459 101.365 80.3765 101.583ZM59.6332 100.77C58.8029 100.477 57.9884 100.14 57.1929 99.7607L58.3032 97.4209C59.0203 97.7699 59.7579 98.0742 60.5118 98.3322L59.6332 100.77ZM87.6001 98.5415L86.2945 96.3003C87.0011 95.9191 87.6746 95.4783 88.3078 94.9827L89.711 97.1131C89.1254 97.5195 88.4176 98.0367 87.6123 98.5415H87.6001ZM52.6903 97.1131C51.9948 96.6082 51.2871 96.1033 50.5794 95.4876L52.1901 93.5666C52.8002 94.0714 53.4957 94.5763 54.1058 94.9827L52.6903 97.1131ZM93.9451 93.6651L92.127 91.8426L93.8353 90.1185L95.751 91.8426L93.9451 93.6651ZM46.7724 91.8426L45.0641 89.8107L47.0775 88.2714C47.5778 88.8871 48.078 89.589 48.5783 90.2047L46.7724 91.8426ZM98.8869 87.5695L96.7638 86.2518L97.984 84.1215L100.205 85.3529C99.7898 86.0548 99.3872 86.7567 98.8869 87.5695ZM42.3431 85.3406C41.931 84.5414 41.5644 83.7191 41.245 82.8777L43.5511 81.8679C43.8562 82.5699 44.2588 83.3826 44.5639 84.0968L42.3431 85.3406ZM102.303 80.4149L99.863 79.6021C100.143 78.8366 100.38 78.0554 100.571 77.2624L103.011 77.8781C102.804 78.6416 102.499 79.5529 102.303 80.3656V80.4149ZM39.5245 77.952C39.3018 77.0853 39.1346 76.2051 39.0242 75.3167L41.5378 74.9103C41.6627 75.7394 41.8297 76.5614 42.0381 77.3732L39.5245 77.952ZM103.841 72.546L101.315 72.349C101.408 71.5315 101.444 70.7086 101.425 69.8861V69.7999H103.938V69.8984C103.957 70.7821 103.924 71.6661 103.841 72.546V72.546ZM38.5483 70.0092C38.5302 69.1297 38.5628 68.2497 38.6459 67.374L41.1595 67.571C41.0773 68.3892 41.0447 69.2117 41.0619 70.0339L38.5483 70.0092ZM101.022 64.9357C100.897 64.1067 100.73 63.2846 100.522 62.4729L102.962 61.8695C103.189 62.7358 103.36 63.6161 103.475 64.5047L101.022 64.9357ZM41.9649 62.7068L39.5245 62.0911C39.715 61.2333 39.9512 60.3865 40.2322 59.5544L42.6726 60.3671C42.3704 61.1273 42.1257 61.9094 41.9404 62.7068H41.9649ZM98.9601 57.9289C98.655 57.2147 98.2524 56.4019 97.9474 55.7L100.168 54.4686C100.58 55.2678 100.947 56.0901 101.266 56.9314L98.9601 57.9289ZM44.4296 55.7985L42.2211 54.5671C42.6238 53.7543 43.0264 53.0401 43.5267 52.2274L45.6376 53.5573C45.2716 54.37 44.8567 55.0843 44.454 55.7985H44.4296ZM95.3361 51.5377C94.8358 50.922 94.3356 50.2078 93.8231 49.6044L95.7388 47.8804C96.3367 48.4838 96.8492 49.198 97.4471 49.9123L95.3361 51.5377ZM48.5539 49.8014L46.6504 48.0774C47.2483 47.474 47.8706 46.7598 48.4563 46.1564L50.1646 47.9789C49.6696 48.6156 49.14 49.224 48.5783 49.8014H48.5539ZM90.2113 46.2549C89.6012 45.75 88.8935 45.2328 88.2956 44.8264L89.7232 42.7084C90.4309 43.2256 91.1387 43.7305 91.8342 44.3339L90.2113 46.2549ZM53.996 44.9373L52.5927 42.8069C53.3076 42.2917 54.0489 41.8148 54.8135 41.3784L56.1191 43.6196C55.3966 44.0205 54.696 44.4604 54.0204 44.9373H53.996ZM84.0737 42.4005C83.3592 42.0516 82.626 41.7433 81.8774 41.4769L82.7803 39.1495C83.6106 39.443 84.4252 39.7801 85.2207 40.1593L84.0737 42.4005ZM60.4508 41.4769L59.5479 39.1495C60.364 38.8144 61.2043 38.5427 62.0615 38.3368L62.7692 40.7997C61.9731 40.9345 61.1951 41.1617 60.4508 41.4769ZM77.1552 40.0608C76.3505 39.8765 75.5356 39.7408 74.7149 39.6544L75.0199 37.1177C75.8978 37.1989 76.7698 37.3346 77.6311 37.524L77.1552 40.0608ZM67.4913 39.6544L67.2351 37.1177C68.1009 36.999 68.9727 36.9291 69.8463 36.9083L69.9439 39.4574C69.1311 39.5734 68.312 39.6392 67.4913 39.6544Z" fill="#0091DA"/>
<path d="M113.273 83.7152C113.115 83.654 112.946 83.6266 112.777 83.6349C112.607 83.6433 112.442 83.687 112.29 83.7635C112.139 83.8399 112.005 83.9474 111.897 84.079C111.789 84.2106 111.709 84.3635 111.662 84.5279C108.42 93.712 102.193 101.518 93.9948 106.676C85.7966 111.833 76.11 114.039 66.5117 112.933C56.9134 111.827 47.9686 107.475 41.1331 100.586C34.2977 93.6959 29.9741 84.6742 28.8662 74.9889C27.7582 65.3037 29.9312 55.525 35.0313 47.2448C40.1314 38.9645 47.8584 32.6702 56.9545 29.3863C66.0506 26.1023 75.9804 26.0222 85.1274 29.1589C94.2744 32.2956 102.1 38.4645 107.331 46.6614L102.621 48.1884L106.843 52.1413L111.065 56.1065L112.382 50.4172L113.7 44.728L109.869 45.9595C104.445 37.1835 96.231 30.5252 86.5699 27.0739C76.9089 23.6226 66.3732 23.5828 56.6867 26.9609C47.0003 30.339 38.7368 36.935 33.2483 45.6697C27.7598 54.4043 25.3714 64.7603 26.4739 75.0432C27.5763 85.326 32.1044 94.9268 39.3171 102.274C46.5298 109.622 56.0001 114.282 66.1783 115.491C76.3565 116.7 86.6399 114.386 95.3459 108.929C104.052 103.473 110.665 95.1951 114.103 85.4515C114.166 85.2828 114.194 85.103 114.187 84.9229C114.179 84.7427 114.135 84.5661 114.057 84.4037C113.979 84.2413 113.87 84.0965 113.735 83.9782C113.6 83.8598 113.443 83.7703 113.273 83.7152V83.7152Z" fill="#1D428A"/>
</svg>
