<svg width="142" height="142" viewBox="0 0 142 142" fill="none" xmlns="http://www.w3.org/2000/svg">
<g clip-path="url(#clip0_64_1479)">
<g clip-path="url(#clip1_64_1479)">
<path d="M21.0796 77.895H22.6414C23.5565 76.7022 24.6143 75.6254 25.7911 74.6884H20.0643C16.5502 74.5586 13.1662 71.1832 13.2963 67.8078C13.3467 66.1831 14.025 64.6407 15.1894 63.5034C16.3539 62.3662 17.9141 61.7222 19.5437 61.7062H19.6739C20.2032 61.729 20.7277 61.8162 21.2357 61.9658L24.6197 62.8746L25.4007 59.4992C25.8134 57.5512 26.8733 55.7992 28.4087 54.5269C29.9441 53.2545 31.8651 52.5364 33.8607 52.4888H34.121C35.3372 52.4719 36.5406 52.7387 37.6352 53.2678L40.7589 54.8256L42.0604 51.5801C42.7452 49.4811 44.0627 47.6441 45.833 46.3198C47.6033 44.9954 49.7403 44.2482 51.9521 44.1802H52.2124C57.6789 44.31 62.1042 48.9836 62.7549 55.0853L62.8851 55.994C63.7381 54.9067 64.6973 53.9064 65.7485 53.0081C64.3168 46.2574 58.9805 41.1943 52.3426 41.0645H51.9521C46.0952 41.0645 41.1493 44.9591 38.9367 50.5415C37.4531 49.7607 35.7984 49.3592 34.121 49.3731H33.8607C31.1154 49.376 28.4543 50.3187 26.3222 52.0437C24.1901 53.7687 22.7161 56.1713 22.1468 58.8501C21.3777 58.6573 20.5942 58.5271 19.804 58.4606H19.5437C17.0483 58.4671 14.655 59.4499 12.8783 61.1978C11.1016 62.9456 10.0834 65.3191 10.0425 67.8078C10.0937 70.4455 11.1408 72.9669 12.9746 74.8681C14.8083 76.7694 17.2937 77.9106 19.9342 78.0638C20.3007 77.931 20.6903 77.8736 21.0796 77.895V77.895Z" fill="#0091DA"/>
<path d="M126.01 63.8742C125.359 57.3831 120.543 52.32 114.426 52.0604H114.166C111.718 52.1129 109.345 52.9126 107.367 54.3518C105.389 55.791 103.9 57.8004 103.103 60.1093C101.88 59.5347 100.549 59.225 99.198 59.2006C99.8259 60.3184 100.349 61.4918 100.76 62.7058C101.02 62.8356 101.411 62.8356 101.671 62.9654L104.795 64.5233L106.096 61.2777C106.665 59.6017 107.726 58.1355 109.142 57.0702C110.559 56.0049 112.264 55.3901 114.036 55.3059H114.296C118.591 55.4357 122.235 59.2006 122.756 64.1338L123.016 66.8601L125.749 67.1197C128.483 67.3794 130.565 70.2354 130.435 73.7406C130.305 77.2458 128.092 80.1019 125.229 80.1019H113.905C114.152 81.1708 114.326 82.2551 114.426 83.3475H125.229C129.784 83.3475 133.559 79.0633 133.689 73.7406C133.819 68.4179 130.279 64.3026 126.01 63.8742Z" fill="#0091DA"/>
<path d="M79.9091 53.9169H80.2996C88.239 54.0467 94.8769 60.9273 95.6578 69.885L95.9181 72.6112L98.6513 72.8709C103.988 73.3902 108.153 78.9725 107.892 85.4636C107.762 92.2144 103.207 97.6669 97.7403 97.6669H95.9181C91.623 97.6669 79.1282 97.6669 67.0239 97.7967C54.9195 97.9265 42.2946 97.9265 37.9995 97.9265H36.5678C31.1013 97.7967 26.1555 92.6038 26.2856 87.411C26.3494 84.8952 27.3887 82.502 29.1848 80.7347C30.981 78.9673 33.3942 77.9634 35.917 77.9339H36.1773C36.9751 77.9258 37.7681 78.0577 38.5201 78.3234L41.9041 79.2322L42.6851 75.8568C43.3162 72.94 44.9222 70.3236 47.2397 68.4366C49.5572 66.5496 52.4487 65.5039 55.4402 65.471H55.7005C57.5126 65.5008 59.2937 65.9449 60.9066 66.7693L64.0303 68.3271L65.3319 65.0816C67.8048 58.0712 73.5316 53.9169 79.9091 53.9169V53.9169ZM79.9091 50.6713C71.9697 50.6713 65.2017 55.994 62.2082 63.5237C60.1376 62.5231 57.871 61.9911 55.5703 61.9658H55.1799C51.4359 61.9629 47.8068 63.2552 44.9113 65.6226C42.0157 67.9899 40.033 71.2857 39.301 74.948C38.237 74.6829 37.1439 74.5521 36.0472 74.5586H35.7869C32.4121 74.5512 29.1697 75.8674 26.7591 78.2232C24.3486 80.5791 22.9631 83.7857 22.9016 87.1513C22.9945 90.7399 24.4389 94.1619 26.9473 96.736C29.4557 99.3102 32.844 100.848 36.4376 101.042H37.9995C46.5897 101.042 87.4581 100.912 95.9181 100.912H97.6101C104.899 100.912 110.886 94.0319 111.016 85.5934C111.146 77.155 105.81 70.2744 98.7815 69.6253C97.8704 59.2396 89.931 51.0608 80.1695 50.8011C80.1695 50.6713 80.0393 50.6713 79.9091 50.6713V50.6713Z" fill="#1D428A"/>
</g>
</g>
<defs>
<clipPath id="clip0_64_1479">
<rect width="142" height="142" fill="white"/>
</clipPath>
<clipPath id="clip1_64_1479">
<rect width="134" height="65" fill="white" transform="translate(10 36)"/>
</clipPath>
</defs>
</svg>
