<svg width="341" height="122" viewBox="0 0 341 122" fill="none" xmlns="http://www.w3.org/2000/svg">
<path d="M193.36 106.21C192.981 105.989 192.665 105.676 192.44 105.3C192.212 104.926 192.091 104.498 192.09 104.06C192.09 103.622 192.211 103.193 192.44 102.82C192.665 102.444 192.981 102.131 193.36 101.91C193.74 101.69 194.171 101.573 194.61 101.57C194.954 101.567 195.296 101.638 195.61 101.78C195.922 101.913 196.204 102.107 196.44 102.35L195.82 102.93C195.672 102.755 195.488 102.615 195.28 102.52C195.074 102.421 194.848 102.37 194.62 102.37C194.337 102.372 194.06 102.451 193.82 102.6C193.572 102.754 193.366 102.967 193.22 103.22C193.069 103.474 192.99 103.765 192.99 104.06C192.99 104.356 193.069 104.646 193.22 104.9C193.363 105.155 193.57 105.368 193.82 105.52C194.059 105.673 194.337 105.753 194.62 105.75C194.847 105.749 195.072 105.701 195.28 105.61C195.49 105.509 195.677 105.366 195.83 105.19L196.44 105.77C196.21 106.016 195.931 106.21 195.62 106.34C195.261 106.498 194.87 106.568 194.479 106.545C194.088 106.523 193.708 106.408 193.37 106.21H193.36Z" fill="#495565"/>
<path d="M198 106.3C197.708 106.13 197.464 105.89 197.29 105.6C197.112 105.315 197.019 104.986 197.02 104.65C197.018 104.317 197.112 103.991 197.29 103.71C197.458 103.413 197.703 103.168 198 103C198.295 102.83 198.629 102.74 198.97 102.74C199.311 102.74 199.645 102.83 199.94 103C200.231 103.163 200.473 103.401 200.64 103.69C200.815 103.972 200.905 104.298 200.9 104.63C200.905 104.965 200.815 105.294 200.64 105.58C200.469 105.868 200.228 106.109 199.94 106.28C199.643 106.445 199.309 106.531 198.97 106.531C198.631 106.531 198.297 106.445 198 106.28V106.3ZM199.52 105.67C199.685 105.56 199.822 105.413 199.92 105.24C200.02 105.06 200.072 104.856 200.07 104.65C200.071 104.447 200.02 104.247 199.92 104.07C199.825 103.898 199.687 103.754 199.52 103.65C199.357 103.542 199.166 103.485 198.97 103.485C198.775 103.485 198.583 103.542 198.42 103.65C198.25 103.753 198.109 103.898 198.01 104.07C197.911 104.247 197.859 104.447 197.86 104.65C197.862 104.85 197.914 105.047 198.012 105.222C198.11 105.397 198.25 105.544 198.42 105.65C198.587 105.749 198.777 105.801 198.97 105.801C199.164 105.801 199.354 105.749 199.52 105.65V105.67Z" fill="#495565"/>
<path d="M204.41 102.94C204.61 103.062 204.776 103.235 204.89 103.44C205.005 103.662 205.063 103.91 205.06 104.16V106.47H204.23V104.33C204.241 104.11 204.166 103.895 204.02 103.73C203.951 103.652 203.867 103.591 203.772 103.549C203.677 103.508 203.574 103.487 203.47 103.49C203.239 103.485 203.014 103.567 202.84 103.72C202.76 103.789 202.696 103.875 202.652 103.972C202.609 104.069 202.588 104.174 202.59 104.28V106.47H201.73V102.85H202.59V103.34C202.703 103.161 202.862 103.016 203.05 102.92C203.254 102.816 203.48 102.761 203.71 102.76C203.955 102.757 204.197 102.819 204.41 102.94Z" fill="#495565"/>
<path d="M208.05 106.26C207.945 106.353 207.823 106.424 207.69 106.47C207.559 106.522 207.42 106.549 207.28 106.55C207.145 106.554 207.011 106.53 206.885 106.48C206.76 106.43 206.646 106.355 206.55 106.26C206.455 106.16 206.38 106.043 206.33 105.914C206.281 105.785 206.257 105.648 206.26 105.51V103.51H205.74V102.81H206.26V101.81H207.09V102.81H207.91V103.51H207.09V105.36C207.085 105.469 207.121 105.576 207.19 105.66C207.222 105.698 207.262 105.728 207.307 105.749C207.352 105.769 207.401 105.78 207.45 105.78C207.516 105.791 207.584 105.791 207.65 105.78C207.708 105.755 207.762 105.721 207.81 105.68L208.05 106.26Z" fill="#495565"/>
<path d="M211.4 103.18C211.542 103.327 211.652 103.501 211.724 103.692C211.797 103.883 211.829 104.086 211.82 104.29V106.47H211V106C210.863 106.163 210.688 106.29 210.49 106.37C210.294 106.466 210.078 106.514 209.86 106.51C209.623 106.511 209.388 106.463 209.17 106.37C208.976 106.279 208.811 106.137 208.69 105.96C208.577 105.78 208.518 105.572 208.52 105.36C208.513 105.133 208.584 104.911 208.72 104.73C208.854 104.544 209.038 104.398 209.25 104.31C209.481 104.2 209.734 104.145 209.99 104.15C210.332 104.154 210.67 104.218 210.99 104.34V104.25C210.995 104.142 210.978 104.034 210.94 103.932C210.903 103.831 210.845 103.738 210.77 103.66C210.684 103.574 210.581 103.508 210.467 103.467C210.353 103.425 210.231 103.409 210.11 103.42C209.759 103.429 209.415 103.526 209.11 103.7L208.81 103.1C209.255 102.866 209.747 102.736 210.25 102.72C210.463 102.71 210.676 102.746 210.875 102.826C211.073 102.905 211.252 103.026 211.4 103.18ZM210.65 105.77C210.734 105.724 210.807 105.661 210.866 105.585C210.924 105.51 210.966 105.423 210.99 105.33V104.92C210.705 104.832 210.408 104.788 210.11 104.79C209.911 104.782 209.715 104.838 209.55 104.95C209.481 104.996 209.425 105.059 209.387 105.132C209.349 105.206 209.329 105.287 209.33 105.37C209.328 105.448 209.346 105.525 209.381 105.595C209.415 105.664 209.467 105.725 209.53 105.77C209.677 105.88 209.857 105.937 210.04 105.93C210.253 105.928 210.463 105.873 210.65 105.77Z" fill="#495565"/>
<path d="M213 102.15C212.952 102.107 212.914 102.055 212.888 101.996C212.862 101.938 212.849 101.874 212.85 101.81C212.85 101.746 212.863 101.683 212.889 101.624C212.915 101.566 212.953 101.513 213 101.47C213.045 101.425 213.098 101.39 213.156 101.366C213.214 101.342 213.277 101.33 213.34 101.33C213.467 101.332 213.589 101.383 213.68 101.473C213.771 101.562 213.825 101.683 213.83 101.81C213.831 101.874 213.817 101.938 213.792 101.996C213.766 102.055 213.728 102.107 213.68 102.15C213.638 102.199 213.586 102.238 213.527 102.264C213.468 102.29 213.404 102.302 213.34 102.3C213.276 102.301 213.212 102.288 213.154 102.262C213.095 102.236 213.043 102.198 213 102.15ZM212.92 102.85H213.77V106.47H212.92V102.85Z" fill="#495565"/>
<path d="M217.54 102.94C217.74 103.062 217.906 103.235 218.02 103.44C218.135 103.662 218.193 103.91 218.19 104.16V106.47H217.36V104.33C217.371 104.11 217.296 103.895 217.15 103.73C217.082 103.651 216.998 103.589 216.902 103.547C216.807 103.505 216.704 103.486 216.6 103.49C216.372 103.485 216.15 103.567 215.98 103.72C215.897 103.787 215.83 103.873 215.785 103.97C215.74 104.067 215.718 104.173 215.72 104.28V106.47H214.87V102.85H215.72V103.34C215.836 103.161 215.999 103.016 216.19 102.92C216.398 102.809 216.629 102.751 216.865 102.751C217.1 102.751 217.332 102.809 217.54 102.92V102.94Z" fill="#495565"/>
<path d="M221.41 105.76C221.58 105.701 221.736 105.61 221.87 105.49L222.36 105.99C222.172 106.171 221.947 106.307 221.7 106.39C221.443 106.494 221.168 106.548 220.89 106.55C220.542 106.559 220.197 106.476 219.89 106.31C219.605 106.148 219.367 105.913 219.2 105.63C219.023 105.327 218.933 104.981 218.94 104.63C218.928 104.28 219.015 103.933 219.19 103.63C219.347 103.349 219.579 103.117 219.86 102.96C220.146 102.796 220.47 102.71 220.8 102.71C221.047 102.697 221.294 102.743 221.52 102.844C221.745 102.945 221.944 103.098 222.1 103.29C222.44 103.74 222.607 104.297 222.57 104.86H219.77C219.798 105.125 219.923 105.371 220.12 105.55C220.311 105.724 220.562 105.817 220.82 105.81C221.018 105.831 221.218 105.814 221.41 105.76ZM220.18 103.69C219.987 103.859 219.857 104.088 219.81 104.34H221.81C221.782 104.095 221.673 103.866 221.5 103.69C221.415 103.608 221.315 103.545 221.205 103.504C221.095 103.462 220.977 103.444 220.86 103.45C220.611 103.443 220.369 103.528 220.18 103.69Z" fill="#495565"/>
<path d="M224.82 103C225.055 102.859 225.325 102.786 225.6 102.79V103.52C225.258 103.505 224.922 103.62 224.66 103.84C224.539 103.94 224.443 104.068 224.381 104.212C224.318 104.356 224.291 104.513 224.3 104.67V106.5H223.45V102.88H224.3V103.56C224.418 103.329 224.598 103.135 224.82 103Z" fill="#495565"/>
<path d="M229.51 106.21C229.129 105.992 228.812 105.679 228.59 105.3C228.362 104.926 228.241 104.498 228.24 104.06C228.24 103.622 228.361 103.193 228.59 102.82C228.814 102.443 229.131 102.129 229.511 101.91C229.891 101.691 230.321 101.574 230.76 101.57C231.105 101.567 231.446 101.638 231.76 101.78C232.07 101.916 232.352 102.109 232.59 102.35L231.97 102.93C231.82 102.757 231.636 102.618 231.43 102.52C231.224 102.421 230.998 102.37 230.77 102.37C230.484 102.371 230.204 102.45 229.96 102.6C229.579 102.829 229.303 103.198 229.193 103.629C229.083 104.059 229.146 104.516 229.37 104.9C229.507 105.156 229.711 105.371 229.96 105.52C230.202 105.675 230.483 105.755 230.77 105.75C230.997 105.749 231.222 105.701 231.43 105.61C231.638 105.506 231.825 105.364 231.98 105.19L232.59 105.77C232.36 106.016 232.081 106.21 231.77 106.34C231.455 106.48 231.114 106.552 230.77 106.55C230.327 106.555 229.891 106.438 229.51 106.21Z" fill="#495565"/>
<path d="M233.42 101.57H234.28V106.47H233.42V101.57Z" fill="#495565"/>
<path d="M238.66 102.85V106.47H237.8V106C237.685 106.178 237.522 106.321 237.33 106.41C237.131 106.519 236.907 106.574 236.68 106.57C236.435 106.575 236.193 106.512 235.98 106.39C235.78 106.271 235.614 106.102 235.5 105.9C235.386 105.674 235.328 105.423 235.33 105.17V102.87H236.17V105C236.161 105.222 236.236 105.44 236.38 105.61C236.448 105.685 236.532 105.744 236.625 105.783C236.718 105.823 236.819 105.842 236.92 105.84C237.152 105.849 237.378 105.767 237.55 105.61C237.63 105.543 237.694 105.459 237.737 105.363C237.781 105.268 237.802 105.165 237.8 105.06V102.87L238.66 102.85Z" fill="#495565"/>
<path d="M240.21 106.41C239.94 106.317 239.687 106.182 239.46 106.01L239.82 105.45C240.011 105.587 240.22 105.698 240.44 105.78C240.64 105.849 240.849 105.886 241.06 105.89C241.218 105.902 241.375 105.863 241.51 105.78C241.562 105.75 241.606 105.706 241.636 105.653C241.666 105.6 241.681 105.541 241.68 105.48C241.681 105.418 241.663 105.358 241.629 105.306C241.595 105.254 241.547 105.214 241.49 105.19C241.306 105.097 241.111 105.027 240.91 104.98C240.664 104.918 240.424 104.838 240.19 104.74C240.028 104.665 239.885 104.556 239.77 104.42C239.665 104.267 239.613 104.085 239.62 103.9C239.616 103.689 239.679 103.483 239.8 103.31C239.916 103.132 240.083 102.992 240.28 102.91C240.502 102.807 240.745 102.755 240.99 102.76C241.232 102.76 241.472 102.801 241.7 102.88C241.94 102.956 242.169 103.064 242.38 103.2L242.04 103.77C241.875 103.662 241.697 103.574 241.51 103.51C241.343 103.45 241.167 103.416 240.99 103.41C240.846 103.407 240.703 103.445 240.58 103.52C240.532 103.552 240.492 103.595 240.465 103.646C240.437 103.696 240.421 103.752 240.42 103.81C240.418 103.846 240.425 103.881 240.439 103.914C240.452 103.947 240.473 103.976 240.5 104C240.564 104.058 240.639 104.102 240.72 104.13L241.19 104.28C241.415 104.341 241.636 104.418 241.85 104.51C242.022 104.581 242.174 104.694 242.29 104.84C242.415 104.999 242.479 105.198 242.47 105.4C242.476 105.562 242.443 105.723 242.374 105.869C242.304 106.016 242.2 106.143 242.07 106.24C241.782 106.455 241.429 106.564 241.07 106.55C240.778 106.55 240.487 106.502 240.21 106.41Z" fill="#495565"/>
<path d="M245.26 106.26C245.155 106.353 245.033 106.424 244.9 106.47C244.766 106.521 244.623 106.548 244.48 106.55C244.345 106.554 244.211 106.53 244.085 106.48C243.96 106.43 243.846 106.355 243.75 106.26C243.654 106.161 243.58 106.043 243.532 105.914C243.483 105.785 243.462 105.648 243.47 105.51V103.51H242.94V102.81H243.47V101.81H244.29V102.81H245.11V103.51H244.29V105.36C244.288 105.47 244.327 105.577 244.4 105.66C244.431 105.699 244.471 105.73 244.516 105.751C244.561 105.772 244.61 105.782 244.66 105.78C244.726 105.79 244.794 105.79 244.86 105.78C244.915 105.755 244.966 105.721 245.01 105.68L245.26 106.26Z" fill="#495565"/>
<path d="M248.19 105.76C248.359 105.701 248.516 105.61 248.65 105.49L249.14 105.99C248.956 106.17 248.734 106.307 248.49 106.39C248.229 106.494 247.951 106.548 247.67 106.55C247.321 106.559 246.977 106.476 246.67 106.31C246.384 106.148 246.146 105.913 245.98 105.63C245.803 105.327 245.713 104.981 245.72 104.63C245.708 104.28 245.794 103.933 245.97 103.63C246.129 103.351 246.361 103.12 246.64 102.96C246.926 102.796 247.25 102.71 247.58 102.71C247.827 102.697 248.073 102.743 248.299 102.844C248.525 102.945 248.724 103.098 248.88 103.29C249.223 103.739 249.393 104.296 249.36 104.86H246.55C246.583 105.124 246.707 105.367 246.9 105.55C247.091 105.724 247.342 105.817 247.6 105.81C247.798 105.832 247.998 105.815 248.19 105.76ZM247 103.69C246.807 103.857 246.679 104.088 246.64 104.34H248.64C248.611 104.097 248.506 103.87 248.34 103.69C248.253 103.609 248.15 103.546 248.039 103.505C247.927 103.464 247.809 103.445 247.69 103.45C247.438 103.44 247.191 103.526 247 103.69Z" fill="#495565"/>
<path d="M251.6 103C251.835 102.859 252.105 102.786 252.38 102.79V103.52C252.038 103.505 251.702 103.62 251.44 103.84C251.319 103.94 251.223 104.068 251.161 104.212C251.098 104.356 251.071 104.513 251.08 104.67V106.5H250.23V102.88H251.08V103.56C251.198 103.329 251.378 103.135 251.6 103Z" fill="#495565"/>
<path d="M260.81 106.21C260.428 105.99 260.109 105.677 259.88 105.3C259.66 104.924 259.543 104.496 259.54 104.06C259.541 103.624 259.659 103.196 259.88 102.82C260.109 102.443 260.428 102.13 260.81 101.91C261.19 101.689 261.621 101.572 262.06 101.57C262.405 101.567 262.746 101.638 263.06 101.78C263.37 101.916 263.652 102.109 263.89 102.35L263.27 102.93C263.118 102.76 262.935 102.62 262.73 102.52C262.524 102.421 262.299 102.37 262.07 102.37C261.784 102.371 261.504 102.45 261.26 102.6C261.012 102.754 260.806 102.967 260.66 103.22C260.515 103.476 260.439 103.766 260.439 104.06C260.439 104.354 260.515 104.644 260.66 104.9C260.803 105.155 261.01 105.368 261.26 105.52C261.502 105.675 261.783 105.755 262.07 105.75C262.297 105.749 262.522 105.701 262.73 105.61C262.938 105.506 263.125 105.364 263.28 105.19L263.89 105.77C263.654 106.015 263.372 106.211 263.059 106.345C262.747 106.479 262.41 106.549 262.07 106.55C261.627 106.555 261.191 106.438 260.81 106.21Z" fill="#495565"/>
<path d="M265.41 106.3C265.122 106.125 264.879 105.886 264.7 105.6C264.529 105.313 264.44 104.984 264.44 104.65C264.439 104.319 264.529 103.994 264.7 103.71C264.875 103.424 265.119 103.187 265.41 103.02C265.715 102.847 266.06 102.758 266.41 102.76C266.747 102.761 267.077 102.849 267.37 103.015C267.663 103.182 267.907 103.421 268.08 103.71C268.25 103.994 268.34 104.319 268.34 104.65C268.34 104.984 268.25 105.313 268.08 105.6C267.909 105.888 267.668 106.129 267.38 106.3C267.076 106.473 266.73 106.559 266.38 106.55C266.041 106.55 265.707 106.464 265.41 106.3ZM266.93 105.67C267.098 105.56 267.238 105.413 267.34 105.24C267.44 105.06 267.491 104.856 267.49 104.65C267.491 104.447 267.439 104.247 267.34 104.07C267.245 103.898 267.107 103.754 266.94 103.65C266.776 103.54 266.582 103.482 266.385 103.482C266.187 103.482 265.994 103.54 265.83 103.65C265.665 103.756 265.528 103.9 265.43 104.07C265.33 104.247 265.279 104.447 265.28 104.65C265.278 104.856 265.33 105.06 265.43 105.24C265.528 105.413 265.665 105.56 265.83 105.67C266 105.77 266.193 105.822 266.39 105.82C266.581 105.823 266.768 105.771 266.93 105.67Z" fill="#495565"/>
<path d="M271.85 102.94C272.055 103.057 272.222 103.23 272.33 103.44C272.452 103.66 272.514 103.908 272.51 104.16V106.47H271.67V104.33C271.681 104.11 271.606 103.895 271.46 103.73C271.394 103.652 271.311 103.59 271.217 103.548C271.124 103.507 271.022 103.487 270.92 103.49C270.688 103.485 270.464 103.567 270.29 103.72C270.208 103.789 270.143 103.874 270.098 103.971C270.053 104.068 270.03 104.173 270.03 104.28V106.47H269.18V102.85H270V103.34C270.119 103.163 270.28 103.018 270.47 102.92C270.671 102.817 270.894 102.762 271.12 102.76C271.376 102.749 271.629 102.811 271.85 102.94Z" fill="#495565"/>
<path d="M275.5 106.26C275.395 106.353 275.273 106.424 275.14 106.47C275.006 106.521 274.863 106.548 274.72 106.55C274.585 106.554 274.451 106.53 274.325 106.48C274.2 106.43 274.086 106.355 273.99 106.26C273.894 106.161 273.82 106.043 273.772 105.914C273.723 105.785 273.702 105.648 273.71 105.51V103.51H273.18V102.81H273.71V101.81H274.54V102.81H275.35V103.51H274.54V105.36C274.535 105.469 274.571 105.576 274.64 105.66C274.672 105.698 274.712 105.728 274.757 105.749C274.802 105.769 274.85 105.78 274.9 105.78C274.966 105.791 275.034 105.791 275.1 105.78L275.26 105.68L275.5 106.26Z" fill="#495565"/>
<path d="M278.85 103.18C278.992 103.327 279.102 103.501 279.174 103.692C279.247 103.883 279.279 104.086 279.27 104.29V106.47H278.43V106C278.297 106.163 278.125 106.29 277.93 106.37C277.733 106.464 277.518 106.512 277.3 106.51C277.063 106.513 276.827 106.465 276.61 106.37C276.416 106.279 276.25 106.137 276.13 105.96C276.011 105.783 275.951 105.573 275.96 105.36C275.95 105.135 276.017 104.913 276.15 104.73C276.287 104.546 276.47 104.401 276.68 104.31C276.915 104.201 277.171 104.146 277.43 104.15C277.772 104.153 278.111 104.217 278.43 104.34V104.25C278.438 104.135 278.421 104.019 278.379 103.911C278.337 103.803 278.271 103.705 278.187 103.626C278.103 103.546 278.002 103.487 277.892 103.451C277.782 103.415 277.665 103.405 277.55 103.42C277.199 103.431 276.856 103.527 276.55 103.7L276.26 103.1C276.705 102.865 277.197 102.735 277.7 102.72C277.913 102.712 278.126 102.748 278.324 102.828C278.522 102.907 278.701 103.027 278.85 103.18ZM278.09 105.77C278.175 105.725 278.249 105.663 278.308 105.587C278.366 105.511 278.408 105.423 278.43 105.33V104.92C278.145 104.831 277.848 104.787 277.55 104.79C277.354 104.782 277.161 104.838 277 104.95C276.931 104.996 276.875 105.059 276.837 105.132C276.799 105.206 276.779 105.287 276.78 105.37C276.776 105.448 276.793 105.526 276.828 105.596C276.863 105.666 276.915 105.726 276.98 105.77C277.125 105.883 277.306 105.94 277.49 105.93C277.7 105.929 277.907 105.874 278.09 105.77Z" fill="#495565"/>
<path d="M280.4 102.15C280.355 102.105 280.32 102.052 280.296 101.994C280.272 101.936 280.26 101.873 280.26 101.81C280.261 101.683 280.311 101.561 280.4 101.47C280.495 101.381 280.62 101.331 280.75 101.33C280.813 101.33 280.876 101.342 280.934 101.366C280.992 101.39 281.045 101.425 281.09 101.47C281.136 101.514 281.172 101.566 281.196 101.625C281.22 101.684 281.232 101.747 281.23 101.81C281.233 101.873 281.221 101.937 281.197 101.995C281.173 102.054 281.136 102.107 281.09 102.15C281.047 102.198 280.995 102.236 280.936 102.262C280.878 102.288 280.814 102.301 280.75 102.3C280.685 102.3 280.62 102.286 280.56 102.26C280.5 102.235 280.445 102.197 280.4 102.15ZM280.32 102.85H281.18V106.47H280.32V102.85Z" fill="#495565"/>
<path d="M285 102.94C285.201 103.062 285.366 103.235 285.48 103.44C285.595 103.662 285.653 103.91 285.65 104.16V106.47H284.81V104.33C284.821 104.11 284.746 103.895 284.6 103.73C284.534 103.652 284.451 103.59 284.357 103.548C284.264 103.507 284.162 103.487 284.06 103.49C283.829 103.485 283.604 103.567 283.43 103.72C283.35 103.789 283.286 103.875 283.242 103.972C283.199 104.069 283.178 104.174 283.18 104.28V106.47H282.32V102.85H283.18V103.34C283.293 103.161 283.452 103.016 283.64 102.92C283.844 102.816 284.071 102.761 284.3 102.76C284.545 102.757 284.787 102.819 285 102.94Z" fill="#495565"/>
<path d="M288.86 105.76C289.027 105.701 289.18 105.609 289.31 105.49L289.8 105.99C289.618 106.173 289.395 106.31 289.15 106.39C288.889 106.495 288.611 106.549 288.33 106.55C287.998 106.553 287.671 106.47 287.38 106.31C287.084 106.148 286.839 105.907 286.671 105.614C286.503 105.321 286.42 104.987 286.43 104.65C286.421 104.302 286.504 103.957 286.67 103.65C286.833 103.37 287.068 103.139 287.35 102.98C287.633 102.816 287.953 102.73 288.28 102.73C288.529 102.717 288.777 102.763 289.004 102.864C289.232 102.965 289.432 103.118 289.59 103.31C289.925 103.762 290.092 104.318 290.06 104.88H287.25C287.287 105.145 287.414 105.388 287.61 105.57C287.799 105.741 288.045 105.834 288.3 105.83C288.489 105.841 288.679 105.817 288.86 105.76ZM287.63 103.69C287.437 103.859 287.307 104.088 287.26 104.34H289.26C289.223 104.097 289.115 103.871 288.95 103.69C288.865 103.608 288.765 103.545 288.655 103.504C288.545 103.462 288.427 103.444 288.31 103.45C288.061 103.443 287.819 103.528 287.63 103.69Z" fill="#495565"/>
<path d="M292.27 103C292.502 102.859 292.769 102.786 293.04 102.79V103.52C292.701 103.506 292.369 103.62 292.11 103.84C291.989 103.94 291.893 104.068 291.831 104.212C291.768 104.356 291.74 104.513 291.75 104.67V106.5H290.89V102.88H291.75V103.56C291.865 103.326 292.045 103.132 292.27 103Z" fill="#495565"/>
<path d="M297 106.21C296.618 105.99 296.299 105.677 296.07 105.3C295.846 104.925 295.728 104.497 295.73 104.06C295.726 103.623 295.844 103.194 296.07 102.82C296.299 102.443 296.618 102.13 297 101.91C297.336 101.711 297.715 101.596 298.104 101.573C298.494 101.551 298.883 101.622 299.24 101.78C299.549 101.918 299.83 102.111 300.07 102.35L299.45 102.93C299.297 102.757 299.109 102.618 298.9 102.52C298.698 102.42 298.475 102.368 298.25 102.37C297.964 102.37 297.684 102.45 297.44 102.6C297.192 102.754 296.986 102.967 296.84 103.22C296.695 103.476 296.62 103.766 296.62 104.06C296.62 104.354 296.695 104.644 296.84 104.9C296.983 105.155 297.19 105.368 297.44 105.52C297.682 105.674 297.963 105.754 298.25 105.75C298.474 105.75 298.696 105.702 298.9 105.61C299.11 105.509 299.297 105.366 299.45 105.19L300.07 105.77C299.834 106.015 299.552 106.211 299.239 106.345C298.927 106.479 298.59 106.548 298.25 106.55C297.81 106.555 297.377 106.437 297 106.21Z" fill="#495565"/>
<path d="M300.87 101.57H301.72V106.47H300.87V101.57Z" fill="#495565"/>
<path d="M306.1 102.85V106.47H305.25V106C305.133 106.176 304.97 106.318 304.78 106.41C304.577 106.519 304.35 106.574 304.12 106.57C303.878 106.575 303.639 106.513 303.43 106.39C303.228 106.274 303.061 106.105 302.95 105.9C302.836 105.674 302.778 105.423 302.78 105.17V102.87H303.61V105C303.601 105.222 303.676 105.44 303.82 105.61C303.89 105.685 303.975 105.745 304.07 105.785C304.165 105.824 304.267 105.843 304.37 105.84C304.602 105.848 304.828 105.766 305 105.61C305.08 105.543 305.144 105.459 305.187 105.363C305.23 105.268 305.252 105.165 305.25 105.06V102.87L306.1 102.85Z" fill="#495565"/>
<path d="M307.65 106.41C307.38 106.317 307.127 106.182 306.9 106.01L307.27 105.45C307.46 105.589 307.669 105.7 307.89 105.78C308.089 105.849 308.299 105.886 308.51 105.89C308.668 105.902 308.825 105.863 308.96 105.78C309.011 105.749 309.053 105.705 309.082 105.652C309.11 105.599 309.123 105.54 309.12 105.48C309.122 105.419 309.105 105.36 309.073 105.308C309.041 105.256 308.995 105.215 308.94 105.19C308.755 105.099 308.56 105.028 308.36 104.98C308.114 104.918 307.873 104.838 307.64 104.74C307.475 104.67 307.331 104.56 307.22 104.42C307.115 104.267 307.063 104.085 307.07 103.9C307.068 103.691 307.127 103.486 307.24 103.31C307.362 103.133 307.532 102.994 307.73 102.91C307.952 102.806 308.195 102.754 308.44 102.76C308.681 102.762 308.921 102.802 309.15 102.88C309.387 102.956 309.612 103.063 309.82 103.2L309.49 103.77C309.321 103.661 309.14 103.574 308.95 103.51C308.786 103.45 308.614 103.416 308.44 103.41C308.295 103.405 308.153 103.443 308.03 103.52C307.981 103.551 307.94 103.593 307.912 103.644C307.884 103.695 307.87 103.752 307.87 103.81C307.866 103.846 307.871 103.882 307.885 103.915C307.899 103.949 307.921 103.978 307.95 104C308.012 104.056 308.083 104.1 308.16 104.13L308.64 104.28C308.865 104.342 309.085 104.419 309.3 104.51C309.471 104.578 309.62 104.692 309.73 104.84C309.855 104.999 309.919 105.198 309.91 105.4C309.917 105.561 309.886 105.722 309.818 105.868C309.75 106.014 309.648 106.142 309.52 106.24C309.231 106.454 308.879 106.563 308.52 106.55C308.224 106.551 307.93 106.503 307.65 106.41Z" fill="#495565"/>
<path d="M312.71 106.26C312.602 106.349 312.48 106.42 312.35 106.47C312.216 106.521 312.073 106.548 311.93 106.55C311.795 106.554 311.661 106.53 311.535 106.48C311.41 106.43 311.296 106.355 311.2 106.26C311.105 106.16 311.03 106.043 310.98 105.914C310.93 105.785 310.907 105.648 310.91 105.51V103.51H310.39V102.81H310.91V101.81H311.74V102.81H312.56V103.51H311.74V105.36C311.735 105.469 311.771 105.576 311.84 105.66C311.872 105.697 311.912 105.727 311.957 105.748C312.002 105.769 312.051 105.78 312.1 105.78C312.166 105.791 312.234 105.791 312.3 105.78C312.359 105.757 312.414 105.723 312.46 105.68L312.71 106.26Z" fill="#495565"/>
<path d="M315.64 105.76C315.808 105.703 315.961 105.611 316.09 105.49L316.58 105.99C316.398 106.173 316.175 106.31 315.93 106.39C315.669 106.495 315.391 106.549 315.11 106.55C314.778 106.553 314.451 106.47 314.16 106.31C313.875 106.148 313.637 105.913 313.47 105.63C313.289 105.329 313.198 104.981 313.21 104.63C313.198 104.28 313.285 103.933 313.46 103.63C313.617 103.349 313.849 103.117 314.13 102.96C314.413 102.796 314.733 102.71 315.06 102.71C315.309 102.697 315.557 102.742 315.785 102.843C316.012 102.944 316.213 103.097 316.37 103.29C316.71 103.74 316.877 104.297 316.84 104.86H314C314.028 105.125 314.153 105.371 314.35 105.55C314.541 105.724 314.792 105.817 315.05 105.81C315.248 105.831 315.448 105.814 315.64 105.76ZM314.41 103.69C314.217 103.859 314.087 104.088 314.04 104.34H316.04C316.003 104.097 315.895 103.871 315.73 103.69C315.645 103.608 315.545 103.545 315.435 103.504C315.325 103.462 315.208 103.444 315.09 103.45C314.841 103.443 314.599 103.528 314.41 103.69Z" fill="#495565"/>
<path d="M319.05 103C319.285 102.859 319.555 102.786 319.83 102.79V103.52C319.487 103.503 319.151 103.618 318.89 103.84C318.769 103.94 318.673 104.068 318.611 104.212C318.548 104.356 318.52 104.513 318.53 104.67V106.5H317.68V102.88H318.53V103.56C318.648 103.329 318.828 103.135 319.05 103Z" fill="#495565"/>
<path d="M284.31 12.5H196.08V27.17H284.31V12.5Z" fill="#495565"/>
<path d="M205.48 21.7C205.185 21.5841 204.913 21.4146 204.68 21.2L205.12 20.67C205.487 21.019 205.973 21.2156 206.48 21.22C206.678 21.2324 206.875 21.1797 207.04 21.07C207.103 21.0261 207.155 20.9678 207.192 20.9001C207.228 20.8323 207.248 20.7569 207.25 20.68C207.251 20.5778 207.215 20.4785 207.15 20.4C207.058 20.3269 206.958 20.2663 206.85 20.22C206.666 20.1595 206.479 20.1094 206.29 20.07C206.023 20.0091 205.762 19.9254 205.51 19.82C205.318 19.7455 205.151 19.617 205.03 19.45C204.902 19.2768 204.839 19.0648 204.85 18.85C204.845 18.6221 204.912 18.3985 205.04 18.21C205.172 18.0147 205.356 17.8591 205.57 17.76C205.809 17.6557 206.069 17.6046 206.33 17.61C206.902 17.6038 207.457 17.8065 207.89 18.18L207.48 18.73C207.312 18.5786 207.119 18.4569 206.91 18.37C206.716 18.291 206.509 18.2503 206.3 18.25C206.121 18.2427 205.945 18.2955 205.8 18.4C205.741 18.444 205.693 18.5013 205.66 18.5673C205.627 18.6333 205.61 18.7062 205.61 18.78C205.607 18.8295 205.615 18.879 205.632 18.9254C205.649 18.9719 205.676 19.0143 205.71 19.05C205.793 19.1344 205.896 19.1964 206.01 19.23C206.14 19.28 206.33 19.33 206.56 19.39C206.945 19.4592 207.313 19.6055 207.64 19.82C207.761 19.9113 207.857 20.0313 207.92 20.1693C207.983 20.3073 208.01 20.4588 208 20.61C208 20.8403 207.934 21.0658 207.81 21.26C207.68 21.4575 207.496 21.6136 207.28 21.71C207.017 21.8196 206.735 21.874 206.45 21.87C206.119 21.8715 205.791 21.814 205.48 21.7Z" fill="white"/>
<path d="M210.65 21.19C210.778 21.1493 210.896 21.0849 211 21L211.42 21.43C211.263 21.5882 211.071 21.7079 210.86 21.78C210.636 21.8648 210.399 21.9089 210.16 21.91C209.873 21.9129 209.59 21.8405 209.34 21.7C209.092 21.5635 208.885 21.3633 208.74 21.12C208.598 20.863 208.526 20.5735 208.53 20.28C208.526 19.9897 208.598 19.7034 208.74 19.45C208.877 19.2133 209.073 19.0168 209.31 18.88C209.557 18.7394 209.836 18.6669 210.12 18.67C210.33 18.6594 210.54 18.6982 210.733 18.7833C210.926 18.8683 211.096 18.9974 211.23 19.16C211.524 19.5426 211.669 20.0185 211.64 20.5H209.23C209.261 20.7299 209.37 20.942 209.54 21.1C209.7 21.248 209.912 21.327 210.13 21.32C210.31 21.3116 210.487 21.2674 210.65 21.19ZM209.59 19.42C209.428 19.5676 209.319 19.7644 209.28 19.98H211C210.975 19.7706 210.884 19.5746 210.74 19.42C210.668 19.3492 210.581 19.2941 210.487 19.2579C210.392 19.2218 210.291 19.2055 210.19 19.21C209.97 19.1987 209.755 19.2741 209.59 19.42Z" fill="white"/>
<path d="M213.57 18.8C213.775 18.6866 214.006 18.628 214.24 18.63V19.25C213.946 19.2357 213.657 19.332 213.43 19.52C213.331 19.6092 213.253 19.719 213.201 19.8417C213.149 19.9643 213.125 20.0969 213.13 20.23V21.8H212.39V18.7H213.13V19.29C213.223 19.0856 213.377 18.9146 213.57 18.8Z" fill="white"/>
<path d="M214.57 18.7H215.35L216.25 20.95L217.13 18.7H217.91L216.59 21.8H215.91L214.57 18.7Z" fill="white"/>
<path d="M218.56 18.1C218.522 18.0619 218.492 18.0167 218.471 17.9669C218.45 17.9172 218.44 17.8638 218.44 17.81C218.44 17.7561 218.45 17.7028 218.471 17.653C218.492 17.6033 218.522 17.5581 218.56 17.52C218.641 17.4434 218.748 17.4005 218.86 17.4C218.914 17.3994 218.967 17.4097 219.017 17.4304C219.067 17.451 219.112 17.4815 219.15 17.52C219.191 17.5566 219.223 17.6013 219.245 17.6512C219.268 17.7012 219.279 17.7553 219.279 17.81C219.279 17.8647 219.268 17.9188 219.245 17.9687C219.223 18.0187 219.191 18.0634 219.15 18.1C219.114 18.1418 219.07 18.1752 219.02 18.1977C218.969 18.2202 218.915 18.2312 218.86 18.23C218.804 18.2301 218.748 18.2185 218.696 18.1962C218.645 18.1738 218.598 18.1411 218.56 18.1ZM218.5 18.7H219.23V21.8H218.5V18.7Z" fill="white"/>
<path d="M220.8 21.65C220.548 21.5064 220.338 21.2996 220.19 21.05C220.039 20.8086 219.959 20.5296 219.959 20.245C219.959 19.9604 220.039 19.6814 220.19 19.44C220.338 19.1935 220.549 18.9901 220.8 18.85C221.052 18.7029 221.338 18.6268 221.63 18.63C221.853 18.6266 222.075 18.6709 222.28 18.76C222.476 18.8469 222.653 18.9728 222.8 19.13L222.31 19.56C222.222 19.4639 222.117 19.3858 222 19.33C221.88 19.2788 221.751 19.2516 221.62 19.25C221.455 19.2539 221.293 19.2986 221.15 19.38C221.01 19.4755 220.893 19.6021 220.81 19.75C220.729 19.9043 220.688 20.076 220.69 20.25C220.689 20.4239 220.73 20.5954 220.81 20.75C220.894 20.8949 221.01 21.0182 221.15 21.11C221.29 21.1998 221.453 21.2483 221.62 21.25C221.755 21.249 221.888 21.2183 222.01 21.16C222.131 21.1006 222.239 21.0192 222.33 20.92L222.82 21.35C222.668 21.5128 222.484 21.6423 222.28 21.73C222.074 21.8279 221.848 21.8759 221.62 21.87C221.332 21.8729 221.048 21.7968 220.8 21.65Z" fill="white"/>
<path d="M225.32 21.19C225.465 21.1423 225.598 21.0639 225.71 20.96L226.13 21.39C225.973 21.5482 225.781 21.668 225.57 21.74C225.346 21.8249 225.109 21.8689 224.87 21.87C224.583 21.873 224.3 21.8006 224.05 21.66C223.802 21.5235 223.595 21.3233 223.45 21.08C223.308 20.823 223.236 20.5335 223.24 20.24C223.236 19.9497 223.308 19.6634 223.45 19.41C223.587 19.1734 223.783 18.9768 224.02 18.84C224.267 18.6994 224.546 18.6269 224.83 18.63C225.04 18.6194 225.25 18.6582 225.443 18.7433C225.636 18.8284 225.806 18.9574 225.94 19.12C226.234 19.5026 226.379 19.9785 226.35 20.46H223.94C223.971 20.6899 224.08 20.902 224.25 21.06C224.41 21.208 224.622 21.287 224.84 21.28C225.004 21.2792 225.167 21.2487 225.32 21.19ZM224.26 19.42C224.112 19.5799 224.021 19.7835 224 20H225.69C225.664 19.7906 225.573 19.5946 225.43 19.44C225.357 19.3692 225.271 19.3141 225.177 19.278C225.082 19.2418 224.981 19.2255 224.88 19.23C224.769 19.219 224.657 19.2302 224.551 19.2628C224.444 19.2954 224.346 19.3488 224.26 19.42Z" fill="white"/>
<path d="M228.88 17.68H229.62L231 20.19L232.36 17.68H233.11V21.8H232.36V19.05L231 21.56L229.64 19.05V21.8H228.9L228.88 17.68Z" fill="white"/>
<path d="M236 21.19C236.145 21.1423 236.278 21.0639 236.39 20.96L236.81 21.39C236.653 21.5482 236.461 21.668 236.25 21.74C236.026 21.8249 235.789 21.8689 235.55 21.87C235.263 21.8716 234.981 21.7993 234.73 21.66C234.483 21.5258 234.278 21.3248 234.14 21.08C233.991 20.8256 233.914 20.5349 233.92 20.24C233.916 19.9497 233.988 19.6634 234.13 19.41C234.268 19.1706 234.468 18.9734 234.71 18.84C234.953 18.6998 235.229 18.6273 235.51 18.63C235.722 18.6186 235.934 18.657 236.128 18.7421C236.323 18.8272 236.494 18.9566 236.63 19.12C236.92 19.504 237.062 19.9798 237.03 20.46H234.63C234.658 20.6886 234.764 20.9005 234.93 21.06C235.093 21.2095 235.309 21.2886 235.53 21.28C235.691 21.2782 235.85 21.2478 236 21.19ZM235 19.42C234.834 19.5662 234.722 19.7631 234.68 19.98H236.38C236.352 19.7694 236.257 19.5733 236.11 19.42C236.039 19.3495 235.955 19.2945 235.862 19.2583C235.769 19.2222 235.67 19.2057 235.57 19.21C235.36 19.2065 235.157 19.2814 235 19.42Z" fill="white"/>
<path d="M238.12 21.75C237.89 21.6712 237.674 21.5564 237.48 21.41L237.79 20.93C237.955 21.0446 238.133 21.1386 238.32 21.21C238.489 21.2742 238.669 21.3081 238.85 21.31C238.987 21.3202 239.124 21.2851 239.24 21.21C239.284 21.1824 239.32 21.144 239.344 21.0984C239.369 21.0529 239.381 21.0017 239.38 20.95C239.381 20.8973 239.366 20.8455 239.337 20.801C239.309 20.7566 239.268 20.7215 239.22 20.7C239.062 20.6289 238.898 20.572 238.73 20.53C238.518 20.4755 238.311 20.4053 238.11 20.32C237.968 20.2584 237.845 20.1621 237.75 20.04C237.661 19.9108 237.616 19.7567 237.62 19.6C237.617 19.4188 237.67 19.241 237.77 19.09C237.876 18.9403 238.021 18.8226 238.19 18.75C238.379 18.6672 238.584 18.6262 238.79 18.63C239 18.6304 239.209 18.6607 239.41 18.72C239.618 18.7872 239.816 18.8814 240 19L239.71 19.49C239.57 19.3957 239.419 19.3185 239.26 19.26C239.115 19.211 238.963 19.184 238.81 19.18C238.689 19.1783 238.571 19.2132 238.47 19.28C238.426 19.3043 238.389 19.3407 238.364 19.3849C238.339 19.4291 238.328 19.4794 238.33 19.53C238.329 19.5891 238.35 19.6464 238.39 19.69C238.448 19.7333 238.512 19.7671 238.58 19.79L238.99 19.93C239.181 19.981 239.368 20.0445 239.55 20.12C239.697 20.1817 239.827 20.2777 239.93 20.4C240.034 20.5414 240.087 20.7143 240.08 20.89C240.084 21.0269 240.055 21.1627 239.996 21.2862C239.937 21.4097 239.849 21.5173 239.74 21.6C239.488 21.7911 239.176 21.8867 238.86 21.87C238.608 21.8713 238.358 21.8307 238.12 21.75Z" fill="white"/>
<path d="M243.08 18.78C243.257 18.8771 243.403 19.0228 243.5 19.2C243.594 19.3965 243.642 19.612 243.64 19.83V21.83H242.93V20C242.936 19.8104 242.872 19.6252 242.75 19.48C242.69 19.4152 242.618 19.3638 242.537 19.3293C242.456 19.2949 242.368 19.278 242.28 19.28C242.081 19.2773 241.889 19.3486 241.74 19.48C241.671 19.5369 241.615 19.6086 241.577 19.69C241.539 19.7713 241.519 19.8602 241.52 19.95V21.8H240.79V17.61H241.52V19.12C241.621 18.9679 241.758 18.8439 241.92 18.76C242.093 18.6711 242.286 18.6265 242.48 18.63C242.69 18.6248 242.897 18.6766 243.08 18.78Z" fill="white"/>
<path d="M247.18 21.58C246.849 21.3954 246.573 21.1263 246.38 20.8C246.19 20.4789 246.09 20.1129 246.09 19.74C246.089 19.3669 246.189 19.0006 246.38 18.68C246.573 18.3537 246.849 18.0846 247.18 17.9C247.502 17.7044 247.873 17.6039 248.25 17.61C248.542 17.6103 248.83 17.668 249.1 17.78C249.367 17.8949 249.608 18.0614 249.81 18.27L249.28 18.77C249.149 18.6226 248.989 18.5035 248.81 18.42C248.636 18.3323 248.444 18.2877 248.25 18.29C248.006 18.29 247.766 18.3593 247.56 18.49C247.332 18.6082 247.139 18.784 247 19C246.875 19.2196 246.81 19.4676 246.81 19.72C246.81 19.9724 246.875 20.2204 247 20.44C247.125 20.6583 247.304 20.8407 247.52 20.97C247.726 21.1007 247.966 21.17 248.21 21.17C248.404 21.1723 248.596 21.1277 248.77 21.04C248.95 20.9592 249.111 20.8397 249.24 20.69L249.77 21.18C249.571 21.3941 249.329 21.5643 249.061 21.6797C248.792 21.7951 248.502 21.8531 248.21 21.85C247.848 21.8547 247.492 21.7614 247.18 21.58Z" fill="white"/>
<path d="M251.12 21.65C250.868 21.5103 250.658 21.3068 250.51 21.06C250.363 20.8156 250.287 20.5352 250.29 20.25C250.284 19.9645 250.36 19.6834 250.51 19.44C250.658 19.1882 250.87 18.9803 251.125 18.8379C251.38 18.6955 251.668 18.6237 251.96 18.63C252.25 18.6285 252.535 18.7008 252.79 18.84C253.037 18.9868 253.243 19.1931 253.39 19.44C253.539 19.6834 253.616 19.9645 253.61 20.25C253.613 20.5352 253.537 20.8156 253.39 21.06C253.242 21.3075 253.033 21.5124 252.782 21.6544C252.531 21.7964 252.248 21.8707 251.96 21.87C251.665 21.873 251.375 21.797 251.12 21.65ZM252.43 21.11C252.57 21.0183 252.686 20.895 252.77 20.75C252.856 20.5976 252.901 20.4252 252.9 20.25C252.901 20.0748 252.856 19.9024 252.77 19.75C252.69 19.5998 252.573 19.4724 252.43 19.38C252.286 19.2986 252.125 19.2539 251.96 19.25C251.79 19.2474 251.623 19.293 251.478 19.3815C251.332 19.47 251.215 19.5978 251.14 19.75C251.053 19.9024 251.009 20.0748 251.01 20.25C251.008 20.4217 251.05 20.5909 251.132 20.7415C251.215 20.8922 251.334 21.0191 251.48 21.11C251.624 21.2001 251.79 21.2486 251.96 21.25C252.127 21.2483 252.289 21.1998 252.43 21.11Z" fill="white"/>
<path d="M256.64 18.78C256.817 18.8771 256.963 19.0228 257.06 19.2C257.154 19.3965 257.202 19.612 257.2 19.83V21.83H256.49V20C256.496 19.8104 256.432 19.6252 256.31 19.48C256.25 19.4152 256.178 19.3638 256.097 19.3293C256.016 19.2949 255.928 19.278 255.84 19.28C255.642 19.2773 255.449 19.3486 255.3 19.48C255.231 19.5369 255.175 19.6086 255.137 19.69C255.099 19.7713 255.079 19.8602 255.08 19.95V21.8H254.35V18.7H255.08V19.12C255.181 18.9679 255.318 18.844 255.48 18.76C255.653 18.6712 255.846 18.6265 256.04 18.63C256.25 18.6248 256.457 18.6766 256.64 18.78Z" fill="white"/>
<path d="M259.77 21.63C259.675 21.7037 259.571 21.7642 259.46 21.81C259.344 21.8493 259.222 21.8696 259.1 21.87C258.985 21.8748 258.87 21.855 258.763 21.8119C258.656 21.7688 258.56 21.7034 258.48 21.62C258.397 21.5362 258.331 21.4361 258.288 21.326C258.245 21.2159 258.225 21.0981 258.23 20.98V19.3H257.78V18.7H258.23V17.85H258.94V18.7H259.64V19.3H258.94V20.89C258.937 20.9847 258.969 21.0771 259.03 21.15C259.087 21.2108 259.166 21.2467 259.25 21.25C259.306 21.2603 259.364 21.2603 259.42 21.25C259.473 21.232 259.522 21.2011 259.56 21.16L259.77 21.63Z" fill="white"/>
<path d="M261.61 18.8C261.811 18.6856 262.039 18.627 262.27 18.63V19.25C261.979 19.2363 261.693 19.3327 261.47 19.52C261.368 19.6073 261.287 19.7165 261.234 19.8395C261.18 19.9624 261.155 20.0959 261.16 20.23V21.8H260.43V18.7H261.16V19.29C261.257 19.0849 261.414 18.914 261.61 18.8Z" fill="white"/>
<path d="M263.59 21.65C263.338 21.5103 263.128 21.3068 262.98 21.06C262.833 20.8156 262.757 20.5352 262.76 20.25C262.754 19.9645 262.831 19.6834 262.98 19.44C263.128 19.1882 263.34 18.9803 263.595 18.8379C263.85 18.6955 264.138 18.6237 264.43 18.63C264.72 18.6285 265.006 18.7008 265.26 18.84C265.507 18.9868 265.713 19.1931 265.86 19.44C266.009 19.6834 266.086 19.9645 266.08 20.25C266.083 20.5352 266.007 20.8156 265.86 21.06C265.712 21.3075 265.503 21.5124 265.252 21.6544C265.002 21.7964 264.718 21.8707 264.43 21.87C264.135 21.873 263.845 21.797 263.59 21.65ZM264.89 21.11C265.035 21.0217 265.156 20.8978 265.24 20.75C265.326 20.5976 265.371 20.4252 265.37 20.25C265.371 20.0748 265.326 19.9024 265.24 19.75C265.165 19.5993 265.05 19.4725 264.907 19.3842C264.763 19.2958 264.598 19.2493 264.43 19.25C264.262 19.2522 264.097 19.297 263.95 19.38C263.807 19.4724 263.69 19.5998 263.61 19.75C263.524 19.9024 263.479 20.0748 263.48 20.25C263.478 20.4217 263.52 20.5909 263.602 20.7415C263.685 20.8922 263.805 21.0191 263.95 21.11C264.094 21.2011 264.26 21.2496 264.43 21.25C264.594 21.248 264.753 21.1995 264.89 21.11Z" fill="white"/>
<path d="M266.82 17.61H267.55V21.8H266.82V17.61Z" fill="white"/>
<path d="M268.52 17.61H269.26V21.8H268.52V17.61Z" fill="white"/>
<path d="M272.08 21.19C272.225 21.1423 272.358 21.0639 272.47 20.96L272.89 21.39C272.733 21.5482 272.541 21.668 272.33 21.74C272.106 21.8249 271.869 21.8689 271.63 21.87C271.343 21.8716 271.061 21.7993 270.81 21.66C270.563 21.5258 270.358 21.3248 270.22 21.08C270.071 20.8256 269.995 20.5349 270 20.24C269.996 19.9497 270.068 19.6634 270.21 19.41C270.348 19.1706 270.548 18.9734 270.79 18.84C271.033 18.6998 271.309 18.6273 271.59 18.63C271.802 18.6186 272.014 18.657 272.208 18.7421C272.403 18.8272 272.575 18.9566 272.71 19.12C273 19.504 273.142 19.9798 273.11 20.46H270.71C270.738 20.6886 270.844 20.9005 271.01 21.06C271.173 21.2095 271.389 21.2886 271.61 21.28C271.771 21.2782 271.93 21.2478 272.08 21.19ZM271 19.42C270.834 19.5662 270.722 19.7631 270.68 19.98H272.38C272.35 19.772 272.259 19.5774 272.12 19.42C272.047 19.3497 271.961 19.2949 271.866 19.2588C271.772 19.2227 271.671 19.2061 271.57 19.21C271.36 19.2065 271.157 19.2814 271 19.42Z" fill="white"/>
<path d="M275 18.8C275.205 18.6866 275.436 18.628 275.67 18.63V19.25C275.379 19.2363 275.093 19.3327 274.87 19.52C274.768 19.6073 274.687 19.7165 274.634 19.8395C274.58 19.9624 274.555 20.0959 274.56 20.23V21.8H273.83V18.7H274.56V19.29C274.656 19.0876 274.809 18.9174 275 18.8Z" fill="white"/>
<path d="M83.06 57.21L87.75 62H62.74V64.28H87.72L83.06 68.95L84.67 70.56L92.13 63.09L84.67 55.6L83.06 57.21Z" fill="#218FCF"/>
<path d="M189.68 63.09L182.22 55.6L180.6 57.21L185.3 62H160.29V64.28H185.26L180.61 68.95L182.22 70.56L189.68 63.09Z" fill="#218FCF"/>
<path d="M24.37 36.13V37.29H26.85V38.09H24.37V39.35H27.12V40.14H23.5V35.33H27.12V36.13H24.37Z" fill="#495565"/>
<path d="M30.7799 36.62C30.9871 36.7338 31.1546 36.9083 31.2599 37.12C31.3822 37.34 31.4443 37.5883 31.4399 37.84V40.14H30.5999V38C30.6087 37.7775 30.5337 37.5599 30.3899 37.39C30.3215 37.3154 30.2379 37.2562 30.1448 37.2166C30.0516 37.1769 29.9511 37.1576 29.8499 37.16C29.6178 37.1505 29.3913 37.2332 29.2199 37.39C29.1374 37.4669 29.0745 37.5623 29.0362 37.6684C28.9979 37.7745 28.9855 37.8881 28.9999 38V40.19H28.1499V36.52H28.9999V37C29.1194 36.8258 29.2811 36.6847 29.4699 36.59C29.6775 36.4788 29.9094 36.4207 30.1449 36.4207C30.3804 36.4207 30.6123 36.4788 30.8199 36.59L30.7799 36.62Z" fill="#495565"/>
<path d="M36 35.25V40.14H35.15V39.57C35.0133 39.7755 34.8278 39.9439 34.61 40.06C34.3867 40.1725 34.14 40.2307 33.89 40.23C33.5894 40.2336 33.2943 40.1502 33.04 39.99C32.7804 39.8238 32.5725 39.5883 32.44 39.31C32.2955 38.9964 32.2207 38.6553 32.2207 38.31C32.2207 37.9647 32.2955 37.6236 32.44 37.31C32.5727 37.0345 32.7807 36.8022 33.04 36.64C33.2943 36.4798 33.5894 36.3964 33.89 36.4C34.14 36.3993 34.3867 36.4575 34.61 36.57C34.825 36.6855 35.01 36.8499 35.15 37.05V35.25H36ZM34.85 39.17C35.0381 38.9304 35.1404 38.6346 35.1404 38.33C35.1404 38.0254 35.0381 37.7296 34.85 37.49C34.7592 37.3864 34.6467 37.3041 34.5206 37.2488C34.3944 37.1935 34.2577 37.1666 34.12 37.17C33.9795 37.1677 33.8401 37.1949 33.7109 37.2501C33.5816 37.3052 33.4655 37.387 33.37 37.49C33.1767 37.7273 33.0711 38.024 33.0711 38.33C33.0711 38.636 33.1767 38.9327 33.37 39.17C33.462 39.278 33.5772 39.3639 33.7071 39.421C33.837 39.4782 33.9782 39.5052 34.12 39.5C34.262 39.5067 34.4036 39.4804 34.5337 39.4231C34.6639 39.3659 34.7789 39.2792 34.87 39.17H34.85Z" fill="#495565"/>
<path d="M40.18 40C39.8595 39.8241 39.5958 39.5605 39.42 39.24C39.236 38.903 39.143 38.5238 39.15 38.14V35.33H40V38.06C39.9969 38.3071 40.0554 38.551 40.17 38.77C40.2683 38.9723 40.4219 39.1426 40.6131 39.2612C40.8042 39.3798 41.0251 39.4418 41.25 39.44C41.4795 39.4433 41.705 39.3809 41.9 39.26C42.0885 39.1396 42.2406 38.9702 42.34 38.77C42.4512 38.5502 42.5062 38.3062 42.5 38.06V35.33H43.37V38.09C43.3771 38.4739 43.2841 38.853 43.1 39.19C42.9283 39.5101 42.6679 39.774 42.35 39.95C42.0156 40.1415 41.6353 40.2383 41.25 40.23C40.8792 40.2502 40.5098 40.1708 40.18 40Z" fill="#495565"/>
<path d="M45 40.08C44.7291 39.9949 44.4753 39.8629 44.25 39.69L44.62 39.13C44.8079 39.2698 45.0173 39.3778 45.24 39.45C45.4377 39.5273 45.6478 39.568 45.86 39.57C46.0174 39.5768 46.1735 39.5387 46.31 39.46C46.36 39.4278 46.4009 39.3833 46.4289 39.3308C46.4569 39.2783 46.471 39.2195 46.47 39.16C46.4711 39.0982 46.4549 39.0373 46.423 38.9842C46.3912 38.9312 46.3451 38.8882 46.29 38.86C46.1025 38.7776 45.9085 38.7107 45.71 38.66C45.4643 38.5984 45.2236 38.5182 44.99 38.42C44.8227 38.3502 44.6775 38.2361 44.57 38.09C44.464 37.938 44.4113 37.7552 44.42 37.57C44.4192 37.3643 44.4782 37.1628 44.59 36.99C44.7117 36.8102 44.8815 36.6681 45.08 36.58C45.3042 36.4838 45.5461 36.4361 45.79 36.44C46.0316 36.4417 46.2713 36.4822 46.5 36.56C46.7364 36.6324 46.9618 36.7367 47.17 36.87L46.84 37.45C46.6714 37.3414 46.49 37.2541 46.3 37.19C46.1377 37.1252 45.9648 37.0913 45.79 37.09C45.6455 37.0853 45.5028 37.1236 45.38 37.2C45.3301 37.23 45.2891 37.2726 45.261 37.3235C45.2329 37.3744 45.2187 37.4319 45.22 37.49C45.2168 37.5258 45.2224 37.5619 45.2364 37.595C45.2503 37.6281 45.2722 37.6573 45.3 37.68C45.3598 37.7357 45.4317 37.7768 45.51 37.8L45.99 37.96C46.2143 38.0197 46.4347 38.0932 46.65 38.18C46.817 38.2552 46.9642 38.3682 47.08 38.51C47.2047 38.6732 47.2683 38.8749 47.26 39.08C47.2659 39.2395 47.2336 39.398 47.1658 39.5424C47.0979 39.6868 46.9965 39.8128 46.87 39.91C46.5825 40.1269 46.23 40.2397 45.87 40.23C45.5734 40.2325 45.2787 40.1817 45 40.08Z" fill="#495565"/>
<path d="M50.23 39.44C50.4022 39.3818 50.5593 39.2862 50.69 39.16L51.18 39.67C50.9897 39.8471 50.7651 39.9833 50.52 40.07C50.2626 40.174 49.9877 40.2283 49.71 40.23C49.3598 40.2426 49.0132 40.1559 48.71 39.98C48.4222 39.8207 48.1836 39.5855 48.02 39.3C47.8422 38.9973 47.7521 38.651 47.76 38.3C47.7447 37.9495 47.8315 37.6021 48.01 37.3C48.1635 37.0163 48.3964 36.7835 48.68 36.63C48.9643 36.4615 49.2896 36.375 49.62 36.38C49.8835 36.3606 50.1476 36.4071 50.3885 36.5154C50.6294 36.6236 50.8396 36.7902 51 37C51.3368 37.4516 51.5033 38.0077 51.47 38.57H48.67C48.7013 38.8371 48.8251 39.0848 49.02 39.27C49.211 39.4438 49.4619 39.537 49.72 39.53C49.8939 39.5287 50.0662 39.4982 50.23 39.44ZM49 37.37C48.8052 37.5374 48.6745 37.7671 48.63 38.02H50.63C50.5996 37.7756 50.4909 37.5475 50.32 37.37C50.2354 37.2884 50.135 37.225 50.0249 37.1837C49.9148 37.1424 49.7975 37.1242 49.68 37.13C49.4314 37.1227 49.189 37.2082 49 37.37Z" fill="#495565"/>
<path d="M53.64 36.65C53.8753 36.5085 54.1455 36.4358 54.42 36.44V37.17C54.079 37.1526 53.7438 37.2631 53.48 37.48C53.3612 37.5843 53.2671 37.7139 53.2048 37.8592C53.1426 38.0046 53.1136 38.162 53.12 38.32V40.14H52.27V36.52H53.12V37.21C53.2323 36.9747 53.4137 36.7794 53.64 36.65Z" fill="#495565"/>
<path d="M55.6799 40.08C55.4091 39.9948 55.1552 39.8628 54.9299 39.69L55.2899 39.13C55.479 39.2677 55.6881 39.3756 55.9099 39.45C56.1079 39.5264 56.3178 39.567 56.5299 39.57C56.6873 39.5767 56.8434 39.5386 56.9799 39.46C57.0311 39.4282 57.0735 39.384 57.1032 39.3316C57.1329 39.2792 57.149 39.2202 57.1499 39.16C57.149 39.0973 57.1307 39.0361 57.0972 38.9832C57.0637 38.9302 57.0162 38.8876 56.9599 38.86C56.7731 38.7758 56.5789 38.7089 56.3799 38.66C56.1374 38.5985 55.9 38.5183 55.6699 38.42C55.5026 38.3501 55.3574 38.236 55.2499 38.09C55.1411 37.9388 55.0849 37.7561 55.0899 37.57C55.0884 37.3626 55.1513 37.16 55.2699 36.99C55.3855 36.8085 55.5527 36.6658 55.7499 36.58C55.9743 36.4846 56.2161 36.4369 56.4599 36.44C56.7016 36.4399 56.9416 36.4805 57.1699 36.56C57.4095 36.6323 57.6382 36.7366 57.8499 36.87L57.5099 37.45C57.3448 37.3415 57.1667 37.2542 56.9799 37.19C56.8142 37.125 56.6379 37.0911 56.4599 37.09C56.3156 37.0869 56.1734 37.1251 56.0499 37.2C56.0014 37.2313 55.9614 37.2742 55.9335 37.3248C55.9055 37.3754 55.8906 37.4322 55.8899 37.49C55.8896 37.5254 55.8965 37.5606 55.9103 37.5932C55.9241 37.6259 55.9443 37.6554 55.9699 37.68C56.0321 37.7376 56.1078 37.7789 56.1899 37.8L56.6599 37.96C56.8847 38.018 57.1052 38.0915 57.3199 38.18C57.4883 38.2576 57.6383 38.3701 57.7599 38.51C57.8846 38.6731 57.9483 38.8748 57.9399 39.08C57.9447 39.2402 57.9108 39.3993 57.8412 39.5438C57.7716 39.6882 57.6683 39.8138 57.5399 39.91C57.2528 40.1275 56.9 40.2404 56.5399 40.23C56.2467 40.2312 55.9555 40.1804 55.6799 40.08Z" fill="#495565"/>
<path fill-rule="evenodd" clip-rule="evenodd" d="M49.5099 49C48.4531 49.0091 47.4247 49.3431 46.5642 49.9567C45.7037 50.5703 45.0529 51.4338 44.7 52.43C44.9611 52.6193 45.2115 52.8229 45.45 53.04C45.5992 52.4936 45.8566 51.9827 46.2071 51.5376C46.5575 51.0925 46.9937 50.7224 47.4899 50.4491C47.9861 50.1759 48.5321 50.005 49.0955 49.9468C49.659 49.8885 50.2284 49.944 50.77 50.11C51.8684 50.4767 52.7801 51.258 53.3107 52.2874C53.8412 53.3167 53.9486 54.5126 53.61 55.62C53.4595 56.167 53.201 56.6783 52.8498 57.1238C52.4985 57.5693 52.0617 57.94 51.5649 58.214C51.0682 58.488 50.5216 58.6598 49.9574 58.7192C49.3933 58.7786 48.8229 58.7245 48.2799 58.56L47.93 58.43V58.75C47.9449 58.9697 47.9449 59.1903 47.93 59.41C48.5785 59.6181 49.262 59.6947 49.9405 59.6353C50.619 59.5759 51.2788 59.3817 51.8813 59.0642C52.4838 58.7466 53.0169 58.312 53.4494 57.7859C53.8819 57.2597 54.205 56.6526 54.4 56C54.8296 54.6667 54.7232 53.2186 54.1035 51.9623C53.4838 50.7061 52.3994 49.7405 51.08 49.27C50.5712 49.0956 50.0377 49.0044 49.5 49H49.5099Z" fill="#218FCF"/>
<path fill-rule="evenodd" clip-rule="evenodd" d="M32.7399 58.74V58.53C32.3206 58.6695 31.8817 58.7404 31.4399 58.74C30.2703 58.74 29.1486 58.2754 28.3215 57.4484C27.4945 56.6213 27.0299 55.4996 27.0299 54.33C27.0299 53.1604 27.4945 52.0387 28.3215 51.2117C29.1486 50.3847 30.2703 49.92 31.4399 49.92C32.3265 49.9285 33.1885 50.2134 33.9055 50.735C34.6225 51.2566 35.1589 51.989 35.4399 52.83C35.6857 52.629 35.9428 52.442 36.2099 52.27C35.9635 51.6306 35.5914 51.0472 35.1154 50.5543C34.6394 50.0613 34.0693 49.669 33.439 49.4004C32.8086 49.1318 32.1307 48.9925 31.4455 48.9907C30.7602 48.989 30.0816 49.1247 29.4499 49.39C28.1643 49.9631 27.1532 51.0154 26.632 52.3229C26.1109 53.6305 26.1209 55.0898 26.6599 56.39C27.0331 57.3537 27.6876 58.1828 28.5383 58.7695C29.3889 59.3563 30.3965 59.6735 31.4299 59.68C31.8793 59.6801 32.3266 59.6195 32.7599 59.5C32.7599 59.24 32.7399 59 32.7399 58.74Z" fill="#218FCF"/>
<path fill-rule="evenodd" clip-rule="evenodd" d="M57.8299 64.33C56.7573 63.1486 55.4382 62.2174 53.9659 61.6023C52.4936 60.9871 50.9041 60.703 49.3099 60.77C48.6408 60.7709 47.9726 60.8177 47.3099 60.91C47.2004 61.2553 47.0598 61.59 46.8899 61.91C47.6813 61.762 48.4848 61.6883 49.2899 61.69C50.7278 61.622 52.1631 61.8696 53.4951 62.4155C54.8271 62.9615 56.0233 63.7924 56.9999 64.85V74H57.9999V64.45L57.8299 64.33Z" fill="#218FCF"/>
<path fill-rule="evenodd" clip-rule="evenodd" d="M33.26 60.85C32.76 60.8 32.26 60.77 31.76 60.77C30.1449 60.7021 28.5344 60.9852 27.0393 61.5998C25.5443 62.2144 24.2003 63.1458 23.1 64.33L22.96 64.46V74H23.9V64.85C24.908 63.7898 26.1329 62.9596 27.4911 62.4159C28.8493 61.8723 30.3088 61.6281 31.77 61.7C32.3992 61.7015 33.0275 61.7483 33.65 61.84C33.4909 61.5222 33.3604 61.1909 33.26 60.85Z" fill="#218FCF"/>
<path fill-rule="evenodd" clip-rule="evenodd" d="M40.46 53.05C39.3331 53.052 38.232 53.388 37.296 54.0155C36.36 54.6431 35.6309 55.534 35.201 56.5757C34.7712 57.6174 34.6597 58.7632 34.8808 59.8682C35.1018 60.9732 35.6455 61.9879 36.443 62.7841C37.2406 63.5802 38.2563 64.1221 39.3617 64.3412C40.4671 64.5604 41.6127 64.4469 42.6536 64.0152C43.6946 63.5835 44.5842 62.8529 45.2101 61.9158C45.836 60.9786 46.17 59.877 46.17 58.75C46.1674 57.2374 45.5646 55.7876 44.4941 54.7189C43.4235 53.6503 41.9727 53.05 40.46 53.05ZM40.46 53.9701C41.4074 53.9701 42.3335 54.251 43.1212 54.7773C43.9089 55.3036 44.5229 56.0517 44.8854 56.927C45.248 57.8023 45.3428 58.7654 45.158 59.6945C44.9732 60.6237 44.517 61.4772 43.8471 62.1471C43.1772 62.817 42.3237 63.2732 41.3945 63.458C40.4653 63.6428 39.5022 63.548 38.627 63.1854C37.7517 62.8229 37.0036 62.2089 36.4773 61.4212C35.951 60.6335 35.67 59.7074 35.67 58.76C35.6779 57.4949 36.1861 56.2842 37.0835 55.3924C37.981 54.5006 39.1948 54 40.46 54" fill="#1E4489"/>
<path fill-rule="evenodd" clip-rule="evenodd" d="M40.73 66.84C39.0905 66.7985 37.4614 67.1121 35.9545 67.7594C34.4476 68.4067 33.0986 69.3723 32 70.59V79C32.0014 79.2735 32.1045 79.5367 32.2894 79.7382C32.4743 79.9397 32.7276 80.0651 33 80.09H48.28C48.5483 80.055 48.7956 79.9265 48.9785 79.7271C49.1614 79.5278 49.2682 79.2703 49.28 79V70.63C48.2026 69.4311 46.8839 68.4737 45.4104 67.8205C43.9368 67.1673 42.3418 66.8332 40.73 66.84ZM40.73 65.93C42.5316 65.9269 44.3124 66.3152 45.9492 67.068C47.586 67.8208 49.0398 68.9201 50.21 70.29V79C50.1957 79.5174 49.9871 80.0104 49.6258 80.381C49.2644 80.7516 48.7768 80.9726 48.26 81H33C32.4696 81 31.9609 80.7893 31.5858 80.4142C31.2107 80.0392 31 79.5304 31 79V70.27C32.1866 68.8744 33.6693 67.7608 35.3403 67.0101C37.0113 66.2594 38.8286 65.8904 40.66 65.93" fill="#1E4489"/>
<path fill-rule="evenodd" clip-rule="evenodd" d="M130.8 49C128.569 49.0536 126.407 49.7844 124.602 51.0954C122.796 52.4064 121.432 54.2355 120.69 56.34C119.507 55.7778 118.219 55.4711 116.91 55.44H116.68C114.542 55.4456 112.471 56.1859 110.815 57.5368C109.158 58.8877 108.016 60.7671 107.58 62.86C106.98 62.6939 106.362 62.6065 105.74 62.6H105.56C103.634 62.6069 101.786 63.3615 100.405 64.7047C99.0245 66.0479 98.2195 67.8748 98.1599 69.8C98.2173 71.8536 99.0452 73.8105 100.479 75.2816C101.913 76.7527 103.848 77.6303 105.9 77.74H106.77C111.7 77.74 135.1 77.64 139.97 77.64H140.97C145.13 77.64 148.58 73.74 148.69 68.88C148.8 64.02 145.69 60.15 141.69 59.77C141.16 53.82 136.69 49.13 131.05 49H130.8ZM130.8 50.33H131C135.84 50.44 139.86 54.56 140.35 59.9L140.45 60.99L141.54 61.09C144.9 61.41 147.45 64.8 147.35 68.86C147.25 72.92 144.35 76.32 140.96 76.32H139.96C137.53 76.32 130.38 76.32 123.43 76.32C116.48 76.32 109.23 76.32 106.76 76.32H105.92C104.222 76.2149 102.624 75.4839 101.435 74.2684C100.245 73.0529 99.5485 71.4394 99.4799 69.74C99.524 68.1561 100.182 66.6512 101.314 65.543C102.447 64.4347 103.965 63.8098 105.55 63.8H105.71C106.217 63.8046 106.721 63.8752 107.21 64.01L108.57 64.39L108.86 63.01C109.248 61.2224 110.232 59.6199 111.652 58.466C113.071 57.312 114.841 56.6751 116.67 56.66H116.86C117.982 56.6813 119.086 56.9403 120.1 57.42L121.39 58.05L121.93 56.72C122.573 54.8665 123.765 53.2527 125.348 52.0934C126.931 50.934 128.829 50.2841 130.79 50.23" fill="#1E4489"/>
<path d="M248.36 34.02H196.08V92.67H248.36V34.02Z" fill="white" stroke="#495565" stroke-width="0.52" stroke-miterlimit="10"/>
<path d="M222.4 65.41H231.75" stroke="#4A5565" stroke-width="0.38" stroke-miterlimit="10" stroke-linecap="round"/>
<path fill-rule="evenodd" clip-rule="evenodd" d="M215.67 70.3601H222.27V60.4601H215.55L212.47 63.9001V67.0001L215.67 70.3601ZM222.55 70.6401H215.55L212.19 67.0801V63.7901L215.42 60.1801H222.54L222.55 70.6401Z" fill="#1E4489"/>
<path fill-rule="evenodd" clip-rule="evenodd" d="M217.92 62.33C217.922 62.4949 217.875 62.6568 217.784 62.7948C217.694 62.9328 217.564 63.0407 217.412 63.1048C217.26 63.1688 217.092 63.1861 216.931 63.1544C216.769 63.1227 216.62 63.0435 216.503 62.9268C216.386 62.8101 216.307 62.6613 216.275 62.4994C216.244 62.3374 216.261 62.1697 216.325 62.0177C216.389 61.8656 216.497 61.7361 216.635 61.6457C216.773 61.5552 216.935 61.508 217.1 61.5099C217.208 61.5099 217.314 61.5312 217.414 61.5724C217.513 61.6136 217.604 61.674 217.68 61.7501C217.756 61.8263 217.816 61.9167 217.858 62.0161C217.899 62.1156 217.92 62.2223 217.92 62.33Z" fill="#218FCF"/>
<path fill-rule="evenodd" clip-rule="evenodd" d="M217.92 65.63C217.922 65.795 217.875 65.9568 217.784 66.0948C217.694 66.2329 217.564 66.3408 217.412 66.4048C217.26 66.4689 217.092 66.4862 216.931 66.4545C216.769 66.4228 216.62 66.3435 216.503 66.2268C216.386 66.1102 216.307 65.9614 216.275 65.7994C216.244 65.6375 216.261 65.4698 216.325 65.3177C216.389 65.1657 216.497 65.0361 216.635 64.9457C216.773 64.8553 216.935 64.808 217.1 64.81C217.317 64.8126 217.524 64.8998 217.677 65.053C217.83 65.2063 217.917 65.4133 217.92 65.63Z" fill="#218FCF"/>
<path fill-rule="evenodd" clip-rule="evenodd" d="M214.73 65.63C214.732 65.795 214.685 65.9568 214.594 66.0948C214.504 66.2329 214.374 66.3408 214.222 66.4048C214.07 66.4689 213.903 66.4862 213.741 66.4545C213.579 66.4228 213.43 66.3435 213.313 66.2268C213.196 66.1102 213.117 65.9614 213.086 65.7994C213.054 65.6375 213.071 65.4698 213.135 65.3177C213.199 65.1657 213.307 65.0361 213.445 64.9457C213.583 64.8553 213.745 64.808 213.91 64.81C214.127 64.8126 214.334 64.8998 214.487 65.053C214.64 65.2063 214.727 65.4133 214.73 65.63Z" fill="#218FCF"/>
<path fill-rule="evenodd" clip-rule="evenodd" d="M217.92 68.8201C217.922 68.9851 217.875 69.1469 217.784 69.2849C217.694 69.4229 217.564 69.5308 217.412 69.5949C217.26 69.659 217.092 69.6762 216.931 69.6445C216.769 69.6128 216.62 69.5336 216.503 69.4169C216.386 69.3002 216.307 69.1514 216.275 68.9895C216.244 68.8276 216.261 68.6599 216.325 68.5078C216.389 68.3557 216.497 68.2262 216.635 68.1358C216.773 68.0453 216.935 67.9981 217.1 68.0001C217.317 68.0027 217.524 68.0899 217.677 68.2431C217.83 68.3963 217.917 68.6034 217.92 68.8201Z" fill="#218FCF"/>
<path d="M216.167 63.2973L214.908 64.5559L215.099 64.7468L216.358 63.4882L216.167 63.2973Z" fill="#1E4489"/>
<path d="M215.104 66.5594L214.913 66.7504L216.172 68.009L216.363 67.8181L215.104 66.5594Z" fill="#1E4489"/>
<path d="M216.16 65.47H215.17V65.69H216.16V65.47Z" fill="#1E4489"/>
<path fill-rule="evenodd" clip-rule="evenodd" d="M220.38 63.16L221.66 62.38L220.38 61.62V62.1H218.36V62.67H220.38V63.16Z" fill="#1E4489"/>
<path fill-rule="evenodd" clip-rule="evenodd" d="M220.38 65.2901H218.36V65.8601H220.38V66.3501L221.66 65.5801L220.38 64.8101V65.2901Z" fill="#1E4489"/>
<path fill-rule="evenodd" clip-rule="evenodd" d="M220.38 68.56H218.36V69.09H220.38V69.54L221.66 68.82L220.38 68.11V68.56Z" fill="#1E4489"/>
<path fill-rule="evenodd" clip-rule="evenodd" d="M241.26 60.2401H232.61C232.507 60.2401 232.404 60.2606 232.309 60.3004C232.214 60.3402 232.127 60.3985 232.055 60.472C231.982 60.5455 231.925 60.6327 231.886 60.7285C231.848 60.8243 231.829 60.9268 231.83 61.0301V69.7901C231.829 69.8933 231.848 69.9958 231.886 70.0916C231.925 70.1874 231.982 70.2746 232.055 70.3481C232.127 70.4216 232.214 70.4799 232.309 70.5197C232.404 70.5596 232.507 70.5801 232.61 70.5801H241.28C241.383 70.5801 241.485 70.5596 241.581 70.5197C241.676 70.4799 241.762 70.4216 241.835 70.3481C241.908 70.2746 241.965 70.1874 242.003 70.0916C242.042 69.9958 242.061 69.8933 242.06 69.7901V61.0001C242.052 60.794 241.964 60.5992 241.815 60.4572C241.665 60.3152 241.466 60.2373 241.26 60.2401ZM241.26 60.5101C241.328 60.5101 241.396 60.5235 241.459 60.5496C241.522 60.5758 241.579 60.6141 241.628 60.6624C241.676 60.7106 241.714 60.768 241.74 60.8311C241.766 60.8942 241.78 60.9618 241.78 61.0301V69.7901C241.78 69.928 241.725 70.0602 241.628 70.1578C241.53 70.2553 241.398 70.3101 241.26 70.3101H232.61C232.472 70.3101 232.34 70.2553 232.242 70.1578C232.145 70.0602 232.09 69.928 232.09 69.7901V61.0001C232.09 60.8621 232.145 60.7299 232.242 60.6324C232.34 60.5348 232.472 60.4801 232.61 60.4801H241.26" fill="#1E4489"/>
<path d="M234.33 62.74H234.11V64.16H234.33V62.74Z" fill="#218FCF"/>
<path d="M234.88 62.74H234.66V64.16H234.88V62.74Z" fill="#218FCF"/>
<path d="M235.42 62.74H235.2V64.16H235.42V62.74Z" fill="#218FCF"/>
<path fill-rule="evenodd" clip-rule="evenodd" d="M233.72 64.54H235.81V62.37H233.72V64.54ZM236.07 64.81H233.46V62.09H236.07V64.81Z" fill="#218FCF"/>
<path d="M238.69 62.74H238.47V64.16H238.69V62.74Z" fill="#218FCF"/>
<path d="M239.23 62.74H239.01V64.16H239.23V62.74Z" fill="#218FCF"/>
<path d="M239.78 62.74H239.56V64.16H239.78V62.74Z" fill="#218FCF"/>
<path fill-rule="evenodd" clip-rule="evenodd" d="M238 64.54H240.17V62.37H238V64.54ZM240.45 64.81H237.73V62.09H240.45V64.81Z" fill="#218FCF"/>
<path d="M234.33 66.88H234.11V68.19H234.33V66.88Z" fill="#218FCF"/>
<path d="M234.88 66.88H234.66V68.19H234.88V66.88Z" fill="#218FCF"/>
<path d="M235.42 66.88H235.2V68.19H235.42V66.88Z" fill="#218FCF"/>
<path fill-rule="evenodd" clip-rule="evenodd" d="M233.72 68.68H235.81V66.5H233.72V68.68ZM236.07 68.95H233.46V66.23H236.07V68.95Z" fill="#218FCF"/>
<path d="M238.69 66.88H238.47V68.19H238.69V66.88Z" fill="#218FCF"/>
<path d="M239.23 66.88H239.01V68.19H239.23V66.88Z" fill="#218FCF"/>
<path d="M239.78 66.88H239.56V68.19H239.78V66.88Z" fill="#218FCF"/>
<path fill-rule="evenodd" clip-rule="evenodd" d="M238 68.68H240.17V66.5H238V68.68ZM240.45 68.95H237.73V66.23H240.45V68.95Z" fill="#218FCF"/>
<path d="M222.55 82.6899H231.89" stroke="#4A5565" stroke-width="0.38" stroke-miterlimit="10" stroke-linecap="round"/>
<path fill-rule="evenodd" clip-rule="evenodd" d="M215.67 87.65H222.27V77.74H215.55L212.47 81.18V84.25L215.67 87.65ZM222.55 87.92H215.55L212.19 84.36V81.08L215.42 77.47H222.54L222.55 87.92Z" fill="#1E4489"/>
<path fill-rule="evenodd" clip-rule="evenodd" d="M217.92 79.61C217.922 79.775 217.875 79.9368 217.784 80.0748C217.694 80.2128 217.564 80.3208 217.412 80.3848C217.26 80.4489 217.092 80.4662 216.931 80.4344C216.769 80.4027 216.62 80.3235 216.503 80.2068C216.386 80.0901 216.307 79.9413 216.275 79.7794C216.244 79.6175 216.261 79.4498 216.325 79.2977C216.389 79.1456 216.497 79.0161 216.635 78.9257C216.773 78.8352 216.935 78.788 217.1 78.79C217.317 78.7926 217.524 78.8798 217.677 79.033C217.83 79.1862 217.917 79.3933 217.92 79.61Z" fill="#218FCF"/>
<path fill-rule="evenodd" clip-rule="evenodd" d="M217.92 82.91C217.922 83.075 217.875 83.2369 217.784 83.3749C217.694 83.5129 217.564 83.6208 217.412 83.6849C217.26 83.7489 217.092 83.7662 216.931 83.7345C216.769 83.7028 216.62 83.6235 216.503 83.5069C216.386 83.3902 216.307 83.2414 216.275 83.0795C216.244 82.9175 216.261 82.7498 216.325 82.5978C216.389 82.4457 216.497 82.3162 216.635 82.2257C216.773 82.1353 216.935 82.088 217.1 82.09C217.317 82.0926 217.524 82.1798 217.677 82.3331C217.83 82.4863 217.917 82.6934 217.92 82.91Z" fill="#218FCF"/>
<path fill-rule="evenodd" clip-rule="evenodd" d="M214.73 82.91C214.732 83.075 214.685 83.2369 214.594 83.3749C214.504 83.5129 214.374 83.6208 214.222 83.6849C214.07 83.7489 213.903 83.7662 213.741 83.7345C213.579 83.7028 213.43 83.6235 213.313 83.5069C213.196 83.3902 213.117 83.2414 213.086 83.0795C213.054 82.9175 213.071 82.7498 213.135 82.5978C213.199 82.4457 213.307 82.3162 213.445 82.2257C213.583 82.1353 213.745 82.088 213.91 82.09C214.127 82.0926 214.334 82.1798 214.487 82.3331C214.64 82.4863 214.727 82.6934 214.73 82.91Z" fill="#218FCF"/>
<path fill-rule="evenodd" clip-rule="evenodd" d="M217.92 86.11C217.92 86.2746 217.871 86.4354 217.779 86.5721C217.688 86.7088 217.558 86.8152 217.405 86.8777C217.253 86.9402 217.086 86.9561 216.924 86.9232C216.763 86.8904 216.615 86.8103 216.5 86.6932C216.384 86.5762 216.306 86.4273 216.275 86.2657C216.244 86.104 216.262 85.9368 216.326 85.7854C216.39 85.6339 216.498 85.5049 216.636 85.415C216.774 85.325 216.935 85.278 217.1 85.28C217.209 85.28 217.316 85.3015 217.416 85.3433C217.516 85.3852 217.607 85.4465 217.683 85.5237C217.76 85.6009 217.82 85.6925 217.86 85.7931C217.901 85.8937 217.921 86.0014 217.92 86.11Z" fill="#218FCF"/>
<path d="M216.173 80.5831L214.914 81.8418L215.105 82.0327L216.364 80.7741L216.173 80.5831Z" fill="#1E4489"/>
<path d="M215.103 83.8483L214.912 84.0392L216.171 85.2978L216.362 85.1069L215.103 83.8483Z" fill="#1E4489"/>
<path d="M216.16 82.75H215.17V82.97H216.16V82.75Z" fill="#1E4489"/>
<path fill-rule="evenodd" clip-rule="evenodd" d="M220.38 80.44L221.66 79.67L220.38 78.9V79.38H218.36V79.95H220.38V80.44Z" fill="#1E4489"/>
<path fill-rule="evenodd" clip-rule="evenodd" d="M220.38 82.57H218.36V83.14H220.38V83.63L221.66 82.86L220.38 82.09V82.57Z" fill="#1E4489"/>
<path fill-rule="evenodd" clip-rule="evenodd" d="M220.38 85.84H218.36V86.37H220.38V86.82L221.66 86.11L220.38 85.39V85.84Z" fill="#1E4489"/>
<path fill-rule="evenodd" clip-rule="evenodd" d="M241.26 77.52H232.61C232.506 77.5213 232.404 77.5431 232.308 77.584C232.213 77.6249 232.127 77.6842 232.054 77.7585C231.982 77.8327 231.925 77.9206 231.886 78.0169C231.848 78.1133 231.829 78.2163 231.83 78.32V87.07C231.829 87.1738 231.848 87.2768 231.886 87.3731C231.925 87.4695 231.982 87.5573 232.054 87.6316C232.127 87.7059 232.213 87.7652 232.308 87.8061C232.404 87.847 232.506 87.8687 232.61 87.87H241.28C241.384 87.8687 241.486 87.847 241.581 87.8061C241.677 87.7652 241.763 87.7059 241.836 87.6316C241.908 87.5573 241.965 87.4695 242.004 87.3731C242.042 87.2768 242.061 87.1738 242.06 87.07V78.32C242.06 78.1078 241.976 77.9044 241.826 77.7543C241.676 77.6043 241.472 77.52 241.26 77.52ZM241.26 77.79C241.399 77.7926 241.531 77.8496 241.628 77.9487C241.725 78.0479 241.78 78.1812 241.78 78.32V87.07C241.781 87.1387 241.769 87.2069 241.743 87.2706C241.717 87.3343 241.679 87.3922 241.631 87.4408C241.582 87.4893 241.524 87.5276 241.46 87.5532C241.397 87.5789 241.329 87.5914 241.26 87.59H232.61C232.472 87.59 232.34 87.5352 232.242 87.4377C232.145 87.3402 232.09 87.2079 232.09 87.07V78.32C232.089 78.2509 232.101 78.1822 232.127 78.118C232.152 78.0537 232.19 77.9952 232.239 77.9458C232.287 77.8965 232.345 77.8573 232.409 77.8305C232.472 77.8038 232.541 77.79 232.61 77.79H241.26Z" fill="#1E4489"/>
<path d="M234.33 80.03H234.11V81.45H234.33V80.03Z" fill="#218FCF"/>
<path d="M234.88 80.03H234.66V81.45H234.88V80.03Z" fill="#218FCF"/>
<path d="M235.42 80.03H235.2V81.45H235.42V80.03Z" fill="#218FCF"/>
<path fill-rule="evenodd" clip-rule="evenodd" d="M233.72 81.82H235.81V79.65H233.72V81.82ZM236.07 82.1H233.46V79.37H236.07V82.1Z" fill="#218FCF"/>
<path d="M238.69 80.03H238.47V81.45H238.69V80.03Z" fill="#218FCF"/>
<path d="M239.23 80.03H239.01V81.45H239.23V80.03Z" fill="#218FCF"/>
<path d="M239.78 80.03H239.56V81.45H239.78V80.03Z" fill="#218FCF"/>
<path fill-rule="evenodd" clip-rule="evenodd" d="M238 81.82H240.17V79.65H238V81.82ZM240.45 82.1H237.73V79.37H240.45V82.1Z" fill="#218FCF"/>
<path d="M234.33 84.16H234.11V85.47H234.33V84.16Z" fill="#218FCF"/>
<path d="M234.88 84.16H234.66V85.47H234.88V84.16Z" fill="#218FCF"/>
<path d="M235.42 84.16H235.2V85.47H235.42V84.16Z" fill="#218FCF"/>
<path fill-rule="evenodd" clip-rule="evenodd" d="M233.72 86H235.81V83.79H233.72V86ZM236.07 86.27H233.46V83.51H236.07V86.27Z" fill="#218FCF"/>
<path d="M238.69 84.16H238.47V85.47H238.69V84.16Z" fill="#218FCF"/>
<path d="M239.23 84.16H239.01V85.47H239.23V84.16Z" fill="#218FCF"/>
<path d="M239.78 84.16H239.56V85.47H239.78V84.16Z" fill="#218FCF"/>
<path fill-rule="evenodd" clip-rule="evenodd" d="M238 86H240.17V83.79H238V86ZM240.45 86.27H237.73V83.51H240.45V86.27Z" fill="#218FCF"/>
<path d="M222.53 47.92H231.88" stroke="#4A5565" stroke-width="0.38" stroke-miterlimit="10" stroke-linecap="round"/>
<path fill-rule="evenodd" clip-rule="evenodd" d="M215.67 52.8699H222.27V42.9999H215.55L212.47 46.4399V49.5099L215.67 52.8699ZM222.55 53.1499H215.55L212.19 49.5899V46.2999L215.42 42.6899H222.54L222.55 53.1499Z" fill="#1E4489"/>
<path fill-rule="evenodd" clip-rule="evenodd" d="M217.92 44.84C217.922 45.005 217.875 45.1668 217.784 45.3048C217.694 45.4428 217.564 45.5507 217.412 45.6148C217.26 45.6789 217.092 45.6961 216.931 45.6644C216.769 45.6327 216.62 45.5535 216.503 45.4368C216.386 45.3201 216.307 45.1713 216.275 45.0094C216.244 44.8475 216.261 44.6797 216.325 44.5277C216.389 44.3756 216.497 44.2461 216.635 44.1557C216.773 44.0652 216.935 44.018 217.1 44.02C217.317 44.02 217.526 44.1064 217.68 44.2601C217.834 44.4139 217.92 44.6225 217.92 44.84Z" fill="#218FCF"/>
<path fill-rule="evenodd" clip-rule="evenodd" d="M217.92 48.14C217.922 48.305 217.875 48.4668 217.784 48.6049C217.694 48.7429 217.564 48.8508 217.412 48.9149C217.26 48.9789 217.092 48.9962 216.931 48.9645C216.769 48.9328 216.62 48.8535 216.503 48.7368C216.386 48.6202 216.307 48.4714 216.275 48.3094C216.244 48.1475 216.261 47.9798 216.325 47.8277C216.389 47.6757 216.497 47.5461 216.635 47.4557C216.773 47.3653 216.935 47.318 217.1 47.32C217.317 47.3226 217.524 47.4098 217.677 47.563C217.83 47.7163 217.917 47.9233 217.92 48.14Z" fill="#218FCF"/>
<path fill-rule="evenodd" clip-rule="evenodd" d="M214.73 48.14C214.732 48.305 214.685 48.4668 214.594 48.6049C214.504 48.7429 214.374 48.8508 214.222 48.9149C214.07 48.9789 213.903 48.9962 213.741 48.9645C213.579 48.9328 213.43 48.8535 213.313 48.7368C213.196 48.6202 213.117 48.4714 213.086 48.3094C213.054 48.1475 213.071 47.9798 213.135 47.8277C213.199 47.6757 213.307 47.5461 213.445 47.4557C213.583 47.3653 213.745 47.318 213.91 47.32C214.127 47.3226 214.334 47.4098 214.487 47.563C214.64 47.7163 214.727 47.9233 214.73 48.14Z" fill="#218FCF"/>
<path fill-rule="evenodd" clip-rule="evenodd" d="M217.92 51.33C217.922 51.4949 217.875 51.6568 217.784 51.7948C217.694 51.9328 217.564 52.0407 217.412 52.1048C217.26 52.1688 217.092 52.1861 216.931 52.1544C216.769 52.1227 216.62 52.0435 216.503 51.9268C216.386 51.8101 216.307 51.6613 216.275 51.4994C216.244 51.3374 216.261 51.1697 216.325 51.0177C216.389 50.8656 216.497 50.7361 216.635 50.6457C216.773 50.5552 216.935 50.508 217.1 50.5099C217.317 50.5125 217.524 50.5998 217.677 50.753C217.83 50.9062 217.917 51.1133 217.92 51.33Z" fill="#218FCF"/>
<path d="M216.17 45.81L214.911 47.0686L215.102 47.2595L216.36 46.0009L216.17 45.81Z" fill="#1E4489"/>
<path d="M215.107 49.0721L214.916 49.2631L216.175 50.5217L216.366 50.3308L215.107 49.0721Z" fill="#1E4489"/>
<path d="M216.16 47.98H215.17V48.2H216.16V47.98Z" fill="#1E4489"/>
<path fill-rule="evenodd" clip-rule="evenodd" d="M220.38 45.67L221.66 44.9L220.38 44.13V44.61H218.36V45.18H220.38V45.67Z" fill="#1E4489"/>
<path fill-rule="evenodd" clip-rule="evenodd" d="M220.38 47.7999H218.36V48.3699H220.38V48.8599L221.66 48.0899L220.38 47.3199V47.7999Z" fill="#1E4489"/>
<path fill-rule="evenodd" clip-rule="evenodd" d="M220.38 51.07H218.36V51.6H220.38V52.05L221.66 51.33L220.38 50.62V51.07Z" fill="#1E4489"/>
<path fill-rule="evenodd" clip-rule="evenodd" d="M241.26 42.7499H232.61C232.507 42.7499 232.404 42.7704 232.309 42.8103C232.214 42.8501 232.127 42.9084 232.055 42.9819C231.982 43.0554 231.925 43.1426 231.886 43.2384C231.848 43.3342 231.829 43.4367 231.83 43.5399V52.2999C231.829 52.4032 231.848 52.5057 231.886 52.6015C231.925 52.6973 231.982 52.7845 232.055 52.858C232.127 52.9315 232.214 52.9898 232.309 53.0296C232.404 53.0694 232.507 53.0899 232.61 53.0899H241.28C241.383 53.0899 241.485 53.0694 241.581 53.0296C241.676 52.9898 241.762 52.9315 241.835 52.858C241.908 52.7845 241.965 52.6973 242.003 52.6015C242.042 52.5057 242.061 52.4032 242.06 52.2999V43.5399C242.06 43.4354 242.039 43.3318 241.999 43.2353C241.958 43.1388 241.899 43.0513 241.825 42.9778C241.751 42.9043 241.662 42.8463 241.565 42.8072C241.468 42.7681 241.364 42.7486 241.26 42.7499ZM241.26 43.0199C241.328 43.0199 241.396 43.0334 241.459 43.0595C241.522 43.0857 241.579 43.124 241.628 43.1722C241.676 43.2205 241.714 43.2779 241.74 43.3409C241.766 43.404 241.78 43.4717 241.78 43.5399V52.2999C241.78 52.4379 241.725 52.5701 241.628 52.6676C241.53 52.7652 241.398 52.8199 241.26 52.8199H232.61C232.472 52.8199 232.34 52.7652 232.242 52.6676C232.145 52.5701 232.09 52.4379 232.09 52.2999V43.5399C232.09 43.402 232.145 43.2698 232.242 43.1722C232.34 43.0747 232.472 43.0199 232.61 43.0199H241.26Z" fill="#1E4489"/>
<path d="M234.33 45.25H234.11V46.67H234.33V45.25Z" fill="#218FCF"/>
<path d="M234.88 45.25H234.66V46.67H234.88V45.25Z" fill="#218FCF"/>
<path d="M235.42 45.25H235.2V46.67H235.42V45.25Z" fill="#218FCF"/>
<path fill-rule="evenodd" clip-rule="evenodd" d="M233.72 47.05H235.81V44.88H233.72V47.05ZM236.07 47.32H233.46V44.6H236.07V47.32Z" fill="#218FCF"/>
<path d="M238.69 45.25H238.47V46.67H238.69V45.25Z" fill="#218FCF"/>
<path d="M239.23 45.25H239.01V46.67H239.23V45.25Z" fill="#218FCF"/>
<path d="M239.78 45.25H239.56V46.67H239.78V45.25Z" fill="#218FCF"/>
<path fill-rule="evenodd" clip-rule="evenodd" d="M238 47.05H240.17V44.88H238V47.05ZM240.45 47.32H237.73V44.6H240.45V47.32Z" fill="#218FCF"/>
<path d="M234.33 49.39H234.11V50.7H234.33V49.39Z" fill="#218FCF"/>
<path d="M234.88 49.39H234.66V50.7H234.88V49.39Z" fill="#218FCF"/>
<path d="M235.42 49.39H235.2V50.7H235.42V49.39Z" fill="#218FCF"/>
<path fill-rule="evenodd" clip-rule="evenodd" d="M233.72 51.19H235.81V49H233.72V51.19ZM236.07 51.46H233.46V48.74H236.07V51.46Z" fill="#218FCF"/>
<path d="M238.69 49.39H238.47V50.7H238.69V49.39Z" fill="#218FCF"/>
<path d="M239.23 49.39H239.01V50.7H239.23V49.39Z" fill="#218FCF"/>
<path d="M239.78 49.39H239.56V50.7H239.78V49.39Z" fill="#218FCF"/>
<path fill-rule="evenodd" clip-rule="evenodd" d="M238 51.19H240.17V49H238V51.19ZM240.45 51.46H237.73V48.74H240.45V51.46Z" fill="#218FCF"/>
<path d="M210.61 47.83H201.44V82.67H210.61" stroke="#7E8C93" stroke-width="0.75" stroke-miterlimit="10" stroke-dasharray="2 1"/>
<path d="M202.6 65.33H210.61" stroke="#7E8C93" stroke-width="0.75" stroke-miterlimit="10" stroke-dasharray="2 1"/>
<path d="M201.44 46.6V26.83" stroke="#7E8C93" stroke-width="0.75" stroke-miterlimit="10" stroke-dasharray="2 1"/>
<path d="M315.81 34.02H263.53V92.67H315.81V34.02Z" fill="white" stroke="#495565" stroke-width="0.52" stroke-miterlimit="10"/>
<path d="M289.85 65.41H299.2" stroke="#4A5565" stroke-width="0.38" stroke-miterlimit="10" stroke-linecap="round"/>
<path fill-rule="evenodd" clip-rule="evenodd" d="M283.12 70.3601H289.72V60.4601H283L279.92 63.9001V67.0001L283.12 70.3601ZM289.99 70.6401H282.99L279.64 67.0801V63.7901L282.87 60.1801H290L289.99 70.6401Z" fill="#1E4489"/>
<path fill-rule="evenodd" clip-rule="evenodd" d="M285.37 62.33C285.383 62.4459 285.371 62.5633 285.335 62.6744C285.3 62.7855 285.241 62.8878 285.163 62.9747C285.085 63.0616 284.99 63.1312 284.883 63.1788C284.777 63.2263 284.662 63.2509 284.545 63.2509C284.428 63.2509 284.313 63.2263 284.206 63.1788C284.1 63.1312 284.004 63.0616 283.927 62.9747C283.849 62.8878 283.79 62.7855 283.754 62.6744C283.719 62.5633 283.707 62.4459 283.72 62.33C283.742 62.1268 283.839 61.9391 283.991 61.8027C284.143 61.6664 284.34 61.5909 284.545 61.5909C284.749 61.5909 284.946 61.6664 285.099 61.8027C285.251 61.9391 285.347 62.1268 285.37 62.33Z" fill="#218FCF"/>
<path fill-rule="evenodd" clip-rule="evenodd" d="M285.37 65.6301C285.372 65.7946 285.325 65.9561 285.235 66.0939C285.145 66.2317 285.016 66.3396 284.865 66.404C284.713 66.4683 284.546 66.4862 284.384 66.4553C284.223 66.4244 284.074 66.3462 283.957 66.2305C283.84 66.1148 283.759 65.967 283.727 65.8057C283.694 65.6444 283.71 65.477 283.772 65.3248C283.835 65.1725 283.941 65.0423 284.078 64.9507C284.214 64.859 284.375 64.8101 284.54 64.8101C284.758 64.81 284.968 64.8961 285.123 65.0496C285.279 65.2031 285.367 65.4117 285.37 65.6301Z" fill="#218FCF"/>
<path fill-rule="evenodd" clip-rule="evenodd" d="M282.18 65.6301C282.182 65.7946 282.135 65.9561 282.045 66.0939C281.955 66.2317 281.826 66.3396 281.675 66.404C281.523 66.4683 281.356 66.4862 281.194 66.4553C281.033 66.4244 280.884 66.3462 280.767 66.2305C280.65 66.1148 280.57 65.967 280.537 65.8057C280.504 65.6444 280.52 65.477 280.582 65.3248C280.645 65.1725 280.751 65.0423 280.888 64.9507C281.025 64.859 281.185 64.8101 281.35 64.8101C281.568 64.81 281.778 64.8961 281.933 65.0496C282.089 65.2031 282.177 65.4117 282.18 65.6301Z" fill="#218FCF"/>
<path fill-rule="evenodd" clip-rule="evenodd" d="M285.37 68.82C285.372 68.9846 285.325 69.146 285.235 69.2838C285.145 69.4216 285.016 69.5296 284.865 69.5939C284.713 69.6583 284.546 69.6761 284.384 69.6453C284.223 69.6144 284.074 69.5361 283.957 69.4204C283.84 69.3048 283.759 69.1569 283.727 68.9956C283.694 68.8344 283.71 68.667 283.772 68.5147C283.835 68.3625 283.941 68.2323 284.078 68.1406C284.214 68.049 284.375 68 284.54 68C284.758 68 284.968 68.0861 285.123 68.2396C285.279 68.3931 285.367 68.6016 285.37 68.82Z" fill="#218FCF"/>
<path d="M283.614 63.2999L282.355 64.5586L282.546 64.7495L283.805 63.4909L283.614 63.2999Z" fill="#1E4489"/>
<path d="M282.541 66.5722L282.351 66.7631L283.609 68.0217L283.8 67.8308L282.541 66.5722Z" fill="#1E4489"/>
<path d="M283.61 65.47H282.62V65.69H283.61V65.47Z" fill="#1E4489"/>
<path fill-rule="evenodd" clip-rule="evenodd" d="M287.83 63.16L289.11 62.38L287.83 61.62V62.1H285.81V62.67H287.83V63.16Z" fill="#1E4489"/>
<path fill-rule="evenodd" clip-rule="evenodd" d="M287.83 65.2901H285.81V65.8601H287.83V66.3501L289.11 65.5801L287.83 64.8101V65.2901Z" fill="#1E4489"/>
<path fill-rule="evenodd" clip-rule="evenodd" d="M287.83 68.56H285.81V69.09H287.83V69.54L289.11 68.82L287.83 68.11V68.56Z" fill="#1E4489"/>
<path fill-rule="evenodd" clip-rule="evenodd" d="M308.71 60.24H300.06C299.851 60.24 299.65 60.3232 299.501 60.4714C299.353 60.6195 299.27 60.8205 299.27 61.03V69.79C299.27 69.9995 299.353 70.2005 299.501 70.3486C299.65 70.4968 299.851 70.58 300.06 70.58H308.72C308.93 70.58 309.131 70.4968 309.279 70.3486C309.427 70.2005 309.51 69.9995 309.51 69.79V61C309.5 60.7948 309.411 60.6015 309.262 60.46C309.113 60.3185 308.915 60.2397 308.71 60.24ZM308.71 60.51C308.778 60.51 308.846 60.5234 308.909 60.5496C308.972 60.5757 309.029 60.614 309.078 60.6623C309.126 60.7106 309.164 60.7679 309.19 60.831C309.217 60.8941 309.23 60.9617 309.23 61.03V69.79C309.23 69.9279 309.175 70.0602 309.078 70.1577C308.98 70.2552 308.848 70.31 308.71 70.31H300.06C299.922 70.31 299.79 70.2552 299.692 70.1577C299.595 70.0602 299.54 69.9279 299.54 69.79V61C299.54 60.8621 299.595 60.7298 299.692 60.6323C299.79 60.5348 299.922 60.48 300.06 60.48H308.71" fill="#1E4489"/>
<path d="M301.78 62.74H301.56V64.16H301.78V62.74Z" fill="#218FCF"/>
<path d="M302.32 62.74H302.1V64.16H302.32V62.74Z" fill="#218FCF"/>
<path d="M302.87 62.74H302.65V64.16H302.87V62.74Z" fill="#218FCF"/>
<path fill-rule="evenodd" clip-rule="evenodd" d="M301.17 64.54H303.26V62.37H301.17V64.54ZM303.52 64.81H300.91V62.09H303.52V64.81Z" fill="#218FCF"/>
<path d="M306.13 62.74H305.91V64.16H306.13V62.74Z" fill="#218FCF"/>
<path d="M306.68 62.74H306.46V64.16H306.68V62.74Z" fill="#218FCF"/>
<path d="M307.22 62.74H307V64.16H307.22V62.74Z" fill="#218FCF"/>
<path fill-rule="evenodd" clip-rule="evenodd" d="M305.43 64.54H307.6V62.37H305.43V64.54ZM307.87 64.81H305.15V62.09H307.87V64.81Z" fill="#218FCF"/>
<path d="M301.78 66.88H301.56V68.19H301.78V66.88Z" fill="#218FCF"/>
<path d="M302.32 66.88H302.1V68.19H302.32V66.88Z" fill="#218FCF"/>
<path d="M302.87 66.88H302.65V68.19H302.87V66.88Z" fill="#218FCF"/>
<path fill-rule="evenodd" clip-rule="evenodd" d="M301.17 68.68H303.26V66.5H301.17V68.68ZM303.52 68.95H300.91V66.23H303.52V68.95Z" fill="#218FCF"/>
<path d="M306.13 66.88H305.91V68.19H306.13V66.88Z" fill="#218FCF"/>
<path d="M306.68 66.88H306.46V68.19H306.68V66.88Z" fill="#218FCF"/>
<path d="M307.22 66.88H307V68.19H307.22V66.88Z" fill="#218FCF"/>
<path fill-rule="evenodd" clip-rule="evenodd" d="M305.43 68.68H307.6V66.5H305.43V68.68ZM307.87 68.95H305.15V66.23H307.87V68.95Z" fill="#218FCF"/>
<path d="M289.99 82.6899H299.34" stroke="#4A5565" stroke-width="0.38" stroke-miterlimit="10" stroke-linecap="round"/>
<path fill-rule="evenodd" clip-rule="evenodd" d="M283.12 87.65H289.72V77.74H283L279.92 81.18V84.25L283.12 87.65ZM289.99 87.92H282.99L279.64 84.36V81.08L282.87 77.47H290L289.99 87.92Z" fill="#1E4489"/>
<path fill-rule="evenodd" clip-rule="evenodd" d="M285.37 79.61C285.372 79.7746 285.325 79.9361 285.235 80.0739C285.145 80.2117 285.016 80.3196 284.865 80.3839C284.713 80.4483 284.546 80.4662 284.384 80.4353C284.223 80.4044 284.074 80.3261 283.957 80.2105C283.84 80.0948 283.759 79.9469 283.727 79.7857C283.694 79.6244 283.71 79.457 283.772 79.3048C283.835 79.1525 283.941 79.0223 284.078 78.9306C284.214 78.839 284.375 78.7901 284.54 78.79C284.758 78.79 284.968 78.8761 285.123 79.0296C285.279 79.1831 285.367 79.3916 285.37 79.61Z" fill="#218FCF"/>
<path fill-rule="evenodd" clip-rule="evenodd" d="M285.37 82.91C285.372 83.0745 285.325 83.236 285.235 83.3738C285.145 83.5116 285.016 83.6195 284.865 83.6839C284.713 83.7482 284.546 83.7661 284.384 83.7352C284.223 83.7043 284.074 83.6261 283.957 83.5104C283.84 83.3947 283.759 83.2469 283.727 83.0856C283.694 82.9243 283.71 82.7569 283.772 82.6047C283.835 82.4525 283.941 82.3222 284.078 82.2306C284.214 82.1389 284.375 82.09 284.54 82.09C284.758 82.0899 284.968 82.176 285.123 82.3295C285.279 82.483 285.367 82.6916 285.37 82.91Z" fill="#218FCF"/>
<path fill-rule="evenodd" clip-rule="evenodd" d="M282.18 82.91C282.182 83.0745 282.135 83.236 282.045 83.3738C281.955 83.5116 281.826 83.6195 281.675 83.6839C281.523 83.7482 281.356 83.7661 281.194 83.7352C281.033 83.7043 280.884 83.6261 280.767 83.5104C280.65 83.3947 280.57 83.2469 280.537 83.0856C280.504 82.9243 280.52 82.7569 280.582 82.6047C280.645 82.4525 280.751 82.3222 280.888 82.2306C281.025 82.1389 281.185 82.09 281.35 82.09C281.568 82.0899 281.778 82.176 281.933 82.3295C282.089 82.483 282.177 82.6916 282.18 82.91Z" fill="#218FCF"/>
<path fill-rule="evenodd" clip-rule="evenodd" d="M285.37 86.11C285.37 86.2742 285.321 86.4347 285.23 86.5712C285.139 86.7076 285.009 86.814 284.858 86.8769C284.706 86.9397 284.539 86.9561 284.378 86.9241C284.217 86.8921 284.069 86.813 283.953 86.6969C283.837 86.5809 283.758 86.433 283.726 86.272C283.694 86.111 283.71 85.9441 283.773 85.7924C283.836 85.6407 283.942 85.5111 284.079 85.4199C284.215 85.3287 284.376 85.28 284.54 85.28C284.76 85.28 284.971 85.3675 285.127 85.5231C285.283 85.6788 285.37 85.8899 285.37 86.11Z" fill="#218FCF"/>
<path d="M283.62 80.5958L282.361 81.8545L282.552 82.0454L283.811 80.7868L283.62 80.5958Z" fill="#1E4489"/>
<path d="M282.54 83.851L282.349 84.0419L283.608 85.3005L283.799 85.1096L282.54 83.851Z" fill="#1E4489"/>
<path d="M283.61 82.75H282.62V82.97H283.61V82.75Z" fill="#1E4489"/>
<path fill-rule="evenodd" clip-rule="evenodd" d="M287.83 80.44L289.11 79.67L287.83 78.9V79.38H285.81V79.95H287.83V80.44Z" fill="#1E4489"/>
<path fill-rule="evenodd" clip-rule="evenodd" d="M287.83 82.57H285.81V83.14H287.83V83.63L289.11 82.86L287.83 82.09V82.57Z" fill="#1E4489"/>
<path fill-rule="evenodd" clip-rule="evenodd" d="M287.83 85.84H285.81V86.37H287.83V86.82L289.11 86.11L287.83 85.39V85.84Z" fill="#1E4489"/>
<path fill-rule="evenodd" clip-rule="evenodd" d="M308.71 77.52H300.06C299.956 77.52 299.852 77.5408 299.755 77.5811C299.659 77.6214 299.571 77.6805 299.498 77.7549C299.424 77.8294 299.366 77.9176 299.327 78.0146C299.288 78.1116 299.269 78.2154 299.27 78.32V87.07C299.269 87.1746 299.288 87.2784 299.327 87.3754C299.366 87.4724 299.424 87.5607 299.498 87.6351C299.571 87.7095 299.659 87.7686 299.755 87.8089C299.852 87.8493 299.956 87.87 300.06 87.87H308.72C308.825 87.87 308.928 87.8493 309.025 87.8089C309.121 87.7686 309.209 87.7095 309.282 87.6351C309.356 87.5607 309.414 87.4724 309.453 87.3754C309.492 87.2784 309.511 87.1746 309.51 87.07V78.32C309.51 78.215 309.489 78.1109 309.449 78.0139C309.409 77.9168 309.35 77.8286 309.276 77.7543C309.202 77.6801 309.113 77.6211 309.016 77.5809C308.919 77.5407 308.815 77.52 308.71 77.52ZM308.71 77.79C308.849 77.7926 308.981 77.8496 309.078 77.9487C309.176 78.0479 309.23 78.1812 309.23 78.32V87.07C309.23 87.2079 309.175 87.3402 309.078 87.4377C308.98 87.5352 308.848 87.59 308.71 87.59H300.06C299.922 87.59 299.79 87.5352 299.692 87.4377C299.595 87.3402 299.54 87.2079 299.54 87.07V78.32C299.539 78.2509 299.551 78.1822 299.577 78.118C299.602 78.0537 299.64 77.9952 299.689 77.9458C299.737 77.8965 299.795 77.8573 299.859 77.8305C299.923 77.8038 299.991 77.79 300.06 77.79H308.71Z" fill="#1E4489"/>
<path d="M301.78 80.03H301.56V81.45H301.78V80.03Z" fill="#218FCF"/>
<path d="M302.32 80.03H302.1V81.45H302.32V80.03Z" fill="#218FCF"/>
<path d="M302.87 80.03H302.65V81.45H302.87V80.03Z" fill="#218FCF"/>
<path fill-rule="evenodd" clip-rule="evenodd" d="M301.17 81.82H303.26V79.65H301.17V81.82ZM303.52 82.1H300.91V79.37H303.52V82.1Z" fill="#218FCF"/>
<path d="M306.13 80.03H305.91V81.45H306.13V80.03Z" fill="#218FCF"/>
<path d="M306.68 80.03H306.46V81.45H306.68V80.03Z" fill="#218FCF"/>
<path d="M307.22 80.03H307V81.45H307.22V80.03Z" fill="#218FCF"/>
<path fill-rule="evenodd" clip-rule="evenodd" d="M305.43 81.82H307.6V79.65H305.43V81.82ZM307.87 82.1H305.15V79.37H307.87V82.1Z" fill="#218FCF"/>
<path d="M301.78 84.16H301.56V85.47H301.78V84.16Z" fill="#218FCF"/>
<path d="M302.32 84.16H302.1V85.47H302.32V84.16Z" fill="#218FCF"/>
<path d="M302.87 84.16H302.65V85.47H302.87V84.16Z" fill="#218FCF"/>
<path fill-rule="evenodd" clip-rule="evenodd" d="M301.17 86H303.26V83.79H301.17V86ZM303.52 86.27H300.91V83.51H303.52V86.27Z" fill="#218FCF"/>
<path d="M306.13 84.16H305.91V85.47H306.13V84.16Z" fill="#218FCF"/>
<path d="M306.68 84.16H306.46V85.47H306.68V84.16Z" fill="#218FCF"/>
<path d="M307.22 84.16H307V85.47H307.22V84.16Z" fill="#218FCF"/>
<path fill-rule="evenodd" clip-rule="evenodd" d="M305.43 86H307.6V83.79H305.43V86ZM307.87 86.27H305.15V83.51H307.87V86.27Z" fill="#218FCF"/>
<path d="M289.98 47.92H299.33" stroke="#4A5565" stroke-width="0.38" stroke-miterlimit="10" stroke-linecap="round"/>
<path fill-rule="evenodd" clip-rule="evenodd" d="M283.12 52.8699H289.72V42.9999H283L279.92 46.4399V49.5099L283.12 52.8699ZM289.99 53.1499H282.99L279.64 49.5899V46.2999L282.87 42.6899H290L289.99 53.1499Z" fill="#1E4489"/>
<path fill-rule="evenodd" clip-rule="evenodd" d="M285.37 44.84C285.383 44.956 285.371 45.0733 285.335 45.1844C285.3 45.2955 285.241 45.3979 285.163 45.4848C285.085 45.5717 284.99 45.6412 284.883 45.6888C284.777 45.7364 284.662 45.761 284.545 45.761C284.428 45.761 284.313 45.7364 284.206 45.6888C284.1 45.6412 284.004 45.5717 283.927 45.4848C283.849 45.3979 283.79 45.2955 283.754 45.1844C283.719 45.0733 283.707 44.956 283.72 44.84C283.742 44.6368 283.839 44.4491 283.991 44.3127C284.143 44.1764 284.34 44.101 284.545 44.101C284.749 44.101 284.946 44.1764 285.099 44.3127C285.251 44.4491 285.347 44.6368 285.37 44.84Z" fill="#218FCF"/>
<path fill-rule="evenodd" clip-rule="evenodd" d="M285.37 48.1399C285.372 48.3045 285.325 48.466 285.235 48.6038C285.145 48.7416 285.016 48.8495 284.865 48.9139C284.713 48.9782 284.546 48.9961 284.384 48.9652C284.223 48.9343 284.074 48.8561 283.957 48.7404C283.84 48.6247 283.759 48.4769 283.727 48.3156C283.694 48.1543 283.71 47.9869 283.772 47.8347C283.835 47.6824 283.941 47.5522 284.078 47.4606C284.214 47.3689 284.375 47.32 284.54 47.3199C284.758 47.3199 284.968 47.406 285.123 47.5595C285.279 47.713 285.367 47.9216 285.37 48.1399Z" fill="#218FCF"/>
<path fill-rule="evenodd" clip-rule="evenodd" d="M282.18 48.1399C282.182 48.3045 282.135 48.466 282.045 48.6038C281.955 48.7416 281.826 48.8495 281.675 48.9139C281.523 48.9782 281.356 48.9961 281.194 48.9652C281.033 48.9343 280.884 48.8561 280.767 48.7404C280.65 48.6247 280.57 48.4769 280.537 48.3156C280.504 48.1543 280.52 47.9869 280.582 47.8347C280.645 47.6824 280.751 47.5522 280.888 47.4606C281.025 47.3689 281.185 47.32 281.35 47.3199C281.568 47.3199 281.778 47.406 281.933 47.5595C282.089 47.713 282.177 47.9216 282.18 48.1399Z" fill="#218FCF"/>
<path fill-rule="evenodd" clip-rule="evenodd" d="M285.37 51.33C285.372 51.4946 285.325 51.656 285.235 51.7938C285.145 51.9316 285.016 52.0396 284.865 52.1039C284.713 52.1683 284.546 52.1861 284.384 52.1553C284.223 52.1244 284.074 52.0461 283.957 51.9305C283.84 51.8148 283.759 51.6669 283.727 51.5056C283.694 51.3444 283.71 51.177 283.772 51.0247C283.835 50.8725 283.941 50.7423 284.078 50.6506C284.214 50.559 284.375 50.51 284.54 50.51C284.758 50.51 284.968 50.5961 285.123 50.7496C285.279 50.9031 285.367 51.1116 285.37 51.33Z" fill="#218FCF"/>
<path d="M283.607 45.8126L282.348 47.0713L282.539 47.2622L283.798 46.0036L283.607 45.8126Z" fill="#1E4489"/>
<path d="M282.544 49.0748L282.353 49.2657L283.612 50.5244L283.803 50.3335L282.544 49.0748Z" fill="#1E4489"/>
<path d="M283.61 47.98H282.62V48.2H283.61V47.98Z" fill="#1E4489"/>
<path fill-rule="evenodd" clip-rule="evenodd" d="M287.83 45.67L289.11 44.9L287.83 44.13V44.61H285.81V45.18H287.83V45.67Z" fill="#1E4489"/>
<path fill-rule="evenodd" clip-rule="evenodd" d="M287.83 47.7999H285.81V48.3699H287.83V48.8599L289.11 48.0899L287.83 47.3199V47.7999Z" fill="#1E4489"/>
<path fill-rule="evenodd" clip-rule="evenodd" d="M287.83 51.07H285.81V51.6H287.83V52.05L289.11 51.33L287.83 50.62V51.07Z" fill="#1E4489"/>
<path fill-rule="evenodd" clip-rule="evenodd" d="M308.71 42.75H300.06C299.851 42.75 299.65 42.8332 299.501 42.9814C299.353 43.1295 299.27 43.3305 299.27 43.54V52.3C299.27 52.5095 299.353 52.7105 299.501 52.8586C299.65 53.0068 299.851 53.09 300.06 53.09H308.72C308.93 53.09 309.131 53.0068 309.279 52.8586C309.427 52.7105 309.51 52.5095 309.51 52.3V43.54C309.507 43.3296 309.422 43.1286 309.272 42.9808C309.122 42.8329 308.92 42.75 308.71 42.75ZM308.71 43.02C308.778 43.02 308.846 43.0334 308.909 43.0596C308.972 43.0857 309.029 43.124 309.078 43.1723C309.126 43.2206 309.164 43.2779 309.19 43.341C309.217 43.4041 309.23 43.4717 309.23 43.54V52.3C309.23 52.4379 309.175 52.5702 309.078 52.6677C308.98 52.7652 308.848 52.82 308.71 52.82H300.06C299.922 52.82 299.79 52.7652 299.692 52.6677C299.595 52.5702 299.54 52.4379 299.54 52.3V43.54C299.54 43.4021 299.595 43.2698 299.692 43.1723C299.79 43.0748 299.922 43.02 300.06 43.02H308.71Z" fill="#1E4489"/>
<path d="M301.78 45.25H301.56V46.67H301.78V45.25Z" fill="#218FCF"/>
<path d="M302.32 45.25H302.1V46.67H302.32V45.25Z" fill="#218FCF"/>
<path d="M302.87 45.25H302.65V46.67H302.87V45.25Z" fill="#218FCF"/>
<path fill-rule="evenodd" clip-rule="evenodd" d="M301.17 47.05H303.26V44.88H301.17V47.05ZM303.52 47.32H300.91V44.6H303.52V47.32Z" fill="#218FCF"/>
<path d="M306.13 45.25H305.91V46.67H306.13V45.25Z" fill="#218FCF"/>
<path d="M306.68 45.25H306.46V46.67H306.68V45.25Z" fill="#218FCF"/>
<path d="M307.22 45.25H307V46.67H307.22V45.25Z" fill="#218FCF"/>
<path fill-rule="evenodd" clip-rule="evenodd" d="M305.43 47.05H307.6V44.88H305.43V47.05ZM307.87 47.32H305.15V44.6H307.87V47.32Z" fill="#218FCF"/>
<path d="M301.78 49.39H301.56V50.7H301.78V49.39Z" fill="#218FCF"/>
<path d="M302.32 49.39H302.1V50.7H302.32V49.39Z" fill="#218FCF"/>
<path d="M302.87 49.39H302.65V50.7H302.87V49.39Z" fill="#218FCF"/>
<path fill-rule="evenodd" clip-rule="evenodd" d="M301.17 51.19H303.26V49H301.17V51.19ZM303.52 51.46H300.91V48.74H303.52V51.46Z" fill="#218FCF"/>
<path d="M306.13 49.39H305.91V50.7H306.13V49.39Z" fill="#218FCF"/>
<path d="M306.68 49.39H306.46V50.7H306.68V49.39Z" fill="#218FCF"/>
<path d="M307.22 49.39H307V50.7H307.22V49.39Z" fill="#218FCF"/>
<path fill-rule="evenodd" clip-rule="evenodd" d="M305.43 51.19H307.6V49H305.43V51.19ZM307.87 51.46H305.15V48.74H307.87V51.46Z" fill="#218FCF"/>
<path d="M278.11 47.83H268.94V82.67H278.11" stroke="#7E8C93" stroke-width="0.75" stroke-miterlimit="10" stroke-dasharray="2 1"/>
<path d="M270.1 65.33H278.11" stroke="#7E8C93" stroke-width="0.75" stroke-miterlimit="10" stroke-dasharray="2 1"/>
<path d="M268.94 46.6V26.83" stroke="#7E8C93" stroke-width="0.75" stroke-miterlimit="10" stroke-dasharray="2 1"/>
</svg>
