<svg width="99" height="99" viewBox="0 0 99 99" fill="none" xmlns="http://www.w3.org/2000/svg">
<g clip-path="url(#clip0_49_94)">
<path fill-rule="evenodd" clip-rule="evenodd" d="M27.2935 62.4248C27.0255 62.4135 26.7721 62.3012 26.5857 62.1111C26.3994 61.921 26.2943 61.6677 26.2922 61.4034C26.3111 55.7396 28.604 50.3131 32.6707 46.3082C36.7373 42.3032 42.2474 40.0451 47.9985 40.0265C48.2728 40.0288 48.5352 40.1371 48.7292 40.3282C48.9232 40.5192 49.0332 40.7776 49.0355 41.0478C49.0168 41.3126 48.9015 41.5617 48.7109 41.7494C48.5204 41.9371 48.2673 42.0506 47.9985 42.0691C45.431 42.0668 42.8883 42.563 40.5157 43.5293C38.1431 44.4955 35.9872 45.913 34.1713 47.7005C32.3554 49.488 30.9151 51.6106 29.9328 53.9468C28.9506 56.2829 28.4456 58.7869 28.4468 61.3154C28.4272 61.6078 28.2987 61.8828 28.0858 62.0875C27.8729 62.2923 27.5908 62.4124 27.2935 62.4248V62.4248Z" fill="#0091DA"/>
<path fill-rule="evenodd" clip-rule="evenodd" d="M48.9998 87.8605C43.8363 87.9024 38.7766 86.4326 34.4627 83.6378C30.1488 80.8429 26.7753 76.8489 24.7702 72.1626C22.7651 67.4763 22.2188 62.309 23.2007 57.3165C24.1826 52.3239 26.6484 47.7312 30.2852 44.1211C33.9219 40.511 38.5657 38.0463 43.6272 37.0398C48.6887 36.0333 53.9398 36.5303 58.714 38.4678C63.4882 40.4053 67.5703 43.6959 70.4424 47.922C73.3144 52.1482 74.8469 57.1193 74.8453 62.2047C74.8525 68.9762 72.1384 75.4754 67.2957 80.2825C62.4531 85.0896 55.8755 87.814 48.9998 87.8605V87.8605ZM36.1263 23.2014C36.1263 16.5277 41.383 11.1395 47.7482 11.1395H50.3319C56.7955 11.1395 61.9539 16.5277 61.9539 23.2014V37.5701C57.9643 35.5103 53.5311 34.4233 49.0266 34.4005C44.5262 34.3878 40.0932 35.477 36.1263 37.5701V23.2014ZM64.1263 38.7675V23.2014C64.1263 15.4184 57.9219 9 50.3408 9H47.7482C40.1671 9 33.9628 15.3303 33.9628 23.2014V38.7675C28.8598 41.979 24.9516 46.7332 22.8244 52.3171C20.6971 57.9011 20.4655 64.0137 22.1641 69.7383C23.8628 75.4629 27.4002 80.4908 32.2458 84.068C37.0915 87.6452 42.9842 89.5788 49.0401 89.5788C55.0959 89.5788 60.9886 87.6452 65.8342 84.068C70.6799 80.4908 74.2173 75.4629 75.916 69.7383C77.6146 64.0137 77.383 57.9011 75.2557 52.3171C73.1284 46.7332 69.2203 41.979 64.1173 38.7675H64.1263Z" fill="#1D428A"/>
<path fill-rule="evenodd" clip-rule="evenodd" d="M48.0879 53.8141C45.7188 53.8141 43.752 56.024 43.752 58.7005C43.7331 59.5341 43.9251 60.3592 44.3105 61.1015C44.696 61.8438 45.2629 62.4801 45.9602 62.953V68.0155C45.9455 68.1752 45.9638 68.3361 46.0139 68.4886C46.0641 68.6412 46.1451 68.7821 46.252 68.903C46.3589 69.0239 46.4895 69.1223 46.636 69.1922C46.7825 69.2621 46.9419 69.3021 47.1045 69.3097H49.1518C49.3144 69.3021 49.4737 69.2621 49.6202 69.1922C49.7667 69.1223 49.8974 69.0239 50.0043 68.903C50.1112 68.7821 50.1921 68.6412 50.2423 68.4886C50.2924 68.3361 50.3107 68.1752 50.2961 68.0155V62.953C50.9933 62.4801 51.5602 61.8438 51.9457 61.1015C52.3312 60.3592 52.5231 59.5341 52.5042 58.7005C52.4238 56.024 50.4302 53.8141 48.0879 53.8141Z" fill="#0091DA"/>
</g>
<defs>
<clipPath id="clip0_49_94">
<rect width="56" height="81" fill="white" transform="translate(21 9)"/>
</clipPath>
</defs>
</svg>
