<svg width="60" height="60" viewBox="0 0 60 60" fill="none" xmlns="http://www.w3.org/2000/svg">
<path d="M30 58.3333C45.648 58.3333 58.3333 45.6481 58.3333 30C58.3333 14.3519 45.648 1.66666 30 1.66666C14.3519 1.66666 1.66663 14.3519 1.66663 30C1.66663 45.6481 14.3519 58.3333 30 58.3333Z" fill="white"/>
<path d="M30 60C13.4 60 0 46.6 0 30C0 13.4 13.4 0 30 0C46.6 0 60 13.4 60 30C60 46.5333 46.5333 60 30 60ZM30 3.33333C15.2667 3.33333 3.33333 15.2667 3.33333 30C3.33333 44.7333 15.2667 56.6667 30 56.6667C44.7333 56.6667 56.6667 44.7333 56.6667 30C56.6667 15.2667 44.7333 3.33333 30 3.33333Z" fill="#F04E23"/>
<path d="M10.7753 7.07354L8.41833 9.43054L49.1944 50.2066L51.5514 47.8496L10.7753 7.07354Z" fill="#F04E23"/>
<path fill-rule="evenodd" clip-rule="evenodd" d="M13.0916 32.4325H13.5961C13.8483 32.0121 14.1847 31.6758 14.6051 31.4235H12.7553C11.5781 31.3394 10.6532 30.4145 10.5691 29.2374C10.5691 28.1443 11.494 27.3034 12.5871 27.3034H12.6712C12.8393 27.3034 13.0075 27.3034 13.1757 27.3875L14.2688 27.6398L14.521 26.5467C14.7733 25.2855 15.9504 24.3605 17.2117 24.3605H17.2957C17.7162 24.3605 18.0525 24.4446 18.3888 24.6128L19.3978 25.1173L19.8182 24.1083C20.3227 22.763 21.4999 21.8381 22.9293 21.754H23.0134C24.695 21.754 26.1245 23.2675 26.3767 25.2014V25.4536C26.629 25.1173 26.9653 24.781 27.3016 24.4446C26.8812 22.3425 25.1155 20.6609 23.0975 20.6609H23.0134C21.1636 20.745 19.4819 21.9221 18.8933 23.6879C18.3888 23.4356 17.8843 23.3515 17.3798 23.3515H17.2957C15.53 23.3515 13.9324 24.6128 13.5961 26.3785C13.3438 26.2945 13.0916 26.2945 12.8393 26.2945H12.7553C11.0736 26.2945 9.81235 27.6398 9.72827 29.2374C9.81235 31.0031 11.1577 32.3484 12.8393 32.5166H13.0916V32.4325Z" fill="#4B5665"/>
<path fill-rule="evenodd" clip-rule="evenodd" d="M46.6407 27.8079C46.4725 25.7059 44.8749 24.0242 42.941 24.0242H42.8569C41.2594 24.1083 39.914 25.1173 39.3255 26.6308C38.905 26.4626 38.4846 26.3785 38.0642 26.2944C38.2324 26.6308 38.4005 27.0512 38.5687 27.4716C38.6528 27.4716 38.7369 27.5557 38.821 27.5557L39.83 28.0602L40.2504 26.9671C40.5867 25.874 41.5957 25.1173 42.7729 25.0332H42.8569C44.2023 25.0332 45.3794 26.2944 45.5476 27.892L45.6317 28.7328L46.4725 28.8169C47.3133 28.901 47.986 29.8259 47.986 30.919C47.986 32.0121 47.2293 33.0211 46.3043 33.0211H45.968H42.6888C42.7729 33.3574 42.8569 33.6937 42.8569 34.0301H45.968H46.3043C47.7338 34.0301 48.9109 32.6848 48.995 30.919C49.0791 29.3214 48.0701 27.9761 46.6407 27.8079Z" fill="#4B5665"/>
<path fill-rule="evenodd" clip-rule="evenodd" d="M32.0103 23.6038C29.4878 23.6038 27.3017 25.2855 26.3768 27.8079C25.7041 27.4716 25.0314 27.3034 24.2747 27.3034H24.1065C21.6681 27.3034 19.566 29.0692 19.0615 31.5076C18.7252 31.4235 18.3889 31.3394 18.0525 31.3394H17.9685C15.6982 31.3394 13.8484 33.1893 13.8484 35.4595C13.7643 37.8138 15.8664 39.9159 18.1366 40H18.6411C21.4159 40 34.4487 39.9159 37.1394 39.9159H37.728C40.0823 39.9159 41.9321 37.7297 42.0162 34.955C42.1003 32.1803 40.3345 29.9941 38.1484 29.7418C37.812 26.3785 35.3736 23.6879 32.2626 23.6038H32.0103ZM31.9262 24.6969H32.0103C34.5328 24.781 36.6349 26.9671 36.8871 29.91L36.9712 30.7508L37.812 30.8349C39.4937 31.0031 40.839 32.7688 40.7549 34.955C40.6709 37.1412 39.2415 38.9069 37.4757 38.9069H36.8871C35.5418 38.9069 31.5058 38.9069 27.638 38.9069C23.7702 38.9069 19.7342 38.9069 18.3889 38.9069H17.9685C16.2027 38.8228 14.6051 37.1412 14.6892 35.4595C14.7733 33.7778 16.1186 32.3484 17.8003 32.3484H17.8844C18.1366 32.3484 18.3889 32.3484 18.6411 32.4325L19.7342 32.7688L19.9864 31.6758C20.4069 29.7418 22.0885 28.3124 24.0224 28.3124H24.1065C24.6951 28.3124 25.2837 28.4806 25.7882 28.7329L26.7972 29.2374L27.2176 28.1443C28.1425 26.0422 29.9082 24.6969 31.9262 24.6969Z" fill="#4B5665"/>
</svg>
