<?xml version="1.0" encoding="utf-8"?>
<!-- Generator: Adobe Illustrator 26.0.2, SVG Export Plug-In . SVG Version: 6.00 Build 0)  -->
<svg version="1.1" id="Layer_1" xmlns="http://www.w3.org/2000/svg" xmlns:xlink="http://www.w3.org/1999/xlink" x="0px" y="0px"
	 viewBox="0 0 1922.5 1080.3" style="enable-background:new 0 0 1922.5 1080.3;" xml:space="preserve">
<style type="text/css">
	.st0{clip-path:url(#SVGID_00000055682243583824418320000005289558725767185573_);}
	.st1{fill:url(#SVGID_00000066516144880777307090000010408521343877760431_);}
	.st2{fill:url(#SVGID_00000136386341000416017830000002734157865783227059_);}
	.st3{fill:none;}
	.st4{opacity:0.3;fill:#FFFFFF;enable-background:new    ;}
	.st5{fill:#FFFFFF;}
	.st6{fill-rule:evenodd;clip-rule:evenodd;fill:#FFFFFF;}
</style>
<g id="Layer_2_00000078724129320840698990000007211413309093877181_">
	<g id="Intro">
		<g>
			<defs>
				<rect id="SVGID_1_" width="1922.5" height="1080.3"/>
			</defs>
			<clipPath id="SVGID_00000039133778937219724270000009042363479792685713_">
				<use xlink:href="#SVGID_1_"  style="overflow:visible;"/>
			</clipPath>
			<g style="clip-path:url(#SVGID_00000039133778937219724270000009042363479792685713_);">
				
					<linearGradient id="SVGID_00000152948066614121421060000011892035411284842378_" gradientUnits="userSpaceOnUse" x1="265.2488" y1="215.1513" x2="1425.2888" y2="1375.2013" gradientTransform="matrix(1 0 0 -1 0 1086)">
					<stop  offset="0" style="stop-color:#0091DA"/>
					<stop  offset="5.000000e-02" style="stop-color:#0C88D6"/>
					<stop  offset="0.26" style="stop-color:#356BC9"/>
					<stop  offset="0.46" style="stop-color:#5553BF"/>
					<stop  offset="0.66" style="stop-color:#6C43B8"/>
					<stop  offset="0.84" style="stop-color:#7A38B4"/>
					<stop  offset="1" style="stop-color:#7F35B2"/>
				</linearGradient>
				<polygon style="fill:url(#SVGID_00000152948066614121421060000011892035411284842378_);" points="2.5,1080 1189.7,1080 
					2269.7,0 2.5,0 				"/>
				
					<linearGradient id="SVGID_00000115505373050634248880000011274627780706592677_" gradientUnits="userSpaceOnUse" x1="3761.6624" y1="-879.9625" x2="4396.9424" y2="-244.6925" gradientTransform="matrix(-1 0 0 1 5638.8599 1269.48)">
					<stop  offset="0" style="stop-color:#1D428A"/>
					<stop  offset="0.2" style="stop-color:#1D428A;stop-opacity:0.97"/>
					<stop  offset="0.4" style="stop-color:#1D428A;stop-opacity:0.88"/>
					<stop  offset="0.61" style="stop-color:#1D428A;stop-opacity:0.73"/>
					<stop  offset="0.82" style="stop-color:#1D428A;stop-opacity:0.52"/>
					<stop  offset="1" style="stop-color:#1D428A;stop-opacity:0.3"/>
				</linearGradient>
				<polygon style="fill:url(#SVGID_00000115505373050634248880000011274627780706592677_);" points="2101.5,328.7 1774.6,328.7 
					1017.6,1085.7 1344.5,1085.7 				"/>
				<rect x="2" y="2" class="st3" width="1922.5" height="1078.4"/>
			</g>
		</g>
		<circle class="st4" cx="749.1" cy="659.1" r="243.1"/>
		<path class="st5" d="M398.8,280.1c-4.5,2.2-13.4,4.5-24.9,4.5c-26.6,0-46.6-16.8-46.6-47.7c0-29.5,20-49.6,49.3-49.6
			c11.8,0,19.2,2.5,22.4,4.2l-3,9.9c-6-2.7-12.5-4-19-3.9c-22.1,0-36.8,14.1-36.8,38.9c0,23.1,13.3,37.9,36.3,37.9
			c7.4,0,15-1.5,19.9-3.9L398.8,280.1z"/>
		<path class="st5" d="M413.7,183.8H426v99.4h-12.3V183.8z"/>
		<path class="st5" d="M508,248.7c0,25.1-17.4,36-33.7,36c-18.3,0-32.5-13.4-32.5-34.9c0-22.7,14.8-36,33.6-36
			C494.9,213.9,508,228,508,248.7z M454.2,249.4c0,14.8,8.5,26,20.6,26c11.8,0,20.6-11.1,20.6-26.3c0-11.5-5.7-26-20.3-26
			S454.3,236.6,454.2,249.4L454.2,249.4z"/>
		<path class="st5" d="M580.3,264.7c0,7,0.1,13.2,0.6,18.5h-10.9l-0.7-11.1h-0.3c-4.6,7.9-13.2,12.7-22.4,12.6
			c-10.6,0-23.4-5.9-23.4-29.7v-39.6h12.3v37.5c0,12.9,3.9,21.6,15.1,21.6c8.3,0,14-5.7,16.2-11.2c0.8-2,1.2-4.1,1.2-6.3v-41.6h12.3
			L580.3,264.7z"/>
		<path class="st5" d="M659.2,183.8v81.9c0,6,0.1,12.9,0.6,17.5h-11.1l-0.6-11.8h-0.3c-3.8,7.6-12,13.3-23.1,13.3
			c-16.4,0-29-13.9-29-34.4c-0.1-22.5,13.9-36.4,30.4-36.4c10.4,0,17.4,4.9,20.4,10.4h0.3v-40.5H659.2z M646.9,243
			c0-1.7-0.2-3.5-0.6-5.2c-1.8-8.4-9.2-14.3-17.8-14.3c-12.8,0-20.3,11.2-20.3,26.2c0,13.7,6.7,25.1,20,25.1
			c8.3,0,15.8-5.5,18.1-14.7c0.4-1.7,0.6-3.5,0.6-5.3L646.9,243z"/>
		<path class="st5" d="M708.1,268.3c6.6,4,14.1,6.1,21.8,6.2c12.5,0,19.7-6.6,19.7-16.1c0-8.8-5-13.9-17.8-18.8
			c-15.4-5.5-24.9-13.4-24.9-26.7c0-14.7,12.2-25.6,30.5-25.6c9.7,0,16.7,2.2,20.9,4.6l-3.4,9.9c-5.5-3-11.7-4.5-17.9-4.5
			c-12.9,0-17.8,7.7-17.8,14.1c0,8.8,5.7,13.2,18.8,18.2c16,6.2,24.1,13.9,24.1,27.7c0,14.6-10.8,27.2-33,27.2c-9.1,0-19-2.7-24.1-6
			L708.1,268.3z"/>
		<path class="st5" d="M786.1,251.5c0.3,16.7,10.9,23.5,23.2,23.5c8.8,0,14.1-1.5,18.8-3.5l2.1,8.8c-4.3,2-11.8,4.2-22.5,4.2
			c-20.9,0-33.3-13.7-33.3-34.2s12-36.5,31.8-36.5c22.1,0,28,19.5,28,31.9c0,1.9-0.2,3.8-0.4,5.7L786.1,251.5z M822.2,242.7
			c0.1-7.8-3.2-20-17.1-20c-12.5,0-17.9,11.5-18.9,20H822.2z"/>
		<path class="st5" d="M849.3,236.6c0-8-0.1-14.8-0.6-21.1h10.8l0.4,13.3h0.6c3.1-9.1,10.5-14.8,18.8-14.8c1.2,0,2.4,0.1,3.5,0.4
			v11.6c-1.4-0.3-2.8-0.4-4.2-0.4c-8.7,0-14.8,6.6-16.5,15.8c-0.3,1.9-0.5,3.8-0.6,5.7v36.1h-12.2V236.6z"/>
		<path class="st5" d="M903.4,215.4l13.3,38.1c2.1,5.7,3.9,11.5,5.5,17.4h0.4c1.5-5.6,3.5-11.2,5.7-17.4l13.2-38.1h12.9l-26.6,67.8
			H916l-25.8-67.8L903.4,215.4z"/>
		<path class="st5" d="M979.7,196.4c0.1,4.2-2.9,7.6-7.8,7.6c-4,0.1-7.4-3.2-7.4-7.2c0-0.1,0-0.2,0-0.3c-0.1-4.1,3.2-7.6,7.3-7.7
			c0.1,0,0.3,0,0.4,0C976.7,188.7,979.7,192,979.7,196.4z M966,283.2v-67.8h12.3v67.8H966z"/>
		<path class="st5" d="M1047,280.7c-3.2,1.7-10.4,3.9-19.5,3.9c-20.4,0-33.7-13.9-33.7-34.6s14.3-36,36.4-36
			c5.9-0.1,11.7,1.1,17.1,3.5l-2.8,9.5c-2.9-1.7-7.6-3.2-14.3-3.2c-15.5,0-23.9,11.5-23.9,25.6c0,15.7,10.1,25.3,23.5,25.3
			c5.2,0,10.4-1.1,15.1-3.4L1047,280.7z"/>
		<path class="st5" d="M1067.5,251.5c0.3,16.7,10.9,23.5,23.2,23.5c8.8,0,14.1-1.5,18.8-3.5l2.1,8.8c-4.3,2-11.8,4.2-22.5,4.2
			c-20.9,0-33.3-13.7-33.3-34.2s12-36.5,31.8-36.5c22.1,0,28,19.5,28,31.9c0,1.9-0.2,3.8-0.4,5.7L1067.5,251.5z M1103.6,242.7
			c0.1-7.8-3.2-20-17.1-20c-12.5,0-17.9,11.5-18.9,20H1103.6z"/>
		<path class="st5" d="M1129.1,270.6c4.9,3.1,10.5,4.7,16.2,4.9c9,0,13.2-4.5,13.2-10.1c0-5.9-3.5-9.1-12.6-12.5
			c-12.2-4.3-17.9-11.1-17.9-19.2c0-10.9,8.8-19.9,23.4-19.9c5.8-0.1,11.6,1.4,16.7,4.2l-3.1,9c-4.2-2.6-9-3.9-13.9-3.9
			c-7.3,0-11.3,4.2-11.3,9.2c0,5.6,4.1,8.1,12.9,11.5c11.8,4.5,17.8,10.4,17.8,20.4c0,11.9-9.2,20.3-25.3,20.3
			c-7.4,0-14.3-1.8-19-4.6L1129.1,270.6z"/>
		<path class="st6" d="M933.4,636c0.4-15-9.2-27.7-21.9-28.8l-0.8-0.1l-0.1-0.8c-1.9-19.4-16-34.1-33.5-34.8h-0.7
			c-14,0-26.6,9.3-31.9,23.7l-0.4,1l-1-0.4c-3-1.4-6.2-2.3-9.5-2.6c1.5,2.8,2.7,5.8,3.8,8.8c0.2,0.1,0.5,0.1,0.8,0.2
			c0.6,0.1,1.1,0.2,1.6,0.5l8.3,4.2l3.5-8.8c4.4-11.4,14-18.7,24.5-18.7h0.8c13.3,0.4,24.5,12.3,26.1,27.6l0.7,7.4l7.3,0.7
			c8.7,0.8,15.2,10.1,14.8,21.1c-0.4,11.3-7.7,20.2-16.5,20.2h-32.4c0.5,2.6,0.9,5.2,1.2,7.8h31.2
			C922.2,664.1,933.1,651.5,933.4,636z"/>
		<path class="st6" d="M688.4,547.2h0.8c16.7,0.4,30.3,14.5,32.3,33.4l0.1,0.4c2.1-2.5,4.3-4.7,6.7-6.9
			c-4.4-19.8-20.3-33.9-38.8-34.3h-1.1c-16.3,0-31.1,10.8-37.8,27.7l-0.4,1l-1-0.5c-4.3-2.3-9-3.4-13.8-3.4h-0.8
			c-16.3,0.1-30.4,11.5-33.8,27.5l-0.2,1.1l-1.1-0.4c-1.4-0.4-2.9-0.7-4.4-0.8c-0.8-0.1-1.5-0.2-2.3-0.3H592
			c-14.9,0-27.1,12-27.2,26.9c-0.4,15,13,29,28.1,29.6c0.7-0.4,1.9-0.4,3.8-0.4h4.2c2.1-2.8,4.4-5.3,7-7.7h-14.2
			c-5.9-0.4-11.4-3.1-15.4-7.5c-3.8-4.2-5.9-9.3-5.8-14.1c0.3-10.6,8.9-19.1,19.6-19.2h0.4c1.7,0.1,3.3,0.3,4.9,0.8l9.1,2.5l2.1-9.1
			c2.8-12.6,13.8-21.7,26.1-21.7h0.8c3.8-0.1,7.5,0.8,10.9,2.4l8.3,4.2l3.5-8.7C663.2,556.1,675.1,547.2,688.4,547.2z"/>
		<path class="st6" d="M830.8,625l-0.8-0.1l-0.1-0.8c-3.2-31.5-27.1-55.8-55.7-56.6h-1.6c-22.9,0-43.6,15.2-52.9,38.6l-0.4,1l-1-0.5
			c-6.1-3-12.9-4.6-19.7-4.7h-1.2c-23-0.1-42.9,16.2-47.3,38.8l-0.2,1l-1-0.3c-3.2-0.8-6.4-1.2-9.7-1.2h-0.8
			c-20.9-0.2-37.9,16.6-38.2,37.5c-0.4,21.3,18.8,41,40.2,41.4h12.8V711h-12.5c-8.3-0.2-16.6-4.1-22.9-10.8
			c-6.1-6.5-9.5-14.6-9.4-22.4c0.4-16.5,14-29.9,30.3-29.9h0.8c2.5,0,5.1,0.4,7.4,1.2l9.2,2.5l2.1-9.3c4.1-18.8,20.8-32.5,39.8-32.5
			h0.8c5.7,0.1,11.2,1.5,16.3,4.1l8.5,4.3l3.5-8.9c8.1-20.4,25.9-33.5,45.3-33.5h1.2c24.8,0.4,45.3,21.8,47.7,49.7l0.7,7.5l7.5,0.7
			c16.8,1.6,29.8,19.4,29,39.5c-0.4,21.1-14.7,38.2-31.9,38.2h-1.8v7.9h1.4c21.5,0,39.4-20.5,39.8-45.8
			C867.5,648.3,851.9,627,830.8,625z"/>
		<path class="st6" d="M738.8,746.9c19.9,0,36.5-15.4,36.9-34.3c0-19.1-16.4-34.7-36.5-34.7s-36.5,15.6-36.5,34.7
			c0.2,2,1.8,3.5,3.8,3.5c2,0,3.7-1.5,3.8-3.5c0-15,12.8-27.2,28.5-27.2s28.5,12.2,28.5,27.2s-12.8,27.2-28.5,27.2
			c-2,0.1-3.6,1.6-3.8,3.6C735.2,745.4,736.8,746.9,738.8,746.9z"/>
		<path class="st6" d="M801.5,734.1l1-2.9l-2.1-1.5c-1.6-1.1-3.1-2.3-4.4-3.6l-2.8-2.8l0.2-0.6c0.5-1.4,0.7-2.9,0.7-4.3
			c0-0.9,0.1-1.8,0.2-2.7c0.1-0.4,0.1-0.8,0.1-1.2V714l3.9-2.6c1.6-0.9,2.8-1.7,3.6-2.2c0.5-0.3,1-0.7,1.5-1h0.1l3.4-1.2l-7.3-24.3
			l-3.1,0.3h-6h-0.1c-0.9-0.2-1.8-0.2-2.7,0c-0.5,0-0.9,0.1-1.3,0.1h-0.4l-0.3-0.3c-1.9-2.1-3.7-4.4-5.2-6.8l-0.3-0.4l0.1-0.4
			c0.8-2.7,1.5-6.2,2.3-10.4l0.6-3.1l-3.1-1.2l-0.8-0.3c-2.5-1-4.8-2.2-7.1-3.6c-3-1.9-6.1-3.5-9.5-4.6l-1.9-0.6l-1.5,1.2
			c-1.8,1.4-3.5,3.1-4.9,4.9l-2.4,2.4l-0.5-0.1c-1.6-0.5-3.2-0.7-4.8-0.7h-0.2c-1.2-0.3-2.4-0.4-3.7-0.4h-0.6l-0.3-0.5
			c-2.9-4.9-4.9-8-6.1-9.1l-0.1-0.1l-1.5-2.1l-23.1,7v14.2l-0.5,0.3c-2.3,1.4-4.5,3-6.4,4.9l-0.4,0.3l-0.5-0.1
			c-3.5-0.9-7-1.6-10.8-2.3l-2.7-0.3l-1.3,2.3c-7.5,13.5-8.9,16.7-9.2,18.1l-0.9,2.8l2.4,1.5c0.7,0.3,2.2,1.4,6.8,6l0.4,0.4
			l-0.3,1.2c-0.4,1.2-0.6,2.5-0.6,3.8c0,0.9-0.1,1.8-0.2,2.7c-0.1,0.4-0.1,0.8-0.1,1.2v0.5l-4,2.6l-2.3,1.6
			c-0.8,0.6-1.6,1.1-2.5,1.6l-2.8,1.5l7.4,24.5l3.1-0.3h10l0.3,0.5c0.2,0.3,0.5,0.7,0.7,1.1c0.5,1,1.2,1.9,1.9,2.7l0.1,0.1
			c0.8,1.1,1.7,2.1,2.6,3l0.4,0.4l-0.1,0.5c-1.5,7.4-1.9,10-1.9,11.1v2.1l1.8,0.9c12.9,7.2,16,8.5,17.3,8.9l2.6,0.7l1.4-1.2
			c1.4-1.8,3-3.5,4.7-5.1l2.7-2.7l0.5,0.1c2.8,0.6,5.6,1,8.4,1.1l0.5,0l0.2,0.5c0.2,0.3,0.4,0.6,0.6,0.9c0.5,0.7,1,1.4,1.4,2.2
			c1.1,2.1,2.5,4.2,4.1,6l1.6,1.9l21.7-6.2l0.3-2.4c0-0.2,0-0.4,0-0.7c0.2-2.3,0.2-4.6,0-6.9V758l0.4-0.3c2.5-1.5,4.8-3.3,6.8-5.3
			l0.4-0.4l0.6,0.2c3.3,1.1,6.8,1.9,10.3,2.3l2.8,0.3l1.2-2.5C799.8,738.7,801.1,735.5,801.5,734.1z M788.6,742.2l-1.6,3.1l-0.8-0.2
			l-4.2-1.2c-1.5-0.4-2.9-0.8-4.3-1.2l-2.5-0.6l-1.5,1.8c-2.5,2.9-5.5,5.3-8.8,7.2l-1.5,0.9l-0.3,1.5c-0.5,2.6-0.7,5.2-0.4,7.8v3.5
			l-12.5,3.9l-0.4-0.4c-0.6-0.7-1-1.4-1.3-2.2c-0.9-1.6-1.9-3.1-3-4.5c-0.3-0.5-0.6-0.9-0.8-1.2l-0.9-1.2L742,759
			c-8.8-1.1-11.3-1.5-11.6-1.5l-3.1-0.3l-1.7,1c-2.1,1.3-4,2.9-5.6,4.9l-2.5,2.5l-0.6-0.3c-0.5-0.3-1.3-0.7-2.3-1.2
			c-1.8-1-4.3-2.4-7.8-4.2l-0.7-0.3l0.2-0.8c0.1-0.5,0.2-1.1,0.4-1.9c0.3-1.6,0.8-3.8,1.5-6.7l0.3-1.5l-0.9-1.5
			c-0.1-0.1-0.3-0.3-0.5-0.6c-0.6-0.7-1.7-2.1-4.1-4.8c-1.4-1.4-2.5-3.1-3.3-4.9l-1.2-2.8l-2.9,0.6c-0.7,0-1.5,0.1-2.2,0.2
			c-1.2,0.1-2.4,0.2-3.6,0.2h-3.5l-3.9-12.5l0.4-0.4c0.7-0.6,1.4-1,2.2-1.3l1.7-1.1c1-0.7,2-1.2,3.1-1.7l1.8-0.9l0.3-1.8
			c0.5-2.4,0.9-4.9,1.2-7.3c0.5-4,0.9-5.4,1.2-6.1l0.6-2.1l-1.5-1.5c-2-2.2-4.2-4.2-6.5-6.1l-0.6-0.5l0.3-0.7
			c0.7-1.7,2.2-4.4,4.2-8.3l1.6-3l0.7,0.2c2.8,0.6,5.6,1.4,8.3,2.4l2.2,0.9l1.9-1.5c7.3-5.8,8.9-7,9-7l0.2-0.1l2.5-0.9v-13.3l12.8-4
			l0.4,0.8c1.4,2.6,2.9,5.2,4.6,7.7l1,1.6l2,0.3c1.1,0.3,2.3,0.4,3.4,0.4c0.9,0.1,2,0.2,3.4,0.3h0.1c2.7,0,4.5,0.3,5.4,0.9l1.7,0.6
			l1.5-0.9c2.1-1.3,4-2.9,5.5-4.8c0.6-0.9,1.3-1.7,2-2.4l0.5-0.5l0.7,0.3c1.5,0.8,3.1,1.6,5.1,2.8l6.1,3l-0.2,0.8
			c-0.2,1-0.4,2-0.6,2.9c-0.3,1.8-0.8,3.7-1.4,5.4l-0.6,1.8l1.2,1.5c2.7,3.9,4.7,6.6,6.2,8.5c2.1,3,4,5.2,6.6,4
			c1.7-0.4,3.4-0.6,5.1-0.5h3.5l4,12.6l-0.4,0.4c-0.7,0.6-1.4,1-2.2,1.3c-0.8,0.5-1.6,0.9-2.3,1.3c-0.9,0.5-1.6,0.9-2.3,1.3
			l-0.2,0.1l-1.5,0.6l-0.7,2c-0.4,0.8-0.7,3.3-1.1,7.4c0.1,1.6-0.2,3.1-0.7,4.6l0,0.1v0.2l-1.3,2.2l2.2,1.9l0.1,0.2
			c0.5,0.6,1.1,1.2,1.7,1.7c0.7,0.6,1.5,1.4,2.4,2.3c0.3,0.3,0.5,0.6,0.8,0.9c0.2,0.3,0.6,0.6,0.9,0.9l0.8,0.4l-0.3,0.8
			C792.2,735.6,790.7,738.4,788.6,742.2z"/>
	</g>
</g>
</svg>
