<svg id="Layer_1" data-name="Layer 1" xmlns="http://www.w3.org/2000/svg" viewBox="0 0 821.56 240"><defs><style>.cls-1{fill:#096796;}.cls-2{opacity:0.15;}.cls-3{fill:#fff;}.cls-4,.cls-5,.cls-6{fill:none;stroke:#fff;stroke-miterlimit:10;}.cls-4{stroke-width:0.5px;}.cls-6{stroke-width:0.75px;}.cls-7{opacity:0.3;}.cls-8{opacity:0.5;}</style></defs><title>dot-bg</title><rect class="cls-1" x="-82.62" y="-1.2" width="1440" height="242.1"/><g class="cls-2"><circle class="cls-3" cx="101.48" cy="41" r="3.5"/><circle class="cls-3" cx="146.88" cy="9" r="3.5"/><circle class="cls-3" cx="198.88" cy="37.5" r="3.5"/><circle class="cls-3" cx="139.88" cy="105.5" r="3.5"/><circle class="cls-3" cx="166.88" cy="149.5" r="3.5"/><circle class="cls-3" cx="286.18" cy="136.2" r="3.5"/><circle class="cls-3" cx="302.88" cy="178.2" r="3.5"/><circle class="cls-3" cx="370.88" cy="171.6" r="3.5"/><circle class="cls-3" cx="311.38" cy="71.5" r="3.5"/><circle class="cls-3" cx="252.38" cy="44.5" r="3.5"/><circle class="cls-3" cx="370.88" cy="43" r="3.5"/><circle class="cls-3" cx="401.38" cy="94.5" r="3.5"/><circle class="cls-3" cx="444.78" cy="148.7" r="3.5"/><circle class="cls-3" cx="488.38" cy="194.7" r="3.5"/><circle class="cls-3" cx="541.38" cy="204.7" r="3.5"/><circle class="cls-3" cx="598.58" cy="78.5" r="3.5"/><circle class="cls-3" cx="656.88" cy="82" r="3.5"/><circle class="cls-3" cx="690.38" cy="183.1" r="3.5"/><circle class="cls-3" cx="734.28" cy="209.7" r="3.5"/><circle class="cls-3" cx="720.68" cy="33.5" r="3.5"/><circle class="cls-3" cx="551.38" cy="55" r="3.5"/><circle class="cls-3" cx="502.88" cy="11" r="3.5"/><circle class="cls-3" cx="410.88" cy="221.2" r="3.5"/><polyline class="cls-4" points="-70.12 -3.5 -40.62 32.5 28.38 -3.5"/><polyline class="cls-4" points="-40.62 32.5 101.48 41 112.88 -13"/><polyline class="cls-4" points="146.88 9 198.88 37.5 252.38 44.5 198.88 -16 198.88 37.5 166.88 149.5 139.88 105.5 146.88 9 101.48 0"/><line class="cls-5" x1="199.98" y1="38.8" x2="139.88" y2="105.5"/><line class="cls-5" x1="286.98" y1="136.2" x2="166.88" y2="149.5"/><polyline class="cls-4" points="251.08 43 311.38 71.5 285.38 136.5 198.88 37.5"/><polygon class="cls-6" points="311.38 71.5 370.88 43 401.38 94.5 311.38 71.5"/><line class="cls-5" x1="376.38" x2="370.88" y2="43"/><polyline class="cls-4" points="283.58 0 311.38 71.5 358.18 -1.2"/><polyline class="cls-4" points="311.38 71.5 370.88 171.6 444.78 148.7 410.88 221.2 302.88 178.2 252.38 44.5"/><line class="cls-5" x1="370.88" y1="172.8" x2="302.38" y2="176.9"/><line class="cls-5" x1="370.88" y1="171.6" x2="286.18" y2="136.2"/><polyline class="cls-4" points="488.38 240 541.38 204.7 563.88 242.8"/><polyline class="cls-4" points="541.38 204.7 648.58 228.5 690.38 182 734.28 208.5 734.28 240"/><polyline class="cls-4" points="598.58 77.2 656.88 82 689.38 183.1 598.58 78.5 541.38 204.7 488.38 194.7 410.88 221.2"/><line class="cls-5" x1="697.88" y1="111.2" x2="656.88" y2="83.2"/><polyline class="cls-4" points="547.88 -2.5 551.38 55 502.88 11 509.88 -7.5"/><line class="cls-5" x1="551.38" y1="55" x2="677.38" y2="-5"/><polyline class="cls-4" points="686.88 -7.5 720.68 33.5 802.88 -5"/><polyline class="cls-4" points="720.68 33.5 865.28 40.3 868.78 0 911.88 9.9 960.88 37 960.88 -14.5"/></g><g class="cls-7"><circle class="cls-3" cx="97.98" cy="94.5" r="6"/><circle class="cls-3" cx="76.58" cy="231.9" r="6"/><circle class="cls-3" cx="201.38" cy="161.6" r="6"/><circle class="cls-3" cx="296.88" cy="201.7" r="6"/><circle class="cls-3" cx="425.68" cy="168.2" r="6"/><polyline class="cls-4" points="12.28 240 -21.02 173.2 97.98 94.5 76.58 232 98.28 240.1"/><polyline class="cls-4" points="230.98 240.4 201.38 161.6 258.88 189.7 240.78 240"/><polyline class="cls-4" points="258.88 189.7 296.88 204.1 283.88 240"/><polyline class="cls-4" points="296.88 204.1 425.68 168.2 340.88 240.4"/><line class="cls-5" x1="425.68" y1="168.2" x2="465.78" y2="240.5"/></g><g class="cls-8"><circle class="cls-3" cx="602.88" cy="211.7" r="3"/><circle class="cls-3" cx="407.88" cy="237" r="3"/><circle class="cls-3" cx="314.38" cy="186.1" r="3"/><circle class="cls-3" cx="258.88" cy="189.7" r="3"/><circle class="cls-3" cx="779.38" cy="204.7" r="5"/><circle class="cls-3" cx="734.28" cy="153.7" r="5"/><circle class="cls-3" cx="696.88" cy="113.2" r="5"/><circle class="cls-3" cx="634.38" cy="181.1" r="5"/><circle class="cls-3" cx="331.88" cy="225" r="5"/><circle class="cls-3" cx="206.38" cy="240.4" r="5"/><circle class="cls-3" cx="179.88" cy="89.5" r="5"/><circle class="cls-3" cx="123.38" cy="32.5" r="5"/><circle class="cls-3" cx="117.38" cy="221.5" r="5"/><circle class="cls-3" cx="18.88" cy="199.7" r="5"/><circle class="cls-3" cx="583.38" cy="194.7" r="5"/><circle class="cls-3" cx="651.88" cy="214.7" r="5"/><polyline class="cls-4" points="689.38 240.6 734.28 153.7 696.88 113.7 602.88 211.7"/><polyline class="cls-4" points="744.08 240 779.38 204.7 734.28 153.7 839.68 40.3 779.38 204.7 950.38 108.7 938.28 179 779.38 204.7 989.18 240.4"/><polyline class="cls-4" points="720.68 240.4 651.88 214.7 622.68 240.5"/><line class="cls-5" x1="635.08" y1="240" x2="583.38" y2="194.7"/><line class="cls-5" x1="583.78" y1="194.7" x2="596.08" y2="240.4"/><line class="cls-5" x1="583.78" y1="194.7" x2="734.28" y2="153.7"/><polyline class="cls-4" points="696.88 113.7 407.88 237 314.38 186.1 258.88 189.7 314.58 240.1"/><polyline class="cls-4" points="341.68 240.1 331.88 225 206.38 240.4 179.88 89.5 633.78 181.1"/><polyline class="cls-4" points="123.38 32.5 -53.12 100.5 117.38 221.5 123.38 32.5 179.88 89.5 117.38 221.5 206.38 240.4"/><polyline class="cls-4" points="94.38 240.4 117.38 221.5 18.88 199.7 -53.12 100.5 -68.62 209.7 -46.22 240.4"/><polyline class="cls-4" points="12.28 240 18.88 199.7 -63.62 209.7"/></g></svg>