<svg xmlns="http://www.w3.org/2000/svg" xmlns:xlink="http://www.w3.org/1999/xlink" viewBox="0 0 64.41 62.82"><defs><style>.a,.b,.c{fill:none;}.a,.b{clip-rule:evenodd;}.b{clip-path:url(#a);}.d{clip-path:url(#b);}.e{clip-path:url(#c);}.f{fill:#737276;}</style><clipPath id="a"><polygon class="a" points="0 63.78 64.94 63.78 64.94 0 0 0 0 63.78 0 63.78"/></clipPath><clipPath id="b" transform="translate(-0.52 -0.74)"><polygon class="b" points="0 0 64.94 0 64.94 63.78 0 63.78 0 0 0 0"/></clipPath><clipPath id="c" transform="translate(-0.52 -0.74)"><polygon class="c" points="0 63.78 64.94 63.78 64.94 0 0 0 0 63.78 0 63.78"/></clipPath></defs><g class="d"><g class="e"><path class="f" d="M56,14.52C55.3,6.92,49.57.92,42.44.74H42.1c-5.76,0-10.74,3.86-12.89,9.39A11.7,11.7,0,0,0,24.4,9h-.29a11.88,11.88,0,0,0-11.59,9.46,9.43,9.43,0,0,0-2.33-.34H10A9.47,9.47,0,0,0,.52,27.33c-.12,5.23,4.65,10,9.86,10.15h1.11c4.29,0,19.58-.06,30.8-.1l.13-1.69-5.68,0V31.11a.84.84,0,0,0-1.18-.77,3.9,3.9,0,0,1-2.28.25l-.08,0c-.1-.06-.34-.46-.2-1.52,0-.31.16-.7.45-.83s1,0,1.95.62a.87.87,0,0,0,.88.06.85.85,0,0,0,.45-.75V23.62H48.25a.86.86,0,0,0,.75-.44.87.87,0,0,0,0-.87c-1-1.45-1.31-2.69-.92-3.4a1.37,1.37,0,0,1,1.23-.66c1.58,0,1.86.74,1.88.8l0,.12c.75,1.91-.22,2.87-.32,3a.84.84,0,0,0,.55,1.49H63a11.5,11.5,0,0,1,.22,2.51c-.12,5.26-3.77,9.54-8.14,9.54H51.42l.06,1.69H55.1c5.29,0,9.69-5,9.82-11.2S61.11,15,56,14.52ZM35,26.73a2.92,2.92,0,0,0-2.26-.06,2.58,2.58,0,0,0-1.45,2.15c-.36,2.64,1,3.25,1.42,3.38a4.36,4.36,0,0,0,2.29,0v3.47H32.72c-8.89,0-18.09.07-21.23.07H10.43c-4.32-.12-8.31-4.21-8.21-8.42A7.76,7.76,0,0,1,3.3,23.62H18.61a4.1,4.1,0,0,0-.24,3.83A3,3,0,0,0,21.1,29c2.68,0,3.37-1.61,3.5-2a4.68,4.68,0,0,0,.15-3.35h10.3v3.11Zm1.51-14.4a.85.85,0,0,0-1.51.53v9.07H23.23a.85.85,0,0,0-.78.55.87.87,0,0,0,.22.94c.12.1,1.09,1,.34,3a.56.56,0,0,0,0,.12s-.26.8-1.88.8a1.37,1.37,0,0,1-1.23-.65c-.39-.72-.05-2,.92-3.4a.85.85,0,0,0,0-.87.84.84,0,0,0-.75-.45H4.65A7.66,7.66,0,0,1,10,19.79h.2a7.4,7.4,0,0,1,1.91.27l1.73.48.37-1.76a10.27,10.27,0,0,1,9.94-8.11h.24a10,10,0,0,1,4.12,1l1.65.8.66-1.71A13.59,13.59,0,0,1,35,4.93V9.56a.86.86,0,0,0,.46.75.85.85,0,0,0,.87-.06c1.42-1,2.63-1.35,3.35-1a1.5,1.5,0,0,1,.69,1.35c0,1.72-.8,2-.81,2l-.12,0a2.45,2.45,0,0,1-2.92-.34Zm16.38,9.6a4.69,4.69,0,0,0-.16-3.35c-.13-.4-.82-2-3.5-2a3.06,3.06,0,0,0-2.73,1.54,4.11,4.11,0,0,0,.25,3.83h-10V14.41a4.5,4.5,0,0,0,3.37-.17c.42-.14,2-.86,2-3.62a3.14,3.14,0,0,0-1.61-2.85,4,4,0,0,0-3.77.29V3.81A11.19,11.19,0,0,1,42.1,2.43h.3c6.16.15,11.28,5.41,11.9,12.24l.13,1.39,1.4.14a8.26,8.26,0,0,1,6.7,5.73h-9.6Zm1.66,34.29L53.53,54.9l1-.82a20.55,20.55,0,0,0,.39-3.79v-4a1,1,0,0,0-.67-.91A15.11,15.11,0,0,0,51.12,45c-.58,0-.91,0-1.14-.06s-.74.1-1,.14-.43.08-.51.08l-.93.09v-.94c0-2.54.06-6.4,0-6.69v-.06a.68.68,0,0,0-.74-.55.92.92,0,0,0-.64.24.66.66,0,0,0-.18.47L46,49.85l-1.1-.35c-.55-.18-.73-.73-1-1.48a6.8,6.8,0,0,0-.32-.85l-.27-.39a.92.92,0,0,0-1.44-.18.93.93,0,0,0-.18.77,13.71,13.71,0,0,0,3.7,6l.22.23.11,2-1.69.09L44,54.27a14.78,14.78,0,0,1-3.94-6.63,2.56,2.56,0,0,1,.56-2.13,2.53,2.53,0,0,1,1.92-.89,2.62,2.62,0,0,1,1.81.73l0-7.62a2.33,2.33,0,0,1,.68-1.66,2.6,2.6,0,0,1,1.85-.75,2.37,2.37,0,0,1,2.42,2.11v.12h0c0,.2,0,1.06,0,5.78a3.07,3.07,0,0,1,1-.06c.12,0,.56,0,.92,0a15.13,15.13,0,0,1,3.63.4,2.64,2.64,0,0,1,1.84,2.53v4s-.08,3.78-.66,4.77l-.08.13-1.32,1Zm-.82,7.34H48.41V61.87h5.36a.52.52,0,0,0,.51-.51V59a.51.51,0,0,0-.51-.5H44.62a.51.51,0,0,0-.51.5v2.37a.51.51,0,0,0,.51.51v1.69a2.21,2.21,0,0,1-2.21-2.2V59a2.21,2.21,0,0,1,2.21-2.19h9.15A2.21,2.21,0,0,1,56,59v2.37a2.21,2.21,0,0,1-2.21,2.2Zm-5-29.69a.81.81,0,0,1-.59-.23,2.27,2.27,0,0,0-1.78-.73,1.3,1.3,0,0,0-1,.57.85.85,0,0,1-1.18.23A.84.84,0,0,1,44,32.53a3,3,0,0,1,2.18-1.31,4,4,0,0,1,3.12,1.19.85.85,0,0,1,0,1.2.83.83,0,0,1-.61.26Z" transform="translate(-0.52 -0.74)"/></g></g></svg>