<svg xmlns="http://www.w3.org/2000/svg" viewBox="0 0 72.29 41.71"><defs><style>.a{fill:#737276;fill-rule:evenodd;}</style></defs><path class="a" d="M36.15,0C25.91,0,16.74,5.52,10.85,10.16A66.69,66.69,0,0,0,.46,20.27L0,20.85l.46.59A67.21,67.21,0,0,0,10.85,31.55c5.89,4.63,15.06,10.16,25.3,10.16s19.41-5.53,25.29-10.16a67.05,67.05,0,0,0,10.4-10.11l.45-.59-.45-.58a68.14,68.14,0,0,0-10.4-10.11C55.56,5.52,46.39,0,36.15,0ZM2.44,20.85c2.76-3.25,17-19,33.71-19s30.95,15.7,33.71,19c-2.76,3.26-17,19-33.71,19S5.2,24.11,2.44,20.85Z"/><path class="a" d="M35.53,34.8A13.95,13.95,0,1,0,21.6,20.85,14,14,0,0,0,35.53,34.8m0,.77A14.72,14.72,0,1,1,50.24,20.85,14.71,14.71,0,0,1,35.53,35.57Z"/><path class="a" d="M47.79,20.85a2.45,2.45,0,1,0-2.45,2.46,2.45,2.45,0,0,0,2.45-2.46Z"/><path class="a" d="M28.18,20.85a2.45,2.45,0,1,0-2.45,2.46,2.45,2.45,0,0,0,2.45-2.46Z"/><path class="a" d="M38,30.67a2.45,2.45,0,1,0-2.45,2.45A2.45,2.45,0,0,0,38,30.67Z"/><path class="a" d="M38,11a2.45,2.45,0,1,0-2.45,2.45A2.44,2.44,0,0,0,38,11Z"/><path class="a" d="M38,20.85a2.45,2.45,0,1,0-2.45,2.46A2.45,2.45,0,0,0,38,20.85Z"/><polygon class="a" points="27.22 23.99 32.24 29.01 32.8 28.45 27.78 23.43 27.22 23.99 27.22 23.99"/><polygon class="a" points="27.22 17.58 27.78 18.14 32.79 13.12 32.23 12.56 27.22 17.58 27.22 17.58"/><polygon class="a" points="38.43 28.45 38.99 29.01 44 23.99 43.44 23.43 38.43 28.45 38.43 28.45"/><polygon class="a" points="38.43 13.12 43.44 18.14 44 17.58 38.99 12.56 38.43 13.12 38.43 13.12"/><polygon class="a" points="28.18 20.85 31.86 20.85 31.86 19.63 28.18 19.63 28.18 20.85 28.18 20.85"/><polygon class="a" points="39.21 20.85 42.88 20.85 42.88 19.63 39.21 19.63 39.21 20.85 39.21 20.85"/></svg>